<svg width="92" height="92" viewBox="0 0 92 92" fill="none" xmlns="http://www.w3.org/2000/svg">
<circle cx="46" cy="46" r="46" fill="#D9EDFA"/>
<g clip-path="url(#clip0_670_7213)">
<path d="M14.5526 36.2197C15.9348 28.0665 19.8742 20.3587 25.6451 14.398C26.0598 13.9869 26.509 13.5416 27.0274 13.3361C27.8567 12.9935 28.8243 13.0963 29.6882 13.3703C33.8349 14.6378 36.6339 18.4061 39.0529 21.9688C40.1241 23.5104 41.1953 25.189 41.1953 27.0731C41.1953 29.2655 39.6058 31.1839 37.9125 32.5884C36.2193 33.993 34.2841 35.2262 33.0401 37.0761C31.5542 39.2685 31.2432 42.0776 31.7615 44.6811C32.2799 47.2847 33.593 49.6484 35.0789 51.8066C37.1523 54.8212 39.744 57.6303 43.0614 59.2061C46.3788 60.8162 50.4909 61.056 53.6701 59.2061C55.2251 58.2811 56.4691 56.9109 57.8168 55.6776C58.8881 54.6842 60.0284 53.7935 61.2379 52.9713C61.9636 52.4917 62.7929 52.0121 63.6568 52.0806C64.6935 52.1492 65.5228 53.0056 66.214 53.7592C68.9093 56.7738 71.4319 59.9597 73.7472 63.2484C74.7147 64.5844 75.6478 66.0232 75.8551 67.6675C76.2007 70.2368 74.6111 72.7376 72.5032 74.2791C70.3952 75.7864 67.8035 76.4716 65.2809 77.1225C59.1645 78.664 52.4952 80.0343 46.6898 77.4993C45.273 76.8827 43.9253 76.0262 42.4739 75.4439C40.9535 74.8272 39.3293 74.5532 37.7743 73.9708C35.5281 73.1486 33.5239 71.7784 31.6233 70.3053C23.8827 64.1733 17.559 55.7804 15.3474 46.1542C13.1358 36.528 15.4511 25.6343 22.5005 18.6116" fill="white"/>
<path d="M33.6274 20.8726C34.6986 20.1533 35.4589 18.8515 35.2515 17.584C36.5301 20.0162 38.6726 21.9004 40.2276 24.1956C40.8496 25.0863 41.4025 26.114 41.5407 27.2102C41.7481 29.2999 40.2967 31.2525 38.638 32.5885C39.0527 32.2802 35.4934 27.3815 35.1133 26.9019C33.7311 25.1548 31.8305 23.8187 30.4482 22.1059C31.3121 21.4893 32.6598 21.5578 33.6274 20.9069V20.8726Z" fill="#BCCEDA"/>
<path d="M62.8623 60.782C65.9378 65.0984 69.0133 69.4147 72.1233 73.7311C72.1924 73.8339 72.2961 73.9709 72.4343 74.0394C72.6417 74.1422 72.8836 74.0394 73.0909 73.9366C74.8878 73.0802 76.0282 71.1276 76.1664 69.1407C76.3046 67.1538 75.5098 65.2011 74.2658 63.6253C73.5056 62.6661 72.538 61.8439 71.6741 60.9533C70.5683 59.857 69.7044 58.5553 68.6677 57.4248C68.8751 58.7608 68.3567 60.0968 67.2855 60.8848C66.0069 61.8097 64.21 61.7754 62.8969 60.7477L62.8623 60.782Z" fill="#BCCEDA"/>
<path d="M35.6658 28.4432C34.0071 29.6765 30.5861 32.5541 28.9965 37.3843C26.232 45.88 31.45 53.348 32.9704 55.5747C34.871 58.3153 38.9832 64.2417 46.6546 65.2694C54.879 66.3656 60.8917 61.0558 61.8248 60.2337C65.0039 64.55 68.1831 68.9007 71.3622 73.217C67.9757 75.0669 59.5786 79.0407 49.2118 77.3621C33.5579 74.8271 25.6445 61.3984 23.2256 57.2533C20.9104 53.2795 16.2453 45.1264 17.3856 34.0614C18.3532 24.5379 23.0528 17.9949 25.2299 15.2886C28.6855 19.6735 32.1411 24.0583 35.5967 28.4432H35.6658Z" fill="#231F20"/>
<path d="M31.796 39.1999C30.863 41.8377 31.2776 44.7838 32.1415 47.3873C33.1782 50.4704 34.9406 53.3138 37.0831 55.746C39.0873 58.0412 41.5062 60.0966 44.3398 61.2956C45.5147 61.8095 46.7933 62.152 48.1064 62.152C49.4887 62.152 50.8364 61.7067 52.115 61.2271C54.0155 60.4735 55.847 59.4115 57.4366 58.1782C58.335 57.4931 59.1298 56.7052 59.9246 55.883C60.5812 55.1979 61.2378 54.3757 62.1362 53.9304C64.0368 52.9369 65.8337 54.6155 66.905 56.0201C67.5961 56.9107 68.2181 57.8357 68.9438 58.7263C69.7731 59.7198 70.5679 60.7133 71.3972 61.741C72.2266 62.7687 73.0905 63.8306 73.9198 64.8583C74.3345 65.3722 74.7146 65.8518 75.0256 66.4342C75.3712 67.085 75.7168 67.873 75.6476 68.6266C75.544 69.4488 75.0256 70.2024 74.5073 70.819C72.9868 72.4976 70.6716 73.5596 68.5982 74.416C61.2032 77.4991 52.6333 78.1843 44.9273 75.9576C37.1867 73.7651 30.9666 69.3803 25.8523 63.7964C20.7035 58.1782 16.7986 51.2241 15.5546 43.6876C14.6907 47.3873 14.9326 39.9536 15.5546 43.6876C14.1724 34.2326 18.561 24.6407 20.9799 21.2835C21.9129 20.016 22.8805 18.7828 23.9517 17.618C24.6429 16.8644 25.334 15.9737 26.1979 15.3571C27.7184 14.2266 29.7572 13.9525 31.5195 14.7062C32.1761 14.9803 32.729 15.3571 33.1782 15.8709C34.0421 16.8986 34.906 17.9606 35.7354 18.9883C36.5647 20.016 37.3941 21.0095 38.2234 22.0029C38.9491 22.8936 39.7784 23.75 40.3659 24.7092C41.2298 26.0452 41.4371 27.4155 40.6078 28.7858C39.0873 31.4236 36.0809 32.8966 34.1112 35.1233C33.0745 36.3223 32.2798 37.6241 31.7614 39.1314C31.6577 39.4054 31.6232 39.8165 31.7614 40.0563C31.8651 40.2619 32.0379 40.3304 32.1415 40.0563C32.6944 38.549 33.9039 37.4528 35.0788 36.4251C36.2537 35.3974 37.636 34.4382 38.8109 33.3762C39.9167 32.3828 40.9188 31.2523 41.5062 29.882C42.2319 28.1007 42.1628 26.011 41.5062 24.2296C41.1607 23.2704 40.5732 22.4483 39.9167 21.6604C39.0527 20.6326 38.1888 19.5707 37.3595 18.543C36.5302 17.5153 35.6663 16.4533 34.8024 15.4256C34.1458 14.6377 33.5929 13.6785 32.7635 13.0961C31.2085 11.9999 29.2043 11.6916 27.4073 12.3082C26.1633 12.7536 25.2994 13.5415 24.4355 14.5007C23.4334 15.5969 22.3967 16.6246 21.4983 17.7893C20.3233 19.2624 19.2521 20.8039 18.3537 22.4483C16.1421 26.285 14.7598 30.4986 14.2415 34.8835C13.2739 42.9682 15.4855 51.2241 19.5286 58.2468C23.5371 65.2009 29.4462 71.1616 36.461 75.1354C40.124 77.2251 44.1325 78.7324 48.2792 79.486C52.7024 80.274 57.2984 80.1369 61.687 79.2463C64.7625 78.6296 67.7689 77.6362 70.6025 76.2659C73.1251 75.0326 75.7168 73.3883 76.477 70.545C77.0644 68.3868 76.6152 66.0573 75.4749 64.1732C74.4382 62.3918 72.8832 60.816 71.6046 59.2059C70.7752 58.1782 69.9113 57.1163 69.082 56.0886C68.3563 55.1979 67.7343 54.2044 67.0086 53.3138C65.8337 51.9092 64.0368 50.5047 62.1362 51.3269C61.2723 51.7037 60.5812 52.4916 59.9592 53.1767C59.0953 54.1017 58.2314 55.0266 57.2638 55.8145C55.6051 57.1505 53.7391 58.2468 51.7694 59.0347C50.4563 59.5485 49.0395 59.9253 47.6227 59.8226C46.275 59.7198 44.9618 59.3087 43.7524 58.6921C40.8151 57.2533 38.3271 54.9581 36.3228 52.4231C34.3186 49.8881 32.6253 47.0447 32.0379 43.9274C31.796 42.6256 31.796 41.2896 32.2106 39.9878C32.2798 39.7823 32.3489 39.3712 32.2106 39.1656C32.107 38.9944 31.9688 38.9258 31.8996 39.1656L31.796 39.1999Z" fill="#231F20"/>
<path d="M58.5766 55.9175C58.7148 56.7739 59.3368 57.4933 59.8206 58.2127C60.3735 59.0006 60.8918 59.7543 61.4793 60.5079C62.6542 62.118 63.8291 63.7623 65.0385 65.3724C66.2134 66.9825 67.3538 68.524 68.5287 70.0999C69.1162 70.8878 69.6691 71.6757 70.2565 72.4293C70.7057 73.046 71.2932 73.9709 72.0189 74.2449C72.088 74.2449 72.088 74.0737 72.088 74.0394C71.5005 72.2923 70.1183 70.7165 69.047 69.2434C67.8721 67.6334 66.6627 66.0233 65.4878 64.4132C64.3129 62.8031 63.1725 61.2616 61.9976 59.72C61.4101 58.9321 60.8573 58.1785 60.2352 57.3905C59.9242 57.0137 59.164 55.6434 58.6111 55.7462C58.542 55.7462 58.542 55.8832 58.542 55.9175H58.5766Z" fill="#231F20"/>
<path d="M25.2307 15.4941C26.0255 17.1384 27.3732 18.6115 28.479 20.0503C29.5848 21.4891 30.7252 22.9279 31.8655 24.3667C33.0059 25.8054 34.1117 27.2442 35.252 28.683C35.8395 29.4024 36.3924 30.1561 36.9798 30.8755C37.429 31.4236 37.9819 32.2115 38.6731 32.4855C38.8113 32.5198 38.8113 32.2458 38.7767 32.1772C38.1547 30.5329 36.7725 29.0941 35.7012 27.7238C34.5609 26.2508 33.386 24.7777 32.2111 23.3047C31.0362 21.8316 29.9649 20.4271 28.8246 19.0226C28.2371 18.3032 27.6497 17.5838 27.0622 16.8644C26.5439 16.2135 25.991 15.4599 25.2999 15.0145C25.1271 14.9117 25.1616 15.4256 25.1962 15.4941H25.2307Z" fill="#231F20"/>
<path d="M47.5192 26.2164C49.8345 25.36 52.4953 25.2572 54.9142 25.4627C57.3677 25.6683 59.6484 26.3192 61.6872 27.6552C65.2119 29.9846 67.2507 33.9584 67.4235 38.1035C67.5272 40.7413 67.0434 43.4476 65.9721 45.8799C65.9721 45.9484 65.9721 46.2567 66.0758 46.1539C67.3198 44.1328 68.1146 41.9403 68.322 39.5766C68.4947 37.0758 68.1492 34.5408 67.2507 32.2113C65.4538 27.5867 61.4107 24.2637 56.4692 23.5101C54.9488 23.2703 53.4628 23.3731 51.9769 23.7156C50.3528 24.0925 48.936 24.7776 47.4846 25.5312C47.3119 25.5998 47.381 26.2506 47.5883 26.1821L47.5192 26.2164Z" fill="#0089DE"/>
<path d="M47.2768 18.303C49.1429 17.6179 51.078 17.3439 53.0477 17.1383C55.0174 16.9328 56.8489 17.0013 58.7149 17.1726C62.4815 17.4809 66.0408 18.5428 69.1509 20.701C71.7426 22.4824 73.8505 24.9146 75.3018 27.6894C76.7186 30.4643 77.4789 33.5816 77.6171 36.4935C77.7899 40.4673 76.9951 44.6124 75.4055 48.2779C75.3709 48.3806 75.4055 48.8602 75.5437 48.6889C77.4789 45.5716 78.6883 42.1801 78.9648 38.5146C79.2412 34.6779 78.6192 30.7726 77.2024 27.2098C75.8893 23.9554 73.8159 21.0093 71.1205 18.7484C68.1833 16.2476 64.4858 14.7403 60.6501 14.2265C58.3348 13.9182 56.0541 14.0894 53.7734 14.6376C51.4927 15.1857 49.2811 16.2476 47.1386 17.3781C46.8967 17.5151 46.9658 18.4743 47.2768 18.3373V18.303Z" fill="#0089DE"/>
</g>
<defs>
<clipPath id="clip0_670_7213">
<rect width="65" height="68" fill="white" transform="translate(14 12)"/>
</clipPath>
</defs>
</svg>
