<svg xmlns="http://www.w3.org/2000/svg" width="133" height="132" fill="none" viewBox="0 0 133 132"><g clip-path="url(#a)"><circle cx="66.5" cy="66" r="66" fill="#D9E5DA"/><g clip-path="url(#b)"><path fill="#fff" d="M24.185 53.08C26 42.315 31.132 32.131 38.737 24.29c.553-.553 1.105-1.132 1.816-1.421 1.079-.474 2.368-.29 3.5.053 5.421 1.657 9.079 6.657 12.263 11.342 1.395 2.026 2.816 4.263 2.79 6.71 0 2.921-2.08 5.421-4.29 7.29s-4.763 3.5-6.395 5.92c-1.947 2.895-2.368 6.606-1.657 10.027.684 3.421 2.394 6.553 4.368 9.421 2.737 3.974 6.105 7.658 10.447 9.79 4.342 2.105 9.737 2.447 13.895 0 2.053-1.211 3.658-3.027 5.421-4.632a35 35 0 0 1 4.5-3.579c.948-.658 2.026-1.29 3.184-1.184 1.369.105 2.448 1.21 3.342 2.237 3.527 3.973 6.816 8.184 9.869 12.526 1.263 1.79 2.5 3.684 2.789 5.816.448 3.395-1.631 6.71-4.394 8.71s-6.158 2.895-9.474 3.737c-8 2.026-16.763 3.842-24.316.5-1.868-.842-3.605-1.947-5.5-2.71-2-.79-4.132-1.185-6.158-1.921-2.947-1.079-5.579-2.895-8.026-4.843-10.263-8.078-18.526-19.157-21.421-31.894-2.921-12.737.131-27.106 9.368-36.342"/><path fill="#D2EAD8" d="M49.158 32.816c1.395-.974 2.368-2.658 2.131-4.342 1.685 3.21 4.448 5.71 6.527 8.71.842 1.184 1.552 2.527 1.71 3.974.29 2.79-1.631 5.316-3.815 7.079.526-.421-4.132-6.869-4.632-7.5-1.816-2.316-4.316-4.08-6.079-6.342 1.105-.842 2.895-.71 4.158-1.58M87.395 85.5c4.026 5.685 8.052 11.395 12.105 17.106.105.157.237.315.394.394.264.132.606 0 .869-.131 2.342-1.158 3.842-3.71 4-6.316.184-2.605-.842-5.21-2.474-7.263-1.026-1.29-2.263-2.369-3.395-3.527-1.447-1.447-2.578-3.184-3.947-4.631.29 1.763-.42 3.552-1.79 4.552-1.657 1.211-4.026 1.158-5.763-.184"/><path fill="#0B130C" d="M51.841 42.842c-2.158 1.632-6.658 5.447-8.71 11.816-3.632 11.21 3.184 21.105 5.184 24 2.5 3.632 7.868 11.447 17.92 12.816C77 92.947 84.895 85.92 86.079 84.816c4.158 5.71 8.342 11.42 12.5 17.131-4.447 2.448-15.421 7.658-28.974 5.474-20.5-3.342-30.815-21.079-34-26.526-3.052-5.237-9.131-16.027-7.658-30.632C29.21 37.711 35.341 29.08 38.21 25.5l13.58 17.368z"/><path fill="#0B130C" d="M46.763 57.027c-1.237 3.5-.684 7.394.474 10.816 1.368 4.052 3.658 7.815 6.447 11.026 2.632 3 5.79 5.763 9.5 7.342 1.553.658 3.21 1.132 4.921 1.132 1.79 0 3.58-.58 5.21-1.237a27.6 27.6 0 0 0 6.974-4.053A30 30 0 0 0 83.552 79c.869-.92 1.737-1.973 2.869-2.605 2.5-1.316 4.842.921 6.237 2.79.894 1.184 1.737 2.394 2.658 3.552 1.079 1.316 2.131 2.658 3.21 3.974s2.211 2.737 3.316 4.105c.526.658 1.053 1.342 1.447 2.08.448.868.921 1.894.79 2.92-.132 1.08-.816 2.105-1.5 2.869-2 2.21-5.026 3.631-7.737 4.763-9.684 4.079-20.868 4.947-31 2.052s-18.29-8.684-24.974-16.079c-6.71-7.42-11.842-16.579-13.473-26.526-.816-4.947-.737-10.026.394-14.92 1.237-5.29 3.606-10.238 6.737-14.659 1.21-1.684 2.5-3.29 3.895-4.816.921-1.026 1.842-2.157 2.947-2.973 2-1.474 4.658-1.869 6.974-.869.842.369 1.605.842 2.184 1.553 1.132 1.368 2.237 2.737 3.369 4.132a976 976 0 0 0 3.236 3.973c.948 1.158 2.027 2.29 2.816 3.58 1.105 1.789 1.395 3.552.316 5.394-2 3.447-5.895 5.42-8.5 8.368a15.8 15.8 0 0 0-3.079 5.264c-.131.342-.158.894.026 1.21.158.263.369.342.5 0 .71-2 2.316-3.421 3.843-4.79 1.526-1.368 3.315-2.605 4.894-4.026 1.448-1.316 2.79-2.79 3.526-4.605.948-2.342.843-5.105-.052-7.447-.474-1.264-1.21-2.343-2.053-3.369-1.131-1.368-2.237-2.737-3.368-4.131-1.132-1.395-2.237-2.737-3.369-4.132-.842-1.026-1.605-2.316-2.684-3.079-2.026-1.421-4.605-1.868-6.947-1.026-1.605.579-2.763 1.631-3.895 2.868-1.29 1.448-2.658 2.816-3.868 4.369a50 50 0 0 0-4.132 6.131 44.3 44.3 0 0 0-5.395 16.421C22.42 62 25.342 72.87 30.631 82.132c5.237 9.158 12.974 17.053 22.132 22.316 4.79 2.763 10.026 4.763 15.474 5.737 5.79 1.052 11.79.868 17.552-.316 4.027-.842 7.974-2.132 11.658-3.921 3.29-1.632 6.684-3.79 7.684-7.553.764-2.842.185-5.895-1.289-8.42-1.368-2.37-3.368-4.422-5.079-6.553a571 571 0 0 1-3.316-4.132c-.947-1.184-1.737-2.5-2.737-3.658-1.526-1.842-3.894-3.737-6.394-2.605-1.158.5-2.027 1.526-2.869 2.447-1.131 1.237-2.237 2.447-3.526 3.5a26.5 26.5 0 0 1-7.21 4.237c-1.737.684-3.553 1.184-5.448 1.053-1.763-.132-3.474-.685-5.053-1.5-3.842-1.895-7.079-4.948-9.736-8.264s-4.869-7.079-5.58-11.21c-.315-1.737-.315-3.5.211-5.21.08-.29.158-.843-.026-1.106-.158-.21-.29-.316-.421 0z"/><path fill="#0B130C" d="M81.815 79.079c.21 1.131 1 2.079 1.632 3.026a126 126 0 0 0 2.158 3.026c1.552 2.132 3.105 4.29 4.658 6.421 1.552 2.132 3.026 4.158 4.552 6.237.764 1.026 1.5 2.053 2.29 3.079.605.79 1.342 2.026 2.316 2.395.105.026.105-.211.079-.263-.764-2.316-2.553-4.395-4-6.342a1331 1331 0 0 0-4.658-6.369c-1.553-2.131-3.027-4.131-4.553-6.21-.763-1.027-1.5-2.053-2.29-3.053-.394-.5-1.394-2.316-2.131-2.158-.079 0-.079.158-.079.237zM38.157 25.71c1.053 2.184 2.79 4.105 4.263 6.026 1.447 1.921 2.947 3.816 4.421 5.71 1.474 1.896 2.947 3.79 4.447 5.685.764.974 1.5 1.947 2.29 2.895.605.737 1.29 1.79 2.21 2.131.158.08.158-.315.132-.394-.842-2.184-2.605-4.053-4.026-5.895a882 882 0 0 0-4.553-5.842c-1.526-1.948-2.947-3.79-4.447-5.658l-2.29-2.842c-.684-.842-1.395-1.842-2.29-2.448-.236-.157-.183.553-.157.632M67.342 39.869c3.026-1.132 6.5-1.264 9.684-.974S83.21 40 85.894 41.789c4.606 3.08 7.263 8.316 7.5 13.764.158 3.5-.526 7.079-1.894 10.29-.027.078.026.5.131.368 1.632-2.658 2.684-5.553 2.921-8.685.237-3.29-.237-6.631-1.42-9.71C90.788 41.71 85.5 37.316 79 36.342c-2-.29-3.921-.184-5.895.29-2.105.5-3.974 1.394-5.895 2.42-.21.106-.158.948.132.843z"/><path fill="#0B130C" d="M67 29.42c2.42-.92 4.973-1.263 7.552-1.526s4.973-.157 7.447.053c4.921.421 9.553 1.816 13.658 4.658a25.4 25.4 0 0 1 8.053 9.21c1.868 3.658 2.868 7.764 3.026 11.632.237 5.21-.789 10.71-2.895 15.553-.052.131.053.79.185.552 2.526-4.105 4.131-8.605 4.447-13.42.342-5.053-.421-10.238-2.316-14.948-1.71-4.29-4.421-8.184-7.947-11.184-3.869-3.29-8.71-5.29-13.71-5.974-3.053-.421-6.027-.184-9 .553-2.975.736-5.895 2.131-8.711 3.631-.316.158-.237 1.421.184 1.263z"/></g></g><defs><clipPath id="a"><rect width="132" height="132" x=".5" fill="#fff" rx="66"/></clipPath><clipPath id="b"><path fill="#fff" d="M23.368 21h85.263v90H23.368z"/></clipPath></defs></svg>