<svg width="132" height="132" viewBox="0 0 132 132" fill="none" xmlns="http://www.w3.org/2000/svg">
<g clip-path="url(#clip0_932_63648)">
<circle cx="66" cy="66" r="66" fill="white"/>
<path d="M107.453 28.3518H28.8095V76.6481H107.453V28.3518Z" fill="white"/>
<path d="M75.0576 28.9235H75.0365L69.1429 34.872L58.75 45.3619L44.4906 59.7562C45.5474 64.8652 46.5831 69.953 47.6167 75.0619C49.7535 75.1062 51.9114 75.1505 54.0482 75.1948C57.9041 70.9697 61.7601 66.7404 65.6139 62.509C70.6426 56.9887 75.6693 51.4664 80.6959 45.9462C86.0685 40.042 91.4432 34.14 96.8158 28.2422L75.0576 28.9235ZM70.2039 50.4075H70.1997C67.9553 50.5404 66.2551 48.5977 66.1454 46.9291C66.0653 45.7521 66.774 44.6679 66.9154 44.4612C67.0757 44.2228 67.3689 43.8009 67.9068 43.4381C68.4194 43.0922 68.9446 42.9424 69.3665 42.8812C69.3749 42.8812 69.3833 42.8812 69.3918 42.8749C69.4846 42.8623 69.569 42.8538 69.6512 42.8496L69.7715 42.8433C69.8938 42.8391 69.9951 42.8391 70.0731 42.8433C71.8176 42.9361 73.8362 44.4253 73.8194 46.6549C73.8067 48.6652 72.1445 50.2936 70.2039 50.4075Z" fill="#B7BFF6"/>
<path d="M56.4487 79.0042C71.7775 62.3106 87.1042 45.5959 102.454 28.9023C105.272 29.0563 108.114 29.1892 110.934 29.3432C94.7254 45.7942 78.5148 62.2452 62.3064 78.6752C60.3679 78.7848 58.4083 78.8945 56.4487 78.9831V79.0042Z" fill="#B7BFF6"/>
<path d="M79.9471 100.146C77.2154 99.6402 73.7582 99.2204 69.7061 99.2204C65.654 99.2204 62.2853 99.6381 59.5536 100.146V90.8525C62.087 91.2702 65.5443 91.69 69.685 91.7111C73.87 91.7111 77.3715 91.2934 79.926 90.8525V100.146H79.9471Z" fill="#101A5B"/>
<path d="M92.4557 106.842C77.4137 106.975 62.3718 107.129 47.353 107.259C47.6167 107.15 47.9922 106.951 48.3444 106.599C49.049 105.916 49.2472 105.101 49.3358 104.77C49.3801 103.119 49.4012 101.467 49.4687 99.8364C63.7619 99.9904 78.055 100.144 92.3481 100.322C92.3924 102.503 92.4578 104.682 92.5021 106.863L92.4578 106.842H92.4557Z" fill="#101A5B"/>
<path d="M48.8507 82.66V89.7285V90.8507C66.1834 90.7853 83.5373 90.741 100.847 90.6735L107.761 84.396V75.1907H48.8507V82.6347V82.6557V82.66Z" fill="#101A5B"/>
<path d="M32.4208 84.2905C30.13 82.3752 30.4823 79.2259 30.5055 79.0487C30.3958 72.3325 30.2861 65.6373 30.1743 58.9189H26.0779C26.2551 69.8202 26.4091 77.7936 26.4301 81.6918C26.4301 83.0565 26.4512 86.4484 28.7209 88.1886C30.4169 89.5091 32.6844 89.3551 33.9184 89.18C38.3228 89.1357 42.7061 89.0704 47.1105 89.0472V85.2144C43.4992 85.2798 39.8648 85.3684 36.2746 85.457C35.8569 85.5013 34.0281 85.6342 32.4651 84.3116L32.4208 84.2905Z" fill="#101A5B"/>
<path d="M109.656 28.1094C107.453 25.4896 104.085 24.7175 102.498 24.7407C80.08 24.939 57.7038 25.1373 35.2832 25.3567C33.6527 25.4453 30.2397 25.8629 27.9489 28.4406C25.9661 30.6639 25.7024 33.4398 25.7256 35.2686C25.8353 43.3075 25.945 50.5975 26.0336 56.9825H30.13C29.9971 49.8254 29.8874 42.6683 29.7566 35.5091C29.7123 35.2222 29.3601 33.0643 30.9231 31.2376C32.5305 29.3666 34.8002 29.4088 35.0849 29.432C57.5477 29.1008 80.0336 28.7718 102.52 28.4406C103.467 28.5735 105.118 28.9468 106.24 30.3116C107.363 31.6321 107.386 33.2415 107.407 34.9586C107.428 38.9664 107.407 42.2929 107.342 44.957C107.276 61.2097 107.055 73.2564 107.078 77.9919C107.078 79.0719 107.078 81.6264 105.405 83.74C104.04 85.457 102.321 86.0518 101.64 86.2501C95.9573 86.383 90.2767 86.4927 84.5941 86.6235C84.5498 87.9882 84.4844 89.3762 84.4401 90.741C89.9245 90.741 95.3856 90.7199 100.87 90.6967C103.469 90.6967 105.253 90.1904 106.639 89.4184C106.991 89.2201 107.96 88.6485 108.907 87.6128C111.373 84.9697 111.615 81.6221 111.638 80.4114C111.638 64.4666 111.617 48.5218 111.617 32.6003C111.419 31.4338 110.978 29.6936 109.679 28.1516L109.658 28.1073L109.656 28.1094Z" fill="#101A5B"/>
<path d="M45.4377 60.197H21.6524V104.772H45.4377V60.197Z" fill="white"/>
<path d="M45.3702 66.4514C43.0984 69.3771 40.8245 72.3028 38.5527 75.2285C37.6436 76.3992 36.7366 77.5678 35.8274 78.7364C35.5912 77.7197 34.5977 77.0636 33.7223 77.0172C33.6759 77.0151 33.6189 77.0151 33.5493 77.0172C33.524 77.0193 33.5008 77.0193 33.4797 77.0214C33.4312 77.0236 33.3827 77.0299 33.3299 77.0362C33.3236 77.0383 33.3194 77.0383 33.3152 77.0383C33.0705 77.0742 32.7688 77.1607 32.4735 77.3611C32.1634 77.5699 31.9947 77.8125 31.9019 77.9496C31.8217 78.0698 31.4125 78.6942 31.4589 79.3713C31.5222 80.3311 32.4925 81.4427 33.7771 81.3773C32.5199 82.9973 31.2606 84.6173 30.0034 86.2352C27.6156 89.3086 25.2299 92.3819 22.8421 95.4553C22.5109 93.0991 22.1798 90.7218 21.8507 88.3636V88.3425C23.6479 85.6193 25.4472 82.8961 27.2423 80.175C28.9234 77.629 30.6046 75.085 32.2837 72.5432C34.9668 68.4764 37.6499 64.4116 40.3267 60.3511C40.4596 60.3068 42.7715 59.7119 44.4674 61.2539C45.8554 62.5089 46.2309 64.6457 45.3702 66.4514Z" fill="#B7BFF6"/>
<path d="M21.741 100.566C29.2504 91.2956 36.783 82.0228 44.2924 72.7732C44.5349 73.9629 44.7543 75.1294 44.9969 76.3191C37.5086 85.1067 30.0435 93.9155 22.5552 102.703C22.2684 101.999 22.0047 101.294 21.741 100.59V100.568V100.566Z" fill="#B7BFF6"/>
<path d="M47.5724 103.296C47.815 100.741 47.7918 84.2672 47.4627 61.7158C47.4184 61.3193 47.2645 60.2625 46.4713 59.3365C45.4145 58.1025 44.0498 57.9717 43.7397 57.9485C36.8695 58.0814 29.9971 58.2354 23.1269 58.345C22.8843 58.345 21.4541 58.3893 20.3509 59.6655C19.3384 60.8552 19.3595 62.2854 19.3595 62.5722C19.5578 75.5428 19.7561 88.5154 19.9312 101.486C19.9101 101.817 19.7772 103.996 21.2959 105.648C22.4181 106.859 23.7618 107.057 24.1816 107.124C30.7227 107.145 37.2639 107.19 43.8051 107.213C44.0477 107.213 45.4778 107.148 46.5578 105.892C47.372 104.945 47.4838 103.779 47.5492 103.294H47.5703L47.5724 103.296ZM43.8283 103.23C43.0584 103.935 42.1555 103.825 41.9995 103.802H26.099C25.9007 103.823 24.8882 103.935 24.0065 103.142C22.9054 102.15 23.0383 100.653 23.0594 100.522C22.8168 88.6293 22.5742 76.7156 22.3105 64.8229C22.0912 63.8758 22.3548 62.8844 23.0151 62.2685C23.7428 61.585 24.6224 61.6736 24.7996 61.6736C26.7149 61.6736 28.6091 61.6293 30.5477 61.6293C31.1193 62.7093 32.2647 63.3696 33.4987 63.3464C34.6884 63.3021 35.7662 62.5765 36.2746 61.4754C38.4557 61.4311 40.2381 61.41 41.8455 61.3214C42.3306 61.3003 43.1005 61.256 43.6511 61.739C44.3999 62.4225 44.3345 63.7218 44.3113 64.1184C44.2227 66.4092 44.3999 81.12 44.6425 101.667C44.6214 101.866 44.5096 102.659 43.8726 103.254L43.8283 103.233V103.23Z" fill="#101A5B"/>
<path d="M32.7288 61.0112C32.7288 61.4964 33.1021 61.8698 33.4987 61.8487C33.872 61.8487 34.2264 61.4753 34.2264 61.0344C34.2264 60.5936 33.8742 60.197 33.4776 60.197C33.081 60.197 32.7288 60.5493 32.7288 61.0112Z" fill="white"/>
<path d="M69.7715 86.6022C72.0455 86.6022 73.889 84.7587 73.889 82.4847C73.889 80.2107 72.0455 78.3672 69.7715 78.3672C67.4975 78.3672 65.654 80.2107 65.654 82.4847C65.654 84.7587 67.4975 86.6022 69.7715 86.6022Z" fill="white"/>
<path d="M60.4565 58.5244C61.6019 60.2646 63.1881 61.6526 65.0591 62.6208C64.42 61.4754 63.8484 60.1107 63.4075 58.5244H60.4565Z" fill="#B7BFF6"/>
<path d="M80.6959 45.9461C80.6242 44.6636 80.3373 43.2946 79.7108 41.9046C78.1161 38.3608 74.3509 34.7158 69.3411 34.8635C69.2736 34.8656 69.2082 34.8677 69.1429 34.8719C64.2132 35.1166 60.6737 38.9599 59.3469 42.6956C59.0221 43.6089 58.8343 44.5033 58.75 45.3618C58.3471 49.435 60.2392 52.6645 60.564 53.2003C62.2473 56.3032 63.9306 59.4061 65.6139 62.5089C67.0398 65.1393 68.4679 67.7697 69.8938 70.4001C72.8448 64.8039 75.7958 59.2078 78.7468 53.6095C78.9557 53.2762 80.9279 50.0468 80.6959 45.9461ZM69.3665 42.8812C69.3665 42.8812 69.3833 42.8812 69.3918 42.8749C69.4846 42.8622 69.569 42.8538 69.6512 42.8496L69.7715 42.8432C69.8938 42.839 69.995 42.839 70.0731 42.8432C71.8175 42.9361 73.8362 44.4253 73.8193 46.6549C73.8067 48.6651 72.1445 50.2936 70.2039 50.4075H70.1997C67.9553 50.5403 66.2551 48.5976 66.1454 46.9291C66.0653 45.7521 66.774 44.6678 66.9154 44.4611C67.0757 44.2228 67.3689 43.8009 67.9068 43.4381C68.4193 43.0921 68.9446 42.9424 69.3665 42.8812Z" fill="#101A5B"/>
<path d="M70.0288 70.2608C69.3602 68.5185 68.4194 66.8753 67.5524 65.2236C66.6876 63.572 65.8354 61.9436 64.96 60.313C63.5045 57.6025 62.0195 54.9046 60.5662 52.194C60.389 51.8671 60.2308 51.5338 60.0831 51.1921C60.0388 51.0908 59.9945 50.9875 59.9523 50.8841C59.9313 50.8293 59.908 50.7765 59.8891 50.7217C59.9418 50.8546 59.8701 50.6668 59.8659 50.6542C59.7667 50.3884 59.676 50.1184 59.5959 49.8484C59.2267 48.6313 59.0685 47.545 59.0833 46.2604C59.0896 45.6782 59.2035 44.8323 59.3702 44.1636C59.5368 43.495 59.7562 42.8854 60.0346 42.2779C60.5409 41.1704 61.2222 40.1453 62.0301 39.234C63.7788 37.266 66.2172 35.8822 68.8645 35.6713C71.5117 35.4604 74.2602 36.4412 76.3274 38.23C77.2577 39.0336 78.0824 40.0293 78.692 41.0839C79.3797 42.2736 79.9239 43.727 80.1285 44.9061C80.1602 45.0875 80.1876 45.2689 80.2108 45.4525C80.2213 45.5432 80.2298 45.6339 80.2424 45.7225C80.2762 46.0178 80.234 45.5179 80.2488 45.8132C80.2677 46.1907 80.2804 46.5641 80.272 46.9438C80.2677 47.2286 80.2867 46.7329 80.2698 47.0134C80.2635 47.0978 80.2614 47.18 80.2551 47.2623C80.2445 47.4247 80.2277 47.5893 80.2108 47.7517C80.1939 47.9141 80.1728 48.0681 80.1496 48.2284C80.1454 48.2621 80.1011 48.5216 80.1412 48.2959C80.1243 48.3972 80.1053 48.4984 80.0863 48.5975C80.0294 48.8886 79.964 49.1755 79.888 49.4603C79.8543 49.5868 79.8227 49.7092 79.7847 49.8315C79.7699 49.8864 79.7509 49.9412 79.7362 49.9961C79.7256 50.034 79.6349 50.3125 79.7024 50.11C79.5484 50.574 79.3713 51.036 79.173 51.4811C79.0295 51.8038 78.8734 52.1244 78.7047 52.4366C78.6899 52.4661 78.673 52.4914 78.6583 52.521C78.6013 52.6307 78.7511 52.3607 78.692 52.4619C78.6688 52.5041 78.6435 52.5463 78.6203 52.5885C78.5866 52.6454 78.5528 52.6982 78.5191 52.7551C78.0423 53.5609 77.6373 54.4173 77.2028 55.2442C76.7683 56.0711 76.3696 56.9064 75.9583 57.7417C75.1356 59.4018 74.3024 61.0576 73.4545 62.705C72.6065 64.3525 71.7374 65.9577 70.9169 67.603C70.5161 68.4088 70.1448 69.2293 69.7356 70.033C69.6323 70.2397 69.6449 70.5751 69.7525 70.7776C69.8601 70.9801 69.993 70.9485 70.0942 70.7692C70.5435 69.9571 71.035 69.1661 71.4759 68.3497C71.9167 67.5334 72.3534 66.7129 72.79 65.8944C73.6717 64.247 74.5661 62.6059 75.4605 60.9669C76.357 59.3279 77.3125 57.7122 78.1879 56.0563C78.4009 55.6534 78.6161 55.2484 78.8291 54.8455C78.8882 54.7337 78.9494 54.6219 79.0084 54.5059C79.0084 54.5059 79.0949 54.3477 79.0443 54.4363C79.0148 54.4869 79.0274 54.4679 79.0338 54.4532C79.0485 54.4257 79.0654 54.4025 79.0802 54.3751C79.2341 54.1199 79.3776 53.8604 79.5147 53.5947C80.6432 51.4051 81.2317 48.9055 81.2001 46.446C81.179 44.6931 80.8309 42.898 80.0716 41.3075C79.5273 40.1685 78.7996 39.1011 77.9685 38.1519C76.1418 36.0615 73.6844 34.5154 70.9042 34.1568C68.1241 33.7982 65.2237 34.6989 63.0489 36.4982C60.872 38.2975 59.4271 40.641 58.75 43.2671C58.0033 46.1612 58.3471 49.2346 59.4651 51.9831C59.714 52.5927 60.0114 53.1749 60.3384 53.7423C61.2602 55.3433 62.1102 56.9907 62.9941 58.615C64.7807 61.9014 66.6032 65.1625 68.451 68.413C68.6725 68.8054 68.8961 69.1977 69.1218 69.5858C69.3475 69.9739 69.588 70.2925 69.8538 70.6342C70.0077 70.8325 70.0689 70.3389 70.0373 70.2503L70.033 70.2545L70.0288 70.2608Z" fill="#101A5B"/>
<path d="M39.2762 76.4751C39.0864 76.0553 38.8438 75.6334 38.5527 75.2284C37.4347 73.6633 35.5933 72.3513 33.3004 72.4188C32.9502 72.4293 32.6106 72.4715 32.2836 72.5432C29.9148 73.0473 28.221 75.0133 27.5397 76.9328C27.122 78.1077 27.1009 79.2257 27.2422 80.1749C27.4679 81.6747 28.1029 82.7589 28.2421 82.9867C28.8285 84.0688 29.4149 85.1531 30.0034 86.2352C31.2079 88.4584 32.4144 90.6796 33.6189 92.9008C35.319 89.6756 37.0192 86.4503 38.7215 83.223C38.8797 82.972 40.7908 79.8374 39.2762 76.4751ZM33.7982 81.3773H33.7771C32.4925 81.4427 31.5222 80.331 31.4589 79.3713C31.4125 78.6941 31.8217 78.0698 31.9019 77.9495C31.9947 77.8124 32.1634 77.5698 32.4735 77.361C32.7688 77.1606 33.0704 77.0741 33.3151 77.0383C33.3194 77.0383 33.3236 77.0383 33.3299 77.0362C33.3826 77.0299 33.4311 77.0235 33.4797 77.0214C33.5008 77.0193 33.524 77.0193 33.5493 77.0172C33.6189 77.0151 33.6758 77.0151 33.7222 77.0172C34.5976 77.0636 35.5912 77.7196 35.8274 78.7363C35.8654 78.8882 35.8844 79.0485 35.8822 79.2152C35.8738 80.3732 34.9162 81.3119 33.7982 81.3773Z" fill="#101A5B"/>
<path d="M33.697 92.8208C33.311 91.8167 32.7688 90.8696 32.271 89.9183C31.7732 88.967 31.2817 88.0283 30.7776 87.0875C29.9381 85.5245 29.0838 83.9699 28.2442 82.4068C28.143 82.2191 28.0523 82.025 27.9658 81.8289C27.9405 81.7698 27.9152 81.7107 27.8899 81.6517C27.8772 81.62 27.8646 81.5905 27.854 81.5567C27.8835 81.6327 27.8435 81.5251 27.8392 81.5167C27.7823 81.3627 27.7296 81.2087 27.6831 81.0526C27.4701 80.3502 27.3794 79.7258 27.3878 78.9854C27.3921 78.65 27.4574 78.1628 27.5524 77.7767C27.6473 77.3907 27.7738 77.0406 27.9363 76.6904C28.2274 76.0513 28.6197 75.4607 29.0859 74.9354C30.0942 73.8006 31.499 73.0032 33.0241 72.8809C34.5492 72.7585 36.1333 73.326 37.3251 74.3553C37.8609 74.8194 38.3376 75.3932 38.6878 76.0007C39.0843 76.6862 39.3965 77.5236 39.5146 78.2049C39.5315 78.3083 39.5484 78.4138 39.561 78.5192C39.5674 78.572 39.5716 78.6226 39.5779 78.6753C39.5969 78.8462 39.5737 78.5572 39.5821 78.7281C39.5927 78.9453 39.599 79.1605 39.5969 79.3799C39.5948 79.5444 39.6053 79.2575 39.5969 79.4199C39.5927 79.4685 39.5927 79.517 39.5885 79.5634C39.5821 79.6583 39.5737 79.7511 39.5631 79.846C39.5526 79.941 39.5421 80.0296 39.5273 80.1203C39.5252 80.1392 39.4999 80.289 39.5231 80.1603C39.5125 80.2194 39.502 80.2764 39.4914 80.3333C39.4577 80.5 39.4197 80.6666 39.3775 80.8311C39.3585 80.9028 39.3396 80.9746 39.3185 81.0463C39.31 81.0779 39.2995 81.1096 39.291 81.1412C39.2847 81.1623 39.232 81.3247 39.2721 81.2066C39.1835 81.4745 39.0822 81.7403 38.9683 81.9976C38.886 82.1832 38.7953 82.3689 38.6983 82.5482C38.6899 82.565 38.6814 82.5798 38.6709 82.5967C38.6371 82.6599 38.7236 82.5039 38.6899 82.5629C38.6751 82.5861 38.6624 82.6114 38.6477 82.6346C38.6287 82.6684 38.6076 82.6979 38.5886 82.7317C38.3144 83.1957 38.0803 83.6893 37.8292 84.166C37.5782 84.6428 37.3504 85.1237 37.1121 85.6046C36.6374 86.5623 36.1565 87.5157 35.6692 88.465C35.182 89.4142 34.6799 90.3402 34.2074 91.2873C33.9754 91.7514 33.7624 92.2239 33.5261 92.6879C33.4671 92.8082 33.4734 93.0001 33.5367 93.1161C33.5999 93.2321 33.6759 93.2153 33.7328 93.1119C33.9923 92.6436 34.2749 92.188 34.5281 91.7176C34.7812 91.2472 35.0343 90.7747 35.2853 90.3022C35.7937 89.353 36.3084 88.408 36.8252 87.463C37.342 86.518 37.8925 85.5878 38.3967 84.6322C38.519 84.4002 38.6435 84.166 38.7658 83.934C38.7996 83.8686 38.8354 83.8053 38.8692 83.7378C38.8692 83.7378 38.9177 83.6471 38.8903 83.6978C38.8734 83.7273 38.8797 83.7146 38.8839 83.7083C38.8924 83.6935 38.9008 83.6788 38.9113 83.664C38.9999 83.5164 39.0822 83.3666 39.1624 83.2147C39.8121 81.9533 40.1517 80.5126 40.1327 79.0951C40.12 78.0847 39.9196 77.0511 39.483 76.1335C39.1687 75.4775 38.7489 74.8616 38.2701 74.3153C37.2175 73.1108 35.8021 72.2185 34.199 72.0118C32.5959 71.8051 30.9253 72.324 29.6723 73.3618C28.4193 74.3996 27.584 75.7496 27.1938 77.2642C26.7635 78.9327 26.9617 80.7046 27.6072 82.2887C27.7506 82.641 27.9215 82.9764 28.1113 83.3033C28.6429 84.2251 29.1323 85.1764 29.6428 86.113C30.6721 88.0072 31.7226 89.8867 32.7878 91.7598C32.9165 91.9855 33.0452 92.2112 33.176 92.4369C33.3067 92.6626 33.446 92.844 33.5978 93.0402C33.6864 93.1541 33.7223 92.8693 33.7033 92.8187H33.7012L33.697 92.8208Z" fill="#101A5B"/>
</g>
<defs>
<clipPath id="clip0_932_63648">
<rect width="132" height="132" rx="66" fill="white"/>
</clipPath>
</defs>
</svg>
