<svg xmlns="http://www.w3.org/2000/svg" width="133" height="132" fill="none" viewBox="0 0 133 132"><circle cx="66.5" cy="66" r="66" fill="#F7FBFD"/><g clip-path="url(#a)"><path fill="#fff" d="M66.943 96.825c29.164-.851 45.657-22.815 47.59-25.489-4.814-9.832-13.806-17.239-23.924-21.236-10.118-3.994-21.295-4.785-32.09-3.544-11.221 1.287-22.41 4.935-31.71 11.509-3.61 2.55-6.516 5.449-6.516 5.449a47.7 47.7 0 0 0-5.427 6.483c1.316 1.924 19.749 27.777 52.076 26.835z"/><path fill="#C0AF70" d="M64.036 59.925c12.407.188 22.131 2.198 26.213 3.135a124.3 124.3 0 0 1 24.626 8.453C111.8 67.196 106.11 60.36 96.977 54.73c-3.048-1.879-13.936-7.83-29.462-9.011-10.311-.78-20.89 1.046-30.06 5.858-4.918 2.576-9.379 5.962-13.735 9.416-2.52 1.995-5.962 4.368-7.334 7.372 11.917-4.447 28.358-8.726 47.657-8.441z"/><path fill="#212121" d="M71.448 79.706a10.4 10.4 0 0 1-6.026 1.924c-5.806 0-10.512-4.748-10.512-10.605S59.616 60.42 65.422 60.42s10.512 4.747 10.512 10.605c0 2.782-1.07 5.306-2.803 7.192L83.818 89a25.87 25.87 0 0 0 7.226-17.985c0-14.28-11.467-25.853-25.626-25.853-14.158 0-25.625 11.569-25.625 25.853 0 14.283 11.467 25.852 25.625 25.852 6.42 0 12.285-2.385 16.783-6.315l-10.75-10.845h-.007z"/><path fill="#C0AF70" d="M73.299 71.601c.309-4.383-2.963-8.19-7.308-8.502s-8.119 2.989-8.428 7.373 2.963 8.19 7.308 8.502c4.346.312 8.119-2.989 8.428-7.373"/><path fill="#212121" d="M58.356 74.561c-1.342-2.79-.863-6.255 1.212-8.869-1.335 2.978-1 6.45.895 9.072 2.818 3.9 7.483 3.705 7.799 3.675-.64.247-2.74.956-5.226.168-.38-.123-3.257-1.09-4.68-4.05z"/><path fill="#212121" d="M64.872 48.443c29.48.273 47.282 19.96 49.995 23.07-8.72-20.048-28.373-33.11-50.021-33.233-21.4-.131-41.037 12.405-50.136 32.01 2.817-3.075 20.9-22.121 50.15-21.847h.012M64.184 22.211c-.226 1.647-.07 3.402.019 5.059.044.87.096 1.744.22 2.614.103.716.315 1.417.553 2.126.078.221.238.259.29 0 .167-.832.297-1.62.316-2.445a35 35 0 0 0-.045-2.419c-.078-1.729-.07-3.551-.476-5.235-.052-.221-.211-.645-.501-.559-.29.087-.353.63-.38.87v-.007zM98.627 32.186c-.543.371-.844 1.204-1.149 1.763q-.59 1.051-1.14 2.126c-.369.716-.748 1.425-1.082 2.16-.38.859-.677 1.736-.94 2.632-.02.053-.027.578.114.462 1.056-.885 1.703-2.093 2.372-3.297.368-.675.747-1.346 1.108-2.028.394-.762.85-1.508 1.07-2.34a2.26 2.26 0 0 0 .026-1.08c-.033-.143-.148-.548-.36-.398zM122.61 55.789c-.123.026-.246.007-.361.064-.13.063-.256.168-.368.258-.271.203-.509.443-.755.675-.516.47-1.018.938-1.527 1.418-.51.48-1.019.937-1.509 1.436-.562.566-1.063 1.196-1.591 1.789-.064.064-.071.48.052.409.554-.3 1.133-.593 1.643-.968.554-.39 1.063-.859 1.572-1.312s1-.923 1.483-1.4c.245-.247.509-.494.729-.76.115-.143.226-.293.342-.435.16-.203.238-.443.349-.664.034-.064.089-.533-.063-.495v-.008zM34.001 33.506c.246.878.684 1.64 1.108 2.438.36.682.729 1.354 1.108 2.029.669 1.215 1.327 2.437 2.371 3.356.123.105.123-.364.104-.409a23 23 0 0 0-.947-2.614 37 37 0 0 0-1.09-2.17c-.386-.72-.728-1.373-1.107-2.056-.186-.326-.368-.664-.562-.994-.193-.33-.353-.675-.669-.903-.405-.285-.36 1.17-.323 1.32H34zM10.327 56.284c.104.202.186.435.323.619q.175.225.361.45c.22.266.483.506.721.753q.736.741 1.528 1.444c.49.443.992.885 1.528 1.275.535.39 1.107.683 1.669.994.115.064.104-.338.052-.39-.502-.559-.993-1.125-1.502-1.676-.51-.552-1.063-1.028-1.598-1.523-.51-.469-1.019-.949-1.528-1.417-.245-.222-.49-.47-.755-.683-.115-.09-.245-.214-.379-.274-.115-.063-.245-.045-.379-.07-.141-.035-.063.442-.033.494h-.008zM16.185 71.576c2.019 3.66 4.944 6.803 7.921 9.683 6.078 5.872 13.2 10.657 21.058 13.751 10.214 4.024 21.514 4.98 32.238 2.647 9.222-2.002 17.82-6.37 25.08-12.42 4.233-3.524 8.069-7.556 11.028-12.243.123-.195.238-.409.368-.593.045-.063 0-.356-.07-.266-.833 1.196-1.967 2.257-2.978 3.315-2.074 2.16-4.222 4.252-6.49 6.21-6.754 5.831-14.675 10.376-23.235 12.862-10.513 3.057-21.92 3.03-32.388-.187-8.255-2.542-15.842-7.016-22.377-12.686-3.564-3.094-6.612-6.627-9.772-10.11-.097-.105-.186-.214-.282-.319-.116-.142-.142.285-.104.356z"/></g><defs><clipPath id="a"><path fill="#fff" d="M10 21h113v78H10z"/></clipPath></defs></svg>