<svg xmlns="http://www.w3.org/2000/svg" width="344" height="249" fill="none" viewBox="0 0 344 249"><g clip-path="url(#a)"><path fill="#F0DEA9" d="M185.5 264C287.949 264 371 204.902 371 132S287.949 0 185.5 0 0 59.098 0 132s83.051 132 185.5 132"/><path fill="#fff" d="M260.973 26.83c.652-1.646 2.914-1.732 4.675-1.534 13.185 1.467 26.952 3.146 37.942 10.587a41.2 41.2 0 0 1 12.531 13.456c.993 1.709 1.864 3.515 2.274 5.455.483 2.32.282 4.73.502 7.087.249 2.686 1.05 5.352.752 8.03-.451 4-3.26 7.332-4.362 11.206-.454 1.597-.61 3.262-.763 4.912-1.102 12.1-1.939 24.434.744 36.28-5.046 4.849-11.492 8.376-18.329 9.888-.353.074-.774.134-1.027-.127-.145-.145-.186-.357-.223-.558-1.426-7.128-2.948-14.566-7.425-20.293-.249-.317-.525-.641-.901-.797-.588-.242-1.257-.011-1.845.22-3.45 1.363-7.269 2.875-10.752 1.593-1.459-.536-2.699-1.519-3.878-2.539a55 55 0 0 1-13.443-17.612c-4.611-9.59-6.356-19.72-6.93-30.348-.271-4.986-.126-9.988.075-14.975.074-1.813.156-3.623.391-5.422a32 32 0 0 1 1.276-5.657c1.31-4.052 4.57-7.862 8.705-8.845l.011-.01z"/><path fill="#D5D5D5" d="M309.526 85.183c1.522 1.97 3.044 3.944 4.57 5.91-.063 6.331.175 13.195.882 20.506.339 3.534.774 6.934 1.262 10.193-.726 1.646-3.104 6.476-8.701 9.716-5.698 3.296-11.188 2.875-12.956 2.666-.029-2.476-.052-4.953-.081-7.422 3.04-2.205 7.004-5.72 10.256-10.986 8.021-12.99 5.579-26.75 4.764-30.579v-.007z"/><path fill="#fff" d="m32.598 36.297 108.713-12.111 3.249 21.935 13.216-1.732 5.418 49.93-11.674 1.69 1.771 11.776-44.887 8.156 1.53 7.88 25.035-3.355 31.787 21.272v30.739l-99.952 22.218-22.62-60.428 36.192-6.625q-.78-4.438-1.551-8.878c-11.802 1.586-23.61 3.177-35.416 4.763a718505 718505 0 0 1-10.815-87.238l.008.008z"/><path fill="#D5D5D5" d="M138.125 69.84c.533.398 2.609 1.847 5.557 1.638a8.3 8.3 0 0 0 4.879-2.055c1.377 2.834 4.12 4.662 7.06 4.692 3.081.03 5.121-1.933 5.556-2.361l2.55 21.239-11.538 2.339 1.772 11.775-45.557 7.668q.439 3.972.89 7.955a24.15 24.15 0 0 0-10.13 2.164c-6.052 2.763-9.26 7.314-10.488 9.288-1.098-5.281-2.192-10.558-3.29-15.839L46.1 124.406l-8.988-49.658a10.82 10.82 0 0 0 4.645 4.104c2.814 1.3 5.36.995 6.293.83 1.984 10.883 3.975 21.757 5.959 32.639 28.868-4.216 57.741-8.428 86.606-12.643-.83-9.948-1.66-19.887-2.493-29.834v-.008zM62.833 157.037l31.727-5.218s11.429 10.309 36.126 6.655l-59.495 10.629s26.018 17.317 65.527 8.856l-69.907 15.586-3.975-36.501-.007-.007z"/><path fill="#D5D5D5" d="M61.515 156.761s-4.938-16.315 21.813-23.242l.558-4.715 22.464-7.407 2.81-1.24.993 6.99s20.012-3.262 40.485 3.076l-15.676-10.915-54.585 7.176-36.193 6.625 17.328 23.652z"/><path fill="#fff" d="M192.182 137.411a5.6 5.6 0 0 0-2.065 3.076c-.075.29-.108.622.085.849.22.249.607.212.934.156a40 40 0 0 0 6.945-1.88c-1.079.376-2.17.756-3.137 1.366s-1.816 1.468-2.203 2.548c-.242.685-.175 1.638.506 1.899.171.071.368.074.558.074 2.892-.018 5.381-2.07 8.232-2.551-1.459.537-2.988 1.121-3.982 2.317a4.47 4.47 0 0 0-.994 2.32c-.093.786.186 1.773.964 1.933.38.074.767-.082 1.132-.224 2.646-1.08 5.444-1.888 8.303-1.91-.752.134-1.519.201-2.252.41s-1.455.577-1.905 1.188c-.451.61-.577 1.508-.157 2.141a.94.94 0 0 0 .38.346c.145.064.305.075.461.082 1.616.064 3.208-.316 4.812-.525 1.604-.208 3.313-.22 4.742.525q.023-.026.041-.026c.063-.011.149.082.212.235 2.542 1.825 4.421 1.985 5.653 1.81 2.981-.425 3.934-3.069 7.421-3.259 1.656-.089 3.524.231 3.524.231.767.127 1.519.335 2.267.536.964.261 1.939.525 2.843.946a8.9 8.9 0 0 1 3.059 2.343c9.524 11.347 22.382 19.123 33.194 29.26-.8-1.698-.063-3.683.621-5.426a91.4 91.4 0 0 0 4.303-14.323c-3.506-1.154-6.636-3.203-9.703-5.258a693 693 0 0 1-17.737-12.26c-3.059-2.183-6.115-4.406-8.724-7.117-.461-.48-.826-.868-1.287-1.344-1.281-1.341-2.929-2.291-4.176-3.672-1.853-2.045-2.646-4.808-4.072-7.169-.986-1.639-2.277-3.077-3.379-4.641s-2.036-3.329-2.17-5.24c-.122-1.783.432-3.754-.521-5.266-.271-.428-.669-.796-1.161-.912-.647-.149-1.328.168-1.771.659-.443.492-.692 1.125-.901 1.754a19.4 19.4 0 0 0-.353 10.715c.64 2.51 1.793 5.079 1.135 7.586-.648 2.458-2.978 4.189-5.434 4.837s-5.054.391-7.573.086c-.57-.674-1.534-.607-2.412-.693-2.561-.26-5.14-.253-7.711-.249-1.057 0-2.122.007-3.156.238-1.314.294-2.52.954-3.595 1.765.081-.007.115-.022.126-.044.019-.034-.007-.067 0-.123a.2.2 0 0 1 .063-.116zM203.504 207.871c-.976.339-2.736.957-3.789 2.76-1.184 2.022-.674 4.145-.532 4.659-1.467.853-1.355 2.979-1.05 4.651 1.098 6.022 2.531 12.614 7.395 16.331 4.194 3.202 9.859 3.411 15.121 3.854 31.805 2.667 62.01 18.438 93.894 17.083.376-.019.777-.041 1.083-.265.338-.249.48-.681.599-1.083a305 305 0 0 0 6.71-26.989c.175-.868.327-1.829-.127-2.585-.364-.599-1.027-.931-1.659-1.218a56.8 56.8 0 0 0-29.573-4.763 43.4 43.4 0 0 1-1.176 7.609c-11.768 2.067-23.669 4.137-35.594 3.348-6.639-.44-13.677-2.015-18.239-6.857-2.769-2.938-4.351-6.792-6.841-9.962-1.228-1.564-2.687-2.979-3.535-4.774-1.761-3.724-.532-8.193-1.541-12.182-.127-.495-.305-1.009-.715-1.314-.878-.659-2.687 1.247-3.174 1.739-3.085 3.124-2.758 9.307-2.456 12.122-2.717-1.046-6.495-2.223-10.548-2.57-1.135-.096-2.59-.156-4.257.429l.007-.019z"/><path fill="#000" d="M192.197 137.284c-.305-.052-.398-.041-.647.149a4.2 4.2 0 0 0-.618.618 6.3 6.3 0 0 0-.942 1.468c-.368.83-.789 2.539.484 2.793 1.273.253 2.695-.485 3.837-.931 1.407-.544 2.862-.931 4.328-1.259.052-.011.041-.157 0-.179-1.031-.618-2.199-.536-3.301-.179-1.101.358-2.233.872-3.39 1.196-.473.134-1.005.346-1.507.272-.097-.019-.213-.034-.294-.093-.16-.116-.108-.146-.045-.358.074-.253.179-.503.313-.734.249-.454.576-.849.904-1.247.391-.469.67-.879.889-1.449 0-.019.012-.071-.011-.071zM151.948 160.225c-2.122.894-3.209 3.523-2.278 5.727.982 2.332 3.848 3.319 5.995 2.239 1.776-.894 2.684-3.013 2.233-4.872-.595-2.465-3.494-4.126-5.947-3.098v.007zM166.51 140.021c-.409 1.136-.253 2.548-.271 3.736-.023 1.34-.041 2.685-.06 4.022-.033 2.633-.033 5.266-.041 7.902-.007 2.637 0 5.266 0 7.903s-.138 5.404.134 8.051c.022.243.175.82.514.816.338-.004.443-.596.472-.838.138-1.329.082-2.7.097-4.037.019-1.333.011-2.685.019-4.022 0-2.584.011-5.173 0-7.757-.011-2.585 0-5.173-.034-7.758-.018-1.34-.033-2.677-.059-4.018-.019-1.218.134-2.678-.25-3.851-.093-.283-.364-.607-.524-.149z"/><path fill="#000" d="M134.441 119.434c.737.976 1.887 1.605 2.877 2.298 1.068.752 2.14 1.493 3.212 2.234 2.099 1.445 4.205 2.864 6.315 4.291 4.213 2.841 8.419 5.679 12.639 8.498 2.389 1.594 4.771 3.188 7.16 4.775.533.353.745-1.524.201-1.881-8.411-5.639-16.822-11.303-25.314-16.822a465 465 0 0 0-3.469-2.235c-.599-.379-1.195-.763-1.794-1.143-.554-.354-1.09-.763-1.753-.827-.294-.029-.167.7-.082.82v-.008zM45.583 132.487c4.931-.503 9.795-1.519 14.704-2.16 4.909-.64 9.848-1.493 14.753-2.32 1.328-.223 2.653-.454 3.974-.711s2.665-.462 3.815-1.24c.041-.03.045-.224-.019-.239-1.205-.223-2.37.123-3.554.365q-1.774.363-3.565.693c-2.404.443-4.823.853-7.235 1.281-4.857.853-9.687 1.888-14.548 2.708-2.791.473-5.571.934-8.336 1.582-.012 0-.012.045 0 .045l.01-.007zM43.685 132.465l1.898 34.586 21.224 26.49a69232 69232 0 0 1-3.974-36.5c-6.38-8.194-12.766-16.383-19.148-24.569zM66.346 170.228c12.888-2.183 25.765-4.458 38.638-6.715 6.457-1.132 12.91-2.234 19.382-3.251s12.963-1.933 19.424-3.009c3.673-.611 7.316-1.419 10.982-2.037 3.662-.611 7.354-1.05 11.001-1.754.03 0 .023-.116 0-.116-3.312.231-6.587.738-9.888 1.103s-6.409.536-9.598.923c-6.502.786-12.974 1.829-19.435 2.886-12.94 2.123-25.88 4.253-38.727 6.883-7.29 1.489-14.555 3.046-21.794 4.778-.086.022-.07.312.007.301z"/><path fill="#000" d="M66.603 193.511c6.554-1.091 13.066-2.29 19.568-3.661a2872 2872 0 0 0 19.557-4.201c13.045-2.834 26.074-5.716 39.107-8.595 3.61-.797 7.224-1.586 10.834-2.395s7.384-1.739 11.109-2.457c.48-.094.272-1.825-.041-1.743-6.472 1.605-13.044 2.863-19.549 4.301-6.506 1.438-13.037 2.868-19.55 4.316a10654 10654 0 0 0-39.1 8.771 492 492 0 0 0-21.928 5.519c-.04.011-.033.156 0 .149h-.007zM63.011 156.784c3.316-.481 6.647-.879 9.956-1.416 3.312-.536 6.64-1.102 9.963-1.649a963 963 0 0 1 19.683-3.035c13.287-1.922 26.595-3.747 39.922-5.363 7.511-.905 14.988-2.112 22.483-3.136.019 0 .011-.071 0-.071-6.71.469-13.417.946-20.112 1.628-6.691.681-13.193 1.586-19.777 2.469-13.319 1.784-26.583 3.944-39.84 6.178-3.7.622-7.402 1.248-11.087 1.94-3.688.693-7.47 1.572-11.202 2.402-.011 0-.011.045 0 .045zM109.294 122.857c1.083.29 2.3.059 3.405-.041 1.038-.097 2.077-.186 3.108-.306a549 549 0 0 0 6.639-.819 470 470 0 0 0 6.483-.89c1.079-.156 2.159-.317 3.242-.451.565-.07 1.124-.134 1.689-.201.637-.074.826 0 1.173-.547.096-.149.081-.503-.041-.637-.324-.365-.212-.313-.6-.261-.282.041-.565.108-.841.16-.558.108-1.124.22-1.686.324-1.027.187-2.065.336-3.096.492-2.211.335-4.414.652-6.628.953-2.215.302-4.328.578-6.494.85-1.083.134-2.17.294-3.253.443s-2.17.208-3.123.674c-.063.03-.044.238.019.253h.007zM86.242 117.568c-.105.663.03 1.363.115 2.026.108.868.22 1.732.324 2.592.208 1.676.42 3.348.662 5.017.484 3.325.957 6.644 1.46 9.969.04.254.2.797.558.637.357-.16.323-.871.275-1.147-.506-3.355-1.046-6.703-1.57-10.055a239 239 0 0 0-.842-4.92c-.145-.789-.283-1.586-.42-2.379-.105-.589-.15-1.304-.48-1.818-.045-.074-.086.06-.093.082h.007z"/><path fill="#000" d="M108.337 114.638c-.186.584-.074 1.251-.03 1.847.064.797.138 1.594.231 2.383.201 1.713.439 3.43.67 5.139.454 3.367.934 6.726 1.407 10.085.041.295.223.958.647.768s.369-1.062.324-1.393c-.48-3.356-.953-6.707-1.455-10.063-.249-1.646-.484-3.296-.755-4.934a62 62 0 0 0-.44-2.35c-.096-.455-.137-1.226-.513-1.546-.034-.03-.075.03-.082.052l-.008.012z"/><path fill="#000" d="M89.022 137.943c1.838-.018 3.721-.432 5.545-.692 1.824-.261 3.692-.526 5.545-.79 3.7-.525 7.392-1.073 11.083-1.609.25-.033.22-.629.198-.778-.123-.779-.253-1.553-.38-2.332-.134-.819-.454-.156-.38.336.116.778.22 1.553.339 2.331l.197-.778c-3.692.532-7.391 1.061-11.083 1.605q-2.7.398-5.4.797c-1.801.264-3.852.421-5.683.934-.264.075-.26.976.022.976v.008z"/><path fill="#000" d="M80.284 133.497c.018.096.07.156.07.156a.2.2 0 0 0 .06.045c2.802 1.754 4.216 2.331 4.216 2.331 3.22 1.315 4.24 2.361 4.667 1.951.179-.175.272-.618-.364-1.932l-2.568-17.768c-2.516.16-5.025.324-7.54.491.134 1.386 1.425 14.577 1.447 14.733zM132.911 32.371c-.335 1.985.097 4.164.313 6.149.238 2.186.484 4.376.726 6.562.483 4.368.967 8.74 1.481 13.105 1.027 8.722 2.136 17.44 3.059 26.173.521 4.92.994 9.843 1.373 14.774.023.324.093 1.225.588 1.214s.544-.942.525-1.24c-1.142-17.66-3.39-35.242-5.687-52.779-.323-2.446-.636-4.893-.952-7.344-.16-1.218-.317-2.435-.503-3.653-.149-.987-.253-2.13-.733-3.02-.071-.134-.16-.064-.179.063h-.011z"/><path fill="#000" d="M53.104 111.941c.276.097.588.265.879.328.305.063.692.019 1.004.022.722.012 1.426-.044 2.14-.115 1.43-.138 2.855-.369 4.276-.559 2.851-.38 5.698-.767 8.55-1.147 5.704-.767 11.398-1.582 17.096-2.379 11.4-1.587 22.799-3.181 34.202-4.767 3.231-.451 6.461-.913 9.692-1.375 1.57-.223 3.133-.45 4.7-.67 1.678-.238 3.282-.704 4.991-.693.484 0 .283-1.918-.045-1.824-1.414.398-2.821.469-4.276.6-1.455.133-2.855.379-4.276.569-2.851.387-5.698.763-8.549 1.162-5.698.789-11.399 1.575-17.097 2.368-11.4 1.576-22.803 3.159-34.202 4.734-3.23.443-6.46.923-9.691 1.385-1.57.224-3.138.443-4.7.674-.8.123-1.646.231-2.416.473-.376.116-.756.224-1.135.339-.44.134-.756.391-1.143.648-.04.03-.052.209 0 .224h.008zM42.293 43.16c2.955.023 5.936-.443 8.88-.745 2.944-.301 5.913-.607 8.872-.905 5.914-.607 11.831-1.206 17.745-1.813 11.734-1.196 23.469-2.406 35.203-3.613 6.68-.685 13.35-1.415 20.034-2.067.357-.033.271-1.586-.041-1.553-11.82 1.289-23.659 2.455-35.486 3.684-11.734 1.225-23.469 2.446-35.203 3.675-3.339.354-6.673.7-10.015 1.05s-6.744.503-10.015 1.207c-.29.063-.272 1.08.03 1.08h-.008z"/><path fill="#000" d="M42.073 42.624c.045 2.279.42 4.573.685 6.834.264 2.264.558 4.659.86 6.99.599 4.629 1.206 9.254 1.89 13.865a982 982 0 0 0 5.78 34.653c.23 1.24.462 2.484.7 3.724.115.618.238 1.236.353 1.855.105.536.138 1.102.48 1.545.343.443.566-.354.596-.558.126-1.039-.25-2.153-.443-3.177a1206.592 1206.592 0 0 1-1.857-10.022 984 984 0 0 1-2.33-13.507 1125 1125 0 0 1-4.198-27.484c-.353-2.5-.7-4.998-1.046-7.504-.346-2.507-.532-5.035-1.098-7.475-.122-.521-.38-.011-.376.26h.008zM38.66 125.404c3.808-.264 7.596-.916 11.378-1.471 3.777-.555 7.39-1.084 11.083-1.635 7.48-1.113 14.964-2.234 22.434-3.393a5130 5130 0 0 0 57.146-9.235c2.076-.347 4.153-.701 6.23-1.047 2.076-.346 4.35-.544 6.367-1.303.291-.108.291-1.378-.033-1.393-1.906-.071-3.796.421-5.672.745s-3.777.651-5.664.975c-3.681.622-7.365 1.248-11.054 1.866a4504 4504 0 0 1-22.4 3.694 5775 5775 0 0 1-57.21 8.953c-4.216.637-8.481 1.144-12.645 2.071-.306.071-.265 1.195.03 1.177l.01-.008z"/><path fill="#000" d="M141.058 23.031c.38 5.564 1.269 11.113 2.021 16.632.752 5.523 1.541 11.05 2.326 16.569q2.345 16.481 4.708 32.962c.443 3.087.889 6.182 1.328 9.27q.338 2.357.674 4.703c.108.764.22 1.52.335 2.279.104.701.16 1.315.685 1.825.238.239.39-.059.461-.283.398-1.329.041-2.707-.156-4.052s-.391-2.759-.596-4.137c-.39-2.76-.789-5.52-1.183-8.279-.789-5.52-1.582-11.03-2.371-16.55-1.57-10.979-3.107-21.965-4.771-32.933-.469-3.076-.93-6.152-1.407-9.232-.48-3.076-.912-6.1-1.593-9.102-.137-.622-.483-.03-.461.317z"/><path fill="#000" d="M32.527 35.425c3.554.093 7.079-.398 10.603-.797 3.525-.398 7.06-.79 10.592-1.154 7.112-.726 14.22-1.535 21.329-2.328 14.123-1.564 28.24-3.199 42.371-4.692a4297 4297 0 0 0 23.908-2.611c.405-.045.305-1.687-.041-1.65-14.176 1.583-28.344 3.203-42.513 4.786-14.123 1.575-28.262 3.054-42.37 4.744-3.957.473-7.917.935-11.88 1.367s-8.084.737-12.017 1.713c-.168.041-.168.607.018.607v.015"/><path fill="#000" d="M32.244 34.978a.219.219 0 0 1 .354.15c.294 2.949 1.582 15.544 3.033 26.347a861 861 0 0 0 1.593 11.147c.428 2.823.744 4.774.968 6.245a1435 1435 0 0 0 7.562 44.53.435.435 0 0 1-.335.506q-3.443.8-6.892 1.587s-.15-.093-.265-.175c-.964-.712-3.494-12.752-11.157-86.125a.23.23 0 0 1 .082-.197l5.057-4.022zM144.575 45.681c2.151.012 4.351-.398 6.483-.67l3.108-.399c1.101-.145 2.3-.175 3.368-.491.45-.134.45-1.698-.041-1.713-1.061-.034-2.185.238-3.242.376l-3.238.432c-2.14.283-4.384.47-6.472 1.028-.39.104-.379 1.445.034 1.445l-.008-.008z"/><path fill="#000" d="M157.441 43.045c-.019 1.616.249 3.266.42 4.87.175 1.606.335 3.256.521 4.883.365 3.24.711 6.484 1.05 9.72.685 6.454 1.28 12.916 1.92 19.37.365 3.653.756 7.295 1.187 10.937.034.306.209.916.611.838.405-.082.461-.905.439-1.177-.916-13.064-2.572-26.076-4.09-39.088a453 453 0 0 0-.67-5.404c-.231-1.802-.335-3.653-.8-5.385-.238-.86-.588-.011-.596.428z"/><path fill="#000" d="M151.527 95.414c1.954.167 3.911-.213 5.843-.492l5.839-.83c.547-.082.421-1.945-.044-1.877l-5.84.86c-1.961.29-3.963.495-5.828 1.206-.275.105-.301 1.11.03 1.136v-.007zM134.88 45.7 44.21 55.952l-2.044-13.105c30.395-3.534 60.797-7.072 91.196-10.602l1.518 13.462z"/><path fill="#D5D5D5" d="m127.302 52.171-75.107 8.896a2.666 2.666 0 0 0-2.334 2.961l.388 3.273a2.665 2.665 0 0 0 2.96 2.335l75.106-8.896a2.666 2.666 0 0 0 2.333-2.961l-.387-3.273a2.665 2.665 0 0 0-2.959-2.335M129.873 67.811l-75.107 8.896a2.666 2.666 0 0 0-2.333 2.961l.387 3.273a2.665 2.665 0 0 0 2.96 2.335l75.106-8.896a2.666 2.666 0 0 0 2.333-2.961l-.387-3.273a2.665 2.665 0 0 0-2.959-2.335M132.111 83.117 57.169 93.31a2.666 2.666 0 0 0-2.282 3.001l.444 3.266a2.665 2.665 0 0 0 2.999 2.283l74.942-10.193a2.666 2.666 0 0 0 2.282-3.001l-.444-3.266a2.665 2.665 0 0 0-2.999-2.283"/><path fill="#000" d="M129 57.196a3.664 3.664 0 0 0 3.662-3.664 3.663 3.663 0 1 0-7.324 0A3.663 3.663 0 0 0 129 57.196M65.888 61.245c-.093.48-.022.975.03 1.456.06.547.126 1.09.19 1.638.126 1.04.242 2.07.565 3.076.011.041.041.023.041-.01.071-1.103-.052-2.187-.2-3.278a42 42 0 0 0-.254-1.66c-.07-.392-.097-.902-.357-1.226-.007-.011-.011 0-.019.011l.008-.007zM82.926 59.249c-.093.48-.023.975.03 1.456.06.547.126 1.09.19 1.638.126 1.04.241 2.07.565 3.076.011.041.041.023.041-.01.07-1.103-.052-2.187-.2-3.278a42 42 0 0 0-.254-1.661c-.07-.391-.097-.901-.357-1.225-.008-.011-.011 0-.019.01l.008-.007zM100.358 57.189c-.093.48-.022.976.03 1.456.059.548.126 1.091.19 1.639.126 1.039.241 2.07.565 3.076.011.04.041.022.041-.011.071-1.103-.052-2.186-.201-3.277a40 40 0 0 0-.253-1.662c-.071-.39-.097-.9-.357-1.225-.008-.01-.011 0-.019.011l.008-.007zM115.375 55.312c-.093.48-.022.976.03 1.456.059.548.126 1.091.19 1.639.126 1.039.241 2.07.565 3.076.011.04.041.022.041-.011.071-1.103-.052-2.186-.201-3.278a40 40 0 0 0-.253-1.66c-.071-.392-.097-.902-.357-1.226-.008-.01-.011 0-.019.011l.008-.007zM67.913 77.113c-.093.48-.023.976.03 1.456.059.548.126 1.091.19 1.639.126 1.039.241 2.07.565 3.076.011.041.04.022.04-.011.072-1.102-.051-2.186-.2-3.277a42 42 0 0 0-.253-1.661c-.07-.391-.097-.902-.358-1.226-.007-.01-.01 0-.018.012l.007-.008zM84.95 75.117c-.093.48-.022.976.03 1.456.06.548.127 1.091.19 1.639.126 1.039.242 2.07.566 3.076.01.04.04.022.04-.011.071-1.103-.051-2.186-.2-3.278a42 42 0 0 0-.253-1.66c-.071-.391-.097-.902-.358-1.226-.007-.01-.01 0-.018.011l.007-.007zM102.375 73.05c-.093.48-.022.976.03 1.456.059.548.126 1.091.19 1.639.126 1.039.242 2.07.565 3.076.012.041.041.022.041-.011.071-1.102-.052-2.186-.201-3.277a40 40 0 0 0-.253-1.661c-.07-.391-.096-.902-.357-1.226-.007-.01-.011 0-.019.011l.008-.007zM117.399 71.18c-.093.481-.022.976.03 1.457.06.547.127 1.09.19 1.638.127 1.04.242 2.071.566 3.076.011.041.041.023.041-.01.07-1.103-.052-2.187-.201-3.278a44 44 0 0 0-.253-1.66c-.071-.392-.097-.902-.358-1.226-.007-.011-.011 0-.018.011l.007-.007zM69.874 93.041c-.093.48-.022.976.03 1.456.06.548.126 1.091.19 1.639.126 1.039.241 2.07.565 3.076.011.041.041.022.041-.011.07-1.102-.052-2.186-.2-3.277a42 42 0 0 0-.254-1.661c-.07-.391-.097-.901-.357-1.226-.008-.01-.011 0-.019.012l.008-.008zM86.912 91.045c-.093.48-.023.976.03 1.456.059.548.126 1.091.19 1.639.126 1.039.241 2.07.565 3.076.011.041.04.022.04-.011.072-1.102-.051-2.186-.2-3.277a42 42 0 0 0-.253-1.661c-.07-.391-.097-.902-.357-1.226-.008-.01-.012 0-.02.011l.008-.007zM104.336 88.982c-.093.48-.022.976.03 1.456.06.548.127 1.091.19 1.639.127 1.039.242 2.07.566 3.076.011.04.041.022.041-.011.07-1.103-.052-2.186-.201-3.277a44 44 0 0 0-.253-1.661c-.071-.391-.097-.902-.358-1.226-.007-.01-.011 0-.018.011l.007-.007zM119.361 87.109c-.093.48-.023.975.03 1.456.059.547.126 1.091.189 1.639.127 1.039.242 2.07.566 3.076.011.04.041.022.041-.012.071-1.102-.052-2.186-.201-3.277a40 40 0 0 0-.253-1.66c-.071-.392-.097-.902-.357-1.226-.008-.011-.012 0-.019.011l.007-.007z"/><path fill="#D5D5D5" d="M192.487 137.686c-1.071 1.594-1.068 2.153-.882 2.372.421.503 1.954-.525 4.597-.621.975-.034 1.771.07 2.266.148a5 5 0 0 0-1.79.935c-.796.652-1.794 1.892-1.478 2.406.324.521 1.686-.179 4.124-.145 1.28.018 2.319.231 2.981.406a3.6 3.6 0 0 0-1.403.64c-.882.663-1.626 1.9-1.299 2.369.376.532 1.801-.432 3.86-.339 1.76.082 3.144.894 3.985 1.512-1.563.339-2.53 1.039-2.508 1.668.019.391.417.674.514.738.833.54 1.831-.067 2.955-.172.844-.081 2.061.097 3.632 1.289.599.391 1.433.879 2.482 1.322 1.913.801 4.917 1.601 5.252.994.253-.461-.938-1.929-6.986-6.219a12.6 12.6 0 0 1-3.137-1.918c-.48-.398-.506-.484-2.006-1.97-1.34-1.326-2.025-2-2.721-2.588-1.477-1.24-1.403-.894-2.322-1.773-1.344-1.281-1.597-2.111-2.78-2.495-.331-.108-.719-.123-1.496-.153-.99-.041-2.092-.082-3.339.354a6.8 6.8 0 0 0-1.793.957M222.841 111.427c.48.391.503 1.114.41 1.725-.198 1.303-.734 2.573-.648 3.891.104 1.561.826 2.7 1.459 3.639 1.146 1.698 2.616 4.558 3.904 9.601-2.91-2.321-4.95-3.907-6.178-4.775-.193-.138-.54-.376-.849-.812-.506-.711-.539-1.407-.669-3.295-.16-2.384-.157-2.06-.168-2.436-.052-1.724-.078-2.588.086-3.571.294-1.792 1.187-4.175 2.166-4.168.208 0 .379.112.487.205zM273.043 172.902l-2.483 9.295c-1.124-.968-2.255-1.933-3.379-2.905-6.584-5.653-13.171-11.31-19.632-17.094-1.466-1.31-2.925-2.633-4.38-3.947-2.494-2.253-4.98-4.503-7.469-6.756.219.198 3.848-1.981 4.287-2.163 1.377-.578 1.95.178 2.873 1.165a79 79 0 0 0 6.584 6.246c4.637 3.943 9.657 7.407 14.778 10.684 2.914 1.866 5.866 3.665 8.821 5.467z"/><path fill="#000" d="M286.541 231.955c.64.589 1.5.525 2.33.607s1.626.175 2.441.276c1.708.22 3.409.454 5.11.756s3.275.607 4.905.957c.778.168 1.582.291 2.348.495.819.22 1.731.481 2.572.481.052 0 .034-.186 0-.201-.662-.455-1.455-.797-2.211-1.069-.829-.302-1.644-.618-2.486-.879a45 45 0 0 0-5.035-1.262 50 50 0 0 0-4.972-.693 48 48 0 0 0-2.568-.145c-.852-.03-1.775-.202-2.441.387-.06.052-.045.249.007.294v-.007zM221.107 123.549c-.223-1.236-.636-2.417-.808-3.66a12.1 12.1 0 0 1 .064-3.799c.223-1.248.569-2.547 1.28-3.575.621-.901 1.838-1.669 2.75-.652.841.942.607 2.499.555 3.653-.064 1.27-.086 2.551.253 3.792.312 1.124.93 2.13 1.574 3.094a91 91 0 0 0 2.412 3.356c.826 1.102 1.834 2.268 2.359 3.623.261.682.41 1.393.555 2.108.134.648.346 1.259.506 1.9.071.283.212.007.219-.138.034-1.523 0-2.92-.48-4.395-.443-1.374-1.213-2.54-2.076-3.683a109 109 0 0 1-2.769-3.78c-.893-1.281-1.761-2.581-1.816-4.216s.219-3.147-.064-4.714c-.186-1.028-.673-2.321-1.771-2.667-2.579-.815-3.752 3.546-4.083 5.27a15.7 15.7 0 0 0-.186 4.752c.145 1.311.368 3.072 1.351 4.037.156.149.186-.231.175-.313zM232.506 148.523c1.511 1.609 2.937 3.304 4.436 4.931 1.396 1.512 2.907 2.92 4.403 4.335 3 2.834 6.063 5.605 9.155 8.331 6.242 5.497 12.509 10.997 18.906 16.308 3.242 2.689 6.506 5.497 10.481 7.024.137.052.122-.242.063-.302-2.896-2.894-6.044-5.456-9.155-8.104-3.108-2.647-6.189-5.277-9.293-7.902-6.353-5.374-12.74-10.715-18.944-16.249-1.592-1.419-3.137-2.919-4.782-4.279-1.749-1.445-3.543-2.841-5.199-4.387-.108-.104-.138.224-.071.302z"/><path fill="#F0D267" d="M281.725 146.58c-.525-7.05 2.348-14.271 7.57-19.035 1.314-1.195 2.813-2.268 4.544-2.673a29 29 0 0 1 .837 7.705c4.239 1.806 9.301 1.34 13.32-.916s6.993-6.19 8.411-10.581c.774 1.725 1.545 3.456 2.319 5.184.417.931.841 1.907.796 2.928-.033.778-.338 1.511-.64 2.227-1.25 2.979-2.546 6.021-4.7 8.424-1.876 2.089-4.299 3.586-6.573 5.225-3.189 2.301-6.133 4.934-9.427 7.087s-7.034 3.828-10.96 3.906a64.4 64.4 0 0 1 2.948-19.864 31.46 31.46 0 0 0-8.199 11.459 3.9 3.9 0 0 1-.25-2.048"/><path fill="#000" d="M286.894 109.856c.209.484.324.916.629 1.363.276.406.566.789.838 1.199a29 29 0 0 1 1.57 2.625 40 40 0 0 1 2.713 6.454c1.005 3.147 1.575 6.425 2.192 9.657.019.086.075.086.086 0 .502-3.691-.138-7.452-1.314-10.964a31 31 0 0 0-2.992-6.424 44 44 0 0 0-1.764-2.644c-.301-.41-.599-.819-.923-1.207-.108-.134-.212-.264-.353-.368-.213-.168-.335-.105-.555-.201s-.156.432-.123.513v-.007z"/><path fill="#000" d="M293.861 103.912a22.7 22.7 0 0 0 2.044-3.277c.312.674 2.53 5.687-.041 10.655-1.414 2.737-3.61 4.163-4.667 4.752-1.299-2.097-2.602-4.186-3.9-6.279 1.853-1.099 4.372-2.928 6.572-5.847h-.008z"/><path fill="#F0D267" d="M294.345 198.129a61 61 0 0 0-1.109-3.445c-1.686-4.733-3.159-7.009-3.766-8.614-1.813-4.793-.223-10.662 3.755-13.883a53 53 0 0 0 1.165 7.515c-.115-2.328.8-4.562 1.697-6.707.61-1.471 1.228-2.946 1.943-4.365.055-.123.16-.261.294-.223.134.037-.034.283-.071.156 3.558-3.37 7.853-5.512 12.739-5.895 1.593-.123 3.231-.06 4.712.536 1.742.7 3.115 2.071 4.365 3.471 2.903 3.225 5.497 6.893 6.521 11.105 1.09 4.514.647 8.219.42 9.843-1.135 8.227-2.337 21.868-3.785 40.206a74 74 0 0 0-14.79-3.691 73.8 73.8 0 0 0-15.497-.547c.469-8.491.935-16.978 1.407-25.469l-.007.007z"/><path fill="#000" d="M244.2 142.848c2.158 1.627 4.175 3.422 6.323 5.061 2.147 1.639 4.25 3.21 6.431 4.741a291 291 0 0 0 13.033 8.603c1.224.763 2.456 1.575 3.766 2.2.607.291 1.206.619 1.854.801.714.209 1.455.469 2.14.752.096.041.104-.189.044-.23-1.071-.827-2.024-1.792-3.126-2.592a48 48 0 0 0-3.271-2.194 414 414 0 0 1-6.651-4.152c-4.395-2.801-8.816-5.572-13.2-8.395-2.434-1.564-4.973-2.979-7.34-4.651-.011-.011-.018.041 0 .052l-.007.008zM198.103 139.898c-.588-.238-1.492.25-2.047.496-.744.335-1.429.7-2.054 1.236-1.083.942-2.4 2.804-1.142 4.152.621.663 1.488.682 2.318.455.923-.253 1.805-.641 2.687-1.009.964-.406 1.932-.82 2.966-1.021.931-.186 1.95.071 2.736-.521.041-.03.03-.157 0-.19-.261-.358-.532-.663-.968-.786-.346-.093-.763-.06-1.12-.03-.83.075-1.645.302-2.423.589-1.522.558-2.966 1.467-4.581 1.754-.786.138-2.021-.075-1.385-1.136a8.2 8.2 0 0 1 1.392-1.732c.491-.473 1.031-.946 1.634-1.27a7 7 0 0 1 1.038-.439c.324-.108.681-.157.953-.376.03-.023.034-.161 0-.179v.007z"/><path fill="#000" d="M201.382 143.634c-.491-.492-1.47-.023-2.013.223a4.2 4.2 0 0 0-1.749 1.449c-.774 1.098-1.582 3.284-.302 4.342.685.566 1.574.283 2.319 0a24 24 0 0 1 2.906-.923 21 21 0 0 1 3.086-.514c1.038-.093 2.013.011 2.914-.607.059-.041.044-.242-.008-.283-.744-.585-1.395-.619-2.318-.57q-1.246.063-2.486.272c-1.623.275-3.082.841-4.626 1.366-.495.168-1.783.377-1.876-.45-.071-.622.588-1.456.953-1.911.439-.547.967-1.072 1.57-1.445.495-.305 1.269-.409 1.626-.879.012-.018.008-.052 0-.063v-.011z"/><path fill="#000" d="M205.085 147.276c-1.06.357-1.931 1.091-2.285 2.16-.219.652-.301 1.449 0 2.089.272.6.871.682 1.466.641 1.634-.116 3.19-.589 4.846-.522a12.5 12.5 0 0 1 2.378.336c.983.23 2.006.681 3.022.428.06-.019.041-.16.019-.198-1.068-1.288-2.643-1.739-4.239-1.981a11 11 0 0 0-3.755.071c-.767.145-1.53.369-2.3.439-.261.023-.57.052-.819-.044a.6.6 0 0 1-.264-.175c-.023.123-.03.115-.008-.019.011-.071.03-.134.045-.197.294-1.103.912-2.067 1.931-2.604.086-.044.045-.454-.029-.428h-.008zM199.525 84.81c10.483 0 18.981-8.503 18.981-18.992s-8.498-18.993-18.981-18.993-18.98 8.503-18.98 18.993 8.497 18.993 18.98 18.993"/><path fill="#D5D5D5" d="M256.556 73.27c4.834 5.806.975 13.247 5.057 18.1 1.016 1.206 2.966 2.77 7.008 3.336-2.694-1.415-4.644-4.06-5.515-6.98-.871-2.919-.715-6.084.108-9.015.405-1.445.975-2.845 1.28-4.313.722-3.392.03-6.934-.957-10.263-.599-2.034-1.321-4.049-2.348-5.9a19.5 19.5 0 0 0-4.101-5.131 26 26 0 0 0-3.584 3.914 26 26 0 0 0-1.816 2.815c-.041 1.49.033 3.337.398 5.408a27 27 0 0 0 1.604 5.564c.67.41 1.801 1.195 2.854 2.465h.012M270.303 51.696c-.271.156-.45.432-.599.711a16.4 16.4 0 0 0-1.816 4.935c-.175.893-.275 1.836-.03 2.718.246.883.901 1.691 1.794 1.907 1.344.316 2.579-.764 3.912-1.132 1.771-.492 3.636.316 5.467.283.547-.011 1.165-.138 1.455-.607.253-.417.16-.954-.019-1.408-.387-.994-1.109-1.814-1.853-2.573-1.187-1.218-2.497-2.35-3.975-3.214a12.3 12.3 0 0 0-2.337-1.062c-.514-.167-1.489-.849-2.002-.558v.007z"/><path fill="#000" d="M253.508 54.403c.777-.733 1.771-1.646 2.969-1.448.808.134 1.72.767 1.724 1.437.011 1.006-1.984 1.393-3.651 2.581-1.374.976-3.007 2.842-3.852 6.748-.145-1.098-.294-2.186-.439-3.284.409-1.825 1.291-4.19 3.249-6.037v.007zM270.024 52.85c.175 1.218 2.285 1.501 4.615 2.551 4.596 2.071 6.439 5.497 7.015 5.061.454-.338-.483-2.636-1.805-4.45-2.474-3.393-6.981-6.074-8.954-4.797-.532.34-.953 1.02-.871 1.628zM276.597 73.24c.093.179.189.354.335.484.145.13.357.212.547.16.186-.052.316-.212.379-.39.064-.18.06-.377.041-.567-.059-.61-.249-1.199-.502-1.754-.212-.462-.484-1.177-.878-1.512-.242-.209-.715-.276-.916.022-.253.37.108 1.237.223 1.624q.296 1.005.774 1.933h-.007zM258.599 72.39c.521 1.48.796 1.774 1.131 1.87.041.012.469.134.722-.096.387-.354.045-1.252-.428-2.488-.692-1.806-1.153-1.974-1.366-2.015-.085-.019-.335-.063-.502.075-.368.294-.071 1.184.45 2.647z"/><path fill="#000" d="M258.204 54.4c.473.648.86 1.392 1.303 2.059s.882 1.404 1.25 2.153c.7 1.419 1.31 2.886 1.817 4.387 1.056 3.128 1.659 6.245 1.276 9.552-.387 3.307-1.366 6.286-1.675 9.497-.253 2.677-.07 5.496.953 8.007 1.02 2.51 3.45 5.016 6.364 4.688.03 0 .022-.074.011-.085-1.12-1.032-2.441-1.837-3.52-2.916-.916-.917-1.564-2.008-1.995-3.233-.841-2.38-.733-4.93-.365-7.389.484-3.203 1.291-6.38 1.303-9.642.011-3.076-.726-6.178-1.802-9.045-.558-1.494-1.213-2.961-2.043-4.324a36 36 0 0 0-1.224-1.907c-.231-.335-.462-.681-.733-.987-.272-.305-.629-.525-.923-.82v.012l-.008-.011zM274.14 97.142c1.02 1.173 2.215 2.215 3.726 2.707 2.084.67 4.269.086 6.062-1.061 3.212-2.06 3.302-6.465 2.405-9.795a17 17 0 0 0-1.448-3.609c-.272-.506-1.355-2.863-2.099-2.476-.086.045-.06.272-.041.339.22 1.08.956 1.933 1.492 2.867.536.935.968 1.881 1.292 2.88.513 1.586.789 3.317.469 4.975-.7 3.6-4.343 5.768-7.894 5.11-1.455-.273-2.944-.85-3.964-1.956-.007-.008-.011.018 0 .022l-.007-.007z"/><path fill="#000" d="M275.54 96.836a9 9 0 0 0 1.593-.905c.495-.357 1.004-.648 1.429-1.069.915-.912 1.645-2.033 2.263-3.169 1.365-2.499 2.4-5.333 2.43-8.215 0-.432-.354-1.08-.555-.354-.338 1.247-.565 2.517-.945 3.758a23.4 23.4 0 0 1-1.5 3.757c-1.172 2.276-2.676 4.585-4.719 6.141-.011.011-.011.06.008.052zM316.106 119.583c.018-4.543-.83-9.087-1.173-13.608-.338-4.521-.454-9.131-.081-13.697.219-2.696.532-5.37 1.057-8.026.011-.074-.071-.406-.134-.22-3.186 8.909-2.509 18.763-1.247 27.98.353 2.562.692 5.162 1.488 7.631.041.115.097.007.097-.06l-.011-.007z"/><path fill="#000" d="M251.807 36.904c-1.102 3.735-1.552 7.712-1.876 11.578a97 97 0 0 0-.238 11.954c.316 7.628 1.518 15.225 3.785 22.513 2.099 6.767 5.035 13.247 8.976 19.142 3.588 5.374 8.609 11.992 15.784 11.913 3.952-.041 7.603-2.424 10.663-4.703 3.059-2.279 5.936-4.67 7.082-8.32.018-.059-.011-.354-.116-.242-1.008 1.069-1.92 2.223-2.929 3.292a24 24 0 0 1-3.714 3.162c-1.332.924-2.672 1.657-4.034 2.443-1.5.86-3.07 1.65-4.764 2.045-7.354 1.72-12.616-4.805-16.222-10.201-7.663-11.459-12.059-24.989-13.037-38.712-.294-4.153-.294-8.312-.075-12.465.22-4.152.841-8.636 1.228-12.96.03-.354-.29-1.166-.495-.45l-.018.007z"/><path fill="#C7C7C7" d="M306.668 66.514c1.459-1.702 3.982-2.484 6.085-1.713-.317 1.9-1.459 3.58-2.866 4.882-.785.727-1.656 1.356-2.557 1.933-.737.48-1.753 1.49-2.106.239-.492-1.732.323-4.037 1.447-5.34h-.007z"/><path fill="#000" d="M305.592 73.046c-.223-.64-.45-1.27-.409-1.962.029-.492.137-1.01.275-1.479.305-1.005.912-1.929 1.667-2.648.715-.681 1.608-1.277 2.583-1.493.975-.22 1.954-.052 2.918-.145.034 0 .019-.086.007-.105-.744-1.143-2.013-1.448-3.275-1.05-1.261.399-2.147 1.185-2.902 2.171a7.36 7.36 0 0 0-1.448 3.349c-.093.606-.034 1.206.071 1.806.093.547.208 1.11.491 1.594.018.022.022-.023.018-.034h.008z"/><path fill="#000" d="M247.077 32.81c-1.53 1.636-1.355 4.548.357 5.985s4.615 1.099 5.955-.7a4.64 4.64 0 0 0 3.196 2.823 4.64 4.64 0 0 0 4.131-1.057c.149 1.24 1.456 2.1 2.706 2.13s2.43-.57 3.472-1.27a18.2 18.2 0 0 0 3.558-3.117c-.126 1.616 1.121 3.225 2.713 3.504 1.597.283 3.316-.808 3.744-2.368.964 1.031 1.973 2.096 3.283 2.621 1.31.522 3.022.336 3.848-.815-.61 1.229.48 2.782 1.824 3.065 1.343.283 2.713-.354 3.814-1.173-.964 1.512-.524 3.675.797 4.89 1.321 1.213 3.316 1.523 5.043 1.02-2.55 3.568-2.237 8.498-.726 12.617.428 1.166.964 2.328 1.835 3.21.346.354 1.79 1.408 3.368 1.188 2.099-.29 2.251-2.57 4.559-4.368 2.147-1.676 6.007-2.823 8.85-1.121 2.776 1.661 3.409 5.344 3.115 7.776-.406 3.318-2.706 5.31-3.882 6.383-2.013 1.836-4.581 3.2-7.302 3.263a41.2 41.2 0 0 0 9.535 15.019c-.305-1.099.104-2.257.547-3.307 2.237-5.322 5.352-10.23 7.741-15.481 2.39-5.255 4.061-11.072 3.156-16.778.648-.338 3.327-1.847 4.31-5.023 1.016-3.285-.208-7.043-3.108-9.5.093-.071 1.459-1.114 1.344-2.69-.108-1.456-1.444-2.74-3.19-2.856.328-.357 1.489-1.713 1.385-3.549-.127-2.227-2.069-4.268-4.801-4.778 1.049-1.184.778-3.076-.045-4.428-1.213-1.97-3.952-3.214-5.902-1.974.722-.786.525-2.212-.38-2.77-.473.096-.953.197-1.425.29.428-.6.223-1.438-.093-2.097-1.627-3.359-6.167-4.93-9.52-3.292-.071-.201-.145-.399-.212-.6-.023.097-.03-.085-.116-.134.052-2.432-2.054-4.446-4.384-5.11-2.337-.662-4.875-.081-7.038 1.01.428-1.039.045-2.298-.755-3.083s-1.954-1.136-3.082-1.162c-2.504-.053-4.957 1.545-5.924 3.854-.064-.916-1.229-1.437-2.088-1.125-.867.306-1.414 1.162-1.738 2.023-.492-1.136-2.393-1.23-2.992-.15-.224-1.828-1.761-3.418-3.577-3.705-1.816-.29-3.766.752-4.54 2.425-.075.16-.138.357-.034.506.097.145.409.07.354-.104-.525-1.624-2.725-2.622-4.414-2.812a5.46 5.46 0 0 0-4.611 1.743c-.733-1.281-2.591-1.635-3.882-.924-1.291.712-1.995 2.239-1.991 3.717a3.58 3.58 0 0 0-3.316 1.396 3.6 3.6 0 0 0-.346 3.587c-2.404.179-4.343 2.097-5.557 4.178-.495.853-2.519 3.74-1.667 7.486.8 3.508 3.524 5.307 4.131 5.68l-.022.018z"/><path fill="#D5D5D5" d="M210.526 230.913c8.999 5.709 17.931 4.625 31.463 6.643 8.757 1.304 5.828 1.881 25.62 6.778 34.343 8.491 39.539 5.94 42.088 3.967 2.348-1.825 7.239-6.886 6.744-21.291 1.846.547 3.699 1.098 5.545 1.649-1.995 9.761-3.993 19.522-5.988 29.291-9.87-.168-19.792-.335-29.502-2.112-20.19-3.694-39.084-14.252-59.602-14.747-3.859-.093-7.737.175-11.57-.25-3.186-.346-7.142-1.344-10.585-4.208-5.854-4.86-6.312-12.625-6.368-14.681-.346-1.109-.83-3.262-.07-5.653.19-.6.431-1.132.684-1.583.22 1.315.659 3.21 1.593 5.311 2.777 6.245 7.771 9.5 9.956 10.893l-.008-.011z"/><path fill="#000" d="M199.283 210.717c-1.418 3.791.209 8.271 2.475 11.418 1.113 1.545 2.505 2.905 4.034 4.037 1.53 1.132 3.134 2.067 5.084 2.13.138 0 .075-.305.019-.358-2.672-2.215-5.828-3.694-8.117-6.383a14.8 14.8 0 0 1-2.624-4.48c-.703-1.918-1.396-4.324-.86-6.346v-.007l-.007-.011zM197.891 217.714c.019.901-.022 1.754.097 2.655.123.902.339 1.784.636 2.648a19 19 0 0 0 2.475 4.827c.975 1.367 2.215 2.83 3.692 3.683.637.369 1.34.801 2.066.916.852.138 1.66.462 2.519.596.045.007.034-.115.008-.134-.693-.376-1.459-.752-2.088-1.229-.38-.291-.681-.641-1.079-.912a10 10 0 0 1-1.039-.809c-1.176-1.061-2.411-1.992-3.442-3.202a15.3 15.3 0 0 1-2.475-4.123c-.324-.789-.566-1.624-.8-2.443-.224-.775-.48-1.668-.547-2.477 0-.033-.03-.033-.03 0h.011z"/><path fill="#000" d="M199.257 226.578c.346 1.217.64 2.476 1.083 3.661.354.945.849 1.865 1.351 2.737a17.6 17.6 0 0 0 2.944 3.806 13.84 13.84 0 0 0 5.534 3.325c3.9 1.237 8.106 1.397 12.144 1.792 2.992.29 6.006.283 8.987.685 8.024 1.084 15.829 3.508 23.607 5.687 9.557 2.677 19.129 5.392 28.858 7.396 4.302.89 8.649 1.594 13.014 2.067 4.544.491 9.178 1.05 13.759.868 1.377-.06 2.788-.22 4.153-.418.175-.022.157-.379-.011-.406-4.886-.733-9.836-.912-14.752-1.43-4.113-.432-8.199-1.132-12.248-1.929-9.814-1.929-19.457-4.543-29.089-7.221-4.328-1.199-8.649-2.476-13.014-3.538-3.726-.905-7.447-1.888-11.225-2.569a57.6 57.6 0 0 0-8.035-.849c-4.35-.168-8.664-.648-12.981-1.166-2.4-.291-4.749-.913-6.773-2.276-2.609-1.754-4.373-4.353-5.814-7.087-.554-1.05-1.083-2.022-1.466-3.15-.011-.034-.022.011-.022.03v-.008z"/><path fill="#D5D5D5" d="M210.143 212.284c.547.492 1.217.82 1.879 1.144 1.876.916 3.785 1.847 5.855 2.122.684.094 1.414.116 2.02.455a38 38 0 0 1-1.499-5.318c-.291.439-.83.622-1.333.774-1.269.38-2.549.753-3.87.868-1.322.116-2.695-.045-3.86-.67.421.454.89.86 1.403 1.206"/><path fill="#000" d="M208.271 211.29c.577.86 1.176 1.534 1.991 2.175 1.057.838 2.174 1.572 3.405 2.13 2.181.995 4.392 1.315 6.725 1.639.548.074.354-1.304.25-1.542-1.481-3.367-2.352-6.819-1.954-10.517.197-1.806.662-3.56 1.392-5.229.588-1.355 1.656-3.806 3.558-3.366 1.038.238.993 1.236 1.016 2.089.022.987.018 1.981.011 2.968-.008 1.981.019 3.966.432 5.91a13.7 13.7 0 0 0 2.199 5.102c1.005 1.457 2.214 2.741 3.338 4.101a17.9 17.9 0 0 1 2.803 4.618c.714 1.713 1.373 3.359 2.698 4.659 2.367 2.327 5.765 3.586 8.895 4.472 7.268 2.06 15.039 2.101 22.534 2.067 2.352-.011 4.712-.033 7.068-.041 1.194 0 2.389 0 3.576.019 1.187.018 2.393-.082 3.588-.075 3.803.034 7.585.41 11.37.674.521.034.521-1.646-.041-1.72-3.398-.451-6.841-.641-10.268-.797-2.215-.104-4.414-.283-6.636-.294s-4.373 0-6.558.011c-7.949.041-16.148.335-23.911-1.669-3.376-.871-7.202-2.089-9.45-4.919-1.239-1.564-1.79-3.508-2.623-5.292-.789-1.691-1.932-3.158-3.134-4.577-1.198-1.419-2.404-2.708-3.29-4.272-.964-1.698-1.351-3.575-1.522-5.5-.19-2.034-.123-4.082-.26-6.119-.097-1.493-.544-3.691-2.505-3.482s-2.978 2.622-3.651 4.197c-.837 1.944-1.355 4.041-1.571 6.141-.42 4.1.19 8.711 2.434 12.238l.16-1.676c-2.214.253-4.648-.369-6.673-1.207-1.12-.462-2.221-1.009-3.223-1.698-.409-.276-.785-.648-1.205-.905-.294-.179-.637-.313-.942-.492-.059-.033-.041.127-.022.149l-.008.023zM164.951 59.647c3.16-1.04 6.584-1.292 9.888-.965 2.431.242 4.816.868 7.113 1.676 1.604.566 3.07 1.322 4.559 2.138.07.033.063-.186.033-.212-3.041-3.088-7.153-4.987-11.492-5.132-3.525-.116-6.975.867-10.108 2.443-.012.007-.008.06 0 .052l.007.007zM207.445 80.856c-.019-.086-.104-.883-.052-.376.018.167.033.324.074.491.075.313.201.607.324.905l-.145-.745c.041 1.058.506 1.829.945 2.76a32 32 0 0 1 1.124 2.707c.726 1.986 1.206 4.03 1.544 6.108.544 3.315.503 6.64-.063 9.947-.022.138.104.537.186.231.942-3.523 1.314-7.284.953-10.912a29.8 29.8 0 0 0-1.738-7.418 29 29 0 0 0-1.303-2.946c-.39-.774-.714-1.646-1.607-1.888-.369-.097-.272.998-.242 1.125v.011"/><path fill="#E6B401" d="M315.425 203.559a15.7 15.7 0 0 0-1.764-5.009 15.6 15.6 0 0 0-2.591-3.423 46.7 46.7 0 0 1-.357 14.915 46.7 46.7 0 0 1-5.005 13.981 40.5 40.5 0 0 1 10.61 1.907 40 40 0 0 1 6.848 2.938c.379-6.525 1.898-33.8.636-52.19-.212-3.099-.197-8.7-4.06-11.839-2.855-2.32-6.573-2.354-8.757-2.164a96.8 96.8 0 0 1 4.436 40.887h.011zM301.956 148.248a41 41 0 0 0 9.416-7.076 41.1 41.1 0 0 0 8.485-12.561 39 39 0 0 0-.558-1.624 35 35 0 0 0-2.884-5.907 19.2 19.2 0 0 1-4.15 7.136 19.2 19.2 0 0 1-6.628 4.677c.104.916.145 2.097-.03 3.453a14.7 14.7 0 0 1-1.068 3.936 6.4 6.4 0 0 0 1.846-1.225 6.4 6.4 0 0 0 1.488-2.138 17.3 17.3 0 0 1-1.083 4.439c-1.339 3.445-3.483 5.691-4.826 6.882z"/><path fill="#000" d="M295.685 132.938c.577.387 1.016.853 1.675 1.132.454.197.975.305 1.466.365 1.12.123 2.289.034 3.405-.134a18 18 0 0 0 6.495-2.328c1.875-1.121 3.606-2.633 4.897-4.405 1.363-1.866 2.122-3.896 2.647-6.13.007-.034-.03-.19-.064-.104-.714 1.806-1.905 3.567-3.107 5.087-1.374 1.731-2.993 3.21-4.905 4.331a17.2 17.2 0 0 1-6.123 2.171 20 20 0 0 1-3.159.231c-.931 0-2.382.238-3.219-.261-.019-.011-.019.045 0 .06l-.008-.011z"/><path fill="#000" d="M275.655 158.381a150 150 0 0 1 6.174-16.926 30.4 30.4 0 0 0-.156 6.309 53.8 53.8 0 0 1 9.032-12.387 81 81 0 0 0-1.719 18.751c13.495-3.095 25.266-12.919 30.741-25.64 4.581 9.172 9.174 18.378 12.508 28.08 10.108 29.383 8.128 61.444 4.459 92.299a38.3 38.3 0 0 1-17.429-.086 425 425 0 0 0 2.851-24.464 422 422 0 0 0 1.522-43.721c.934-8.745-5.977-16.036-13.61-15.94-6.784.086-13.014 5.993-13.36 13.739-.209 4.294-.421 8.591-.629 12.878a16.8 16.8 0 0 1-2.326-4.883c-1.061-3.664-.611-6.811-.254-8.45-3.126 5.639-2.121 13.273 2.353 17.906l-1.854 36.649a125.7 125.7 0 0 0-24.998-.286l-.38-3.106a272 272 0 0 1 .559-30.862c.893-11.91 1.905-24.386 6.52-39.849l-.011-.007z"/><path fill="#000" d="M291.733 125.519c-.179.097-.428.086-.622.127-.238.052-.409.145-.64.272-.536.305-1.046.659-1.544 1.028-1.314.975-2.431 2.353-3.391 3.672-2.572 3.497-4.142 7.705-4.611 12.018-.197 1.824-.179 3.653-.019 5.485.06.618.622 1.479 1.05.589 1.217-2.51 2.694-4.913 4.257-7.221a45 45 0 0 1 2.434-3.278c.797-.975 1.627-1.933 2.233-3.046l-.107-.313c-.868 2.752-1.575 5.486-1.969 8.346a78 78 0 0 0-.704 10.003c0 .305.116 1.248.588 1.225 3.316-.167 6.495-1.277 9.461-2.715a56 56 0 0 0 8.083-4.755c4.072-2.875 7.615-6.41 10.216-10.685.797-1.311 1.522-2.648 2.129-4.052.521-1.206.915-2.406 1.276-3.676.019-.059-.04-.443-.137-.294-.491.767-.998 1.501-1.467 2.279a59 59 0 0 1-1.909 2.92c-1.689 2.477-3.61 4.86-5.739 6.972-3.304 3.273-7.406 5.847-11.522 7.962-3.282 1.687-6.736 3.225-10.454 3.56l.588 1.225a75 75 0 0 1 .473-9.299c.335-2.927.673-5.884 1.213-8.785.007-.041.022-.317-.082-.294-.986.231-1.816 1.061-2.527 1.75a41 41 0 0 0-2.687 2.868c-1.879 2.223-3.338 4.729-4.585 7.355l1.05.588c-.008-.082-.019-.156-.023-.238v-.019l-.033-.569a21.868 21.868 0 0 1 .178-4.179 23 23 0 0 1 2.557-7.88 25.2 25.2 0 0 1 3.848-5.307c.585-.611 1.124-1.263 1.709-1.877.241-.261.547-.507.766-.79.22-.283.369-.67.659-.916.011-.011.011-.063-.007-.059l.018.007zM322.66 222.958c-.521 1.288-.559 2.73-.763 4.1-.201 1.367-.44 2.856-.674 4.279a240 240 0 0 1-1.623 8.603 190 190 0 0 1-1.983 8.629c-.376 1.482-.681 2.983-1.005 4.48-.302 1.415-.64 2.83-.692 4.279 0 .033.029.156.082.097.61-.659.904-1.583 1.217-2.414.39-1.046.762-2.107 1.083-3.18.662-2.201 1.161-4.458 1.648-6.696a148 148 0 0 0 2.367-13.895c.175-1.43.324-2.867.462-4.301.122-1.289.238-2.529.096-3.817-.018-.138-.134-.417-.23-.161h.011z"/><path fill="#000" d="M297.092 223.464c4.719.369 9.509.954 14.094 2.149 2.411.629 4.804 1.263 7.171 2.048 1.802.6 3.726 1.691 5.665 1.587.134-.008.074-.38.011-.44-1.593-1.467-3.699-2.048-5.717-2.7-2.251-.726-4.57-1.366-6.9-1.761-2.493-.421-5.031-.775-7.551-.957-2.274-.168-4.507-.108-6.777.045-.007 0-.007.029 0 .029h.008zM218.118 209.253c-1.261-.976-3.081-1.449-4.611-1.84a22.4 22.4 0 0 0-4.216-.685c-1.869-.115-4.124-.019-5.706 1.143-1.581 1.162-1.604 3.516-1.12 5.311.651 2.395 2.088 4.681 3.837 6.432 1.072 1.068 2.352 1.944 3.714 2.599.533.253 1.124.521 1.709.622.524.093.871-.03 1.365-.175.082-.022.064-.197.008-.238-.313-.254-.558-.526-.912-.727a18 18 0 0 0-1.351-.685c-1.005-.473-1.969-.998-2.843-1.687-1.854-1.46-3.398-3.463-4.414-5.594-.409-.86-.912-1.955-.752-2.93.116-.701.611-1.241 1.187-1.617 1.478-.983 3.484-1.039 5.192-.942 1.377.082 2.739.317 4.079.648.796.197 1.593.417 2.378.659s1.586.611 2.404.671c.313.022.186-.838.03-.958h.019z"/><path fill="#fff" d="M188.051 60.72c1.816-4.745 5.981-6.525 6.688-6.808.335.596.674 1.188 1.009 1.791-.778.369-3.737 1.888-5.244 5.415-1.865 4.368 0 8.323.294 8.92.93-.24 1.864-.481 2.791-.716-.8 1.825-1.604 3.65-2.4 5.471-1.802-1.132-3.607-2.264-5.404-3.4q1.448-.373 2.895-.745c-.338-.637-2.538-4.942-.629-9.928M210.992 70.909c-1.817 4.744-5.981 6.524-6.688 6.807-.335-.595-.674-1.188-1.009-1.79.778-.37 3.737-1.889 5.244-5.416 1.865-4.368 0-8.323-.294-8.92-.93.24-1.865.481-2.791.716.8-1.825 1.604-3.65 2.4-5.47 1.801 1.131 3.606 2.264 5.404 3.4-.964.249-1.932.495-2.895.744.338.637 2.538 4.942.629 9.929M127.165 53.774c.242.588.722 1.039 1.225 1.419.04.03.096 0 .115-.041.339-.544.681-1.08 1.046-1.605.186-.265.368-.525.558-.786.19-.26.454-.503.45-.85 0-.04-.059-.416-.19-.305-.201.168-.353.432-.506.641-.186.25-.364.503-.543.756-.346.503-.681 1.02-.986 1.553l.115-.041a2.9 2.9 0 0 1-.685-.462c-.186-.167-.353-.346-.554-.502-.075-.06-.06.186-.045.208l.008.011z"/><path fill="#000" d="M130.864 71.825a3.663 3.663 0 0 0 3.662-3.665 3.663 3.663 0 1 0-7.324 0 3.664 3.664 0 0 0 3.662 3.665"/><path fill="#fff" d="M129.022 68.402c.242.589.722 1.04 1.225 1.42.041.029.096 0 .115-.042.339-.543.681-1.08 1.046-1.605.186-.264.368-.525.558-.786.19-.26.454-.502.45-.849 0-.04-.059-.417-.189-.305-.201.168-.354.432-.507.64-.186.25-.364.503-.543.756-.346.503-.681 1.02-.986 1.553l.115-.04a2.9 2.9 0 0 1-.685-.462c-.186-.168-.353-.347-.554-.503-.075-.06-.06.186-.045.208l.008.012z"/><path fill="#000" d="M133.015 87.124a3.664 3.664 0 0 0 0-7.33 3.664 3.664 0 0 0-3.662 3.665 3.664 3.664 0 0 0 3.662 3.665"/><path fill="#fff" d="M131.173 83.701c.242.589.722 1.04 1.225 1.42.041.029.096 0 .115-.042.339-.544.681-1.08 1.046-1.605.186-.264.368-.525.558-.786.19-.26.454-.503.45-.849 0-.04-.059-.417-.189-.305-.201.167-.354.432-.507.64-.186.25-.364.503-.543.756-.346.503-.681 1.02-.986 1.553l.115-.04a2.9 2.9 0 0 1-.685-.462c-.186-.168-.353-.347-.554-.503-.074-.06-.06.186-.045.208l.008.011zM153.202 161.755c-.034.905.097 1.814.212 2.708.059.443.123.882.212 1.322.063.313.149.752.365 1.005.033.045.07-.011.074-.044.097-.38.086-.827.06-1.218a23 23 0 0 0-.157-1.419c-.063-.443-.122-.89-.201-1.33-.07-.391-.115-.826-.305-1.184-.115-.22-.249.008-.253.16z"/><path fill="#000" d="M244.159 142.394v3.508l-21.861 9.675-41.817-33.99v-3.512l22.088-7.582z"/><path fill="#fff" d="m238.063 139.727-18.586 8.227-3.99-3.244-4.332-3.519-8.284-6.737-2.62-2.131-1.392-1.132-5.817-4.729-9.111-7.408 18.78-6.446 1.261.968 5.955 4.566 1.426 1.095 2.683 2.059 8.481 6.506 4.433 3.401z"/><path fill="#fff" d="m181.181 118.946 40.879 32.795-.291-.037 20.243-8.875a.185.185 0 0 1 .245.097.19.19 0 0 1-.093.246L222 152.221a.29.29 0 0 1-.294-.037c.075-.104-41.057-33.197-40.525-33.234z"/><path fill="#000" d="M192.353 137.452c.507-.622 1.422-.898 2.155-1.151.815-.283 1.668-.436 2.527-.343.25.026.566-.048.763-.205.164-.126.145-.268-.078-.29-1.195-.13-2.378.104-3.509.484-.533.179-1.05.395-1.556.629-.48.224-.949.503-1.288.917-.152.189.134.234.268.23.223-.007.566-.085.718-.271M196.86 140.371a17.8 17.8 0 0 1 4.984-.756c.23 0 .584-.074.71-.294.127-.22-.104-.313-.29-.313a19.8 19.8 0 0 0-5.545.831c-.16.048-.521.182-.469.409.052.228.473.164.61.123M201.903 143.652a37 37 0 0 1 5.233.093c.249.023.588-.078.703-.327.116-.25-.097-.417-.324-.44a39 39 0 0 0-5.511-.097c-.231.012-.566.168-.596.429-.03.26.29.35.495.339zM206.924 147.656c.807-.112 1.652.011 2.463.067.849.059 1.697.123 2.55.182.245.019.558-.067.763-.205.171-.111.149-.212-.06-.227-.919-.067-1.838-.13-2.758-.197-.923-.067-1.831-.134-2.754-.008-.152.023-.58.112-.632.291s.364.108.428.097"/><path fill="#000" d="M206.641 147.637a19 19 0 0 1 5.381.078c.239.038.596-.093.707-.32.12-.246-.107-.376-.316-.41a20.2 20.2 0 0 0-5.657-.078c-.223.03-.565.149-.599.414-.033.264.294.338.488.312z"/><path fill="#000" d="M206.607 147.905q3.07.055 6.134-.063c.227-.008.569-.168.599-.421.033-.272-.29-.335-.491-.328q-2.927.118-5.858.067c-.25-.003-.588.067-.704.324-.104.228.093.421.32.425zM212.261 151.864c1.272.559 2.616.912 3.959 1.259 1.392.357 2.784.715 4.191 1.016a.94.94 0 0 0 .763-.204c.164-.153.13-.313-.097-.365a101 101 0 0 1-4.042-.98c-1.328-.342-2.653-.685-3.911-1.24-.231-.1-.558-.022-.763.104-.134.082-.335.298-.1.403z"/><path fill="#000" d="M206.339 147.324a31.6 31.6 0 0 1 4.853-.13c.253.015.559-.045.763-.205.157-.119.153-.279-.078-.29a32.6 32.6 0 0 0-5.087.122c-.224.023-.577.071-.719.272-.134.19.116.242.268.227zM201.739 143.164a31.6 31.6 0 0 1 4.746 0c.245.019.558-.067.763-.204.167-.116.148-.22-.064-.239a33 33 0 0 0-4.979.008c-.216.015-.573.078-.722.257-.149.178.13.186.253.178zM202.625 143.805q2.403-.007 4.805-.03c.227 0 .577-.082.714-.279.138-.198-.122-.268-.279-.265-1.6.019-3.204.027-4.804.03-.227 0-.577.082-.715.28-.138.197.123.268.279.264M196.626 139.921c.316-.134.733-.142 1.072-.194q.653-.1 1.314-.179a49 49 0 0 1 2.638-.238c.216-.015.577-.082.722-.257s-.134-.179-.253-.171c-1.027.067-2.051.16-3.07.294-1.013.13-2.099.208-3.045.607-.115.048-.342.194-.134.276.209.081.562-.06.752-.138z"/><path fill="#000" d="M197.061 140.174c.841-.205 1.694-.287 2.553-.358q1.392-.116 2.777-.238c.216-.019.573-.082.722-.253s-.138-.168-.25-.157c-1.965.168-3.963.235-5.883.701-.094.022-.54.145-.499.298.041.152.51.026.58.007"/><path fill="#fff" d="M231.348 145.426c.55-.269.845-.797.658-1.18s-.784-.474-1.335-.205-.845.797-.658 1.179c.187.383.784.475 1.335.206"/><path fill="#D5D5D5" d="m209.927 118.142-11.068 13.049-5.817-4.729 10.93-12.886zM214.036 121.296l-11.165 13.158-2.62-2.131 11.101-13.086zM226.95 131.203l-11.463 13.507-4.332-3.519 11.362-13.389z"/></g><defs><clipPath id="a"><path fill="#fff" d="M0 0h354v249H0z"/></clipPath></defs></svg>