<svg xmlns="http://www.w3.org/2000/svg" width="133" height="132" fill="none" viewBox="0 0 133 132"><circle cx="66.5" cy="66" r="66" fill="#D9E5DA"/><g clip-path="url(#a)"><path fill="#fff" d="M105.949 90.425c4.175 0 7.35-3.875 7.575-8.975v-3.825c-.525-5-3.4-8.975-7.575-8.975M26.925 90.425c-4.175 0-7.35-3.875-7.575-8.975v-3.825c.525-5 3.4-8.975 7.575-8.975"/><path fill="#fff" d="M105.725 71.85V86.7c0 12.775-10.35 23.15-23.125 23.15H66.025h.075-16.7c-12.775 0-23.125-10.375-23.125-23.15V71.85c0-12.775 10.35-23.125 23.125-23.125h33.2c12.775 0 23.125 10.35 23.125 23.125"/><path fill="#D2EAD8" d="M106.275 74.175s5-1.725 5.925 12.175l.575-12.3-1.75-2.875-2.75-1.925h-2.3z"/><path fill="#D2EAD8" d="M81.426 109.85s28.35-6.9 19.75-52.475l4.825 11.9c1.025 8.125.3 23.225-4.375 30.075l-1.55 3.15-9.65 7.35h-9M28.4 84.9l-1.375-10.475c1.025-13.925 8.15-20.175 12.225-22.8a13 13 0 0 1 4.35-1.775l11.625-1.275s-29.9 5.45-26.8 36.325zM20.1 81.775s5 1.725 5.924-12.175l.575 12.3-.575 8-3.125-1-1.425-1.45-1.4-5.675z"/><path fill="#0B130C" d="M87.774 63.2h-43.5c-6.254 0-11.325 5.07-11.325 11.325V85.35c0 6.255 5.07 11.325 11.325 11.325h43.5c6.255 0 11.325-5.07 11.325-11.325V74.525c0-6.254-5.07-11.325-11.325-11.325"/><path fill="#0B130C" d="m66 47.725 15.15.125c5.075-.2 10.55.925 14.9 3.825 13.225 8.425 12.125 21.1 11.825 34.925-.225 8.075-4.95 15.425-11.3 20.05-8.65 6.875-19.975 3.1-30.025 3.8v-1.2c5.05.05 10.1-.05 15.15-.35 12.925.15 23.8-8.925 22.95-22.3-.425-12.225 2.7-25.775-9.525-33.475-4.1-2.725-9-3.725-13.975-3.5L66 49.75z"/><path fill="#0B130C" d="m67.1 49.75-15.176-.125c-5-.225-9.875.775-14 3.5-12.175 7.65-9.1 21.35-9.5 33.5-.75 13.5 10 22.375 23.025 22.275 5.05.3 10.1.4 15.175.35v1.2c-10.05-.7-21.375 3.075-30.05-3.775-6.375-4.625-11.1-11.975-11.35-20.05-.3-13.8-1.425-26.525 11.8-34.95 4.375-2.9 9.85-4.05 14.925-3.85l15.175-.125v2.025z"/><path fill="#fff" d="M47.176 86.7a6.75 6.75 0 1 0 0-13.5 6.75 6.75 0 0 0 0 13.5M84.824 86.7a6.75 6.75 0 1 0 0-13.5 6.75 6.75 0 0 0 0 13.5"/><path fill="#0B130C" d="M27 90.95c-11.9-1.05-11.9-22.225 0-23.075v1.3c-4.35-.2-6.25 5.3-6.326 8.325.025 3.825-.575 8.325 2.725 11.05.975.85 2.325 1.3 3.6 1.1zM106 89.65c6.4.325 6.575-7.5 6.325-12.15-.075-3.025-1.975-8.525-6.325-8.325v-1.3c11.9.85 11.9 22.025 0 23.075zM66.55 32.65a6.75 6.75 0 1 0 0-13.5 6.75 6.75 0 0 0 0 13.5"/><path fill="#0B130C" d="M68.576 31.775H64.55v12.4h4.025z"/><path fill="#0B130C" d="M55.8 48.6a4.417 4.417 0 0 1 4.426-4.425H72.9a4.417 4.417 0 0 1 4.425 4.425"/><mask id="b" width="14" height="14" x="40" y="73" maskUnits="userSpaceOnUse" style="mask-type:luminance"><path fill="#fff" d="M47.176 86.7a6.75 6.75 0 1 0 0-13.5 6.75 6.75 0 0 0 0 13.5"/></mask><g mask="url(#b)"><path fill="#D2EAD8" d="M40.477 85.375s10.75 2.15 12.75-15.15l2.6 12.3-9.55 7.375z"/></g><mask id="c" width="14" height="14" x="78" y="73" maskUnits="userSpaceOnUse" style="mask-type:luminance"><path fill="#fff" d="M84.824 86.7a6.75 6.75 0 1 0 0-13.5 6.75 6.75 0 0 0 0 13.5"/></mask><g mask="url(#c)"><path fill="#D2EAD8" d="M78.125 85.375s10.75 2.15 12.75-15.15l2.6 12.3-9.55 7.375z"/></g></g><defs><clipPath id="a"><path fill="#fff" d="M18 19h97v92H18z"/></clipPath></defs></svg>