<svg width="94" height="102" viewBox="0 0 94 102" fill="none" xmlns="http://www.w3.org/2000/svg">
<ellipse cx="46" cy="62" rx="46" ry="40" fill="#D9EDFA"/>
<path d="M13.9234 53.2412C12.2411 57.6502 11.8361 61.8729 12.0541 66.5614C12.3034 71.9639 14.5153 77.5839 19.0014 80.8751C22.366 83.3591 26.6029 84.2906 30.7463 84.9115C40.5909 86.3709 50.6535 86.3709 60.4981 84.8494C67.2584 83.8248 74.673 81.5582 78.0064 75.6278C79.4707 73.0507 79.9691 70.0389 80.3118 67.0581C80.8103 62.8975 80.966 58.4885 79.3149 54.6384C76.4176 47.9628 68.8784 44.6405 61.7754 43.057C48.4728 40.1383 34.329 41.2561 21.6806 46.2861C18.5653 47.5281 16.2287 49.4842 14.3284 52.527" fill="#231F20"/>
<path d="M46.3232 60.258C56.9735 60.258 65.6073 56.7132 65.6073 52.3404C65.6073 47.9677 56.9735 44.4229 46.3232 44.4229C35.6729 44.4229 27.0391 47.9677 27.0391 52.3404C27.0391 56.7132 35.6729 60.258 46.3232 60.258Z" stroke="white" stroke-width="1.5" stroke-miterlimit="10"/>
<path d="M45.8563 57.0909C52.6869 57.0909 58.2243 54.8111 58.2243 51.9988C58.2243 49.1865 52.6869 46.9067 45.8563 46.9067C39.0256 46.9067 33.4883 49.1865 33.4883 51.9988C33.4883 54.8111 39.0256 57.0909 45.8563 57.0909Z" fill="#C3E5FA" stroke="#231F20"/>
<path d="M45.8552 55.3837C50.9653 55.3837 55.1078 53.6877 55.1078 51.5956C55.1078 49.5036 50.9653 47.8076 45.8552 47.8076C40.7451 47.8076 36.6025 49.5036 36.6025 51.5956C36.6025 53.6877 40.7451 55.3837 45.8552 55.3837Z" fill="#0089DE"/>
<path d="M45.8558 53.7693C49.2798 53.7693 52.0554 52.7962 52.0554 51.5958C52.0554 50.3955 49.2798 49.4224 45.8558 49.4224C42.4319 49.4224 39.6562 50.3955 39.6562 51.5958C39.6562 52.7962 42.4319 53.7693 45.8558 53.7693Z" fill="#231F20"/>
<path d="M13.7051 58.1778C23.2381 62.5558 33.55 64.8845 44.0176 65.1018C46.0426 65.1018 48.2545 65.1018 50.2483 64.9466C51.4633 64.8845 53.1768 64.6671 54.3918 64.574C55.5756 64.3877 57.3202 64.2014 58.504 63.953C60.4979 63.5804 62.6475 63.1147 64.6102 62.6179C66.5417 62.0279 68.6913 61.438 70.5917 60.7239C73.2086 59.7924 75.7943 58.6746 78.2866 57.4326C75.9189 58.954 73.4266 60.2581 70.8409 61.4069C52.7406 69.2314 30.7461 68.2378 13.7051 58.2399V58.1778Z" fill="#4A4A4A"/>
<path d="M65.8183 25.1574L89.5587 39.3394C89.5587 39.3394 92.5216 36.7481 92.8507 32.5831L68.7328 19.9813L65.8183 25.1574Z" fill="white"/>
<path d="M68.712 23.9514C71.4957 25.2277 74.3909 26.6529 77.3787 28.2642C82.5724 31.0954 87.2065 34.0191 91.2628 36.8865C91.9186 35.7714 92.5653 34.6284 93.2211 33.5133C84.9925 29.2102 76.7732 24.9351 68.5446 20.632C68.7025 20.8274 69.0553 21.3298 69.1463 22.0737C69.2553 23.0593 68.8058 23.7655 68.684 23.9607L68.712 23.9514Z" fill="#BCCEDA"/>
<path d="M47.3497 31.7689C47.9907 29.3893 48.8604 28.4511 49.123 27.9306C49.1605 27.8563 49.1887 27.754 49.2727 27.7262C49.3847 27.6891 49.4872 27.7171 49.5152 27.7079C49.6829 27.7452 50.7548 27.7927 53.5608 27.8231C53.9071 27.3679 54.2254 26.9219 54.5717 26.4666C53.3736 24.9128 52.1475 23.3683 50.9495 21.8145C51.4885 19.221 52.315 17.1205 53.028 15.6149C54.6791 12.0647 56.6622 9.79794 57.8597 8.34861C59.1228 6.81567 60.5068 5.36652 62.2435 4.41976C63.3734 3.79786 64.5772 3.39917 65.8182 3.0191C68.4217 2.15682 71.0718 1.34107 73.7946 1.12043C73.803 1.42726 73.8395 1.72481 73.9039 2.0131C69.9101 3.2739 66.443 6.12508 64.4652 9.81441C64.3714 10.0003 64.2776 10.1861 64.3051 10.3628C64.3233 10.5116 64.4067 10.6697 64.5089 10.7907C66.1522 13.1259 67.8234 15.4518 69.5227 17.7685C67.1436 21.5598 64.9135 25.4255 62.8788 29.4123C62.8225 29.5238 62.757 29.6074 62.6451 29.6445C62.5891 29.6631 62.4866 29.6351 62.4214 29.6257C61.1361 29.2155 59.8037 28.9446 58.4523 28.8039C58.2939 28.7944 58.1634 28.7757 58.0327 28.85C57.8647 28.9056 57.7989 29.0822 57.7612 29.2495C57.5454 29.7235 57.3575 30.1882 57.151 30.6901C57.1787 30.7738 57.2809 30.8948 57.3643 31.0529C57.7541 31.6669 58.0884 32.1135 58.1906 32.2345C58.4599 32.5787 58.8312 33.1369 59.2574 34.0485C58.4523 35.1821 57.6657 36.3714 56.9444 37.5702C55.5022 36.5926 54.0133 35.6614 52.5337 34.7582C52.2638 34.5999 51.9939 34.4416 51.724 34.2833C50.3001 33.4545 48.7919 32.7465 47.2554 32.1407C47.2932 31.9734 47.331 31.8061 47.3685 31.7317L47.3497 31.7689Z" fill="white"/>
<path d="M56.3127 33.5996C56.6699 32.6144 56.1143 31.3122 54.8945 30.8183C55.6828 29.0711 56.5827 27.3798 57.6688 25.7816C58.8057 25.9314 59.9239 26.1184 61.0513 26.3333C62.6337 23.9824 64.2253 21.6595 65.8078 19.3086C65.995 19.0299 66.1731 18.7232 66.1086 18.4349C66.0442 18.1467 65.8953 18.0721 65.7186 17.9139C64.2308 16.6109 62.3693 15.5864 60.3651 15.5381C58.3889 15.4805 56.2881 16.5478 55.5276 18.3787C56.8826 14.1217 58.8058 9.986 61.8638 6.74395C64.9311 3.52979 69.3285 1.3303 73.7465 1.63189C71.6822 2.99674 69.7201 4.48255 67.8602 6.08933C66.505 7.25028 65.1025 8.64363 65.0134 10.438C66.7221 12.6896 68.3282 15.0062 69.8034 17.397C68.8834 19.5904 67.0884 21.2995 65.945 23.3811C64.942 25.2304 64.4976 27.3592 63.4855 29.1806C63.4292 29.2921 63.3637 29.3757 63.261 29.4407C63.121 29.487 62.9625 29.4776 62.8321 29.4589C61.2668 29.1413 59.6923 28.7959 58.155 28.469C58.2643 29.3617 58.0379 30.2727 57.5788 31.044C58.1357 31.8812 58.6738 32.7557 59.2307 33.593C58.4909 34.7359 57.7231 35.8881 56.9832 37.0311C55.6618 36.2302 54.3591 35.3923 53.0376 34.5915C54.3406 35.3365 55.9273 34.6871 56.3407 33.5904L56.3127 33.5996Z" fill="#BCCEDA"/>
<path d="M64.4084 10.0192C64.7142 10.661 65.1319 11.2657 65.5217 11.8797C65.9114 12.4937 66.3292 13.0984 66.7189 13.7124C67.5079 14.8754 68.3062 16.0662 69.1232 17.2198C69.2346 17.3687 69.6154 17.8618 69.654 17.4156C69.6926 16.9693 69.3681 16.3647 69.1267 16.0111C68.3097 14.8575 67.4835 13.6759 66.6385 12.5316C66.2485 12.0105 65.8584 11.4895 65.4592 10.9406C65.2548 10.6987 65.0692 10.4196 64.8648 10.1776C64.7069 9.98224 64.5677 9.74967 64.3443 9.63789C64.2326 9.58201 64.3804 10.0284 64.3897 10.0563L64.4084 10.0192Z" fill="black"/>
<path d="M69.794 17.555C69.5977 17.7129 69.3455 17.8893 69.1865 18.0658C68.934 18.3352 68.728 18.6511 68.5219 18.9671C68.0914 19.5431 67.7074 20.1657 67.3233 20.7883C66.5177 22.1078 65.7121 23.4273 64.9437 24.7655C64.5689 25.416 64.1941 26.0664 63.8565 26.7356C63.6877 27.0701 63.5097 27.3768 63.3409 27.7113C63.2096 27.9715 63.031 28.4642 62.8253 28.6871C62.5916 28.9193 61.9675 28.7235 61.6786 28.6954C61.2964 28.6671 60.9051 28.611 60.5509 28.5734C59.7214 28.5076 58.9106 28.4046 58.0811 28.3387C58.0531 28.348 58.0251 28.3573 57.9971 28.3666C57.753 28.9428 57.537 29.5097 57.2929 30.086C57.0863 30.5878 57.3089 30.9785 57.5872 31.4437C58.2648 32.4577 58.9704 33.4625 59.676 34.4673L59.3803 33.5745C58.9965 34.1041 58.6314 34.5965 58.2757 35.1169C58.0604 35.4049 57.8731 35.6837 57.6579 35.9717C57.4893 36.2133 57.3298 36.5757 57.1056 36.7429C56.8626 36.9472 56.593 36.6959 56.3511 36.5283C56.1092 36.3608 55.8485 36.2304 55.5786 36.072C55.0388 35.7554 54.4711 35.4481 53.9033 35.1407C51.6974 33.9207 49.4353 32.8122 47.1076 31.7874L47.5892 32.8663C48.1714 31.435 48.7444 29.9758 49.3546 28.5353C49.4578 28.2843 49.5141 28.1728 49.7845 28.1452C49.9618 28.1174 50.1667 28.1734 50.3624 28.2015C50.7445 28.2297 51.1267 28.258 51.5181 28.3141C52.3196 28.3892 53.1491 28.4551 53.9414 28.5023L53.9694 28.493C54.2787 27.9261 54.588 27.3593 54.9065 26.8203C55.0471 26.588 54.6293 25.9833 54.4806 25.8158C53.2168 24.4386 51.925 23.0706 50.6611 21.6934L51.0778 22.6701C52.2835 18.4315 54.3179 14.5376 56.8177 10.9232C58.0628 9.14846 59.4661 7.47619 61.1575 6.11099C63.1106 4.5043 65.4355 3.26986 67.8339 2.44458C69.8775 1.76773 72.0046 1.24902 74.1773 1.05576L74.1404 0.944159C71.7728 0.830412 69.4416 1.01422 67.1835 1.70017C64.3375 2.58082 61.7321 4.09394 59.5539 6.14671C57.7777 7.81864 56.4108 9.78848 55.0996 11.8327C53.6012 14.1558 52.3354 16.6185 51.3956 19.2209C51.1887 19.8158 50.9819 20.4107 50.7843 21.0334C50.7277 21.2379 50.5965 21.4981 50.5864 21.7491C50.5948 22.056 50.7989 22.3909 50.9661 22.6142C51.514 23.3306 52.2299 23.9914 52.8526 24.6521C53.5218 25.3593 54.1629 26.0758 54.8413 26.811L54.4154 25.8064C54.1811 26.2246 53.9466 26.7358 53.6658 27.1074C53.4225 27.4047 53.2641 27.3953 52.9099 27.3577C52.6582 27.3482 52.3973 27.3108 52.1364 27.2733C51.1112 27.1794 50.058 27.0948 49.0328 27.0009L49.0048 27.0101C48.3568 28.618 47.6996 30.198 47.0704 31.7687C46.9671 32.0197 47.3286 32.7359 47.552 32.8477C50.969 34.3478 54.2735 36.0708 57.4374 38.0263C57.4654 38.017 57.4934 38.0077 57.5214 37.9984C58.3265 36.8649 59.1595 35.722 59.9738 34.6164C60.1049 34.4491 59.7523 33.8538 59.6781 33.7235C58.9541 32.6629 58.23 31.6023 57.506 30.5417L57.8109 31.4625C58.0175 30.9606 58.2148 30.4308 58.4494 29.9197C58.5997 29.5293 58.7209 29.5201 59.131 29.5391C59.42 29.5673 59.7089 29.5954 59.9978 29.6236C61.0882 29.7268 62.2067 29.8208 63.3064 29.952C63.3344 29.9428 63.3624 29.9335 63.3904 29.9242C64.4498 27.8704 65.5465 25.8352 66.6897 23.8466C67.8329 21.858 69.1905 19.8602 69.9429 17.6295L69.9337 17.6016L69.794 17.555Z" fill="black"/>
<path d="M54.1568 21.6499C54.4769 20.5531 54.9461 19.5307 55.3687 18.4619C55.7914 17.3931 56.2513 16.3429 56.7484 15.3113C57.7801 13.1738 58.9143 11.0643 60.1603 9.01065C60.1603 9.01065 60.1048 8.84324 60.1141 8.87114C58.6918 10.6736 57.5021 12.6157 56.5078 14.6788C56.02 15.7383 55.5693 16.8164 55.1651 17.9411C54.7515 19.1308 54.4495 20.3764 54.1383 21.5941L54.1568 21.6499Z" fill="black"/>
<path d="M64.5186 10.5396C64.9192 10.6236 65.0698 10.1403 65.2011 9.8801C65.4636 9.35968 65.7262 8.83925 66.0352 8.36536C66.8593 7.10164 67.8416 5.94034 69.019 4.99307C70.6077 3.69286 72.457 2.52307 74.4074 1.84613L74.3797 1.76243C72.2251 2.10446 70.1815 2.78131 68.4713 4.18367C67.3687 5.07523 66.4147 6.13428 65.6561 7.31438C65.038 8.26217 64.3729 9.34938 64.5093 10.5117C64.5093 10.5117 64.5186 10.5396 64.5278 10.5675L64.5186 10.5396Z" fill="black"/>
<path d="M66.1715 25.6588C66.2745 25.5008 69.2998 27.0377 74.112 29.6547C76.504 30.9679 79.3614 32.5604 82.5351 34.3578C84.108 35.2611 85.7554 36.2017 87.4772 37.1795C87.7006 37.2913 87.9053 37.4402 88.1287 37.552C88.3521 37.6638 88.5567 37.8127 88.7429 37.9059C88.9291 37.999 89.106 38.0643 89.2365 38.083C89.367 38.1017 89.4882 38.0925 89.6562 38.0369C89.7961 37.9905 89.9549 37.907 90.1044 37.7955C90.2538 37.6841 90.3941 37.5448 90.5251 37.3775C90.6561 37.2103 90.7779 37.0152 90.8904 36.7921C91.0029 36.5691 91.1434 36.3368 91.256 36.1137C91.7153 35.2495 92.0909 34.3201 91.9811 33.6134C91.9262 33.26 91.7594 32.9437 91.5085 32.6553C91.2576 32.3668 90.8948 32.1154 90.4852 31.9105C88.7446 30.9699 87.0878 30.0944 85.4961 29.2282C82.3129 27.4959 79.4367 25.9406 77.0354 24.5995C72.2421 21.9453 69.3292 20.1854 69.423 19.9995C69.5168 19.8136 72.5984 21.239 77.5135 23.6981C79.9711 24.9276 82.8755 26.3807 86.0963 28.0387C86.9154 28.4485 87.7439 28.8863 88.5723 29.324C88.9911 29.5568 89.4287 29.7525 89.8476 29.9853C90.2664 30.2181 90.704 30.4138 91.1693 30.6932C91.6254 30.9446 92.0999 31.2519 92.5275 31.6985C92.955 32.1452 93.2888 32.7778 93.3801 33.4287C93.4714 34.0796 93.367 34.7024 93.1789 35.2601C92.9908 35.8178 92.7563 36.329 92.5125 36.8122C92.372 37.0445 92.2594 37.2676 92.1281 37.5278C91.9876 37.7601 91.8283 38.0296 91.6506 38.2433C91.2856 38.7357 90.7528 39.1908 90.081 39.4133C89.745 39.5246 89.3534 39.5614 88.99 39.496C88.6266 39.4306 88.3287 39.2815 88.068 39.1511C87.8074 39.0207 87.612 38.8997 87.4073 38.7507C87.1839 38.6389 86.9792 38.49 86.7558 38.3782C85.0528 37.3632 83.4334 36.4134 81.8513 35.4822C78.7243 33.6384 75.9324 31.9622 73.5874 30.5096C68.9158 27.6603 66.0592 25.7888 66.1622 25.6309L66.1715 25.6588Z" fill="#202020"/>
<path d="M18.8305 44.7199C18.2872 44.4943 17.9249 44.043 17.5174 43.727C17.1551 43.4111 16.7476 43.0952 16.3853 42.7793C15.6608 42.1926 14.891 41.6511 14.1212 41.0192C12.5817 39.7105 10.9515 38.492 9.32139 37.2734C9.2761 37.2734 8.95913 37.4088 9.00441 37.454C10.1817 39.0786 11.5402 40.4777 13.1703 41.6511C13.9401 42.1926 14.7099 42.7793 15.5703 43.2306C16.0231 43.4563 16.4759 43.727 16.9287 43.9076C17.5174 44.1783 18.2419 44.3589 18.74 44.765L18.8305 44.7199Z" fill="#0089DE"/>
<path d="M23.3592 40.7036C22.5894 39.8461 22.3177 38.5374 21.7743 37.4994C21.2309 36.5065 20.7328 35.5136 20.28 34.4756C19.2838 32.3545 18.1518 30.3237 17.065 28.2928C17.065 28.2477 16.7028 28.4282 16.7481 28.4733C17.1556 30.8652 17.5178 33.2571 18.5593 35.4685C19.0574 36.4614 19.6461 37.4091 20.3253 38.3117C21.1404 39.3497 22.363 39.8461 23.3592 40.7036Z" fill="#0089DE"/>
<path d="M29.5165 38.5374C29.2901 38.0409 29.3807 37.364 29.3354 36.8224C29.2901 36.326 29.2901 35.8295 29.2448 35.288C29.109 34.2049 29.0184 33.1217 28.8826 32.0386C28.6109 30.098 28.2939 28.1574 28.0222 26.2168C28.0222 26.1717 27.5241 26.3974 27.5241 26.4876C26.8449 28.699 26.4827 30.9104 26.7996 33.1217C26.9355 34.1146 27.2524 35.0623 27.66 35.9649C27.8864 36.4614 28.1581 36.8675 28.475 37.3188C28.792 37.7701 29.2901 38.1312 29.4712 38.5825C29.4712 38.5825 29.5618 38.5825 29.5618 38.5374H29.5165Z" fill="#0089DE"/>
</svg>
