<svg width="79" height="91" viewBox="0 0 79 91" fill="none" xmlns="http://www.w3.org/2000/svg">
<g clip-path="url(#clip0_974_10840)">
<path d="M0.787086 1.15918C26.1364 1.15918 51.4857 1.15918 77.6032 1.15918C77.6032 24.2094 77.6032 47.2596 77.6032 71.0082C76.7484 71.4209 75.8936 71.8336 75.0129 72.2587C74.3684 72.5737 73.7241 72.8889 73.0803 73.2051C72.5897 73.4462 72.0989 73.6869 71.6082 73.9276C71.4611 73.9998 71.4611 73.9998 71.311 74.0734C70.4056 74.5175 69.4994 74.9599 68.5929 75.4017C68.2964 75.5463 67.9998 75.6908 67.7032 75.8354C67.6297 75.8713 67.5561 75.9071 67.4804 75.9441C66.5817 76.3822 65.6837 76.8215 64.7856 77.2607C63.5094 77.8848 62.2329 78.5083 60.956 79.1309C59.6416 79.7717 58.328 80.4139 57.0147 81.0569C55.7014 81.6998 54.3877 82.342 53.0734 82.9828C51.8039 83.6018 50.5348 84.2215 49.2661 84.8418C49.1826 84.8827 49.0991 84.9235 49.0131 84.9656C48.5897 85.1726 48.1664 85.3796 47.743 85.5866C47.3201 85.7935 46.8972 86.0003 46.4742 86.2071C46.3057 86.2895 46.1371 86.3719 45.9686 86.4543C45.5515 86.6583 45.1344 86.8621 44.7171 87.0654C43.943 87.4428 43.1699 87.822 42.3998 88.2077C42.0444 88.3856 41.6884 88.5624 41.3324 88.7392C41.1632 88.8236 40.9942 88.9085 40.8255 88.994C40.5926 89.1119 40.3589 89.228 40.125 89.3438C40.0223 89.3967 40.0223 89.3967 39.9175 89.4506C39.5207 89.6445 39.279 89.7202 38.8379 89.587C38.6624 89.5205 38.4891 89.4479 38.3187 89.3693C38.2334 89.3307 38.148 89.2922 38.0601 89.2524C37.8553 89.1404 37.8553 89.1404 37.766 88.9618C37.5874 88.902 37.4088 88.8425 37.2301 88.7831C36.9044 88.6359 36.5849 88.4761 36.2646 88.3173C36.1698 88.2707 36.075 88.224 35.9773 88.1759C35.6672 88.0232 35.3572 87.87 35.0473 87.7169C34.8312 87.6103 34.615 87.5039 34.3988 87.3975C34.29 87.344 34.1812 87.2904 34.0724 87.2369C34.0186 87.2104 33.9648 87.1839 33.9094 87.1566C33.746 87.0762 33.5826 86.9957 33.4193 86.9152C32.5211 86.4726 31.6213 86.0333 30.7208 85.5955C30.4421 85.4599 30.1635 85.3243 29.8848 85.1887C29.8152 85.1547 29.7455 85.1208 29.6737 85.0859C28.7642 84.643 27.8556 84.1981 26.947 83.7532C26.859 83.7102 26.7711 83.6671 26.6805 83.6228C26.3245 83.4485 25.9685 83.2742 25.6125 83.1C24.6618 82.6346 23.711 82.1694 22.7601 81.7044C22.6766 81.6636 22.5931 81.6228 22.5072 81.5808C21.2895 80.9855 20.0713 80.3914 18.8527 79.7982C17.5525 79.1652 16.2536 78.5298 14.9548 77.8939C13.7311 77.2948 12.507 76.6966 11.2823 76.0995C9.7956 75.3748 8.30978 74.6482 6.82441 73.9206C5.95067 73.4928 5.07654 73.0657 4.20152 72.6404C4.03282 72.5584 3.86413 72.4763 3.69543 72.3943C3.38048 72.2411 3.0654 72.0882 2.75023 71.9355C2.60781 71.8662 2.4654 71.797 2.32299 71.7277C2.26037 71.6975 2.19775 71.6672 2.13324 71.6361C1.67354 71.412 1.23598 71.1683 0.787086 70.9189C0.787086 47.8982 0.787086 24.8775 0.787086 1.15918Z" fill="#FEFEFE"/>
<path d="M0.787086 1.15918C26.1364 1.15918 51.4857 1.15918 77.6032 1.15918C77.6032 24.2094 77.6032 47.2596 77.6032 71.0082C76.7484 71.4209 75.8936 71.8336 75.0129 72.2587C74.3684 72.5737 73.7241 72.8889 73.0803 73.2051C72.5897 73.4462 72.0989 73.6869 71.6082 73.9276C71.4611 73.9998 71.4611 73.9998 71.311 74.0734C70.4056 74.5175 69.4994 74.9599 68.5929 75.4017C68.2964 75.5463 67.9998 75.6908 67.7032 75.8354C67.6297 75.8713 67.5561 75.9071 67.4804 75.9441C66.5817 76.3822 65.6837 76.8215 64.7856 77.2607C63.5094 77.8848 62.2329 78.5083 60.956 79.1309C59.6416 79.7717 58.328 80.4139 57.0147 81.0569C55.7014 81.6998 54.3877 82.342 53.0734 82.9828C51.8039 83.6018 50.5348 84.2215 49.2661 84.8418C49.1826 84.8827 49.0991 84.9235 49.0131 84.9656C48.5897 85.1726 48.1664 85.3796 47.743 85.5866C47.3201 85.7935 46.8972 86.0003 46.4742 86.2071C46.3057 86.2895 46.1371 86.3719 45.9686 86.4543C45.5515 86.6583 45.1344 86.8621 44.7171 87.0654C43.943 87.4428 43.1699 87.822 42.3998 88.2077C42.0444 88.3856 41.6884 88.5624 41.3324 88.7392C41.1632 88.8236 40.9942 88.9085 40.8255 88.994C40.5926 89.1119 40.3589 89.228 40.125 89.3438C40.0223 89.3967 40.0223 89.3967 39.9175 89.4506C39.5207 89.6445 39.279 89.7202 38.8379 89.587C38.6624 89.5205 38.4891 89.4479 38.3187 89.3693C38.2334 89.3307 38.148 89.2922 38.0601 89.2524C37.8553 89.1404 37.8553 89.1404 37.766 88.9618C37.5874 88.902 37.4088 88.8425 37.2301 88.7831C36.9044 88.6359 36.5849 88.4761 36.2646 88.3173C36.1698 88.2707 36.075 88.224 35.9773 88.1759C35.6672 88.0232 35.3572 87.87 35.0473 87.7169C34.8312 87.6103 34.615 87.5039 34.3988 87.3975C34.29 87.344 34.1812 87.2904 34.0724 87.2369C34.0186 87.2104 33.9648 87.1839 33.9094 87.1566C33.746 87.0762 33.5826 86.9957 33.4193 86.9152C32.5211 86.4726 31.6213 86.0333 30.7208 85.5955C30.4421 85.4599 30.1635 85.3243 29.8848 85.1887C29.8152 85.1547 29.7455 85.1208 29.6737 85.0859C28.7642 84.643 27.8556 84.1981 26.947 83.7532C26.859 83.7102 26.7711 83.6671 26.6805 83.6228C26.3245 83.4485 25.9685 83.2742 25.6125 83.1C24.6618 82.6346 23.711 82.1694 22.7601 81.7044C22.6766 81.6636 22.5931 81.6228 22.5072 81.5808C21.2895 80.9855 20.0713 80.3914 18.8527 79.7982C17.5525 79.1652 16.2536 78.5298 14.9548 77.8939C13.7311 77.2948 12.507 76.6966 11.2823 76.0995C9.7956 75.3748 8.30978 74.6482 6.82441 73.9206C5.95067 73.4928 5.07654 73.0657 4.20152 72.6404C4.03282 72.5584 3.86413 72.4763 3.69543 72.3943C3.38048 72.2411 3.0654 72.0882 2.75023 71.9355C2.60781 71.8662 2.4654 71.797 2.32299 71.7277C2.26037 71.6975 2.19775 71.6672 2.13324 71.6361C1.67354 71.412 1.23598 71.1683 0.787086 70.9189C0.787086 47.8982 0.787086 24.8775 0.787086 1.15918ZM1.76962 18.7554C1.76962 32.8449 1.76962 46.9344 1.76962 61.4509C2.5522 61.8683 3.32496 62.2795 4.12546 62.6567C4.21303 62.6983 4.3006 62.7399 4.39083 62.7828C4.85175 63.0015 5.31355 63.2183 5.77559 63.4347C6.35414 63.7056 6.92827 63.9835 7.49853 64.2715C8.1308 64.5895 8.76885 64.8955 9.40657 65.2024C10.1311 65.5511 10.8547 65.901 11.5723 66.2638C12.2437 66.6016 12.9223 66.925 13.5996 67.251C14.2705 67.574 14.9398 67.8992 15.6043 68.2351C16.2904 68.5803 16.9844 68.9094 17.6768 69.2417C18.2659 69.5248 18.8527 69.8115 19.436 70.1063C20.0193 70.3998 20.6083 70.6811 21.1969 70.9636C21.8931 71.2976 22.5877 71.6337 23.2768 71.9821C23.8601 72.2755 24.4491 72.5569 25.0378 72.8393C25.7339 73.1734 26.4285 73.5095 27.1176 73.8578C27.7009 74.1513 28.2899 74.4326 28.8786 74.7151C30.1618 75.3309 30.1618 75.3309 30.7878 75.6474C31.5631 76.0393 32.3468 76.4138 33.13 76.7897C34.0797 77.2463 35.022 77.7169 35.9624 78.1924C36.3391 78.3827 36.7167 78.5714 37.0948 78.7592C37.25 78.8366 37.4049 78.9147 37.5595 78.9933C37.7868 79.1087 38.0151 79.222 38.2437 79.335C38.3121 79.3703 38.3806 79.4057 38.4512 79.4421C38.8874 79.6544 39.1588 79.7239 39.6417 79.5831C39.9719 79.4442 40.2892 79.2843 40.6075 79.1204C40.7476 79.0498 40.7476 79.0497 40.8905 78.9777C41.1892 78.8267 41.4874 78.6746 41.7854 78.5224C42.1742 78.325 42.5632 78.1281 42.9522 77.9313C43.0977 77.8576 43.0977 77.8576 43.2462 77.7824C43.9565 77.4235 44.6718 77.0766 45.3906 76.7352C46.3114 76.2978 47.2262 75.848 48.1409 75.398C48.6601 75.1427 49.1794 74.8877 49.6987 74.6327C49.8019 74.5821 49.9051 74.5314 50.0113 74.4792C50.9009 74.0425 51.7915 73.6078 52.6826 73.1743C52.9611 73.0388 53.2395 72.9033 53.5179 72.7678C53.5871 72.7341 53.6563 72.7005 53.7275 72.6658C54.6117 72.2353 55.4949 71.8032 56.3783 71.3711C57.6619 70.7433 58.9459 70.1161 60.2302 69.4898C62.0117 68.6211 63.7922 67.7507 65.5726 66.88C66.0774 66.6332 66.5822 66.3864 67.087 66.1395C67.1699 66.099 67.2528 66.0585 67.3382 66.0168C67.7553 65.8128 68.1725 65.6089 68.5897 65.405C69.3566 65.0301 70.1235 64.6551 70.8902 64.2798C71.2422 64.1076 71.5941 63.9354 71.9461 63.7632C72.1096 63.6831 72.2731 63.6031 72.4366 63.523C73.8584 62.8267 75.2842 62.1392 76.71 61.4509C76.71 47.3614 76.71 33.2719 76.71 18.7554C51.9797 18.7554 27.2493 18.7554 1.76962 18.7554Z" fill="#FEC700"/>
<path d="M1.6802 2.05322C20.9575 2.05322 40.2347 2.05322 60.0962 2.05322C60.0962 7.27047 60.0962 12.4877 60.0962 17.863C40.8189 17.863 21.5416 17.863 1.6802 17.863C1.6802 12.6458 1.6802 7.42856 1.6802 2.05322Z" fill="#FDFDFD"/>
<path d="M0.787086 1.15918C26.1364 1.15918 51.4857 1.15918 77.6032 1.15918C77.6032 24.2094 77.6032 47.2596 77.6032 71.0082C76.7484 71.4209 75.8936 71.8336 75.0129 72.2587C74.3684 72.5737 73.7241 72.8889 73.0803 73.2051C72.5897 73.4462 72.0989 73.6869 71.6082 73.9276C71.4611 73.9998 71.4611 73.9998 71.311 74.0734C70.4056 74.5175 69.4994 74.9599 68.5929 75.4017C68.2964 75.5463 67.9998 75.6908 67.7032 75.8354C67.6297 75.8713 67.5561 75.9071 67.4804 75.9441C66.5817 76.3822 65.6837 76.8215 64.7856 77.2607C63.5094 77.8848 62.2329 78.5083 60.956 79.1309C59.6416 79.7717 58.328 80.4139 57.0147 81.0569C55.7014 81.6998 54.3877 82.342 53.0734 82.9828C51.8039 83.6018 50.5348 84.2215 49.2661 84.8418C49.1826 84.8827 49.0991 84.9235 49.0131 84.9656C48.5897 85.1726 48.1664 85.3796 47.743 85.5866C47.3201 85.7935 46.8972 86.0003 46.4742 86.2071C46.3057 86.2895 46.1371 86.3719 45.9686 86.4543C45.5515 86.6583 45.1344 86.8621 44.7171 87.0654C43.943 87.4428 43.1699 87.822 42.3998 88.2077C42.0444 88.3856 41.6884 88.5624 41.3324 88.7392C41.1632 88.8236 40.9942 88.9085 40.8255 88.994C40.5926 89.1119 40.3589 89.228 40.125 89.3438C40.0223 89.3967 40.0223 89.3967 39.9175 89.4506C39.5207 89.6445 39.279 89.7202 38.8379 89.587C38.6624 89.5205 38.4891 89.4479 38.3187 89.3693C38.2334 89.3307 38.148 89.2922 38.0601 89.2524C37.8553 89.1404 37.8553 89.1404 37.766 88.9618C37.5874 88.902 37.4088 88.8425 37.2301 88.7831C36.9044 88.6359 36.5849 88.4761 36.2646 88.3173C36.1698 88.2707 36.075 88.224 35.9773 88.1759C35.6672 88.0232 35.3572 87.87 35.0473 87.7169C34.8312 87.6103 34.615 87.5039 34.3988 87.3975C34.29 87.344 34.1812 87.2904 34.0724 87.2369C34.0186 87.2104 33.9648 87.1839 33.9094 87.1566C33.746 87.0762 33.5826 86.9957 33.4193 86.9152C32.5211 86.4726 31.6213 86.0333 30.7208 85.5955C30.4421 85.4599 30.1635 85.3243 29.8848 85.1887C29.8152 85.1547 29.7455 85.1208 29.6737 85.0859C28.7642 84.643 27.8556 84.1981 26.947 83.7532C26.859 83.7102 26.7711 83.6671 26.6805 83.6228C26.3245 83.4485 25.9685 83.2742 25.6125 83.1C24.6618 82.6346 23.711 82.1694 22.7601 81.7044C22.6766 81.6636 22.5931 81.6228 22.5072 81.5808C21.2895 80.9855 20.0713 80.3914 18.8527 79.7982C17.5525 79.1652 16.2536 78.5298 14.9548 77.8939C13.7311 77.2948 12.507 76.6966 11.2823 76.0995C9.7956 75.3748 8.30978 74.6482 6.82441 73.9206C5.95067 73.4928 5.07654 73.0657 4.20152 72.6404C4.03282 72.5584 3.86413 72.4763 3.69543 72.3943C3.38048 72.2411 3.0654 72.0882 2.75023 71.9355C2.60781 71.8662 2.4654 71.797 2.32299 71.7277C2.26037 71.6975 2.19775 71.6672 2.13324 71.6361C1.67354 71.412 1.23598 71.1683 0.787086 70.9189C0.787086 47.8982 0.787086 24.8775 0.787086 1.15918ZM1.6803 2.05239C1.6803 7.26963 1.6803 12.4869 1.6803 17.8622C20.9576 17.8622 40.2348 17.8622 60.0963 17.8622C60.0963 12.645 60.0963 7.42773 60.0963 2.05239C40.819 2.05239 21.5417 2.05239 1.6803 2.05239ZM1.6803 18.7554C1.6803 35.7336 1.6803 52.7117 1.6803 70.2044C2.90695 70.8177 4.13032 71.4246 5.36793 72.0135C6.31544 72.4666 7.25157 72.9429 8.18957 73.4152C9.2139 73.9307 10.2415 74.4372 11.2772 74.9295C12.2757 75.4052 13.2627 75.9034 14.2504 76.401C15.1606 76.8592 16.0729 77.3117 16.9933 77.7492C18.1162 78.283 19.2268 78.8406 20.3372 79.3998C21.386 79.9275 22.4378 80.4472 23.4985 80.9507C23.9772 81.1779 24.4532 81.4095 24.9261 81.6486C25.4993 81.9377 26.0774 82.215 26.6592 82.4864C27.2787 82.7768 27.8897 83.0839 28.501 83.3909C29.3076 83.7959 30.1146 84.1999 30.9215 84.604C31.2277 84.7573 31.5339 84.9107 31.84 85.0643C33.1039 85.6983 34.3689 86.3282 35.6467 86.934C36.137 87.1671 36.6228 87.4071 37.1048 87.6569C37.1616 87.6861 37.2183 87.7153 37.2767 87.7455C37.4996 87.8605 37.7224 87.9755 37.9441 88.0928C38.1121 88.1814 38.281 88.2682 38.4502 88.3547C38.5466 88.405 38.643 88.4554 38.7423 88.5072C39.1802 88.6625 39.4432 88.5636 39.8591 88.3794C39.972 88.3217 40.0846 88.2633 40.1969 88.2043C40.3242 88.139 40.4515 88.0737 40.5789 88.0084C40.6449 87.9743 40.711 87.9401 40.779 87.9049C41.1151 87.7318 41.4533 87.5632 41.7914 87.3941C41.9307 87.3242 42.07 87.2544 42.2093 87.1845C43.3379 86.6187 44.4664 86.0546 45.6083 85.516C46.5145 85.0858 47.4094 84.633 48.3059 84.1831C50.3064 83.1792 50.3064 83.1792 51.1977 82.7595C52.2075 82.284 53.2035 81.7807 54.2011 81.2802C55.2718 80.7429 56.3422 80.2068 57.4261 79.6965C58.3233 79.2712 59.2089 78.8225 60.0963 78.3772C62.0968 77.3733 62.0968 77.3733 62.988 76.9537C63.9979 76.4781 64.9938 75.9748 65.9915 75.4743C67.0622 74.9371 68.1326 74.401 69.2164 73.8906C70.1976 73.4256 71.1653 72.9333 72.1357 72.4464C73.2228 71.901 74.3119 71.3622 75.412 70.8436C75.8475 70.6363 76.2786 70.42 76.71 70.2044C76.71 53.2262 76.71 36.2481 76.71 18.7554C51.9502 18.7554 27.1904 18.7554 1.6803 18.7554Z" fill="#030100"/>
<path d="M1.6802 18.7549C1.70968 18.7549 1.73915 18.7549 1.76952 18.7549C1.76952 34.495 1.76952 50.2352 1.76952 66.4523C1.94638 66.5113 2.12323 66.5702 2.30545 66.631C2.46396 66.7006 2.62122 66.7732 2.77718 66.8483C2.86608 66.8911 2.95498 66.9338 3.04658 66.9778C3.14098 67.0236 3.23538 67.0694 3.33264 67.1166C3.43153 67.1644 3.53042 67.2121 3.63231 67.2613C4.34421 67.6058 5.05216 67.9579 5.75851 68.3137C6.31884 68.5951 6.88265 68.8682 7.44909 69.1372C8.48208 69.6296 9.50982 70.1323 10.5366 70.6373C11.056 70.8928 11.5756 71.1479 12.0952 71.403C12.1984 71.4537 12.3016 71.5044 12.4079 71.5566C13.2935 71.9913 14.1801 72.424 15.0672 72.8555C16.3334 73.4716 17.5987 74.0897 18.8633 74.7089C20.1804 75.3538 21.4977 75.9979 22.8158 76.6405C24.0853 77.2595 25.3544 77.8791 26.6231 78.4995C26.7065 78.5403 26.7899 78.581 26.8758 78.623C27.6398 78.9966 28.4038 79.3703 29.1678 79.7439C30.9467 80.614 32.7256 81.4839 34.5057 82.3515C34.577 82.3862 34.6483 82.421 34.7218 82.4568C35.4608 82.817 36.2002 83.1762 36.9411 83.5325C37.033 83.5768 37.033 83.5768 37.1268 83.6219C37.4115 83.7589 37.6963 83.8957 37.9814 84.032C38.1283 84.1026 38.1283 84.1026 38.2781 84.1745C38.3631 84.2152 38.448 84.2558 38.5355 84.2977C38.7484 84.4059 38.7484 84.4059 39.0164 84.5845C39.5032 84.5626 39.8897 84.3489 40.314 84.1302C40.387 84.0933 40.46 84.0564 40.5353 84.0184C40.6912 83.9396 40.8469 83.8605 41.0025 83.781C41.4068 83.5746 41.8123 83.3704 42.2177 83.1658C42.297 83.1257 42.3764 83.0856 42.4582 83.0442C43.0639 82.7383 43.6729 82.4406 44.2863 82.1505C44.8689 81.8747 45.4481 81.5942 46.0234 81.3034C46.6465 80.99 47.2754 80.6888 47.9038 80.3864C48.6326 80.0357 49.3603 79.6836 50.0821 79.3187C50.7682 78.9735 51.4622 78.6444 52.1547 78.3121C52.69 78.0549 53.2243 77.7961 53.7544 77.5281C54.4961 77.1532 55.2462 76.7959 55.9954 76.4364C56.5308 76.1791 57.0651 75.9203 57.5952 75.6524C58.2311 75.331 58.8732 75.0228 59.5156 74.7145C60.4734 74.2549 60.4734 74.2549 61.4248 73.7822C62.1514 73.4149 62.8857 73.0636 63.6193 72.7106C64.2901 72.3876 64.9595 72.0624 65.624 71.7265C66.3101 71.3812 67.0041 71.0521 67.6965 70.7198C68.2319 70.4626 68.7661 70.2038 69.2962 69.9358C69.9321 69.6144 70.5743 69.3062 71.2166 68.998C71.9033 68.6684 72.5885 68.337 73.2684 67.9936C73.8848 67.6838 74.5056 67.383 75.1264 67.0821C75.2551 67.0197 75.3837 66.9572 75.5123 66.8947C75.6936 66.8066 75.875 66.7187 76.0564 66.631C76.1119 66.6039 76.1675 66.5769 76.2248 66.549C76.6103 66.363 76.6103 66.363 76.7099 66.363C76.7099 67.6305 76.7099 68.8979 76.7099 70.2038C74.0857 71.522 74.0857 71.522 73.0701 72.0014C72.0721 72.4731 71.0866 72.969 70.1001 73.464C68.0997 74.4679 68.0997 74.4679 67.2084 74.8876C66.1985 75.3632 65.2026 75.8664 64.2049 76.367C63.1342 76.9042 62.0638 77.4403 60.98 77.9507C60.0827 78.3759 59.1971 78.8246 58.3097 79.2699C56.3092 80.2738 56.3092 80.2738 55.418 80.6935C54.4081 81.169 53.4122 81.6723 52.4146 82.1728C51.3438 82.7101 50.2735 83.2462 49.1896 83.7565C48.2082 84.2217 47.2401 84.7141 46.2694 85.2012C45.2692 85.703 44.2676 86.2 43.256 86.6788C42.7197 86.9327 42.1874 87.1937 41.657 87.4595C41.5841 87.4958 41.5113 87.5322 41.4363 87.5696C41.0862 87.7448 40.7382 87.9229 40.3929 88.1071C40.3281 88.141 40.2634 88.175 40.1967 88.21C40.0765 88.2732 39.9568 88.3375 39.8379 88.4032C39.4525 88.6043 39.2542 88.6228 38.8378 88.5146C38.5245 88.381 38.2228 88.2268 37.9198 88.0715C37.8302 88.0264 37.7407 87.9813 37.6485 87.9348C37.3616 87.79 37.0753 87.6444 36.789 87.4986C36.4161 87.3096 36.0431 87.1211 35.67 86.9327C35.5767 86.8855 35.4834 86.8383 35.3873 86.7897C34.6818 86.4341 33.9707 86.0913 33.257 85.7525C32.225 85.2616 31.2055 84.7459 30.1848 84.2319C29.0547 83.6632 27.9199 83.1062 26.777 82.5635C26.2208 82.299 25.6702 82.0235 25.1203 81.7461C24.6975 81.533 24.2745 81.3204 23.8512 81.1082C23.7007 81.0326 23.5502 80.9569 23.3998 80.8811C22.7446 80.5525 22.0851 80.2341 21.4233 79.9192C20.2865 79.3778 19.1617 78.8137 18.0371 78.2474C17.0128 77.7319 15.9851 77.2254 14.9495 76.7331C13.951 76.2574 12.964 75.7592 11.9763 75.2616C11.066 74.8034 10.1538 74.3509 9.23341 73.9134C8.11047 73.3796 6.99993 72.8221 5.88946 72.2629C4.67764 71.653 3.46006 71.0574 2.23403 70.4766C2.04844 70.3877 1.86427 70.2958 1.6802 70.2038C1.6802 53.2257 1.6802 36.2475 1.6802 18.7549Z" fill="#FC492C"/>
<path d="M60.9002 2.05322C66.1174 2.05322 71.3347 2.05322 76.71 2.05322C76.71 7.27047 76.71 12.4877 76.71 17.863C71.4928 17.863 66.2755 17.863 60.9002 17.863C60.9002 12.6458 60.9002 7.42856 60.9002 2.05322Z" fill="#FD492C"/>
<path d="M59.1137 36.7988C59.7621 36.7988 60.4106 36.7988 61.0787 36.7988C61.0787 39.6875 61.0787 42.5761 61.0787 45.5523C60.4302 45.5523 59.7818 45.5523 59.1137 45.5523C59.0842 45.3754 59.0547 45.1986 59.0243 45.0164C58.9865 45.053 58.9486 45.0896 58.9095 45.1273C58.295 45.6919 57.722 45.7745 56.8998 45.7585C56.1609 45.6876 55.5846 45.2923 55.0942 44.7484C54.9361 44.5208 54.8321 44.2936 54.7369 44.0338C54.697 43.9266 54.697 43.9266 54.6563 43.8172C54.3163 42.7596 54.3459 41.63 54.829 40.6271C55.1931 39.9826 55.7483 39.4891 56.434 39.2105C56.6845 39.1719 56.929 39.1679 57.1821 39.1714C57.2831 39.1722 57.2831 39.1722 57.3861 39.1731C58.1197 39.1938 58.4941 39.3949 59.0243 39.9251C59.0538 38.8934 59.0833 37.8617 59.1137 36.7988Z" fill="#030303"/>
<path d="M10.3779 36.6811C10.4566 36.6797 10.5354 36.6782 10.6165 36.6768C11.6505 36.676 12.6914 37.0172 13.4434 37.7463C13.6377 37.9617 13.8253 38.1797 14.0065 38.4061C13.8741 38.8308 13.5208 38.9795 13.158 39.1877C13.0964 39.2244 13.0348 39.2612 12.9713 39.299C12.514 39.5673 12.514 39.5673 12.3094 39.5673C12.2486 39.4862 12.1878 39.4052 12.1252 39.3217C11.8404 38.961 11.4781 38.8347 11.0589 38.6741C11 38.6446 10.941 38.6151 10.8803 38.5848C10.0837 38.4913 9.46383 38.7047 8.798 39.1319C8.18058 39.7924 7.9857 40.5611 7.9976 41.4455C8.07051 42.2381 8.40976 42.8847 9.00456 43.4081C9.52133 43.8353 10.1545 43.8348 10.7973 43.8052C11.344 43.7432 11.8108 43.5959 12.1716 43.1625C12.3345 42.8954 12.4123 42.6394 12.4881 42.3363C11.8396 42.3363 11.1911 42.3363 10.523 42.3363C10.523 41.8057 10.523 41.2751 10.523 40.7285C11.82 40.7285 13.1169 40.7285 14.4531 40.7285C14.4531 43.5883 14.4531 43.5883 13.3813 44.7479C12.8581 45.2079 12.2509 45.4314 11.5949 45.6411C11.5064 45.6706 11.418 45.7001 11.3269 45.7305C9.80306 45.8117 8.51242 45.6261 7.28513 44.6419C6.43928 43.8532 5.92997 42.7025 5.85704 41.5547C5.82007 40.1401 6.15845 38.9581 7.1344 37.8981C8.06054 37.0158 9.12943 36.6766 10.3779 36.6811Z" fill="#040404"/>
<path d="M28.03 36.7988C28.6785 36.7988 29.327 36.7988 29.9951 36.7988C29.9951 39.6875 29.9951 42.5761 29.9951 45.5523C29.3761 45.5523 28.7571 45.5523 28.1193 45.5523C28.0751 45.2428 28.0751 45.2428 28.03 44.927C27.9711 44.9934 27.9121 45.0597 27.8514 45.128C27.3842 45.5835 26.9487 45.7532 26.2938 45.77C25.4917 45.7404 24.9358 45.5702 24.3487 45.0111C23.5694 44.1637 23.4192 43.1636 23.4555 42.045C23.5054 41.1766 23.7399 40.4431 24.3874 39.8253C25.1742 39.1932 25.8743 39.1177 26.8592 39.1826C27.3159 39.2502 27.6254 39.5205 27.9407 39.8357C27.9702 38.8336 27.9997 37.8314 28.03 36.7988Z" fill="#020202"/>
<path d="M69.101 4.89962C69.251 4.89928 69.251 4.89928 69.4042 4.89893C69.6536 4.91079 69.6536 4.91079 69.8323 5.00011C69.7463 5.71175 69.4796 6.48844 69.0284 7.05449C68.7255 7.20689 68.4873 7.24615 68.1519 7.28303C67.5241 7.36997 67.023 7.82677 66.6422 8.31476C66.159 9.02556 66.0741 9.68339 66.1701 10.538C66.3636 11.3091 66.7423 11.8388 67.4206 12.2574C68.1161 12.6617 68.6702 12.7602 69.475 12.6817C69.7897 12.5917 70.074 12.4663 70.3682 12.3244C70.5167 12.264 70.6655 12.2042 70.8148 12.1458C71.7973 13.574 71.7973 13.574 71.7973 14.1109C70.4563 14.834 69.151 15.1531 67.6313 14.8498C67.3716 14.7679 67.1311 14.6732 66.8847 14.5575C66.8148 14.5261 66.7449 14.4948 66.6729 14.4626C65.3297 13.7921 64.5132 12.6174 64.0487 11.2313C63.6953 9.92806 63.9463 8.48852 64.5756 7.31513C65.3643 6.07218 66.4701 5.39324 67.8672 5.00011C68.2817 4.92601 68.6802 4.89864 69.101 4.89962Z" fill="#FFFCFB"/>
<path d="M45.7155 39.5668C46.5734 40.1634 46.9413 40.8789 47.1911 41.8724C47.2452 42.2315 47.234 42.5979 47.234 42.961C45.7602 42.961 44.2864 42.961 42.7679 42.961C43.0593 43.6379 43.0593 43.6379 43.3932 43.9436C43.7813 44.0729 44.1487 44.0796 44.5544 44.0329C44.8987 43.8545 45.0544 43.7295 45.2689 43.4076C45.6638 43.4743 46.0355 43.5967 46.4134 43.7258C46.5062 43.7572 46.5062 43.7572 46.6009 43.7892C46.7525 43.8404 46.9039 43.8919 47.0554 43.9436C46.7539 44.7717 46.2153 45.1683 45.4357 45.5398C44.5975 45.8699 43.5526 45.8709 42.7177 45.5346C42.5538 45.4549 42.3915 45.3716 42.232 45.2834C42.1707 45.2501 42.1093 45.2168 42.0461 45.1825C41.3856 44.7696 41.0154 44.0403 40.7757 43.3201C40.5547 42.3605 40.6924 41.4611 41.1888 40.6167C41.4965 40.1719 41.8655 39.8537 42.3213 39.5668C42.3767 39.5298 42.4321 39.4927 42.4892 39.4545C43.3936 38.9483 44.8394 39.0594 45.7155 39.5668Z" fill="#030303"/>
<path d="M67.0231 39.5892C67.8517 40.1852 68.3215 40.9701 68.4923 41.9795C68.4923 42.3038 68.4923 42.628 68.4923 42.9621C67.0185 42.9621 65.5448 42.9621 64.0263 42.9621C64.3435 43.673 64.3435 43.673 64.9195 44.0339C65.4446 44.0942 65.969 44.0267 66.438 43.766C66.4969 43.6481 66.5559 43.5302 66.6166 43.4087C67.1766 43.5855 67.7367 43.7624 68.3137 43.9446C67.9788 44.782 67.4925 45.1606 66.6853 45.5409C65.908 45.8577 64.9101 45.8544 64.1156 45.5859C63.2743 45.2264 62.5795 44.6325 62.2064 43.7883C61.9021 42.847 61.8803 41.7356 62.3292 40.8407C62.7779 40.0713 63.3158 39.6077 64.1509 39.2901C65.1248 39.0496 66.148 39.0656 67.0231 39.5892Z" fill="#020202"/>
<path d="M52.4146 39.5679C53.1346 40.0773 53.5127 40.6549 53.6651 41.5329C53.6874 41.8496 53.686 42.1646 53.6825 42.482C53.6823 42.5702 53.682 42.6584 53.6818 42.7493C53.6808 43.0286 53.6785 43.308 53.6762 43.5873C53.6753 43.7777 53.6745 43.9681 53.6738 44.1585C53.672 44.6231 53.6685 45.0877 53.6651 45.5524C53.0461 45.5524 52.4271 45.5524 51.7893 45.5524C51.7893 45.3755 51.7893 45.1987 51.7893 45.0164C51.7304 45.0164 51.6714 45.0164 51.6107 45.0164C51.588 45.0713 51.5653 45.1261 51.542 45.1825C51.3775 45.4687 51.186 45.5408 50.8867 45.6626C50.1672 45.8529 49.3254 45.8535 48.6575 45.4993C48.3038 45.2426 47.9496 44.9123 47.7999 44.4931C47.7068 43.8998 47.6465 43.2637 47.9653 42.7332C48.3221 42.2584 48.6987 41.9902 49.2883 41.8902C49.7036 41.8689 50.1176 41.8734 50.5333 41.879C50.7016 41.8803 50.7016 41.8803 50.8733 41.8815C51.1489 41.8836 51.4244 41.8865 51.7 41.8902C51.5523 41.406 51.5523 41.406 51.2639 40.9998C50.9128 40.8288 50.561 40.8395 50.1816 40.9077C50.0237 41.0063 50.0237 41.0063 49.8968 41.1366C49.6456 41.3543 49.6456 41.3543 49.3665 41.3599C48.8843 41.2489 48.4145 41.0722 47.9485 40.9077C48.0216 40.3818 48.2798 40.0985 48.6631 39.7465C49.6858 39.0469 51.3385 38.8788 52.4146 39.5679Z" fill="#040404"/>
<path d="M34.461 36.7988C35.1095 36.7988 35.758 36.7988 36.4261 36.7988C36.4261 39.098 36.4261 41.3971 36.4261 43.7659C37.6641 43.7659 38.9021 43.7659 40.1776 43.7659C40.1776 44.3554 40.1776 44.9449 40.1776 45.5523C38.2911 45.5523 36.4047 45.5523 34.461 45.5523C34.461 42.6636 34.461 39.775 34.461 36.7988Z" fill="black"/>
<path d="M69.2963 39.2998C69.9743 39.2998 70.6522 39.2998 71.3507 39.2998C71.3507 39.624 71.3507 39.9483 71.3507 40.2823C71.4097 40.2823 71.4686 40.2823 71.5294 40.2823C71.5634 40.2012 71.5634 40.2012 71.5981 40.1183C71.8355 39.7009 72.3161 39.5164 72.752 39.3612C73.0478 39.2998 73.0478 39.2998 73.4944 39.2998C73.4944 39.9188 73.4944 40.5378 73.4944 41.1755C73.2863 41.2124 73.0781 41.2492 72.8636 41.2872C72.048 41.4312 72.048 41.4312 71.4274 41.9424C71.3118 42.2677 71.3186 42.594 71.3137 42.9355C71.312 43.0103 71.3103 43.0851 71.3085 43.1622C71.3032 43.4006 71.299 43.6391 71.2949 43.8775C71.2915 44.0394 71.288 44.2013 71.2844 44.3632C71.2757 44.7595 71.2686 45.1559 71.2614 45.5523C70.6129 45.5523 69.9645 45.5523 69.2963 45.5523C69.2963 43.489 69.2963 41.4256 69.2963 39.2998Z" fill="#070707"/>
<path d="M15.3464 39.2998C15.9949 39.2998 16.6433 39.2998 17.3114 39.2998C17.3409 39.624 17.3704 39.9483 17.4008 40.2823C17.5076 40.1847 17.6145 40.0871 17.7246 39.9865C18.351 39.4444 18.6654 39.3877 19.5445 39.2998C19.5445 39.9188 19.5445 40.5378 19.5445 41.1755C19.3971 41.1995 19.2497 41.2234 19.0979 41.2481C18.4196 41.3737 17.8458 41.5007 17.4008 42.0688C17.3359 42.3374 17.3363 42.5989 17.3376 42.8744C17.3363 42.9511 17.3349 43.0278 17.3335 43.1068C17.3297 43.3507 17.3289 43.5945 17.3282 43.8384C17.3261 44.0042 17.3239 44.17 17.3214 44.3358C17.3154 44.7413 17.3135 45.1466 17.3114 45.5523C16.663 45.5523 16.0145 45.5523 15.3464 45.5523C15.3464 43.489 15.3464 41.4256 15.3464 39.2998Z" fill="#030202"/>
<path d="M20.4377 39.2998C21.0862 39.2998 21.7347 39.2998 22.4028 39.2998C22.4028 41.3631 22.4028 43.4264 22.4028 45.5523C21.7543 45.5523 21.1058 45.5523 20.4377 45.5523C20.4377 43.489 20.4377 41.4256 20.4377 39.2998Z" fill="#020201"/>
<path d="M43.4826 8.03706C43.9921 8.59309 44.1554 9.22486 44.1361 9.96968C44.0501 10.6118 43.7574 11.1564 43.304 11.6099C42.8685 11.8856 42.3713 11.8425 41.8748 11.7885C41.3324 11.527 40.9835 11.0985 40.7615 10.5391C40.573 9.83086 40.7055 9.00912 41.0486 8.37201C41.3211 8.03895 41.5838 7.7541 41.9976 7.60162C42.6046 7.57272 43.0115 7.63921 43.4826 8.03706Z" fill="#080808"/>
<path d="M72.5119 9.19788C72.6423 9.43435 72.6905 9.54574 72.6905 9.82313C72.7494 9.82313 72.8084 9.82313 72.8691 9.82313C73.0092 10.049 73.1463 10.2759 73.2822 10.5042C73.3221 10.5679 73.3619 10.6315 73.403 10.6972C73.6833 11.1745 73.6833 11.1745 73.6388 11.5119C73.4344 11.9029 73.2253 12.289 73.0031 12.6702C72.9586 12.7488 72.914 12.8273 72.8681 12.9082C72.8251 12.9823 72.7822 13.0565 72.7379 13.1329C72.6989 13.2006 72.6598 13.2683 72.6195 13.338C72.584 13.3866 72.5484 13.4352 72.5119 13.4853C72.4529 13.4853 72.3939 13.4853 72.3332 13.4853C72.2027 13.2488 72.1546 13.1374 72.1546 12.86C72.0956 12.86 72.0367 12.86 71.9759 12.86C71.8561 12.6576 71.7372 12.4547 71.6186 12.2515C71.5846 12.1941 71.5505 12.1368 71.5154 12.0776C71.2614 11.6399 71.2614 11.6399 71.2614 11.3416C70.436 11.3416 69.6107 11.3416 68.7604 11.3416C68.8193 11.1942 68.8783 11.0468 68.939 10.895C68.9619 10.8268 68.9848 10.7587 69.0084 10.6885C69.63 8.88814 70.8399 8.99523 72.5119 9.19788Z" fill="#FFFBFA"/>
<path d="M18.3834 7.6792C20.3484 7.6792 20.3484 7.6792 21.063 8.1258C21.351 8.44978 21.3774 8.75841 21.3627 9.17812C21.3128 9.48949 21.179 9.67838 20.9737 9.91223C20.8566 9.97567 20.7377 10.0361 20.6164 10.0909C20.6509 10.1535 20.6855 10.2161 20.721 10.2807C20.9943 10.7785 21.2595 11.2781 21.5096 11.788C21.1828 11.8801 20.9393 11.9025 20.6164 11.788C20.3981 11.5325 20.2501 11.2354 20.108 10.9326C20.0783 10.8723 20.0486 10.8121 20.018 10.75C19.9933 10.6943 19.9686 10.6386 19.9431 10.5813C19.7695 10.3774 19.7695 10.3774 19.1872 10.3588C19.1872 10.8304 19.1872 11.3021 19.1872 11.788C18.922 11.788 18.6567 11.788 18.3834 11.788C18.3834 10.4321 18.3834 9.07618 18.3834 7.6792Z" fill="#080808"/>
<path d="M0.787086 1.15918C0.816562 1.15918 0.846038 1.15918 0.876408 1.15918C0.876408 24.1504 0.876408 47.1417 0.876408 70.8296C1.27433 70.9622 1.27433 70.9622 1.6803 71.0976C1.89369 71.1954 2.10484 71.2982 2.31357 71.4057C2.43845 71.4693 2.56335 71.533 2.68826 71.5966C2.7555 71.6311 2.82275 71.6656 2.89204 71.7011C3.29836 71.9086 3.70666 72.1121 4.11464 72.3163C4.29602 72.4072 4.4774 72.4981 4.65877 72.589C4.75031 72.6348 4.84186 72.6807 4.93618 72.728C5.12035 72.8203 5.30448 72.9126 5.48859 73.0051C6.55005 73.538 7.61464 74.0624 8.68737 74.5723C9.7201 75.0643 10.7407 75.5804 11.7624 76.0949C12.6955 76.5644 13.6301 77.0291 14.5736 77.4774C15.6856 78.0058 16.7862 78.5562 17.8865 79.1086C18.0837 79.2074 18.2809 79.3062 18.4781 79.405C18.9527 79.6428 19.4273 79.8808 19.9018 80.119C19.6338 80.2083 19.6338 80.2083 19.473 80.1545C19.4132 80.1239 19.3533 80.0933 19.2916 80.0619C19.2232 80.0275 19.1547 79.9931 19.0842 79.9577C19.01 79.9192 18.9357 79.8808 18.8592 79.8413C18.7812 79.8018 18.7032 79.7624 18.6228 79.7218C18.3714 79.5945 18.1205 79.466 17.8697 79.3374C17.5447 79.1719 17.2195 79.0069 16.8942 78.842C16.8115 78.8 16.7287 78.758 16.6435 78.7147C15.9723 78.375 15.2952 78.0488 14.6158 77.7259C13.6931 77.2871 12.7762 76.8366 11.8594 76.3857C11.3408 76.1306 10.822 75.8759 10.3033 75.6212C10.1479 75.5449 10.1479 75.5449 9.98945 75.4671C9.06644 75.0139 8.14252 74.5627 7.2182 74.1122C7.07308 74.0414 6.92797 73.9706 6.78285 73.8999C6.15355 73.593 5.5242 73.2863 4.89472 72.9798C4.43065 72.7538 3.96669 72.5276 3.50279 72.3013C3.32436 72.2143 3.14589 72.1274 2.96738 72.0406C2.71946 71.92 2.47167 71.7991 2.2239 71.6782C2.15085 71.6427 2.07779 71.6072 2.00252 71.5707C1.93377 71.5371 1.86501 71.5035 1.79417 71.4688C1.7352 71.4401 1.67623 71.4114 1.61547 71.3818C1.33479 71.2359 1.06172 71.0759 0.787086 70.9189C0.787086 47.8982 0.787086 24.8775 0.787086 1.15918Z" fill="#4D4846"/>
<path d="M24.9931 7.6792C25.8863 7.6792 25.8863 7.6792 26.1343 7.90564C26.2017 8.00873 26.2659 8.11394 26.3273 8.22071C26.4003 8.33469 26.4734 8.44854 26.5468 8.56229C26.584 8.62209 26.6213 8.68189 26.6597 8.74351C26.867 9.06575 27.0978 9.37053 27.3266 9.67776C27.4703 9.87304 27.614 10.0683 27.762 10.2695C27.7915 9.41471 27.821 8.5599 27.8513 7.6792C28.1166 7.6792 28.3819 7.6792 28.6552 7.6792C28.6552 9.03509 28.6552 10.391 28.6552 11.788C28.3605 11.788 28.0657 11.788 27.762 11.788C27.5245 11.5496 27.3873 11.3769 27.2205 11.0957C27.1307 10.9566 27.0408 10.8177 26.9508 10.6788C26.9073 10.6097 26.8638 10.5405 26.819 10.4693C26.6335 10.1817 26.4295 9.91009 26.2212 9.63868C26.1107 9.49314 26.0002 9.3476 25.8863 9.19766C25.8568 10.0525 25.8273 10.9073 25.7969 11.788C25.5317 11.788 25.2664 11.788 24.9931 11.788C24.9931 10.4321 24.9931 9.07618 24.9931 7.6792Z" fill="#080808"/>
<path d="M14.2746 7.6792C16.2396 7.6792 16.2396 7.6792 16.9542 8.1258C17.262 8.4625 17.2673 8.80865 17.2543 9.2479C17.1917 9.67207 16.9199 10.0003 16.5969 10.2695C16.2779 10.4737 16.0099 10.4668 15.6367 10.4593C15.3604 10.4538 15.3604 10.4538 15.0784 10.4482C15.0784 10.8903 15.0784 11.3324 15.0784 11.788C14.8132 11.788 14.5479 11.788 14.2746 11.788C14.2746 10.4321 14.2746 9.07618 14.2746 7.6792Z" fill="#070707"/>
<path d="M33.2998 8.03705C33.4593 8.16928 33.4593 8.16928 33.5678 8.30501C33.5678 8.39344 33.5678 8.48187 33.5678 8.57297C33.3724 8.73487 33.3724 8.73487 33.1212 8.84094C32.8353 8.76607 32.6537 8.64834 32.4066 8.48365C31.9602 8.41757 31.606 8.43738 31.2008 8.63996C30.9245 8.88863 30.8151 9.05856 30.772 9.4292C30.7689 10.1122 30.7689 10.1122 31.0668 10.7167C31.4068 11.0257 31.7545 11.0255 32.1945 11.0098C32.4808 10.9759 32.6419 10.9148 32.8532 10.7167C32.9747 10.442 32.9747 10.442 33.0319 10.1808C32.7371 10.1808 32.4424 10.1808 32.1387 10.1808C32.1387 9.97442 32.1387 9.76809 32.1387 9.55551C32.6987 9.55551 33.2587 9.55551 33.8358 9.55551C33.8681 10.2031 33.8904 10.7245 33.4785 11.2526C32.9019 11.7781 32.3447 11.8357 31.5801 11.8192C30.9962 11.7657 30.6653 11.5058 30.2797 11.0851C29.891 10.5299 29.7222 10.0468 29.8163 9.37686C29.9873 8.64294 30.3673 8.19804 30.9775 7.76908C31.7736 7.36255 32.584 7.57078 33.2998 8.03705Z" fill="#090909"/>
<path d="M12.248 7.69576C12.5151 7.87587 12.726 8.05869 12.9347 8.30426C12.9347 8.39269 12.9347 8.48111 12.9347 8.57222C12.6682 8.6565 12.4101 8.72848 12.1308 8.75086C11.941 8.58339 11.941 8.58339 11.7735 8.39358C11.4534 8.34889 11.4534 8.34889 11.1483 8.39358C10.9329 8.56832 10.9329 8.56832 10.9585 8.89601C10.9622 8.99549 10.9658 9.09497 10.9696 9.19747C11.0323 9.20518 11.0949 9.2129 11.1594 9.22085C11.8246 9.31935 12.3553 9.48182 12.8182 9.98845C13.0252 10.3288 12.9797 10.688 12.9347 11.0732C12.8132 11.3904 12.7199 11.4877 12.4302 11.6629C12.087 11.8061 11.8318 11.8265 11.4609 11.8269C11.291 11.8294 11.291 11.8294 11.1176 11.8321C10.6297 11.7659 10.3595 11.5514 10.0429 11.1849C9.97108 11.0854 9.97108 11.0854 9.89778 10.9839C9.9871 10.8052 9.9871 10.8052 10.1364 10.733C10.3314 10.674 10.4976 10.6309 10.7017 10.6266C10.9306 10.8387 10.9306 10.8387 11.1483 11.0732C11.4702 11.1176 11.6694 11.135 11.9522 10.9671C12.0584 10.8044 12.0584 10.8044 12.0457 10.5882C11.9684 10.324 11.9684 10.324 11.6465 10.2166C11.5182 10.1747 11.3893 10.1346 11.2599 10.0963C10.7056 9.93126 10.395 9.78464 10.0764 9.28679C9.97783 8.84528 10.0069 8.43765 10.216 8.0363C10.8188 7.54168 11.5129 7.43222 12.248 7.69576Z" fill="#080707"/>
<path d="M47.0752 7.65194C47.4982 7.84169 47.7495 8.05256 47.9485 8.48374C48.0214 8.9858 47.9577 9.30751 47.6715 9.72691C47.3794 10.0472 47.0295 10.2854 46.675 10.5311C46.4015 10.7207 46.4015 10.7207 46.1621 11.074C46.7811 11.074 47.4001 11.074 48.0378 11.074C48.0378 11.3099 48.0378 11.5457 48.0378 11.7886C47.0946 11.7886 46.1514 11.7886 45.1796 11.7886C45.1796 10.7677 45.1796 10.7677 45.4569 10.4296C45.7617 10.1424 46.1016 9.90323 46.4444 9.66375C46.6965 9.46743 46.8769 9.28423 47.0553 9.01966C47.0389 8.72142 47.0389 8.72142 46.8767 8.48374C46.5166 8.45361 46.5166 8.45361 46.1621 8.48374C46.1197 8.54453 46.0773 8.60533 46.0337 8.66796C45.9876 8.72507 45.9416 8.78218 45.8941 8.84102C45.6199 8.84645 45.359 8.80353 45.0902 8.7517C45.108 8.37043 45.1523 8.24239 45.4308 7.97014C45.9696 7.58978 46.4254 7.45095 47.0752 7.65194Z" fill="#0A0A0A"/>
<path d="M38.9606 7.74132C39.2648 7.91646 39.4337 8.05323 39.5524 8.39448C39.5983 8.79183 39.6035 9.15032 39.463 9.52774C39.1938 9.83911 38.8861 10.0971 38.5698 10.3595C38.4524 10.4579 38.3351 10.5565 38.2181 10.6554C38.1676 10.6974 38.117 10.7395 38.065 10.7828C37.9326 10.8936 37.9326 10.8936 37.8553 11.0741C38.4448 11.0741 39.0343 11.0741 39.6417 11.0741C39.6417 11.3099 39.6417 11.5457 39.6417 11.7887C38.7279 11.7887 37.8142 11.7887 36.8727 11.7887C36.8727 10.7509 36.8727 10.7509 37.23 10.3595C37.5737 10.0636 37.9276 9.78055 38.3005 9.52216C38.467 9.40798 38.467 9.40798 38.6592 9.19837C38.7114 8.87063 38.7114 8.87063 38.6592 8.57312C38.5505 8.44525 38.5505 8.44525 38.2293 8.45589C38.0346 8.45168 38.0346 8.45168 37.8553 8.4838C37.7696 8.57499 37.7696 8.57499 37.6822 8.66803C37.498 8.84109 37.498 8.84109 37.2981 8.84492C37.0946 8.82119 36.895 8.79126 36.6941 8.75176C36.7376 8.36971 36.835 8.214 37.1295 7.9702C37.1919 7.91724 37.2543 7.86428 37.3186 7.80971C37.8008 7.46076 38.4379 7.50172 38.9606 7.74132Z" fill="#090909"/>
<path d="M49.467 7.6792C50.2334 7.6792 50.9998 7.6792 51.7894 7.6792C51.7894 7.91501 51.7894 8.15081 51.7894 8.39377C51.2588 8.39377 50.7282 8.39377 50.1816 8.39377C50.1521 8.68853 50.1226 8.98329 50.0923 9.28698C50.1807 9.2575 50.2691 9.22803 50.3602 9.19766C50.7822 9.14863 51.0839 9.15604 51.4656 9.35397C51.7506 9.59824 51.9458 9.76616 52.0036 10.1463C51.9985 10.7613 51.9354 11.0767 51.5214 11.5423C51.1409 11.8753 50.6775 11.8174 50.1973 11.8131C49.8314 11.7807 49.6405 11.6865 49.3777 11.4307C49.2102 11.1851 49.2102 11.1851 49.1097 10.9841C49.4452 10.8211 49.6447 10.7786 50.003 10.8948C50.0619 10.9537 50.1209 11.0127 50.1816 11.0734C50.3534 11.0822 50.3534 11.0822 50.5389 11.0511C50.6015 11.0432 50.6642 11.0354 50.7287 11.0273C50.9165 10.9939 50.9165 10.9939 51.0748 10.8054C51.1149 10.3908 51.1149 10.3908 50.9799 10.0071C50.7105 9.85938 50.482 9.88491 50.1816 9.91223C50.1226 9.97118 50.0637 10.0301 50.003 10.0909C49.7401 10.0635 49.5255 10.0308 49.2884 9.91223C49.2604 9.14927 49.3476 8.43299 49.467 7.6792Z" fill="#060606"/>
<path d="M36.5154 57.9678C36.9216 57.954 36.9216 57.954 37.336 57.9399C37.4206 57.9358 37.5051 57.9317 37.5922 57.9276C37.9859 57.9211 38.1614 57.9303 38.4881 58.1702C38.7429 58.5341 38.7075 58.693 38.6591 59.129C38.5698 59.3523 38.5698 59.3523 38.4804 59.4862C38.5239 59.5214 38.5673 59.5565 38.612 59.5927C38.8325 59.8538 38.79 60.1054 38.7809 60.4346C38.7484 60.6474 38.7484 60.6474 38.5809 60.8763C38.3038 61.0638 38.1549 61.105 37.8238 61.1027C37.7211 61.1024 37.7211 61.1024 37.6163 61.1021C37.4859 61.1009 37.4859 61.1009 37.3528 61.0996C37.0764 61.0978 36.8001 61.0959 36.5154 61.094C36.5154 60.0624 36.5154 59.0307 36.5154 57.9678Z" fill="#050505"/>
<path d="M58.2206 40.9963C58.6097 41.1798 58.8542 41.4081 59.0517 41.7957C59.2189 42.2889 59.1785 42.7879 58.9742 43.2628C58.758 43.6389 58.5316 43.781 58.1313 43.9439C57.7381 43.9991 57.5636 43.976 57.2157 43.782C56.7964 43.4485 56.5693 43.2222 56.497 42.6697C56.4648 42.0867 56.5871 41.7067 56.9701 41.2643C57.3384 40.9368 57.7489 40.923 58.2206 40.9963Z" fill="#F9F9F9"/>
<path d="M20.9737 57.8774C21.6883 57.8774 21.6883 57.8774 21.8432 57.9922C21.8731 58.0446 21.903 58.097 21.9339 58.151C21.9848 58.2356 21.9848 58.2356 22.0368 58.322C22.0692 58.3816 22.1015 58.4412 22.1349 58.5027C22.17 58.5623 22.2051 58.622 22.2413 58.6834C22.3273 58.8302 22.41 58.9789 22.4921 59.1279C22.922 58.9846 23.0425 58.5805 23.258 58.1981C23.3295 58.1218 23.401 58.0454 23.4747 57.9668C23.7105 57.9668 23.9463 57.9668 24.1892 57.9668C24.1892 58.9984 24.1892 60.0301 24.1892 61.093C23.9829 61.093 23.7766 61.093 23.564 61.093C23.5345 60.4445 23.5051 59.7961 23.4747 59.1279C23.2175 59.5096 23.2175 59.5096 22.9617 59.8922C22.8692 60.0277 22.7701 60.1586 22.6708 60.2891C22.6118 60.2891 22.5529 60.2891 22.4921 60.2891C22.3463 60.0827 22.2116 59.8784 22.079 59.6639C21.8856 59.3544 21.8856 59.3544 21.6883 59.0386C21.6588 59.746 21.6293 60.4535 21.5989 61.1823C21.3926 61.1823 21.1863 61.1823 20.9737 61.1823C20.9737 60.0917 20.9737 59.0011 20.9737 57.8774Z" fill="#060606"/>
<path d="M27.1368 40.9966C27.5679 41.2081 27.8276 41.4539 28.03 41.8898C28.1002 42.4645 28.1132 43.0133 27.762 43.4976C27.4336 43.8014 27.2005 43.9298 26.7516 43.9721C26.3513 43.9382 26.1887 43.849 25.8863 43.5869C25.5171 43.1206 25.4731 42.7308 25.4944 42.1407C25.5417 41.7974 25.652 41.6072 25.8863 41.3539C25.9507 41.2839 26.0152 41.2139 26.0817 41.1418C26.4376 40.9361 26.7351 40.9271 27.1368 40.9966Z" fill="#FAFAFA"/>
<path d="M48.4846 57.8774C49.1991 57.8774 49.1991 57.8774 49.373 58.0097C49.4119 58.0705 49.4507 58.1313 49.4908 58.1939C49.5353 58.2604 49.5797 58.3269 49.6255 58.3954C49.669 58.4658 49.7125 58.5362 49.7574 58.6088C49.8471 58.7459 49.9369 58.8831 50.0267 59.0201C50.0845 59.112 50.0845 59.112 50.1434 59.2058C50.2921 59.4273 50.4616 59.6342 50.6283 59.8425C50.6577 59.2235 50.6872 58.6045 50.7176 57.9668C50.9239 57.9668 51.1302 57.9668 51.3428 57.9668C51.3428 58.9984 51.3428 60.0301 51.3428 61.093C50.6283 61.093 50.6283 61.093 50.4544 60.9621C50.4155 60.9019 50.3766 60.8417 50.3366 60.7797C50.2921 60.7136 50.2477 60.6475 50.2019 60.5794C50.1584 60.5094 50.1148 60.4394 50.07 60.3673C50.0026 60.2654 50.0026 60.2654 49.9339 60.1614C49.8495 60.0333 49.7661 59.9044 49.684 59.7748C49.5261 59.527 49.3621 59.2831 49.1991 59.0386C49.1696 59.746 49.1402 60.4535 49.1098 61.1823C48.9035 61.1823 48.6971 61.1823 48.4846 61.1823C48.4846 60.0917 48.4846 59.0011 48.4846 57.8774Z" fill="#060606"/>
<path d="M26.6512 57.8721C26.7525 57.8739 26.8538 57.8758 26.9582 57.8777C27.3021 58.5286 27.5795 59.1917 27.8347 59.8818C27.871 59.9778 27.9073 60.0737 27.9448 60.1726C28.2087 60.8802 28.2087 60.8802 28.2087 61.1825C28.0024 61.1825 27.7961 61.1825 27.5835 61.1825C27.4712 60.923 27.4048 60.7541 27.4048 60.468C26.9332 60.4974 26.4616 60.5269 25.9757 60.5573C25.8873 60.7636 25.7988 60.9699 25.7077 61.1825C25.5014 61.1825 25.2951 61.1825 25.0825 61.1825C25.1447 60.7989 25.2708 60.45 25.4119 60.0897C25.4353 60.0291 25.4588 59.9685 25.4829 59.9061C25.5323 59.7787 25.5819 59.6514 25.6316 59.5241C25.7079 59.3287 25.7836 59.133 25.8592 58.9373C25.9073 58.8134 25.9554 58.6896 26.0036 58.5657C26.0377 58.4776 26.0377 58.4776 26.0724 58.3878C26.272 57.8787 26.272 57.8787 26.6512 57.8721Z" fill="#100F0F"/>
<path d="M39.7311 57.8774C39.9374 57.8774 40.1438 57.8774 40.3564 57.8774C40.3581 57.9432 40.3599 58.009 40.3617 58.0768C40.3702 58.3751 40.38 58.6733 40.3899 58.9716C40.3926 59.0751 40.3954 59.1786 40.3982 59.2853C40.4017 59.3849 40.4051 59.4845 40.4087 59.5871C40.4115 59.6788 40.4143 59.7705 40.4172 59.8649C40.4454 60.1077 40.5002 60.2596 40.6243 60.4678C40.7545 60.4726 40.8848 60.476 41.0151 60.4789C41.0876 60.481 41.1602 60.4831 41.2349 60.4852C41.4473 60.4868 41.4473 60.4868 41.6069 60.2891C41.6401 60.0378 41.6401 60.0378 41.6438 59.7441C41.6473 59.6359 41.6507 59.5276 41.6543 59.4161C41.6585 59.2458 41.6585 59.2458 41.6627 59.0721C41.6661 58.9579 41.6696 58.8437 41.6731 58.726C41.6816 58.4432 41.6892 58.1603 41.6962 57.8774C41.9025 57.8774 42.1088 57.8774 42.3214 57.8774C42.3292 58.285 42.334 58.6925 42.3382 59.1C42.3404 59.2156 42.3427 59.3311 42.345 59.4502C42.3458 59.5616 42.3467 59.673 42.3476 59.7877C42.349 59.8902 42.3504 59.9926 42.3518 60.0981C42.3057 60.5229 42.1388 60.7461 41.8302 61.0316C41.3922 61.2428 41.013 61.252 40.535 61.1823C40.0803 60.9712 39.9213 60.744 39.7311 60.2891C39.7007 60.0069 39.7007 60.0069 39.7049 59.7092C39.7058 59.6021 39.7067 59.4951 39.7076 59.3847C39.7098 59.2742 39.7121 59.1637 39.7144 59.0498C39.7156 58.9372 39.7168 58.8246 39.718 58.7085C39.7212 58.4315 39.7256 58.1545 39.7311 57.8774Z" fill="#0B0B0B"/>
<path d="M52.5041 57.8774C53.182 57.8774 53.8599 57.8774 54.5584 57.8774C54.5584 58.0838 54.5584 58.2901 54.5584 58.5027C54.0868 58.5027 53.6152 58.5027 53.1293 58.5027C53.1293 58.7385 53.1293 58.9743 53.1293 59.2173C53.5125 59.2173 53.8957 59.2173 54.2905 59.2173C54.2905 59.3941 54.2905 59.571 54.2905 59.7532C53.9073 59.7532 53.5241 59.7532 53.1293 59.7532C53.1293 60.0185 53.1293 60.2838 53.1293 60.5571C53.6009 60.5571 54.0725 60.5571 54.5584 60.5571C54.5584 60.7634 54.5584 60.9697 54.5584 61.1823C53.8805 61.1823 53.2025 61.1823 52.5041 61.1823C52.5041 60.0917 52.5041 59.0011 52.5041 57.8774Z" fill="#0D0D0D"/>
<path d="M72.4728 5.58613C72.6719 5.92375 72.675 6.22666 72.6012 6.60774C72.3199 7.08594 71.93 7.29953 71.4498 7.56376C71.2495 7.66406 71.2495 7.66406 71.1721 7.85824C71.6437 7.85824 72.1153 7.85824 72.6012 7.85824C72.6012 8.06457 72.6012 8.2709 72.6012 8.48349C71.8643 8.48349 71.1274 8.48349 70.3682 8.48349C70.4531 7.71923 70.4838 7.4478 71.0213 6.95386C71.3013 6.75855 71.5874 6.59337 71.8866 6.4291C71.8572 6.28172 71.8277 6.13434 71.7973 5.9825C71.5322 5.95093 71.3368 5.93411 71.1065 6.08194C70.9752 6.19285 70.8499 6.31061 70.7255 6.4291C70.6076 6.3112 70.4896 6.19329 70.3682 6.07182C70.4812 5.72344 70.5802 5.53718 70.9041 5.35725C71.4462 5.19336 71.994 5.29418 72.4728 5.58613Z" fill="#FFF8F6"/>
<path d="M45.0904 57.878C45.3406 57.9992 45.4402 58.1083 45.6263 58.3246C45.6558 58.4131 45.6852 58.5015 45.7156 58.5926C45.4253 58.6987 45.4253 58.6987 45.0904 58.7712C44.9695 58.6844 44.8504 58.5949 44.7331 58.5033C44.4036 58.5237 44.4036 58.5237 44.1078 58.5926C44.1373 58.74 44.1668 58.8874 44.1972 59.0392C44.2693 59.0588 44.3415 59.0783 44.4159 59.0985C45.2945 59.3592 45.2945 59.3592 45.5649 59.6365C45.7404 59.981 45.7562 60.1776 45.6905 60.5528C45.5918 60.8348 45.434 60.9483 45.1797 61.0936C44.711 61.2498 44.2694 61.2427 43.8064 61.0713C43.5754 60.9173 43.4427 60.7966 43.3039 60.5577C43.3039 60.4987 43.3039 60.4398 43.3039 60.379C43.5998 60.3176 43.5998 60.3176 43.9292 60.2897C44.0688 60.4181 44.0688 60.4181 44.1972 60.5577C44.4736 60.5802 44.6617 60.5933 44.9117 60.4683C44.9117 60.321 44.9117 60.1736 44.9117 60.0217C44.8599 60.0065 44.8081 59.9913 44.7547 59.9757C44.1995 59.8034 43.7278 59.6303 43.3933 59.1285C43.3628 58.859 43.3422 58.6735 43.3933 58.414C43.8764 57.8163 44.3534 57.7906 45.0904 57.878Z" fill="#0B0A0A"/>
<path d="M60.6712 57.9833C60.9223 58.1609 61.0345 58.3172 61.1681 58.5918C60.8778 58.6979 60.8778 58.6979 60.5428 58.7704C60.3586 58.6476 60.3586 58.6476 60.1856 58.5025C59.9026 58.4801 59.9026 58.4801 59.6496 58.5025C59.6202 58.6498 59.5907 58.7972 59.5603 58.9491C59.6196 58.9718 59.6789 58.9944 59.74 59.0178C60.9606 59.4936 60.9606 59.4936 61.1681 59.9316C61.1858 60.2139 61.1619 60.4648 61.0788 60.7355C60.7526 61.07 60.4942 61.1966 60.0348 61.21C59.4878 61.2061 59.1465 61.0363 58.7564 60.6462C58.7564 60.5577 58.7564 60.4693 58.7564 60.3782C59.0523 60.3168 59.0523 60.3168 59.3817 60.2889C59.5212 60.4173 59.5212 60.4173 59.6496 60.5568C59.9261 60.5794 60.1142 60.5925 60.3642 60.4675C60.3642 60.3201 60.3642 60.1728 60.3642 60.0209C60.2835 59.9918 60.2028 59.9627 60.1196 59.9326C59.9616 59.8741 59.9616 59.8741 59.8004 59.8144C59.6957 59.776 59.591 59.7377 59.4832 59.6982C59.0891 59.524 59.0891 59.524 58.9351 59.3064C58.8241 58.9314 58.805 58.6033 58.9518 58.2401C59.3969 57.7336 60.0751 57.7773 60.6712 57.9833Z" fill="#0A0A0A"/>
<path d="M19.1872 57.878C19.5383 57.9992 19.6784 58.0818 19.8906 58.386C19.9238 58.4542 19.957 58.5223 19.9911 58.5925C19.7008 58.6986 19.7008 58.6986 19.3659 58.7712C19.1816 58.6484 19.1816 58.6484 19.0086 58.5032C18.7257 58.4808 18.7257 58.4808 18.4727 58.5032C18.4432 58.6506 18.4137 58.798 18.3833 58.9498C18.5187 59.0079 18.5187 59.0079 18.6569 59.0671C18.7138 59.0918 18.7706 59.1166 18.8292 59.1421C18.9969 59.2129 19.1674 59.277 19.338 59.3406C19.6645 59.5008 19.8089 59.6189 19.9911 59.9324C20.0518 60.2887 20.0071 60.4386 19.8348 60.7586C19.5988 61.0471 19.4371 61.1597 19.0682 61.2129C18.5221 61.2215 18.1953 61.1626 17.7581 60.8256C17.6297 60.5799 17.6297 60.5799 17.5794 60.379C17.8753 60.3176 17.8753 60.3176 18.2047 60.2896C18.3443 60.418 18.3443 60.418 18.4727 60.5576C18.7491 60.5802 18.9372 60.5933 19.1872 60.4683C19.1872 60.3209 19.1872 60.1735 19.1872 60.0217C19.1076 59.9946 19.0279 59.9676 18.9458 59.9397C18.8412 59.9023 18.7367 59.8648 18.629 59.8263C18.5253 59.79 18.4217 59.7538 18.315 59.7164C17.9956 59.5602 17.8564 59.4278 17.6688 59.1285C17.6006 58.8803 17.6087 58.6639 17.6688 58.4139C18.1227 57.8525 18.4994 57.8199 19.1872 57.878Z" fill="#090909"/>
<path d="M57.4556 57.9841C57.7147 58.1674 57.7814 58.2903 57.8632 58.5926C57.6267 58.7231 57.5153 58.7713 57.2379 58.7713C57.1992 58.7271 57.1605 58.6829 57.1207 58.6373C56.968 58.4737 56.968 58.4737 56.6852 58.4866C56.6023 58.4921 56.5194 58.4976 56.434 58.5033C56.4045 58.6507 56.3751 58.7981 56.3447 58.9499C56.5855 59.1105 56.7327 59.1705 57.0034 59.2458C57.3897 59.3737 57.6289 59.4956 57.8632 59.8431C57.9251 60.1248 57.9279 60.3657 57.8632 60.647C57.6372 60.9402 57.499 61.0662 57.1486 61.183C56.5508 61.2228 56.1236 61.1587 55.6357 60.781C55.5408 60.647 55.5408 60.647 55.5408 60.3791C55.8367 60.3177 55.8367 60.3177 56.1661 60.2897C56.3056 60.4181 56.3056 60.4181 56.434 60.5577C56.7105 60.5803 56.8986 60.5934 57.1486 60.4684C57.1486 60.2915 57.1486 60.1147 57.1486 59.9325C57.0403 59.9112 57.0403 59.9112 56.9298 59.8895C56.5046 59.7967 56.1532 59.7145 55.7864 59.4747C55.5684 59.1165 55.5494 58.8229 55.6301 58.414C55.779 58.1587 55.8689 58.0061 56.1542 57.913C56.6085 57.8298 57.0178 57.8329 57.4556 57.9841Z" fill="#090808"/>
<path d="M42.768 8.39425C43.0452 8.60788 43.1935 8.86687 43.3039 9.19814C43.3473 9.77626 43.3873 10.3165 43.0359 10.8059C42.8163 11.0413 42.6933 11.0715 42.3716 11.1241C42.0534 11.0739 42.0534 11.0739 41.7966 10.8282C41.4486 10.296 41.4564 9.73223 41.5175 9.10882C41.7391 8.48901 42.1091 8.25792 42.768 8.39425Z" fill="#FBFBFA"/>
<path d="M21.8668 36.352C22.1701 36.5352 22.2959 36.6829 22.4921 36.9773C22.5602 37.3931 22.5273 37.7095 22.3414 38.0882C22.0369 38.4256 21.8265 38.4806 21.3812 38.5292C20.9991 38.489 20.8197 38.3835 20.527 38.1385C20.2993 37.7656 20.2739 37.4034 20.3484 36.9773C20.707 36.3346 21.1839 36.2724 21.8668 36.352Z" fill="#050404"/>
<path d="M22.6708 7.6792C22.9655 7.6792 23.2603 7.6792 23.564 7.6792C23.564 9.03509 23.564 10.391 23.564 11.788C23.2692 11.788 22.9745 11.788 22.6708 11.788C22.6708 10.4321 22.6708 9.07618 22.6708 7.6792Z" fill="#1B1B1B"/>
<path d="M77.6032 70.9192C77.3598 71.1119 77.1222 71.2576 76.8413 71.3892C76.7615 71.4269 76.6817 71.4646 76.5995 71.5035C76.5132 71.5438 76.427 71.5842 76.3381 71.6257C76.1511 71.7142 75.9642 71.8027 75.7773 71.8913C75.6805 71.9372 75.5837 71.983 75.4839 72.0303C75.0156 72.2536 74.5498 72.482 74.0841 72.7108C73.9908 72.7567 73.8974 72.8026 73.8012 72.8498C73.6085 72.9445 73.4157 73.0393 73.223 73.1341C72.7044 73.3891 72.1856 73.6438 71.6669 73.8985C71.5115 73.9748 71.5115 73.9748 71.3531 74.0527C70.43 74.5058 69.5061 74.9571 68.5818 75.4076C68.2869 75.5513 67.9919 75.6951 67.697 75.8388C67.624 75.8744 67.551 75.91 67.4758 75.9466C66.4945 76.425 65.5139 76.9048 64.5332 77.3845C63.6085 77.8368 62.6836 78.2887 61.7582 78.7397C61.6756 78.7799 61.593 78.8202 61.5079 78.8616C61.1177 79.0518 60.7274 79.2419 60.3371 79.4319C60.2308 79.4837 60.2308 79.4837 60.1225 79.5365C59.9848 79.6035 59.8471 79.6705 59.7094 79.7374C59.3715 79.9019 59.0356 80.0694 58.7019 80.2425C58.6362 80.2764 58.5705 80.3102 58.5027 80.3451C58.3785 80.4092 58.2547 80.4741 58.1313 80.5398C57.9857 80.6148 57.8354 80.6805 57.6846 80.7445C57.5962 80.715 57.5078 80.6856 57.4167 80.6552C58.1963 80.2643 58.976 79.8737 59.7559 79.4833C60.1183 79.3019 60.4806 79.1204 60.8428 78.9387C63.6211 77.5458 63.6211 77.5458 65.0022 76.8913C65.9948 76.4199 66.975 75.9238 67.9566 75.4299C69.0371 74.8862 70.1178 74.3442 71.2105 73.8253C72.3412 73.2883 73.4593 72.7267 74.5775 72.1641C74.9721 71.9656 75.3669 71.7673 75.7617 71.5692C75.8506 71.5244 75.9396 71.4795 76.0312 71.4333C76.1139 71.3918 76.1967 71.3503 76.282 71.3075C76.3541 71.2712 76.4263 71.2349 76.5006 71.1975C76.8844 71.0148 77.1732 70.8946 77.6032 70.9192Z" fill="#030100"/>
<path d="M0.787086 70.7397C1.02549 70.8435 1.26362 70.8585 1.50165 70.963C1.56636 70.9911 1.65829 71.0681 1.72496 71.097C2.37794 71.3848 2.98655 71.7463 3.6234 72.0677C4.19686 72.3569 4.77127 72.6443 5.34545 72.9321C5.49496 73.007 5.64444 73.0821 5.79388 73.1572C6.66178 73.5933 7.53252 74.0221 8.40973 74.4392C9.53551 74.9747 10.649 75.5337 11.7624 76.0943C12.6955 76.5639 13.6301 77.0286 14.5736 77.4769C15.6856 78.0053 16.7862 78.5557 17.8865 79.108C18.0837 79.2068 18.2809 79.3056 18.4781 79.4044C18.9527 79.6422 19.4273 79.8803 19.9018 80.1185C19.6338 80.2078 19.6338 80.2078 19.473 80.1539C19.3832 80.1081 19.3832 80.1081 19.2916 80.0613C19.2232 80.0269 19.1547 79.9925 19.0842 79.9571C19.01 79.9187 18.9357 79.8803 18.8592 79.8407C18.7422 79.7816 18.7422 79.7816 18.6228 79.7212C18.3714 79.594 18.1205 79.4655 17.8697 79.3369C17.5447 79.1714 17.2195 79.0064 16.8942 78.8414C16.7701 78.7784 16.7701 78.7784 16.6435 78.7141C15.9723 78.3745 15.2952 78.0483 14.6158 77.7254C13.6931 77.2866 12.7762 76.8361 11.8594 76.3851C11.3408 76.1301 10.822 75.8754 10.3033 75.6207C10.1997 75.5698 10.0961 75.5189 9.98945 75.4665C9.06644 75.0134 8.14252 74.5621 7.2182 74.1116C7.07308 74.0409 6.92797 73.9701 6.78285 73.8993C6.15355 73.5925 5.5242 73.2857 4.89472 72.9792C4.43065 72.7533 3.96669 72.5271 3.50279 72.3008C3.32436 72.2138 3.14589 72.1269 2.96738 72.04C2.71946 71.9194 2.47167 71.7985 2.2239 71.6776C2.15085 71.6422 2.07779 71.6067 2.00252 71.5702C1.58778 71.3673 1.18541 71.1519 0.787086 70.9184C0.787086 70.8594 0.787086 70.8005 0.787086 70.7397Z" fill="#030100"/>
<path d="M29.1018 57.8774C29.3081 57.8774 29.5144 57.8774 29.727 57.8774C29.727 58.7617 29.727 59.646 29.727 60.5571C30.1986 60.5571 30.6703 60.5571 31.1562 60.5571C31.1562 60.7634 31.1562 60.9697 31.1562 61.1823C30.4782 61.1823 29.8003 61.1823 29.1018 61.1823C29.1018 60.0917 29.1018 59.0011 29.1018 57.8774Z" fill="#0B0B0A"/>
<path d="M32.0495 57.9678C32.2558 57.9678 32.4621 57.9678 32.6747 57.9678C32.6747 58.8226 32.6747 59.6774 32.6747 60.5581C33.1168 60.5581 33.559 60.5581 34.0145 60.5581C34.0145 60.7349 34.0145 60.9118 34.0145 61.094C33.3661 61.094 32.7176 61.094 32.0495 61.094C32.0495 60.0624 32.0495 59.0307 32.0495 57.9678Z" fill="#020202"/>
<path d="M46.698 57.8774C46.9044 57.8774 47.1107 57.8774 47.3233 57.8774C47.3233 58.9681 47.3233 60.0587 47.3233 61.1823C47.117 61.1823 46.9106 61.1823 46.698 61.1823C46.698 60.0917 46.698 59.0011 46.698 57.8774Z" fill="#0B0B0B"/>
<path d="M65.6341 40.6386C65.9801 40.8213 66.24 41.0121 66.438 41.3532C66.438 41.4416 66.438 41.53 66.438 41.6211C65.6716 41.6211 64.9053 41.6211 64.1157 41.6211C64.2257 41.0708 64.3129 41.0423 64.7409 40.7279C65.028 40.5843 65.3227 40.5962 65.6341 40.6386Z" fill="#F9F9F9"/>
<path d="M44.3757 40.6386C44.7216 40.8213 44.9816 41.0121 45.1796 41.3532C45.1796 41.4416 45.1796 41.53 45.1796 41.6211C44.4132 41.6211 43.6468 41.6211 42.8572 41.6211C42.9673 41.0708 43.0545 41.0423 43.4825 40.7279C43.7696 40.5843 44.0643 40.5962 44.3757 40.6386Z" fill="#F9F9F9"/>
<path d="M50.9186 43.1172C50.9936 43.1188 51.0687 43.1204 51.146 43.1221C51.3308 43.1263 51.5155 43.1327 51.7001 43.1395C51.6406 43.6177 51.5396 43.8092 51.1642 44.1221C50.9047 44.2086 50.7206 44.2289 50.4496 44.2337C50.3336 44.2372 50.3336 44.2372 50.2151 44.2407C50.003 44.2114 50.003 44.2114 49.8436 44.0896C49.735 43.9434 49.735 43.9434 49.696 43.7257C49.8121 43.0458 50.3603 43.0945 50.9186 43.1172Z" fill="#FAFAFA"/>
<path d="M15.0785 8.39492C15.9368 8.35648 15.9368 8.35648 16.329 8.66288C16.4183 8.7522 16.4183 8.7522 16.4406 9.00341C16.4154 9.32514 16.3792 9.42324 16.1503 9.64541C15.8897 9.6803 15.8897 9.6803 15.5976 9.66774C15.3406 9.65669 15.3406 9.65669 15.0785 9.64541C15.0785 9.23275 15.0785 8.82008 15.0785 8.39492Z" fill="#F9F9F9"/>
<path d="M19.1873 8.39409C19.9928 8.35113 19.9928 8.35113 20.3652 8.53365C20.5271 8.75137 20.5271 8.75137 20.5271 9.07516C20.4377 9.37662 20.4377 9.37662 20.1698 9.55526C19.8407 9.57907 19.5176 9.56304 19.1873 9.55526C19.1873 9.17208 19.1873 8.78889 19.1873 8.39409Z" fill="#F6F6F6"/>
<path d="M37.1407 59.7533C37.7512 59.7359 37.7512 59.7359 37.9445 59.7533C38.1232 59.932 38.1232 59.932 38.1455 60.1553C38.1232 60.3786 38.1232 60.3786 37.9445 60.5572C37.6749 60.5815 37.4119 60.565 37.1407 60.5572C37.1407 60.2919 37.1407 60.0266 37.1407 59.7533Z" fill="#FDFDFD"/>
<path d="M37.1407 58.414C37.6815 58.3965 37.6815 58.3965 37.8552 58.414C38.0339 58.5926 38.0339 58.5926 38.0562 58.8159C38.0339 59.0392 38.0339 59.0392 37.8552 59.2179C37.6151 59.242 37.3826 59.2257 37.1407 59.2179C37.1407 58.9526 37.1407 58.6873 37.1407 58.414Z" fill="#F8F8F8"/>
<path d="M26.6008 58.7715C26.8299 58.8861 26.8388 58.9705 26.9246 59.2069C26.9478 59.2693 26.9711 59.3317 26.9951 59.396C27.0474 59.5754 27.0474 59.5754 27.0474 59.8433C26.7821 59.8433 26.5168 59.8433 26.2435 59.8433C26.2861 59.6981 26.329 59.553 26.3719 59.4079C26.3957 59.3271 26.4196 59.2462 26.4441 59.163C26.5115 58.9501 26.5115 58.9501 26.6008 58.7715Z" fill="#EFEFEF"/>
<path d="M7.39679 74.0459C7.83086 74.1002 8.17751 74.2895 8.55797 74.4925C8.33007 74.5756 8.2239 74.5895 7.98994 74.5124C7.91948 74.4782 7.84901 74.444 7.77641 74.4088C7.70502 74.3748 7.63363 74.3408 7.56008 74.3058C7.5062 74.279 7.45231 74.2522 7.39679 74.2245C7.39679 74.1656 7.39679 74.1066 7.39679 74.0459Z" fill="#030100"/>
<path d="M1.6802 71.1865C2.1938 71.3428 2.1938 71.3428 2.39477 71.5438C2.12681 71.6331 2.12681 71.6331 1.88676 71.5159C1.81859 71.4662 1.75043 71.4164 1.6802 71.3652C1.6802 71.3062 1.6802 71.2473 1.6802 71.1865Z" fill="#030100"/>
</g>
<defs>
<clipPath id="clip0_974_10840">
<rect width="77.62" height="89.3211" fill="white" transform="translate(0.78717 0.712402)"/>
</clipPath>
</defs>
</svg>
