<svg width="132" height="133" viewBox="0 0 132 133" fill="none" xmlns="http://www.w3.org/2000/svg">
<circle cx="66" cy="66" r="66" fill="white"/>
<g clip-path="url(#clip0_932_63725)">
<path d="M15.7854 61.0784C16.3208 48.9967 20.5974 37.1165 27.8781 27.4562C28.3975 26.7712 28.9502 26.0734 29.6923 25.643C30.8265 24.9732 32.2464 24.9972 33.5489 25.2311C39.7519 26.3261 44.4358 31.303 48.5888 36.0287C50.3899 38.0805 52.2662 40.3183 52.5763 43.0364C52.9467 46.2419 51.0302 49.2658 48.8465 51.6412C46.6634 54.0208 44.0874 56.1409 42.621 59.0092C40.8681 62.4426 40.9262 66.6026 42.1568 70.2616C43.3874 73.9207 45.6791 77.1272 48.2307 80.0108C51.7737 84.0219 56.0033 87.6096 61.0589 89.337C66.115 91.0686 72.1164 90.7083 76.3398 87.4295C78.4266 85.817 79.9584 83.6178 81.6643 81.5967C83.0283 79.9738 84.5226 78.4563 86.118 77.0522C87.0823 76.2037 88.1781 75.3649 89.4532 75.307C90.9754 75.2447 92.3007 76.2962 93.4421 77.301C97.8584 81.204 102.058 85.3554 106.015 89.7276C107.635 91.511 109.254 93.429 109.863 95.7499C110.82 99.4123 108.991 103.35 106.201 105.918C103.415 108.485 99.8102 109.951 96.2894 111.319C87.752 114.65 78.3754 117.837 69.5941 115.19C67.418 114.535 65.3564 113.539 63.1679 112.959C60.8671 112.35 58.456 112.218 56.138 111.68C52.746 110.893 49.6104 109.262 46.6314 107.456C34.2393 99.9686 23.6319 88.9179 18.7031 75.32C13.7658 61.7232 15.1638 45.5109 24.0607 34.088" fill="white"/>
<path d="M40.5364 35.4011C41.9378 34.1512 42.7903 32.1532 42.2889 30.3487C44.5724 33.6648 47.9771 36.0304 50.6559 39.0285C51.7301 40.2283 52.711 41.5872 53.0698 43.1532C53.7556 46.1678 51.991 49.2249 49.8418 51.4572C50.3621 50.9197 44.3658 44.4686 43.7321 43.8438C41.4263 41.5418 38.4368 39.9322 36.1752 37.7073C37.287 36.6452 39.2753 36.5208 40.5358 35.3968L40.5364 35.4011Z" fill="#B7BFF6"/>
<path d="M89.7833 88.1197C94.9931 93.8346 100.208 99.5575 105.427 105.271C105.572 105.427 105.724 105.599 105.932 105.665C106.248 105.764 106.593 105.6 106.87 105.418C109.3 103.837 110.582 100.809 110.424 97.9163C110.266 95.0231 108.787 92.3064 106.722 90.2698C105.43 88.9971 103.921 87.9684 102.5 86.8462C100.719 85.4474 99.2383 83.7032 97.5159 82.2885C98.0648 84.1957 97.5396 86.24 96.1542 87.5487C94.4912 89.1087 91.8772 89.3756 89.7919 88.1186L89.7833 88.1197Z" fill="#B7BFF6"/>
<path d="M44.8348 46.0471C42.6666 48.1254 38.258 52.929 36.8595 60.2123C34.3927 73.019 43.242 82.9632 45.8385 85.8933C49.0803 89.5423 56.0542 97.3961 67.3157 97.5355C79.3648 97.6816 87.0873 88.8869 88.2642 87.5085C93.626 93.222 98.9925 98.9392 104.354 104.653C99.8034 107.955 88.4188 115.184 73.2132 114.608C50.1864 113.736 36.4256 95.6394 32.1808 90.0655C28.1165 84.7212 19.9632 73.6925 19.5989 57.4291C19.288 43.4597 24.8635 33.1204 27.532 28.7968C33.303 34.5508 39.0649 40.3016 44.8348 46.0471Z" fill="#101A5B"/>
<path d="M41.1778 62.3436C40.2919 66.3556 41.4329 70.5553 43.1718 74.1775C45.2169 78.4476 48.2546 82.2738 51.7823 85.423C55.085 88.37 58.9532 90.9691 63.2519 92.1998C65.0456 92.7159 66.9542 93.0007 68.8127 92.7752C70.7947 92.53 72.6648 91.6606 74.3949 90.713C77.017 89.2818 79.4315 87.4378 81.5335 85.3156C82.6962 84.1387 83.7205 82.8616 84.6983 81.5253C85.5357 80.3886 86.3289 79.1054 87.5092 78.2823C90.0687 76.4855 92.9756 78.6219 94.7621 80.4845C95.9047 81.6758 96.988 82.8788 98.1821 84.029C99.5355 85.3418 100.892 86.6456 102.254 87.9574C103.616 89.2691 105.058 90.6708 106.464 92.0248C107.141 92.6791 107.81 93.3472 108.354 94.1221C108.977 95.0131 109.623 96.0921 109.632 97.2153C109.641 98.4123 109.026 99.6299 108.357 100.581C106.467 103.289 103.306 105.251 100.472 106.865C90.3571 112.657 78.1742 115.153 66.632 113.343C55.0894 111.528 45.3264 106.285 36.9589 99.0766C28.5518 91.8298 21.6647 82.4634 18.5177 71.7445C16.9546 66.4163 16.3308 60.8113 16.9204 55.2819C17.5551 49.3086 19.4922 43.5344 22.3478 38.2631C23.4421 36.2525 24.6477 34.2976 25.973 32.432C26.8539 31.1901 27.6953 29.8055 28.8118 28.7471C30.8204 26.8535 33.678 26.0616 36.3611 26.8454C37.3489 27.1356 38.2353 27.5555 38.9871 28.2569C40.4185 29.6035 41.83 30.9655 43.2502 32.3265C44.6703 33.6875 45.9921 34.9565 47.3625 36.2672C48.5652 37.4164 49.9012 38.5186 50.957 39.8162C52.4241 41.6272 52.9655 43.544 52.0426 45.7113C50.3129 49.7886 46.2802 52.4665 43.8176 56.0658C42.5148 57.9719 41.6359 60.0384 41.1442 62.2826C41.0623 62.6747 41.0775 63.2893 41.3435 63.6123C41.5491 63.869 41.7892 63.9479 41.8807 63.5285C42.3848 61.2436 43.9508 59.4612 45.446 57.7396C46.9369 56.0185 48.7508 54.4138 50.2782 52.6361C51.6882 50.9989 52.9562 49.1969 53.5258 47.0905C54.2606 44.3865 53.7514 41.3588 52.4655 38.9047C51.7708 37.5755 50.8168 36.5041 49.7371 35.47C48.3169 34.109 46.8931 32.7528 45.4729 31.3918C44.0528 30.0308 42.6375 28.6735 41.2174 27.3125C40.1568 26.2934 39.1427 24.982 37.8394 24.2837C35.4272 22.9847 32.504 22.8601 30.0416 24.1066C28.3444 24.9677 27.2184 26.2659 26.16 27.7946C24.9387 29.5518 23.6243 31.2597 22.5056 33.1083C21.0828 35.4504 19.8337 37.8969 18.79 40.4221C16.325 46.3918 15.0719 52.7411 15.0919 59.1934C15.133 71.1213 19.8084 82.6713 26.8992 92.1384C33.9116 101.498 43.4984 109.111 54.3009 113.657C59.95 116.036 65.9882 117.52 72.1143 117.852C78.6438 118.212 85.2154 117.191 91.3985 115.102C95.7038 113.645 99.8937 111.677 103.706 109.187C107.107 106.956 110.545 104.108 111.135 99.8423C111.586 96.6046 110.529 93.3279 108.572 90.757C106.735 88.345 104.251 86.356 102.087 84.2578C100.686 82.9033 99.2916 81.5434 97.8886 80.1803C96.6742 79.0065 95.6238 77.6823 94.3901 76.5283C92.4527 74.7104 89.6025 72.9619 86.9973 74.53C85.8037 75.2463 84.9796 76.4899 84.1834 77.6084C83.1091 79.113 82.046 80.6032 80.7685 81.9419C78.6385 84.1891 76.1329 86.1051 73.4134 87.5918C71.5977 88.5847 69.6619 89.3798 67.5724 89.495C65.6087 89.6077 63.6591 89.202 61.8089 88.5453C57.3245 86.973 53.3326 84.0766 49.9694 80.7812C46.6062 77.4858 43.6541 73.649 42.2978 69.2198C41.7281 67.3543 41.4789 65.41 41.8177 63.4755C41.877 63.147 41.8848 62.5426 41.6333 62.2655C41.4425 62.0591 41.2635 61.9466 41.1762 62.3307L41.1778 62.3436Z" fill="#101A5B"/>
<path d="M82.7558 81.8002C83.1281 83.0174 84.1486 83.959 84.9776 84.8982C85.8915 85.9268 86.8205 86.9362 87.7526 87.9365C89.7478 90.0815 91.7425 92.2222 93.7367 94.3587C95.7308 96.4952 97.6368 98.5166 99.5936 100.597C100.564 101.627 101.539 102.657 102.525 103.668C103.301 104.458 104.279 105.726 105.409 105.972C105.538 106 105.497 105.731 105.464 105.675C104.317 103.221 102.045 101.192 100.203 99.2366C98.2017 97.1098 96.2092 94.9862 94.2075 92.8593C92.2059 90.7325 90.3094 88.7185 88.3462 86.6563C87.3756 85.6261 86.4017 84.6049 85.4085 83.6035C84.9069 83.0969 83.5533 81.2545 82.7749 81.5331C82.6797 81.5709 82.6998 81.7334 82.7259 81.8039L82.7516 81.8007L82.7558 81.8002Z" fill="#101A5B"/>
<path d="M27.4477 29.0983C28.8965 31.3587 31.0869 33.2191 32.9535 35.1326C34.8195 37.0418 36.7172 38.9254 38.6074 40.8186C40.4976 42.7118 42.369 44.5943 44.2656 46.4694C45.2359 47.4259 46.1777 48.3989 47.1704 49.3266C47.9286 50.0446 48.8301 51.1138 49.8848 51.3827C50.0822 51.4321 50.0202 51.0013 49.9749 50.9158C48.7658 48.6258 46.5513 46.8161 44.7568 44.9935C42.8351 43.0564 40.8931 41.1306 38.9468 39.2052C37.0005 37.2799 35.1873 35.4466 33.2853 33.5983C32.3172 32.6589 31.3523 31.7104 30.3761 30.7763C29.5133 29.9497 28.6025 28.9468 27.522 28.3989C27.2483 28.2592 27.39 29.0186 27.444 29.1031L27.4477 29.0983Z" fill="#101A5B"/>
<path d="M61.5082 40.6686C64.6806 39.013 68.4903 38.3985 72.0425 38.2674C75.5947 38.1362 79.0048 38.6477 82.1885 40.2463C87.6616 42.9943 91.3198 48.3932 92.3319 54.3626C92.9796 58.1935 92.7234 62.2014 91.641 65.9252C91.6093 66.0202 91.7446 66.481 91.8272 66.3058C93.2496 63.1521 94.0286 59.8218 93.8608 56.3569C93.6842 52.7151 92.6895 49.1007 90.9746 45.8835C87.5768 39.4974 81.1459 35.366 73.8623 35.199C71.6303 35.1452 69.5057 35.5382 67.4201 36.3171C65.1718 37.1508 63.2225 38.399 61.2671 39.7738C61.0555 39.9259 61.2238 40.8296 61.5092 40.6771L61.5082 40.6686Z" fill="#B7BFF6"/>
<path d="M59.7029 29.241C62.2452 27.9021 65.0187 27.1684 67.8125 26.5276C70.6057 25.8826 73.2613 25.6713 76.0088 25.5702C81.4723 25.3589 86.7816 26.2562 91.6621 28.817C95.7017 30.9392 99.2107 34.0777 101.773 37.8542C104.335 41.6307 105.976 46.0073 106.69 50.238C107.653 55.9487 107.263 62.1088 105.616 67.7342C105.578 67.8779 105.769 68.5835 105.896 68.3116C108.113 63.4579 109.276 58.283 108.98 52.937C108.669 47.3281 107.118 41.7466 104.406 36.8254C101.939 32.3426 98.4345 28.4351 94.1445 25.6233C89.4514 22.5402 83.852 20.9842 78.2531 20.9084C74.8434 20.857 71.604 21.5138 68.4204 22.728C65.2369 23.9422 62.2272 25.8598 59.341 27.8967C59.0133 28.1282 59.2745 29.5023 59.7114 29.2746L59.7158 29.2394L59.7029 29.241Z" fill="#B7BFF6"/>
</g>
<defs>
<clipPath id="clip0_932_63725">
<rect width="107.115" height="112.874" fill="white" transform="translate(3.5 20.1489) rotate(-7.05109)"/>
</clipPath>
</defs>
</svg>
