<svg xmlns="http://www.w3.org/2000/svg" width="133" height="133" fill="none" viewBox="0 0 133 133"><circle cx="66.5" cy="66" r="66" fill="#F7FBFD"/><g clip-path="url(#a)"><path fill="#F7FBFD" d="M16.285 61.078c.536-12.081 4.812-23.961 12.093-33.622.52-.685 1.072-1.383 1.814-1.813 1.134-.67 2.554-.646 3.857-.412 6.203 1.095 10.887 6.072 15.04 10.798 1.8 2.051 3.677 4.29 3.987 7.007.37 3.206-1.546 6.23-3.73 8.605-2.183 2.38-4.759 4.5-6.225 7.368-1.753 3.434-1.695 7.594-.464 11.253 1.23 3.659 3.522 6.865 6.074 9.749 3.543 4.01 7.772 7.599 12.828 9.326 5.056 1.732 11.057 1.371 15.28-1.907 2.088-1.613 3.62-3.812 5.325-5.833a42.5 42.5 0 0 1 4.454-4.545c.964-.848 2.06-1.687 3.335-1.745 1.522-.062 2.848.99 3.99 1.994a159 159 0 0 1 12.572 12.427c1.62 1.783 3.239 3.701 3.848 6.022.957 3.662-.872 7.6-3.662 10.168-2.786 2.567-6.391 4.033-9.912 5.401-8.537 3.331-17.914 6.518-26.695 3.871-2.176-.655-4.238-1.651-6.426-2.231-2.3-.609-4.712-.741-7.03-1.279-3.392-.787-6.528-2.418-9.507-4.224-12.392-7.487-23-18.538-27.928-32.136-4.937-13.597-3.54-29.81 5.358-41.232"/><path fill="#C0AF70" d="M41.036 35.401c1.402-1.25 2.254-3.248 1.753-5.052 2.283 3.316 5.688 5.681 8.367 8.68 1.074 1.2 2.055 2.558 2.414 4.124.686 3.015-1.08 6.072-3.228 8.304.52-.537-5.476-6.988-6.11-7.613-2.306-2.302-5.295-3.912-7.557-6.137 1.112-1.062 3.1-1.186 4.36-2.31zM90.283 88.12c5.21 5.715 10.425 11.438 15.644 17.151.145.156.297.328.505.394.316.099.661-.065.938-.247 2.43-1.581 3.712-4.609 3.554-7.502s-1.637-5.61-3.702-7.646c-1.292-1.273-2.801-2.302-4.222-3.424-1.781-1.399-3.262-3.143-4.984-4.558.549 1.908.024 3.952-1.362 5.26-1.663 1.56-4.277 1.828-6.362.57z"/><path fill="#212121" d="M45.335 46.047c-2.169 2.078-6.577 6.882-7.976 14.165-2.466 12.807 6.383 22.751 8.98 25.681 3.241 3.65 10.215 11.503 21.477 11.642 12.049.147 19.771-8.648 20.948-10.026 5.362 5.713 10.729 11.43 16.09 17.144-4.551 3.302-15.935 10.531-31.14 9.955-23.028-.872-36.788-18.969-41.033-24.543-4.065-5.344-12.218-16.373-12.582-32.636-.311-13.97 5.264-24.309 7.933-28.632 5.77 5.754 11.533 11.505 17.303 17.25"/><path fill="#212121" d="M41.678 62.344c-.886 4.012.255 8.211 1.994 11.833 2.045 4.27 5.083 8.097 8.61 11.246 3.303 2.947 7.171 5.546 11.47 6.777 1.794.516 3.702.8 5.56.575 1.983-.245 3.853-1.114 5.583-2.062a31 31 0 0 0 7.139-5.397c1.162-1.177 2.186-2.454 3.164-3.79.838-1.137 1.63-2.42 2.811-3.244 2.56-1.796 5.467.34 7.253 2.203 1.143 1.19 2.226 2.394 3.42 3.544 1.353 1.313 2.71 2.617 4.072 3.928 1.362 1.312 2.804 2.714 4.21 4.068.677.654 1.346 1.322 1.89 2.097.623.891 1.269 1.97 1.278 3.093.009 1.197-.606 2.415-1.275 3.366-1.89 2.708-5.051 4.67-7.885 6.284-10.115 5.792-22.298 8.288-33.84 6.478-11.543-1.815-21.306-7.058-29.673-14.266-8.407-7.247-15.294-16.614-18.441-27.332-1.563-5.329-2.187-10.934-1.598-16.463.635-5.973 2.572-11.748 5.428-17.019a58 58 0 0 1 3.625-5.831c.88-1.242 1.722-2.627 2.839-3.685 2.008-1.893 4.866-2.685 7.55-1.902.987.29 1.873.71 2.625 1.412 1.431 1.346 2.843 2.708 4.263 4.07 1.42 1.36 2.742 2.63 4.112 3.94 1.203 1.15 2.54 2.252 3.595 3.55 1.467 1.81 2.008 3.727 1.086 5.894-1.73 4.078-5.763 6.756-8.225 10.355a17.5 17.5 0 0 0-2.674 6.217c-.082.392-.066 1.006.2 1.33.205.256.445.335.537-.084.504-2.285 2.07-4.068 3.565-5.79 1.49-1.72 3.305-3.325 4.832-5.103 1.41-1.637 2.678-3.44 3.248-5.546.735-2.704.225-5.731-1.06-8.185-.695-1.33-1.65-2.4-2.729-3.435-1.42-1.361-2.844-2.717-4.264-4.078l-4.256-4.08c-1.06-1.019-2.074-2.33-3.378-3.028-2.412-1.3-5.335-1.424-7.797-.177-1.698.86-2.824 2.159-3.882 3.688-1.221 1.757-2.536 3.465-3.654 5.313a53.4 53.4 0 0 0-3.716 7.314 48.7 48.7 0 0 0-3.698 18.771c.041 11.928 4.716 23.478 11.807 32.945 7.013 9.36 16.6 16.973 27.402 21.519 5.649 2.379 11.687 3.863 17.813 4.195 6.53.36 13.101-.661 19.284-2.75 4.306-1.457 8.496-3.425 12.308-5.915 3.401-2.231 6.839-5.079 7.429-9.345.451-3.237-.606-6.514-2.563-9.085-1.837-2.412-4.321-4.401-6.485-6.5-1.401-1.354-2.795-2.714-4.198-4.077-1.215-1.174-2.265-2.498-3.499-3.652-1.937-1.818-4.787-3.566-7.393-1.998-1.193.716-2.017 1.96-2.814 3.078-1.074 1.505-2.137 2.995-3.415 4.334a30 30 0 0 1-7.355 5.65c-1.815.993-3.751 1.788-5.84 1.903-1.964.113-3.914-.293-5.764-.95-4.484-1.572-8.476-4.468-11.84-7.764-3.363-3.295-6.315-7.132-7.671-11.561-.57-1.866-.82-3.81-.48-5.745.059-.328.067-.932-.185-1.21-.19-.206-.37-.318-.457.066z"/><path fill="#212121" d="M83.256 81.8c.372 1.217 1.393 2.159 2.222 3.098a174 174 0 0 0 2.775 3.038q2.993 3.218 5.984 6.423c1.994 2.136 3.9 4.158 5.857 6.238.97 1.03 1.945 2.06 2.931 3.071.776.79 1.754 2.058 2.884 2.304.129.028.088-.241.055-.297-1.147-2.454-3.419-4.483-5.261-6.438-2.001-2.127-3.994-4.25-5.996-6.378-2.001-2.126-3.898-4.14-5.86-6.203-.971-1.03-1.945-2.051-2.938-3.053-.502-.506-1.856-2.349-2.634-2.07-.095.038-.075.2-.05.27l.027-.002zM27.948 29.098c1.448 2.26 3.639 4.121 5.505 6.035 1.866 1.909 3.764 3.792 5.654 5.686 1.89 1.893 3.762 3.775 5.659 5.65.97.957 1.912 1.93 2.904 2.858.759.718 1.66 1.787 2.715 2.056.197.05.135-.382.09-.467-1.21-2.29-3.424-4.1-5.218-5.922a874 874 0 0 0-5.81-5.789c-1.947-1.925-3.76-3.758-5.662-5.607-.968-.94-1.933-1.888-2.909-2.822-.863-.826-1.774-1.83-2.854-2.377-.274-.14-.132.62-.078.704z"/><path fill="#C0AF70" d="M62.008 40.669c3.173-1.656 6.982-2.27 10.535-2.402 3.552-.13 6.962.38 10.145 1.98 5.474 2.747 9.132 8.146 10.144 14.116.648 3.83.391 7.838-.691 11.562-.032.095.104.556.186.38 1.423-3.153 2.202-6.483 2.034-9.948a24.95 24.95 0 0 0-2.886-10.474c-3.398-6.386-9.83-10.517-17.113-10.684-2.232-.054-4.356.34-6.442 1.118-2.248.834-4.198 2.082-6.153 3.457-.212.152-.043 1.056.242.903z"/><path fill="#C0AF70" d="M60.203 29.241c2.542-1.339 5.316-2.073 8.11-2.713 2.793-.645 5.448-.857 8.196-.958 5.463-.211 10.773.686 15.653 3.247a28.06 28.06 0 0 1 10.111 9.037c2.562 3.777 4.203 8.153 4.917 12.384.963 5.71.573 11.87-1.074 17.496-.038.144.153.85.28.578 2.217-4.854 3.38-10.029 3.084-15.375-.311-5.609-1.862-11.19-4.574-16.112-2.467-4.482-5.972-8.39-10.262-11.202-4.693-3.083-10.292-4.639-15.89-4.715-3.41-.051-6.65.606-9.834 1.82s-6.193 3.132-9.079 5.169c-.328.231-.066 1.605.37 1.378l.005-.036z"/></g><defs><clipPath id="a"><path fill="#fff" d="M4 20.149 110.305 7l13.856 112.02-106.305 13.15z"/></clipPath></defs></svg>