<svg width="245" height="182" viewBox="0 0 245 182" fill="none" xmlns="http://www.w3.org/2000/svg">
<path d="M40.0595 140.933L29.2482 168.17H14.4437L28.2703 138.673L40.0595 140.933Z" fill="#101610"/>
<path d="M124.147 179.303C190.892 177.814 244.263 144.575 243.353 105.062C242.444 65.5487 187.599 34.7241 120.853 36.2133C54.1079 37.7024 0.737231 70.9415 1.64665 110.455C2.55607 149.968 57.4012 180.793 124.147 179.303Z" fill="#77B47C"/>
<path fill-rule="evenodd" clip-rule="evenodd" d="M96.9687 117.973C97.8651 117.075 98.2182 116.639 98.4627 116.23C98.3812 116.04 98.2726 115.795 98.1367 115.549C97.9194 115.059 97.6206 114.46 97.3761 113.942C96.3711 111.791 95.8278 110.511 96.4526 108.877C96.9415 107.569 98.3269 106.289 99.6851 105.908C100.093 105.799 100.527 105.717 100.989 105.717C101.804 105.717 102.755 105.908 104.113 106.262C106.856 106.943 107.916 107.161 109.899 107.515C112.833 108.032 114.299 108.413 115.766 109.911C116.69 110.838 117.152 111.764 118.89 115.577C119.026 113.016 119.162 110.347 119.325 108.441C119.787 102.258 119.841 101.359 120.167 98.7174C121.498 87.9591 124.377 80.0605 128.479 75.9206C130.299 74.0686 132.472 72.7885 136.221 71.3994C137.878 70.773 140.73 69.7925 142.577 69.5473C143.175 68.4034 143.772 67.3412 144.452 66.279C144.37 66.279 144.289 66.279 144.207 66.279C141.518 66.279 139.046 64.9444 135.922 61.8395C133.233 59.1703 131.304 56.2288 129.43 52.0344C128.289 49.4197 127.501 46.9957 126.632 43.4005C125.898 40.35 125.247 36.2918 125.002 33.4865V33.432C124.649 33.2141 124.078 32.9145 123.155 32.4243C120.031 30.7356 117.505 28.5295 116.364 26.514C115.196 24.4441 114.598 21.9656 114.788 19.8684C114.978 17.8256 115.766 15.2654 116.717 13.6857C117.722 11.9971 119.624 10.3901 121.579 9.57306H121.607C121.607 9.57306 121.797 9.49135 121.905 9.43688C121.96 9.32793 122.041 9.16452 122.095 9.08281C124.73 4.20751 128.452 1.3477 133.45 0.394434C134.401 0.20378 135.324 0.12207 136.302 0.12207C138.204 0.12207 140.268 0.476141 142.604 1.23876L143.718 1.59283L143.99 1.51112C145.81 0.966395 146.869 0.802982 148.689 0.775745C152.112 0.775745 155.018 1.72901 157.626 3.69003C157.762 3.79897 157.871 3.88068 158.006 3.98962C158.631 3.8262 159.338 3.88068 160.017 4.39817C160.207 4.53435 160.37 4.69776 160.587 4.91566C161.049 5.43314 161.429 6.08682 161.701 6.8222C161.755 6.8222 161.782 6.8222 161.837 6.8222C162.869 6.90391 164.309 7.33969 165.286 8.26572C166.156 9.08281 166.427 9.95437 166.156 10.8532C166.753 11.5068 167.297 12.2422 167.704 13.0865C167.758 13.1682 167.786 13.25 167.84 13.3317C168.845 13.713 169.443 14.1488 170.42 15.1565C171.507 16.2459 171.833 16.6817 172.485 18.0435C172.865 18.8334 173.354 20.059 173.544 20.8216C173.925 22.2107 173.925 22.5375 173.897 25.2612C173.87 29.619 173.436 31.6072 171.779 35.502C171.426 36.3191 170.692 38.1439 170.122 39.6147C169.524 41.1127 168.546 43.3733 167.894 44.6806C166.699 47.1319 165.857 49.2291 165.341 50.8905V51.0267C165.178 51.4806 165.205 52.5519 165.422 54.2405L165.477 54.6491C165.667 56.1471 165.884 57.6179 166.074 58.6528H166.156C167.731 59.0069 168.818 60.1508 170.258 62.1663C172.621 65.4074 173.979 67.8042 173.979 70.0104C175.174 70.4189 176.342 70.8547 176.369 70.8547C178.543 71.6718 184.953 74.5043 187.425 75.7572C188.892 76.4926 191.907 78.3174 193.157 79.2434C195.357 80.8232 197.748 83.9008 199.54 87.4688C201.062 90.4648 202.284 93.9783 203.506 98.8263C204.647 103.348 205.951 110.511 206.929 117.51C208.016 125.273 208.287 129.358 208.287 137.502V144.147L207.717 145.264C207.255 146.163 206.848 146.653 205 148.723C204.348 149.459 203.588 150.303 203.289 150.657C202.61 151.447 202.094 152.073 201.089 152.128C200.98 152.155 200.871 152.209 200.763 152.237C200.491 152.318 200.165 152.373 199.812 152.455H199.785C199.187 152.564 197.802 152.781 196.688 152.972C194.325 153.381 192.559 153.626 190.902 153.762C190.902 154.443 190.848 155.369 190.821 156.594C190.658 161.96 190.522 163.131 190.142 163.975L189.327 165.882L188.566 165.8C188.566 165.991 188.566 166.154 188.566 166.372C188.566 167.353 188.566 168.197 188.566 168.96L187.887 172.364L183.486 172.119L183.432 171.738C183.432 171.738 183.432 171.656 183.432 171.629C183.269 171.574 183.106 171.52 182.97 171.438C182.291 171.111 180.716 170.104 179.629 169.314C177.891 170.512 175.256 171.956 172.757 173.045C171.154 173.753 167.786 174.87 165.938 175.333C163.983 175.823 161.511 176.259 159.501 176.45C158.55 176.531 157.952 176.586 157.816 176.613H157.789C155.915 176.858 150.509 176.504 147.983 176.096C145.457 175.687 142.17 174.87 139.779 174.107C136.411 173.018 133.586 171.574 131.114 169.722C130.381 169.205 129.294 168.197 128.995 167.898C128.696 167.625 128.425 167.38 128.18 167.135H127.99L127.338 166.454C126.55 165.637 126.415 165.501 126.768 152.128C126.795 150.711 126.849 149.486 126.876 148.342C126.034 148.342 124.921 148.315 124.16 148.233C120.927 147.879 116.635 145.727 114.408 143.33C114.028 142.922 113.647 142.377 113.376 141.805C113.376 141.805 113.376 141.778 113.376 141.751C111.338 141.587 109.844 141.07 108.839 140.225H108.731C108.731 140.225 107.617 140.225 107.019 140.062H106.965H106.911C105.335 139.572 105.172 138.292 105.172 137.938C105.172 137.42 105.281 136.984 105.498 136.685L105.417 136.576C105.417 136.576 105.254 136.63 105.199 136.658C105.172 137.202 104.928 137.747 104.547 138.128C104.113 138.564 103.542 138.809 102.918 138.809C101.342 138.809 100.364 137.284 100.093 136.303C100.011 135.977 99.9567 135.595 99.9296 135.187C99.2505 134.751 98.7887 134.233 98.7887 134.233L98.7343 134.179C98.5714 133.961 98.0281 133.171 98.0009 132.245C97.7836 131.646 97.7836 130.911 97.8923 130.23H97.2132L96.5612 129.168C96.0451 128.35 96.2081 127.588 96.4254 127.016C96.3439 126.934 96.2896 126.825 96.2081 126.744C96.0179 126.471 95.5018 125.817 95.2302 125.273V125.218C94.9314 124.674 94.6597 123.829 94.5782 123.176C94.1979 120.806 95.1487 119.744 96.8329 118.082L96.9687 117.973Z" fill="white"/>
<path fill-rule="evenodd" clip-rule="evenodd" d="M143.039 98.7443L131.82 98.0361L131.793 108.631L136.411 111.845L142.197 109.012L143.039 98.7443Z" fill="#00AF1A"/>
<path fill-rule="evenodd" clip-rule="evenodd" d="M164.064 61.7302C164.309 61.703 164.607 61.6758 164.933 61.6758C165.531 61.6758 166.02 61.7847 166.373 61.9209L169.823 65.8157L171.86 70.2007C171.018 72.1073 169.904 74.2317 168.41 76.4923C166.292 79.679 164.037 82.1575 162.108 83.9823C160.479 81.64 158.251 79.9241 156.621 77.5818C158.876 75.2667 161.728 72.2979 163.983 69.9828C164.309 69.3019 164.933 67.8312 164.798 65.8974C164.689 64.4539 164.227 63.3372 163.874 62.7108" fill="#00AF1A"/>
<path d="M162.027 42.0113C161.809 42.0658 161.565 42.093 161.32 42.0658C160.94 42.0113 160.614 41.7934 160.288 41.5755C160.207 41.521 160.152 41.4666 160.125 41.3849C160.125 41.3304 160.125 41.2759 160.125 41.2214C160.342 40.4588 160.723 39.7234 161.212 39.1243C161.701 38.4978 162.38 37.9531 163.168 37.8442C163.765 37.7624 164.417 38.0076 164.797 38.4706C165.123 38.9064 164.96 39.3149 164.743 39.7507C164.227 40.8401 163.195 41.7117 161.999 41.9841L162.027 42.0113Z" fill="#D5D5D5"/>
<path d="M150.02 86.7329C149.64 88.5032 149.151 90.2464 148.716 91.9895C146.407 101.604 146.923 111.845 149.857 121.296C149.558 120.342 149.803 118.708 149.857 117.701C149.911 116.502 149.966 115.304 150.02 114.105C150.128 111.627 150.264 109.121 150.454 106.643C150.78 101.74 151.269 96.8375 152.003 91.9895C152.139 91.1452 153.66 85.8885 153.225 85.1259C152.845 84.445 151.432 83.982 150.862 83.3828L150.047 86.7329H150.02Z" fill="#D5D5D5"/>
<path d="M144.75 148.723C144.669 149.431 144.56 150.548 144.424 151.91C144.207 153.898 144.044 155.287 144.017 155.532C143.419 160.68 145.456 170.784 145.565 170.784C145.565 170.784 145.565 170.676 145.511 170.076C145.484 169.668 145.429 169.041 145.429 168.17C145.429 167.298 145.429 166.427 145.429 165.555C145.429 163.758 145.429 161.933 145.484 160.108C145.619 154.688 146.163 152.373 146.108 149.404C146.108 148.478 146.108 147.852 146.136 146.544C146.136 146.245 146.163 145.564 146.271 144.638C146.271 144.474 146.299 144.338 146.326 144.256C145.81 145.727 145.294 147.198 144.75 148.696V148.723Z" fill="#D5D5D5"/>
<path fill-rule="evenodd" clip-rule="evenodd" d="M149.205 64.2085L144.995 70.5273C144.859 72.5973 144.044 72.57 144.723 75.2664C145.647 78.9978 145.321 80.4413 146.163 82.9743C148.988 82.1572 152.791 87.3321 153.851 83.5462C153.443 80.4958 153.389 74.8579 151.813 71.6168C151.813 70.8541 151.596 69.6557 151.351 67.7492" fill="#00AF1A"/>
<path d="M135.351 45.9335C135.433 43.3733 135.759 41.957 135.895 39.2878C135.867 38.5525 136.166 36.4553 135.351 34.5215C134.998 32.506 132.064 28.8563 130.869 28.2572C129.484 27.4128 128.669 30.082 127.284 29.2377C127.854 32.969 128.424 36.7004 128.995 40.4318C129.755 42.7468 130.272 44.6262 130.625 45.9607C131.277 48.5482 131.059 49.6921 132.119 50.836C133.124 51.9255 134.971 52.8243 136.465 52.7698C137.198 52.7426 137.932 52.5519 138.638 52.334C138.883 52.2523 139.915 51.7348 140.159 51.871C139.426 51.4625 138.258 51.4897 137.198 50.2913C136.791 49.8283 136.112 48.9022 135.732 47.3498L135.378 45.9063L135.351 45.9335Z" fill="#D5D5D5"/>
<path fill-rule="evenodd" clip-rule="evenodd" d="M122.774 141.941C128.56 144.501 129.756 145.509 129.62 145.945C129.375 146.68 124.893 146.326 120.982 144.529C118.048 143.194 115.196 140.906 115.522 140.253C115.685 139.899 116.798 140.035 117.831 140.253" fill="#D5D5D5"/>
<path d="M146.244 31.3623C146.244 31.3623 145.973 31.4712 145.81 31.444C145.484 31.444 145.185 31.335 144.886 31.2806C143.745 31.1444 142.604 31.798 141.436 31.7163C141.273 31.7163 141.11 31.6619 140.975 31.6074C140.621 31.4167 140.486 31.0082 140.431 30.6269C140.295 29.6191 140.513 28.5842 140.757 27.5764C140.839 27.2496 140.975 26.8683 141.301 26.7866C141.491 26.7321 141.708 26.7866 141.898 26.8683C142.822 27.1951 143.664 27.6309 144.424 28.2301C145.049 28.7204 145.864 29.374 146.217 30.0822C146.38 30.409 146.598 31.1171 146.217 31.3895L146.244 31.3623Z" fill="#D5D5D5"/>
<path fill-rule="evenodd" clip-rule="evenodd" d="M159.229 141.587C158.468 142.213 157.246 141.886 156.893 141.805C154.448 141.178 153.986 142.377 146.435 141.668C141.219 141.178 138.611 140.933 136.574 139.626C133.83 137.855 132.011 134.996 132.418 134.505C132.744 134.124 134.754 136.711 138.937 137.828C140.051 138.128 142.958 138.918 146.082 138.591C146.543 138.536 147.413 138.427 148.608 138.591C150.156 138.781 151.107 139.272 151.922 139.598C155.861 141.124 159.392 139.462 159.745 140.525C159.881 140.906 159.473 141.423 159.229 141.641V141.587Z" fill="#D5D5D5"/>
<path fill-rule="evenodd" clip-rule="evenodd" d="M110.252 122.821C110.007 122.658 109.708 122.467 109.328 122.331C108.296 121.922 107.318 122.031 106.856 122.14C106.856 122.14 104.683 122.058 103.162 122.848C103.162 122.848 100.989 123.638 99.9565 124.373C99.7392 125.817 99.2774 126.77 98.8971 127.397C98.7613 127.642 98.5983 127.832 98.6526 127.887C98.8156 128.05 100.989 125.517 103.651 124.128C105.009 123.42 107.128 122.658 110.279 122.821H110.252Z" fill="#D5D5D5"/>
<path fill-rule="evenodd" clip-rule="evenodd" d="M113.186 124.51C112.534 124.347 111.447 124.183 110.17 124.428C109.491 124.564 108.921 124.782 108.486 125C108.024 125.164 107.535 125.327 107.046 125.49C106.259 125.763 105.498 126.062 104.765 126.362C104.765 126.362 102.591 127.152 101.559 127.887C101.396 128.105 100.5 129.304 100.283 130.475C100.174 131.074 100.283 131.482 100.283 131.591C100.364 131.891 100.446 132.218 100.581 132.218C100.962 132.3 101.206 130.202 102.429 128.786C103.325 127.751 104.33 127.479 106.449 126.825C108.024 126.335 110.333 125.572 113.213 124.51H113.186Z" fill="#D5D5D5"/>
<path fill-rule="evenodd" clip-rule="evenodd" d="M114.815 126.852C114.354 126.689 113.566 126.471 112.561 126.58C111.148 126.716 110.197 127.424 109.817 127.724C109.437 127.806 109.002 127.915 108.568 128.078C107.617 128.405 106.856 128.841 106.286 129.249C105.933 129.385 105.552 129.549 105.172 129.794C104.384 130.257 103.814 130.802 103.406 131.238C103.026 131.782 102.401 132.872 102.401 134.261C102.401 135.405 102.836 136.494 103.026 136.467C103.271 136.44 102.836 134.942 103.542 133.416C104.113 132.164 105.199 131.51 107.128 130.42C108.242 129.794 108.866 129.549 111.067 128.568C112.697 127.833 114.028 127.234 114.87 126.852H114.815Z" fill="#D5D5D5"/>
<path fill-rule="evenodd" clip-rule="evenodd" d="M101.614 116.884C101.396 116.884 101.152 116.938 100.88 117.074C99.9566 117.537 99.7664 118.654 99.7393 118.818C99.4676 119.09 99.196 119.39 98.9243 119.662C98.3539 120.234 97.8106 120.779 97.2402 121.323C97.1315 121.623 96.9957 122.14 97.05 122.794C97.1043 123.23 97.213 123.584 97.3216 123.856C97.5933 124.292 97.8378 124.646 97.9736 124.919C98.5712 125.872 98.707 126.062 98.7614 126.035C98.9515 125.981 98.2996 124.728 98.544 123.257C98.707 122.249 99.2231 121.814 99.9022 120.697C100.446 119.853 101.097 118.627 101.586 116.911L101.614 116.884Z" fill="#D5D5D5"/>
<path fill-rule="evenodd" clip-rule="evenodd" d="M157.653 174.353C157.898 174.325 158.685 174.244 159.446 174.162C161.32 173.998 163.656 173.59 165.531 173.127C167.296 172.691 170.556 171.574 171.996 170.948C174.875 169.668 177.918 167.952 179.357 166.781L179.792 166.427C179.792 166.427 181.368 166.182 181.856 166.018C183.378 165.501 184.654 164.793 185.496 163.976L185.904 163.594C185.904 163.594 186.148 163.349 186.257 163.267C186.339 163.213 186.474 163.213 186.556 163.24C186.637 163.267 188.186 163.022 188.186 163.022C188.43 162.478 188.539 160.816 188.675 156.458C188.81 151.964 188.81 151.774 188.675 151.91C188.566 152.019 188.322 155.451 188.131 159.672C188.077 161.197 187.996 162.505 187.968 162.586C187.968 162.641 187.724 162.75 187.507 162.777C186.23 162.995 182.237 164.003 180.172 164.629C177.103 165.555 175.446 166.154 172.811 167.326C166.563 170.104 162.054 171.466 156.458 172.31C154.529 172.609 149.748 172.718 147.793 172.528C144.017 172.146 140.132 171.22 137.171 169.968C134.971 169.042 133.287 167.979 130.842 166.046C130.109 165.446 129.457 164.983 129.403 164.983C129.185 164.983 131.576 167.217 132.499 167.898C134.781 169.613 137.443 170.948 140.54 171.956C142.822 172.691 146 173.454 148.417 173.862C150.971 174.298 156.078 174.57 157.599 174.38" fill="#101610"/>
<path fill-rule="evenodd" clip-rule="evenodd" d="M145.429 170.594C145.429 170.594 145.538 168.224 145.592 165.637C145.701 160.816 145.782 158.528 146.081 153.789C146.163 152.318 146.271 149.431 146.298 147.388C146.353 143.439 146.353 143.357 146.136 146.544C146.081 147.633 145.864 150.52 145.701 152.944C145.266 158.746 145.158 161.224 145.158 165.092C145.158 168.115 145.293 171.138 145.429 170.594Z" fill="#101610"/>
<path fill-rule="evenodd" clip-rule="evenodd" d="M142.767 166.481C142.767 166.29 142.876 164.956 142.957 163.567C143.012 162.15 143.148 159.917 143.229 158.555C143.311 157.22 143.419 155.423 143.446 154.606C143.501 153.162 143.473 153.244 143.12 156.267C142.767 159.073 142.74 159.835 142.686 163.131C142.631 166.535 142.659 167.407 142.794 166.454" fill="#101610"/>
<path fill-rule="evenodd" clip-rule="evenodd" d="M129.294 164.438C129.538 163.54 129.593 162.26 130.136 148.641C130.38 142.704 130.516 139.436 130.652 137.175C130.706 136.086 130.761 134.615 130.734 133.852C130.706 132.899 130.734 132.545 130.788 132.681C130.842 132.79 131.168 133.226 131.467 133.662C131.793 134.097 132.309 134.969 132.662 135.623C133.966 138.047 135.188 139.545 136.329 140.062C138.475 141.097 142.794 142.105 145.918 142.323C147.548 142.432 148.2 142.432 150.455 142.268C152.193 142.132 153.551 142.078 154.448 142.132C156.159 142.214 157.653 142.404 157.735 142.541C157.843 142.731 157.68 143.085 157.49 143.004C157.354 142.949 157.327 143.004 157.409 143.548C157.463 143.875 157.517 144.202 157.599 144.284C157.653 144.338 158.033 144.529 158.387 144.665C158.767 144.801 159.853 145.264 160.804 145.7C163.222 146.789 165.178 147.525 168.139 148.505C170.936 149.431 171.643 149.622 174.006 150.112C178.651 151.12 181.911 151.501 186.176 151.637C189.707 151.719 192.016 151.529 196.471 150.766C197.557 150.575 198.97 150.33 199.567 150.248C200.165 150.139 200.681 150.003 200.681 149.949C200.681 149.758 199.513 149.758 196.036 150.003C191.635 150.303 185.524 150.33 182.508 150.058C176.505 149.513 170.719 148.26 165.422 146.381C160.044 144.474 159.555 144.311 158.658 144.229L157.789 144.175L158.142 143.848C159.527 142.595 159.881 142.159 160.505 140.906C161.32 139.245 161.565 138.237 161.565 136.603C161.565 135.65 161.51 135.187 161.347 134.615C161.212 134.206 161.103 133.879 161.076 133.907C161.076 133.907 160.967 134.533 160.913 135.268C160.723 137.012 160.478 137.883 159.745 139.545C159.392 140.28 159.12 140.988 159.12 141.124C159.12 141.26 159.011 141.424 158.848 141.533C158.577 141.696 158.495 141.696 157.273 141.533C153.959 141.07 154.068 141.07 148.173 141.315C144.995 141.424 140.377 140.634 137.117 139.381C136.248 139.054 135.949 138.864 135.351 138.292C134.482 137.475 132.879 135.405 132.879 135.078C132.879 135.023 133.341 135.323 133.912 135.677C135.243 136.576 137.905 137.856 138.285 137.801C138.53 137.747 138.557 137.747 138.339 137.638C138.231 137.584 137.552 137.148 136.873 136.657C135.188 135.541 134.835 135.323 133.83 134.751C133.205 134.397 132.689 133.988 131.983 133.253C131.087 132.354 130.978 132.163 130.761 131.455C130.625 131.02 130.489 130.611 130.462 130.529C130.435 130.42 130.571 130.475 130.761 130.666C131.684 131.401 133.124 132.327 134.129 132.844C135.406 133.498 138.176 134.588 138.72 134.696L139.1 134.778L138.72 134.451C138.367 134.152 137.579 133.689 133.694 131.673C131.494 130.529 129.864 129.168 129.239 127.915C128.941 127.343 128.941 127.261 129.076 126.852C129.158 126.607 129.267 126.417 129.321 126.417C129.375 126.417 130.027 126.825 130.761 127.343C133.64 129.304 135.895 130.366 138.856 131.101C140.594 131.537 140.866 131.401 139.589 130.802C139.073 130.557 138.448 130.284 138.204 130.202C137.199 129.903 135.379 129.059 134.129 128.35C133.64 128.078 132.879 127.67 132.445 127.452C132.01 127.234 131.494 126.88 131.304 126.689C131.087 126.498 130.924 126.362 130.924 126.389C130.924 126.417 130.734 126.308 130.462 126.117C130.19 125.926 129.919 125.79 129.81 125.79C129.593 125.79 128.805 125.245 128.234 124.701C127.691 124.156 127.637 123.611 128.153 123.176C128.56 122.849 128.995 122.821 129.484 123.067C129.674 123.176 129.919 123.23 130.027 123.203C130.136 123.203 130.299 123.203 130.38 123.284C130.462 123.339 130.706 123.475 130.924 123.557C131.141 123.639 131.956 123.993 132.744 124.347C135.542 125.627 138.801 126.798 140.811 127.207C141.789 127.397 144.37 127.778 144.832 127.778C145.076 127.778 144.669 127.424 143.229 126.471C140.784 124.837 138.991 123.094 137.986 121.323C137.552 120.615 137.47 120.343 137.497 120.016C137.552 119.417 137.878 119.335 138.693 119.635C139.154 119.825 139.671 120.18 140.757 121.16C142.496 122.74 143.338 123.257 145.158 123.993C148.662 125.382 149.667 126.172 151.704 129.113C153.035 131.02 153.633 131.646 154.475 132.082C155.697 132.708 157.68 133.171 159.609 133.28L160.75 133.362L160.696 133.117C160.641 132.899 160.668 132.872 160.886 132.926C161.646 133.144 163.629 133.553 164.716 133.716C165.694 133.852 166.373 133.907 167.595 133.825C168.953 133.77 169.279 133.798 169.687 133.934C170.122 134.097 170.339 134.125 171.616 133.988C172.403 133.907 174.359 133.661 175.962 133.444C178.624 133.062 179.031 133.008 181.286 133.035C185.143 133.035 189.381 133.58 192.043 134.424C194.053 135.051 195.955 135.868 197.041 136.603C197.584 136.957 197.286 136.603 196.607 136.113C195.71 135.459 194.488 134.833 192.885 134.233C191.717 133.798 189.327 133.171 188.81 133.171C188.566 133.171 187.642 132.763 187.833 132.735C187.887 132.735 188.023 132.572 188.104 132.381C188.403 131.592 188.973 131.265 190.576 130.829C191.771 130.529 193.999 130.584 195.004 130.938C195.846 131.237 195.629 130.992 194.651 130.502C193.537 129.957 192.532 129.767 191.391 129.903C190.413 130.012 188.865 130.557 188.484 130.911C188.186 131.183 188.077 130.911 188.077 130.012C188.077 129.276 187.887 127.479 187.642 125.409C187.534 124.456 186.447 118.028 186.366 117.728C186.311 117.565 185.741 114.351 184.98 109.966C184.736 108.577 184.084 103.348 184.084 102.748C184.084 102.394 184.057 102.04 184.002 101.986C183.894 101.795 183.975 104.6 184.138 106.507C184.22 107.406 184.247 108.305 184.22 108.495L184.165 108.849L183.948 108.55C182.563 106.507 181.558 102.612 181.503 99.0714V97.9003L181.34 98.7991C181.096 100.079 181.204 103.674 181.503 104.982C181.992 107.024 182.481 108.332 183.242 109.476C183.649 110.075 183.975 110.592 183.975 110.592C183.975 110.892 182.373 109.694 181.585 108.822C180.553 107.678 179.52 105.309 179.357 103.756C179.33 103.375 179.249 103.102 179.194 103.13C179.086 103.211 179.194 104.246 179.384 105.499C179.819 108.032 181.15 110.02 183.323 111.437C183.867 111.791 184.301 112.145 184.356 112.254C184.383 112.363 184.491 112.962 184.6 113.588C184.709 114.188 185.035 116.012 185.333 117.647C186.746 125.273 187.181 128.16 187.289 131.02L187.371 132.763H187.018C186.827 132.763 185.768 132.599 184.681 132.436C180.498 131.755 179.846 131.755 174.169 132.545C172.458 132.79 170.828 132.981 170.583 132.981C170.339 132.981 169.85 132.844 169.47 132.681C168.818 132.381 168.79 132.381 167.894 132.518C166.319 132.735 165.612 132.708 161.864 132.164C161.103 132.055 160.641 132.027 160.451 132.109C159.799 132.354 157.11 132.109 155.616 131.619C153.986 131.101 153.443 130.611 152.193 128.65C150.21 125.436 148.526 124.102 145.375 123.148C143.799 122.658 142.468 121.841 140.676 120.18C139.372 118.981 138.91 118.682 138.367 118.6C137.823 118.491 137.389 118.682 137.117 119.117C136.655 119.825 136.981 121.378 137.905 122.93C138.557 124.02 140.322 125.681 141.545 126.308C142.441 126.798 141.681 126.689 139.969 126.117C137.416 125.273 131.44 122.74 131.032 122.358C130.924 122.25 130.869 121.106 130.815 116.394C130.761 109.911 130.869 106.534 131.25 103.239C131.494 101.169 131.521 101.06 131.603 101.686C131.711 102.558 131.711 105.663 131.603 107.406C131.548 108.386 131.548 108.876 131.657 109.04C131.82 109.34 132.635 109.939 134.564 111.273C135.705 112.063 136.139 112.308 136.411 112.308C137.09 112.308 141.952 109.694 142.224 109.176C142.278 109.067 142.414 107.923 142.55 106.616C142.659 105.309 142.849 103.484 142.93 102.558C143.039 101.659 143.093 100.379 143.066 99.7796V98.6901L142.468 98.6629C142.17 98.6629 140.676 98.5812 139.154 98.5267C137.633 98.4722 135.46 98.3361 134.346 98.2543C133.233 98.1726 132.173 98.0909 132.037 98.0909H131.766L131.82 97.0559C132.065 93.488 132.418 90.955 132.988 88.6399C133.205 87.7139 133.396 86.9785 133.368 86.9785C133.341 86.9785 133.178 87.2781 133.015 87.6594C132.119 89.5932 131.331 93.7876 130.951 98.6629C130.842 100.052 130.706 101.141 130.679 101.114C130.543 100.951 129.891 98.6901 129.783 97.982C129.593 96.8381 129.647 94.2506 129.837 93.488C129.946 93.1339 130 92.8071 129.973 92.7798C129.919 92.7254 129.647 93.5969 129.43 94.523C129.239 95.3128 129.239 98.1454 129.43 98.9897C129.511 99.3438 129.783 100.243 130.027 100.978C130.516 102.449 130.516 102.53 130.217 104.954C130 106.807 129.837 114.76 129.973 117.756C130.027 119.362 130.082 120.697 130.054 120.697C130.054 120.697 129.674 120.588 129.212 120.397C128.126 119.934 126.849 119.771 125.98 119.934C125.328 120.071 124.16 120.506 124.241 120.588C124.241 120.588 124.594 120.561 124.975 120.452C126.197 120.125 127.881 120.452 129.375 121.323C129.864 121.596 129.946 121.678 129.919 121.95C129.891 122.222 129.837 122.25 129.049 122.304C128.099 122.386 127.637 122.576 127.229 123.121C126.74 123.775 126.74 124.047 127.338 124.919C127.718 125.463 128.017 125.763 128.316 125.899L128.751 126.09L128.669 126.607C128.615 126.88 128.588 127.315 128.588 127.533C128.588 128.051 129.076 129.059 129.593 129.631C129.81 129.876 129.946 130.121 129.919 130.23C129.891 130.311 129.919 130.829 130.027 131.374C130.217 132.49 130.19 133.389 129.864 136.303C129.375 140.362 129.267 142.922 129.022 152.155C128.832 159.836 128.805 164.874 128.968 164.874C129.022 164.874 129.131 164.684 129.185 164.438M139.535 110.129C140.947 109.394 142.142 108.768 142.142 108.768C142.142 108.768 142.224 107.978 142.278 107.079C142.333 106.18 142.523 104.301 142.659 102.939C142.794 101.55 142.957 100.106 142.985 99.7251L143.039 98.9897H140.295C137.579 98.9897 135.569 98.8263 132.988 98.4178C132.418 98.336 131.902 98.2816 131.874 98.3088C131.766 98.4178 131.82 101.141 131.956 102.421C132.065 103.293 132.065 104.328 132.01 106.18L131.929 108.713L132.445 109.013C132.744 109.176 133.694 109.803 134.564 110.402C135.84 111.246 136.248 111.491 136.547 111.491C136.845 111.491 137.66 111.11 139.508 110.129M140.187 101.169C140.35 101.114 139.616 101.06 138.258 101.005C137.063 100.978 135.84 100.896 135.487 100.896L134.89 100.842L135.487 101.005C136.139 101.196 139.806 101.332 140.187 101.196" fill="#101610"/>
<path fill-rule="evenodd" clip-rule="evenodd" d="M201.74 149.159C202.066 148.777 202.827 147.879 203.479 147.171C205.272 145.182 205.543 144.828 205.896 144.175L206.195 143.575V137.474C206.195 129.494 205.924 125.409 204.864 117.81C203.913 111.001 202.61 103.838 201.496 99.3436C200.328 94.6862 199.133 91.3089 197.693 88.4491C196.063 85.1807 193.89 82.4026 191.988 81.0136C190.793 80.142 187.859 78.3717 186.556 77.718C184.192 76.5469 177.836 73.7143 175.717 72.8972C174.549 72.4342 171.914 71.5899 171.724 71.5899C171.534 71.5899 171.534 71.5081 171.724 70.9089C172.267 69.3565 171.479 67.4227 168.6 63.4462C167.296 61.6214 166.59 60.9677 165.829 60.8043C165.503 60.7498 165.042 60.6953 164.824 60.7498L164.39 60.8043L164.281 60.2596C164.091 59.3063 163.71 56.9912 163.439 54.894C162.977 51.3533 162.977 51.5439 163.385 50.2094C163.928 48.3845 164.851 46.1784 166.074 43.6727C166.699 42.3926 167.649 40.2137 168.22 38.7701C168.79 37.3266 169.551 35.4473 169.904 34.603C171.425 31.0078 171.805 29.2374 171.833 25.2065C171.86 22.5373 171.833 22.4556 171.561 21.3661C171.398 20.767 170.99 19.6775 170.637 18.9694C170.094 17.8254 169.904 17.5803 169.007 16.6815C168.03 15.701 167.731 15.5103 166.59 15.1563C166.481 15.129 166.155 14.6388 165.856 14.0668C164.716 11.8062 162.542 10.3082 160.804 10.6078C160.424 10.6623 160.369 10.6623 160.369 10.4716C160.369 10.1448 160.777 9.79073 161.293 9.65455C161.89 9.49113 162.841 9.65455 163.629 10.0359C164.227 10.3355 164.281 10.281 163.846 9.84521C163.412 9.40943 162.542 9.08259 161.755 9.00088C160.94 8.94641 160.668 9.00088 160.125 9.35495L159.717 9.62732L159.554 9.38219C159.554 9.38219 159.201 8.72852 158.957 8.23827C158.441 7.20329 157.816 6.52238 156.403 5.46016C154.203 3.79875 151.731 2.98166 148.797 2.98166C147.249 2.98166 146.407 3.11784 144.75 3.6081L143.799 3.88046L142.034 3.3085C138.882 2.30075 136.411 2.05563 133.966 2.51865C129.619 3.36297 126.414 5.81423 124.132 10.0903C123.589 11.0981 123.535 11.1798 122.53 11.5611C121.008 12.1875 119.46 13.4949 118.727 14.775C117.939 16.1095 117.26 18.3429 117.097 20.0316C116.961 21.6658 117.45 23.7085 118.401 25.3699C119.297 27.0041 121.606 28.9378 124.322 30.4086C126.333 31.498 127.148 31.9883 127.202 32.1517C127.229 32.2607 127.283 32.7509 127.311 33.2412C127.528 35.9648 128.18 39.8868 128.886 42.8283C129.728 46.2873 130.462 48.6024 131.548 51.0809C133.287 55.0029 135.079 57.7266 137.579 60.2051C140.241 62.8742 142.251 64.0182 144.288 64.0182C145.375 64.0182 146.081 63.773 147.358 62.9287C148.39 62.275 148.363 62.275 148.553 63.1466C148.662 63.6913 148.662 63.7186 148.2 64.5357C147.955 64.9987 147.358 65.9247 146.869 66.6601C145.972 67.9947 145.185 69.3292 144.451 70.8272L143.989 71.726L143.5 71.6716C142.658 71.5898 140.132 72.2708 137.035 73.4147C133.667 74.6948 131.711 75.8115 130.108 77.4184C126.387 81.177 123.671 88.7215 122.421 98.9351C122.095 101.495 122.041 102.312 121.579 108.549C121.226 113.261 120.873 121.296 121.008 121.187C121.171 121.024 121.633 117.047 122.041 112.499C122.095 111.763 122.204 110.619 122.285 109.939C122.34 109.258 122.53 107.269 122.665 105.499C123.29 98.2269 123.942 93.9781 125.029 89.8382C125.952 86.3519 127.555 82.5388 129.076 80.2237C129.782 79.1343 131.385 77.5274 132.499 76.7647C133.504 76.0838 135.65 75.0216 137.551 74.2862C138.937 73.7415 142.359 72.7065 143.283 72.5704C143.935 72.4614 143.908 72.3797 144.098 73.7143C144.152 74.2045 144.397 75.294 144.587 76.1655C145.076 78.1266 145.864 81.9941 145.864 82.3754C145.864 82.8112 146.054 83.2197 146.271 83.2197C146.407 83.2197 148.634 81.5311 150.346 80.0876L150.753 79.7335L150.862 79.9786C150.916 80.1148 151.161 80.7685 151.378 81.4221C151.595 82.0486 152.03 83.247 152.329 84.0641L152.872 85.5348L152.6 86.5698C151.296 91.3634 150.617 97.9273 149.993 111.164C149.884 113.289 149.857 121.051 149.938 120.67C149.938 120.561 150.047 118.926 150.156 116.993C150.509 109.612 151.079 101.631 151.541 96.8651C151.84 93.8964 152.193 91.3906 152.818 88.2857C153.361 85.3986 153.442 85.1807 155.425 81.0953C156.159 79.5973 156.865 78.0721 157.055 77.718C157.245 77.2822 157.463 76.9826 157.68 76.8737C158.413 76.4651 159.989 75.1578 160.967 74.1228C163.086 71.8895 164.525 69.4927 165.449 66.6329C166.128 64.5629 166.264 63.7458 165.693 65.1348C165.123 66.5239 165.069 66.5784 165.069 65.843C165.069 65.4889 164.96 64.6446 164.851 63.9637C164.743 63.2828 164.607 62.4657 164.58 62.1661L164.498 61.6486H165.205C165.693 61.6486 166.019 61.7031 166.264 61.8665C166.617 62.0844 169.089 65.3255 170.121 66.9324C170.936 68.1853 171.398 69.1931 171.479 69.8195C171.534 70.2008 171.452 70.4732 171.072 71.3175C170.827 71.8622 170.61 72.3525 170.61 72.4069C170.61 72.5976 169.089 75.0761 168.057 76.5741C166.182 79.2705 164.091 81.8307 162.787 82.9746C162.407 83.3015 162.053 83.6555 162.026 83.7372C161.918 83.9824 162.081 84.2275 162.352 84.2275C162.733 84.2275 165.395 81.4494 166.997 79.3794C167.948 78.1538 169.904 75.2123 170.665 73.8777C171.018 73.2785 171.316 72.7882 171.316 72.7882C171.425 72.7882 175.174 74.2318 176.45 74.7765C178.379 75.5936 181.584 77.0643 184.382 78.4261C191.038 81.6673 193.455 83.71 196.199 88.3402C198.779 92.698 200.735 99.507 202.773 111.082C204.076 118.518 204.918 125.981 205.489 134.914C205.869 141.124 205.951 142.704 205.896 142.949C205.761 143.494 204.864 144.774 203.778 146.027C202.256 147.742 201.767 148.396 201.387 149.159C201.197 149.513 201.088 149.812 201.115 149.812C201.143 149.812 201.441 149.513 201.767 149.132M153.388 84.0096C153.578 83.2197 153.442 80.5233 153.171 78.9164C152.953 77.7725 152.573 75.8932 152.247 74.7493L152.139 74.3135L151.595 75.185C151.296 75.6753 150.889 76.22 150.699 76.4651C150.264 76.9282 150.346 76.7647 150.943 75.8659C151.378 75.2395 151.65 74.6131 151.921 73.7143C152.03 73.2785 152.03 73.1151 151.704 71.835C150.808 68.2943 149.721 64.8897 149.476 64.7535C149.341 64.6718 147.656 67.0414 146.57 68.8935C145.429 70.8272 144.777 72.1618 144.696 72.761C144.614 73.3057 144.777 74.4497 145.13 75.8387C145.266 76.4107 145.538 77.6635 145.674 78.6168C145.836 79.5701 146.081 80.7685 146.19 81.3132L146.407 82.2937L147.14 81.6945C148.444 80.6595 149.504 79.9514 150.047 79.7063C150.319 79.5973 150.563 79.4611 150.59 79.4611C150.699 79.3522 150.128 78.6985 148.444 76.9282C146.679 75.0761 146.108 74.4224 146.217 74.4224C146.244 74.4224 146.733 74.8037 147.303 75.2667C148.634 76.3834 150.128 77.8814 150.59 78.5623C150.889 78.9981 151.65 80.8502 152.872 84.173C152.953 84.4181 153.089 84.6633 153.144 84.6633C153.198 84.6633 153.334 84.3909 153.388 84.0913M147.439 70.6093C147.602 70.3097 147.982 69.7105 148.281 69.2748C148.58 68.839 148.797 68.4849 148.77 68.4849C148.662 68.4849 147.602 70.0646 147.331 70.6093C147.168 70.9089 147.086 71.1541 147.113 71.1541C147.14 71.1541 147.303 70.9089 147.466 70.6093M154.448 82.3482C154.638 81.6945 156.431 77.5001 156.811 76.7647C157.082 76.2745 157.544 75.8115 157.707 75.8659C157.897 75.9477 160.152 73.796 161.184 72.5431C163.059 70.2825 164.906 67.0686 164.553 66.6329C164.281 66.306 163.303 61.6758 162.434 56.6371C161.89 53.4777 161.537 49.4468 161.537 46.6687V44.8983H161.239C161.076 44.8983 160.722 44.7621 160.451 44.6259L159.962 44.3808H160.804C161.809 44.3263 162.053 44.2446 163.222 43.482C164.743 42.4743 165.449 41.6572 165.856 40.2681C166.182 39.2059 166.101 37.8169 165.693 37.027C164.879 35.4201 162.923 34.6575 161.157 35.2839C159.826 35.7469 158.875 36.6457 158.359 37.8986L158.169 38.3344L156.811 38.2526C156.077 38.1982 155.235 38.1437 154.991 38.1165L154.556 38.062L154.61 37.2177C154.665 35.9376 154.42 33.7314 154.122 32.7509C153.66 31.3074 152.465 29.9183 151.133 29.2919C150.509 28.9923 150.4 28.9378 150.319 28.5565C150.128 27.7667 149.938 24.0353 149.993 22.1015C150.02 21.0393 150.047 20.195 150.02 20.1678C150.02 20.1678 149.476 20.3584 148.879 20.5491C148.281 20.7397 147.168 21.0393 146.461 21.1483C144.152 21.5568 140.974 21.584 140.485 21.2027C140.295 21.0666 140.322 21.0393 140.675 20.8214C140.893 20.7125 141.246 20.5763 141.49 20.5218C141.735 20.4674 142.115 20.3584 142.332 20.2767L142.74 20.086L142.359 20.0043C142.142 19.9499 141.463 19.8954 140.811 19.8954C139.725 19.8954 139.562 19.8954 138.421 20.2767C136.981 20.767 135.107 21.6658 134.618 22.1015L134.265 22.4011L134.346 22.0198C134.455 21.5568 135.324 19.7864 135.677 19.2962L135.949 18.9421L135.514 18.8332C134.917 18.6698 134.591 18.697 133.748 18.9421C131.765 19.5413 130.027 20.9304 128.968 22.7007C128.479 23.5178 127.718 26.3232 127.718 27.2764C127.718 27.4671 127.745 27.4671 128.071 27.2219C128.261 27.0585 128.642 26.8951 128.886 26.8406C129.131 26.7862 129.538 26.65 129.782 26.5955C130.706 26.3232 131.847 26.8406 132.363 27.7667C132.553 28.0663 132.689 28.3659 132.689 28.4203C132.689 28.4476 132.445 28.4203 132.119 28.3386C131.82 28.2569 131.331 28.2025 131.114 28.2025C130.543 28.2025 129.266 28.8289 128.506 29.4826L127.908 30.0001V30.7082C127.908 31.5253 128.343 35.2022 128.75 37.7352C129.266 40.8946 130.625 46.0967 131.738 49.0654C132.608 51.4078 134.265 54.3493 135.976 56.5827C137.877 59.0612 139.833 60.8315 141.708 61.7303C144.071 62.8742 145.402 62.8198 147.684 61.5124C148.988 60.777 149.748 60.1778 150.672 59.1973C151.84 57.9445 152.763 56.3103 153.334 54.5399L153.524 53.9407L154.122 55.1664C154.909 56.8005 155.099 57.6449 155.018 59.4152C154.964 61.0494 154.665 62.0844 153.877 63.6641C153.225 64.917 152.736 65.5706 152.003 66.1426C151.242 66.7418 151.242 66.8235 151.84 69.1386C152.492 71.7533 153.144 75.0761 153.497 77.718C153.714 79.2977 153.931 81.7217 153.931 82.3209C153.931 82.6478 153.986 82.9201 154.04 82.9746C154.094 82.9746 154.257 82.7022 154.366 82.3209M146.814 54.5127C147.168 54.4038 147.928 53.5867 148.2 52.9875C148.607 52.1431 148.716 51.3261 148.662 50.0732C148.634 49.1744 148.553 48.8476 148.336 48.3301C148.01 47.5947 147.901 47.513 148.037 48.1122C148.091 48.3573 148.145 49.1744 148.091 50.0187C148.064 51.2171 147.982 51.6529 147.792 52.1704C147.493 52.9058 146.706 53.8318 146.108 54.1586C145.864 54.2676 145.701 54.431 145.728 54.4855C145.782 54.5944 146.434 54.6216 146.787 54.5399M140.132 51.898C140.132 51.898 140.186 51.7618 140.132 51.7346C140.132 51.7346 139.67 51.435 139.154 51.0809C137.008 49.6646 136.193 48.3301 135.922 45.7426C135.813 44.5987 135.813 44.2446 136.03 42.1747C136.329 39.4783 136.302 37.7624 135.922 35.3928C135.813 34.603 135.623 33.2139 135.514 32.3424C135.405 31.4436 135.27 30.2452 135.188 29.6732C135.079 28.9651 135.043 29.4099 135.079 31.0078C135.107 32.6964 135.215 34.031 135.405 35.6107C135.759 38.2799 135.759 39.2331 135.46 41.8478C135.188 44.1357 135.215 46.5052 135.514 47.6492C135.759 48.548 136.356 49.7736 136.899 50.3728C137.47 51.0265 138.339 51.5984 139.1 51.8435C139.779 52.0614 139.996 52.0614 140.078 51.898M160.587 41.0307C161.048 38.6067 163.194 37.3811 164.498 38.7429C164.824 39.0697 164.879 39.097 164.879 38.9335C164.879 38.6067 164.417 37.7624 164.091 37.5173C163.928 37.4083 163.575 37.2721 163.303 37.2449C161.782 37.0815 160.342 38.6884 160.288 40.7039C160.233 41.7389 160.424 41.9295 160.587 41.0307ZM132.526 41.0035C132.771 40.2137 132.58 38.1982 132.254 38.1982C132.037 38.1982 131.82 38.8518 131.847 39.5327C131.847 40.0502 131.928 40.3771 132.146 40.8129L132.417 41.3576L132.526 41.0035ZM143.283 39.6962C143.337 39.5328 143.365 39.1514 143.337 38.8518C143.256 38.1165 142.251 36.0193 142.006 36.0193C141.735 36.0193 141.898 37.0815 142.359 38.4705C142.957 40.1592 143.066 40.3226 143.31 39.7234M146.57 31.0078C146.57 31.0078 146.461 30.5175 146.217 30.0273C145.293 28.148 143.202 26.7045 141.3 26.65C140.349 26.5955 140.051 27.0041 140.458 27.7667C140.757 28.3659 141.11 28.5838 141.898 28.6927C142.794 28.8289 143.908 29.3736 145.402 30.4358C145.945 30.8171 146.407 31.1167 146.434 31.1167C146.461 31.1167 146.516 31.0623 146.57 31.0078Z" fill="#101610"/>
<path fill-rule="evenodd" clip-rule="evenodd" d="M128.805 145.945C128.805 145.945 128.561 145.836 128.316 145.836C127.583 145.836 126.496 145.618 124.758 145.1C122.639 144.474 121.661 144.065 119.624 142.976C117.831 141.996 117.288 141.669 116.799 141.151C116.5 140.852 116.5 140.797 116.717 140.879C117.07 140.988 117.668 140.634 118.537 139.871C119.569 138.972 119.732 138.618 119.922 137.202C120.004 136.548 120.085 135.922 120.085 135.84C120.085 135.758 119.868 136.14 119.597 136.684C118.646 138.564 118.265 138.727 114.517 138.645C111.963 138.591 110.822 138.455 110.198 138.128L109.953 138.019L110.171 138.264C110.768 138.918 111.936 139.354 113.729 139.49C114.517 139.572 115.223 139.708 115.712 139.871C116.554 140.171 117.505 140.225 117.885 140.035C118.293 139.817 118.238 140.035 117.804 140.28C117.233 140.634 116.473 140.715 116.174 140.416C115.766 140.062 115.413 139.898 115.277 140.035C115.114 140.198 115.631 141.206 116.12 141.723C117.994 143.711 121.797 145.645 124.513 145.945C125.844 146.081 128.859 146.081 128.778 145.945" fill="#101610"/>
<path fill-rule="evenodd" clip-rule="evenodd" d="M168.302 144.583C168.655 144.202 169.144 143.63 169.361 143.303L169.768 142.731L170.285 142.895C172.403 143.548 178.488 144.828 179.276 144.828C179.385 144.828 177.347 144.284 174.794 143.657C172.24 143.031 170.094 142.459 170.04 142.377C169.986 142.323 170.013 142.023 170.094 141.642C170.502 140.171 170.638 136.358 170.312 135.759C170.23 135.595 170.176 136.113 170.149 137.747C170.067 141.179 169.85 141.832 168.166 144.229C167.813 144.719 167.541 145.182 167.568 145.21C167.595 145.21 167.921 144.937 168.274 144.556" fill="#101610"/>
<path fill-rule="evenodd" clip-rule="evenodd" d="M127.284 140.879C126.903 140.715 126.17 140.47 125.654 140.334C125.138 140.198 124.676 140.034 124.676 140.007C124.649 139.98 124.676 139.871 124.785 139.762C124.893 139.653 125.083 139.163 125.219 138.673C125.464 137.883 125.491 137.556 125.491 136.112C125.491 134.669 125.464 134.369 125.192 133.552C125.029 133.062 124.812 132.572 124.73 132.436C124.594 132.245 124.594 132.245 124.676 132.681C125.083 134.506 125.002 136.766 124.486 138.509C124.323 139.027 124.187 139.571 124.187 139.708C124.187 139.844 124.133 139.953 124.051 139.953C123.834 139.953 123.888 140.252 124.105 140.389C124.214 140.443 124.54 140.525 124.839 140.552C125.138 140.606 125.871 140.743 126.469 140.906C127.881 141.26 128.18 141.26 127.311 140.906" fill="#101610"/>
<path fill-rule="evenodd" clip-rule="evenodd" d="M111.04 137.147C113.104 135.922 113.756 135.431 114.68 134.505L115.522 133.661L116.663 133.852C117.288 133.961 118.428 134.206 119.189 134.396C121.362 134.914 122.068 134.832 123.101 133.879C123.861 133.171 124.269 132.354 124.16 131.727L124.106 131.319L125.899 131.264C127.746 131.21 128.561 131.046 128.18 130.828C127.963 130.719 123.916 130.474 123.78 130.583C123.725 130.583 123.725 130.747 123.753 130.883C123.78 131.019 123.698 130.883 123.535 130.529C123.399 130.175 122.693 128.677 121.96 127.206C118.7 120.397 118.075 119.09 116.907 116.529C115.223 112.825 114.843 112.144 114.218 111.518C113.267 110.565 112.452 110.265 109.519 109.748C107.536 109.393 106.368 109.148 103.597 108.467C101.668 107.977 100.962 107.895 100.337 108.086C99.658 108.277 98.8159 109.067 98.5714 109.693C98.2998 110.401 98.4628 110.946 99.4135 113.016C99.8481 113.915 100.364 115.059 100.582 115.522L100.962 116.366L100.419 117.292C100.011 117.973 99.5222 118.572 98.5443 119.553C96.9144 121.187 96.7243 121.541 96.9144 122.739C96.9687 123.175 97.186 123.774 97.349 124.128C97.6478 124.727 98.7344 126.089 98.8159 126.008C98.8159 126.008 98.5714 125.463 98.1911 124.836C96.8601 122.63 97.0231 121.623 98.8974 120.315C99.6037 119.825 99.7395 119.662 100.5 118.354C100.962 117.564 101.396 116.938 101.478 116.938C101.695 116.938 102.293 117.728 102.429 118.191C102.537 118.518 102.51 118.763 102.429 119.307C102.211 120.37 101.668 121.704 101.234 122.167C101.043 122.385 100.853 122.63 100.853 122.685C100.853 122.739 100.636 123.039 100.364 123.366C99.7395 124.101 99.3863 124.809 99.4678 125.136C99.5222 125.408 99.169 126.77 98.8159 127.397C98.4628 128.078 98.5986 128.05 99.006 127.342C99.2234 126.988 99.495 126.334 99.6037 125.953C99.8481 125.163 100.038 124.918 100.745 124.428C101.641 123.829 102.619 123.393 104.357 122.903C105.933 122.467 106.205 122.412 107.264 122.412C109.301 122.412 111.176 123.148 110.578 123.693C110.496 123.774 109.573 124.047 108.513 124.346C106.232 124.973 103.868 125.762 103.135 126.171C102.266 126.634 101.396 127.56 100.935 128.541C100.446 129.548 100.12 130.937 100.283 131.4C100.391 131.673 100.391 131.673 100.391 131.182C100.391 130.747 100.5 130.502 100.853 129.902C101.505 128.84 102.103 128.105 102.646 127.669C104.113 126.471 110.143 124.428 112.235 124.428C112.67 124.428 113.131 124.809 113.131 125.163C113.131 125.381 112.968 125.545 112.398 125.926C111.121 126.743 110.062 127.288 108.649 127.832C107.101 128.432 104.765 129.521 104.249 129.902C103.651 130.338 102.646 132 102.429 132.898C102.239 133.77 102.211 135.105 102.374 135.676C102.483 136.112 102.972 136.657 103.108 136.521C103.162 136.466 103.054 136.33 102.891 136.167C102.103 135.431 102.592 132.844 103.76 131.564C104.303 130.965 105.335 130.365 107.481 129.385C108.405 128.949 109.546 128.432 109.953 128.186C112.751 126.661 113.729 126.362 114.272 126.906C114.653 127.288 114.571 127.506 113.756 128.377C112.996 129.167 112.479 129.494 108.758 131.4C107.617 131.972 106.34 132.68 105.987 132.953C105.227 133.498 104.303 134.396 104.412 134.533C104.52 134.641 105.308 134.287 106.232 133.715C106.693 133.443 107.997 132.735 109.165 132.163C110.306 131.591 111.529 130.937 111.828 130.719L112.398 130.284L112.181 130.665C111.773 131.346 110.985 132.109 109.709 133.089C108.269 134.178 107.834 134.533 107.318 135.186L106.965 135.622L107.508 135.132C107.807 134.859 108.242 134.56 108.432 134.478C108.649 134.369 109.165 134.042 109.546 133.743C110.714 132.817 111.23 132.463 111.447 132.463C111.556 132.463 111.828 132.544 112.072 132.68C112.289 132.789 113.023 133.062 113.648 133.252C114.299 133.443 114.843 133.607 114.843 133.634C114.924 133.715 113.946 134.533 112.968 135.213C112.018 135.867 109.6 137.093 108.867 137.311C108.731 137.365 108.323 137.501 107.97 137.637C107.4 137.855 107.373 137.883 107.671 137.964C107.834 138.019 108.351 138.046 108.812 138.046H109.654L111.013 137.229M122.802 131.7C122.747 131.428 120.52 126.906 117.505 120.833C116.445 118.708 115.277 116.311 114.897 115.467C114.517 114.623 114.136 113.887 114.055 113.833C113.702 113.533 117.288 121.105 121.009 128.486C122.585 131.591 122.938 132.272 122.802 131.7ZM101.668 122.93C101.668 122.93 102.347 122.63 102.972 122.44C103.57 122.249 104.086 122.031 104.059 121.977C104.059 121.922 103.76 121.35 103.434 120.669L102.836 119.444V119.961C102.836 120.506 102.293 121.949 101.94 122.494C101.831 122.658 101.587 122.848 101.396 122.93C101.152 123.012 101.125 123.066 101.288 123.066C101.396 123.066 101.587 123.012 101.722 122.93M107.889 117.537C107.889 116.529 107.237 115.358 106.177 115.195C105.879 115.14 105.553 115.276 105.444 115.549C105.39 115.712 105.444 115.876 105.471 116.039C105.661 116.584 105.933 117.21 106.313 117.646C107.536 118.79 107.726 118.599 107.862 117.51M111.447 112.063C111.447 111.845 110.904 111.491 110.252 111.273C109.872 111.137 108.948 110.919 108.215 110.755C107.481 110.592 106.666 110.428 106.422 110.374C106.177 110.319 105.743 110.211 105.471 110.156C105.199 110.102 104.33 109.938 103.542 109.775C102.755 109.611 102.103 109.502 102.076 109.53C102.048 109.53 102.293 109.639 102.619 109.72C102.945 109.802 103.95 110.047 104.874 110.292C107.128 110.864 109.682 111.491 110.171 111.572C110.388 111.6 110.714 111.763 110.85 111.926C111.148 112.199 111.474 112.281 111.474 112.117" fill="#101610"/>
<path fill-rule="evenodd" clip-rule="evenodd" d="M102.021 133.498C102.021 133.498 101.749 133.171 101.396 132.899C101.043 132.654 100.663 132.272 100.554 132.109L100.364 131.782V132.082C100.364 132.245 100.473 132.545 100.636 132.735C100.934 133.09 102.021 133.716 102.021 133.525" fill="#101610"/>
<path fill-rule="evenodd" clip-rule="evenodd" d="M152.872 113.969C152.926 111.654 153.334 104.409 153.415 103.946C153.415 103.783 153.551 102.802 153.687 101.713C153.796 100.623 153.986 99.1798 154.094 98.4989C154.176 97.7907 154.393 95.9659 154.583 94.4134C154.774 92.8609 155.045 90.7365 155.181 89.7015C155.588 86.9779 155.616 86.8962 155.534 86.9507C155.344 87.1141 154.556 91.0634 154.285 93.0516C153.823 96.5651 153.062 104.6 152.899 107.514C152.791 110.074 152.655 116.175 152.709 116.175C152.736 116.175 152.791 115.195 152.818 113.969" fill="#101610"/>
<path fill-rule="evenodd" clip-rule="evenodd" d="M183.84 91.9079C184.437 90.4099 186.257 88.3672 187.724 87.659C188.159 87.4411 188.458 87.2505 188.376 87.2505C188.295 87.2505 187.806 87.4411 187.29 87.7135C185.714 88.5034 184.193 90.2465 183.677 91.8534C183.459 92.5616 183.568 92.616 183.84 91.9079Z" fill="#101610"/>
<path fill-rule="evenodd" clip-rule="evenodd" d="M162.108 83.1656C162.108 82.5664 160.614 80.442 159.392 79.2709C158.468 78.3993 158.333 78.3993 159.175 79.2709C160.153 80.2514 161.511 82.1307 161.701 82.7299C161.945 83.3835 162.108 83.5742 162.108 83.1656Z" fill="#101610"/>
<path fill-rule="evenodd" clip-rule="evenodd" d="M159.854 9.16453C160.044 8.42915 159.636 7.06734 159.039 6.41367C158.631 5.97789 158.496 6.03236 158.822 6.46814C159.31 7.12181 159.555 7.74824 159.664 8.6198C159.745 9.219 159.799 9.35519 159.854 9.16453Z" fill="#101610"/>
<path d="M90.2861 154.143C90.4219 154.415 97.1315 168.17 97.1315 168.17L34.002 167.816L38.2668 154.987L90.2861 154.143Z" fill="#101610"/>
<path d="M116.853 168.17H101.505L87.6785 138.673L101.315 142.377L116.853 168.17Z" fill="#101610"/>
<path d="M99.3047 138.672L93.6002 129.031H82.8432L86.456 135.595L99.3047 138.672Z" fill="#101610"/>
<path d="M44.9221 128.95C43.6453 132.109 42.3686 135.241 41.0919 138.401L29.3027 136.276C30.5522 133.635 31.8289 131.02 33.0785 128.378C37.0173 128.569 40.9833 128.759 44.9221 128.95Z" fill="#101610"/>
<path d="M88.6837 150.575L79.0948 129.031H47.6387L40.0599 151.283L88.6837 150.575Z" fill="#101610"/>
<path d="M46.7145 91.9077C49.5396 85.6434 56.1948 79.1884 65.0232 79.4335C73.9058 79.7059 80.2894 86.5967 82.6799 93.2968C85.9667 102.612 81.213 110.755 80.5339 111.899C75.0467 122.058 69.5596 132.217 64.0453 142.349C58.8298 132.435 53.6142 122.521 48.3987 112.607C47.9098 111.845 42.0695 102.203 46.6874 91.8805L46.7145 91.9077ZM63.502 106.969C67.4679 107.215 70.456 103.756 70.6733 100.814C70.8091 98.7441 69.5596 96.8103 69.3151 96.4562C69.0435 96.0477 68.5273 95.285 67.5766 94.6314C66.6802 94.0322 65.7566 93.7598 64.996 93.6509C64.996 93.6509 64.9688 93.6509 64.9417 93.6509C64.7787 93.6509 64.6157 93.6236 64.4799 93.5964C64.3984 93.5964 64.3441 93.5964 64.2626 93.5964C64.0452 93.5964 63.8823 93.5964 63.7193 93.5964C60.6497 93.7598 57.0641 96.4017 57.0912 100.351C57.0912 103.919 60.0521 106.806 63.4748 106.997L63.502 106.969Z" fill="white"/>
<path d="M77.682 116.121L67.6584 105.499C64.8605 107.16 61.2749 106.67 59.0202 104.328C56.7384 101.958 56.3853 98.2267 58.2596 95.4486C55.4889 92.5071 52.7453 89.5655 49.9746 86.624C48.4534 89.7562 46.9594 92.8884 45.4382 96.0205C54.7555 105.717 64.0456 115.386 73.3629 125.082C74.8026 122.086 76.2423 119.117 77.682 116.121Z" fill="#CBEED7"/>
<path d="M63.6653 92.3438C64.3444 91.9624 64.9692 91.9624 65.7298 92.1531C66.7348 92.3982 67.6041 92.7523 68.3647 93.4604C69.3698 94.3592 70.076 95.6121 70.5378 96.865C71.7874 100.242 70.5921 104.11 67.5769 106.125C64.5617 108.141 60.8131 107.433 58.5313 104.818C56.1952 102.149 56.0322 97.7365 58.1238 94.8767C59.156 93.4604 60.6501 92.4255 62.3614 91.9897C63.285 91.7445 64.3172 91.7718 65.2408 92.0714C65.6754 92.2076 66.1916 92.371 66.5447 92.6706C66.8978 92.9702 67.2509 93.2153 67.5769 93.5149C67.6856 93.6239 67.6856 94.2503 67.4954 94.1686C67.251 94.0596 66.9522 93.9235 66.6805 93.8962C66.5175 93.8962 66.3545 93.8962 66.1916 93.8962C65.9742 93.869 65.7841 93.8145 65.5668 93.76C64.779 93.6511 63.9369 93.6783 63.1763 93.8417C61.8453 94.1141 60.6229 94.6588 59.5907 95.5304C58.6128 96.3475 57.7978 97.4642 57.5534 98.717C57.3089 99.9699 57.7707 101.277 58.5041 102.312C60.1611 104.682 63.3936 105.798 66.1372 104.709C67.4411 104.192 68.582 103.266 69.3698 102.094C70.076 101.032 70.4292 100.024 70.1304 98.7987C69.8315 97.5731 69.1524 96.402 68.3104 95.5304C67.6041 94.795 66.6262 94.1413 65.6211 93.8417C65.2408 93.7328 64.8334 93.6783 64.4531 93.5694C64.1543 93.4877 63.9098 93.3515 63.6381 93.2153C63.448 93.1064 63.4751 92.3982 63.6381 92.2893L63.6653 92.3438Z" fill="#101610"/>
<path d="M71.8688 126.526L45.0578 99.5073C45.0578 99.5073 44.7862 104.927 45.0578 105.118C45.3295 105.309 71.4071 128.323 71.4071 128.323L71.8688 126.526Z" fill="#CBEED7"/>
<path d="M63.9371 141.614C60.8676 135.813 57.8252 130.012 54.7556 124.21C59.0476 127.642 63.3395 131.074 67.6586 134.479C66.409 136.848 65.1867 139.218 63.9643 141.587L63.9371 141.614Z" fill="#CBEED7"/>
<path d="M82.8432 103.702C82.9518 103.429 61.2205 80.3057 61.2205 80.3057L57.9337 80.9593L82.4085 105.581L82.8703 103.674L82.8432 103.702Z" fill="#CBEED7"/>
<path d="M83.7937 100.269L65.5123 79.9238L63.8553 80.3051L83.7394 101.631L83.7937 100.269Z" fill="#CBEED7"/>
<path d="M63.801 142.132C64.9963 139.055 66.6533 136.14 68.1745 133.199C69.6957 130.257 71.2169 127.397 72.7652 124.51C75.3458 119.717 77.9536 114.923 80.5342 110.13C80.833 109.558 81.1318 108.958 81.3762 108.359C81.4577 108.169 81.5392 108.005 81.5936 107.815C81.6207 107.706 81.675 107.624 81.7022 107.515C81.6207 107.76 81.7294 107.406 81.7565 107.406C81.9195 106.943 82.0825 106.453 82.2455 105.99C82.8974 103.838 83.1691 101.904 83.1419 99.6437C83.1419 98.6087 82.9246 97.1107 82.6258 95.9395C82.327 94.7684 81.9467 93.6789 81.4577 92.5895C80.5613 90.6285 79.3661 88.8036 77.9264 87.1967C74.8297 83.7105 70.5377 81.2592 65.8655 80.8779C61.1933 80.4966 56.3309 82.2397 52.6909 85.3991C51.0611 86.8154 49.5942 88.5857 48.5076 90.4651C47.2853 92.5622 46.3345 95.1497 45.9814 97.2469C45.927 97.5737 45.8727 97.9006 45.8455 98.2274C45.8455 98.3908 45.8184 98.5542 45.7912 98.7176C45.7369 99.2351 45.7912 98.3636 45.7912 98.8811C45.7641 99.5347 45.7369 100.216 45.7369 100.869C45.7369 101.36 45.7097 100.488 45.7369 101.005C45.7369 101.142 45.7369 101.305 45.7641 101.441C45.7641 101.741 45.8184 102.013 45.8455 102.313C45.8727 102.612 45.8999 102.885 45.9542 103.157C45.9542 103.212 46.0357 103.675 45.9542 103.266C45.9814 103.457 46.0085 103.62 46.0629 103.811C46.1715 104.328 46.2802 104.846 46.416 105.336C46.4703 105.554 46.5246 105.772 46.6061 105.99C46.6333 106.099 46.6605 106.18 46.6876 106.289C46.6876 106.344 46.8778 106.861 46.742 106.48C47.0136 107.297 47.3124 108.114 47.6656 108.904C47.91 109.476 48.1817 110.048 48.5076 110.593C48.5348 110.647 48.562 110.702 48.5891 110.729C48.6978 110.919 48.4262 110.456 48.5348 110.62C48.5891 110.702 48.6163 110.756 48.6706 110.838C48.7249 110.947 48.7793 111.028 48.8608 111.137C49.7029 112.554 50.4091 114.079 51.1969 115.55C51.9846 117.02 52.6637 118.491 53.3972 119.962C54.864 122.903 56.3309 125.845 57.8249 128.759C59.319 131.674 60.8673 134.533 62.307 137.42C63.0133 138.837 63.6652 140.307 64.3987 141.724C64.5888 142.078 64.5616 142.677 64.3715 143.031C64.1813 143.385 63.9369 143.331 63.7739 143.031C62.9861 141.588 62.1169 140.198 61.3291 138.755C60.5414 137.311 59.7808 135.868 59.0202 134.397C57.4718 131.483 55.8963 128.569 54.2936 125.682C52.6909 122.795 51.0339 119.907 49.4855 116.993C49.1053 116.285 48.725 115.55 48.3447 114.842C48.236 114.651 48.1273 114.433 48.0187 114.242C48.0187 114.242 47.8557 113.97 47.9643 114.106C48.0187 114.188 47.9915 114.161 47.9643 114.133C47.9372 114.079 47.91 114.052 47.8829 113.997C47.6112 113.534 47.3667 113.071 47.1223 112.608C45.1393 108.741 44.0799 104.301 44.1342 99.9433C44.1614 96.8383 44.7862 93.6517 46.1172 90.8464C47.0679 88.8309 48.3718 86.9516 49.8387 85.2629C53.0712 81.5588 57.4175 78.8352 62.307 78.1815C67.1966 77.5278 72.3306 79.1348 76.1879 82.3214C80.0452 85.508 82.5986 89.648 83.7938 94.3054C85.1249 99.4258 84.5001 104.873 82.5171 109.748C82.0825 110.838 81.5392 111.846 80.9688 112.853C79.3389 115.686 77.8449 118.6 76.2694 121.487C73.1183 127.316 69.8858 133.09 66.6261 138.837C66.2458 139.518 65.8383 140.226 65.4309 140.907C65.0234 141.588 64.616 142.16 64.127 142.759C63.8554 143.113 63.7467 142.241 63.801 142.078V142.132Z" fill="#101610"/>
</svg>
