<svg width="74" height="74" viewBox="0 0 74 74" fill="none" xmlns="http://www.w3.org/2000/svg">
<g clip-path="url(#clip0_405_2706)">
<path d="M24.0086 64.2783C23.9032 64.2518 23.8093 64.1917 23.7411 64.107C23.6729 64.0224 23.6341 63.9178 23.6307 63.8092C23.6272 63.7006 23.6593 63.5937 23.722 63.505C23.7847 63.4162 23.8746 63.3502 23.9781 63.3171L26.0843 62.6456L22.2 63.7533C22.0748 63.7863 21.9418 63.7695 21.8287 63.7065C21.7157 63.6434 21.6315 63.539 21.5939 63.4152C21.5563 63.2913 21.5682 63.1577 21.627 63.0425C21.6859 62.9272 21.7871 62.8392 21.9095 62.7971L29.1651 60.4614L19.7671 63.1441C19.6426 63.1769 19.5102 63.1604 19.3976 63.098C19.2849 63.0357 19.2007 62.9323 19.1624 62.8094C19.1241 62.6865 19.1347 62.5535 19.1919 62.4382C19.2492 62.3229 19.3487 62.2341 19.4698 62.1904L38.551 55.7398L15.9606 62.191C15.8358 62.2239 15.7031 62.2072 15.5903 62.1445C15.4775 62.0818 15.3933 61.9779 15.3554 61.8545C15.3174 61.7312 15.3286 61.598 15.3867 61.4827C15.4447 61.3674 15.545 61.279 15.6667 61.236L33.7303 55.3296L12.6255 61.356C12.5002 61.39 12.3666 61.374 12.2529 61.3113C12.1392 61.2485 12.0543 61.144 12.0163 61.0199C11.9783 60.8957 11.99 60.7616 12.0491 60.646C12.1082 60.5303 12.21 60.4422 12.3329 60.4003L32.9314 53.7029L9.1731 60.4915C9.04855 60.5227 8.91679 60.5048 8.80511 60.4414C8.69343 60.3781 8.61038 60.2743 8.57317 60.1514C8.53596 60.0285 8.54744 59.8961 8.60524 59.7814C8.66303 59.6668 8.7627 59.5788 8.88361 59.5356L28.8481 53.1639L7.36979 59.2988C7.24481 59.3309 7.11224 59.3135 6.99982 59.2501C6.88741 59.1867 6.80384 59.0824 6.76661 58.9588C6.72938 58.8352 6.74136 58.7021 6.80005 58.5871C6.85874 58.4722 6.9596 58.3844 7.08152 58.3421L29.231 51.2723L7.34837 57.5234C7.22302 57.5558 7.08999 57.5383 6.97729 57.4746C6.86459 57.4109 6.78099 57.306 6.74408 57.1819C6.70718 57.0578 6.71984 56.9242 6.77941 56.8093C6.83899 56.6943 6.94082 56.607 7.06349 56.5656L14.7714 54.1896L7.67602 56.2148C7.55159 56.2453 7.42023 56.2267 7.30904 56.1631C7.19785 56.0995 7.11532 55.9957 7.07846 55.873C7.04161 55.7503 7.05325 55.6182 7.11098 55.5038C7.16871 55.3894 7.26813 55.3016 7.38872 55.2584L26.9806 49.0615L8.11687 54.4542C7.99173 54.4872 7.85866 54.4705 7.74564 54.4074C7.63262 54.3443 7.54845 54.2399 7.51083 54.1161C7.47322 53.9922 7.48508 53.8586 7.54394 53.7434C7.60279 53.6281 7.70405 53.5402 7.82641 53.498L33.8162 45.097L8.66021 52.2842C8.53448 52.3187 8.40025 52.3027 8.28614 52.2396C8.17203 52.1766 8.08705 52.0715 8.04933 51.9467C8.01161 51.8219 8.02413 51.6873 8.08421 51.5716C8.14429 51.4559 8.24719 51.3682 8.37097 51.3273L32.7673 43.4933L9.17391 50.2325C9.04948 50.2629 8.91812 50.2444 8.80693 50.1808C8.69574 50.1172 8.61321 50.0133 8.57635 49.8907C8.5395 49.768 8.55114 49.6358 8.60887 49.5215C8.6666 49.4071 8.76602 49.3193 8.88661 49.2761L26.8261 43.6303L9.59508 48.5504C9.46956 48.5838 9.33599 48.567 9.22264 48.5036C9.10929 48.4402 9.02505 48.3352 8.98775 48.2108C8.95045 48.0864 8.96302 47.9524 9.02279 47.8371C9.08257 47.7218 9.18486 47.6343 9.30802 47.5931L29.337 41.252L10.0425 46.7636C9.91782 46.7956 9.78563 46.7783 9.67341 46.7152C9.5612 46.6522 9.4776 46.5484 9.44003 46.4253C9.40245 46.3022 9.41379 46.1693 9.47168 46.0544C9.52956 45.9394 9.62955 45.8512 9.75082 45.8081L34.3677 37.8015L10.5851 44.5965C10.4581 44.6347 10.3211 44.6209 10.2043 44.5581C10.0875 44.4953 10.0005 44.3887 9.96226 44.2617C9.92407 44.1347 9.93788 43.9977 10.0007 43.8809C10.0635 43.7641 10.1701 43.6771 10.2971 43.6389L25.3183 38.8654L10.9951 42.9591C10.8707 42.991 10.7388 42.9738 10.6268 42.9112C10.5147 42.8485 10.431 42.7451 10.3931 42.6225C10.3551 42.4998 10.3659 42.3672 10.423 42.2522C10.4802 42.1373 10.5793 42.0487 10.7 42.0048L31.9305 34.9409L11.5445 40.7648C11.419 40.8001 11.2846 40.7849 11.1701 40.7225C11.0556 40.6601 10.97 40.5555 10.9315 40.4309C10.8931 40.3063 10.9048 40.1716 10.9642 40.0555C11.0237 39.9395 11.1261 39.8512 11.2497 39.8096L29.0685 33.8511L12.0585 38.7122C11.934 38.7449 11.8016 38.7284 11.689 38.6661C11.5763 38.6037 11.4921 38.5003 11.4538 38.3774C11.4155 38.2545 11.4261 38.1215 11.4833 38.0062C11.5406 37.8909 11.6401 37.8021 11.7612 37.7584L27.3504 32.4787L12.5617 36.7022C12.4372 36.7334 12.3054 36.7154 12.1937 36.6521C12.082 36.5888 11.999 36.4849 11.9618 36.3621C11.9246 36.2392 11.9361 36.1067 11.9939 35.9921C12.0516 35.8774 12.1513 35.7894 12.2722 35.7463L14.5288 35.0299L12.8631 35.5066C12.7377 35.5429 12.6031 35.5286 12.4881 35.4669C12.373 35.4053 12.2866 35.301 12.2474 35.1765C12.2082 35.052 12.2192 34.9171 12.2781 34.8006C12.337 34.6841 12.4392 34.5953 12.5627 34.5531L24.3253 30.4883L13.3336 33.6276C13.2096 33.6588 13.0784 33.6412 12.9669 33.5787C12.8555 33.5161 12.7722 33.4131 12.7343 33.2911C12.6963 33.169 12.7066 33.037 12.763 32.9222C12.8193 32.8075 12.9175 32.7187 13.0373 32.6741L18.7177 30.7626L13.6911 32.1914C13.5677 32.2221 13.4373 32.2045 13.3264 32.1424C13.2154 32.0802 13.1323 31.9781 13.094 31.8569C13.0557 31.7357 13.065 31.6044 13.12 31.4897C13.175 31.3751 13.2717 31.2858 13.3903 31.2399L19.0801 29.2781L14.0625 30.7082C13.9386 30.7421 13.8065 30.727 13.6934 30.6661C13.5803 30.6051 13.4951 30.503 13.4553 30.3809C13.4154 30.2588 13.4241 30.1261 13.4796 30.0102C13.535 29.8943 13.6329 29.8042 13.7529 29.7586L20.7527 27.1929L14.4954 28.9796C14.3709 29.0155 14.2373 29.0016 14.1229 28.941C14.0084 28.8803 13.9219 28.7776 13.8817 28.6545C13.8414 28.5314 13.8505 28.3975 13.9071 28.2809C13.9636 28.1644 14.0632 28.0743 14.1848 28.0297L18.535 26.4243L14.8723 27.4658C14.75 27.4979 14.6201 27.4825 14.5087 27.4226C14.3973 27.3628 14.3128 27.2629 14.2721 27.1432C14.2313 27.0235 14.2375 26.8928 14.2892 26.7775C14.341 26.6621 14.4346 26.5707 14.5511 26.5215L18.6765 24.8917L15.2748 25.8667C15.1554 25.8991 15.0283 25.8861 14.918 25.8302C14.8077 25.7744 14.722 25.6796 14.6774 25.5643C14.6329 25.4489 14.6326 25.3212 14.6768 25.2057C14.7209 25.0902 14.8063 24.9951 14.9164 24.9389L19.4796 22.6847L15.8091 23.7326C15.6888 23.7667 15.5601 23.7545 15.4483 23.6984C15.3366 23.6423 15.2499 23.5464 15.2054 23.4295C15.1609 23.3126 15.1618 23.1833 15.2079 23.0671C15.2541 22.9508 15.3421 22.8561 15.4546 22.8016L16.807 22.1475L16.1599 22.3318C16.0438 22.3629 15.9204 22.3512 15.8123 22.2988C15.7041 22.2464 15.6185 22.1567 15.5711 22.0464C15.5236 21.936 15.5175 21.8122 15.5538 21.6976C15.5902 21.5831 15.6665 21.4855 15.769 21.4226L16.4332 21.0261C16.3457 21.0391 16.2563 21.0288 16.174 20.9965C16.0916 20.9641 16.0192 20.9107 15.964 20.8416C15.9026 20.7641 15.8656 20.6702 15.8576 20.5717C15.8496 20.4732 15.871 20.3745 15.919 20.2881L16.417 19.3902C16.347 19.332 16.2942 19.2558 16.2643 19.1699C16.2344 19.0839 16.2285 18.9914 16.2473 18.9023C16.2661 18.8132 16.3089 18.731 16.371 18.6644C16.4331 18.5979 16.5122 18.5495 16.5998 18.5246L17.155 18.3657C17.25 18.3386 17.351 18.3403 17.4451 18.3705C17.5392 18.4007 17.6222 18.4581 17.6837 18.5355C17.7452 18.6129 17.7824 18.7068 17.7905 18.8053C17.7987 18.9038 17.7774 19.0025 17.7295 19.089L17.3781 19.7226L19.7996 19.031C19.9153 19.0006 20.0382 19.0127 20.1458 19.0651C20.2534 19.1176 20.3386 19.2069 20.3859 19.3168C20.4333 19.4267 20.4396 19.55 20.4038 19.6642C20.368 19.7784 20.2924 19.876 20.1907 19.9392L19.542 20.3273L22.0855 19.6013C22.2054 19.5684 22.3332 19.5813 22.444 19.6375C22.5549 19.6937 22.6408 19.7891 22.6851 19.9053C22.7294 20.0214 22.7289 20.1498 22.6836 20.2656C22.6383 20.3813 22.5516 20.4761 22.4403 20.5313L21.0864 21.1871L24.5148 20.2085C24.6341 20.1762 24.7612 20.1891 24.8715 20.245C24.9819 20.3008 25.0676 20.3956 25.1121 20.5109C25.1567 20.6263 25.1569 20.754 25.1128 20.8696C25.0686 20.9851 24.9833 21.0801 24.8731 21.1364L20.3088 23.3954L28.215 21.1371C28.3385 21.1016 28.4709 21.1149 28.5847 21.1744C28.6986 21.2339 28.7852 21.3348 28.8266 21.4564C28.868 21.578 28.861 21.7109 28.8071 21.8275C28.7532 21.944 28.6565 22.0354 28.537 22.0826L24.4107 23.7122L30.9957 21.8313C31.1202 21.7954 31.2537 21.8093 31.3682 21.8699C31.4826 21.9305 31.5691 22.0332 31.6094 22.1563C31.6496 22.2795 31.6405 22.4134 31.584 22.5299C31.5275 22.6465 31.4279 22.7366 31.3063 22.7812L26.9587 24.3801L33.6202 22.4781C33.7452 22.4409 33.8798 22.4539 33.9953 22.5146C34.1108 22.5752 34.198 22.6785 34.2384 22.8026C34.2788 22.9266 34.2691 23.0615 34.2114 23.1785C34.1537 23.2954 34.0525 23.3852 33.9296 23.4287L26.9223 25.9956L36.6181 23.2267C36.7436 23.1904 36.8782 23.2047 36.9932 23.2664C37.1083 23.328 37.1947 23.4323 37.2339 23.5568C37.2731 23.6813 37.2621 23.8162 37.2032 23.9327C37.1442 24.0492 37.0421 24.138 36.9185 24.1802L31.2352 26.1405L39.1893 23.8684C39.3151 23.8316 39.4505 23.8456 39.566 23.9076C39.6816 23.9696 39.7682 24.0745 39.8072 24.1997C39.8461 24.325 39.8343 24.4605 39.7743 24.5771C39.7143 24.6937 39.6108 24.7821 39.4863 24.8231L33.8139 26.7315L41.6702 24.4875C41.7956 24.4513 41.9302 24.4655 42.0453 24.5272C42.1603 24.5889 42.2467 24.6931 42.2859 24.8176C42.3252 24.9421 42.3141 25.077 42.2552 25.1935C42.1963 25.31 42.0941 25.3989 41.9706 25.441L30.2071 29.5055L44.9293 25.3005C44.9922 25.2814 45.0582 25.2749 45.1235 25.2814C45.1889 25.2878 45.2523 25.3071 45.3102 25.338C45.3682 25.369 45.4194 25.4111 45.4611 25.4618C45.5027 25.5126 45.534 25.5711 45.553 25.6339C45.5721 25.6968 45.5786 25.7628 45.5721 25.8281C45.5657 25.8935 45.5464 25.9569 45.5154 26.0148C45.4845 26.0728 45.4424 26.124 45.3916 26.1657C45.3409 26.2073 45.2824 26.2386 45.2195 26.2576L42.9525 26.9827L47.0159 25.8229C47.1418 25.7861 47.2771 25.8002 47.3927 25.8622C47.5083 25.9241 47.5949 26.029 47.6338 26.1543C47.6728 26.2795 47.661 26.415 47.6009 26.5316C47.5409 26.6482 47.4375 26.7366 47.3129 26.7777L31.7315 32.051L50.4958 26.6891C50.6225 26.6498 50.7596 26.6626 50.8769 26.7244C50.9942 26.7863 51.0822 26.8922 51.1214 27.0189C51.1606 27.1456 51.1479 27.2827 51.086 27.4C51.0242 27.5174 50.9182 27.6053 50.7915 27.6445L32.9693 33.6042L54.0549 27.5802C54.1816 27.541 54.3187 27.5537 54.436 27.6156C54.5533 27.6774 54.6413 27.7834 54.6805 27.9101C54.7197 28.0368 54.707 28.1739 54.6452 28.2912C54.5833 28.4085 54.4774 28.4965 54.3507 28.5357L33.1126 35.6008L57.8619 28.5314C57.9248 28.5124 57.9908 28.506 58.0561 28.5125C58.1215 28.5191 58.185 28.5384 58.2428 28.5695C58.3007 28.6005 58.3519 28.6427 58.3935 28.6935C58.4351 28.7444 58.4663 28.8029 58.4853 28.8658C58.5043 28.9287 58.5107 28.9947 58.5041 29.0601C58.4976 29.1255 58.4783 29.1889 58.4472 29.2468C58.4161 29.3047 58.374 29.3559 58.3231 29.3975C58.2723 29.4391 58.2138 29.4703 58.1509 29.4893L43.1357 34.255L60.7015 29.2372C60.8283 29.1984 60.9654 29.2117 61.0825 29.2739C61.1996 29.3362 61.2872 29.4425 61.326 29.5694C61.3648 29.6962 61.3515 29.8333 61.2893 29.9504C61.227 30.0675 61.1207 30.1551 60.9938 30.1939L36.3801 38.2003L62.9949 30.597C63.1204 30.5636 63.254 30.5804 63.3673 30.6438C63.4807 30.7072 63.5649 30.8122 63.6022 30.9366C63.6395 31.061 63.6269 31.1951 63.5672 31.3104C63.5074 31.4256 63.4051 31.5132 63.2819 31.5544L43.2399 37.9025L62.5472 32.3848C62.6717 32.3544 62.803 32.3729 62.9142 32.4365C63.0254 32.5001 63.1079 32.604 63.1448 32.7267C63.1816 32.8493 63.17 32.9815 63.1123 33.0958C63.0545 33.2102 62.9551 33.298 62.8345 33.3412L44.9178 38.9824L62.1273 34.062C62.253 34.0275 62.3872 34.0435 62.5013 34.1066C62.6154 34.1696 62.7004 34.2747 62.7381 34.3995C62.7759 34.5243 62.7633 34.6589 62.7033 34.7746C62.6432 34.8903 62.5403 34.978 62.4165 35.0189L38.0192 42.8568L61.6126 36.1176C61.7367 36.0872 61.8678 36.1055 61.9789 36.1687C62.0899 36.232 62.1726 36.3354 62.2098 36.4577C62.247 36.5799 62.236 36.7118 62.179 36.8262C62.122 36.9406 62.0233 37.0288 61.9033 37.0728L35.9019 45.4749L61.0697 38.2856C61.1942 38.2552 61.3255 38.2737 61.4367 38.3373C61.5479 38.401 61.6304 38.5048 61.6673 38.6275C61.7041 38.7502 61.6925 38.8823 61.6348 38.9967C61.577 39.111 61.4776 39.1989 61.357 39.2421L41.7652 45.439L60.6301 40.0497C60.7573 40.0119 60.8942 40.0262 61.0108 40.0895C61.1274 40.1527 61.2141 40.2596 61.2518 40.3868C61.2896 40.5139 61.2753 40.6509 61.2121 40.7675C61.1488 40.8841 61.0419 40.9708 60.9147 41.0085L53.2071 43.3835L60.3005 41.3578C60.4246 41.3281 60.5553 41.347 60.6659 41.4105C60.7765 41.4741 60.8586 41.5775 60.8955 41.6996C60.9324 41.8217 60.9212 41.9533 60.8642 42.0674C60.8072 42.1815 60.7088 42.2696 60.589 42.3135L38.4449 49.3826L59.8198 43.2775C59.9456 43.243 60.0798 43.259 60.1939 43.3221C60.308 43.3851 60.393 43.4903 60.4307 43.6151C60.4684 43.7399 60.4559 43.8744 60.3958 43.9902C60.3357 44.1059 60.2329 44.1935 60.1091 44.2344L40.1366 50.6093L59.3583 45.1206C59.483 45.0887 59.6152 45.106 59.7274 45.169C59.8396 45.232 59.9232 45.3359 59.9608 45.459C59.9984 45.5821 59.987 45.7149 59.9292 45.8299C59.8713 45.9448 59.7713 46.033 59.65 46.0761L39.0505 52.7733L58.859 47.1151C58.9832 47.0839 59.1147 47.1017 59.2262 47.1646C59.3378 47.2276 59.4209 47.331 59.4585 47.4534C59.4961 47.5759 59.4852 47.7081 59.4281 47.8228C59.3711 47.9375 59.2722 48.0259 59.1518 48.0698L41.091 53.9738L58.3778 49.0368C58.5023 49.004 58.6347 49.0205 58.7473 49.0828C58.8599 49.1452 58.9442 49.2486 58.9825 49.3715C59.0208 49.4944 59.0102 49.6274 58.9529 49.7427C58.8957 49.858 58.7961 49.9468 58.6751 49.9905L39.5968 56.4418L57.8282 51.232C57.9533 51.1989 58.0864 51.2157 58.1994 51.2788C58.3124 51.3418 58.3966 51.4463 58.4342 51.5701C58.4718 51.6939 58.4599 51.8275 58.4011 51.9428C58.3422 52.0581 58.241 52.146 58.1186 52.1882L50.8528 54.5274L57.476 52.6386C57.6 52.6089 57.7307 52.6278 57.8413 52.6913C57.9519 52.7548 58.0341 52.8582 58.0709 52.9803C58.1078 53.1025 58.0966 53.234 58.0396 53.3482C57.9827 53.4623 57.8842 53.5503 57.7645 53.5943L55.6457 54.2709L57.1777 53.8298C57.3025 53.7969 57.4352 53.8136 57.548 53.8763C57.6608 53.939 57.7449 54.0429 57.7829 54.1663C57.8208 54.2896 57.8096 54.4229 57.7516 54.5381C57.6936 54.6534 57.5932 54.7418 57.4715 54.7848L49.4181 57.4577L56.7959 55.3547C56.9198 55.3243 57.0506 55.3424 57.1616 55.4053C57.2726 55.4682 57.3553 55.5711 57.3929 55.693C57.4305 55.8149 57.42 55.9466 57.3637 56.061C57.3074 56.1755 57.2095 56.2641 57.09 56.3087L52.1688 57.9382L56.4553 56.7147C56.5793 56.6836 56.7105 56.7011 56.822 56.7637C56.9335 56.8263 57.0167 56.9292 57.0547 57.0513C57.0926 57.1734 57.0823 57.3054 57.026 57.4201C56.9696 57.5349 56.8714 57.6236 56.7516 57.6682L52.7008 59.025L56.127 58.0469C56.2517 58.011 56.3855 58.0251 56.5001 58.0861C56.6146 58.147 56.701 58.2502 56.7409 58.3737C56.7808 58.4972 56.7711 58.6314 56.7138 58.7479C56.6566 58.8644 56.5563 58.9541 56.4341 58.998L48.2334 61.9711L55.673 59.8434C55.7964 59.8079 55.9288 59.8212 56.0427 59.8807C56.1565 59.9402 56.2431 60.0411 56.2845 60.1627C56.3259 60.2843 56.319 60.4172 56.2651 60.5338C56.2111 60.6503 56.1144 60.7417 55.995 60.7889L47.6556 64.1098L55.1389 61.9724C55.2608 61.9379 55.3912 61.951 55.5038 62.0089C55.6164 62.0669 55.7028 62.1654 55.7456 62.2846C55.7884 62.4038 55.7844 62.5348 55.7343 62.6512C55.6842 62.7675 55.5919 62.8605 55.4759 62.9114L49.0416 65.7176L54.5936 64.1296C54.716 64.0942 54.8473 64.1068 54.9606 64.165C55.074 64.2231 55.1609 64.3223 55.2036 64.4423C55.2463 64.5623 55.2416 64.6941 55.1904 64.8108C55.1392 64.9274 55.0454 65.0202 54.9282 65.07L51.9831 66.3418L54.1982 65.7088C54.3163 65.6727 54.4435 65.6816 54.5554 65.7338C54.6674 65.7859 54.756 65.8776 54.8044 65.9912C54.8527 66.1048 54.8573 66.2323 54.8173 66.3491C54.7773 66.4659 54.6955 66.5637 54.5876 66.6238L51.8716 68.1869L53.7136 67.6606C53.8247 67.6294 53.9432 67.6377 54.0489 67.6839C54.1547 67.7302 54.2411 67.8116 54.2937 67.9143C54.3462 68.017 54.3617 68.1348 54.3373 68.2476C54.3129 68.3604 54.2503 68.4613 54.1601 68.5331L53.1722 69.3167C53.2981 69.2883 53.4301 69.3097 53.5406 69.3764C53.651 69.4431 53.7315 69.55 53.765 69.6746C53.7985 69.7993 53.7825 69.932 53.7203 70.0451C53.6582 70.1583 53.5547 70.243 53.4316 70.2816L51.0106 70.9671C50.8995 70.9982 50.781 70.99 50.6753 70.9437C50.5696 70.8975 50.4831 70.8161 50.4305 70.7133C50.378 70.6106 50.3625 70.4929 50.3869 70.3801C50.4113 70.2673 50.4739 70.1664 50.5641 70.0945L51.5496 69.3166L48.2188 70.268C48.1007 70.3041 47.9734 70.2952 47.8615 70.2431C47.7496 70.191 47.6609 70.0993 47.6126 69.9857C47.5642 69.8721 47.5596 69.7446 47.5996 69.6278C47.6396 69.511 47.7215 69.4131 47.8293 69.353L50.5461 67.7911L44.841 69.4223C44.7189 69.4572 44.5881 69.4443 44.4751 69.3863C44.3621 69.3283 44.2755 69.2294 44.2327 69.1098C44.19 68.9902 44.1944 68.8588 44.245 68.7423C44.2956 68.6258 44.3886 68.533 44.5052 68.4826L47.4549 67.2089L42.1045 68.7371C41.9823 68.7729 41.8509 68.7608 41.7373 68.7031C41.6238 68.6454 41.5365 68.5465 41.4934 68.4266C41.4502 68.3067 41.4545 68.1749 41.5052 68.0581C41.556 67.9412 41.6495 67.8482 41.7665 67.7979L48.2018 64.9919L38.3649 67.8008C38.2415 67.8363 38.1091 67.8229 37.9953 67.7635C37.8814 67.704 37.7948 67.603 37.7534 67.4814C37.712 67.3598 37.719 67.227 37.7729 67.1104C37.8268 66.9938 37.9235 66.9025 38.043 66.8552L46.3777 63.5404L34.6855 66.8795C34.5618 66.9125 34.4301 66.8967 34.3176 66.8355C34.2051 66.7742 34.1205 66.6721 34.081 66.5503C34.0416 66.4284 34.0504 66.2961 34.1057 66.1806C34.161 66.065 34.2585 65.9751 34.3781 65.9294L42.5856 62.9538L31.5697 66.0993C31.4457 66.1305 31.3145 66.113 31.203 66.0504C31.0916 65.9878 31.0083 65.8849 30.9704 65.7628C30.9324 65.6407 30.9427 65.5087 30.9991 65.394C31.0554 65.2792 31.1536 65.1904 31.2734 65.1458L35.3243 63.7891L29.259 65.5208C29.1347 65.5527 29.0028 65.5356 28.8907 65.4729C28.7786 65.4102 28.695 65.3069 28.657 65.1842C28.6191 65.0615 28.6298 64.9289 28.687 64.814C28.7441 64.699 28.8433 64.6104 28.964 64.5665L33.8832 62.9365L26.9028 64.9308C26.7784 64.9627 26.6465 64.9456 26.5344 64.8829C26.4224 64.8203 26.3387 64.7169 26.3008 64.5942C26.2628 64.4715 26.2736 64.339 26.3307 64.224C26.3878 64.109 26.487 64.0204 26.6077 63.9766L34.6691 61.3004L24.2681 64.2711C24.1837 64.2963 24.0942 64.2988 24.0086 64.2783Z" fill="white"/>
<path d="M34.5908 24.6623C34.489 24.6368 34.3978 24.58 34.3301 24.4998C34.2624 24.4196 34.2217 24.3201 34.2137 24.2155C34.2057 24.1108 34.2308 24.0063 34.2854 23.9168C34.3401 23.8272 34.4216 23.7571 34.5183 23.7164L36.3369 22.9378L32.429 24.0489C32.3079 24.0828 32.1785 24.0698 32.0666 24.0126C31.9546 23.9553 31.8684 23.858 31.825 23.74C31.7816 23.622 31.7842 23.4919 31.8324 23.3758C31.8806 23.2597 31.9708 23.1659 32.085 23.1133L34.5961 21.9772L29.7177 23.37C29.5982 23.4039 29.4703 23.3921 29.359 23.3368C29.2478 23.2816 29.161 23.1869 29.1158 23.0712C29.0705 22.9555 29.0699 22.8271 29.1141 22.711C29.1583 22.5949 29.2442 22.4994 29.355 22.4432L32.7399 20.7403L26.4215 22.5447C26.3013 22.578 26.1729 22.5653 26.0617 22.5088C25.9504 22.4524 25.8643 22.3565 25.8201 22.2398C25.776 22.1231 25.7771 21.9941 25.8232 21.8782C25.8692 21.7623 25.957 21.6678 26.0692 21.6132L29.0711 20.1846L23.4279 21.7951C23.3072 21.8285 23.1784 21.8153 23.067 21.7583C22.9556 21.7012 22.8696 21.6044 22.826 21.4871C22.7825 21.3697 22.7846 21.2402 22.8319 21.1243C22.8791 21.0084 22.9682 20.9144 23.0814 20.861L25.7762 19.6214L20.6225 21.0927C20.5022 21.1268 20.3734 21.1147 20.2617 21.0586C20.1499 21.0024 20.0632 20.9065 20.0187 20.7896C19.9742 20.6728 19.9751 20.5434 20.0213 20.4272C20.0674 20.311 20.1555 20.2163 20.268 20.1617L23.3237 18.6991L17.594 20.3344C17.4734 20.3683 17.3445 20.3556 17.2328 20.299C17.1211 20.2423 17.0347 20.1459 16.9907 20.0286C16.9467 19.9113 16.9484 19.7818 16.9953 19.6657C17.0422 19.5496 17.131 19.4553 17.2441 19.4015L20.1084 18.0569L15.5786 19.3546C15.4583 19.3874 15.3301 19.3741 15.2191 19.3172C15.1082 19.2604 15.0224 19.1642 14.9787 19.0474C14.935 18.9306 14.9366 18.8017 14.983 18.686C15.0294 18.5703 15.1174 18.4761 15.2297 18.4219L17.4161 17.3972L15.1961 18.029C15.0783 18.0614 14.9526 18.0496 14.8428 17.9957C14.7331 17.9417 14.6469 17.8495 14.6006 17.7363C14.5543 17.6232 14.551 17.497 14.5915 17.3816C14.6319 17.2662 14.7132 17.1696 14.8201 17.1101L16.3867 16.2591L15.5527 16.4977C15.4428 16.5292 15.3253 16.522 15.22 16.4774C15.1147 16.4327 15.0279 16.3533 14.974 16.2524C14.9202 16.1515 14.9026 16.0351 14.9241 15.9228C14.9457 15.8105 15.0051 15.7089 15.0925 15.6351L15.9938 14.8722C15.8879 14.8444 15.7942 14.7827 15.7268 14.6965C15.6594 14.6103 15.6222 14.5043 15.6208 14.3949C15.6194 14.2855 15.6539 14.1787 15.7191 14.0908C15.7842 14.0029 15.8764 13.9388 15.9815 13.9083L17.8293 13.3834C17.9391 13.3524 18.0562 13.3597 18.1612 13.4044C18.2662 13.449 18.3527 13.5282 18.4065 13.6288C18.4603 13.7295 18.478 13.8454 18.4568 13.9575C18.4356 14.0696 18.3767 14.1711 18.2898 14.2451L17.5169 14.8989L20.495 14.0509C20.6129 14.0184 20.7386 14.0303 20.8484 14.0842C20.9581 14.1381 21.0443 14.2304 21.0906 14.3435C21.1369 14.4567 21.1401 14.5829 21.0997 14.6983C21.0593 14.8137 20.9779 14.9103 20.8711 14.9697L19.3019 15.819L23.1651 14.7174C23.2854 14.6846 23.4136 14.6979 23.5246 14.7547C23.6356 14.8115 23.7213 14.9078 23.765 15.0246C23.8087 15.1413 23.8072 15.2702 23.7608 15.3859C23.7143 15.5017 23.6263 15.5959 23.514 15.65L21.3248 16.674L25.8362 15.3882C25.9567 15.3544 26.0856 15.367 26.1973 15.4237C26.3091 15.4803 26.3954 15.5768 26.4394 15.6941C26.4834 15.8113 26.4818 15.9408 26.4349 16.0569C26.3879 16.1731 26.2991 16.2673 26.186 16.3211L23.3217 17.6657L28.7415 16.1157C28.8615 16.0825 28.9896 16.0954 29.1006 16.1517C29.2117 16.208 29.2977 16.3037 29.3419 16.4201C29.3861 16.5365 29.3853 16.6652 29.3397 16.7811C29.294 16.8969 29.2068 16.9915 29.095 17.0464L26.0402 18.5092L31.7729 16.8747C31.8936 16.8414 32.0224 16.8546 32.1338 16.9116C32.2452 16.9686 32.3312 17.0654 32.3748 17.1828C32.4183 17.3002 32.4162 17.4296 32.3689 17.5455C32.3216 17.6614 32.2326 17.7554 32.1194 17.8088L29.4246 19.0484L34.5764 17.5766C34.6969 17.5423 34.8259 17.5544 34.9379 17.6106C35.0499 17.6668 35.1367 17.763 35.1811 17.8802C35.2255 17.9974 35.2243 18.1269 35.1778 18.2433C35.1312 18.3596 35.0426 18.4542 34.9296 18.5084L31.9285 19.9341L37.5685 18.3238C37.6878 18.2908 37.815 18.3033 37.9256 18.3587C38.0363 18.4141 38.1224 18.5086 38.1674 18.6239C38.2124 18.7391 38.2131 18.867 38.1693 18.9827C38.1255 19.0984 38.0403 19.1938 37.9303 19.2504L34.5463 20.9535L40.8642 19.151C40.985 19.1182 41.1137 19.1319 41.2249 19.1894C41.3361 19.2468 41.4217 19.3439 41.4648 19.4614C41.5079 19.5789 41.5053 19.7083 41.4577 19.824C41.41 19.9397 41.3207 20.0333 41.2073 20.0864L38.695 21.2232L43.5794 19.8309C43.7008 19.7984 43.83 19.8128 43.9413 19.8713C44.0526 19.9298 44.1377 20.028 44.1798 20.1464C44.2219 20.2648 44.2179 20.3948 44.1685 20.5104C44.1191 20.6259 44.028 20.7187 43.9133 20.7701L42.0959 21.5521L45.9978 20.4364C46.1179 20.4025 46.2464 20.4148 46.3579 20.4708C46.4695 20.5268 46.556 20.6225 46.6006 20.739C46.6452 20.8556 46.6446 20.9847 46.5988 21.1008C46.5531 21.2169 46.4656 21.3118 46.3535 21.3667L43.2058 22.8918L49.0903 21.2107C49.2089 21.1757 49.3362 21.1859 49.4478 21.2392C49.5593 21.2926 49.6471 21.3854 49.6942 21.4997C49.7413 21.6141 49.7444 21.7418 49.7029 21.8582C49.6613 21.9747 49.5781 22.0716 49.4693 22.1303L45.6913 24.2172L52.8847 22.1629C53.0068 22.1279 53.1376 22.1408 53.2506 22.1988C53.3636 22.2569 53.4502 22.3557 53.493 22.4753C53.5357 22.5949 53.5313 22.7263 53.4807 22.8428C53.4301 22.9593 53.3371 23.0522 53.2205 23.1026L51.316 23.9236L55.3452 22.7769C55.4625 22.7467 55.5867 22.76 55.6948 22.8144C55.8029 22.8688 55.8877 22.9606 55.9333 23.0728C55.9788 23.1849 55.9822 23.3098 55.9427 23.4242C55.9032 23.5387 55.8235 23.6349 55.7184 23.695L52.061 25.642L58.9446 23.6761C59.0623 23.6444 59.1874 23.6567 59.2966 23.7108C59.4058 23.7649 59.4915 23.857 59.5376 23.9698C59.5836 24.0826 59.5869 24.2084 59.5468 24.3234C59.5067 24.4385 59.4259 24.535 59.3197 24.5947L55.6278 26.5763L62.5944 24.592C62.7147 24.5579 62.8435 24.57 62.9552 24.6261C63.067 24.6823 63.1537 24.7782 63.1982 24.8951C63.2427 25.0119 63.2418 25.1413 63.1956 25.2575C63.1495 25.3737 63.0615 25.4684 62.9489 25.523L59.8536 27.0159L65.2327 25.4763C65.3531 25.4413 65.4822 25.4529 65.5945 25.5087C65.7068 25.5645 65.794 25.6604 65.8389 25.7775C65.8838 25.8946 65.8831 26.0242 65.8368 26.1408C65.7906 26.2573 65.7023 26.3523 65.5893 26.4068L62.724 27.8005L65.9015 26.8932C66.0153 26.861 66.1368 26.8701 66.2445 26.919C66.3521 26.9679 66.439 27.0533 66.4896 27.1602C66.5402 27.2671 66.5513 27.3884 66.521 27.5027C66.4906 27.6169 66.4207 27.7168 66.3237 27.7844L63.8793 29.4815L65.448 29.0341C65.5609 29.002 65.6815 29.0107 65.7887 29.0587C65.8958 29.1066 65.9827 29.1907 66.0341 29.2962C66.0855 29.4018 66.0981 29.522 66.0697 29.636C66.0413 29.7499 65.9738 29.8502 65.8789 29.9193L65.268 30.3622C65.3593 30.4276 65.4255 30.5224 65.4554 30.6307C65.4916 30.758 65.476 30.8944 65.4118 31.0101C65.3477 31.1258 65.2403 31.2114 65.1132 31.2481L63.2714 31.7735C63.1586 31.805 63.0384 31.7959 62.9317 31.7478C62.8249 31.6997 62.7384 31.6157 62.6872 31.5104C62.6361 31.4051 62.6235 31.2852 62.6517 31.1715C62.6799 31.0579 62.747 30.9577 62.8415 30.8885L63.0016 30.7719L61.26 31.2678C61.1465 31.2994 61.0254 31.29 60.9182 31.2411C60.811 31.1922 60.7245 31.107 60.674 31.0005C60.6235 30.894 60.6122 30.7731 60.6421 30.6592C60.6721 30.5452 60.7413 30.4454 60.8376 30.3775L63.2769 28.6802L57.504 30.3273C57.3843 30.36 57.2567 30.3471 57.146 30.291C57.0354 30.235 56.9495 30.1397 56.9051 30.0239C56.8608 29.908 56.861 29.7798 56.9059 29.6641C56.9508 29.5485 57.0371 29.4536 57.148 29.398L60.015 28.0057L54.5045 29.5763C54.3842 29.6104 54.2555 29.5983 54.1437 29.5422C54.032 29.486 53.9453 29.3901 53.9008 29.2732C53.8563 29.1563 53.8572 29.027 53.9033 28.9108C53.9495 28.7946 54.0375 28.6999 54.1501 28.6453L57.2463 27.1527L51.4479 28.811C51.3302 28.8427 51.2051 28.8303 51.0959 28.7762C50.9867 28.7221 50.901 28.63 50.855 28.5172C50.8089 28.4044 50.8056 28.2786 50.8457 28.1636C50.8858 28.0485 50.9666 27.9521 51.0728 27.8923L54.7647 25.9107L47.7976 27.897C47.6804 27.9272 47.5562 27.9139 47.448 27.8595C47.3399 27.805 47.2551 27.7132 47.2096 27.6011C47.164 27.4889 47.1606 27.364 47.2001 27.2496C47.2397 27.1352 47.3193 27.039 47.4244 26.9788L51.0797 25.0324L44.196 26.9983C44.0743 27.0319 43.9443 27.0182 43.8322 26.96C43.7202 26.9017 43.6343 26.8032 43.5919 26.6842C43.5495 26.5652 43.5537 26.4346 43.6036 26.3186C43.6536 26.2026 43.7456 26.1098 43.8612 26.0588L45.7719 25.2332L41.7396 26.3884C41.621 26.4234 41.4937 26.4133 41.3821 26.3599C41.2706 26.3065 41.1828 26.2137 41.1357 26.0994C41.0886 25.9851 41.0855 25.8574 41.127 25.7409C41.1686 25.6244 41.2518 25.5275 41.3606 25.4688L45.1396 23.3822L37.9452 25.4363C37.8251 25.4702 37.6966 25.4579 37.5851 25.4019C37.4735 25.3459 37.387 25.2502 37.3424 25.1336C37.2978 25.0171 37.2985 24.888 37.3442 24.7719C37.3899 24.6557 37.4774 24.5609 37.5895 24.506L40.7363 22.9806L34.8517 24.6617C34.7663 24.685 34.6763 24.6852 34.5908 24.6623Z" fill="#FFCE48"/>
<path d="M44.3686 11.3929C44.2618 11.3662 44.1668 11.3049 44.0984 11.2187C44.03 11.1325 43.9919 11.0261 43.9901 10.9161C43.9883 10.806 44.0228 10.6985 44.0884 10.6101C44.1539 10.5217 44.2468 10.4573 44.3527 10.4271L47.3735 9.56502C47.4375 9.54375 47.5051 9.53564 47.5723 9.54119C47.6395 9.54673 47.7049 9.56581 47.7646 9.59729C47.8242 9.62876 47.8769 9.67197 47.9194 9.72432C47.9619 9.77667 47.9934 9.83708 48.0119 9.90191C48.0305 9.96674 48.0357 10.0347 48.0274 10.1016C48.019 10.1685 47.9972 10.233 47.9632 10.2913C47.9293 10.3495 47.8839 10.4003 47.8298 10.4406C47.7757 10.4808 47.714 10.5098 47.6484 10.5256L44.6276 11.3876C44.5432 11.4121 44.4539 11.4139 44.3686 11.3929Z" fill="#F35252"/>
<path d="M39.491 25.8088C39.3927 25.7842 39.3043 25.7303 39.2373 25.6543C39.1703 25.5783 39.128 25.4838 39.116 25.3832C39.1039 25.2826 39.1227 25.1807 39.1699 25.091C39.2171 25.0014 39.2903 24.9282 39.38 24.8811L40.7829 24.1448L39.0355 24.6433C38.9137 24.6769 38.7838 24.6632 38.6717 24.6049C38.5596 24.5467 38.4737 24.4482 38.4313 24.3292C38.3889 24.2102 38.3931 24.0796 38.4431 23.9636C38.493 23.8475 38.585 23.7547 38.7006 23.7038L43.2676 21.7351L38.1607 23.1923C38.0379 23.2279 37.9061 23.215 37.7925 23.1564C37.6789 23.0978 37.5921 22.9979 37.5498 22.8773C37.5076 22.7566 37.5131 22.6244 37.5654 22.5077C37.6176 22.391 37.7126 22.2988 37.8307 22.25L44.1315 19.6268L37.2069 21.6041C37.0848 21.6377 36.9544 21.6238 36.8422 21.565C36.73 21.5062 36.6443 21.4071 36.6023 21.2876C36.5604 21.168 36.5654 21.037 36.6163 20.9211C36.6672 20.8051 36.7603 20.7127 36.8767 20.6627L44.5951 17.4213L36.1416 19.8354C36.0189 19.87 35.8877 19.8564 35.7747 19.7975C35.6617 19.7386 35.5755 19.6387 35.5336 19.5184C35.4918 19.398 35.4975 19.2662 35.5495 19.1499C35.6016 19.0335 35.6961 18.9415 35.8138 18.8925L43.6396 15.6585L35.0983 18.098C34.9752 18.1297 34.8447 18.1134 34.7332 18.0523C34.6217 17.9912 34.5377 17.8899 34.4982 17.769C34.4588 17.6482 34.4668 17.5169 34.5207 17.4017C34.5746 17.2866 34.6704 17.1963 34.7885 17.1493L38.3169 15.8535L34.4189 16.966C34.2949 17.0022 34.1618 16.9889 34.0473 16.929C33.9329 16.8691 33.8461 16.7673 33.805 16.6448C33.764 16.5223 33.772 16.3887 33.8273 16.272C33.8825 16.1553 33.9808 16.0645 34.1015 16.0186L39.0856 14.0966L33.6452 15.6507C33.5253 15.6844 33.3971 15.6721 33.2857 15.6162C33.1744 15.5603 33.0879 15.4649 33.0433 15.3486C32.9986 15.2323 32.999 15.1035 33.0443 14.9875C33.0896 14.8714 33.1766 14.7765 33.2883 14.7212L37.4102 12.7102L33.0807 13.9445C32.9616 13.9768 32.8347 13.9638 32.7245 13.908C32.6144 13.8523 32.5287 13.7578 32.4841 13.6427C32.4394 13.5276 32.4389 13.4 32.4827 13.2846C32.5265 13.1692 32.6114 13.074 32.7212 13.0174L36.5076 11.1399L33.1612 12.0957C33.0414 12.1286 32.9136 12.1158 32.8027 12.0596C32.6918 12.0034 32.6059 11.9079 32.5616 11.7918C32.5173 11.6756 32.5178 11.5472 32.5631 11.4314C32.6084 11.3157 32.6951 11.221 32.8065 11.1657L34.7039 10.2491L33.8246 10.5001C33.7076 10.5296 33.5839 10.5158 33.4762 10.4612C33.3686 10.4067 33.2843 10.315 33.239 10.2032C33.1936 10.0913 33.1902 9.96685 33.2295 9.85272C33.2687 9.73859 33.3479 9.6425 33.4524 9.58219L34.7667 8.88659C34.71 8.82787 34.6689 8.7559 34.647 8.67723C34.6109 8.54989 34.6267 8.41342 34.691 8.29774C34.7554 8.18205 34.8629 8.0966 34.9902 8.06011L37.9591 7.2077C38.0761 7.17817 38.1999 7.19197 38.3075 7.24654C38.4152 7.30111 38.4995 7.39278 38.5448 7.50462C38.5902 7.61646 38.5935 7.74093 38.5543 7.85506C38.5151 7.96919 38.4359 8.06528 38.3313 8.12559L38.153 8.22012L40.0249 7.68988C40.1447 7.65696 40.2725 7.66985 40.3834 7.72605C40.4942 7.78224 40.5802 7.87771 40.6245 7.99383C40.6688 8.10996 40.6682 8.23841 40.623 8.35416C40.5777 8.46991 40.4909 8.56464 40.3796 8.6199L38.4834 9.53575L41.4809 8.6802C41.6004 8.64708 41.7278 8.6595 41.8386 8.71505C41.9494 8.7706 42.0356 8.86532 42.0806 8.98083C42.1255 9.09635 42.1259 9.22442 42.0817 9.34022C42.0375 9.45602 41.9519 9.55129 41.8415 9.60755L38.0553 11.4882L42.5975 10.1906C42.7179 10.1557 42.8471 10.1672 42.9594 10.223C43.0717 10.2788 43.1589 10.3748 43.2038 10.4919C43.2486 10.6089 43.2479 10.7386 43.2017 10.8552C43.1554 10.9717 43.0671 11.0666 42.9542 11.1211L38.835 13.1298L49.5086 10.0789C49.6326 10.0428 49.7658 10.0561 49.8802 10.116C49.9946 10.1759 50.0815 10.2777 50.1225 10.4002C50.1635 10.5226 50.1555 10.6562 50.1003 10.7729C50.045 10.8897 49.9467 10.9805 49.826 11.0264L44.8371 12.9513L51.041 11.1842C51.1641 11.1525 51.2947 11.1688 51.4062 11.2299C51.5176 11.291 51.6017 11.3923 51.6411 11.5131C51.6806 11.634 51.6726 11.7653 51.6186 11.8805C51.5647 11.9956 51.469 12.0858 51.3509 12.1329L47.8254 13.4253L51.8221 12.2849C51.9447 12.2503 52.076 12.2639 52.189 12.3228C52.302 12.3817 52.3882 12.4816 52.43 12.6019C52.4719 12.7223 52.4662 12.8541 52.4141 12.9704C52.3621 13.0867 52.2675 13.1788 52.1499 13.2277L44.3306 16.4603L52.3833 14.1604C52.5055 14.1267 52.6358 14.1407 52.748 14.1995C52.8602 14.2582 52.946 14.3574 52.9879 14.4769C53.0298 14.5965 53.0248 14.7274 52.9739 14.8434C52.923 14.9594 52.83 15.0517 52.7136 15.1018L44.9949 18.3441L52.1201 16.3067C52.2429 16.2712 52.3747 16.284 52.4883 16.3426C52.6019 16.4012 52.6888 16.5011 52.731 16.6218C52.7733 16.7424 52.7677 16.8747 52.7155 16.9913C52.6632 17.108 52.5683 17.2003 52.4501 17.2491L46.1479 19.8739L50.4526 18.6437C50.5747 18.6088 50.7055 18.6216 50.8185 18.6797C50.9315 18.7377 51.0181 18.8366 51.0609 18.9562C51.1036 19.0758 51.0992 19.2071 51.0486 19.3236C50.998 19.4401 50.905 19.533 50.7884 19.5834L45.5025 21.8586C45.5921 21.8932 45.6699 21.9528 45.7265 22.0304C45.7831 22.108 45.8161 22.2003 45.8217 22.2961C45.8273 22.392 45.8051 22.4875 45.7579 22.5711C45.7106 22.6547 45.6403 22.723 45.5553 22.7677L41.4561 24.9184C41.4602 25.0301 41.4268 25.1399 41.3612 25.2304C41.2955 25.3208 41.2015 25.3867 41.0941 25.4174L39.7503 25.8026C39.666 25.8278 39.5764 25.8299 39.491 25.8088Z" fill="#F35252"/>
<path d="M17.3883 43.0341C17.2872 43.0091 17.1964 42.953 17.1287 42.8738C17.0609 42.7947 17.0196 42.6963 17.0105 42.5925C17.0014 42.4887 17.025 42.3846 17.0779 42.2949C17.1308 42.2051 17.2105 42.1341 17.3057 42.0919L19.2288 41.2332L15.6234 42.2603C15.5014 42.2943 15.3711 42.2808 15.2586 42.2225C15.1462 42.1641 15.0602 42.0653 15.0178 41.9459C14.9755 41.8265 14.98 41.6956 15.0305 41.5794C15.0809 41.4632 15.1736 41.3706 15.2898 41.3201L16.6023 40.7591L15.594 41.0478C15.4761 41.0803 15.3504 41.0685 15.2407 41.0145C15.131 40.9606 15.0448 40.8684 14.9985 40.7552C14.9522 40.642 14.9489 40.5158 14.9894 40.4004C15.0298 40.285 15.1111 40.1885 15.2179 40.129L17.0836 39.1168L15.9999 39.4269C15.899 39.4557 15.7916 39.4521 15.693 39.4165C15.5943 39.3809 15.5093 39.3152 15.45 39.2286C15.3907 39.1421 15.3602 39.0391 15.3627 38.9342C15.3652 38.8293 15.4006 38.7279 15.4639 38.6443L16.4455 37.3509C16.3361 37.3516 16.2295 37.3165 16.1421 37.2508C16.0546 37.1852 15.9911 37.0926 15.9612 36.9874C15.9251 36.8601 15.9409 36.7236 16.0053 36.6079C16.0696 36.4923 16.1772 36.4068 16.3044 36.3703L17.5934 36.0024C17.6942 35.9736 17.8016 35.9772 17.9003 36.0128C17.999 36.0483 18.084 36.1141 18.1433 36.2006C18.2025 36.2872 18.2331 36.3902 18.2306 36.495C18.2281 36.5999 18.1927 36.7014 18.1293 36.785L17.1675 38.0533L21.1959 36.9054C21.3138 36.873 21.4395 36.8848 21.5492 36.9387C21.659 36.9927 21.7451 37.0849 21.7914 37.1981C21.8378 37.3112 21.841 37.4374 21.8006 37.5528C21.7601 37.6682 21.6788 37.7648 21.572 37.8243L19.7051 38.8372L24.0042 37.6086C24.1259 37.5757 24.2554 37.59 24.367 37.6486C24.4785 37.7072 24.5639 37.8057 24.6059 37.9245C24.6479 38.0433 24.6436 38.1735 24.5937 38.2892C24.5438 38.4049 24.4521 38.4975 24.3369 38.5485L23.0267 39.1081L25.7143 38.3378C25.8358 38.3032 25.9659 38.3159 26.0785 38.3734C26.191 38.4308 26.2776 38.5287 26.3209 38.6474C26.3642 38.7661 26.3609 38.8968 26.3117 39.0132C26.2626 39.1296 26.1712 39.2231 26.056 39.2748L24.1328 40.1334L25.6648 39.6923C25.7834 39.6593 25.91 39.6713 26.0204 39.7258C26.1307 39.7803 26.2171 39.8737 26.2629 39.9879C26.3087 40.1021 26.3108 40.2293 26.2687 40.345C26.2266 40.4606 26.1434 40.5567 26.0349 40.6148L24.5912 41.3739L25.2939 41.1736C25.4036 41.1423 25.5206 41.1494 25.6257 41.1938C25.7307 41.2381 25.8175 41.317 25.8715 41.4174C25.9256 41.5178 25.9437 41.6337 25.9228 41.7458C25.902 41.8579 25.8434 41.9595 25.7569 42.0338L24.8995 42.7696C25.0252 42.7397 25.1576 42.7596 25.2689 42.8252C25.3802 42.8907 25.4619 42.9968 25.4967 43.1212C25.5315 43.2457 25.5168 43.3787 25.4557 43.4925C25.3946 43.6064 25.2918 43.6921 25.1688 43.7318L22.9783 44.3616C22.8688 44.3926 22.7521 44.3852 22.6474 44.3409C22.5426 44.2966 22.4561 44.2178 22.4022 44.1177C22.3482 44.0176 22.33 43.9021 22.3505 43.7902C22.371 43.6783 22.4291 43.5768 22.5151 43.5024L23.3713 42.7673L20.2185 43.6706C20.1017 43.6995 19.9784 43.6852 19.8712 43.6305C19.764 43.5758 19.6802 43.4842 19.6351 43.3727C19.5899 43.2612 19.5866 43.1371 19.6255 43.0232C19.6645 42.9094 19.7432 42.8134 19.8472 42.753L21.2911 41.9929L17.6459 43.0265C17.5622 43.0518 17.4733 43.0545 17.3883 43.0341Z" fill="#7FC3CF"/>
<path d="M47.4125 50.5518C47.312 50.5267 47.2218 50.471 47.1544 50.3924C47.0869 50.3138 47.0455 50.2162 47.0359 50.1131C47.0263 50.01 47.049 49.9065 47.1008 49.8168C47.1526 49.7271 47.2309 49.6557 47.325 49.6125L48.982 48.8491L45.2182 49.9241C45.0958 49.9595 44.9646 49.9468 44.8512 49.8887C44.7378 49.8306 44.6509 49.7314 44.6082 49.6114C44.5655 49.4914 44.5702 49.3596 44.6214 49.2429C44.6726 49.1262 44.7664 49.0335 44.8836 48.9837L46.6214 48.2395L44.582 48.8215C44.4601 48.856 44.3297 48.843 44.2171 48.785C44.1044 48.7271 44.018 48.6285 43.9752 48.5093C43.9324 48.3901 43.9365 48.2591 43.9866 48.1428C44.0366 48.0264 44.129 47.9334 44.2449 47.8826L44.872 47.6097C44.7577 47.6371 44.6373 47.6234 44.5321 47.5709C44.4269 47.5184 44.3435 47.4305 44.2967 47.3227C44.2499 47.2148 44.2425 47.0939 44.276 46.9812C44.3094 46.8685 44.3816 46.7712 44.4797 46.7063L45.9619 45.76L45.3014 45.9482C45.1951 45.9786 45.0818 45.9728 44.9791 45.9319C44.8764 45.8909 44.7902 45.8171 44.7339 45.722C44.6776 45.6269 44.6544 45.5158 44.668 45.406C44.6816 45.2963 44.7311 45.1942 44.8089 45.1157L45.332 44.5869C45.2415 44.5423 45.1666 44.4714 45.1171 44.3835C45.0677 44.2956 45.046 44.1948 45.0548 44.0943C45.0637 43.9939 45.1028 43.8984 45.1669 43.8206C45.231 43.7427 45.3171 43.686 45.414 43.658L46.703 43.2901C46.8093 43.2596 46.9226 43.2652 47.0254 43.306C47.1281 43.3467 47.2144 43.4204 47.2708 43.5155C47.3273 43.6105 47.3506 43.7216 47.3372 43.8313C47.3238 43.941 47.2744 44.0432 47.1968 44.1219L46.8588 44.463L48.9758 43.8592C49.0911 43.8267 49.2142 43.8368 49.3227 43.8874C49.4312 43.938 49.5179 44.0259 49.5671 44.1351C49.6163 44.2443 49.6247 44.3675 49.5907 44.4823C49.5567 44.5971 49.4827 44.696 49.382 44.7608L47.8995 45.7081L51.8448 44.5796C51.9663 44.5463 52.0959 44.5601 52.2077 44.6183C52.3194 44.6764 52.4051 44.7747 52.4476 44.8933C52.49 45.0119 52.4862 45.1422 52.4367 45.2581C52.3872 45.3739 52.2959 45.4669 52.1808 45.5183L51.5538 45.7912L53.9517 45.1071C54.0737 45.0731 54.2041 45.0866 54.3165 45.1449C54.4289 45.2033 54.515 45.3021 54.5573 45.4215C54.5997 45.5409 54.5952 45.6718 54.5447 45.788C54.4942 45.9042 54.4015 45.9968 54.2854 46.0473L52.5532 46.7898L54.9545 46.1045C55.0757 46.0698 55.2055 46.0822 55.318 46.1391C55.4305 46.196 55.5173 46.2934 55.5611 46.4116C55.6049 46.5298 55.6024 46.6602 55.5541 46.7767C55.5058 46.8931 55.4153 46.9871 55.3008 47.0396L53.6437 47.803L54.6341 47.5201C54.7475 47.4877 54.8687 47.4964 54.9763 47.5448C55.084 47.5931 55.171 47.6779 55.2221 47.7842C55.2732 47.8905 55.2851 48.0115 55.2556 48.1257C55.2262 48.24 55.1573 48.3401 55.0611 48.4084L53.4013 49.5865L54.1716 49.3671C54.2797 49.3362 54.395 49.3426 54.499 49.3853C54.603 49.4279 54.6896 49.5044 54.7447 49.6023C54.7999 49.7003 54.8205 49.8139 54.8032 49.925C54.7858 50.036 54.7315 50.138 54.6491 50.2144L54.2546 50.5796C54.3493 50.6449 54.4182 50.7412 54.4493 50.852C54.4854 50.9793 54.4696 51.1158 54.4053 51.2315C54.3409 51.3472 54.2333 51.4326 54.1061 51.4691L52.8181 51.8373C52.71 51.8682 52.5947 51.8618 52.4907 51.8191C52.3867 51.7765 52.3002 51.7 52.245 51.6021C52.1898 51.5041 52.1692 51.3905 52.1866 51.2794C52.2039 51.1683 52.2582 51.0664 52.3406 50.99L52.4357 50.9024L50.8722 51.3459C50.759 51.3778 50.6382 51.3688 50.531 51.3204C50.4239 51.2721 50.3372 51.1875 50.2861 51.0816C50.2351 50.9757 50.2231 50.8551 50.2521 50.7412C50.2812 50.6273 50.3494 50.5272 50.4449 50.4586L52.1002 49.2824L47.671 50.5444C47.587 50.5699 47.4978 50.5724 47.4125 50.5518Z" fill="#7FC3CF"/>
<path d="M35.5797 47.5891C35.482 47.5645 35.394 47.511 35.3272 47.4356C35.2604 47.3601 35.218 47.2663 35.2054 47.1663C35.1929 47.0663 35.2109 46.9649 35.257 46.8753C35.3031 46.7857 35.3752 46.7121 35.4639 46.6642L35.8549 46.4529L33.7359 47.0563C33.6178 47.0896 33.4916 47.0783 33.3813 47.0245C33.271 46.9708 33.1843 46.8783 33.1377 46.7648C33.0911 46.6513 33.0879 46.5246 33.1287 46.4089C33.1695 46.2931 33.2514 46.1964 33.3589 46.1372L36.3427 44.5133L30.4739 46.189C30.3514 46.2254 30.2196 46.2134 30.1056 46.1557C29.9916 46.0979 29.904 45.9986 29.8609 45.8783C29.8178 45.758 29.8224 45.6258 29.8738 45.5087C29.9251 45.3917 30.0194 45.2988 30.1371 45.2491L32.0078 44.4392L30.078 44.9869C29.9597 45.021 29.8329 45.0102 29.722 44.9567C29.6111 44.9031 29.5239 44.8105 29.477 44.6966C29.4302 44.5827 29.427 44.4555 29.4682 44.3394C29.5093 44.2233 29.5919 44.1265 29.7 44.0675L32.013 42.8004L30.5186 43.2272C30.4185 43.2559 30.312 43.2526 30.2138 43.2178C30.1157 43.183 30.0309 43.1184 29.9712 43.0331C29.9115 42.9478 29.8799 42.846 29.8809 42.7419C29.8819 42.6377 29.9153 42.5365 29.9766 42.4523L31.0406 40.99C30.9175 40.9991 30.7953 40.9624 30.6976 40.8868C30.5999 40.8112 30.5337 40.7022 30.5116 40.5807C30.4895 40.4592 30.5132 40.3338 30.5781 40.2287C30.643 40.1236 30.7445 40.0462 30.863 40.0115L32.152 39.6436C32.252 39.6149 32.3586 39.6182 32.4567 39.653C32.5549 39.6877 32.6397 39.7523 32.6994 39.8376C32.7591 39.923 32.7907 40.0248 32.7897 40.1289C32.7887 40.233 32.7552 40.3342 32.694 40.4184L31.6396 41.8667L36.0222 40.6178C36.1406 40.5837 36.2673 40.5944 36.3782 40.648C36.4892 40.7015 36.5764 40.7942 36.6232 40.9081C36.6701 41.022 36.6732 41.1492 36.6321 41.2653C36.5909 41.3813 36.5084 41.4782 36.4002 41.5371L34.0875 42.8033L39.073 41.3817C39.1946 41.3484 39.3242 41.3622 39.4359 41.4204C39.5477 41.4786 39.6334 41.5768 39.6758 41.6954C39.7183 41.814 39.7144 41.9443 39.665 42.0602C39.6155 42.1761 39.5241 42.269 39.4091 42.3204L37.5406 43.1298L40.3892 42.3174C40.5073 42.2841 40.6335 42.2954 40.7438 42.3491C40.8541 42.4029 40.9408 42.4953 40.9874 42.6089C41.034 42.7224 41.0372 42.8491 40.9964 42.9648C40.9556 43.0805 40.8737 43.1772 40.7662 43.2365L37.7825 44.8604L39.9915 44.2311C40.1091 44.1994 40.2343 44.2117 40.3435 44.2658C40.4527 44.3199 40.5383 44.412 40.5844 44.5248C40.6305 44.6377 40.6338 44.7634 40.5937 44.8785C40.5535 44.9935 40.4728 45.09 40.3666 45.1497L39.8564 45.425C39.9365 45.4314 40.014 45.4564 40.0827 45.4981C40.1514 45.5399 40.2094 45.5971 40.2519 45.6653C40.3086 45.7589 40.333 45.8685 40.3214 45.9773C40.3098 46.0862 40.2628 46.1882 40.1877 46.2677L39.6056 46.8797C39.7014 46.9193 39.7825 46.9877 39.8378 47.0755C39.893 47.1632 39.9195 47.266 39.9138 47.3695C39.908 47.4731 39.8702 47.5722 39.8056 47.6533C39.741 47.7344 39.6527 47.7934 39.5531 47.8221L38.2651 48.1903C38.1597 48.2205 38.0474 48.2152 37.9453 48.1752C37.8432 48.1353 37.7571 48.0629 37.7002 47.9692C37.6433 47.8756 37.6188 47.7658 37.6304 47.6568C37.6419 47.5478 37.689 47.4456 37.7643 47.366L38.2006 46.9083L35.8363 47.5812C35.753 47.6066 35.6645 47.6093 35.5797 47.5891Z" fill="#7FC3CF"/>
<path d="M20.4229 32.4544C20.3211 32.4289 20.2299 32.3721 20.1622 32.2919C20.0945 32.2117 20.0538 32.1122 20.0458 32.0076C20.0378 31.9029 20.0629 31.7984 20.1176 31.7089C20.1722 31.6193 20.2537 31.5492 20.3505 31.5085L20.6314 31.3912L18.7112 31.9413C18.5923 31.9753 18.4649 31.964 18.3538 31.9095C18.2427 31.8551 18.1557 31.7613 18.1097 31.6464C18.0637 31.5316 18.0619 31.4037 18.1047 31.2876C18.1476 31.1715 18.2319 31.0754 18.3415 31.0179L21.923 29.1313L18.3233 30.1598C18.205 30.1939 18.0782 30.1832 17.9673 30.1296C17.8564 30.076 17.7692 29.9834 17.7223 29.8695C17.6755 29.7556 17.6724 29.6284 17.7135 29.5123C17.7547 29.3962 17.8372 29.2994 17.9453 29.2404L19.574 28.3473L18.7156 28.5931C18.6143 28.6203 18.507 28.615 18.4089 28.5779C18.3108 28.5407 18.2269 28.4737 18.169 28.3863C18.1111 28.2988 18.0822 28.1954 18.0863 28.0906C18.0904 27.9858 18.1274 27.8849 18.192 27.8023L19.0845 26.6794C18.9678 26.6703 18.858 26.6205 18.7742 26.5387C18.6905 26.4569 18.6381 26.3484 18.6261 26.2319C18.6142 26.1155 18.6435 25.9985 18.7089 25.9015C18.7743 25.8044 18.8718 25.7334 18.9842 25.7007L20.2731 25.3328C20.3748 25.304 20.4831 25.3081 20.5823 25.3446C20.6815 25.3811 20.7666 25.4481 20.8253 25.536C20.884 25.6239 20.9134 25.7281 20.9092 25.8338C20.905 25.9394 20.8674 26.041 20.8018 26.1239L19.9436 27.2048L23.5927 26.1598C23.711 26.1257 23.8378 26.1365 23.9487 26.19C24.0596 26.2436 24.1468 26.3362 24.1937 26.4501C24.2405 26.564 24.2437 26.6912 24.2025 26.8073C24.1614 26.9234 24.0788 27.0202 23.9707 27.0792L22.342 27.9723L26.3006 26.8441C26.4174 26.8152 26.5407 26.8294 26.6479 26.8842C26.755 26.9389 26.8388 27.0304 26.884 27.142C26.9291 27.2535 26.9325 27.3776 26.8935 27.4914C26.8545 27.6052 26.7758 27.7012 26.6718 27.7617L23.0913 29.6485L28.5196 28.0976C28.6417 28.0639 28.772 28.0779 28.8842 28.1367C28.9965 28.1954 29.0822 28.2946 29.1241 28.4141C29.166 28.5336 29.161 28.6646 29.1101 28.7806C29.0592 28.8966 28.9662 28.9889 28.8498 29.039L28.42 29.22C28.5312 29.2194 28.6394 29.2559 28.7275 29.3237C28.8157 29.3915 28.8787 29.4868 28.9066 29.5944C28.9345 29.702 28.9258 29.8159 28.8817 29.918C28.8377 30.0201 28.7608 30.1046 28.6634 30.1582L27.2954 30.9074L27.9113 30.7327C28.0184 30.7033 28.1323 30.7103 28.235 30.7528C28.3376 30.7952 28.4232 30.8707 28.4783 30.9672C28.5333 31.0637 28.5546 31.1758 28.5388 31.2858C28.5231 31.3957 28.4711 31.4973 28.3912 31.5745L27.651 32.2664C27.772 32.2651 27.8893 32.3076 27.9813 32.3862C28.0733 32.4647 28.1337 32.574 28.1513 32.6936C28.1689 32.8133 28.1425 32.9353 28.077 33.037C28.0115 33.1388 27.9114 33.2133 27.7952 33.2468L25.9612 33.77C25.8541 33.7995 25.7402 33.7924 25.6375 33.75C25.5349 33.7075 25.4493 33.6321 25.3942 33.5356C25.3392 33.439 25.3179 33.327 25.3337 33.217C25.3494 33.107 25.4013 33.0054 25.4813 32.9282L26.1943 32.2625L23.2656 33.0941C23.1473 33.1282 23.0205 33.1174 22.9096 33.0639C22.7987 33.0103 22.7115 32.9177 22.6646 32.8038C22.6178 32.6899 22.6147 32.5627 22.6558 32.4466C22.697 32.3305 22.7795 32.2337 22.8876 32.1747L24.2563 31.4267L20.6824 32.4473C20.5981 32.4728 20.5085 32.4753 20.4229 32.4544Z" fill="#7FC3CF"/>
<path d="M47.9103 39.3369C47.8085 39.3114 47.7173 39.2545 47.6497 39.1743C47.582 39.0941 47.5412 38.9946 47.5332 38.89C47.5252 38.7854 47.5503 38.6809 47.605 38.5913C47.6597 38.5017 47.7412 38.4316 47.8379 38.391L49.6747 37.6014L47.2328 38.2961C47.1116 38.3309 46.9818 38.3185 46.8693 38.2616C46.7568 38.2047 46.67 38.1073 46.6262 37.9891C46.5824 37.8709 46.5849 37.7405 46.6332 37.624C46.6815 37.5075 46.772 37.4136 46.8866 37.361L48.4003 36.6679L47.5566 36.9082C47.4378 36.9407 47.3112 36.9283 47.2011 36.8732C47.0909 36.8181 47.0049 36.7243 46.9596 36.6098C46.9144 36.4952 46.913 36.368 46.9557 36.2525C46.9984 36.137 47.0823 36.0413 47.1912 35.9838L47.7591 35.692C47.6704 35.6974 47.5819 35.6791 47.5026 35.639C47.4233 35.5989 47.3562 35.5383 47.3081 35.4636C47.2501 35.3734 47.2226 35.267 47.2297 35.16C47.2368 35.053 47.2781 34.9511 47.3476 34.8694L48.1233 33.9575C48.0329 33.9393 47.9492 33.8968 47.8812 33.8346C47.8133 33.7723 47.7636 33.6927 47.7376 33.6042C47.7014 33.4769 47.7172 33.3404 47.7816 33.2247C47.8459 33.109 47.9535 33.0236 48.0807 32.9871L49.3697 32.6192C49.4728 32.5893 49.5828 32.5935 49.6834 32.6311C49.784 32.6686 49.8699 32.7375 49.9282 32.8277C49.9866 32.9178 50.0144 33.0243 50.0076 33.1314C50.0007 33.2386 49.9595 33.3407 49.8901 33.4226L49.1802 34.2613L52.332 33.3619C52.4508 33.3294 52.5774 33.3419 52.6876 33.397C52.7977 33.452 52.8837 33.5458 52.929 33.6604C52.9742 33.7749 52.9757 33.9021 52.9329 34.0177C52.8902 34.1332 52.8063 34.2288 52.6974 34.2863L52.1826 34.5513L54.4719 33.8977C54.5928 33.8641 54.7219 33.8772 54.8336 33.9344C54.9453 33.9915 55.0314 34.0885 55.0748 34.2062C55.1183 34.3239 55.116 34.4536 55.0682 34.5697C55.0205 34.6857 54.9309 34.7795 54.8172 34.8326L53.3033 35.5267L56.8883 34.5028C57.0105 34.4678 57.1413 34.4807 57.2543 34.5387C57.3672 34.5968 57.4539 34.6956 57.4966 34.8152C57.5394 34.9348 57.535 35.0662 57.4844 35.1827C57.4338 35.2992 57.3407 35.3921 57.2242 35.4425L55.3859 36.2337L57.6071 35.5971C57.7244 35.5629 57.8503 35.5729 57.9608 35.6251C58.0713 35.6774 58.1588 35.7683 58.2068 35.8808C58.2548 35.9932 58.26 36.1193 58.2213 36.2353C58.1827 36.3512 58.1028 36.449 57.997 36.5101L55.1941 38.1402L57.1181 37.591C57.2322 37.5583 57.3543 37.5672 57.4624 37.6163C57.5705 37.6653 57.6577 37.7512 57.7083 37.8585C57.7589 37.9659 57.7696 38.0878 57.7386 38.2024C57.7075 38.317 57.6367 38.4168 57.5388 38.484L56.7606 39.019C56.8878 38.9835 57.0238 38.9999 57.139 39.0644C57.2542 39.1289 57.3392 39.2363 57.3755 39.3633C57.4118 39.4902 57.3964 39.6264 57.3326 39.742C57.2689 39.8576 57.162 39.9434 57.0353 39.9805L54.1037 40.8154C53.9898 40.8476 53.8682 40.8383 53.7606 40.7893C53.6529 40.7403 53.5661 40.6547 53.5156 40.5477C53.4651 40.4407 53.4542 40.3192 53.4848 40.2049C53.5154 40.0907 53.5855 39.9909 53.6827 39.9235L54.4612 39.3875L51.6281 40.1956C51.5107 40.2298 51.3849 40.2198 51.2744 40.1676C51.1639 40.1153 51.0763 40.0244 51.0283 39.9119C50.9803 39.7995 50.9752 39.6734 51.0138 39.5574C51.0525 39.4414 51.1323 39.3437 51.2382 39.2825L54.0386 37.654L48.1699 39.3297C48.0855 39.3552 47.9959 39.3577 47.9103 39.3369Z" fill="#7FC3CF"/>
<path d="M34.4285 35.9613C34.3311 35.9372 34.2431 35.8842 34.1762 35.8094C34.1092 35.7346 34.0663 35.6414 34.0531 35.5419C34.0399 35.4423 34.0569 35.3411 34.102 35.2514C34.1471 35.1617 34.2181 35.0877 34.3059 35.0389L38.1193 32.9011L32.7122 34.4502C32.5958 34.482 32.4718 34.4707 32.3631 34.4183C32.2545 34.3659 32.1684 34.276 32.1208 34.1651C32.0732 34.0542 32.0673 33.9299 32.1042 33.815C32.1411 33.7001 32.2183 33.6025 32.3215 33.54L35.0504 31.9214L33.2142 32.4451C33.1136 32.4737 33.0066 32.4701 32.9082 32.4347C32.8098 32.3994 32.7249 32.3341 32.6656 32.248C32.6062 32.1619 32.5754 32.0593 32.5773 31.9548C32.5793 31.8502 32.614 31.7489 32.6765 31.6651L33.6828 30.3223C33.5611 30.3258 33.4423 30.2848 33.3486 30.2069C33.255 30.1291 33.193 30.0197 33.1743 29.8994C33.1556 29.779 33.1814 29.656 33.247 29.5533C33.3126 29.4507 33.4133 29.3755 33.5304 29.3419L34.8194 28.974C34.92 28.945 35.0272 28.9484 35.1259 28.9836C35.2245 29.0189 35.3096 29.0842 35.3691 29.1704C35.4285 29.2567 35.4592 29.3594 35.457 29.4641C35.4549 29.5688 35.4199 29.6702 35.357 29.7539L34.366 31.0769L38.5027 29.8962C38.619 29.8644 38.743 29.8757 38.8517 29.9281C38.9604 29.9805 39.0464 30.0705 39.094 30.1813C39.1416 30.2922 39.1475 30.4165 39.1106 30.5314C39.0737 30.6463 38.9965 30.7439 38.8933 30.8064L36.163 32.4226L41.9728 30.7682C42.0919 30.7312 42.2205 30.7401 42.3334 30.793C42.4463 30.846 42.5353 30.9392 42.583 31.0545C42.6307 31.1697 42.6336 31.2985 42.5912 31.4158C42.5488 31.5331 42.4641 31.6302 42.3537 31.6883L38.5393 33.8258L42.9127 32.5766C43.0256 32.5446 43.1462 32.5533 43.2534 32.6012C43.3605 32.6491 43.4474 32.7332 43.4988 32.8388C43.5502 32.9443 43.5628 33.0646 43.5344 33.1785C43.506 33.2924 43.4385 33.3927 43.3436 33.4618L40.9666 35.1861L42.3604 34.7825C42.4656 34.753 42.5777 34.7587 42.6794 34.799C42.7812 34.8392 42.8669 34.9117 42.9234 35.0053C42.98 35.0989 43.0044 35.2084 42.9927 35.3172C42.9811 35.4259 42.9341 35.5279 42.8589 35.6074L42.2808 36.2161C42.376 36.2562 42.4565 36.3248 42.5112 36.4125C42.5659 36.5002 42.5921 36.6026 42.5861 36.7058C42.5802 36.809 42.5424 36.9078 42.478 36.9886C42.4137 37.0694 42.3258 37.1283 42.2266 37.1572L40.9386 37.5254C40.8333 37.5551 40.7212 37.5495 40.6195 37.5094C40.5177 37.4693 40.4319 37.397 40.3751 37.3035C40.3184 37.21 40.2939 37.1004 40.3054 36.9917C40.3169 36.8829 40.3638 36.7809 40.4388 36.7013L40.8697 36.2484L38.5198 36.9135C38.4068 36.9456 38.2862 36.9369 38.1791 36.889C38.0719 36.841 37.985 36.7569 37.9336 36.6514C37.8822 36.5458 37.8696 36.4256 37.898 36.3117C37.9264 36.1978 37.9939 36.0975 38.0888 36.0284L40.4658 34.3041L34.6929 35.9512C34.6073 35.9783 34.516 35.9817 34.4285 35.9613Z" fill="#7FC3CF"/>
<path d="M19.5488 63.1926C19.4447 63.1664 19.3518 63.1075 19.2838 63.0245C19.2159 62.9416 19.1763 62.8389 19.1712 62.7318C19.166 62.6246 19.1954 62.5186 19.2551 62.4295C19.3147 62.3403 19.4015 62.2728 19.5025 62.2367L23.5961 60.7752L18.5431 62.2191C18.418 62.2551 18.2839 62.2409 18.1691 62.1796C18.0544 62.1182 17.9681 62.0145 17.9285 61.8906C17.889 61.7666 17.8993 61.6321 17.9573 61.5156C18.0154 61.3992 18.1165 61.3099 18.2393 61.2668L20.4622 60.4833L18.8632 60.9406C18.7401 60.9754 18.6083 60.9617 18.495 60.9023C18.3817 60.8429 18.2954 60.7424 18.254 60.6213C18.2126 60.5003 18.2192 60.3679 18.2724 60.2516C18.3256 60.1352 18.4214 60.0437 18.54 59.9958L23.7271 57.9257L19.3019 59.1887C19.1814 59.2231 19.0523 59.211 18.9404 59.1547C18.8284 59.0985 18.7416 59.0023 18.6971 58.8851C18.6527 58.768 18.6539 58.6384 18.7005 58.5221C18.747 58.4057 18.8356 58.3111 18.9486 58.257L23.8351 55.9096L19.8382 57.0509C19.7172 57.0853 19.5877 57.0729 19.4755 57.016C19.3632 56.9592 19.2766 56.8622 19.2327 56.7443C19.1889 56.6264 19.1911 56.4963 19.2389 56.3799C19.2867 56.2636 19.3766 56.1696 19.4907 56.1166L20.912 55.4591L20.185 55.6657C20.0659 55.7027 19.9373 55.6938 19.8244 55.6408C19.7115 55.5879 19.6225 55.4947 19.5748 55.3794C19.5271 55.2642 19.5241 55.1353 19.5666 55.0181C19.609 54.9008 19.6937 54.8036 19.8041 54.7456L20.6179 54.2907L20.5226 54.3173C20.4291 54.3439 20.3299 54.3426 20.2371 54.3137C20.1444 54.2848 20.062 54.2294 20.0002 54.1545C19.9384 54.0795 19.8997 53.9881 19.889 53.8915C19.8783 53.7949 19.8959 53.6973 19.9398 53.6106L20.5531 52.3962C20.4615 52.3307 20.395 52.2359 20.3648 52.1274C20.3285 52.0002 20.3442 51.8637 20.4083 51.748C20.4725 51.6323 20.5799 51.5467 20.707 51.51L21.2622 51.3511C21.3558 51.3243 21.4552 51.3253 21.5482 51.3541C21.6412 51.3829 21.7237 51.4383 21.7857 51.5134C21.8477 51.5884 21.8864 51.68 21.8971 51.7767C21.9078 51.8735 21.8901 51.9713 21.846 52.0581L21.3462 53.0411L24.4673 52.1495C24.5864 52.1125 24.715 52.1214 24.8279 52.1744C24.9408 52.2273 25.0298 52.3205 25.0775 52.4358C25.1252 52.551 25.1281 52.6799 25.0857 52.7971C25.0433 52.9144 24.9586 53.0116 24.8482 53.0696L24.0331 53.5253L26.808 52.7356C26.9288 52.7015 27.058 52.714 27.1699 52.7708C27.2819 52.8275 27.3684 52.9243 27.4123 53.0419C27.4562 53.1594 27.4543 53.2892 27.407 53.4054C27.3596 53.5217 27.2703 53.6158 27.1567 53.6692L25.7364 54.327L29.2125 53.3346C29.3326 53.3014 29.4606 53.3143 29.5717 53.3706C29.6827 53.4269 29.7688 53.5226 29.813 53.639C29.8572 53.7554 29.8564 53.8841 29.8107 53.9999C29.7651 54.1158 29.6778 54.2104 29.5661 54.2653L24.6793 56.6096L32.9279 54.2566C33.051 54.2218 33.1827 54.2355 33.2961 54.2948C33.4094 54.3542 33.4956 54.4548 33.537 54.5759C33.5784 54.6969 33.5719 54.8292 33.5187 54.9456C33.4655 55.062 33.3697 55.1535 33.2511 55.2014L28.0639 57.2715L35.968 55.0137C36.0931 54.9777 36.2272 54.9919 36.342 55.0532C36.4567 55.1146 36.543 55.2183 36.5826 55.3422C36.6221 55.4662 36.6118 55.6007 36.5538 55.7172C36.4957 55.8336 36.3946 55.9229 36.2718 55.966L34.045 56.7486L38.1919 55.5643C38.3164 55.5296 38.4495 55.5445 38.5634 55.6058C38.6772 55.6672 38.7628 55.7702 38.8022 55.8933C38.8417 56.0164 38.8319 56.1501 38.775 56.2661C38.7181 56.3822 38.6184 56.4717 38.4969 56.5159L34.4091 57.9747L40.681 56.1834C40.8048 56.1484 40.9374 56.1625 41.0511 56.2227C41.1648 56.2829 41.251 56.3847 41.2916 56.5068C41.3322 56.6289 41.3241 56.762 41.2691 56.8783C41.2141 56.9946 41.1164 57.0853 40.9962 57.1314L34.033 59.7773L43.849 56.9777C43.9737 56.9405 44.108 56.9534 44.2233 57.0137C44.3386 57.074 44.4259 57.1768 44.4667 57.3004C44.5074 57.424 44.4983 57.5586 44.4414 57.6756C44.3844 57.7926 44.2841 57.8828 44.1617 57.9271L37.7361 60.3324L43.6095 58.6547C43.7313 58.6215 43.8613 58.6357 43.9731 58.6943C44.085 58.753 44.1705 58.8518 44.2125 58.971C44.2545 59.0901 44.2498 59.2207 44.1994 59.3366C44.1491 59.4524 44.0567 59.5449 43.9409 59.5954L37.2148 62.4471L43.0846 60.7716C43.2054 60.7375 43.3345 60.7501 43.4465 60.8068C43.5584 60.8635 43.645 60.9603 43.6889 61.0779C43.7328 61.1955 43.7309 61.3252 43.6835 61.4415C43.6362 61.5577 43.5468 61.6519 43.4332 61.7053L38.9286 63.804L42.5927 62.7566C42.7085 62.7262 42.8313 62.7383 42.9389 62.7907C43.0465 62.8432 43.1317 62.9325 43.1791 63.0424C43.2264 63.1523 43.2328 63.2756 43.1969 63.3898C43.1611 63.504 43.0855 63.6016 42.9838 63.6648L40.0985 65.3896L42.0771 64.8243C42.1892 64.7922 42.309 64.8003 42.4158 64.8473C42.5226 64.8942 42.6096 64.977 42.6618 65.0814C42.7139 65.1857 42.728 65.305 42.7015 65.4186C42.675 65.5321 42.6096 65.6329 42.5167 65.7034L41.6504 66.3555L41.7001 66.3422C41.7641 66.3209 41.8317 66.3128 41.8989 66.3183C41.9661 66.3239 42.0315 66.343 42.0912 66.3744C42.1508 66.4059 42.2035 66.4491 42.246 66.5015C42.2885 66.5538 42.32 66.6142 42.3385 66.6791C42.3571 66.7439 42.3623 66.8118 42.3539 66.8787C42.3456 66.9456 42.3238 67.0102 42.2898 67.0684C42.2558 67.1267 42.2105 67.1775 42.1564 67.2177C42.1023 67.258 42.0406 67.2869 41.975 67.3027L39.3549 68.0507C39.2427 68.0828 39.1229 68.0746 39.0161 68.0277C38.9094 67.9807 38.8224 67.8979 38.7702 67.7936C38.718 67.6893 38.704 67.57 38.7304 67.4564C38.7569 67.3428 38.8223 67.2421 38.9152 67.1716L39.7801 66.5171L36.7125 67.3932C36.5967 67.4236 36.4738 67.4115 36.3663 67.3591C36.2587 67.3066 36.1734 67.2173 36.1261 67.1074C36.0788 66.9975 36.0724 66.8742 36.1082 66.76C36.1441 66.6458 36.2197 66.5482 36.3213 66.485L39.2067 64.756L33.1133 66.4972C32.9928 66.5302 32.8643 66.517 32.7531 66.4601C32.6419 66.4031 32.5561 66.3066 32.5125 66.1895C32.4688 66.0725 32.4706 65.9433 32.5175 65.8275C32.5644 65.7117 32.6529 65.6176 32.7656 65.5638L37.2715 63.4643L29.665 65.641C29.5428 65.6755 29.412 65.6621 29.2992 65.6037C29.1864 65.5453 29.1001 65.4461 29.0578 65.3263C29.0155 65.2066 29.0204 65.0752 29.0714 64.9589C29.1224 64.8426 29.2158 64.75 29.3326 64.7001L36.0557 61.8476L25.9887 64.7236C25.864 64.7608 25.7297 64.7478 25.6144 64.6876C25.4991 64.6273 25.4118 64.5245 25.3711 64.4009C25.3303 64.2773 25.3394 64.1427 25.3963 64.0257C25.4533 63.9086 25.5536 63.8184 25.676 63.7742L32.1036 61.3694L22.9816 63.9748C22.8577 64.0098 22.7252 63.9957 22.6115 63.9355C22.4977 63.8753 22.4116 63.7735 22.371 63.6514C22.3304 63.5293 22.3385 63.3962 22.3935 63.2799C22.4485 63.1636 22.5462 63.0729 22.6664 63.0268L29.6296 60.3809L19.8136 63.1805C19.7281 63.2086 19.6365 63.2128 19.5488 63.1926Z" fill="#7FC3CF"/>
<path d="M32.9921 56.219C32.8928 56.194 32.8036 56.1391 32.7365 56.0617C32.6693 55.9843 32.6276 55.8882 32.6169 55.7864C32.6062 55.6845 32.627 55.5818 32.6766 55.4922C32.7262 55.4025 32.8021 55.3303 32.894 55.2852L33.337 55.0683L31.1573 55.6874C31.0465 55.7189 30.9281 55.7112 30.8223 55.6656C30.7165 55.6199 30.6298 55.5391 30.5767 55.4368C30.5236 55.3345 30.5075 55.217 30.531 55.1042C30.5546 54.9914 30.6164 54.8902 30.706 54.8177L32.6299 53.2728L27.4333 54.755C27.3165 54.7838 27.1932 54.7696 27.086 54.7148C26.9788 54.6601 26.895 54.5686 26.8499 54.457C26.8048 54.3455 26.8014 54.2214 26.8403 54.1076C26.8793 53.9938 26.958 53.8978 27.062 53.8373L27.9863 53.3533L25.0998 54.1769C24.9845 54.2093 24.8615 54.1993 24.753 54.1486C24.6445 54.098 24.5577 54.0101 24.5085 53.9009C24.4594 53.7917 24.451 53.6685 24.485 53.5537C24.5189 53.4389 24.593 53.3401 24.6936 53.2752L26.3726 52.206L22.1067 53.4213C21.991 53.4544 21.8673 53.4446 21.7582 53.3939C21.6492 53.3431 21.562 53.2548 21.5129 53.145C21.4637 53.0352 21.4557 52.9113 21.4905 52.7962C21.5252 52.681 21.6003 52.5822 21.702 52.5179L23.3555 51.4763L20.0989 52.4031C19.9834 52.4355 19.8601 52.4253 19.7515 52.3744C19.6429 52.3235 19.5563 52.2352 19.5073 52.1257C19.4584 52.0163 19.4504 51.8928 19.4849 51.7779C19.5194 51.6631 19.594 51.5644 19.6951 51.5L20.7691 50.8215L20.3349 50.9458C20.227 50.978 20.1114 50.9729 20.0068 50.9312C19.9022 50.8896 19.8147 50.8138 19.7586 50.7163C19.7024 50.6187 19.6807 50.505 19.6972 50.3937C19.7136 50.2823 19.7672 50.1797 19.8492 50.1025L20.3153 49.6492C20.2014 49.584 20.1172 49.4772 20.0806 49.3513C20.0444 49.2239 20.0603 49.0874 20.1246 48.9718C20.1889 48.8561 20.2965 48.7706 20.4238 48.7341L21.7127 48.3662C21.8206 48.334 21.9362 48.3391 22.0408 48.3807C22.1454 48.4224 22.2329 48.4981 22.2891 48.5957C22.3453 48.6933 22.3669 48.8069 22.3505 48.9183C22.334 49.0297 22.2805 49.1323 22.1985 49.2094L21.9612 49.4407L23.8408 48.9042C23.9564 48.8711 24.0802 48.8808 24.1892 48.9315C24.2983 48.9823 24.3854 49.0707 24.4346 49.1805C24.4838 49.2902 24.4918 49.4141 24.457 49.5293C24.4223 49.6444 24.3472 49.7432 24.2455 49.8075L23.173 50.4843L26.4349 49.5486C26.5506 49.5155 26.6743 49.5252 26.7834 49.5759C26.8925 49.6267 26.9796 49.7151 27.0288 49.8248C27.078 49.9346 27.0859 50.0585 27.0512 50.1737C27.0165 50.2888 26.9413 50.3876 26.8397 50.4519L25.1861 51.5017L29.4048 50.2983C29.52 50.2659 29.6431 50.2759 29.7516 50.3266C29.8601 50.3772 29.9468 50.4651 29.996 50.5743C30.0452 50.6835 30.0536 50.8067 30.0196 50.9215C29.9856 51.0363 29.9116 51.1352 29.8109 51.2L28.1332 52.2685L32.4051 51.0496C32.522 51.0208 32.6453 51.035 32.7524 51.0897C32.8596 51.1444 32.9434 51.236 32.9885 51.3475C33.0337 51.459 33.037 51.5831 32.9981 51.697C32.9591 51.8108 32.8804 51.9068 32.7764 51.9672L31.8487 52.4566L34.7352 51.633C34.8459 51.602 34.9639 51.6101 35.0693 51.6559C35.1748 51.7017 35.2612 51.7824 35.3141 51.8845C35.367 51.9866 35.383 52.1038 35.3596 52.2163C35.3362 52.3289 35.2747 52.4299 35.1855 52.5024L33.2612 54.0494L38.4588 52.5674C38.5783 52.5349 38.7056 52.5478 38.8161 52.6038C38.9266 52.6597 39.0124 52.7547 39.0568 52.8703C39.1013 52.9859 39.1013 53.1139 39.0568 53.2295C39.0123 53.3451 38.9264 53.44 38.8159 53.496L38.373 53.7129L40.5531 53.0918C40.6627 53.0612 40.7795 53.069 40.8842 53.1137C40.9888 53.1585 41.075 53.2377 41.1286 53.3381C41.1822 53.4385 41.1999 53.5542 41.1788 53.666C41.1577 53.7779 41.0991 53.8792 41.0126 53.9532L39.0832 55.5824L44.4198 54.06C44.5347 54.0268 44.6577 54.0359 44.7665 54.0857C44.8753 54.1355 44.9626 54.2227 45.0126 54.3314C45.0626 54.4401 45.072 54.5631 45.039 54.6781C45.006 54.7931 44.9329 54.8925 44.8329 54.9582L43.0909 56.0982L45.4377 55.4292C45.5478 55.3981 45.6653 55.4057 45.7705 55.4508C45.8758 55.4958 45.9623 55.5757 46.0158 55.6769C46.0692 55.7781 46.0863 55.8946 46.0642 56.0069C46.0421 56.1193 45.9821 56.2206 45.8943 56.294L45.0005 57.0351L45.0384 57.024C45.1637 56.9937 45.2959 57.0131 45.4073 57.078C45.5188 57.143 45.6008 57.2485 45.6363 57.3724C45.6717 57.4964 45.658 57.6293 45.5978 57.7434C45.5376 57.8574 45.4357 57.9438 45.3133 57.9845L42.9818 58.6501C42.8716 58.6813 42.7541 58.6737 42.6489 58.6286C42.5437 58.5835 42.4571 58.5037 42.4037 58.4025C42.3502 58.3012 42.3331 58.1847 42.3552 58.0724C42.3773 57.9601 42.4373 57.8588 42.5252 57.7853L43.4189 57.0442L40.2196 57.9565C40.1048 57.989 39.9822 57.9794 39.8739 57.9294C39.7655 57.8794 39.6787 57.7924 39.6289 57.684C39.5791 57.5756 39.5698 57.4529 39.6025 57.3382C39.6352 57.2235 39.7079 57.1243 39.8073 57.0584L41.547 55.9158L37.1178 57.1778C37.0082 57.2083 36.8914 57.2006 36.7868 57.1558C36.6821 57.111 36.5959 57.0319 36.5423 56.9315C36.4888 56.8311 36.4711 56.7154 36.4921 56.6035C36.5132 56.4917 36.5718 56.3904 36.6583 56.3164L38.589 54.6865L33.2517 56.2118C33.1673 56.2373 33.0777 56.2398 32.9921 56.219Z" fill="#FFCE48"/>
<path d="M63.6594 32.085L63.7808 31.6C66.0426 31.7643 67.3602 28.2356 66.5093 26.3185C66.3056 26.0226 66.0452 25.77 65.7432 25.5755C65.4412 25.381 65.1036 25.2483 64.7499 25.1853C59.2967 23.8013 53.8302 22.4625 48.3744 21.0851C57.7269 17.5261 51.9735 5.95313 43.6322 10.8343C39.0238 2.73337 27.5795 10.0106 34.0797 17.5059L20.0304 13.9881C17.9803 13.1965 15.0218 13.1835 14.6679 15.9226C14.1632 17.3291 14.041 19.1963 15.7625 19.7851C12.6696 32.2615 9.46914 44.714 6.39556 57.1953C5.64907 60.4319 9.90353 60.7116 12.091 61.2593L40.8774 68.467C40.9952 68.581 41.141 68.662 41.3 68.7018C41.459 68.7417 41.6258 68.7389 41.7834 68.6939C45.7784 68.9602 54.044 74.3409 54.7551 67.6472L63.6594 32.085ZM55.4368 23.5719C58.3327 24.3578 61.3086 24.9391 64.1819 25.7616C65.6893 26.374 65.2927 27.8262 64.9925 29.0252C64.7921 29.8255 64.561 30.9006 63.5981 31.012C63.3243 30.8885 63.0157 30.8649 62.7262 30.9452C55.5479 28.9541 48.3045 27.3012 41.0892 25.4452C43.2448 24.1768 45.3716 22.863 47.5246 21.5929L55.4368 23.5719ZM33.6219 12.4049C34.3069 6.78709 40.616 6.74524 42.5814 11.6835C44.6159 12.7764 46.3759 8.25445 50.2289 11.5046C56.0786 18.3123 44.4683 21.8142 40.1307 24.8928C38.6639 22.6524 37.4133 20.3477 35.9712 18.0908C34.8526 16.3665 33.49 14.4182 33.6219 12.4049ZM15.8916 16.997C16.1064 16.0487 16.3234 14.1156 17.628 14.1051C23.2679 15.509 28.9384 16.9433 34.5894 18.352L38.456 24.7838L17.9161 19.6409C16.631 19.3222 15.4908 18.7254 15.8916 16.997ZM21.7076 49.1814C29.2885 51.0796 36.9333 52.9824 44.4893 54.8856C45.0514 55.2263 44.8821 55.82 44.7563 56.3225C44.6638 56.8951 44.5076 57.4555 44.2905 57.9934C44.0523 57.8982 43.7874 57.8939 43.5462 57.9812L32.895 55.3143C29.0424 54.3023 25.0128 53.3882 21.1437 52.372C20.2846 51.9167 20.8524 50.6002 21.0602 49.877C21.2681 49.1538 21.0659 49.0764 21.7076 49.1814ZM32.9044 56.1084L43.1249 58.6675L40.8949 67.5735L30.6744 65.0145L32.9044 56.1084ZM21.1032 53.8349L21.2406 53.2859C24.7484 53.958 28.0446 54.9318 31.4968 55.756L29.2669 64.662L19.0309 62.0991L21.1032 53.8349ZM53.0478 68.4877C52.6627 72.2694 44.8794 67.9887 42.3238 67.9354L44.6203 58.7636C46.1008 58.5157 47.2763 54.7763 45.2661 54.2863C38.8946 52.6467 32.4805 51.1149 26.1007 49.4876C24.1232 49.2667 20.9038 47.1256 19.6551 49.5231C19.29 50.4626 18.707 52.2185 19.8673 52.7926L17.625 61.7481C15.4915 60.7541 7.67956 60.4949 7.76197 57.959C10.708 45.3696 14.0817 32.7769 17.1567 20.1827C32.2389 23.9312 47.2284 27.7122 62.3108 31.4886L53.0478 68.4877Z" fill="#262626"/>
<path d="M26.5746 40.2459C27.3812 38.5026 25.6486 37.6699 24.1663 37.5131C22.0171 36.9936 19.8825 36.4075 17.7309 35.9018C14.9463 35.4046 15.203 39.2088 14.5669 41.0082C14.2611 43.5717 21.648 43.6966 23.6126 44.6566C26.1739 45.1113 25.9927 41.9073 26.5746 40.2459ZM16.326 41.7352C16.1291 41.6653 16.0048 41.3713 16.0643 41.0512C16.4116 39.73 16.6825 38.3598 17.0858 37.066C19.5643 37.0485 22.433 38.3873 25.0307 38.8285C25.664 39.9262 24.533 41.4419 24.4562 42.6628C24.4052 42.8665 24.2877 43.7102 24.0006 43.6589C21.451 42.9845 18.8631 42.4262 16.326 41.7352Z" fill="#262626"/>
<path d="M53.4541 44.9949C47.7293 44.148 44.7304 40.2334 43.6731 48.2971C43.4379 49.5412 44.7465 49.8029 45.6448 50.0278C48.05 50.1218 53.5413 53.408 54.8728 50.7044C55.2644 48.2387 57.3877 45.3169 53.4541 44.9949ZM45.5944 49.2121C44.767 48.9019 45.335 47.6009 45.4853 47.0004C45.8289 46.0401 45.798 44.8706 46.3836 44.0348C48.8519 44.6219 51.3066 45.2674 53.771 45.8742C54.7479 46.1188 54.2114 47.3596 54.0436 48.0299C53.6823 48.9992 53.7359 50.2919 53.0917 51.0904C50.6106 50.4269 48.0714 49.9004 45.5993 49.2133L45.5944 49.2121Z" fill="#262626"/>
<path d="M41.2835 42.6568C41.0374 41.7705 39.8073 41.6769 39.0575 41.4891C36.9108 40.9599 34.7711 40.4025 32.6231 39.8781C29.6216 38.9461 29.7252 42.6987 29.125 44.6431C28.7216 46.7812 36.1317 47.1263 37.8483 47.9695C38.1723 48.0869 38.5205 48.1214 38.8612 48.0701C39.202 48.0187 39.5245 47.8831 39.7995 47.6755C40.0746 47.4678 40.2934 47.1948 40.4361 46.8811C40.5788 46.5675 40.641 46.2231 40.6168 45.8794C40.9588 44.8335 41.1825 43.7525 41.2835 42.6568ZM31.5306 40.2024C31.3538 40.1798 31.4608 40.1849 31.5306 40.2024V40.2024ZM31.192 45.7049C30.2011 45.3971 30.7448 44.1353 30.9168 43.4485C31.271 42.4455 31.1949 41.1028 31.9123 40.2959C34.3042 40.9082 36.7219 41.4425 39.1024 42.0962C40.2036 42.3998 39.6919 43.5994 39.4959 44.3823C39.1235 45.3673 39.1836 46.7493 38.4945 47.5334C36.067 46.907 33.6171 46.3452 31.192 45.7049Z" fill="#262626"/>
<path d="M17.2433 30.3398C16.8394 32.5622 24.3365 32.889 26.1055 33.7577C27.7 34.1744 28.6398 33.0026 28.7495 31.5188C28.9223 30.4539 29.4999 29.3821 29.3907 28.3033C29.1148 27.3837 27.8238 27.2738 27.0245 27.0737C24.8768 26.5483 22.739 25.979 20.5901 25.4626C17.6734 24.6983 17.8711 28.4703 17.2433 30.3398ZM19.0608 29.0424C19.407 28.0714 19.3696 26.8827 19.9743 26.0445C22.4371 26.6333 24.8867 27.2745 27.3492 27.8807C28.3134 28.1222 27.8014 29.3681 27.6249 30.0734C27.2668 31.0713 27.301 32.3138 26.6774 33.17C24.187 32.5103 21.6544 31.97 19.1759 31.2917C18.3519 30.9967 18.9037 29.67 19.0603 29.0443L19.0608 29.0424Z" fill="#262626"/>
<path d="M56.1263 34.3471C53.4626 34.1533 49.8459 31.5942 47.5116 33.3044C47.0265 34.7174 46.6364 36.1612 46.3439 37.6262C46.1114 38.8638 47.4263 39.1085 48.3168 39.3315C50.7264 39.4287 56.1832 42.6959 57.5453 40.0309C57.9301 37.5676 60.0619 34.6614 56.1263 34.3471ZM48.2667 38.5643C47.4501 38.2805 48.0024 36.9519 48.1581 36.3301C48.5033 35.3629 48.4686 34.1842 49.0646 33.3438C51.5295 33.9321 53.9818 34.575 56.4394 35.18C57.4007 35.4207 56.89 36.6495 56.7124 37.3586C56.3601 38.3538 56.3888 39.5898 55.771 40.4433C53.2862 39.7861 50.7553 39.239 48.2705 38.5653L48.2667 38.5643Z" fill="#262626"/>
<path d="M31.7941 33.9832C31.3943 36.1974 38.889 36.5256 40.6563 37.3928C42.2479 37.8089 43.1925 36.6465 43.3003 35.1622C43.4729 34.0983 44.0505 33.0265 43.9412 31.9477C43.6661 31.0334 42.371 30.9236 41.5755 30.7244C39.4276 30.2 37.2903 29.6288 35.1411 29.1133C32.2235 28.3488 32.4212 32.1125 31.7941 33.9832ZM35.7908 29.9894L41.8963 31.5181C42.8664 31.761 42.3464 33.0142 42.1703 33.7175C41.8108 34.7171 41.846 35.964 41.2202 36.8207C38.7313 36.1593 36.1972 35.6248 33.7217 34.9431C32.9032 34.6423 33.455 33.3156 33.6121 32.688C33.9634 31.7173 33.9166 30.5169 34.5295 29.6828C34.9561 29.7659 35.3674 29.8895 35.7908 29.9894Z" fill="#262626"/>
<path d="M40.2284 16.8025L41.5254 17.1272C41.4802 17.7973 40.6178 19.0473 41.6827 19.2366C42.7665 19.4616 42.7175 18.2082 42.9465 17.4831C45.4072 18.36 45.9268 16.8201 43.1937 16.4955C43.2389 15.8254 44.1013 14.5755 43.0364 14.3861C41.9526 14.1612 42.0016 15.4146 41.7726 16.1397C41.1243 16.0403 40.1399 15.4639 39.6941 16.2069C39.5596 16.5587 39.9684 16.7374 40.2284 16.8025Z" fill="white"/>
</g>
<defs>
<clipPath id="clip0_405_2706">
<rect width="60" height="60" fill="white" transform="translate(15.0923 0.73999) rotate(14.0571)"/>
</clipPath>
</defs>
</svg>
