<svg width="74" height="74" viewBox="0 0 74 74" fill="none" xmlns="http://www.w3.org/2000/svg">
<circle cx="37" cy="37" r="37" fill="url(#paint0_linear_858_386)"/>
<g clip-path="url(#clip0_858_386)">
<path d="M32.0092 59.4736C31.9279 59.4735 31.8488 59.447 31.784 59.398C31.7191 59.3489 31.672 59.2801 31.6498 59.2019C31.6276 59.1238 31.6314 59.0405 31.6608 58.9647C31.6901 58.8888 31.7434 58.8247 31.8125 58.7819L33.2184 57.9121L30.6017 59.4213C30.517 59.4679 30.4174 59.4799 30.3239 59.4547C30.2305 59.4295 30.1505 59.3691 30.1007 59.2861C30.0509 59.2031 30.0352 59.104 30.057 59.0097C30.0788 58.9154 30.1362 58.8332 30.2173 58.7804L35.0566 55.7681L28.7262 59.4213C28.6418 59.4677 28.5428 59.4797 28.4498 59.4549C28.3567 59.4302 28.2768 59.3705 28.2267 59.2882C28.1766 59.206 28.1601 59.1077 28.1807 59.0136C28.2013 58.9196 28.2574 58.8371 28.3373 58.7834L41.0078 50.638L25.7917 59.4213C25.7071 59.4678 25.6078 59.4798 25.5146 59.4548C25.4214 59.4298 25.3415 59.3697 25.2915 59.2871C25.2416 59.2045 25.2255 59.1058 25.2467 59.0116C25.2678 58.9175 25.3246 58.8351 25.405 58.7819L37.4362 51.216L23.2206 59.4213C23.1359 59.4687 23.036 59.4814 22.9422 59.4565C22.8483 59.4317 22.7677 59.3713 22.7176 59.2881C22.6675 59.2049 22.6517 59.1055 22.6735 59.0109C22.6954 58.9163 22.7532 58.8339 22.8347 58.7811L36.5612 50.181L20.5591 59.4213C20.4744 59.4665 20.3756 59.4774 20.283 59.4518C20.1905 59.4261 20.1114 59.3659 20.0621 59.2835C20.0128 59.2011 19.997 59.1029 20.0181 59.0093C20.0392 58.9156 20.0956 58.8336 20.1754 58.7804L33.5011 50.5318L19.0342 58.8836C18.9494 58.9296 18.8501 58.941 18.757 58.9154C18.664 58.8899 18.5844 58.8293 18.5349 58.7465C18.4855 58.6636 18.47 58.5648 18.4917 58.4708C18.5134 58.3767 18.5706 58.2947 18.6514 58.2419L33.4353 49.0899L18.6962 57.5995C18.6112 57.6458 18.5115 57.6572 18.4182 57.6315C18.3248 57.6058 18.2451 57.5448 18.1958 57.4615C18.1465 57.3782 18.1314 57.279 18.1538 57.1848C18.1761 57.0906 18.2341 57.0087 18.3156 56.9564L23.4756 53.8327L18.6962 56.5907C18.6115 56.6354 18.5128 56.6458 18.4206 56.6199C18.3284 56.5939 18.2497 56.5336 18.2006 56.4512C18.1516 56.3689 18.1361 56.271 18.1572 56.1775C18.1783 56.0841 18.2344 56.0023 18.3141 55.9491L31.4012 47.8949L18.6962 55.2334C18.6114 55.2801 18.5119 55.2921 18.4184 55.2669C18.325 55.2417 18.245 55.1812 18.1952 55.0982C18.1454 55.0152 18.1297 54.9161 18.1515 54.8218C18.1732 54.7275 18.2307 54.6453 18.3118 54.5925L35.6399 43.7773L18.6962 53.5605C18.6113 53.6083 18.511 53.6211 18.4168 53.5961C18.3225 53.5711 18.2418 53.5103 18.1918 53.4266C18.1417 53.3429 18.1264 53.243 18.1489 53.1481C18.1715 53.0533 18.2302 52.971 18.3126 52.9188L34.5877 42.8044L18.6962 51.9788C18.6115 52.0235 18.5128 52.0339 18.4206 52.008C18.3284 51.982 18.2497 51.9217 18.2006 51.8394C18.1516 51.7571 18.1361 51.6591 18.1572 51.5656C18.1783 51.4722 18.2344 51.3904 18.3141 51.3372L30.3026 43.983L18.6962 50.6821C18.6112 50.7291 18.5113 50.7411 18.4175 50.7158C18.3238 50.6904 18.2436 50.6295 18.194 50.546C18.1443 50.4625 18.1291 50.363 18.1515 50.2685C18.1739 50.174 18.2322 50.092 18.3141 50.0397L31.6921 41.8016L18.6962 49.3046C18.6116 49.3504 18.5126 49.3619 18.4197 49.3365C18.3269 49.3112 18.2473 49.251 18.1977 49.1686C18.1481 49.0861 18.1322 48.9877 18.1533 48.8938C18.1744 48.7999 18.2309 48.7177 18.3111 48.6644L34.7148 38.3847L18.6962 47.6339C18.611 47.6847 18.5092 47.6995 18.413 47.6752C18.3169 47.6509 18.2344 47.5893 18.1836 47.5042C18.1328 47.419 18.118 47.3171 18.1423 47.221C18.1666 47.1248 18.2282 47.0423 18.3133 46.9915L28.3433 40.8002L18.6962 46.3716C18.6118 46.4173 18.513 46.4288 18.4203 46.4037C18.3276 46.3786 18.2482 46.3188 18.1984 46.2367C18.1486 46.1546 18.1323 46.0565 18.1528 45.9627C18.1734 45.8689 18.2293 45.7866 18.3088 45.7329L32.4272 36.7522L18.6962 44.68C18.6116 44.7284 18.5113 44.7417 18.4169 44.7173C18.3225 44.6928 18.2414 44.6325 18.1909 44.5491C18.1404 44.4657 18.1244 44.3658 18.1465 44.2708C18.1685 44.1758 18.2268 44.0932 18.3088 44.0406L30.153 36.4815L18.6962 43.0975C18.6119 43.1439 18.5129 43.156 18.4198 43.1312C18.3268 43.1065 18.2469 43.0468 18.1968 42.9645C18.1467 42.8823 18.1302 42.784 18.1508 42.6899C18.1714 42.5959 18.2275 42.5134 18.3074 42.4597L28.6574 35.7979L18.6962 41.548C18.6115 41.5933 18.5127 41.6042 18.4202 41.5785C18.3277 41.5529 18.2485 41.4926 18.1992 41.4103C18.1499 41.3279 18.1342 41.2297 18.1553 41.136C18.1764 41.0424 18.2327 40.9604 18.3126 40.9071L19.8195 39.9776L18.6977 40.626C18.6133 40.675 18.5131 40.6892 18.4184 40.6653C18.3237 40.6415 18.2422 40.5815 18.1911 40.4983C18.14 40.4151 18.1235 40.3153 18.1451 40.22C18.1667 40.1248 18.2246 40.0418 18.3066 39.9888L26.1013 34.9035L18.6977 39.1774C18.6134 39.2225 18.5151 39.2337 18.4228 39.2085C18.3306 39.1833 18.2515 39.1238 18.2018 39.0421C18.1521 38.9604 18.1356 38.8628 18.1556 38.7694C18.1757 38.6759 18.2308 38.5936 18.3096 38.5395L22.0832 36.121L18.6962 38.0706C18.6123 38.1152 18.5144 38.1262 18.4227 38.1013C18.3309 38.0763 18.2521 38.0174 18.2023 37.9364C18.1524 37.8554 18.1353 37.7585 18.1544 37.6653C18.1735 37.5722 18.2274 37.4898 18.3051 37.435L22.0764 34.9783L18.6962 36.9272C18.6125 36.9743 18.5139 36.9873 18.4208 36.9636C18.3277 36.94 18.2473 36.8814 18.1962 36.8C18.1452 36.7187 18.1274 36.6208 18.1465 36.5267C18.1657 36.4326 18.2203 36.3494 18.2991 36.2945L22.911 33.1618L18.6962 35.5945C18.6124 35.6432 18.5131 35.6574 18.419 35.6342C18.325 35.611 18.2436 35.5522 18.192 35.4702C18.1404 35.3882 18.1227 35.2894 18.1426 35.1946C18.1624 35.0997 18.2183 35.0163 18.2984 34.9619L21.1626 33.007L18.6947 34.4279C18.6118 34.4734 18.5148 34.4858 18.4231 34.4626C18.3314 34.4394 18.252 34.3824 18.2007 34.3029C18.1494 34.2235 18.1301 34.1276 18.1467 34.0345C18.1633 33.9414 18.2146 33.858 18.2902 33.8012L20.9868 31.8696L18.6962 33.1947C18.6155 33.2399 18.521 33.2536 18.4308 33.2331C18.3406 33.2126 18.2612 33.1595 18.208 33.0839C18.1547 33.0083 18.1313 32.9156 18.1423 32.8238C18.1534 32.732 18.198 32.6476 18.2677 32.5868L21.1686 30.1226L18.6962 31.5495C18.6152 31.5961 18.5196 31.6107 18.4283 31.5903C18.337 31.5699 18.2567 31.516 18.2032 31.4393C18.1497 31.3626 18.1269 31.2686 18.1392 31.1759C18.1516 31.0832 18.1982 30.9985 18.27 30.9385L19.1322 30.2184L18.6962 30.4696C18.6177 30.5133 18.526 30.5272 18.4381 30.5088C18.3501 30.4904 18.2717 30.441 18.2172 30.3695C18.1627 30.298 18.1358 30.2093 18.1414 30.1197C18.147 30.03 18.1846 29.9453 18.2475 29.8811L18.6573 29.4728C18.5962 29.4981 18.5295 29.5069 18.4639 29.4984C18.3983 29.4898 18.3361 29.4642 18.2834 29.4242C18.2248 29.3791 18.1809 29.3177 18.1572 29.2477C18.1335 29.1777 18.1311 29.1022 18.1503 29.0308L18.3485 28.289C18.2871 28.2595 18.235 28.2138 18.1977 28.1569C18.1603 28.0999 18.1393 28.0339 18.1367 27.9659C18.1342 27.8978 18.1503 27.8304 18.1832 27.7708C18.2162 27.7113 18.2648 27.6618 18.3238 27.6279L18.6977 27.4117C18.7617 27.3748 18.8353 27.3577 18.909 27.3625C18.9828 27.3673 19.0535 27.3939 19.1121 27.4389C19.1708 27.4838 19.2148 27.5452 19.2386 27.6152C19.2624 27.6851 19.2649 27.7606 19.2459 27.832L19.106 28.3555L20.7371 27.414C20.8155 27.3709 20.9068 27.3574 20.9944 27.3759C21.082 27.3944 21.16 27.4437 21.2143 27.5148C21.2687 27.586 21.2956 27.6742 21.2904 27.7636C21.2852 27.853 21.248 27.9375 21.1858 28.0018L20.7857 28.4011L22.499 27.4125C22.5799 27.3668 22.675 27.353 22.7656 27.3736C22.8562 27.3942 22.9359 27.4479 22.9892 27.5241C23.0424 27.6003 23.0653 27.6936 23.0535 27.7857C23.0417 27.8779 22.996 27.9624 22.9252 28.0227L22.0622 28.7444L24.3715 27.4117C24.4522 27.3666 24.5468 27.3529 24.637 27.3734C24.7271 27.3939 24.8065 27.447 24.8598 27.5226C24.9131 27.5982 24.9365 27.6908 24.9254 27.7827C24.9144 27.8745 24.8697 27.9589 24.8 28.0197L21.8992 30.4876L27.2245 27.4132C27.3076 27.3651 27.4061 27.3507 27.4995 27.3732C27.5929 27.3956 27.674 27.4531 27.7261 27.5338C27.7783 27.6145 27.7973 27.7122 27.7794 27.8065C27.7615 27.9009 27.7079 27.9847 27.6298 28.0407L24.9324 29.9723L29.3678 27.4117C29.4516 27.3631 29.551 27.3489 29.645 27.3721C29.7391 27.3953 29.8205 27.4541 29.872 27.5361C29.9236 27.6181 29.9413 27.7169 29.9215 27.8117C29.9016 27.9066 29.8458 27.99 29.7657 28.0444L26.9022 29.994L31.3892 27.4043C31.4731 27.3545 31.5731 27.3396 31.6679 27.3626C31.7627 27.3856 31.8448 27.4447 31.8966 27.5273C31.9484 27.61 31.9659 27.7096 31.9453 27.805C31.9247 27.9003 31.8676 27.9838 31.7863 28.0377L27.1692 31.1726L33.7 27.4028C33.7844 27.3537 33.8846 27.3396 33.9793 27.3634C34.074 27.3873 34.1556 27.4472 34.2066 27.5304C34.2577 27.6136 34.2742 27.7135 34.2526 27.8087C34.2311 27.9039 34.1731 27.9869 34.0911 28.0399L30.3243 30.4943L35.6818 27.4013C35.7664 27.3517 35.8671 27.3373 35.9622 27.3613C36.0573 27.3853 36.1392 27.4456 36.1902 27.5294C36.2412 27.6132 36.2572 27.7136 36.2349 27.8091C36.2125 27.9046 36.1535 27.9875 36.0706 28.0399L32.3023 30.4547L37.594 27.3998C37.6784 27.3507 37.7786 27.3366 37.8733 27.3604C37.968 27.3843 38.0495 27.4442 38.1006 27.5274C38.1517 27.6106 38.1682 27.7105 38.1466 27.8057C38.125 27.9009 38.0671 27.9839 37.9851 28.0369L30.1897 33.1222L40.1059 27.3975C40.1481 27.3723 40.1948 27.3556 40.2434 27.3484C40.2919 27.3412 40.3415 27.3437 40.3891 27.3556C40.4367 27.3675 40.4816 27.3888 40.521 27.418C40.5604 27.4473 40.5937 27.484 40.619 27.5262C40.6442 27.5683 40.6609 27.615 40.6681 27.6636C40.6753 27.7122 40.6728 27.7617 40.6609 27.8093C40.649 27.8569 40.6277 27.9018 40.5985 27.9412C40.5692 27.9806 40.5325 28.0139 40.4903 28.0392L38.9775 28.977L41.7145 27.3975C41.7992 27.3479 41.8999 27.3336 41.995 27.3576C42.0901 27.3815 42.172 27.4419 42.223 27.5257C42.274 27.6094 42.29 27.7099 42.2677 27.8054C42.2453 27.9009 42.1863 27.9838 42.1034 28.0362L31.7579 34.6919L44.3963 27.3938C44.4811 27.3423 44.5828 27.3267 44.6792 27.3502C44.7755 27.3738 44.8586 27.4346 44.91 27.5194C44.9615 27.6042 44.9772 27.706 44.9536 27.8023C44.9301 27.8987 44.8692 27.9817 44.7844 28.0332L32.938 35.5938L47.1401 27.3938C47.2249 27.3423 47.3266 27.3267 47.423 27.3502C47.5193 27.3738 47.6024 27.4346 47.6538 27.5194C47.7053 27.6042 47.721 27.706 47.6974 27.8023C47.6739 27.8987 47.613 27.9817 47.5282 28.0332L33.4046 37.0162L50.0746 27.3923C50.1167 27.3671 50.1635 27.3505 50.2121 27.3433C50.2607 27.3362 50.3102 27.3387 50.3579 27.3507C50.4055 27.3628 50.4503 27.384 50.4897 27.4134C50.5291 27.4427 50.5624 27.4795 50.5876 27.5217C50.6128 27.5639 50.6294 27.6106 50.6365 27.6592C50.6437 27.7078 50.6412 27.7573 50.6291 27.805C50.6171 27.8526 50.5959 27.8974 50.5665 27.9368C50.5372 27.9763 50.5004 28.0095 50.4582 28.0347L40.4313 34.2193L52.2627 27.3886C52.3477 27.3374 52.4496 27.3221 52.5458 27.346C52.6421 27.3699 52.7249 27.4311 52.7761 27.5161C52.8273 27.6011 52.8426 27.7029 52.8187 27.7992C52.7948 27.8954 52.7336 27.9783 52.6486 28.0295L36.2471 38.3084L54.1734 27.9584C54.2584 27.9114 54.3584 27.8993 54.4521 27.9247C54.5459 27.9501 54.6261 28.011 54.6757 28.0945C54.7254 28.178 54.7406 28.2775 54.7182 28.372C54.6958 28.4665 54.6374 28.5485 54.5556 28.6008L41.1694 36.8464L54.1734 29.3367C54.2582 29.292 54.3568 29.2816 54.4491 29.3075C54.5413 29.3335 54.62 29.3938 54.669 29.4761C54.718 29.5584 54.7336 29.6564 54.7125 29.7499C54.6914 29.8433 54.6352 29.9251 54.5556 29.9783L42.5828 37.325L54.1734 30.6297C54.2584 30.5818 54.3587 30.569 54.4529 30.594C54.5471 30.6191 54.6279 30.6799 54.6779 30.7636C54.7279 30.8472 54.7433 30.9472 54.7207 31.042C54.6982 31.1369 54.6394 31.2191 54.5571 31.2713L38.282 41.3888L54.1734 32.2143C54.258 32.1697 54.3564 32.1592 54.4485 32.1849C54.5405 32.2106 54.6192 32.2706 54.6684 32.3526C54.7177 32.4345 54.7336 32.5322 54.713 32.6255C54.6925 32.7189 54.6369 32.8008 54.5578 32.8545L37.2216 43.6726L54.1734 33.8857C54.2582 33.8411 54.3568 33.8306 54.4491 33.8566C54.5413 33.8825 54.62 33.9429 54.669 34.0252C54.718 34.1075 54.7336 34.2055 54.7125 34.2989C54.6914 34.3924 54.6352 34.4741 54.5556 34.5274L41.4685 42.5815L54.1749 35.2453C54.2603 35.1948 54.3623 35.1803 54.4583 35.205C54.5544 35.2297 54.6367 35.2915 54.6872 35.3769C54.7377 35.4623 54.7522 35.5642 54.7275 35.6603C54.7028 35.7564 54.641 35.8387 54.5556 35.8892L49.3955 39.0121L54.1734 36.2541C54.258 36.2101 54.3563 36.2 54.4481 36.226C54.5399 36.252 54.6182 36.3121 54.6671 36.394C54.7161 36.4759 54.7318 36.5734 54.7112 36.6665C54.6906 36.7597 54.6352 36.8414 54.5563 36.895L39.7762 46.0455L54.1734 37.7341C54.2584 37.6862 54.3587 37.6735 54.4529 37.6985C54.5471 37.7235 54.6279 37.7843 54.6779 37.868C54.7279 37.9517 54.7433 38.0516 54.7207 38.1464C54.6982 38.2413 54.6394 38.3236 54.5571 38.3757L41.2262 46.6281L54.1734 39.155C54.2581 39.1091 54.3571 39.0977 54.45 39.123C54.5428 39.1484 54.6223 39.2085 54.6719 39.291C54.7216 39.3735 54.7375 39.4719 54.7164 39.5658C54.6952 39.6597 54.6387 39.7418 54.5586 39.7951L40.8313 48.3952L54.1734 40.6925C54.2579 40.6474 54.3565 40.6364 54.4489 40.6618C54.5412 40.6872 54.6203 40.7471 54.6698 40.8291C54.7193 40.9111 54.7355 41.009 54.7149 41.1025C54.6943 41.1961 54.6386 41.2782 54.5593 41.3319L42.5297 48.8955L54.1734 42.174C54.2578 42.1276 54.3568 42.1155 54.4499 42.1403C54.5429 42.1651 54.6228 42.2248 54.6729 42.307C54.723 42.3892 54.7395 42.4876 54.7189 42.5816C54.6983 42.6757 54.6422 42.7581 54.5623 42.8119L41.894 50.9573L54.1734 43.8663C54.2582 43.8196 54.3578 43.8076 54.4512 43.8328C54.5447 43.8581 54.6247 43.9185 54.6745 44.0015C54.7243 44.0845 54.7399 44.1836 54.7182 44.2779C54.6964 44.3722 54.6389 44.4544 54.5578 44.5072L49.7119 47.524L54.1734 44.9507C54.258 44.9066 54.3563 44.8966 54.4481 44.9226C54.5399 44.9486 54.6182 45.0087 54.6671 45.0905C54.7161 45.1724 54.7318 45.2699 54.7112 45.3631C54.6906 45.4562 54.6352 45.538 54.5563 45.5916L53.1422 46.4673L54.1734 45.869C54.258 45.8225 54.3573 45.8105 54.4505 45.8355C54.5437 45.8605 54.6237 45.9206 54.6736 46.0032C54.7235 46.0858 54.7396 46.1845 54.7184 46.2786C54.6973 46.3728 54.6405 46.4551 54.5601 46.5084L49.2033 49.9103L54.1734 47.0446C54.2578 47 54.356 46.9894 54.4479 47.0149C54.5399 47.0403 54.6186 47.1 54.668 47.1816C54.7174 47.2632 54.7337 47.3606 54.7137 47.4539C54.6936 47.5471 54.6387 47.6292 54.5601 47.6833L51.2861 49.7592L54.1734 48.0931C54.2577 48.048 54.3561 48.0368 54.4483 48.062C54.5406 48.0872 54.6197 48.1467 54.6694 48.2284C54.7191 48.31 54.7356 48.4077 54.7155 48.5011C54.6955 48.5946 54.6404 48.6769 54.5616 48.731L51.8694 50.451L54.1772 49.1191C54.2612 49.0704 54.3608 49.0563 54.455 49.0798C54.5492 49.1032 54.6306 49.1624 54.6819 49.2447C54.7333 49.3271 54.7506 49.4262 54.7303 49.5211C54.7099 49.616 54.6534 49.6992 54.5728 49.7533L49.1637 53.3997L54.1742 50.5048C54.2573 50.4567 54.3557 50.4423 54.4491 50.4648C54.5425 50.4872 54.6237 50.5447 54.6758 50.6254C54.7279 50.7061 54.747 50.8038 54.7291 50.8981C54.7112 50.9925 54.6576 51.0763 54.5795 51.1323L49.133 55.0562L54.1734 52.1463C54.2556 52.0992 54.3526 52.085 54.4448 52.1065C54.537 52.1281 54.6176 52.1839 54.6703 52.2626C54.723 52.3413 54.7439 52.4371 54.7287 52.5306C54.7135 52.6241 54.6634 52.7083 54.5885 52.7663L50.4305 55.9708L54.1697 53.8103C54.2521 53.7624 54.3496 53.7477 54.4424 53.7693C54.5352 53.7908 54.6162 53.847 54.669 53.9263C54.7218 54.0056 54.7423 54.1021 54.7264 54.196C54.7104 54.2899 54.6592 54.3742 54.5833 54.4317L52.6778 55.8892L54.1697 55.0277C54.2488 54.9801 54.3427 54.9634 54.4334 54.9809C54.5241 54.9984 54.605 55.0488 54.6608 55.1225C54.7165 55.1961 54.743 55.2877 54.7351 55.3797C54.7273 55.4717 54.6857 55.5576 54.6184 55.6208L52.932 57.2481L54.1727 56.5316C54.2476 56.4889 54.3351 56.4733 54.4202 56.4877C54.5053 56.502 54.5828 56.5453 54.6396 56.6103C54.6964 56.6753 54.7289 56.7579 54.7318 56.8442C54.7346 56.9304 54.7075 57.015 54.655 57.0835L54.0807 57.8314C54.1669 57.7879 54.2665 57.7795 54.3588 57.8078C54.4511 57.8361 54.5288 57.899 54.5758 57.9834C54.6227 58.0677 54.6352 58.1669 54.6107 58.2603C54.5862 58.3536 54.5265 58.4339 54.4442 58.4842L52.8124 59.4213C52.7374 59.464 52.65 59.4796 52.5649 59.4652C52.4798 59.4509 52.4023 59.4075 52.3455 59.3426C52.2887 59.2776 52.2561 59.195 52.2533 59.1087C52.2505 59.0225 52.2776 58.9379 52.33 58.8694L52.9036 58.126L50.6601 59.4213C50.581 59.4689 50.4871 59.4855 50.3964 59.4681C50.3058 59.4506 50.2248 59.4002 50.1691 59.3265C50.1134 59.2529 50.0869 59.1613 50.0947 59.0693C50.1025 58.9773 50.1441 58.8914 50.2114 58.8282L51.8985 57.2017L48.0562 59.4213C47.9739 59.4688 47.8767 59.4832 47.7842 59.4616C47.6917 59.44 47.6109 59.3841 47.5581 59.3051C47.5054 59.2261 47.4847 59.13 47.5003 59.0363C47.5158 58.9426 47.5664 58.8583 47.6419 58.8006L49.5503 57.3408L45.9465 59.4213C45.8644 59.4695 45.7669 59.4845 45.674 59.4633C45.5811 59.442 45.4999 59.3861 45.4468 59.307C45.3937 59.2279 45.3729 59.1315 45.3885 59.0375C45.4041 58.9435 45.4549 58.859 45.5307 58.8013L49.6894 55.5968L43.0636 59.4213C42.9805 59.4694 42.8821 59.4838 42.7887 59.4613C42.6953 59.4389 42.6141 59.3814 42.562 59.3007C42.5099 59.22 42.4908 59.1223 42.5087 59.028C42.5267 58.9336 42.5802 58.8498 42.6583 58.7938L48.1025 54.8752L40.2271 59.4213C40.1433 59.4677 40.0449 59.4801 39.9522 59.4561C39.8595 59.4321 39.7795 59.3735 39.7288 59.2922C39.678 59.211 39.6604 59.1134 39.6795 59.0196C39.6986 58.9257 39.753 58.8428 39.8315 58.7878L45.2451 55.1384L37.8251 59.4213C37.7408 59.4664 37.6424 59.4775 37.5502 59.4523C37.4579 59.4272 37.3788 59.3676 37.3291 59.286C37.2794 59.2043 37.2629 59.1067 37.283 59.0132C37.303 58.9197 37.3581 58.8375 37.4369 58.7834L40.1291 57.0633L36.0437 59.4213C35.9593 59.467 35.8605 59.4785 35.7678 59.4534C35.6751 59.4283 35.5957 59.3685 35.5459 59.2864C35.4961 59.2043 35.4798 59.1062 35.5003 59.0124C35.5209 58.9186 35.5768 58.8363 35.6563 58.7826L38.9289 56.7066L34.2272 59.4213C34.1428 59.467 34.044 59.4785 33.9513 59.4534C33.8586 59.4283 33.7792 59.3685 33.7294 59.2864C33.6796 59.2043 33.6633 59.1062 33.6838 59.0124C33.7044 58.9186 33.7603 58.8363 33.8399 58.7826L39.2018 55.377L32.1961 59.4213C32.1395 59.4549 32.075 59.4729 32.0092 59.4736Z" fill="white"/>
<path d="M32.4897 28.8124C32.4112 28.8124 32.3348 28.7878 32.2711 28.7419C32.2074 28.696 32.1598 28.6312 32.135 28.5568C32.1102 28.4823 32.1094 28.4019 32.1328 28.327C32.1562 28.2521 32.2026 28.1865 32.2654 28.1394L33.4432 27.2442L30.8101 28.7601C30.7284 28.8067 30.6322 28.8208 30.5406 28.7996C30.449 28.7784 30.3687 28.7234 30.3158 28.6457C30.2629 28.568 30.2412 28.4732 30.255 28.3802C30.2689 28.2872 30.3173 28.2028 30.3906 28.1439L32.0059 26.8636L28.7199 28.7601C28.6393 28.8064 28.5444 28.821 28.4537 28.8012C28.3629 28.7813 28.2828 28.7284 28.2289 28.6527C28.1751 28.577 28.1513 28.4839 28.1623 28.3916C28.1733 28.2994 28.2183 28.2145 28.2884 28.1536L30.4347 26.3035L26.1788 28.7601C26.0976 28.8061 26.0022 28.8202 25.9112 28.7994C25.8203 28.7787 25.7403 28.7248 25.6871 28.6481C25.6339 28.5715 25.6113 28.4777 25.6237 28.3853C25.636 28.2928 25.6825 28.2083 25.754 28.1484L27.6722 26.5667L23.8709 28.7601C23.7895 28.8062 23.6936 28.82 23.6024 28.7989C23.5112 28.7777 23.4313 28.7232 23.3784 28.6459C23.3255 28.5687 23.3035 28.4744 23.3167 28.3817C23.33 28.289 23.3775 28.2047 23.4499 28.1454L25.1797 26.7566L21.7082 28.7601C21.6271 28.8067 21.5315 28.8213 21.4403 28.8009C21.349 28.7805 21.2687 28.7266 21.2152 28.6499C21.1617 28.5732 21.1388 28.4792 21.1512 28.3865C21.1636 28.2938 21.2102 28.2091 21.2819 28.1491L23.233 26.533L19.3735 28.7601C19.2921 28.8065 19.1963 28.8208 19.105 28.8C19.0137 28.7792 18.9335 28.7249 18.8803 28.6478C18.8271 28.5707 18.8048 28.4765 18.8177 28.3837C18.8306 28.291 18.8779 28.2064 18.9502 28.1469L20.7839 26.6512L17.7335 28.4153C17.6522 28.461 17.5567 28.4746 17.4659 28.4536C17.3751 28.4325 17.2954 28.3783 17.2425 28.3015C17.1896 28.2247 17.1673 28.1309 17.1799 28.0385C17.1926 27.9461 17.2393 27.8618 17.311 27.8021L18.7109 26.6617L17.2152 27.5232C17.1356 27.5681 17.0423 27.5824 16.9529 27.5632C16.8635 27.544 16.7842 27.4927 16.7301 27.4191C16.6759 27.3454 16.6506 27.2544 16.659 27.1634C16.6674 27.0723 16.7088 26.9875 16.7755 26.9249L17.7574 26.023L17.1958 26.3476C17.1217 26.3904 17.0352 26.4065 16.9507 26.3932C16.8662 26.38 16.7888 26.3382 16.7314 26.2747C16.674 26.2113 16.6401 26.1301 16.6353 26.0447C16.6306 25.9593 16.6552 25.8748 16.7052 25.8054L17.2205 25.0882C17.1386 25.0873 17.0594 25.0596 16.9949 25.0093C16.9303 24.959 16.8841 24.8889 16.8632 24.8098C16.8423 24.7307 16.8479 24.6469 16.8793 24.5713C16.9106 24.4957 16.9658 24.4324 17.0365 24.3913L18.2816 23.6748C18.3556 23.6323 18.4419 23.6164 18.5262 23.6298C18.6105 23.6431 18.6876 23.6848 18.7449 23.748C18.8022 23.8112 18.8362 23.8922 18.8411 23.9773C18.8461 24.0625 18.8218 24.1468 18.7722 24.2163L18.3302 24.831L20.3367 23.6748C20.4163 23.6299 20.5096 23.6156 20.599 23.6348C20.6884 23.654 20.7677 23.7053 20.8219 23.779C20.876 23.8526 20.9013 23.9436 20.8929 24.0347C20.8845 24.1257 20.8431 24.2105 20.7764 24.2731L19.7923 25.1742L22.3947 23.6733C22.476 23.6277 22.5715 23.614 22.6623 23.6351C22.7531 23.6562 22.8328 23.7104 22.8857 23.7872C22.9386 23.864 22.9609 23.9578 22.9483 24.0502C22.9356 24.1425 22.8889 24.2268 22.8172 24.2866L21.4151 25.427L24.4543 23.6748C24.5356 23.6284 24.6314 23.6141 24.7227 23.6349C24.814 23.6557 24.8942 23.71 24.9474 23.7871C25.0006 23.8642 25.023 23.9584 25.01 24.0512C24.9971 24.144 24.9498 24.2285 24.8775 24.2881L23.0438 25.7837L26.694 23.6748C26.7751 23.629 26.8703 23.6151 26.9611 23.6357C27.0519 23.6564 27.1317 23.7102 27.1849 23.7866C27.2381 23.863 27.2609 23.9565 27.2488 24.0489C27.2367 24.1412 27.1906 24.2257 27.1195 24.2858L25.1692 25.9019L29.031 23.6748C29.1125 23.6287 29.2083 23.6149 29.2995 23.636C29.3907 23.6572 29.4707 23.7118 29.5236 23.789C29.5765 23.8662 29.5985 23.9605 29.5852 24.0532C29.572 24.1459 29.5244 24.2302 29.452 24.2895L27.7223 25.6783L31.1922 23.6748C31.2734 23.628 31.3692 23.6133 31.4607 23.6338C31.5521 23.6542 31.6325 23.7083 31.6861 23.7852C31.7396 23.8621 31.7622 23.9563 31.7496 24.0492C31.7369 24.142 31.6899 24.2267 31.6178 24.2866L29.6996 25.866L33.4986 23.6733C33.5791 23.6278 33.6737 23.6137 33.764 23.6338C33.8543 23.6539 33.934 23.7068 33.9875 23.7823C34.0411 23.8577 34.0648 23.9503 34.0541 24.0422C34.0433 24.1341 33.9989 24.2188 33.9293 24.2798L31.7838 26.13L36.0397 23.6748C36.1213 23.6291 36.2172 23.6156 36.3083 23.6371C36.3994 23.6586 36.4791 23.7135 36.5317 23.7909C36.5843 23.8683 36.606 23.9626 36.5924 24.0552C36.5789 24.1478 36.5311 24.232 36.4585 24.291L34.8424 25.5721L38.1329 23.6748C38.2151 23.6292 38.3114 23.6162 38.4027 23.6384C38.4941 23.6606 38.5737 23.7164 38.6257 23.7947C38.6778 23.8729 38.6984 23.9679 38.6836 24.0607C38.6688 24.1536 38.6195 24.2374 38.5457 24.2955L37.3693 25.1929L39.9972 23.6748C40.0782 23.6284 40.1736 23.614 40.2647 23.6343C40.3558 23.6547 40.436 23.7084 40.4895 23.7849C40.543 23.8613 40.566 23.9551 40.5539 24.0476C40.5418 24.1402 40.4956 24.2249 40.4242 24.2851L38.4178 25.9632L42.3813 23.6748C42.461 23.6279 42.5552 23.6121 42.6458 23.6306C42.7364 23.649 42.817 23.7004 42.8719 23.7748C42.9269 23.8492 42.9523 23.9413 42.9433 24.0333C42.9343 24.1253 42.8916 24.2107 42.8233 24.2731L40.4616 26.4732L45.3068 23.6763C45.3891 23.6288 45.4863 23.6144 45.5788 23.636C45.6713 23.6575 45.7521 23.7135 45.8049 23.7925C45.8576 23.8715 45.8783 23.9676 45.8627 24.0613C45.8472 24.155 45.7966 24.2393 45.7211 24.297L44.4887 25.2385L47.2033 23.6748C47.2829 23.6316 47.3754 23.6187 47.4638 23.6386C47.5521 23.6584 47.6302 23.7096 47.6837 23.7827C47.7371 23.8558 47.7622 23.9457 47.7543 24.0359C47.7465 24.1261 47.7061 24.2104 47.6408 24.2731L45.3412 26.3498L49.9778 23.6733C50.0574 23.629 50.1505 23.6152 50.2395 23.6346C50.3285 23.654 50.4074 23.7053 50.4613 23.7787C50.5152 23.8522 50.5404 23.9428 50.5322 24.0336C50.524 24.1243 50.483 24.209 50.4168 24.2716L48.0985 26.3797L52.7919 23.6748C52.873 23.6282 52.9686 23.6137 53.0599 23.6341C53.1511 23.6545 53.2314 23.7083 53.2849 23.785C53.3385 23.8617 53.3613 23.9557 53.3489 24.0484C53.3366 24.1411 53.2899 24.2258 53.2182 24.2858L51.2439 25.931L54.8664 23.8371C54.9474 23.7899 55.0432 23.7748 55.1348 23.7949C55.2264 23.815 55.3071 23.8687 55.3609 23.9455C55.4147 24.0223 55.4377 24.1165 55.4254 24.2094C55.413 24.3024 55.3662 24.3873 55.2942 24.4473L53.4687 25.9789L55.609 24.7435C55.6857 24.6995 55.7755 24.684 55.8625 24.6999C55.9494 24.7159 56.028 24.7621 56.0841 24.8304C56.1402 24.8987 56.1703 24.9847 56.169 25.0731C56.1678 25.1616 56.1352 25.2467 56.0771 25.3133L54.6121 26.9885L55.6688 26.379C55.7449 26.3352 55.834 26.3196 55.9204 26.3349C56.0069 26.3502 56.0852 26.3955 56.1416 26.4627C56.1981 26.5299 56.2291 26.6149 56.2292 26.7027C56.2293 26.7905 56.1985 26.8755 56.1422 26.9429L55.7795 27.3751C55.8577 27.406 55.9229 27.4627 55.9642 27.5359C56.0136 27.6216 56.027 27.7234 56.0015 27.819C55.976 27.9146 55.9137 27.9962 55.8281 28.0459L54.5875 28.7616C54.5114 28.8049 54.4225 28.8202 54.3363 28.8047C54.2501 28.7892 54.1721 28.7439 54.1159 28.6768C54.0596 28.6097 54.0287 28.525 54.0285 28.4375C54.0283 28.3499 54.0589 28.2651 54.1148 28.1977L54.2098 28.0841L53.0364 28.7601C52.9598 28.8037 52.8703 28.8188 52.7837 28.8028C52.697 28.7868 52.6188 28.7407 52.5628 28.6726C52.5068 28.6046 52.4767 28.5189 52.4777 28.4308C52.4787 28.3427 52.5108 28.2578 52.5683 28.191L54.0296 26.5166L50.1408 28.7601C50.06 28.8056 49.9651 28.8194 49.8746 28.7988C49.7841 28.7782 49.7045 28.7247 49.6513 28.6487C49.5981 28.5728 49.575 28.4797 49.5865 28.3876C49.5981 28.2956 49.6435 28.2111 49.7138 28.1506L51.5408 26.6198L47.8285 28.7601C47.7475 28.8067 47.6519 28.8213 47.5606 28.8009C47.4693 28.7805 47.389 28.7266 47.3355 28.6499C47.282 28.5732 47.2592 28.4792 47.2715 28.3865C47.2839 28.2938 47.3305 28.2091 47.4023 28.1491L49.3773 26.5039L45.4721 28.7601C45.3925 28.8045 45.2995 28.8182 45.2104 28.7988C45.1214 28.7794 45.0425 28.7282 44.9886 28.6547C44.9347 28.5812 44.9095 28.4906 44.9177 28.3998C44.9259 28.3091 44.9669 28.2244 45.0331 28.1618L47.3514 26.0537L42.658 28.7601C42.5785 28.8033 42.4859 28.8162 42.3976 28.7964C42.3093 28.7765 42.2311 28.7253 42.1777 28.6522C42.1242 28.5792 42.0991 28.4892 42.107 28.399C42.1149 28.3088 42.1552 28.2245 42.2205 28.1618L44.5186 26.0858L39.8821 28.7623C39.7998 28.8089 39.7031 28.8225 39.6112 28.8006C39.5193 28.7787 39.4391 28.7228 39.3867 28.6442C39.3344 28.5656 39.3137 28.4701 39.3289 28.3769C39.344 28.2836 39.3939 28.1996 39.4685 28.1416L40.7047 27.1956L37.9893 28.7661C37.9096 28.813 37.8154 28.8288 37.7248 28.8103C37.6342 28.7919 37.5536 28.7405 37.4987 28.6661C37.4438 28.5917 37.4183 28.4997 37.4273 28.4076C37.4363 28.3156 37.479 28.2302 37.5473 28.1678L39.9097 25.9677L35.0638 28.7646C34.9828 28.811 34.8874 28.8254 34.7963 28.8051C34.7052 28.7847 34.625 28.731 34.5715 28.6545C34.518 28.5781 34.495 28.4843 34.5071 28.3918C34.5191 28.2992 34.5654 28.2145 34.6368 28.1544L36.6424 26.4762L32.6789 28.7646C32.6212 28.797 32.5559 28.8135 32.4897 28.8124Z" fill="#C4C4C4"/>
<path d="M36.2536 28.7542C36.1778 28.7542 36.1039 28.7312 36.0415 28.6882C35.9791 28.6452 35.9312 28.5843 35.9042 28.5135C35.8772 28.4428 35.8723 28.3654 35.8903 28.2918C35.9082 28.2182 35.948 28.1518 36.0046 28.1013L36.8885 27.3124L35.7114 27.9914C35.6292 28.0379 35.5324 28.0516 35.4405 28.0297C35.3487 28.0078 35.2685 27.9519 35.2161 27.8733C35.1637 27.7947 35.143 27.6992 35.1582 27.6059C35.1734 27.5127 35.2233 27.4287 35.2979 27.3707L38.2533 25.113L34.8133 27.0977C34.7306 27.1458 34.6327 27.1604 34.5397 27.1386C34.4466 27.1167 34.3655 27.06 34.3129 26.9802C34.2603 26.9003 34.2403 26.8034 34.257 26.7092C34.2737 26.6151 34.3259 26.5309 34.4027 26.4741L38.4971 23.4266L33.8329 26.1188C33.7504 26.1654 33.6533 26.1789 33.5612 26.1567C33.4691 26.1345 33.3889 26.0781 33.3368 25.999C33.2847 25.9199 33.2645 25.824 33.2804 25.7306C33.2962 25.6372 33.347 25.5533 33.4223 25.4959L38.4328 21.7425L32.7388 25.0292C32.6561 25.0766 32.5584 25.0906 32.4657 25.0684C32.3731 25.0462 32.2924 24.9894 32.2401 24.9097C32.1879 24.83 32.1681 24.7333 32.1847 24.6395C32.2014 24.5456 32.2532 24.4617 32.3297 24.4048L37.4195 20.6372L31.6664 23.9583C31.5828 24.0037 31.4852 24.0156 31.3932 23.9915C31.3012 23.9674 31.2219 23.9092 31.1713 23.8287C31.1207 23.7482 31.1027 23.6515 31.1209 23.5582C31.1391 23.4649 31.1922 23.382 31.2693 23.3264L33.5935 21.7455L30.9679 23.2606C30.8845 23.3093 30.7855 23.3239 30.6916 23.3012C30.5977 23.2786 30.5162 23.2205 30.4642 23.1391C30.4122 23.0577 30.3937 22.9593 30.4126 22.8646C30.4315 22.7699 30.4863 22.6861 30.5656 22.6309L33.8321 20.3313L30.1677 22.447C30.0868 22.4932 29.9916 22.5076 29.9007 22.4872C29.8097 22.4669 29.7297 22.4134 29.6761 22.3371C29.6226 22.2609 29.5995 22.1674 29.6113 22.0749C29.6231 21.9825 29.669 21.8978 29.74 21.8375L32.3649 19.6299L29.4483 21.3118C29.3677 21.3568 29.2733 21.3704 29.1833 21.35C29.0932 21.3296 29.0139 21.2765 28.9606 21.2012C28.9073 21.1258 28.8838 21.0333 28.8946 20.9416C28.9054 20.8499 28.9497 20.7655 29.019 20.7045L31.4248 18.6547L29.1709 19.9559C29.0899 20.0016 28.9948 20.0155 28.9042 19.9948C28.8136 19.9742 28.7339 19.9206 28.6807 19.8444C28.6274 19.7682 28.6045 19.6749 28.6163 19.5827C28.6281 19.4905 28.6739 19.406 28.7446 19.3457L29.9546 18.3361L29.3623 18.6779C29.2828 18.7206 29.1905 18.733 29.1025 18.713C29.0145 18.693 28.9367 18.6418 28.8835 18.5689C28.8303 18.496 28.8052 18.4063 28.813 18.3164C28.8207 18.2265 28.8607 18.1424 28.9256 18.0796L29.7527 17.3363C29.7009 17.304 29.6579 17.2593 29.6278 17.2062C29.5784 17.1203 29.5651 17.0185 29.5908 16.9229C29.6164 16.8272 29.679 16.7457 29.7646 16.6961L31.7636 15.5385C31.8431 15.4958 31.9354 15.4833 32.0234 15.5034C32.1114 15.5234 32.1892 15.5746 32.2424 15.6475C32.2956 15.7204 32.3207 15.8101 32.3129 15.9C32.3052 15.9899 32.2652 16.074 32.2003 16.1368L32.0882 16.2377L33.3498 15.5131C33.4307 15.4674 33.5258 15.4535 33.6164 15.4742C33.707 15.4948 33.7867 15.5484 33.8399 15.6246C33.8932 15.7008 33.9161 15.7941 33.9043 15.8863C33.8925 15.9785 33.8467 16.063 33.776 16.1233L32.5668 17.1321L34.5859 15.967C34.6665 15.9213 34.7613 15.9071 34.8517 15.9273C34.9422 15.9475 35.022 16.0005 35.0755 16.0762C35.1291 16.1518 35.1526 16.2446 35.1416 16.3367C35.1306 16.4287 35.0858 16.5134 35.0159 16.5742L32.6109 18.6263L35.6703 16.8599C35.7513 16.8127 35.8471 16.7976 35.9387 16.8177C36.0303 16.8378 36.111 16.8915 36.1648 16.9683C36.2186 17.0451 36.2416 17.1393 36.2293 17.2322C36.2169 17.3252 36.1701 17.4101 36.098 17.4701L33.4746 19.6755L40.6636 15.5235C40.747 15.4748 40.846 15.4603 40.9399 15.4829C41.0338 15.5056 41.1152 15.5637 41.1672 15.6451C41.2193 15.7265 41.2377 15.8248 41.2189 15.9195C41.2 16.0143 41.1451 16.098 41.0659 16.1532L37.7964 18.4558L41.976 16.047C42.0595 16.0016 42.1572 15.9898 42.2492 16.0138C42.3412 16.0379 42.4205 16.0961 42.4711 16.1766C42.5217 16.2571 42.5397 16.3539 42.5215 16.4472C42.5033 16.5405 42.4502 16.6233 42.3731 16.6789L40.0503 18.2569L42.7425 16.7036C42.8252 16.6562 42.9229 16.6422 43.0156 16.6645C43.1083 16.6867 43.1889 16.7434 43.2412 16.8232C43.2934 16.9029 43.3132 16.9995 43.2966 17.0934C43.2799 17.1872 43.2281 17.2712 43.1516 17.328L38.0663 21.0934L43.4904 17.9622C43.5729 17.9156 43.6699 17.9021 43.762 17.9243C43.8541 17.9466 43.9343 18.0029 43.9864 18.082C44.0386 18.1611 44.0587 18.2571 44.0429 18.3505C44.027 18.4438 43.9763 18.5277 43.9009 18.5852L38.8904 22.3393L43.6893 19.5671C43.7719 19.519 43.8698 19.5044 43.9629 19.5263C44.056 19.5481 44.1371 19.6048 44.1897 19.6847C44.2422 19.7645 44.2622 19.8615 44.2455 19.9556C44.2288 20.0497 44.1767 20.1339 44.0999 20.1908L40.0047 23.2397L42.9041 21.5653C42.9863 21.5178 43.0836 21.5033 43.1761 21.5249C43.2686 21.5465 43.3494 21.6025 43.4021 21.6815C43.4548 21.7605 43.4755 21.8566 43.46 21.9503C43.4444 22.044 43.3938 22.1282 43.3184 22.186L39.897 24.7967C39.9683 24.8055 40.0356 24.8346 40.0907 24.8806C40.1459 24.9266 40.1866 24.9875 40.2081 25.0561C40.2295 25.1246 40.2308 25.1979 40.2117 25.2671C40.1926 25.3364 40.154 25.3987 40.1004 25.4465L37.5174 27.7514C37.5407 27.8316 37.5364 27.9174 37.5052 27.9949C37.474 28.0724 37.4178 28.1373 37.3454 28.1791L36.4405 28.7026C36.3839 28.7362 36.3194 28.754 36.2536 28.7542Z" fill="#2381D9"/>
<path d="M23.3483 45.2646C23.2704 45.2648 23.1944 45.2407 23.1308 45.1955C23.0673 45.1504 23.0195 45.0865 22.994 45.0129C22.9686 44.9392 22.9668 44.8595 22.9889 44.7847C23.011 44.71 23.0558 44.6441 23.1172 44.5961L24.3564 43.6239L21.9274 45.0238C21.8451 45.0707 21.7481 45.0846 21.656 45.0626C21.5638 45.0407 21.4834 44.9847 21.431 44.9058C21.3786 44.8269 21.3581 44.731 21.3736 44.6376C21.3891 44.5442 21.4395 44.4601 21.5146 44.4024L22.3649 43.757L21.6859 44.1496C21.6063 44.1946 21.5129 44.2088 21.4235 44.1896C21.3341 44.1705 21.2549 44.1192 21.2007 44.0455C21.1466 43.9718 21.1213 43.8808 21.1297 43.7898C21.138 43.6987 21.1795 43.6139 21.2462 43.5514L22.4158 42.4782L21.6859 42.9C21.6179 42.9392 21.5394 42.9561 21.4613 42.9482C21.3833 42.9403 21.3097 42.9081 21.251 42.8561C21.1922 42.804 21.1514 42.7349 21.1341 42.6583C21.1169 42.5818 21.1242 42.5018 21.1549 42.4296L21.632 41.3131C21.5528 41.3335 21.4691 41.3273 21.3938 41.2956C21.3184 41.2638 21.2555 41.2082 21.2148 41.1373C21.1654 41.0515 21.1521 40.9497 21.1778 40.854C21.2034 40.7584 21.2659 40.6769 21.3516 40.6273L22.2198 40.1263C22.2878 40.087 22.3663 40.0702 22.4444 40.0781C22.5224 40.0859 22.596 40.1182 22.6548 40.1702C22.7135 40.2222 22.7544 40.2914 22.7716 40.3679C22.7888 40.4445 22.7816 40.5245 22.7508 40.5967L22.2834 41.6915L24.9973 40.127C25.0769 40.0821 25.1702 40.0678 25.2596 40.087C25.349 40.1062 25.4283 40.1575 25.4825 40.2312C25.5366 40.3048 25.5619 40.3958 25.5535 40.4868C25.5452 40.5779 25.5037 40.6627 25.437 40.7253L24.2667 41.7992L27.1623 40.127C27.2445 40.0811 27.3411 40.0679 27.4327 40.0902C27.5243 40.1124 27.6041 40.1684 27.6561 40.2469C27.7082 40.3254 27.7287 40.4207 27.7135 40.5137C27.6984 40.6067 27.6486 40.6906 27.5743 40.7485L26.7255 41.3924L28.5353 40.3454C28.6172 40.2982 28.7139 40.2838 28.8059 40.3051C28.898 40.3263 28.9786 40.3816 29.0316 40.4599C29.0845 40.5381 29.1059 40.6335 29.0914 40.7269C29.0769 40.8202 29.0275 40.9046 28.9533 40.9631L27.7142 41.9353L28.7454 41.337C28.8255 41.2915 28.9195 41.2772 29.0094 41.2967C29.0994 41.3162 29.179 41.3683 29.233 41.4428C29.287 41.5174 29.3116 41.6092 29.302 41.7008C29.2925 41.7923 29.2496 41.8772 29.1814 41.939L28.2721 42.7519L28.7454 42.479C28.8193 42.4363 28.9055 42.4202 28.9898 42.4333C29.074 42.4464 29.1513 42.4879 29.2087 42.5509C29.2662 42.614 29.3003 42.6947 29.3056 42.7798C29.3108 42.865 29.2868 42.9493 29.2375 43.0189L28.7492 43.7084C28.8349 43.6639 28.9346 43.6543 29.0273 43.6816C29.1199 43.7089 29.1984 43.7711 29.2463 43.855C29.2941 43.939 29.3077 44.0381 29.284 44.1318C29.2603 44.2255 29.2013 44.3064 29.1193 44.3575L27.6446 45.2123C27.5708 45.2546 27.4848 45.2705 27.4008 45.2574C27.3168 45.2442 27.2397 45.2028 27.1824 45.14C27.1251 45.0772 27.0909 44.9967 27.0854 44.9118C27.08 44.8269 27.1037 44.7427 27.1525 44.6731L27.6401 43.9843L25.517 45.2123C25.4375 45.2544 25.3455 45.2665 25.2578 45.2463C25.1701 45.226 25.0927 45.1749 25.0397 45.1021C24.9867 45.0294 24.9617 44.94 24.9693 44.8504C24.9769 44.7607 25.0166 44.6768 25.0811 44.614L25.9904 43.8004L23.5338 45.2123C23.4777 45.2459 23.4137 45.2639 23.3483 45.2646Z" fill="#2381D9"/>
<path d="M46.4938 45.2646C46.4164 45.2646 46.3409 45.2406 46.2777 45.1958C46.2145 45.1511 46.1667 45.0878 46.141 45.0147C46.1153 44.9417 46.1129 44.8625 46.1342 44.788C46.1555 44.7135 46.1994 44.6475 46.2598 44.599L47.3232 43.7443L44.788 45.2078C44.7057 45.2557 44.6082 45.2703 44.5154 45.2488C44.4226 45.2272 44.3415 45.171 44.2887 45.0917C44.2359 45.0124 44.2154 44.9159 44.2314 44.822C44.2473 44.7281 44.2985 44.6438 44.3745 44.5863L45.5 43.7308L44.1262 44.5235C44.0441 44.5707 43.9471 44.5849 43.8549 44.5633C43.7626 44.5417 43.682 44.4859 43.6293 44.4072C43.5766 44.3285 43.5558 44.2328 43.571 44.1393C43.5862 44.0458 43.6363 43.9615 43.7111 43.9036L44.1165 43.5917C44.0385 43.6324 43.9487 43.6443 43.8629 43.6253C43.777 43.6063 43.7006 43.5577 43.647 43.488C43.5934 43.4183 43.5661 43.3319 43.5699 43.244C43.5737 43.1562 43.6084 43.0725 43.6678 43.0076L44.5712 42.0519L44.1262 42.3084C44.0546 42.3497 43.9713 42.3661 43.8894 42.3551C43.8075 42.3441 43.7315 42.3062 43.6734 42.2474C43.6153 42.1886 43.5783 42.1122 43.5682 42.0302C43.5581 41.9481 43.5755 41.865 43.6177 41.7939L43.9011 41.3153C43.8274 41.2994 43.7602 41.2616 43.7083 41.2068C43.6565 41.152 43.6224 41.0828 43.6106 41.0083C43.5988 40.9338 43.6098 40.8575 43.6421 40.7894C43.6745 40.7212 43.7267 40.6645 43.7919 40.6265L44.6602 40.1255C44.7317 40.0841 44.8149 40.0676 44.8969 40.0785C44.9788 40.0894 45.0548 40.1272 45.113 40.1859C45.1712 40.2446 45.2083 40.3209 45.2185 40.403C45.2287 40.485 45.2115 40.5681 45.1694 40.6393L44.9862 40.9481L46.4123 40.1255C46.4901 40.081 46.5812 40.066 46.6691 40.083C46.757 40.1 46.8359 40.148 46.8914 40.2183C46.9469 40.2886 46.9753 40.3764 46.9715 40.4659C46.9678 40.5554 46.932 40.6405 46.8707 40.7058L45.9674 41.6623L48.6244 40.127C48.7065 40.0808 48.8031 40.0673 48.8947 40.0892C48.9863 40.1111 49.0663 40.1668 49.1187 40.2451C49.171 40.3234 49.1919 40.4186 49.1771 40.5117C49.1622 40.6047 49.1128 40.6888 49.0387 40.7469L48.6334 41.0588L50.2487 40.127C50.331 40.0801 50.4281 40.0663 50.5202 40.0882C50.6123 40.1101 50.6927 40.1662 50.7451 40.2451C50.7976 40.324 50.8181 40.4198 50.8025 40.5132C50.787 40.6067 50.7366 40.6907 50.6615 40.7484L49.5398 41.6017L51.1573 40.6684C51.2389 40.6212 51.3354 40.6066 51.4273 40.6275C51.5193 40.6483 51.5999 40.7032 51.6532 40.781C51.7064 40.8588 51.7283 40.9539 51.7144 41.0471C51.7005 41.1404 51.6519 41.2249 51.5784 41.2839L50.5149 42.1387L51.182 41.7535C51.2584 41.7094 51.3479 41.6937 51.4348 41.7092C51.5216 41.7248 51.6002 41.7705 51.6566 41.8383C51.7129 41.9062 51.7435 41.9918 51.7429 42.08C51.7423 42.1682 51.7105 42.2534 51.6531 42.3204L50.663 43.4765L51.182 43.1774C51.2548 43.1354 51.3396 43.119 51.4228 43.1311C51.506 43.1432 51.5827 43.183 51.6405 43.244C51.6983 43.305 51.7339 43.3837 51.7415 43.4674C51.7491 43.5511 51.7282 43.635 51.6823 43.7054L51.4624 44.0419C51.543 44.0721 51.6105 44.1295 51.6531 44.2042C51.7025 44.29 51.7158 44.3919 51.6901 44.4875C51.6645 44.5831 51.602 44.6646 51.5163 44.7142L50.6488 45.2153C50.576 45.2573 50.4912 45.2736 50.408 45.2615C50.3248 45.2495 50.2481 45.2097 50.1903 45.1487C50.1325 45.0877 50.0969 45.009 50.0893 44.9252C50.0817 44.8415 50.1026 44.7577 50.1485 44.6873L50.2016 44.6065L49.1479 45.2123C49.0716 45.2559 48.9823 45.2713 48.8958 45.2557C48.8093 45.2401 48.731 45.1945 48.6747 45.1269C48.6185 45.0593 48.5879 44.9741 48.5882 44.8862C48.5886 44.7982 48.62 44.7133 48.6768 44.6462L49.6639 43.4922L46.68 45.2123C46.6237 45.246 46.5595 45.264 46.4938 45.2646Z" fill="#2381D9"/>
<path d="M37.3722 45.2649C37.2968 45.2648 37.2233 45.242 37.1611 45.1994C37.099 45.1568 37.0511 45.0964 37.0239 45.0261C36.9966 44.9559 36.9913 44.879 37.0084 44.8057C37.0256 44.7323 37.0646 44.6658 37.1202 44.615L37.3655 44.3906L35.9379 45.2132C35.8582 45.2588 35.7646 45.2736 35.6748 45.2546C35.585 45.2357 35.5053 45.1843 35.4509 45.1105C35.3965 45.0366 35.3712 44.9452 35.3798 44.8539C35.3883 44.7625 35.4302 44.6775 35.4974 44.615L37.367 42.895L33.4139 45.1766C33.3316 45.2252 33.2339 45.2405 33.1407 45.2193C33.0475 45.1981 32.9659 45.142 32.9128 45.0626C32.8597 44.9831 32.839 44.8863 32.855 44.7921C32.871 44.6979 32.9225 44.6134 32.9989 44.5559L34.2089 43.6286L32.9084 44.3764C32.8287 44.4227 32.7348 44.4379 32.6446 44.4192C32.5544 44.4005 32.4743 44.3491 32.4197 44.275C32.365 44.2009 32.3396 44.1092 32.3484 44.0175C32.3571 43.9258 32.3994 43.8406 32.4672 43.7782L33.915 42.4388L32.9084 43.0199C32.841 43.0588 32.7631 43.0758 32.6856 43.0684C32.6081 43.061 32.5348 43.0296 32.476 42.9785C32.4172 42.9275 32.3758 42.8593 32.3576 42.7836C32.3394 42.7079 32.3453 42.6284 32.3744 42.5562L32.8807 41.3021C32.793 41.3311 32.6977 41.3266 32.6131 41.2896C32.5285 41.2525 32.4607 41.1854 32.4226 41.1013C32.3845 41.0171 32.3789 40.9219 32.4069 40.8338C32.4349 40.7458 32.4944 40.6713 32.5741 40.6245L33.4423 40.1235C33.5097 40.0845 33.5876 40.0675 33.6651 40.0749C33.7427 40.0823 33.8159 40.1138 33.8747 40.1648C33.9335 40.2159 33.9749 40.284 33.9931 40.3597C34.0113 40.4354 34.0054 40.5149 33.9763 40.5872L33.4745 41.8293L36.4269 40.1272C36.5066 40.081 36.6005 40.0657 36.6907 40.0845C36.7809 40.1032 36.861 40.1545 36.9156 40.2286C36.9703 40.3028 36.9957 40.3945 36.9869 40.4862C36.9782 40.5778 36.9359 40.6631 36.8682 40.7255L35.4204 42.0641L38.7789 40.1272C38.861 40.081 38.9575 40.0675 39.0492 40.0894C39.1408 40.1113 39.2208 40.167 39.2731 40.2453C39.3255 40.3237 39.3463 40.4189 39.3315 40.5119C39.3167 40.605 39.2673 40.689 39.1932 40.7472L37.9847 41.6738L39.9036 40.567C39.9832 40.5214 40.0769 40.5066 40.1667 40.5256C40.2564 40.5446 40.3361 40.5959 40.3905 40.6698C40.4449 40.7437 40.4703 40.835 40.4617 40.9263C40.4531 41.0177 40.4113 41.1027 40.3441 41.1652L38.4745 42.8852L39.9627 42.0275C40.0423 41.9831 40.1353 41.9693 40.2244 41.9888C40.3134 42.0082 40.3923 42.0594 40.4462 42.1329C40.5001 42.2064 40.5253 42.297 40.5171 42.3877C40.5089 42.4785 40.4679 42.5631 40.4017 42.6257L40.0816 42.9181C40.1409 42.9082 40.2016 42.9123 40.2591 42.9301C40.3165 42.9479 40.3689 42.9789 40.4121 43.0206C40.4703 43.0782 40.5079 43.1533 40.5192 43.2344C40.5306 43.3154 40.515 43.3979 40.475 43.4693L40.1639 44.019C40.2406 44.0303 40.3119 44.0652 40.3678 44.1188C40.4238 44.1725 40.4618 44.2422 40.4764 44.3183C40.491 44.3945 40.4816 44.4733 40.4495 44.5439C40.4173 44.6144 40.364 44.6733 40.297 44.7122L39.4295 45.2132C39.3585 45.2543 39.276 45.2708 39.1947 45.2604C39.1135 45.2499 39.0378 45.2131 38.9795 45.1555C38.9212 45.0978 38.8835 45.0227 38.8721 44.9415C38.8607 44.8603 38.8763 44.7777 38.9165 44.7062L39.1498 44.2949L37.5569 45.2125C37.5011 45.2461 37.4373 45.2641 37.3722 45.2649Z" fill="#2381D9"/>
<path d="M23.6276 37.0389C23.5491 37.0389 23.4726 37.0142 23.4089 36.9683C23.3453 36.9224 23.2976 36.8576 23.2728 36.7832C23.248 36.7087 23.2472 36.6284 23.2706 36.5535C23.294 36.4786 23.3404 36.4129 23.4032 36.3658L23.5857 36.2297L22.2927 36.9775C22.2125 37.0238 22.1181 37.0387 22.0276 37.0194C21.9371 37.0001 21.857 36.9479 21.8027 36.8729C21.7485 36.7979 21.724 36.7055 21.7339 36.6135C21.7439 36.5215 21.7876 36.4364 21.8567 36.3748L24.1122 34.3556L21.6877 35.7556C21.608 35.8018 21.5141 35.8171 21.4239 35.7984C21.3337 35.7796 21.2536 35.7283 21.199 35.6542C21.1443 35.58 21.1189 35.4884 21.1277 35.3967C21.1364 35.305 21.1787 35.2197 21.2465 35.1573L22.2658 34.2136L21.6877 34.5478C21.6191 34.586 21.5403 34.6016 21.4624 34.5925C21.3845 34.5834 21.3115 34.55 21.2536 34.497C21.1957 34.4441 21.1559 34.3743 21.1399 34.2976C21.1238 34.2208 21.1323 34.1409 21.1642 34.0692L21.6077 33.0926C21.5213 33.1071 21.4326 33.0909 21.357 33.0468C21.2814 33.0027 21.2237 32.9335 21.1939 32.8512C21.1641 32.7689 21.1641 32.6787 21.1939 32.5964C21.2237 32.5141 21.2815 32.4449 21.3571 32.4008L22.2254 31.8998C22.2939 31.8604 22.3732 31.8437 22.4518 31.8522C22.5304 31.8606 22.6043 31.8938 22.6628 31.9469C22.7214 32 22.7617 32.0703 22.7778 32.1476C22.7939 32.225 22.7851 32.3056 22.7526 32.3776L22.3263 33.3176L24.7837 31.8968C24.8634 31.8505 24.9573 31.8353 25.0475 31.854C25.1376 31.8727 25.2178 31.924 25.2724 31.9982C25.3271 32.0723 25.3525 32.164 25.3437 32.2557C25.3349 32.3474 25.2927 32.4326 25.2249 32.495L24.2056 33.4388L26.8724 31.9013C26.9519 31.8591 27.0439 31.847 27.1316 31.8673C27.2193 31.8875 27.2967 31.9387 27.3497 32.0114C27.4027 32.0841 27.4277 32.1735 27.4201 32.2632C27.4125 32.3528 27.3729 32.4367 27.3084 32.4995L25.0537 34.5187L28.7098 32.4075C28.7923 32.361 28.8894 32.3474 28.9815 32.3697C29.0736 32.3919 29.1538 32.4483 29.2059 32.5274C29.258 32.6065 29.2782 32.7024 29.2623 32.7958C29.2464 32.8892 29.1957 32.973 29.1204 33.0305L28.8415 33.2399C28.922 33.2192 29.0072 33.2261 29.0834 33.2592C29.1597 33.2924 29.2227 33.3501 29.2625 33.4231C29.3023 33.4961 29.3166 33.5803 29.3032 33.6624C29.2898 33.7445 29.2494 33.8197 29.1884 33.8763L28.3322 34.6682L28.7472 34.4297C28.8196 34.3888 28.9035 34.3733 28.9857 34.3854C29.0679 34.3976 29.1437 34.4368 29.2011 34.4968C29.2586 34.5568 29.2944 34.6342 29.3029 34.7169C29.3115 34.7995 29.2922 34.8827 29.2483 34.9532L28.837 35.5896C28.9245 35.5666 29.0173 35.5762 29.0983 35.6164C29.1793 35.6567 29.243 35.725 29.2775 35.8086C29.312 35.8922 29.315 35.9855 29.286 36.0712C29.257 36.1569 29.1979 36.2291 29.1196 36.2746L27.8842 36.9873C27.8119 37.0281 27.728 37.0437 27.6458 37.0315C27.5636 37.0194 27.4878 36.9802 27.4303 36.9202C27.3729 36.8601 27.3371 36.7827 27.3285 36.7001C27.32 36.6174 27.3392 36.5343 27.3832 36.4638L27.7795 35.8513L25.806 36.9865C25.7263 37.0328 25.6324 37.048 25.5422 37.0293C25.4521 37.0106 25.372 36.9592 25.3173 36.8851C25.2626 36.811 25.2372 36.7193 25.246 36.6276C25.2548 36.5359 25.2971 36.4507 25.3648 36.3883L26.2218 35.597L23.8145 36.9865C23.758 37.0204 23.6934 37.0384 23.6276 37.0389Z" fill="#2381D9"/>
<path d="M44.818 37.0387C44.7395 37.0387 44.663 37.014 44.5993 36.9681C44.5357 36.9222 44.4881 36.8574 44.4633 36.783C44.4384 36.7085 44.4377 36.6282 44.4611 36.5533C44.4845 36.4784 44.5308 36.4127 44.5936 36.3656L45.7827 35.4592L44.1375 36.4068C44.0558 36.454 43.9594 36.4686 43.8675 36.4477C43.7755 36.4268 43.6949 36.372 43.6416 36.2942C43.5884 36.2164 43.5665 36.1213 43.5804 36.0281C43.5943 35.9348 43.6428 35.8502 43.7164 35.7913L44.6886 35.0135L44.1203 35.3411C44.04 35.3863 43.9459 35.4002 43.8559 35.3803C43.766 35.3603 43.6866 35.3079 43.633 35.233C43.5793 35.1581 43.5552 35.0661 43.5652 34.9745C43.5752 34.883 43.6187 34.7983 43.6873 34.7368L44.0462 34.422C43.9829 34.4421 43.9153 34.4449 43.8505 34.4302C43.7857 34.4154 43.726 34.3837 43.6775 34.3382C43.6191 34.2834 43.5798 34.2111 43.5655 34.1322C43.5513 34.0533 43.5627 33.9719 43.5983 33.9L43.9954 33.0976C43.9265 33.1008 43.8581 33.0852 43.7974 33.0524C43.7368 33.0196 43.6863 32.9708 43.6514 32.9114C43.602 32.8256 43.5887 32.7237 43.6144 32.6281C43.64 32.5325 43.7025 32.4509 43.7882 32.4014L44.6564 31.9003C44.7259 31.8599 44.8064 31.843 44.8862 31.8519C44.966 31.8609 45.0408 31.8953 45.0995 31.9501C45.1582 32.0049 45.1977 32.0771 45.2122 32.1561C45.2267 32.2351 45.2154 32.3166 45.1799 32.3886L44.8172 33.126L46.9403 31.9011C47.0206 31.8559 47.1147 31.8419 47.2046 31.8619C47.2946 31.8818 47.374 31.9343 47.4276 32.0091C47.4813 32.084 47.5054 32.176 47.4954 32.2676C47.4854 32.3592 47.4419 32.4438 47.3733 32.5053L47.048 32.791L48.5901 31.9011C48.6716 31.8547 48.7677 31.8408 48.8591 31.8619C48.9505 31.8831 49.0306 31.9379 49.0835 32.0153C49.1364 32.0928 49.1582 32.1874 49.1447 32.2802C49.1311 32.373 49.0832 32.4574 49.0103 32.5165L48.0382 33.295L50.4529 31.9011C50.5352 31.8535 50.6324 31.8391 50.7249 31.8607C50.8174 31.8823 50.8982 31.9382 50.9509 32.0172C51.0037 32.0962 51.0244 32.1924 51.0088 32.2861C50.9933 32.3798 50.9426 32.464 50.8672 32.5218L49.6774 33.4296L51.1731 32.5644C51.252 32.5182 51.3451 32.5026 51.4347 32.5205C51.5244 32.5383 51.6044 32.5884 51.6597 32.6612C51.7149 32.7341 51.7416 32.8246 51.7346 32.9158C51.7276 33.0069 51.6875 33.0924 51.6218 33.1559L49.8846 34.8475L51.1805 34.0997C51.2574 34.0552 51.3475 34.0395 51.4349 34.0554C51.5222 34.0713 51.6011 34.1178 51.6573 34.1865C51.7135 34.2553 51.7434 34.3417 51.7417 34.4305C51.74 34.5193 51.7068 34.6045 51.6479 34.671L51.1805 35.2005C51.2664 35.1517 51.368 35.1388 51.4633 35.1647C51.5586 35.1906 51.6398 35.2531 51.6892 35.3386C51.7385 35.4241 51.7521 35.5257 51.7269 35.6211C51.7016 35.7166 51.6396 35.7982 51.5545 35.8481L49.5794 36.9863C49.5027 37.0303 49.4128 37.0457 49.3258 37.0297C49.2388 37.0137 49.1603 36.9673 49.1042 36.8989C49.0481 36.8304 49.0181 36.7443 49.0196 36.6559C49.021 36.5674 49.0538 36.4823 49.112 36.4157L49.5794 35.8855L47.671 36.9863C47.592 37.0325 47.4989 37.0481 47.4093 37.0302C47.3196 37.0124 47.2396 36.9623 47.1844 36.8895C47.1291 36.8167 47.1025 36.7261 47.1094 36.6349C47.1164 36.5438 47.1566 36.4584 47.2223 36.3948L48.958 34.7047L45.0049 36.9863C44.9484 37.0202 44.8839 37.0382 44.818 37.0387Z" fill="#2381D9"/>
<path d="M34.4249 37.0387C34.3499 37.0389 34.2765 37.0165 34.2143 36.9744C34.1521 36.9323 34.1041 36.8724 34.0764 36.8026C34.0487 36.7328 34.0427 36.6563 34.0591 36.5831C34.0755 36.5098 34.1136 36.4432 34.1684 36.3919L36.5466 34.1484L32.9054 36.2543C32.8267 36.2985 32.7347 36.3128 32.6464 36.2945C32.558 36.2762 32.4792 36.2266 32.4246 36.1549C32.3699 36.0831 32.3431 35.9939 32.349 35.9039C32.3548 35.8139 32.3931 35.729 32.4567 35.665L34.1423 33.995L32.9054 34.7085C32.8376 34.7475 32.7593 34.7644 32.6815 34.7566C32.6037 34.7488 32.5302 34.7168 32.4716 34.6652C32.4129 34.6135 32.3718 34.5447 32.3543 34.4685C32.3367 34.3923 32.3435 34.3125 32.3736 34.2403L32.8597 33.0834C32.7721 33.1081 32.6784 33.0999 32.5963 33.0605C32.5142 33.021 32.4494 32.9529 32.414 32.869C32.3785 32.7851 32.375 32.6911 32.4039 32.6048C32.4328 32.5184 32.4922 32.4456 32.5711 32.3999L33.4393 31.8989C33.5071 31.8596 33.5855 31.8425 33.6634 31.8502C33.7414 31.8578 33.815 31.8898 33.8738 31.9415C33.9325 31.9933 33.9735 32.0623 33.9909 32.1386C34.0084 32.2149 34.0014 32.2948 33.971 32.367L33.4924 33.5067L36.2788 31.8989C36.3575 31.8546 36.4495 31.8403 36.5378 31.8586C36.6262 31.8769 36.7049 31.9265 36.7596 31.9983C36.8143 32.0701 36.8411 32.1592 36.8352 32.2492C36.8293 32.3393 36.7911 32.4241 36.7275 32.4882L35.0404 34.1566L38.9546 31.9011C39.0343 31.8527 39.1292 31.8357 39.2207 31.8536C39.3122 31.8716 39.3937 31.923 39.4492 31.9979C39.5048 32.0729 39.5303 32.1658 39.5208 32.2586C39.5114 32.3514 39.4676 32.4372 39.398 32.4994L37.0192 34.7429L39.9649 33.0423C40.041 32.9985 40.1301 32.9829 40.2165 32.9982C40.303 33.0135 40.3813 33.0588 40.4377 33.126C40.4942 33.1933 40.5251 33.2782 40.5252 33.366C40.5254 33.4538 40.4946 33.5388 40.4383 33.6062L39.0271 35.2888L39.9649 34.7429C40.0359 34.7023 40.1183 34.6861 40.1994 34.6968C40.2805 34.7075 40.3558 34.7445 40.4138 34.8022C40.4719 34.8598 40.5094 34.9349 40.5207 35.0159C40.532 35.0969 40.5165 35.1794 40.4764 35.2507L40.1676 35.7973C40.2439 35.8091 40.3148 35.8442 40.3704 35.8979C40.426 35.9516 40.4636 36.0212 40.478 36.0971C40.4925 36.173 40.483 36.2515 40.451 36.3219C40.419 36.3922 40.3659 36.4509 40.2992 36.4898L39.4317 36.9909C39.3607 37.0316 39.2784 37.0479 39.1973 37.0373C39.1162 37.0267 39.0408 36.9898 38.9827 36.9323C38.9245 36.8747 38.8869 36.7997 38.8754 36.7187C38.864 36.6377 38.8795 36.5552 38.9194 36.4838L39.1498 36.077L37.5658 36.9864C37.4897 37.0302 37.4007 37.0458 37.3142 37.0305C37.2278 37.0151 37.1495 36.9699 37.093 36.9027C37.0366 36.8354 37.0056 36.7505 37.0055 36.6627C37.0054 36.5749 37.0362 36.4899 37.0925 36.4225L38.5036 34.7399L34.6149 36.9834C34.5577 37.0186 34.4921 37.0377 34.4249 37.0387Z" fill="#2381D9"/>
<path d="M28.5764 59.4961C28.4961 59.4961 28.4181 59.4702 28.3537 59.4224C28.2893 59.3745 28.242 59.3072 28.2187 59.2304C28.1955 59.1537 28.1976 59.0714 28.2247 58.9959C28.2518 58.9204 28.3025 58.8556 28.3692 58.8111L31.0734 57.0073L27.67 58.9726C27.5858 59.0215 27.4859 59.0355 27.3915 59.0119C27.2971 58.9882 27.2157 58.9287 27.1645 58.8459C27.1133 58.7632 27.0963 58.6637 27.1173 58.5687C27.1382 58.4737 27.1954 58.3905 27.2766 58.337L28.7469 57.3648L27.67 57.987C27.587 58.0346 27.4889 58.0486 27.3959 58.0261C27.3029 58.0036 27.2221 57.9463 27.1701 57.866C27.118 57.7857 27.0988 57.6885 27.1162 57.5945C27.1337 57.5004 27.1865 57.4166 27.2639 57.3603L30.6509 54.9164L27.67 56.6364C27.5888 56.6832 27.493 56.6979 27.4016 56.6775C27.3101 56.657 27.2297 56.603 27.1762 56.5261C27.1227 56.4491 27.1 56.3549 27.1126 56.2621C27.1253 56.1692 27.1723 56.0845 27.2445 56.0247L30.3629 53.4342L27.6707 54.9882C27.5892 55.0351 27.493 55.0496 27.4013 55.0288C27.3096 55.0079 27.2291 54.9533 27.1758 54.8757C27.1226 54.7981 27.1006 54.7034 27.1141 54.6103C27.1277 54.5172 27.1758 54.4326 27.249 54.3735L28.1606 53.6383L27.6707 53.9203C27.5911 53.9687 27.4962 53.9857 27.4046 53.9678C27.3131 53.9498 27.2316 53.8984 27.1761 53.8235C27.1205 53.7485 27.095 53.6556 27.1045 53.5628C27.1139 53.47 27.1577 53.3842 27.2273 53.322L27.7351 52.8441L27.6707 52.8808C27.6077 52.917 27.5356 52.9341 27.463 52.93C27.3904 52.9259 27.3206 52.9007 27.2622 52.8575C27.2037 52.8144 27.1591 52.7551 27.1337 52.687C27.1084 52.6189 27.1035 52.5448 27.1196 52.474L27.3439 51.4816C27.2656 51.4508 27.2001 51.394 27.1585 51.3208C27.1091 51.2351 27.0956 51.1333 27.1212 51.0377C27.1467 50.9421 27.209 50.8605 27.2946 50.8108L27.6685 50.5947C27.7315 50.5582 27.8038 50.5409 27.8765 50.5449C27.9492 50.5489 28.0191 50.5741 28.0777 50.6173C28.1363 50.6605 28.181 50.7198 28.2064 50.7881C28.2317 50.8563 28.2366 50.9305 28.2204 51.0015L28.0364 51.8054L30.1386 50.5917C30.2183 50.5432 30.3132 50.5263 30.4047 50.5442C30.4962 50.5621 30.5777 50.6136 30.6333 50.6885C30.6888 50.7634 30.7143 50.8564 30.7049 50.9491C30.6954 51.0419 30.6516 51.1278 30.5821 51.1899L30.0735 51.6686L31.9431 50.5917C32.0245 50.545 32.1205 50.5306 32.2121 50.5515C32.3036 50.5723 32.3839 50.6268 32.4371 50.7041C32.4903 50.7814 32.5125 50.8759 32.4993 50.9688C32.486 51.0617 32.4383 51.1463 32.3656 51.2056L31.4548 51.9408L33.7962 50.5894C33.8773 50.5436 33.9725 50.5297 34.0633 50.5503C34.1541 50.571 34.2339 50.6248 34.2871 50.7012C34.3403 50.7776 34.3631 50.8711 34.351 50.9635C34.339 51.0558 34.2929 51.1403 34.2218 51.2004L31.1025 53.7887L36.6589 50.5834C36.7419 50.5358 36.84 50.5218 36.933 50.5443C37.026 50.5668 37.1068 50.6241 37.1589 50.7044C37.2109 50.7847 37.2302 50.8819 37.2127 50.976C37.1952 51.07 37.1424 51.1538 37.065 51.2101L33.6781 53.6541L39.0019 50.5805C39.0861 50.5316 39.186 50.5176 39.2804 50.5412C39.3748 50.5649 39.4562 50.6244 39.5074 50.7072C39.5586 50.7899 39.5756 50.8894 39.5546 50.9844C39.5337 51.0794 39.4765 51.1626 39.3953 51.2161L37.922 52.1883L40.7152 50.576C40.7992 50.5282 40.8985 50.5148 40.9922 50.5386C41.0859 50.5624 41.1668 50.6216 41.2178 50.7038C41.2688 50.7859 41.2859 50.8846 41.2657 50.9792C41.2455 51.0737 41.1894 51.1568 41.1093 51.2109L38.4089 53.0117L42.6334 50.573C42.7169 50.5251 42.8156 50.5112 42.909 50.5342C43.0024 50.5573 43.0834 50.6155 43.135 50.6967C43.1867 50.7779 43.205 50.8759 43.1862 50.9702C43.1675 51.0646 43.113 51.1481 43.0342 51.2034L38.4635 54.3877L45.0758 50.5737C45.1595 50.5241 45.2593 50.5091 45.3539 50.5319C45.4485 50.5546 45.5305 50.6134 45.5825 50.6956C45.6345 50.7779 45.6524 50.8772 45.6323 50.9724C45.6123 51.0677 45.5559 51.1513 45.4752 51.2056L41.2506 54.1177L45.2067 51.8338C45.2891 51.7876 45.3859 51.7743 45.4777 51.7965C45.5695 51.8187 45.6495 51.8749 45.7016 51.9537C45.7537 52.0325 45.774 52.1281 45.7585 52.2213C45.743 52.3145 45.6928 52.3983 45.618 52.456L41.2566 55.7465L45.2104 53.4648C45.2918 53.4182 45.3878 53.4038 45.4794 53.4246C45.5709 53.4455 45.6512 53.4999 45.7044 53.5773C45.7576 53.6546 45.7798 53.7491 45.7666 53.842C45.7533 53.9349 45.7056 54.0194 45.6329 54.0788L42.7463 56.4195L45.2142 54.9942C45.2926 54.9511 45.3839 54.9375 45.4715 54.956C45.5591 54.9745 45.6371 55.0238 45.6914 55.095C45.7458 55.1661 45.7727 55.2544 45.7675 55.3438C45.7623 55.4331 45.7251 55.5177 45.6629 55.582L43.883 57.3573L45.2157 56.5878C45.2912 56.5442 45.3796 56.5283 45.4656 56.543C45.5516 56.5576 45.6297 56.6019 45.6865 56.6681C45.7433 56.7343 45.7752 56.8183 45.7766 56.9055C45.778 56.9927 45.7489 57.0777 45.6943 57.1457L45.1842 57.7761L45.2179 57.7574C45.2605 57.7304 45.3081 57.7122 45.3578 57.704C45.4076 57.6958 45.4585 57.6978 45.5075 57.7098C45.5564 57.7218 45.6025 57.7436 45.6428 57.7738C45.6832 57.8041 45.717 57.8422 45.7422 57.8858C45.7675 57.9295 45.7836 57.9778 45.7897 58.0279C45.7958 58.0779 45.7917 58.1287 45.7776 58.1771C45.7636 58.2256 45.7399 58.2707 45.7079 58.3097C45.676 58.3487 45.6365 58.3809 45.5918 58.4043L43.8269 59.4228C43.7514 59.4665 43.663 59.4823 43.577 59.4677C43.491 59.453 43.4129 59.4088 43.3561 59.3425C43.2993 59.2763 43.2674 59.1924 43.266 59.1051C43.2646 59.0179 43.2937 58.933 43.3483 58.865L43.8568 58.233L41.7906 59.4258C41.7121 59.4689 41.6208 59.4825 41.5332 59.464C41.4457 59.4455 41.3676 59.3962 41.3133 59.325C41.259 59.2539 41.232 59.1656 41.2372 59.0762C41.2425 58.9869 41.2796 58.9023 41.3419 58.838L43.121 57.0597L39.0169 59.4296C38.9355 59.4754 38.8399 59.4892 38.7488 59.4681C38.6578 59.447 38.578 59.3925 38.5251 59.3155C38.4722 59.2385 38.45 59.1445 38.463 59.052C38.476 58.9594 38.5231 58.8751 38.5951 58.8156L41.4825 56.4741L36.3598 59.4348C36.2774 59.482 36.1801 59.4961 36.0877 59.4742C35.9952 59.4523 35.9146 59.396 35.8622 59.3168C35.8097 59.2376 35.7894 59.1414 35.8053 59.0478C35.8212 58.9541 35.8721 58.8701 35.9478 58.8126L40.3069 55.5221L33.5263 59.437C33.4426 59.4867 33.3428 59.5017 33.2482 59.4789C33.1536 59.4561 33.0715 59.3974 33.0196 59.3151C32.9676 59.2329 32.9497 59.1336 32.9698 59.0383C32.9898 58.9431 33.0462 58.8594 33.1269 58.8051L37.3529 55.8931L31.2087 59.44C31.1253 59.4879 31.0266 59.5018 30.9331 59.4788C30.8397 59.4557 30.7587 59.3976 30.7071 59.3164C30.6555 59.2351 30.6371 59.1372 30.6559 59.0428C30.6747 58.9484 30.7291 58.8649 30.8079 58.8096L35.3787 55.6253L28.7663 59.4393C28.7094 59.4752 28.6437 59.4948 28.5764 59.4961Z" fill="#2381D9"/>
<path d="M37.062 51.9952C36.9854 51.9951 36.9107 51.9715 36.848 51.9276C36.7853 51.8836 36.7375 51.8215 36.7113 51.7495C36.685 51.6776 36.6815 51.5993 36.7011 51.5253C36.7208 51.4512 36.7627 51.385 36.8212 51.3356L37.1032 51.0978L35.6344 51.9429C35.5598 51.9859 35.4725 52.0018 35.3875 51.9879C35.3024 51.974 35.2248 51.9311 35.1677 51.8665C35.1106 51.802 35.0776 51.7197 35.0742 51.6336C35.0708 51.5474 35.0973 51.4628 35.1491 51.394L36.2641 49.9237L32.7635 51.9429C32.684 51.985 32.592 51.9971 32.5043 51.9768C32.4166 51.9566 32.3392 51.9054 32.2862 51.8327C32.2332 51.76 32.2082 51.6706 32.2158 51.581C32.2234 51.4913 32.263 51.4074 32.3275 51.3446L32.9101 50.8256L30.9657 51.9474C30.888 51.9918 30.7969 52.0069 30.709 51.9899C30.621 51.9728 30.5422 51.9248 30.4867 51.8546C30.4311 51.7843 30.4027 51.6964 30.4065 51.607C30.4103 51.5175 30.446 51.4324 30.5073 51.367L31.5311 50.2864L28.6571 51.9429C28.5792 51.9879 28.4877 52.0033 28.3994 51.9863C28.311 51.9693 28.2318 51.921 28.1762 51.8503C28.1205 51.7796 28.0923 51.6912 28.0966 51.6013C28.1008 51.5115 28.1374 51.4262 28.1995 51.3611L29.2098 50.3051L27.0157 51.569C26.9378 51.6134 26.8465 51.6284 26.7585 51.6112C26.6704 51.594 26.5915 51.5458 26.5361 51.4752C26.4807 51.4047 26.4525 51.3166 26.4567 51.227C26.4608 51.1374 26.497 51.0523 26.5587 50.9871L27.2146 50.2999L26.9222 50.4689C26.8498 50.5119 26.765 50.5291 26.6815 50.5179C26.5981 50.5067 26.5209 50.4677 26.4624 50.4071C26.4039 50.3465 26.3675 50.268 26.3592 50.1842C26.3509 50.1004 26.3712 50.0163 26.4166 49.9454L26.6724 49.5319C26.5779 49.5053 26.4975 49.4431 26.448 49.3584C26.3987 49.2725 26.3854 49.1707 26.411 49.0751C26.4367 48.9795 26.4992 48.8979 26.5849 48.8483L27.4531 48.3473C27.5255 48.3043 27.6103 48.287 27.6938 48.2983C27.7772 48.3095 27.8544 48.3485 27.9129 48.4091C27.9714 48.4697 28.0078 48.5482 28.0161 48.632C28.0244 48.7158 28.0041 48.7999 27.9587 48.8708L27.8285 49.0817L29.0946 48.351C29.1725 48.306 29.264 48.2906 29.3524 48.3076C29.4407 48.3246 29.52 48.3729 29.5756 48.4436C29.6312 48.5143 29.6595 48.6027 29.6552 48.6926C29.6509 48.7824 29.6144 48.8677 29.5523 48.9328L28.8972 49.6186L31.0936 48.3473C31.1715 48.3023 31.263 48.2868 31.3513 48.3038C31.4397 48.3209 31.5189 48.3691 31.5746 48.4398C31.6302 48.5106 31.6585 48.599 31.6542 48.6888C31.6499 48.7787 31.6134 48.864 31.5513 48.9291L30.5424 49.991L33.3842 48.3518C33.4619 48.3073 33.553 48.2922 33.6409 48.3093C33.7289 48.3263 33.8077 48.3743 33.8632 48.4446C33.9188 48.5148 33.9472 48.6027 33.9434 48.6922C33.9396 48.7816 33.9039 48.8668 33.8426 48.9321L32.8196 50.012L35.6972 48.3518C35.7767 48.3096 35.8688 48.2976 35.9565 48.3178C36.0441 48.338 36.1216 48.3892 36.1746 48.4619C36.2276 48.5346 36.2526 48.624 36.245 48.7137C36.2374 48.8034 36.1977 48.8873 36.1332 48.95L35.5492 49.4735L37.4935 48.3518C37.5682 48.3092 37.6553 48.2936 37.7401 48.3077C37.8249 48.3218 37.9023 48.3646 37.9592 48.4291C38.0161 48.4935 38.049 48.5756 38.0525 48.6615C38.0559 48.7474 38.0297 48.8319 37.9781 48.9007L36.8631 50.3724L40.3645 48.3533C40.4453 48.3079 40.54 48.2942 40.6303 48.3148C40.7206 48.3353 40.8001 48.3886 40.8534 48.4644C40.9066 48.5402 40.9298 48.633 40.9186 48.725C40.9073 48.8169 40.8622 48.9014 40.7922 48.962L40.5103 49.1998L41.979 48.3533C42.053 48.3112 42.1391 48.2956 42.2232 48.3091C42.3072 48.3225 42.3842 48.3643 42.4413 48.4274C42.4984 48.4905 42.5322 48.5712 42.5372 48.6562C42.5423 48.7412 42.5181 48.8253 42.4689 48.8947L41.3651 50.427L44.9599 48.3533C45.0373 48.3083 45.1282 48.2926 45.2162 48.309C45.3041 48.3254 45.3833 48.3727 45.4393 48.4425C45.4953 48.5123 45.5245 48.5998 45.5214 48.6892C45.5184 48.7787 45.4834 48.864 45.4228 48.9298L44.3661 50.0733L45.9471 49.1617C46.0213 49.1191 46.1079 49.1033 46.1925 49.1169C46.277 49.1304 46.3543 49.1726 46.4114 49.2364C46.4686 49.3001 46.5022 49.3815 46.5065 49.467C46.5109 49.5525 46.4858 49.6369 46.4354 49.7061L45.9216 50.4061L45.9471 50.3911C46.0325 50.3464 46.1319 50.3365 46.2246 50.3633C46.3172 50.3902 46.3958 50.4518 46.4441 50.5353C46.4924 50.6188 46.5065 50.7177 46.4836 50.8114C46.4606 50.9051 46.4024 50.9863 46.321 51.038L44.7505 51.9444C44.6763 51.987 44.5896 52.0028 44.5051 51.9892C44.4206 51.9756 44.3433 51.9334 44.2861 51.8697C44.229 51.806 44.1954 51.7245 44.191 51.6391C44.1867 51.5536 44.2118 51.4692 44.2622 51.3999L44.7759 50.7L42.6207 51.9429C42.5433 51.9873 42.4526 52.0026 42.365 51.986C42.2773 51.9695 42.1985 51.9221 42.1427 51.8525C42.0869 51.7829 42.0578 51.6956 42.0607 51.6065C42.0636 51.5173 42.0983 51.4321 42.1585 51.3663L43.213 50.2214L40.2291 51.9414C40.1551 51.9835 40.069 51.9991 39.985 51.9856C39.9009 51.9721 39.824 51.9304 39.7669 51.8672C39.7098 51.8041 39.6759 51.7234 39.6709 51.6384C39.6659 51.5535 39.69 51.4693 39.7393 51.3999L40.8438 49.8669L37.249 51.9429C37.1925 51.9767 37.1279 51.9948 37.062 51.9952Z" fill="#C4C4C4"/>
<path d="M54.926 28.9171V28.5432C56.5967 28.2515 56.9115 25.4524 55.9461 24.2162C55.7446 24.0385 55.5098 23.9026 55.2554 23.8163C55.0009 23.7301 54.7319 23.6952 54.4639 23.7137C50.2566 23.7002 46.0478 23.7219 41.8397 23.7137C47.9779 19.4331 41.7021 12.0826 36.5376 17.1387C31.723 12.0991 24.7427 19.457 30.8196 23.7137H19.9888C18.3577 23.5117 16.2092 24.0397 16.45 26.091C16.3393 27.2031 16.5898 28.5798 17.9457 28.6942C17.9681 38.3069 17.9083 47.9218 17.9457 57.5344C17.992 60.018 21.1292 59.4481 22.8156 59.4481H45.0075C45.1137 59.5094 45.2341 59.5417 45.3568 59.5417C45.4794 59.5417 45.5998 59.5094 45.706 59.4481C48.6525 58.9157 55.626 61.3177 54.926 56.3327V28.9171ZM47.4148 24.2349C49.6583 24.279 51.9227 24.1601 54.1565 24.2349C55.3613 24.4054 55.3373 25.5309 55.3373 26.4552C55.3373 27.0722 55.365 27.8941 54.6867 28.1498C54.4656 28.11 54.2375 28.1489 54.0421 28.2597C48.473 28.1192 42.9181 28.2358 37.3467 28.1999C38.6801 26.8882 39.9843 25.5488 41.3155 24.2364L47.4148 24.2349ZM29.561 20.0964C29.0375 15.8966 33.6068 14.7202 35.9296 17.9456C37.604 18.3689 38.0594 14.7688 41.4448 16.4268C46.925 20.3028 39.1385 24.9521 36.551 27.9733C35.08 26.6145 33.7541 25.1697 32.2981 23.7944C31.1733 22.7467 29.831 21.5808 29.561 20.0964ZM17.5329 26.6482C17.5164 25.9213 17.3227 24.4794 18.2672 24.2349C22.6136 24.2289 26.9877 24.2394 31.3431 24.2349L35.3163 28.1984H19.4817C18.4916 28.2007 17.556 27.9748 17.5329 26.6482ZM27.598 48.9396C33.4423 48.9396 39.3337 48.9314 45.1608 48.9396C45.6305 49.0847 45.6155 49.5461 45.6155 49.9334C45.6525 50.3656 45.6409 50.8006 45.5811 51.2302C45.391 51.2044 45.198 51.2494 45.0389 51.3566H36.8277C33.8491 51.3222 30.7598 51.391 27.7685 51.3566C27.0625 51.1823 27.2353 50.1241 27.2547 49.5618C27.2741 48.9994 27.1134 48.98 27.598 48.9396ZM36.9788 51.9309H44.858V58.7968H36.9788V51.9309ZM28.0048 52.4252V52.002C30.6715 51.8524 33.2396 51.9601 35.8937 51.9309V58.7968H28.0025L28.0048 52.4252ZM53.8402 57.2525C54.2477 60.0658 47.8239 58.3742 45.9603 58.7998V51.729C46.9893 51.2803 47.1628 48.354 45.6155 48.3637C40.6955 48.3316 35.7643 48.3854 30.8406 48.3637C29.3658 48.5627 26.6415 47.5942 26.1711 49.5603C26.0769 50.3081 25.9729 51.6879 26.9189 51.8935V58.7975C25.1907 58.464 19.4765 59.6949 19.0756 57.8403C18.9261 48.1723 19.0861 38.4243 19.0293 28.7294C30.6514 28.7092 42.2121 28.7294 53.8394 28.7294L53.8402 57.2525Z" fill="#262626"/>
<path d="M29.5053 41.5735C29.7738 40.1623 28.3656 39.8729 27.2618 40.0285C25.6084 40.0419 23.9534 40.0045 22.3007 40.0285C20.1903 40.1735 21.0675 42.8867 20.9329 44.3076C21.1767 46.2228 26.5581 44.9716 28.1577 45.3112C30.0984 45.1758 29.3849 42.8844 29.5053 41.5735ZM22.3411 44.5155C22.1855 44.5005 22.042 44.3098 22.027 44.0668C22.039 43.0452 21.9866 42.002 22.0442 40.9902C23.839 40.5273 26.1633 40.9775 28.1278 40.8257C28.7867 41.5069 28.2415 42.8119 28.4075 43.7115C28.4075 43.8686 28.4756 44.502 28.258 44.517C26.2859 44.4908 24.3071 44.5558 22.3411 44.5155Z" fill="#262626"/>
<path d="M49.8672 40.1361C45.5604 40.5616 42.6738 38.2665 43.3715 44.3082C43.4269 45.2535 44.4237 45.2056 45.1162 45.2056C46.8781 44.837 51.4586 46.2234 51.9335 44.0203C51.7697 42.1605 52.7793 39.6552 49.8672 40.1361ZM44.9315 44.6231C44.2749 44.5483 44.4507 43.5013 44.4507 43.0384C44.5254 42.2794 44.2906 41.4366 44.5636 40.7239C46.4608 40.7014 48.3588 40.7239 50.2568 40.7164C51.0099 40.7164 50.8461 41.714 50.8461 42.2308C50.7601 42.9995 51.0338 43.9276 50.7115 44.6238C48.7911 44.5932 46.8534 44.6724 44.9353 44.6231H44.9315Z" fill="#262626"/>
<path d="M40.6137 40.6504C40.2742 40.0521 39.3648 40.2077 38.7867 40.2077C37.1333 40.2136 35.4798 40.1979 33.8263 40.2077C31.4796 40.0768 32.2364 42.7802 32.1542 44.2998C32.2499 45.9241 37.6881 44.8285 39.0866 45.1284C39.343 45.1547 39.6018 45.1165 39.8397 45.0174C40.0776 44.9182 40.2869 44.7612 40.4487 44.5607C40.6105 44.3601 40.7197 44.1223 40.7662 43.8688C40.8128 43.6153 40.7953 43.3542 40.7154 43.1093C40.7735 42.2884 40.7394 41.4636 40.6137 40.6504ZM33.0927 40.6414C32.9603 40.6571 33.0389 40.6414 33.0927 40.6414V40.6414ZM33.8465 44.6947C33.0718 44.6513 33.237 43.6372 33.237 43.1078C33.3118 42.3158 33.0127 41.3556 33.3866 40.6399C35.233 40.6496 37.0839 40.598 38.9295 40.6399C39.7836 40.6601 39.6303 41.6233 39.6303 42.2268C39.539 43.009 39.8337 44.0007 39.4762 44.6947C37.6014 44.6812 35.7221 44.7186 33.8465 44.6947Z" fill="#262626"/>
<path d="M20.9374 36.0822C21.0481 37.7678 26.5461 36.6431 27.9872 36.9519C29.2196 36.9647 29.6885 35.9439 29.4986 34.8475C29.4305 34.0436 29.6549 33.1612 29.3797 32.3984C29.0125 31.7814 28.056 31.9362 27.4398 31.9362C25.7863 31.9452 24.1321 31.9205 22.4794 31.9362C20.2247 31.9116 21.0533 34.612 20.9374 36.0822ZM22.0202 34.8109C22.095 34.0436 21.852 33.1881 22.1384 32.4702C24.0319 32.45 25.9254 32.4702 27.8219 32.4627C28.5653 32.4627 28.4202 33.4596 28.4202 34.0032C28.3417 34.7922 28.5922 35.6874 28.2953 36.4217C26.3689 36.3956 24.4335 36.4636 22.5123 36.4217C21.8609 36.3574 22.0202 35.2947 22.0202 34.8124V34.8109Z" fill="#262626"/>
<path d="M49.8719 31.9265C47.9044 32.2698 44.8158 31.0703 43.4331 32.7349C43.3378 33.8481 43.3171 34.9663 43.371 36.0822C43.4271 37.0223 44.4255 36.9609 45.112 36.9609C46.8776 36.5938 51.4297 37.9728 51.9337 35.7921C51.7654 33.9352 52.784 31.4397 49.8719 31.9265ZM44.9362 36.4135C44.2923 36.3559 44.4516 35.2918 44.4516 34.8124C44.5264 34.0481 44.2871 33.1993 44.5668 32.4814C46.4618 32.4605 48.3576 32.4814 50.2503 32.4739C50.9914 32.4739 50.8441 33.4581 50.8441 34.0048C50.7693 34.7907 51.0146 35.6822 50.7215 36.4135C48.7995 36.3881 46.8641 36.4509 44.9392 36.4135H44.9362Z" fill="#262626"/>
<path d="M32.1542 36.0822C32.2664 37.7611 37.7629 36.6378 39.2025 36.946C40.4327 36.9587 40.9068 35.9439 40.7154 34.8475C40.6473 34.0444 40.8717 33.1619 40.5965 32.3991C40.2308 31.7859 39.2713 31.9414 38.6581 31.9414C37.0046 31.9512 35.3504 31.925 33.6977 31.9414C31.4423 31.9168 32.2694 34.6112 32.1542 36.0822ZM34.3281 32.459H39.035C39.7828 32.459 39.6333 33.4625 39.6333 34.0047C39.554 34.7952 39.806 35.6933 39.5076 36.4284C37.582 36.4008 35.6466 36.4733 33.7269 36.4284C33.0785 36.3589 33.2378 35.2962 33.2378 34.8124C33.3163 34.0444 33.0643 33.1821 33.3575 32.4657C33.682 32.4485 34.0028 32.4634 34.3281 32.459Z" fill="#262626"/>
<path d="M34.8869 22.8588H35.8867C35.9757 23.3531 35.5771 24.4166 36.384 24.3605C37.2111 24.3268 36.9479 23.4264 36.9823 22.8588C38.9267 23.048 39.0239 21.8365 36.9823 22.0975C36.8933 21.6032 37.2919 20.5398 36.485 20.5959C35.6579 20.6295 35.9211 21.5299 35.8867 22.0975C35.3984 22.1432 34.5795 21.9038 34.3911 22.5238C34.3574 22.8035 34.6865 22.8588 34.8869 22.8588Z" fill="#262626"/>
</g>
<defs>
<linearGradient id="paint0_linear_858_386" x1="-3.34263e-07" y1="-10.6277" x2="90.5319" y2="94.4681" gradientUnits="userSpaceOnUse">
<stop stop-color="#E3F1FF"/>
<stop offset="1" stop-color="#77B2EA"/>
</linearGradient>
<clipPath id="clip0_858_386">
<rect width="44.87" height="44.87" fill="white" transform="translate(14 15)"/>
</clipPath>
</defs>
</svg>
