<svg width="74" height="74" viewBox="0 0 74 74" fill="none" xmlns="http://www.w3.org/2000/svg">
<g clip-path="url(#clip0_405_2580)">
<path d="M14.8135 61.8933C14.7077 61.867 14.6134 61.807 14.5449 61.7222C14.4764 61.6374 14.4374 61.5326 14.434 61.4236C14.4306 61.3147 14.4629 61.2076 14.5259 61.1187C14.589 61.0298 14.6793 60.9639 14.7833 60.9311L29.6476 56.2163L12.2579 61.1812C12.1326 61.2136 11.9996 61.1961 11.8868 61.1324C11.7741 61.0687 11.6905 60.9637 11.6536 60.8396C11.6167 60.7155 11.6294 60.582 11.689 60.467C11.7485 60.3521 11.8504 60.2647 11.973 60.2233L20.423 57.6053L9.9327 60.599C9.80772 60.6311 9.67515 60.6137 9.56273 60.5503C9.45032 60.4869 9.36675 60.3826 9.32952 60.259C9.29229 60.1354 9.30427 60.0023 9.36296 59.8873C9.42166 59.7724 9.52251 59.6846 9.64443 59.6423L27.1546 54.1385L7.05358 59.8781C6.92904 59.9093 6.79728 59.8914 6.6856 59.828C6.57391 59.7647 6.49087 59.6609 6.45366 59.538C6.41645 59.4151 6.42793 59.2826 6.48572 59.168C6.54351 59.0534 6.64319 58.9653 6.7641 58.9222L34.5396 50.0014L5.13517 58.404C5.00818 58.4422 4.87122 58.4284 4.75442 58.3656C4.63762 58.3028 4.55054 58.1962 4.51234 58.0692C4.47415 57.9422 4.48797 57.8053 4.55075 57.6885C4.61354 57.5717 4.72016 57.4846 4.84715 57.4464L31.4081 49.0204L4.79385 56.6217C4.66833 56.6551 4.53476 56.6383 4.42141 56.5749C4.30805 56.5115 4.22381 56.4065 4.18651 56.2821C4.14921 56.1577 4.16178 56.0237 4.22156 55.9084C4.28134 55.7931 4.38363 55.7056 4.50679 55.6643L26.0214 48.9437L5.20703 54.8892C5.07988 54.927 4.94294 54.9127 4.82634 54.8494C4.70974 54.7862 4.62304 54.6793 4.58529 54.5521C4.54755 54.425 4.56186 54.288 4.62508 54.1714C4.6883 54.0548 4.79525 53.9681 4.9224 53.9304L21.1807 48.9017L5.59104 53.3556C5.52803 53.3742 5.46197 53.3802 5.39664 53.3733C5.33131 53.3663 5.26798 53.3466 5.21027 53.3152C5.09372 53.2518 5.00712 53.1447 4.96954 53.0175C4.93196 52.8902 4.94646 52.7533 5.00986 52.6367C5.07326 52.5202 5.18037 52.4336 5.30762 52.396L12.706 50.1363L5.91092 52.078C5.78648 52.1084 5.65512 52.0899 5.54393 52.0263C5.43275 51.9627 5.35021 51.8588 5.31336 51.7361C5.27651 51.6135 5.28815 51.4813 5.34588 51.367C5.40361 51.2526 5.50302 51.1648 5.62362 51.1216L32.0963 42.7477L6.41005 50.0845C6.28454 50.1179 6.15097 50.1011 6.03761 50.0377C5.92426 49.9743 5.84002 49.8693 5.80272 49.7449C5.76542 49.6205 5.77799 49.4865 5.83777 49.3712C5.89754 49.2559 5.99984 49.1684 6.123 49.1271L32.8045 40.6808L6.91259 48.0775C6.78773 48.1088 6.65562 48.0907 6.54375 48.027C6.43188 47.9634 6.34888 47.859 6.31201 47.7357C6.27515 47.6123 6.28727 47.4796 6.34585 47.3649C6.40443 47.2503 6.50496 47.1627 6.6265 47.1203L26.2945 40.9651L7.33789 46.3789C7.21345 46.4093 7.08209 46.3908 6.9709 46.3272C6.85971 46.2636 6.77718 46.1597 6.74033 46.0371C6.70348 45.9144 6.71511 45.7822 6.77284 45.6679C6.83057 45.5535 6.92999 45.4657 7.05059 45.4225L26.404 39.3174L7.77363 44.6387C7.64828 44.671 7.51526 44.6535 7.40255 44.5898C7.28985 44.5261 7.20625 44.4212 7.16934 44.2971C7.13244 44.173 7.1451 44.0394 7.20468 43.9245C7.26425 43.8095 7.36608 43.7222 7.48875 43.6808L12.2119 42.2285L8.0821 43.4067C7.95658 43.44 7.82301 43.4232 7.70966 43.3598C7.5963 43.2965 7.51206 43.1915 7.47476 43.067C7.43746 42.9426 7.45003 42.8086 7.50981 42.6933C7.56959 42.578 7.67188 42.4905 7.79504 42.4493L20.2216 38.5446L8.45833 41.9041C8.33347 41.9354 8.20136 41.9173 8.08949 41.8536C7.97762 41.7899 7.89462 41.6856 7.85775 41.5622C7.82089 41.4389 7.83301 41.3061 7.89159 41.1915C7.95017 41.0769 8.0507 40.9893 8.17224 40.9469L16.1295 38.4561L8.80104 40.5518C8.67605 40.5839 8.54349 40.5665 8.43107 40.5031C8.31865 40.4397 8.23509 40.3354 8.19786 40.2118C8.16063 40.0882 8.17261 39.9551 8.2313 39.8401C8.28999 39.7252 8.39085 39.6374 8.51277 39.5951L20.1005 35.899L9.18092 39.0182C9.05626 39.0501 8.92407 39.0328 8.81185 38.9698C8.69964 38.9068 8.61604 38.8029 8.57847 38.6798C8.54089 38.5567 8.55223 38.4239 8.61012 38.3089C8.66801 38.194 8.76799 38.1058 8.88926 38.0627L22.3664 33.6799L9.60549 37.3225C9.48063 37.3538 9.34852 37.3357 9.23665 37.272C9.12478 37.2084 9.04178 37.104 9.00491 36.9807C8.96805 36.8574 8.98017 36.7246 9.03875 36.6099C9.09733 36.4953 9.19786 36.4077 9.3194 36.3654L9.84746 36.1996C9.7218 36.2253 9.5911 36.2016 9.48239 36.1336C9.37368 36.0655 9.29526 35.9583 9.26335 35.8341C9.23144 35.7099 9.24848 35.5782 9.31095 35.4662C9.37341 35.3542 9.47653 35.2705 9.59897 35.2323L15.803 33.2385L10.2329 34.8333C10.1087 34.8637 9.97764 34.8454 9.86658 34.7822C9.75551 34.7189 9.67288 34.6155 9.63567 34.4932C9.59846 34.371 9.60949 34.2391 9.66649 34.1247C9.72349 34.0103 9.82214 33.9221 9.94217 33.8781L14.4102 32.4321L10.5593 33.5296C10.4356 33.5608 10.3046 33.5436 10.1931 33.4813C10.0817 33.4191 9.9983 33.3166 9.95999 33.1949C9.92168 33.0731 9.93137 32.9414 9.98708 32.8265C10.0428 32.7117 10.1403 32.6225 10.2596 32.5773L21.1159 28.8423L11.012 31.7297C10.8855 31.7693 10.7484 31.7571 10.6309 31.6957C10.5133 31.6343 10.425 31.5287 10.3853 31.4021C10.3457 31.2756 10.3579 31.1385 10.4193 31.0209C10.4807 30.9034 10.5863 30.8151 10.7129 30.7754L17.8836 28.3216L11.3965 30.1693C11.2728 30.2006 11.1418 30.1833 11.0304 30.1211C10.919 30.0588 10.8355 29.9564 10.7972 29.8346C10.7589 29.7129 10.7686 29.5811 10.8243 29.4663C10.88 29.3514 10.9775 29.2623 11.0969 29.217L15.6768 27.6454L11.7475 28.7676C11.6234 28.8014 11.491 28.786 11.378 28.7247C11.2649 28.6634 11.1798 28.5608 11.1404 28.4384C11.1009 28.316 11.1102 28.183 11.1662 28.0673C11.2223 27.9515 11.3208 27.8618 11.4413 27.8167L17.0594 25.7958L12.1398 27.201C12.0173 27.2347 11.8865 27.2205 11.7741 27.1612C11.6616 27.102 11.576 27.0021 11.5345 26.882C11.4931 26.7619 11.4989 26.6305 11.5508 26.5145C11.6028 26.3985 11.6969 26.3067 11.8142 26.2576L18.9678 23.3449L12.6535 25.1493C12.5327 25.1834 12.4035 25.1708 12.2916 25.1141C12.1796 25.0574 12.0931 24.9606 12.0492 24.843C12.0053 24.7255 12.0072 24.5957 12.0546 24.4794C12.1019 24.3632 12.1912 24.2691 12.3048 24.2156L17.9678 21.5627L13.2112 22.922C13.0917 22.9565 12.9637 22.9453 12.8521 22.8904C12.7405 22.8356 12.6533 22.7412 12.6075 22.6256C12.5618 22.5099 12.5608 22.3814 12.6047 22.2651C12.6486 22.1488 12.7343 22.053 12.845 21.9964L15.8821 20.4353L13.6761 21.0654C13.5587 21.0982 13.4335 21.087 13.3238 21.034C13.2141 20.981 13.1276 20.8898 13.0804 20.7775C13.0332 20.6652 13.0286 20.5396 13.0675 20.4241C13.1065 20.3087 13.1862 20.2114 13.2917 20.1506L14.3055 19.5725L14.0302 19.651C13.9368 19.6777 13.8377 19.6766 13.7449 19.6479C13.6522 19.6192 13.5698 19.5641 13.5078 19.4893C13.4459 19.4145 13.407 19.3233 13.396 19.2269C13.385 19.1304 13.4024 19.0328 13.4459 18.946L14.0724 17.704C13.9796 17.6386 13.9125 17.5431 13.8823 17.4337C13.8461 17.3065 13.8617 17.17 13.9259 17.0543C13.99 16.9386 14.0974 16.853 14.2245 16.8163L14.7797 16.6574C14.8731 16.6308 14.9722 16.6318 15.065 16.6606C15.1577 16.6893 15.2401 16.7444 15.3021 16.8192C15.3641 16.8939 15.4029 16.9851 15.4139 17.0816C15.4249 17.1781 15.4075 17.2757 15.364 17.3625L14.8536 18.3758L18.0277 17.4738C18.1462 17.4366 18.2742 17.4449 18.3869 17.4969C18.4996 17.549 18.5889 17.6411 18.6375 17.7553C18.686 17.8696 18.6903 17.9978 18.6496 18.1151C18.6088 18.2323 18.5259 18.3302 18.4169 18.3897L17.3976 18.9654L20.479 18.0876C20.5981 18.0542 20.7253 18.0661 20.8361 18.121C20.9469 18.1759 21.0334 18.2699 21.0789 18.3848C21.1245 18.4997 21.1258 18.6275 21.0827 18.7434C21.0396 18.8592 20.955 18.955 20.8454 19.0122L17.8095 20.5685L23.7016 18.8862C23.8219 18.8534 23.9501 18.8667 24.0611 18.9235C24.172 18.9803 24.2578 19.0766 24.3015 19.1934C24.3452 19.3101 24.3436 19.439 24.2972 19.5548C24.2508 19.6705 24.1628 19.7647 24.0505 19.8189L18.3856 22.4714L27.5629 19.8509C27.6854 19.8172 27.8162 19.8314 27.9286 19.8907C28.041 19.9499 28.1267 20.0498 28.1681 20.1699C28.2096 20.29 28.2038 20.4214 28.1518 20.5374C28.0999 20.6534 28.0057 20.7452 27.8885 20.7943L20.7363 23.7053L31.1208 20.7387C31.2449 20.7049 31.3773 20.7203 31.4903 20.7816C31.6034 20.8429 31.6885 20.9455 31.728 21.0679C31.7674 21.1903 31.7581 21.3233 31.7021 21.439C31.646 21.5548 31.5475 21.6445 31.427 21.6895L25.8174 23.7095L33.8391 21.4183C33.9638 21.3846 34.0966 21.4004 34.2099 21.4624C34.3232 21.5245 34.408 21.6279 34.4467 21.7511C34.4854 21.8743 34.4749 22.0077 34.4175 22.1234C34.3601 22.239 34.2601 22.328 34.1386 22.3716L29.5599 23.9425L36.2694 22.0258C36.3945 21.9908 36.5284 22.006 36.6425 22.0681C36.7567 22.1301 36.8422 22.2342 36.881 22.3582C36.9198 22.4822 36.9087 22.6165 36.8502 22.7325C36.7917 22.8485 36.6903 22.9372 36.5676 22.9798L29.3847 25.4367L38.9685 22.6995C39.0932 22.6658 39.2261 22.6816 39.3393 22.7437C39.4526 22.8057 39.5374 22.9092 39.5761 23.0324C39.6148 23.1556 39.6043 23.2889 39.5469 23.4046C39.4895 23.5203 39.3895 23.6092 39.268 23.6528L28.4177 27.3842L42.0907 23.4792C42.2158 23.4462 42.3489 23.463 42.4619 23.526C42.5749 23.5891 42.6591 23.6935 42.6967 23.8173C42.7343 23.9412 42.7224 24.0748 42.6636 24.19C42.6047 24.3053 42.5035 24.3932 42.3811 24.4354L37.9111 25.881L44.3453 24.0427C44.4082 24.0236 44.4742 24.017 44.5396 24.0234C44.605 24.0298 44.6685 24.049 44.7264 24.08C44.7844 24.1109 44.8357 24.153 44.8774 24.2037C44.9192 24.2545 44.9505 24.313 44.9696 24.3758C44.9887 24.4387 44.9953 24.5047 44.9889 24.5701C44.9825 24.6355 44.9633 24.699 44.9323 24.757C44.9014 24.8149 44.8594 24.8662 44.8086 24.908C44.7578 24.9497 44.6993 24.981 44.6365 25.0001L38.4361 26.9959L46.7074 24.6341C46.8329 24.6008 46.9665 24.6176 47.0798 24.681C47.1932 24.7444 47.2774 24.8494 47.3147 24.9738C47.352 25.0982 47.3395 25.2322 47.2797 25.3475C47.2199 25.4628 47.1176 25.5503 46.9944 25.5915L46.5464 25.734L48.6761 25.125C48.8021 25.0891 48.9372 25.1041 49.0523 25.1668C49.1674 25.2294 49.2533 25.3348 49.2915 25.4601C49.3297 25.5855 49.3171 25.7208 49.2565 25.837C49.196 25.9532 49.0922 26.041 48.9675 26.0815L35.478 30.4684L51.6127 25.8593C51.7384 25.8248 51.8727 25.8408 51.9868 25.9038C52.1009 25.9669 52.1859 26.072 52.2236 26.1968C52.2613 26.3216 52.2488 26.4562 52.1887 26.5719C52.1286 26.6876 52.0257 26.7753 51.902 26.8162L40.3268 30.5031L54.2675 26.5209C54.3304 26.5021 54.3965 26.4958 54.4618 26.5025C54.5271 26.5092 54.5905 26.5287 54.6483 26.5599C54.7062 26.591 54.7573 26.6333 54.7987 26.6842C54.8402 26.7352 54.8713 26.7938 54.8901 26.8567C54.9089 26.9196 54.9152 26.9856 54.9085 27.051C54.9018 27.1163 54.8823 27.1797 54.8512 27.2375C54.82 27.2953 54.7777 27.3464 54.7268 27.3879C54.6758 27.4294 54.6173 27.4604 54.5543 27.4793L46.5784 29.9747L56.6153 27.1077C56.7424 27.0696 56.8795 27.0835 56.9963 27.1464C57.1132 27.2093 57.2003 27.316 57.2385 27.4431C57.2766 27.5703 57.2627 27.7073 57.1998 27.8242C57.1369 27.9411 57.0302 28.0282 56.9031 28.0663L44.4838 31.9666L59.2225 27.7575C59.3497 27.7197 59.4866 27.734 59.6032 27.7973C59.7198 27.8605 59.8065 27.9674 59.8443 28.0946C59.882 28.2217 59.8677 28.3587 59.8045 28.4753C59.7413 28.5919 59.6343 28.6786 59.5072 28.7163L54.7893 30.1679L61.3589 28.2913C61.4858 28.2531 61.6228 28.267 61.7396 28.3297C61.8564 28.3925 61.9435 28.4991 61.9817 28.6261C62.0199 28.7531 62.0061 28.8901 61.9433 29.0069C61.8805 29.1237 61.7739 29.2108 61.6469 29.249L42.2947 35.3533L64.376 29.0457C64.4389 29.0269 64.5049 29.0207 64.5703 29.0273C64.6356 29.034 64.699 29.0535 64.7568 29.0847C64.8146 29.1159 64.8657 29.1581 64.9072 29.2091C64.9487 29.26 64.9797 29.3186 64.9986 29.3815C65.0174 29.4444 65.0236 29.5105 65.017 29.5758C65.0103 29.6412 64.9908 29.7045 64.9596 29.7624C64.9284 29.8202 64.8862 29.8713 64.8352 29.9128C64.7843 29.9542 64.7257 29.9853 64.6628 30.0041L44.9982 36.1581L66.5267 30.0079C66.6522 29.9746 66.7858 29.9914 66.8991 30.0548C67.0125 30.1182 67.0967 30.2232 67.134 30.3476C67.1713 30.472 67.1587 30.606 67.099 30.7213C67.0392 30.8366 66.9369 30.9241 66.8137 30.9653L40.1322 39.4116L66.0241 32.015C66.1486 31.9846 66.2799 32.0031 66.3911 32.0667C66.5023 32.1303 66.5848 32.2342 66.6217 32.3568C66.6585 32.4795 66.6469 32.6117 66.5892 32.726C66.5314 32.8404 66.432 32.9282 66.3114 32.9714L39.8218 41.3513L65.5257 34.0055C65.653 33.9679 65.7899 33.9825 65.9065 34.0459C66.023 34.1093 66.1096 34.2164 66.1472 34.3436C66.1848 34.4709 66.1703 34.6078 66.1069 34.7244C66.0435 34.8409 65.9364 34.9275 65.8091 34.9651L58.4098 37.2287L65.2068 35.2875C65.3322 35.2551 65.4652 35.2726 65.5779 35.3363C65.6906 35.4 65.7742 35.505 65.8111 35.629C65.848 35.7531 65.8353 35.8867 65.7758 36.0016C65.7162 36.1166 65.6144 36.2039 65.4917 36.2453L49.2334 41.274L64.8213 36.8187C64.9462 36.7874 65.0783 36.8055 65.1902 36.8692C65.3021 36.9328 65.3851 37.0372 65.4219 37.1605C65.4588 37.2838 65.4467 37.4166 65.3881 37.5312C65.3295 37.6459 65.229 37.7335 65.1074 37.7758L43.6141 44.4977L64.3841 38.5648C64.5091 38.5327 64.6417 38.5501 64.7541 38.6135C64.8665 38.6769 64.9501 38.7812 64.9873 38.9048C65.0246 39.0284 65.0126 39.1615 64.9539 39.2765C64.8952 39.3914 64.7943 39.4792 64.6724 39.5215L38.109 47.9448L63.8787 40.5835C64.0032 40.5523 64.135 40.5702 64.2467 40.6336C64.3584 40.6969 64.4414 40.8007 64.4786 40.9236C64.5158 41.0465 64.5044 41.1789 64.4466 41.2936C64.3888 41.4082 64.2891 41.4962 64.1682 41.5394L36.3898 50.4595L63.3327 42.7642C63.4571 42.7337 63.5885 42.7523 63.6997 42.8159C63.8109 42.8795 63.8934 42.9833 63.9302 43.106C63.9671 43.2287 63.9555 43.3608 63.8977 43.4752C63.84 43.5895 63.7406 43.6774 63.62 43.7206L46.1011 49.2304L62.9164 44.4268C63.0417 44.3945 63.1747 44.412 63.2875 44.4757C63.4002 44.5394 63.4838 44.6443 63.5207 44.7684C63.5576 44.8925 63.5449 45.0261 63.4853 45.141C63.4258 45.256 63.3239 45.3433 63.2012 45.3847L54.7639 48.0017L62.5802 45.7694C62.7052 45.7373 62.8378 45.7547 62.9502 45.8181C63.0626 45.8815 63.1462 45.9858 63.1834 46.1094C63.2206 46.233 63.2086 46.3661 63.15 46.481C63.0913 46.596 62.9904 46.6838 62.8685 46.726L48.0039 51.4418L62.1739 47.3923C62.3001 47.357 62.4352 47.3727 62.55 47.436C62.6648 47.4994 62.7501 47.6052 62.7876 47.7309C62.8251 47.8565 62.8117 47.9918 62.7504 48.1077C62.6891 48.2236 62.5847 48.3107 62.4597 48.3504L54.4282 50.8701L61.8324 48.7562C61.9566 48.725 62.0881 48.7428 62.1996 48.8058C62.3112 48.8687 62.3943 48.9721 62.4319 49.0945C62.4695 49.217 62.4586 49.3492 62.4015 49.4639C62.3445 49.5786 62.2456 49.667 62.1252 49.7109L45.8523 55.0328L61.3706 50.6003C61.4965 50.5634 61.6318 50.5775 61.7474 50.6395C61.863 50.7015 61.9496 50.8064 61.9885 50.9316C62.0275 51.0568 62.0157 51.1923 61.9557 51.309C61.8956 51.4256 61.7922 51.5139 61.6676 51.555L43.9218 57.5637L60.838 52.7276C60.9634 52.6913 61.098 52.7056 61.2131 52.7672C61.3281 52.8289 61.4145 52.9332 61.4537 53.0577C61.4929 53.1822 61.4819 53.3171 61.423 53.4336C61.3641 53.5501 61.2619 53.6389 61.1384 53.6811L45.1283 59.2378L60.2925 54.9063C60.4183 54.8682 60.554 54.8812 60.6704 54.9424C60.7867 55.0036 60.8742 55.1082 60.914 55.2335C60.9538 55.3588 60.9426 55.4948 60.8829 55.6119C60.8232 55.729 60.7198 55.8179 60.595 55.8594L47.6919 60.3787L59.7872 56.924C59.9108 56.8927 60.0416 56.9097 60.153 56.9715C60.2644 57.0334 60.348 57.1354 60.3867 57.2569C60.4254 57.3783 60.4163 57.5099 60.3612 57.6248C60.3061 57.7397 60.2092 57.8292 60.0903 57.8751L50.6055 61.2051L59.3401 58.7099C59.4636 58.6768 59.5952 58.6922 59.7077 58.7531C59.8202 58.814 59.905 58.9156 59.9448 59.0372C59.9847 59.1587 59.9764 59.2909 59.9217 59.4065C59.867 59.5222 59.7701 59.6125 59.6509 59.6588L50.3327 63.114L58.8463 60.682C58.9697 60.6514 59.1002 60.669 59.2111 60.7311C59.322 60.7933 59.4051 60.8953 59.4434 61.0166C59.4818 61.1378 59.4725 61.2691 59.4174 61.3837C59.3624 61.4984 59.2658 61.5877 59.1472 61.6336L57.1555 62.3256L58.533 61.9334C58.6557 61.9 58.7864 61.9147 58.8987 61.9743C59.011 62.0339 59.0964 62.1341 59.1374 62.2544C59.1785 62.3748 59.1721 62.5062 59.1197 62.622C59.0673 62.7379 58.9727 62.8294 58.8552 62.878L52.7596 65.303L58.0691 63.7862C58.1922 63.7545 58.3227 63.7708 58.4342 63.8319C58.5457 63.893 58.6297 63.9943 58.6692 64.1151C58.7086 64.236 58.7006 64.3673 58.6467 64.4824C58.5928 64.5976 58.497 64.6878 58.3789 64.7349L57.9241 64.9045C58.0291 64.9051 58.1312 64.9385 58.2163 64.9999C58.3015 65.0613 58.3654 65.1477 58.3991 65.2471C58.4395 65.3691 58.4314 65.5021 58.3764 65.6182C58.3214 65.7344 58.2237 65.825 58.1037 65.8711L57.6736 66.0365C57.7689 66.0443 57.86 66.0784 57.9369 66.1352C58.0138 66.192 58.0732 66.2691 58.1086 66.3578C58.1531 66.4748 58.1521 66.6042 58.1058 66.7205C58.0595 66.8368 57.9713 66.9315 57.8586 66.9859L55.5143 68.1143L57.0975 67.6664C57.2145 67.633 57.3397 67.6435 57.4496 67.6958C57.5594 67.7481 57.6465 67.8387 57.6943 67.9506C57.7422 68.0625 57.7476 68.188 57.7095 68.3036C57.6715 68.4192 57.5926 68.5169 57.4877 68.5785L56.2956 69.2758L56.5925 69.1894C56.7197 69.1539 56.8557 69.1703 56.9709 69.2348C57.0861 69.2993 57.1711 69.4067 57.2074 69.5337C57.2437 69.6606 57.2282 69.7968 57.1645 69.9124C57.1008 70.028 56.9939 70.1138 56.8672 70.1509L52.7596 71.3223C52.6426 71.3557 52.5174 71.3452 52.4076 71.2929C52.2977 71.2406 52.2107 71.15 52.1628 71.0381C52.115 70.9262 52.1095 70.8007 52.1476 70.6851C52.1856 70.5695 52.2645 70.4718 52.3695 70.4102L53.5616 69.7129L50.1822 70.6769C50.0624 70.7099 49.9345 70.697 49.8237 70.6408C49.7128 70.5846 49.6269 70.4891 49.5826 70.373C49.5383 70.2569 49.5388 70.1284 49.5841 70.0127C49.6294 69.8969 49.7161 69.8022 49.8275 69.7469L52.1717 68.6185L47.3981 69.9798C47.2754 70.0121 47.145 69.9965 47.0334 69.9361C46.9217 69.8758 46.8372 69.7753 46.7969 69.6549C46.7567 69.5346 46.7637 69.4034 46.8165 69.2881C46.8693 69.1727 46.9641 69.0817 47.0815 69.0336L47.2096 68.9832L45.4386 69.4892C45.3151 69.5224 45.1836 69.5069 45.0711 69.446C44.9586 69.3852 44.8737 69.2835 44.8339 69.1619C44.7941 69.0404 44.8023 68.9082 44.857 68.7926C44.9117 68.6769 45.0086 68.5867 45.1278 68.5403L45.3388 68.4632L43.4685 68.9959C43.345 69.0314 43.2126 69.018 43.0988 68.9586C42.9849 68.8991 42.8983 68.7981 42.8569 68.6766C42.8155 68.555 42.8225 68.4221 42.8764 68.3055C42.9303 68.1889 43.027 68.0976 43.1465 68.0504L49.2377 65.6263L40.2576 68.1919C40.1337 68.224 40.0023 68.2073 39.8904 68.1454C39.7784 68.0834 39.6945 67.9809 39.6558 67.859C39.6171 67.7371 39.6267 67.6049 39.6825 67.4898C39.7383 67.3747 39.836 67.2853 39.9557 67.2401L41.9462 66.553L38.0895 67.6491C37.9667 67.6803 37.8366 67.6637 37.7256 67.6027C37.6145 67.5417 37.5308 67.4408 37.4913 67.3204C37.4517 67.2 37.4594 67.0691 37.5127 66.9541C37.566 66.8392 37.661 66.7488 37.7784 66.7011L47.0969 63.245L34.6739 66.7939C34.55 66.8267 34.4181 66.8107 34.3056 66.7491C34.1931 66.6874 34.1086 66.5849 34.0696 66.4628C34.0305 66.3406 34.0399 66.2081 34.0958 66.0927C34.1517 65.9772 34.2498 65.8877 34.3699 65.8425L43.8627 62.5135L31.5785 66.0188C31.4541 66.0525 31.3215 66.0369 31.2084 65.9752C31.0953 65.9136 31.0103 65.8106 30.9712 65.6878C30.9322 65.565 30.942 65.4318 30.9988 65.3161C31.0555 65.2004 31.1547 65.1111 31.2757 65.0668L44.1809 60.5469L28.0853 65.1442C27.9605 65.1789 27.8271 65.1639 27.7131 65.1022C27.5992 65.0405 27.5136 64.9369 27.4745 64.8134C27.4354 64.6899 27.4458 64.556 27.5035 64.4399C27.5612 64.3239 27.6616 64.2348 27.7837 64.1914L43.7902 58.641L24.3235 64.2023C24.1983 64.2372 24.0645 64.222 23.9503 64.16C23.8361 64.0979 23.7506 63.9939 23.7118 63.8698C23.6731 63.7458 23.6841 63.6116 23.7426 63.4955C23.8011 63.3795 23.9025 63.2908 24.0252 63.2483L41.7692 57.2391L20.6266 63.2766C20.5023 63.3077 20.3709 63.29 20.2593 63.227C20.1478 63.1641 20.0646 63.0607 20.0271 62.9382C19.9895 62.8158 20.0004 62.6836 20.0574 62.5689C20.1145 62.4542 20.2134 62.3658 20.3337 62.3219L36.6074 57.0012L17.4351 62.4775C17.3102 62.5088 17.1781 62.4907 17.0663 62.427C16.9544 62.3634 16.8714 62.259 16.8345 62.1357C16.7977 62.0124 16.8098 61.8796 16.8684 61.765C16.9269 61.6503 17.0275 61.5627 17.149 61.5204L25.1885 58.9975L15.074 61.8863C14.9893 61.9116 14.8994 61.914 14.8135 61.8933Z" fill="#7FC3CF"/>
<path d="M43.3537 25.7428C43.2494 25.7166 43.1562 25.6574 43.0882 25.5741C43.0202 25.4907 42.9808 25.3877 42.976 25.2802C42.9712 25.1727 43.0012 25.0665 43.0615 24.9775C43.1218 24.8884 43.2093 24.8211 43.3109 24.7857L43.6602 24.667L41.6343 25.2401C41.5113 25.2711 41.3811 25.2542 41.2701 25.1928C41.1592 25.1314 41.0756 25.0301 41.0365 24.9094C40.9974 24.7888 41.0056 24.6578 41.0595 24.5429C41.1134 24.4281 41.2088 24.338 41.3266 24.2909L44.5812 23.109L39.2286 24.6377C39.105 24.6709 38.9735 24.6554 38.861 24.5946C38.7485 24.5337 38.6636 24.432 38.6238 24.3105C38.584 24.1889 38.5923 24.0567 38.6469 23.9411C38.7016 23.8255 38.7985 23.7352 38.9177 23.6888L42.9381 22.2069L36.6725 23.9977C36.5494 24.0295 36.4188 24.0131 36.3073 23.952C36.1959 23.8909 36.1118 23.7896 36.0724 23.6688C36.0329 23.548 36.0409 23.4166 36.0949 23.3015C36.1488 23.1864 36.2445 23.0961 36.3626 23.0491L40.1712 21.6513L34.1552 23.3674C34.0326 23.3989 33.9025 23.3827 33.7914 23.3221C33.6803 23.2614 33.5963 23.1609 33.5564 23.0407C33.5164 22.9206 33.5236 22.7898 33.5764 22.6747C33.6292 22.5596 33.7236 22.4689 33.8407 22.4207L38.9989 20.4702L31.3217 22.658C31.1984 22.6895 31.0677 22.6728 30.9562 22.6113C30.8448 22.5498 30.761 22.4482 30.7219 22.3271C30.6829 22.2059 30.6914 22.0745 30.7459 21.9595C30.8004 21.8445 30.8967 21.7546 31.0152 21.7081L33.7346 20.7283L29.009 22.0789C28.8864 22.1104 28.7564 22.0942 28.6453 22.0335C28.5341 21.9729 28.4501 21.8724 28.4102 21.7522C28.3703 21.6321 28.3775 21.5013 28.4302 21.3862C28.483 21.2711 28.5775 21.1803 28.6946 21.1322L33.8484 19.1785L26.1755 21.3694C26.0528 21.4028 25.922 21.3882 25.8098 21.3285C25.6975 21.2689 25.6121 21.1687 25.5711 21.0484C25.53 20.9281 25.5364 20.7966 25.5888 20.6808C25.6412 20.565 25.7358 20.4735 25.8533 20.4249L32.5201 17.7645L22.822 20.5298C22.6985 20.5611 22.5677 20.5442 22.4563 20.4823C22.3449 20.4204 22.2613 20.3184 22.2226 20.197C22.1839 20.0755 22.193 19.9439 22.2481 19.829C22.3032 19.7141 22.4001 19.6246 22.519 19.5787L23.7114 19.1556L20.7384 20.008C20.6156 20.0393 20.4855 20.0227 20.3744 19.9617C20.2634 19.9007 20.1796 19.7998 20.1401 19.6794C20.1006 19.559 20.1083 19.4281 20.1616 19.3131C20.2149 19.1981 20.3099 19.1077 20.4273 19.0601L24.7275 17.4648L18.1182 19.352C17.9957 19.387 17.8645 19.3739 17.7513 19.3153C17.6381 19.2568 17.5516 19.1573 17.5093 19.0371C17.467 18.9169 17.4722 18.7851 17.5239 18.6687C17.5755 18.5522 17.6696 18.4598 17.787 18.4104L25.3825 15.2155L14.2795 18.3877C14.1564 18.4195 14.0258 18.4031 13.9144 18.342C13.8029 18.2809 13.7189 18.1797 13.6794 18.0588C13.6399 17.938 13.648 17.8066 13.7019 17.6915C13.7558 17.5764 13.8515 17.4861 13.9696 17.4391L17.8755 16.0027L13.0424 17.3832C12.9206 17.4164 12.7906 17.4023 12.6788 17.3436C12.5669 17.2849 12.4814 17.1861 12.4394 17.067C12.3974 16.9478 12.4021 16.8172 12.4525 16.7014C12.5029 16.5855 12.5952 16.493 12.711 16.4425L19.3395 13.6386L13.022 15.4431C12.9011 15.4776 12.7716 15.4651 12.6593 15.4083C12.5471 15.3514 12.4605 15.2544 12.4166 15.1365C12.3728 15.0186 12.375 14.8885 12.4228 14.7722C12.4706 14.6558 12.5605 14.5618 12.6746 14.5088L17.5252 12.2596L13.5338 13.3992C13.4084 13.4295 13.2762 13.4101 13.1648 13.3452C13.0534 13.2802 12.9714 13.1747 12.9359 13.0508C12.9004 12.9268 12.9142 12.7939 12.9744 12.6798C13.0346 12.5658 13.1365 12.4794 13.2589 12.4387L23.4052 9.54239C23.5257 9.50933 23.6542 9.52258 23.7654 9.57951C23.8766 9.63645 23.9624 9.73296 24.0061 9.85003C24.0497 9.96711 24.0479 10.0963 24.001 10.2121C23.9542 10.3279 23.8656 10.422 23.7529 10.4758L18.9023 12.725L26.9449 10.4287C27.0672 10.3942 27.198 10.4075 27.3107 10.466C27.4235 10.5244 27.5098 10.6236 27.5521 10.7434C27.5944 10.8631 27.5896 10.9945 27.5385 11.1108C27.4875 11.2271 27.3941 11.3196 27.2773 11.3696L20.6461 14.1719L30.5768 11.3381C30.7004 11.3049 30.8319 11.3204 30.9444 11.3812C31.0569 11.4421 31.1418 11.5438 31.1816 11.6653C31.2214 11.7869 31.2131 11.9191 31.1584 12.0347C31.1038 12.1503 31.0069 12.2406 30.8876 12.287L26.9784 13.7204L33.1125 11.973C33.2351 11.938 33.3663 11.9511 33.4795 12.0096C33.5926 12.0682 33.6792 12.1677 33.7215 12.2879C33.7637 12.4081 33.7585 12.5398 33.7069 12.6563C33.6553 12.7728 33.5612 12.8652 33.4437 12.9146L25.8495 16.1087L36.9598 12.9363C37.0826 12.9051 37.2127 12.9216 37.3237 12.9826C37.4348 13.0437 37.5185 13.1446 37.558 13.265C37.5975 13.3854 37.5899 13.5163 37.5365 13.6312C37.4832 13.7462 37.3883 13.8366 37.2708 13.8842L32.9648 15.4863L39.5809 13.5926C39.7044 13.5612 39.8352 13.5782 39.9466 13.64C40.058 13.7019 40.1416 13.8039 40.1803 13.9254C40.219 14.0468 40.2099 14.1784 40.1548 14.2933C40.0997 14.4082 40.0028 14.4978 39.8839 14.5436L38.6866 14.9655L41.6655 14.1145C41.7886 14.0797 41.9204 14.0934 42.0337 14.1528C42.147 14.2122 42.2333 14.3128 42.2747 14.4338C42.3161 14.5549 42.3095 14.6872 42.2563 14.8035C42.2031 14.9199 42.1074 15.0114 41.9887 15.0593L35.3219 17.7197L45.019 14.9542C45.1416 14.9227 45.2716 14.9389 45.3828 14.9995C45.4939 15.0602 45.5779 15.1607 45.6178 15.2809C45.6577 15.401 45.6506 15.5318 45.5978 15.6469C45.545 15.762 45.4505 15.8528 45.3335 15.9009L40.1864 17.8522L47.8525 15.6637C47.9758 15.6321 48.1065 15.6488 48.2179 15.7103C48.3294 15.7718 48.4132 15.8734 48.4522 15.9945C48.4913 16.1157 48.4827 16.2471 48.4282 16.3621C48.3738 16.4772 48.2775 16.5671 48.159 16.6135L45.4333 17.5897L50.1661 16.2429C50.2894 16.2096 50.4209 16.2247 50.5334 16.2852C50.6459 16.3457 50.7311 16.447 50.7713 16.5682C50.8115 16.6895 50.8037 16.8216 50.7496 16.9373C50.6955 17.0531 50.5992 17.1437 50.4803 17.1906L45.3267 19.1434L52.9996 16.9524C53.1227 16.9207 53.2533 16.937 53.3648 16.9981C53.4762 17.0592 53.5603 17.1605 53.5997 17.2814C53.6392 17.4022 53.6312 17.5335 53.5772 17.6487C53.5233 17.7638 53.4276 17.854 53.3095 17.9011L49.4992 19.2933L55.514 17.582C55.6371 17.5503 55.7677 17.5666 55.8791 17.6277C55.9906 17.6888 56.0746 17.7901 56.1141 17.9109C56.1536 18.0318 56.1455 18.1631 56.0916 18.2782C56.0377 18.3933 55.942 18.4836 55.8239 18.5307L51.8069 20.0072L58.0745 18.2169C58.1979 18.1846 58.329 18.2007 58.4409 18.2618C58.5529 18.323 58.6372 18.4247 58.6766 18.546C58.7161 18.6673 58.7076 18.7991 58.6531 18.9145C58.5985 19.0298 58.5019 19.1199 58.3831 19.1663L55.1276 20.348L60.4812 18.8195C60.605 18.7875 60.7364 18.8042 60.8484 18.8661C60.9603 18.928 61.0443 19.0305 61.0829 19.1524C61.1216 19.2744 61.1121 19.4065 61.0563 19.5216C61.0005 19.6368 60.9027 19.7261 60.783 19.7713L60.4284 19.8949L62.2202 19.3838C62.3435 19.3523 62.4742 19.3689 62.5856 19.4304C62.697 19.4919 62.7808 19.5936 62.8199 19.7147C62.859 19.8358 62.8504 19.9673 62.7959 20.0823C62.7414 20.1973 62.6451 20.2872 62.5267 20.3337L60.0263 21.2333L63.2227 20.3203C63.3465 20.2874 63.4782 20.3031 63.5906 20.3644C63.7031 20.4256 63.7878 20.5277 63.8272 20.6496C63.8666 20.7714 63.8578 20.9037 63.8025 21.0193C63.7473 21.1348 63.6498 21.2247 63.5302 21.2705L61.8572 21.8752L64.1797 21.2125C64.3026 21.1805 64.4331 21.1965 64.5446 21.2572C64.6562 21.318 64.7404 21.4189 64.7803 21.5394C64.8202 21.66 64.8127 21.7913 64.7593 21.9065C64.7059 22.0217 64.6107 22.1124 64.493 22.16L62.0491 23.0768L65.2099 22.1745C65.3335 22.1393 65.466 22.153 65.5797 22.2129C65.6935 22.2727 65.7798 22.3741 65.8209 22.4959C65.8618 22.6177 65.8543 22.7507 65.7999 22.8671C65.7455 22.9836 65.6483 23.0746 65.5285 23.1213L62.9019 24.1419L66.2815 23.1768C66.4027 23.1434 66.532 23.1569 66.6437 23.2146C66.7554 23.2722 66.8413 23.3698 66.8843 23.488C66.9272 23.6061 66.9241 23.7361 66.8756 23.852C66.827 23.968 66.7365 24.0614 66.6222 24.1136L62.5676 25.9178L67.6606 24.4623C67.7798 24.4287 67.9072 24.4406 68.0182 24.4956C68.1291 24.5507 68.2157 24.6449 68.2611 24.7601C68.3066 24.8753 68.3077 25.0032 68.2642 25.1192C68.2207 25.2351 68.1358 25.3308 68.0258 25.3877L64.1787 27.3634L69.2271 25.9215C69.3474 25.8873 69.4761 25.8995 69.5879 25.9556C69.6997 26.0117 69.7863 26.1077 69.8308 26.2246C69.8754 26.3414 69.8744 26.4707 69.8283 26.587C69.7822 26.7032 69.6941 26.7979 69.5816 26.8524L67.557 27.8279L69.2591 27.3418C69.3715 27.3099 69.4914 27.3184 69.5982 27.3658C69.7049 27.4132 69.7917 27.4964 69.8435 27.6011C69.8953 27.7058 69.9088 27.8253 69.8817 27.9389C69.8546 28.0525 69.7886 28.1531 69.6951 28.2231L67.9394 29.5411L68.75 29.309C68.814 29.2878 68.8816 29.2797 68.9488 29.2852C69.016 29.2907 69.0814 29.3098 69.1411 29.3413C69.2007 29.3728 69.2534 29.416 69.2959 29.4683C69.3384 29.5207 69.3699 29.5811 69.3884 29.6459C69.407 29.7108 69.4122 29.7787 69.4039 29.8456C69.3955 29.9125 69.3737 29.977 69.3397 30.0353C69.3058 30.0935 69.2604 30.1443 69.2063 30.1846C69.1522 30.2249 69.0905 30.2538 69.0249 30.2696L65.6073 31.2426C65.495 31.2745 65.375 31.2661 65.2683 31.2189C65.1615 31.1717 65.0746 31.0886 65.0227 30.984C64.9708 30.8794 64.9571 30.76 64.984 30.6464C65.0109 30.5328 65.0767 30.4322 65.17 30.362L66.9265 29.0493L62.2092 30.3918C62.0893 30.4247 61.9615 30.4118 61.8506 30.3556C61.7398 30.2994 61.6538 30.2039 61.6095 30.0878C61.5652 29.9717 61.5658 29.8432 61.6111 29.7275C61.6563 29.6117 61.7431 29.517 61.8544 29.4617L63.8814 28.4848L59.5415 29.7238C59.4227 29.7563 59.2961 29.7439 59.1859 29.6888C59.0758 29.6337 58.9898 29.5399 58.9445 29.4254C58.8992 29.3108 58.8978 29.1836 58.9406 29.0681C58.9833 28.9526 59.0672 28.8569 59.1761 28.7994L63.029 26.8251L55.9911 28.8348C55.8699 28.8682 55.7406 28.8548 55.6289 28.7971C55.5172 28.7395 55.4313 28.6418 55.3884 28.5237C55.3454 28.4056 55.3485 28.2756 55.3971 28.1596C55.4456 28.0437 55.5361 27.9503 55.6504 27.898L59.7097 26.096L52.8578 28.0503C52.735 28.0834 52.6042 28.0684 52.492 28.0083C52.3798 27.9483 52.2948 27.8478 52.2541 27.7272C52.2135 27.6067 52.2203 27.4752 52.2732 27.3595C52.3262 27.2438 52.4212 27.1526 52.539 27.1046L55.1663 26.081L50.4133 27.4382C50.2904 27.4702 50.1599 27.4542 50.0484 27.3935C49.9368 27.3328 49.8526 27.2319 49.8127 27.1113C49.7728 26.9907 49.7803 26.8595 49.8337 26.7442C49.8871 26.629 49.9823 26.5384 50.1 26.4908L52.5364 25.5751L48.0696 26.8514C47.9459 26.8844 47.8142 26.8686 47.7017 26.8074C47.5893 26.7461 47.5046 26.6441 47.4652 26.5222C47.4257 26.4004 47.4346 26.268 47.4898 26.1525C47.5451 26.037 47.6426 25.9471 47.7622 25.9013L49.4447 25.2917L45.8924 26.3042C45.7686 26.3372 45.6369 26.3214 45.5245 26.2602C45.412 26.1989 45.3273 26.0968 45.2879 25.975C45.2484 25.8531 45.2573 25.7208 45.3125 25.6053C45.3678 25.4898 45.4653 25.3998 45.5849 25.3541L48.078 24.4547L43.6132 25.7356C43.5288 25.7608 43.4393 25.7633 43.3537 25.7428Z" fill="#FFCE48"/>
<path d="M24.5356 11.7841C24.4363 11.7593 24.347 11.7046 24.2797 11.6274C24.2125 11.5502 24.1706 11.4542 24.1597 11.3524C24.1487 11.2507 24.1693 11.148 24.2186 11.0583C24.2679 10.9686 24.3435 10.8961 24.4353 10.8508L29.1243 8.53844L23.6364 10.1054C23.519 10.1396 23.3932 10.1297 23.2827 10.0774C23.1722 10.0251 23.0846 9.93418 23.0366 9.82176C22.9886 9.70933 22.9834 9.58321 23.0221 9.46724C23.0608 9.35127 23.1406 9.25348 23.2465 9.19237L26.7693 7.1447L24.1943 7.8772C24.0885 7.90669 23.9759 7.90052 23.874 7.85965C23.772 7.81878 23.6864 7.74548 23.6303 7.65108C23.5741 7.55667 23.5506 7.44641 23.5634 7.33733C23.5762 7.22824 23.6246 7.12641 23.701 7.04755L25.0782 5.63988L25.0495 5.64715C24.9242 5.67738 24.792 5.658 24.6806 5.59307C24.5691 5.52813 24.4871 5.42265 24.4516 5.29867C24.4162 5.17469 24.4299 5.04179 24.4901 4.92773C24.5503 4.81368 24.6522 4.72729 24.7746 4.68661L26.6154 4.16097C26.7212 4.13133 26.8337 4.13734 26.9357 4.17806C27.0377 4.21878 27.1235 4.29195 27.1798 4.38627C27.236 4.48059 27.2597 4.59082 27.247 4.69992C27.2344 4.80902 27.1862 4.91093 27.1099 4.9899L25.7337 6.3978L30.3239 5.08954C30.4413 5.05532 30.5671 5.06529 30.6776 5.11756C30.7881 5.16983 30.8757 5.26077 30.9237 5.37319C30.9717 5.48562 30.9769 5.61173 30.9382 5.72771C30.8995 5.84368 30.8197 5.94146 30.7138 6.00258L27.1966 8.04855L34.1828 6.05575C34.3024 6.02245 34.4301 6.03484 34.5411 6.0905C34.6521 6.14617 34.7383 6.24112 34.7832 6.35689C34.828 6.47266 34.8281 6.60097 34.7836 6.71685C34.7391 6.83273 34.653 6.92789 34.5422 6.98382L29.8538 9.29324L37.9214 6.99184C38.0439 6.96006 38.1738 6.9759 38.2851 7.03614C38.3963 7.09639 38.4806 7.19657 38.5209 7.31649C38.5612 7.43641 38.5546 7.56715 38.5023 7.68236C38.45 7.79758 38.356 7.8887 38.2393 7.93736L37.2025 8.33959L40.0536 7.5257C40.173 7.49259 40.3005 7.50501 40.4113 7.56055C40.5221 7.6161 40.6083 7.71082 40.6532 7.82633C40.6981 7.94185 40.6985 8.06993 40.6543 8.18573C40.6102 8.30153 40.5246 8.39679 40.4141 8.45305L35.6559 10.8316L43.8824 8.48438C44.0037 8.45017 44.1334 8.46302 44.2456 8.52037C44.3579 8.57772 44.4443 8.67534 44.4876 8.79368C44.531 8.91203 44.528 9.04238 44.4794 9.15864C44.4307 9.2749 44.3399 9.36849 44.2252 9.4207L40.2938 11.1815L47.0098 9.26745C47.1298 9.23507 47.2575 9.24849 47.368 9.3051C47.4786 9.3617 47.5641 9.45744 47.608 9.57367C47.6518 9.68989 47.6509 9.81828 47.6052 9.93382C47.5596 10.0494 47.4726 10.1438 47.3612 10.1987L42.9247 12.3052L50.5059 10.1428C50.6288 10.1098 50.7596 10.1248 50.8718 10.1848C50.9839 10.2448 51.069 10.3454 51.1096 10.4659C51.1503 10.5865 51.1434 10.718 51.0905 10.8337C51.0376 10.9494 50.9425 11.0405 50.8247 11.0886L49.6992 11.5284L52.6565 10.6813C52.7795 10.6461 52.9112 10.6594 53.0247 10.7184C53.1381 10.7774 53.2247 10.8777 53.2665 10.9985C53.3083 11.1193 53.3023 11.2516 53.2495 11.3681C53.1968 11.4846 53.1015 11.5765 52.9831 11.6249L50.514 12.6344L55.1593 11.308C55.2796 11.2738 55.4083 11.286 55.5201 11.3421C55.6318 11.3982 55.7185 11.4942 55.763 11.611C55.8075 11.7279 55.8066 11.8572 55.7605 11.9735C55.7143 12.0897 55.6263 12.1844 55.5138 12.2389L51.0047 14.4087L58.7252 12.2008C58.845 12.1673 58.9729 12.1797 59.0841 12.2355C59.1952 12.2912 59.2816 12.3864 59.3263 12.5025C59.3711 12.6185 59.371 12.747 59.326 12.863C59.2811 12.979 59.1946 13.074 59.0833 13.1296L54.4321 15.4184L62.1965 13.1999C62.3178 13.1669 62.447 13.1809 62.5585 13.239C62.67 13.297 62.7555 13.3949 62.798 13.5132C62.8405 13.6315 62.837 13.7615 62.788 13.8772C62.739 13.993 62.6482 14.086 62.5337 14.1379L59.1108 15.6384L63.0233 14.5213C63.1448 14.488 63.2744 14.5018 63.3862 14.56C63.4979 14.6182 63.5836 14.7164 63.6261 14.835C63.6685 14.9536 63.6647 15.0839 63.6152 15.1998C63.5657 15.3156 63.4744 15.4086 63.3593 15.46L61.6295 16.2134L62.8513 15.8627C62.9671 15.8296 63.0909 15.8394 63.2 15.8902C63.3092 15.9411 63.3963 16.0297 63.4454 16.1396C63.4944 16.2496 63.5022 16.3735 63.4672 16.4888C63.4322 16.604 63.3568 16.7027 63.2548 16.7667L61.0756 18.1499L62.3891 17.7746C62.4922 17.7448 62.6022 17.749 62.7028 17.7865C62.8034 17.8241 62.8893 17.893 62.9476 17.9831C63.006 18.0733 63.0338 18.1798 63.0269 18.2869C63.0201 18.3941 62.9789 18.4962 62.9095 18.5781L62.177 19.4452C62.291 19.46 62.3963 19.5136 62.4754 19.597C62.5545 19.6804 62.6024 19.7885 62.6111 19.9031C62.6198 20.0177 62.5887 20.1318 62.5232 20.2262C62.4576 20.3206 62.3615 20.3895 62.2511 20.4214L60.9194 20.7993C60.8164 20.8289 60.7066 20.8246 60.6063 20.7871C60.5059 20.7496 60.4202 20.6808 60.3619 20.5909C60.3035 20.501 60.2756 20.3947 60.2823 20.2877C60.2889 20.1808 60.3298 20.0788 60.3988 19.9968L61.0815 19.1843L57.9962 20.0653C57.8807 20.0977 57.7574 20.0875 57.6488 20.0366C57.5402 19.9857 57.4536 19.8974 57.4046 19.7879C57.3557 19.6784 57.3477 19.555 57.3822 19.4401C57.4167 19.3252 57.4913 19.2266 57.5924 19.1621L59.7738 17.7827L54.6781 19.2365C54.5566 19.2698 54.427 19.256 54.3152 19.1978C54.2035 19.1396 54.1178 19.0414 54.0753 18.9228C54.0328 18.8042 54.0367 18.6739 54.0862 18.558C54.1356 18.4421 54.227 18.3492 54.342 18.2978L56.0687 17.5446L52.2622 18.6337C52.1405 18.6678 52.0105 18.6545 51.8982 18.5967C51.7859 18.5388 51.6997 18.4406 51.6569 18.3218C51.614 18.203 51.6178 18.0723 51.6673 17.9561C51.7168 17.8399 51.8085 17.7468 51.9239 17.6954L55.3467 16.2L49.3513 17.912C49.2315 17.9455 49.1036 17.9332 48.9924 17.8774C48.8813 17.8216 48.7949 17.7264 48.7501 17.6104C48.7054 17.4943 48.7055 17.3658 48.7504 17.2498C48.7954 17.1339 48.8819 17.0388 48.9932 16.9832L53.6456 14.6937L45.6297 16.9781C45.5097 17.0113 45.3816 16.9984 45.2705 16.9421C45.1595 16.8858 45.0734 16.7901 45.0292 16.6737C44.985 16.5573 44.9858 16.4286 45.0315 16.3128C45.0772 16.1969 45.1644 16.1023 45.2762 16.0474L49.7852 13.8776L42.0553 16.0862C41.9323 16.1214 41.8006 16.1081 41.6871 16.0491C41.5737 15.9901 41.4871 15.8899 41.4453 15.7691C41.4035 15.6482 41.4095 15.5159 41.4622 15.3994C41.515 15.2829 41.6103 15.191 41.7287 15.1427L44.2014 14.131L39.553 15.4618C39.4288 15.4991 39.2949 15.4867 39.1797 15.4272C39.0644 15.3677 38.9768 15.2657 38.9353 15.1428C38.8939 15.0199 38.9018 14.8857 38.9574 14.7685C39.013 14.6513 39.112 14.5604 39.2334 14.5148L40.3558 14.0794L37.398 14.9243C37.2778 14.9576 37.1495 14.9448 37.0382 14.8884C36.927 14.832 36.8408 14.736 36.7967 14.6193C36.7526 14.5027 36.7536 14.3737 36.7997 14.2578C36.8458 14.1419 36.9335 14.0473 37.0457 13.9928L41.4808 11.8839L33.8973 14.0508C33.7764 14.0839 33.6474 14.0703 33.5359 14.0128C33.4245 13.9552 33.3388 13.8579 33.2957 13.7401C33.2527 13.6223 33.2555 13.4926 33.3036 13.3768C33.3518 13.2609 33.4416 13.1674 33.5555 13.1148L37.4859 11.3496L30.7655 13.2687C30.6457 13.303 30.5173 13.2912 30.4057 13.2358C30.294 13.1803 30.2071 13.0851 30.162 12.9689C30.1169 12.8527 30.1168 12.7238 30.1618 12.6075C30.2068 12.4913 30.2936 12.396 30.4052 12.3404L35.1639 9.95996L26.9311 12.3117C26.808 12.3454 26.6767 12.3306 26.564 12.2705C26.4514 12.2104 26.3661 12.1095 26.3254 11.9885C26.2848 11.8674 26.292 11.7355 26.3456 11.6196C26.3992 11.5037 26.495 11.4127 26.6135 11.3653L27.6524 10.9625L24.7946 11.7788C24.7103 11.8036 24.6208 11.8054 24.5356 11.7841Z" fill="#FFCE48"/>
<path d="M13.9241 13.2197C13.8174 13.1929 13.7224 13.1317 13.654 13.0455C13.5855 12.9593 13.5475 12.8529 13.5456 12.7429C13.5438 12.6328 13.5784 12.5253 13.6439 12.4369C13.7095 12.3484 13.8024 12.2841 13.9082 12.2539L23.4081 9.54313C23.528 9.51075 23.6557 9.52417 23.7663 9.58077C23.8769 9.63738 23.9624 9.73312 24.0063 9.84934C24.0501 9.96557 24.0491 10.094 24.0035 10.2095C23.9579 10.325 23.8709 10.4195 23.7595 10.4744L22.1943 11.2164L25.8885 10.1642C26.007 10.1271 26.135 10.1353 26.2477 10.1874C26.3604 10.2394 26.4498 10.3315 26.4983 10.4458C26.5469 10.56 26.5512 10.6883 26.5104 10.8055C26.4696 10.9228 26.3867 11.0207 26.2777 11.0802L23.6714 12.5594L29.1809 10.9886C29.2964 10.9562 29.4197 10.9663 29.5283 11.0172C29.6368 11.0682 29.7235 11.1564 29.7725 11.2659C29.8214 11.3754 29.8294 11.4988 29.7949 11.6137C29.7604 11.7286 29.6858 11.8272 29.5846 11.8917L26.0258 14.1365C26.0901 14.197 26.1373 14.2734 26.1625 14.358C26.1876 14.4426 26.19 14.5324 26.1692 14.6182C26.1485 14.704 26.1054 14.7828 26.0443 14.8466C25.9832 14.9103 25.9064 14.9568 25.8215 14.9812L23.6805 15.5904C23.565 15.6228 23.4417 15.6126 23.3331 15.5617C23.2245 15.5108 23.1378 15.4225 23.0889 15.313C23.04 15.2035 23.032 15.0801 23.0665 14.9652C23.101 14.8504 23.1756 14.7517 23.2767 14.6873L26.1036 12.9035L19.9574 14.6582C19.8401 14.691 19.7148 14.6798 19.6052 14.6268C19.4955 14.5739 19.4089 14.4826 19.3617 14.3703C19.3145 14.258 19.31 14.1324 19.3489 14.0169C19.3878 13.9015 19.4675 13.8042 19.5731 13.7434L22.175 12.261L16.665 13.8338C16.5448 13.8672 16.4165 13.8544 16.3052 13.798C16.194 13.7415 16.1078 13.6456 16.0637 13.5289C16.0196 13.4122 16.0206 13.2833 16.0667 13.1673C16.1128 13.0514 16.2005 12.9569 16.3127 12.9023L17.8788 12.1605L14.1836 13.2125C14.0993 13.2377 14.0097 13.2402 13.9241 13.2197Z" fill="#FFCE48"/>
<path d="M23.8959 20.9017C23.792 20.8755 23.6993 20.8167 23.6315 20.7339C23.5636 20.6511 23.5241 20.5487 23.5188 20.4417C23.5135 20.3348 23.5426 20.2289 23.602 20.1398C23.6613 20.0507 23.7477 19.983 23.8484 19.9466L24.7845 19.6089L23.2035 20.0604C23.0798 20.0944 22.9478 20.0796 22.8347 20.0191C22.7216 19.9585 22.6361 19.8568 22.5959 19.735C22.5557 19.6132 22.5639 19.4806 22.6187 19.3646C22.6735 19.2487 22.7708 19.1582 22.8905 19.1119L26.9004 17.6017L23.5785 18.5502C23.4564 18.5839 23.326 18.5699 23.2138 18.5111C23.1016 18.4524 23.0159 18.3532 22.9739 18.2337C22.932 18.1142 22.937 17.9832 22.9879 17.8672C23.0389 17.7512 23.1319 17.6589 23.2483 17.6088L27.5981 15.7744L24.0089 16.7983C23.8906 16.8324 23.7638 16.8217 23.6529 16.7681C23.542 16.7146 23.4547 16.622 23.4079 16.508C23.3611 16.3941 23.3579 16.2669 23.3991 16.1509C23.4402 16.0348 23.5228 15.938 23.6309 15.879L29.3534 12.7286L29.3472 12.7002C29.3107 12.5727 29.3264 12.4359 29.3909 12.32C29.4553 12.2041 29.5631 12.1185 29.6906 12.0821L31.4974 11.5686C31.616 11.5335 31.7433 11.5437 31.8549 11.5971C31.9664 11.6504 32.0542 11.7433 32.1013 11.8576C32.1484 11.9719 32.1515 12.0996 32.11 12.2161C32.0684 12.3325 31.9852 12.4295 31.8764 12.4882L27.9895 14.623L35.334 12.5292C35.4565 12.4942 35.5877 12.5073 35.7009 12.5659C35.8141 12.6244 35.9006 12.7239 35.9429 12.8441C35.9852 12.9643 35.98 13.0961 35.9284 13.2126C35.8767 13.329 35.7826 13.4214 35.6652 13.4708L31.3134 15.3006L38.3625 13.2875C38.4854 13.2555 38.6159 13.2715 38.7274 13.3322C38.839 13.393 38.9232 13.4938 38.9631 13.6144C39.0029 13.735 38.9954 13.8662 38.9421 13.9815C38.8887 14.0967 38.7935 14.1874 38.6757 14.2349L34.6646 15.7459L38.7066 14.5932C38.8314 14.5573 38.9652 14.5714 39.0798 14.6324C39.1943 14.6934 39.2807 14.7965 39.3206 14.92C39.3605 15.0436 39.3508 15.1777 39.2935 15.2942C39.2363 15.4107 39.136 15.5004 39.0138 15.5443L37.3797 16.134C37.4657 16.1499 37.5461 16.1878 37.6131 16.2439C37.6802 16.3001 37.7315 16.3727 37.7623 16.4545C37.8059 16.5727 37.8034 16.703 37.7551 16.8193C37.7069 16.9357 37.6165 17.0295 37.502 17.0821L33.5786 18.8604L35.4383 18.3292C35.5538 18.2961 35.6773 18.3057 35.7863 18.3562C35.8953 18.4067 35.9824 18.4947 36.0318 18.6041C36.0813 18.7136 36.0896 18.8372 36.0554 18.9523C36.0212 19.0675 35.9467 19.1664 35.8455 19.2311L33.6745 20.6184L34.9669 20.2492C35.0803 20.2168 35.2015 20.2255 35.3091 20.2739C35.4167 20.3222 35.5038 20.407 35.5549 20.5133C35.606 20.6197 35.6179 20.7406 35.5884 20.8548C35.559 20.9691 35.4901 21.0692 35.3939 21.1375L34.9975 21.4197C35.0958 21.4567 35.1799 21.5237 35.238 21.6113C35.2961 21.6988 35.3251 21.8024 35.3209 21.9074C35.3168 22.0123 35.2797 22.1133 35.2149 22.196C35.1501 22.2787 35.061 22.3389 34.96 22.368L32.7049 23.0126C32.5915 23.045 32.4703 23.0363 32.3627 22.9879C32.2551 22.9396 32.168 22.8548 32.1169 22.7484C32.0658 22.6421 32.0539 22.5212 32.0834 22.4069C32.1129 22.2927 32.1818 22.1926 32.2779 22.1242L32.4371 22.0115L30.6851 22.512C30.5699 22.5444 30.4469 22.5345 30.3384 22.484C30.23 22.4334 30.1432 22.3457 30.0939 22.2367C30.0446 22.1277 30.0361 22.0046 30.0698 21.8898C30.1035 21.775 30.1773 21.6761 30.2777 21.611L32.4457 20.219L27.3284 21.6808C27.2073 21.7147 27.0779 21.7017 26.966 21.6445C26.854 21.5872 26.7678 21.4899 26.7244 21.3719C26.681 21.2539 26.6836 21.1238 26.7318 21.0077C26.78 20.8916 26.8702 20.7978 26.9844 20.7452L30.9136 18.9642L24.1515 20.8936C24.0685 20.9187 23.9803 20.9215 23.8959 20.9017Z" fill="#ECD9A4"/>
<path d="M46.9938 26.6852C46.8909 26.6594 46.7988 26.6015 46.731 26.52C46.6631 26.4384 46.6229 26.3374 46.6163 26.2315C46.6096 26.1256 46.6368 26.0204 46.6939 25.931C46.751 25.8415 46.8351 25.7726 46.934 25.7342L47.3291 25.5805L46.5044 25.8152C46.3838 25.8486 46.255 25.8354 46.1435 25.7784C46.0321 25.7213 45.9461 25.6245 45.9026 25.5072C45.8591 25.3898 45.8611 25.2603 45.9084 25.1444C45.9557 25.0285 46.0447 24.9346 46.158 24.8811L50.4525 22.8968L46.9878 23.8848C46.8678 23.918 46.7397 23.9051 46.6286 23.8488C46.5176 23.7925 46.4315 23.6968 46.3873 23.5804C46.3431 23.464 46.3439 23.3353 46.3896 23.2195C46.4353 23.1036 46.5225 23.009 46.6343 22.9541L50.0076 21.3308L47.443 22.0628C47.3218 22.095 47.1929 22.0805 47.0819 22.0221C46.971 21.9637 46.886 21.8658 46.8438 21.7477C46.8016 21.6296 46.8054 21.5 46.8543 21.3845C46.9032 21.2691 46.9937 21.1762 47.1079 21.1243L47.6008 20.9096L47.3784 20.9746C47.2594 21.0086 47.132 20.9972 47.0209 20.9428C46.9098 20.8883 46.8228 20.7945 46.7768 20.6797C46.7308 20.5648 46.729 20.4369 46.7719 20.3208C46.8147 20.2047 46.899 20.1086 47.0086 20.0511L48.5737 19.2307L46.9862 19.6836C46.8749 19.7153 46.7561 19.7074 46.65 19.6613C46.5439 19.6152 46.4571 19.5338 46.4043 19.4308C46.3515 19.3279 46.3361 19.2098 46.3606 19.0968C46.3851 18.9837 46.4481 18.8827 46.5388 18.8108L47.7758 17.8351L46.5324 18.1897C46.4613 18.2106 46.3863 18.2152 46.3131 18.2031C46.2399 18.1911 46.1704 18.1626 46.1097 18.1199C46.0484 18.0781 45.9971 18.0231 45.9597 17.959C45.9223 17.8949 45.8996 17.8232 45.8933 17.7493L45.7774 16.3141C45.661 16.3044 45.5518 16.2542 45.4686 16.1723C45.3854 16.0905 45.3334 15.9821 45.3217 15.8659C45.3101 15.7498 45.3394 15.6332 45.4046 15.5364C45.4699 15.4396 45.567 15.3687 45.679 15.336L46.086 15.2214C46.1571 15.2011 46.2317 15.1969 46.3046 15.2089C46.3774 15.221 46.4467 15.249 46.5075 15.291C46.5682 15.3331 46.6189 15.388 46.6559 15.452C46.6929 15.5159 46.7152 15.5872 46.7213 15.6608L46.8401 17.0596L49.9333 16.1764C50.0444 16.1453 50.1629 16.1535 50.2686 16.1998C50.3743 16.246 50.4608 16.3274 50.5133 16.4301C50.5659 16.5329 50.5813 16.6506 50.557 16.7634C50.5326 16.8762 50.47 16.9771 50.3797 17.049L49.1427 18.0247L52.9657 16.9357C53.0843 16.9027 53.2108 16.9146 53.3212 16.9692C53.4315 17.0237 53.5179 17.117 53.5637 17.2313C53.6095 17.3455 53.6116 17.4726 53.5695 17.5883C53.5275 17.704 53.4442 17.8001 53.3357 17.8582L51.7703 18.6796L54.6946 17.8449C54.8161 17.8116 54.9457 17.8254 55.0575 17.8836C55.1693 17.9418 55.2549 18.04 55.2974 18.1586C55.3399 18.2772 55.336 18.4075 55.2865 18.5234C55.2371 18.6393 55.1457 18.7322 55.0307 18.7836L54.5392 18.9966L55.3663 18.7604C55.4868 18.7261 55.6159 18.7382 55.7279 18.7944C55.8398 18.8506 55.9266 18.9468 55.9711 19.064C56.0155 19.1811 56.0143 19.3107 55.9677 19.4271C55.9212 19.5434 55.8326 19.638 55.7196 19.6921L52.3439 21.321L56.3888 20.169C56.5098 20.1346 56.6393 20.147 56.7516 20.2039C56.8638 20.2607 56.9504 20.3577 56.9943 20.4756C57.0381 20.5935 57.0359 20.7236 56.9881 20.84C56.9403 20.9563 56.8504 21.0503 56.7363 21.1033L52.4432 23.086L57.4727 21.6496C57.5955 21.6165 57.7264 21.6315 57.8385 21.6916C57.9507 21.7516 58.0358 21.8521 58.0764 21.9727C58.117 22.0932 58.1102 22.2247 58.0573 22.3404C58.0043 22.4561 57.9093 22.5473 57.7915 22.5953L57.402 22.7473L58.1258 22.5409C58.2441 22.5067 58.3709 22.5175 58.4818 22.5711C58.5927 22.6246 58.6799 22.7172 58.7268 22.8311C58.7736 22.9451 58.7767 23.0722 58.7356 23.1883C58.6944 23.3044 58.6119 23.4012 58.5038 23.4602L54.9351 25.4232L58.6703 24.3514C58.7878 24.3204 58.9124 24.3333 59.0211 24.3875C59.1298 24.4418 59.215 24.5337 59.2608 24.6462C59.3066 24.7587 59.3099 24.884 59.2701 24.9987C59.2303 25.1135 59.1501 25.2098 59.0445 25.2697L57.7345 25.9726L58.3196 25.8098C58.4317 25.7776 58.5517 25.7857 58.6585 25.8326C58.7654 25.8795 58.8525 25.9623 58.9047 26.0667C58.957 26.1713 58.9709 26.2909 58.9441 26.4047C58.9173 26.5185 58.8514 26.6194 58.758 26.6897L58.1379 27.1529C58.2572 27.1564 58.3712 27.2023 58.4596 27.2825C58.5479 27.3627 58.6046 27.4718 58.6196 27.5902C58.6345 27.7086 58.6066 27.8284 58.5409 27.928C58.4753 28.0275 58.3762 28.1004 58.2615 28.1333L55.8732 28.8157C55.761 28.8477 55.6411 28.8394 55.5344 28.7923C55.4276 28.7452 55.3407 28.6623 55.2886 28.5578C55.2366 28.4534 55.2227 28.334 55.2494 28.2204C55.2761 28.1068 55.3417 28.0062 55.4348 27.9358L56.0042 27.5063L53.4903 28.2252C53.3728 28.2561 53.2482 28.2433 53.1395 28.189C53.0309 28.1348 52.9457 28.0428 52.8998 27.9303C52.854 27.8179 52.8507 27.6926 52.8905 27.5778C52.9303 27.4631 53.0105 27.3668 53.1161 27.3068L54.4261 26.6039L50.9463 27.5985C50.828 27.6327 50.7012 27.6219 50.5903 27.5684C50.4794 27.5148 50.3922 27.4222 50.3453 27.3083C50.2985 27.1943 50.2953 27.0672 50.3365 26.9511C50.3776 26.835 50.4602 26.7382 50.5683 26.6792L54.1367 24.7172L47.2531 26.6831C47.1684 26.707 47.0789 26.7077 46.9938 26.6852Z" fill="#ECD9A4"/>
<path d="M61.1595 25.0529C61.0673 25.0301 60.9836 24.9815 60.9181 24.9129C60.8526 24.8442 60.8079 24.7584 60.7894 24.6653C60.7709 24.5722 60.7792 24.4758 60.8134 24.3873C60.8477 24.2988 60.9064 24.2218 60.9827 24.1654L62.1763 23.2809L58.9777 24.1943C58.8643 24.2267 58.743 24.218 58.6354 24.1696C58.5278 24.1213 58.4408 24.0365 58.3897 23.9302C58.3385 23.8239 58.3267 23.7029 58.3561 23.5887C58.3856 23.4744 58.4545 23.3743 58.5507 23.306L60.5038 21.924L57.8694 22.6756C57.7595 22.7066 57.6424 22.6991 57.5375 22.6543C57.4325 22.6095 57.346 22.5301 57.2924 22.4294C57.2387 22.3287 57.2212 22.2127 57.2426 22.1006C57.264 21.9885 57.3231 21.8871 57.4101 21.8132L58.9341 20.5269L56.7545 21.1502C56.6701 21.1743 56.5808 21.1757 56.4957 21.1544C56.4106 21.1331 56.3325 21.0897 56.2695 21.0287C56.2064 20.9669 56.1609 20.8894 56.1375 20.8042C56.1141 20.7191 56.1136 20.6292 56.1362 20.5438L56.4942 19.1676L55.5126 19.4486C55.3909 19.4835 55.2604 19.4709 55.1475 19.4134C55.0347 19.3559 54.9479 19.2577 54.9047 19.1386L54.6699 18.4871C54.5594 18.4884 54.4515 18.4537 54.3626 18.388C54.2737 18.3224 54.2087 18.2296 54.1774 18.1236C54.1413 17.9962 54.1571 17.8598 54.2215 17.7441C54.2858 17.6284 54.3934 17.5429 54.5206 17.5065L54.8532 17.4134C54.9746 17.379 55.1045 17.3918 55.2169 17.4492C55.3293 17.5066 55.4158 17.6044 55.4591 17.7229L55.6883 18.3596L57.0651 17.9663C57.1499 17.942 57.2396 17.9407 57.3251 17.9623C57.4106 17.9839 57.4889 18.0278 57.552 18.0894C57.615 18.1511 57.6607 18.2283 57.6843 18.3133C57.7079 18.3983 57.7086 18.488 57.6863 18.5733L57.3256 19.9479L60.9041 18.9254C61.0139 18.8944 61.131 18.9017 61.236 18.9464C61.341 18.991 61.4275 19.0702 61.4813 19.1708C61.5351 19.2715 61.5528 19.3874 61.5316 19.4995C61.5104 19.6116 61.4514 19.7131 61.3646 19.7871L59.8374 21.0737L63.046 20.1576C63.1592 20.1257 63.2799 20.1347 63.3871 20.1831C63.4943 20.2314 63.581 20.316 63.632 20.4219C63.683 20.5279 63.6951 20.6484 63.666 20.7623C63.637 20.8763 63.5687 20.9763 63.4733 21.0449L61.5196 22.4288L64.5482 21.5646C64.6608 21.5322 64.7812 21.5405 64.8884 21.5878C64.9955 21.6352 65.0827 21.7187 65.1345 21.8237C65.1864 21.9288 65.1998 22.0487 65.1723 22.1626C65.1447 22.2765 65.0781 22.3771 64.984 22.4468L63.7897 23.3302L65.8179 22.7515C65.9296 22.7197 66.0489 22.7277 66.1554 22.7742C66.2618 22.8207 66.3487 22.9029 66.4012 23.0065C66.4536 23.1101 66.4684 23.2288 66.4429 23.3421C66.4174 23.4554 66.3533 23.5563 66.2615 23.6275L65.8636 23.9402L66.7962 23.6738C66.888 23.6475 66.9854 23.6481 67.0769 23.6754C67.1684 23.7027 67.2501 23.7557 67.3125 23.828C67.3748 23.9003 67.4152 23.9889 67.4287 24.0835C67.4423 24.178 67.4285 24.2744 67.389 24.3613L67.09 25.0163L67.9658 24.7666C68.0311 24.7478 68.0994 24.7425 68.1668 24.7511C68.2341 24.7596 68.299 24.7818 68.3575 24.8162C68.4153 24.8511 68.4655 24.8975 68.5049 24.9523C68.5443 25.0072 68.5722 25.0695 68.5868 25.1354L68.7166 25.7081L68.9107 25.6536C69.036 25.6234 69.1682 25.6428 69.2797 25.7077C69.3911 25.7726 69.4731 25.8781 69.5086 26.0021C69.5441 26.1261 69.5303 26.259 69.4701 26.373C69.4099 26.4871 69.308 26.5735 69.1856 26.6142L68.4829 26.8145C68.4172 26.8337 68.3483 26.8393 68.2804 26.8309C68.2125 26.8224 68.1471 26.8001 68.0881 26.7654C68.0292 26.7306 67.978 26.6841 67.9378 26.6288C67.8975 26.5734 67.8691 26.5104 67.8541 26.4436L67.7253 25.8712L66.3153 26.2738C66.2236 26.2998 66.1264 26.299 66.0351 26.2716C65.9438 26.2442 65.8623 26.1912 65.8001 26.119C65.7379 26.0467 65.6977 25.9582 65.6841 25.8639C65.6705 25.7696 65.6842 25.6733 65.7235 25.5865L66.0231 24.9296L63.6474 25.6068C63.536 25.6382 63.417 25.63 63.311 25.5834C63.2049 25.5369 63.1183 25.455 63.0659 25.3517C63.0136 25.2484 62.9987 25.1302 63.0238 25.0171C63.0489 24.9041 63.1125 24.8032 63.2037 24.7318L63.5991 24.4247L61.4185 25.0477C61.3342 25.0725 61.2447 25.0743 61.1595 25.0529Z" fill="#FFCE48"/>
<path d="M24.813 15.9461C24.7143 15.9213 24.6255 15.867 24.5585 15.7903C24.4915 15.7137 24.4494 15.6185 24.438 15.5173C24.4266 15.4162 24.4463 15.314 24.4945 15.2243C24.5427 15.1347 24.6171 15.0619 24.7078 15.0157L29.3372 12.6575C29.3132 12.5351 29.3359 12.4081 29.4007 12.3015C29.4655 12.1949 29.5679 12.1164 29.6877 12.0814L31.4974 11.5686C31.6164 11.5359 31.7432 11.5484 31.8535 11.6036C31.9638 11.6588 32.0498 11.7528 32.095 11.8676C32.1402 11.9824 32.1413 12.1098 32.0983 12.2254C32.0552 12.341 31.9709 12.4365 31.8616 12.4937L29.7635 13.5611L34.296 12.2693C34.4137 12.2376 34.5388 12.25 34.648 12.3041C34.7572 12.3582 34.8429 12.4503 34.889 12.5631C34.935 12.6759 34.9383 12.8016 34.8982 12.9167C34.8581 13.0318 34.7773 13.1282 34.6711 13.1879L32.253 14.4999L37.3691 13.0388C37.4847 13.0057 37.6083 13.0153 37.7173 13.0659C37.8264 13.1166 37.9135 13.2048 37.9628 13.3144C38.0121 13.424 38.0203 13.5477 37.9858 13.6629C37.9513 13.778 37.8765 13.8769 37.7751 13.9414L34.9438 15.7303L38.6176 14.6812C38.7278 14.6501 38.8453 14.6577 38.9505 14.7028C39.0557 14.7478 39.1423 14.8277 39.1957 14.9289C39.2492 15.0301 39.2663 15.1466 39.2442 15.259C39.2221 15.3713 39.1621 15.4726 39.0742 15.546L36.5843 17.6101C36.5921 17.6283 36.5984 17.6471 36.6032 17.6663C36.6398 17.7937 36.6242 17.9304 36.56 18.0464C36.4958 18.1623 36.3882 18.248 36.2608 18.2847L35.4138 18.5262C35.3036 18.5573 35.1861 18.5497 35.0809 18.5046C34.9757 18.4595 34.8891 18.3797 34.8356 18.2785C34.7822 18.1772 34.7651 18.0607 34.7872 17.9484C34.8093 17.8361 34.8693 17.7348 34.9571 17.6614L36.6032 16.2953L31.8842 17.6445C31.7689 17.6769 31.6457 17.6668 31.5371 17.616C31.4286 17.5652 31.3419 17.4772 31.2928 17.3678C31.2438 17.2585 31.2356 17.1352 31.2698 17.0203C31.304 16.9055 31.3784 16.8067 31.4793 16.7421L34.3106 14.9532L28.1456 16.7084C28.0278 16.7409 27.9021 16.729 27.7923 16.6751C27.6826 16.6212 27.5964 16.5289 27.5501 16.4157C27.5038 16.3026 27.5005 16.1764 27.541 16.061C27.5814 15.9456 27.6627 15.849 27.7696 15.7895L30.1898 14.4812L25.0725 15.9389C24.9882 15.9645 24.8986 15.9669 24.813 15.9461Z" fill="#ECD9A4"/>
<path d="M47.8583 21.7297C47.7585 21.7047 47.6689 21.6496 47.6016 21.5718C47.5343 21.494 47.4926 21.3973 47.4823 21.2949C47.472 21.1926 47.4934 21.0895 47.5438 20.9998C47.5942 20.9101 47.671 20.8382 47.7638 20.7937L49.0449 20.1816L47.2885 20.683C47.1726 20.7154 47.0489 20.7049 46.9401 20.6535C46.8313 20.602 46.7447 20.5131 46.6962 20.4029C46.6477 20.2928 46.6406 20.1688 46.6761 20.0539C46.7116 19.9389 46.7874 19.8406 46.8896 19.777L48.7318 18.6445L46.8333 19.1866C46.73 19.2167 46.6198 19.2126 46.519 19.175C46.4182 19.1374 46.3322 19.0683 46.2738 18.978C46.2154 18.8877 46.1876 18.7809 46.1947 18.6736C46.2018 18.5662 46.2433 18.464 46.3131 18.3822L47.2691 17.2525L46.3265 17.5217C46.251 17.5443 46.1712 17.5483 46.0938 17.5334C46.0164 17.5185 45.9437 17.4852 45.882 17.4361C45.82 17.3877 45.7702 17.3254 45.7368 17.2541C45.7034 17.1829 45.6873 17.1048 45.6898 17.0262L45.7104 16.3097C45.624 16.2862 45.5446 16.2419 45.4792 16.1806C45.4139 16.1193 45.3646 16.0429 45.3356 15.9582C45.2995 15.8308 45.3153 15.6943 45.3796 15.5787C45.444 15.463 45.5515 15.3775 45.6788 15.341L46.086 15.2214C46.1616 15.1992 46.2413 15.1953 46.3187 15.2102C46.396 15.2251 46.4686 15.2582 46.5306 15.3069C46.5926 15.3553 46.6423 15.4176 46.6757 15.4889C46.7091 15.5601 46.7252 15.6382 46.7227 15.7169L46.7036 16.3739L48.5699 15.8412C48.673 15.8114 48.783 15.8156 48.8836 15.8531C48.9842 15.8907 49.07 15.9596 49.1284 16.0497C49.1868 16.1398 49.2146 16.2464 49.2077 16.3535C49.2009 16.4607 49.1597 16.5628 49.0903 16.6447L48.134 17.7753L51.9519 16.686C52.0679 16.6536 52.1916 16.664 52.3004 16.7155C52.4092 16.7669 52.4958 16.8559 52.5442 16.966C52.5927 17.0762 52.5999 17.2001 52.5643 17.3151C52.5288 17.4301 52.453 17.5284 52.3508 17.592L50.5127 18.7203L54.5007 17.5819C54.6209 17.5485 54.7492 17.5613 54.8605 17.6177C54.9717 17.6741 55.0579 17.7701 55.102 17.8868C55.1461 18.0035 55.1451 18.1324 55.099 18.2483C55.0529 18.3643 54.9652 18.4588 54.853 18.5133L53.571 19.1253L55.2737 18.6403C55.389 18.6079 55.5121 18.6179 55.6206 18.6686C55.7291 18.7192 55.8158 18.8071 55.865 18.9163C55.9142 19.0255 55.9225 19.1487 55.8886 19.2635C55.8546 19.3783 55.7806 19.4771 55.6799 19.542L54.0943 20.5511L56.225 19.9424C56.329 19.9112 56.4404 19.9147 56.5422 19.9524C56.6441 19.9901 56.7309 20.0599 56.7895 20.1514C56.8482 20.2428 56.8754 20.3508 56.8672 20.4591C56.859 20.5674 56.8157 20.6701 56.7439 20.7517L55.7666 21.8718L57.3132 21.4344C57.4078 21.4072 57.5082 21.4086 57.602 21.4383C57.6958 21.4681 57.7788 21.5248 57.8405 21.6014C57.9022 21.6781 57.9399 21.7712 57.9489 21.8692C57.9579 21.9672 57.9378 22.0656 57.8911 22.1522L57.6489 22.6008L58.0761 22.48C58.14 22.4587 58.2077 22.4506 58.2749 22.4561C58.3421 22.4617 58.4075 22.4808 58.4671 22.5122C58.5268 22.5437 58.5794 22.5869 58.6219 22.6393C58.6644 22.6916 58.6959 22.752 58.7145 22.8169C58.733 22.8817 58.7383 22.9496 58.7299 23.0165C58.7215 23.0834 58.6997 23.148 58.6658 23.2062C58.6318 23.2645 58.5864 23.3153 58.5323 23.3555C58.4782 23.3958 58.4165 23.4247 58.351 23.4405L56.7833 23.8881C56.6889 23.9149 56.5888 23.9132 56.4953 23.8834C56.4019 23.8537 56.3192 23.7971 56.2577 23.7207C56.1962 23.6443 56.1585 23.5515 56.1493 23.4538C56.1401 23.3562 56.1599 23.258 56.2061 23.1715L56.4485 22.7219L54.4224 23.3001C54.3184 23.3313 54.207 23.3278 54.1052 23.2901C54.0033 23.2524 53.9165 23.1825 53.8579 23.0911C53.7992 22.9997 53.772 22.8916 53.7802 22.7833C53.7884 22.675 53.8317 22.5723 53.9035 22.4908L54.8769 21.3697L51.0571 22.4585C50.9418 22.4909 50.8187 22.4809 50.7102 22.4303C50.6017 22.3796 50.515 22.2917 50.4658 22.1825C50.4166 22.0734 50.4083 21.9502 50.4422 21.8353C50.4762 21.7205 50.5503 21.6217 50.6509 21.5568L52.2389 20.5463L48.1132 21.7245C48.0302 21.7486 47.9422 21.7505 47.8583 21.7297Z" fill="#ECD9A4"/>
<path d="M38.5625 19.3888C38.4597 19.3648 38.367 19.3088 38.2979 19.2289C38.2288 19.149 38.1868 19.0493 38.1779 18.944C38.169 18.8387 38.1937 18.7334 38.2484 18.643C38.3031 18.5526 38.385 18.4819 38.4824 18.4409L38.9469 18.2325L36.7539 18.8638C36.6341 18.8973 36.5062 18.8849 36.395 18.8291C36.2839 18.7733 36.1975 18.6782 36.1528 18.5621C36.108 18.4461 36.1081 18.3175 36.1531 18.2016C36.198 18.0856 36.2845 17.9906 36.3958 17.935L38.253 17.0227L37.3271 17.2868C37.2163 17.3184 37.098 17.3108 36.9922 17.2653C36.8864 17.2198 36.7995 17.1391 36.7463 17.0369C36.6931 16.9348 36.6768 16.8173 36.7002 16.7045C36.7236 16.5917 36.7852 16.4905 36.8746 16.4178L39.0561 14.6549L39.0421 14.6122C39.0056 14.4847 39.0214 14.348 39.0858 14.2321C39.1502 14.1161 39.258 14.0306 39.3855 13.9941L40.2366 13.7567C40.3473 13.7256 40.4652 13.7336 40.5707 13.7792C40.6761 13.8249 40.7626 13.9055 40.8157 14.0075C40.8687 14.1094 40.8849 14.2266 40.8617 14.3391C40.8385 14.4517 40.7772 14.5528 40.6882 14.6254L39.4133 15.6536L43.3583 14.526C43.4783 14.4915 43.6069 14.5032 43.7188 14.5588C43.8306 14.6144 43.9176 14.7098 43.9627 14.8263C44.0077 14.9428 44.0075 15.0719 43.9621 15.1883C43.9167 15.3047 43.8294 15.3998 43.7174 15.455L41.8592 16.367L45.6029 15.2983C45.7243 15.2646 45.854 15.2779 45.966 15.3357C46.0779 15.3935 46.164 15.4914 46.2069 15.6098C46.2498 15.7283 46.2464 15.8586 46.1973 15.9747C46.1483 16.0908 46.0572 16.184 45.9423 16.2358L45.4701 16.4464L45.9142 16.3195C46.0277 16.2871 46.149 16.296 46.2566 16.3445C46.3642 16.3929 46.4512 16.4779 46.5022 16.5844C46.5532 16.6908 46.5649 16.8119 46.5352 16.9261C46.5055 17.0403 46.4364 17.1404 46.34 17.2085L44.6166 18.4264L46.3994 17.9182C46.5055 17.8882 46.6186 17.8941 46.7211 17.935C46.8235 17.9759 46.9095 18.0495 46.9657 18.1444C47.022 18.2393 47.0452 18.3501 47.0319 18.4596C47.0186 18.5691 46.9695 18.6712 46.8922 18.7498L46.273 19.3741L46.7967 19.2259C46.8733 19.2037 46.9542 19.2003 47.0324 19.2157C47.1107 19.2312 47.1841 19.2652 47.2466 19.3148C47.3088 19.3645 47.3582 19.4284 47.3908 19.5011C47.4233 19.5738 47.438 19.6532 47.4336 19.7328L47.3992 20.352C47.506 20.3787 47.6009 20.4399 47.6694 20.5261C47.7378 20.6123 47.7759 20.7187 47.7777 20.8287C47.7795 20.9388 47.7449 21.0464 47.6794 21.1348C47.6138 21.2232 47.5209 21.2875 47.4151 21.3177L47.0054 21.4306C46.9287 21.4525 46.8479 21.4557 46.7697 21.44C46.6916 21.4243 46.6183 21.3902 46.556 21.3404C46.4937 21.2906 46.4442 21.2266 46.4117 21.1538C46.3791 21.0809 46.3645 21.0014 46.369 20.9218L46.4026 20.3756L44.7163 20.8564C44.6102 20.8865 44.4971 20.8806 44.3947 20.8397C44.2923 20.7987 44.2062 20.7251 44.15 20.6302C44.0938 20.5353 44.0705 20.4245 44.0838 20.315C44.0971 20.2055 44.1463 20.1035 44.2236 20.0248L44.8428 19.4005L42.0582 20.1919C41.9449 20.2237 41.824 20.2146 41.7169 20.1661C41.6097 20.1176 41.523 20.0329 41.4721 19.9268C41.4213 19.8207 41.4094 19.7001 41.4387 19.5862C41.4679 19.4722 41.5364 19.3722 41.6321 19.3038L43.3565 18.0862L38.8221 19.3816C38.7377 19.4071 38.6481 19.4096 38.5625 19.3888Z" fill="#FFCE48"/>
<path d="M30.3281 61.6503C30.2263 61.6248 30.1351 61.5679 30.0674 61.4877C29.9997 61.4075 29.959 61.3081 29.951 61.2034C29.943 61.0988 29.9681 60.9943 30.0228 60.9047C30.0775 60.8152 30.159 60.7451 30.2557 60.7044L35.7005 58.3916L27.418 60.7608C27.2944 60.7961 27.1619 60.7823 27.0482 60.7225C26.9344 60.6627 26.848 60.5613 26.807 60.4395C26.766 60.3176 26.7735 60.1847 26.828 60.0682C26.8824 59.9518 26.9796 59.8608 27.0994 59.8141L33.2663 57.4172L24.7024 59.8644C24.5793 59.898 24.4479 59.8833 24.3353 59.8232C24.2227 59.763 24.1373 59.6621 24.0967 59.5411C24.0561 59.4201 24.0633 59.2881 24.1169 59.1723C24.1704 59.0564 24.2663 58.9654 24.3848 58.9179L33.2548 55.4825L21.9178 58.7208C21.7912 58.7603 21.654 58.7479 21.5365 58.6863C21.419 58.6247 21.3308 58.5189 21.2913 58.3923C21.2518 58.2657 21.2642 58.1285 21.3258 58.011C21.3874 57.8935 21.4932 57.8053 21.6198 57.7658L23.6171 57.0928L21.1849 57.7858C21.0614 57.8172 20.9306 57.8002 20.8192 57.7383C20.7078 57.6765 20.6242 57.5744 20.5855 57.453C20.5468 57.3316 20.5559 57.2 20.611 57.085C20.6661 56.9701 20.763 56.8806 20.8819 56.8347L27.5622 54.487L21.3868 56.2509C21.2626 56.2837 21.1305 56.2674 21.018 56.2054C20.9054 56.1434 20.8211 56.0404 20.7824 55.9179C20.7437 55.7954 20.7537 55.6627 20.8103 55.5473C20.8668 55.4319 20.9656 55.3428 21.0862 55.2983L25.3713 53.8291L21.8098 54.8455C21.6857 54.8775 21.5541 54.8605 21.4421 54.7982C21.3301 54.7359 21.2463 54.633 21.208 54.5107C21.1697 54.3884 21.1798 54.2561 21.2363 54.1411C21.2927 54.026 21.3912 53.937 21.5114 53.8925L24.8122 52.7603L22.2578 53.4928C22.1334 53.5265 22.0008 53.5109 21.8877 53.4492C21.7745 53.3876 21.6896 53.2846 21.6505 53.1618C21.6115 53.039 21.6213 52.9059 21.678 52.7901C21.7348 52.6744 21.834 52.5851 21.955 52.5408L26.9492 50.7966L22.8002 51.9813C22.6759 52.0172 22.5426 52.0037 22.4282 51.9434C22.3138 51.8831 22.2271 51.7809 22.1865 51.6581C22.1459 51.5353 22.1544 51.4016 22.2103 51.285C22.2661 51.1683 22.365 51.0779 22.4862 51.0326L31.6985 47.5561L23.6503 49.8541C23.5268 49.8872 23.3952 49.8718 23.2827 49.8109C23.1702 49.75 23.0853 49.6484 23.0455 49.5268C23.0057 49.4053 23.014 49.2731 23.0687 49.1574C23.1233 49.0418 23.2203 48.9515 23.3395 48.9052L30.4339 46.2787L24.5037 47.973C24.3787 48.0103 24.2441 47.9972 24.1286 47.9366C24.0131 47.876 23.9259 47.7726 23.8855 47.6486C23.8452 47.5246 23.8549 47.3897 23.9126 47.2727C23.9703 47.1557 24.0714 47.0659 24.1944 47.0224L29.2301 45.1907L25.3445 46.2991C25.222 46.3328 25.0912 46.3186 24.9788 46.2594C24.8663 46.2001 24.7807 46.1003 24.7392 45.9802C24.6978 45.8601 24.7036 45.7287 24.7555 45.6127C24.8075 45.4967 24.9016 45.4048 25.0189 45.3558L33.2464 42.012L26.7213 43.876C26.5973 43.9121 26.4641 43.8988 26.3497 43.8389C26.2352 43.779 26.1484 43.6772 26.1074 43.5547C26.0664 43.4323 26.0743 43.2987 26.1296 43.1819C26.1849 43.0652 26.2832 42.9744 26.4039 42.9285L32.4036 40.6227L28.0356 41.8712C27.913 41.9049 27.7823 41.8907 27.6698 41.8314C27.5574 41.7722 27.4718 41.6723 27.4303 41.5522C27.3888 41.4321 27.3947 41.3007 27.4466 41.1847C27.4986 41.0687 27.5927 40.9769 27.7099 40.9278L36.2618 37.4498L30.0784 39.2169C29.9564 39.2497 29.8265 39.2351 29.7148 39.176C29.6031 39.117 29.518 39.0178 29.4764 38.8985C29.4348 38.7792 29.44 38.6485 29.4908 38.5329C29.5417 38.4172 29.6344 38.3251 29.7504 38.275L37.0242 35.2573L32.7054 36.4903C32.5845 36.5226 32.4559 36.5084 32.3449 36.4506C32.234 36.3927 32.1488 36.2954 32.1061 36.1777C32.0635 36.0601 32.0664 35.9308 32.1145 35.8152C32.1626 35.6997 32.2522 35.6064 32.3657 35.5537L37.8173 33.1313L32.1545 34.7504C32.0328 34.7844 31.9028 34.7712 31.7905 34.7134C31.6782 34.6555 31.592 34.5573 31.5492 34.4385C31.5063 34.3196 31.51 34.189 31.5596 34.0728C31.6091 33.9566 31.7008 33.8635 31.8162 33.8121L36.1113 31.9248L31.7689 33.1652C31.6512 33.2004 31.5247 33.1909 31.4135 33.1387C31.3023 33.0865 31.2142 32.9952 31.1661 32.8822C31.1179 32.7692 31.113 32.6424 31.1523 32.526C31.1916 32.4097 31.2724 32.3118 31.3793 32.2512L34.6115 30.3803L31.7677 31.1939C31.6553 31.2264 31.535 31.2184 31.4278 31.1713C31.3206 31.1243 31.2334 31.0411 31.1812 30.9363C31.1291 30.8315 31.1154 30.7117 31.1425 30.5978C31.1696 30.484 31.2358 30.3832 31.3295 30.3131L33.3324 28.8106L33.2995 28.823C33.1741 28.8532 33.0419 28.8338 32.9305 28.7689C32.819 28.7039 32.737 28.5985 32.7015 28.4745C32.6661 28.3505 32.6798 28.2176 32.74 28.1035C32.8002 27.9895 32.9021 27.9031 33.0245 27.8624L35.6626 27.1086C35.7751 27.0761 35.8954 27.0841 36.0025 27.1312C36.1097 27.1783 36.1969 27.2615 36.2491 27.3663C36.3012 27.4711 36.3149 27.5908 36.2878 27.7047C36.2607 27.8186 36.1945 27.9193 36.1008 27.9894L34.0967 29.4926L38.2234 28.3147C38.3411 28.2796 38.4676 28.289 38.5788 28.3412C38.69 28.3934 38.7781 28.4848 38.8262 28.5977C38.8744 28.7107 38.8793 28.8375 38.84 28.9539C38.8006 29.0703 38.7199 29.1681 38.613 29.2287L35.3827 31.1002L42.9138 28.9489C43.0354 28.9148 43.1654 28.9281 43.2777 28.9859C43.39 29.0438 43.4762 29.142 43.5191 29.2608C43.5619 29.3796 43.5582 29.5103 43.5086 29.6265C43.4591 29.7427 43.3674 29.8358 43.252 29.8872L38.9524 31.7723L44.4173 30.2109C44.5385 30.1775 44.6678 30.191 44.7795 30.2486C44.8912 30.3063 44.9771 30.4039 45.02 30.5221C45.063 30.6402 45.0599 30.7702 45.0113 30.8861C44.9627 31.0021 44.8723 31.0955 44.7579 31.1477L39.3065 33.5691L45.1156 31.9094C45.238 31.8753 45.3688 31.8891 45.4814 31.9479C45.594 32.0068 45.6799 32.1063 45.7218 32.2262C45.7637 32.3462 45.7584 32.4775 45.7069 32.5937C45.6554 32.7098 45.5616 32.802 45.4447 32.8515L38.1709 35.8692L44.8913 33.95C45.0134 33.9176 45.1433 33.9326 45.2549 33.9921C45.3664 34.0515 45.4513 34.151 45.4924 34.2705C45.5335 34.39 45.5279 34.5207 45.4766 34.6362C45.4253 34.7517 45.3322 34.8435 45.2159 34.8931L36.6597 38.3721L42.9874 36.568C43.1101 36.5357 43.2405 36.5514 43.3522 36.6117C43.4638 36.672 43.5483 36.7726 43.5886 36.8929C43.6289 37.0132 43.6219 37.1444 43.569 37.2598C43.5162 37.3751 43.4215 37.4661 43.304 37.5142L37.3055 39.8152L41.8878 38.5059C42.0103 38.4722 42.1411 38.4864 42.2535 38.5457C42.3659 38.6049 42.4516 38.7047 42.493 38.8249C42.5345 38.945 42.5287 39.0764 42.4767 39.1924C42.4248 39.3084 42.3306 39.4002 42.2134 39.4493L33.9815 42.794L42.4401 40.3761C42.5635 40.3438 42.6946 40.3598 42.8065 40.421C42.9185 40.4822 43.0028 40.5839 43.0422 40.7052C43.0817 40.8265 43.0732 40.9583 43.0187 41.0736C42.9641 41.1889 42.8675 41.279 42.7487 41.3255L37.714 43.1575L42.7544 41.7186C42.8789 41.6828 43.0124 41.6966 43.1269 41.7572C43.2413 41.8179 43.3278 41.9206 43.368 42.0437C43.4083 42.1668 43.3992 42.3007 43.3427 42.4173C43.2861 42.5338 43.1866 42.6239 43.065 42.6685L35.9776 45.2999L43.0478 43.2807C43.1711 43.2473 43.3025 43.2624 43.4151 43.3229C43.5276 43.3834 43.6127 43.4847 43.6529 43.6059C43.6932 43.7272 43.6854 43.8593 43.6313 43.975C43.5772 44.0908 43.4808 44.1814 43.362 44.2284L34.1386 47.7042L43.2882 45.0913C43.412 45.0593 43.5435 45.0759 43.6554 45.1379C43.7673 45.1998 43.8513 45.3023 43.89 45.4242C43.9286 45.5462 43.9191 45.6783 43.8633 45.7934C43.8075 45.9085 43.7097 45.9979 43.59 46.0431L38.6058 47.7846L43.4124 46.411C43.537 46.3772 43.6699 46.3931 43.7831 46.4551C43.8964 46.5171 43.9813 46.6206 44.02 46.7438C44.0587 46.867 44.0482 47.0004 43.9907 47.116C43.9333 47.2317 43.8334 47.3206 43.7118 47.3642L40.4032 48.4945L43.4898 47.6127C43.6152 47.5765 43.7498 47.5907 43.8649 47.6524C43.9799 47.7141 44.0663 47.8183 44.1055 47.9428C44.1448 48.0674 44.1337 48.2023 44.0748 48.3188C44.0159 48.4353 43.9137 48.5241 43.7902 48.5663L39.5169 50.0333L43.5352 48.8849C43.6595 48.8512 43.7921 48.8668 43.9053 48.9284C44.0184 48.9901 44.1034 49.0931 44.1424 49.2159C44.1815 49.3387 44.1716 49.4718 44.1149 49.5875C44.0582 49.7032 43.959 49.7926 43.838 49.8369L37.1647 52.1813L43.547 50.3568C43.6722 50.3219 43.806 50.3371 43.9202 50.3991C44.0343 50.4612 44.1199 50.5652 44.1586 50.6892C44.1974 50.8133 44.1864 50.9475 44.1279 51.0635C44.0694 51.1796 43.968 51.2682 43.8452 51.3108L41.837 51.9904L43.518 51.5103C43.6411 51.4767 43.7725 51.4914 43.8851 51.5515C43.9977 51.6117 44.0831 51.7126 44.1237 51.8336C44.1643 51.9546 44.1571 52.0866 44.1035 52.2025C44.0499 52.3183 43.9541 52.4093 43.8356 52.4568L34.9634 55.8927L43.4013 53.483C43.5249 53.4478 43.6574 53.4615 43.7712 53.5214C43.8849 53.5812 43.9713 53.6826 44.0123 53.8044C44.0533 53.9263 44.0458 54.0592 43.9913 54.1757C43.9369 54.2921 43.8397 54.3831 43.7199 54.4298L37.5538 56.8238L43.2372 55.2006C43.3595 55.1661 43.4903 55.1795 43.603 55.2379C43.7158 55.2964 43.8021 55.3955 43.8444 55.5153C43.8867 55.635 43.8819 55.7664 43.8308 55.8827C43.7798 55.999 43.6864 56.0916 43.5696 56.1415L38.1244 58.4521L42.9943 57.0603C43.1137 57.0258 43.2417 57.0371 43.3534 57.0919C43.465 57.1467 43.5521 57.2412 43.5979 57.3568C43.6436 57.4724 43.6446 57.6009 43.6007 57.7173C43.5568 57.8336 43.4711 57.9294 43.3604 57.9859L39.0563 60.1978L42.6338 59.1751C42.754 59.1417 42.8823 59.1545 42.9936 59.2109C43.1049 59.2674 43.191 59.3633 43.2351 59.48C43.2793 59.5967 43.2782 59.7256 43.2321 59.8416C43.186 59.9575 43.0983 60.052 42.9861 60.1065L42.3302 60.4206L42.3879 60.4042C42.4988 60.3726 42.6171 60.3803 42.7229 60.426C42.8287 60.4717 42.9155 60.5525 42.9685 60.6548C43.0216 60.7571 43.0377 60.8745 43.0142 60.9873C42.9906 61.1001 42.9288 61.2013 42.8392 61.2738L42.1252 61.8486C42.2277 61.8569 42.3252 61.8959 42.4052 61.9604C42.4852 62.0249 42.5439 62.112 42.5738 62.2104C42.6102 62.3379 42.5945 62.4746 42.5301 62.5906C42.4657 62.7065 42.3579 62.7921 42.2304 62.8285L40.082 63.4421C39.9713 63.4731 39.8533 63.465 39.7479 63.4192C39.6424 63.3734 39.556 63.2926 39.5031 63.1905C39.4503 63.0885 39.4342 62.9713 39.4576 62.8588C39.481 62.7462 39.5425 62.6452 39.6317 62.5726L40.2874 62.0451L36.8833 63.0174C36.7636 63.0496 36.6362 63.0362 36.5258 62.9797C36.4154 62.9232 36.3299 62.8277 36.286 62.7117C36.2421 62.5958 36.2428 62.4676 36.288 62.3522C36.3333 62.2367 36.4198 62.1422 36.5308 62.0869L37.1877 61.7731L34.4499 62.5545C34.3304 62.589 34.2024 62.5777 34.0908 62.5229C33.9792 62.4681 33.892 62.3737 33.8463 62.258C33.8006 62.1424 33.7995 62.0139 33.8435 61.8976C33.8874 61.7812 33.973 61.6854 34.0838 61.6289L38.3879 59.417L30.5866 61.647C30.5023 61.6711 30.413 61.6722 30.3281 61.6503Z" fill="white"/>
<path d="M70.4269 26.6301C68.0793 24.3012 65.2085 21.9453 62.9428 19.6348C63.6007 16.7935 65.24 13.3836 61.0006 12.8829L28.9607 4.86056C24.4808 3.05228 23.1606 5.85867 22.6763 9.84748C19.3992 10.8392 15.8539 11.4659 12.6913 12.6265C12.2218 14.5016 11.0988 17.1089 13.4019 18.0227C1.0583 72.0144 -6.56708 54.1379 45.5141 69.4308C49.5385 70.0158 56.581 74.1841 58.0229 68.1043L67.2283 31.3392C69.7671 31.4595 70.1092 28.5824 70.4545 26.6886L70.4269 26.6301ZM67.2199 25.123C67.3976 25.2902 67.6859 25.5222 67.9754 25.7699L59.567 23.6646C58.2443 21.9108 56.976 20.117 55.6714 18.3492C60.6143 18.8271 63.9406 21.6114 67.2199 25.123ZM38.9127 14.1531C37.7404 15.3027 36.6153 16.49 35.4155 17.6174L25.4696 15.127L31.3928 12.2702L38.9127 14.1531ZM44.9765 15.6713C45.4462 17.2373 45.9285 18.8023 46.4024 20.3683L36.8735 17.9824C38.0148 16.8126 39.1843 15.6746 40.3377 14.5099L44.9765 15.6713ZM53.7497 17.868L57.6278 23.179L48.0612 20.7837C47.5767 19.2191 47.1072 17.6522 46.6295 16.0852L53.7497 17.868ZM35.3285 22.9138L36.3464 18.8483L46.565 21.4069L45.547 25.4724L35.3285 22.9138ZM32.1432 17.7959L34.9185 18.4908C34.5532 19.8426 34.2612 21.2065 33.9006 22.5563L23.6791 19.997L24.697 15.9315L32.1432 17.7959ZM57.7854 26.0328L57.1954 28.389L46.9691 25.8285L47.9871 21.763L58.2144 24.3238C58.0706 24.8939 57.9282 25.4624 57.7854 26.0328ZM25.5217 5.28084C36.5131 6.10727 48.2522 10.93 59.4743 13.0997C63.534 13.2636 62.335 16.4962 61.5579 19.1881C56.5097 17.9241 51.4632 16.6605 46.4182 15.3973C46.3075 15.016 45.6923 14.9455 45.293 15.1156L40.5863 13.9371C40.4684 13.7668 40.2925 13.6451 40.0916 13.5948C39.8906 13.5445 39.6783 13.5689 39.494 13.6636L31.8102 11.7397C29.3453 11.0565 26.6866 10.5011 24.1642 9.82522C24.661 8.36412 24.6607 6.58682 25.5217 5.28084ZM23.3482 10.2559L30.0416 11.9318C28.0597 12.8891 26.09 13.8433 24.0979 14.7836L14.9716 12.4985L23.3482 10.2559ZM14.0032 13.2539L23.2905 15.5793C22.9553 16.9386 22.6118 18.2896 22.2725 19.6448C18.7841 18.2817 11.1998 19.0279 14.0032 13.2539ZM56.3532 68.8109C55.29 72.5878 51.0016 69.7966 48.4318 69.4913L15.2666 61.1872C11.6029 59.7915 3.44859 60.3806 5.78225 54.424C8.78532 42.4303 11.7885 30.4362 14.7917 18.4418L22.1981 20.2962C26.0082 21.2801 29.9925 22.2272 33.8465 23.2128C33.9751 23.3734 34.1528 23.4873 34.3523 23.5373C34.5519 23.5873 34.7623 23.5705 34.9514 23.4895L45.4862 26.1272C45.6152 26.287 45.7927 26.4004 45.9918 26.4502C46.191 26.5001 46.401 26.4838 46.5901 26.4037L65.769 31.2058C62.5686 43.7243 59.59 56.3077 56.3532 68.8109ZM68.3642 29.0753C67.5884 32.9973 61.3514 28.675 58.6011 28.741C58.9411 27.3829 59.2797 26.0306 59.619 24.6755L68.9082 27.0014C68.8011 27.71 68.6187 28.4053 68.3642 29.0753Z" fill="#262626"/>
<path d="M43.9349 57.3876C45.3064 50.9592 43.8515 43.986 42.899 38.0571C48.3585 34.6563 45.8863 26.9501 39.3924 29.0352C34.0798 23.9485 28.4566 29.9339 31.8375 35.8926C26.2809 40.97 22.7305 48.0929 20.611 55.269C18.3848 60.6608 31.1466 61.1893 34.5884 62.5696C40.4299 63.7735 43.697 64.7317 43.9349 57.3876ZM41.2324 62.4621C34.4935 62.3947 27.8672 60.7264 21.8998 57.5947C21.8261 53.2899 24.5618 48.8979 26.3823 44.9993C28.1072 41.5603 30.8827 38.5822 33.3393 35.8398C30.4231 31.8417 34.0849 24.4549 38.3363 29.8192C38.5377 30.1717 39.2949 30.1489 39.5921 29.9625C45.7303 27.5522 45.6058 35.901 41.1433 38.0701C43.2904 45.7371 43.89 54.8043 41.2324 62.4621Z" fill="#262626"/>
<path d="M32.2232 43.1918C31.6296 44.739 25.4185 57.5438 29.187 55.6268C28.8906 53.6815 35.8563 40.8027 32.2232 43.1918Z" fill="#262626"/>
<path d="M37.3048 44.5611C38.1559 46.4855 33.6798 60.2247 36.9484 57.599C37.0834 55.936 40.8364 41.8074 37.3048 44.5611Z" fill="#262626"/>
</g>
<defs>
<clipPath id="clip0_405_2580">
<rect width="60" height="60" fill="white" transform="translate(15.3863 0.730835) rotate(14.0571)"/>
</clipPath>
</defs>
</svg>
