<svg xmlns="http://www.w3.org/2000/svg" width="74" height="74" fill="none" viewBox="0 0 74 74"><circle cx="37" cy="37" r="37" fill="#FAECBC"/><g clip-path="url(#a)"><path fill="#878067" d="M19.518 21.357a.373.373 0 0 1-.294-.607l1.136-1.434-1.411.814a.374.374 0 0 1-.553-.4l.24-1.149a.374.374 0 0 1-.061-.673l.374-.216a.374.374 0 0 1 .553.4l-.203.972 2.384-1.372a.374.374 0 0 1 .48.556l-1.136 1.431 3.452-1.992a.374.374 0 0 1 .476.56l-1.13 1.394 3.387-1.955a.374.374 0 0 1 .468.57l-1.11 1.264 3.177-1.836a.373.373 0 0 1 .454.585l-.999 1.02 2.784-1.607a.374.374 0 0 1 .463.576l-1.083 1.187 3.057-1.764a.374.374 0 0 1 .427.609l-.299.25 1.496-.86a.374.374 0 0 1 .424.611l-.11.091 1.22-.703a.374.374 0 0 1 .448.588l-.968.968 2.701-1.558a.373.373 0 0 1 .486.55l-1.133 1.495 3.548-2.048a.374.374 0 0 1 .456.584l-1.016 1.047 2.83-1.634a.374.374 0 0 1 .47.566l-1.124 1.325 3.267-1.89a.374.374 0 0 1 .476.56l-1.134 1.395 3.387-1.956a.374.374 0 0 1 .471.566l-1.121 1.319 3.266-1.887a.374.374 0 0 1 .474.563l-1.133 1.358 3.328-1.922a.374.374 0 0 1 .448.598l-.85.802.77-.445a.373.373 0 0 1 .512.511l-.468.802a.374.374 0 0 1 .34.664l-1.18.682a.374.374 0 0 1-.511-.511l.463-.8-2.273 1.31a.374.374 0 0 1-.445-.594l.848-.8-2.427 1.4a.374.374 0 0 1-.474-.563l1.13-1.357-3.327 1.921a.374.374 0 0 1-.472-.566l1.122-1.318-3.269 1.886a.373.373 0 0 1-.477-.56l1.138-1.393-3.386 1.954a.374.374 0 0 1-.47-.566l1.12-1.316-3.264 1.885a.374.374 0 0 1-.456-.584l1.017-1.047-2.83 1.631a.374.374 0 0 1-.485-.548l1.133-1.496-3.548 2.047a.374.374 0 0 1-.449-.588l.963-.968-2.697 1.557a.374.374 0 0 1-.425-.611l.112-.093-1.22.705a.374.374 0 0 1-.429-.61l.3-.252-1.496.863a.374.374 0 0 1-.463-.576l1.084-1.188-3.057 1.765a.373.373 0 0 1-.454-.585l1-1.021-2.786 1.608c-.076.044-.167.06-.254.044a.374.374 0 0 1-.214-.615l1.115-1.264-3.184 1.836a.374.374 0 0 1-.476-.56l1.134-1.395-3.388 1.957a.37.37 0 0 1-.187.05"/><path fill="#B7CC3B" d="M51.249 34.07a.374.374 0 0 1-.187-.698l3.23-1.865a.375.375 0 0 1 .532.47l-.354.834a.374.374 0 0 1 .295.682l-.878.502a.375.375 0 0 1-.531-.47l.347-.819-2.264 1.308a.37.37 0 0 1-.19.056"/><path fill="#fff" d="M41.422 46.013a.374.374 0 0 1-.212-.682l1.535-1.054-2.063 1.191a.374.374 0 0 1-.396-.633l1.174-.788-.823.475a.374.374 0 0 1-.409-.625l5.06-3.735-4.654 2.687a.374.374 0 0 1-.403-.629l3.889-2.755-3.487 2.012a.373.373 0 0 1-.4-.63l6.82-4.758-6.424 3.71a.373.373 0 0 1-.39-.638l.982-.633-.598.343a.374.374 0 0 1-.397-.634l4.992-3.374-4.598 2.654a.374.374 0 0 1-.497-.128c-.05-.08-.069-.178-.05-.271a.37.37 0 0 1 .148-.233l5.534-3.793-5.134 2.965a.374.374 0 0 1-.393-.635l2.426-1.594-2.035 1.174a.374.374 0 0 1-.395-.634l3.326-2.243-3.239 1.87a.374.374 0 0 1-.402-.629l4.331-3.054-6.389 3.683a.374.374 0 0 1-.4-.63l4.437-3.09-4.983 2.876a.374.374 0 0 1-.397-.633l.39-.263a.375.375 0 0 1-.301-.656l3.325-2.777-2.667 1.54a.374.374 0 0 1-.426-.611l1.82-1.502-1.214.705a.373.373 0 0 1-.482-.554l.695-.89a.38.38 0 0 1-.41-.177.374.374 0 0 1 .136-.51l1.54-.889a.374.374 0 0 1 .482.553l-.67.858 3.434-1.983a.374.374 0 0 1 .425.612l-1.82 1.504 2.542-1.47a.374.374 0 0 1 .426.611l-3.325 2.776 5.044-2.912a.374.374 0 0 1 .396.633l-.108.075 3.409-1.967a.374.374 0 0 1 .4.63l-4.437 3.092 5.841-3.373a.374.374 0 0 1 .403.629l-4.329 3.056 5.482-3.164a.374.374 0 1 1 .396.634l-3.322 2.238 3.916-2.26a.374.374 0 0 1 .388.633l-2.44 1.604 2.35-1.357a.374.374 0 0 1 .398.632l-5.534 3.79 5.306-3.066a.374.374 0 0 1 .397.633l-4.991 3.375 4.752-2.744a.374.374 0 0 1 .39.638l-.986.635.705-.407a.374.374 0 0 1 .401.63l-6.82 4.765 2.868-1.655a.374.374 0 0 1 .403.629l-3.884 2.755 3.48-2.01a.374.374 0 0 1 .41.624l-5.061 3.734 4.652-2.685a.374.374 0 0 1 .395.634l-1.168.785.773-.449a.374.374 0 0 1 .398.632l-1.531 1.047 1.133-.654a.374.374 0 0 1 .406.627l-1.622 1.172 1.216-.702a.374.374 0 0 1 .438.599l-2.214 2.017 1.776-1.024a.374.374 0 0 1 .56.308.37.37 0 0 1-.076.24l-.985 1.299.5-.29a.374.374 0 0 1 .375.647l-2.11 1.213a.373.373 0 0 1-.485-.55l.985-1.296-3.199 1.846a.374.374 0 0 1-.438-.598l2.213-2.006-4.515 2.604a.374.374 0 0 1-.406-.626l1.617-1.169-3.11 1.795a.37.37 0 0 1-.187.053"/><path fill="#3D3B33" d="M20.438 53.513a.373.373 0 0 1-.279-.623l1.098-1.224-1.56.898a.374.374 0 0 1-.461-.578l.31-.333a.375.375 0 0 1-.39-.492l.155-.46a.373.373 0 0 1 .012-.64l.373-.216a.373.373 0 0 1 .539.444l-.058.175 1.073-.615a.375.375 0 0 1 .461.578l-.234.251 1.439-.83a.374.374 0 0 1 .465.573l-1.097 1.223 3.115-1.795a.374.374 0 0 1 .474.563L24.74 51.77l3.331-1.928a.374.374 0 0 1 .43.607l-.395.339 1.645-.947a.374.374 0 0 1 .449.59l-.92.902 2.587-1.496a.374.374 0 0 1 .449.587l-.972.984 2.724-1.57a.374.374 0 0 1 .44.598l-.747.691 2.235-1.29a.374.374 0 0 1 .44.598l-.747.69 2.236-1.29a.373.373 0 0 1 .453.585l-1.002 1.027 2.794-1.613a.374.374 0 0 1 .436.603l-.615.548 1.997-1.152a.374.374 0 0 1 .486.547l-1.13 1.514 3.568-2.063a.374.374 0 0 1 .478.56l-1.136 1.397 3.395-1.96a.374.374 0 0 1 .474.563l-1.132 1.363 3.338-1.927a.374.374 0 0 1 .449.593l-.878.844 2.49-1.438a.373.373 0 0 1 .482.555l-1.137 1.448 3.44-1.986a.373.373 0 0 1 .474.563l-1.116 1.338.653-.374a.374.374 0 0 1 .55.416l-.204.776a.365.365 0 0 1 .206.433.37.37 0 0 1-.173.227l-.374.215a.373.373 0 0 1-.55-.415l.145-.567-1.7.984a.374.374 0 0 1-.475-.563l1.115-1.338-3.295 1.903a.374.374 0 0 1-.482-.554l1.137-1.449-3.473 2.004a.374.374 0 0 1-.448-.593l.876-.843-2.492 1.438a.374.374 0 0 1-.474-.562l1.132-1.363-3.337 1.926a.375.375 0 0 1-.477-.559l1.135-1.399-3.395 1.96a.374.374 0 0 1-.486-.547l1.13-1.514-3.567 2.066a.374.374 0 0 1-.436-.603l.615-.548-1.997 1.153a.374.374 0 0 1-.454-.585l1-1.028-2.794 1.613a.374.374 0 0 1-.44-.598l.747-.69-2.234 1.29a.374.374 0 0 1-.44-.598l.748-.691-2.236 1.29a.374.374 0 0 1-.45-.587l.978-.985-2.726 1.57a.374.374 0 0 1-.448-.59l.92-.899-2.589 1.496a.374.374 0 0 1-.43-.608l.394-.337-1.638.944a.374.374 0 0 1-.474-.563l1.131-1.359-3.333 1.924a.37.37 0 0 1-.187.05"/><path fill="#3D3B33" d="M17.93 57.247a.375.375 0 0 1-.277-.623l.74-.827-.94.542a.374.374 0 0 1-.434-.605l.27-.237a.37.37 0 0 1-.317-.142.37.37 0 0 1 .025-.49l1.144-1.19-.687.395a.373.373 0 0 1-.448-.593l.771-.747-.325.187a.374.374 0 0 1-.46-.578l1.267-1.364-.807.466a.374.374 0 0 1-.467-.57l1.45-1.641-.983.566a.374.374 0 0 1-.443-.598l.588-.545-.144.082a.374.374 0 0 1-.449-.593l.763-.728-.31.179a.374.374 0 0 1-.449-.593l.773-.747-.327.187a.374.374 0 0 1-.448-.59l.849-.833-.401.231a.374.374 0 0 1-.445-.598l.694-.661-.25.144a.374.374 0 0 1-.436-.599l.35-.314a.38.38 0 0 1-.4-.137.374.374 0 0 1 .045-.496l.561-.524-.12.07a.374.374 0 0 1-.436-.6l.337-.298a.38.38 0 0 1-.385-.137.374.374 0 0 1 .037-.494l.848-.832-.4.231a.374.374 0 0 1-.463-.576l1.324-1.448-.861.497a.375.375 0 0 1-.456-.583l1.105-1.145-.65.374a.374.374 0 0 1-.462-.575l1.306-1.421-.843.486a.374.374 0 0 1-.464-.575l1.345-1.49-.882.508a.374.374 0 0 1-.44-.599l.493-.456-.053.03a.374.374 0 0 1-.46-.579l1.227-1.308-.767.442a.374.374 0 0 1-.449-.589l.881-.871-.431.25a.373.373 0 0 1-.437-.599l.334-.299a.374.374 0 0 1-.354-.623l1.115-1.156-.658.379a.373.373 0 0 1-.449-.592l.8-.78-.353.205a.374.374 0 0 1-.44-.6l.427-.389a.374.374 0 0 1-.432-.598l.707-.673-.262.15a.374.374 0 0 1-.449-.593l.748-.724-.304.175a.374.374 0 0 1-.444-.595l.667-.634-.225.129a.374.374 0 0 1-.462-.577l1.304-1.42-.834.476a.374.374 0 0 1-.462-.576l1.304-1.423-.842.486a.374.374 0 0 1-.442-.598l.547-.511-.105.06a.374.374 0 0 1-.449-.59l.35-.344a.38.38 0 0 1-.359-.105.374.374 0 0 1-.043-.46l.224-.353a.375.375 0 0 1-.06-.673l.87-.501a.374.374 0 0 1 .502.523l-.07.109 1.06-.61a.374.374 0 0 1 .448.59l-.307.299.401-.232a.374.374 0 0 1 .442.599l-.547.51.11-.063a.373.373 0 0 1 .463.576l-1.3 1.425.843-.486a.374.374 0 0 1 .462.576l-1.305 1.418.841-.486a.374.374 0 0 1 .444.599l-.667.635.224-.128a.374.374 0 0 1 .449.593l-.748.725.306-.177a.374.374 0 0 1 .45.594l-.707.673.262-.15a.374.374 0 0 1 .439.599l-.427.39a.374.374 0 0 1 .436.598l-.8.779.353-.204a.374.374 0 0 1 .457.583l-1.127 1.158.66-.38a.374.374 0 0 1 .435.598l-.334.299a.373.373 0 0 1 .348.63l-.881.874.431-.25a.374.374 0 0 1 .46.58l-1.23 1.31.769-.444a.374.374 0 0 1 .44.599l-.492.454.053-.03a.373.373 0 0 1 .464.575L19.15 33.76l.882-.51a.375.375 0 0 1 .463.577L19.19 35.25l.843-.486a.374.374 0 0 1 .456.583l-1.106 1.145.65-.374a.373.373 0 0 1 .464.575l-1.323 1.447.863-.498a.374.374 0 0 1 .45.591l-.85.832.4-.231a.374.374 0 0 1 .436.598l-.336.3a.374.374 0 0 1 .342.636l-.563.524.121-.07a.374.374 0 0 1 .437.602l-.348.313a.38.38 0 0 1 .399.136.374.374 0 0 1-.042.495l-.695.663.252-.136a.374.374 0 0 1 .45.591l-.85.83.401-.231a.373.373 0 0 1 .449.592l-.771.748.324-.187a.374.374 0 0 1 .448.593l-.76.729.31-.18a.374.374 0 0 1 .444.598l-.587.55.145-.084a.374.374 0 0 1 .467.572l-1.448 1.637.981-.567a.373.373 0 0 1 .461.579l-1.271 1.362.807-.466a.374.374 0 0 1 .45.593l-.774.747.327-.188a.374.374 0 0 1 .456.582l-1.14 1.19.687-.397a.374.374 0 0 1 .433.604l-.27.238a.36.36 0 0 1 .314.137.374.374 0 0 1-.011.486l-.742.831.277-.16a.374.374 0 0 1 .546.428l-.19.66a.38.38 0 0 1 .194.433.37.37 0 0 1-.175.227l-.38.218a.374.374 0 0 1-.545-.428l.122-.424-1.501.86a.37.37 0 0 1-.187.05"/><path fill="#3D3B33" d="M16.97 59.474a.374.374 0 0 1-.24-.661l.194-.163-.822.476a.374.374 0 0 1-.442-.598l.427-.397-.129.075a.375.375 0 0 1-.473-.563l.358-.426a.374.374 0 0 1-.046-.673l1.239-.712a.374.374 0 0 1 .472.564l-.084.099 1.154-.663a.374.374 0 0 1 .44.598l-.425.396 1.689-.972a.374.374 0 0 1 .428.61l-.197.164.593-.342a.374.374 0 0 1 .502.524l-.769 1.199.682-.395a.374.374 0 0 1 .374.648l-2.012 1.16a.374.374 0 0 1-.502-.524l.77-1.203-2.99 1.728a.37.37 0 0 1-.19.05M55.325 57.247a.374.374 0 0 1-.282-.619l.828-.95-1.027.593a.374.374 0 0 1-.457-.582l1.174-1.232-.717.413a.374.374 0 0 1-.448-.59l.88-.867-.432.248a.374.374 0 0 1-.464-.573l1.377-1.519-.91.523a.374.374 0 0 1-.443-.598l.636-.598-.196.112a.374.374 0 0 1-.453-.585l1.032-1.047-.579.333a.374.374 0 0 1-.46-.579l1.242-1.326-.782.45a.374.374 0 0 1-.438-.6l.39-.352a.374.374 0 0 1-.412-.603l1.257-1.346-.797.46a.373.373 0 0 1-.448-.592l.795-.771-.348.2a.374.374 0 0 1-.454-.585l1.059-1.084-.605.35a.374.374 0 0 1-.436-.604l.318-.283a.37.37 0 0 1-.363-.136.374.374 0 0 1 .025-.49l1.128-1.174-.673.388a.374.374 0 0 1-.448-.59l.866-.853-.418.24a.374.374 0 0 1-.434-.603l.29-.256a.38.38 0 0 1-.34-.15.374.374 0 0 1 .036-.494l.823-.803-.374.216a.374.374 0 0 1-.435-.598l.31-.277a.374.374 0 0 1-.339-.622l1.338-1.468-.874.504a.374.374 0 0 1-.449-.59l.898-.889-.449.259a.375.375 0 0 1-.449-.589l.914-.918-.466.268a.374.374 0 0 1-.448-.591l.79-.769-.343.198a.374.374 0 0 1-.435-.602l.299-.267a.38.38 0 0 1-.352-.15.374.374 0 0 1 .044-.495l.585-.547-.142.081a.374.374 0 0 1-.465-.574l1.388-1.548-.919.532a.374.374 0 0 1-.47-.568l1.497-1.725-1.026.591a.374.374 0 0 1-.454-.585l1.059-1.086-.605.349a.373.373 0 0 1-.46-.579l1.222-1.301-.763.44a.374.374 0 0 1-.456-.582l1.14-1.192-.684.395a.373.373 0 0 1-.46-.579l1.27-1.37-.81.463a.374.374 0 0 1-.465-.572l1.373-1.522-.908.524a.374.374 0 0 1-.467-.572l1.106-1.253-.639.368a.373.373 0 0 1-.513-.505l.322-.58a.373.373 0 0 1-.143-.695l.869-.502a.374.374 0 0 1 .513.505l-.252.453 1.448-.837a.374.374 0 0 1 .467.57l-1.106 1.253.972-.559a.374.374 0 0 1 .465.574l-1.372 1.526.908-.524a.374.374 0 0 1 .461.577l-1.271 1.37.807-.465a.374.374 0 0 1 .457.581l-1.139 1.194.683-.394a.374.374 0 0 1 .46.579l-1.226 1.304.765-.44a.374.374 0 0 1 .454.584l-1.056 1.085.605-.348a.374.374 0 0 1 .47.568l-1.497 1.726 1.028-.593a.374.374 0 0 1 .465.574l-1.389 1.55.925-.532a.374.374 0 0 1 .442.598l-.584.547.142-.082a.374.374 0 0 1 .436.603l-.3.266a.374.374 0 0 1 .313.639l-.791.768.343-.199a.374.374 0 0 1 .449.589l-.918.912.468-.27a.373.373 0 0 1 .449.59l-.898.889.449-.259a.374.374 0 0 1 .464.576l-1.34 1.47.877-.505a.374.374 0 0 1 .435.602l-.31.276a.374.374 0 0 1 .324.637l-.823.804.374-.217a.374.374 0 0 1 .435.604l-.289.255a.37.37 0 0 1 .339.15.374.374 0 0 1-.035.492l-.868.855.419-.243a.374.374 0 0 1 .457.584l-1.125 1.165.673-.388a.374.374 0 0 1 .436.603l-.317.283a.374.374 0 0 1 .337.63l-1.059 1.082.605-.35a.374.374 0 0 1 .449.593l-.795.77.347-.2a.373.373 0 0 1 .46.578l-1.256 1.346.795-.46a.374.374 0 0 1 .438.599l-.388.352a.373.373 0 0 1 .41.603l-1.239 1.33.782-.448a.375.375 0 0 1 .455.586l-1.032 1.046.578-.333a.374.374 0 0 1 .444.598l-.64.604.197-.113a.374.374 0 0 1 .464.574l-1.373 1.52.91-.523a.373.373 0 0 1 .449.59l-.882.868.433-.25a.373.373 0 0 1 .457.582l-1.174 1.225.716-.413a.374.374 0 0 1 .469.569l-.828.951.36-.208a.374.374 0 0 1 .546.427l-.189.658a.39.39 0 0 1 .202.287.38.38 0 0 1-.185.373l-.379.218a.374.374 0 0 1-.546-.428l.122-.421-1.495.864a.37.37 0 0 1-.19.047"/><path fill="#3D3B33" d="M56.056 59.474a.373.373 0 0 1-.28-.623l.859-.966-2.648 1.529a.374.374 0 0 1-.442-.599l.761-.711-.956.55a.374.374 0 0 1-.498-.53l.592-.888a.38.38 0 0 1-.39-.18.373.373 0 0 1 .136-.51l1.239-.716a.374.374 0 0 1 .498.531l-.565.846 2.387-1.375a.374.374 0 0 1 .443.598l-.76.711 1.828-1.055a.374.374 0 0 1 .467.571l-.86.967 1.02-.588a.375.375 0 0 1 .523.492l-.354.7a.39.39 0 0 1 .33.187.374.374 0 0 1-.136.51l-.867.5a.374.374 0 0 1-.524-.491l.314-.623-1.931 1.11a.37.37 0 0 1-.186.053"/><path fill="#3C5C88" d="M34.793 34.07a.374.374 0 0 1-.187-.698l3.23-1.865a.375.375 0 0 1 .532.47l-.354.834a.373.373 0 0 1 .294.682l-.88.508a.375.375 0 0 1-.531-.47l.346-.819-2.263 1.308a.37.37 0 0 1-.187.05"/><path fill="#D8AF11" d="M25.18 46.013a.374.374 0 0 1-.221-.673l3.54-2.579-4.314 2.491a.374.374 0 0 1-.408-.624l4.978-3.665-4.575 2.64a.374.374 0 0 1-.409-.624l4.878-3.573-4.472 2.581a.374.374 0 0 1-.406-.627l4.427-3.192-4.024 2.323a.374.374 0 0 1-.397-.633l5.116-3.456-4.722 2.727a.374.374 0 1 1-.395-.635l4.348-2.908-3.955 2.283a.374.374 0 0 1-.4-.63l6.438-4.495-6.041 3.487a.374.374 0 0 1-.4-.632l5.414-3.73-5.017 2.895a.374.374 0 0 1-.395-.634l2.893-1.944-3.136 1.809a.374.374 0 0 1-.402-.629l4.332-3.049-6.356 3.67a.374.374 0 0 1-.411-.624l4.21-3.133-4.4 2.543a.374.374 0 0 1-.411-.623l2.72-2.044-2.13 1.233a.374.374 0 0 1-.408-.625l.815-.594-.274.157a.374.374 0 0 1-.424-.614l1.658-1.352-1.061.614a.374.374 0 0 1-.48-.555l.673-.857a.37.37 0 0 1-.396-.18.374.374 0 0 1 .136-.51l1.54-.889a.374.374 0 0 1 .48.555l-.642.814 3.385-1.954a.374.374 0 0 1 .424.613l-1.657 1.354 2.326-1.346a.374.374 0 0 1 .407.626l-.812.594 1.473-.85a.374.374 0 0 1 .41.622l-2.723 2.042 4.572-2.64a.374.374 0 0 1 .411.624L26.3 30.12l8.002-4.618a.374.374 0 0 1 .402.63l-4.335 3.05 5.474-3.16a.373.373 0 0 1 .395.634L33.344 28.6l3.562-2.056a.374.374 0 0 1 .4.63l-5.415 3.733 5.474-3.16a.374.374 0 0 1 .4.63l-6.436 4.496 6.227-3.595a.374.374 0 0 1 .395.635l-4.346 2.908 4.099-2.367a.374.374 0 0 1 .397.633l-5.116 3.455 1.242-.716a.374.374 0 0 1 .405.627l-4.43 3.194 4.025-2.323a.374.374 0 0 1 .408.625L29.76 39.52l4.467-2.579a.374.374 0 0 1 .408.625l-4.977 3.664 4.569-2.637a.374.374 0 0 1 .407.626l-3.542 2.58 3.135-1.81a.374.374 0 0 1 .427.61l-3.08 2.587 2.653-1.532a.374.374 0 0 1 .435.603l-1.375 1.22.94-.542a.374.374 0 0 1 .516.5l-.658 1.229.142-.082a.376.376 0 0 1 .524.129.37.37 0 0 1-.15.518l-1.28.731a.374.374 0 0 1-.515-.5l.658-1.228-2.991 1.728a.374.374 0 0 1-.441-.598l1.373-1.22-3.154 1.818a.374.374 0 0 1-.428-.61l3.081-2.585-5.534 3.196a.37.37 0 0 1-.19.052"/><path fill="#262626" d="M16.482 59.55c1.44.125 2.943 0 4.39 0 .009 0 .017-.006.026-.007a.3.3 0 0 0 .065 0c1.813-.365 1.383-3.386-.228-3.785-.018-.006-.04-.005-.058-.01v-2.196H54.19v2.307a2 2 0 0 0-.598.264c-1.154.779-1.41 3.255.331 3.365 1.452.09 2.935 0 4.39 0a.4.4 0 0 0 .107-.02h.005a1 1 0 0 0 .068-.021c1.766-.442 1.238-3.306-.398-3.64h-.025V18.14c0-1.266.266-2.252-1.115-2.732-1.775-.616-2.568.374-2.767 1.777-.017.122-.026.247-.04.374h-33.46c.026-.968 0-1.711-1.137-2.141-1.738-.655-2.556.34-2.75 1.72-.327 2.334 0 4.958 0 7.31v31.345c-.18.05-.353.128-.51.231-1.076.72-1.527 3.375.191 3.525m13.05-41.126c.929.4.978 2-.118 2.195a.31.31 0 0 0-.348.011h-8.39v-2.206zm16.553 0c.935.374.723 1.87-.28 2.169a.45.45 0 0 0-.184.037H30.683a1.72 1.72 0 0 0 .463-1.136 1.66 1.66 0 0 0-.343-1.07zm8.105 13.701q-.012.176-.063.344c-.412 1.245-1.536.958-2.789.898V32.2c0-.424-.884-.489-.884-.006v1.496c0 .008.005.013.006.02 0 .008-.01.023-.01.036v8.736c0 .641.338 2.361-.299 2.842-.656.494-3.597 0-4.407 0-.853 0-3.699.497-4.407 0-.834-.585-.462-2.089-.462-2.95V32.191c0-.482-.884-.407-.884.019v1.15h-1.645q.123-.233.202-.481a.35.35 0 0 0 .007-.23c-.187-1.53-.061-3.649-.724-5.174q.006-.007.012-.013c.478-.83 2.318-1.395 3.225-1.528.882-.13 1.443.349 2.21.682.731.308 1.513.48 2.306.506.02 0 .036-.005.055-.006h.065c2.996-.299 6.774-2.617 7.961 1.606.265.934.442 1.89.528 2.857zM34.8 33.298v-1.191a.304.304 0 0 0-.355-.33.535.535 0 0 0-.356.514v1.363a.4.4 0 0 0-.032.132v8.734c0 .708.335 2.25-.323 2.736-.673.495-3.583 0-4.405 0-.918 0-3.616.495-4.405 0-.948-.598-.56-1.933-.56-2.917v-8.734a.4.4 0 0 0-.025-.13V32.14c0-.585-.726-.349-.727.12v1.047c-1.026.068-2.384.237-2.932-.609v-1.703c.129-.732.319-1.483.396-1.81.362-1.542.564-2.21 2.2-2.775 1.83-.631 2.991.317 4.723.664 2.819.566 4.878-1.904 7.591-.444 2.183 1.175 1.937 4.007 2.194 6.275-.322.695-2.143.451-2.984.395zm-5.684-9.609 2.874 1.92q-.125.072-.26.125a5.83 5.83 0 0 1-4.188.306 7 7 0 0 1-1.07-.587zm16.568 2.753a10 10 0 0 1-2.871-.904l2.79-1.86 3.021 2.019a13.8 13.8 0 0 1-2.94.745m-.41-5.109v1.735L41.927 25.3a3.13 3.13 0 0 0-1.487.12c-1.02.33-2.262.55-3.032 1.319a2.8 2.8 0 0 0-.673-.646 7.27 7.27 0 0 0-3.596-1.014 1.3 1.3 0 0 0-.257.07l-3.329-2.222v-1.592zm-16.407 0v1.72L25.66 25.19c-1.733-.236-4.127.626-4.983 2.183v-6.038zm-8.19 12.745c.84.217 1.962-.323 2.681.024q.06.03.127.05.035.178.104.346c.23.607 0 1.767 0 2.416v5.284c0 .725-.299 2.214.007 2.904.81 1.838 4.61.965 6.238.965 1.72 0 4.21.699 4.983-1.193.355-.87.01-2.604.01-3.52v-6.123q-.066-.636-.067-1.276c.124.406 1.486.237 2.053.15.18-.03.334-.054.477-.08q.03.007.059.01c2.916 0 2.633-.69 2.633 2.201 0 2.602-.333 5.442 0 8.022.157 1.212.181 1.43 1.42 1.742 2.195.552 5.743.217 8.002 0 1.077-.103 1.54-.052 1.939-1.169.656-1.835 0-5.085 0-7.023a26 26 0 0 1 0-3.452c.014-.102.035-.232.042-.342a9.3 9.3 0 0 0 1.645.02q.587-.03 1.158-.168v15.937h-33.51zm33.514-9.58v2.772a2.9 2.9 0 0 0-.92-1.055 4.45 4.45 0 0 0-3.665-.789.3.3 0 0 0-.113-.13l-3.444-2.302v-1.66h8.038c.044 1.076.104 2.145.104 3.163M20.677 52.727v-2.234H54.19v2.234zm37.71 6.033h-2.543c-.902 0-2.093.343-2.283-.774-.306-1.77 1.82-1.495 2.855-1.495a4.3 4.3 0 0 1 1.528.086c.403.169 1.331 1.914.443 2.183m-3.303-42.275c.774-1.036 1.807-.196 2.101.512.23.553 0 1.762 0 2.355v36.38c-.454 0-.915.036-1.338.036-.252 0-.508-.01-.763-.008V21.049c0-.48-.176-1.729-.218-2.82.15-.213.182-.536-.006-.637a2.17 2.17 0 0 1 .224-1.107m-1.022 4.145H47.19c.281-.332.426-.76.403-1.196a1.74 1.74 0 0 0-.387-1.007h6.871c-.041.72-.041 1.46-.016 2.203m-36.376-4.095c.802-1.101 1.805-.306 2.107.41.231.548 0 1.765 0 2.354v12.126q-.06.685 0 1.37v22.874c-.44 0-.886.034-1.294.034-.264 0-.539-.013-.813-.011V21.098c0-.832-.517-3.854 0-4.563m1.293 40.024c.374 0 .77-.036 1.145 0a1.266 1.266 0 0 1 1.246 1.217c.045.315.068.818-.354.915h-2.512c-.765 0-2.188.336-2.393-.658-.371-1.764 1.88-1.474 2.868-1.474"/></g><defs><clipPath id="a"><path fill="#fff" d="M15 15h44.87v44.87H15z"/></clipPath></defs></svg>