<svg xmlns="http://www.w3.org/2000/svg" width="74" height="74" fill="none" viewBox="0 0 74 74"><circle cx="37" cy="37" r="37" fill="#BCDABF"/><g clip-path="url(#a)"><path fill="#425C46" d="M28.968 20.68a.394.394 0 0 1-.315-.63l1.131-1.474-2.97 1.711a.394.394 0 0 1-.459-.633l1.89-1.698-1.43.824a.394.394 0 0 1-.472-.623l1.467-1.426-.995.575a.395.395 0 0 1-.557-.5l.48-1.081a.393.393 0 0 1-.275-.726l.914-.527a.393.393 0 0 1 .556.5l-.465 1.047 2.685-1.547a.393.393 0 0 1 .472.623l-1.467 1.424 1.94-1.12a.394.394 0 0 1 .46.634l-1.89 1.699 1.437-.83a.39.39 0 0 1 .493.079.394.394 0 0 1 .016.5l-1.13 1.478.63-.364a.394.394 0 0 1 .545.525l-.201.38a.393.393 0 0 1 .054.71l-.715.412a.393.393 0 0 1-.545-.525l.072-.137-1.16.67a.4.4 0 0 1-.196.05M28.864 54.527a.393.393 0 0 1-.315-.63l1.272-1.68-3.007 1.737a.394.394 0 0 1-.439-.65l.378-.297a.394.394 0 0 1-.393-.669l1.487-1.276-1.035.597a.393.393 0 0 1-.445-.645l.944-.772-.497.287a.393.393 0 0 1-.472-.625l2.35-2.255-1.878 1.086a.394.394 0 0 1-.467-.626l2.294-2.186-1.826 1.06a.394.394 0 0 1-.465-.63l2.125-1.968-1.66.952a.393.393 0 0 1-.444-.648l.68-.546-.236.136a.394.394 0 0 1-.455-.637l1.623-1.417-1.168.674a.393.393 0 0 1-.443-.647l.709-.573-.269.158a.393.393 0 0 1-.453-.639l1.51-1.3-1.055.608a.393.393 0 0 1-.456-.636l1.695-1.489-1.239.715a.393.393 0 0 1-.456-.637l1.691-1.485-1.235.713a.394.394 0 0 1-.449-.643l1.208-1.012-.759.439a.394.394 0 0 1-.46-.63l1.967-1.79-1.507.869a.393.393 0 0 1-.454-.637l1.597-1.39-1.143.659a.393.393 0 0 1-.444-.646l.829-.673-.385.22a.394.394 0 0 1-.472-.624l2.357-2.27-1.89 1.089a.393.393 0 0 1-.479-.614l.866-.898-.39.224a.394.394 0 0 1-.578-.434l.228-.932a.393.393 0 0 1-.043-.702l.394-.23a.393.393 0 0 1 .579.434l-.177.722 2.023-1.168a.394.394 0 0 1 .48.614l-.866.898 2.244-1.295a.393.393 0 0 1 .472.624l-2.357 2.271 1.89-1.09a.394.394 0 0 1 .444.646l-.828.672.384-.22a.394.394 0 0 1 .455.637l-1.597 1.389 1.143-.66a.394.394 0 0 1 .461.63l-1.968 1.79 1.51-.871a.394.394 0 0 1 .45.642l-1.211 1.015.763-.44a.393.393 0 0 1 .457.636l-1.69 1.482 1.233-.708a.394.394 0 0 1 .458.637l-1.697 1.49 1.24-.717a.394.394 0 0 1 .455.64l-1.5 1.294 1.052-.606a.394.394 0 0 1 .444.647l-.708.572.269-.158a.394.394 0 0 1 .455.638l-1.623 1.417 1.169-.675a.394.394 0 0 1 .444.647l-.679.545.236-.136a.394.394 0 0 1 .465.63l-2.126 1.973 1.665-.96a.394.394 0 0 1 .468.625l-2.296 2.186 1.829-1.057a.394.394 0 0 1 .472.625l-2.35 2.256 1.882-1.087a.394.394 0 0 1 .446.645l-.944.774.501-.29a.394.394 0 0 1 .453.64l-1.484 1.275 1.032-.596a.394.394 0 0 1 .44.65l-.38.297a.394.394 0 0 1 .452.607l-1.274 1.678.764-.44a.394.394 0 0 1 .576.448l-.202.717a.4.4 0 0 1 .216.303.39.39 0 0 1-.195.392l-.393.229a.394.394 0 0 1-.576-.448l.134-.472-1.613.93a.4.4 0 0 1-.214.05"/><path fill="#5D7F62" d="M25.156 56.9a.393.393 0 0 1-.288-.661l1.85-1.989-2.265 1.305a.393.393 0 0 1-.536-.539l.78-1.338-.02.01a.394.394 0 0 1-.394-.68l1.305-.753a.393.393 0 0 1 .536.539l-.781 1.338 3.255-1.876a.394.394 0 0 1 .485.609l-1.85 1.989 4.499-2.598a.393.393 0 0 1 .472.622l-1.753 1.715 2.775-1.602a.393.393 0 0 1 .46.63l-.716.642.493-.284a.394.394 0 0 1 .479.616l-.265.272a.393.393 0 0 1 .368.51l-.168.536a.394.394 0 0 1 0 .68l-.394.228a.393.393 0 0 1-.573-.458l.079-.258-1.246.72a.394.394 0 0 1-.478-.616l.118-.12-1.286.74a.394.394 0 0 1-.46-.629l.717-.643-2.22 1.281a.393.393 0 0 1-.472-.621l1.758-1.719-4.067 2.347a.4.4 0 0 1-.197.056"/><path fill="#809E85" d="M25.776 60.813a.394.394 0 0 1-.257-.692l2.257-1.945-4.39 2.535a.394.394 0 0 1-.442-.65l1.62-1.281-1.684.972a.394.394 0 0 1-.492-.602l1.643-1.85-1.151.666a.393.393 0 0 1-.502-.59l.41-.503a.394.394 0 0 1-.08-.715l1.305-.753a.393.393 0 0 1 .502.589l-.18.222 1.41-.81a.393.393 0 0 1 .49.6l-1.642 1.85 4.246-2.45a.393.393 0 0 1 .44.648l-1.62 1.283 3.344-1.932a.394.394 0 0 1 .454.638l-2.255 1.944 4.452-2.57a.394.394 0 0 1 .463.63l-2.453 2.264 3.273-1.889a.393.393 0 0 1 .467.63l-1.426 1.344 1.055-.608a.393.393 0 0 1 .525.56l-.595.888.07-.04a.393.393 0 0 1 .394.68l-1.535.882a.394.394 0 0 1-.524-.56l.594-.888-2.509 1.448a.394.394 0 0 1-.466-.63l1.426-1.338-3.416 1.968a.393.393 0 0 1-.464-.63l2.453-2.265-5.014 2.895a.4.4 0 0 1-.196.055"/><path fill="#425C46" d="M22.712 24.603a.394.394 0 0 1-.267-.682l.5-.462-1.892 1.09a.393.393 0 0 1-.509-.583l1.19-1.533-3.665 2.115a.394.394 0 0 1-.493-.079.394.394 0 0 1-.014-.5l1.184-1.523-3.407 1.967a.394.394 0 0 1-.512-.576l1.071-1.435-.892.515a.393.393 0 0 1-.527-.551l.236-.358a.394.394 0 0 1-.058-.709l.918-.53a.393.393 0 0 1 .526.556l-.059.09 1.128-.65a.393.393 0 0 1 .511.576l-1.075 1.433 3.494-2.017a.393.393 0 0 1 .508.583l-1.18 1.52 3.654-2.11a.394.394 0 0 1 .509.582l-1.19 1.534 3.193-1.844a.393.393 0 0 1 .463.63l-.498.463.043-.026a.394.394 0 0 1 .497.594l-.226.269a.39.39 0 0 1 .273.19.393.393 0 0 1-.144.538l-1.508.866a.394.394 0 0 1-.497-.595l.05-.06-1.134.655a.4.4 0 0 1-.2.057M34.804 24.627a.394.394 0 0 1-.256-.693l.419-.358-.945.545a.393.393 0 0 1-.472-.62l.523-.516-.098.056a.393.393 0 0 1-.583-.42l.187-.92a.394.394 0 0 1-.06-.709l.384-.22a.395.395 0 0 1 .583.418l-.15.734 1.997-1.154a.393.393 0 0 1 .473.62l-.522.515 1.968-1.135a.393.393 0 0 1 .452.639l-.42.359 1.732-.998a.394.394 0 0 1 .515.571l-1.18 1.622 3.8-2.193a.394.394 0 0 1 .501.59l-1.185 1.437 3.512-2.027a.393.393 0 0 1 .5.592l-1.18 1.425 3.494-2.017a.394.394 0 0 1 .493.6l-1.156 1.316 3.317-1.916a.393.393 0 0 1 .458.63l-.618.55 2.054-1.18a.393.393 0 0 1 .49.601l-1.146 1.288 3.279-1.89a.393.393 0 0 1 .503.586l-1.18 1.482 3.582-2.067a.393.393 0 0 1 .457.635l-.56.494 1.337-.77a.394.394 0 0 1 .469.63l-.49.465.144-.08a.394.394 0 0 1 .54.531l-.343.625a.394.394 0 0 1 .157.732l-.914.527a.393.393 0 0 1-.541-.53l.273-.496-1.789 1.019a.393.393 0 0 1-.467-.626l.489-.464-1.893 1.092a.394.394 0 0 1-.457-.636l.56-.494-1.96 1.131a.393.393 0 0 1-.504-.585l1.18-1.483-3.586 2.07a.394.394 0 0 1-.49-.602l1.146-1.29-3.282 1.895a.394.394 0 0 1-.459-.635l.62-.55-2.058 1.186a.393.393 0 0 1-.492-.6l1.155-1.315-3.322 1.919a.394.394 0 0 1-.5-.592l1.181-1.427-3.499 2.02a.394.394 0 0 1-.5-.59l1.186-1.437-3.518 2.03a.394.394 0 0 1-.515-.572l1.18-1.62-3.803 2.195a.4.4 0 0 1-.197.055"/><path fill="#fff" d="M40.055 60.813a.394.394 0 0 1-.211-.726l4.814-3.062-5.894 3.403a.393.393 0 0 1-.41-.67l8.865-5.74-8.596 4.963a.394.394 0 0 1-.406-.674l4.475-2.817-4.07 2.35a.393.393 0 0 1-.412-.67l10.277-6.73-9.864 5.694a.393.393 0 0 1-.41-.67l8.554-5.518-8.144 4.702a.393.393 0 0 1-.409-.672l7.774-4.986-7.365 4.25a.393.393 0 0 1-.41-.67l7.967-5.116-7.556 4.364a.393.393 0 0 1-.407-.674l5.168-3.262-4.762 2.749a.393.393 0 0 1-.448-.644l3.156-2.62-2.708 1.562a.393.393 0 0 1-.473-.62l1.746-1.731-1.272.732a.394.394 0 0 1-.49-.601l1.495-1.68-1.001.577a.394.394 0 0 1-.486-.608l.857-.928-.376.217a.393.393 0 0 1-.533-.545l.282-.467a.395.395 0 0 1-.1-.722l.918-.53a.394.394 0 0 1 .533.544l-.163.27 1.303-.752a.394.394 0 0 1 .486.608l-.861.93.852-.492a.394.394 0 0 1 .491.602l-1.495 1.68 1.787-1.032a.393.393 0 0 1 .473.62l-1.746 1.732 4.093-2.362a.394.394 0 0 1 .449.643l-3.157 2.623 17.988-10.385a.393.393 0 0 1 .406.674l-5.156 3.255 4.75-2.742a.394.394 0 0 1 .409.671l-7.967 5.117 7.557-4.363a.394.394 0 0 1 .408.672l-7.782 4.99 7.374-4.256a.393.393 0 0 1 .41.671l-8.548 5.51 8.139-4.696a.393.393 0 0 1 .412.67l-10.278 6.73 9.866-5.692a.394.394 0 0 1 .406.674l-4.487 2.824 4.081-2.356a.393.393 0 0 1 .41.671l-8.865 5.734 8.455-4.88a.394.394 0 0 1 .407.672l-4.816 3.063 4.408-2.545a.394.394 0 0 1 .41.67l-5.61 3.648 5.2-3.002a.393.393 0 0 1 .413.67l-4.875 3.22 4.463-2.577a.393.393 0 0 1 .42.666l-5.06 3.48 4.64-2.677a.394.394 0 0 1 .417.666l-2.136 1.444 1.719-.991a.393.393 0 0 1 .441.648l-4.093 3.262 3.652-2.108a.393.393 0 0 1 .456.636l-2.41 2.118 1.954-1.127a.394.394 0 0 1 .507.58l-1.185 1.537.678-.393a.393.393 0 0 1 .393.681l-2.404 1.386a.394.394 0 0 1-.508-.58l1.185-1.536-3.667 2.117a.393.393 0 0 1-.457-.637l2.409-2.116-4.769 2.755a.393.393 0 0 1-.441-.648l4.093-3.264-6.775 3.91a.394.394 0 0 1-.417-.666l2.132-1.44-3.652 2.105a.394.394 0 0 1-.522-.134c-.054-.085-.073-.187-.054-.285a.4.4 0 0 1 .157-.245l5.06-3.48-7.18 4.145a.394.394 0 0 1-.415-.669l4.88-3.22-6.74 3.889a.394.394 0 0 1-.412-.67l5.606-3.646-7.478 4.316a.4.4 0 0 1-.192.055"/><path fill="#fff" d="M57.317 38.568a.393.393 0 0 1-.358-.555l.467-1.033a.394.394 0 0 1-.263-.728l.918-.526a.394.394 0 0 1 .554.502l-.454.993 1.934-1.115a.393.393 0 1 1 .393.681l-2.991 1.732a.4.4 0 0 1-.2.05"/><path fill="#fff" d="M47.872 44.05a.393.393 0 0 1-.254-.693l2.856-2.427-2.405 1.388a.393.393 0 0 1-.46-.63l1.156-1.037-.696.4a.393.393 0 0 1-.477-.616l1.048-1.059-.571.33a.393.393 0 0 1-.473-.622l.748-.73-.276.158a.394.394 0 0 1-.551-.504l.466-1.023a.394.394 0 0 1-.263-.73l.916-.53a.394.394 0 0 1 .55.505l-.447.986 1.927-1.113a.394.394 0 0 1 .472.622l-.749.731.394-.229a.394.394 0 0 1 .477.617l-1.047 1.058 1.417-.817a.393.393 0 0 1 .46.63l-1.156 1.038 2.913-1.68a.393.393 0 0 1 .45.64l-2.857 2.428 5.334-3.079a.394.394 0 0 1 .394.682l-9.1 5.253a.4.4 0 0 1-.196.053"/><path fill="#00AF1A" d="M45.487 51.367a.394.394 0 0 1-.3-.649l.793-.933-2.65 1.527a.394.394 0 0 1-.59-.326.4.4 0 0 1 .082-.253l1.175-1.524-2.225 1.283a.394.394 0 0 1-.56-.493l.512-1.22a.393.393 0 0 1-.304-.72l.914-.527a.393.393 0 0 1 .56.492l-.505 1.203 2.94-1.694a.393.393 0 0 1 .508.581l-1.176 1.523 2.892-1.67a.393.393 0 0 1 .497.596l-.792.933.37-.215a.393.393 0 0 1 .394.682l-2.34 1.349a.4.4 0 0 1-.195.055M43.972 57.664a.394.394 0 0 1-.296-.653l1.15-1.313-2.863 1.653a.394.394 0 0 1-.46-.63l.355-.315-.086.05a.394.394 0 0 1-.551-.515l.417-.851a.394.394 0 0 1-.218-.733l.914-.527a.394.394 0 0 1 .55.514l-.38.774 2.23-1.288a.394.394 0 0 1 .46.63l-.355.32 1.65-.95a.393.393 0 0 1 .492.6l-1.15 1.313 1.797-1.036a.393.393 0 0 1 .557.5l-.503 1.142a.394.394 0 0 1 .305.72l-.944.545a.393.393 0 0 1-.557-.499l.495-1.121-2.812 1.615a.4.4 0 0 1-.197.055M53.389 51.367a.394.394 0 0 1-.27-.681l.812-.764-2.282 1.317a.394.394 0 0 1-.512-.577l1.114-1.495-1.035.597a.392.392 0 0 1-.533-.55l.272-.442a.393.393 0 0 1-.091-.72l.914-.526a.394.394 0 0 1 .532.546l-.141.229 1.347-.768a.394.394 0 0 1 .513.576l-1.115 1.495 3.554-2.055a.393.393 0 0 1 .467.63l-.812.764.951-.55a.394.394 0 0 1 .473.619l-.276.276a.394.394 0 0 1 .195.734l-2.237 1.29a.394.394 0 0 1-.472-.619l.13-.13-1.298.749a.4.4 0 0 1-.2.055M53.481 45.07a.397.397 0 0 1-.394-.382.4.4 0 0 1 .083-.253l1.176-1.521-3.01 1.737a.393.393 0 0 1-.491-.602l.811-.912-.438.253a.393.393 0 0 1-.528-.551l.237-.365a.394.394 0 0 1-.06-.71l.913-.526a.393.393 0 0 1 .527.55l-.066.102 1.137-.656a.393.393 0 0 1 .49.603l-.812.912 2.625-1.513a.394.394 0 0 1 .509.581l-1.178 1.52 2.06-1.19a.393.393 0 0 1 .557.499l-.488 1.118a.4.4 0 0 1 .427.188.393.393 0 0 1-.144.537l-.913.527a.394.394 0 0 1-.558-.497l.473-1.092-2.755 1.59a.4.4 0 0 1-.19.053M54.26 57.664a.393.393 0 0 1-.307-.64l1.145-1.417-3.385 1.954a.394.394 0 0 1-.497-.595l1.119-1.325-1.117.645a.39.39 0 0 1-.472-.058.394.394 0 0 1-.073-.473l.36-.667a.395.395 0 0 1-.169-.733l.914-.527a.394.394 0 0 1 .589.282.4.4 0 0 1-.044.248l-.298.551 1.872-1.078a.394.394 0 0 1 .497.595l-1.114 1.32 3.257-1.88a.39.39 0 0 1 .496.084.394.394 0 0 1 .008.503l-1.146 1.417 1.18-.682a.394.394 0 0 1 .543.531l-.346.63a.394.394 0 0 1 .157.731l-.913.528a.394.394 0 0 1-.542-.532l.277-.503-1.79 1.036a.4.4 0 0 1-.201.055M52.722 34.05a.394.394 0 0 1-.274-.677l1.509-1.471-1.952 1.127a.394.394 0 0 1-.445-.646l.54-.436-.092.052a.394.394 0 0 1-.482-.612l.67-.704-.188.108a.39.39 0 0 1-.482-.07.394.394 0 0 1-.045-.485l.236-.36a.394.394 0 0 1-.059-.709l.914-.527a.394.394 0 0 1 .527.555l-.062.096 1.128-.651a.394.394 0 0 1 .482.611l-.67.704 2.005-1.156a.394.394 0 0 1 .445.645l-.534.435.394-.227a.394.394 0 0 1 .472.623l-1.511 1.468 1.039-.6a.394.394 0 0 1 .538.535l-.52.914a.394.394 0 0 1 .37.695l-1.23.709a.394.394 0 0 1-.538-.535l.518-.912-2.506 1.445a.4.4 0 0 1-.197.055"/><path fill="#425C46" d="M27.139 29.326a.394.394 0 0 1-.23-.713l.254-.182-1.119.645a.394.394 0 0 1-.444-.647l2.972-2.385-3.315 1.91a.394.394 0 0 1-.443-.649l2.756-2.19-2.329 1.345a.394.394 0 0 1-.437-.653l1.597-1.234-1.16.668a.394.394 0 0 1-.452-.64l2.091-1.785-1.639.945a.394.394 0 0 1-.45-.641l1.235-1.042-.787.452a.394.394 0 0 1-.538-.537l.802-1.38-.036.02a.393.393 0 0 1-.393-.681l1.305-.757a.388.388 0 0 1 .584.288.4.4 0 0 1-.048.247l-.798 1.39 3.353-1.935a.394.394 0 0 1 .45.64l-1.235 1.044 1.531-.887a.394.394 0 0 1 .452.64l-2.09 1.782 2.486-1.435a.393.393 0 0 1 .437.652l-1.6 1.238 1.857-1.073a.394.394 0 0 1 .442.65l-2.755 2.192 3.179-1.835a.393.393 0 0 1 .444.647l-2.97 2.387 3.433-1.981a.394.394 0 0 1 .426.66l-.252.181.367-.21a.393.393 0 0 1 .44.649l-.944.747.68-.394a.394.394 0 0 1 .492.602l-1.155 1.3.503-.289a.394.394 0 0 1 .394.68l-2.598 1.497a.394.394 0 0 1-.491-.601l1.151-1.303-3.294 1.906a.394.394 0 0 1-.44-.65l.948-.747-2.422 1.397a.4.4 0 0 1-.197.055"/><path fill="#fff" d="M33.864 25.39a.394.394 0 0 1-.374-.514l.277-.866-2.292 1.325a.394.394 0 0 1-.472-.62l.984-.972-1.702.983a.394.394 0 0 1-.454-.639l.936-.809-.805.464a.394.394 0 0 1-.48-.614l1.51-1.562-1.03.594a.393.393 0 0 1-.477-.616l.315-.321a.393.393 0 0 1-.412-.507l.186-.61a.394.394 0 0 1-.006-.686l.394-.227a.393.393 0 0 1 .573.456l-.104.343 1.386-.797a.393.393 0 0 1 .477.616l-.22.225.957-.551a.393.393 0 0 1 .479.614l-1.509 1.56 2.003-1.157a.393.393 0 0 1 .453.638l-.935.81.726-.42a.393.393 0 0 1 .472.622l-.983.97.52-.3a.394.394 0 0 1 .572.46l-.315.98a.394.394 0 0 1 .146.731l-.6.346a.4.4 0 0 1-.196.051"/><path fill="#0C160D" d="M60.907 22.272c-.35-1.909-3.418-2.04-6.233-1.87l-23.05-5.204c-.287-1.36-5.088-1.286-5.328.125-3.362 1.702-6.634 3.785-10.046 5.29-.977.049-1.553.098-1.819 1.18-1.058 5.15 7.164 2.165 10.118 2.912.015 1.546-.473 4.148 1.609 4.52v22.916c-1.928-.023-2.578 1.635-2.392 3.279-2.24.493-2.489 5.659.274 5.375 3.341-.49 13.193 2.398 11.685-3.45a1.95 1.95 0 0 0-1.579-1.856c.224-1.7-.382-3.48-2.426-3.367V29.321c2.792.173 3.443-2.366 3.265-4.727 6.393.122 12.242-.281 18.7.224v3.633c-3.005-.505-2.382 3.202-2.106 5.085.902 1.18 2.788.398 4.093.602 1.662-.135 1.203-2.557 1.198-3.7.303-1.54-.866-2.214-2.258-1.95v-3.6c3.115.198 6.784.045 6.295-2.616m-5.267 7.15c.779.208.509 1.287.509 1.867.663 2.695-1.782 1.85-3.498 1.925-.76-.213-.509-1.285-.509-1.868-.644-2.748 1.767-1.853 3.498-1.925m-25.478-9.46c.421-.048.909.113 1.286-.1 2.702 0 2.746 2.677 2.558 4.774-4.106.687-4.106-1.441-3.844-4.675m1.536-.767c0-1.03.022-2.062 0-3.092l20.098 4.54c-5.798.21-11.513.018-17.304.08a3.3 3.3 0 0 0-2.794-1.528m-4.373-3.957c4.21-.31 3.653-.044 3.613 3.821-1.317.026-2.653-.063-3.965 0 0-1.108 0-2.204-.015-3.312a.3.3 0 0 0 .071-.26.47.47 0 0 1 .296-.249m-1.114.954c-.03 1.009-.008 2.022 0 3.032a2.07 2.07 0 0 0-1.553 1.388c-2.185-.007-4.385-.075-6.574-.045zm-1.991 7.573c-1.696-.477-12.4 1.512-8.243-2.208 2.809-.19 5.724.11 8.553 0-.046.723-.03 1.466-.005 2.204a3 3 0 0 1-.305.004m10.13 36.324c-2.741-.787-12.444 2.255-11.223-2.476 1.863-3.158 7.199-.871 10.357-1.531.97.326 2.27 3.342.867 4.007m-1.131-4.733c-2.86-.074-5.65.039-8.527-.079-.072-1.066.186-2.224 1.534-2.423.126.157.411.114.608-.037a33 33 0 0 0 4.127.056c.086.152.283.136.456.033 1.591.001 1.893 1.188 1.802 2.45m-2.303-3.241a25 25 0 0 1-3.886.006V29.32c1.298.005 2.589 0 3.886 0zm1.056-23.523h-.354c-1.902-.43-5.161 1.149-6.14-1.188.295-3.93-1.959-8.33 3.832-7.443-.252 4.064-.19 6.219 4.706 5.473.015 1.46-.146 2.966-2.044 3.158m15.923-4.72H34.958c.02-.813-.04-1.626-.183-2.427 6.998-.005 14.045.007 21.017 0 1.31 0 3.7-.618 4.184.842 1.533 3.117-10.117 1.024-12.08 1.586"/><path fill="#0C160D" d="M60.854 36.758c-.337-1.645-3.657-1.826-3.959.086-.403 1.496 1.064 1.195-1.084 1.14-1.008-.027-2.724.314-3.68 0-1.514-.5.066.168-.724-1.278a2.1 2.1 0 0 0-2.834-1.049c-2.343 1.605-.722 6.114-1.108 8.698a20.6 20.6 0 0 1-5.51-.134c-.357-.342.218-1.475-.314-1.995-4.509-2.236-4.044 4.193-3.654 6.938.325 3.727-.643 7.826.315 11.391 6.888.781 14.405.177 21.406.272 2.986-1.145.373-19.575 1.146-24.07m-1.088 23.266c-5.471.764-12.029-.432-17.66 0-2.288 0-3.293.346-3.293-2.216.157-4.644-.248-9.446 0-14.044.686-1.731 2.326-.954 2.326 1.005.007.592 7.198.689 7.12-.14.114-2.533-.184-5.297 0-7.772.986-1.544 2.327.517 2.327 1.614.112.577 7.163.701 7.12-.14 3.779-8.825 1.945 13.388 2.326 15.244-.002 1.062.729 5.68-.266 6.45"/><path fill="#0C160D" d="M42.17 51.43c1.662.166 3.336.15 4.994-.044 1.464-.373 1.667-3.779-.032-3.978-1.559-.02-3.167-.066-4.723 0-1.673.22-1.876 3.725-.239 4.022m.097-3.143c1.519-.006 3.19-.053 4.707 0 2.07 2.799-1.456 2.283-3.268 2.27a1.374 1.374 0 0 1-1.439-2.27M47.038 53.673c-1.555-.027-3.169-.068-4.723 0-1.653.23-1.624 3.779-.05 4.08 1.5.291 3.288.013 4.819.013 1.623-.369 1.687-3.878-.046-4.093m0 3.149c-1.59-.158-3.44.322-4.92-.188-1.39-2.609 1.99-1.996 3.555-2.017a5 5 0 0 1 1.394 0c.63.227.702 2.058-.029 2.205M51.737 51.46c1.618.145 3.246.142 4.864-.008 1.579-.315 1.562-3.862-.095-4.076a20 20 0 0 0-2.484 0 13.7 13.7 0 0 0-2.283.009c-1.623.288-1.618 3.79-.002 4.076m-.161-2.96c1.487-.438 3.351-.105 4.915-.18.713.236.69 1.998-.046 2.204-1.696-.261-6.41 1.118-4.87-2.024M56.624 41.1c-1.911.256-6.151-1.187-6.008 1.87-.578 3.482 3.824 1.858 5.87 2.174 1.59-.32 1.836-3.771.138-4.043m-.087 3.15c-1.536-.05-3.126.078-4.636 0-2.23-2.853 1.512-2.231 3.298-2.249a1.325 1.325 0 0 1 1.338 2.248M56.517 53.68c-1.557-.014-3.17-.078-4.723 0-1.64.241-1.721 3.784-.117 4.075 1.509.273 3.282.005 4.818.005 1.622-.369 1.774-3.887.022-4.08m0 3.15c-1.678-.158-6.988.918-4.745-2.22 1.53 0 3.184-.055 4.707 0 .605.217.77 2.072.038 2.22"/></g><defs><clipPath id="a"><path fill="#fff" d="M14 14h47.23v47.23H14z"/></clipPath></defs></svg>