<svg xmlns="http://www.w3.org/2000/svg" width="74" height="74" fill="none" viewBox="0 0 74 74"><circle cx="37" cy="37" r="37" fill="#FAECBC"/><g clip-path="url(#a)"><path fill="#3D3B33" d="M16.717 32.562a.374.374 0 0 1-.204-.687l4.12-2.677-4.41 2.546a.374.374 0 0 1-.392-.636l3.992-2.628-3.012 1.74a.375.375 0 0 1-.393-.637l1.332-.872a.373.373 0 0 1-.391-.635l3.185-2.297-1.48.855a.374.374 0 0 1-.421-.615l1.877-1.508-.19.11a.373.373 0 0 1-.46-.58l1.195-1.271a.373.373 0 0 1 .039-.622l1.242-.718a.374.374 0 0 1 .46.58l-.655.696 2.214-1.278a.373.373 0 0 1 .421.615l-1.877 1.509 3.677-2.124a.373.373 0 0 1 .406.627l-3.189 2.298 5.066-2.925a.373.373 0 0 1 .393.637l-1.328.87 2.609-1.507a.374.374 0 0 1 .393.637l-3.994 2.627 5.654-3.263a.374.374 0 0 1 .39.637l-4.117 2.675 5.737-3.312a.374.374 0 0 1 .393.636l-5.4 3.565 7.277-4.2a.374.374 0 0 1 .395.635l-5.98 3.984 8.002-4.62a.374.374 0 0 1 .4.632l-7.436 5.126 9.972-5.756a.373.373 0 0 1 .398.633l-7.071 4.823 9.45-5.456a.375.375 0 0 1 .396.634l-6.237 4.177 8.334-4.811a.374.374 0 0 1 .391.637l-4.312 2.807 5.967-3.444a.373.373 0 0 1 .507.13c.105.174.051.4-.12.51l-1.075.68 2.287-1.32a.375.375 0 0 1 .391.638l-3.958 2.567 5.247-3.029a.374.374 0 0 1 .393.636l-4.546 2.978 4.883-2.82a.374.374 0 0 1 .398.633l-5.736 3.922 6.018-3.474a.375.375 0 0 1 .393.636l-1.775 1.165 1.846-1.066a.374.374 0 0 1 .395.635l-1.772 1.18 1.85-1.067a.374.374 0 0 1 .397.633l-1.895 1.293 1.987-1.148a.374.374 0 0 1 .409.626l-2.836 2.08 3.03-1.75a.375.375 0 0 1 .414.62l-2.132 1.629 2.3-1.327a.373.373 0 0 1 .417.618l-1.246.977 1.345-.776a.374.374 0 0 1 .447.591l-1.36 1.323L58 29.457a.373.373 0 0 1 .46.578l-.532.572.584-.337a.375.375 0 0 1 .484.553l-.146.188c.12.012.26.065.33.187a.373.373 0 0 1-.137.51l-1.38.798a.375.375 0 0 1-.484-.553l.07-.09-1.114.642a.373.373 0 0 1-.46-.578l.532-.571-1.993 1.15a.373.373 0 0 1-.447-.591l1.36-1.323-3.316 1.915a.373.373 0 0 1-.418-.618l1.249-.979-2.766 1.597a.374.374 0 0 1-.415-.62l2.13-1.626-3.89 2.247a.375.375 0 0 1-.408-.625l2.835-2.082-4.69 2.707a.37.37 0 0 1-.503-.125.373.373 0 0 1 .105-.507l1.893-1.293-3.334 1.925a.374.374 0 0 1-.395-.635l1.778-1.184-3.151 1.82a.375.375 0 0 1-.393-.636l1.775-1.165-3.12 1.8a.374.374 0 0 1-.398-.633l5.736-3.921-7.89 4.555a.375.375 0 0 1-.393-.636l4.555-2.983-6.27 3.619a.374.374 0 0 1-.391-.638l3.951-2.563-5.544 3.201a.37.37 0 0 1-.507-.13.375.375 0 0 1 .12-.51l1.075-.681-2.29 1.322a.374.374 0 0 1-.391-.637l4.316-2.81-5.97 3.446a.373.373 0 0 1-.395-.634l6.235-4.176-8.333 4.81a.37.37 0 0 1-.503-.124.373.373 0 0 1 .105-.508l7.073-4.825-9.455 5.459a.374.374 0 0 1-.4-.632l7.435-5.125-9.971 5.756a.374.374 0 0 1-.395-.635l5.98-3.985-8.005 4.621a.374.374 0 0 1-.393-.635l5.397-3.564-7.275 4.2a.4.4 0 0 1-.187.05z"/><path fill="#E0E0E0" d="M57.594 36.294a.374.374 0 0 1-.187-.698l1.506-.869a.37.37 0 0 1 .51.137.373.373 0 0 1-.136.51l-1.506.87a.4.4 0 0 1-.187.05"/><path fill="#fff" d="M17.018 53.491a.373.373 0 0 1-.194-.693l8.642-5.254-9.448 5.454a.374.374 0 0 1-.384-.642l14.44-8.929-14.117 8.15a.373.373 0 0 1-.381-.643l6.9-4.207-6.519 3.764a.375.375 0 0 1-.533-.464l.504-1.244a.37.37 0 0 1-.441-.169.373.373 0 0 1 .137-.51l.868-.502a.374.374 0 0 1 .533.464l-.5 1.233 32.732-18.897a.374.374 0 0 1 .381.643l-6.895 4.203 8.394-4.846a.374.374 0 0 1 .384.642l-14.446 8.933 16.585-9.575a.374.374 0 0 1 .381.643l-8.645 5.257 10.218-5.9a.375.375 0 0 1 .384.642L41.34 40.093l16.782-9.689a.374.374 0 0 1 .384.642l-16.31 10.128 16.716-9.649a.374.374 0 0 1 .383.642l-11.388 7 11.006-6.355a.374.374 0 0 1 .382.643l-6.465 3.944 6.083-3.51a.373.373 0 0 1 .385.64L47.7 41.76l8.233-4.752a.373.373 0 0 1 .386.64l-7.854 4.926 7.46-4.306a.374.374 0 0 1 .385.642l-4.451 2.773 4.066-2.348a.374.374 0 0 1 .389.639l-7.31 4.681 6.922-3.996a.374.374 0 0 1 .386.64l-1.719 1.076 1.333-.769a.374.374 0 0 1 .39.64l-4.246 2.728 3.856-2.226a.374.374 0 0 1 .399.632l-6.851 4.72 6.452-3.726a.374.374 0 0 1 .395.635l-2.885 1.92 2.49-1.438a.374.374 0 0 1 .402.63l-3.568 2.512 3.311-1.911a.374.374 0 0 1 .397.633l-.439.297.554-.32a.374.374 0 0 1 .41.624l-2.128 1.578 3.338-1.927a.374.374 0 0 1 .407.626l-1.333.967 1.633-.942a.373.373 0 0 1 .415.62l-1.392 1.068.986-.569a.374.374 0 0 1 .448.59l-1.37 1.337.921-.531a.374.374 0 0 1 .523.487l-.459.943a.374.374 0 0 1 .29.684l-.963.555a.374.374 0 0 1-.523-.487l.45-.924-2.447 1.412a.373.373 0 0 1-.448-.59l1.369-1.336-3.338 1.926a.374.374 0 0 1-.415-.62l1.393-1.07-2.927 1.69a.374.374 0 0 1-.407-.626l1.333-.967-2.759 1.593a.373.373 0 0 1-.41-.624l2.128-1.577-3.814 2.201a.374.374 0 0 1-.397-.633l.44-.298-1.613.931a.373.373 0 0 1-.403-.63l3.573-2.514-5.447 3.144a.374.374 0 0 1-.395-.635l2.878-1.916-4.416 2.55a.37.37 0 0 1-.504-.124.373.373 0 0 1 .105-.508l6.854-4.72-9.272 5.352a.374.374 0 0 1-.39-.638l4.24-2.726-5.826 3.364a.373.373 0 0 1-.386-.641l1.722-1.079-2.977 1.72a.374.374 0 0 1-.389-.639l7.313-4.683-9.217 5.32a.373.373 0 0 1-.385-.64l4.447-2.771-5.91 3.411a.374.374 0 0 1-.386-.64l7.86-4.93-9.648 5.57a.374.374 0 0 1-.385-.642l11.591-7.226-13.627 7.867a.373.373 0 0 1-.382-.643l6.471-3.948-7.953 4.591a.373.373 0 0 1-.383-.642l11.397-7.004-13.244 7.646a.374.374 0 0 1-.384-.641l16.31-10.129-18.656 10.77a.375.375 0 0 1-.384-.642l14.657-9.048-16.787 9.691a.4.4 0 0 1-.187.051"/><path fill="#fff" d="M18.534 47.573a.374.374 0 0 1-.198-.692l6.684-4.15-6.071 3.505a.374.374 0 0 1-.386-.64l6.02-3.76-5.634 3.253a.375.375 0 0 1-.387-.64l6.525-4.127-6.139 3.544a.374.374 0 0 1-.385-.641l2.43-1.52-2.044 1.181a.373.373 0 0 1-.508-.13.375.375 0 0 1 .12-.51l4.059-2.584-3.672 2.12a.375.375 0 0 1-.392-.637l5.466-3.589-5.073 2.929a.374.374 0 0 1-.39-.638l1.701-1.096-1.312.757a.374.374 0 0 1-.39-.638l.411-.265-.021.012a.374.374 0 0 1-.396-.634l2.324-1.567-1.947 1.124a.373.373 0 0 1-.41-.624l3.517-2.61-3.782 2.184a.374.374 0 0 1-.403-.629l1.107-.784-2.012 1.162a.373.373 0 0 1-.419-.617l2.521-1.99-3.093 1.785a.374.374 0 0 1-.423-.612l1.775-1.452-1.352.78a.374.374 0 0 1-.431-.606l.586-.51-.155.09a.374.374 0 0 1-.529-.474l.459-1.04a.375.375 0 0 1-.264-.69l.87-.502a.373.373 0 0 1 .529.476l-.447 1.01 2.571-1.485a.374.374 0 0 1 .432.607l-.589.51 1.933-1.116a.373.373 0 0 1 .423.613l-1.775 1.452 3.577-2.066a.374.374 0 0 1 .419.617l-2.522 1.992 4.518-2.609a.373.373 0 0 1 .403.63l-1.103.78 2.442-1.41a.374.374 0 0 1 .41.624l-3.519 2.61 5.604-3.234a.374.374 0 0 1 .396.634l-2.322 1.566 3.81-2.199a.374.374 0 0 1 .39.638l-.412.265 1.565-.903a.374.374 0 0 1 .39.638l-1.708 1.1 3.01-1.737a.373.373 0 0 1 .393.636l-5.464 3.588 7.316-4.223a.374.374 0 0 1 .388.64l-4.059 2.584 5.584-3.224a.373.373 0 0 1 .385.64l-2.432 1.52 3.744-2.16a.374.374 0 0 1 .387.64l-6.522 4.125 8.252-4.765a.373.373 0 0 1 .385.641l-6.019 3.76 7.621-4.4a.374.374 0 0 1 .384.642l-6.684 4.149 8.3-4.79a.37.37 0 0 1 .51.136.373.373 0 0 1-.137.51L18.72 47.523a.4.4 0 0 1-.186.05"/><path fill="#3D3B33" d="M23.216 48.257a.375.375 0 0 1-.21-.684l4.21-2.857-5.226 3.017a.374.374 0 0 1-.4-.632l6.395-4.406-6.044 3.49a.374.374 0 0 1-.391-.637l2.417-1.575-2.027 1.17a.374.374 0 0 1-.394-.636l3.209-2.124-2.816 1.625a.374.374 0 0 1-.404-.628l4.469-3.183-4.065 2.346a.374.374 0 0 1-.404-.628l2.552-1.83-2.148 1.24a.374.374 0 0 1-.431-.607l2.85-2.463-2.418 1.396a.374.374 0 0 1-.417-.619l.268-.209a.373.373 0 0 1-.305-.633l.514-.522-.06.035a.374.374 0 0 1-.502-.525l.231-.36a.375.375 0 0 1-.064-.679l.87-.502a.374.374 0 0 1 .502.526l-.08.123 1.124-.648a.375.375 0 0 1 .454.586l-.514.522 1.919-1.108a.374.374 0 0 1 .417.618l-.085.066 1.186-.684a.374.374 0 0 1 .432.606l-2.85 2.464 5.316-3.07a.37.37 0 0 1 .501.122.373.373 0 0 1-.096.506l-2.554 1.83 4.258-2.457a.374.374 0 0 1 .404.628l-4.47 3.185 6.605-3.813a.374.374 0 0 1 .394.636l-3.204 2.12 3.591-2.072a.373.373 0 0 1 .391.637l-2.413 1.572 2.027-1.17a.374.374 0 0 1 .4.632L29.731 42.4l5.998-3.462a.374.374 0 0 1 .397.633l-4.204 2.853 3.807-2.197a.374.374 0 0 1 .402.63l-3.56 2.501 3.158-1.823a.374.374 0 0 1 .396.633l-.342.232a.375.375 0 0 1 .377.634l-2.942 2.529 2.51-1.45a.374.374 0 0 1 .422.615l-.537.433.114-.066a.374.374 0 0 1 .483.553l-.743.957.261-.15a.37.37 0 0 1 .511.136.373.373 0 0 1-.137.511l-1.915 1.106a.373.373 0 0 1-.482-.553l.743-.958-2.617 1.512a.373.373 0 0 1-.422-.614l.537-.433-1.815 1.047a.374.374 0 0 1-.431-.608l2.941-2.529-5.432 3.136a.374.374 0 0 1-.396-.633l.288-.196-1.436.828a.373.373 0 0 1-.401-.63l3.552-2.495-5.414 3.126a.37.37 0 0 1-.187.05z"/><path fill="#3D3B33" d="M21.762 47.609a.375.375 0 0 1-.34-.53l.53-1.16-.012.006a.37.37 0 0 1-.466-.075.37.37 0 0 1-.02-.472l.359-.483a.374.374 0 0 1-.362-.588l.929-1.28-.44.253a.374.374 0 0 1-.453-.586l.39-.396a.373.373 0 0 1-.404-.6l1.338-1.505-.872.503a.373.373 0 0 1-.444-.594l1.048-.998-.604.348a.373.373 0 0 1-.441-.598l1.015-.944-.574.33a.374.374 0 0 1-.526-.48l.431-.925a.375.375 0 0 1-.24-.694l.874-.505a.374.374 0 0 1 .526.48l-.412.885 2.405-1.389a.374.374 0 0 1 .441.598l-1.014.944.46-.265a.373.373 0 0 1 .444.595l-1.048.998.162-.093a.373.373 0 0 1 .467.57l-1.338 1.505.314-.181a.375.375 0 0 1 .453.586l-.576.585a.374.374 0 0 1 .255.59l-.95 1.309a.373.373 0 0 1 .39.586l-.54.726q.06.024.11.07c.12.109.156.284.088.432l-.693 1.52q.057.045.096.11a.373.373 0 0 1-.137.51l-.434.252a.4.4 0 0 1-.187.05zM45.8 48.256a.374.374 0 0 1-.214-.68l.116-.08-1.231.71a.374.374 0 0 1-.409-.624l3.526-2.607-5.599 3.231a.373.373 0 0 1-.402-.63l4.506-3.171-6.49 3.747a.375.375 0 0 1-.391-.638l1.573-1.019-1.645.949a.375.375 0 0 1-.392-.637l2.788-1.821-2.396 1.383a.374.374 0 0 1-.393-.636l3.533-2.326-3.14 1.813a.373.373 0 0 1-.395-.634l4.101-2.753-3.707 2.14a.374.374 0 0 1-.405-.628l4.578-3.286-4.173 2.409a.374.374 0 0 1-.41-.624l3.152-2.346-2.742 1.583a.373.373 0 0 1-.41-.624l1.26-.935-.85.49a.373.373 0 0 1-.45-.59l1.71-1.696-1.26.727a.373.373 0 0 1-.532-.468l.487-1.163a.373.373 0 0 1-.289-.684l.87-.502a.373.373 0 0 1 .532.47l-.48 1.144 2.794-1.613a.374.374 0 0 1 .45.589l-1.71 1.697 3.96-2.286a.375.375 0 0 1 .41.624l-1.256.932 2.696-1.556a.375.375 0 0 1 .41.624l-3.153 2.347 5.146-2.97a.374.374 0 0 1 .405.627l-4.578 3.286 6.778-3.913a.373.373 0 0 1 .396.634l-4.097 2.75 4.55-2.628a.373.373 0 0 1 .505.127.375.375 0 0 1-.112.51l-3.54 2.33 3.148-1.817a.375.375 0 0 1 .392.637l-2.788 1.821 2.396-1.383a.374.374 0 0 1 .391.638l-1.565 1.014 1.174-.678a.374.374 0 0 1 .402.63l-4.51 3.174 4.108-2.37a.374.374 0 0 1 .409.624l-3.524 2.605 3.115-1.798a.373.373 0 0 1 .4.63l-.293.204a.375.375 0 0 1 .326.646l-1.974 1.738 1.54-.889a.373.373 0 0 1 .431.607l-.297.256a.375.375 0 0 1 .342.609l-.3.363a.373.373 0 0 1 .198.698l-1.535.887a.375.375 0 0 1-.476-.562l.22-.266-1.434.828a.374.374 0 0 1-.43-.607l.19-.163-1.335.769a.375.375 0 0 1-.434-.604l1.976-1.738-4.058 2.342a.4.4 0 0 1-.187.05z"/><path fill="#3D3B33" d="M52.625 47.194a.372.372 0 0 1-.352-.498l.163-.461a.376.376 0 0 1-.422-.533l.198-.389a.373.373 0 0 1-.473-.506l.546-1.183-.434.25a.374.374 0 0 1-.473-.564l.135-.16a.372.372 0 0 1-.383-.577l.76-1.115-.64.369a.373.373 0 0 1-.483-.553l.885-1.14-.77.445a.375.375 0 0 1-.478-.558l1.168-1.45-1.095.632a.375.375 0 0 1-.437-.602l.141-.127a.374.374 0 0 1-.378-.62l.156-.157a.374.374 0 0 1-.494-.345l-.02-.834a.374.374 0 0 1-.145-.696l.32-.184a.374.374 0 0 1 .56.316l.017.75 1.848-1.065a.374.374 0 0 1 .45.589l-.137.135.509-.293a.373.373 0 0 1 .436.602l-.224.202a.376.376 0 0 1 .331.607l-1.168 1.45.69-.397a.373.373 0 0 1 .482.553l-.884 1.138.402-.232a.37.37 0 0 1 .461.07c.119.126.134.32.035.463l-.759 1.116.263-.152a.373.373 0 0 1 .473.563l-.24.289a.373.373 0 0 1 .292.527l-.544 1.183.019-.01a.37.37 0 0 1 .444.052c.12.113.15.294.076.44l-.267.524a.374.374 0 0 1 .286.492l-.224.635a.373.373 0 0 1 .058.675l-.49.284a.37.37 0 0 1-.188.05z"/><path fill="#262626" d="M21.19 47.302c.259 1.826 11.623.453 13.929.814 2.01-.206 1.213-2.56 1.362-3.945-.286-2.126.377-5.14-.021-7.39a1.674 1.674 0 0 0-1.67-1.386c-15.676.258-13.6-3.478-13.6 11.907m10.724-11.126c1.066.268 3.126-.686 3.485.679.053 3.571-.068 7.28.024 10.813-4.254-.144-8.651.28-12.841-.144l3.339-11.348zm-9.592 0c.826-.04 1.713.026 2.56 0l-2.62 8.901c.024-2.965-.011-5.956.014-8.902a.1.1 0 0 0 .046 0"/><path fill="#262626" d="M16.31 53.438c14.241-.317 28.787.615 42.889-.325.464-.344.465-.804.465-1.319.844-7.76-3.476-1.047-2.992-7.299.505-2.097-1.228-7.568 1.115-8.257.891.07 1.928-.33 1.877-1.373.725-3.308-1.164-5.78-2.904-8.39-1.507-2.182-2.46-5.806-5.788-5.074-9.49.024-18.992-.043-28.474.015-2.627.702-5.561 7.491-7.17 9.901-.172 1.388-.295 3.094.023 4.46.392.607 1.086.388 1.68.46 2.363.53.744 8.247 1.148 10.483-.238 1.227-1.44.675-2.253 1.07-1.132.548-.72 2.404-.72 3.43 0 .962-.195 2.133 1.104 2.216zm2.612-26.406c1.578-1.88 2.174-5.728 5.3-4.972h19.613c11.07-.338 8.299-.599 14.094 8.308-13.722.137-27.429-.058-41.148.072zm-2.633 21.523c.127-.713 1.313-.148 1.851-.605 2.387-1.859.628-7.307 1.141-10.188-.037-3.015-2.426-1.337-2.992-2.715.004-1.347.008-2.382-.054-3.805.096-.061.136-.155.193-.242 12.27.001 24.617.008 36.913.004 1.305.314 4.907-.77 5.239.699.082.562 0 1.199 0 1.765 0 .563.118 1.27 0 1.822-.158.845-2.725-.232-2.99 2.217.171 3.2-.34 6.586.165 9.734.495 1.444 2.443.378 2.825 1.558.084 5.98.772 3.593-5.716 4.044-12.023-.006-24.081.006-36.086 0-1.064-.606-.34-3.208-.49-4.286z"/><path fill="#262626" d="M38.39 47.262c.034.54.485 1.254.992 1.263 4.976.081 9.992.166 12.757.145.771-.005 1.333-.77 1.419-1.536.389-3.461.163-7.79-.04-11.06-1.152-.776-2.849-.179-4.196-.352-13.79-.076-10.727-1.726-10.933 11.54m13.576-11.106c1.449.749.27 6.791.632 8.664l-2.55-8.664c.627.019 1.296-.08 1.918 0m-12.022 0h8.936l3.394 11.536c-14.752-.945-12.815 4.506-12.801-11.15-.007.06.386-.386.471-.386"/></g><defs><clipPath id="a"><path fill="#fff" d="M15 15h44.87v44.87H15z"/></clipPath></defs></svg>