<svg xmlns="http://www.w3.org/2000/svg" width="133" height="132" fill="none" viewBox="0 0 133 132"><circle cx="66.5" cy="66" r="66" fill="#F7FBFD"/><g clip-path="url(#a)"><path fill="#fff" d="M111.951 42.935H20.109v58.56h91.842z"/><path fill="#C0AF70" d="M106.755 52.256h-46.53V96.44h46.53zM52.413 76.447H25.309v19.987h27.104z"/><path fill="#212121" d="M19.636 103.066c1.52.502 2.879.695 4.472.712 1.592.017 3.236.033 4.86.033 2.967 0 5.935.017 8.903-.007 6.071-.048 12.136-.162 18.208-.146 12.146.017 24.29.204 36.436.211 3.373 0 6.748-.007 10.121 0 1.756.007 3.512.048 5.268.071 1.756.024 3.496-.105 5.259-.186.463-.024.439-1.967-.048-1.993-1.497-.065-2.958-.218-4.455-.194l-4.853.072c-2.968.041-5.935.017-8.903.017-6.072 0-12.146.024-18.218.04-6.072.017-12.136.122-18.208.153-6.072.041-12.146-.071-18.218-.112q-5.06-.035-10.121-.034c-3.373 0-7.178-.372-10.503.753-.154.058-.14.543.017.591l-.017.016z"/><path fill="#212121" d="M111.706 29.417c-.326 1.004-.3 2.017-.326 3.061q-.034 1.823-.057 3.645a506 506 0 0 0-.008 7.08q0 7.178.048 14.358c.065 9.572.204 19.136.334 28.7.033 2.697.072 5.395.105 8.084.034 2.688-.016 5.441.415 8.073.058.325.219 1.092.691 1.078.473-.015.586-.787.634-1.109.333-2.364.244-4.893.218-7.28s-.058-4.713-.082-7.08c-.057-4.712-.105-9.435-.17-14.148-.13-9.5-.269-19-.497-28.497-.064-2.696-.112-5.385-.203-8.083q-.062-1.92-.14-3.838c-.048-1.279.017-2.648-.398-3.872-.098-.291-.398-.681-.568-.162v-.008z"/><path fill="#212121" d="M20.367 30.407c11.895.325 23.81.186 35.705.186h55.985c.528 0 .511-2.43-.058-2.43-23.802 0-47.605-.089-71.406 0-6.762.023-13.518-.008-20.283.179-.52.017-.497 2.04.048 2.058l.007.007z"/><path fill="#212121" d="M112.186 29.377H20.343V46.43h91.843z"/><path fill="#fff" d="M31.115 41.539a3.64 3.64 0 0 0 3.649-3.635 3.64 3.64 0 0 0-3.65-3.635 3.64 3.64 0 0 0-3.648 3.635 3.64 3.64 0 0 0 3.649 3.635M42.366 41.539a3.64 3.64 0 0 0 3.649-3.635 3.64 3.64 0 0 0-3.649-3.635 3.64 3.64 0 0 0-3.649 3.635 3.64 3.64 0 0 0 3.649 3.635M53.608 41.539a3.64 3.64 0 0 0 3.649-3.635 3.64 3.64 0 0 0-3.65-3.635 3.64 3.64 0 0 0-3.648 3.635 3.64 3.64 0 0 0 3.649 3.635"/><path fill="#212121" d="M19.938 28.705c-.511 2.18-.439 4.577-.52 6.811-.09 2.39-.065 4.794-.073 7.184l-.023 14.149c-.017 9.5-.041 19-.041 28.498 0 5.37-.211 10.802.088 16.165.024.495.123 1.651.766 1.781s.854-.909.885-1.336c.285-4.795.13-9.637.14-14.43.006-4.795 0-9.565.006-14.353q-.002-14.345.008-28.7c0-2.696.024-5.394-.034-8.083-.048-2.526-.017-5.224-.562-7.703-.122-.542-.527-.485-.65.017h.01M25.295 53.55c.837.591 2.066.421 3.066.455 1.147.033 2.293.033 3.438.04 2.293.017 4.584 0 6.878 0 4.56 0 9.21.251 13.746-.193.235-.024.218-1.11-.024-1.133-4.544-.444-9.203-.194-13.763-.194-2.227 0-4.448-.016-6.674 0-1.147.008-2.294 0-3.438.041-1.032.024-2.39-.17-3.243.461-.099.072-.082.454.016.526zM25.295 61.86c.837.59 2.066.421 3.066.455 1.147.033 2.293.033 3.438.04 2.293.017 4.584 0 6.878 0 4.56 0 9.21.251 13.746-.193.235-.024.218-1.11-.024-1.133-4.544-.445-9.203-.194-13.763-.194-2.227 0-4.448-.017-6.674 0-1.147.007-2.294 0-3.438.04-1.032.025-2.39-.169-3.243.462-.099.072-.082.454.016.526zM25.295 70.17c.837.59 2.066.42 3.066.454 1.147.034 2.293.034 3.438.041 2.293.017 4.584 0 6.878 0 4.56 0 9.21.251 13.746-.194.235-.023.218-1.109-.024-1.132-4.544-.445-9.203-.194-13.763-.194-2.227 0-4.448-.017-6.674 0-1.147.007-2.294 0-3.438.04-1.032.025-2.39-.169-3.243.462-.099.072-.082.454.016.526zM95.873 61.53l4.916 2.704-14.74 20.381-14.93-12.432a2.77 2.77 0 0 0-3.242 1.13l-15.298 28.285c-.595.949 5.625 1.336 5.625 1.336l13.183-22.678 14.617 11.93a2.736 2.736 0 0 0 3.18-1.054l16.412-24.224 4.057 2.244-.278-15.7-13.502 8.081z"/></g><defs><clipPath id="a"><path fill="#fff" d="M19 28h95v76H19z"/></clipPath></defs></svg>