<svg width="74" height="74" viewBox="0 0 74 74" fill="none" xmlns="http://www.w3.org/2000/svg">
<circle cx="37" cy="37" r="37" fill="url(#paint0_linear_670_6870)"/>
<g clip-path="url(#clip0_670_6870)">
<path d="M36.2088 59.5023C36.1319 59.5023 36.0568 59.4786 35.9939 59.4344C35.9309 59.3901 35.8832 59.3276 35.8571 59.2552C35.831 59.1828 35.8279 59.1042 35.8481 59.0299C35.8684 58.9557 35.911 58.8895 35.9703 58.8405L37.6395 57.4524L35.5283 58.6714C35.4452 58.7196 35.3467 58.734 35.2533 58.7115C35.1599 58.6891 35.0787 58.6315 35.0266 58.5508C34.9745 58.4702 34.9554 58.3725 34.9733 58.2781C34.9913 58.1838 35.0448 58.0999 35.1229 58.044L36.947 56.7322L34.8776 57.9288C34.7934 57.9776 34.6935 57.9917 34.5991 57.968C34.5047 57.9444 34.4233 57.8848 34.3721 57.8021C34.3209 57.7193 34.3039 57.6199 34.3249 57.5248C34.3458 57.4298 34.403 57.3467 34.4842 57.2931L40.3842 53.39L34.0886 57.0246C34.0039 57.073 33.9037 57.0864 33.8093 57.062C33.7149 57.0375 33.6338 56.9771 33.5833 56.8937C33.5327 56.8103 33.5168 56.7105 33.5388 56.6155C33.5608 56.5205 33.6191 56.4378 33.7012 56.3852L37.73 53.8177L33.4477 56.2902C33.3635 56.3359 33.2649 56.3476 33.1723 56.3227C33.0798 56.2979 33.0003 56.2384 32.9503 56.1566C32.9003 56.0749 32.8836 55.977 32.9036 55.8833C32.9237 55.7896 32.979 55.7072 33.058 55.653L40.4276 50.9048L32.6602 55.392C32.5758 55.4378 32.477 55.4493 32.3843 55.4242C32.2916 55.3991 32.2121 55.3393 32.1623 55.2572C32.1125 55.1751 32.0962 55.077 32.1168 54.9832C32.1373 54.8894 32.1932 54.8071 32.2728 54.7533L39.3776 50.2324L31.9153 54.5402C31.8307 54.5867 31.7314 54.5987 31.6382 54.5737C31.545 54.5487 31.4651 54.4886 31.4151 54.406C31.3652 54.3234 31.3491 54.2247 31.3703 54.1306C31.3914 54.0364 31.4482 53.954 31.5286 53.9008L37.8295 49.937L31.2258 53.7512C31.1837 53.7765 31.137 53.7933 31.0884 53.8006C31.0399 53.8079 30.9903 53.8056 30.9426 53.7938C30.895 53.7819 30.8501 53.7608 30.8106 53.7316C30.7711 53.7024 30.7377 53.6658 30.7123 53.6237C30.687 53.5816 30.6702 53.5349 30.6629 53.4864C30.6556 53.4378 30.6579 53.3882 30.6698 53.3406C30.6816 53.2929 30.7027 53.248 30.7319 53.2085C30.7611 53.169 30.7978 53.1356 30.8399 53.1103L36.9492 49.2849L30.5557 52.9756C30.4713 53.022 30.3723 53.0341 30.2792 53.0093C30.1862 52.9846 30.1063 52.9248 30.0562 52.8426C30.0061 52.7604 29.9896 52.662 30.0102 52.568C30.0308 52.4739 30.0869 52.3914 30.1668 52.3377L41.5045 45.0744L29.478 52.0206C29.3935 52.0658 29.2949 52.0768 29.2025 52.0514C29.1102 52.0259 29.0311 51.9661 28.9816 51.884C28.9321 51.802 28.9159 51.7041 28.9365 51.6106C28.9571 51.517 29.0128 51.4349 29.0921 51.3812L39.2003 44.9996L28.1513 51.3782C28.0666 51.4266 27.9664 51.44 27.872 51.4155C27.7776 51.3911 27.6964 51.3307 27.6459 51.2473C27.5954 51.1639 27.5794 51.064 27.6015 50.969C27.6235 50.874 27.6818 50.7914 27.7639 50.7388L40.023 42.9691L26.823 50.5869C26.7385 50.6315 26.6401 50.6421 26.548 50.6163C26.4559 50.5906 26.3772 50.5306 26.328 50.4487C26.2788 50.3667 26.2628 50.2691 26.2834 50.1757C26.304 50.0824 26.3595 50.0004 26.4386 49.9468L36.6 43.6063L25.7775 49.8548C25.6922 49.9054 25.5903 49.9202 25.4941 49.8957C25.398 49.8712 25.3155 49.8096 25.2648 49.7243C25.2142 49.639 25.1994 49.537 25.2239 49.4409C25.2484 49.3448 25.3101 49.2623 25.3953 49.2116L29.9716 46.4116L25.0356 49.2632C24.9507 49.3145 24.8489 49.3299 24.7527 49.3062C24.6564 49.2824 24.5735 49.2213 24.5222 49.1364C24.4709 49.0515 24.4555 48.9498 24.4793 48.8535C24.503 48.7572 24.5641 48.6743 24.649 48.623L38.4525 39.9185L23.9527 48.2902C23.8678 48.3381 23.7675 48.3509 23.6732 48.3259C23.579 48.3008 23.4983 48.24 23.4482 48.1563C23.3982 48.0726 23.3828 47.9727 23.4054 47.8779C23.428 47.783 23.4867 47.7007 23.569 47.6485L34.4798 40.8766L23.1278 47.4294C23.0426 47.478 22.9418 47.4911 22.847 47.466C22.7522 47.4409 22.671 47.3796 22.621 47.2953C22.571 47.2109 22.5561 47.1103 22.5796 47.0151C22.603 46.9199 22.6629 46.8377 22.7464 46.7863L25.6556 45.019L22.5789 46.7945C22.4937 46.843 22.3928 46.8562 22.298 46.8311C22.2032 46.806 22.1221 46.7447 22.0721 46.6603C22.0221 46.576 22.0072 46.4754 22.0306 46.3802C22.0541 46.285 22.114 46.2028 22.1974 46.1513L25.5569 44.1089L22.0546 46.1281C21.9701 46.1733 21.8715 46.1843 21.7791 46.1589C21.6868 46.1335 21.6077 46.0736 21.5582 45.9915C21.5087 45.9095 21.4926 45.8116 21.5131 45.7181C21.5337 45.6245 21.5894 45.5424 21.6687 45.4887L37.1497 35.7132L21.22 44.9121C21.1353 44.9573 21.0364 44.9682 20.9439 44.9426C20.8514 44.9169 20.7723 44.8567 20.723 44.7743C20.6736 44.6919 20.6579 44.5937 20.679 44.5001C20.7001 44.4064 20.7564 44.3244 20.8363 44.2712L32.5502 37.0026L20.612 43.8972C20.5271 43.9485 20.4253 43.9639 20.329 43.9402C20.2327 43.9164 20.1498 43.8553 20.0985 43.7705C20.0473 43.6856 20.0318 43.5838 20.0556 43.4875C20.0794 43.3912 20.1404 43.3083 20.2253 43.257L35.2426 33.8032L19.98 42.6161C19.895 42.6631 19.795 42.6752 19.7013 42.6498C19.6075 42.6244 19.5274 42.5635 19.4777 42.48C19.428 42.3966 19.4128 42.297 19.4352 42.2025C19.4577 42.108 19.516 42.026 19.5978 41.9737L25.2016 38.5522L19.621 41.7725C19.5363 41.82 19.4364 41.8326 19.3425 41.8078C19.2487 41.7829 19.1681 41.7225 19.118 41.6393C19.0679 41.5562 19.052 41.4567 19.0739 41.3621C19.0958 41.2675 19.1536 41.1851 19.2351 41.1323L33.0394 32.4727L19.1618 40.4847C19.077 40.5314 18.9775 40.5434 18.884 40.5182C18.7906 40.4929 18.7105 40.4325 18.6608 40.3495C18.611 40.2665 18.5953 40.1674 18.6171 40.0731C18.6388 39.9788 18.6963 39.8966 18.7774 39.8438L30.5041 32.5393L18.8373 39.2761C18.7523 39.324 18.652 39.3368 18.5578 39.3117C18.4635 39.2867 18.3828 39.2259 18.3328 39.1422C18.2827 39.0585 18.2674 38.9586 18.2899 38.8638C18.3125 38.7689 18.3712 38.6866 18.4536 38.6344L26.8492 33.4547L18.6129 38.2082C18.5283 38.2547 18.429 38.2667 18.3358 38.2417C18.2426 38.2167 18.1627 38.1566 18.1127 38.074C18.0628 37.9914 18.0467 37.8927 18.0679 37.7985C18.089 37.7043 18.1458 37.622 18.2262 37.5687L31.6132 29.1088L18.4095 36.7341C18.3246 36.7801 18.2253 36.7915 18.1322 36.766C18.0392 36.7404 17.9596 36.6799 17.9101 36.597C17.8607 36.5141 17.8452 36.4153 17.8669 36.3213C17.8886 36.2272 17.9458 36.1452 18.0266 36.0924L25.4051 31.5304L18.3347 35.61C18.2499 35.6615 18.1481 35.6772 18.0518 35.6536C17.9554 35.6301 17.8724 35.5692 17.8209 35.4844C17.7694 35.3996 17.7537 35.2978 17.7773 35.2015C17.8009 35.1051 17.8617 35.0221 17.9465 34.9706L30.255 27.1531L18.3429 34.0335C18.2583 34.08 18.1591 34.092 18.0658 34.067C17.9726 34.042 17.8927 33.9819 17.8427 33.8994C17.7928 33.8168 17.7767 33.7181 17.7979 33.6239C17.819 33.5297 17.8758 33.4474 17.9563 33.3941L27.9561 27.0768L18.476 32.546C18.3916 32.5918 18.2928 32.6033 18.2001 32.5782C18.1074 32.5531 18.0279 32.4933 17.9781 32.4112C17.9283 32.3291 17.912 32.2309 17.9326 32.1371C17.9532 32.0433 18.009 31.9611 18.0886 31.9073L27.6352 25.8331L18.7445 30.9665C18.6598 31.0182 18.5581 31.0341 18.4616 31.0107C18.3652 30.9874 18.282 30.9267 18.2304 30.842C18.1787 30.7573 18.1628 30.6555 18.1861 30.5591C18.2095 30.4627 18.2702 30.3795 18.3549 30.3278L27.4976 24.4465L19.2067 29.2329C19.1222 29.2781 19.0236 29.2891 18.9313 29.2637C18.8389 29.2383 18.7598 29.1784 18.7103 29.0964C18.6608 29.0143 18.6447 28.9164 18.6652 28.8229C18.6858 28.7293 18.7415 28.6472 18.8208 28.5935L22.341 26.3776L19.6868 27.9114C19.6025 27.9578 19.5035 27.9699 19.4104 27.9451C19.3174 27.9204 19.2375 27.8606 19.1874 27.7784C19.1372 27.6962 19.1208 27.5978 19.1414 27.5038C19.162 27.4097 19.218 27.3272 19.2979 27.2735L24.5637 23.8774L20.4609 26.2459C20.3772 26.2968 20.2769 26.3129 20.1816 26.2906C20.0862 26.2684 20.0034 26.2096 19.9509 26.1269C19.8983 26.0443 19.8804 25.9443 19.9008 25.8485C19.9212 25.7528 19.9784 25.6688 20.06 25.6147L26.7909 20.9547L22.1032 23.6613C22.021 23.7088 21.9237 23.7232 21.8312 23.7016C21.7387 23.6801 21.6579 23.6241 21.6052 23.5451C21.5524 23.4661 21.5317 23.37 21.5473 23.2763C21.5628 23.1826 21.6135 23.0983 21.6889 23.0405L25.3078 20.2734C25.2412 20.2736 25.1756 20.2565 25.1175 20.2237C25.0594 20.1909 25.0109 20.1436 24.9765 20.0865C24.9269 20.0007 24.9133 19.8987 24.9389 19.8029C24.9644 19.7071 25.0269 19.6254 25.1127 19.5757L29.6672 16.9469C29.7494 16.8994 29.8467 16.8849 29.9392 16.9065C30.0317 16.9281 30.1125 16.9841 30.1653 17.0631C30.218 17.1421 30.2387 17.2382 30.2231 17.3319C30.2076 17.4256 30.1569 17.5099 30.0815 17.5676L26.7512 20.1104L34.301 15.7578C34.3847 15.7069 34.485 15.6908 34.5803 15.7131C34.6757 15.7353 34.7585 15.7941 34.811 15.8767C34.8635 15.9594 34.8815 16.0594 34.8611 16.1552C34.8407 16.2509 34.7835 16.3349 34.7019 16.389L27.971 21.0482L37.3613 15.6246C37.4458 15.5766 37.5456 15.5633 37.6397 15.5875C37.7338 15.6118 37.8148 15.6718 37.8654 15.7547C37.9161 15.8376 37.9324 15.937 37.9111 16.0318C37.8897 16.1266 37.8323 16.2094 37.7509 16.2626L32.4784 19.6624L39.1921 15.7869C39.2766 15.7418 39.3752 15.7308 39.4676 15.7562C39.5599 15.7816 39.639 15.8415 39.6885 15.9235C39.738 16.0055 39.7541 16.1034 39.7336 16.197C39.713 16.2906 39.6573 16.3727 39.578 16.4264L36.0495 18.6446L40.5787 16.0307C40.6633 15.9811 40.764 15.9668 40.8591 15.9908C40.9542 16.0147 41.0361 16.0751 41.0871 16.1589C41.1381 16.2427 41.1542 16.3431 41.1318 16.4386C41.1094 16.5341 41.0504 16.617 40.9675 16.6694L31.8293 22.5484L42.3167 16.4907C42.4015 16.4392 42.5033 16.4235 42.5996 16.4471C42.696 16.4707 42.779 16.5315 42.8305 16.6163C42.882 16.7011 42.8976 16.8029 42.8741 16.8992C42.8505 16.9956 42.7896 17.0786 42.7049 17.1301L33.1568 23.2073L43.8252 17.0478C43.9099 17.0004 44.0098 16.9877 44.1036 17.0126C44.1975 17.0374 44.2781 17.0978 44.3282 17.181C44.3783 17.2642 44.3942 17.3636 44.3723 17.4582C44.3504 17.5529 44.2926 17.6353 44.2111 17.688L34.215 24.0031L45.1698 17.6791C45.2545 17.6307 45.3547 17.6173 45.4491 17.6417C45.5436 17.6662 45.6247 17.7265 45.6752 17.8099C45.7257 17.8934 45.7417 17.9932 45.7196 18.0882C45.6976 18.1832 45.6393 18.2658 45.5572 18.3185L33.2547 26.1337L46.5429 18.4621C46.6275 18.418 46.7258 18.408 46.8176 18.434C46.9094 18.46 46.9877 18.5201 47.0367 18.6019C47.0856 18.6838 47.1014 18.7813 47.0808 18.8745C47.0602 18.9676 47.0047 19.0494 46.9258 19.103L39.5219 23.6807L47.4763 19.0895C47.5608 19.0444 47.6594 19.0334 47.7517 19.0588C47.8441 19.0842 47.9232 19.1441 47.9727 19.2261C48.0222 19.3081 48.0383 19.406 48.0178 19.4996C47.9972 19.5932 47.9415 19.6753 47.8622 19.729L34.4842 28.1799L48.6527 20.0019C48.7376 19.9541 48.8379 19.9413 48.9322 19.9663C49.0264 19.9913 49.1071 20.0522 49.1572 20.1358C49.2072 20.2195 49.2226 20.3194 49.2 20.4143C49.1774 20.5092 49.1187 20.5914 49.0363 20.6436L40.6355 25.8264L49.4604 20.7296C49.5025 20.7043 49.5492 20.6876 49.5978 20.6803C49.6464 20.6731 49.696 20.6755 49.7437 20.6874C49.7913 20.6993 49.8362 20.7205 49.8757 20.7498C49.9152 20.779 49.9485 20.8158 49.9738 20.8579C49.9991 20.9 50.0158 20.9467 50.0231 20.9953C50.0303 21.0439 50.0279 21.0935 50.016 21.1412C50.0041 21.1888 49.9829 21.2337 49.9537 21.2732C49.9244 21.3127 49.8877 21.346 49.8455 21.3713L38.1249 28.6728L50.3436 21.6188C50.4283 21.573 50.5273 21.5616 50.6202 21.5869C50.713 21.6122 50.7925 21.6724 50.8421 21.7549C50.8918 21.8373 50.9077 21.9358 50.8866 22.0297C50.8654 22.1236 50.8089 22.2057 50.7288 22.259L36.9245 30.9186L51.2328 22.6576C51.3181 22.607 51.4201 22.5922 51.5162 22.6167C51.5638 22.6288 51.6086 22.6502 51.6479 22.6796C51.6873 22.709 51.7204 22.7459 51.7455 22.7881C51.7706 22.8304 51.7871 22.8771 51.7942 22.9258C51.8012 22.9744 51.7986 23.0239 51.7864 23.0715C51.7743 23.1191 51.7529 23.1639 51.7235 23.2032C51.6941 23.2425 51.6572 23.2757 51.615 23.3008L46.006 26.7253L51.7855 23.3861C51.8701 23.3396 51.9694 23.3276 52.0626 23.3526C52.1558 23.3776 52.2358 23.4376 52.2857 23.5202C52.3356 23.6028 52.3517 23.7015 52.3306 23.7957C52.3094 23.8899 52.2526 23.9722 52.1722 24.0255L37.1564 33.4823L52.5798 24.5774C52.6645 24.5307 52.7641 24.5187 52.8576 24.5439C52.951 24.5692 53.0311 24.6296 53.0808 24.7126C53.1306 24.7956 53.1463 24.8947 53.1245 24.989C53.1028 25.0833 53.0453 25.1655 52.9642 25.2184L41.2473 32.4884L53.1601 25.608C53.2447 25.5615 53.344 25.5495 53.4372 25.5745C53.5304 25.5995 53.6103 25.6596 53.6603 25.7422C53.7102 25.8248 53.7263 25.9235 53.7051 26.0176C53.684 26.1118 53.6272 26.1941 53.5468 26.2474L38.0651 36.0251L53.7966 26.9422C53.8815 26.8968 53.9806 26.8859 54.0733 26.9118C54.166 26.9377 54.2452 26.9983 54.2943 27.0811C54.3435 27.1639 54.3588 27.2624 54.3371 27.3562C54.3155 27.45 54.2584 27.5318 54.178 27.5846L50.8021 29.6368L54.1099 27.7282C54.1951 27.6797 54.296 27.6665 54.3907 27.6916C54.4855 27.7167 54.5667 27.778 54.6167 27.8624C54.6667 27.9467 54.6816 28.0473 54.6581 28.1425C54.6347 28.2377 54.5748 28.3199 54.4913 28.3714L51.5933 30.1326L54.3821 28.5202C54.4243 28.495 54.471 28.4783 54.5195 28.4711C54.5681 28.4639 54.6177 28.4663 54.6653 28.4783C54.7129 28.4902 54.7578 28.5114 54.7972 28.5407C54.8366 28.57 54.8699 28.6067 54.8952 28.6488C54.9204 28.691 54.9371 28.7377 54.9443 28.7863C54.9515 28.8348 54.9491 28.8844 54.9371 28.932C54.9252 28.9796 54.904 29.0245 54.8747 29.0639C54.8454 29.1034 54.8087 29.1366 54.7665 29.1619L43.8618 35.9301L54.7187 29.6682C54.8032 29.6217 54.9025 29.6097 54.9957 29.6347C55.089 29.6597 55.1689 29.7198 55.2188 29.8024C55.2688 29.885 55.2849 29.9837 55.2637 30.0778C55.2425 30.172 55.1858 30.2543 55.1053 30.3076L41.2981 39.0091L55.0178 31.0892C55.1027 31.0438 55.2019 31.0329 55.2946 31.0588C55.3873 31.0846 55.4665 31.1453 55.5156 31.228C55.5648 31.3108 55.5801 31.4094 55.5584 31.5031C55.5367 31.5969 55.4797 31.6788 55.3992 31.7316L50.8193 34.5339L55.1569 32.0315C55.2416 31.9856 55.3406 31.9742 55.4335 31.9995C55.5263 32.0249 55.6058 32.085 55.6555 32.1675C55.7051 32.25 55.721 32.3484 55.6999 32.4423C55.6787 32.5362 55.6222 32.6184 55.5421 32.6716L45.3755 39.0166L55.2691 33.3051C55.3535 33.2605 55.4517 33.2499 55.5436 33.2754C55.6355 33.3008 55.7143 33.3605 55.7637 33.4421C55.8131 33.5237 55.8294 33.6211 55.8094 33.7144C55.7893 33.8076 55.7344 33.8897 55.6558 33.9438L43.4071 41.7089L55.2796 34.8517C55.3645 34.8004 55.4663 34.785 55.5625 34.8088C55.6588 34.8325 55.7417 34.8936 55.793 34.9785C55.8443 35.0634 55.8597 35.1651 55.8359 35.2614C55.8122 35.3577 55.7511 35.4406 55.6662 35.4919L45.543 41.8802L55.1824 36.3153C55.267 36.2657 55.3677 36.2513 55.4628 36.2753C55.5579 36.2993 55.6398 36.3597 55.6908 36.4434C55.7418 36.5272 55.7579 36.6277 55.7355 36.7232C55.7131 36.8187 55.6542 36.9016 55.5713 36.954L44.2365 44.2143L54.9131 38.0496C54.998 38.0006 55.0988 37.987 55.1936 38.0115C55.2885 38.0361 55.3699 38.0969 55.4204 38.1809C55.4709 38.2649 55.4864 38.3654 55.4636 38.4607C55.4407 38.556 55.3814 38.6385 55.2983 38.6905L49.1814 42.5159L54.5781 39.401C54.6628 39.3535 54.7627 39.3409 54.8566 39.3657C54.9504 39.3906 55.031 39.451 55.0811 39.5342C55.1312 39.6174 55.1471 39.7168 55.1252 39.8114C55.1033 39.906 55.0455 39.9884 54.964 40.0412L48.6676 44.0004L54.0964 40.8668C54.1812 40.8154 54.283 40.7997 54.3794 40.8232C54.4757 40.8468 54.5588 40.9077 54.6102 40.9925C54.6617 41.0773 54.6774 41.179 54.6538 41.2754C54.6303 41.3718 54.5694 41.4548 54.4846 41.5063L47.3798 46.0249L53.3508 42.578C53.4353 42.5299 53.5351 42.5166 53.6292 42.5409C53.7233 42.5651 53.8043 42.6251 53.8549 42.708C53.9056 42.791 53.922 42.8904 53.9006 42.9852C53.8792 43.08 53.8218 43.1627 53.7405 43.2159L46.3724 47.9619L52.1722 44.6144C52.2566 44.5687 52.3554 44.5572 52.4481 44.5823C52.5408 44.6074 52.6203 44.6672 52.6701 44.7493C52.7199 44.8314 52.7362 44.9295 52.7156 45.0233C52.695 45.1171 52.6392 45.1994 52.5596 45.2531L48.5383 47.8161L50.6495 46.597C50.7337 46.5482 50.8336 46.5342 50.928 46.5578C51.0224 46.5815 51.1038 46.641 51.155 46.7238C51.2063 46.8065 51.2232 46.906 51.2022 47.001C51.1813 47.096 51.1241 47.1792 51.0429 47.2327L43.3473 52.3228C43.4118 52.3454 43.4689 52.3853 43.5124 52.4382C43.5558 52.491 43.5839 52.5548 43.5936 52.6225C43.6033 52.6902 43.5943 52.7593 43.5675 52.8222C43.5406 52.8851 43.4971 52.9395 43.4415 52.9794L41.245 54.5604C41.3056 54.5633 41.365 54.5789 41.4191 54.6064C41.4733 54.6339 41.521 54.6725 41.5591 54.7197C41.6128 54.7966 41.6356 54.8909 41.623 54.9839C41.6104 55.0768 41.5633 55.1616 41.4911 55.2215L39.1435 57.1742C39.2184 57.2053 39.2808 57.2606 39.3207 57.3312C39.3701 57.417 39.3836 57.5188 39.358 57.6144C39.3325 57.71 39.2702 57.7916 39.1846 57.8413L36.3951 59.4522C36.3386 59.4852 36.2743 59.5025 36.2088 59.5023Z" fill="#2381D9"/>
<path d="M37.3285 49.8988C37.2484 49.8986 37.1705 49.8728 37.1062 49.825C37.0419 49.7773 36.9947 49.7102 36.9714 49.6335C36.9481 49.5569 36.95 49.4748 36.9769 49.3994C37.0038 49.324 37.0541 49.2591 37.1206 49.2145L41.0679 46.561L35.4873 49.7866C35.4035 49.8337 35.3049 49.8467 35.2118 49.8231C35.1187 49.7994 35.0383 49.7408 34.9872 49.6594C34.9362 49.5781 34.9184 49.4802 34.9375 49.3861C34.9567 49.292 35.0113 49.2088 35.0901 49.1539L42.6309 44.0175L33.3072 49.4022C33.2226 49.448 33.1235 49.4595 33.0307 49.4341C32.9378 49.4088 32.8583 49.3486 32.8087 49.2662C32.7591 49.1837 32.7432 49.0852 32.7643 48.9913C32.7854 48.8974 32.8419 48.8153 32.922 48.762L33.5465 48.3709L32.2804 49.1015C32.1959 49.1496 32.0961 49.1629 32.002 49.1386C31.9079 49.1144 31.8269 49.0544 31.7763 48.9715C31.7256 48.8885 31.7092 48.7891 31.7306 48.6943C31.752 48.5995 31.8094 48.5168 31.8907 48.4636L38.7801 44.0167L30.9013 48.5631C30.8167 48.6077 30.7183 48.6182 30.6263 48.5925C30.5342 48.5668 30.4555 48.5068 30.4063 48.4248C30.3571 48.3429 30.3411 48.2452 30.3617 48.1518C30.3823 48.0585 30.4378 47.9766 30.5169 47.9229L32.8832 46.4466L29.9896 48.1166C29.9049 48.1633 29.8053 48.1753 29.7118 48.1501C29.6184 48.1248 29.5383 48.0644 29.4886 47.9814C29.4388 47.8984 29.4231 47.7993 29.4449 47.705C29.4666 47.6107 29.5241 47.5285 29.6052 47.4757L31.3253 46.4069L29.1767 47.6507C29.0922 47.6979 28.9927 47.7105 28.899 47.6859C28.8054 47.6612 28.725 47.6012 28.6747 47.5185C28.6244 47.4357 28.6082 47.3367 28.6294 47.2422C28.6507 47.1478 28.7077 47.0652 28.7886 47.012L36.6143 42.0379L28.1222 46.9394C28.0378 46.9858 27.9388 46.9979 27.8458 46.9731C27.7527 46.9483 27.6728 46.8886 27.6227 46.8064C27.5726 46.7242 27.5561 46.6258 27.5767 46.5318C27.5973 46.4377 27.6534 46.3552 27.7333 46.3015L37.5963 39.982L27.0513 46.0712C26.9667 46.1177 26.8674 46.1297 26.7742 46.1047C26.681 46.0797 26.601 46.0196 26.5511 45.937C26.5011 45.8544 26.4851 45.7557 26.5062 45.6615C26.5274 45.5674 26.5841 45.485 26.6646 45.4317L35.0303 40.1465L26.1994 45.2448C26.1149 45.292 26.0154 45.3046 25.9217 45.28C25.8281 45.2553 25.7477 45.1953 25.6974 45.1126C25.6471 45.0298 25.6309 44.9308 25.6521 44.8363C25.6734 44.7419 25.7304 44.6593 25.8113 44.6061L36.9411 37.4706L25.2855 44.2015C25.2008 44.2489 25.1009 44.2616 25.007 44.2367C24.9132 44.2119 24.8326 44.1515 24.7825 44.0683C24.7324 43.9851 24.7165 43.8857 24.7384 43.7911C24.7603 43.6965 24.8181 43.614 24.8996 43.5613L32.243 38.9649L24.6596 43.3437C24.575 43.3954 24.4733 43.4115 24.3768 43.3883C24.2804 43.3651 24.1972 43.3045 24.1454 43.2199C24.0936 43.1353 24.0776 43.0336 24.1008 42.9372C24.124 42.8408 24.1846 42.7575 24.2692 42.7057L36.7788 34.6235L23.8773 42.0715C23.7926 42.119 23.6927 42.1317 23.5988 42.1068C23.5049 42.0819 23.4244 42.0215 23.3742 41.9384C23.3241 41.8552 23.3083 41.7558 23.3302 41.6611C23.352 41.5665 23.4098 41.4841 23.4914 41.4314L31.1406 36.6412L23.3986 41.1113C23.314 41.1571 23.215 41.1686 23.1221 41.1432C23.0292 41.1179 22.9497 41.0577 22.9001 40.9752C22.8505 40.8928 22.8346 40.7943 22.8557 40.7004C22.8768 40.6065 22.9333 40.5244 23.0135 40.4711L31.0247 35.4394L22.9746 40.0859C22.8901 40.1332 22.7905 40.1458 22.6969 40.1211C22.6033 40.0965 22.5229 40.0365 22.4726 39.9537C22.4223 39.871 22.4061 39.772 22.4273 39.6775C22.4486 39.5831 22.5056 39.5005 22.5865 39.4472L32.3656 33.2332L22.5902 38.8766C22.5052 38.9245 22.405 38.9373 22.3107 38.9123C22.2165 38.8872 22.1357 38.8264 22.0857 38.7427C22.0357 38.659 22.0203 38.5591 22.0429 38.4643C22.0654 38.3694 22.1242 38.2871 22.2065 38.2349L24.2953 36.9486L22.3898 38.045C22.3054 38.0914 22.2064 38.1035 22.1133 38.0787C22.0203 38.0539 21.9404 37.9942 21.8903 37.912C21.8402 37.8298 21.8237 37.7314 21.8443 37.6373C21.8649 37.5433 21.921 37.4608 22.0009 37.4071L31.5422 31.3141L22.1661 36.7272C22.0815 36.7768 21.9808 36.7912 21.8857 36.7672C21.7906 36.7432 21.7087 36.6829 21.6577 36.5991C21.6067 36.5153 21.5906 36.4149 21.613 36.3194C21.6354 36.2239 21.6944 36.141 21.7773 36.0886L30.9716 30.1923L22.0719 35.3302C21.9876 35.3807 21.8867 35.396 21.7912 35.3727C21.6957 35.3494 21.6132 35.2894 21.5615 35.2057C21.5099 35.1221 21.4933 35.0214 21.5154 34.9256C21.5374 34.8298 21.5963 34.7465 21.6793 34.6938L31.9461 27.9629L22.1183 33.6325C22.0341 33.6789 21.9353 33.6911 21.8424 33.6665C21.7495 33.642 21.6696 33.5827 21.6193 33.5008C21.569 33.4189 21.5521 33.3208 21.5722 33.2269C21.5923 33.1329 21.6478 33.0503 21.7271 32.9961L29.9994 27.5897L22.3479 32.0089C22.2634 32.0562 22.1638 32.0688 22.0702 32.0441C21.9766 32.0195 21.8962 31.9594 21.8459 31.8767C21.7956 31.794 21.7794 31.695 21.8006 31.6005C21.8218 31.506 21.8789 31.4235 21.9597 31.3702L25.7888 28.9292L22.6538 30.739C22.57 30.7861 22.4714 30.7992 22.3783 30.7755C22.2852 30.7518 22.2048 30.6932 22.1537 30.6119C22.1027 30.5305 22.0849 30.4326 22.104 30.3385C22.1232 30.2444 22.1778 30.1613 22.2566 30.1063L29.6411 25.0746L23.4413 28.654C23.3574 28.7017 23.2583 28.7153 23.1648 28.6917C23.0712 28.6681 22.9903 28.6092 22.9391 28.5274C22.8879 28.4456 22.8704 28.3472 22.8901 28.2527C22.9098 28.1582 22.9653 28.075 23.0449 28.0205L27.1343 25.2534L24.4703 26.791C24.3888 26.8389 24.2921 26.8541 24.1998 26.8335C24.1075 26.813 24.0265 26.7583 23.9729 26.6803C23.9193 26.6024 23.8973 26.5071 23.9112 26.4136C23.9251 26.32 23.9739 26.2352 24.0478 26.1763L27.5419 23.3486C27.4536 23.3848 27.3548 23.3859 27.2657 23.3516C27.1767 23.3174 27.1041 23.2504 27.0628 23.1644C27.0215 23.0784 27.0147 22.9799 27.0437 22.889C27.0727 22.7981 27.1353 22.7217 27.2188 22.6755L31.2707 20.3399C31.3521 20.294 31.4478 20.2803 31.5388 20.3014C31.6298 20.3225 31.7096 20.3769 31.7625 20.4539C31.8154 20.5309 31.8376 20.6249 31.8246 20.7175C31.8117 20.81 31.7646 20.8943 31.6925 20.9539L28.2194 23.7651L35.8328 19.3691C35.9167 19.3194 36.0167 19.3044 36.1115 19.3274C36.2063 19.3504 36.2884 19.4096 36.3402 19.4922C36.392 19.5749 36.4095 19.6745 36.3889 19.7698C36.3683 19.8652 36.3112 19.9487 36.2299 20.0026L32.1465 22.7697L37.956 19.4155C38.0395 19.3701 38.1372 19.3582 38.2292 19.3823C38.3212 19.4064 38.4005 19.4646 38.4511 19.5451C38.5017 19.6256 38.5197 19.7224 38.5015 19.8157C38.4833 19.909 38.4302 19.9919 38.3531 20.0474L30.9679 25.0799L40.1562 19.7707C40.241 19.7193 40.3428 19.7036 40.4391 19.7271C40.5355 19.7507 40.6185 19.8116 40.67 19.8964C40.7215 19.9812 40.7372 20.0829 40.7136 20.1793C40.69 20.2756 40.6292 20.3587 40.5444 20.4102L36.7145 22.8512L41.4141 20.1379C41.4986 20.086 41.6003 20.0697 41.6968 20.0927C41.7933 20.1157 41.8767 20.1761 41.9287 20.2606C41.9806 20.3451 41.9969 20.4468 41.9739 20.5433C41.9509 20.6398 41.8905 20.7232 41.806 20.7751L33.5301 26.1792L42.9376 20.7497C43.0217 20.7027 43.1207 20.6899 43.214 20.7141C43.3073 20.7383 43.3876 20.7976 43.4382 20.8795C43.4889 20.9615 43.5059 21.0599 43.4858 21.1542C43.4657 21.2484 43.4099 21.3312 43.3302 21.3854L33.0656 28.1192L44.4333 21.5559C44.5177 21.5095 44.6167 21.4974 44.7097 21.5222C44.8028 21.547 44.8827 21.6067 44.9328 21.6889C44.9829 21.7711 44.9994 21.8695 44.9788 21.9636C44.9582 22.0576 44.9021 22.1401 44.8222 22.1938L35.6279 28.0916L45.5843 22.3397C45.6689 22.2901 45.7696 22.2757 45.8647 22.2997C45.9598 22.3237 46.0417 22.384 46.0927 22.4678C46.1437 22.5516 46.1598 22.6521 46.1374 22.7476C46.1151 22.8431 46.0561 22.9259 45.9732 22.9784L36.4221 29.0832L46.6231 23.1945C46.7083 23.1436 46.8102 23.1287 46.9064 23.1529C47.0026 23.1772 47.0852 23.2387 47.1361 23.3239C47.187 23.4091 47.2019 23.511 47.1777 23.6072C47.1534 23.7034 47.0919 23.786 47.0067 23.8369L44.9291 25.1165L47.2378 23.7831C47.3226 23.7316 47.4244 23.7159 47.5207 23.7395C47.6171 23.763 47.7001 23.8239 47.7516 23.9087C47.8031 23.9935 47.8188 24.0953 47.7952 24.1916C47.7716 24.288 47.7108 24.371 47.626 24.4225L37.8445 30.6411L48.0904 24.7276C48.1754 24.6765 48.2772 24.6611 48.3735 24.6851C48.4698 24.709 48.5526 24.7701 48.6038 24.8551C48.655 24.9401 48.6703 25.042 48.6464 25.1383C48.6225 25.2345 48.5613 25.3174 48.4763 25.3686L40.4696 30.392L48.771 25.5982C48.8557 25.5507 48.9556 25.538 49.0494 25.5629C49.1433 25.5877 49.2239 25.6481 49.274 25.7313C49.3241 25.8145 49.3399 25.9139 49.3181 26.0085C49.2962 26.1032 49.2384 26.1856 49.1569 26.2383L41.4994 31.0344L49.3603 26.4963C49.4449 26.4446 49.5466 26.4285 49.643 26.4517C49.7394 26.475 49.8227 26.5355 49.8744 26.6201C49.9262 26.7047 49.9423 26.8064 49.9191 26.9028C49.8958 26.9993 49.8353 27.0825 49.7507 27.1343L37.244 35.2113L50.0767 27.8029C50.1188 27.7775 50.1655 27.7607 50.2141 27.7534C50.2626 27.7461 50.3122 27.7485 50.3599 27.7603C50.4075 27.7721 50.4524 27.7933 50.4919 27.8224C50.5314 27.8516 50.5648 27.8883 50.5902 27.9304C50.6155 27.9725 50.6323 28.0191 50.6396 28.0677C50.6469 28.1163 50.6446 28.1658 50.6327 28.2135C50.6209 28.2612 50.5998 28.3061 50.5706 28.3456C50.5414 28.3851 50.5047 28.4185 50.4627 28.4438L43.1208 33.0372L50.5 28.7744C50.5844 28.728 50.6834 28.7159 50.7765 28.7407C50.8695 28.7655 50.9494 28.8252 50.9995 28.9074C51.0496 28.9896 51.0661 29.088 51.0455 29.182C51.0249 29.2761 50.9688 29.3586 50.8889 29.4123L39.7539 36.5552L50.9555 30.0891C51.0401 30.0426 51.1393 30.0306 51.2326 30.0556C51.3258 30.0806 51.4057 30.1407 51.4557 30.2233C51.5056 30.3059 51.5217 30.4046 51.5005 30.4988C51.4794 30.5929 51.4226 30.6753 51.3421 30.7286L42.9802 36.01L51.2389 31.2431C51.3232 31.198 51.4216 31.1868 51.5138 31.212C51.6061 31.2372 51.6852 31.2967 51.7349 31.3784C51.7846 31.4601 51.8011 31.5577 51.7811 31.6512C51.761 31.7447 51.7059 31.8269 51.6271 31.881L41.7619 38.2013L51.4581 32.6035C51.5427 32.5551 51.643 32.5417 51.7374 32.5661C51.8318 32.5906 51.9129 32.651 51.9634 32.7344C52.014 32.8178 52.0299 32.9176 52.0079 33.0126C51.9858 33.1076 51.9276 33.1903 51.8455 33.2429L44.025 38.2125L51.5411 33.8749C51.5832 33.8496 51.6299 33.8329 51.6785 33.8257C51.7271 33.8185 51.7766 33.821 51.8242 33.8329C51.8719 33.8449 51.9167 33.8661 51.9561 33.8953C51.9956 33.9246 52.0289 33.9614 52.0541 34.0035C52.0794 34.0456 52.0961 34.0923 52.1033 34.1409C52.1104 34.1895 52.108 34.239 52.0961 34.2866C52.0841 34.3343 52.0629 34.3791 52.0336 34.4186C52.0044 34.458 51.9676 34.4913 51.9255 34.5165L50.1994 35.5852L51.5381 34.8127C51.623 34.7637 51.7237 34.7501 51.8186 34.7746C51.9135 34.7992 51.9949 34.86 52.0454 34.944C52.0959 35.028 52.1114 35.1285 52.0885 35.2238C52.0657 35.3191 52.0063 35.4016 51.9232 35.4536L49.554 36.9314L51.47 35.8253C51.5543 35.7782 51.6536 35.7655 51.747 35.79C51.8405 35.8144 51.9208 35.874 51.9713 35.9564C52.0217 36.0387 52.0384 36.1374 52.0177 36.2317C51.997 36.3261 51.9407 36.4088 51.8604 36.4625L44.974 40.9078L51.2449 37.2874C51.3296 37.2416 51.4286 37.2301 51.5215 37.2554C51.6143 37.2808 51.6938 37.3409 51.7435 37.4234C51.7931 37.5059 51.809 37.6043 51.7879 37.6982C51.7667 37.7921 51.7102 37.8743 51.6301 37.9276L51.0049 38.3195C51.0891 38.2754 51.1869 38.2651 51.2785 38.2906C51.37 38.3161 51.4485 38.3755 51.4978 38.4567C51.5471 38.5379 51.5637 38.6349 51.5441 38.7279C51.5245 38.8209 51.4702 38.903 51.3923 38.9574L43.847 44.0938L50.2383 40.4045C50.3222 40.3575 50.421 40.3446 50.5142 40.3685C50.6074 40.3925 50.6877 40.4514 50.7386 40.5331C50.7894 40.6147 50.8068 40.7128 50.7872 40.807C50.7676 40.9012 50.7124 40.9842 50.6332 41.0387L46.6881 43.6884L49.287 42.1882C49.3688 42.1413 49.4652 42.1271 49.5571 42.1483C49.6489 42.1695 49.7293 42.2247 49.7823 42.3026C49.8352 42.3806 49.8568 42.4757 49.8426 42.5689C49.8284 42.6621 49.7795 42.7465 49.7058 42.8052L45.8371 45.861L46.4914 45.4833C46.534 45.4563 46.5816 45.4381 46.6314 45.4299C46.6811 45.4217 46.732 45.4237 46.781 45.4357C46.83 45.4477 46.8761 45.4695 46.9164 45.4997C46.9568 45.53 46.9906 45.5681 47.0158 45.6118C47.041 45.6554 47.0572 45.7037 47.0633 45.7538C47.0693 45.8039 47.0652 45.8546 47.0512 45.9031C47.0371 45.9515 47.0134 45.9966 46.9815 46.0356C46.9496 46.0747 46.9101 46.1069 46.8654 46.1302L41.7507 49.0828C41.6689 49.1288 41.5729 49.1424 41.4816 49.1209C41.3903 49.0994 41.3104 49.0443 41.2578 48.9667C41.2052 48.889 41.1837 48.7944 41.1975 48.7017C41.2114 48.6089 41.2596 48.5247 41.3326 48.4658L45.1999 45.4115L37.514 49.8487C37.4577 49.8814 37.3937 49.8987 37.3285 49.8988Z" fill="white"/>
<path d="M36.5003 46.1662C36.4218 46.1662 36.3453 46.1415 36.2816 46.0956C36.218 46.0497 36.1703 45.9849 36.1455 45.9105C36.1207 45.836 36.1199 45.7557 36.1434 45.6807C36.1668 45.6058 36.2131 45.5402 36.2759 45.4931L40.7789 42.1336L34.4578 45.7825C34.3743 45.8279 34.2766 45.8398 34.1846 45.8157C34.0927 45.7916 34.0133 45.7334 33.9627 45.6529C33.9121 45.5724 33.8941 45.4756 33.9123 45.3823C33.9305 45.289 33.9836 45.2061 34.0607 45.1506L37.8397 42.5786L33.1094 45.3091C33.026 45.3557 32.9279 45.3686 32.8353 45.3452C32.7426 45.3217 32.6625 45.2637 32.6113 45.183C32.5601 45.1024 32.5417 45.0051 32.5599 44.9113C32.5782 44.8175 32.6316 44.7343 32.7093 44.6787L38.7671 40.4906L31.7146 44.559C31.6303 44.6061 31.5311 44.6188 31.4376 44.5943C31.3442 44.5699 31.2639 44.5103 31.2134 44.4279C31.1629 44.3456 31.1463 44.2469 31.167 44.1525C31.1876 44.0582 31.244 43.9755 31.3243 43.9218L34.3105 41.9826L30.8905 43.957C30.8068 44.0048 30.7079 44.0185 30.6144 43.9951C30.5209 43.9718 30.44 43.9133 30.3886 43.8318C30.3372 43.7503 30.3193 43.6521 30.3385 43.5577C30.3577 43.4633 30.4127 43.3799 30.4919 43.325L38.1254 38.0824L29.7777 42.9054C29.6939 42.9541 29.5945 42.9683 29.5004 42.9451C29.4064 42.9219 29.325 42.8631 29.2734 42.7811C29.2218 42.6991 29.2041 42.6003 29.2239 42.5054C29.2438 42.4106 29.2997 42.3272 29.3798 42.2727L35.9439 37.8117L28.9535 41.8502C28.8698 41.8973 28.7711 41.9103 28.6781 41.8867C28.585 41.863 28.5045 41.8044 28.4535 41.7231C28.4024 41.6417 28.3846 41.5438 28.4038 41.4497C28.4229 41.3556 28.4776 41.2724 28.5564 41.2175L33.6621 37.7399L28.3417 40.8054C28.2999 40.8312 28.2534 40.8484 28.2049 40.8562C28.1564 40.8639 28.1068 40.862 28.0591 40.8507C28.0113 40.8393 27.9662 40.8186 27.9264 40.7898C27.8867 40.761 27.8529 40.7246 27.8272 40.6828C27.8015 40.6409 27.7842 40.5944 27.7765 40.5459C27.7687 40.4974 27.7706 40.4479 27.782 40.4001C27.7934 40.3523 27.814 40.3073 27.8428 40.2675C27.8717 40.2277 27.908 40.194 27.9499 40.1682L28.8473 39.5819L28.0052 40.068C27.9213 40.1151 27.8225 40.1279 27.7293 40.104C27.6361 40.0801 27.5558 40.0211 27.5049 39.9395C27.4541 39.8578 27.4366 39.7597 27.4563 39.6655C27.4759 39.5714 27.5311 39.4884 27.6103 39.4338L29.3222 38.2858L27.7053 39.2192C27.6227 39.2673 27.5248 39.2819 27.4317 39.26C27.3386 39.2381 27.2575 39.1814 27.2049 39.1016C27.1523 39.0217 27.1323 38.9248 27.1491 38.8306C27.1658 38.7365 27.2179 38.6523 27.2947 38.5955L30.8995 35.9121L27.4136 37.9246C27.3305 37.9709 27.2329 37.9838 27.1406 37.9606C27.0483 37.9374 26.9683 37.88 26.917 37.7999C26.8656 37.7198 26.8467 37.6232 26.864 37.5296C26.8814 37.4361 26.9338 37.3527 27.0105 37.2964L27.3949 37.0279L27.3157 37.0735C27.2331 37.1212 27.1355 37.1355 27.0428 37.1136C26.9501 37.0917 26.8692 37.0352 26.8167 36.9557C26.7642 36.8762 26.744 36.7796 26.7603 36.6857C26.7766 36.5919 26.8281 36.5077 26.9043 36.4506L27.6986 35.856L27.2925 36.0901C27.2117 36.1361 27.1166 36.1504 27.0258 36.1301C26.9351 36.1099 26.8551 36.0565 26.8016 35.9804C26.748 35.9044 26.7248 35.8111 26.7363 35.7188C26.7478 35.6265 26.7933 35.5419 26.8639 35.4813L27.6866 34.7865L27.2955 35.0109C27.2231 35.0528 27.1387 35.0692 27.0559 35.0575C26.9731 35.0458 26.8966 35.0067 26.8386 34.9464C26.7807 34.8861 26.7446 34.8081 26.7362 34.7249C26.7277 34.6417 26.7474 34.5581 26.7921 34.4874L27.445 33.4523C27.3585 33.479 27.2652 33.4733 27.1826 33.4363C27.0999 33.3994 27.0335 33.3337 26.9956 33.2515C26.9576 33.1693 26.9508 33.0761 26.9764 32.9893C27.002 32.9024 27.0582 32.8278 27.1347 32.7793L28.3739 32.0643C28.4463 32.0224 28.5306 32.006 28.6134 32.0177C28.6963 32.0294 28.7728 32.0685 28.8307 32.1288C28.8887 32.1891 28.9248 32.2671 28.9332 32.3503C28.9416 32.4335 28.9219 32.5171 28.8772 32.5878L28.2318 33.6109L30.9122 32.0613C30.993 32.0152 31.088 32.001 31.1788 32.0212C31.2696 32.0415 31.3495 32.0949 31.4031 32.1709C31.4566 32.247 31.4799 32.3403 31.4684 32.4326C31.4568 32.5248 31.4113 32.6095 31.3407 32.6701L30.518 33.3648L32.7766 32.0613C32.8591 32.0137 32.9567 31.9993 33.0495 32.0212C33.1422 32.0431 33.2231 32.0996 33.2756 32.1791C33.3281 32.2586 33.3483 32.3552 33.332 32.4491C33.3157 32.543 33.2642 32.6271 33.188 32.6843L32.3945 33.2781L34.505 32.0613C34.5883 32.0152 34.686 32.0026 34.7783 32.026C34.8706 32.0495 34.9504 32.1073 35.0015 32.1876C35.0527 32.2679 35.0712 32.3647 35.0534 32.4583C35.0357 32.5518 34.9829 32.6351 34.9058 32.691L34.5192 32.9617L36.0792 32.0643C36.1619 32.0162 36.2598 32.0016 36.3528 32.0235C36.4459 32.0453 36.5271 32.102 36.5796 32.1819C36.6322 32.2617 36.6522 32.3587 36.6355 32.4528C36.6188 32.547 36.5666 32.6311 36.4898 32.688L32.8873 35.3706L38.6145 32.0613C38.6982 32.016 38.7961 32.0044 38.8881 32.0287C38.9801 32.0531 39.0593 32.1116 39.1097 32.1924C39.1601 32.2732 39.1777 32.3701 39.1591 32.4635C39.1404 32.5568 39.0869 32.6395 39.0094 32.6947L37.2998 33.8412L40.384 32.0613C40.4682 32.0134 40.5678 32.0001 40.6616 32.0242C40.7555 32.0482 40.8364 32.1078 40.8872 32.1903C40.938 32.2728 40.9548 32.3719 40.934 32.4665C40.9133 32.5612 40.8566 32.6441 40.7759 32.6977L39.8784 33.2803L41.9912 32.0613C42.0747 32.0159 42.1724 32.0041 42.2644 32.0281C42.3563 32.0522 42.4357 32.1104 42.4863 32.1909C42.5369 32.2714 42.5549 32.3682 42.5367 32.4615C42.5185 32.5548 42.4654 32.6377 42.3883 32.6932L37.284 36.1746L44.4068 32.0613C44.4903 32.0159 44.588 32.0041 44.68 32.0281C44.772 32.0522 44.8513 32.1104 44.9019 32.1909C44.9525 32.2714 44.9705 32.3682 44.9523 32.4615C44.9341 32.5548 44.881 32.6377 44.8039 32.6932L38.2398 37.1543L46.0304 32.6596C46.1139 32.6136 46.2118 32.6012 46.3041 32.625C46.3964 32.6488 46.4761 32.7069 46.527 32.7875C46.5779 32.8681 46.5961 32.965 46.5779 33.0586C46.5597 33.1521 46.5064 33.2352 46.429 33.2908L38.7955 38.5334L46.3206 34.1853C46.4049 34.1381 46.5042 34.1255 46.5976 34.1499C46.691 34.1744 46.7714 34.234 46.8218 34.3163C46.8723 34.3987 46.8889 34.4974 46.8683 34.5917C46.8476 34.686 46.7912 34.7687 46.711 34.8224L43.7232 36.7632L46.3206 35.2674C46.4041 35.2203 46.5026 35.207 46.5956 35.2304C46.6887 35.2538 46.7692 35.312 46.8204 35.3931C46.8717 35.4742 46.8899 35.5719 46.8712 35.6659C46.8525 35.76 46.7984 35.8433 46.72 35.8986L40.6622 40.0867L46.2234 36.8761C46.3071 36.829 46.4057 36.816 46.4988 36.8396C46.5919 36.8633 46.6723 36.9219 46.7234 37.0032C46.7744 37.0846 46.7922 37.1825 46.7731 37.2766C46.7539 37.3707 46.6993 37.4539 46.6205 37.5088L42.8392 40.0815L45.9197 38.3038C46.0022 38.2581 46.0988 38.2453 46.1903 38.2679C46.2818 38.2904 46.3614 38.3467 46.4132 38.4254C46.465 38.5042 46.4852 38.5995 46.4697 38.6925C46.4542 38.7855 46.4041 38.8691 46.3296 38.9268L41.8281 42.2855L45.0395 40.4315C45.1204 40.3853 45.2156 40.3709 45.3066 40.3912C45.3975 40.4115 45.4776 40.4651 45.5311 40.5413C45.5846 40.6176 45.6077 40.7111 45.5959 40.8035C45.5841 40.8959 45.5382 40.9806 45.4673 41.041L43.0614 43.0677C43.1434 43.0686 43.2228 43.0963 43.2875 43.1467C43.3522 43.1971 43.3985 43.2674 43.4193 43.3467C43.4401 43.426 43.4343 43.5099 43.4027 43.5856C43.3712 43.6613 43.3156 43.7245 43.2446 43.7655L40.0048 45.6352C39.9239 45.6814 39.8287 45.6958 39.7377 45.6754C39.6468 45.6551 39.5667 45.6016 39.5132 45.5253C39.4597 45.4491 39.4366 45.3556 39.4484 45.2631C39.4602 45.1707 39.506 45.086 39.577 45.0257L41.7556 43.1904L36.685 46.1176C36.6287 46.1495 36.565 46.1662 36.5003 46.1662Z" fill="#E8E8E8"/>
<path d="M24.9447 49.6835C26.2737 50.8666 28.0447 51.4477 29.4552 52.4349C31.3129 54.5634 33.1354 56.7285 35.0305 58.8232C37.1837 61.2067 39.3525 57.7897 40.6598 56.2939C41.9095 54.9238 43.1053 53.3675 44.4104 52.0737C45.4574 51.429 46.6151 50.9983 47.6457 50.2983C62.2052 40.7322 56.4661 17.5624 39.2029 15.6845C20.186 13.4835 9.59839 37.7804 24.9447 49.6835ZM35.1906 16.3284C51.8502 14.8902 61.5493 35.8553 49.6627 47.6186C47.9499 49.2488 45.9787 50.5836 43.8293 51.5689C41.9858 53.0646 40.6523 55.2335 38.9756 56.9416C36.9623 59.7985 36.3849 59.1658 34.5317 56.6567L30.4528 51.981C28.189 50.5226 25.546 49.3843 23.7369 47.238C13.2248 36.8642 20.3348 17.2288 35.1906 16.3269V16.3284Z" fill="#262626"/>
<path d="M39.7214 49.6001C54.8456 46.7582 56.79 25.3436 42.1482 20.19C39.1495 19.1605 35.9116 19.0507 32.8501 19.8747C29.7886 20.6988 27.0432 22.4192 24.9666 24.8149C15.5681 35.7271 25.701 52.5318 39.7214 49.6001ZM24.3645 27.155C31.8627 14.3491 51.1182 20.0965 51.2251 34.6651C51.2234 37.6292 50.3258 40.5236 48.65 42.9686C46.9743 45.4136 44.5987 47.295 41.8348 48.3661C29.2511 53.0403 17.5821 38.5907 24.3645 27.155Z" fill="#262626"/>
<path d="M27.0488 39.3328C31.717 51.2419 48.5524 46.288 47.0776 33.7986C46.7979 30.8303 41.9001 32.4045 39.8389 32.0246H29.4824C28.2813 32.0246 26.8103 32.2206 26.562 33.6699C26.375 35.5714 26.54 37.4911 27.0488 39.3328ZM28.4645 32.6977C33.3661 32.691 38.2871 32.7029 43.1976 32.6977C44.3194 32.6977 45.8556 32.4195 45.9932 33.9863C46.092 35.6415 45.9366 37.3021 45.5325 38.9103C41.6765 50.1785 26.3511 45.6733 27.6337 34.3004C27.6337 33.643 27.6449 32.8383 28.4645 32.6977Z" fill="#262626"/>
<path d="M36.6076 28.5703C36.4752 26.6431 38.2267 25.273 38.1033 23.3352C38.1033 22.8117 37.0144 23.0077 37.0114 23.4399C37.0214 23.9732 36.9407 24.5042 36.7729 25.0105C36.2209 26.207 35.4589 27.296 35.5157 28.675C35.512 29.1948 36.6046 29.0026 36.6076 28.5703Z" fill="#262626"/>
<path d="M32.1159 29.2251C31.9993 27.2986 33.7388 25.9285 33.6117 23.99C33.6117 23.8082 32.5303 23.9608 32.5288 24.2801C32.6454 26.2067 30.9059 27.5768 31.033 29.5153C31.0315 29.697 32.1144 29.5444 32.1159 29.2251Z" fill="#262626"/>
<path d="M41.0959 29.3246C40.9673 27.3996 42.7196 26.028 42.5917 24.0895C42.5954 23.5421 41.4998 23.7156 41.4968 24.1807C41.5083 24.6981 41.4325 25.2136 41.2724 25.7057C40.7242 26.9187 39.9435 28.0196 40.0011 29.4166C39.9973 29.9633 41.0929 29.7883 41.0959 29.3246Z" fill="#262626"/>
</g>
<defs>
<linearGradient id="paint0_linear_670_6870" x1="-3.34263e-07" y1="-10.6277" x2="90.5319" y2="94.4681" gradientUnits="userSpaceOnUse">
<stop stop-color="#E3F1FF"/>
<stop offset="1" stop-color="#77B2EA"/>
</linearGradient>
<clipPath id="clip0_670_6870">
<rect width="44.8723" height="44.8723" fill="white" transform="translate(14.3711 15.1606)"/>
</clipPath>
</defs>
</svg>
