<svg xmlns="http://www.w3.org/2000/svg" width="406" height="298" fill="none" viewBox="0 0 406 298"><g clip-path="url(#a)"><path fill="#fff" d="M205.713 296.363c110.542 0 200.154-63.752 200.154-142.393 0-78.642-89.612-142.394-200.154-142.394S5.559 75.328 5.559 153.97 95.17 296.363 205.713 296.363"/><path fill="#fff" d="M291.894 33.966c.764-1.866 3.31-1.95 5.346-1.738 15.021 1.653 30.722 3.604 43.282 12.042 5.855 3.944 10.777 9.244 14.299 15.308 1.146 1.95 2.122 3.986 2.589 6.191.551 2.63.339 5.386.551 8.057.297 3.053 1.188 6.106.849 9.16-.509 4.537-3.734 8.353-4.965 12.763-.509 1.824-.679 3.732-.848 5.597-1.273 13.782-2.207 27.818.848 41.302-5.77 5.513-13.111 9.541-20.919 11.237-.424.085-.891.17-1.188-.127-.17-.17-.212-.424-.255-.636-1.612-8.099-3.352-16.58-8.486-23.11-.297-.382-.594-.721-1.018-.891-.679-.254-1.443 0-2.122.255-3.946 1.569-8.274 3.265-12.263 1.823-1.655-.594-3.055-1.739-4.413-2.883-6.407-5.555-11.669-12.425-15.318-20.058-5.262-10.94-7.256-22.474-7.893-34.56-.297-5.681-.127-11.363.085-17.046.085-2.077.17-4.113.424-6.19.297-2.206.764-4.368 1.443-6.446 1.485-4.622 5.219-8.947 9.929-10.092z"/><path fill="#D5D5D5" d="m347.225 100.413 5.22 6.742c-.085 7.209.212 15.011 1.018 23.365.382 4.028.891 7.887 1.443 11.619-.849 1.866-3.522 7.378-9.93 11.067-6.492 3.732-12.772 3.265-14.766 3.053 0-2.841-.043-5.639-.085-8.438a44.5 44.5 0 0 0 11.711-12.509c9.123-14.799 6.365-30.446 5.432-34.814z"/><path fill="#fff" d="m31.485 44.736 123.946-13.78 3.691 24.975 15.064-1.95 6.195 56.864-13.324 1.908 2.037 13.4-51.174 9.286 1.74 8.99 28.557-3.817 36.238 24.213v34.984L70.481 225.124l-25.8-68.822 41.245-7.548c-.594-3.392-1.188-6.742-1.782-10.092-13.451 1.823-26.902 3.604-40.396 5.427L31.4 44.736z"/><path fill="#D5D5D5" d="M151.823 82.943c.594.466 2.97 2.12 6.322 1.866 2.97-.212 4.965-1.781 5.559-2.332 1.57 3.222 4.71 5.3 8.062 5.343 3.522 0 5.856-2.205 6.322-2.672l2.928 24.17-13.154 2.672 2.037 13.4-51.937 8.735c.339 3.011.678 6.021 1.018 9.074-2.546 0-6.832.297-11.542 2.46-6.916 3.138-10.565 8.311-11.966 10.558-1.273-6.021-2.503-12-3.734-18.021l-44.809 6.912-10.226-56.525a12.34 12.34 0 0 0 5.304 4.664c3.225 1.484 6.11 1.145 7.171.933 2.25 12.382 4.54 24.764 6.79 37.146 32.927-4.791 65.812-9.583 98.74-14.417-.933-11.322-1.909-22.644-2.843-33.966zM65.982 182.211l36.195-5.937s13.027 11.746 41.202 7.591l-67.85 12.085s29.661 19.718 74.725 10.092l-79.689 17.725-4.54-41.556z"/><path fill="#D5D5D5" d="M64.455 181.914s-5.643-18.573 24.866-26.46l.636-5.385 25.629-8.439 3.183-1.399 1.146 7.972s22.828-3.732 46.166 3.519l-17.864-12.424-62.249 8.184-41.286 7.548 19.773 26.926z"/><path fill="#fff" d="M213.435 159.864a6.27 6.27 0 0 0-2.334 3.52c-.085.339-.128.72.085.975.254.297.679.254 1.06.169 2.716-.466 5.347-1.187 7.935-2.12-1.23.424-2.461.848-3.564 1.569-1.103.679-2.079 1.654-2.504 2.884-.297.763-.212 1.866.595 2.162.212.085.424.085.636.085 3.31 0 6.153-2.374 9.378-2.883-1.655.593-3.395 1.272-4.541 2.629a5.23 5.23 0 0 0-1.145 2.629c-.128.89.212 2.035 1.103 2.205.424.085.891-.085 1.273-.255 3.013-1.229 6.195-2.162 9.462-2.162-.848.169-1.739.212-2.546.466-.806.255-1.654.636-2.164 1.357-.509.721-.636 1.696-.169 2.46.127.169.254.296.424.381s.339.085.509.085c1.825.085 3.649-.339 5.474-.594s3.776-.254 5.389.594h.042q.128 0 .255.254c2.885 2.078 5.049 2.248 6.45 2.078 3.394-.466 4.497-3.477 8.444-3.731 1.909-.085 4.031.254 4.031.254.891.127 1.74.382 2.588.594 1.103.297 2.207.593 3.225 1.06 1.358.636 2.546 1.526 3.48 2.671 10.862 12.934 25.502 21.754 37.849 33.33-.933-1.951-.084-4.198.722-6.191a103.4 103.4 0 0 0 4.922-16.326c-3.989-1.314-7.553-3.646-11.075-5.979a741 741 0 0 1-20.24-13.951c-3.48-2.501-6.959-5.003-9.93-8.099a49 49 0 0 0-1.485-1.526c-1.442-1.527-3.352-2.629-4.752-4.198-2.122-2.333-3.013-5.47-4.625-8.142-1.146-1.866-2.589-3.519-3.862-5.3s-2.333-3.774-2.461-5.979c-.127-2.036.509-4.283-.594-5.979-.297-.467-.764-.891-1.315-1.061-.722-.169-1.528.212-2.037.764-.509.551-.806 1.272-1.018 1.993-1.273 3.901-1.401 8.184-.425 12.212.722 2.841 2.037 5.767 1.273 8.651-.721 2.798-3.394 4.749-6.195 5.512-2.8.763-5.771.424-8.614.085-.636-.763-1.739-.679-2.758-.806-2.928-.297-5.855-.297-8.783-.297-1.188 0-2.419 0-3.607.255-1.485.339-2.885 1.102-4.116 1.993.085 0 .127 0 .127-.043v-.127c0-.042 0-.085.085-.127zM226.335 240.092c-1.103.382-3.097 1.103-4.328 3.138-1.358 2.29-.764 4.707-.594 5.301-1.655.975-1.528 3.392-1.188 5.3 1.273 6.87 2.885 14.375 8.444 18.573 4.795 3.647 11.245 3.902 17.228 4.368 36.279 3.053 70.692 20.99 107.057 19.464.424 0 .891-.043 1.23-.297.382-.297.552-.764.679-1.23a346 346 0 0 0 7.638-30.743c.212-.975.382-2.078-.127-2.926-.424-.678-1.188-1.06-1.91-1.399-10.48-4.792-22.277-6.658-33.733-5.428-.213 2.926-.637 5.809-1.358 8.65-13.409 2.333-26.987 4.707-40.566 3.817-7.553-.509-15.573-2.29-20.792-7.803-3.14-3.35-4.964-7.717-7.807-11.322-1.401-1.781-3.055-3.392-4.031-5.427-1.995-4.241-.594-9.329-1.74-13.866-.127-.552-.34-1.145-.806-1.485-1.019-.763-3.056 1.4-3.607 1.993-3.522 3.562-3.14 10.601-2.801 13.782-3.097-1.188-7.425-2.544-12.008-2.926-1.273-.127-2.97-.17-4.837.509z"/><path fill="#101610" d="M213.479 159.737c-.339-.043-.467-.043-.721.169-.255.212-.51.467-.722.721-.424.509-.806 1.06-1.061 1.654-.424.933-.891 2.883.552 3.18s3.055-.551 4.371-1.06c1.612-.636 3.267-1.06 4.922-1.442.042 0 .042-.169 0-.212-1.188-.72-2.504-.593-3.777-.212-1.273.382-2.546.976-3.861 1.357-.552.17-1.146.382-1.697.297-.128 0-.255 0-.34-.085-.17-.127-.127-.169-.042-.424.085-.297.212-.551.339-.848a8.4 8.4 0 0 1 1.019-1.399c.424-.551.763-1.018 1.018-1.654v-.085zM167.565 185.858c-2.418 1.018-3.649 4.028-2.588 6.53 1.103 2.672 4.371 3.774 6.832 2.544 2.036-1.017 3.055-3.434 2.546-5.554-.679-2.799-3.989-4.707-6.79-3.52M184.158 162.832c-.467 1.272-.297 2.883-.297 4.24a163 163 0 0 1-.085 4.58c0 3.011 0 5.979-.042 8.99v8.989c0 3.011-.17 6.149.17 9.16 0 .296.212.932.594.932s.509-.678.551-.975c.17-1.526.085-3.095.128-4.58v-22.219c0-1.527 0-3.053-.085-4.58 0-1.399.169-3.053-.297-4.368-.085-.339-.425-.678-.594-.169z"/><path fill="#101610" d="M147.623 139.383c.849 1.103 2.164 1.823 3.268 2.629 1.23.848 2.461 1.696 3.649 2.544 2.376 1.654 4.795 3.266 7.213 4.877 4.795 3.223 9.59 6.445 14.427 9.668 2.716 1.823 5.432 3.647 8.147 5.428.594.424.849-1.739.213-2.12-9.59-6.403-19.18-12.849-28.855-19.167l-3.946-2.544a54 54 0 0 1-2.037-1.315c-.636-.424-1.23-.848-1.994-.933-.339 0-.212.806-.085.933M46.293 154.266c5.601-.551 11.16-1.738 16.76-2.459 5.602-.721 11.246-1.697 16.804-2.629 1.528-.255 3.013-.509 4.54-.806s3.056-.509 4.371-1.399c.042 0 .042-.255 0-.255-1.358-.254-2.716.127-4.031.424-1.358.297-2.716.551-4.074.806-2.758.509-5.516.975-8.232 1.442-5.558.975-11.032 2.162-16.59 3.095-3.183.551-6.366 1.06-9.506 1.781v.043zM44.129 154.224l2.164 39.393 24.187 30.15c-1.528-13.867-3.013-27.69-4.54-41.557-7.257-9.329-14.555-18.657-21.811-27.986M69.971 197.222c14.682-2.502 29.364-5.089 44.045-7.633 7.384-1.272 14.724-2.544 22.108-3.689 7.383-1.145 14.766-2.205 22.149-3.435 4.201-.678 8.36-1.611 12.518-2.332 4.158-.679 8.402-1.187 12.56-1.993v-.127c-3.776.254-7.51.848-11.287 1.272-3.776.424-7.298.593-10.948 1.06-7.425.89-14.808 2.078-22.149 3.265-14.767 2.417-29.491 4.834-44.173 7.845-8.316 1.696-16.59 3.477-24.865 5.428-.085 0-.085.339 0 .339z"/><path fill="#101610" d="M70.27 223.767a573 573 0 0 0 22.32-4.155c7.425-1.569 14.85-3.18 22.276-4.792a8470 8470 0 0 0 44.597-9.795c4.116-.891 8.232-1.824 12.348-2.714 4.116-.933 8.401-1.993 12.687-2.799.552-.085.297-2.078-.042-1.993-7.384 1.824-14.852 3.265-22.278 4.877s-14.851 3.265-22.277 4.919c-14.851 3.307-29.745 6.615-44.596 9.965a553 553 0 0 0-24.993 6.275c-.043 0 0 .17 0 .17zM66.152 181.914c3.777-.551 7.596-1.017 11.33-1.611 3.776-.594 7.553-1.272 11.372-1.866 7.468-1.23 14.936-2.374 22.447-3.477 15.148-2.205 30.339-4.283 45.53-6.106 8.571-1.018 17.1-2.417 25.629-3.562v-.085c-7.638.551-15.276 1.06-22.914 1.866-7.637.763-15.063 1.823-22.531 2.799-15.191 2.035-30.297 4.494-45.403 7.039-4.2.72-8.444 1.399-12.645 2.205-4.2.805-8.529 1.781-12.772 2.756v.042zM118.939 143.283c1.23.34 2.63.085 3.861-.042 1.188-.127 2.376-.212 3.564-.339 2.546-.297 5.05-.594 7.553-.933s4.922-.636 7.384-1.018l3.691-.509c.637-.084 1.273-.169 1.91-.212.721-.084.933 0 1.315-.636.127-.169.085-.551-.042-.721-.382-.424-.255-.339-.679-.296-.34.042-.637.127-.976.169l-1.91.382c-1.188.212-2.334.381-3.522.551a466 466 0 0 1-7.553 1.103c-2.503.339-4.922.636-7.425.975l-3.692.509c-1.231.169-2.461.254-3.564.763-.085 0-.043.254 0 .297zM92.674 137.263c-.128.763 0 1.569.127 2.29.127.975.255 1.993.382 2.968.255 1.908.467 3.816.764 5.725.551 3.774 1.103 7.547 1.655 11.364.042.297.212.89.636.721s.382-.976.297-1.315l-1.782-11.449c-.297-1.866-.636-3.731-.976-5.597-.17-.891-.34-1.824-.467-2.714-.127-.679-.17-1.484-.551-2.078-.043-.085-.085.085-.128.085z"/><path fill="#101610" d="M117.835 133.955c-.212.678-.085 1.441 0 2.12.085.89.17 1.823.254 2.714.213 1.95.51 3.901.764 5.851.509 3.817 1.061 7.676 1.613 11.492.042.339.254 1.102.721.89s.424-1.187.382-1.569l-1.655-11.449c-.297-1.865-.552-3.731-.849-5.639-.169-.891-.297-1.781-.509-2.672-.127-.509-.17-1.399-.594-1.781 0 0-.085 0-.085.043z"/><path fill="#101610" d="M95.812 160.457c2.08 0 4.243-.509 6.323-.805s4.2-.594 6.322-.891c4.201-.594 8.444-1.23 12.645-1.823.297 0 .254-.721.212-.891-.127-.89-.297-1.781-.424-2.671-.17-.933-.509-.17-.425.381l.382 2.672.212-.891c-4.2.594-8.444 1.188-12.644 1.824-2.037.297-4.116.593-6.153.89s-4.413.467-6.492 1.06c-.297.085-.297 1.103 0 1.103z"/><path fill="#101610" d="m85.885 155.412.085.169.085.043c3.182 1.993 4.794 2.671 4.794 2.671 3.65 1.484 4.838 2.672 5.304 2.205.213-.212.297-.721-.424-2.205l-2.928-20.227c-2.885.17-5.728.382-8.614.552.17 1.569 1.613 16.58 1.655 16.792zM145.884 40.284c-.382 2.247.127 4.75.34 6.997.254 2.501.551 4.96.848 7.463.552 4.961 1.104 9.965 1.698 14.926 1.188 9.923 2.418 19.845 3.479 29.81.594 5.597 1.146 11.195 1.57 16.835 0 .381.085 1.399.679 1.399s.636-1.06.594-1.399c-1.315-20.1-3.861-40.115-6.492-60.087-.382-2.799-.722-5.555-1.103-8.354-.17-1.4-.382-2.756-.594-4.155-.17-1.103-.298-2.417-.849-3.435-.085-.17-.17-.085-.212.085z"/><path fill="#101610" d="M54.865 130.86c.297.127.68.296 1.019.381.34.085.806 0 1.145 0q1.21 0 2.419-.127c1.612-.17 3.267-.424 4.88-.636 3.267-.424 6.492-.891 9.76-1.315 6.491-.89 12.984-1.823 19.476-2.713 12.984-1.824 26.011-3.605 38.995-5.428 3.692-.509 7.384-1.06 11.033-1.569l5.346-.763c1.91-.255 3.734-.806 5.686-.806.552 0 .34-2.163-.042-2.078-1.613.467-3.225.551-4.88.679-1.655.169-3.267.424-4.88.636-3.267.424-6.492.848-9.759 1.314-6.492.891-12.985 1.781-19.477 2.714-12.984 1.781-26.01 3.604-38.995 5.385-3.692.509-7.383 1.061-11.033 1.569l-5.346.764c-.891.127-1.867.254-2.758.551-.425.127-.849.254-1.316.382-.509.169-.848.424-1.315.72-.043 0-.043.255 0 .255zM42.56 52.539c3.353 0 6.747-.509 10.142-.848 3.395-.34 6.747-.679 10.099-1.018 6.747-.678 13.494-1.357 20.24-2.078 13.367-1.357 26.775-2.756 40.142-4.113 7.637-.763 15.233-1.611 22.828-2.332.425 0 .297-1.823-.042-1.781-13.494 1.484-26.987 2.799-40.481 4.198-13.366 1.4-26.775 2.799-40.141 4.198-3.819.424-7.595.806-11.414 1.187-3.82.382-7.68.594-11.415 1.357-.34.085-.297 1.23 0 1.23z"/><path fill="#101610" d="M42.305 51.945c.042 2.587.466 5.216.764 7.803.296 2.586.636 5.3.975 7.972.68 5.258 1.358 10.558 2.165 15.774a1087 1087 0 0 0 5.049 30.87c.51 2.841 1.018 5.725 1.57 8.566.255 1.399.51 2.841.806 4.24.127.721.255 1.4.382 2.121.127.593.17 1.272.552 1.738.382.467.636-.424.679-.636.127-1.187-.297-2.459-.51-3.604l-.763-3.944c-.467-2.502-.934-5.003-1.358-7.463a973 973 0 0 1-2.673-15.393c-1.74-10.389-3.31-20.863-4.795-31.294-.382-2.841-.806-5.682-1.188-8.523s-.595-5.725-1.231-8.523c-.127-.594-.424 0-.424.296M38.402 146.21c4.328-.297 8.656-1.061 12.984-1.697 4.286-.636 8.444-1.229 12.645-1.865 8.529-1.273 17.058-2.545 25.587-3.859a5258 5258 0 0 0 50.792-8.142c4.794-.805 9.589-1.569 14.384-2.374 2.376-.382 4.753-.806 7.086-1.188s4.965-.636 7.256-1.484c.34-.127.34-1.569 0-1.569-2.164-.085-4.328.467-6.449.848-2.122.382-4.286.764-6.45 1.103-4.201.721-8.402 1.442-12.603 2.12a2663 2663 0 0 1-25.544 4.198c-16.931 2.756-33.861 5.385-50.792 8.014-4.795.721-9.59 1.485-14.427 2.205-4.837.721-9.675 1.315-14.427 2.375-.34.085-.297 1.357 0 1.357z"/><path fill="#101610" d="M155.176 29.64c.424 6.318 1.443 12.637 2.291 18.955.849 6.276 1.74 12.594 2.631 18.87l5.347 37.527 1.527 10.559.764 5.343c.127.848.255 1.739.382 2.587.127.805.17 1.484.764 2.078.254.254.424-.085.509-.34.467-1.526.042-3.095-.17-4.622s-.424-3.138-.679-4.707c-.424-3.138-.891-6.275-1.358-9.413a2900 2900 0 0 0-2.715-18.828c-1.782-12.51-3.565-25.018-5.432-37.485-.551-3.52-1.06-6.997-1.612-10.516s-1.061-6.955-1.825-10.347c-.169-.72-.551 0-.509.382z"/><path fill="#101610" d="M31.4 43.76c4.074.086 8.063-.466 12.094-.89s8.062-.89 12.093-1.314c8.105-.848 16.21-1.739 24.314-2.63 16.124-1.78 32.206-3.646 48.331-5.342 9.08-.976 18.161-1.95 27.242-2.969.466-.042.339-1.908-.043-1.865-16.167 1.78-32.333 3.647-48.458 5.47-16.124 1.78-32.206 3.477-48.33 5.385-4.498.552-9.039 1.06-13.537 1.57-4.497.508-9.207.847-13.705 1.95-.17.042-.17.678 0 .678z"/><path fill="#101610" d="M31.103 43.252s.382 0 .382.17c.34 3.35 1.825 17.682 3.437 29.98a875 875 0 0 0 1.825 12.678c.467 3.223.848 5.428 1.103 7.124a1613 1613 0 0 0 8.614 50.716c.042.254-.127.508-.382.593-2.63.594-5.22 1.188-7.85 1.824 0 0-.17-.085-.297-.212-1.103-.806-3.989-14.503-12.73-98.081 0-.085 0-.17.085-.212l5.77-4.58zM159.165 55.422c2.461 0 4.965-.466 7.384-.763l3.564-.467c1.273-.17 2.631-.212 3.819-.551.509-.17.509-1.95-.043-1.95-1.23 0-2.503.254-3.691.423l-3.692.51c-2.461.339-5.007.55-7.383 1.187-.424.127-.424 1.653 0 1.653z"/><path fill="#101610" d="M173.848 52.411c0 1.824.297 3.732.466 5.555.213 1.823.382 3.69.594 5.555.425 3.69.807 7.378 1.189 11.068.763 7.335 1.442 14.714 2.206 22.05.424 4.155.849 8.311 1.358 12.467 0 .339.255 1.06.679.975.467-.085.509-1.018.509-1.357-1.061-14.884-2.928-29.683-4.668-44.524-.254-2.036-.509-4.114-.763-6.15-.255-2.034-.382-4.155-.891-6.148-.255-.975-.679 0-.679.467z"/><path fill="#101610" d="M167.1 112.032c2.206.212 4.455-.255 6.662-.552l6.662-.933c.636-.084.466-2.205-.043-2.12l-6.662.976c-2.249.339-4.498.551-6.662 1.357-.297.127-.339 1.272 0 1.272zM148.131 55.465 44.765 67.125 42.432 52.2c34.667-4.029 69.334-8.057 103.959-12.086l1.74 15.308z"/><path fill="#D5D5D5" d="M139.457 62.837 53.874 72.96a3.054 3.054 0 0 0-2.675 3.39l.439 3.706a3.055 3.055 0 0 0 3.393 2.673l85.583-10.123a3.054 3.054 0 0 0 2.675-3.39l-.439-3.706a3.054 3.054 0 0 0-3.393-2.673M142.379 80.645 56.796 90.768a3.054 3.054 0 0 0-2.675 3.39l.439 3.707a3.055 3.055 0 0 0 3.393 2.673l85.583-10.123a3.054 3.054 0 0 0 2.675-3.39l-.439-3.707a3.055 3.055 0 0 0-3.393-2.673M144.903 98.043l-85.395 11.599a3.053 3.053 0 0 0-2.616 3.436l.503 3.698a3.055 3.055 0 0 0 3.439 2.614l85.395-11.599a3.054 3.054 0 0 0 2.616-3.437l-.503-3.697a3.055 3.055 0 0 0-3.439-2.614"/><path fill="#101610" d="M141.428 68.525a4.156 4.156 0 1 0 0-8.311 4.156 4.156 0 1 0 0 8.311M69.462 73.148c-.085.55 0 1.102 0 1.653.085.636.128 1.23.212 1.866.128 1.187.255 2.375.637 3.52 0 .042.042 0 .042 0 .085-1.273-.042-2.502-.212-3.732a30 30 0 0 0-.297-1.908c-.085-.424-.127-1.018-.424-1.4zM88.896 70.857c-.127.552 0 1.103 0 1.654.085.636.128 1.23.213 1.866.127 1.187.254 2.375.636 3.52 0 .042.042 0 .042 0 .085-1.273-.042-2.502-.212-3.732a30 30 0 0 0-.297-1.908c-.085-.424-.127-1.018-.424-1.4zM108.753 68.525c-.084.552 0 1.103 0 1.654.085.636.128 1.23.213 1.866.127 1.187.254 2.375.636 3.52 0 .042.042 0 .042 0 .085-1.273-.042-2.502-.212-3.732-.085-.636-.169-1.272-.297-1.908-.085-.424-.127-1.018-.424-1.4zM125.855 66.405c-.085.552 0 1.103 0 1.654.085.636.127 1.23.212 1.866.127 1.187.255 2.374.637 3.52 0 .042.042 0 .042 0 .085-1.273-.042-2.502-.212-3.732a30 30 0 0 0-.297-1.908c-.085-.424-.127-1.018-.425-1.4zM71.754 91.212c-.128.551 0 1.102 0 1.654.085.636.127 1.23.212 1.865.127 1.188.255 2.375.637 3.52 0 .042.042 0 .042 0 .085-1.272-.042-2.502-.212-3.732-.085-.636-.17-1.272-.297-1.908-.085-.424-.128-1.017-.425-1.4zM91.187 88.922c-.085.551 0 1.102 0 1.654.085.636.127 1.23.212 1.865.127 1.188.255 2.375.637 3.52 0 .042.042 0 .042 0 .085-1.272-.042-2.502-.212-3.732a30 30 0 0 0-.297-1.908c-.085-.424-.127-1.017-.425-1.4zM111.045 86.59c-.127.551 0 1.102 0 1.654.085.636.127 1.23.212 1.865.127 1.188.255 2.375.637 3.52 0 .042.042 0 .042 0 .085-1.272-.042-2.502-.212-3.732a30 30 0 0 0-.297-1.908c-.085-.424-.128-1.017-.425-1.4zM128.189 84.469c-.127.551 0 1.102 0 1.654.085.636.128 1.23.213 1.865.127 1.188.254 2.375.636 3.52 0 .042.042 0 .042 0 .085-1.272-.042-2.502-.212-3.732-.085-.636-.169-1.272-.297-1.908-.085-.424-.127-1.018-.424-1.4zM74.002 109.36c-.127.552 0 1.103 0 1.654.085.636.127 1.23.212 1.866.127 1.187.255 2.375.636 3.519 0 .043.043 0 .043 0 .085-1.272-.043-2.501-.212-3.731-.085-.636-.17-1.272-.297-1.908-.085-.424-.127-1.018-.424-1.4zM93.436 107.07c-.128.552 0 1.103 0 1.654.084.636.127 1.23.212 1.866.127 1.187.254 2.374.636 3.519 0 .043.043 0 .043 0 .084-1.272-.043-2.501-.213-3.731-.085-.636-.17-1.272-.297-1.908-.084-.424-.127-1.018-.424-1.4zM113.296 104.738c-.085.552 0 1.103 0 1.654.085.636.128 1.23.212 1.866.128 1.187.255 2.374.637 3.519 0 .043.042 0 .042 0 .085-1.272-.042-2.501-.212-3.731-.085-.636-.169-1.272-.297-1.908-.085-.424-.127-1.018-.424-1.4zM130.437 102.576c-.085.551 0 1.103 0 1.654.085.636.127 1.23.212 1.866.127 1.187.255 2.374.637 3.519 0 .043.042 0 .042 0 .085-1.272-.042-2.502-.212-3.731-.085-.636-.17-1.272-.297-1.908-.085-.425-.127-1.018-.424-1.4z"/><path fill="#D5D5D5" d="M213.775 160.203c-1.231 1.824-1.231 2.46-1.018 2.714.466.551 2.206-.593 5.219-.721 1.103 0 2.037.085 2.588.17a5.2 5.2 0 0 0-2.037 1.06c-.891.763-2.036 2.163-1.697 2.756.382.594 1.91-.212 4.71-.169 1.443 0 2.631.254 3.395.466a4.6 4.6 0 0 0-1.613.721c-1.018.763-1.867 2.163-1.485 2.714.425.594 2.037-.509 4.413-.382 1.995.085 3.607 1.018 4.54 1.739-1.782.381-2.885 1.187-2.843 1.908 0 .424.467.763.595.848.933.636 2.079-.085 3.352-.212.976-.085 2.334.127 4.158 1.484.679.424 1.613 1.018 2.843 1.484 2.164.933 5.601 1.824 5.983 1.145.297-.509-1.061-2.205-7.977-7.081a13.2 13.2 0 0 1-3.565-2.205c-.551-.467-.594-.551-2.291-2.248-1.528-1.526-2.291-2.289-3.098-2.968-1.697-1.399-1.612-1.018-2.63-2.035-1.528-1.442-1.825-2.417-3.183-2.841-.382-.128-.806-.128-1.697-.17-1.146-.042-2.376-.085-3.819.424-.509.17-1.231.509-2.037 1.103M248.401 130.265c.551.424.551 1.272.466 1.951-.212 1.484-.848 2.926-.721 4.452.127 1.781.934 3.096 1.655 4.156 1.315 1.951 2.97 5.173 4.455 10.94-3.309-2.629-5.643-4.452-7.043-5.427-.213-.17-.637-.425-.976-.933-.595-.806-.637-1.612-.764-3.732-.17-2.714-.17-2.332-.212-2.756-.043-1.951-.085-2.969.084-4.071.34-2.035 1.358-4.749 2.462-4.749.254 0 .424.127.551.212zM305.641 200.275c-.933 3.519-1.909 7.081-2.843 10.601-1.273-1.103-2.588-2.205-3.861-3.308-7.511-6.445-15.021-12.891-22.362-19.463-1.655-1.484-3.352-3.011-5.007-4.495-2.843-2.544-5.686-5.131-8.529-7.675.255.212 4.371-2.248 4.88-2.46 1.57-.636 2.206.212 3.267 1.315a99 99 0 0 0 7.511 7.124c5.304 4.495 11.032 8.438 16.845 12.17 3.31 2.12 6.705 4.155 10.057 6.233z"/><path fill="#101610" d="M321.045 267.528c.721.679 1.697.594 2.673.679.934.085 1.867.212 2.801.297 1.952.254 3.904.509 5.813.848 1.952.339 3.734.678 5.601 1.102.891.212 1.782.34 2.674.552.933.254 1.994.551 2.927.551.043 0 0-.212 0-.212-.763-.509-1.655-.891-2.503-1.23-.934-.339-1.867-.721-2.843-1.018a54 54 0 0 0-5.729-1.441 54 54 0 0 0-5.685-.806c-.976-.085-1.952-.127-2.928-.17-.976 0-2.037-.212-2.801.424-.085.043-.042.297 0 .34zM246.406 144.089c-.255-1.399-.722-2.756-.934-4.155s-.17-2.884.085-4.326.636-2.883 1.443-4.07c.721-1.018 2.079-1.909 3.14-.721.976 1.06.679 2.841.636 4.155-.085 1.442-.085 2.884.297 4.326.34 1.272 1.061 2.417 1.782 3.519.891 1.272 1.825 2.544 2.759 3.817.933 1.272 2.079 2.586 2.673 4.113.297.763.467 1.569.636 2.417.17.721.382 1.442.594 2.162.085.34.255 0 .255-.169 0-1.739 0-3.308-.552-5.004-.509-1.569-1.4-2.883-2.376-4.198a112 112 0 0 1-3.14-4.325c-1.018-1.484-1.994-2.926-2.079-4.792s.254-3.604-.085-5.385c-.212-1.187-.764-2.629-2.037-3.053-2.928-.933-4.285 4.028-4.667 6.021a17.9 17.9 0 0 0-.213 5.428c.17 1.484.425 3.477 1.528 4.58.17.169.212-.255.212-.34zM259.433 172.543c1.74 1.823 3.352 3.774 5.049 5.597 1.613 1.739 3.31 3.308 5.007 4.919 3.437 3.223 6.917 6.361 10.439 9.498 7.128 6.276 14.257 12.51 21.555 18.574 3.692 3.053 7.426 6.275 11.966 8.014.17.042.128-.297.085-.339-3.309-3.308-6.874-6.234-10.438-9.244-3.522-3.011-7.044-6.022-10.608-8.99-7.256-6.106-14.512-12.213-21.598-18.488-1.825-1.612-3.565-3.308-5.432-4.877-1.994-1.654-4.031-3.223-5.94-5.004-.128-.127-.17.255-.085.34"/><path fill="#00C05A" d="M315.529 170.295c-.594-8.014 2.673-16.241 8.613-21.669 1.486-1.357 3.225-2.586 5.177-3.053a32.2 32.2 0 0 1 .934 8.778c4.837 2.035 10.608 1.526 15.191-1.06 4.582-2.587 7.977-7.039 9.589-12.043a366 366 0 0 1 2.631 5.894c.467 1.06.976 2.163.891 3.35 0 .891-.382 1.739-.721 2.544-1.443 3.393-2.886 6.87-5.347 9.584-2.121 2.374-4.879 4.071-7.51 5.936-3.649 2.629-7.002 5.598-10.736 8.057s-8.019 4.368-12.517 4.453a73 73 0 0 1 3.352-22.602 35.86 35.86 0 0 0-9.335 13.061c-.297-.721-.425-1.569-.297-2.333"/><path fill="#101610" d="M321.428 128.484c.254.552.382 1.06.721 1.569.297.467.637.891.976 1.357.637.976 1.273 1.951 1.782 3.011 1.231 2.375 2.292 4.792 3.098 7.336 1.145 3.604 1.782 7.336 2.503 10.983 0 .084.085.084.085 0 .552-4.198-.17-8.481-1.485-12.467a37 37 0 0 0-3.395-7.336 73 73 0 0 0-1.994-3.011c-.339-.466-.679-.933-1.061-1.357a2 2 0 0 0-.424-.424c-.255-.212-.382-.127-.637-.212-.254-.085-.169.509-.127.594z"/><path fill="#101610" d="M329.361 121.742a27.5 27.5 0 0 0 2.333-3.731c.34.763 2.886 6.488-.042 12.127-1.612 3.096-4.116 4.75-5.304 5.428-1.485-2.375-2.97-4.749-4.455-7.166a26.9 26.9 0 0 0 7.51-6.658z"/><path fill="#00C05A" d="M329.913 229.025a49 49 0 0 0-1.273-3.901c-1.909-5.386-3.607-7.972-4.286-9.796-2.079-5.47-.254-12.127 4.286-15.817a65 65 0 0 0 1.316 8.566c-.128-2.629.933-5.216 1.951-7.633a65 65 0 0 1 2.207-4.961c.085-.127.17-.297.339-.254.17.042 0 .339-.084.169 4.073-3.816 8.953-6.276 14.512-6.7 1.824-.127 3.691-.084 5.388.594 1.995.806 3.565 2.375 4.965 3.944 3.31 3.689 6.28 7.844 7.426 12.636 1.23 5.131.721 9.371.466 11.195-1.272 9.371-2.673 24.891-4.328 45.796-4.455-1.611-10.141-3.265-16.845-4.198a83.6 83.6 0 0 0-17.652-.636c.551-9.668 1.061-19.336 1.612-29.004"/><path fill="#101610" d="M272.758 166.055c2.461 1.865 4.752 3.901 7.213 5.767 2.461 1.865 4.838 3.646 7.341 5.385a345 345 0 0 0 14.852 9.795c1.4.848 2.8 1.781 4.285 2.502.679.339 1.358.721 2.122.933.806.254 1.655.551 2.461.848.127.042.127-.212.042-.254-1.23-.933-2.291-2.036-3.564-2.969s-2.461-1.696-3.734-2.502c-2.546-1.568-5.092-3.137-7.595-4.749-5.007-3.18-10.057-6.36-15.064-9.541-2.758-1.781-5.686-3.392-8.359-5.3v.08499999999999999M220.182 162.705c-.679-.254-1.698.297-2.334.551-.849.382-1.613.806-2.334 1.4-1.23 1.06-2.758 3.18-1.315 4.749.721.763 1.697.763 2.631.509 1.06-.297 2.036-.721 3.055-1.145 1.103-.466 2.206-.933 3.394-1.145 1.061-.212 2.207.085 3.098-.594.042 0 0-.169 0-.212-.297-.424-.594-.763-1.103-.89-.382-.127-.849-.085-1.273 0-.934.085-1.867.339-2.758.678-1.74.636-3.395 1.654-5.22 1.993-.891.17-2.291-.084-1.57-1.272.425-.721.976-1.399 1.57-1.993a8.8 8.8 0 0 1 1.867-1.442c.382-.212.764-.339 1.188-.508.382-.128.764-.17 1.104-.424v-.255"/><path fill="#101610" d="M223.917 166.945c-.551-.551-1.697 0-2.291.255-.806.382-1.485.89-1.994 1.654-.892 1.272-1.825 3.731-.34 4.961.764.636 1.782.339 2.631 0a33 33 0 0 1 3.31-1.06c1.145-.297 2.333-.467 3.522-.594s2.291 0 3.309-.678c.085-.043.043-.297 0-.339-.848-.679-1.612-.721-2.631-.637-.933.043-1.909.17-2.843.297-1.867.297-3.521.976-5.261 1.569-.552.212-2.037.424-2.122-.509-.085-.72.679-1.653 1.103-2.162.51-.636 1.104-1.23 1.783-1.654.551-.339 1.442-.466 1.867-1.018v-.085z"/><path fill="#101610" d="M228.16 171.101c-1.188.424-2.207 1.229-2.588 2.459-.255.721-.34 1.654 0 2.375.297.678.975.763 1.654.721 1.867-.128 3.65-.679 5.517-.594.933 0 1.824.17 2.715.382 1.104.254 2.292.763 3.437.508.085 0 .043-.169 0-.212-1.23-1.484-3.012-1.993-4.837-2.247-1.443-.212-2.843-.212-4.286.085-.891.169-1.739.424-2.63.509-.297 0-.637.042-.934-.043-.127 0-.212-.085-.297-.212q0 .19 0 0c0-.085 0-.169.042-.212.34-1.272 1.061-2.332 2.207-2.968.085-.043.042-.509 0-.509z"/><path fill="#00AF1A" d="M221.838 99.99c11.952 0 21.64-9.683 21.64-21.627s-9.688-21.626-21.64-21.626-21.641 9.683-21.641 21.626 9.689 21.627 21.641 21.627"/><path fill="#D5D5D5" d="M286.845 86.844c5.516 6.615 1.103 15.096 5.771 20.608 1.145 1.357 3.394 3.138 7.977 3.817-3.055-1.612-5.304-4.622-6.28-7.93s-.806-6.912.127-10.262c.467-1.653 1.103-3.222 1.443-4.918.806-3.86 0-7.888-1.103-11.704-.679-2.332-1.485-4.622-2.674-6.7-1.23-2.205-2.8-4.198-4.667-5.852-1.273 1.145-2.716 2.587-4.074 4.453a24 24 0 0 0-2.079 3.223c-.042 1.696 0 3.816.467 6.148a29.2 29.2 0 0 0 1.824 6.318 13.8 13.8 0 0 1 3.268 2.799M302.501 62.291c-.297.17-.509.51-.679.806a18.8 18.8 0 0 0-2.079 5.64c-.212 1.017-.297 2.078 0 3.095s1.018 1.909 2.037 2.163c1.527.381 2.928-.848 4.455-1.272 2.037-.552 4.159.381 6.238.339.636 0 1.315-.17 1.655-.678.297-.467.169-1.103 0-1.612-.425-1.145-1.273-2.078-2.122-2.926-1.358-1.4-2.843-2.671-4.54-3.647-.849-.508-1.74-.89-2.673-1.23-.595-.211-1.698-.974-2.292-.635z"/><path fill="#101610" d="M283.364 65.345c.891-.848 2.036-1.865 3.394-1.654.934.17 1.952.891 1.952 1.654 0 1.145-2.249 1.57-4.158 2.926-1.57 1.103-3.437 3.223-4.371 7.675a825 825 0 0 0-.509-3.731c.467-2.078 1.485-4.75 3.692-6.87M302.205 63.607c.212 1.399 2.589 1.696 5.262 2.925 5.219 2.375 7.341 6.276 7.977 5.767.509-.381-.551-3.01-2.037-5.088-2.843-3.859-7.977-6.912-10.226-5.47-.594.381-1.103 1.145-.976 1.865M309.673 86.801s.212.424.382.552c.17.127.424.254.636.17.212-.043.34-.255.425-.425s.085-.424.042-.636c-.085-.678-.297-1.357-.552-1.993-.254-.509-.551-1.357-1.018-1.738-.297-.255-.806-.297-1.061 0-.297.424.128 1.399.255 1.865a11 11 0 0 0 .891 2.205M289.179 85.826c.594 1.696.891 2.036 1.273 2.12.042 0 .551.17.806-.127.424-.424.042-1.442-.509-2.841-.807-2.078-1.316-2.247-1.57-2.29-.085 0-.382-.085-.552.085-.424.34-.085 1.357.509 3.01z"/><path fill="#101610" d="M288.71 65.345c.552.72.976 1.569 1.486 2.332a23 23 0 0 1 1.442 2.46 40 40 0 0 1 2.079 5.003c1.189 3.562 1.91 7.124 1.443 10.856-.424 3.773-1.57 7.166-1.909 10.813-.297 3.053-.085 6.275 1.103 9.117 1.146 2.841 3.946 5.724 7.256 5.342v-.084c-1.273-1.188-2.801-2.078-4.031-3.308-1.061-1.06-1.782-2.29-2.292-3.689-.976-2.714-.848-5.597-.424-8.396.552-3.647 1.485-7.251 1.485-10.983 0-3.52-.848-7.039-2.036-10.304-.637-1.696-1.401-3.392-2.334-4.919-.425-.72-.891-1.484-1.401-2.162-.254-.382-.509-.764-.848-1.103-.34-.34-.722-.594-1.061-.933zM306.871 114.025c1.146 1.315 2.546 2.544 4.243 3.096 2.377.763 4.88.085 6.917-1.23 3.649-2.332 3.776-7.378 2.758-11.152a18.2 18.2 0 0 0-1.655-4.113c-.297-.594-1.527-3.266-2.376-2.8-.085.043-.085.298-.043.383.255 1.23 1.104 2.204 1.698 3.265s1.103 2.12 1.485 3.265c.594 1.823.891 3.774.552 5.682-.807 4.113-4.965 6.573-8.996 5.809-1.655-.297-3.352-.975-4.54-2.205z"/><path fill="#101610" d="M308.484 113.685a12.6 12.6 0 0 0 1.825-1.017c.552-.382 1.146-.721 1.612-1.23 1.061-1.06 1.867-2.332 2.589-3.604 1.57-2.841 2.758-6.064 2.758-9.372 0-.508-.424-1.23-.637-.424-.381 1.442-.636 2.884-1.06 4.283a28 28 0 0 1-1.698 4.283c-1.358 2.587-3.055 5.216-5.389 6.997v.084M354.736 139.552c0-5.173-.934-10.347-1.358-15.477-.382-5.131-.509-10.389-.085-15.605.255-3.053.594-6.106 1.188-9.117 0-.085-.085-.467-.169-.255-3.65 10.135-2.843 21.372-1.401 31.846.425 2.926.806 5.894 1.698 8.693.042.127.127 0 .127-.085"/><path fill="#101610" d="M281.412 45.415c-1.273 4.24-1.782 8.778-2.122 13.188-.382 4.41-.467 9.074-.254 13.612.339 8.692 1.739 17.343 4.328 25.654 2.376 7.718 5.728 15.096 10.226 21.796 4.073 6.106 9.802 13.654 17.991 13.569 4.498-.042 8.657-2.756 12.178-5.343 3.48-2.586 6.79-5.3 8.063-9.456 0-.085 0-.424-.128-.254-1.145 1.23-2.206 2.544-3.352 3.731-1.273 1.357-2.716 2.545-4.243 3.605s-3.055 1.908-4.583 2.798c-1.697.976-3.522 1.866-5.431 2.333-8.402 1.95-14.385-5.471-18.501-11.619-8.741-13.061-13.748-28.453-14.851-44.1-.34-4.707-.34-9.457-.085-14.206.255-4.75.976-9.838 1.4-14.757 0-.424-.339-1.314-.551-.508z"/><path fill="#C7C7C7" d="M343.959 79.126c1.655-1.95 4.54-2.841 6.916-1.95-.339 2.162-1.655 4.07-3.267 5.554-.891.848-1.909 1.527-2.928 2.205-.848.552-1.994 1.696-2.418.255-.552-1.95.381-4.58 1.654-6.064z"/><path fill="#101610" d="M342.771 86.59c-.254-.722-.509-1.443-.466-2.248 0-.552.169-1.145.297-1.697.339-1.144 1.06-2.204 1.909-3.01.806-.764 1.825-1.442 2.928-1.696 1.103-.255 2.249-.043 3.31-.17v-.127c-.849-1.315-2.292-1.654-3.734-1.187s-2.462 1.356-3.31 2.459c-.849 1.102-1.443 2.417-1.655 3.816-.127.679 0 1.357.085 2.078.085.636.254 1.272.551 1.823z"/><path fill="#101610" d="M276.023 40.75c-1.74 1.866-1.528 5.174.424 6.828s5.262 1.272 6.79-.806c.594 1.569 1.994 2.799 3.649 3.223 1.655.381 3.479-.085 4.71-1.188.17 1.4 1.655 2.375 3.097 2.417 1.443.043 2.758-.636 3.947-1.441 1.485-1.018 2.885-2.205 4.073-3.562-.127 1.823 1.273 3.689 3.098 3.986 1.824.339 3.776-.933 4.285-2.714 1.104 1.187 2.249 2.374 3.734 2.968 1.486.594 3.438.382 4.371-.933-.679 1.4.552 3.18 2.079 3.477 1.528.34 3.098-.424 4.328-1.314-1.103 1.738-.594 4.198.891 5.555 1.486 1.357 3.777 1.738 5.729 1.145-2.886 4.07-2.546 9.668-.849 14.375.509 1.314 1.103 2.629 2.079 3.646.382.424 2.037 1.612 3.819 1.357 2.377-.339 2.546-2.925 5.177-4.96 2.461-1.91 6.832-3.224 10.099-1.273 3.182 1.908 3.904 6.106 3.564 8.862-.466 3.774-3.097 6.064-4.413 7.252-2.291 2.077-5.219 3.646-8.316 3.731 2.333 6.403 6.067 12.297 10.862 17.089-.339-1.272.128-2.587.637-3.774 2.546-6.064 6.11-11.661 8.826-17.64 2.715-5.98 4.625-12.594 3.607-19.082.721-.382 3.776-2.12 4.922-5.725 1.145-3.731-.255-8.014-3.522-10.813.127-.084 1.655-1.272 1.527-3.053-.127-1.654-1.654-3.138-3.649-3.265.382-.424 1.698-1.95 1.57-4.028-.127-2.545-2.376-4.877-5.474-5.428 1.189-1.357.891-3.52-.042-5.046-1.4-2.247-4.498-3.647-6.747-2.247.806-.891.594-2.502-.424-3.138-.552.127-1.103.212-1.613.339.51-.679.255-1.654-.127-2.375-1.867-3.816-7.044-5.597-10.863-3.731-.084-.212-.169-.467-.254-.679 0 .127 0-.085-.128-.17.043-2.756-2.333-5.046-5.007-5.809s-5.558-.085-8.019 1.145c.509-1.187.042-2.629-.849-3.52-.891-.89-2.249-1.314-3.522-1.314-2.843-.042-5.643 1.738-6.747 4.41-.084-1.06-1.4-1.654-2.376-1.272-.976.34-1.612 1.314-1.994 2.29-.552-1.315-2.716-1.4-3.395-.17-.254-2.078-1.994-3.901-4.073-4.198-2.079-.34-4.286.848-5.177 2.756-.085.17-.17.424 0 .594.127.17.467.085.424-.127-.594-1.866-3.097-2.969-5.049-3.223a6.29 6.29 0 0 0-5.262 1.993c-.849-1.442-2.97-1.866-4.413-1.06s-2.291 2.544-2.249 4.24c-1.4-.212-2.928.424-3.776 1.612-.849 1.145-1.019 2.798-.382 4.07-2.758.213-4.965 2.375-6.323 4.75-.551.975-2.885 4.24-1.909 8.523.933 3.986 4.031 6.064 4.71 6.446z"/><path fill="#D5D5D5" d="M234.355 266.34c10.268 6.488 20.452 5.258 35.855 7.548 9.972 1.484 6.662 2.121 29.194 7.718 39.165 9.668 45.063 6.785 47.991 4.537 2.673-2.078 8.274-7.845 7.68-24.255 2.122.636 4.201 1.272 6.323 1.866-2.292 11.11-4.54 22.22-6.832 33.372-11.244-.212-22.574-.382-33.649-2.417-22.998-4.198-44.554-16.241-67.934-16.792-4.413-.085-8.826.212-13.197-.297-3.649-.382-8.147-1.527-12.051-4.792-6.662-5.512-7.213-14.375-7.256-16.707-.382-1.272-.933-3.732-.085-6.445.213-.679.51-1.273.764-1.781a26.2 26.2 0 0 0 1.825 6.063c3.182 7.124 8.868 10.813 11.329 12.382z"/><path fill="#101610" d="M221.54 243.357c-1.612 4.326.255 9.414 2.843 13.019 1.273 1.78 2.843 3.307 4.583 4.579 1.739 1.272 3.564 2.332 5.813 2.417.17 0 .085-.339 0-.424-3.055-2.544-6.662-4.198-9.25-7.251-1.273-1.526-2.292-3.223-2.971-5.088-.806-2.205-1.612-4.919-.976-7.209zM219.97 251.287c0 1.018 0 1.993.127 3.011a15 15 0 0 0 .722 3.01c.679 1.951 1.612 3.817 2.843 5.513 1.103 1.569 2.546 3.223 4.201 4.198.721.424 1.527.933 2.333 1.06.976.17 1.91.509 2.886.678.042 0 0-.127 0-.169-.806-.424-1.655-.848-2.376-1.399-.425-.34-.764-.721-1.231-1.061a13 13 0 0 1-1.188-.932c-1.358-1.188-2.758-2.248-3.946-3.647-1.188-1.4-2.122-3.011-2.843-4.707-.382-.891-.637-1.866-.934-2.799-.254-.89-.551-1.908-.636-2.841z"/><path fill="#101610" d="M221.498 261.38c.382 1.399.721 2.841 1.231 4.155.424 1.06.976 2.121 1.527 3.096.934 1.569 2.037 3.053 3.352 4.325 1.825 1.739 3.904 3.011 6.323 3.774 4.455 1.399 9.25 1.611 13.833 2.035 3.394.34 6.831.34 10.268.764 9.166 1.229 18.034 3.986 26.903 6.488 10.905 3.053 21.81 6.148 32.885 8.438 4.922 1.018 9.844 1.823 14.851 2.332 5.177.551 10.481 1.188 15.7.976a60 60 0 0 0 4.753-.467c.212 0 .17-.424 0-.466-5.559-.848-11.202-1.06-16.803-1.612-4.668-.509-9.336-1.272-13.961-2.205-11.202-2.205-22.192-5.173-33.182-8.226-4.922-1.357-9.844-2.841-14.851-4.029-4.244-1.017-8.487-2.162-12.815-2.925-3.055-.552-6.068-.849-9.165-.976-4.965-.212-9.887-.721-14.809-1.314-2.759-.339-5.432-1.06-7.723-2.587-2.97-1.993-5.007-4.961-6.62-8.057-.636-1.187-1.23-2.29-1.655-3.604z"/><path fill="#D5D5D5" d="M233.931 245.139c.637.551 1.4.933 2.122 1.314 2.121 1.06 4.328 2.121 6.662 2.417.763.085 1.612.128 2.291.509a43 43 0 0 1-1.697-6.064c-.34.509-.934.721-1.528.891-1.443.424-2.885.848-4.413.975s-3.055-.042-4.413-.763a8.3 8.3 0 0 0 1.613 1.357"/><path fill="#101610" d="M231.809 243.993c.637.976 1.358 1.739 2.249 2.46a16.7 16.7 0 0 0 3.904 2.417c2.504 1.145 5.007 1.484 7.68 1.866.637.084.425-1.484.297-1.739-1.697-3.816-2.673-7.76-2.249-11.958a20.5 20.5 0 0 1 1.57-5.936c.679-1.527 1.91-4.326 4.074-3.817 1.188.255 1.146 1.4 1.146 2.375v3.392c0 2.248 0 4.537.509 6.742a15.5 15.5 0 0 0 2.503 5.81c1.146 1.654 2.546 3.138 3.819 4.664a19.6 19.6 0 0 1 3.183 5.258c.806 1.951 1.57 3.817 3.055 5.301 2.716 2.629 6.577 4.071 10.141 5.088 8.275 2.333 17.143 2.375 25.672 2.333 2.673 0 5.389 0 8.062-.043h4.074c1.358 0 2.715-.085 4.073-.085 4.328 0 8.656.467 12.942.764.594 0 .594-1.866-.042-1.951-3.862-.509-7.808-.721-11.712-.89-2.546-.128-5.049-.34-7.553-.34h-7.468c-9.08.043-18.416.382-27.242-1.908-3.861-.975-8.189-2.374-10.777-5.597-1.401-1.781-2.037-3.986-2.971-6.022-.891-1.908-2.206-3.604-3.564-5.215-1.358-1.612-2.758-3.096-3.734-4.877-1.103-1.95-1.528-4.071-1.74-6.276-.212-2.332-.127-4.664-.297-6.954-.127-1.696-.636-4.198-2.843-3.943-2.206.254-3.394 2.968-4.158 4.791-.976 2.205-1.528 4.58-1.782 6.997-.467 4.664.212 9.922 2.758 13.951l.169-1.908c-2.546.297-5.304-.424-7.595-1.357-1.273-.509-2.546-1.145-3.692-1.951-.466-.297-.891-.721-1.357-1.018-.34-.212-.722-.339-1.061-.551-.085 0-.043.127 0 .17z"/><path fill="#00AF1A" d="M182.417 71.324c3.607-1.187 7.511-1.484 11.287-1.102 2.759.254 5.474.975 8.105 1.908 1.825.636 3.522 1.484 5.219 2.417.085 0 .085-.212 0-.255-3.479-3.52-8.147-5.682-13.111-5.851-4.031-.128-7.935.975-11.542 2.798v.043zM230.833 95.494s-.127-1.017-.042-.424c0 .212 0 .382.085.552q.127.508.382 1.017l-.17-.848c.042 1.188.594 2.078 1.061 3.138s.891 2.036 1.273 3.096c.848 2.247 1.358 4.579 1.782 6.954.636 3.774.552 7.548-.085 11.322 0 .169.127.593.212.254 1.061-4.028 1.485-8.311 1.103-12.424a34 34 0 0 0-1.994-8.439c-.424-1.144-.933-2.247-1.485-3.35-.424-.89-.806-1.865-1.825-2.162-.424-.127-.297 1.145-.297 1.272z"/><path fill="#00C05A" d="M353.973 235.174c-.255-1.4-.764-3.477-1.995-5.725a17.8 17.8 0 0 0-2.97-3.901 53 53 0 0 1-.424 16.962 53 53 0 0 1-5.729 15.901c3.225.127 7.426.679 12.094 2.163 3.055.975 5.686 2.205 7.807 3.35.425-7.421 2.164-38.503.722-59.409-.255-3.519-.212-9.922-4.625-13.484-3.268-2.629-7.511-2.672-9.972-2.46a108.3 108.3 0 0 1 5.049 23.238c.976 9.117.679 17.046 0 23.322zM338.613 172.203c2.971-1.611 6.874-4.198 10.736-8.057a46.8 46.8 0 0 0 9.674-14.29 96 96 0 0 1-.636-1.866 45.5 45.5 0 0 0-3.267-6.742 22 22 0 0 1-4.753 8.142c-2.8 3.053-5.813 4.579-7.553 5.343.127 1.06.17 2.374 0 3.943a17.7 17.7 0 0 1-1.23 4.495c.551-.254 1.315-.636 2.121-1.399a7.45 7.45 0 0 0 1.698-2.417 21.6 21.6 0 0 1-1.231 5.046c-1.528 3.901-3.989 6.488-5.516 7.845z"/><path fill="#101610" d="M331.441 154.776c.637.424 1.146.975 1.91 1.272.509.212 1.103.339 1.655.424 1.273.127 2.631 0 3.904-.17 2.588-.382 5.134-1.314 7.425-2.629 2.122-1.272 4.116-3.011 5.601-5.004 1.57-2.12 2.419-4.452 3.013-6.996 0 0 0-.212-.085-.128-.806 2.036-2.164 4.071-3.522 5.81-1.57 1.993-3.394 3.647-5.601 4.919-2.164 1.272-4.54 2.077-7.001 2.459-1.188.17-2.376.255-3.607.255-1.061 0-2.716.254-3.692-.297z"/><path fill="#101610" d="M308.612 183.738c2.461-8.227 5.092-14.842 7.044-19.294-.297 2.374-.382 4.791-.17 7.166a62.6 62.6 0 0 1 10.311-14.121c-1.485 6.997-2.121 14.206-1.952 21.33 15.403-3.52 28.812-14.715 35.05-29.174 5.219 10.431 10.48 20.905 14.257 31.972 11.542 33.457 9.25 69.967 5.092 105.078-6.492 1.484-13.366 1.442-19.859-.085 1.273-8.862 2.419-18.149 3.268-27.859a487 487 0 0 0 1.739-49.783c1.061-9.965-6.831-18.276-15.53-18.149-7.723.085-14.851 6.827-15.233 15.647-.255 4.877-.467 9.796-.722 14.672a18.4 18.4 0 0 1-2.63-5.555c-1.189-4.156-.679-7.76-.297-9.626-3.565 6.403-2.419 15.096 2.673 20.397-.722 13.908-1.4 27.817-2.122 41.725a157 157 0 0 0-14.215-.89c-5.176-.042-9.929.17-14.257.551l-.424-3.519c-.552-14.248 0-26.206.636-35.153 1.018-13.57 2.164-27.775 7.426-45.373z"/><path fill="#101610" d="M326.943 146.337s-.51.085-.722.127c-.254.043-.467.17-.721.297-.594.339-1.188.763-1.782 1.187-1.485 1.103-2.758 2.672-3.862 4.198-2.928 3.986-4.71 8.778-5.261 13.697a30.6 30.6 0 0 0 0 6.233c.085.721.721 1.696 1.188.679 1.4-2.841 3.055-5.598 4.837-8.227a47 47 0 0 1 2.758-3.731c.891-1.103 1.867-2.205 2.546-3.477l-.127-.34c-.976 3.138-1.782 6.234-2.249 9.499a93 93 0 0 0-.806 11.407c0 .339.127 1.399.679 1.399 3.776-.212 7.425-1.442 10.778-3.096 3.352-1.653 6.28-3.349 9.207-5.427 4.626-3.265 8.699-7.294 11.669-12.17.891-1.484 1.74-3.011 2.419-4.622a29 29 0 0 0 1.443-4.198c0-.085-.043-.509-.17-.34-.552.891-1.146 1.697-1.655 2.587-.679 1.145-1.443 2.248-2.164 3.308a53 53 0 0 1-6.535 7.929c-3.776 3.732-8.444 6.658-13.154 9.075-3.734 1.908-7.68 3.689-11.923 4.07l.679 1.4c0-3.52.127-7.082.551-10.601.382-3.35.764-6.7 1.401-10.008 0-.042 0-.339-.085-.339-1.146.255-2.079 1.187-2.886 1.993-1.061 1.06-2.079 2.12-3.055 3.265-2.121 2.545-3.819 5.386-5.219 8.396l1.188.679v-.255q0 .255 0 0v-2.12c0-1.102.085-2.205.255-3.265a26 26 0 0 1 2.928-8.99 28 28 0 0 1 4.37-6.021c.679-.679 1.273-1.442 1.952-2.12.297-.297.636-.594.891-.891s.424-.763.764-1.06v-.085zM362.204 257.267c-.594 1.484-.637 3.095-.849 4.664s-.509 3.265-.764 4.877a264 264 0 0 1-1.867 9.795 272 272 0 0 1-2.249 9.838c-.424 1.696-.763 3.392-1.145 5.088-.34 1.612-.722 3.223-.807 4.877 0 0 0 .169.085.127.679-.763 1.019-1.781 1.401-2.756.424-1.188.848-2.417 1.23-3.605.764-2.502 1.316-5.088 1.867-7.633 1.146-5.215 2.037-10.516 2.716-15.816.212-1.612.382-3.265.509-4.877.127-1.484.255-2.883.127-4.367 0-.17-.169-.467-.254-.17z"/><path fill="#101610" d="M333.055 257.86c5.389.424 10.82 1.102 16.082 2.459 2.758.721 5.473 1.442 8.189 2.333 2.037.678 4.243 1.908 6.45 1.823.17 0 .085-.424 0-.509-1.825-1.654-4.201-2.332-6.535-3.095-2.546-.848-5.219-1.569-7.85-1.993-2.843-.467-5.728-.891-8.614-1.103-2.588-.212-5.134-.127-7.722.043zM243.012 241.662c-1.442-1.103-3.522-1.654-5.261-2.078a23 23 0 0 0-4.795-.763c-2.122-.127-4.71 0-6.492 1.314s-1.825 3.986-1.273 6.064c.721 2.714 2.376 5.343 4.37 7.336 1.231 1.23 2.673 2.205 4.243 2.968.595.297 1.273.594 1.952.721.594.085.976 0 1.57-.212.085 0 .085-.212 0-.254-.339-.297-.636-.594-1.06-.848a13 13 0 0 0-1.528-.764c-1.146-.551-2.249-1.144-3.225-1.908-2.121-1.654-3.861-3.943-5.049-6.36-.467-.976-1.061-2.205-.849-3.35.127-.806.679-1.4 1.358-1.824 1.697-1.102 3.989-1.187 5.94-1.06 1.57.085 3.14.339 4.668.721.891.212 1.825.466 2.716.763s1.824.679 2.758.764c.339 0 .212-.976 0-1.103z"/><path fill="#fff" d="M208.725 72.554c2.079-5.385 6.832-7.42 7.638-7.76l1.146 2.035c-.891.424-4.244 2.163-5.983 6.149-2.122 4.961 0 9.499.339 10.177 1.061-.255 2.122-.551 3.183-.806-.934 2.078-1.825 4.156-2.759 6.234-2.036-1.272-4.116-2.587-6.152-3.86 1.103-.296 2.206-.55 3.309-.847-.381-.721-2.885-5.64-.721-11.322M234.907 84.13c-2.08 5.386-6.832 7.421-7.638 7.76l-1.146-2.035c.891-.424 4.243-2.163 5.983-6.149 2.122-4.961 0-9.498-.339-10.177-1.061.255-2.122.552-3.183.806.934-2.078 1.825-4.156 2.758-6.233 2.037 1.272 4.116 2.586 6.153 3.858-1.103.297-2.207.552-3.31.848.382.721 2.886 5.64.722 11.322M139.305 64.624c.255.678.806 1.187 1.4 1.611.043 0 .128 0 .128-.042a27 27 0 0 1 1.188-1.824l.636-.89c.213-.297.51-.594.51-.975 0-.043-.085-.467-.213-.34-.212.212-.424.51-.594.721-.212.297-.424.594-.636.848-.382.594-.764 1.145-1.103 1.781h.127c-.297-.17-.552-.339-.764-.551s-.424-.382-.636-.594c-.085-.084-.085.212-.043.255"/><path fill="#101610" d="M143.549 85.19a4.156 4.156 0 1 0 0-8.311 4.156 4.156 0 1 0 0 8.311"/><path fill="#fff" d="M141.426 81.289c.255.678.807 1.187 1.401 1.611.042 0 .127 0 .127-.042.382-.636.764-1.23 1.188-1.824l.636-.89c.213-.297.51-.594.51-.975 0-.043-.085-.467-.212-.34-.213.212-.425.51-.595.721-.212.297-.424.594-.636.848-.382.594-.764 1.145-1.103 1.781h.127c-.297-.17-.552-.339-.764-.55-.212-.213-.424-.383-.636-.595-.085-.084-.085.212-.043.255"/><path fill="#101610" d="M145.969 102.576a4.157 4.157 0 1 0 0-8.311 4.156 4.156 0 1 0 0 8.311"/><path fill="#fff" d="M143.889 98.717c.255.678.806 1.187 1.4 1.611.043 0 .128 0 .128-.042.382-.636.764-1.23 1.188-1.824l.636-.89c.213-.297.51-.594.51-.976 0-.042-.085-.466-.213-.339-.212.212-.424.509-.594.721-.212.297-.424.594-.636.848-.382.594-.764 1.145-1.103 1.781h.127c-.297-.17-.552-.34-.764-.551s-.424-.382-.636-.594c-.085-.085-.085.212-.043.254M169.01 187.596c0 1.018.127 2.078.254 3.096.085.508.128 1.017.255 1.484.085.339.17.848.424 1.145 0 .042.085 0 .085-.043.127-.424.085-.933.085-1.399 0-.551-.085-1.06-.17-1.612-.085-.508-.127-1.017-.212-1.526-.085-.424-.127-.933-.339-1.357-.128-.254-.297 0-.297.17z"/><path fill="#101610" d="M272.715 165.546v3.986l-24.95 11.026-47.652-38.715v-3.986l25.163-8.651z"/><path fill="#fff" d="m265.756 162.493-21.174 9.372-4.583-3.69-4.922-3.986-9.463-7.675-2.97-2.417-1.57-1.314-6.662-5.386-10.353-8.438 21.386-7.336 1.442 1.103 6.79 5.215 1.612 1.23 3.055 2.332 9.675 7.421 5.049 3.859z"/><path fill="#fff" d="m200.919 138.831 46.591 37.358h-.339l23.083-10.134c.127-.043.212 0 .297.127.042.085 0 .212-.127.297l-22.999 10.304h-.339c.085-.127-46.803-37.782-46.209-37.825z"/><path fill="#101610" d="M213.649 159.906c.594-.721 1.613-1.017 2.461-1.314.934-.339 1.91-.509 2.886-.382.297 0 .636-.042.848-.212.17-.127.17-.297-.084-.339-1.358-.127-2.716.127-3.989.551-.594.212-1.188.467-1.782.721-.552.254-1.061.551-1.485 1.06-.17.212.169.254.297.254.254 0 .636-.084.806-.296zM218.783 163.256a19.7 19.7 0 0 1 5.686-.848c.254 0 .679-.085.806-.339.127-.255-.127-.34-.339-.34-2.122 0-4.286.34-6.323.933-.17.043-.594.212-.551.467.042.254.551.169.678.127zM224.512 166.988c1.994-.085 3.989-.085 5.983.085.297 0 .679-.085.806-.382s-.127-.466-.382-.509a52 52 0 0 0-6.28-.127c-.254 0-.636.212-.679.509-.042.297.34.382.552.382zM230.238 171.525c.933-.127 1.867 0 2.8.085.976.085 1.952.127 2.886.212.297 0 .636-.085.849-.212s.169-.254-.085-.254c-1.061-.085-2.08-.127-3.14-.212s-2.08-.17-3.14 0c-.17 0-.679.127-.722.339s.425.127.51.127z"/><path fill="#101610" d="M229.942 171.525a23 23 0 0 1 6.153.084c.254 0 .679-.084.806-.381s-.127-.424-.339-.467c-2.122-.339-4.329-.339-6.45-.085-.255 0-.637.17-.679.467s.339.382.552.339z"/><path fill="#101610" d="M229.901 171.822c2.333 0 4.667 0 7.001-.085.255 0 .637-.212.679-.467 0-.297-.339-.381-.552-.381-2.206.084-4.455.127-6.662.084-.297 0-.678.085-.806.382-.127.255.128.467.382.467zM236.35 176.317c1.442.636 2.97 1.06 4.498 1.442 1.57.424 3.182.805 4.794 1.144.298.043.679 0 .849-.212.17-.169.127-.339-.127-.424-1.528-.339-3.055-.72-4.625-1.102-1.528-.382-3.013-.763-4.456-1.399-.254-.128-.636 0-.848.127-.17.085-.382.339-.128.466z"/><path fill="#101610" d="M229.603 171.144a30 30 0 0 1 5.516-.127c.297 0 .637-.043.849-.213.17-.127.17-.296-.085-.339a44 44 0 0 0-5.813.127c-.255 0-.637.085-.806.297s.127.297.297.255zM224.34 166.437a39 39 0 0 1 5.431 0c.297 0 .637-.085.849-.212s.17-.255-.085-.255a42.5 42.5 0 0 0-5.686 0c-.255 0-.636.085-.806.297s.127.212.297.212zM225.359 167.157h5.473c.255 0 .637-.085.807-.297.169-.212-.128-.297-.34-.297h-5.474c-.254 0-.636.085-.806.34-.17.254.127.297.34.297zM218.527 162.747c.339-.17.848-.17 1.23-.212.509-.085.976-.127 1.485-.212a37 37 0 0 1 3.013-.255c.255 0 .637-.084.806-.296s-.169-.212-.297-.212c-1.188.084-2.333.169-3.522.339-1.145.127-2.376.254-3.479.678-.127.043-.382.212-.17.297s.637-.085.849-.17z"/><path fill="#101610" d="M218.994 163.002a22 22 0 0 1 2.927-.424l3.183-.254c.255 0 .636-.085.806-.297s-.17-.212-.297-.17c-2.249.212-4.54.255-6.704.806-.128 0-.637.169-.552.339s.594 0 .679 0z"/><path fill="#fff" d="M258.08 169.043c.632-.309.969-.917.753-1.359s-.903-.55-1.535-.241c-.632.308-.969.916-.753 1.358.217.442.904.55 1.535.242"/><path fill="#D5D5D5" d="m233.677 137.941-12.603 14.842-6.662-5.386 12.475-14.671zM238.345 141.503l-12.73 15.011-2.97-2.417 12.644-14.926zM253.068 152.783l-13.07 15.392-4.922-3.986 12.942-15.265z"/></g><defs><clipPath id="a"><path fill="#fff" d="M0 0h406v298H0z"/></clipPath></defs></svg>