<svg xmlns="http://www.w3.org/2000/svg" width="339" height="217" fill="none" viewBox="0 0 339 217"><g clip-path="url(#a)"><path fill="#77B47C" d="M63.928 24.029c31.149-40.562 120.006-26.443 171.98 14.263 45.594 35.676 82.979 107.532 56.598 148.309-27.779 42.934-117.533 37.904-171.801-1.006C66.617 146.829 33.174 64.052 63.892 24.029z"/><path fill="#fff" d="M336.486 115.752a181 181 0 0 0-10.61-2.048 228 228 0 0 0-10.682-1.473l-.358-3.161a66 66 0 0 0-1.828-3.773c-1.936-3.629-2.366-4.275-6.452-9.233-.43-.503-.86-1.006-1.434-1.365-.681-.432-1.505-.611-2.33-.755-10.179-2.012-20.395-4.024-30.754-4.814-1.792-.144-3.62-.252-5.412-.108-.861 5.497-1.147 10.994-.538 16.527-1.398-.108-2.76-.18-4.158-.288-1.971 1.078-3.907 2.156-5.878 3.234l-1.363 69.412c25.557 4.203 51.078 8.407 76.635 12.611-.358-23.102-.681-46.203-1.039-69.305 2.079-1.796 4.122-3.629 6.201-5.425z"/><path fill="#00AF1A" d="m324.3 127.501 1.076 52.706-63.337-8.084v-52.67l5.054 1.006c.143 13.545.287 27.09.394 40.634 15.736 2.407 31.507 4.851 47.243 7.258.251-13.797.466-27.629.717-41.425l8.889.539z"/><path fill="#00AF1A" d="M261.823 171.979a863 863 0 0 1 20.037 2.084 817 817 0 0 1 43.909 6.287c.645-12.61.251-25.293-1.111-37.868-.646 1.617-1.793 4.06-3.979 6.539a22.3 22.3 0 0 1-6.058 4.779c0 4.85-.071 9.7-.071 14.586-15.7-2.407-31.364-4.85-47.064-7.257.144-1.437.287-2.838.395-4.276l-6.022-3.556a178 178 0 0 0-.251 7.796c-.036 3.808 0 7.437.215 10.922z"/><path fill="#fff" d="M167.734 98.184c-2.868-4.311-4.086-9.449-5.233-14.479-.538-2.335-1.076-4.706-.968-7.113.071-1.725.502-3.378.896-5.066.824-3.45 1.685-6.898 2.509-10.347.788-3.198 1.541-6.431 1.254-9.7-.286-3.27-1.828-6.611-4.695-8.192s-7.061-.79-8.495 2.155c-2.975-3.664-4.051-8.443-5.628-12.898-1.613-4.419-4.229-9.017-8.71-10.526-2.186-.755-4.588-.683-6.918-.468-6.488.54-12.904 1.905-19.391 2.048-.968 1.581-1.649 3.342-2.044 5.174 0-.503-.358-.97-.824-1.042-1.111 4.311-1.075 8.838-1.004 13.33.108 8.155.215 16.418 2.223 24.322 1.684 6.683 4.695 12.97 8.065 19.006 1.577 2.838 3.297 5.676 5.627 7.976s5.377 3.988 8.639 4.096c3.261.107 6.667-1.617 7.993-4.6 3.764 6.72 6.273 14.12 7.42 21.737 8.065 2.084 17.276-2.695 20.216-10.527.502-1.329.824-2.91.071-4.167-.86-1.402-2.939-2.336-2.509-3.916M178.592 182.039c2.473-5.605 3.907-10.132 4.732-13.114.609-2.156 1.111-4.347.967-7.114-.071-1.724-.501-3.377-.896-5.065-.824-3.45-1.684-6.899-2.509-10.348-.788-3.197-1.541-6.431-1.254-9.7.286-3.27 1.828-6.611 4.695-8.192 2.868-1.58 7.062-.79 8.495 2.156 2.975-3.665 4.051-8.443 5.628-12.898 1.613-4.419 4.229-9.018 8.71-10.527 2.186-.754 4.588-.682 6.918-.467 6.488.539 12.904 1.904 19.392 2.048a16.6 16.6 0 0 1 2.043 5.174c0-.503.358-.97.824-1.042 1.111 4.311 1.075 8.838 1.004 13.329-.108 8.155-.215 16.419-2.223 24.323-1.684 6.682-4.695 12.97-8.065 19.006-1.577 2.838-3.297 5.676-5.627 7.976-2.33 2.263-5.377 3.988-8.638 4.095-3.262.108-6.667-1.616-7.994-4.598-2.007 2.766-3.226 5.209-3.943 7.005-.752 1.869-1.039 3.09-2.15 6.827-.932 3.125-1.721 5.676-2.258 7.437-10.825-3.054-18.317-7.15-19.249-10.096-.788-2.443-.071-4.168-.071-4.168a5.6 5.6 0 0 1 1.541-2.047z"/><path fill="#D5D5D5" d="M187.268 187.464c.466 2.694 1.684 6.682 5.448 11.209-1.685 0-4.337-.323-7.097-1.76-6.56-3.449-8.244-10.491-8.531-11.713a612 612 0 0 0 6.774-16.598 560 560 0 0 0 4.839-12.611c.323 1.904.753 5.03.717 8.874-.036 10.815-3.441 15.162-2.15 22.563zM156.872 101.417c-.466 2.694-1.685 6.682-5.448 11.209 1.685 0 4.337-.323 7.097-1.76 6.559-3.449 8.244-10.491 8.531-11.713a326 326 0 0 1-6.273-16.957c-1.541-4.491-2.903-8.839-4.194-13.114a36.4 36.4 0 0 0-1.864 9.772c-.501 10.06 3.513 14.623 2.151 22.563M300.104 100.016c1.362 4.778.144 8.73-.358 10.167a36 36 0 0 1 4.516 2.874c5.09 3.701 8.495 7.94 10.717 11.353v-6.574c2.402.395 4.875.862 7.456 1.365 2.652.539 5.197 1.114 7.635 1.689 2.366-1.545 4.731-3.126 7.097-4.671-7.42-1.222-14.84-2.407-22.259-3.629-.144-1.509-.251-2.982-.395-4.491-1.182 0-2.544-.072-4.014-.323a24 24 0 0 1-7.133-2.371 44.2 44.2 0 0 0 1.039-10.347c0-.504 0-1.006-.071-1.474-2.868-.323-5.735-.646-8.639-.934 1.111 1.078 3.334 3.521 4.409 7.366M261.788 105.549c.179-.108.394-.18.573-.216.179 0 .394 0 .609.072 1.076.215 2.151.431 3.191.647v5.245c-2.438-1.365-5.269-1.509-7.958-1.94-1.72-.288-1.864-.755-.322-1.653a67 67 0 0 1 3.871-2.155z"/><path fill="#fff" d="M6.97 47.67c3.263-1.007 6.74-1.94 10.396-2.839 3.656-.898 7.204-1.617 10.538-2.263.071-1.186.143-2.407.215-3.593l8.89-15.7c9.641-3.09 20.43-5.641 32.223-6.97a145 145 0 0 1 5.412-.54c1.29 5.426 1.936 10.887 1.757 16.456 1.362-.18 2.76-.396 4.122-.611l6.13 2.802c2.15 23.03 4.3 46.095 6.487 69.125-25.163 6.072-50.325 12.179-75.488 18.251-1.362-23.065-2.688-46.131-4.05-69.16a1050 1050 0 0 0-6.595-4.959z"/><path fill="#D5D5D5" d="M15.036 45.873c4.445-.97 8.854-1.94 13.298-2.91v5.281a2116 2116 0 0 0-14.41 3.7c-.214.073-.43.109-.644.073-.215-.072-.359-.216-.538-.324-.932-.79-1.971-1.437-3.047-1.976-1.003-.503-2.258-.826-3.154-1.437.789-.826 2.903-1.042 3.979-1.293 1.505-.36 3.01-.719 4.516-1.042zM81.169 31.646a52 52 0 0 0 5.52 3.125 43 43 0 0 1-9.93 3.054c-.142-1.042-.931-4.42-.214-5.281.43-.503 4.086-1.258 4.588-.898z"/><path fill="#101610" d="M196.23 172.41c-.574 1.833-.717 3.844-.179 5.677.752 2.479 2.724 4.383 4.767 5.964 1.111-2.084 2.294-4.132 3.584-6.072.036-.072-3.082-4.527-3.369-5.03-.466-.898-.932-1.796-1.29-2.73-.287-.683-.538-2.3-1.219-2.587-1.04 1.329-1.792 3.197-2.294 4.814zM240.353 110.794c1.039-2.119 1.935-6.646-.287-10.131-.502-.79-2.079-2.946-6.703-4.276-6.165-1.76-10.646.036-17.528 1.545-16.13 3.485-21.721.108-25.808 5.21-1.254 1.58-2.652 4.311-2.437 9.233 0 .252-.251.359-.43.216-2.294-2.084-6.273-1.545-8.925.251-5.628 3.844-7.277 11.605-6.237 18.359 1.039 6.755 4.265 12.898 6.452 19.365 2.437 7.078 3.656 14.551 3.656 22.024 0 .251.358.359.466.143 1.398-2.335 2.867-5.317 4.122-8.945a48.8 48.8 0 0 0 2.258-9.988c0-.108-.072-.252-.179-.288-5.018-1.617-7.671-6.287-6.667-9.988.824-3.089 4.409-6.359 7.886-5.245 2.616.862 4.48 3.952 3.978 7.437 0 .144.072.287.251.287l5.305.431s.287-.107.287-.251c.215-3.808.466-7.617.681-11.425q0-.108.107-.216c2.689-1.688 5.377-3.413 8.065-5.101.072-.072.144-.144.108-.252-.359-4.742-.753-9.485-1.111-14.263 0-.18.143-.323.322-.287 16.13 3.952 29.177 2.371 32.296-3.917zM217.949 167.057c-.574-.862-1.362-1.509-2.115-2.228-.968-.97-1.864-2.011-2.545-3.197-.645-1.114-1.111-2.299-1.47-3.557-.251-.826-.537-1.796-.43-2.694 0-.108 0-.575-.179-.575-.43 0-.681.287-.968.575-.322.287-.645.574-.896.898a10 10 0 0 0-1.326 2.119 10 10 0 0 0-.932 4.671c.036 1.365.358 2.766 1.147 3.916s2.079 1.904 3.441 2.156c1.004.179 2.115.179 3.118-.072a12 12 0 0 0 1.578-.539c.25-.108.537-.216.752-.359.323-.216.61-.539.896-.827.072-.071.144-.646-.035-.574-.359.107-.753.107-1.112.215-.466.18-.932.359-1.433.503-.789.18-1.613.323-2.402.323-1.434 0-2.939-.395-3.907-1.473-1.505-1.688-1.47-4.203-.717-6.215.287-.755.681-1.473 1.147-2.156.251-.359.538-.754.789-1.078.358-.431.752-.754 1.003-1.221l-.251-.144c.18.97.18 1.976.359 2.982a14 14 0 0 0 1.47 3.916c.681 1.222 1.577 2.479 2.652 3.449.645.575 1.505 1.402 2.402 1.294.035 0 0-.072 0-.108zM219.814 143.165c.358.359.394.934.394 1.437a7.1 7.1 0 0 1-.645 2.695 1.5 1.5 0 0 1-.287.467c-.107.108-.358.215-.537.143-.108-.035-.215-.143-.287-.251-.43-.647-.323-1.473-.108-2.228.108-.467.251-.97.431-1.401.107-.359.322-.754.681-.862h.322a.28.28 0 0 1 .144.144c.25.359.358.826.286 1.293M205.226 196.518a30.3 30.3 0 0 1-.072 12.826c-2.796-3.377-5.556-6.718-8.351-10.095a592 592 0 0 0-2.509 9.484 593 593 0 0 0-1.685 6.539c-3.226-1.149-8.208-3.449-12.761-8.083-2.58-2.623-10.896-11.138-8.065-19.258 1.327-3.844 4.696-6.215 7.42-7.58-.358.934-.681 1.904-1.039 2.838.251 1.185 1.505 6.934 7.025 10.742 5.018 3.485 10.216 3.054 11.578 2.91 1.218-3.844 2.401-7.688 3.62-11.532a30.9 30.9 0 0 1 4.839 11.173z"/><path fill="#D5D5D5" d="M236.589 142.519c-1.541 1.077-2.867 2.479-3.799 4.131-1.075 1.869-1.613 3.952-1.971 6.072-.287 1.761-.395 3.521-.861 5.245s-1.29 3.378-2.652 4.491c-1.362 1.114-3.441 1.438-4.947.539 1.793-.574 3.155-2.048 4.158-3.628.538-.863 1.04-1.761 1.291-2.767.322-1.114.358-2.335.322-3.485-.107-4.634-1.218-9.485.61-13.724.681-1.617 1.792-3.018 3.011-4.275.788-.791 2.831-3.198 4.014-3.126 1.577.108 1.326 3.305 1.326 4.275 0 1.078-.071 2.12-.143 3.198-.036.503 0 2.802-.394 3.054zM221.822 133.033c.573-.287 1.326 0 1.72.503s.466 1.114.502 1.725c.072.754.036 1.545 0 2.335-.036.539-.108 1.114-.394 1.617s-.753.934-1.327 1.042c-1.075.179-1.971-.683-2.975-1.078-.968-.359-2.079-.216-3.154-.323a5.56 5.56 0 0 1-2.402-.755c-.25-.144-.501-.287-.609-.503-.107-.251-.072-.539 0-.79.323-1.33 1.398-2.479 2.796-2.946a9 9 0 0 1 1.649-.36c.968-.179 1.971-.323 2.975-.503.645-.107 1.326-.215 1.9.072.25.144.537.324.788.18"/><path fill="#101610" d="M236.66 113.668c.179 4.599.502 9.197.502 13.832 0 3.737-.251 7.437-.681 11.138-.932 7.904-2.438 15.7-5.95 22.886-2.402 4.958-5.054 9.987-8.818 14.083-1.864 2.012-4.194 3.988-6.918 4.707s-5.412 0-7.635-1.545c-3.799-2.695-6.129-7.114-8.172-11.21-.072-.179-.215-.395-.251-.467-.108-.251-.215.072-.143.216.609 1.653 1.039 3.305 1.863 4.922 1.291 2.551 2.832 4.994 4.875 7.006s4.588 3.557 7.527 3.521 5.449-1.473 7.528-3.306c4.516-3.952 7.599-9.413 10.287-14.73 1.792-3.557 3.298-7.221 4.337-11.066 1.075-3.916 1.685-7.904 2.223-11.928 1.111-8.119 1.29-16.454.179-24.574-.144-1.15-.395-2.263-.681-3.413 0-.072-.072 0-.072.036z"/><path fill="#101610" d="M223.183 132.458c.323.36.609.97.394 1.33-.251.467-1.147.287-2.258.323-2.903.108-5.412 1.689-6.237 2.228-1.003.646-1.899 1.401-2.114 1.221-.108-.108 0-.431.143-.754 1.183-2.587 3.226-3.773 3.226-3.773 2.151-1.257 5.556-1.976 6.81-.575zM234.188 134.219c-.824.467-1.577 1.114-2.366 1.653-.107.071-.251.143-.394.107-.108 0-.179-.107-.215-.179-.359-.539-.072-1.222.251-1.761 1.254-2.012 3.405-3.413 5.735-3.736.143 0 .322 0 .358.108v.143c0 .611-.071 1.222-.071 1.797 0 .179.071.754-.036.862-.144.18-.108.072-.359.072-.932 0-2.15.323-2.903.898zM231.605 146.506c-.215-.036-.251-.287-.286-.503-.036-.539.358-4.383 1.218-3.377.323.395.359 1.293.287 1.76-.072.432-.573 2.264-1.219 2.084z"/><path fill="#D5D5D5" d="M190.745 146.075c-.179-.754-.394-1.688-1.183-2.55-.43-.503-1.254-1.402-2.401-1.366-1.04.036-2.008.898-2.473 2.084.107.539.681 2.659 2.724 4.096a6.76 6.76 0 0 0 3.405 1.149c.251-1.508.072-2.694-.108-3.413z"/><path fill="#101610" d="M191.067 149.416c.323-.431.323-1.042.323-1.545 0-.575-.072-1.149-.18-1.724-.251-1.078-.681-2.12-1.362-3.018-.609-.755-1.433-1.401-2.437-1.437s-1.685.718-1.972 1.616c0 0 0 .144.036.108.502-.431 1.327-.467 1.972-.431.824.072 1.577.575 2.079 1.222.573.682.932 1.509 1.147 2.371s.107 1.76.215 2.658c0 .072.107.324.179.18M149.2 87.944c.574 1.833.717 3.845.179 5.677-.752 2.479-2.724 4.383-4.767 5.964-1.111-2.084-2.294-4.132-3.584-6.072-.036-.072 3.082-4.527 3.369-5.03.466-.898.932-1.796 1.29-2.73.287-.683.538-2.3 1.219-2.587 1.04 1.33 1.792 3.198 2.294 4.814zM105.077 26.365c-1.04-2.12-1.936-6.647.286-10.132.502-.79 2.079-2.946 6.703-4.275 6.165-1.76 10.646.035 17.528 1.544 16.13 3.486 21.721.108 25.808 5.21 1.254 1.58 2.652 4.311 2.437 9.233 0 .252.251.36.43.216 2.294-2.084 6.273-1.545 8.925.251 5.628 3.845 7.277 11.605 6.237 18.36-1.039 6.754-4.265 12.898-6.452 19.365-2.437 7.077-3.656 14.55-3.656 22.023 0 .252-.358.36-.466.144-1.398-2.335-2.867-5.317-4.122-8.946a48.7 48.7 0 0 1-2.258-9.988c0-.108.072-.252.179-.288 5.018-1.616 7.671-6.287 6.667-9.987-.824-3.09-4.409-6.36-7.885-5.246-2.617.863-4.481 3.952-3.979 7.437 0 .144-.072.288-.251.288l-5.305.43s-.287-.107-.287-.25c-.215-3.809-.466-7.617-.681-11.426q0-.108-.107-.215c-2.689-1.689-5.377-3.413-8.065-5.102-.072-.072-.144-.144-.108-.252.359-4.742.753-9.484 1.111-14.263 0-.18-.143-.323-.322-.287-16.13 3.952-29.177 2.371-32.296-3.916zM127.48 82.735c.968.108 1.828-.754 2.509-1.365 1.075-.97 1.9-2.192 2.617-3.45.717-1.257 1.147-2.55 1.434-3.915.179-.97.143-1.976.358-2.91l-.251.18c.43.718 1.075 1.328 1.577 1.975.466.611.86 1.222 1.183 1.904.502 1.078.789 2.3.717 3.485-.072 1.042-.359 2.084-.968 2.946-.824 1.114-2.079 1.653-3.405 1.797-.896.072-1.756 0-2.617-.18a12 12 0 0 1-1.541-.431c-.215-.072-.43-.18-.645-.252-.287-.071-.574-.071-.896-.143-.215-.072-.179.467-.072.539.394.359.717.754 1.219.97a8 8 0 0 0 1.613.61c.896.252 1.828.36 2.724.324 1.505-.108 3.011-.683 4.014-1.868 1.864-2.264 1.685-5.749.681-8.371a9.6 9.6 0 0 0-1.362-2.444 6.7 6.7 0 0 0-.967-1.041c-.359-.324-.646-.719-1.147-.719-.215 0-.18.467-.18.575.108.826-.215 1.796-.43 2.587-.358 1.293-.86 2.586-1.577 3.7a18.2 18.2 0 0 1-2.437 3.054c-.753.754-1.577 1.401-2.151 2.3v.143M125.615 58.735c-.358.36-.394.934-.394 1.437a7.1 7.1 0 0 0 .645 2.695c.072.18.179.36.287.467s.358.216.538.144c.107-.036.215-.144.286-.252.431-.646.323-1.473.108-2.227a9 9 0 0 0-.43-1.401c-.108-.36-.323-.755-.681-.863h-.323a.28.28 0 0 0-.143.144 1.8 1.8 0 0 0-.287 1.293M140.169 112.087a30.3 30.3 0 0 0 .071 12.827c2.796-3.378 5.556-6.719 8.352-10.096.86 3.126 1.685 6.287 2.509 9.485a582 582 0 0 1 1.685 6.539c3.226-1.15 8.208-3.449 12.76-8.084 2.581-2.623 10.897-11.138 8.065-19.257-1.326-3.845-4.695-6.216-7.42-7.581.359.934.681 1.904 1.04 2.838-.251 1.186-1.506 6.934-7.026 10.743-5.018 3.485-10.215 3.053-11.577 2.91-1.219-3.845-2.402-7.689-3.621-11.533a30.9 30.9 0 0 0-4.838 11.173z"/><path fill="#D5D5D5" d="M108.841 58.089c1.541 1.078 2.867 2.479 3.799 4.132 1.075 1.868 1.613 3.952 1.972 6.071.286 1.76.394 3.521.86 5.246.466 1.724 1.29 3.377 2.652 4.49s3.441 1.438 4.947.54c-1.792-.575-3.155-2.048-4.158-3.629-.538-.862-1.04-1.76-1.291-2.766-.322-1.114-.358-2.336-.322-3.485.107-4.635 1.219-9.485-.609-13.725-.682-1.617-1.793-3.018-3.011-4.275-.789-.79-2.832-3.198-4.015-3.126-1.577.108-1.326 3.306-1.326 4.276 0 1.077.072 2.12.143 3.197.036.503 0 2.802.395 3.054zM123.538 48.317c-.574-.288-1.362 0-1.721.502-.358.503-.466 1.114-.502 1.725a13 13 0 0 0 0 2.335c.036.54.108 1.114.395 1.617s.753.934 1.362 1.042c1.075.18 1.971-.683 2.975-1.078 1.004-.36 2.115-.215 3.154-.323a5.9 5.9 0 0 0 2.438-.755c.251-.143.501-.287.609-.503.107-.251.072-.539 0-.79-.323-1.33-1.434-2.48-2.832-2.946a9 9 0 0 0-1.649-.36c-1.003-.18-1.971-.323-2.975-.502-.645-.108-1.362-.216-1.899.071-.251.144-.538.324-.789.18"/><path fill="#101610" d="M108.697 29.203c-1.076 4.49-1.362 9.233-1.398 13.868 0 3.916.179 7.868.609 11.784.932 8.3 2.545 16.455 6.237 24 2.509 5.173 5.341 10.383 9.32 14.55 2.007 2.084 4.373 3.916 7.24 4.599 2.868.682 5.592-.18 7.85-1.904 3.979-3.018 6.667-7.904 8.101-12.647.071-.215.143-.503.179-.647.036-.107-.072-.502-.143-.287-.144.395-.466.898-.682 1.33-.465.862-.931 1.724-1.397 2.55-1.255 2.336-2.832 4.635-4.732 6.467-1.9 1.833-4.516 3.306-7.312 3.234s-5.197-1.545-7.205-3.306c-4.337-3.808-7.276-9.161-9.821-14.299-1.685-3.413-3.154-6.862-4.158-10.562-1.004-3.701-1.613-7.545-2.151-11.354-1.111-7.796-1.182-15.7-.681-23.532.072-1.294.108-2.551.18-3.844 0-.037-.036-.144-.072-.072z"/><path fill="#101610" d="M122.246 47.993c-.322.359-.609.97-.394 1.329.251.467 1.147.287 2.258.323 2.903.108 5.413 1.689 6.237 2.228 1.004.646 1.9 1.4 2.115 1.221.107-.108 0-.43-.144-.754-1.182-2.587-3.226-3.773-3.226-3.773-2.15-1.257-5.555-1.976-6.81-.575zM111.242 49.79c.825.466 1.578 1.113 2.366 1.652.108.072.251.144.394.108.108 0 .18-.108.215-.18.359-.539.072-1.222-.25-1.76-1.255-2.012-3.406-3.414-5.736-3.737-.143 0-.322 0-.358.108v.143c0 .611.072 1.222.072 1.797 0 .18-.072.754.036.862.143.18.107.072.358.072.932 0 2.151.323 2.903.898z"/><path fill="#101610" d="M114.182 51.406c1.039 2.3 2.043 4.67 2.616 7.114.645 2.658.681 5.389.502 8.083-.251 3.45-1.111 7.797 1.792 10.456 1.649 1.508 4.23 2.155 6.309 1.221.072 0 .072-.287 0-.323-1.864-1.006-4.086-1.294-5.771-2.623-1.111-.898-1.721-2.156-1.864-3.593-.143-1.976.251-4.024.323-6 .107-2.658-.072-5.281-.717-7.832-.61-2.371-1.577-4.742-3.155-6.61v.071zM231.034 135.153c-3.118 3.629-4.05 8.946-3.907 13.581.072 2.084.394 4.168.394 6.251 0 1.473-.466 2.875-1.541 3.916-1.685 1.617-4.158 1.869-6.129 2.947-.072.035-.072.287 0 .323 1.935.826 4.301.359 5.95-.898 1.326-1.042 2.079-2.479 2.33-4.132.322-1.904.035-3.916-.108-5.82-.215-2.623-.287-5.246.215-7.832.538-2.875 1.685-5.605 2.868-8.228v-.072zM113.787 62.077c.215-.036.251-.288.287-.503.035-.54-.359-4.384-1.219-3.378-.323.396-.359 1.294-.287 1.76.072.432.574 2.264 1.219 2.085z"/><path fill="#D5D5D5" d="M154.684 61.61c.179-.755.394-1.69 1.183-2.551.43-.503 1.254-1.401 2.401-1.366 1.04.036 2.007.899 2.473 2.084-.107.54-.681 2.659-2.724 4.096a6.77 6.77 0 0 1-3.405 1.15c-.251-1.51-.072-2.695.108-3.413z"/><path fill="#101610" d="M154.542 64.771c.108-.862 0-1.724.215-2.622a6.1 6.1 0 0 1 1.147-2.372c.502-.61 1.219-1.15 2.008-1.221.358-.036.752 0 1.111.036.322.036.681.144.896.36.036.035.036-.073.036-.109-.287-.898-1.004-1.616-2.008-1.616-1.003 0-1.828.682-2.437 1.437-.681.862-1.111 1.94-1.362 3.018a9.4 9.4 0 0 0-.179 1.724c0 .503 0 1.078.322 1.545.108.144.18-.108.18-.18z"/><path fill="#D9E5DA" d="M205.932 51.52A64.2 64.2 0 0 0 186 27c6.741.748 21.929 3.325 36.909 14.587C238.929 53.597 245.587 68.683 248 75c-4.868-7.48-12.983-17.87-25.715-26.888a95.8 95.8 0 0 0-17.727-9.933c.458 4.447.874 8.894 1.332 13.34zM138.747 150.97c4.524 9.842 11.543 18.539 20.253 25.03-6.85-.764-22.283-3.394-37.504-14.891C105.217 148.848 98.452 133.448 96 127c4.947 7.636 13.192 18.242 26.13 27.448a97.2 97.2 0 0 0 18.012 10.14c-.465-4.54-.888-9.079-1.353-13.618z"/><path fill="#00AF1A" d="m20.162 58.483 2.796 52.634 62.584-12.754-3.871-52.526-4.947 1.365c.86 13.509 1.72 27.018 2.58 40.563-15.52 3.592-31.04 7.15-46.56 10.742l-3.728-41.245-8.818 1.221z"/><path fill="#101610" d="M37.617 82.842c1.506-1.365 2.94-2.73 4.803-3.557a9.5 9.5 0 0 1 1.685-.61c.143 0 .789 0 .681-.18.036.072-.108.575-.143.682-.072.79.322 1.545 1.218 1.581.466 0 .896-.215 1.327-.36.645-.25 1.29-.215 1.971-.107.645.072 1.255.18 1.9.108.537-.072 1.04-.252 1.505-.431 2.581-.97 5.198-1.33 7.886-1.833.072 0 .072-.18 0-.18-2.007-.574-4.122-.43-6.13.145-.896.251-1.756.646-2.616.898-1.004.287-1.936.072-2.94 0-.465-.036-.931 0-1.397.143-.466.144-.86.432-1.29.468-.216 0-.467 0-.682-.072-.071 0-.215-.108-.25-.18 0 .072.071-.108.071-.072 0-.36.108-.682.036-1.078-.358-1.616-2.94-.143-3.728.324-1.756 1.006-3.19 2.479-3.907 4.383zM36.544 68.903c.645-.539 1.398-1.006 2.114-1.473.574-.395 1.757-1.365 2.438-.826.538.43.645 1.042 1.47 1.078.896 0 1.612-.683 2.473-.827.932-.144 1.935.144 2.903.144s1.9-.18 2.832-.395 1.828-.503 2.688-.934c.932-.468 1.828-1.078 2.76-1.617v-.072c-.932.252-1.9.431-2.832.647-.932.215-1.9.575-2.903.79s-1.971.36-2.94.323c-.967-.035-2.042-.323-3.01 0-.753.252-1.649 1.114-2.51.683-.644-.323-.68-1.186-1.54-1.078-.753.072-1.542.719-2.08 1.15-.788.61-1.361 1.437-1.9 2.263 0 0 0 .216.037.18zM35.003 57.478c.502-.79 1.04-1.473 1.756-2.048.538-.431 1.541-1.258 2.258-1.078s.538 1.365 1.362 1.509c.681.144 1.327-.539 1.9-.79.825-.36 1.757-.288 2.617-.288 1.04 0 2.007-.108 3.01-.323 1.972-.431 3.836-1.078 5.7-1.833.072 0 .072-.251 0-.251-1.04.072-2.115.144-3.119.323-1.003.18-1.97.467-2.974.683a13 13 0 0 1-2.868.287c-.86 0-1.72 0-2.51.36-.68.323-1.72 1.4-2.221.287-.251-.575-.538-1.114-1.29-.97-.825.18-1.506.97-2.044 1.58a14.3 14.3 0 0 0-1.649 2.228c-.072.108 0 .54.108.396zM61.634 35.526c.18.754.61 1.365 1.076 2.012s.896 1.221 1.326 1.832c.107.18.25.108.358 0 .968-1.113 1.9-2.263 2.832-3.413 1.004-1.257 1.828-2.623 2.76-3.952 0 0 0-.251-.036-.18-.502.432-1.04.827-1.577 1.222-.538.395-1.04.934-1.505 1.437-1.004 1.114-2.008 2.264-2.904 3.45h.359a60 60 0 0 0-1.398-1.546c-.287-.287-.825-1.078-1.29-.934-.036 0-.036.108 0 .108zM64.465 46.412l.538.863c.179.251.394.467.609.718l1.255 1.365c.394.431.788.899 1.218 1.366.18.215.395.467.61.682.179.18.394.431.68.324.18-.072.18-.503.144-.647-.072-.395-.215-.683-.466-1.006-.18-.252-.394-.467-.573-.683a22 22 0 0 0-1.255-1.329c-.43-.431-.824-.862-1.255-1.221-.215-.18-.43-.396-.645-.575-.215-.18-.466-.252-.717-.36-.215-.072-.179.431-.107.54z"/><path fill="#101610" d="M65.722 53.346c.215-.251.43-.467.609-.754l.537-.97c.359-.647.682-1.294 1.04-1.94.789-1.402 1.362-2.947 2.115-4.348 0-.036 0-.215-.072-.143-.43.538-.932 1.078-1.362 1.616-.43.54-.824 1.186-1.183 1.833a55 55 0 0 0-1.04 2.048c-.358.79-.609 1.544-.788 2.37 0 .073 0 .396.144.252zM64.61 61.753c.43.539.931 1.006 1.361 1.509s.86 1.042 1.255 1.58c.072.108.25.144.358 0 .645-1.15 1.29-2.335 1.972-3.484a23 23 0 0 0 1.864-3.916s0-.36-.072-.288c-.968.79-1.613 1.832-2.222 2.874a71 71 0 0 0-1.972 3.629l.395-.144c-.43-.503-.86-1.006-1.327-1.473s-.896-.934-1.433-1.257c-.18-.108-.251.215-.287.323-.036.216 0 .503.107.647M66.22 75.549c.036.79.502 1.509.968 2.12.466.61.968 1.185 1.542 1.724.179.18.322.072.394-.108a41 41 0 0 1 2.258-3.844c.896-1.365 1.72-2.694 2.33-4.203 0 0 0-.252-.072-.216-1.254.683-2.043 1.94-2.76 3.09a46 46 0 0 0-2.258 4.096l.323-.216a9.8 9.8 0 0 1-1.434-1.545c-.215-.251-.359-.539-.61-.79-.107-.144-.358-.467-.573-.431-.108 0-.143.215-.108.323M75.076 15.406c-.18 4.67.25 9.413.466 14.084.215 4.67.502 9.593.753 14.407.537 9.52 1.039 19.042 1.577 28.526.143 2.659.286 5.354.43 8.012.072 1.365.143 2.73.215 4.06 0 .647.072 1.257.107 1.904.036.683 0 1.33.43 1.904.18.288.466.036.538-.18.466-.97.144-2.37.072-3.412l-.215-3.521c-.144-2.407-.287-4.815-.43-7.186-.251-4.742-.538-9.52-.825-14.263-.537-9.52-1.075-19.042-1.684-28.527-.18-2.622-.323-5.245-.502-7.868-.18-2.622-.323-5.353-.717-7.976-.036-.251-.251-.287-.251 0z"/><path fill="#101610" d="M32.743 99.549c1.505.143 3.118-.36 4.588-.647s3.046-.61 4.588-.97a839 839 0 0 0 9.14-2.12c6.022-1.437 12.08-2.838 18.065-4.455 3.406-.898 6.81-1.868 10.216-2.838.43-.108.287-1.653-.036-1.545-6.022 1.617-12.08 3.054-18.137 4.599s-12.151 2.946-18.245 4.275c-1.756.395-3.477.79-5.233 1.186s-3.477.61-5.018 1.401c-.215.108-.215 1.042.072 1.042zM22.958 111.621c.968.072 1.971-.252 2.94-.431 1.075-.216 2.114-.432 3.19-.683 1.935-.431 3.87-.862 5.842-1.257l11.936-2.479c7.886-1.653 15.736-3.234 23.621-4.923 4.553-.97 9.033-2.155 13.514-3.34.071 0 .035-.252 0-.216-3.98.61-7.994 1.221-11.937 1.976s-7.957 1.652-11.936 2.479c-7.957 1.652-15.914 3.341-23.872 4.994-2.222.467-4.409.898-6.631 1.329-1.147.215-2.294.467-3.441.718-1.147.252-2.222.36-3.226.863-.215.107-.215 1.006.072 1.006z"/><path fill="#101610" d="M20.164 58.053c.035.934-.108 1.832-.144 2.766-.036.826-.036 1.689-.036 2.515 0 1.724 0 3.449.072 5.21.072 3.52.18 7.077.323 10.598a557 557 0 0 0 1.218 20.515c.287 3.772.61 7.545.968 11.281 0 .252.18.826.538.683.358-.144.287-.934.287-1.222a770 770 0 0 1-2.581-40.706l-.215-5.856c0-.898-.072-1.797-.108-2.73-.072-1.042-.287-2.048-.25-3.09zM13.567 52.304c1.29-.072 2.652-.539 3.942-.862l3.8-.934c1.255-.324 2.545-.61 3.8-.97s2.58-.503 3.691-1.078c.144-.072.144-.683-.071-.683-.717 0-1.398.252-2.08.395l-1.827.432c-1.255.323-2.545.61-3.8.934l-3.8.934c-1.218.323-2.544.503-3.691 1.042-.18.072-.144.79.071.754zM28.228 42.46c-7.42 1.33-14.697 3.126-21.973 5.03-.215.072-.108.862 0 .826 7.24-1.904 14.624-3.449 21.973-4.922.25-.072.214-.934 0-.898zM76.151 32.76c.323.107.681 0 1.04 0 .358-.072.753-.144 1.111-.216l1.075-.216c.359-.072.753-.108 1.076-.251.143-.072.107-.755-.072-.755-.18 0-.394.072-.573.108l-.502.108-1.076.215c-.358.072-.717.18-1.075.252s-.753.144-1.004.395c-.071.072-.071.36 0 .395zM76.222 38.04c.394.145.788 0 1.218-.07.466-.109.932-.216 1.362-.324.86-.216 1.685-.431 2.545-.647 1.757-.467 3.513-.97 5.233-1.473.251-.072.144-.97 0-.934-1.756.503-3.477 1.006-5.233 1.473-.86.216-1.684.431-2.545.647-.466.107-.932.251-1.362.359s-.86.18-1.183.503c-.071.072-.107.467 0 .503z"/><path fill="#101610" d="M80.453 32.005c-.072-.287-.108-.323-.072-.18 0 .037 0 .073.036.145.072.143.251.215.394.287.287.144.538.287.825.431.573.323 1.183.61 1.792.898.61.288 1.183.575 1.792.898.287.144.538.288.825.432.286.143.573.323.896.395.215.036.143-.755 0-.862.107.251.107.287.071.107 0-.036-.035-.072-.071-.107-.108-.144-.323-.18-.466-.252-.287-.144-.538-.287-.825-.431l-1.72-.862-1.72-.863c-.287-.143-.538-.251-.825-.395-.251-.108-.574-.36-.86-.323-.18 0-.108.646 0 .718zM14.534 51.19c-.573.54-.61 1.294-.645 2.012-.036 1.114 0 2.228 0 3.342 0 2.335.107 4.706.18 7.042.143 4.706.322 9.413.501 14.083.43 9.413.932 18.79 1.541 28.167.359 5.318.717 10.635 1.147 15.952 0 .216.072.827.395.791.322 0 .358-.611.322-.827q-1.02-13.742-1.828-27.484c-.537-9.162-.896-18.252-1.183-27.377-.071-2.587-.179-5.138-.25-7.725-.037-1.293-.108-2.622-.144-3.916-.036-1.221-.215-2.515.107-3.7 0-.072 0-.54-.143-.431z"/><path fill="#101610" d="M86.475 35.238c.824 8.91 1.9 17.82 2.76 26.766s1.47 17.677 2.186 26.479c.394 5.03.789 10.06 1.183 15.054 0 .323.072 1.149.538 1.149.43 0 .501-.898.501-1.185-1.433-17.928-2.652-35.856-4.66-53.748-.573-4.994-1.146-9.988-1.935-14.982 0-.18-.108-.61-.394-.503-.251.108-.215.719-.18.898zM76.724 47.525c.86 0 1.72-.287 2.58-.503.43-.107.825-.215 1.255-.323.215-.072.43-.108.681-.18.072 0 .18-.035.251-.071.108-.072.18-.288.251-.396.036-.072.072-.251 0-.323s-.18-.215-.323-.252a.8.8 0 0 0-.286.072l-.681.18c-.43.108-.825.252-1.255.36-.86.25-1.756.43-2.509.898-.108.071-.108.574.036.574z"/><path fill="#101610" d="M81.42 45.837c.394 6.682 1.075 13.329 1.613 19.975s.968 13.294 1.47 19.976c.143 1.833.25 3.7.394 5.533.143 1.832.358 3.521.573 5.317 0 .252.18.108.18-.072 0-1.652.035-3.34 0-4.993s-.144-3.27-.251-4.887c-.18-3.269-.43-6.574-.646-9.844a1262 1262 0 0 0-1.577-20.083c-.322-3.7-.68-7.437-1.147-11.138-.107-.683-.573-.395-.537.18zM6.613 47.49c-.287-.144-.61.072-.61.36.216 9.664.539 19.58 1.005 29.676a1154 1154 0 0 0 2.544 39.161c0 .107.072.215.144.287l7.455 5.569c.287.215.681 0 .646-.323-1.183-23.497-2.33-46.994-3.513-70.49q0-.216-.215-.324c-2.51-1.293-4.983-2.587-7.492-3.844z"/><path fill="#101610" d="M17.473 122.686c2.51-.323 4.947-1.078 7.384-1.652 2.438-.575 4.91-1.186 7.384-1.761 4.875-1.186 9.75-2.335 14.66-3.485 9.822-2.335 19.607-4.742 29.428-7.042 5.556-1.329 11.076-2.622 16.632-3.988.359-.072.18-1.473 0-1.401-9.821 2.371-19.607 4.743-29.428 7.114s-19.607 4.778-29.428 7.149c-2.76.683-5.556 1.33-8.316 2.012-2.76.683-5.627 1.186-8.316 2.12-.25.072-.25 1.006 0 .97zM314.513 108.531c-.323 3.773-.108 7.653-.072 11.461 0 3.916.072 7.868.072 11.785 0 7.832-.144 15.628-.251 23.46-.072 4.276 0 8.587-.215 12.898 0 .324 0 1.222.466 1.294s.538-.755.538-1.042c.071-3.809.322-7.653.43-11.461s.143-7.76.179-11.677c.036-7.904.036-15.772-.108-23.676a405 405 0 0 0-.179-6.611c-.072-2.191-.107-4.311-.394-6.431-.072-.431-.394-.431-.43 0zM272.898 150.638c2.008-1.006 3.872-2.084 6.13-2.443.466-.072 1.003-.144 1.469-.108q.323.216.323-.108c-.072.108-.108.216-.179.324-.072.179-.144.395-.144.611-.071.754.323 1.473 1.112 1.652.609.108 1.218-.143 1.863-.108.574 0 1.112.252 1.649.468 1.183.431 2.187.503 3.405.323 2.581-.323 5.126-.072 7.707.072.072 0 .036-.18 0-.18-2.294-1.257-4.911-1.473-7.491-1.185-.682.071-1.363.215-2.044.143s-1.254-.359-1.899-.575c-.502-.179-1.04-.323-1.577-.323-.574 0-1.183.323-1.757.108-.107 0-.179-.072-.251-.144-.179.072-.179 0-.036-.144 0-.215.215-.395.251-.61.072-.36.072-.863-.143-1.15-.502-.755-2.043-.323-2.76-.18-2.222.431-4.337 1.617-5.556 3.557zM273.617 137.668c.789-.431 1.649-.682 2.438-1.006.466-.179.932-.395 1.433-.503.574-.144.932-.072 1.255.467.322.611.538 1.006 1.29 1.114.861.108 1.649-.431 2.509-.323.861.107 1.721.503 2.617.682.968.18 1.971.252 2.975.216s2.043-.108 3.011-.431c.968-.324 1.828-.647 2.724-.97v-.072c-1.004.036-2.007 0-3.011.036-1.003.036-2.007.179-3.011.179-1.003 0-1.971-.071-2.939-.287-.932-.18-1.864-.719-2.832-.611-.788.072-1.72.683-2.473.252-.681-.36-.502-1.366-1.398-1.473-.752-.108-1.72.359-2.365.718-.861.431-1.542 1.15-2.223 1.833 0 0 0 .215.036.179zM273.581 125.13c.645-.575 1.29-1.078 2.079-1.437.645-.288 1.648-.755 2.401-.611.825.143.43 1.401 1.111 1.832.574.359 1.291 0 1.9-.18.896-.215 1.756 0 2.617.288 1.003.287 1.971.467 3.011.539 2.078.108 4.05 0 6.129-.324.072 0 .072-.251 0-.251-1.075-.216-2.151-.431-3.226-.503s-2.115-.036-3.19-.108c-1.076-.072-2.007-.287-3.011-.539-1.004-.251-1.828-.359-2.832-.036-.358.108-.753.252-1.111.144-.466-.144-.358-.575-.466-.934-.143-.611-.538-1.006-1.219-.934-.788.072-1.541.611-2.222 1.042a13.4 13.4 0 0 0-2.079 1.688c-.072.072 0 .503.072.396zM274.369 111.729a25 25 0 0 1 2.545-1.33c.466-.215 1.003-.431 1.505-.503.251-.035.609-.071.717.216.036.108 0 .323 0 .431 0 .539 0 1.401.645 1.581.323.108.61-.036.896-.144.538-.215 1.076-.467 1.613-.718.466-.216 1.04-.575 1.577-.467.431.107.789.431 1.183.61.861.432 1.828.467 2.76.432 1.111 0 2.258 0 3.334-.216 1.075-.216 2.258-.395 3.405-.611v-.108a123 123 0 0 0-3.549-.467c-1.182-.143-2.294 0-3.441 0-1.075 0-2.007-.179-2.903-.718-.287-.18-.609-.359-.968-.395-.502 0-1.003.323-1.434.503l-1.613.754c-.215.108-.645.359-.896.18-.107-.072-.071-.252-.071-.36 0-.538 0-1.329-.574-1.616-.645-.324-1.756.323-2.33.61-.967.503-1.756 1.15-2.473 1.976-.072.072-.036.432.072.36M265.945 88.591c-.394 4.67-.143 9.413-.072 14.12.036 4.778.108 9.521.18 14.299.143 9.521.286 19.042.465 28.598l.108 7.904c0 1.366.036 2.731.072 4.096v1.904c0 .683-.072 1.437.286 2.048.216.359.466.324.646 0 .286-.503.215-1.078.215-1.652v-1.761c0-1.186-.036-2.371-.072-3.557-.036-2.407-.108-4.814-.143-7.221-.072-4.779-.144-9.521-.251-14.299-.179-9.521-.323-19.042-.574-28.563-.071-2.623-.143-5.245-.179-7.904s-.108-5.317-.43-7.976c0-.287-.215-.251-.251 0z"/><path fill="#101610" d="M314.873 109.07c.107-1.401-.896-2.766-1.577-3.952-.825-1.401-1.649-2.766-2.545-4.096-.896-1.329-1.792-2.658-2.76-3.952-.968-1.293-1.972-2.73-3.119-3.952-.358-.395-.394.863-.25 1.114 1.828 2.623 3.835 5.102 5.627 7.724a98 98 0 0 1 2.581 4.06c.394.647.753 1.294 1.111 1.94.179.36.43 1.222.932 1.114"/><path fill="#101610" d="M304.799 93.262c-2.258-.899-4.874-1.114-7.276-1.51-2.401-.394-5.018-.754-7.527-1.113a315 315 0 0 0-15.27-1.689c-1.434-.108-2.831-.251-4.265-.323s-2.939-.251-4.409-.18c-.251 0-.215 1.042 0 1.078 1.219.216 2.509.216 3.728.36 1.218.143 2.58.215 3.871.359 2.545.215 5.054.467 7.599.754 5.018.54 10 1.222 14.983 1.976 1.398.216 2.831.467 4.229.683 1.398.215 2.904.539 4.337.503.216 0 .18-.79 0-.826zM314.621 168.314c-1.398-.61-2.975-.718-4.48-.934-1.506-.215-3.119-.503-4.66-.718-3.118-.431-6.201-.899-9.319-1.366-6.166-.934-12.295-2.047-18.46-3.125-3.477-.611-6.99-1.186-10.467-1.833-.322-.071-.43 1.473.036 1.545 6.13 1.222 12.259 2.479 18.424 3.485s12.295 2.012 18.46 2.946c1.685.252 3.369.467 5.054.683 1.685.215 3.62.683 5.341.395.286-.036.251-.97 0-1.078z"/><path fill="#101610" d="M304.19 93.693c.251 1.976.359 4.024.108 6.036s-.861 3.916-1.542 5.82c-.071.252-.179 1.042.18 1.15a67 67 0 0 0 5.986 1.688c1.003.216 2.007.432 3.011.611.501.072 1.003.144 1.505.252.287.036.609.179.896.143s.215 0 .43-.251c.108-.108.072-.431 0-.575-.322-.431-.537-.359-1.111-.431-.502-.072-1.004-.144-1.505-.252a45 45 0 0 1-3.011-.646 49.5 49.5 0 0 1-6.058-1.904l.179 1.149c1.936-3.844 2.294-8.91 1.219-13.041-.108-.396-.251.071-.251.251zM325.268 179.703c-.896-.359-1.828-.431-2.76-.539l-3.226-.431c-1.971-.251-3.942-.467-5.914-.754-4.014-.539-8.065-1.078-12.079-1.617-8.065-1.078-16.13-2.192-24.195-3.198-4.552-.574-9.105-.934-13.693-1.293-.071 0-.071.216 0 .216 4.015.754 8.03 1.509 12.116 2.119s8.065 1.078 12.079 1.617c7.958 1.042 15.951 2.12 23.908 3.162 2.258.287 4.481.611 6.703.934 1.147.18 2.33.323 3.477.503s2.33.431 3.477.287c.287-.036.251-.934 0-1.006z"/><path fill="#101610" d="M324.049 127.069c.107.899 0 1.833 0 2.767s0 1.868.072 2.766c.071 1.689.107 3.377.179 5.066.143 3.521.251 7.006.322 10.527.18 6.754.251 13.544.251 20.299 0 3.772-.036 7.509-.107 11.281 0 .252.071.97.466.97.394 0 .394-.754.394-.97.287-13.688.143-27.377-.574-41.029-.107-1.94-.215-3.916-.358-5.856-.072-.899-.108-1.761-.215-2.659-.108-1.042-.394-2.084-.43-3.126zM330.25 120.063c-1.183-.431-2.545-.539-3.764-.754l-3.871-.647-3.871-.647c-.609-.108-1.255-.179-1.864-.287-.681-.108-1.434-.288-2.115-.252-.179 0-.179.611 0 .683 1.147.467 2.545.575 3.764.79 1.29.252 2.581.432 3.871.683l3.871.683c1.291.215 2.689.61 3.979.574.215 0 .179-.682 0-.754zM314.909 113.022c7.456.934 14.912 1.904 22.295 3.306.144 0 .215-.791 0-.827-7.383-1.329-14.803-2.587-22.295-3.377-.215 0-.251.862 0 .898M266.376 105.584c-.287-.215-.717-.251-1.075-.323-.359-.072-.717-.108-1.076-.18-.358-.071-.717-.107-1.075-.143-.359-.036-.753-.144-1.111-.144-.18 0-.18.754 0 .79.358.108.752.108 1.111.144.358.036.717.108 1.075.144l1.076.108c.358.035.716.107 1.039-.036.108-.036.072-.36 0-.396zM266.698 110.758c-.645-.467-1.684-.467-2.473-.611-.896-.179-1.828-.323-2.724-.503a138 138 0 0 1-5.341-1.078c-.143 0-.251.899 0 .935 1.792.395 3.549.754 5.341 1.077.86.18 1.756.324 2.617.467.43.072.86.144 1.326.216s.824.18 1.219 0c.143-.072.071-.431 0-.503z"/><path fill="#101610" d="m262.254 105.082-.108-.144s-.107-.179-.179-.108c0 0-.072 0-.107.036-.144.072-.251.144-.395.216-.251.144-.466.251-.717.395-.501.252-.967.539-1.433.791-.968.538-1.936 1.077-2.868 1.616-.215.108-.466.216-.609.431-.072.108-.108.36-.072.503 0 .108.215.252.323.252.107 0 .215-.108.322-.18.251-.143.466-.251.717-.395.968-.539 1.972-1.114 2.939-1.653.538-.287 1.076-.61 1.613-.934.287-.179.753-.395.61-.826zM329.068 120.243c.358 1.006.322 2.084.358 3.162l.108 3.413c.071 2.299.215 4.635.286 6.934.18 4.599.359 9.162.502 13.76.287 9.162.466 18.323.538 27.521.036 5.174.036 10.347.036 15.521 0 .215.072.826.394.79.323-.036.323-.611.323-.826.071-9.413 0-18.79-.215-28.203-.18-9.449-.43-18.862-.825-28.311a607 607 0 0 0-.358-7.904 144 144 0 0 0-.251-3.881c-.072-.862-.108-1.832-.825-2.371-.143-.108-.143.359-.143.431z"/><path fill="#101610" d="M255.695 108.89c-.753 8.982-.968 18-1.183 26.982-.179 8.982-.215 17.928-.251 26.874 0 5.03-.072 10.06-.072 15.125 0 .288.108 1.15.538 1.15s.502-.898.502-1.186c.107-17.784.072-35.604.609-53.388.144-5.138.395-10.275.466-15.413 0-.611-.537-1.042-.609-.18zM324.119 127.5c-.107-.359-.179-.395-.538-.503a8 8 0 0 0-1.254-.215c-.789-.108-1.613-.252-2.438-.359-.824-.108-1.612-.18-2.437-.288-.43-.036-.824-.108-1.254-.108s-.861-.107-1.255 0c-.179.036-.179.611 0 .683.645.323 1.505.323 2.187.395.752.072 1.505.18 2.258.252 1.505.179 3.046.539 4.552.503.072 0 .072-.072.107-.108-.035.108.108-.18.072-.252M266.914 120.171c-.789-.395-1.685-.539-2.581-.719-.43-.107-.86-.179-1.29-.287l-.646-.108s-.215-.072-.286-.072c-.108 0-.215.18-.323.288-.072.072-.072.251 0 .323.072.108.144.288.251.359.072.072.179.072.287.072.179.036.394.072.609.108.43.072.896.18 1.326.252.861.143 1.757.395 2.617.323.179 0 .143-.539 0-.575z"/><path fill="#101610" d="M261.574 119.273c-.359 6.647-.359 13.293-.43 19.94a927 927 0 0 0 0 20.012c0 1.868.071 3.7.107 5.568.036 1.869.215 3.665.359 5.533 0 .18.179.324.179.072.071-1.617.179-3.198.179-4.778v-4.887c0-3.305-.036-6.574-.036-9.88 0-6.718 0-13.437.108-20.155.036-3.737.107-7.509.071-11.245 0-.539-.501-.863-.537-.144zM336.81 115.537c.251-.144.61 0 .61.324q.753 14.496 1.183 29.64c.358 13.437.43 26.55.322 39.269a.33.33 0 0 1-.143.287l-7.026 6.108c-.251.215-.681.036-.681-.288-.573-23.532-1.111-47.065-1.684-70.561 0-.144.071-.288.179-.36l7.205-4.419z"/><path fill="#101610" d="M331.469 190.338c-2.438-.647-5.019-.935-7.492-1.33-2.509-.395-5.018-.826-7.491-1.221-4.947-.827-9.929-1.653-14.876-2.479-9.964-1.653-19.929-3.27-29.858-4.922a2672 2672 0 0 0-16.882-2.767c-.215 0-.323 1.365 0 1.401 9.964 1.617 19.929 3.234 29.858 4.851s19.929 3.197 29.858 4.814c2.832.467 5.627.934 8.423 1.365s5.628 1.114 8.424 1.258c.251 0 .251-.899 0-.97z"/><path fill="#D5D5D5" d="M44.967 28.484c-1.183 3.413-.932 7.257.61 10.526a27.9 27.9 0 0 0-9.858 4.312c-3.297 2.263-6.165 5.389-6.918 9.197l-.645-14.083c.43.323 1.076.251 1.613.107a96 96 0 0 0 10.037-2.694 25.4 25.4 0 0 1-3.155-9.593c-.107-1.006-.143-2.156.574-2.91.645-.683 1.72-.79 2.688-.898 3.692-.36 7.384-.97 11.004-1.833.251-.071.538-.107.789-.143-3.154 1.796-5.592 4.598-6.739 7.976z"/><path fill="#101610" d="M27.904 38.867c-.25 3.845.108 7.725.323 11.569s.466 7.94.717 11.892c.537 7.868 1.11 15.736 1.864 23.604.43 4.312 1.003 8.587 1.397 12.862 0 .288.251.899.646.72.394-.18.358-.971.322-1.294-.466-3.916-.717-7.832-1.075-11.749-.358-3.916-.681-7.652-1.04-11.496-.68-7.797-1.218-15.593-1.756-23.39-.143-2.12-.287-4.239-.43-6.323s-.215-4.311-.574-6.395c-.071-.43-.43-.467-.43 0z"/><path fill="#101610" d="M28.047 39.442c.466.072.645-.754.789-1.078.323-.682.645-1.33.968-2.012.752-1.473 1.505-2.946 2.33-4.383 1.577-2.802 3.405-5.389 5.018-8.155.143-.252.035-1.51-.287-1.078-1.04 1.257-1.9 2.694-2.76 4.06a83 83 0 0 0-2.51 4.275c-.788 1.437-1.505 2.766-2.186 4.168-.609 1.221-1.613 2.766-1.362 4.167z"/><path fill="#101610" d="M36.973 23.742c1.255-.036 2.51-.395 3.728-.682s2.401-.575 3.62-.863c2.437-.575 4.91-1.113 7.384-1.652 4.982-1.042 9.965-2.012 15.019-2.839 1.397-.215 2.795-.43 4.193-.682s2.94-.36 4.337-.755c.251-.072.216-1.078 0-1.078-1.254 0-2.544.288-3.799.431s-2.545.36-3.8.54c-2.473.395-4.982.826-7.455 1.293-5.018.934-10 1.94-14.947 3.09-1.434.323-2.832.646-4.266 1.006-1.433.359-2.76.682-4.014 1.293-.143.072-.143.862.072.826z"/><path fill="#101610" d="M37.295 23.023c-.789 4.275-.036 9.27 2.222 13.042v-1.258a46 46 0 0 1-5.843 2.335c-.967.324-1.935.575-2.903.863-.502.107-.968.251-1.47.359-.537.108-.86 0-1.182.503-.072.144-.108.467 0 .575.394.395.645.18 1.183.036.537-.144 1.075-.252 1.577-.36a47 47 0 0 0 3.01-.862 66 66 0 0 0 5.807-2.12c.323-.143.215-.934.108-1.15-.825-1.832-1.541-3.664-1.972-5.64-.43-1.976-.466-4.024-.358-6.036 0-.18-.18-.646-.25-.251zM20.162 58.484l.071.215s.072.108.108.108c1.505-.072 3.047-.54 4.516-.827l2.259-.43c.68-.144 1.505-.18 2.114-.54.144-.071.144-.646-.071-.682-.466-.108-.968.036-1.398.108-.395.072-.825.143-1.219.215l-2.688.54c-.896.179-1.757.358-2.617.574-.25.072-1.326.215-1.111.754zM34.141 45.226a24 24 0 0 1 2.043-1.724c.502-.36 2.187-1.653 2.402-.504.072.504.107 1.258.645 1.474.717.323 1.72-.755 2.222-1.15.43-.324.968-.827 1.47-.934.466-.108.896.18 1.326.323 1.04.323 2.115.108 3.154-.108 1.04-.215 2.115-.467 3.119-.862 1.075-.431 2.186-.826 3.262-1.293v-.108c-1.111.072-2.223.18-3.334.251s-2.186.395-3.297.647-2.151.288-3.262-.072-1.72.18-2.617.862c-.43.324-.896.755-1.362 1.006-.43.252-.753.252-.86-.287-.108-.539-.18-1.258-.825-1.365-.752-.18-1.756.754-2.294 1.221a7.9 7.9 0 0 0-1.9 2.3c-.035.072 0 .467.072.359zM140.885 92.975c.752 1.976 1.828 3.772 2.76 5.712a62 62 0 0 1 2.33 5.497c1.326 3.593 2.329 7.365 3.118 11.102 0 .143.143 0 .108-.072-.323-4.168-1.219-8.12-2.689-12.036-.717-1.904-1.541-3.808-2.509-5.64-.86-1.617-1.72-3.378-3.118-4.563M161.567 81.693c.108.934.143 1.832.323 2.767.143.862.358 1.724.573 2.55.43 1.725.968 3.378 1.577 5.03 1.183 3.198 2.617 6.288 4.732 8.982.071.108.071-.179.071-.215-1.505-3.162-3.046-6.324-4.301-9.593a58 58 0 0 1-1.613-4.778c-.215-.79-.466-1.617-.681-2.408s-.538-1.58-.717-2.37zM177.124 185.236c.286-.323.537-.611.788-1.006.251-.431.466-.862.681-1.257a47 47 0 0 0 1.291-2.695 89 89 0 0 0 2.365-5.784c1.506-3.988 2.725-7.976 3.621-12.144 0-.072-.072-.359-.108-.18a304 304 0 0 1-4.086 11.354c-1.434 3.736-3.369 7.688-4.588 11.676v.072zM199.848 188.47c.108-.467.359-.862.502-1.33l.43-1.508a26 26 0 0 1 1.111-2.911c.897-1.976 2.187-3.736 3.011-5.748 0-.036 0-.323-.071-.252-.932.503-1.398 1.294-1.936 2.192a26 26 0 0 0-1.505 2.982 22.5 22.5 0 0 0-1.076 3.09c-.179.539-.286 1.114-.394 1.688-.108.611-.072 1.186-.108 1.797zM302.255 111.045c.071.683.43 1.294.752 1.905.323.61.646 1.185.968 1.76.323.575.681 1.186 1.004 1.796.179.324.322.611.537.935.072.107.18.251.287.359.144.108.179.108.394.036.072 0 .072-.108.072-.18 0-.431-.072-.826-.251-1.221-.143-.36-.358-.683-.537-1.006-.359-.647-.717-1.258-1.076-1.905-.358-.646-.681-1.185-1.039-1.796-.144-.251-.681-1.222-1.076-.934-.071.072-.071.18-.071.251z"/><path fill="#101610" d="M306.377 111.298s-.144-.144-.215-.252a.6.6 0 0 0-.251-.144c-.251 0-.43.18-.574.324-.466.467-.86 1.006-1.29 1.509s-.825 1.077-1.219 1.616c-.215.324-.394.647-.609 1.006-.215.36-.43.647-.61.97 0 .036 0 .324.072.252.215-.18.394-.359.609-.539l.646-.539c.43-.431.86-.862 1.218-1.365.359-.503.789-.97 1.147-1.473.18-.252.359-.539.538-.791.072-.107.179-.251.251-.359.036-.072.107-.323.251-.215v-.072zM301.001 125.058c-.036-.216 0 .179.036.251a.9.9 0 0 0 .251.395c.179.288.43.575.609.863.395.539.681 1.113.932 1.724.072.18.251.252.394.108a46 46 0 0 1 3.262-3.198c.502-.431 1.076-.826 1.434-1.437.287-.467.502-1.185.251-1.724 0 0-.036-.072-.072 0-.215.323-.609.611-.896.862-.502.431-.968.862-1.469 1.293a38 38 0 0 0-2.868 2.982l.394.108c-.394-.97-1.003-2.155-1.971-2.658h-.108c-.143.143-.179.287-.143.467zM300.786 136.087c.394 1.401 1.111 2.766 1.935 3.952.108.18.251.108.395 0 .967-1.15 2.007-2.227 3.046-3.305.538-.539 1.112-1.078 1.613-1.653.215-.251.502-.503.646-.826.107-.216.286-.539.179-.791-.179-.575-1.004.108-1.219.324-.609.467-1.111 1.006-1.649 1.544-1.039 1.042-2.079 2.084-3.046 3.198h.394a42 42 0 0 1-1.04-1.653c-.322-.503-.609-1.006-1.003-1.401-.287-.287-.287.539-.251.647zM300.857 150.638c.322 1.222 1.003 2.335 1.685 3.413.035.072.143.108.215.072a96 96 0 0 0 2.939-2.407c.466-.395.932-.791 1.398-1.15s1.147-.826 1.434-1.401c.107-.18.215-1.042-.144-1.042-.287 0-.502.252-.753.395-.251.18-.466.36-.717.575-.501.395-.967.791-1.469 1.222a94 94 0 0 0-2.939 2.443l.215.072c-.323-.503-.645-.97-1.004-1.402-.251-.323-.502-.682-.932-.754z"/></g><defs><clipPath id="a"><path fill="#fff" d="M0 0h339v217H0z"/></clipPath></defs></svg>