<svg xmlns="http://www.w3.org/2000/svg" width="74" height="74" fill="none" viewBox="0 0 74 74"><circle cx="37" cy="37" r="37" fill="#FAECBC"/><g clip-path="url(#a)"><path fill="#FCFDFD" d="M47.733 47.126a.375.375 0 0 1-.283-.617l1.061-1.241-2.267 1.308a.374.374 0 0 1-.373-.648l4.152-2.397a.374.374 0 0 1 .471.566l-1.154 1.351a.43.43 0 0 1 .33.187.373.373 0 0 1-.137.51l-1.613.931a.37.37 0 0 1-.187.05M51.162 43.432a.374.374 0 0 1-.257-.646l1.302-1.238-2.269 1.31a.374.374 0 1 1-.374-.647l5-2.887a.374.374 0 0 1 .445.598l-1.58 1.502a.374.374 0 0 1 .118.69l-2.198 1.272a.37.37 0 0 1-.187.046"/><path fill="#fff" d="M40.42 51.242a.373.373 0 0 1-.242-.658l2.383-2.034-3.36 1.94a.374.374 0 0 1-.401-.63l3.728-2.61-4.552 2.627a.373.373 0 1 1-.39-.638l4.433-2.874-5.136 2.965a.374.374 0 0 1-.39-.637l4.35-2.807-5.038 2.906a.373.373 0 0 1-.386-.64l1.396-.882-1.881 1.083a.374.374 0 0 1-.396-.633l8.353-5.631-9.508 5.489a.374.374 0 0 1-.387-.64l1.822-1.145-2.326 1.347a.374.374 0 1 1-.388-.64l3.503-2.225-4.105 2.37a.374.374 0 0 1-.392-.636l7.45-4.883-8.4 4.846a.374.374 0 0 1-.393-.635l9.167-6.115-10.338 5.967a.374.374 0 0 1-.392-.635l8.62-5.67-9.672 5.58a.374.374 0 0 1-.387-.639l3.59-2.258-5.615 3.24a.374.374 0 0 1-.39-.636l9.442-6.123-10.245 5.914a.374.374 0 0 1-.384-.64l1.513-.938-1.715.99a.374.374 0 0 1-.385-.64l2.688-1.672-2.926 1.692a.374.374 0 0 1-.385-.64l4.113-2.575-4.403 2.542a.374.374 0 1 1-.387-.64l5.969-3.767-6.328 3.655a.374.374 0 0 1-.386-.64l5.32-3.346-5.654 3.264a.374.374 0 0 1-.39-.637l10.075-6.56-10.66 6.154a.374.374 0 1 1-.384-.642l.588-.363-.687.398a.374.374 0 0 1-.39-.637l9.705-6.303-10.078 5.816a.373.373 0 0 1-.386-.64l4.845-3.048-4.924 2.841a.374.374 0 0 1-.392-.635l10.096-6.616-10.282 5.939a.375.375 0 0 1-.389-.64l6.799-4.337-6.767 3.904a.374.374 0 0 1-.393-.636l10.03-6.646-9.97 5.758a.374.374 0 0 1-.384-.64l.25-.157a.374.374 0 0 1-.354-.656l.73-.457-.401.232a.374.374 0 0 1-.39-.638l5.812-3.764-5.4 3.119a.375.375 0 0 1-.39-.638l4.088-2.633-3.57 2.06a.375.375 0 0 1-.388-.64l.999-.634-.396.224a.374.374 0 0 1-.404-.629l6.637-4.674-5.513 3.185a.374.374 0 0 1-.403-.628l3.814-2.706-2.28 1.317a.373.373 0 0 1-.414-.62l2.349-1.81a.374.374 0 0 1-.052-.672l3.716-2.144a.374.374 0 0 1 .415.621l-1.518 1.168 4.358-2.516a.374.374 0 0 1 .404.629l-3.814 2.702 5.753-3.32a.374.374 0 0 1 .402.629l-6.637 4.675 8.462-4.885a.373.373 0 0 1 .564.262.38.38 0 0 1-.176.377l-1.005.638 1.63-.94a.374.374 0 0 1 .389.639l-4.08 2.626L33.863 19a.374.374 0 0 1 .39.638l-5.811 3.761 6.54-3.776a.373.373 0 0 1 .385.64l-.733.457 1.06-.61a.374.374 0 0 1 .384.64l-.215.134.473-.273a.374.374 0 0 1 .395.636L26.702 27.89l10.776-6.221a.374.374 0 0 1 .389.639l-6.806 4.345 7.227-4.172a.374.374 0 0 1 .391.636l-10.093 6.614L39.33 23.53a.374.374 0 0 1 .386.64l-4.848 3.047 5.165-2.981a.374.374 0 0 1 .392.636l-9.706 6.305 10.305-5.948a.374.374 0 0 1 .383.642l-.571.353.748-.432a.374.374 0 0 1 .39.636l-10.074 6.56 10.694-6.177a.374.374 0 0 1 .387.64l-5.323 3.35 5.66-3.267a.374.374 0 0 1 .387.64l-5.964 3.763 6.326-3.651a.374.374 0 0 1 .385.64l-4.122 2.577 4.407-2.542a.374.374 0 0 1 .384.64l-2.676 1.662 2.916-1.68a.374.374 0 0 1 .384.642l-1.52.94 1.72-.993a.374.374 0 1 1 .39.638l-9.445 6.124 10.026-5.787a.374.374 0 0 1 .386.64l-3.586 2.254 3.86-2.23a.374.374 0 0 1 .394.637l-8.623 5.672 9.215-5.32a.374.374 0 0 1 .394.634l-9.166 6.115 9.838-5.68a.374.374 0 0 1 .392.637l-7.452 4.884 7.973-4.603a.375.375 0 1 1 .388.64l-3.499 2.221 3.786-2.185a.374.374 0 0 1 .386.64l-1.819 1.147 2.039-1.177a.374.374 0 0 1 .396.633l-8.353 5.632 9.013-5.201a.374.374 0 0 1 .387.64l-1.404.885 1.611-.93a.374.374 0 0 1 .39.638l-4.349 2.805 4.687-2.705a.374.374 0 0 1 .39.637L49.7 42.278a.36.36 0 0 1 .367.169.374.374 0 0 1-.101.507l-4.085 2.86a.39.39 0 0 1 .33.158.374.374 0 0 1-.063.5l-2.382 2.03 2.543-1.466a.374.374 0 0 1 .48.556l-1.26 1.59a.374.374 0 0 1 .311.673l-1.623.937a.374.374 0 0 1-.479-.556l1.249-1.575-4.379 2.534a.4.4 0 0 1-.187.047"/><path fill="#3D3B33" d="M53.766 41.215a.374.374 0 0 1-.264-.64l.962-.956-.523.303a.373.373 0 0 1-.437-.598l1.471-1.325-1.622.936a.374.374 0 0 1-.418-.617l1.122-.883-1.398.805a.374.374 0 0 1-.421-.615l2.5-2.006-2.98 1.72a.374.374 0 0 1-.408-.625l2.023-1.495-2.365 1.364a.374.374 0 0 1-.401-.63l1.063-.743-1.288.748a.374.374 0 0 1-.41-.624l3.42-2.532-3.906 2.255a.374.374 0 0 1-.396-.633l.768-.523-.966.558a.374.374 0 0 1-.395-.635l.42-.279-.594.342a.374.374 0 0 1-.406-.627l4.101-2.96-4.615 2.663a.373.373 0 0 1-.403-.629l3.93-2.783-4.397 2.539a.373.373 0 0 1-.405-.627l4.733-3.41-5.301 3.06a.374.374 0 0 1-.401-.63l3.979-2.78-4.428 2.557a.374.374 0 0 1-.408-.626l5.364-3.925-6.023 3.478a.374.374 0 0 1-.405-.628l4.91-3.523-5.489 3.169a.374.374 0 0 1-.4-.63l3.672-2.55-4.089 2.36a.374.374 0 0 1-.4-.631l3.277-2.266-4.078 2.354a.374.374 0 0 1-.374-.647l12.026-6.946a.374.374 0 0 1 .399.63l-3.278 2.268 3.903-2.255a.374.374 0 0 1 .4.63l-3.675 2.553 4.232-2.443a.374.374 0 0 1 .405.628l-4.908 3.526 5.524-3.19a.374.374 0 0 1 .408.625l-5.366 3.924 5.915-3.415a.374.374 0 0 1 .401.631L52.68 26.14l4.234-2.445a.374.374 0 0 1 .405.626l-4.733 3.41 4.964-2.865a.374.374 0 0 1 .403.628l-3.929 2.783 3.987-2.302a.374.374 0 0 1 .406.627l-4.103 2.962 4.081-2.357a.374.374 0 1 1 .396.635l-.417.278.198-.114a.374.374 0 0 1 .396.633l-.771.524.505-.292a.374.374 0 0 1 .409.624l-3.419 2.533 3.096-1.787a.374.374 0 0 1 .401.63l-1.058.74.628-.362a.374.374 0 0 1 .409.625l-2.025 1.495 1.465-.846a.374.374 0 0 1 .42.615l-2.5 2.006 1.681-.972a.374.374 0 0 1 .418.617l-1.121.883.175-.101a.374.374 0 0 1 .438.598l-1.485 1.337a.374.374 0 0 1 .406.61L54.937 40.2a.375.375 0 0 1-.15.48l-.833.48a.4.4 0 0 1-.188.055"/><path fill="#3D3B33" d="M31.844 34.244a.374.374 0 0 1-.233-.666l.384-.307-1.56.901a.374.374 0 0 1-.405-.628l2.302-1.645-3.066 1.771a.374.374 0 0 1-.388-.638l8.586-5.496-9.089 5.247a.374.374 0 0 1-.384-.642l.973-.598-.727.419a.374.374 0 0 1-.385-.64l4.374-2.752-2.494 1.438a.374.374 0 0 1-.392-.635l6.691-4.386-3.056 1.765a.374.374 0 0 1-.397-.633l3.692-2.501-.409.236a.373.373 0 0 1-.41-.623l2.674-1.985a.373.373 0 0 1 .027-.63l3.717-2.146a.374.374 0 0 1 .41.624l-1.168.866 3.807-2.198a.374.374 0 0 1 .396.634l-3.691 2.5 5.494-3.172a.374.374 0 0 1 .393.635l-6.687 4.383 8.209-4.739a.374.374 0 0 1 .386.64l-4.39 2.76 5.27-3.042a.374.374 0 1 1 .383.642l-.96.593 1.51-.872a.374.374 0 0 1 .39.638L39.063 27.4q.06.043.1.105a.374.374 0 0 1-.097.506l-2.93 2.094a.374.374 0 0 1 .19.663l-2.145 1.713.02.03a.374.374 0 0 1-.137.511l-2.033 1.173a.37.37 0 0 1-.187.049M26.585 46.073a.374.374 0 0 1-.235-.665l.024-.019-.77.443a.374.374 0 0 1-.415-.62l1.83-1.41-2.31 1.336a.374.374 0 0 1-.41-.624l1.876-1.396-2.126 1.227a.374.374 0 0 1-.401-.63l.103-.075a.374.374 0 0 1-.363-.645l2.474-1.925-1.725 1.002a.374.374 0 0 1-.433-.605l3.122-2.734a.374.374 0 0 1 .101-.562l1.62-.935a.374.374 0 0 1 .432.605l-1.915 1.678 3.122-1.802a.375.375 0 0 1 .415.618L28.13 40.26l2.916-1.682a.374.374 0 0 1 .4.63l-.061.044.029-.017a.374.374 0 0 1 .41.624l-1.878 1.39 1.561-.897a.374.374 0 0 1 .416.62l-1.846 1.42a.374.374 0 0 1 .387.632l-1.927 1.568a.374.374 0 0 1-.15.495l-1.618.935a.37.37 0 0 1-.183.05"/><path fill="#3D3B33" d="M29.738 49.782a.374.374 0 0 1-.243-.658l2.534-2.17-3.499 2.02a.374.374 0 0 1-.414-.62l2.344-1.79-2.682 1.549a.374.374 0 0 1-.411-.623l2.206-1.658-2.094 1.21a.374.374 0 0 1-.42-.617l2.608-2.084-1.106.638a.374.374 0 0 1-.427-.61l2.36-1.968-.004-.008a.374.374 0 0 1 .137-.51l1.619-.935a.374.374 0 0 1 .426.61l-.716.599 1.625-.937a.374.374 0 0 1 .42.615l-2.61 2.086 3.172-1.83a.374.374 0 0 1 .412.621L32.77 44.37l2.357-1.362a.374.374 0 0 1 .414.62l-2.346 1.792 1.963-1.134a.373.373 0 0 1 .43.608l-2.877 2.463a.374.374 0 0 1 .127.693l-2.916 1.683a.37.37 0 0 1-.185.05"/><path fill="#3D3B33" d="M33.303 53.47a.373.373 0 0 1-.229-.673l1.104-.852-1.695.98a.373.373 0 0 1-.417-.62l2.551-1.99-2.991 1.729a.374.374 0 0 1-.426-.612l3.465-2.863-3.482 2.01a.374.374 0 0 1-.406-.626l.85-.616a.374.374 0 0 1-.396-.625l2.982-2.568-.024-.036a.374.374 0 0 1 .136-.51l1.62-.935a.374.374 0 0 1 .43.607l-1.638 1.41 2.767-1.598a.374.374 0 0 1 .406.626l-.838.608 1.078-.623a.374.374 0 0 1 .425.612l-3.458 2.864 3.782-2.183a.373.373 0 0 1 .417.619l-2.554 1.99 1.891-1.092a.374.374 0 0 1 .416.62l-2.275 1.754a.374.374 0 0 1-.01.641l-3.29 1.902a.37.37 0 0 1-.19.05"/><path fill="#3D3B33" d="M37.683 57.214a.374.374 0 0 1-.237-.662l.385-.318-1.213.7a.374.374 0 0 1-.424-.612l2.853-2.34-3.51 2.026a.374.374 0 0 1-.403-.63l.488-.343-.542.313a.374.374 0 0 1-.409-.625l1.742-1.282-1.533.885a.374.374 0 0 1-.42-.616l2.458-1.958-.72.415a.374.374 0 0 1-.424-.612l2.108-1.735a.374.374 0 0 1 .14-.506l1.618-.934a.374.374 0 0 1 .424.611l-.325.269 1.14-.658a.374.374 0 0 1 .42.615l-2.459 1.96 3.028-1.748a.374.374 0 0 1 .41.624l-1.739 1.279 1.907-1.1a.374.374 0 0 1 .403.629l-.492.346.273-.158a.374.374 0 0 1 .425.613l-2.853 2.34 1.144-.66a.374.374 0 0 1 .425.612l-2.143 1.768a.374.374 0 0 1-.14.508l-1.617.934a.37.37 0 0 1-.188.05"/><path fill="#262626" d="M47.947 17.636c-9.119-.982-8.33 5.646-12.946 1.692-7.695-4.527-17.668.204-19.338 8.873-1.433 7.44 3.605 11.926 8.329 16.667.716.937 2.02 1.57 2.948 1.158-.637 1.923 1.952 4.384 3.705 3.617-.688 1.978 1.987 4.519 3.799 3.7a3.104 3.104 0 0 0 3.432 3.833c1.038-.188 1.68-.973 2.382-1.68 1.192-1.358 3.492-2.703 2.836-4.768 2.205.572 4.056-1.577 3.533-3.772 2.28.728 4.242-1.472 3.698-3.725a2.9 2.9 0 0 0 3.444-1.263c9.017-8.136 7.03-22.093-5.822-24.332m-22.975 27.08c-1.812-1.53-.831-3.045.748-4.314 1.203-1.208 2.782-3.44 4.626-1.862 1.734 1.33.848 3.117-.655 4.221-1.25 1.18-2.78 3.566-4.719 1.955m3.854 3.84c-1.013-.897-1.554-2.208-.502-3.352 1.743-1.168 3.141-4.751 5.566-3.076 1.146.835 1.583 2.51.38 3.514-1.663 1.086-3.14 4.581-5.444 2.915m3.67 3.725c-1.619-1.378-1.182-3.017.394-4.211 1.216-1.094 2.735-3.66 4.622-2.329 1.819 1.304 1.253 3.226-.378 4.393-1.264 1.121-2.728 3.63-4.635 2.147zm6.685 3.262c-1.673 2.313-5.254-.496-3.636-2.729 1.114-1.109 2.169-2.12 3.25-3.23 1.821-1.72 4.78 1.453 3.029 3.304zm10.613-13.486a13523 13523 0 0 0-8.458-8.495c-.361-.364-.703.443-.405.743l8.439 8.473c1.608 2.503-1.527 4.161-3.306 2.975q-4.123-4.136-8.242-8.276c-.293-.294-1.131-.017-.774.342 2.868 2.841 5.667 5.77 8.57 8.564 1.679 2.473-1.262 4.217-3.126 3.153a2.94 2.94 0 0 0-2.996-1.132c.63-1.99-1.984-4.362-3.74-3.651.761-2.048-1.98-4.553-3.782-3.684a3.09 3.09 0 0 0-1.186-3.252c-2.328-2.026-4.28.714-5.818 2.259-.835.786-1.81 1.71-1.72 2.953-16.23-12.63-1.574-31.84 13.592-21.278-2.777 2.692-6.425 5.417-8.517 8.57-2.534 3.82 3.542 4.776 5.927 2.588 1.609-1.475 3.29-4.307 5.24-5.262 2.08-1.02 3.313 1.095 4.64 2.429l6.118 6.144c.79.665 1.52 1.399 2.183 2.192 1.125 1.65.802 5.911-2.64 3.645m4.472-1.776c-.03-1.036-.736-1.839-1.485-2.64-1.898-2.034-3.936-3.953-5.899-5.925-1.51-1.516-3.123-3.778-4.93-4.95-3.93-2.552-6.724 6.753-10.853 6.756-2.657 0-2.767-1.75-1.613-3.256 2.581-2.803 5.481-5.39 8.125-8.151 13.11-11.096 28.996 5.943 16.655 18.166"/></g><defs><clipPath id="a"><path fill="#fff" d="M15 15h44.87v44.87H15z"/></clipPath></defs></svg>