<svg xmlns="http://www.w3.org/2000/svg" width="74" height="74" fill="none" viewBox="0 0 74 74"><g clip-path="url(#a)"><path fill="#FFCE48" d="M47.134 52.717a.5.5 0 0 1-.168-.892l1.78-1.266-3.365.96a.5.5 0 0 1-.275-.96l6.166-1.762a.5.5 0 0 1 .427.888l-1.936 1.377a.57.57 0 0 1 .366.35.5.5 0 0 1-.342.617l-2.395.684a.5.5 0 0 1-.259.004M52.781 49.039a.501.501 0 0 1-.124-.92l2.091-1.184-3.369.962a.5.5 0 1 1-.274-.96l7.423-2.122a.5.5 0 0 1 .383.92l-2.538 1.435a.5.5 0 0 1-.07.935l-3.265.935a.5.5 0 0 1-.257-.001"/><path fill="#FFCE48" d="M36.31 55.681a.5.5 0 0 1-.1-.932l3.751-1.865-4.987 1.425a.5.5 0 0 1-.316-.948l5.683-2.174-6.757 1.93a.5.5 0 1 1-.3-.955l6.685-2.288-7.626 2.178a.5.5 0 0 1-.3-.953l6.555-2.23-7.479 2.135a.5.5 0 0 1-.293-.956l2.098-.69-2.793.794a.5.5 0 0 1-.307-.95l12.665-4.592-14.117 4.032a.5.5 0 0 1-.294-.955l2.735-.893-3.454.99a.5.5 0 0 1-.296-.955l5.267-1.748-6.095 1.74a.5.5 0 0 1-.302-.952l11.25-3.915-12.469 3.558a.5.5 0 0 1-.305-.952l13.878-4.954-15.348 4.383a.5.5 0 0 1-.303-.952l13.024-4.555L21.3 42.58a.5.5 0 0 1-.294-.955l5.39-1.764-8.336 2.381a.5.5 0 0 1-.3-.953l14.238-4.876-15.21 4.344a.5.5 0 0 1-.29-.956l2.267-.724-2.547.728a.5.5 0 0 1-.29-.957l4.029-1.295-4.345 1.244a.5.5 0 0 1-.292-.955l6.171-2.004-6.537 1.868a.5.5 0 0 1-.294-.956l8.967-2.948-9.396 2.686a.5.5 0 0 1-.293-.955l7.988-2.613-8.393 2.397a.5.5 0 0 1-.3-.952l15.199-5.237-15.827 4.52a.5.5 0 0 1-.289-.958l.88-.28-1.02.293a.5.5 0 0 1-.299-.952l14.637-5.024-14.962 4.27a.5.5 0 0 1-.292-.954l7.274-2.382-7.31 2.087a.5.5 0 0 1-.302-.951l15.245-5.303L10.9 27.858a.5.5 0 1 1-.296-.956l10.227-3.418-10.045 2.866a.5.5 0 0 1-.303-.952l15.167-5.363-14.802 4.231a.5.5 0 0 1-.29-.956l.377-.121a.5.5 0 0 1-.248-.966l1.097-.357-.597.172a.5.5 0 0 1-.298-.954l8.761-2.995-8.018 2.29a.5.5 0 0 1-.298-.953l6.158-2.088-5.3 1.512a.5.5 0 0 1-.296-.955l1.502-.498-.587.162a.5.5 0 0 1-.318-.947l10.127-3.907-8.187 2.34a.5.5 0 0 1-.319-.945l5.827-2.27-3.384.966a.5.5 0 0 1-.337-.939l3.635-1.583a.5.5 0 0 1 .15-.89l5.518-1.574a.5.5 0 0 1 .337.94L23.51 9.772l6.47-1.848a.5.5 0 0 1 .32.947l-5.826 2.267 8.541-2.439a.5.5 0 0 1 .318.947l-10.128 3.908L35.77 9.966a.5.5 0 0 1 .296.955l-1.511.501 2.42-.689a.5.5 0 0 1 .297.954l-6.146 2.082 7.151-2.042a.5.5 0 0 1 .299.954l-8.76 2.992 9.711-2.774a.5.5 0 0 1 .29.955l-1.097.355 1.573-.448a.5.5 0 0 1 .29.956l-.323.104.703-.2a.5.5 0 0 1 .305.952L26.1 20.936l16-4.57a.5.5 0 0 1 .295.954l-10.239 3.426 10.729-3.064a.5.5 0 0 1 .302.952l-15.241 5.302 15.952-4.557a.5.5 0 0 1 .293.956l-7.278 2.377 7.668-2.189a.5.5 0 0 1 .302.953l-14.638 5.025 15.298-4.368a.5.5 0 0 1 .29.957l-.856.272 1.11-.317a.5.5 0 0 1 .3.952l-15.198 5.237 15.878-4.538a.5.5 0 0 1 .293.955l-7.992 2.617 8.403-2.4a.5.5 0 0 1 .294.955l-8.959 2.945 9.392-2.682a.5.5 0 0 1 .291.956l-6.184 2.005 6.544-1.867a.5.5 0 0 1 .29.956l-4.012 1.285 4.328-1.23a.5.5 0 0 1 .29.956l-2.277.726 2.554-.73a.5.5 0 1 1 .299.955l-14.24 4.876 14.883-4.251a.5.5 0 0 1 .293.955l-5.383 1.76 5.732-1.638a.5.5 0 0 1 .303.953L39.182 38.31l13.68-3.909a.5.5 0 0 1 .306.95l-13.876 4.957 14.606-4.172a.5.5 0 0 1 .302.953l-11.253 3.915 11.838-3.381a.5.5 0 1 1 .296.955l-5.26 1.746 5.62-1.605a.5.5 0 0 1 .292.955l-2.731.897 3.026-.865a.5.5 0 0 1 .309.95L43.673 45.25l13.38-3.82a.5.5 0 0 1 .294.956l-2.109.693 2.392-.682a.5.5 0 0 1 .3.953l-6.554 2.226 6.958-1.987a.5.5 0 0 1 .3.954l-7.376 2.525a.49.49 0 0 1 .42.338.5.5 0 0 1-.295.625l-6.227 2.384a.53.53 0 0 1 .376.312.5.5 0 0 1-.243.627l-3.75 1.861 3.775-1.076a.5.5 0 0 1 .442.877l-2.15 1.653a.5.5 0 0 1 .184.974l-2.41.688a.5.5 0 0 1-.44-.876l2.131-1.639-6.503 1.866a.5.5 0 0 1-.258 0"/><path fill="#7FC3CF" d="M56.879 47.009a.5.5 0 0 1-.135-.917l1.559-.927-.777.223a.5.5 0 0 1-.373-.918l2.339-1.24-2.409.688a.5.5 0 0 1-.341-.936l1.741-.782-2.074.59a.5.5 0 0 1-.346-.934l3.894-1.79-4.423 1.263a.5.5 0 0 1-.328-.943l3.11-1.283-3.51 1.002a.5.5 0 0 1-.316-.947l1.62-.62-1.913.552a.5.5 0 0 1-.33-.942l5.259-2.174-5.8 1.657a.5.5 0 0 1-.308-.95l1.167-.429-1.434.41a.5.5 0 0 1-.306-.952l.634-.226-.88.251a.5.5 0 0 1-.324-.944l6.282-2.509-6.852 1.957a.5.5 0 0 1-.318-.947l6.002-2.334-6.528 1.865a.5.5 0 0 1-.322-.945l7.246-2.886-7.87 2.248a.5.5 0 0 1-.315-.948l6.064-2.315-6.575 1.88a.5.5 0 0 1-.325-.944l8.232-3.35-8.941 2.556a.5.5 0 0 1-.322-.946l7.514-2.975-8.15 2.327a.5.5 0 0 1-.314-.948l5.59-2.115-6.07 1.735a.5.5 0 0 1-.313-.949l4.985-1.875-6.054 1.73a.5.5 0 0 1-.275-.961l17.856-5.105a.5.5 0 0 1 .313.947l-4.988 1.878 5.795-1.658a.5.5 0 0 1 .314.948L57.94 22.27l6.282-1.794a.5.5 0 0 1 .322.945l-7.512 2.98 8.202-2.343a.5.5 0 0 1 .326.943l-8.235 3.347 8.782-2.508a.5.5 0 0 1 .316.948l-6.059 2.314 6.287-1.797a.5.5 0 0 1 .322.945l-7.247 2.886 7.37-2.105a.5.5 0 0 1 .319.947l-6 2.333 5.918-1.69a.5.5 0 0 1 .323.944l-6.283 2.509 6.059-1.731a.5.5 0 0 1 .307.952l-.632.225.294-.083a.5.5 0 0 1 .309.95l-1.17.428.749-.214a.5.5 0 0 1 .328.941l-5.257 2.177 4.597-1.313a.5.5 0 0 1 .315.948l-1.613.616.931-.266a.5.5 0 0 1 .328.943l-3.112 1.282 2.175-.621a.5.5 0 0 1 .346.934l-3.895 1.79 2.496-.716a.5.5 0 0 1 .342.936l-1.74.782.259-.074a.5.5 0 0 1 .373.918l-2.36 1.251a.5.5 0 0 1 .329.925l-3.404 2.02a.5.5 0 0 1-.35.575L57.141 47a.5.5 0 0 1-.262.009"/><path fill="#7FC3CF" d="M30.707 30.847a.5.5 0 0 1-.087-.94l.599-.273-2.318.662a.5.5 0 0 1-.32-.947l3.52-1.386-4.553 1.302a.5.5 0 0 1-.296-.954l12.923-4.34-13.494 3.853a.5.5 0 0 1-.289-.957l1.455-.46-1.078.307a.5.5 0 0 1-.292-.955l6.567-2.148-3.701 1.055a.5.5 0 0 1-.302-.952L39.145 20.2l-4.538 1.297a.5.5 0 0 1-.309-.95l5.6-2.046-.606.174a.5.5 0 0 1-.329-.942l4.113-1.706a.5.5 0 0 1 .24-.809l5.518-1.576a.5.5 0 0 1 .329.942l-1.796.745 5.651-1.614a.5.5 0 0 1 .309.95l-5.6 2.044 8.157-2.33a.5.5 0 0 1 .303.952l-10.098 3.513 12.187-3.48a.5.5 0 0 1 .293.954l-6.59 2.155 7.824-2.235a.5.5 0 0 1 .289.958l-1.44.457 2.244-.641a.5.5 0 0 1 .297.955l-18.9 6.347q.064.076.097.169a.5.5 0 0 1-.291.625l-4.48 1.764a.5.5 0 0 1 .03.922L34.31 29.32l.015.045a.5.5 0 0 1-.343.618l-3.018.862a.5.5 0 0 1-.258.002M20.044 44.482a.5.5 0 0 1-.09-.938l.037-.017-1.142.325a.5.5 0 0 1-.338-.94l2.832-1.233-3.43.98a.5.5 0 0 1-.329-.941l2.886-1.201-3.156.9A.5.5 0 0 1 17 40.47l.158-.063a.5.5 0 0 1-.26-.954l3.833-1.695-2.563.74a.5.5 0 0 1-.365-.925l4.938-2.533a.5.5 0 0 1 .314-.697l2.403-.685a.5.5 0 0 1 .365.925l-3.029 1.554 4.634-1.323a.5.5 0 0 1 .339.937l-3.832 1.693 4.33-1.234a.5.5 0 0 1 .313.947l-.094.037.043-.012a.5.5 0 0 1 .329.942l-2.886 1.193 2.316-.657a.5.5 0 0 1 .338.94l-2.857 1.243a.5.5 0 0 1 .297.945l-3.009 1.408a.5.5 0 0 1-.354.593l-2.403.687a.5.5 0 0 1-.253.007"/><path fill="#7FC3CF" d="M22.929 50.317a.5.5 0 0 1-.102-.932l3.991-1.99-5.194 1.482a.5.5 0 0 1-.335-.94l3.62-1.558-3.98 1.137a.5.5 0 0 1-.332-.941l3.4-1.434-3.109.888a.5.5 0 0 1-.345-.936l4.06-1.857-1.641.47a.5.5 0 0 1-.356-.932l3.7-1.785-.003-.012a.5.5 0 0 1 .344-.618l2.403-.687a.5.5 0 0 1 .355.931l-1.124.544 2.413-.688a.5.5 0 0 1 .345.935l-4.062 1.858 4.709-1.345a.5.5 0 0 1 .33.941l-3.396 1.433 3.5-1a.5.5 0 0 1 .336.939l-3.626 1.56 2.916-.832a.5.5 0 0 1 .36.928l-4.533 2.261a.5.5 0 0 1-.059.94l-4.33 1.235a.5.5 0 0 1-.255.005"/><path fill="#7FC3CF" d="M26.355 56.26a.5.5 0 0 1-.078-.948l1.708-.746-2.517.719a.5.5 0 0 1-.34-.938l3.956-1.753-4.442 1.27a.5.5 0 0 1-.353-.93l5.424-2.59-5.17 1.478a.5.5 0 0 1-.323-.945l1.302-.523a.5.5 0 0 1-.31-.94l4.702-2.362-.02-.054a.5.5 0 0 1 .344-.618l2.404-.687a.5.5 0 0 1 .361.928l-2.583 1.297 4.108-1.174a.5.5 0 0 1 .323.944l-1.283.515 1.6-.457a.5.5 0 0 1 .352.931l-5.416 2.593 5.615-1.605a.5.5 0 0 1 .34.94L32.1 52.355l2.808-.802a.5.5 0 0 1 .338.938l-3.52 1.538a.5.5 0 0 1-.223.828l-4.885 1.398a.5.5 0 0 1-.263.004"/><path fill="#7FC3CF" d="M30.82 62.54a.5.5 0 0 1-.093-.937l.604-.288-1.802.514a.5.5 0 0 1-.351-.932l4.46-2.109-5.21 1.49a.5.5 0 0 1-.318-.948l.745-.288-.805.23a.5.5 0 0 1-.328-.942l2.677-1.098-2.276.65a.5.5 0 0 1-.345-.935l3.824-1.742-1.068.304a.5.5 0 0 1-.352-.931l3.298-1.566a.5.5 0 0 1 .345-.61l2.402-.688a.5.5 0 0 1 .353.932l-.51.242 1.693-.483a.5.5 0 0 1 .345.935l-3.826 1.743 4.496-1.284a.5.5 0 0 1 .327.943l-2.67 1.094 2.832-.808a.5.5 0 0 1 .317.947l-.75.29.406-.116a.5.5 0 0 1 .352.932L35.13 59.19l1.698-.484a.5.5 0 0 1 .353.931l-3.355 1.598a.5.5 0 0 1-.345.614l-2.402.686a.5.5 0 0 1-.26.004"/><path fill="#262626" d="M56.989 14.534c-11.51-4.236-12.639 4.617-17.342-2.01-8.512-8.372-22.985-5.474-27.966 5.228-4.275 9.185.802 16.641 5.39 24.325.625 1.448 2.109 2.693 3.447 2.46-1.45 2.288 1.108 6.32 3.632 5.895-1.536 2.343 1.11 6.507 3.726 6.032a4.153 4.153 0 0 0 3.207 6.087c1.408.094 2.495-.715 3.636-1.406 1.987-1.373 5.407-2.37 5.227-5.263 2.674 1.459 5.773-.727 5.808-3.744 2.721 1.684 5.98-.533 6.006-3.632a3.88 3.88 0 0 0 4.878-.52c14.34-7.624 16.293-26.374.351-33.452M18.392 42.198c-1.854-2.574-.09-4.22 2.371-5.353 1.952-1.176 4.726-3.559 6.604-.912 1.818 2.287.089 4.319-2.22 5.262-2.003 1.125-4.763 3.722-6.755 1.003m3.751 6.234c-1.022-1.493-1.299-3.37.438-4.513 2.64-.948 5.618-5.142 8.22-2.182 1.214 1.456 1.238 3.77-.65 4.683-2.51.867-5.56 4.922-8.008 2.012m3.55 6.023c-1.651-2.314-.552-4.297 1.88-5.334 1.933-1.025 4.737-3.86 6.752-1.52 1.935 2.281.578 4.59-1.917 5.575-2.004 1.044-4.719 3.824-6.71 1.28zm7.613 6.403c-2.921 2.457-6.654-2.351-3.83-4.721 1.806-1.077 3.502-2.047 5.264-3.134 2.922-1.64 5.729 3.437 2.857 5.27zM51.453 46.81q-4.102-6.882-8.212-13.765c-.351-.59-1.056.347-.767.831l8.194 13.733c1.274 3.768-3.332 4.901-5.254 2.785q-4.004-6.703-8.004-13.413c-.283-.476-1.46-.39-1.114.193 2.797 4.617 5.477 9.325 8.335 13.892 1.374 3.753-3.007 5.06-5.08 3.075a3.94 3.94 0 0 0-3.518-2.441c1.464-2.377-1.157-6.303-3.664-5.952 1.652-2.409-1.09-6.547-3.711-6.007a4.14 4.14 0 0 0-.483-4.603c-2.36-3.384-5.782-.464-8.279 1.04-1.34.75-2.904 1.63-3.19 3.272C-.244 17.797 25.005-2.36 41.247 16.264c-4.476 2.59-10.093 4.94-13.831 8.35-4.528 4.132 3.043 7.347 6.848 5.283 2.565-1.39 5.667-4.518 8.505-5.124 3.03-.648 3.943 2.497 5.232 4.657l5.939 9.957a23.7 23.7 0 0 1 2.12 3.553c.924 2.505-.88 7.928-4.608 3.87m6.377-.851c.297-1.354-.357-2.623-1.068-3.906-1.801-3.254-3.821-6.406-5.727-9.601-1.467-2.458-2.824-5.915-4.787-8.023-4.27-4.586-10.916 6.577-16.273 5.24-3.447-.864-3.02-3.17-1.035-4.748 4.258-2.798 8.86-5.213 13.187-7.935C62.735 6.85 77.81 34.113 57.83 45.96"/></g><defs><clipPath id="a"><path fill="#fff" d="M15.108.413 73.31 14.987 58.737 73.19.534 58.616z"/></clipPath></defs></svg>