<svg xmlns="http://www.w3.org/2000/svg" width="62" height="62" fill="none" viewBox="0 0 62 62"><g clip-path="url(#a)"><path fill="#E5EAEF" d="M17.804 36.653a.516.516 0 0 1-.276-.952l.58-.37-2.17 1.252a.517.517 0 0 1-.547-.875l10.605-7.1-13.811 7.972a.517.517 0 0 1-.533-.884l3.965-2.492-5.85 3.376a.517.517 0 0 1-.532-.883l7.12-4.487-9.3 5.373a.516.516 0 0 1-.534-.883l10.388-6.56-12.897 7.44a.517.517 0 0 1-.536-.882l14.898-9.462-16.556 9.559a.517.517 0 0 1-.536-.884L18.91 23.69 1.322 33.84a.517.517 0 0 1-.529-.886l8.68-5.362-8.15 4.705a.517.517 0 0 1-.534-.883L16 21.842 1.326 30.315a.517.517 0 0 1-.532-.885l12.504-7.801-11.976 6.91a.516.516 0 0 1-.53-.886l10.465-6.491-9.936 5.734a.517.517 0 0 1-.536-.882l18.497-11.812L1.322 24.57a.517.517 0 0 1-.528-.888l.551-.336-.024.013a.517.517 0 0 1-.528-.887l3.05-1.872-2.522 1.454a.516.516 0 0 1-.53-.885l7.417-4.635-6.887 3.98a.517.517 0 1 1-.53-.886l4.412-2.748-3.882 2.238a.517.517 0 0 1-.536-.883L9.42 12.71 1.32 17.38a.516.516 0 0 1-.534-.883l3.871-2.453-3.337 1.925a.516.516 0 0 1-.543-.877l8.06-5.355-7.517 4.34a.517.517 0 0 1-.547-.875l6.69-4.536-6.143 3.545a.517.517 0 0 1-.563-.864l6.93-5.074L1.32 9.95a.517.517 0 0 1-.571-.856l4.696-3.596-4.125 2.377a.517.517 0 0 1-.568-.86l1.615-1.207-1.047.6a.517.517 0 0 1-.64-.794l2.226-2.449-1.586.914a.517.517 0 0 1-.665-.764l.592-.762a.517.517 0 0 1-.14-.95L2.79.633a.517.517 0 0 1 .666.764l-.362.464L5.25.62a.517.517 0 0 1 .64.794l-2.225 2.45L9.29.62a.517.517 0 0 1 .569.86L8.245 2.688 11.835.62a.517.517 0 0 1 .573.858L7.71 5.063 15.42.62a.517.517 0 0 1 .563.864L9.06 6.558 19.339.62a.517.517 0 0 1 .547.874l-6.69 4.535L22.568.62a.517.517 0 0 1 .543.876l-8.06 5.357L25.85.62a.517.517 0 0 1 .534.883l-3.876 2.453L28.292.62a.517.517 0 0 1 .537.882l-8.632 5.525L31.304.62a.516.516 0 0 1 .532.886L27.42 4.252 33.72.62a.517.517 0 0 1 .53.885l-7.416 4.627L36.386.62a.517.517 0 0 1 .53.887l-3.042 1.865L38.039.967a.517.517 0 0 1 .528.888l-.555.338.723-.414a.517.517 0 0 1 .538.882L20.78 14.467 38.977 3.964a.517.517 0 0 1 .53.886l-10.436 6.475 9.906-5.72a.517.517 0 0 1 .531.885L26.99 14.301l11.987-6.923a.518.518 0 1 1 .534.889l-15.205 9.567 14.673-8.473a.517.517 0 0 1 .53.887L30.81 15.62l8.163-4.715a.516.516 0 0 1 .535.882L21.895 23.01l17.083-9.862a.517.517 0 0 1 .535.883l-14.895 9.462 14.363-8.29a.517.517 0 0 1 .533.884L29.12 22.65l9.858-5.692a.516.516 0 0 1 .533.885l-7.115 4.483 6.582-3.8a.517.517 0 0 1 .532.885l-3.964 2.496 3.436-1.983a.517.517 0 0 1 .546.876L28.92 27.9l10.057-5.806a.517.517 0 0 1 .534.882l-.582.371.048-.028a.516.516 0 0 1 .545.878l-5.064 3.368 4.518-2.608a.517.517 0 0 1 .56.867l-6.483 4.65 5.923-3.418a.517.517 0 0 1 .563.865l-4.018 2.93 3.455-1.994a.517.517 0 0 1 .565.863l-1.832 1.35 1.267-.731a.517.517 0 0 1 .596.839l-2.066 1.781 1.467-.847a.517.517 0 0 1 .605.827l-.44.395a.516.516 0 0 1 .352.956l-3.963 2.29a.517.517 0 0 1-.605-.827l.33-.297-1.954 1.124a.517.517 0 0 1-.597-.838l2.066-1.782-4.541 2.62a.517.517 0 0 1-.565-.863l1.829-1.343-3.832 2.206a.517.517 0 0 1-.563-.865l4.015-2.93-6.572 3.795a.517.517 0 0 1-.56-.867l6.488-4.656-9.568 5.523a.516.516 0 0 1-.546-.876l5.057-3.36-7.348 4.236a.5.5 0 0 1-.258.073"/><path fill="#1C3531" d="M36.553 19.086a.517.517 0 0 1-.339-.906l1.256-1.096-2.805 1.62a.517.517 0 0 1-.595-.84l2.377-2.05-.453.262a.517.517 0 0 1-.651-.784l2.204-2.582a.516.516 0 0 1 .027-.88l1.505-.867a.516.516 0 0 1 .65.784l-1.645 1.925 2.589-1.494a.516.516 0 0 1 .595.84l-2.376 2.048 2.673-1.542a.517.517 0 0 1 .597.837l-1.253 1.093 1.343-.772a.517.517 0 0 1 .672.756l-1.063 1.417 1.203-.693a.516.516 0 0 1 .762.331l.301 1.325a.517.517 0 0 1 .302.963l-.41.233a.517.517 0 0 1-.762-.333l-.29-1.274-2.78 1.607a.517.517 0 0 1-.673-.757l1.063-1.413-3.766 2.17a.5.5 0 0 1-.258.072"/><path fill="#CCD0DA" d="M39.616 42.86a.516.516 0 0 1-.365-.884l2.313-2.296-5.19 2.996a.517.517 0 0 1-.575-.854l3.382-2.626-3.596 2.074a.517.517 0 0 1-.577-.854l4.987-3.914-5.234 3.023a.517.517 0 0 1-.564-.863l4.3-3.164-4.347 2.509a.517.517 0 0 1-.557-.87l3.37-2.382-3.295 1.902a.516.516 0 0 1-.57-.858l6.29-4.754-6.267 3.617a.517.517 0 0 1-.549-.875l1.272-.86-.978.565a.517.517 0 0 1-.558-.868l4.39-3.12-4.108 2.376a.519.519 0 1 1-.557-.875l4.84-3.485-4.444 2.564a.517.517 0 0 1-.565-.863l5.385-3.979-4.898 2.827a.517.517 0 0 1-.551-.873l1.644-1.13-.964.556a.517.517 0 0 1-.59-.844l4.492-3.776-3.502 2.02a.517.517 0 0 1-.587-.845l1.233-1.018-.214.123a.51.51 0 0 1-.62-.075.52.52 0 0 1-.103-.614l1.153-2.185a.517.517 0 0 1 .073-.842l.664-.383a.516.516 0 0 1 .715.689l-.855 1.62 4.015-2.317a.516.516 0 0 1 .587.845l-1.23 1.018 3.235-1.868a.517.517 0 0 1 .59.842l-4.492 3.777 7.182-4.143a.516.516 0 0 1 .551.873l-1.64 1.129 1.517-.875a.517.517 0 0 1 .565.862l-5.387 3.982 5.415-3.124a.516.516 0 0 1 .56.866l-4.838 3.484 4.688-2.705a.517.517 0 0 1 .558.868l-4.389 3.119 4.14-2.39a.517.517 0 0 1 .548.875l-1.277.863.842-.486a.517.517 0 0 1 .57.86L40.364 31.6l5.8-3.348a.516.516 0 0 1 .557.87l-3.376 2.386 2.719-1.569a.517.517 0 0 1 .564.863l-4.3 3.164 3.45-1.992a.516.516 0 0 1 .576.855l-4.989 3.916 3.847-2.22a.516.516 0 0 1 .576.854l-3.38 2.624 2.093-1.208a.516.516 0 0 1 .622.814l-2.311 2.293.537-.31a.517.517 0 0 1 .67.758l-.962 1.258.013.022a.517.517 0 0 1-.189.705l-.77.445a.517.517 0 0 1-.67-.76l.186-.243-1.749 1.009a.5.5 0 0 1-.261.073"/><path fill="#C2CDD8" d="M34.668 48.02a.517.517 0 0 1-.348-.898l2.054-1.862-2.963 1.71a.517.517 0 0 1-.651-.782l1.887-2.213a.516.516 0 0 1-.103-.94l1.87-1.081a.517.517 0 0 1 .65.782l-1.566 1.838 4.54-2.621a.517.517 0 0 1 .606.827l-2.057 1.86 4.065-2.346a.517.517 0 0 1 .62.814l-1.954 1.935 2.573-1.485a.517.517 0 0 1 .62.818l-.594.574.642-.37a.517.517 0 0 1 .757.581l-.342 1.264.161-.093a.517.517 0 0 1 .517.894l-1.246.723a.517.517 0 0 1-.758-.581l.342-1.264-3.203 1.846a.516.516 0 0 1-.62-.818l.597-.577-2.418 1.395a.517.517 0 0 1-.62-.814l1.954-1.931-4.753 2.741a.5.5 0 0 1-.26.075"/><path fill="#17D87A" d="M27.158 41.54a.517.517 0 0 1-.338-.908l2.067-1.782-1.727.997a.517.517 0 0 1-.6-.835l2.162-1.904-1.563.9a.517.517 0 0 1-.612-.826l2.342-2.194-1.615.93a.516.516 0 0 1-.64-.797l1.73-1.883a.517.517 0 0 1-.32-.96l2.628-1.517a.517.517 0 0 1 .639.796l-1.637 1.782 2.583-1.49a.516.516 0 0 1 .612.827l-2.342 2.194 2.17-1.25a.516.516 0 0 1 .599.834l-2.158 1.901 1.957-1.13a.517.517 0 0 1 .597.838l-2.067 1.784 1.854-1.069a.517.517 0 0 1 .517.894l-6.58 3.795a.5.5 0 0 1-.258.073M50.106 41.507a.517.517 0 0 1-.46-.75l.746-1.474-1.343.773a.516.516 0 0 1-.646-.789l.78-.889-1.275.736a.516.516 0 0 1-.64-.796l1.487-1.63-2.592 1.496a.516.516 0 0 1-.613-.827l1.57-1.471-1.86 1.07a.516.516 0 0 1-.597-.838l.856-.746a.51.51 0 0 1-.524-.181.52.52 0 0 1 .031-.677l.838-.88a.5.5 0 0 1-.386-.134.52.52 0 0 1-.12-.598l.533-1.15a.516.516 0 0 1 .101-.82l.524-.303a.517.517 0 0 1 .724.664l-.26.56 1.337-.77a.516.516 0 0 1 .632.803l-.712.748 1.325-.764a.517.517 0 0 1 .597.836l-.766.671 1.04-.6a.517.517 0 0 1 .612.827L49.48 35.08l1.641-.947a.517.517 0 0 1 .64.796l-1.484 1.628 1.101-.636a.518.518 0 0 1 .647.787l-.782.893.136-.078a.516.516 0 0 1 .724.68l-.753 1.478.03-.016a.517.517 0 1 1 .516.896l-1.531.877a.5.5 0 0 1-.259.07"/><path fill="#1C3531" d="M32.887 53.196a.516.516 0 0 1-.316-.923l2.3-1.792-.02-.015a.52.52 0 0 1-.206-.522l.32-1.594a.517.517 0 0 1-.089-.935l.517-.299a.516.516 0 0 1 .764.549l-.273 1.362 3.335-1.925a.517.517 0 0 1 .576.854l-.684.533 2.419-1.397a.516.516 0 1 1 .516.894l-8.903 5.141a.5.5 0 0 1-.256.07"/><path fill="#1C3531" d="M30.587 61.453a.516.516 0 0 1-.29-.944l1.36-.919-3.11 1.79a.517.517 0 0 1-.558-.867l6.604-4.738-9.71 5.605a.516.516 0 0 1-.556-.87l9.311-6.55-12.854 7.42a.516.516 0 0 1-.556-.868l1.777-1.257-3.16 1.823a.517.517 0 0 1-.549-.872l.462-.318-.652.376a.516.516 0 0 1-.703-.709l.738-1.252a.517.517 0 0 1-.492-.909l1.673-.966a.517.517 0 0 1 .704.71l-.737 1.25 10.535-6.082a.517.517 0 0 1 .55.873l-.464.319 1.323-.763a.516.516 0 0 1 .556.87l-1.78 1.265 13.104-7.565a.517.517 0 0 1 .556.87l-9.308 6.547 8.764-5.063a.517.517 0 0 1 .56.867l-6.606 4.739 6.717-3.878a.516.516 0 0 1 .547.875l-1.357.918 2.066-1.193a.516.516 0 0 1 .552.871l-1.915 1.328 2.159-1.246a.516.516 0 0 1 .573.857l-3.573 2.74 6.784-3.917a.516.516 0 0 1 .578.854l-4.275 3.346 5.848-3.376a.517.517 0 0 1 .591.842l-3.873 3.25 5.63-3.25a.517.517 0 0 1 .563.864l-.723.527 2.067-1.191a.517.517 0 0 1 .567.861l-.94.699 1.472-.85a.516.516 0 0 1 .574.857l-.65.5.502-.291a.517.517 0 0 1 .63.807l-1.53 1.583 3.145-1.819a.516.516 0 0 1 .681.744l-1.22 1.74 1.389-.8a.516.516 0 1 1 .516.893l-3.41 1.964a.517.517 0 0 1-.68-.743l1.22-1.731-4.303 2.48a.517.517 0 0 1-.63-.806L54.9 58.99l-4.142 2.39a.516.516 0 0 1-.573-.857l.642-.492-2.339 1.349a.516.516 0 0 1-.567-.862l.942-.7-2.707 1.562a.516.516 0 0 1-.563-.864l.723-.527-2.413 1.39a.517.517 0 0 1-.59-.841l3.872-3.25-7.092 4.092a.517.517 0 0 1-.577-.854l4.273-3.345-7.269 4.199a.516.516 0 0 1-.574-.857l3.574-2.74-6.23 3.597a.516.516 0 0 1-.552-.871l1.921-1.332-3.815 2.203a.5.5 0 0 1-.257.073"/><path fill="#D6DBE3" d="M21.002 56.3a.517.517 0 0 1-.258-.963l1.691-.978a.517.517 0 0 1 .517.895l-1.692.977a.5.5 0 0 1-.258.07"/><path fill="#17D87A" d="M9.889 15.913a.517.517 0 0 1-.35-.897l2.124-1.952-3.64 2.102a.517.517 0 0 1-.598-.837l3.262-2.845L6.52 13.89a.517.517 0 0 1-.599-.836l3.67-3.204-3.921 2.263a.517.517 0 0 1-.573-.856l1.278-.984-.918.529a.516.516 0 0 1-.579-.852l.75-.593A.517.517 0 0 1 5.08 8.5l1.254-1.164a.517.517 0 0 1 0-.894L8.966 4.93a.517.517 0 0 1 .609.826l-.387.358 2.04-1.178a.517.517 0 0 1 .58.853l-.723.574 1.522-.882a.517.517 0 0 1 .573.857l-1.277.984 1.767-1.02a.517.517 0 0 1 .598.836l-3.67 3.203 4.179-2.412a.517.517 0 0 1 .598.836l-3.261 2.845L15.2 9.828a.517.517 0 0 1 .609.826l-2.126 1.952.991-.571a.52.52 0 0 1 .71.187.52.52 0 0 1-.193.708l-5.045 2.914a.5.5 0 0 1-.258.069M9.376 31.332a.517.517 0 0 1-.326-.917l1.08-.878-2.028 1.17a.517.517 0 0 1-.565-.863l.054-.04-.413.238a.516.516 0 0 1-.564-.864l.437-.32-.645.372a.516.516 0 0 1-.597-.836l3.632-3.167-3.8 2.192a.516.516 0 0 1-.612-.826L8.2 23.618l-2.554 1.476a.517.517 0 0 1-.62-.815l1.415-1.392a.516.516 0 0 1-.103-.94l2.63-1.517a.516.516 0 0 1 .62.815l-.943.93 2.916-1.682a.517.517 0 0 1 .611.827l-3.171 2.963 4.535-2.614a.517.517 0 0 1 .597.836l-3.632 3.167 4.186-2.417a.517.517 0 0 1 .564.864l-.444.326.232-.134a.516.516 0 0 1 .565.863l-.243.179a.516.516 0 0 1 .43.907l-1.075.875.236-.135a.517.517 0 0 1 .516.894l-5.834 3.368a.5.5 0 0 1-.26.07"/><path fill="#1C3531" d="M38.368 27.112a.516.516 0 0 1-.386-.86l.452-.509-.7.405a.517.517 0 0 1-.702-.713l.731-1.223a.516.516 0 0 1-.488-.91l1.692-.977a.517.517 0 0 1 .702.713l-.73 1.22 1.757-1.011a.516.516 0 0 1 .643.79l-.453.51.129-.073a.516.516 0 1 1 .517.893l-2.906 1.675a.5.5 0 0 1-.258.07"/><path fill="#262626" d="M40.463 22.512a3.36 3.36 0 0 0-1.877.052 3.27 3.27 0 0 0-1.572.93 2.215 2.215 0 0 0-.214 2.652 2.65 2.65 0 0 0 2.887.948 2.74 2.74 0 0 0 2.395-2.5 2.23 2.23 0 0 0-1.62-2.082m-.724 4.025h-.015.02zm.51-.464a2 2 0 0 1-.217.248l-.075.069a2 2 0 0 1-.171.118l-.037.021-.03.006h-.01c-.181-.017.069.007-.04 0-.17-.005-.34-.04-.498-.103a1.9 1.9 0 0 1-.834-.64 1.99 1.99 0 0 1-.124-2.13q.123-.215.302-.387a.7.7 0 0 1 .145-.123l.09-.06.058-.029h.08q.053 0 .104.006.116.01.227.046a1.945 1.945 0 0 1 1.033 2.96z"/><path fill="#262626" d="M61.715 58.7c-.15-1.85-1.626-2.287-3.16-2.348a2.628 2.628 0 0 0-3.447-1.917 2.8 2.8 0 0 0-3.496-.893 3.93 3.93 0 0 0-4.94-.735 3.6 3.6 0 0 0-2.517-1.578v-3.271a2.77 2.77 0 0 0 1.55-.575c.708-.62.516-1.33.16-2.09a8.5 8.5 0 0 0-1.233-1.938 5.4 5.4 0 0 0-1.417-1.212q.11-.136.198-.285a28.5 28.5 0 0 0 1.854-3.796 10.4 10.4 0 0 1 4.009 3.116 1.86 1.86 0 0 0 2.387.247 1.43 1.43 0 0 0 .753-1.343v-3.366a6.35 6.35 0 0 0-.87-3.628 5.62 5.62 0 0 0-4.434-2.47c.2-1.774.191-3.565-.025-5.337a27.8 27.8 0 0 0-3.352-9.61c-.8-1.467-1.91-4.15-3.72-4.673V5.522c0-1.757.442-4.36-1.927-4.745a15 15 0 0 0-2.317-.042H4.658a6 6 0 0 0-3.079.517C.325 1.954.286 3.077.286 4.314v25.802c0 2.188-.796 6.233 2.417 6.348 7.615.272 15.286 0 22.905 0h.517c0 .026-.006.05-.006.075v3.383a2.8 2.8 0 0 0 .083 1.088c.378.826 1.492.644 2.17.389a2.5 2.5 0 0 0 1.096-.857 13 13 0 0 1 1.137-1.172 7.9 7.9 0 0 1 2.429-1.571 24.5 24.5 0 0 0 2.273 4.592q-.49.312-.908.712a7.8 7.8 0 0 0-1.137 1.402 4.9 4.9 0 0 0-.938 2.117c-.033 1.11 1.033 1.33 2.06 1.353v3.328c-.916.2-1.736.709-2.321 1.442a4.11 4.11 0 0 0-4.921.75 3.075 3.075 0 0 0-3.55.909 2.964 2.964 0 0 0-3.555 1.943 3.6 3.6 0 0 0-2.104.595 2.51 2.51 0 0 0-.854 3.162 2.94 2.94 0 0 0 2.904 1.355H54.56c2.339 0 6.887.742 7.162-2.633 0-.03-.013-.048-.016-.075s.011-.033.01-.052M49.846 33.24c.741.98 1.12 2.188 1.073 3.416v3.067q.024.445 0 .889-.015.09-.043.18a4 4 0 0 1-.166-.139c-.15-.17-.29-.347-.441-.517a9.94 9.94 0 0 0-4.65-3.056 28 28 0 0 0 1.398-5.57c1.12.22 2.124.833 2.83 1.73m-4.507-.707a30.7 30.7 0 0 1-1.295 4.92 23 23 0 0 1-2.118 4.434h-1.898v-6.805c0-.808-1.521-.606-1.521.104v6.705H36.76a26 26 0 0 1-3.198-7.869 23.62 23.62 0 0 1 1.216-15.018h8.876a23.57 23.57 0 0 1 1.685 13.529m-2.695-15.697c.233.45.441.906.651 1.362h-8.183c.019-.04.033-.082.052-.123a22.5 22.5 0 0 1 3.203-5.573c1.169-1.285 1.86.32 2.435 1.194a36 36 0 0 1 1.842 3.14M5.695 35.869c-1.033 0-2.553.254-3.35-.56-.744-.761-.563-2.001-.563-2.977V7.174c0-1.24-.634-5.644 1.191-5.845a31 31 0 0 1 3.252 0h29.856a2.17 2.17 0 0 1 2.438 2.274c.038 2.086 0 4.178 0 6.264v1.195a4.52 4.52 0 0 0-2.024 2.032 38 38 0 0 0-2.232 3.834 25.9 25.9 0 0 0-2.946 9.943 25 25 0 0 0 .085 3.952 6.67 6.67 0 0 0-3.647 1.721 5.37 5.37 0 0 0-1.575 3.325zm23.353 3.853q-.427.406-.818.844c-.096.103-.19.22-.282.329a1.06 1.06 0 0 1-.329-.9V36.96a7.2 7.2 0 0 1 .433-3.034 4.18 4.18 0 0 1 3.41-2.626c.245 2.09.726 4.144 1.435 6.125a10.3 10.3 0 0 0-3.853 2.296zM35.3 43.66q.392-.456.878-.81l.012-.006h2.322v.606c0 .808 1.52.606 1.52-.103v-.505h.89c.371 0 .699 0 .999-.028.338.188.648.423.921.697a7 7 0 0 1 .905 1.086 5.4 5.4 0 0 1 .954 1.923c.037.234-.067.297-.093.503a.16.16 0 0 1-.04.088q-.227.015-.455 0h-.175a.55.55 0 0 0-.264-.072h-8.266a2 2 0 0 0-.523.089q-.212.014-.42-.017c-1.604-.268.324-2.87.83-3.451zm22.94 16.813h-5.933a2.36 2.36 0 0 0-.286-1.98 2.6 2.6 0 0 0-2.139-1.09 1.4 1.4 0 0 0-.587.112.85.85 0 0 0-.396.31c-.157.31.134.499.421.502.085 0 .173.02.257.016h-.023.02q.06.012.12.028l.118.037h.014c.067.032.134.063.199.103s.134.094.207.131l.006.005.09.081a2 2 0 0 1 .374.472c-.041-.069.006.014.018.038q.048.103.086.207.078.228.104.467c0 .033.005.067.007.104v.103a2 2 0 0 1-.04.31c0 .013-.009.027-.012.04H27.772a1.99 1.99 0 0 1 .096-1.694q.105-.182.24-.34c.028-.03.095-.095.14-.135s.063-.052.094-.076c.014-.012.124-.085.024-.022q.046-.03.094-.058a2.1 2.1 0 0 0 1.041-.278c.06-.037.207-.112.18-.206-.025-.094-.206-.086-.257-.085a3.7 3.7 0 0 0-2.873 1.24 2.15 2.15 0 0 0-.386 1.653H23.11c-.944 0-1.891.028-2.834 0a4 4 0 0 1-.368 0 1.71 1.71 0 0 1-1.4-2.465c.433-.764 1.146-.682 1.887-.682.318 0 .992-.133 1.027-.567.075-.911.583-1.948 1.885-1.24a1.04 1.04 0 0 0 1.293-.346 1.24 1.24 0 0 1 2.067-.47c.361.29 1.077 0 1.292-.346A2.202 2.202 0 0 1 31.542 54a.996.996 0 0 0 1.397-.259 2.335 2.335 0 0 1 2.114-1.59 1.3 1.3 0 0 0 .298-.071c.093.026.188.047.28.078l.059.026q.06.026.119.056a3.1 3.1 0 0 1 .686.466c.08.07.294.056.382.05q.301-.024.583-.13c.103-.042.647-.255.444-.435a3.43 3.43 0 0 0-2.017-.82v-3.346h6.758v3.298a4.3 4.3 0 0 0-1.923.97.33.33 0 0 0 .162.607 1.22 1.22 0 0 0 1.06-.283c.031-.029.066-.056.097-.085l-.043.04.038-.032c.07-.051.143-.103.216-.146l.115-.066-.052.032.03-.017q.115-.057.235-.103l.094-.03q.065-.018.13-.032h.014q.107-.019.219-.03h.016c.026 0 .05.013.076.015a2.7 2.7 0 0 1 2.428 1.733c.222.517 1.056.278 1.363-.021 1.255-1.222 2.856-.56 3.676.745.213.337.938.164 1.172-.024.94-.754 1.767-.104 2.128.723.164.38.756.351 1.064.183 1.24-.677 2.073.473 2.16 1.532.015.194.323.293.475.293 1.286 0 2.447.187 2.61 1.699-.135 1.385-.933 1.446-1.97 1.446zm-29.822-2.322c-.09.025-.05.015 0 0m.018 0h.021c-.051.025-.05.015-.021 0m.08-.03.01-.006h-.008zm-.01 0c-.119.025.123-.04 0 0"/><path fill="#262626" d="M12.493 4.97a6.26 6.26 0 0 0-6.706 1.798 5.64 5.64 0 0 0-.576 6.537 5.9 5.9 0 0 0 6.176 2.608 5.945 5.945 0 0 0 4.87-5.642 5.66 5.66 0 0 0-3.764-5.301m-.601 9.75a4.435 4.435 0 0 1-4.927-1.51 4.84 4.84 0 0 1-.425-5.33 4.21 4.21 0 0 1 4.517-2.094 4.79 4.79 0 0 1 3.683 4.606 4.59 4.59 0 0 1-2.848 4.328M16.248 25.632a5.48 5.48 0 0 0-3.863-5.125 6.42 6.42 0 0 0-6.632 1.9 5.465 5.465 0 0 0-.517 6.424 5.83 5.83 0 0 0 6.189 2.454 5.89 5.89 0 0 0 4.824-5.544c0-.022-.014-.035-.017-.054-.003-.02.017-.035.016-.055m-4.423 4.736a4.49 4.49 0 0 1-4.852-1.629 4.96 4.96 0 0 1-.38-5.534 4.08 4.08 0 0 1 4.547-1.974 4.95 4.95 0 0 1 3.608 4.753 4.68 4.68 0 0 1-2.923 4.384M38.974 30.69h-.255a2 2 0 0 0-.549.072 1.7 1.7 0 0 0-.51.206c-.067.047-.2.129-.174.228s.194.11.263.11h2.067a2 2 0 0 0 .549-.073 1.7 1.7 0 0 0 .51-.207c.066-.046.2-.128.174-.227-.027-.1-.194-.11-.264-.11zM35.072 56.618h-.01c-.05-.005-.031-.002.01 0M42.56 56.507h-.01l.066-.024-.017.006zM42.314 52.36c-.096.058-.051.03 0 0M49.553 58.346c-.094 0-.053-.007 0 0"/><path fill="#262626" d="M11.794 8.776a.94.94 0 0 0-.572-.015.87.87 0 0 0-.486.3l-.822 1.295-.04-.032a.8.8 0 0 0-.517-.127c-.204.012-.4.084-.562.207a.62.62 0 0 0-.258.413.46.46 0 0 0 .187.395l.756.596a.8.8 0 0 0 .62.11.88.88 0 0 0 .59-.317l1.148-1.812.162-.254a.53.53 0 0 0 .116-.44.5.5 0 0 0-.322-.319M11.636 24.293a1.07 1.07 0 0 0-.979.443l-.736 1.156-.04-.032a.8.8 0 0 0-.506-.097c-.203.018-.398.09-.564.207a.59.59 0 0 0-.269.373.37.37 0 0 0 .173.343l.756.595a.88.88 0 0 0 .709.06.96.96 0 0 0 .584-.406l1.149-1.813.161-.254a.35.35 0 0 0-.022-.382.6.6 0 0 0-.416-.193M26.573 6.613h8.266a1.22 1.22 0 0 0 .99-.404c.175-.295-.15-.423-.4-.423H27.16a1.22 1.22 0 0 0-.99.404c-.174.294.15.423.402.423M19.323 6.555h3.1c.37.01.728-.127.996-.38.221-.27-.193-.33-.376-.33h-3.1a1.4 1.4 0 0 0-.996.38c-.221.27.193.33.376.33M24.529 10.832h9.3a1.07 1.07 0 0 0 .98-.44c.15-.31-.13-.558-.437-.558h-9.3a1.07 1.07 0 0 0-.98.44c-.15.308.13.558.437.558M19.577 10.918h1.033a.8.8 0 0 0 .302-.07.7.7 0 0 0 .26-.14.55.55 0 0 0 .173-.199.43.43 0 0 0 .084-.223.46.46 0 0 0-.19-.405.87.87 0 0 0-.517-.134h-1.033a.8.8 0 0 0-.302.07.7.7 0 0 0-.26.14.55.55 0 0 0-.173.199.43.43 0 0 0-.084.223.46.46 0 0 0 .19.405.87.87 0 0 0 .517.134M31.3 14.07H19.932c-.29 0-.842.104-.991.397s.128.395.393.395h11.367c.29 0 .841-.104.99-.397s-.127-.395-.393-.395M29.001 21.155h-2.066a1.06 1.06 0 0 0-.563.206.63.63 0 0 0-.263.396.4.4 0 0 0 .18.372.9.9 0 0 0 .511.115h2.067c.204-.013.4-.085.563-.207a.63.63 0 0 0 .263-.396.4.4 0 0 0-.181-.372.9.9 0 0 0-.51-.114M22.67 22.257c.31 0 .808-.255.827-.612.016-.394-.378-.502-.696-.502h-3.1c-.31 0-.808.254-.826.611-.017.394.377.502.695.502zM28.393 26.163a.62.62 0 0 0 .265-.39c.021-.39-.385-.474-.687-.474h-3.1a1.07 1.07 0 0 0-.564.207.62.62 0 0 0-.264.39c-.022.389.384.473.687.473h3.1c.204-.013.399-.085.563-.206M20.735 25.292h-1.033a.8.8 0 0 0-.301.071.8.8 0 0 0-.263.134.5.5 0 0 0-.174.188.38.38 0 0 0-.05.416q.048.1.142.16l.144.071a.9.9 0 0 0 .365.042h1.033a.8.8 0 0 0 .301-.072.8.8 0 0 0 .263-.134.54.54 0 0 0 .174-.187.38.38 0 0 0 .05-.417.4.4 0 0 0-.142-.16l-.144-.07a.9.9 0 0 0-.365-.042M24.862 29.398h-5.167a.84.84 0 0 0-.82.62c-.039.395.391.516.698.516h5.167a.84.84 0 0 0 .82-.62c.038-.396-.391-.517-.698-.517"/></g><defs><clipPath id="a"><path fill="#fff" d="M0 0h62v62H0z"/></clipPath></defs></svg>