<svg xmlns="http://www.w3.org/2000/svg" width="74" height="74" fill="none" viewBox="0 0 74 74"><circle cx="37" cy="37" r="37" fill="#BCDABF"/><g clip-path="url(#a)"><path fill="#fff" d="M37.176 18.9a.393.393 0 0 1-.248-.7l.768-.622-.861.497a.394.394 0 0 1-.475-.618l1.036-1.045-.562.323a.39.39 0 0 1-.428-.022.39.39 0 0 1-.152-.402l.245-1.12a.394.394 0 0 1-.058-.71l.394-.226a.395.395 0 0 1 .581.425l-.203.928 2.343-1.352a.393.393 0 0 1 .476.618l-1.038 1.045 2.609-1.506a.39.39 0 0 1 .521.117c.116.17.083.4-.076.53l-.766.62.622-.358a.393.393 0 0 1 .465.628l-.52.485.054-.03a.394.394 0 0 1 .542.53l-.347.632a.395.395 0 0 1 .157.732l-.914.528a.393.393 0 0 1-.543-.53l.279-.507-1.814 1.047a.394.394 0 0 1-.465-.628l.519-.485-1.944 1.122a.4.4 0 0 1-.197.054M47.039 57.477a.394.394 0 0 1-.228-.715l3.052-2.158-3.58 2.066a.394.394 0 0 1-.427-.66l4.685-3.379-4.258 2.459a.393.393 0 0 1-.416-.668l1.295-.869-.88.508a.394.394 0 0 1-.416-.668l.737-.491-.32.185a.394.394 0 0 1-.416-.668l1.058-.707-.643.37a.394.394 0 0 1-.425-.66l4.189-2.979-3.764 2.174a.394.394 0 0 1-.43-.658l5.138-3.763-4.708 2.718a.394.394 0 0 1-.427-.66l4.788-3.465-4.36 2.517a.393.393 0 0 1-.414-.67l.324-.213a.394.394 0 0 1-.333-.703l3.233-2.245-2.812 1.623a.394.394 0 0 1-.425-.661l4.19-2.979-3.765 2.174a.393.393 0 0 1-.416-.668l.808-.54-.392.227a.393.393 0 0 1-.422-.664l3.279-2.28-2.857 1.65a.394.394 0 0 1-.425-.662l4.224-3.006-3.8 2.193a.394.394 0 0 1-.432-.657l4.839-3.597-4.406 2.542a.393.393 0 0 1-.43-.657l2.36-1.74-1.93 1.115a.39.39 0 0 1-.52-.115.394.394 0 0 1 .07-.527l2.052-1.712-1.602.925a.394.394 0 0 1-.491-.601l1.233-1.39-.742.429a.395.395 0 0 1-.58-.433l.23-.957a.394.394 0 0 1-.044-.705l.395-.227a.4.4 0 0 1 .433.026.4.4 0 0 1 .147.408l-.18.747 2.054-1.186a.394.394 0 0 1 .491.602l-1.233 1.39 3.46-1.998a.392.392 0 0 1 .45.642l-2.053 1.712 4.088-2.36a.393.393 0 0 1 .43.658l-2.36 1.739 4.158-2.401a.395.395 0 0 1 .433.656l-4.837 3.597 5.1-2.944a.394.394 0 0 1 .425.661l-4.225 3.008 3.802-2.195a.39.39 0 0 1 .529.13.39.39 0 0 1-.108.533L54.01 37.28l2.856-1.649a.394.394 0 0 1 .416.668l-.812.542.397-.229a.393.393 0 0 1 .425.661l-4.19 2.98 3.767-2.175a.394.394 0 0 1 .421.664l-3.233 2.246 2.813-1.624a.393.393 0 0 1 .414.67l-.325.214a.393.393 0 0 1 .34.698l-4.785 3.463 4.36-2.517a.394.394 0 0 1 .43.658l-5.139 3.763 4.71-2.719a.393.393 0 0 1 .425.661l-4.19 2.978 3.767-2.174a.395.395 0 0 1 .416.668l-1.062.71.647-.373a.394.394 0 0 1 .416.668l-.734.488.318-.184a.394.394 0 0 1 .416.668l-1.292.868.877-.507a.393.393 0 0 1 .427.66l-4.686 3.38 4.26-2.46a.393.393 0 0 1 .425.663l-3.056 2.16 2.633-1.52a.394.394 0 0 1 .442.649l-3.133 2.492 2.693-1.555a.392.392 0 0 1 .455.637l-1.755 1.53 1.301-.752a.393.393 0 0 1 .509.583l-.926 1.193.418-.24a.393.393 0 0 1 .572.46l-.176.552a.394.394 0 0 1-.002.682l-.395.227a.394.394 0 0 1-.571-.46l.086-.272-1.274.735a.395.395 0 0 1-.508-.582l.925-1.194-3.087 1.782a.39.39 0 0 1-.517-.112.395.395 0 0 1 .063-.526l1.754-1.529-3.762 2.172a.393.393 0 0 1-.442-.648l3.134-2.492-5.45 3.146a.4.4 0 0 1-.197.052"/><path fill="#9BC8A2" d="M52.235 40.134a.394.394 0 0 1-.326-.615l.71-1.044-2.376 1.371a.393.393 0 0 1-.476-.618l.761-.764-.311.18a.393.393 0 0 1-.562-.487l.298-.742a.393.393 0 0 1-.13-.729l.67-.386a.394.394 0 0 1 .562.487l-.245.606 1.895-1.094a.393.393 0 0 1 .476.618l-.762.765 1.292-.746a.39.39 0 0 1 .485.073c.125.134.141.337.038.49l-.71 1.045.188-.109a.39.39 0 0 1 .538.144c.11.188.045.43-.144.538l-1.674.966a.4.4 0 0 1-.197.053zM51.008 46.432a.392.392 0 0 1-.275-.675l.648-.633-1.164.672a.39.39 0 0 1-.509-.1.39.39 0 0 1 .03-.517l.445-.45a.394.394 0 0 1-.52-.524l.236-.506a.4.4 0 0 1-.22-.179.39.39 0 0 1 .143-.538l.67-.386a.393.393 0 0 1 .553.506l-.14.302 1.402-.809a.393.393 0 0 1 .478.616l-.44.447 1.352-.781a.393.393 0 0 1 .472.622l-.648.633.19-.11a.393.393 0 0 1 .562.487l-.3.754a.394.394 0 0 1 .133.73l-.67.385a.394.394 0 0 1-.562-.487l.246-.62-1.917 1.107a.4.4 0 0 1-.197.053zM51.947 52.732a.393.393 0 0 1-.29-.659l.254-.28-1.474.85a.393.393 0 0 1-.513-.574l1.142-1.552-.848.49a.393.393 0 0 1-.554-.507l.236-.502a.392.392 0 0 1-.076-.716l.67-.386a.395.395 0 0 1 .554.507l-.139.296 1.393-.804a.393.393 0 0 1 .513.574l-1.142 1.553 2.041-1.178a.393.393 0 0 1 .487.606l-.331.363a.39.39 0 0 1 .382.195.39.39 0 0 1-.144.537l-1.964 1.133a.4.4 0 0 1-.197.053"/><path fill="#fff" d="M16.643 57.477a.393.393 0 0 1-.226-.716l3.37-2.373-3.418 1.972a.394.394 0 0 1-.423-.663l3.86-2.72-3.437 1.985a.393.393 0 0 1-.423-.663l3.828-2.695-3.405 1.966a.394.394 0 0 1-.427-.66l4.778-3.457-4.35 2.511a.394.394 0 0 1-.429-.658l4.952-3.604-4.524 2.612a.393.393 0 0 1-.414-.67l.317-.21a.393.393 0 0 1-.321-.706l2.184-1.487-1.767 1.02a.394.394 0 0 1-.42-.664l3.034-2.099-2.613 1.508a.393.393 0 0 1-.43-.657l5.294-3.9-4.864 2.807a.394.394 0 0 1-.429-.658l5.124-3.752-4.695 2.71a.39.39 0 0 1-.525-.125.39.39 0 0 1 .095-.532l5.321-3.926-4.89 2.824a.394.394 0 0 1-.43-.658l5.146-3.771-4.717 2.722a.394.394 0 0 1-.428-.658l4.764-3.466-4.336 2.504a.394.394 0 0 1-.432-.657l2.952-2.197-2.52 1.455a.393.393 0 0 1-.433-.655l1.23-.925-.797.46a.39.39 0 0 1-.509-.1.39.39 0 0 1 .03-.517l1.614-1.643-1.136.656a.39.39 0 0 1-.506-.099.39.39 0 0 1 .026-.515l.254-.262a.393.393 0 0 1-.343-.519l.162-.478a.394.394 0 0 1 .014-.675l.395-.227a.395.395 0 0 1 .57.467l-.06.176L18 31.569a.394.394 0 0 1 .48.615l-.082.084 1.217-.702a.393.393 0 0 1 .477.616l-1.614 1.642 3.925-2.265a.393.393 0 0 1 .434.655l-1.228.922 2.74-1.581a.393.393 0 0 1 .432.656l-2.951 2.197 4.951-2.859a.393.393 0 0 1 .429.659l-4.768 3.468 4.509-2.603a.394.394 0 0 1 .43.658l-5.145 3.77 4.716-2.723a.39.39 0 0 1 .526.126.39.39 0 0 1-.095.532l-5.323 3.926 4.894-2.826a.394.394 0 0 1 .429.658l-5.125 3.753 4.697-2.711a.393.393 0 0 1 .431.657l-5.296 3.902 4.868-2.81a.393.393 0 0 1 .42.665l-3.031 2.096 2.61-1.508a.393.393 0 0 1 .419.666l-2.182 1.486 1.765-1.019a.393.393 0 0 1 .414.67l-.317.21a.394.394 0 0 1 .333.699l-4.95 3.6 4.524-2.61a.393.393 0 0 1 .427.66l-4.779 3.457 4.353-2.513a.393.393 0 0 1 .424.663l-3.827 2.694 3.404-1.965a.394.394 0 0 1 .424.663l-3.861 2.72 3.438-1.985a.393.393 0 0 1 .424.663l-3.37 2.374 2.948-1.702a.393.393 0 0 1 .44.649L23.94 54.07l3.029-1.748a.393.393 0 0 1 .445.645l-1.633 1.335 1.188-.686a.394.394 0 0 1 .515.572l-1.17 1.611.657-.379a.394.394 0 0 1 .574.455l-.186.614a.392.392 0 0 1 .007.686l-.395.228a.39.39 0 0 1-.442-.033.39.39 0 0 1-.132-.422l.106-.348-1.398.806a.394.394 0 0 1-.515-.572l1.17-1.61-3.793 2.188a.393.393 0 0 1-.446-.645l1.633-1.334-3.439 1.985a.393.393 0 0 1-.44-.65l3.465-2.75-5.9 3.406a.4.4 0 0 1-.197.053"/><path fill="#E8E8E8" d="M27.984 57.475a.394.394 0 0 1-.214-.725l5.613-3.625-6.783 3.916a.393.393 0 0 1-.416-.668l10.085-6.708-9.67 5.583a.393.393 0 0 1-.41-.672l5.669-3.622-5.26 3.036a.395.395 0 0 1-.413-.67l8.562-5.6-8.15 4.707a.393.393 0 0 1-.412-.671l8.028-5.223-7.618 4.397a.394.394 0 0 1-.412-.67l7.866-5.111-7.456 4.304a.393.393 0 0 1-.405-.675l.538-.335-.133.077a.394.394 0 0 1-.41-.672l7.16-4.625-6.75 3.898a.394.394 0 0 1-.411-.672l7.4-4.788-6.99 4.035a.394.394 0 0 1-.416-.668l9.666-6.446-9.252 5.34a.394.394 0 0 1-.416-.668l8.398-5.593-7.983 4.609a.393.393 0 0 1-.411-.672l4.708-3.045-4.299 2.48a.393.393 0 0 1-.41-.672l2.932-1.882-2.522 1.457a.395.395 0 0 1-.415-.67l5.404-3.58-4.99 2.88a.395.395 0 0 1-.412-.672l2.483-1.61-2.072 1.197a.393.393 0 0 1-.418-.666l5.514-3.758L26.584 36a.393.393 0 0 1-.411-.672l.74-.48-.33.19a.393.393 0 0 1-.42-.664l4.507-3.11-4.087 2.36a.393.393 0 0 1-.428-.66l5.311-3.86-.756.436a.394.394 0 0 1-.443-.647l5.1-4.095a.39.39 0 0 1 .195-.377l1.006-.58a.393.393 0 0 1 .443.647l-2.246 1.803 2.793-1.613a.393.393 0 0 1 .428.66l-5.31 3.86 6.078-3.51a.393.393 0 0 1 .42.665l-4.508 3.11 5.083-2.934a.394.394 0 0 1 .41.672l-.73.474.995-.574a.393.393 0 0 1 .418.666l-5.52 3.762 6.145-3.547a.395.395 0 0 1 .412.671l-2.482 1.608 2.833-1.635a.395.395 0 0 1 .415.67l-5.4 3.578 5.949-3.434a.394.394 0 0 1 .41.672l-2.944 1.89 3.307-1.91a.394.394 0 0 1 .41.671l-4.702 3.043 5.16-2.979a.394.394 0 0 1 .416.668l-8.4 5.594 9.147-5.28a.394.394 0 0 1 .416.668l-9.665 6.446 9.873-5.7a.394.394 0 0 1 .41.672L39.64 38.68l6.985-4.032a.394.394 0 0 1 .411.672l-7.166 4.627 6.756-3.9a.394.394 0 0 1 .405.675l-.53.33.126-.072a.394.394 0 0 1 .412.67l-7.87 5.114 7.46-4.307a.393.393 0 0 1 .412.67l-8.025 5.222 7.616-4.396a.395.395 0 0 1 .413.67l-8.57 5.603 8.158-4.71a.393.393 0 0 1 .41.673l-5.659 3.616 5.251-3.032a.394.394 0 0 1 .416.668L36.964 50.15l9.672-5.585a.394.394 0 0 1 .411.672l-5.603 3.62 5.194-3a.393.393 0 0 1 .419.666l-7.33 5.004 6.912-3.99a.393.393 0 0 1 .415.668l-3.441 2.289 3.028-1.749a.393.393 0 0 1 .428.659l-4.964 3.616 4.538-2.62a.393.393 0 0 1 .425.662l-2.116 1.504 1.691-.976a.39.39 0 0 1 .528.128c.114.176.07.41-.102.533l-.655.47.231-.133a.393.393 0 0 1 .44.65l-.907.71.469-.27a.393.393 0 0 1 .496.597l-1.115 1.31.62-.358a.394.394 0 0 1 .578.44l-.213.81a.392.392 0 0 1 .03.697l-.394.228a.393.393 0 0 1-.578-.44l.153-.581-1.776 1.024a.393.393 0 0 1-.497-.596l1.115-1.31-3.307 1.91a.393.393 0 0 1-.44-.65l.907-.712-2.363 1.364a.393.393 0 0 1-.426-.66l.654-.469-1.96 1.131a.394.394 0 0 1-.425-.661l2.115-1.504-3.754 2.168a.393.393 0 0 1-.428-.66l4.967-3.617-7.414 4.28a.393.393 0 0 1-.415-.668l3.436-2.285-5.118 2.955a.394.394 0 0 1-.419-.666L38 51.753l-9.822 5.67a.4.4 0 0 1-.197.053z"/><path fill="#00AF1A" d="M18.348 33.837a.394.394 0 0 1-.226-.716l2.674-1.871-4.391 2.535a.393.393 0 0 1-.434-.655l4.18-3.144-5.924 3.42a.393.393 0 0 1-.424-.662l2.395-1.692-2.006 1.158a.394.394 0 0 1-.44-.649l2.678-2.12-1.026.591a.393.393 0 0 1-.508-.581l1.617-2.089a.392.392 0 0 1-.012-.688l1.052-.607a.394.394 0 0 1 .509.582l-1.318 1.702 3.955-2.283a.393.393 0 0 1 .441.649l-2.679 2.12 4.798-2.77a.393.393 0 0 1 .424.662l-2.397 1.694 4.08-2.356a.393.393 0 0 1 .434.655l-4.18 3.144 6.582-3.799a.393.393 0 0 1 .423.663l-2.671 1.87 4.388-2.533a.393.393 0 0 1 .423.663l-3.877 2.717a.392.392 0 0 1 .08.717l-6.276 3.623a.393.393 0 0 1-.423-.663l2.693-1.887-4.417 2.55a.4.4 0 0 1-.197.053zM52.226 33.84a.394.394 0 0 1-.267-.683l2.604-2.398-4.105 2.37a.393.393 0 0 1-.451-.642l3.09-2.615-3.951 2.282a.394.394 0 0 1-.452-.64l3.069-2.618-3.886 2.243a.394.394 0 0 1-.452-.64l1.871-1.593-2.446 1.411a.39.39 0 0 1-.518-.114.39.39 0 0 1 .066-.526l.917-.782-1.302.751a.393.393 0 0 1-.526-.556l.992-1.518-1.777 1.026a.39.39 0 0 1-.413-.012.4.4 0 0 1-.174-.376l.125-1.071-.79.457a.39.39 0 0 1-.507-.097l-.463-.59a.394.394 0 0 1-.321-.715l.23-.13a.394.394 0 0 1 .505.098l.457.58 1.175-.678a.393.393 0 0 1 .588.388l-.126 1.071 2.527-1.459a.393.393 0 0 1 .526.556l-.992 1.519 3.592-2.075a.393.393 0 0 1 .452.64l-.917.783 2.464-1.423a.394.394 0 0 1 .452.64L51.22 28.3l3.872-2.235a.394.394 0 0 1 .452.64l-3.067 2.616 4.035-2.33a.394.394 0 0 1 .451.642l-3.092 2.615 3.37-1.946a.394.394 0 0 1 .464.63l-2.602 2.398 2.894-1.67a.393.393 0 0 1 .45.64l-.721.611.733-.422a.393.393 0 0 1 .463.63l-.22.204.168-.097a.393.393 0 0 1 .56.49l-.334.81.037-.021a.39.39 0 0 1 .538.144.39.39 0 0 1-.144.538l-1.038.599a.392.392 0 0 1-.56-.49l.334-.81-2.254 1.3a.39.39 0 0 1-.514-.107.395.395 0 0 1 .05-.523l.22-.202-1.443.833a.39.39 0 0 1-.519-.114.396.396 0 0 1 .068-.527l.722-.61-2.17 1.252a.4.4 0 0 1-.197.053"/><path fill="#50C861" d="M47.31 33.84a.395.395 0 0 1-.337-.595l.618-1.028-1.42.82a.392.392 0 0 1-.53-.551l.747-1.176-1.345.775a.393.393 0 0 1-.481-.613l.126-.13-.313.18a.394.394 0 0 1-.518-.568l.675-.957-1.165.673a.392.392 0 0 1-.53-.548l.741-1.198-1.355.781a.394.394 0 0 1-.534-.543l.747-1.24-1.382.798a.393.393 0 0 1-.489-.604l.293-.325-.538.31a.393.393 0 0 1-.503-.587l.502-.62-.85.49a.392.392 0 0 1-.479-.614l.055-.057-.22.127a.394.394 0 0 1-.517-.57l.64-.896-1.105.638a.39.39 0 0 1-.494-.082.395.395 0 0 1-.014-.5l.543-.697-.922.532a.393.393 0 1 1-.393-.681l2.673-1.543a.394.394 0 0 1 .508.582l-.543.695.928-.535a.394.394 0 0 1 .517.57l-.642.898 1.114-.642a.393.393 0 0 1 .48.615l-.052.052.222-.127a.394.394 0 0 1 .503.588l-.503.62.857-.494a.393.393 0 0 1 .489.604l-.293.324.543-.313a.394.394 0 0 1 .534.543l-.748 1.241 1.391-.803a.39.39 0 0 1 .48.067c.125.13.147.328.05.481l-.742 1.198 1.363-.786a.392.392 0 0 1 .518.567l-.675.957 1.173-.677a.394.394 0 0 1 .481.613l-.127.133.32-.185a.39.39 0 0 1 .481.069c.126.13.146.33.048.482l-.745 1.176 1.352-.78a.393.393 0 0 1 .534.543l-.619 1.027 1.165-.671a.394.394 0 0 1 .583.262l.18.894.369-.213a.393.393 0 1 1 .393.681l-.842.488a.394.394 0 0 1-.583-.262l-.18-.896-2.01 1.16a.4.4 0 0 1-.198.054"/><path fill="#50C861" d="M23.062 33.836a.394.394 0 0 1-.222-.719l7.01-4.784-4.53 2.615a.394.394 0 0 1-.419-.666l5.317-3.631a.395.395 0 0 1-.13-.694l4.023-3.027a.394.394 0 0 1 .177-.466l1.922-1.11a.393.393 0 0 1 .434.655l-.91.684 1.8-1.038a.393.393 0 0 1 .42.666l-4.018 2.743 4.564-2.635a.394.394 0 0 1 .419.666l-7.006 4.782 1.373-.793a.393.393 0 0 1 .437.652L28.3 31.897l.003.006a.39.39 0 0 1-.144.538l-2.323 1.341a.393.393 0 0 1-.437-.652l3.073-2.357-5.213 3.01a.4.4 0 0 1-.197.052"/><path fill="#9BC8A2" d="M20.568 40.134a.394.394 0 0 1-.316-.627l1.167-1.585-1.9 1.098a.393.393 0 0 1-.57-.463l.372-1.138a.392.392 0 0 1-.196-.734l.67-.387a.394.394 0 0 1 .57.463l-.347 1.063 2.64-1.524a.393.393 0 0 1 .513.574l-1.167 1.584 1.01-.583a.393.393 0 0 1 .557.5l-.262.599a.395.395 0 0 1 .1.723l-.67.385a.394.394 0 0 1-.557-.5l.187-.425-1.603.925a.4.4 0 0 1-.197.053M22.32 46.431a.392.392 0 0 1-.366-.54l.47-1.176-2.754 1.59a.395.395 0 0 1-.503-.091.395.395 0 0 1 .013-.511l1.068-1.191-.729.42a.395.395 0 0 1-.562-.489l.296-.732a.392.392 0 0 1-.128-.728l.67-.387a.393.393 0 0 1 .562.488l-.24.594 1.874-1.082a.394.394 0 0 1 .49.603l-1.067 1.19 1.6-.924a.393.393 0 0 1 .563.487l-.476 1.193a.393.393 0 0 1 .308.718l-.892.515a.4.4 0 0 1-.197.053M21.73 52.731a.393.393 0 0 1-.329-.61l.568-.864-2.313 1.336a.395.395 0 0 1-.46-.634l.549-.492-.226.13a.393.393 0 0 1-.57-.464l.37-1.117a.394.394 0 0 1-.194-.734l.67-.387a.393.393 0 0 1 .57.465l-.344 1.038 2.605-1.504a.393.393 0 0 1 .46.634l-.548.492.476-.275a.393.393 0 0 1 .526.556l-.57.867.045-.026a.393.393 0 1 1 .394.682l-1.481.855a.4.4 0 0 1-.198.052"/><path fill="#fff" d="M37.713 40a.392.392 0 0 1-.288-.662l1.72-1.837-3.958 2.284a.394.394 0 0 1-.455-.638l3.134-2.725-4.212 2.431a.393.393 0 0 1-.43-.656l1.89-1.404-2.17 1.253a.393.393 0 0 1-.424-.662l.783-.556-.786.454a.393.393 0 0 1-.439-.651l2.68-2.084-2.594 1.497a.393.393 0 0 1-.427-.66l.455-.328-.065.037a.395.395 0 0 1-.438-.653l.926-.712-.25.145a.393.393 0 0 1-.462-.631l1.166-1.065a.394.394 0 0 1-.057-.71l2.311-1.334a.394.394 0 0 1 .462.632l-.669.61 2.224-1.284a.393.393 0 0 1 .523.122.395.395 0 0 1-.086.531l-.922.71 1.658-.958a.393.393 0 0 1 .428.66l-.461.333.837-.484a.393.393 0 0 1 .439.651l-2.677 2.083 3.132-1.808a.393.393 0 0 1 .424.662l-.78.553.804-.464a.393.393 0 0 1 .431.657l-1.897 1.408L41.01 33.7a.394.394 0 0 1 .455.638l-3.133 2.725 2.716-1.569a.393.393 0 0 1 .485.61l-1.72 1.835.013-.007a.39.39 0 0 1 .538.145c.11.188.045.429-.144.537l-2.31 1.335a.4.4 0 0 1-.197.052"/><path fill="#9BC8A2" d="M31.989 57.476a.394.394 0 0 1-.236-.71l4.794-3.582-5.22 3.013a.394.394 0 0 1-.43-.658l5.133-3.759-4.703 2.715a.393.393 0 0 1-.416-.668l1.197-.803-.78.45a.394.394 0 0 1-.417-.667l.332-.225a.393.393 0 0 1-.34-.698l.932-.668-.507.292a.394.394 0 0 1-.458-.635l1.95-1.73-1.492.861a.393.393 0 0 1-.477-.617l.706-.712-.23.132a.395.395 0 0 1-.579-.435l.226-.912a.394.394 0 0 1-.04-.703l.395-.227a.4.4 0 0 1 .434.026.4.4 0 0 1 .145.41l-.173.697 1.971-1.137a.394.394 0 0 1 .478.617l-.706.712 2.31-1.334a.393.393 0 0 1 .459.635l-1.95 1.73 4.105-2.37a.39.39 0 0 1 .528.127c.114.176.07.41-.102.533l-.939.673 2.317-1.337a.394.394 0 0 1 .417.667l-.2.135 1.396-.806a.394.394 0 0 1 .416.668l-1.197.804.872-.504a.394.394 0 0 1 .43.658l-5.132 3.757 4.706-2.715a.394.394 0 0 1 .433.655l-4.793 3.582 4.364-2.519a.394.394 0 0 1 .437.653l-2.868 2.204 2.435-1.405a.394.394 0 0 1 .436.653l-.9.688.467-.27a.393.393 0 0 1 .49.602l-1.322 1.484.835-.48a.4.4 0 0 1 .432.023.4.4 0 0 1 .149.405l-.235 1.016a.393.393 0 0 1 .05.706l-.394.228a.4.4 0 0 1-.431-.024.4.4 0 0 1-.15-.406l.189-.814-2.166 1.249a.394.394 0 0 1-.491-.602l1.32-1.483-3.622 2.091a.394.394 0 0 1-.436-.653l.898-.686-2.328 1.344a.394.394 0 0 1-.437-.653l2.868-2.204-4.958 2.862a.4.4 0 0 1-.197.054"/><path fill="#D3D3D3" d="M36.941 48.007a.393.393 0 0 1-.249-.698l.033-.027-1.165.672a.393.393 0 0 1-.513-.575l1.17-1.58-3.733 2.154a.393.393 0 0 1-.48-.613l1.058-1.102-2.856 1.648a.393.393 0 0 1-.475-.619l.92-.92-.898.519a.393.393 0 0 1-.553-.51l.44-.925a.392.392 0 0 1-.238-.732l.914-.528a.393.393 0 0 1 .552.51l-.414.871 2.393-1.382a.393.393 0 0 1 .475.62l-.92.919 2.666-1.539a.394.394 0 0 1 .481.613l-1.059 1.103 2.974-1.716a.393.393 0 0 1 .512.575l-1.168 1.58 3.732-2.155a.393.393 0 0 1 .445.645l-.032.028 1.165-.673a.392.392 0 0 1 .491.602l-1.139 1.28 2.007-1.158a.394.394 0 0 1 .506.584l-.605.766.104-.06a.39.39 0 0 1 .538.145.39.39 0 0 1-.144.538l-1.883 1.086a.394.394 0 0 1-.506-.584l.606-.766-2.34 1.35a.393.393 0 0 1-.491-.601L40.4 46.07l-3.263 1.883a.4.4 0 0 1-.197.053"/><path fill="#223925" d="M45.998 59.817a.393.393 0 0 1-.25-.698l.035-.028-1.166.672a.393.393 0 0 1-.471-.622l.93-.906-2.648 1.528a.394.394 0 0 1-.458-.635l.592-.525-2.011 1.16a.394.394 0 0 1-.48-.614l1.043-1.075-2.929 1.69a.393.393 0 0 1-.479-.616l1.033-1.058-2.9 1.673a.39.39 0 0 1-.514-.107.396.396 0 0 1 .051-.524l.732-.67-2.253 1.3a.393.393 0 0 1-.467-.626l.839-.792-2.458 1.419a.393.393 0 0 1-.468-.626l.862-.819-2.503 1.445a.393.393 0 0 1-.471-.622l.935-.913-2.66 1.535a.394.394 0 0 1-.494-.599l1.153-1.324-3.331 1.923a.39.39 0 0 1-.494-.082.395.395 0 0 1-.014-.5l1.176-1.512-3.626 2.094a.394.394 0 0 1-.49-.603l1.135-1.268-3.243 1.871a.393.393 0 0 1-.468-.625l.886-.85-2.555 1.475a.39.39 0 0 1-.52-.115.395.395 0 0 1 .073-.529l.138-.114-1.314.758a.393.393 0 0 1-.51-.578l1.173-1.552-2.132 1.23a.393.393 0 0 1-.558-.498l.492-1.133a.39.39 0 0 1-.43-.187.39.39 0 0 1 .144-.538l.914-.527a.393.393 0 0 1 .558.498l-.481 1.107 2.781-1.605a.394.394 0 0 1 .51.579l-1.173 1.552 3.691-2.13a.39.39 0 0 1 .52.115.395.395 0 0 1-.073.529l-.137.113 1.313-.757a.393.393 0 0 1 .468.625l-.887.85 2.557-1.475a.392.392 0 0 1 .49.602l-1.134 1.268 3.24-1.871a.395.395 0 0 1 .508.583l-1.176 1.51 3.626-2.093a.394.394 0 0 1 .494.598l-1.153 1.324 3.332-1.922a.393.393 0 0 1 .471.622l-.935.913 2.661-1.535a.393.393 0 0 1 .468.626l-.862.819 2.503-1.445a.392.392 0 0 1 .466.627l-.838.791 2.457-1.418a.393.393 0 0 1 .463.631l-.732.67 2.254-1.3a.393.393 0 0 1 .479.615l-1.033 1.058 2.9-1.673a.393.393 0 0 1 .48.614l-1.043 1.075 2.929-1.69a.393.393 0 0 1 .458.636l-.591.524 2.009-1.16a.393.393 0 0 1 .47.623l-.93.906 2.649-1.528a.393.393 0 0 1 .446.645l-.034.027 1.166-.672a.393.393 0 0 1 .482.611l-1.07 1.126 3.01-1.737a.393.393 0 0 1 .454.639l-.44.38 1.765-1.02a.392.392 0 0 1 .503.588l-1.175 1.454 3.537-2.042a.394.394 0 0 1 .47.623l-.915.887 1.419-.819a.393.393 0 0 1 .526.557l-.673 1.026.155-.089a.39.39 0 0 1 .538.144.39.39 0 0 1-.144.538l-1.589.917a.394.394 0 0 1-.526-.557l.673-1.027-2.743 1.584a.393.393 0 0 1-.47-.623l.915-.886-2.615 1.51a.394.394 0 0 1-.504-.589l1.176-1.454-3.536 2.042a.393.393 0 0 1-.455-.639l.443-.381-1.768 1.02a.394.394 0 0 1-.483-.611l1.07-1.126-3.01 1.737a.4.4 0 0 1-.196.053"/><path fill="#0F1D11" d="M15.482 59.841c14.373-.066 28.756.126 43.125 0 2.403-.416 1.769-4.802-.941-3.949v-22.07c4.723.088.578-4.603-.354-6.654-2.257-2.636-10.227-.496-13.864-1.144-2.091-1.442-3.832-3.888-6.257-4.655V18.93c1.935-.244 6.039 1.053 5.519-2.19.798-3.66-3.269-2.401-5.519-2.593.303-.822-.843-.825-1.14-.211v7.535c-2.429.89-4.1 3.158-6.087 4.59-4.408.558-9.874-1.2-13.76.83-.87 2.056-5.526 7.179-.621 6.894v22.083c-3.235-.673-3.454 4.751-.101 3.97zm32.07-3.943h-.125V33.82c3.03.013 6.054-.009 9.085.003v22.076h-8.96M30.19 44.869c4.137-.014 8.357.01 12.522 0 .78.225.35 1.83.4 2.386-4.147-.02-8.398.04-12.55 0-.767-.205-.465-1.869-.371-2.385zm1.49 3.688v-.537c1.456-.004 2.914 0 4.37-.002v7.881h-4.37zm5.51 0v-.538c1.474.016 2.89-.041 4.37.04v7.84h-4.37zm5.511 0v-.505c1.247-.034 1.708-1.012 1.58-2.113.143-3.416-5.55-1.266-7.736-1.834-2.252.55-7.504-1.579-7.585 1.872-.17 1.113.245 2.227 1.58 2.083v7.84h-3.583V33.43c3.23-2.612 6.362-5.378 9.555-8.041 3.266 2.72 6.477 5.558 9.769 8.23v22.28H42.7zm11.426-21.819c1.522-.45 2.333.855 2.799 2.098.555 1.319 1.792 2.518 1.916 3.94-.133.45-.45.334-.827.334-1.998-.03-4.044.018-6.065 0l-7.646-6.371zM40.724 14.995h.519c.679.589.163 1.904.31 2.753-.822.866-3.064.08-4.361.336v-3.09zm-6.447 8.444c.988-.824 1.892-1.96 3.242-1.023L50.377 33.13c-1.052-.002-2.069.013-3.124-.023-13.172-10.8-7.89-10.819-21.052.023h-3.554q5.816-4.846 11.63-9.692M14.45 31.965c.94-1.754 1.928-3.624 3.011-5.267 3.888-.011 7.833.008 11.74 0l-7.74 6.45c-1.412-.401-7.687 1.082-7.01-1.183zm6.879 1.818c1.49.032 2.996.03 4.487 0v22.116c-3.035.014-6.053-.011-9.093-.05V33.793c1.535.003 3.071-.009 4.606-.01m-6.714 22.909c14.62.009 29.364-.014 43.974 0 .334.151.517 2.293.13 2.356H15.594c-.894 0-1.227.125-1.227-1.032 0-.37-.146-1.155.248-1.324"/><path fill="#0F1D11" d="M22.52 36.88c-.01-.01-.022-.008-.036-.007q-.001.006.037.008"/><path fill="#0F1D11" d="M18.733 39.224c.151 1.575 2.993.543 4.156.758 1.37-.093 1.11-2.761.646-3.54-2.659-.065-5.496-1.067-4.802 2.782m3.126-2.351h.626c.032-.004.084.004.12 0-.04.008-.064.008-.084.008.376.728.039 1.785.148 2.624-2.928.029-2.953.478-2.796-2.632zM19.737 46.493c1.365-.208 4.378.803 4.08-1.477-.126-.784.36-1.959-.447-2.444-1.356.064-4.051-.82-4.647.773.176 1.03-.627 3.2 1.014 3.148m.143-.854c.008.075.043-.025 0 0m2.778-2.301c-.025-.003-.005-.032 0 0m-.641.006h.641c0 .005.003.005.001.014.002.718 0 1.524 0 2.271h-2.78c0-.008-.003-.008-.003-.018-.001-.675.008-1.53.005-2.267h2.1359999999999997M23.44 48.92c-3.355-.322-5.537-.776-4.608 3.492 1.049.78 2.697.164 3.958.351 1.491-.008 1.288-3.088.65-3.843m-.681.693c.077 0 .002.011-.08 0zm-.13-.007c-.026-.005-.043-.012-.027-.02.01-.006.018.008.028.02m-2.878 2.35c.032 0 .067-.005.098 0-.03-.002-.067.006-.098 0m.157 0-.029-.04c-.027-.742.025-1.541.006-2.303h2.755c.062.77.002 1.565.022 2.343zM53.235 36.89c-.014-.013-.028-.011-.044-.011q-.01.01.044.011"/><path fill="#0F1D11" d="M49.433 39.225c.151 1.583 2.998.552 4.165.764 1.35-.09 1.128-2.827.61-3.562-2.674-.04-5.46-1.06-4.775 2.798m3.128-2.345h.627c.033-.005.084.004.12 0-.037.01-.057.01-.076.01.352.735.034 1.773.137 2.61-2.914.022-2.956.493-2.797-2.62zM54.142 42.622c-3.353-.32-5.536-.777-4.607 3.491 1.05.78 2.697.164 3.957.35 1.492-.007 1.29-3.086.65-3.841m-.68.693c.076-.001 0 .01-.081 0zm-.13-.008c-.027-.005-.043-.011-.028-.02.01-.005.019.009.027.02m-2.879 2.352c.032 0 .067-.005.099 0-.031-.002-.068.006-.099 0m.157 0-.029-.04c-.027-.743.026-1.542.006-2.305h2.755c.063.77.002 1.566.022 2.344zM54.15 48.952c-3.279-.187-5.441-.903-4.663 3.366.982.865 2.737.189 3.988.385 1.491.026 1.307-3.017.674-3.751m-3.974.606c-.03.002-.02 0 0 0m.511 2.453h-.046c-.038-.037-.045-.095-.064-.145-.036-.584.001-1.586-.002-2.308h2.728c.039.027.046.102.065.144v2.31c-.894.002-1.788-.003-2.681 0M38.413 30.242c-8.451-2.272-9.676 11.205-.753 9.691 5.005-.814 5.774-8.276.753-9.69m-.423 9.028c-6.583 1.886-7.472-9.873-.569-8.513 4.019.92 4.537 7.155.569 8.513"/><path fill="#0F1D11" d="M37.198 34.792c0-.727.235-2.253-.947-1.56-.365.474-.29 1.593-.073 2.124.69.754 2.481.026 1.02-.564"/></g><defs><clipPath id="a"><path fill="#fff" d="M13 13h47.234v47.234H13z"/></clipPath></defs></svg>