<svg width="74" height="74" viewBox="0 0 74 74" fill="none" xmlns="http://www.w3.org/2000/svg">
<circle cx="37" cy="37" r="37" fill="url(#paint0_linear_670_6835)"/>
<g clip-path="url(#clip0_670_6835)">
<path d="M36.9194 19.4279C36.7942 19.4279 36.6714 19.3681 36.595 19.2571C36.4793 19.0879 36.5124 18.858 36.6714 18.7281L37.4389 18.1062L36.5777 18.6029C36.4085 18.7029 36.1904 18.6596 36.0692 18.5022C35.9495 18.3463 35.9629 18.1251 36.1022 17.9849L37.139 16.9403L36.5777 17.2638C36.4447 17.3426 36.2738 17.3339 36.1487 17.241C36.0227 17.1497 35.9629 16.9922 35.9967 16.8395L36.2423 15.7201C36.1605 15.6886 36.0881 15.6303 36.04 15.5484C35.9314 15.3603 35.9959 15.1194 36.1849 15.01L36.5785 14.7833C36.7147 14.7061 36.8832 14.7148 37.0075 14.8069C37.1335 14.899 37.1933 15.0556 37.1595 15.2084L36.9564 16.1365L39.2992 14.784C39.4692 14.6849 39.6873 14.7282 39.8077 14.8848C39.9274 15.0407 39.914 15.2619 39.7747 15.402L38.7371 16.4475L41.346 14.9415C41.5223 14.8368 41.7506 14.8895 41.8671 15.0588C41.9829 15.228 41.9498 15.4579 41.7908 15.5878L41.0248 16.2089L41.6467 15.85C41.8175 15.75 42.0411 15.7956 42.1592 15.9562C42.2781 16.1168 42.2584 16.3412 42.112 16.4782L41.5924 16.9631L41.6459 16.9324C41.7986 16.8427 41.9915 16.8679 42.1183 16.9914C42.245 17.115 42.2726 17.3071 42.1883 17.4622L41.8412 18.0952C41.9624 18.1077 42.0773 18.1762 42.1427 18.2896C42.2521 18.4777 42.1875 18.7186 41.9986 18.8273L41.0838 19.3555C40.9311 19.4453 40.7382 19.4193 40.6115 19.2965C40.4855 19.1729 40.4572 18.9808 40.5414 18.8257L40.8201 18.3179L39.0063 19.365C38.8347 19.4657 38.6119 19.4193 38.4938 19.2587C38.375 19.0981 38.3946 18.8737 38.5411 18.7367L39.0599 18.2526L37.1162 19.3744C37.0548 19.4106 36.9863 19.4279 36.9194 19.4279Z" fill="#2381D9"/>
<path d="M46.7819 58.0049C46.652 58.0049 46.5253 57.9404 46.4505 57.8239C46.3363 57.6467 46.3828 57.4121 46.5544 57.2901L49.6065 55.1323L46.0262 57.1988C45.8459 57.3043 45.6129 57.2476 45.4987 57.0721C45.3846 56.8965 45.4287 56.6619 45.5995 56.5391L50.2843 53.1595L46.0262 55.618C45.8412 55.7251 45.6074 55.6661 45.4948 55.4858C45.3822 55.3055 45.4334 55.0693 45.6097 54.9505L46.9055 54.0814L46.0254 54.5891C45.8404 54.6962 45.6066 54.6371 45.494 54.4561C45.3814 54.275 45.4334 54.0388 45.6097 53.9208L46.3466 53.4303L46.0254 53.6153C45.8404 53.7224 45.6066 53.6633 45.494 53.4823C45.3814 53.302 45.4334 53.0658 45.6089 52.9469L46.6678 52.24L46.0254 52.6108C45.8451 52.7163 45.6113 52.6596 45.4972 52.4833C45.383 52.3061 45.4294 52.0715 45.6003 51.9495L49.7892 48.9714L46.0254 51.145C45.8459 51.252 45.6144 51.1954 45.4987 51.0198C45.3846 50.8442 45.4271 50.6104 45.5956 50.4868L50.733 46.7239L46.0254 49.4422C45.8451 49.5477 45.6121 49.491 45.4979 49.3154C45.3838 49.1399 45.4279 48.9053 45.5979 48.7825L50.3859 45.3179L46.0254 47.8347C45.8404 47.9409 45.6058 47.8835 45.494 47.7008C45.3814 47.5205 45.4342 47.2836 45.6113 47.1655L45.9356 46.9514C45.7735 46.997 45.5908 46.9348 45.4956 46.7829C45.3822 46.605 45.4302 46.3696 45.6034 46.2484L48.8358 44.0032L46.0246 45.6265C45.8443 45.7327 45.6105 45.6753 45.4964 45.4989C45.3822 45.3218 45.4287 45.0872 45.5995 44.9652L49.7892 41.9863L46.0246 44.1598C45.8396 44.2669 45.6058 44.2079 45.4932 44.0268C45.3806 43.8457 45.4326 43.6096 45.6089 43.4915L46.4159 42.953L46.0238 43.179C45.8427 43.2852 45.6082 43.2278 45.4948 43.0491C45.3814 42.8711 45.4287 42.6358 45.6026 42.5153L48.8807 40.2355L46.0238 41.8847C45.8435 41.9902 45.6097 41.9343 45.4956 41.7572C45.3822 41.5801 45.4271 41.3455 45.5987 41.2235L49.823 38.217L46.0238 40.4102C45.8443 40.5165 45.6129 40.4598 45.4979 40.2859C45.383 40.1119 45.4247 39.8781 45.5916 39.7537L50.43 36.156L46.0238 38.6988C45.8443 38.8051 45.6121 38.7484 45.4979 38.5736C45.383 38.3989 45.4255 38.1651 45.5932 38.0415L47.9549 36.3017L46.0238 37.4164C45.8467 37.5203 45.6207 37.4684 45.5042 37.3015C45.3877 37.1346 45.4184 36.9047 45.5751 36.774L47.6266 35.0626L46.0238 35.9876C45.8577 36.0844 45.6444 36.045 45.5216 35.8962C45.3995 35.7467 45.4043 35.5302 45.5326 35.3861L46.7662 33.9967L46.0238 34.4249C45.8868 34.5044 45.7184 34.495 45.5908 34.3997C45.4649 34.306 45.4074 34.1454 45.4436 33.9919L45.6743 33.0354C45.5971 33.0032 45.5302 32.9473 45.4853 32.8693C45.3767 32.6804 45.4413 32.4395 45.6302 32.3309L46.0254 32.1034C46.1632 32.027 46.3316 32.0357 46.4584 32.1293C46.5843 32.2238 46.6418 32.3836 46.6056 32.5371L46.4253 33.2842L48.4792 32.0986C48.6445 32.001 48.8586 32.0412 48.9814 32.19C49.1035 32.3395 49.0987 32.556 48.9704 32.7001L47.7368 34.0895L51.1975 32.0923C51.3739 31.9892 51.6006 32.0396 51.7171 32.2073C51.8336 32.375 51.8029 32.604 51.6462 32.7347L49.5947 34.4462L53.682 32.0868C53.8623 31.9821 54.0945 32.0372 54.2079 32.212C54.3228 32.3868 54.2803 32.6206 54.1126 32.7442L51.7517 34.4832L55.9107 32.0821C56.091 31.9774 56.3216 32.0333 56.4366 32.2065C56.5515 32.3797 56.5098 32.6143 56.3429 32.7387L51.5061 36.3355L56.6066 33.3913C56.7869 33.2842 57.0199 33.3417 57.1348 33.5188C57.2482 33.6959 57.2033 33.9305 57.0317 34.0525L52.8066 37.0598L56.6082 34.865C56.7892 34.7587 57.0238 34.8154 57.1372 34.9949C57.2506 35.1728 57.2033 35.4082 57.0293 35.5286L53.7537 37.8069L56.609 36.1584C56.7924 36.0505 57.027 36.1096 57.1403 36.2914C57.2529 36.4717 57.201 36.7087 57.0246 36.8268L56.213 37.3684L56.6105 37.1393C56.7908 37.0322 57.0238 37.0905 57.1388 37.2668C57.2529 37.444 57.2065 37.6785 57.0356 37.8006L52.8452 40.7803L56.6121 38.6051C56.7924 38.4988 57.0278 38.5555 57.1411 38.735C57.2545 38.9129 57.2065 39.1483 57.0333 39.2695L53.8001 41.5155L56.6137 39.8915C56.7979 39.7836 57.0333 39.8427 57.1451 40.0253C57.2576 40.2056 57.2049 40.4425 57.0278 40.5606L56.7026 40.7755C56.864 40.7267 57.0459 40.7913 57.1427 40.9401C57.2569 41.1156 57.2128 41.3502 57.0427 41.473L52.2571 44.9361L56.6168 42.4193C56.7971 42.3138 57.0286 42.3705 57.1435 42.5444C57.2576 42.72 57.2151 42.9538 57.0467 43.0774L51.9084 46.8404L56.6184 44.1213C56.7987 44.0142 57.0317 44.0725 57.1466 44.2488C57.2608 44.4259 57.2143 44.6605 57.0435 44.7825L52.8539 47.7607L56.62 45.5863C56.8034 45.4777 57.038 45.5383 57.1514 45.7194C57.2639 45.8996 57.212 46.1358 57.0364 46.2547L55.9737 46.9648L56.6208 46.5908C56.8042 46.483 57.0388 46.542 57.1521 46.7239C57.2647 46.9041 57.2128 47.1411 57.0364 47.2592L56.3035 47.7473L56.6216 47.5638C56.8058 47.456 57.0404 47.5158 57.1529 47.6961C57.2655 47.8764 57.2143 48.1125 57.038 48.2314L55.7454 49.0997L56.6223 48.5928C56.8018 48.4857 57.0349 48.544 57.1498 48.7195C57.2639 48.8958 57.2199 49.1297 57.049 49.2525L52.3634 52.6321L56.6239 50.1727C56.805 50.0665 57.0388 50.1239 57.1521 50.3011C57.2663 50.4782 57.2199 50.7128 57.0482 50.8348L53.9922 52.9958L56.6255 51.4756C56.8026 51.3701 57.0317 51.4244 57.1474 51.5945C57.2632 51.7645 57.2285 51.996 57.0671 52.1243L53.9339 54.6159L56.6271 53.0611C56.8018 52.958 57.0262 53.0084 57.1443 53.1729C57.2616 53.3382 57.2348 53.5657 57.0821 53.6988L55.3273 55.2276L56.6286 54.4765C56.7916 54.3813 56.9994 54.4175 57.1222 54.5584C57.2458 54.7009 57.2521 54.9095 57.1372 55.0591L56.2114 56.2525L56.6294 56.0117C56.7703 55.9298 56.9459 55.944 57.0726 56.0455C57.1994 56.1478 57.2506 56.3171 57.201 56.4714L57.0254 57.024C57.0829 57.0571 57.1325 57.1059 57.1687 57.1673C57.2773 57.3562 57.2128 57.5971 57.0238 57.7058L56.6286 57.9333C56.4869 58.0136 56.3114 58.001 56.1854 57.8987C56.0587 57.7963 56.0075 57.6271 56.0571 57.4728L56.1429 57.2012L54.8692 57.9364C54.7078 58.0317 54.4992 57.9963 54.3756 57.8546C54.252 57.7121 54.2457 57.5035 54.3606 57.3539L55.2864 56.1604L52.1997 57.942C52.0273 58.0443 51.8013 57.9963 51.6824 57.8302C51.5652 57.6648 51.5919 57.4373 51.7446 57.3043L53.4994 55.7755L49.7372 57.9475C49.5593 58.0514 49.3294 57.9978 49.2153 57.8286C49.0995 57.6585 49.1342 57.4271 49.2956 57.2988L52.4287 54.8072L46.9787 57.953C46.9165 57.9892 46.8488 58.0049 46.7819 58.0049Z" fill="white"/>
<path d="M51.9784 40.6624C51.8721 40.6624 51.7666 40.6191 51.6902 40.5372C51.5659 40.4026 51.5493 40.1995 51.6525 40.0476L52.3618 39.0037L49.9859 40.3743C49.8174 40.4735 49.5986 40.4302 49.4773 40.2735C49.3577 40.1177 49.3711 39.8964 49.5104 39.7563L50.2717 38.9919L49.9599 39.1722C49.8143 39.2556 49.6324 39.2399 49.5049 39.1289C49.3789 39.0187 49.3348 38.8408 49.3978 38.6849L49.6962 37.9433C49.5844 37.9244 49.4828 37.8575 49.4214 37.752C49.312 37.5639 49.3766 37.323 49.5655 37.2143L50.2354 36.8278C50.3811 36.7444 50.5629 36.7617 50.6905 36.8711C50.8164 36.9813 50.8605 37.1592 50.7975 37.3151L50.5535 37.9213L52.4484 36.827C52.6184 36.7278 52.8365 36.7711 52.9569 36.9278C53.0766 37.0837 53.0632 37.3049 52.9238 37.445L52.1618 38.2102L53.4544 37.4647C53.6111 37.3718 53.8134 37.4025 53.9394 37.5371C54.0638 37.6717 54.0803 37.8748 53.9772 38.0268L53.2671 39.0722L53.4552 38.9636C53.6434 38.8526 53.8843 38.9187 53.9929 39.1076C54.1023 39.2958 54.0378 39.5367 53.8488 39.6453L52.1752 40.6112C52.1138 40.6475 52.0461 40.664 51.9784 40.664V40.6624Z" fill="#231F20"/>
<path d="M50.7501 46.9603C50.6312 46.9603 50.5131 46.9059 50.4368 46.8044C50.3171 46.6469 50.3337 46.4242 50.4754 46.2856L51.1232 45.6519L49.9589 46.3242C49.7905 46.4249 49.5716 46.3809 49.4504 46.2242C49.3299 46.0683 49.3425 45.8471 49.4811 45.7078L49.9251 45.2575C49.7818 45.322 49.6133 45.2976 49.4953 45.189C49.3685 45.0733 49.3323 44.8883 49.4047 44.7332L49.6409 44.227C49.5511 44.1979 49.4708 44.1372 49.4205 44.0483C49.311 43.8601 49.3756 43.6192 49.5645 43.5106L50.2345 43.1241C50.3833 43.0391 50.5698 43.0579 50.6974 43.1745C50.8241 43.2902 50.8603 43.4752 50.7879 43.6303L50.647 43.9326L52.049 43.1233C52.2191 43.0249 52.4364 43.0666 52.5576 43.2233C52.678 43.3791 52.6654 43.6004 52.5269 43.7397L52.0868 44.1861L53.4393 43.4051C53.6085 43.3044 53.829 43.3492 53.9494 43.5082C54.0691 43.6657 54.0525 43.8885 53.9108 44.027L53.263 44.6608L53.4535 44.5505C53.5991 44.4671 53.781 44.4836 53.9077 44.5938C54.0344 44.7041 54.0777 44.8812 54.0155 45.0371L53.7148 45.7912C53.8274 45.8093 53.9305 45.8762 53.9927 45.9825C54.1014 46.1707 54.0368 46.4116 53.8479 46.521L53.1779 46.9067C53.0323 46.9886 52.8504 46.9736 52.7237 46.8626C52.597 46.7524 52.5537 46.5753 52.6158 46.4194L52.8622 45.7999L50.9453 46.9067C50.8839 46.9429 50.8162 46.9595 50.7485 46.9595L50.7501 46.9603Z" fill="#231F20"/>
<path d="M51.6889 53.2602C51.5739 53.2602 51.459 53.2098 51.3818 53.1129C51.2606 52.9618 51.2669 52.7445 51.3984 52.6012L51.6534 52.3218L50.1797 53.172C50.0191 53.2665 49.8137 53.2334 49.6893 53.0933C49.5657 52.9547 49.5555 52.7485 49.6665 52.5981L50.8079 51.0457L49.9601 51.5353C49.8113 51.6211 49.6239 51.6015 49.4972 51.4849C49.3705 51.3692 49.3335 51.1842 49.4067 51.0283L49.6421 50.5261C49.5523 50.4978 49.4728 50.4363 49.4224 50.3482C49.313 50.16 49.3775 49.9191 49.5665 49.8105L50.2364 49.424C50.3852 49.3389 50.5718 49.3578 50.6993 49.4743C50.8261 49.5901 50.8631 49.7751 50.7898 49.9309L50.6513 50.2269L52.0439 49.4232C52.2045 49.3295 52.41 49.3626 52.5336 49.5011C52.6579 49.6405 52.6682 49.8467 52.5572 49.9971L51.4149 51.5503L53.4562 50.3726C53.6223 50.275 53.8372 50.3143 53.96 50.4663C54.0813 50.6174 54.075 50.8347 53.9435 50.978L53.6121 51.3417C53.7585 51.3236 53.9152 51.3968 53.9939 51.5361C54.1033 51.7243 54.0388 51.9652 53.8498 52.0738L51.8865 53.2066C51.8251 53.2428 51.7574 53.2594 51.6897 53.2594L51.6889 53.2602Z" fill="#231F20"/>
<path d="M16.3855 58.0049C16.2556 58.0049 16.1288 57.9404 16.054 57.8239C15.9399 57.6459 15.9863 57.4113 16.1587 57.2893L19.5297 54.9158L16.1115 56.8886C15.9304 56.9949 15.6966 56.9374 15.5833 56.7603C15.4691 56.5824 15.5156 56.3478 15.688 56.2258L19.5478 53.5059L16.1115 55.4905C15.9304 55.5968 15.6966 55.5393 15.5833 55.3622C15.4691 55.1843 15.5156 54.9497 15.688 54.8276L19.5163 52.1322L16.1115 54.0979C15.9304 54.2026 15.6982 54.1467 15.5841 53.9711C15.4699 53.7956 15.514 53.561 15.684 53.4382L20.4618 49.9814L16.1115 52.4927C15.9304 52.5974 15.6982 52.5415 15.5849 52.3667C15.4699 52.1912 15.514 51.9566 15.6833 51.8338L20.635 48.2306L16.1115 50.8419C15.9265 50.9482 15.6919 50.8899 15.5801 50.708C15.4676 50.5278 15.5203 50.29 15.6974 50.1727L16.0139 49.9625C15.8541 50.0074 15.6738 49.9413 15.5801 49.7909C15.4676 49.6114 15.5171 49.376 15.6927 49.2564L17.8773 47.7693L16.1107 48.7888C15.9281 48.8966 15.6951 48.8376 15.5809 48.6589C15.4676 48.4802 15.5164 48.2448 15.6903 48.1243L18.7243 46.0264L16.1115 47.5347C15.9328 47.641 15.6998 47.5843 15.5856 47.4095C15.4707 47.2348 15.5132 47.001 15.6809 46.8774L20.975 42.9774L16.1115 45.7847C15.9328 45.8918 15.6998 45.8351 15.5849 45.6595C15.4707 45.484 15.5132 45.2502 15.6825 45.1266L20.8066 41.3738L16.1115 44.0843C15.9328 44.1905 15.7006 44.1339 15.5856 43.9591C15.4707 43.7843 15.5124 43.5505 15.6809 43.4269L21.0026 39.5018L16.1115 42.3256C15.9328 42.4326 15.6998 42.376 15.5849 42.2004C15.4707 42.0249 15.5132 41.791 15.6817 41.6675L20.8286 37.8958L16.1115 40.6189C15.9304 40.7236 15.6982 40.6677 15.5849 40.4929C15.4699 40.3173 15.514 40.0827 15.6833 39.9599L20.4476 36.4945L16.1115 38.9979C15.9328 39.1042 15.7006 39.0475 15.5856 38.8736C15.4707 38.6996 15.5124 38.4658 15.6793 38.3414L18.6314 36.1442L16.1115 37.599C15.9312 37.7037 15.7014 37.6486 15.5864 37.4754C15.4715 37.3022 15.5116 37.0684 15.6777 36.944L16.9082 36.019L16.1107 36.4788C15.9415 36.5796 15.7242 36.5355 15.6022 36.3788C15.4817 36.2237 15.4943 36.0025 15.6329 35.8624L17.2467 34.2194L16.1107 34.8752C15.9423 34.9744 15.725 34.9319 15.6037 34.7768C15.4825 34.6225 15.4935 34.4021 15.6305 34.2612L15.884 33.999C15.8045 33.9927 15.7281 33.9628 15.6636 33.9108C15.5368 33.8069 15.488 33.6345 15.5408 33.4802L15.7029 33.0024C15.651 32.9693 15.6053 32.9229 15.5723 32.8662C15.4636 32.6772 15.5282 32.4363 15.7171 32.3277L16.1123 32.1002C16.2548 32.0199 16.4311 32.0325 16.5587 32.1372C16.6854 32.2419 16.7342 32.4135 16.6815 32.5678L16.6224 32.7434L17.7411 32.0978C17.9096 31.9994 18.126 32.0419 18.2481 32.1962C18.3701 32.3505 18.3583 32.571 18.2213 32.7119L18.1394 32.7961L19.3557 32.0939C19.5257 31.9947 19.743 32.0372 19.8643 32.1939C19.9847 32.349 19.9721 32.5702 19.8336 32.7103L18.2197 34.3525L22.1441 32.0876C22.3228 31.9813 22.5542 32.0372 22.6692 32.2112C22.7841 32.3852 22.744 32.6182 22.5779 32.7426L21.3506 33.6644L24.0901 32.0829C24.2704 31.9774 24.5011 32.0333 24.616 32.2073C24.7309 32.3812 24.6892 32.615 24.5223 32.7394L21.571 34.9366L26.5227 32.0774C26.7022 31.9711 26.9352 32.0286 27.0493 32.2033C27.1643 32.3789 27.1202 32.6135 26.9509 32.7363L22.1834 36.204L26.6919 33.6015C26.8722 33.4968 27.1044 33.5519 27.2186 33.7266C27.3327 33.9014 27.2902 34.136 27.1218 34.2596L21.9772 38.0296L26.6935 35.3066C26.8738 35.2011 27.106 35.257 27.2194 35.4318C27.3343 35.6065 27.2926 35.8403 27.1241 35.9639L21.8016 39.8899L26.6951 37.0645C26.8754 36.9598 27.1068 37.0149 27.2217 37.1897C27.3359 37.3652 27.2934 37.599 27.1241 37.7226L21.9992 41.4754L26.6967 38.7641C26.8769 38.6594 27.1092 38.7145 27.2225 38.8893C27.3375 39.0641 27.295 39.2979 27.1273 39.4215L21.8316 43.323L26.699 40.5134C26.884 40.4063 27.1147 40.4653 27.2288 40.6433C27.3422 40.822 27.2934 41.0573 27.1194 41.1778L24.0878 43.2742L26.699 41.7666C26.8832 41.6604 27.117 41.7178 27.2296 41.8981C27.3422 42.0776 27.2926 42.313 27.117 42.4326L24.9356 43.9182L26.6998 42.8995C26.884 42.7916 27.1186 42.8507 27.2312 43.0333C27.3438 43.2136 27.291 43.4513 27.1139 43.5686L26.7966 43.7796C26.9517 43.7347 27.1344 43.7985 27.2288 43.9449C27.3438 44.1205 27.2997 44.3551 27.1304 44.4779L22.1811 48.0787L26.7037 45.4682C26.8832 45.3619 27.1163 45.4186 27.2312 45.595C27.3453 45.7705 27.3013 46.0051 27.1312 46.1279L22.3527 49.5855L26.7053 47.0726C26.8864 46.9655 27.1202 47.0238 27.2336 47.2009C27.3477 47.3788 27.3013 47.6134 27.1289 47.7354L23.3021 50.4294L26.7061 48.4644C26.8872 48.3574 27.121 48.4156 27.2343 48.5927C27.3485 48.7707 27.302 49.0053 27.1296 49.1273L23.269 51.8472L26.7077 49.8626C26.8887 49.7563 27.1226 49.8137 27.2359 49.9909C27.3501 50.1688 27.3036 50.4034 27.1312 50.5254L23.7619 52.8989L26.7093 51.1969C26.8856 51.0922 27.1163 51.1457 27.2312 51.3158C27.3469 51.4866 27.3123 51.7173 27.1501 51.8456L23.6823 54.5986L26.7108 52.8501C26.888 52.7462 27.1147 52.7989 27.2312 52.9666C27.3477 53.1359 27.3154 53.3657 27.1564 53.4949L25.5237 54.83L26.7116 54.1443C26.8714 54.0499 27.0769 54.0829 27.2005 54.2215C27.3249 54.36 27.3359 54.5663 27.2265 54.7166L26.0566 56.3273L26.7132 55.9487C26.8541 55.8684 27.0289 55.8802 27.1548 55.9809C27.2816 56.0809 27.3343 56.2486 27.2871 56.4029L27.1013 57.0169C27.1627 57.0508 27.2162 57.1004 27.2532 57.1649C27.3619 57.3539 27.2973 57.5948 27.1084 57.7034L26.7132 57.9309C26.5731 58.0112 26.3983 58.0002 26.2716 57.8979C26.1448 57.7971 26.0921 57.6302 26.1393 57.4759L26.2448 57.1279L24.8467 57.9349C24.6869 58.0285 24.4814 57.997 24.3578 57.8577C24.2334 57.7192 24.2224 57.5129 24.3318 57.3625L25.5016 55.7519L21.7095 57.9404C21.5324 58.0451 21.3057 57.9915 21.1892 57.8239C21.0727 57.6546 21.1049 57.4247 21.264 57.2956L22.8967 55.9613L19.4573 57.9459C19.2786 58.049 19.0495 57.997 18.9353 57.827C18.8196 57.6562 18.8542 57.4255 19.0164 57.2972L22.4826 54.5458L16.5823 57.9522C16.5209 57.9884 16.4524 58.0049 16.3855 58.0049Z" fill="white"/>
<path d="M27.7266 58.0028C27.5943 58.0028 27.4644 57.9359 27.3904 57.8147C27.2786 57.6328 27.3337 57.3951 27.5124 57.2786L33.1246 53.6534L26.3418 57.5699C26.1576 57.6761 25.923 57.6179 25.8104 57.4368C25.6979 57.2557 25.7498 57.0196 25.9262 56.9015L36.0114 50.1935L26.341 55.7765C26.156 55.8852 25.9199 55.8238 25.8073 55.6403C25.6963 55.4577 25.7522 55.2192 25.9317 55.1042L31.5998 51.4822L26.3395 54.5185C26.1545 54.6264 25.9191 54.5666 25.8073 54.3839C25.6955 54.2029 25.749 53.9651 25.927 53.8478L34.4889 48.249L26.3387 52.9551C26.1537 53.0621 25.9183 53.0023 25.8065 52.8205C25.6939 52.6386 25.7483 52.4009 25.927 52.2844L33.9552 47.0611L26.3371 51.4586C26.1513 51.5664 25.9167 51.5066 25.8041 51.3239C25.6924 51.1421 25.7467 50.9043 25.9254 50.7878L33.7914 45.6771L26.3355 49.9817C26.1482 50.0896 25.9112 50.0274 25.801 49.8431C25.69 49.6597 25.7483 49.4204 25.9301 49.3063L26.4678 48.9717L26.3355 49.048C26.1505 49.1559 25.9144 49.0961 25.8026 48.9126C25.6908 48.7308 25.7459 48.493 25.9246 48.3765L33.0853 43.7515L26.3347 47.6491C26.1497 47.757 25.9144 47.6971 25.8018 47.5137C25.69 47.3319 25.7451 47.0941 25.9238 46.9776L33.3238 42.1889L26.334 46.2242C26.149 46.3313 25.9151 46.2723 25.8026 46.0912C25.69 45.9101 25.742 45.674 25.9183 45.5559L35.584 39.11L26.3324 44.4506C26.1466 44.5577 25.9136 44.4986 25.801 44.3176C25.6884 44.1365 25.7404 43.9003 25.9167 43.7822L34.3141 38.1897L26.3308 42.7982C26.1458 42.9053 25.9104 42.8462 25.7979 42.6628C25.6861 42.4809 25.7412 42.2432 25.9199 42.1267L30.6283 39.0809L26.3292 41.5622C26.1434 41.6709 25.9081 41.6087 25.7963 41.426C25.6845 41.2434 25.7396 41.0057 25.9191 40.8899L28.8515 39.0077L26.3292 40.464C26.1442 40.5711 25.9089 40.5121 25.7979 40.331C25.6853 40.1499 25.738 39.913 25.9144 39.7949L31.3179 36.2138L26.3277 39.0943C26.1419 39.2021 25.9073 39.1423 25.7947 38.9588C25.6829 38.7778 25.738 38.5393 25.9159 38.4227L28.3997 36.8129L26.3269 38.0094C26.1434 38.1173 25.9096 38.0583 25.7963 37.878C25.6837 37.6985 25.7333 37.4631 25.9089 37.3434L31.4234 33.5852L26.3261 36.5279C26.1411 36.6349 25.9057 36.5759 25.7931 36.3925C25.6813 36.2114 25.7364 35.9729 25.9151 35.8564L26.6559 35.3761L26.3253 35.5667C26.1427 35.6745 25.9089 35.6155 25.7955 35.4368C25.6821 35.2573 25.7309 35.0227 25.9049 34.9022L30.4118 31.7927L26.3253 34.152C26.1442 34.2575 25.912 34.2008 25.7986 34.026C25.6837 33.8505 25.7278 33.6159 25.897 33.4931L31.2085 29.6325L30.452 30.0686C30.2733 30.1725 30.0458 30.119 29.93 29.9505C29.8143 29.7805 29.8482 29.5498 30.0088 29.4215L35.1093 25.3263C35.0951 25.1783 35.1667 25.028 35.3045 24.9492L36.3098 24.369C36.4869 24.2643 36.7152 24.3179 36.8317 24.4871C36.9474 24.6572 36.9136 24.8878 36.753 25.0161L34.507 26.8189L37.3001 25.2067C37.4796 25.1004 37.7134 25.1579 37.8268 25.3326C37.9417 25.5082 37.8976 25.7428 37.7284 25.8656L32.4185 29.7254L38.4967 26.2167C38.6817 26.1104 38.9132 26.1687 39.0265 26.3466C39.1399 26.5261 39.0911 26.7607 38.9171 26.8811L34.4086 29.9923L39.491 27.0574C39.676 26.9496 39.9114 27.0094 40.024 27.1929C40.1357 27.3739 40.0806 27.6124 39.9019 27.729L39.1714 28.2029L40.1664 27.629C40.3507 27.5227 40.5845 27.5802 40.697 27.7604C40.8096 27.9399 40.76 28.1753 40.5845 28.295L35.0636 32.0572L41.2087 28.5099C41.3937 28.4028 41.6291 28.4619 41.7417 28.6453C41.8535 28.8264 41.7984 29.0649 41.6205 29.1814L39.1391 30.7897L41.9724 29.1546C42.1566 29.0468 42.392 29.1058 42.5037 29.2877C42.6163 29.4687 42.5636 29.7057 42.3872 29.8238L36.9876 33.4026L42.9359 29.9686C43.1217 29.86 43.3579 29.9214 43.4689 30.1048C43.5807 30.2867 43.5256 30.5252 43.3461 30.6409L40.4026 32.5303L43.709 30.6213C43.8948 30.5134 44.1294 30.5732 44.242 30.7567C44.3537 30.9385 44.2986 31.1763 44.1199 31.2928L39.417 34.3346L44.5773 31.3557C44.7607 31.2479 44.9953 31.3069 45.1087 31.4888C45.2213 31.6691 45.1693 31.906 44.993 32.0241L36.594 37.6174L45.7401 32.3374C45.9243 32.2296 46.1581 32.2886 46.2714 32.4705C46.384 32.6507 46.3321 32.8877 46.1557 33.0058L36.4916 39.4517L46.3643 33.7521C46.5493 33.6442 46.7839 33.7041 46.8973 33.8875C47.0091 34.0693 46.954 34.3071 46.7753 34.4236L39.3808 39.2076L46.3659 35.1754C46.5509 35.0676 46.7879 35.1274 46.8989 35.3108C47.0107 35.4927 46.9555 35.7304 46.7768 35.8469L39.6114 40.4743L46.3675 36.5743C46.5533 36.4657 46.7902 36.5279 46.902 36.7129C47.013 36.8963 46.9548 37.1356 46.7729 37.2498L46.2423 37.5796L46.3683 37.5072C46.5533 37.3993 46.7894 37.4592 46.9012 37.6418C47.013 37.8244 46.9587 38.0614 46.78 38.1779L38.91 43.291L46.3706 38.984C46.5564 38.8762 46.791 38.936 46.9028 39.1187C47.0154 39.3005 46.9611 39.5383 46.7824 39.6548L38.7573 44.8765L46.373 40.4798C46.558 40.3711 46.7934 40.4326 46.9052 40.6144C47.017 40.7963 46.9634 41.0332 46.7855 41.1505L38.2157 46.7533L46.3746 42.044C46.5611 41.9362 46.7965 41.9976 46.9083 42.1802C47.0193 42.3628 46.9634 42.6014 46.7839 42.7163L41.1253 46.3321L46.3761 43.3004C46.5604 43.1926 46.795 43.2516 46.9075 43.4335C47.0201 43.6138 46.9681 43.8507 46.7918 43.9688L36.7066 50.6768L46.3785 45.0922C46.5635 44.9851 46.7997 45.0442 46.9115 45.2276C47.0233 45.4094 46.9681 45.6472 46.7894 45.7637L41.1859 49.3842L46.3801 46.3848C46.5619 46.2786 46.7973 46.3368 46.9099 46.5155C47.0233 46.695 46.9737 46.9312 46.7989 47.0508L39.469 52.0545L46.3809 48.0648C46.5643 47.9569 46.7997 48.016 46.9123 48.1978C47.0248 48.3781 46.9729 48.6151 46.7957 48.7331L43.3547 51.0209L46.3832 49.2724C46.5627 49.1653 46.795 49.2236 46.9099 49.3984C47.0248 49.5731 46.9807 49.8085 46.8115 49.9313L41.8472 53.5471L46.3848 50.928C46.5651 50.8209 46.7981 50.8791 46.913 51.0555C47.0272 51.2326 46.9807 51.4672 46.8099 51.5892L44.6938 53.0936L46.3856 52.1175C46.5651 52.0104 46.7989 52.0679 46.913 52.245C47.0272 52.4213 46.9823 52.6551 46.8115 52.778L46.1565 53.2479L46.3872 53.1149C46.5659 53.0102 46.795 53.0645 46.9099 53.2346C47.0256 53.4062 46.9894 53.6376 46.8272 53.7652L45.9203 54.476L46.3887 54.206C46.5541 54.1092 46.765 54.1477 46.8879 54.2942C47.0107 54.4422 47.0091 54.6555 46.8855 54.8019L45.77 56.1119L46.3903 55.7545C46.5289 55.6734 46.6989 55.6844 46.8264 55.782C46.9524 55.8781 47.0083 56.041 46.9681 56.1946L46.7548 57.0046C46.8257 57.0377 46.8878 57.0912 46.9296 57.1644C47.039 57.3526 46.9744 57.5935 46.7855 57.7021L46.3911 57.9296C46.2526 58.0091 46.0801 57.9989 45.955 57.9021C45.829 57.8052 45.7731 57.6431 45.8133 57.4896L45.966 56.9078L44.19 57.9328C44.0247 58.0296 43.8129 57.991 43.6909 57.8446C43.5681 57.6966 43.5697 57.4833 43.6933 57.3368L44.808 56.0269L41.5016 57.9359C41.3229 58.0406 41.0938 57.9863 40.9789 57.8163C40.8631 57.6446 40.8994 57.4132 41.0615 57.2857L41.9684 56.5748L39.6051 57.9383C39.4249 58.0438 39.1903 57.9871 39.0777 57.8107C38.9636 57.6344 39.0084 57.4006 39.1793 57.2778L39.8327 56.8094L37.8732 57.9406C37.6922 58.0461 37.4591 57.9887 37.345 57.8131C37.2309 57.636 37.2773 57.4014 37.4481 57.2794L39.5634 55.7757L35.8091 57.943C35.628 58.0485 35.3974 57.9918 35.2824 57.817C35.1675 57.6415 35.2108 57.4069 35.3809 57.2841L40.3483 53.666L32.9341 57.9461C32.7491 58.0532 32.5153 57.9942 32.4027 57.8131C32.2902 57.632 32.3421 57.3959 32.5193 57.2778L35.9555 54.9932L30.8369 57.9485C30.6535 58.0564 30.4205 57.9973 30.3071 57.8178C30.1938 57.6383 30.2434 57.4022 30.4181 57.2825L37.7433 52.2812L27.921 57.9517C27.8588 57.9879 27.7911 58.0044 27.7242 58.0044L27.7266 58.0028Z" fill="#E8E8E8"/>
<path d="M18.0916 34.3655C17.9617 34.3655 17.835 34.301 17.7594 34.1837C17.646 34.0058 17.6933 33.7712 17.8657 33.6499L20.5391 31.7779L16.1479 34.3128C15.9676 34.4175 15.7378 34.3632 15.6228 34.1892C15.5079 34.016 15.548 33.783 15.7141 33.6578L19.8936 30.5144L13.9696 33.9341C13.7886 34.0404 13.5548 33.9829 13.4414 33.8058C13.3273 33.6279 13.3737 33.3941 13.5461 33.2721L15.9409 31.5803L13.935 32.7383C13.7563 32.8422 13.528 32.7887 13.4123 32.6195C13.2973 32.4486 13.332 32.2172 13.4941 32.0896L16.1731 29.9688L15.1473 30.5608C14.9852 30.6561 14.7781 30.6207 14.6537 30.479C14.5301 30.3365 14.5238 30.1279 14.6388 29.9791L16.2558 27.8905C16.1928 27.8575 16.1377 27.8063 16.0999 27.7402C15.9905 27.552 16.055 27.3111 16.244 27.2025L17.2965 26.5955C17.4594 26.5003 17.6665 26.5365 17.7901 26.6774C17.9137 26.8199 17.92 27.0285 17.805 27.1773L16.4872 28.8793L20.4423 26.5963C20.6186 26.4908 20.8485 26.5452 20.965 26.7152C21.0799 26.886 21.0453 27.1175 20.8831 27.245L18.2042 29.3658L23.0024 26.5955C23.1826 26.4893 23.4172 26.5467 23.5306 26.7239C23.6447 26.9018 23.5983 27.1356 23.4259 27.2576L21.0288 28.9509L25.1098 26.5955C25.2885 26.4901 25.5199 26.5452 25.6349 26.7191C25.7498 26.8923 25.7097 27.1254 25.5435 27.2505L21.3633 30.3947L27.9454 26.5955C28.128 26.4893 28.3603 26.5467 28.4744 26.7246C28.5878 26.9026 28.5405 27.1372 28.3681 27.2584L25.6971 29.1289L30.0851 26.5955C30.2685 26.4893 30.4992 26.5467 30.6141 26.7246C30.7275 26.9026 30.6803 27.1372 30.5078 27.2584L26.6307 29.9751C26.722 30.0035 26.8039 30.0649 26.8551 30.1546C26.9645 30.3428 26.9 30.5837 26.711 30.6923L20.4352 34.3152C20.2525 34.4214 20.0203 34.364 19.9062 34.1861C19.7928 34.0081 19.84 33.7735 20.0124 33.6523L22.7056 31.7653L18.2884 34.3152C18.2262 34.3514 18.1585 34.3679 18.0916 34.3679V34.3655Z" fill="#4A8EDB"/>
<path d="M51.9694 34.3682C51.8482 34.3682 51.7285 34.3123 51.6529 34.2076C51.5341 34.0462 51.5553 33.821 51.7025 33.6848L54.3059 31.2869L50.2013 33.6565C50.0257 33.7596 49.7998 33.7085 49.6825 33.5424C49.566 33.3755 49.5951 33.1464 49.7502 33.0149L52.8409 30.4005L48.889 32.6819C48.7142 32.7843 48.4883 32.7347 48.371 32.5678C48.2537 32.4017 48.282 32.1734 48.4371 32.0411L51.5057 29.4243L47.6199 31.6672C47.4452 31.7711 47.2192 31.7199 47.1019 31.553C46.9846 31.3869 47.013 31.1586 47.1681 31.0264L49.0393 29.4338L46.5934 30.8453C46.4186 30.9492 46.1927 30.898 46.0754 30.7311C45.9581 30.565 45.9864 30.3367 46.1415 30.2053L47.0579 29.4235L45.7558 30.1746C45.5991 30.2675 45.3984 30.2368 45.2732 30.1045C45.148 29.9723 45.1299 29.7707 45.2299 29.6188L46.2226 28.1002L44.445 29.126C44.3175 29.2015 44.1577 29.1968 44.0317 29.1142C43.9081 29.0323 43.8404 28.8867 43.8578 28.7387L43.9837 27.6672L43.1925 28.1238C43.0249 28.2222 42.8084 28.1813 42.6864 28.027L42.2235 27.4381C42.0511 27.4956 41.8519 27.4271 41.7566 27.261C41.648 27.0729 41.7133 26.832 41.9023 26.7233L42.1314 26.5919C42.3006 26.495 42.5155 26.536 42.6368 26.6903L43.0941 27.2713L44.2695 26.5927C44.3986 26.5179 44.5576 26.5226 44.6828 26.6045C44.8064 26.6863 44.8741 26.832 44.8568 26.98L44.7308 28.0514L47.2586 26.5927C47.4161 26.5013 47.6168 26.5305 47.7412 26.6627C47.8664 26.795 47.8845 26.9965 47.7845 27.1484L46.7918 28.667L50.3839 26.5927C50.5603 26.4903 50.7854 26.5399 50.9019 26.7068C51.0192 26.8729 50.9909 27.1012 50.8358 27.2327L49.9195 28.0152L52.3835 26.5927C52.5598 26.4903 52.7842 26.5399 52.9015 26.7068C53.0188 26.8729 52.9905 27.1012 52.8354 27.2335L50.9633 28.8276L54.8349 26.5927C55.0121 26.4903 55.2364 26.5399 55.3529 26.7068C55.4702 26.8729 55.4419 27.1012 55.2868 27.2335L52.2198 29.8479L56.2551 27.5184C56.4315 27.4161 56.6574 27.4673 56.7739 27.6326C56.8904 27.7995 56.8613 28.0286 56.7062 28.16L53.6139 30.7752L56.9849 28.8292C57.1573 28.7284 57.3801 28.7749 57.4982 28.937C57.617 29.0984 57.5958 29.3236 57.4486 29.4598L54.846 31.8569L57.7398 30.1864C57.913 30.0833 58.1405 30.1336 58.2586 30.3005C58.3751 30.4674 58.346 30.6957 58.1909 30.828L57.469 31.4389L58.2019 31.0161C58.3751 30.9161 58.5971 30.961 58.716 31.124C58.8341 31.2854 58.8128 31.5105 58.6656 31.6467L58.4452 31.8498L58.6129 31.753C58.7593 31.6695 58.9435 31.6861 59.0687 31.7978C59.1954 31.9088 59.2379 32.0875 59.1734 32.2434L58.8396 33.0527L58.8766 33.0322C59.0655 32.9212 59.3056 32.9874 59.4143 33.1763C59.5237 33.3644 59.4592 33.6053 59.2702 33.714L58.2326 34.3131C58.0854 34.3973 57.9028 34.3808 57.7768 34.2682C57.6501 34.1572 57.6076 33.9785 57.6721 33.8226L58.0059 33.0133L55.7521 34.3138C55.5805 34.4162 55.3577 34.369 55.238 34.206C55.1199 34.0446 55.1412 33.8195 55.2884 33.6833L55.508 33.4817L54.065 34.3146C53.8895 34.4186 53.6635 34.3666 53.5462 34.2005C53.4297 34.0336 53.4589 33.8053 53.6139 33.673L54.3358 33.0629L52.1654 34.3154C52.104 34.3516 52.0371 34.3682 51.9694 34.3682Z" fill="#4A8EDB"/>
<path d="M47.0531 34.3689C46.9499 34.3689 46.8484 34.328 46.7728 34.2516C46.6468 34.1233 46.624 33.9265 46.7161 33.773L47.3341 32.7457L45.9147 33.5652C45.7588 33.6565 45.5605 33.6289 45.4337 33.4967C45.3085 33.366 45.2881 33.1668 45.3857 33.0141L46.1312 31.838L44.7866 32.6134C44.6174 32.7126 44.4017 32.6701 44.2796 32.515C44.1592 32.3615 44.1694 32.1411 44.3056 32.0002L44.4316 31.8695L44.1182 32.0498C43.9592 32.1426 43.7561 32.1104 43.6309 31.9742C43.5066 31.8372 43.4932 31.6325 43.6002 31.4822L44.2757 30.5257L43.1098 31.198C42.9531 31.2893 42.7555 31.2617 42.6304 31.131C42.5052 31.0019 42.4832 30.8036 42.5792 30.65L43.3216 29.4519L41.966 30.2336C41.8109 30.3241 41.6156 30.2958 41.4889 30.169C41.3629 30.0407 41.3401 29.8439 41.4322 29.6904L42.1793 28.4497L40.7969 29.248C40.63 29.3448 40.4159 29.3055 40.2939 29.1551C40.1718 29.0047 40.1781 28.7875 40.308 28.6442L40.6009 28.3198L40.0632 28.63C39.8987 28.7253 39.6893 28.689 39.5672 28.545C39.4437 28.4009 39.4413 28.1892 39.5602 28.0419L40.0624 27.4224L39.213 27.9128C39.0445 28.012 38.8265 27.9695 38.7052 27.8136C38.5848 27.6586 38.5966 27.4381 38.7336 27.298L38.7887 27.2413L38.5675 27.3689C38.4077 27.4625 38.2045 27.4303 38.0794 27.2925C37.955 27.1555 37.9424 26.9493 38.0502 26.7989L38.6911 25.9022L37.5858 26.5407C37.4236 26.6367 37.2158 26.6013 37.0922 26.4588C36.9686 26.3163 36.9631 26.1069 37.078 25.9581L37.6212 25.2614L36.6994 25.7936C36.5104 25.9022 36.2695 25.8385 36.1617 25.6495C36.0522 25.4614 36.1168 25.2205 36.3057 25.1119L38.9792 23.5689C39.1421 23.4744 39.35 23.5098 39.4728 23.6508C39.5964 23.7932 39.6019 24.0026 39.4869 24.1514L38.9445 24.8466L39.8719 24.3112C40.0309 24.2176 40.2348 24.2498 40.36 24.3876C40.4844 24.5246 40.497 24.7308 40.3891 24.8812L39.7475 25.7794L40.8615 25.137C41.0291 25.0379 41.2472 25.0804 41.3692 25.2362C41.4897 25.3913 41.4779 25.6118 41.3409 25.7519L41.2889 25.8046L41.5109 25.6771C41.6747 25.5803 41.8833 25.618 42.0069 25.7613C42.1305 25.9062 42.1328 26.1179 42.014 26.2652L41.5109 26.8855L42.3682 26.3911C42.5343 26.2927 42.7485 26.3321 42.8713 26.484C42.9933 26.6344 42.987 26.8516 42.8571 26.9949L42.5642 27.3193L43.1067 27.0067C43.2617 26.9154 43.4578 26.9438 43.5837 27.0713C43.7097 27.1996 43.7325 27.3964 43.6404 27.5499L42.8933 28.7906L44.2844 27.9876C44.4387 27.8955 44.6378 27.9239 44.7638 28.0545C44.8889 28.1836 44.911 28.382 44.815 28.5355L44.0726 29.7337L45.4353 28.9473C45.5943 28.8544 45.7974 28.8859 45.9226 29.0228C46.047 29.1598 46.0604 29.3645 45.9533 29.5149L45.2786 30.4713L46.4516 29.7943C46.6201 29.6951 46.8366 29.7384 46.9586 29.8919C47.079 30.0462 47.0688 30.2667 46.9326 30.4076L46.8051 30.5398L47.1255 30.3556C47.2814 30.2635 47.4797 30.2926 47.6065 30.4241C47.7317 30.5548 47.7521 30.754 47.6545 30.9067L46.909 32.082L48.2615 31.3019C48.4158 31.2113 48.6126 31.2389 48.7385 31.3664C48.8645 31.4948 48.8873 31.6916 48.7952 31.8451L48.1764 32.8724L49.3408 32.2009C49.451 32.1363 49.5832 32.13 49.6997 32.1828C49.8147 32.2348 49.8981 32.3395 49.9233 32.463L50.1036 33.3573L50.4728 33.144C50.657 33.0338 50.9011 33.0991 51.0105 33.2881C51.1199 33.4754 51.0554 33.7171 50.8664 33.8258L50.0241 34.313C49.9131 34.3768 49.78 34.3823 49.6659 34.3312C49.5502 34.2792 49.4667 34.1745 49.4415 34.0509L49.2612 33.1558L47.2507 34.3162C47.1892 34.3524 47.1208 34.3689 47.0531 34.3689Z" fill="#2381D9"/>
<path d="M22.805 34.3642C22.6743 34.3642 22.5468 34.2989 22.472 34.1808C22.3586 34.0005 22.4082 33.7652 22.583 33.6455L29.5925 28.8615L25.0628 31.4759C24.8801 31.5837 24.6463 31.5247 24.533 31.3452C24.4196 31.1657 24.4692 30.9295 24.644 30.8099L29.9609 27.1792C29.8735 27.154 29.794 27.0981 29.7405 27.017C29.6256 26.8438 29.6657 26.6108 29.8318 26.4856L33.8538 23.4587C33.7955 23.2839 33.8656 23.0879 34.0309 22.9927L35.9534 21.8827C36.1321 21.7772 36.3635 21.8323 36.4784 22.0062C36.5934 22.1794 36.5532 22.4125 36.3871 22.5376L35.4779 23.2217L37.2775 22.1834C37.4601 22.0771 37.6939 22.1354 37.8073 22.3141C37.9207 22.4935 37.8711 22.7297 37.6963 22.8494L33.679 25.5921L38.2434 22.9572C38.4284 22.8509 38.6607 22.9084 38.7732 23.0879C38.8866 23.2682 38.837 23.5036 38.6622 23.6232L31.6566 28.4049L33.0296 27.6121C33.2083 27.5074 33.4381 27.561 33.5539 27.7342C33.6688 27.9066 33.631 28.1388 33.4665 28.2648L28.0424 32.4253C28.0424 32.4253 28.0448 32.4292 28.0456 32.4316C28.155 32.6197 28.0905 32.8606 27.9015 32.9693L25.5784 34.3107C25.4005 34.4154 25.1706 34.3619 25.0541 34.1887C24.9392 34.0163 24.977 33.7841 25.1415 33.6581L28.2141 31.3011L23.001 34.3107C22.9388 34.3469 22.8711 34.3635 22.8042 34.3635L22.805 34.3642Z" fill="#2381D9"/>
<path d="M20.3103 40.6627C20.2008 40.6627 20.0938 40.617 20.0166 40.5312C19.893 40.3927 19.8828 40.1856 19.9938 40.0353L21.1613 38.4506L19.2609 39.548C19.1192 39.6298 18.9436 39.6165 18.8161 39.5125C18.6901 39.4102 18.639 39.2394 18.6901 39.0851L19.0633 37.9475C18.9279 37.9475 18.7956 37.8767 18.7232 37.7507C18.6138 37.5626 18.6783 37.3217 18.8673 37.213L19.5372 36.8265C19.6805 36.7454 19.8552 36.7588 19.982 36.8619C20.1079 36.9643 20.1591 37.1351 20.1079 37.2894L19.76 38.3522L22.3996 36.8281C22.5602 36.7344 22.7664 36.7675 22.89 36.9068C23.0136 37.0454 23.0239 37.2524 22.9129 37.4028L21.7462 38.9867L22.757 38.4033C22.905 38.3191 23.0892 38.3356 23.2159 38.4514C23.3427 38.5647 23.3828 38.7466 23.3143 38.9024L23.0514 39.5023C23.1506 39.5275 23.2403 39.5913 23.2962 39.6865C23.4049 39.8747 23.3403 40.1156 23.1514 40.225L22.4815 40.6107C22.3335 40.695 22.15 40.6769 22.0217 40.5619C21.8957 40.4486 21.8556 40.2667 21.9241 40.1108L22.1107 39.685L20.5079 40.6107C20.4465 40.6469 20.3787 40.6635 20.311 40.6635L20.3103 40.6627Z" fill="#231F20"/>
<path d="M22.0619 46.9593C21.9697 46.9593 21.8776 46.927 21.8044 46.8632C21.6777 46.753 21.6344 46.5759 21.6966 46.42L22.1666 45.2431L19.412 46.8341C19.2451 46.9309 19.0326 46.8916 18.909 46.742C18.7877 46.5916 18.7933 46.3751 18.9224 46.2311L19.9899 45.04L19.2617 45.4596C19.1152 45.543 18.9342 45.5257 18.8066 45.4155C18.6799 45.3053 18.6366 45.1274 18.6996 44.9715L18.9956 44.2394C18.8846 44.2205 18.783 44.1536 18.7232 44.0489C18.6138 43.8607 18.6783 43.6198 18.8673 43.5112L19.5372 43.1247C19.6836 43.0404 19.8655 43.0577 19.9922 43.1687C20.119 43.279 20.1623 43.4569 20.0993 43.6127L19.8592 44.2063L21.7336 43.1239C21.8997 43.0255 22.1122 43.0664 22.2366 43.216C22.3579 43.3663 22.3523 43.5828 22.2232 43.7269L21.1557 44.918L22.757 43.9938C22.9026 43.9111 23.0845 43.9261 23.2112 44.0371C23.338 44.1473 23.3813 44.3244 23.3191 44.4803L22.8428 45.6737C23.0128 45.6233 23.2033 45.6926 23.2955 45.854C23.4049 46.0421 23.3403 46.283 23.1514 46.3917L22.2587 46.9065C22.1973 46.942 22.1296 46.9593 22.0619 46.9593Z" fill="#231F20"/>
<path d="M21.4722 53.2598C21.3667 53.2598 21.262 53.2172 21.1865 53.1362C21.0613 53.0039 21.0432 52.8024 21.1432 52.6504L21.7115 51.7853L19.3979 53.1212C19.2255 53.2235 19.0011 53.1755 18.883 53.0118C18.7649 52.848 18.7885 52.6221 18.9381 52.4875L19.4868 51.9955L19.2609 52.1254C19.1192 52.2072 18.942 52.1938 18.8161 52.0899C18.6893 51.9868 18.639 51.816 18.6909 51.6609L19.0609 50.5446C18.9255 50.543 18.7956 50.473 18.7232 50.3478C18.6138 50.1596 18.6783 49.9187 18.8673 49.8101L19.5372 49.4236C19.6805 49.3425 19.856 49.3559 19.982 49.459C20.1087 49.5621 20.1591 49.733 20.1072 49.888L19.7631 50.9264L22.3681 49.4228C22.5421 49.3212 22.7649 49.3693 22.8837 49.5322C23.001 49.696 22.9774 49.9219 22.8278 50.0565L22.2799 50.5485L22.7562 50.273C22.9136 50.1817 23.1144 50.2108 23.2388 50.3438C23.3639 50.4761 23.382 50.6776 23.2821 50.8296L22.7121 51.6963L22.757 51.6703C22.9451 51.5625 23.186 51.6262 23.2955 51.8152C23.4041 52.0033 23.3395 52.2442 23.1506 52.3529L21.6698 53.207C21.6084 53.2432 21.5399 53.2598 21.4722 53.2598Z" fill="#231F20"/>
<path d="M37.4559 40.5286C37.3393 40.5286 37.2244 40.4774 37.1473 40.3798C37.026 40.2279 37.0347 40.0083 37.1677 39.8666L38.8886 38.0291L34.9304 40.3137C34.7549 40.4168 34.5305 40.3672 34.4132 40.2011C34.2959 40.0366 34.3227 39.8091 34.4754 39.676L37.6094 36.9506L33.3977 39.3816C33.2182 39.4871 32.9875 39.4312 32.8718 39.2572C32.7569 39.0825 32.7986 38.8494 32.9663 38.7251L34.858 37.3214L32.6868 38.5747C32.5057 38.6818 32.2719 38.6235 32.1586 38.4464C32.0444 38.2693 32.0909 38.0354 32.2625 37.9126L33.0466 37.3569L32.2601 37.8103C32.0814 37.915 31.8523 37.8607 31.7366 37.6899C31.6217 37.5182 31.6579 37.286 31.8216 37.1593L34.5014 35.0754L31.9074 36.572C31.7271 36.6767 31.4941 36.6208 31.38 36.4452C31.2658 36.2689 31.3099 36.0351 31.48 35.9123L31.935 35.584L31.8704 35.621C31.6925 35.7265 31.4611 35.6722 31.3469 35.4998C31.232 35.3274 31.269 35.0951 31.4327 34.9684L32.3577 34.2567L32.1082 34.4008C31.9366 34.5023 31.7122 34.4559 31.5941 34.2921C31.4752 34.13 31.4981 33.9048 31.6461 33.7694L32.812 32.7051C32.7301 32.6736 32.6584 32.6153 32.6112 32.5335C32.5018 32.3453 32.5663 32.1044 32.7553 31.9958L35.0666 30.6614C35.2398 30.5614 35.4626 30.6079 35.5807 30.7701C35.6995 30.9322 35.6767 31.1574 35.5287 31.2928L34.8596 31.9029L37.0827 30.6197C37.2614 30.515 37.4913 30.5693 37.6062 30.7409C37.7211 30.9126 37.6841 31.1456 37.5204 31.2723L36.5986 31.9816L38.2565 31.0243C38.436 30.9173 38.669 30.9747 38.7839 31.1511C38.8981 31.3274 38.854 31.5612 38.6839 31.684L38.2226 32.017L39.0602 31.5337C39.2389 31.429 39.468 31.4833 39.5837 31.6541C39.6987 31.8257 39.6625 32.058 39.4987 32.1847L36.8221 34.267L39.9537 32.4595C40.134 32.3524 40.3686 32.4107 40.482 32.5878C40.5961 32.7649 40.5497 32.9987 40.3781 33.1215L39.5987 33.6742L40.4025 33.2105C40.5827 33.1058 40.8134 33.1617 40.9283 33.3349C41.0433 33.5096 41.0016 33.7427 40.8339 33.867L38.9359 35.2754L40.7536 34.2268C40.9291 34.1245 41.1543 34.1725 41.2708 34.3394C41.3881 34.5039 41.3613 34.7314 41.2086 34.8645L38.0746 37.5899L40.7914 36.0217C40.959 35.9233 41.1747 35.9634 41.2968 36.1177C41.418 36.2697 41.4093 36.4893 41.2763 36.631L39.557 38.4669L39.5696 38.4598C39.7569 38.3496 39.9978 38.4141 40.1073 38.6038C40.2167 38.792 40.1521 39.0329 39.9632 39.1415L37.6527 40.4759C37.5913 40.5121 37.5236 40.5286 37.4559 40.5286Z" fill="white"/>
<path d="M31.731 58.0044C31.6035 58.0044 31.4783 57.9414 31.4027 57.8272C31.2878 57.6525 31.3279 57.4195 31.4948 57.2951L36.2891 53.7124L31.0697 56.7251C30.8902 56.8314 30.6588 56.7755 30.543 56.5999C30.4289 56.4244 30.4714 56.1906 30.6399 56.067L35.7719 52.3087L31.0697 55.0231C30.8847 55.1302 30.6509 55.0711 30.5383 54.8909C30.4258 54.7106 30.4769 54.4744 30.6533 54.3555L31.8506 53.5518L31.0697 54.0021C30.8863 54.1091 30.6525 54.0509 30.5391 53.8706C30.4265 53.6903 30.4769 53.4549 30.6525 53.3353L30.9855 53.1101C30.8225 53.1582 30.6391 53.0967 30.543 52.9456C30.4289 52.7693 30.4738 52.5355 30.6446 52.4126L31.5775 51.7443L31.0705 52.0363C30.8981 52.1387 30.6737 52.0907 30.5549 51.9253C30.4368 51.7616 30.462 51.5349 30.6123 51.401L32.5623 49.6715L31.0705 50.5327C30.902 50.6327 30.6832 50.5886 30.5619 50.4328C30.4407 50.2769 30.4549 50.0557 30.5934 49.9155L31.2988 49.2031L31.0697 49.3353C30.9319 49.4141 30.7619 49.4038 30.6359 49.3094C30.51 49.2149 30.4533 49.0535 30.4903 48.9L30.7162 47.9884C30.6407 47.9561 30.5753 47.9002 30.5312 47.8239C30.4226 47.6349 30.4872 47.394 30.6761 47.2854L31.0713 47.0579C31.209 46.9799 31.3783 46.9902 31.505 47.0846C31.631 47.1799 31.6877 47.3405 31.6507 47.494L31.4775 48.1915L33.4487 47.0539C33.618 46.9548 33.836 46.998 33.9573 47.1539C34.0785 47.3098 34.0643 47.531 33.9258 47.6711L33.2204 48.3828L35.531 47.0492C35.7042 46.9485 35.9293 46.9957 36.0466 47.1602C36.1647 47.324 36.1395 47.5507 35.9891 47.6845L34.0392 49.4141L38.1446 47.0437C38.3241 46.9366 38.5579 46.9941 38.672 47.1712C38.7862 47.3476 38.7413 47.5814 38.5705 47.7042L37.6313 48.3773L39.9481 47.0398C40.1331 46.9335 40.3662 46.991 40.4787 47.1712C40.5913 47.3515 40.5409 47.5869 40.3654 47.7066L40.1654 47.842L41.5612 47.0366C41.7446 46.9288 41.98 46.9886 42.0926 47.1689C42.2051 47.3492 42.154 47.5853 41.9776 47.7042L40.7802 48.508L41.6525 48.0041C41.8328 47.8994 42.0642 47.9545 42.1792 48.1293C42.2933 48.3049 42.2508 48.5387 42.0823 48.6623L36.9503 52.4197L41.6564 49.7038C41.8343 49.5983 42.0658 49.6542 42.1823 49.8274C42.2972 50.0021 42.2563 50.2352 42.0894 50.3595L37.2967 53.9415L41.6604 51.4223C41.8391 51.3176 42.0689 51.3719 42.1847 51.5435C42.2996 51.7167 42.2618 51.949 42.0973 52.0749L39.2294 54.2792L41.6643 52.874C41.8422 52.7677 42.0737 52.8244 42.1886 52.996C42.3035 53.1676 42.265 53.4014 42.1004 53.5274L41.1998 54.2154L41.6667 53.9462C41.8328 53.8478 42.0461 53.8879 42.1689 54.0383C42.2909 54.1879 42.2854 54.4043 42.1571 54.5484L40.8353 56.0316L41.6706 55.5506C41.8068 55.4718 41.9768 55.4821 42.102 55.5742C42.2272 55.6679 42.2862 55.8261 42.2508 55.9796L42.0162 56.9951C42.0957 57.0266 42.165 57.0841 42.2106 57.1636C42.3201 57.3518 42.2555 57.5926 42.0666 57.7013L41.6722 57.9288C41.536 58.0075 41.3691 57.9973 41.2408 57.9052C41.1156 57.8115 41.0566 57.6533 41.092 57.4997L41.2801 56.685L39.1137 57.9343C38.9476 58.0319 38.7334 57.991 38.6114 57.8422C38.4894 57.6926 38.4949 57.4761 38.6232 57.3321L39.9434 55.8497L36.3213 57.9406C36.1411 58.0445 35.9112 57.9902 35.797 57.8186C35.6821 57.6454 35.7207 57.4132 35.8852 57.2872L36.7827 56.6015L34.4548 57.9453C34.2769 58.0508 34.0462 57.9965 33.9305 57.8241C33.8156 57.6509 33.8534 57.4187 34.0179 57.2927L36.8858 55.0885L31.9278 57.9508C31.8664 57.987 31.7979 58.0044 31.731 58.0044Z" fill="#231F20"/>
<path d="M36.6842 48.5357C36.559 48.5357 36.437 48.4758 36.3606 48.3656C36.2441 48.1964 36.2764 47.9665 36.4354 47.8374L36.4685 47.8098L35.3034 48.4821C35.1436 48.5766 34.9373 48.5435 34.8129 48.4034C34.6886 48.2641 34.6791 48.057 34.7909 47.9067L35.9599 46.3275L32.2277 48.4813C32.0592 48.5797 31.8419 48.5388 31.7207 48.3837C31.6002 48.2294 31.6105 48.009 31.7467 47.8681L32.8055 46.766L29.9494 48.4144C29.7809 48.5144 29.5621 48.4703 29.4409 48.3137C29.3204 48.157 29.3346 47.9358 29.4747 47.7957L30.3942 46.8762L29.496 47.3942C29.3472 47.48 29.159 47.4603 29.0323 47.343C28.9055 47.2265 28.8693 47.0407 28.9433 46.8848L29.3834 45.959C29.2401 45.9732 29.0803 45.9047 29.0008 45.7646C28.8914 45.5764 28.9559 45.3355 29.1448 45.2269L30.0588 44.6995C30.2084 44.6137 30.3958 44.6333 30.5225 44.7506C30.6493 44.8671 30.6855 45.0529 30.6115 45.2088L30.1974 46.0803L32.5906 44.6987C32.7598 44.5995 32.9787 44.6428 33.0991 44.7994C33.2196 44.9561 33.2054 45.1773 33.0653 45.3174L32.1458 46.2369L34.8114 44.6987C34.9806 44.5995 35.1963 44.6412 35.3183 44.7963C35.4388 44.9506 35.4286 45.171 35.2924 45.3119L34.2335 46.4148L37.2077 44.6979C37.3683 44.6034 37.5738 44.6373 37.6981 44.7766C37.8225 44.916 37.832 45.123 37.7202 45.2734L36.5511 46.8525L40.2834 44.6987C40.4606 44.594 40.6873 44.6475 40.8038 44.8152C40.9203 44.9844 40.888 45.2143 40.729 45.3434L40.6959 45.371L41.861 44.6987C42.0264 44.6011 42.2405 44.6404 42.3633 44.7908C42.4853 44.9396 42.4806 45.1568 42.3523 45.3001L41.2131 46.581L43.2206 45.4221C43.3828 45.3261 43.5914 45.3623 43.715 45.5048C43.8386 45.6473 43.8433 45.8583 43.7268 46.0063L43.1214 46.7723L43.2253 46.7132C43.4127 46.603 43.6544 46.6683 43.763 46.8573C43.8724 47.0454 43.8079 47.2863 43.6189 47.395L41.7367 48.4813C41.5737 48.5758 41.3659 48.5412 41.2423 48.3987C41.1187 48.2562 41.114 48.0452 41.2305 47.8972L41.8358 47.1312L39.4962 48.4813C39.3309 48.579 39.1167 48.5396 38.9939 48.3892C38.8719 48.2404 38.8766 48.0232 39.005 47.8799L40.1441 46.5991L36.881 48.4821C36.8196 48.5183 36.7511 48.5357 36.6842 48.5357Z" fill="#D3D3D3"/>
<path d="M45.7407 60.3453C45.6156 60.3453 45.4935 60.2854 45.4172 60.1752C45.3007 60.006 45.3329 59.7761 45.492 59.647L45.5258 59.6194L44.3599 60.2917C44.1899 60.3909 43.9694 60.3468 43.8498 60.1886C43.7301 60.0304 43.7467 59.8084 43.8891 59.669L44.8189 58.7637L42.1706 60.2917C41.9966 60.3948 41.7731 60.3453 41.655 60.1807C41.5369 60.017 41.5621 59.7903 41.7124 59.6564L42.3052 59.1313L40.2938 60.2917C40.1254 60.3901 39.9081 60.3484 39.7861 60.1933C39.6656 60.0382 39.6774 59.8178 39.8136 59.6777L40.8567 58.6023L37.9282 60.2917C37.759 60.3901 37.5425 60.3484 37.4204 60.1925C37.3 60.0374 37.3118 59.8162 37.4496 59.6761L38.4824 58.6181L35.5823 60.2917C35.4106 60.3933 35.1878 60.3476 35.0682 60.1839C34.9501 60.0217 34.9721 59.7965 35.1194 59.6604L35.8515 58.9904L33.5976 60.2909C33.4268 60.3917 33.2048 60.346 33.0851 60.1854C32.9663 60.0248 32.986 59.8013 33.1316 59.6643L33.97 58.8723L31.5123 60.2909C31.3414 60.3917 31.1202 60.346 31.0006 60.1854C30.8817 60.0264 30.8998 59.8028 31.0446 59.6651L31.9059 58.8464L29.4033 60.2909C29.2324 60.3901 29.0128 60.346 28.8931 60.1878C28.7735 60.0304 28.79 59.8076 28.9317 59.669L29.8669 58.7558L27.2069 60.2909C27.0408 60.3886 26.829 60.3484 26.7062 60.2012C26.5842 60.0524 26.5873 59.8375 26.7133 59.6926L27.8658 58.3685L24.535 60.2909C24.3736 60.3862 24.165 60.3516 24.0414 60.2091C23.9178 60.0666 23.9123 59.858 24.0272 59.7084L25.2034 58.1977L21.5774 60.2909C21.4105 60.3878 21.1971 60.3484 21.0751 60.1988C20.9531 60.0493 20.9586 59.832 21.0869 59.6887L22.2221 58.4205L18.9795 60.2917C18.8079 60.3917 18.5867 60.3468 18.4686 60.187C18.3489 60.028 18.367 59.8052 18.5111 59.6667L19.3975 58.8172L16.8421 60.2917C16.665 60.3948 16.4383 60.3445 16.3226 60.176C16.2061 60.0083 16.2376 59.7784 16.395 59.6478L16.5336 59.5336L15.2189 60.2917C15.0575 60.3862 14.8512 60.3516 14.7269 60.2114C14.6033 60.0705 14.5954 59.8627 14.7087 59.7131L15.8817 58.1615L13.7499 59.3911C13.6027 59.4754 13.4177 59.458 13.2909 59.3439C13.1642 59.2305 13.124 59.0495 13.1917 58.8936L13.6846 57.76C13.5192 57.7986 13.3421 57.7277 13.2539 57.5734C13.1445 57.3853 13.2091 57.1444 13.398 57.0357L14.312 56.5083C14.4592 56.4233 14.645 56.4421 14.7709 56.5555C14.8977 56.6689 14.9378 56.8499 14.8701 57.0058L14.3891 58.1134L17.1704 56.5083C17.331 56.4122 17.5381 56.4469 17.6624 56.5886C17.786 56.7295 17.7939 56.9365 17.6806 57.0869L16.5076 58.6393L20.1981 56.5091C20.3745 56.4051 20.602 56.4563 20.7177 56.6248C20.8342 56.7925 20.8027 57.0223 20.6453 57.153L20.5083 57.2664L21.8206 56.5091C21.9907 56.4083 22.2127 56.4532 22.3315 56.6138C22.4512 56.7728 22.4331 56.9956 22.289 57.1341L21.4018 57.9843L23.9587 56.5091C24.1249 56.4107 24.3382 56.4516 24.461 56.6012C24.5838 56.7507 24.5775 56.968 24.4492 57.1113L23.3148 58.3795L26.5558 56.5083C26.718 56.4138 26.9258 56.4492 27.0494 56.5901C27.173 56.7326 27.1785 56.9413 27.0636 57.0908L25.8875 58.6015L29.5135 56.5083C29.6788 56.4114 29.8913 56.45 30.0141 56.598C30.1362 56.7468 30.133 56.9617 30.0071 57.1066L28.8546 58.4307L32.1861 56.5083C32.3554 56.4075 32.5758 56.4524 32.6963 56.6114C32.8159 56.7688 32.7994 56.9916 32.6577 57.1302L31.7224 58.0434L34.3833 56.5083C34.5541 56.4075 34.7753 56.4532 34.895 56.6138C35.0139 56.7728 34.9958 56.9964 34.8509 57.1341L33.9897 57.9528L36.4923 56.5083C36.6639 56.4075 36.8851 56.4532 37.0048 56.6138C37.1237 56.7744 37.104 56.9979 36.9583 57.1349L36.1199 57.9269L38.5777 56.5083C38.7509 56.4075 38.9721 56.454 39.0917 56.6161C39.2098 56.7783 39.1878 57.0034 39.0406 57.1396L38.3084 57.8096L40.5623 56.5091C40.7308 56.4099 40.9488 56.4524 41.0701 56.6083C41.1905 56.7633 41.1787 56.9846 41.0409 57.1247L40.0081 58.1827L42.9083 56.5091C43.0767 56.4099 43.2948 56.4524 43.416 56.6075C43.5373 56.7626 43.5247 56.983 43.3885 57.1231L42.3454 58.1985L45.2739 56.5091C45.4471 56.4083 45.6722 56.4555 45.7895 56.6201C45.9076 56.7838 45.8824 57.0105 45.7321 57.1444L45.1409 57.6687L47.1499 56.5091C47.3191 56.4083 47.5396 56.4532 47.66 56.6122C47.7797 56.7704 47.7631 56.9924 47.6206 57.1318L46.6909 58.0371L49.3392 56.5091C49.5155 56.4051 49.7438 56.4571 49.8595 56.6256C49.976 56.7948 49.9438 57.0247 49.7847 57.1538L49.7509 57.1814L50.9168 56.5091C51.0845 56.4099 51.301 56.4524 51.423 56.6059C51.545 56.7594 51.534 56.9798 51.3994 57.1207L50.3287 58.2465L53.3391 56.5091C53.5154 56.4059 53.739 56.4579 53.8563 56.6216C53.9736 56.7877 53.9461 57.0153 53.7933 57.1483L53.3525 57.5277L55.1183 56.5083C55.2804 56.4122 55.4906 56.4484 55.6142 56.5925C55.7378 56.7366 55.7402 56.9483 55.6213 57.0963L54.446 58.5504L57.983 56.5083C58.1538 56.4075 58.3735 56.4524 58.4939 56.6122C58.6128 56.7704 58.5963 56.9932 58.453 57.1318L57.5382 58.0182L58.9568 57.1995C59.115 57.1081 59.315 57.1373 59.4394 57.2695C59.5646 57.4026 59.5827 57.6033 59.4827 57.756L58.8104 58.7826L58.9655 58.6936C59.1536 58.5842 59.3945 58.648 59.5031 58.8377C59.6126 59.0258 59.548 59.2667 59.3591 59.3754L57.7704 60.2925C57.6146 60.3854 57.413 60.3555 57.2879 60.2224C57.1627 60.0894 57.1446 59.8887 57.2446 59.7359L57.9169 58.7086L55.1741 60.2925C55.0033 60.3925 54.7829 60.3476 54.6632 60.1886C54.5444 60.0304 54.5609 59.8076 54.7042 59.669L55.6189 58.7834L53.0037 60.2925C52.84 60.3878 52.6306 60.3516 52.5078 60.2083C52.3842 60.0634 52.3818 59.8524 52.5007 59.7044L53.676 58.2504L50.1398 60.2925C49.9642 60.3941 49.7399 60.3453 49.6226 60.1799C49.5053 60.0138 49.5328 59.7863 49.6856 59.6533L50.128 59.2723L48.3598 60.2925C48.1914 60.3909 47.9757 60.3492 47.8537 60.1957C47.7316 60.0422 47.7427 59.8217 47.8773 59.6808L48.9479 58.5551L45.9375 60.2925C45.8761 60.3287 45.8076 60.3453 45.7407 60.3453Z" fill="#626F7A"/>
<path d="M15.2251 60.3693C29.5984 60.3032 43.9812 60.4952 58.3506 60.3693C60.7532 59.9528 60.1187 55.5672 57.4091 56.4205V34.3504C62.1317 34.4386 57.9869 29.7475 57.0548 27.6959C54.7986 25.0603 46.8278 27.2 43.1916 26.5521C41.0999 25.1107 39.3594 22.6647 36.9347 21.8972V19.4591C38.8697 19.2158 42.9728 20.5124 42.4532 17.2698C43.2514 13.61 39.1846 14.8679 36.9347 14.6767C37.237 13.854 36.0915 13.8516 35.794 14.4649V22.0003C33.3654 22.8899 31.6941 25.1579 29.7071 26.5899C25.2994 27.1488 19.8336 25.3901 15.947 27.4196C15.0763 29.4759 10.4206 34.5992 15.3259 34.3142V56.3969C12.0911 55.7246 11.8723 61.1486 15.2251 60.3677V60.3693ZM47.2947 56.4268H47.1703V34.3481C50.1996 34.3614 53.2241 34.3394 56.255 34.3512V56.4276H47.2947V56.4268ZM29.933 45.3969C34.0699 45.3827 38.2903 45.4071 42.4555 45.3969C43.2357 45.6212 42.8043 47.2264 42.8547 47.7822C38.7083 47.7617 34.4572 47.8231 30.3054 47.7822C29.5378 47.5775 29.8401 45.9133 29.9338 45.3969H29.933ZM31.4232 49.0843V48.5474C32.8796 48.5435 34.3368 48.5474 35.7932 48.5458V56.4268H31.4232V49.0843ZM36.9339 49.0843V48.5458C38.4068 48.5624 39.823 48.5049 41.3038 48.586V56.4268H36.9339V49.0843ZM42.4445 49.0843V48.5789C43.6907 48.545 44.152 47.5673 44.0237 46.4667C44.167 43.0501 38.4745 45.2001 36.2884 44.6325C34.0361 45.182 28.7844 43.0533 28.7034 46.5045C28.5333 47.6169 28.9482 48.7308 30.2825 48.5875V56.4268H26.6998V33.9584C29.9307 31.3463 33.0623 28.58 36.2553 25.9168C39.5207 28.6382 42.7327 31.4754 46.0241 34.1465V56.4268H42.4437L42.4445 49.0843ZM53.8696 27.2653C55.3922 26.8158 56.203 28.1202 56.6691 29.3633C57.2241 30.6819 58.4616 31.8816 58.5852 33.3026C58.4521 33.7537 58.1349 33.6372 57.7578 33.6372C55.7598 33.6065 53.7138 33.6553 51.6929 33.6372C49.1447 31.5132 46.5956 29.3893 44.0473 27.2661H53.8696V27.2653ZM40.467 15.5229H40.9858C41.6652 16.1118 41.1495 17.4272 41.2967 18.2759C40.4741 19.1426 38.232 18.357 36.9347 18.6128V15.5229H40.467ZM34.0203 23.9668C35.0083 23.1434 35.9121 22.0074 37.2622 22.9442C41.5479 26.5159 45.8336 30.0875 50.1201 33.6592C49.0683 33.6569 48.0512 33.6726 46.9963 33.6364C33.8243 22.8355 39.1067 22.8174 25.9441 33.6592H22.3905C26.2677 30.4284 30.1432 27.1976 34.0203 23.9668ZM14.1931 32.4933C15.133 30.7394 16.121 28.8697 17.2042 27.2259C21.0924 27.2149 25.0372 27.2338 28.945 27.2259C26.3645 29.3759 23.7847 31.5258 21.205 33.6765C19.7919 33.2751 13.5176 34.7582 14.1938 32.4933H14.1931ZM21.0719 34.3118C22.5621 34.3433 24.0681 34.3418 25.5591 34.3111V56.4276C22.5244 56.441 19.5061 56.4158 16.4658 56.3764V34.3221C18.0009 34.3252 19.5376 34.3134 21.0719 34.3126V34.3118ZM14.3584 57.2204C28.9781 57.229 43.7222 57.2062 58.3317 57.2204C58.6663 57.3715 58.8489 59.5136 58.4624 59.5765H42.5469C33.4771 59.5765 24.4074 59.5765 15.3377 59.5765C14.4434 59.5765 14.1104 59.7009 14.1104 58.5445C14.1104 58.1745 13.964 57.3888 14.3584 57.2204Z" fill="#262626"/>
<path d="M22.2638 37.4088C22.2536 37.3986 22.241 37.4002 22.2276 37.401C22.2268 37.4049 22.2386 37.4081 22.2638 37.4088Z" fill="#262626"/>
<path d="M18.4754 39.7525C18.6265 41.3278 21.4684 40.2957 22.6312 40.5106C24.0017 40.4177 23.742 37.749 23.2767 36.9704C20.6182 36.9059 17.781 35.9037 18.4754 39.7525ZM21.6015 37.401H22.2273C22.2588 37.3971 22.3115 37.405 22.3478 37.401C22.3076 37.4089 22.2832 37.4097 22.2635 37.4089C22.639 38.1371 22.3021 39.1943 22.4107 40.0335C19.483 40.0619 19.4578 40.5114 19.6153 37.401H21.6015Z" fill="#262626"/>
<path d="M19.48 47.0212C20.8451 46.8134 23.8586 47.8242 23.5602 45.5444C23.4343 44.7603 23.92 43.5857 23.1131 43.1C21.7575 43.1646 19.062 42.2797 18.466 43.8739C18.6424 44.9036 17.8394 47.0732 19.48 47.0212ZM19.6233 46.1671C19.6312 46.2426 19.6658 46.1419 19.6233 46.1671V46.1671ZM22.4006 43.866C22.3762 43.8636 22.3967 43.8345 22.4006 43.866V43.866ZM21.7598 43.8723H22.4014C22.4014 43.8778 22.4038 43.8778 22.4022 43.8865C22.4046 44.6044 22.4022 45.4105 22.4022 46.1576H19.6217C19.6217 46.1498 19.6193 46.1498 19.6193 46.1395C19.6178 45.4641 19.6272 44.6091 19.6241 43.8723H21.7583H21.7598Z" fill="#262626"/>
<path d="M23.1823 49.4481C19.8279 49.1261 17.6464 48.6719 18.5754 52.9402C19.624 53.7204 21.2724 53.104 22.5328 53.2913C24.0246 53.2835 23.8207 50.203 23.1823 49.4481ZM22.5021 50.1416C22.5792 50.1408 22.5045 50.1526 22.4218 50.1416H22.5021ZM22.373 50.1345C22.3462 50.129 22.3297 50.1227 22.3447 50.1141C22.3549 50.1086 22.3635 50.1227 22.373 50.1345ZM19.4941 52.4844C19.5264 52.4852 19.561 52.4789 19.5925 52.4844C19.5618 52.4829 19.5248 52.4907 19.4941 52.4844ZM19.6507 52.4844C19.6405 52.4703 19.6248 52.4482 19.6224 52.4451C19.5956 51.7027 19.6468 50.9029 19.6279 50.1416H22.3832C22.4454 50.9115 22.3856 51.7066 22.4053 52.4844H19.6507Z" fill="#262626"/>
<path d="M52.9769 37.4183C52.9635 37.4057 52.9494 37.4073 52.9328 37.4073C52.9273 37.4136 52.9407 37.4191 52.9769 37.4183Z" fill="#262626"/>
<path d="M49.1774 39.7534C49.3285 41.3365 52.1751 40.3052 53.3418 40.517C54.6927 40.4281 54.4699 37.6901 53.9527 36.9556C51.2785 36.9146 48.4925 35.8959 49.1774 39.7534ZM52.305 37.4082H52.9325C52.9647 37.4035 53.0159 37.4122 53.0513 37.4082C53.0151 37.4177 52.9954 37.4185 52.9758 37.4192C53.3277 38.1537 53.0096 39.1913 53.1127 40.0281C50.1992 40.0502 50.1575 40.5209 50.3165 37.4082H52.305Z" fill="#262626"/>
<path d="M53.8853 43.1502C50.5317 42.8298 48.3495 42.3732 49.2785 46.6416C50.3278 47.4209 51.9755 46.8053 53.2351 46.9919C54.7269 46.984 54.5246 43.9051 53.8853 43.1502ZM53.2044 43.8429C53.2815 43.8422 53.2052 43.854 53.1241 43.8429H53.2044ZM53.0745 43.8359C53.0485 43.8303 53.032 43.824 53.0469 43.8154C53.0564 43.8099 53.0658 43.824 53.0745 43.8359ZM50.1964 46.1873C50.2286 46.1881 50.2633 46.1818 50.2948 46.1873C50.2641 46.1857 50.2271 46.1936 50.1964 46.1873ZM50.353 46.1873C50.3428 46.1731 50.3263 46.1503 50.3247 46.1472C50.2971 45.404 50.3499 44.605 50.3302 43.8421H53.0847C53.1485 44.6121 53.0871 45.408 53.1076 46.1865H50.3538L50.353 46.1873Z" fill="#262626"/>
<path d="M53.8924 49.4798C50.6143 49.2932 48.4518 48.5776 49.2304 52.846C50.2121 53.7112 51.9668 53.035 53.2185 53.231C54.7095 53.257 54.5253 50.2143 53.8924 49.4798ZM49.9192 50.086C49.8893 50.0883 49.8995 50.0868 49.9192 50.086V50.086ZM50.4301 52.5398C50.4175 52.5398 50.401 52.5398 50.3837 52.5398C50.3467 52.5028 50.3388 52.4445 50.3199 52.3942C50.2845 51.81 50.3215 50.8087 50.3183 50.086H53.0461C53.0847 50.1135 53.0918 50.1883 53.1107 50.23V52.5406C52.2171 52.5422 51.3236 52.5374 50.4301 52.5398Z" fill="#262626"/>
<path d="M38.1558 30.7707C29.7049 28.4979 28.4799 41.9754 37.4032 40.4615C42.4085 39.6475 43.1776 32.1853 38.1558 30.7707ZM37.7331 39.7987C31.1502 41.6841 30.2615 29.9252 37.1647 31.2855C41.1828 32.205 41.7015 38.4399 37.7331 39.7987Z" fill="#262626"/>
<path d="M36.9397 35.3204C36.9397 34.593 37.1751 33.0673 35.9927 33.7601C35.6282 34.2348 35.703 35.3534 35.9202 35.884C36.6098 36.6382 38.4016 35.91 36.9397 35.3204Z" fill="#262626"/>
</g>
<defs>
<linearGradient id="paint0_linear_670_6835" x1="-3.34263e-07" y1="-10.6277" x2="90.5319" y2="94.4681" gradientUnits="userSpaceOnUse">
<stop stop-color="#E3F1FF"/>
<stop offset="1" stop-color="#77B2EA"/>
</linearGradient>
<clipPath id="clip0_670_6835">
<rect width="47.234" height="47.234" fill="white" transform="translate(12.7432 13.5283)"/>
</clipPath>
</defs>
</svg>
