<svg xmlns="http://www.w3.org/2000/svg" width="62" height="62" fill="none" viewBox="0 0 62 62"><g clip-path="url(#a)"><path fill="#2CBC8F" d="M12.9 16.008a.515.515 0 0 1-.26-.964l2.52-1.453a.513.513 0 0 1 .705.19.515.515 0 0 1-.19.705l-2.517 1.453a.5.5 0 0 1-.259.07"/><path fill="#008745" d="M7.175 41.819a.517.517 0 0 1-.371-.876l2.6-2.675-4.59 2.65a.517.517 0 0 1-.596-.838l3.706-3.208-3.506 2.024a.517.517 0 0 1-.568-.86l1.216-.91-.65.375a.517.517 0 0 1-.594-.84l3.939-3.366-3.348 1.932a.516.516 0 0 1-.585-.846l3.276-2.678-2.692 1.554a.515.515 0 0 1-.583-.849l3.125-2.532-2.545 1.469a.514.514 0 0 1-.679-.148.52.52 0 0 1 .083-.691l4.084-3.526-3.491 2.015a.517.517 0 0 1-.574-.856l1.994-1.53-1.422.82a.517.517 0 0 1-.573-.858l1.887-1.443-1.316.76a.516.516 0 0 1-.576-.855l2.264-1.76-1.691.977a.516.516 0 0 1-.57-.86l1.412-1.06-.845.487a.515.515 0 0 1-.582-.848l3.097-2.504-2.517 1.452a.514.514 0 0 1-.694-.17.515.515 0 0 1 .142-.701l.512-.358a.515.515 0 0 1-.646-.175.52.52 0 0 1 .103-.695l4.178-3.37-3.599 2.077a.515.515 0 0 1-.57-.86l1.708-1.285-1.14.658a.515.515 0 0 1-.567-.861l.637-.475-2.094 1.21a.515.515 0 0 1-.584-.848l3.562-2.899-3.956 2.284a.517.517 0 0 1-.576-.855l3.13-2.441a.515.515 0 0 1-.348-.888l3.026-2.92-.002-.004a.515.515 0 0 1 .19-.706l1.423-.824a.51.51 0 0 1 .67.137.516.516 0 0 1-.053.682L7.339 8.084l2.084-1.202a.516.516 0 0 1 .576.854L7.3 9.842l3.132-1.808a.515.515 0 0 1 .584.847l-3.56 2.898L11.61 9.38a.517.517 0 0 1 .568.862l-.641.478.829-.479a.516.516 0 0 1 .57.86l-1.71 1.285 2.004-1.156a.514.514 0 0 1 .684.154.52.52 0 0 1-.102.696l-4.178 3.37 4.843-2.796a.514.514 0 0 1 .694.17.515.515 0 0 1-.141.701l-2.466 1.714a.515.515 0 0 1 .13.88L9.6 18.622l2.51-1.45a.516.516 0 0 1 .57.86l-1.41 1.06.84-.485a.516.516 0 0 1 .576.855l-2.268 1.762 1.693-.977a.515.515 0 0 1 .689.16c.15.225.1.532-.116.698l-1.886 1.442 1.313-.758a.516.516 0 0 1 .574.856l-1.993 1.53 1.42-.819a.518.518 0 0 1 .596.84L8.623 27.72l3.488-2.014a.516.516 0 0 1 .583.848l-3.126 2.533 2.543-1.467a.515.515 0 0 1 .585.846l-3.275 2.679 2.69-1.553a.518.518 0 0 1 .594.84l-3.939 3.366 3.345-1.931a.517.517 0 0 1 .569.86l-1.217.909.648-.373a.516.516 0 0 1 .597.838l-3.706 3.206 3.11-1.794a.516.516 0 0 1 .629.808l-2.6 2.674 1.97-1.138a.515.515 0 0 1 .665.128c.159.202.146.49-.031.675l-.482.504c.2-.018.402.072.508.255a.515.515 0 0 1-.19.706L9.77 41.75a.514.514 0 0 1-.665-.129.515.515 0 0 1 .031-.674l.38-.398-2.082 1.2a.5.5 0 0 1-.258.07"/><path fill="#2CBC8F" d="M58.369 16.009a.517.517 0 0 1-.258-.965l2.517-1.452a.513.513 0 0 1 .706.189.515.515 0 0 1-.19.705l-2.517 1.453a.5.5 0 0 1-.258.07"/><path fill="#008745" d="M53.527 41.819a.515.515 0 0 1-.383-.863l2.115-2.343-4.623 2.669a.517.517 0 0 1-.58-.853l1.905-1.505-2.031 1.172a.518.518 0 0 1-.578-.853l2.45-1.923-1.915 1.105a.514.514 0 0 1-.682-.152.52.52 0 0 1 .095-.694l3.461-2.861-2.876 1.66a.516.516 0 0 1-.575-.855l2.283-1.776-1.71.986a.517.517 0 0 1-.591-.843l3.725-3.133-3.136 1.81a.514.514 0 0 1-.683-.152.52.52 0 0 1 .098-.695l3.236-2.637-2.653 1.53a.516.516 0 0 1-.588-.844l3.513-2.913-2.928 1.69a.516.516 0 0 1-.577-.854l2.352-1.833-1.778 1.026a.516.516 0 0 1-.58-.851l2.775-2.205-2.196 1.268a.515.515 0 0 1-.576-.855l2.309-1.797-1.736 1.002a.516.516 0 0 1-.572-.858l1.734-1.318-1.164.672a.516.516 0 0 1-.58-.85l5.184-4.137-4.606 2.659a.517.517 0 0 1-.57-.859l2.962-2.243-2.395 1.381a.516.516 0 0 1-.563-.864l1.097-.803-.535.31a.517.517 0 0 1-.586-.846l2.828-2.324-4.387 2.533a.516.516 0 0 1-.566-.862l1.734-1.285-2.076 1.197a.518.518 0 0 1-.579-.852l3.245-2.566-.366.21a.516.516 0 0 1-.62-.815l3.622-3.57-.014-.021a.52.52 0 0 1 .19-.707l1.411-.813a.515.515 0 0 1 .62.815l-2.232 2.2 3-1.73a.515.515 0 0 1 .686.155.52.52 0 0 1-.107.697l-3.243 2.564 3.756-2.169a.517.517 0 0 1 .566.862l-1.731 1.285 2.022-1.168a.516.516 0 0 1 .586.846l-2.832 2.325 3.337-1.925a.517.517 0 0 1 .563.864l-1.095.802 1.321-.763a.516.516 0 0 1 .57.859l-2.96 2.242 3.392-1.958a.515.515 0 0 1 .58.85l-5.185 4.137 2.27-1.31a.515.515 0 0 1 .688.16c.15.226.1.533-.117.698l-1.734 1.318 1.163-.67a.516.516 0 0 1 .575.854l-2.312 1.799 1.737-1.002a.517.517 0 0 1 .58.851l-2.773 2.204 2.193-1.266a.515.515 0 0 1 .687.158.52.52 0 0 1-.11.697l-2.352 1.832 1.776-1.024a.516.516 0 0 1 .588.844l-3.515 2.914 2.926-1.69a.515.515 0 0 1 .585.848l-3.233 2.636 2.648-1.528a.517.517 0 0 1 .591.843l-3.728 3.135 3.136-1.81a.516.516 0 0 1 .576.854l-2.283 1.776 1.708-.985a.514.514 0 0 1 .681.152.52.52 0 0 1-.095.693l-3.458 2.86 2.87-1.658a.518.518 0 0 1 .578.854l-2.451 1.923 1.874-1.082a.516.516 0 0 1 .578.853l-1.904 1.505 1.324-.764a.515.515 0 0 1 .642.793l-2.115 2.343 1.473-.85a.515.515 0 0 1 .651.11c.162.19.166.466.01.66l-.549.682a.515.515 0 0 1 .108.942l-1.708.988a.52.52 0 0 1-.65-.11.52.52 0 0 1-.01-.661l.266-.33-1.913 1.103a.5.5 0 0 1-.258.069z"/><path fill="#2CBC8F" d="M35.632 10.84a.516.516 0 0 1-.259-.963l2.518-1.452a.514.514 0 0 1 .705.189.515.515 0 0 1-.189.706l-2.517 1.452a.5.5 0 0 1-.258.069"/><path fill="#008745" d="M28.307 20.145a.517.517 0 0 1-.322-.92l1.537-1.235-2.368 1.367a.515.515 0 0 1-.584-.847l3.197-2.601-2.618 1.51a.515.515 0 0 1-.577-.853l5.163-4.035-4.594 2.651a.517.517 0 0 1-.554-.871l.466-.324a.516.516 0 0 1-.49-.895l3.126-2.414-2.559 1.477a.517.517 0 0 1-.58-.85l2.881-2.311-3.04 1.755a.515.515 0 0 1-.578-.853l2.255-1.773-3.789 2.187a.516.516 0 0 1-.572-.856l2.768-2.123-1.545.892a.516.516 0 0 1-.568-.86l2.387-1.788a.517.517 0 0 1-.108-.827l2.72-2.597a.517.517 0 0 1 .194-.695l1.404-.81a.517.517 0 0 1 .615.82l-1.102 1.052 1.586-.916a.517.517 0 0 1 .568.86l-.718.54.914-.527a.516.516 0 0 1 .572.856l-2.767 2.122 3.19-1.842a.517.517 0 0 1 .578.854l-2.26 1.775 2.647-1.527a.515.515 0 0 1 .58.85L32.485 7.87l3.363-1.942a.517.517 0 0 1 .575.856L33.292 9.2l3.601-2.079a.516.516 0 0 1 .554.872l-.389.271.554-.32a.515.515 0 0 1 .577.854l-5.167 4.038 1.83-1.056a.514.514 0 0 1 .684.154.517.517 0 0 1-.1.693l-3.194 2.599 2.615-1.51a.515.515 0 0 1 .581.85L33.9 15.802l.963-.555a.517.517 0 0 1 .658.776l-1.415 1.715.765-.441c.2-.12.457-.085.623.08s.2.42.085.623l-.285.498a.515.515 0 0 1 .097.94l-1.064.615a.517.517 0 0 1-.708-.704l.117-.204-1.587.916a.518.518 0 0 1-.657-.776l1.413-1.715-4.339 2.505a.5.5 0 0 1-.258.07"/><path fill="#1C3531" d="M30.336 61.433a.517.517 0 0 1-.29-.944l9.248-6.273-11.838 6.834a.515.515 0 0 1-.7-.179.52.52 0 0 1 .162-.705l5.246-3.348-6.589 3.804a.517.517 0 0 1-.538-.883l8.584-5.508-9.987 5.765a.517.517 0 0 1-.54-.88L36.24 50.55l-14.74 8.51a.517.517 0 0 1-.533-.886l7.473-4.687-8.324 4.805a.517.517 0 0 1-.54-.88l16.08-10.442-17.419 10.056a.516.516 0 0 1-.538-.882l16.08-10.343-17.144 9.897a.516.516 0 0 1-.535-.883l14.377-9.12-15.122 8.73a.516.516 0 0 1-.529-.889l4.385-2.695-4.646 2.682a.516.516 0 0 1-.528-.889l.04-.023-.158.09a.516.516 0 0 1-.529-.887l3.51-2.152-3.645 2.103a.516.516 0 0 1-.534-.885l12.042-7.534L12.44 50.46a.518.518 0 0 1-.53-.888l6.966-4.298-7.039 4.063a.517.517 0 0 1-.537-.883l17.298-11.074L11.04 47.518a.517.517 0 0 1-.538-.882l17.532-11.273-17.648 10.189a.518.518 0 0 1-.53-.888l4.658-2.868-4.426 2.555a.517.517 0 0 1-.535-.884l13.362-8.473L9.778 42.58a.517.517 0 0 1-.536-.883l12.915-8.218L9.61 40.722a.517.517 0 0 1-.534-.885l9.25-5.829L9.6 39.048a.516.516 0 0 1-.532-.887l4.42-2.752-3.8 2.192a.517.517 0 0 1-.545-.878l13.934-9.22-12.98 7.493a.517.517 0 0 1-.54-.881l8.73-5.662-7.59 4.382a.517.517 0 0 1-.535-.883l2.01-1.276-.843.488a.517.517 0 0 1-.556-.87l9.155-6.44-6.748 3.897a.516.516 0 0 1-.582-.85l5.043-4.065a.514.514 0 0 1-.683-.2.515.515 0 0 1 .19-.706l5.74-3.313a.517.517 0 0 1 .582.85l-5.036 4.058 10.982-6.34a.516.516 0 0 1 .556.87l-9.156 6.44 12.47-7.2a.517.517 0 0 1 .535.884l-2.01 1.274 3.24-1.87a.517.517 0 0 1 .54.881l-8.739 5.667 10.375-5.99a.517.517 0 0 1 .545.878l-13.929 9.217 15.848-9.149a.517.517 0 0 1 .532.887l-4.402 2.741 5.17-2.985a.517.517 0 0 1 .534.884l-9.256 5.834 10.167-5.87a.517.517 0 0 1 .536.883l-12.916 8.217 13.898-8.024a.516.516 0 0 1 .535.883L31.126 31.01l14.208-8.203a.518.518 0 0 1 .53.888L41.21 26.56l5.012-2.893a.516.516 0 0 1 .538.882L29.228 35.823l18.375-10.61a.517.517 0 0 1 .537.883L30.841 37.172l17.932-10.354a.518.518 0 0 1 .53.888l-6.956 4.293 7.102-4.1a.517.517 0 0 1 .533.885l-12.038 7.532 12.24-7.066a.518.518 0 0 1 .53.888l-3.53 2.165 3.478-2.008a.517.517 0 0 1 .528.889l-.104.063a.517.517 0 0 1 .49.907l-4.395 2.704 4.252-2.455a.516.516 0 0 1 .535.883l-14.375 9.12 14.301-8.257a.516.516 0 0 1 .538.883l-16.077 10.34 15.892-9.174a.517.517 0 0 1 .54.88L36.71 47.518l15.685-9.056a.517.517 0 0 1 .533.886l-7.482 4.692 6.925-3.997a.517.517 0 0 1 .54.88l-13.154 8.569 12.357-7.133a.516.516 0 0 1 .539.882l-8.572 5.5 7.604-4.389a.516.516 0 0 1 .538.884l-5.243 3.347 4.14-2.39a.518.518 0 0 1 .548.875l-9.256 6.278 7.419-4.282a.516.516 0 0 1 .542.88l-2.388 1.57.527-.304a.517.517 0 0 1 .548.876l-2.157 1.458a.515.515 0 0 1 .18.958l-10.965 6.332a.517.517 0 0 1-.547-.875l.846-.574-3.31 1.912a.517.517 0 0 1-.542-.88l2.397-1.575-4.371 2.522a.5.5 0 0 1-.258.07z"/><path fill="#E5EAEF" d="M31.676 57.3a.518.518 0 0 1-.298-.94l6.147-4.324-8.722 5.035a.517.517 0 0 1-.546-.877l6.45-4.317-8.173 4.719a.516.516 0 0 1-.543-.878l7.873-5.206-9.336 5.39a.518.518 0 0 1-.541-.88l8.216-5.356-9.371 5.41a.517.517 0 0 1-.532-.885l.206-.129-.7.404a.518.518 0 0 1-.534-.885l4.43-2.794-5.02 2.899a.518.518 0 0 1-.533-.886l3.62-2.268-4.074 2.352a.514.514 0 0 1-.701-.179.52.52 0 0 1 .164-.704l8.433-5.373-8.995 5.193a.516.516 0 0 1-.533-.886l4.376-2.737-4.67 2.695a.515.515 0 0 1-.702-.182.52.52 0 0 1 .172-.706l.313-.193-.433.249a.515.515 0 0 1-.7-.179.52.52 0 0 1 .164-.704l9.446-6.016-9.758 5.634a.518.518 0 0 1-.541-.88l13.309-8.673-13.662 7.886a.517.517 0 0 1-.543-.88l13.74-9.004-13.938 8.047a.517.517 0 0 1-.542-.88l13.394-8.802-13.385 7.728a.518.518 0 0 1-.541-.88l11.703-7.65-11.458 6.616a.518.518 0 0 1-.534-.885l4.09-2.578-3.637 2.098a.517.517 0 0 1-.533-.886l2.025-1.27-1.475.85a.518.518 0 0 1-.542-.88l8.386-5.498-7.625 4.402a.518.518 0 0 1-.541-.88l5.63-3.672-4.67 2.695a.517.517 0 0 1-.549-.875l6.895-4.679-5.466 3.156a.517.517 0 0 1-.546-.877l2.262-1.51-.645.371a.516.516 0 0 1-.585-.846l4.143-3.39a.5.5 0 0 1-.517-.253.515.515 0 0 1 .19-.705l5.138-2.967a.516.516 0 0 1 .585.846l-3.959 3.24 8.909-5.144a.517.517 0 0 1 .546.877l-2.262 1.51 3.994-2.306a.516.516 0 0 1 .549.876l-6.898 4.68 8.858-5.113a.518.518 0 0 1 .541.88l-5.635 3.676 6.91-3.99a.518.518 0 0 1 .543.88l-8.386 5.498 9.665-5.58a.517.517 0 0 1 .533.886l-2.026 1.271 2.632-1.519a.516.516 0 0 1 .534.885l-4.082 2.574 4.685-2.704a.518.518 0 0 1 .541.88l-11.704 7.649 12.675-7.317a.516.516 0 0 1 .542.879L29.6 35.46l14.279-8.244a.518.518 0 0 1 .543.88l-13.75 9.01 14.43-8.33a.518.518 0 0 1 .541.88l-13.303 8.67L46.1 30.38a.517.517 0 0 1 .536.884l-9.451 6.018 9.592-5.538a.514.514 0 0 1 .703.182.52.52 0 0 1-.173.706l-.294.182.163-.094a.516.516 0 0 1 .533.885l-4.374 2.736 4.236-2.444a.516.516 0 0 1 .536.883l-8.437 5.376 8.26-4.77a.516.516 0 0 1 .534.886l-3.612 2.263 3.285-1.896a.516.516 0 0 1 .534.885l-4.441 2.8 4.022-2.321a.517.517 0 0 1 .532.886l-.429.268a.517.517 0 0 1 .45.922l-8.225 5.36 7.545-4.355a.516.516 0 0 1 .544.878l-7.87 5.203 6.925-3.997a.514.514 0 0 1 .697.173.52.52 0 0 1-.15.704l-6.45 4.315 5.181-2.991a.517.517 0 0 1 .556.87l-6.148 4.325 4.15-2.395a.517.517 0 0 1 .575.856l-3.528 2.733a.515.515 0 0 1 .606.233.515.515 0 0 1-.189.706l-6.44 3.719a.517.517 0 0 1-.575-.856l3.466-2.682-7.539 4.351a.5.5 0 0 1-.258.07"/><path fill="#262626" d="M12.889 42.139C14.29 52.712 24.565 58.155 33.715 57.07c6.043-.715 11.41-4.468 14.07-10.797 10.348-29.318-37.297-34.42-34.896-4.135m6.491-15.472c10.981-11.305 30.73-.128 28.307 14.947-6.584 30.6-48.323 7.912-28.307-14.946"/><path fill="#262626" d="M15.669 15.527c2.26-1.84-5.254-8.5-6.852-9.84-3.374.368-4.968 4.873-7.47 6.928-2.171 1.873-.622 3.965 2.024 3.472.11 7.727-.217 15.48 0 23.2.154 2.906 3.143 2.679 5.366 2.619 1.485 14.166 13.921 20.778 25.292 19.257 9.315-1.246 17.91-8.102 19.222-19.467 1.962.073 4.561.16 5.256-1.899.389-7.918-.04-15.971.111-23.933 7.68.238-2.185-8.132-4.112-9.953-3.474.1-5.063 4.652-7.509 6.702-2.334 1.905-.918 3.778 1.855 3.239v9.958c-3.09-4.058-7.783-7.13-12.967-8.101v-6.894c7.69.022-2.146-7.99-4.002-10.114-3.503-.24-5.15 4.726-7.654 6.692-2.31 1.893-.872 3.925 1.888 3.404v7.09c-5.05 1.181-9.794 3.992-12.956 8.181v-9.982c.893.034 1.856.033 2.509-.561zm31.608-1.168c1.27-2.871 4.359-5.226 6.288-7.758.704 1.165 8.566 8.233 6.09 8.56-.755.165-2.14-.352-2.534.539v23.216c.355 2.387-2.032 2.32-3.774 2.095.458-4.56-.751-9.236-3.03-13.046-.319-3.994.8-9.492-.402-12.804-.834 0-2.454.337-2.638-.802M24.617 9.46c.728-2.962 4.373-5.21 6.129-7.833 1.003.721 7.5 7.375 6.572 8.235-.873.211-2.427-.426-2.936.556v7.044a23.2 23.2 0 0 0-6.765.13c-.38-2.353.77-5.951-.466-7.712-.668 0-2.172.312-2.534-.42m1.795 8.935c2.586-.497 5.3-.711 8.034-.14 20.846 3.533 23.83 33.916 3.666 40.925-1.527.563-3.94.996-5.44 1.169-16.028 1.846-28.794-17.152-19.84-31.846.225-.122.354-.322.328-.566 2.997-4.957 7.837-8.345 13.252-9.542m-13.949-3.458c-2.039 1.857-.282 10.023-.795 13.303-2.255 3.806-3.271 8.209-3.019 12.557-4.576.978-3.822-3.35-3.757-6.417-.642-6.137 1.255-14.216-.695-19.443-1.982.281-3.402-.385-1.355-2.125C4.61 10.898 6.26 8.739 8.034 6.879c2.041 1.301 3.459 3.92 5.273 5.658 1.824 1.637 1.958 2.783-.843 2.4"/><path fill="#262626" d="M36.592 42.685c4.019-.182-3.981-2.932-4.867-3.677.089-4.067-.015-8.239.024-12.341 0-.327-1.498-.089-1.498.4.575 7.79-2.923 12.86 6.341 15.618"/></g><defs><clipPath id="a"><path fill="#fff" d="M0 0h62v62H0z"/></clipPath></defs></svg>