<svg xmlns="http://www.w3.org/2000/svg" width="74" height="74" fill="none" viewBox="0 0 74 74"><circle cx="37" cy="37" r="37" fill="#FAECBC"/><g clip-path="url(#a)"><path fill="#3D3B33" d="M27.225 53.308a.375.375 0 0 1-.197-.693l3.738-2.307-5.11 2.95a.373.373 0 0 1-.387-.64l11.767-7.466-13.37 7.72a.374.374 0 0 1-.384-.642l9.584-5.963-9.948 5.744a.375.375 0 0 1-.384-.642l8.942-5.535-8.787 5.073a.374.374 0 0 1-.385-.642l10.998-6.852-10.613 6.127a.373.373 0 0 1-.382-.643l2.452-1.494-2.07 1.196a.374.374 0 0 1-.388-.64l14.75-9.358-14.362 8.292a.373.373 0 0 1-.382-.644l1.206-.732-.825.476a.375.375 0 0 1-.386-.64l12.78-8.025-12.394 7.156a.374.374 0 0 1-.385-.641l12.108-7.58-11.723 6.768a.373.373 0 0 1-.385-.64l12.137-7.609-11.752 6.784a.373.373 0 0 1-.383-.642l7.468-4.613-7.085 4.09a.374.374 0 0 1-.383-.642l4.226-2.596-3.844 2.219a.374.374 0 0 1-.384-.642l4.951-3.063-4.567 2.636a.374.374 0 0 1-.39-.638l10.57-6.83-10.18 5.877a.375.375 0 0 1-.389-.639l7.295-4.678-6.907 3.987a.375.375 0 0 1-.395-.635l8.392-5.596-7.997 4.616a.37.37 0 0 1-.503-.124.373.373 0 0 1 .105-.508l7.233-4.965-6.835 3.946a.374.374 0 0 1-.405-.627l5.985-4.283-5.58 3.222a.373.373 0 0 1-.41-.624l4.297-3.19-3.887 2.243a.374.374 0 0 1-.424-.612l3.184-2.626-2.76 1.593a.373.373 0 0 1-.441-.598l1.71-1.586-1.269.732a.374.374 0 0 1-.474-.562l.726-.875a.374.374 0 0 1-.188-.698l1.534-.885a.374.374 0 0 1 .474.562l-.636.766 2.33-1.345a.373.373 0 0 1 .441.598l-1.709 1.586 3.783-2.184a.373.373 0 0 1 .425.612L26.21 25.97l5.606-3.237a.374.374 0 0 1 .41.624l-4.297 3.191 6.608-3.815a.374.374 0 0 1 .405.627l-5.983 4.281 8.502-4.907a.373.373 0 0 1 .398.632l-7.235 4.966 9.696-5.597a.373.373 0 0 1 .395.634l-8.387 5.595 10.79-6.23a.374.374 0 0 1 .389.639l-7.297 4.68 9.211-5.318a.375.375 0 0 1 .39.638l-10.57 6.832 12.936-7.469a.374.374 0 0 1 .384.642l-4.945 3.059 6.404-3.697a.374.374 0 0 1 .383.642l-4.22 2.592 4.985-2.878a.37.37 0 0 1 .508.132.376.376 0 0 1-.125.51l-7.469 4.615 7.805-4.506a.375.375 0 0 1 .386.64l-12.134 7.607 12.046-6.954a.374.374 0 0 1 .386.64l-12.11 7.58 11.724-6.768a.374.374 0 0 1 .386.64l-12.78 8.024 12.395-7.155a.373.373 0 0 1 .509.133.375.375 0 0 1-.128.51l-1.206.733.825-.476a.374.374 0 0 1 .387.64l-14.749 9.358 14.363-8.292a.374.374 0 0 1 .381.643l-2.451 1.494 2.07-1.196a.374.374 0 0 1 .385.642l-10.997 6.852 10.613-6.127a.374.374 0 0 1 .384.642l-8.944 5.537 8.56-4.942a.374.374 0 0 1 .384.642l-9.585 5.962 9.202-5.312a.373.373 0 0 1 .387.64l-11.768 7.465 11.381-6.57a.374.374 0 0 1 .384.642l-3.745 2.313 3.361-1.94a.374.374 0 0 1 .39.638l-9.661 6.225 9.271-5.352a.375.375 0 0 1 .392.637l-8.506 5.553 8.115-4.684a.37.37 0 0 1 .504.126.373.373 0 0 1-.11.508l-7.96 5.346 7.565-4.368a.374.374 0 0 1 .397.632l-6.133 4.17 5.736-3.311a.374.374 0 0 1 .403.629L47.35 48.55l4.84-2.793a.373.373 0 0 1 .402.63l-2.988 2.107 2.585-1.492a.373.373 0 0 1 .406.627l-1.865 1.35 1.46-.843a.373.373 0 0 1 .418.617l-1.637 1.295 1.218-.703a.373.373 0 0 1 .45.59l-1.236 1.22.762-.44a.37.37 0 0 1 .51.136.373.373 0 0 1-.136.511l-3.286 1.897a.373.373 0 0 1-.45-.59l1.236-1.218-3.133 1.808a.374.374 0 0 1-.419-.617l1.639-1.296-3.315 1.914a.374.374 0 0 1-.406-.627l1.864-1.349-3.422 1.976a.373.373 0 0 1-.402-.63l2.987-2.107-4.74 2.736a.373.373 0 0 1-.403-.628l5.243-3.709-7.513 4.338a.374.374 0 0 1-.397-.633l6.134-4.17-8.32 4.803a.374.374 0 0 1-.395-.634l7.964-5.348-10.36 5.982a.375.375 0 0 1-.392-.637l8.506-5.554-10.723 6.19a.374.374 0 0 1-.39-.638l9.661-6.225-11.888 6.863a.4.4 0 0 1-.187.05z"/><path fill="#fff" d="M27.416 49.57a.374.374 0 0 1-.2-.69l4.702-2.961-5.436 3.139a.373.373 0 0 1-.386-.64l5.866-3.695-5.534 3.195a.375.375 0 0 1-.386-.64l5.5-3.458-5.114 2.953a.374.374 0 0 1-.388-.639l8.736-5.596-8.348 4.82a.374.374 0 0 1-.39-.638l9.628-6.21-9.238 5.333a.374.374 0 0 1-.387-.64l6.86-4.342-6.473 3.737a.373.373 0 0 1-.384-.642l2.52-1.564-2.136 1.232a.374.374 0 0 1-.39-.638l9.192-5.917-8.802 5.081a.373.373 0 0 1-.507-.129.375.375 0 0 1 .116-.509l7.658-4.95-7.267 4.196a.373.373 0 0 1-.388-.64l3.286-2.086-2.898 1.673a.375.375 0 0 1-.393-.636l5.305-3.486-4.912 2.835a.375.375 0 0 1-.392-.637l2.928-1.914-2.537 1.464a.373.373 0 0 1-.408-.625l5.612-4.1-5.204 3.006a.373.373 0 0 1-.405-.628l2.917-2.095-2.513 1.45a.37.37 0 0 1-.5-.121.375.375 0 0 1 .096-.507l1.006-.718-.601.347a.374.374 0 0 1-.416-.62l1.077-.833-.661.382a.375.375 0 0 1-.444-.595l1.02-.967-.576.332a.374.374 0 0 1-.525-.483l.419-.884a.375.375 0 0 1-.228-.696l.869-.5a.374.374 0 0 1 .525.483l-.395.832 2.28-1.316a.374.374 0 0 1 .444.595l-1.021.967 2.706-1.562a.373.373 0 0 1 .416.62l-1.077.832 2.517-1.452a.37.37 0 0 1 .501.121.375.375 0 0 1-.097.507l-1.008.72 2.334-1.348a.374.374 0 0 1 .406.628l-2.917 2.094 4.715-2.722a.374.374 0 0 1 .408.625l-5.612 4.1 8.183-4.725a.375.375 0 0 1 .392.637l-2.93 1.916 4.421-2.552a.373.373 0 0 1 .393.636l-5.302 3.485 7.138-4.121a.374.374 0 0 1 .387.64l-3.284 2.083 4.718-2.723a.374.374 0 0 1 .39.638l-7.653 4.948 9.294-5.366a.375.375 0 0 1 .39.639l-9.19 5.916 9.011-5.203a.374.374 0 0 1 .384.642l-2.519 1.564 2.135-1.233a.375.375 0 0 1 .387.64l-6.86 4.343 6.473-3.737a.374.374 0 0 1 .39.638l-9.626 6.209 9.237-5.333a.374.374 0 0 1 .389.639l-8.744 5.6 8.356-4.823a.374.374 0 0 1 .386.641l-5.49 3.45 5.104-2.946a.374.374 0 0 1 .387.64l-5.867 3.694 5.48-3.163a.374.374 0 0 1 .387.64l-4.696 2.957 4.31-2.488a.375.375 0 0 1 .387.64l-3.54 2.237 3.153-1.821a.374.374 0 0 1 .397.632l-8.038 5.464 7.641-4.41a.373.373 0 0 1 .388.639l-.325.206a.373.373 0 0 1 .337.66l-5.081 3.53 4.681-2.702a.373.373 0 0 1 .398.633l-2.375 1.624 1.977-1.142a.374.374 0 0 1 .411.623l-3.075 2.304 2.664-1.539a.374.374 0 0 1 .425.611l-2.221 1.84 1.796-1.037a.374.374 0 0 1 .435.603l-.926.826.49-.284a.374.374 0 0 1 .506.519l-.525.859.019-.011a.37.37 0 0 1 .51.137.373.373 0 0 1-.136.51l-1.291.745a.373.373 0 0 1-.506-.518l.525-.859-2.386 1.378a.374.374 0 0 1-.435-.603l.926-.826-2.473 1.428a.374.374 0 0 1-.425-.61l2.22-1.841-4.245 2.451a.374.374 0 0 1-.411-.623l3.078-2.305-5.073 2.928a.375.375 0 0 1-.398-.633l2.373-1.62-3.904 2.253a.373.373 0 0 1-.4-.63l5.079-3.53-7.205 4.16a.374.374 0 0 1-.387-.64l.204-.13-1.333.77a.374.374 0 0 1-.397-.633l8.04-5.465-10.562 6.097a.374.374 0 0 1-.386-.64l3.526-2.228-4.969 2.868a.4.4 0 0 1-.187.05z"/><path fill="#262626" d="M47.511 26.46c-27.815.575-21.219-5.475-21.836 22.155.79 1.947 5.477.506 7.36.926 2.824-.69 17.292 1.86 16.16-1.993-.716-3.009 1.829-22.567-1.684-21.087m.545 22.436c-6.774.012-13.617-.009-20.413 0-.44 0-.78.06-.883-.566.348-6.84-.672-15.028.354-21.225 6.805.038 13.683-.064 20.462 0 .754.16.534 1.16.534 1.742-.053 6.667.1 13.413-.053 20.049"/><path fill="#262626" d="M59.323 48.872H52.94v-3.904c8.65.216 8.603-.727 0-.475V40.49c8.66.224 8.614-.754 0-.492v-3.986c8.662.232 8.618-.78 0-.51V31.58c8.72.286 8.692-.944 0-.62 0-1.307-.001-2.611.012-3.918 8.636.239 8.577-.792-.003-.518.418-2.517-1.284-4.18-3.748-3.892.515-9.033-1.595-8.97-1.1 0h-3.395c.518-8.845-1.549-8.746-1.084 0h-3.398c.515-8.984-1.583-8.915-1.094 0-1.133 0-2.266.002-3.399-.003.525-8.883-1.554-8.805-1.083-.003l-3.404-.01c.516-8.899-1.566-8.817-1.083 0a434 434 0 0 0-3.403.01c.516-8.931-1.57-8.84-1.086.004-2.454-.325-4.116 1.547-3.749 3.94-8.456-.195-8.451.65-.001.424 0 1.353.006 2.706.004 4.059-8.458-.202-8.449.664 0 .433v3.895c-8.83-.346-8.802 1.128 0 .75v3.892c-8.485-.205-8.478.677 0 .442v3.943c-8.711-.3-8.687.98 0 .645v3.898c-8.673-.243-8.632.813 0 .532-.34 2.43 1.213 4.259 3.748 3.893-.526 8.82 1.554 8.77 1.083.01 1.135.013 2.27.026 3.404.031-.518 8.735 1.547 8.66 1.083.007q1.701.003 3.402-.004c-.515 8.877 1.57 8.796 1.087 0q1.7-.005 3.4-.012c-.514 8.883 1.568 8.78 1.085-.006l3.4-.016c-.515 8.955 1.579 8.87 1.091-.003q1.7-.008 3.4-.01c-.518 8.831 1.55 8.717 1.083-.003 2.342.347 4.157-1.457 3.748-3.805.786-.205 7.962.591 6.38-.692zm-9.13 3.673c-35.21-1.217-25.965 8.03-27.165-27.293.098-2.013 1.862-1.797 3.282-1.797 7.36-.022 14.717.045 22.077-.029 2.296-.297 3.762.62 3.454 3.033.002 6.143.05 12.293.036 18.432-.51 2.319 1.358 6.896-1.685 7.654"/></g><defs><clipPath id="a"><path fill="#fff" d="M15 15.565h44.87v44.87H15z"/></clipPath></defs></svg>