<svg width="578" height="580" viewBox="0 0 578 580" fill="none" xmlns="http://www.w3.org/2000/svg">
<path fill-rule="evenodd" clip-rule="evenodd" d="M129.911 460.946C132.985 457.871 134.11 456.463 134.943 455.08C134.642 454.444 134.273 453.646 133.861 452.77C133.079 451.095 132.161 449.111 131.319 447.35C127.919 440.118 126.099 435.764 128.202 430.233C129.877 425.827 134.574 421.541 139.15 420.236C140.567 419.824 142.001 419.626 143.529 419.626C146.32 419.626 149.523 420.296 154.074 421.438C163.321 423.714 166.971 424.496 173.643 425.647C183.612 427.382 188.506 428.67 193.529 433.703C196.698 436.872 198.26 439.947 204.116 452.83C204.125 452.855 204.142 452.881 204.151 452.907C204.571 444.293 205.104 435.292 205.576 428.781C207.105 407.894 207.345 404.879 208.461 395.947C212.978 359.626 222.715 333.01 236.625 318.967C242.825 312.723 250.149 308.437 262.78 303.679C268.404 301.584 278.056 298.234 284.307 297.453C286.307 293.562 288.36 289.963 290.626 286.416C290.352 286.416 290.077 286.425 289.793 286.425C280.7 286.425 272.32 281.933 261.801 271.403C252.734 262.368 246.174 252.491 239.862 238.346C235.973 229.542 233.311 221.366 230.383 209.17C227.936 198.898 225.686 185.13 224.913 175.692C224.913 175.692 224.905 175.545 224.905 175.52C223.694 174.824 221.77 173.75 218.696 172.11C208.118 166.39 199.531 158.926 195.753 152.184C191.786 145.219 189.785 136.837 190.412 129.734C191.039 122.837 193.735 114.24 196.955 108.82C200.347 103.135 206.813 97.6809 213.424 94.924L213.519 94.881C213.708 94.8037 214.137 94.632 214.498 94.4774C214.721 94.0909 214.987 93.5841 215.142 93.2921C224.037 76.7934 236.617 67.1913 253.584 63.9362C256.787 63.3092 259.946 63 263.244 63C269.701 63 276.69 64.2368 284.581 66.779L288.394 67.99L289.321 67.7152C295.495 65.8514 299.041 65.3018 305.181 65.2588C316.738 65.2588 326.63 68.4795 335.44 75.11C335.878 75.4449 336.298 75.7713 336.719 76.0977C338.789 75.5222 341.244 75.7627 343.554 77.4547C344.164 77.9013 344.782 78.4596 345.486 79.2068C347.092 80.9245 348.371 83.2005 349.221 85.6311C349.367 85.6396 349.513 85.6482 349.668 85.6654C353.171 85.9574 358.065 87.4003 361.32 90.5438C364.222 93.3093 365.218 96.238 364.299 99.2526C366.343 101.434 368.138 103.976 369.572 106.793C369.735 107.094 369.889 107.377 370.027 107.627C373.453 108.949 375.453 110.426 378.802 113.776C382.503 117.435 383.551 118.903 385.774 123.533C387.105 126.23 388.694 130.369 389.381 132.903C390.677 137.567 390.712 138.735 390.592 147.924C390.471 162.594 389.072 169.387 383.456 182.528C382.288 185.242 379.772 191.46 377.832 196.399C375.84 201.44 372.465 209.11 370.327 213.464C366.309 221.761 363.398 228.821 361.672 234.429L361.534 234.876C361.071 236.399 361.217 240.015 361.972 245.723L362.153 247.072C362.814 252.096 363.57 257.052 364.171 260.599C364.222 260.607 364.411 260.65 364.411 260.65C369.743 261.81 373.41 265.7 378.304 272.468C386.264 283.436 390.926 291.501 390.883 298.921C394.954 300.253 398.929 301.738 398.963 301.756C406.296 304.521 427.969 314.115 436.384 318.323C441.364 320.831 451.531 326.989 455.79 330.064C463.226 335.38 471.306 345.772 477.402 357.839C482.545 367.965 486.676 379.775 490.823 396.145C494.661 411.432 499.109 435.601 502.423 459.237C506.055 485.406 507 499.268 507 526.692V549.134L505.085 552.887C503.479 555.945 502.114 557.577 495.872 564.516C493.682 566.973 491.132 569.893 490.127 571.078C487.86 573.732 486.049 575.853 482.683 576.025C482.339 576.154 481.979 576.266 481.584 576.369C480.674 576.618 479.549 576.858 478.329 577.081L478.201 577.107C476.148 577.442 471.451 578.224 467.751 578.859C459.774 580.234 453.772 581.058 448.199 581.513C448.139 583.841 448.036 586.976 447.907 591.09C447.349 609.16 446.859 613.145 445.64 615.979L442.858 622.421L440.282 622.155C440.299 622.756 440.316 623.391 440.325 624.061C440.411 627.385 440.394 630.254 440.265 632.753L438.007 644.27C438.007 644.27 437.981 644.33 437.964 644.365L423.092 643.583L422.929 642.286C422.911 642.158 422.903 642.02 422.894 641.874C422.353 641.677 421.838 641.47 421.366 641.256C419.039 640.191 413.775 636.747 410.1 634.067C404.176 638.104 395.263 642.973 386.822 646.684C381.421 649.037 369.984 652.876 363.776 654.431C357.155 656.123 348.818 657.557 342.017 658.167C338.814 658.45 336.736 658.665 336.341 658.725L336.213 658.742C329.859 659.532 311.535 658.382 303 656.973C294.43 655.556 283.293 652.876 275.256 650.282C263.888 646.572 254.279 641.728 245.925 635.51C243.469 633.715 239.794 630.314 238.729 629.318C237.75 628.399 236.831 627.54 236.007 626.698H235.372L233.165 624.431C230.486 621.674 230.074 621.253 231.25 576.042C231.379 571.301 231.491 567.084 231.611 563.28C228.794 563.262 224.99 563.151 222.397 562.867C211.415 561.656 196.904 554.382 189.382 546.317C188.102 544.96 186.832 543.096 185.878 541.215C185.853 541.164 185.827 541.121 185.81 541.069C178.915 540.485 173.866 538.776 170.457 535.89H170.096C169.719 535.89 166.361 535.873 164.343 535.341L164.197 535.306L164.06 535.263C158.745 533.623 158.187 529.329 158.144 528.049C158.084 526.271 158.547 524.871 159.269 523.772L158.951 523.42C158.685 523.523 158.427 523.609 158.195 523.677C158.092 525.55 157.294 527.336 155.971 528.659C154.512 530.119 152.562 530.926 150.493 530.926C145.204 530.926 141.855 525.79 140.953 522.492C140.653 521.393 140.464 520.087 140.378 518.696C138.086 517.184 136.54 515.484 136.514 515.441L136.377 515.269C135.81 514.53 134.007 511.911 133.938 508.707C133.191 506.655 133.217 504.241 133.586 501.931H131.251L129.052 498.367C127.352 495.61 127.867 493.007 128.614 491.101C128.357 490.783 128.116 490.456 127.867 490.147C127.181 489.254 125.48 486.987 124.51 485.166L124.433 485.02C123.497 483.156 122.612 480.339 122.269 478.166C121.024 470.187 124.192 466.589 129.894 460.929L129.911 460.946Z" fill="white"/>
<path fill-rule="evenodd" clip-rule="evenodd" d="M285.826 396.076L247.899 393.68L247.822 429.426L263.415 440.247L282.967 430.697L285.826 396.076Z" fill="#0089DE"/>
<path fill-rule="evenodd" clip-rule="evenodd" d="M357.019 271.06C357.869 270.931 358.873 270.836 359.981 270.854C361.956 270.888 363.622 271.257 364.849 271.644L376.519 284.75L383.439 299.548C380.58 305.938 376.793 313.187 371.753 320.771C364.575 331.567 356.95 339.906 350.398 346.099C344.903 338.171 337.364 332.383 331.868 324.455C339.493 316.614 349.153 306.625 356.778 298.784C357.903 296.516 359.989 291.518 359.543 284.999C359.208 280.095 357.577 276.368 356.452 274.255" fill="#0089DE"/>
<path d="M350.08 204.489C349.299 204.661 348.483 204.773 347.685 204.661C346.405 204.472 345.263 203.725 344.207 202.995C343.967 202.832 343.718 202.652 343.657 202.377C343.606 202.188 343.657 201.999 343.709 201.818C344.456 199.242 345.71 196.803 347.401 194.707C349.076 192.611 351.325 190.799 353.978 190.43C356.014 190.146 358.22 190.954 359.5 192.577C360.642 194.037 360.092 195.386 359.345 196.94C357.568 200.65 354.116 203.57 350.08 204.472V204.489Z" fill="#E3E7F6"/>
<path d="M309.49 355.495C308.236 361.464 306.519 367.33 305.094 373.274C297.306 405.747 299.04 440.334 308.975 472.215C307.987 469.028 308.752 463.446 308.898 460.07C309.078 456.025 309.258 451.98 309.447 447.935C309.851 439.543 310.306 431.144 310.89 422.753C312.032 406.202 313.612 389.678 316.119 373.265C316.548 370.414 321.7 352.661 320.266 350.067C318.978 347.722 314.23 346.228 312.238 344.192L309.49 355.486V355.495Z" fill="#E3E7F6"/>
<path d="M291.648 564.765C291.416 567.187 291.047 570.941 290.558 575.536C289.836 582.252 289.278 586.933 289.175 587.8C287.175 605.184 294.087 639.323 294.387 639.272C294.422 639.272 294.379 638.877 294.19 636.841C294.061 635.424 293.924 633.346 293.915 630.451C293.915 627.506 293.906 624.56 293.906 621.605C293.915 615.49 293.967 609.366 294.104 603.251C294.525 584.94 296.397 577.159 296.233 567.102C296.182 564.018 296.242 561.845 296.362 557.491C296.388 556.486 296.457 554.141 296.792 551.084C296.852 550.551 296.903 550.113 296.938 549.821C295.177 554.803 293.408 559.784 291.648 564.765Z" fill="#E3E7F6"/>
<path fill-rule="evenodd" clip-rule="evenodd" d="M306.717 279.468L292.455 300.793C291.957 307.776 289.269 307.716 291.519 316.828C294.636 329.411 293.554 334.28 296.413 342.826C305.962 340.026 318.824 357.547 322.396 344.802C320.98 334.538 320.868 315.437 315.476 304.555C315.553 302.022 314.789 297.942 313.896 291.458" fill="#0089DE"/>
<path d="M259.792 217.776C260.024 209.162 261.158 204.352 261.596 195.369C261.475 192.921 262.489 185.818 259.741 179.299C258.556 172.497 248.638 160.189 244.543 158.145C239.889 155.328 237.107 164.303 232.453 161.478C234.393 174.086 236.334 186.677 238.283 199.294C240.859 207.083 242.619 213.491 243.761 218C245.968 226.708 245.264 230.556 248.844 234.481C252.21 238.149 258.487 241.163 263.528 240.966C266.018 240.871 268.482 240.193 270.852 239.454C271.693 239.196 275.188 237.453 276.004 237.899C273.522 236.56 269.53 236.628 266.001 232.575C264.627 231.003 262.334 227.859 260.995 222.637L259.801 217.776H259.792Z" fill="#E3E7F6"/>
<path fill-rule="evenodd" clip-rule="evenodd" d="M217.245 541.902C236.814 550.56 240.832 553.978 240.386 555.421C239.604 557.946 224.38 556.684 211.2 550.629C201.308 546.085 191.657 538.433 192.722 536.2C193.305 534.98 197.006 535.504 200.518 536.277" fill="#E3E7F6"/>
<path d="M296.689 168.606C296.286 168.907 295.728 168.933 295.221 168.907C294.148 168.838 293.117 168.503 292.061 168.374C288.163 167.919 284.342 170.144 280.409 169.835C279.868 169.792 279.31 169.689 278.838 169.448C277.636 168.821 277.206 167.404 277.035 166.133C276.588 162.706 277.309 159.228 278.125 155.852C278.4 154.761 278.838 153.49 279.98 153.164C280.641 152.975 281.354 153.181 282.006 153.404C285.106 154.461 288.008 156.024 290.567 157.965C292.714 159.597 295.444 161.813 296.629 164.2C297.17 165.291 297.883 167.713 296.672 168.615L296.689 168.598V168.606Z" fill="#E3E7F6"/>
<path fill-rule="evenodd" clip-rule="evenodd" d="M340.643 540.692C338.093 542.822 333.911 541.688 332.701 541.379C324.406 539.309 322.886 543.268 297.35 540.915C279.713 539.292 270.911 538.459 263.956 534.001C254.666 528.058 248.475 518.404 249.909 516.73C251.033 515.424 257.817 524.15 271.985 527.989C275.72 529.003 285.637 531.682 296.165 530.583C297.745 530.42 300.716 530.025 304.717 530.497C309.98 531.124 313.14 532.782 315.94 533.864C329.266 538.991 341.219 533.426 342.421 536.947C342.867 538.253 341.536 539.936 340.635 540.692H340.643Z" fill="#E3E7F6"/>
<path fill-rule="evenodd" clip-rule="evenodd" d="M174.845 477.359C174.038 476.775 173.016 476.157 171.762 475.667C168.225 474.267 164.988 474.679 163.356 475.006C163.356 475.006 156.015 474.722 150.837 477.393C150.837 477.393 143.495 480.056 139.958 482.564C139.185 487.391 137.656 490.654 136.334 492.801C135.845 493.583 135.347 494.287 135.51 494.442C136.094 495.017 143.427 486.48 152.4 481.791C156.959 479.412 164.146 476.869 174.854 477.368L174.845 477.359Z" fill="#E3E7F6"/>
<path fill-rule="evenodd" clip-rule="evenodd" d="M184.797 482.993C182.582 482.46 178.932 481.911 174.605 482.761C172.286 483.216 170.371 483.955 168.903 484.659C167.297 485.183 165.666 485.741 164.009 486.325C161.33 487.279 158.745 488.249 156.255 489.245C156.255 489.245 148.913 491.908 145.376 494.416C144.852 495.111 141.778 499.243 141.031 503.107C140.645 505.091 140.971 506.5 141.057 506.869C141.306 507.883 141.572 508.939 142.061 509.025C143.375 509.266 144.199 502.257 148.295 497.439C151.301 493.9 154.77 493.05 161.879 490.843C167.169 489.202 174.982 486.652 184.788 482.984L184.797 482.993Z" fill="#E3E7F6"/>
<path fill-rule="evenodd" clip-rule="evenodd" d="M190.343 490.937C188.815 490.405 186.11 489.683 182.744 490.027C177.978 490.516 174.724 492.852 173.419 493.917C172.114 494.175 170.688 494.553 169.168 495.077C165.94 496.202 163.355 497.679 161.415 499.01C160.264 499.457 158.976 500.05 157.637 500.857C154.975 502.446 153.034 504.267 151.703 505.753C150.39 507.616 148.277 511.232 148.294 515.947C148.303 519.804 149.737 523.505 150.432 523.419C151.24 523.325 149.754 518.24 152.141 513.096C154.116 508.836 157.74 506.68 164.231 502.944C167.966 500.797 170.156 499.972 177.532 496.726C183.079 494.287 187.535 492.243 190.352 490.937H190.343Z" fill="#E3E7F6"/>
<path fill-rule="evenodd" clip-rule="evenodd" d="M145.693 457.253C144.989 457.304 144.105 457.467 143.203 457.923C140.052 459.512 139.391 463.222 139.305 463.772C138.403 464.733 137.485 465.695 136.54 466.666C134.642 468.616 132.753 470.471 130.881 472.24C130.529 473.245 130.074 474.997 130.28 477.161C130.418 478.664 130.83 479.867 131.191 480.7C132.127 482.186 132.899 483.397 133.432 484.238C135.475 487.459 135.887 488.095 136.128 488.009C136.729 487.803 134.539 483.551 135.372 478.664C135.956 475.237 137.639 473.777 139.992 470.058C141.795 467.224 144.019 463.033 145.685 457.244L145.693 457.253Z" fill="#E3E7F6"/>
<path fill-rule="evenodd" clip-rule="evenodd" d="M335.31 651.305C336.1 651.194 338.839 650.927 341.389 650.704C347.692 650.137 355.643 648.789 361.946 647.174C367.948 645.671 378.938 641.961 383.859 639.822C393.579 635.545 403.857 629.731 408.768 625.788L410.271 624.552C410.271 624.552 415.595 623.727 417.286 623.16C422.43 621.4 426.774 618.995 429.634 616.289L431.025 614.975C431.025 614.975 431.849 614.151 432.261 613.884C432.527 613.738 433.008 613.661 433.309 613.773C433.575 613.884 438.787 613.026 438.787 613.026C439.577 611.188 439.989 605.554 440.436 590.884C440.925 575.682 440.925 575.047 440.436 575.536C440.024 575.948 439.199 587.509 438.564 601.766C438.341 606.911 438.117 611.334 438.04 611.557C437.963 611.78 437.25 612.081 436.46 612.235C432.15 612.983 418.6 616.367 411.662 618.462C401.272 621.58 395.682 623.641 386.787 627.54C365.629 636.885 350.397 641.54 331.412 644.391C324.843 645.37 308.752 645.783 302.106 645.104C289.312 643.824 276.217 640.672 266.162 636.438C258.735 633.286 252.99 629.722 244.773 623.195C242.3 621.202 240.085 619.596 239.861 619.596C239.149 619.562 247.177 627.137 250.363 629.464C258.125 635.244 267.132 639.745 277.599 643.163C285.293 645.637 296.061 648.23 304.235 649.579C312.899 651.005 330.158 651.941 335.301 651.305" fill="#09151F"/>
<path fill-rule="evenodd" clip-rule="evenodd" d="M293.967 638.619C294.079 638.172 294.302 630.589 294.534 621.845C294.869 605.561 295.212 597.866 296.182 581.883C296.483 576.927 296.783 567.213 296.895 560.308C297.084 546.987 297.041 546.721 296.371 557.491C296.148 561.21 295.47 570.889 294.869 579.065C293.409 598.613 293.031 607.064 293.031 620.042C293.031 630.245 293.52 640.457 293.967 638.619Z" fill="#09151F"/>
<path fill-rule="evenodd" clip-rule="evenodd" d="M284.924 624.731C285.001 624.052 285.259 619.629 285.525 614.897C285.748 610.13 286.16 602.546 286.461 598.012C286.727 593.468 287.062 587.465 287.174 584.691C287.362 579.847 287.285 580.113 286.083 590.316C284.924 599.772 284.769 602.4 284.58 613.471C284.392 624.954 284.469 627.883 284.915 624.731" fill="#09151F"/>
<path fill-rule="evenodd" clip-rule="evenodd" d="M239.339 617.792C240.163 614.717 240.387 610.474 242.155 564.43C242.945 544.393 243.435 533.322 243.881 525.739C244.105 522.097 244.216 517.073 244.182 514.522C244.07 511.335 244.182 510.133 244.405 510.58C244.628 510.915 245.685 512.418 246.732 513.886C247.823 515.346 249.617 518.318 250.785 520.491C255.216 528.633 259.38 533.7 263.167 535.504C270.448 538.991 285.037 542.409 295.581 543.122C301.137 543.5 303.309 543.457 310.96 542.899C316.85 542.452 321.427 542.297 324.501 542.452C330.28 542.753 335.346 543.354 335.603 543.843C336.016 544.479 335.38 545.647 334.745 545.381C334.255 545.192 334.178 545.415 334.444 547.184C334.59 548.309 334.856 549.4 335.045 549.658C335.268 549.881 336.471 550.448 337.75 550.938C339.064 551.384 342.704 552.965 345.89 554.39C354.03 558.032 360.711 560.583 370.688 563.846C380.176 566.964 382.546 567.6 390.497 569.292C406.254 572.667 417.21 574.024 431.653 574.436C443.58 574.737 451.428 574.101 466.506 571.507C470.224 570.872 474.947 570.082 477.007 569.747C479.068 569.369 480.76 568.922 480.76 568.733C480.76 568.098 476.819 568.132 465.038 568.957C450.183 570.004 429.506 570.082 419.228 569.146C398.93 567.273 379.309 563.065 361.449 556.726C343.288 550.311 341.605 549.744 338.6 549.486L335.638 549.263L336.874 548.138C341.562 543.895 342.765 542.469 344.903 538.192C347.676 532.601 348.5 529.183 348.5 523.703C348.5 520.517 348.354 518.902 347.753 516.987C347.307 515.595 346.929 514.513 346.852 514.582C346.775 514.659 346.517 516.72 346.285 519.16C345.684 525.017 344.86 527.98 342.344 533.571C341.185 536.088 340.24 538.484 340.24 538.896C340.24 539.309 339.828 539.944 339.304 540.288C338.403 540.855 338.068 540.855 333.938 540.288C322.681 538.707 323.093 538.707 303.094 539.54C292.327 539.953 276.716 537.247 265.648 533.013C262.686 531.888 261.673 531.252 259.646 529.372C256.684 526.597 251.317 519.615 251.317 518.524C251.317 518.378 252.897 519.314 254.803 520.585C259.346 523.626 268.345 527.98 269.624 527.757C270.483 527.568 270.526 527.534 269.847 527.19C269.469 526.967 267.22 525.498 264.893 523.926C259.191 520.139 258.023 519.426 254.572 517.511C252.468 516.308 250.742 514.925 248.346 512.443C245.341 509.369 244.929 508.724 244.216 506.406C243.77 504.98 243.28 503.588 243.169 503.288C243.057 502.953 243.504 503.142 244.216 503.734C247.368 506.251 252.167 509.326 255.619 511.052C259.973 513.225 269.272 516.978 271.187 517.322L272.5 517.588L271.187 516.463C269.985 515.415 267.288 513.912 254.194 507.118C246.724 503.219 241.254 498.641 239.15 494.433C238.137 492.483 238.103 492.26 238.583 490.869C238.85 490.044 239.219 489.409 239.408 489.409C239.597 489.409 241.812 490.8 244.319 492.526C254.074 499.165 261.724 502.73 271.71 505.169C277.567 506.595 278.503 506.182 274.149 504.121C272.423 503.296 270.319 502.395 269.495 502.128C266.121 501.081 259.93 498.298 255.722 495.902C254.074 494.965 251.523 493.574 250.055 492.827C248.595 492.08 246.869 490.912 246.191 490.242C245.478 489.563 244.912 489.117 244.912 489.228C244.912 489.34 244.233 488.928 243.375 488.292C242.473 487.657 241.503 487.167 241.159 487.167C240.412 487.167 237.785 485.329 235.836 483.448C233.964 481.644 233.844 479.807 235.57 478.346C236.918 477.256 238.42 477.11 240.112 477.969C240.713 478.303 241.537 478.492 241.915 478.458C242.25 478.381 242.817 478.492 243.074 478.724C243.375 478.948 244.199 479.36 244.912 479.661C245.659 479.927 248.398 481.164 251.068 482.366C260.522 486.72 271.59 490.62 278.382 492.011C281.688 492.689 290.464 493.926 292.001 493.926C292.859 493.926 291.434 492.767 286.557 489.495C278.305 483.981 272.26 478.123 268.774 472.154C267.348 469.749 267.048 468.89 267.125 467.765C267.314 465.773 268.439 465.438 271.212 466.451C272.749 467.052 274.475 468.324 278.15 471.596C284.075 476.886 286.857 478.647 293.083 481.129C304.941 485.819 308.35 488.524 315.253 498.427C319.753 504.885 321.745 506.981 324.673 508.45C328.803 510.554 335.475 512.091 342.078 512.538L345.976 512.804L345.753 511.945C345.564 511.232 345.641 511.121 346.354 511.344C348.904 512.091 355.619 513.483 359.337 514.006C362.643 514.496 364.961 514.608 369.091 514.419C373.668 514.23 374.836 514.307 376.184 514.797C377.643 515.363 378.399 515.398 382.752 515.02C385.457 514.754 392.06 513.929 397.418 513.182C406.426 511.868 407.851 511.756 415.424 511.791C428.442 511.791 442.816 513.629 451.814 516.446C458.606 518.584 465.021 521.358 468.739 523.798C470.61 525 469.597 523.875 467.313 522.183C464.308 519.967 460.186 517.906 454.708 515.879C450.767 514.419 442.704 512.315 440.901 512.28C440.111 512.28 436.96 510.889 437.638 510.82C437.861 510.82 438.273 510.253 438.539 509.583C439.587 506.955 441.467 505.796 446.946 504.37C450.999 503.322 458.538 503.511 461.955 504.748C464.772 505.761 464.093 504.971 460.753 503.322C457.001 501.45 453.583 500.849 449.719 501.33C446.413 501.742 441.201 503.546 439.888 504.705C438.909 505.607 438.539 504.782 438.539 501.63C438.505 499.114 437.938 493.033 437.037 486.059C436.625 482.83 432.984 461.178 432.726 460.164C432.58 459.64 430.623 448.716 427.995 433.969C427.205 429.314 424.99 411.604 424.99 409.577C424.99 408.375 424.878 407.215 424.724 406.992C424.311 406.357 424.612 415.847 425.17 422.263C425.436 425.303 425.548 428.3 425.471 428.979L425.282 430.181L424.569 429.134C419.881 422.228 416.463 409.053 416.317 397.124L416.283 393.182L415.759 396.188C414.969 400.542 415.313 412.661 416.326 417.015C417.94 423.92 419.632 428.309 422.182 432.217C423.53 434.244 424.655 435.97 424.655 436.004C424.621 437.018 419.254 432.998 416.549 430.001C413.097 426.136 409.534 418.106 409.01 412.927C408.899 411.647 408.632 410.711 408.443 410.823C408.066 411.089 408.366 414.576 409.122 418.853C410.624 427.45 415.089 434.124 422.44 438.856C424.243 440.015 425.78 441.261 425.891 441.63C426.003 442.008 426.381 444.035 426.681 446.096C427.016 448.157 428.107 454.315 429.12 459.795C433.92 485.501 435.345 495.292 435.757 504.903L436.024 510.829H434.821C434.186 510.829 430.623 510.305 426.939 509.704C412.797 507.376 410.582 507.41 391.33 510.081C385.517 510.906 380.039 511.584 379.172 511.584C378.305 511.584 376.656 511.138 375.385 510.571C373.213 509.592 373.058 509.558 370.061 510.004C364.695 510.751 362.333 510.64 349.651 508.802C347.066 508.424 345.487 508.355 344.851 508.578C342.636 509.437 333.517 508.501 328.494 506.929C322.981 505.203 321.101 503.554 316.936 496.949C310.187 486.145 304.52 481.567 293.864 478.338C288.54 476.723 284.075 473.949 277.919 468.358C273.488 464.338 271.951 463.291 270.113 462.99C268.242 462.655 266.85 463.256 265.915 464.751C264.378 467.155 265.468 472.403 268.619 477.659C270.792 481.335 276.837 486.927 280.924 489.065C283.998 490.68 281.37 490.379 275.6 488.464C266.971 485.578 246.749 477.093 245.358 475.744C244.946 475.332 244.792 471.544 244.646 455.595C244.457 433.677 244.834 422.349 246.105 411.2C246.93 404.184 247.007 403.849 247.264 405.944C247.599 408.907 247.642 419.377 247.342 425.269C247.153 428.532 247.196 430.224 247.488 430.783C248.012 431.762 250.751 433.857 257.276 438.323C261.14 440.952 262.566 441.776 263.545 441.776C265.872 441.776 282.263 432.921 283.208 431.195C283.397 430.817 283.886 426.952 284.298 422.563C284.711 418.131 285.312 412.016 285.612 408.907C285.947 405.833 286.179 401.59 286.102 399.529L285.99 395.81L284.118 395.698C283.105 395.664 278.039 395.432 272.861 395.208C267.718 394.985 260.402 394.573 256.615 394.272C252.829 393.972 249.299 393.705 248.776 393.748H247.84L248.063 390.261C248.853 378.254 250.055 369.623 252.004 361.85C252.751 358.732 253.352 356.225 253.284 356.225C253.215 356.225 252.648 357.272 252.047 358.552C249.042 365.08 246.346 379.234 245.066 395.707C244.688 400.396 244.276 404.115 244.165 403.96C243.718 403.393 241.537 395.741 241.125 393.379C240.524 389.514 240.636 380.805 241.348 378.22C241.683 376.983 241.872 375.927 241.795 375.815C241.606 375.669 240.704 378.555 239.992 381.741C239.356 384.404 239.391 394.015 239.992 396.866C240.258 398.068 241.151 401.109 242.018 403.617C243.632 408.572 243.667 408.873 242.696 417.015C241.949 423.242 241.417 450.073 241.872 460.207C242.095 465.609 242.25 470.119 242.173 470.153C242.138 470.23 240.859 469.775 239.356 469.139C235.715 467.602 231.405 467.001 228.443 467.602C226.227 468.049 222.286 469.517 222.552 469.775C222.629 469.852 223.754 469.663 225.068 469.328C229.233 468.238 234.9 469.363 240 472.257C241.692 473.193 241.949 473.494 241.872 474.361C241.76 475.297 241.606 475.375 238.91 475.564C235.724 475.83 234.11 476.5 232.753 478.304C231.062 480.476 231.139 481.421 233.165 484.341C234.445 486.179 235.458 487.193 236.428 487.682L237.888 488.361L237.622 490.121C237.433 491.058 237.321 492.526 237.321 493.273C237.356 495.034 238.97 498.452 240.696 500.368C241.443 501.192 241.898 502.06 241.786 502.36C241.675 502.661 241.821 504.387 242.164 506.225C242.842 510.013 242.731 513.019 241.597 522.853C239.983 536.586 239.536 545.183 238.712 576.326C238.034 602.22 238 619.295 238.523 619.295C238.747 619.295 239.09 618.659 239.27 617.869M273.969 434.51C278.769 432.037 282.744 429.932 282.787 429.898C282.864 429.821 283.088 427.27 283.277 424.195C283.5 421.12 284.067 414.816 284.556 410.196C285.045 405.541 285.535 400.628 285.647 399.314L285.835 396.875L276.571 396.84C267.417 396.84 260.548 396.316 251.807 394.968C249.858 394.667 248.166 394.521 248.054 394.633C247.642 395.045 247.831 404.244 248.355 408.521C248.733 411.484 248.767 414.98 248.578 421.163L248.312 429.683L250.072 430.731C251.051 431.298 254.271 433.394 257.242 435.42C261.518 438.306 262.909 439.096 263.922 439.096C264.936 439.096 267.675 437.817 273.977 434.519M276.218 404.218C276.742 404.029 274.269 403.84 269.727 403.651C265.708 403.539 261.51 403.316 260.35 403.239L258.29 403.05L260.282 403.617C262.531 404.252 274.879 404.707 276.227 404.218" fill="#09151F"/>
<path fill-rule="evenodd" clip-rule="evenodd" d="M484.45 566.226C485.541 564.946 488.168 561.949 490.307 559.544C496.343 552.828 497.322 551.625 498.49 549.409L499.537 547.348V526.71C499.537 499.767 498.601 485.957 495.038 460.285C491.809 437.285 487.387 413.073 483.592 397.992C479.616 382.266 475.641 370.86 470.763 361.25C465.208 350.256 457.935 340.8 451.478 336.179C447.425 333.251 437.525 327.281 433.06 325.031C425.109 321.055 403.53 311.487 396.369 308.782C392.394 307.244 383.464 304.35 382.828 304.35C382.193 304.35 382.193 304.049 382.862 302.057C384.734 296.8 382.004 290.273 372.284 276.875C367.853 270.76 365.457 268.544 362.864 267.977C361.774 267.754 360.237 267.642 359.447 267.788L358.021 268.011L357.609 266.173C356.931 262.944 355.694 255.137 354.759 248.051C353.179 236.122 353.179 236.714 354.535 232.248C356.407 226.133 359.524 218.627 363.611 210.184C365.715 205.907 368.978 198.478 370.893 193.634C372.808 188.755 375.358 182.451 376.594 179.557C381.772 167.438 383.008 161.469 383.12 147.848C383.232 138.838 383.197 138.538 382.184 134.905C381.617 132.843 380.235 129.202 379.067 126.84C377.195 122.941 376.629 122.15 373.555 119.11C370.249 115.803 369.201 115.168 365.372 113.931C365.037 113.819 363.946 112.17 362.933 110.255C359.069 102.637 351.719 97.6127 345.863 98.5488C344.583 98.7378 344.437 98.6948 344.403 98.0593C344.403 96.9342 345.751 95.7661 347.52 95.2852C349.512 94.7183 352.775 95.2852 355.403 96.5649C357.429 97.5783 357.652 97.3894 356.15 95.9637C354.647 94.5036 351.719 93.3785 349.057 93.1466C346.284 92.9233 345.382 93.1122 343.579 94.3061L342.231 95.2422L341.664 94.4177C341.363 93.9711 340.427 92.2018 339.603 90.5185C337.843 87.0315 335.705 84.704 330.939 81.0967C323.512 75.5055 315.106 72.7658 305.205 72.7658C299.95 72.8001 297.1 73.2124 291.51 74.9043L288.324 75.8405L282.322 73.9252C271.7 70.507 263.26 69.6824 255.042 71.2971C240.376 74.1142 229.532 82.4451 221.761 96.8569C219.958 100.232 219.7 100.498 216.317 101.847C211.173 103.985 205.961 108.374 203.411 112.651C200.706 117.195 198.422 124.658 197.899 130.404C197.409 135.961 199.058 142.789 202.286 148.457C205.36 153.937 213.131 160.542 222.284 165.497C229.111 169.139 231.85 170.788 232.005 171.389C232.116 171.767 232.305 173.416 232.417 175.065C233.164 184.263 235.345 197.507 237.706 207.41C240.522 219.116 243.03 226.889 246.748 235.289C252.672 248.575 258.717 257.696 267.124 266.062C276.088 275.028 282.923 278.893 289.818 278.893C293.536 278.893 295.854 278.069 300.208 275.251C303.66 273.001 303.625 273.001 304.295 275.999C304.707 277.837 304.707 277.914 303.136 280.688C302.277 282.225 300.251 285.42 298.671 287.817C295.631 292.36 293.004 296.86 290.453 301.928L288.916 304.968L287.268 304.779C284.417 304.479 275.899 306.772 265.432 310.671C253.986 314.983 247.383 318.779 241.982 324.215C229.377 336.935 220.224 362.418 215.948 396.832C214.857 405.498 214.634 408.281 213.097 429.297C211.938 445.246 210.693 472.344 211.148 471.931C211.671 471.364 213.286 457.932 214.6 442.618C214.823 440.145 215.166 436.237 215.389 433.987C215.578 431.694 216.179 424.943 216.703 418.974C218.841 394.427 221.014 380.059 224.732 366.059C227.883 354.276 233.327 341.401 238.462 333.594C240.866 329.918 246.301 324.473 250.054 321.956C253.428 319.663 260.744 316.099 267.124 313.548C271.812 311.676 283.404 308.223 286.555 307.734C288.805 307.356 288.659 307.132 289.294 311.633C289.518 313.282 290.273 317.001 290.986 319.887C292.634 326.526 295.262 339.555 295.262 340.826C295.262 342.286 295.94 343.711 296.61 343.711C297.1 343.711 304.604 337.966 310.383 333.165L311.774 332.005L312.152 332.864C312.341 333.354 313.131 335.527 313.878 337.708C314.625 339.847 316.093 343.866 317.106 346.64L318.944 351.63L318.008 355.083C313.62 371.221 311.259 393.397 309.155 438.092C308.82 445.264 308.709 471.493 309.009 470.179C309.086 469.844 309.421 464.287 309.756 457.794C310.993 432.879 312.873 405.928 314.444 389.867C315.423 379.887 316.66 371.401 318.721 360.897C320.592 351.141 320.859 350.428 327.539 336.583C329.978 331.516 332.451 326.38 333.017 325.177C333.696 323.717 334.408 322.738 335.155 322.36C337.671 320.969 342.961 316.58 346.301 313.05C353.471 305.509 358.305 297.436 361.499 287.757C363.792 280.74 364.238 278.034 362.323 282.724C360.408 287.379 360.22 287.602 360.22 285.085C360.22 283.926 359.885 281.066 359.473 278.704C359.095 276.377 358.648 273.637 358.537 272.666L358.27 270.906H360.632C362.323 270.906 363.371 271.095 364.195 271.618C365.432 272.366 373.804 283.256 377.29 288.727C380.029 292.97 381.643 296.38 381.866 298.449C382.012 299.763 381.755 300.665 380.518 303.474C379.66 305.346 378.981 307.004 378.938 307.115C378.938 307.794 373.795 316.125 370.275 321.226C363.972 330.348 356.845 338.979 352.457 342.844C351.178 343.969 350.019 345.137 349.907 345.429C349.572 346.288 350.096 347.078 351.032 347.078C352.311 347.078 361.353 337.657 366.754 330.751C369.983 326.586 376.62 316.64 379.17 312.14C380.329 310.078 381.343 308.421 381.42 308.421C381.832 308.421 394.48 313.299 398.825 315.171C405.351 317.911 416.161 322.901 425.649 327.522C448.164 338.438 456.381 345.343 465.646 360.957C474.353 375.627 481.024 398.67 487.928 437.697C492.316 462.767 495.209 487.983 497.124 518.19C498.438 539.129 498.704 544.497 498.472 545.356C498.026 547.159 494.986 551.548 491.346 555.713C486.202 561.528 484.519 563.709 483.24 566.26C482.639 567.463 482.227 568.476 482.304 568.476C482.415 568.476 483.394 567.428 484.476 566.149M320.833 346.314C321.434 343.651 321.022 334.53 320.086 329.128C319.373 325.229 318.025 318.959 316.969 315.094L316.591 313.634L314.788 316.597C313.775 318.212 312.427 320.127 311.783 320.874C310.357 322.412 310.623 321.853 312.607 318.847C314.067 316.709 314.968 314.648 315.913 311.564C316.325 310.139 316.291 309.537 315.166 305.183C312.092 293.21 308.485 281.762 307.627 281.238C307.137 280.937 301.513 288.967 297.761 295.237C293.862 301.808 291.681 306.231 291.381 308.258C291.115 310.096 291.647 313.96 292.806 318.616C293.296 320.565 294.154 324.774 294.678 327.994C295.245 331.181 296.026 335.277 296.438 337.072L297.185 340.336L299.701 338.344C304.089 334.891 307.695 332.417 309.49 331.627C310.426 331.215 311.25 330.803 311.327 330.768C311.705 330.434 309.748 328.183 304.046 322.171C298.078 315.902 296.129 313.729 296.507 313.729C296.619 313.729 298.267 315.008 300.182 316.58C304.647 320.333 309.79 325.435 311.327 327.685C312.341 329.188 314.891 335.381 319.055 346.64C319.356 347.499 319.802 348.255 319.991 348.255C320.215 348.255 320.592 347.353 320.816 346.305M300.757 301.06C301.324 300.081 302.595 298.054 303.574 296.56C304.587 295.057 305.334 293.854 305.222 293.854C304.888 293.854 301.247 299.179 300.311 301.06C299.787 302.039 299.487 302.864 299.564 302.864C299.675 302.864 300.199 302.039 300.766 301.06M324.465 340.654C325.143 338.481 331.145 324.293 332.493 321.819C333.395 320.17 334.966 318.59 335.533 318.813C336.169 319.079 343.785 311.831 347.28 307.631C353.616 300.013 359.885 289.131 358.726 287.662C357.79 286.537 354.484 270.888 351.599 253.892C349.761 243.267 348.525 229.611 348.525 220.267V214.298L347.511 214.264C346.945 214.264 345.751 213.851 344.884 213.405L343.27 212.58L346.155 212.503C349.572 212.426 350.396 212.125 354.338 209.574C359.515 206.199 361.842 203.382 363.233 198.77C364.324 195.205 364.092 190.516 362.71 187.811C359.936 182.365 353.29 179.857 347.331 181.953C342.832 183.533 339.638 186.531 337.877 190.808L337.276 192.268L332.7 192.002C330.184 191.856 327.41 191.667 326.586 191.512L325.083 191.289L325.229 188.472C325.452 184.195 324.628 176.688 323.581 173.347C322.001 168.435 317.956 163.737 313.448 161.71C311.31 160.731 311.01 160.473 310.709 159.193C310.031 156.531 309.396 143.957 309.619 137.43C309.73 133.865 309.765 130.971 309.73 130.937C309.696 130.937 307.927 131.538 305.866 132.251C303.806 132.964 300.088 133.9 297.649 134.312C289.809 135.66 279.119 135.772 277.393 134.535C276.792 134.089 276.827 133.968 277.994 133.256C278.707 132.843 279.943 132.397 280.768 132.242C281.592 132.096 282.872 131.718 283.584 131.418L284.932 130.816L283.619 130.516C282.906 130.327 280.545 130.138 278.364 130.138C274.723 130.061 274.122 130.172 270.301 131.452C265.458 133.144 259.087 136.107 257.395 137.567L256.159 138.58L256.459 137.301C256.794 135.72 259.765 129.717 261.001 128.068L261.937 126.866L260.512 126.453C258.451 125.886 257.395 125.964 254.51 126.866C247.795 128.927 241.939 133.548 238.341 139.585C236.693 142.325 234.1 151.781 234.1 155.011C234.1 155.689 234.211 155.689 235.336 154.822C236.014 154.298 237.251 153.696 238.075 153.508C238.9 153.284 240.291 152.906 241.149 152.649C244.266 151.713 248.087 153.439 249.89 156.591C250.491 157.639 250.981 158.618 250.981 158.764C250.981 158.875 250.122 158.729 249.032 158.463C247.984 158.197 246.404 157.974 245.614 157.974C243.665 157.974 239.389 160.078 236.839 162.285L234.847 164.011V166.373C234.847 169.147 236.349 181.575 237.697 190.052C239.423 200.676 244.034 218.232 247.787 228.332C250.749 236.25 256.382 246.196 262.152 253.737C268.566 262.145 275.169 268.071 281.549 271.146C289.578 275.011 294.008 274.865 301.805 270.433C306.193 267.994 308.82 265.933 311.937 262.592C315.878 258.349 319.03 252.835 320.979 246.909L321.657 244.848L323.649 248.979C326.311 254.493 326.912 257.31 326.689 263.348C326.5 268.862 325.53 272.391 322.791 277.682C320.618 281.925 318.927 284.098 316.454 286.013C313.903 288.006 313.869 288.341 315.887 296.148C318.137 304.925 320.318 316.151 321.511 325.117C322.224 330.408 323.014 338.593 323.014 340.62C323.014 341.71 323.203 342.681 323.392 342.793C323.615 342.87 324.104 341.891 324.482 340.62M298.619 246.72C299.856 246.342 302.406 243.568 303.351 241.541C304.699 238.69 305.111 235.95 304.93 231.707C304.819 228.701 304.596 227.542 303.806 225.815C302.681 223.342 302.303 223.041 302.827 225.068C303.05 225.858 303.162 228.632 303.05 231.527C302.938 235.615 302.715 237.041 302.071 238.767C301.092 241.24 298.396 244.393 296.327 245.449C295.502 245.861 294.936 246.385 295.047 246.574C295.271 246.952 297.452 247.064 298.611 246.72M275.994 237.899C276.105 237.676 276.14 237.453 276.071 237.376C275.994 237.341 274.491 236.328 272.731 235.203C265.449 230.436 262.71 225.893 261.817 217.149C261.405 213.319 261.482 212.082 262.229 205.065C263.243 195.987 263.131 190.207 261.894 182.211C261.482 179.505 260.847 174.859 260.546 171.887C260.211 168.881 259.688 164.836 259.422 162.878C259.072 160.502 258.946 162.002 259.044 167.378C259.155 173.047 259.49 177.624 260.169 182.915C261.328 191.959 261.371 195.145 260.315 203.931C259.413 211.696 259.525 219.614 260.538 223.479C261.362 226.554 263.423 230.608 265.226 232.712C267.141 234.885 270.103 236.877 272.653 237.668C274.946 238.38 275.659 238.415 275.994 237.891M345.219 201.235C346.799 193.05 353.994 188.884 358.502 193.539C359.593 194.664 359.782 194.742 359.782 194.14C359.782 193.015 358.202 190.198 357.12 189.374C356.596 188.996 355.36 188.584 354.415 188.472C349.237 187.905 344.437 193.35 344.171 200.109C344.025 203.639 344.618 204.275 345.219 201.235ZM250.217 201.089C251.075 198.46 250.406 191.598 249.315 191.598C248.568 191.598 247.89 193.814 247.924 196.142C247.958 197.868 248.225 199.027 248.903 200.419L249.839 202.291L250.217 201.089ZM286.65 196.734C286.873 196.167 286.95 194.896 286.796 193.848C286.495 191.409 283.121 184.281 282.253 184.281C281.317 184.281 281.841 187.845 283.455 192.534C285.447 198.28 285.86 198.804 286.641 196.734M297.752 167.352C297.864 167.129 297.34 165.66 296.55 164.089C293.399 157.707 286.383 152.872 279.926 152.64C276.698 152.494 275.685 153.842 277.041 156.393C278.054 158.386 279.257 159.133 281.953 159.511C284.958 159.958 288.779 161.839 293.845 165.437C295.648 166.717 297.22 167.765 297.297 167.765C297.409 167.765 297.598 167.576 297.744 167.352" fill="#09151F"/>
<path fill-rule="evenodd" clip-rule="evenodd" d="M237.656 555.421C237.545 555.197 236.832 555.009 236.042 555.009C233.569 555.009 229.885 554.261 224.038 552.569C216.868 550.465 213.536 549.082 206.667 545.441C200.588 542.177 198.785 541.009 197.136 539.248C196.157 538.201 196.123 538.089 196.836 538.312C197.995 538.647 200.064 537.522 202.992 534.937C206.444 531.896 207.011 530.737 207.68 525.893C207.981 523.643 208.204 521.582 208.204 521.315C208.204 521.049 207.457 522.329 206.513 524.201C203.327 530.582 201.97 531.106 189.331 530.84C180.667 530.651 176.837 530.205 174.699 529.079L173.875 528.667L174.622 529.492C176.649 531.742 180.624 533.133 186.626 533.623C189.331 533.889 191.692 534.336 193.375 534.937C196.192 535.95 199.454 536.174 200.768 535.504C202.116 534.756 201.927 535.426 200.502 536.294C198.553 537.496 196.037 537.72 194.989 536.74C193.641 535.538 192.439 535.014 191.984 535.461C191.46 535.985 193.186 539.403 194.869 541.207C201.172 547.957 214.043 554.416 223.231 555.429C227.696 555.919 237.897 555.919 237.639 555.429" fill="#09151F"/>
<path fill-rule="evenodd" clip-rule="evenodd" d="M371.367 550.801C372.569 549.521 374.183 547.571 374.93 546.524L376.321 544.608L378.082 545.132C385.286 547.305 405.885 551.703 408.547 551.625C408.882 551.625 402.021 549.822 393.349 547.649C384.685 545.51 377.438 543.561 377.292 543.372C377.068 543.183 377.18 542.169 377.515 540.898C378.906 535.908 379.387 523.034 378.262 521.084C377.961 520.56 377.815 522.321 377.695 527.835C377.395 539.395 376.716 541.645 370.98 549.676C369.778 551.368 368.877 552.862 368.954 552.982C369.066 553.06 370.156 552.08 371.358 550.809" fill="#09151F"/>
<path fill-rule="evenodd" clip-rule="evenodd" d="M232.513 538.27C231.234 537.746 228.761 536.878 227.035 536.432C225.275 535.942 223.772 535.453 223.695 535.341C223.583 535.229 223.729 534.852 224.03 534.482C224.33 534.113 225.008 532.49 225.489 530.841C226.279 528.213 226.391 527.087 226.391 522.209C226.391 517.331 226.279 516.283 225.378 513.543C224.811 511.894 224.098 510.202 223.798 509.79C223.308 509.111 223.308 509.189 223.609 510.58C224.957 516.738 224.699 524.391 222.93 530.282C222.407 532.009 221.952 533.847 221.917 534.302C221.917 534.748 221.694 535.161 221.428 535.161C220.715 535.161 220.861 536.174 221.617 536.586C221.995 536.775 223.119 537.033 224.133 537.153C225.146 537.299 227.619 537.832 229.645 538.356C234.411 539.558 235.458 539.515 232.496 538.278" fill="#09151F"/>
<path fill-rule="evenodd" clip-rule="evenodd" d="M177.548 525.662C184.486 521.531 186.744 519.882 189.896 516.764L192.746 513.947L196.645 514.583C198.783 514.961 202.612 515.742 205.162 516.386C212.556 518.147 214.882 517.846 218.369 514.626C220.919 512.221 222.31 509.481 221.966 507.342L221.743 505.951L227.823 505.762C234.091 505.573 236.864 505.049 235.516 504.302C234.803 503.924 221.108 503.1 220.584 503.443C220.438 503.521 220.395 504.01 220.472 504.457C220.584 504.903 220.249 504.379 219.76 503.254C219.27 502.095 216.875 497.028 214.436 491.995C203.402 469.029 201.307 464.597 197.331 455.965C191.664 443.503 190.394 441.141 188.255 439.003C185.027 435.773 182.288 434.76 172.387 433.034C165.638 431.874 161.766 431.041 152.312 428.722C145.743 427.073 143.416 426.807 141.244 427.442C138.951 428.078 136.066 430.706 135.242 432.888C134.34 435.249 134.83 437.13 138.127 444.147C139.587 447.222 141.355 451.053 142.102 452.624L143.416 455.51L141.579 458.628C140.231 460.955 138.573 462.905 135.242 466.246C129.686 471.76 129.085 472.928 129.729 477.016C129.952 478.442 130.631 480.546 131.189 481.671C132.237 483.664 135.843 488.31 136.143 488.009C136.221 487.932 135.285 486.171 134.005 484.067C129.54 476.638 130.064 473.263 136.367 468.831C138.728 467.182 139.183 466.615 141.811 462.226C143.348 459.598 144.85 457.46 145.073 457.46C145.786 457.425 147.813 460.122 148.302 461.702C148.637 462.793 148.603 463.652 148.225 465.456C147.512 469.02 145.64 473.52 144.206 475.101C143.528 475.848 142.927 476.638 142.927 476.827C142.927 477.016 142.214 478.064 141.313 479.155C139.209 481.671 138.05 484.067 138.307 485.124C138.53 486.025 137.26 490.638 136.135 492.776C134.976 495.104 135.388 494.949 136.77 492.553C137.483 491.316 138.385 489.178 138.797 487.821C139.587 485.158 140.222 484.333 142.661 482.642C145.7 480.58 149.04 479.155 154.888 477.463C160.177 475.96 161.156 475.814 164.677 475.814C171.546 475.814 177.883 478.287 175.856 480.168C175.59 480.434 172.482 481.405 168.876 482.384C161.148 484.488 153.196 487.151 150.638 488.542C147.71 490.122 144.747 493.274 143.167 496.495C141.476 499.87 140.428 504.603 140.995 506.14C141.33 507.076 141.373 507.042 141.407 505.393C141.407 503.967 141.742 503.065 142.987 501.081C145.202 497.517 147.229 495.001 149.066 493.541C154.055 489.487 174.465 482.624 181.524 482.624C182.949 482.624 184.563 483.904 184.563 485.064C184.563 485.776 184.039 486.343 182.047 487.614C177.771 490.354 174.131 492.226 169.365 494.073C164.153 496.1 156.193 499.819 154.51 501.013C152.518 502.438 149.066 508.107 148.396 511.104C147.718 514.033 147.649 518.533 148.208 520.526C148.585 521.952 150.234 523.833 150.681 523.377C150.827 523.231 150.535 522.699 149.968 522.175C147.34 519.736 148.989 510.958 152.896 506.638C154.733 504.611 158.262 502.55 165.501 499.286C168.652 497.861 172.439 496.057 173.864 495.267C183.353 490.088 186.624 489.109 188.462 490.955C189.741 492.235 189.475 492.982 186.701 495.945C184.151 498.651 182.425 499.699 169.743 506.114C165.844 508.064 161.603 510.426 160.366 511.328C157.782 513.166 154.699 516.24 155.043 516.618C155.42 516.953 158.117 515.794 161.233 513.878C162.77 512.942 167.235 510.615 171.142 508.665C175.041 506.75 179.137 504.534 180.184 503.752L182.099 502.327L181.386 503.606C180.038 505.934 177.368 508.519 173.023 511.748C168.111 515.39 166.686 516.661 164.96 518.843L163.801 520.346L165.673 518.697C166.686 517.795 168.111 516.781 168.824 516.446C169.571 516.111 171.263 514.986 172.576 513.93C176.518 510.812 178.278 509.653 179.033 509.653C179.411 509.653 180.347 509.953 181.137 510.366C181.884 510.778 184.323 511.645 186.461 512.281C188.633 512.916 190.479 513.518 190.548 513.561C190.814 513.861 187.543 516.567 184.211 518.851C180.983 521.024 172.808 525.233 170.327 525.945C169.837 526.134 168.489 526.581 167.321 527.036C165.372 527.783 165.329 527.826 166.308 528.127C166.875 528.273 168.601 528.428 170.138 528.428H172.954L177.565 525.688M217.355 507.274C217.132 506.372 209.628 491.058 199.461 470.609C195.898 463.48 191.922 455.338 190.608 452.487C189.294 449.635 188.024 447.162 187.757 446.93C186.555 445.917 198.714 471.476 211.319 496.392C216.608 506.896 217.888 509.189 217.355 507.274ZM145.846 477.66C146.181 477.394 148.173 476.647 150.234 475.968C152.295 475.29 153.986 474.62 153.952 474.431C153.918 474.285 152.939 472.292 151.814 470.042L149.788 465.911L149.753 467.637C149.753 469.475 147.993 474.388 146.714 476.191C146.301 476.758 145.477 477.428 144.842 477.652C144.052 477.952 143.94 478.098 144.429 478.098C144.842 478.098 145.477 477.875 145.855 477.652M166.849 459.512C166.849 456.12 164.66 452.186 161.062 451.611C160.083 451.456 158.941 451.894 158.623 452.839C158.443 453.38 158.563 453.973 158.752 454.514C159.396 456.395 160.298 458.499 161.603 459.976C165.784 463.832 166.351 463.171 166.849 459.512ZM178.939 440.995C178.939 440.282 177.102 439.08 174.886 438.333C173.572 437.886 170.455 437.096 167.983 436.606C165.467 436.083 162.77 435.516 161.946 435.292C161.122 435.069 159.654 434.726 158.718 434.58C157.782 434.391 154.854 433.832 152.192 433.265C149.53 432.742 147.28 432.329 147.203 432.441C147.091 432.518 147.916 432.819 149.006 433.042C150.131 433.308 153.548 434.167 156.622 434.957C164.239 436.907 172.868 438.977 174.517 439.235C175.264 439.346 176.32 439.87 176.844 440.394C177.823 441.296 178.948 441.631 178.948 440.995" fill="#09151F"/>
<path fill-rule="evenodd" clip-rule="evenodd" d="M147.049 513.388C147.049 513.2 146.113 512.298 144.945 511.396C143.786 510.537 142.507 509.292 142.129 508.691L141.45 507.565V508.545C141.45 509.111 141.863 510.082 142.352 510.717C143.331 511.92 147.04 514.024 147.04 513.38" fill="#09151F"/>
<path fill-rule="evenodd" clip-rule="evenodd" d="M319.108 447.419C319.297 439.612 320.645 415.143 320.98 413.571C321.057 413.047 321.47 409.672 321.882 406.065C322.294 402.423 322.895 397.545 323.23 395.183C323.53 392.778 324.277 386.586 324.921 381.373C325.522 376.116 326.458 368.953 326.982 365.423C328.373 356.191 328.407 355.933 328.184 356.156C327.583 356.68 324.878 370.079 323.985 376.795C322.405 388.69 319.821 415.822 319.297 425.578C318.885 434.244 318.438 454.848 318.696 454.848C318.808 454.848 318.997 451.507 319.108 447.419Z" fill="#09151F"/>
<path fill-rule="evenodd" clip-rule="evenodd" d="M423.933 372.998C425.925 367.931 432.151 361.069 437.062 358.63C438.565 357.882 439.535 357.281 439.234 357.281C438.934 357.281 437.285 357.96 435.594 358.819C430.227 361.481 425.127 367.339 423.366 372.775C422.619 375.18 423.032 375.326 423.933 372.998Z" fill="#09151F"/>
<path fill-rule="evenodd" clip-rule="evenodd" d="M350.398 343.428C350.398 341.366 345.367 334.195 341.168 330.253C338.017 327.29 337.57 327.324 340.455 330.33C343.718 333.671 348.338 339.975 349.05 342.002C349.84 344.252 350.398 344.853 350.398 343.428Z" fill="#09151F"/>
<path fill-rule="evenodd" clip-rule="evenodd" d="M342.782 93.6098C343.383 91.0933 342.035 86.5155 340.008 84.3426C338.66 82.9169 338.171 83.0286 339.296 84.5316C340.91 86.7045 341.769 88.886 342.146 91.7718C342.447 93.7644 342.593 94.2883 342.782 93.6098Z" fill="#09151F"/>
<path d="M433.148 77.5695C434.334 69.3314 441.945 63.6115 450.133 64.8045L485.692 69.9856C493.881 71.1786 499.566 78.8356 498.38 87.0737C497.194 95.3118 489.584 101.032 481.396 99.8387L445.836 94.6577C437.648 93.4647 431.963 85.8076 433.148 77.5695Z" fill="white"/>
<path d="M438.96 74.6726C440.947 70.7207 445.515 68.2601 449.888 68.7956C454.26 69.3311 458.114 72.8288 459.091 77.14C469.884 78.2584 480.63 79.8243 491.302 81.8307C492.738 82.0951 494.193 82.3798 495.507 83.0441C496.82 83.7016 497.979 84.7794 498.424 86.1758C499.232 80.4208 495.628 74.354 490.211 72.334C487.914 71.4799 485.441 71.3036 483.002 71.0664C472.552 70.0496 462.271 67.7381 451.929 65.935C450.359 65.6639 448.776 65.3927 447.179 65.4198C443.966 65.4673 440.88 66.7823 438.414 68.8227C437.161 69.8598 436.063 71.0732 435.153 72.4221C434.506 73.3711 433.024 75.3979 433.233 76.5909C434.075 75.9402 434.91 75.3436 435.935 74.9979C436.231 74.8963 438.993 74.6455 438.973 74.6793H438.966L438.96 74.6726Z" fill="#E3E7F6"/>
<path d="M448.519 90.6024C454.443 90.6024 459.245 85.7709 459.245 79.811C459.245 73.851 454.443 69.0195 448.519 69.0195C442.595 69.0195 437.793 73.851 437.793 79.811C437.793 85.7709 442.595 90.6024 448.519 90.6024Z" fill="white"/>
<path d="M517.071 75.4312C517.307 75.838 517.731 76.1565 518.082 76.4684C518.432 76.7802 518.796 77.1123 519.153 77.4309C519.84 78.0342 520.601 78.5087 521.39 78.9764C521.464 79.0239 521.484 78.8069 521.457 78.7663C520.817 77.9867 520.17 77.214 519.422 76.5361C519.065 76.2243 518.708 75.9057 518.344 75.6007C518.162 75.4516 517.987 75.2957 517.799 75.1398C517.61 74.9839 517.448 74.8347 517.233 74.7737C517.017 74.7127 517.017 75.3363 517.071 75.438H517.064L517.071 75.4312Z" fill="#12415D"/>
<path d="M502.264 79.6888C502.096 80.4412 501.961 81.1936 501.833 81.946C501.705 82.6984 501.611 83.3899 501.624 84.122C501.624 84.2507 501.712 84.3524 501.786 84.1965C502.069 83.5525 502.224 82.8747 502.365 82.1833C502.52 81.4309 502.662 80.6717 502.776 79.9125C502.803 79.7498 502.817 79.3499 502.615 79.2685C502.413 79.1872 502.298 79.5532 502.264 79.6752V79.6888Z" fill="#12415D"/>
<path d="M450.939 64.5518C442.335 62.7555 433.61 69.1748 432.519 77.9056C431.987 82.1354 433.267 86.4194 435.935 89.707C437.323 91.422 439.068 92.8319 441.035 93.8284C443.252 94.9604 445.556 95.3671 448.002 95.6789C454.382 96.4788 460.755 97.3193 467.149 98.0175C470.289 98.3564 473.415 98.7767 476.541 99.1766C479.229 99.5156 482.025 100.126 484.741 99.9494C488.945 99.6715 492.98 97.6311 495.642 94.33C498.559 90.7035 499.502 85.8093 498.876 81.2542C498.289 77.0379 495.864 73.0521 492.334 70.6864C490.258 69.2968 488.123 68.6596 485.677 68.3207C482.504 67.8868 479.297 67.6021 476.11 67.2632C474.513 67.0938 472.91 66.9853 471.313 66.8701C471.016 66.8497 470.855 68.1241 471.158 68.1919C474.075 68.8223 476.993 69.3646 479.93 69.9001C481.338 70.1577 482.733 70.4424 484.148 70.6728C485.441 70.8897 486.789 70.9711 488.055 71.3643C491.889 72.5641 495.231 75.4246 496.928 79.1053C498.626 82.7861 498.613 87.1312 496.464 90.8119C494.314 94.4927 490.885 97.0075 486.903 97.8345C484.68 98.2954 482.544 98.0514 480.314 97.7735C477.478 97.421 474.648 97.055 471.811 96.7025C466.024 95.9772 460.25 95.1434 454.463 94.4045C451.646 94.0453 448.81 93.7809 446.007 93.32C443.905 92.9743 441.897 92.2083 440.112 91.0491C436.764 88.8868 434.291 85.4569 433.469 81.5253C432.519 76.9566 434.641 72.442 437.963 69.3849C441.453 66.1651 446.189 64.9924 450.831 65.5144C451.067 65.5415 451.188 64.6128 450.946 64.5586H450.959L450.939 64.5518Z" fill="#12415D"/>
<path d="M437.982 78.3264C438.407 76.2047 439.256 74.2525 440.738 72.6596C442.213 71.0666 444.019 70.0227 446.033 69.4804C450.244 68.3484 454.752 70.0498 457.224 73.6628C458.423 75.4116 459.097 77.5401 459.084 79.6686C459.07 81.797 458.248 83.878 456.948 85.5456C454.26 88.9823 449.692 90.6159 445.515 89.2331C441.337 87.8503 438.42 84.1085 438.036 79.8584C437.989 79.3161 437.989 78.7602 438.002 78.218C438.002 78.001 437.854 77.9807 437.82 78.1909C436.992 82.7596 439.72 87.6402 443.736 89.7279C447.751 91.8157 453.02 91.0226 456.301 87.6876C459.582 84.3525 460.586 78.8213 458.605 74.4559C456.625 70.0905 452.198 67.3858 447.529 68.0501C442.86 68.7144 439.074 72.1512 438.036 76.625C437.908 77.1808 437.841 77.7367 437.82 78.3061C437.82 78.4891 437.942 78.5094 437.982 78.3332H437.975L437.982 78.3264Z" fill="#12415D"/>
<path d="M501.436 70.1439C508.736 70.1439 514.654 64.1896 514.654 56.8444C514.654 49.4993 508.736 43.5449 501.436 43.5449C494.135 43.5449 488.217 49.4993 488.217 56.8444C488.217 64.1896 494.135 70.1439 501.436 70.1439Z" fill="white"/>
<path d="M504.634 39.1185L462.182 32.9297C452.44 31.5129 443.317 38.3661 441.909 48.1678C440.501 57.9696 447.312 67.1478 457.055 68.5645L499.507 74.7533C509.249 76.17 518.372 69.3169 519.78 59.5151C521.188 49.7133 514.376 40.5352 504.634 39.1185ZM499.601 69.5881C492.608 68.5713 487.757 62.0368 488.768 54.9938C489.778 47.9577 496.273 43.0771 503.273 44.0939C510.273 45.1107 515.118 51.6452 514.107 58.6881C513.096 65.7243 506.601 70.6048 499.601 69.5881Z" fill="#12415D"/>
<path d="M503.066 49.5512C501.846 50.1071 500.802 50.9747 499.852 51.9237C499.144 52.6287 498.484 53.3947 498.046 54.2962C496.928 56.5874 497.487 59.5089 499.151 61.4273C500.815 63.3456 503.436 64.2946 505.969 64.2132C503.308 66.0909 499.576 66.3078 496.726 64.7352C493.876 63.1626 492.036 59.8953 492.164 56.628C492.212 55.557 492.447 54.4928 492.764 53.4625C493.074 52.4728 493.465 51.4899 494.085 50.6629C495.533 48.7175 498.019 47.8701 500.404 47.4973C501.341 47.3482 502.298 47.2601 503.241 47.3685C504.46 47.5109 505.963 48.0125 506.805 48.9547C505.707 49.3818 504.292 48.9954 503.059 49.558H503.066V49.5512Z" fill="#E3E7F6"/>
<path d="M450.695 78.6716C450.506 75.9941 448.492 73.5741 445.648 72.72C446.1 72.5573 449.293 71.4389 452.352 73.2759C455.081 74.9095 456.536 78.17 455.984 81.3084C455.93 81.6135 455.101 85.8162 451.173 87.1448C447.548 88.3649 444.537 86.0399 444.314 85.8636C448.202 85.3959 450.924 82.0676 450.688 78.6784H450.681L450.695 78.6716Z" fill="#E3E7F6"/>
<path d="M508.111 50.2019C507.559 49.6054 507.108 48.9614 506.441 48.4733C505.868 48.0598 505.201 47.748 504.541 47.4904C503.213 46.9753 501.751 46.7584 500.337 46.9075C497.419 47.2193 494.798 48.9343 493.316 51.483C490.493 56.3839 491.901 63.0811 497.15 65.5959C500.182 67.0533 503.456 66.7347 506.252 64.8978C506.346 64.8368 506.407 64.3961 506.252 64.4436C501.671 66.1111 495.681 64.7825 493.363 60.146C490.81 55.035 494.529 49.1105 499.878 48.1547C501.286 47.8971 502.748 47.9514 504.13 48.3242C504.851 48.514 505.511 48.8123 506.171 49.158C506.831 49.5037 507.539 49.7748 508.078 50.2629C508.091 50.2697 508.105 50.2086 508.091 50.1883H508.105L508.111 50.2019Z" fill="#12415D"/>
<path d="M521.236 62.3689L521.182 62.3283C521.135 62.2944 521.128 62.4503 521.135 62.4774C521.223 62.735 521.303 62.7485 521.58 62.8299C521.856 62.9112 522.098 62.9383 522.361 62.979C522.853 63.0604 523.345 63.1214 523.837 63.1824C524.868 63.3179 525.892 63.2705 526.936 63.2298C527.003 63.2298 527.023 63.0197 526.97 62.9993C525.966 62.7146 524.982 62.4299 523.945 62.3147C523.453 62.2605 522.961 62.1995 522.469 62.1656C522.2 62.152 521.93 62.1181 521.667 62.1249C521.405 62.1317 521.297 62.1249 521.155 62.3554L521.175 62.5045L521.243 62.4028V62.3757H521.229L521.236 62.3689Z" fill="#12415D"/>
<path d="M520.3 44.7924C520.381 45.1245 520.819 44.8263 520.96 44.7517L521.459 44.4738C521.775 44.2908 522.085 44.1145 522.395 43.9112C523.062 43.4841 523.682 42.9757 524.329 42.508C524.376 42.4741 524.403 42.2437 524.329 42.2708C523.561 42.5961 522.786 42.8944 522.052 43.2808C521.668 43.4774 521.29 43.7078 520.927 43.9451C520.758 44.0535 520.522 44.1688 520.401 44.3315C520.313 44.4467 520.266 44.6568 520.3 44.7992H520.307L520.3 44.7924Z" fill="#12415D"/>
<path d="M505.571 36.1161C505.699 35.4789 505.673 34.7875 505.679 34.1435C505.686 33.1132 505.619 32.1032 505.457 31.0864C505.423 30.9034 505.322 31.0525 505.309 31.1542C505.167 32.1913 505.086 33.2352 505.073 34.2791C505.073 34.6519 505.073 35.0247 505.066 35.4043C505.066 35.5264 505.066 35.6484 505.059 35.7772C505.059 35.9602 505.066 35.723 505.059 35.7772C505.053 35.8382 505.032 35.9873 505.073 35.7229C505.039 35.9263 504.952 36.394 505.174 36.5364C505.396 36.6787 505.544 36.2788 505.571 36.1364V36.1229V36.1161Z" fill="#12415D"/>
<path d="M443.061 85.7356C443.587 86.0813 443.984 86.5829 444.53 86.915C444.995 87.1862 445.5 87.3895 446.006 87.559C447.084 87.9115 448.256 88.0403 449.388 87.8979C451.618 87.6268 453.639 86.3795 454.892 84.4951C457.392 80.7194 456.502 75.2288 452.615 72.7682C450.371 71.3447 447.69 71.2091 445.298 72.314C445.244 72.3412 445.224 72.5581 445.298 72.5377C449.428 71.3379 454.286 73.3376 455.633 77.6216C456.981 81.9057 454.151 86.3728 449.846 87.2269C448.7 87.4573 447.515 87.4438 446.376 87.1726C445.824 87.0438 445.291 86.8473 444.773 86.61C444.22 86.3524 443.492 86.1016 443.075 85.661C443.061 85.6542 443.041 85.7152 443.061 85.7356Z" fill="#12415D"/>
<path d="M109.458 316.075C124.346 307.239 129.363 288.195 120.664 273.538C111.965 258.882 92.8438 254.164 77.9563 263C63.0687 271.836 58.0519 290.88 66.7509 305.537C75.45 320.193 94.5706 324.911 109.458 316.075Z" fill="#D0DCE4"/>
<path d="M99.4454 311.425C99.2805 311.426 99.152 311.267 98.9915 310.997C98.9037 310.849 98.8413 310.686 98.7873 310.49C98.7098 310.302 98.6407 310.08 98.5614 309.831C98.3979 309.334 98.2551 308.756 98.0669 308.102C97.8787 307.448 97.7018 306.766 97.4815 306C97.2764 305.259 97.0558 304.561 96.8706 303.912C96.6854 303.263 96.502 302.675 96.3761 302.184C96.3173 301.922 96.2502 301.692 96.2217 301.482C96.1932 301.271 96.1564 301.093 96.1347 300.94C96.1118 300.622 96.1464 300.401 96.3096 300.339C96.4321 300.266 96.6424 300.342 96.8999 300.555C97.0236 300.647 97.1725 300.793 97.3132 300.972C97.4538 301.151 97.6178 301.322 97.7888 301.552C98.1154 301.986 98.4486 302.548 98.7762 303.216C98.9385 303.547 99.0834 303.896 99.2353 304.268C99.3872 304.641 99.4932 305.04 99.6247 305.425C99.7307 305.824 99.8367 306.223 99.905 306.618C99.9733 307.012 100.024 307.376 100.074 307.739C100.136 308.461 100.157 309.111 100.125 309.662C100.117 309.929 100.072 310.19 100.038 310.411C100.003 310.631 99.9531 310.827 99.873 310.971C99.7566 311.274 99.6255 311.449 99.4606 311.45L99.4454 311.425Z" fill="#12415D"/>
<path d="M102.756 310.026C102.69 310.031 102.617 309.908 102.553 309.684C102.489 309.46 102.425 309.132 102.319 308.732C102.239 308.318 102.139 307.811 102.011 307.259C101.868 306.681 101.718 306.045 101.515 305.366C101.099 303.991 100.472 302.375 99.52 300.725C99.2867 300.332 99.0262 299.893 98.7675 299.515C98.5087 299.138 98.1919 298.767 97.8769 298.457C97.5618 298.147 97.2109 297.893 96.8716 297.763C96.5322 297.633 96.2047 297.593 95.8969 297.679C95.584 297.768 95.2931 297.941 95.0088 298.241C94.7499 298.525 94.5314 298.89 94.4318 299.28C94.3171 299.645 94.2478 300.086 94.2417 300.518C94.2355 300.949 94.2801 301.42 94.3247 301.89C94.4444 302.813 94.6374 303.754 94.7655 304.644C94.916 305.514 95.0393 306.338 95.1223 307.083C95.5406 310.078 95.6629 311.958 95.3604 312.007C95.0579 312.055 94.4088 310.287 93.6115 307.386C93.4063 306.645 93.1944 305.846 92.9928 305.006C92.7761 304.141 92.5442 303.251 92.3313 302.218C92.1388 301.172 91.9909 299.97 92.3952 298.639C92.6009 297.986 92.9285 297.363 93.4003 296.821C93.8721 296.279 94.536 295.781 95.3552 295.592C96.1542 295.38 97.0198 295.501 97.7156 295.778C98.4145 296.06 98.9417 296.507 99.4107 296.96C99.8543 297.428 100.229 297.896 100.519 298.386C100.81 298.876 101.071 299.315 101.321 299.794C102.274 301.679 102.785 303.494 103.054 305.052C103.188 305.836 103.236 306.532 103.266 307.142C103.272 307.767 103.26 308.305 103.213 308.726C103.166 309.147 103.1 309.49 103.045 309.723C102.97 309.933 102.89 310.077 102.817 310.059L102.761 310.023L102.756 310.026Z" fill="#12415D"/>
<path d="M106.695 308.35C106.542 308.372 106.362 307.789 106.083 306.761C105.803 305.732 105.417 304.244 104.742 302.491C104.411 301.597 104 300.682 103.505 299.685C103.025 298.714 102.428 297.708 101.709 296.776C100.964 295.858 100.08 295.03 99.0297 294.494C97.9647 293.932 96.7222 293.676 95.5801 293.926C94.4228 294.151 93.3628 294.876 92.5738 295.779C91.7818 296.677 91.2727 297.773 91.0129 298.894C90.7246 300.024 90.6622 301.151 90.7049 302.223C90.7476 303.295 90.8792 304.308 91.0366 305.235C91.1919 306.172 91.368 307.026 91.512 307.769C91.6561 308.512 91.7751 309.166 91.8702 309.71C92.0268 310.811 92.0168 311.41 91.8792 311.457C91.7264 311.479 91.4745 310.938 91.0427 309.932C90.8385 309.425 90.6074 308.803 90.3512 308.092C90.0799 307.356 89.8203 306.523 89.543 305.556C89.2687 304.594 89.0407 303.535 88.9132 302.321C88.8008 301.131 88.8061 299.803 89.0935 298.439C89.2515 297.751 89.442 297.072 89.7446 296.361C90.0675 295.673 90.4666 295.008 90.9692 294.413C91.4769 293.815 92.0577 293.235 92.7775 292.774C93.4717 292.327 94.2775 291.952 95.1444 291.797C95.5846 291.701 96.0295 291.672 96.461 291.678C96.8925 291.684 97.3218 291.733 97.7377 291.817C98.5694 291.986 99.3264 292.262 100.02 292.651C100.71 293.035 101.344 293.486 101.881 293.996C102.418 294.505 102.904 295.045 103.298 295.605C104.092 296.721 104.69 297.891 105.138 298.984C105.587 300.078 105.945 301.121 106.204 302.058C106.712 303.972 106.907 305.581 106.932 306.691C106.961 307.799 106.852 308.395 106.7 308.417L106.695 308.35Z" fill="#12415D"/>
<path d="M109.383 305.857C109.218 305.858 109.101 305.162 108.862 303.979C108.607 302.771 108.194 301.063 107.323 299.095C106.884 298.134 106.323 297.073 105.622 296.067C104.912 295.033 104.043 294.023 103.021 293.139C102 292.255 100.759 291.501 99.3858 291.025C98.6916 290.809 97.9667 290.646 97.2587 290.569C96.5252 290.508 95.776 290.524 95.0589 290.653C93.5991 290.926 92.2778 291.607 91.2186 292.601C90.1392 293.573 89.3172 294.758 88.7385 295.957C88.4364 296.565 88.2156 297.192 88.0152 297.808C87.8987 298.112 87.8554 298.434 87.7766 298.744C87.7182 299.04 87.6424 299.355 87.5991 299.677C87.409 300.915 87.3618 302.068 87.4166 303.16C87.4563 304.227 87.5553 305.231 87.6652 306.09C87.7751 306.95 87.8936 307.708 87.9905 308.313C88.0873 308.918 88.1471 309.414 88.17 309.731C88.1929 310.049 88.1838 310.255 88.0921 310.275C88.0004 310.295 87.8921 310.159 87.745 309.853C87.5693 309.557 87.3954 309.101 87.1764 308.499C86.9523 307.901 86.7247 307.18 86.4928 306.289C86.2609 305.399 86.0377 304.406 85.9149 303.258C85.7717 302.121 85.726 300.823 85.8485 299.46C85.8767 299.112 85.9403 298.778 85.9889 298.417C86.0781 298.068 86.1166 297.679 86.2058 297.329C86.369 296.605 86.6361 295.88 86.9521 295.134C87.588 293.693 88.5039 292.225 89.8114 291.021C90.4433 290.411 91.2072 289.861 92.0234 289.446C92.8601 289.018 93.7563 288.68 94.7129 288.512C95.6745 288.342 96.614 288.309 97.5225 288.397C98.4361 288.483 99.3185 288.691 100.157 288.987C101.833 289.579 103.256 290.522 104.428 291.614C105.59 292.677 106.511 293.891 107.208 295.064C107.904 296.238 108.436 297.413 108.824 298.508C109.211 299.603 109.45 300.621 109.59 301.532C109.73 302.442 109.803 303.227 109.782 303.867C109.762 304.507 109.72 304.995 109.656 305.329C109.593 305.664 109.528 305.833 109.464 305.843L109.378 305.86L109.383 305.857Z" fill="#12415D"/>
<path d="M112.097 301.499C111.975 301.572 111.555 300.924 110.986 299.744C110.704 299.152 110.366 298.421 109.985 297.557C109.615 296.713 109.202 295.737 108.671 294.727C108.14 293.717 107.537 292.653 106.704 291.692C105.891 290.718 104.808 289.835 103.608 289.092C102.356 288.378 100.952 287.791 99.4222 287.504C98.6717 287.356 97.8875 287.256 97.0721 287.277C96.2823 287.284 95.479 287.326 94.6528 287.492C93.0402 287.786 91.5168 288.394 90.1695 289.194C88.8222 289.993 87.6561 290.982 86.7156 292.072C85.7599 293.136 85.0163 294.336 84.4713 295.488C83.906 296.652 83.5411 297.827 83.3242 298.915C83.0818 300.019 82.9773 301.005 82.9271 301.932C82.9024 302.844 82.8937 303.608 82.9395 304.244C82.9624 304.561 82.9957 304.838 83.0169 305.095C83.035 305.346 83.0614 305.565 83.0627 305.73C83.0752 306.089 83.051 306.269 82.9999 306.299C82.9489 306.329 82.8255 306.168 82.6581 305.839C82.5703 305.691 82.4807 305.482 82.3964 305.236C82.3171 304.986 82.2177 304.714 82.1186 304.372C81.9334 303.723 81.8101 302.899 81.7007 301.936C81.6168 300.957 81.6281 299.86 81.7927 298.637C81.9369 297.427 82.2751 296.101 82.8036 294.759C83.3576 293.402 84.1255 292.022 85.1821 290.732C86.2131 289.458 87.5327 288.274 89.0618 287.339C90.5879 286.399 92.3359 285.658 94.254 285.32C96.154 284.951 98.0712 285.007 99.8637 285.4C101.636 285.769 103.261 286.496 104.679 287.373C106.071 288.265 107.246 289.362 108.123 290.56C109.025 291.742 109.628 292.979 110.074 294.067C110.534 295.181 110.854 296.219 111.124 297.115C111.396 298.016 111.613 298.778 111.761 299.422C112.084 300.686 112.208 301.406 112.065 301.491L112.105 301.502L112.097 301.499Z" fill="#12415D"/>
<path d="M113.387 294.578C113.444 294.51 113.68 294.571 114.054 294.748L113.692 295.033L112.574 293.15C112.413 292.879 112.215 292.603 111.999 292.297C111.549 291.701 111.051 291.037 110.452 290.365C110.147 290.014 109.812 289.682 109.47 289.326C109.099 288.98 108.731 288.64 108.334 288.309C107.53 287.627 106.618 286.975 105.581 286.403C104.542 285.826 103.434 285.296 102.217 284.921C99.7857 284.115 96.9688 283.833 94.1262 284.23C92.4712 284.453 90.8803 284.901 89.43 285.527C87.9676 286.132 86.6458 286.917 85.521 287.812C84.3585 288.702 83.3829 289.675 82.5648 290.692C81.7467 291.709 81.0529 292.714 80.5118 293.698C79.9707 294.681 79.5673 295.618 79.2305 296.446C79.0799 296.866 78.9599 297.269 78.8046 297.623C78.6898 297.988 78.6006 298.338 78.5046 298.63C78.4258 298.939 78.3552 299.215 78.2951 299.451L78.1353 300.077C78.031 300.401 77.9436 300.591 77.8623 300.571C77.7809 300.55 77.7472 300.377 77.6836 300.049C77.6672 299.858 77.6438 299.644 77.6378 299.413C77.6451 299.147 77.6495 298.875 77.6776 298.527C77.7057 298.179 77.7543 297.819 77.8132 297.418C77.8721 297.017 77.9699 296.566 78.0647 296.109C78.2777 295.189 78.6236 294.156 79.1175 293.035C79.6114 291.913 80.2581 290.77 81.1156 289.599C81.9526 288.44 82.9902 287.292 84.2582 286.243C85.5008 285.209 86.9607 284.273 88.5997 283.57C90.2184 282.844 91.9949 282.314 93.8383 282.082C97.024 281.648 100.191 282.018 102.89 282.997C104.243 283.484 105.472 284.114 106.581 284.809C107.693 285.508 108.655 286.29 109.474 287.067C109.898 287.443 110.286 287.876 110.643 288.257C110.99 288.679 111.315 289.052 111.606 289.438C112.197 290.212 112.648 290.973 113.029 291.672C113.232 292.014 113.372 292.366 113.509 292.643C113.659 292.954 113.745 293.262 113.865 293.522C114.059 294.07 114.154 294.51 114.238 294.826L114.455 295.691L113.875 295.11C113.56 294.8 113.445 294.606 113.461 294.528L113.364 294.585L113.387 294.578Z" fill="#12415D"/>
<path d="M113.105 287.197C113.114 287.095 113.35 287.051 113.79 286.956L113.579 287.378C113.321 287.165 112.996 286.896 112.628 286.555C112.447 286.366 112.194 286.219 111.977 286.017C111.735 285.829 111.498 285.604 111.215 285.407C110.932 285.209 110.636 284.991 110.323 284.742C110.013 284.498 109.664 284.305 109.292 284.063C108.941 283.809 108.531 283.618 108.155 283.379C107.758 283.152 107.33 282.943 106.867 282.721C105.982 282.287 104.984 281.886 103.951 281.54C103.688 281.434 103.431 281.386 103.14 281.29C102.863 281.219 102.58 281.125 102.303 281.055C102.027 280.984 101.733 280.931 101.436 280.872C101.281 280.833 101.139 280.814 101.005 280.762C100.866 280.749 100.708 280.704 100.563 280.693C100.267 280.635 99.9676 280.585 99.6452 280.541C99.3379 280.523 99.0389 280.473 98.7316 280.455C98.5922 280.442 98.4092 280.412 98.2698 280.398C98.1049 280.4 97.9625 280.381 97.7976 280.382C97.4903 280.364 97.1575 280.361 96.8532 280.349C96.5356 280.372 96.2028 280.369 95.8851 280.392L95.4026 280.416L94.9066 280.476C94.5634 280.514 94.2458 280.537 93.9026 280.575C93.5746 280.638 93.2465 280.702 92.9085 280.737C91.3621 281.027 89.885 281.503 88.5143 282.089C87.1557 282.695 85.8902 283.412 84.7619 284.185C84.2053 284.585 83.6456 284.979 83.1622 285.397C82.6433 285.802 82.175 286.245 81.7322 286.673C81.492 286.885 81.3046 287.127 81.0869 287.319C80.8844 287.536 80.6697 287.732 80.4823 287.974C80.2797 288.191 80.1209 288.424 79.9438 288.625C79.8516 288.749 79.7668 288.827 79.6746 288.951C79.6079 289.059 79.5127 289.178 79.4309 289.261C78.8019 290.097 78.2445 290.89 77.8095 291.61C77.5961 291.972 77.4 292.316 77.2174 292.624C77.0499 292.958 76.8898 293.247 76.743 293.499C76.6629 293.644 76.5962 293.752 76.5417 293.881C76.4871 294.01 76.4205 294.119 76.3742 294.215C76.2582 294.415 76.1729 294.597 76.0958 294.746C75.9236 295.014 75.8059 295.153 75.7448 295.155C75.6635 295.134 75.6297 294.961 75.6903 294.621C75.6891 294.456 75.7389 294.261 75.7839 294C75.8129 293.886 75.8289 293.738 75.8579 293.624C75.887 293.511 75.9285 293.348 75.9679 293.193C76.0588 292.905 76.1531 292.552 76.2678 292.187C76.3977 291.848 76.5604 291.448 76.7466 291.04C77.124 290.223 77.5833 289.322 78.1975 288.357C78.2642 288.249 78.3443 288.105 78.411 287.996C78.5032 287.872 78.5729 287.769 78.665 287.645C78.8525 287.403 79.0144 287.176 79.1866 286.908C79.374 286.665 79.587 286.408 79.7865 286.186C79.9994 285.928 80.1868 285.686 80.4323 285.437C80.9058 284.956 81.3724 284.451 81.9121 283.965C82.4111 283.469 83.0066 283.019 83.5991 282.563C84.8227 281.672 86.1804 280.831 87.6615 280.152C89.1577 279.499 90.8153 278.943 92.5299 278.588C92.8986 278.535 93.2471 278.459 93.6362 278.394C94.0049 278.34 94.3581 278.331 94.7268 278.278C94.9172 278.261 95.1106 278.25 95.2604 278.223C95.4508 278.207 95.6187 278.211 95.8091 278.194C96.1674 278.182 96.5257 278.169 96.8911 278.18C97.239 278.208 97.6095 278.216 97.9423 278.219C98.1072 278.217 98.2902 278.247 98.4551 278.246C98.6352 278.27 98.8031 278.274 98.9576 278.313C99.3055 278.341 99.6401 278.405 99.9625 278.448C100.297 278.512 100.635 278.581 100.934 278.631C101.088 278.67 101.268 278.695 101.426 278.739C101.58 278.779 101.735 278.818 101.897 278.859C102.206 278.938 102.524 279.019 102.833 279.098C103.142 279.177 103.448 279.298 103.737 279.389C104.026 279.48 104.312 279.579 104.616 279.696C105.748 280.149 106.762 280.637 107.708 281.173C108.176 281.461 108.614 281.699 109.017 281.983C109.424 282.273 109.836 282.526 110.177 282.82C110.517 283.115 110.868 283.369 111.168 283.654C111.468 283.938 111.756 284.202 112.02 284.473C112.267 284.727 112.506 285.013 112.718 285.253C112.929 285.493 113.121 285.711 113.291 285.941C113.618 286.375 113.857 286.73 114.032 287.026L114.353 287.567L113.824 287.454C113.367 287.359 113.145 287.263 113.15 287.156L113.099 287.187L113.105 287.197Z" fill="#12415D"/>
<path d="M109.751 279.256C109.715 279.312 109.547 279.308 109.294 279.265C109.017 279.194 108.64 279.059 108.159 278.91C107.908 278.825 107.66 278.744 107.373 278.645C107.084 278.554 106.757 278.445 106.408 278.355C106.068 278.225 105.693 278.151 105.303 278.052C104.912 277.952 104.481 277.842 104.05 277.732C103.168 277.525 102.212 277.367 101.195 277.212C100.164 277.092 99.0301 276.972 97.8698 276.97C96.7095 276.969 95.4596 276.979 94.2059 277.157C92.94 277.315 91.6554 277.546 90.3653 277.884C89.0752 278.222 87.8292 278.692 86.6645 279.183C85.4999 279.674 84.4213 280.252 83.4159 280.849C82.4105 281.446 81.4986 282.084 80.6559 282.722C79.8457 283.368 79.0865 283.985 78.4291 284.61C78.104 284.899 77.782 285.194 77.4977 285.494C77.2133 285.794 76.9372 286.061 76.6887 286.305C76.4503 286.578 76.2303 286.812 76.0022 287.044C75.7997 287.261 75.6002 287.482 75.4486 287.669C75.1029 288.04 74.8591 288.35 74.6445 288.547C74.4298 288.743 74.3073 288.816 74.2515 288.78C74.1957 288.744 74.1995 288.576 74.2831 288.333C74.3892 288.07 74.5143 287.665 74.777 287.212C74.8983 286.974 75.0501 286.719 75.2072 286.425C75.3795 286.157 75.5622 285.849 75.7804 285.554C75.9885 285.23 76.2322 284.92 76.4863 284.569C76.7404 284.218 77.0352 283.877 77.3554 283.521C77.9808 282.785 78.7028 282.059 79.5338 281.331C80.3851 280.591 81.3057 279.852 82.3777 279.147C83.4243 278.456 84.5776 277.772 85.8393 277.223C87.0858 276.649 88.4408 276.141 89.8431 275.772C91.2453 275.402 92.6622 275.161 94.042 275.032C95.4096 274.883 96.7529 274.914 98.0045 274.965C99.2713 275.041 100.448 275.233 101.562 275.435C102.665 275.677 103.653 275.946 104.572 276.263C105.031 276.419 105.451 276.57 105.843 276.73C106.235 276.891 106.595 277.043 106.924 277.214C107.253 277.384 107.572 277.526 107.84 277.699C108.108 277.871 108.36 278.018 108.601 278.144C109.054 278.407 109.353 278.691 109.56 278.865C109.767 279.039 109.85 279.19 109.794 279.258L109.753 279.248L109.751 279.256Z" fill="#12415D"/>
<path d="M106.627 275.051C106.556 275.093 106.437 275.067 106.211 274.966C105.986 274.865 105.68 274.688 105.285 274.522C104.488 274.133 103.311 273.707 101.749 273.412C100.973 273.279 100.11 273.163 99.1732 273.084C98.2361 273.006 97.2491 272.97 96.1926 272.969C94.0897 272.996 91.7812 273.234 89.4325 273.8C87.0838 274.366 84.9262 275.184 83.0267 276.112C82.081 276.576 81.2236 277.085 80.4122 277.567C79.6007 278.048 78.8878 278.568 78.2342 279.025C77.5928 279.502 77.0258 279.942 76.5017 280.35C76.2464 280.536 76.0032 280.743 75.814 280.924C75.5842 281.095 75.4175 281.256 75.2336 281.399C74.871 281.684 74.6073 281.902 74.403 282.058C74.1836 282.188 74.0611 282.261 73.9932 282.205C73.9629 282.154 73.9564 282.026 74.0625 281.763C74.1633 281.538 74.3512 281.192 74.6338 280.831C74.7702 280.619 74.9238 280.424 75.0857 280.197C75.2476 279.97 75.4605 279.712 75.6856 279.475C76.1114 278.96 76.6413 278.411 77.2628 277.842C77.8843 277.273 78.5824 276.658 79.3974 276.078C80.2124 275.498 81.1109 274.895 82.0804 274.354C84.0449 273.257 86.3608 272.311 88.9052 271.691C91.4496 271.071 93.9532 270.882 96.195 270.973C97.3224 271.036 98.3753 271.136 99.372 271.303C100.369 271.471 101.277 271.663 102.1 271.934C102.923 272.205 103.657 272.5 104.259 272.84C104.882 273.168 105.356 273.514 105.712 273.834C106.068 274.154 106.327 274.428 106.457 274.648C106.587 274.867 106.66 274.99 106.604 275.058L106.629 275.043L106.627 275.051Z" fill="#12415D"/>
<path d="M98.9421 269.184C98.9214 269.266 98.7941 269.272 98.6158 269.309C98.4254 269.325 98.1843 269.303 97.8568 269.263C97.7174 269.249 97.5343 269.219 97.3392 269.17C97.1591 269.145 96.9384 269.111 96.7177 269.076C96.2764 269.007 95.7739 268.939 95.2255 268.899C94.6568 268.836 94.0859 268.816 93.4307 268.77C92.7906 268.75 92.1025 268.765 91.3806 268.828C90.6587 268.89 89.8991 268.948 89.1534 269.087C88.3701 269.22 87.5967 269.417 86.8047 269.653C86.0179 269.885 85.2562 270.171 84.5555 270.491C83.8345 270.787 83.161 271.153 82.5486 271.516C81.9362 271.88 81.3493 272.228 80.8182 272.612C80.2871 272.996 79.7989 273.348 79.3799 273.701C78.961 274.053 78.5645 274.385 78.2394 274.674C78.0607 274.815 77.9144 274.964 77.7815 275.077C77.6232 275.206 77.5075 275.336 77.4002 275.435C77.16 275.646 76.9527 275.797 76.8047 275.885C76.6567 275.972 76.5597 276.03 76.4918 275.974C76.4239 275.917 76.4039 275.826 76.4537 275.631C76.5035 275.435 76.5892 275.184 76.7208 274.906C76.8009 274.762 76.8883 274.572 76.9939 274.413C77.0995 274.254 77.2073 274.051 77.3488 273.836C77.6133 273.445 77.9522 273.016 78.3391 272.552C78.7261 272.087 79.1771 271.626 79.7168 271.14C80.2462 270.695 80.8521 270.204 81.5056 269.747C82.1744 269.316 82.8941 268.854 83.6744 268.495C84.4772 268.115 85.3052 267.789 86.1942 267.496C87.0952 267.223 87.9704 267.035 88.835 266.922C89.6946 266.812 90.5354 266.776 91.3508 266.754C92.1406 266.748 92.9148 266.82 93.5973 266.911C94.295 267.029 94.9315 267.148 95.5171 267.297C96.1026 267.447 96.6167 267.638 97.0444 267.812C97.2698 267.913 97.4771 267.983 97.6364 268.089C97.8212 268.179 97.9856 268.282 98.1298 268.362C98.4232 268.519 98.6249 268.696 98.7637 268.814C98.9026 268.932 98.9602 269.029 98.9394 269.11L98.9442 269.176L98.9421 269.184Z" fill="#12415D"/>
<path d="M79.4173 98.1047C76.5139 98.8839 73.6104 99.657 70.707 100.43C69.3529 100.573 67.1058 101.031 65.7812 102.779C64.161 104.909 64.7464 107.841 65.0657 109.328C66.2425 114.835 69.2109 127.878 73.4922 145.226C73.6045 145.845 74.184 148.694 76.8509 150.632C79.9554 152.887 83.3851 152.102 83.8759 151.977C98.6414 148.503 113.407 145.036 128.166 141.563C128.906 141.307 130.686 140.558 132.01 138.714C134.109 135.782 133.364 132.463 133.234 131.946L124.583 94.9526C124.583 94.6374 124.5 91.848 122.105 90.0579C119.687 88.2439 116.979 89.0052 116.683 89.0944C104.259 92.0978 91.8352 95.0953 79.4114 98.0929L79.4173 98.1047Z" fill="white"/>
<path d="M79.2155 97.2541C78.0861 97.3969 76.9744 97.5456 75.8568 97.7537C74.7392 97.9619 73.657 98.2414 72.5572 98.509C71.6465 98.7291 70.7418 98.9789 69.8134 99.0978C69.0683 99.1989 68.3233 99.3655 67.6255 99.6569C66.0821 100.293 64.8817 101.477 64.3673 103.089C63.9179 104.51 63.9297 106.05 64.1426 107.519C64.4264 109.464 64.9113 111.397 65.337 113.312C65.9047 115.864 66.4842 118.409 67.0756 120.961C68.7727 128.288 70.5526 135.585 72.3502 142.883C72.6873 144.251 72.8942 145.524 73.4146 146.862C74.0178 148.408 74.9639 149.823 76.2234 150.912C78.2872 152.684 81.1669 153.362 83.8161 152.815C87.7957 152 91.7458 150.948 95.7077 150.032C100.078 149.015 104.442 148.004 108.806 146.987C113.176 145.97 117.557 145.018 121.915 143.989C123.015 143.727 124.115 143.466 125.215 143.21C126.315 142.954 127.391 142.776 128.438 142.443C129.768 142.02 131.046 141.105 131.95 140.058C133.919 137.774 134.345 134.604 133.754 131.72C132.938 127.759 131.903 123.827 130.975 119.896C129.934 115.489 128.881 111.082 127.858 106.675C127.356 104.51 126.847 102.351 126.333 100.186C126.072 99.0859 125.812 97.9857 125.552 96.8794C125.434 96.3442 125.304 95.8208 125.174 95.2915C125.144 95.1606 125.026 94.4291 125.044 94.8633C125.055 95.2439 125.055 94.9703 125.049 94.8752C124.86 91.7587 123.157 88.4936 120.011 87.5479C118.923 87.2208 117.711 87.1851 116.593 87.4349C114.902 87.8215 113.217 88.2616 111.532 88.672C102.804 90.7893 94.0816 92.9184 85.3654 95.0655C83.2602 95.5888 81.1492 96.1003 79.0441 96.6415C78.4291 96.7962 78.9435 98.8956 79.5822 98.7529C87.9317 96.8557 96.2517 94.8395 104.578 92.8352C108.681 91.842 112.797 90.8785 116.889 89.8734C119.249 89.2965 121.998 89.9685 123.329 92.1691C123.477 92.4189 123.601 92.6806 123.701 92.9601C123.76 93.1326 123.737 93.0374 123.778 93.2039L123.825 93.4002C123.873 93.6202 123.796 93.2337 123.831 93.4359C123.849 93.5429 123.861 93.644 123.879 93.7511C123.914 93.989 123.879 93.763 123.885 93.7808C123.896 94.0247 123.908 94.2745 123.955 94.5183C124.334 96.6296 124.925 98.7231 125.41 100.811C126.38 104.974 127.344 109.143 128.308 113.312C129.272 117.481 130.259 121.728 131.241 125.933C131.69 127.872 132.145 129.822 132.595 131.761L132.63 131.916C132.684 132.118 132.589 131.601 132.613 131.844C132.636 132.07 132.678 132.296 132.701 132.522C132.725 132.748 132.701 132.445 132.713 132.677C132.713 132.814 132.719 132.939 132.719 133.076C132.719 133.349 132.707 133.623 132.666 133.896C132.465 135.508 131.726 136.983 130.567 138.119C129.461 139.195 128.219 139.76 126.747 140.105C122.584 141.081 118.438 142.11 114.281 143.097C105.926 145.083 97.5763 147.082 89.2149 149.044C87.2753 149.502 85.3417 149.978 83.3962 150.412C82.592 150.597 81.7582 150.668 80.9363 150.615C77.9146 150.412 75.1945 148.575 74.1538 145.672C74.071 145.446 74.1715 145.744 74.1065 145.535C74.0769 145.44 74.0532 145.339 74.0237 145.244C73.9764 145.048 73.8995 144.709 73.9764 145.048C73.7635 143.995 73.4797 142.96 73.2254 141.919C72.7464 139.957 72.2556 138 71.7944 136.031C70.9724 132.54 70.1386 129.043 69.3167 125.552C68.1577 120.61 67.0401 115.655 65.9166 110.707C65.4731 108.751 64.8167 106.919 65.3607 104.897C65.7983 103.273 67.0874 102.125 68.6189 101.548C69.2457 101.31 69.9021 101.162 70.5644 101.06C71.5401 100.912 72.5217 100.531 73.4737 100.252C74.4258 99.9721 75.3956 99.6866 76.3476 99.3595C77.3883 99.0027 78.3877 98.5864 79.3989 98.1581C79.659 98.0511 79.458 97.2422 79.1801 97.272L79.2155 97.2601V97.2541Z" fill="#12415D"/>
<path d="M69.5115 98.9198L116.126 88.2025C119.757 87.3699 123.376 89.6537 124.209 93.3054L125.528 99.1161L65.7565 112.861L64.4379 107.05C63.61 103.398 65.8807 99.7584 69.5115 98.9198Z" fill="#12415D"/>
<path d="M76.6797 92.1038C77.5549 96.0946 78.4301 100.079 79.3112 104.07C80.7185 103.725 82.1318 103.38 83.5392 103.041C82.4216 99.0802 81.3099 95.1251 80.1922 91.1582C79.0214 91.4734 77.8506 91.7886 76.6738 92.1038H76.6797Z" fill="white"/>
<path d="M76.4784 91.9369C76.4547 92.9123 76.6912 93.8817 76.8923 94.8333C77.1111 95.8741 77.3358 96.9149 77.5546 97.9498C78.004 100.025 78.4475 102.107 78.891 104.177C78.9442 104.421 79.1866 105.075 79.5414 104.992C80.9606 104.658 82.3739 104.379 83.7754 103.975C84.1361 103.873 84.0355 103.16 83.9587 102.928C83.3673 100.959 82.8706 98.9549 82.3148 96.9803C81.7589 95.0058 81.1853 93.0253 80.6177 91.0448C80.5467 90.8128 80.3161 90.0694 79.9376 90.1705C78.7668 90.4917 77.596 90.8188 76.4251 91.14C75.8397 91.3005 76.3246 93.2097 76.91 93.055C78.0868 92.7458 79.2576 92.4424 80.4343 92.1332L79.7543 91.2589C80.3102 93.2394 80.8542 95.2199 81.4041 97.2004C81.96 99.1809 82.5809 101.144 83.1012 103.136L83.2845 102.089C81.8535 102.375 80.4698 102.779 79.0565 103.136L79.707 103.951C79.2399 101.875 78.7786 99.8113 78.3115 97.7357C78.0749 96.7008 77.8384 95.666 77.6078 94.6252C77.3949 93.6795 77.1879 92.722 76.7622 91.8418C76.6439 91.592 76.4665 91.6752 76.4606 91.9191L76.4784 91.9369Z" fill="#12415D"/>
<path d="M90.4688 88.9339C91.344 92.9246 92.2191 96.9094 93.1002 100.9C94.5076 100.555 95.9208 100.21 97.3282 99.8713C96.2106 95.9103 95.0989 91.9552 93.9813 87.9883C92.8105 88.3035 91.6396 88.6187 90.4629 88.9339H90.4688Z" fill="white"/>
<path d="M90.2674 88.767C90.2438 89.7424 90.4803 90.7118 90.6814 91.6634C90.9001 92.7042 91.1248 93.745 91.3436 94.7798C91.793 96.8555 92.2366 98.9371 92.68 101.007C92.7333 101.251 92.9757 101.905 93.3305 101.822C94.7497 101.489 96.163 101.209 97.5644 100.805C97.9251 100.703 97.8246 99.9898 97.7477 99.7578C97.1564 97.7892 96.6597 95.785 96.1038 93.8104C95.548 91.8359 94.9744 89.8554 94.4067 87.8749C94.3358 87.6429 94.1051 86.8995 93.7267 87.0006C92.5559 87.3218 91.385 87.6489 90.2142 87.97C89.6288 88.1306 90.1137 90.0397 90.6991 89.8851C91.8758 89.5758 93.0467 89.2725 94.2234 88.9633L93.5434 88.089C94.0992 90.0695 94.6433 92.05 95.1932 94.0305C95.749 96.011 96.3699 97.9736 96.8903 99.966L97.0736 98.9193C95.6426 99.2047 94.2589 99.6092 92.8456 99.966L93.4961 100.781C93.0289 98.7052 92.5677 96.6414 92.1005 94.5657C91.864 93.5309 91.6275 92.496 91.3969 91.4552C91.184 90.5096 90.977 89.5521 90.5513 88.6718C90.433 88.422 90.2556 88.5053 90.2497 88.7492L90.2674 88.767Z" fill="#12415D"/>
<path d="M103.467 85.9427C104.342 89.9334 105.217 93.9182 106.098 97.9089C107.506 97.564 108.919 97.219 110.326 96.88C109.209 92.919 108.097 88.964 106.979 84.9971C105.809 85.3123 104.638 85.6275 103.461 85.9427H103.467Z" fill="white"/>
<path d="M103.265 85.7758C103.242 86.7512 103.478 87.7206 103.679 88.6722C103.898 89.713 104.123 90.7538 104.342 91.7886C104.791 93.8643 105.235 95.9459 105.678 98.0156C105.731 98.2594 105.974 98.9137 106.329 98.8304C107.748 98.4973 109.161 98.2178 110.562 97.8134C110.923 97.7123 110.823 96.9986 110.746 96.7666C110.154 94.798 109.658 92.7937 109.102 90.8192C108.546 88.8447 107.972 86.8642 107.405 84.8837C107.334 84.6517 107.103 83.9083 106.725 84.0094C105.554 84.3306 104.383 84.6577 103.212 84.9788C102.627 85.1394 103.112 87.0485 103.697 86.8939C104.874 86.5846 106.045 86.2813 107.221 85.972L106.541 85.0978C107.097 87.0783 107.641 89.0588 108.191 91.0393C108.747 93.0198 109.368 94.9824 109.888 96.9748L110.072 95.9281C108.641 96.2135 107.257 96.618 105.844 96.9748L106.494 97.7896C106.027 95.7139 105.566 93.6502 105.099 91.5745C104.862 90.5397 104.626 89.5048 104.395 88.464C104.182 87.5184 103.975 86.5608 103.549 85.6806C103.431 85.4308 103.254 85.5141 103.248 85.7579L103.265 85.7758Z" fill="#12415D"/>
<path d="M78.0833 115.203L71.7711 116.655C71.6279 116.688 71.5383 116.832 71.571 116.976L73.0144 123.324C73.0471 123.468 73.1898 123.559 73.3331 123.526L79.6452 122.074C79.7885 122.041 79.8781 121.897 79.8453 121.753L78.402 115.405C78.3692 115.261 78.2265 115.171 78.0833 115.203Z" fill="#D0DCE4"/>
<path d="M88.8977 112.717L82.5856 114.169C82.4423 114.202 82.3527 114.345 82.3855 114.489L83.8288 120.838C83.8616 120.982 84.0043 121.072 84.1476 121.039L90.4597 119.588C90.603 119.555 90.6925 119.411 90.6598 119.267L89.2164 112.918C89.1837 112.774 89.041 112.684 88.8977 112.717Z" fill="#D0DCE4"/>
<path d="M99.7063 110.232L93.3942 111.684C93.2509 111.716 93.1613 111.86 93.1941 112.004L94.6374 118.353C94.6702 118.497 94.8129 118.587 94.9562 118.554L101.268 117.102C101.412 117.069 101.501 116.926 101.468 116.782L100.025 110.433C99.9923 110.289 99.8496 110.199 99.7063 110.232Z" fill="#D0DCE4"/>
<path d="M80.3489 125.179L74.0367 126.631C73.8935 126.664 73.8039 126.807 73.8367 126.951L75.28 133.3C75.3128 133.444 75.4555 133.534 75.5987 133.501L81.9109 132.049C82.0541 132.017 82.1437 131.873 82.1109 131.729L80.6676 125.38C80.6348 125.236 80.4922 125.146 80.3489 125.179Z" fill="#D0DCE4"/>
<path d="M91.1633 122.694L84.8512 124.145C84.7079 124.178 84.6184 124.322 84.6511 124.466L86.0945 130.815C86.1272 130.959 86.2699 131.049 86.4132 131.016L92.7253 129.564C92.8686 129.531 92.9582 129.388 92.9254 129.244L91.482 122.895C91.4493 122.751 91.3066 122.661 91.1633 122.694Z" fill="#D0DCE4"/>
<path d="M101.972 120.207L95.6598 121.659C95.5165 121.692 95.4269 121.836 95.4597 121.98L96.9031 128.328C96.9358 128.472 97.0785 128.562 97.2218 128.529L103.534 127.078C103.677 127.045 103.767 126.901 103.734 126.757L102.291 120.409C102.258 120.265 102.115 120.174 101.972 120.207Z" fill="#D0DCE4"/>
<path d="M112.781 117.722L106.468 119.174C106.325 119.207 106.236 119.35 106.268 119.494L107.712 125.843C107.744 125.987 107.887 126.077 108.03 126.044L114.343 124.592C114.486 124.559 114.575 124.416 114.543 124.272L113.099 117.923C113.066 117.779 112.924 117.689 112.781 117.722Z" fill="#D0DCE4"/>
<path d="M114.997 127.465L108.685 128.917C108.542 128.95 108.452 129.093 108.485 129.237L109.928 135.586C109.961 135.73 110.104 135.82 110.247 135.787L116.559 134.336C116.703 134.303 116.792 134.159 116.759 134.015L115.316 127.666C115.283 127.522 115.141 127.432 114.997 127.465Z" fill="#D0DCE4"/>
<path d="M123.595 115.235L117.283 116.686C117.14 116.719 117.05 116.863 117.083 117.007L118.526 123.356C118.559 123.5 118.702 123.59 118.845 123.557L125.157 122.105C125.3 122.072 125.39 121.929 125.357 121.785L123.914 115.436C123.881 115.292 123.738 115.202 123.595 115.235Z" fill="#12415D"/>
<path d="M125.812 124.978L119.5 126.43C119.356 126.463 119.267 126.606 119.3 126.75L120.743 133.099C120.776 133.243 120.918 133.333 121.062 133.3L127.374 131.848C127.517 131.815 127.607 131.672 127.574 131.528L126.13 125.179C126.098 125.035 125.955 124.945 125.812 124.978Z" fill="#D0DCE4"/>
<path d="M93.3801 132.443L87.068 133.894C86.9247 133.927 86.8351 134.071 86.8679 134.215L88.3113 140.564C88.344 140.708 88.4867 140.798 88.63 140.765L94.9421 139.313C95.0854 139.28 95.1749 139.137 95.1422 138.993L93.6988 132.644C93.6661 132.5 93.5234 132.41 93.3801 132.443Z" fill="#D0DCE4"/>
<path d="M104.189 129.951L97.8766 131.402C97.7333 131.435 97.6437 131.579 97.6765 131.723L99.1199 138.071C99.1526 138.215 99.2953 138.306 99.4386 138.273L105.751 136.821C105.894 136.788 105.984 136.644 105.951 136.5L104.507 130.152C104.475 130.008 104.332 129.918 104.189 129.951Z" fill="#D0DCE4"/>
<path d="M71.6282 116.738C71.7583 117.833 72.0599 118.921 72.2964 119.998C72.533 121.068 72.7872 122.222 73.0297 123.328C73.0474 123.411 73.1243 123.625 73.2485 123.608C74.3661 123.382 75.4837 123.162 76.5954 122.924C77.7071 122.686 78.8129 122.382 79.9305 122.18C80.031 122.156 79.9896 121.93 79.9778 121.877C79.6644 120.503 79.3628 119.082 78.8661 117.761C78.8306 117.666 78.7715 117.678 78.7833 117.779C78.9666 119.183 79.3746 120.574 79.7413 121.936L79.7886 121.633C78.6828 121.889 77.5474 122.049 76.4239 122.281C75.3004 122.513 74.1887 122.745 73.077 122.983L73.2958 123.263C73.0415 122.15 72.7813 121.05 72.527 119.938C72.2669 118.832 72.0776 117.755 71.7288 116.709C71.6874 116.584 71.6105 116.613 71.6223 116.732H71.6341L71.6282 116.738Z" fill="#12415D"/>
<path d="M73.9231 126.837C74.0532 127.931 74.3548 129.02 74.5914 130.096C74.8279 131.173 75.0821 132.32 75.3246 133.427C75.3423 133.51 75.4192 133.724 75.5434 133.706C76.661 133.48 77.7786 133.26 78.8903 133.022C80.002 132.784 81.1078 132.481 82.2254 132.279C82.3259 132.255 82.2845 132.029 82.2727 131.976C81.9593 130.602 81.6577 129.18 81.161 127.86C81.1255 127.765 81.0664 127.777 81.0782 127.878C81.2615 129.281 81.6696 130.673 82.0362 132.035L82.0835 131.732C80.9777 131.987 79.8423 132.148 78.7188 132.38C77.5953 132.612 76.4836 132.844 75.3719 133.082L75.5907 133.361C75.3364 132.249 75.0762 131.149 74.822 130.037C74.5677 128.924 74.3726 127.854 74.0237 126.807C73.9823 126.682 73.9054 126.712 73.9172 126.831H73.9291L73.9231 126.837Z" fill="#12415D"/>
<path d="M84.638 124.268C84.7681 125.362 85.0697 126.45 85.3062 127.527C85.5427 128.603 85.797 129.751 86.0394 130.857C86.0572 130.941 86.1341 131.155 86.2582 131.137C87.3758 130.911 88.4935 130.691 89.6052 130.453C90.7169 130.215 91.8227 129.912 92.9403 129.709C93.0408 129.686 92.9994 129.46 92.9876 129.406C92.6742 128.032 92.3726 126.611 91.8759 125.291C91.8404 125.195 91.7813 125.207 91.7931 125.308C91.9764 126.712 92.3844 128.104 92.751 129.466L92.7984 129.162C91.6926 129.418 90.5572 129.579 89.4337 129.811C88.3161 130.043 87.1985 130.275 86.0868 130.512L86.3056 130.792C86.0513 129.68 85.7911 128.579 85.5368 127.467C85.2826 126.355 85.0874 125.285 84.7385 124.238C84.6971 124.113 84.6203 124.143 84.6321 124.262H84.6439L84.638 124.268Z" fill="#12415D"/>
<path d="M97.6653 131.523C97.7954 132.618 98.097 133.706 98.3335 134.783C98.5701 135.859 98.8243 137.007 99.0668 138.113C99.0845 138.196 99.1614 138.411 99.2856 138.393C100.403 138.167 101.521 137.947 102.632 137.709C103.744 137.471 104.85 137.168 105.968 136.965C106.068 136.942 106.027 136.716 106.015 136.662C105.701 135.288 105.4 133.867 104.903 132.546C104.868 132.451 104.809 132.463 104.82 132.564C105.004 133.968 105.412 135.36 105.778 136.722L105.826 136.418C104.72 136.674 103.585 136.835 102.461 137.066C101.337 137.298 100.226 137.53 99.1141 137.768L99.3329 138.048C99.0786 136.936 98.8184 135.835 98.5642 134.723C98.3099 133.611 98.1147 132.54 97.7659 131.494C97.7245 131.369 97.6476 131.399 97.6594 131.518H97.6712L97.6653 131.523Z" fill="#12415D"/>
<path d="M108.474 129.037C108.604 130.131 108.906 131.22 109.142 132.296C109.379 133.373 109.633 134.521 109.875 135.627C109.893 135.71 109.97 135.924 110.094 135.906C111.212 135.68 112.329 135.46 113.441 135.222C114.553 134.985 115.659 134.681 116.776 134.479C116.877 134.455 116.835 134.229 116.823 134.176C116.51 132.802 116.209 131.38 115.712 130.06C115.676 129.965 115.617 129.977 115.629 130.078C115.812 131.482 116.22 132.873 116.587 134.235L116.634 133.932C115.528 134.188 114.393 134.348 113.27 134.58C112.146 134.812 111.034 135.044 109.923 135.282L110.141 135.561C109.887 134.449 109.627 133.349 109.373 132.237C109.118 131.125 108.923 130.054 108.574 129.007C108.533 128.883 108.456 128.912 108.468 129.031H108.48L108.474 129.037Z" fill="#12415D"/>
<path d="M119.201 126.575C119.331 127.67 119.632 128.758 119.869 129.834C120.105 130.911 120.36 132.059 120.602 133.165C120.62 133.248 120.697 133.462 120.821 133.445C121.938 133.218 123.056 132.998 124.168 132.761C125.279 132.523 126.385 132.219 127.503 132.017C127.603 131.993 127.562 131.767 127.55 131.714C127.237 130.34 126.935 128.919 126.438 127.598C126.403 127.503 126.344 127.515 126.356 127.616C126.539 129.02 126.947 130.411 127.314 131.773L127.361 131.47C126.255 131.726 125.12 131.886 123.996 132.118C122.879 132.35 121.761 132.582 120.649 132.82L120.868 133.1C120.614 131.987 120.354 130.887 120.099 129.775C119.839 128.669 119.65 127.592 119.301 126.545C119.26 126.421 119.183 126.45 119.195 126.569H119.206L119.201 126.575Z" fill="#12415D"/>
<path d="M106.222 119.129C106.352 120.223 106.654 121.312 106.89 122.388C107.127 123.459 107.381 124.612 107.623 125.719C107.641 125.802 107.718 126.016 107.842 125.998C108.96 125.772 110.077 125.552 111.189 125.314C112.301 125.076 113.407 124.773 114.524 124.571C114.625 124.547 114.583 124.321 114.572 124.268C114.258 122.894 113.957 121.472 113.46 120.152C113.424 120.057 113.365 120.069 113.377 120.17C113.56 121.573 113.968 122.965 114.335 124.327L114.382 124.024C113.277 124.279 112.141 124.44 111.018 124.672C109.894 124.904 108.782 125.136 107.671 125.374L107.89 125.653C107.635 124.541 107.375 123.441 107.121 122.329C106.867 121.216 106.671 120.146 106.323 119.099C106.281 118.974 106.204 119.004 106.216 119.123H106.228L106.222 119.129Z" fill="#12415D"/>
<path d="M95.4114 121.615C95.5415 122.71 95.8431 123.798 96.0796 124.874C96.3162 125.951 96.5704 127.099 96.8129 128.205C96.8306 128.288 96.9075 128.502 97.0317 128.485C98.1493 128.259 99.2669 128.038 100.379 127.801C101.49 127.563 102.596 127.259 103.714 127.057C103.814 127.033 103.773 126.807 103.761 126.754C103.448 125.38 103.146 123.959 102.649 122.638C102.614 122.543 102.555 122.555 102.567 122.656C102.75 124.06 103.158 125.451 103.524 126.813L103.572 126.51C102.466 126.766 101.331 126.926 100.207 127.158C99.0895 127.39 97.9719 127.622 96.8602 127.86L97.079 128.14C96.8247 127.027 96.5645 125.927 96.3103 124.815C96.056 123.703 95.8609 122.632 95.512 121.586C95.4706 121.461 95.3937 121.49 95.4055 121.609H95.4174L95.4114 121.615Z" fill="#12415D"/>
<path d="M93.2005 111.902C93.3306 112.997 93.6322 114.085 93.8687 115.162C94.1052 116.238 94.3595 117.386 94.6019 118.492C94.6197 118.575 94.6966 118.789 94.8207 118.772C95.9383 118.546 97.056 118.326 98.1677 118.088C99.2794 117.85 100.385 117.546 101.503 117.344C101.603 117.32 101.562 117.094 101.55 117.041C101.237 115.667 100.935 114.246 100.438 112.925C100.403 112.83 100.344 112.842 100.356 112.943C100.539 114.347 100.947 115.738 101.314 117.1L101.361 116.797C100.255 117.053 99.1197 117.213 97.9962 117.445C96.8786 117.677 95.7609 117.909 94.6492 118.147L94.8681 118.427C94.6138 117.315 94.3536 116.214 94.0993 115.102C93.845 113.99 93.6499 112.919 93.301 111.873C93.2596 111.748 93.1828 111.777 93.1946 111.896H93.2064L93.2005 111.902Z" fill="#12415D"/>
<path d="M86.8313 133.914C86.9614 135.008 87.263 136.097 87.4995 137.173C87.7361 138.25 87.9904 139.398 88.2328 140.504C88.2505 140.587 88.3274 140.801 88.4516 140.783C89.5692 140.557 90.6868 140.337 91.7985 140.099C92.9102 139.862 94.016 139.558 95.1336 139.356C95.2341 139.332 95.1927 139.106 95.1809 139.053C94.8675 137.679 94.5659 136.257 94.0692 134.937C94.0337 134.842 93.9746 134.854 93.9864 134.955C94.1697 136.358 94.5778 137.75 94.9444 139.112L94.9917 138.809C93.8859 139.065 92.7506 139.225 91.627 139.457C90.5035 139.689 89.3918 139.921 88.2801 140.159L88.4989 140.438C88.2446 139.326 87.9844 138.226 87.7302 137.114C87.4759 136.002 87.2808 134.931 86.9319 133.884C86.8905 133.759 86.8136 133.789 86.8254 133.908H86.8373L86.8313 133.914Z" fill="#12415D"/>
<path d="M82.3977 114.389C82.5278 115.483 82.8294 116.571 83.066 117.648C83.3025 118.724 83.5568 119.872 83.7992 120.978C83.817 121.062 83.8938 121.276 84.018 121.258C85.1356 121.032 86.2532 120.812 87.3649 120.574C88.4766 120.336 89.5824 120.033 90.7 119.831C90.8005 119.807 90.7592 119.581 90.7473 119.527C90.4339 118.153 90.1323 116.732 89.6356 115.412C89.6001 115.316 89.541 115.328 89.5528 115.429C89.7361 116.833 90.1442 118.225 90.5108 119.587L90.5581 119.283C89.4523 119.539 88.317 119.7 87.1934 119.932C86.0699 120.164 84.9582 120.396 83.8465 120.634L84.0653 120.913C83.811 119.801 83.5509 118.701 83.2966 117.588C83.0423 116.476 82.8472 115.406 82.4983 114.359C82.4569 114.234 82.38 114.264 82.3918 114.383H82.4037L82.3977 114.389Z" fill="#12415D"/>
<path d="M119.331 118.011C119.899 118.647 120.496 119.248 121.153 119.801C121.472 120.063 121.791 120.331 122.128 120.568C122.418 120.771 122.714 121.003 123.074 121.009C123.11 121.009 123.074 120.919 123.069 120.907C122.56 120.235 121.803 119.783 121.159 119.242C120.549 118.737 119.946 118.219 119.361 117.678C119.302 117.618 119.266 117.708 119.26 117.755C119.249 117.839 119.278 117.946 119.331 118.011Z" fill="white"/>
<path d="M119.84 121.389C120.136 121.115 120.372 120.746 120.597 120.413C120.839 120.062 121.082 119.706 121.324 119.349C121.567 118.992 121.791 118.665 122.01 118.314C122.176 118.052 122.531 117.594 122.253 117.285C122.229 117.261 122.205 117.243 122.182 117.267C122.146 117.291 122.129 117.344 122.105 117.38C122.058 117.446 121.998 117.511 121.951 117.576C121.833 117.725 121.726 117.886 121.62 118.046C121.395 118.379 121.171 118.712 120.952 119.039C120.733 119.367 120.526 119.676 120.319 120.003C120.1 120.354 119.864 120.705 119.698 121.085C119.669 121.151 119.74 121.478 119.84 121.383V121.389Z" fill="white"/>
</svg>
