<svg xmlns="http://www.w3.org/2000/svg" width="74" height="74" fill="none" viewBox="0 0 74 74"><circle cx="37" cy="37" r="37" fill="#BCDABF"/><g clip-path="url(#a)"><path fill="#fff" d="M38.14 31.684a.394.394 0 0 1-.27-.68l1.095-1.034-2.838 1.638a.394.394 0 0 1-.516-.569l1.146-1.603-3.454 1.994a.394.394 0 0 1-.459-.634l.421-.377-1.439.831a.393.393 0 0 1-.472-.62l.732-.727-1.841 1.06a.393.393 0 0 1-.524-.56l1.017-1.52-2.545 1.47a.394.394 0 0 1-.518-.569l.966-1.354-1.826 1.056a.394.394 0 0 1-.518-.568l.806-1.139-.288.167a.393.393 0 0 1-.582-.425l.236-1.097a.394.394 0 0 1-.05-.705l.384-.223a.394.394 0 0 1 .582.425l-.196.898 1.076-.62a.394.394 0 0 1 .518.568l-.807 1.138 1.846-1.065a.39.39 0 0 1 .489.078.394.394 0 0 1 .028.494l-.966 1.351 2.44-1.406a.394.394 0 0 1 .525.56l-1.02 1.519 2.984-1.722a.394.394 0 0 1 .472.62l-.731.727 2.133-1.232a.394.394 0 0 1 .459.634l-.422.378 1.725-.995a.393.393 0 0 1 .516.57l-1.146 1.602 4.172-2.41a.393.393 0 0 1 .467.63l-1.09 1.033 4.275-2.47a.393.393 0 0 1 .458.635l-1.667 1.478 4.497-2.598a.394.394 0 0 1 .46.63l-1.898 1.728 1.449-.837a.394.394 0 0 1 .578.438l-.22.857a.394.394 0 0 1 .043.702l-.404.236a.393.393 0 0 1-.58-.44l.165-.644L44.2 31.19a.393.393 0 0 1-.462-.63l1.9-1.726-4.696 2.712a.393.393 0 0 1-.458-.634l1.667-1.483-3.814 2.204a.4.4 0 0 1-.196.05"/><path fill="#425C46" d="M27.59 57.664a.393.393 0 0 1-.205-.73l2.255-1.378-3.561 2.053a.394.394 0 0 1-.406-.674l10.744-6.71-12.792 7.384a.393.393 0 0 1-.407-.673l14.905-9.403L20.661 57.61a.394.394 0 0 1-.407-.673l15.337-9.67-17.92 10.343a.394.394 0 0 1-.402-.676l4.47-2.72-5.716 3.299a.394.394 0 0 1-.401-.677l4.692-2.858-5.055 2.919a.393.393 0 0 1-.401-.676l2.848-1.732-2.693 1.555a.394.394 0 0 1-.408-.672L28.998 46.2 15.51 53.988a.393.393 0 1 1-.403-.676l3.07-1.89-2.34 1.352a.393.393 0 0 1-.412-.67l11.517-7.49-10.548 6.09a.394.394 0 0 1-.41-.673l6.534-4.18-5.705 3.295a.394.394 0 0 1-.413-.67l6.758-4.438-5.885 3.398a.394.394 0 0 1-.415-.668l5.145-3.427-4.296 2.48a.394.394 0 1 1-.41-.672l.61-.393a.394.394 0 0 1-.334-.696l4.775-3.58-3.792 2.188a.394.394 0 0 1-.428-.66l1.377-.996-.596.344a.394.394 0 0 1-.463-.63l1.894-1.732-.94.543a.393.393 0 0 1-.509-.58l.738-.96a.394.394 0 0 1-.127-.727l1.303-.757a.394.394 0 0 1 .508.58l-.59.767 2.337-1.347a.394.394 0 0 1 .463.63l-1.894 1.732 4.1-2.362a.393.393 0 0 1 .427.66l-1.38.993 2.87-1.653a.393.393 0 0 1 .434.656l-4.774 3.578 7.333-4.234a.394.394 0 0 1 .41.67l-.383.25 1.596-.92a.394.394 0 0 1 .416.668l-5.146 3.425 7.091-4.093a.394.394 0 0 1 .413.67l-6.759 4.438 8.846-5.108a.394.394 0 0 1 .41.672l-6.53 4.177 8.4-4.849a.394.394 0 0 1 .41.67l-11.52 7.49 14.14-8.16a.394.394 0 0 1 .402.675l-3.07 1.89 4.44-2.565a.394.394 0 0 1 .41.672l-14.4 9.168 17.056-9.84a.394.394 0 0 1 .4.676l-2.833 1.723 4.157-2.399a.394.394 0 0 1 .402.676l-4.694 2.86 6.124-3.536a.393.393 0 0 1 .402.676l-4.476 2.725 5.891-3.4a.394.394 0 0 1 .406.672l-15.336 9.67 17.288-9.98a.393.393 0 0 1 .406.674l-14.9 9.405 15.148-8.745a.393.393 0 0 1 .406.673L45.31 45.6l10.677-6.163a.394.394 0 0 1 .402.676l-2.244 1.374 2.071-1.194a.394.394 0 0 1 .406.673l-9.367 5.908 9.289-5.362a.393.393 0 0 1 .405.674l-5.928 3.711 5.801-3.35a.394.394 0 0 1 .412.67l-9.748 6.344 9.716-5.609a.394.394 0 0 1 .413.668l-8.744 5.779 8.714-5.03a.394.394 0 0 1 .415.668l-6.81 4.513 6.742-3.892a.393.393 0 0 1 .412.67l-3.769 2.462 3.633-2.098a.394.394 0 0 1 .412.67l-2.238 1.463 2.077-1.2a.393.393 0 0 1 .43.658l-5.61 4.142 5.605-3.235a.394.394 0 0 1 .416.667l-.218.146.018-.01a.394.394 0 0 1 .427.66L57.53 53.09l1.843-1.063a.394.394 0 0 1 .458.635l-2.63 2.34 2.575-1.487a.394.394 0 0 1 .49.604l-1.412 1.574 1.306-.753a.394.394 0 0 1 .513.574l-.449.608a.394.394 0 0 1 .166.732l-1.302.751a.394.394 0 0 1-.513-.574l.343-.467-1.81 1.043a.394.394 0 0 1-.49-.602l1.412-1.575-3.77 2.178a.394.394 0 0 1-.46-.634l2.628-2.339-5.151 2.973a.393.393 0 0 1-.428-.66l1.989-1.436-3.632 2.096a.393.393 0 0 1-.417-.666l.218-.147-1.409.813a.393.393 0 0 1-.43-.657l5.61-4.14-8.31 4.797a.394.394 0 0 1-.411-.67l2.24-1.463-3.7 2.135a.394.394 0 0 1-.411-.67l3.778-2.466-5.437 3.134a.393.393 0 0 1-.414-.668l6.807-4.511-8.974 5.18a.394.394 0 0 1-.414-.67l8.753-5.778-11.171 6.447a.394.394 0 0 1-.412-.67l9.746-6.343-12.147 7.013a.393.393 0 0 1-.407-.674l5.932-3.712-7.599 4.386a.394.394 0 0 1-.406-.673l9.367-5.904-11.4 6.577a.4.4 0 0 1-.197.055"/><path fill="#00AF1A" d="M24.087 51.367a.393.393 0 0 1-.261-.688l1.234-1.094-2.721 1.57a.394.394 0 0 1-.447-.645l1.496-1.223-1.881 1.086a.394.394 0 0 1-.534-.544l.795-1.31-.183.104a.393.393 0 1 1-.394-.68l1.513-.873a.394.394 0 0 1 .533.544l-.794 1.31 4.738-2.735a.394.394 0 0 1 .447.644l-1.496 1.224 1.908-1.102a.394.394 0 0 1 .458.635l-1.235 1.095 2.22-1.28a.394.394 0 0 1 .472.62l-1.098 1.087 1.359-.787a.39.39 0 0 1 .485.073.394.394 0 0 1 .036.49l-.612.896a.394.394 0 0 1 .294.721l-1.38.807a.394.394 0 0 1-.523-.563l.596-.866-2.493 1.429a.394.394 0 0 1-.474-.62l1.099-1.089-2.96 1.709a.4.4 0 0 1-.197.055"/><path fill="#00AF1A" d="M24.257 46.982a.394.394 0 0 1-.26-.69l.281-.245a.38.38 0 0 1-.334-.158.393.393 0 0 1 .036-.519l.938-.925-.464.267a.394.394 0 0 1-.467-.63l.668-.63-.201.117a.394.394 0 0 1-.493-.6l1.537-1.751-1.044.603a.394.394 0 0 1-.457-.636l.287-.253a.39.39 0 0 1-.42-.428.4.4 0 0 1 .127-.252l.466-.427a.393.393 0 0 1-.46-.636l.253-.22a.394.394 0 0 1-.287-.659l1.426-1.574-.937.54a.393.393 0 0 1-.472-.622l.876-.85-.402.233a.393.393 0 0 1-.463-.63l.437-.398a.394.394 0 0 1-.44-.642l.59-.551-.124.072a.394.394 0 0 1-.482-.612l1.206-1.272-.727.42a.394.394 0 0 1-.484-.61l1.29-1.37-.802.463a.393.393 0 0 1-.463-.63l.491-.453-.028.016a.393.393 0 0 1-.488-.604l1.412-1.557-.924.533a.394.394 0 0 1-.465-.63l.575-.536-.11.063a.393.393 0 0 1-.472-.623l.773-.75-.302.174a.393.393 0 0 1-.581-.428l.242-1.057a.393.393 0 0 1-.055-.708l.4-.23a.4.4 0 0 1 .43.025.39.39 0 0 1 .15.404l-.198.86 2.268-1.309a.394.394 0 0 1 .473.623l-.773.751.354-.204a.394.394 0 0 1 .465.63l-.574.535.11-.063a.394.394 0 0 1 .488.605L26.24 27.9l.925-.534a.394.394 0 0 1 .463.63l-.491.453.029-.017a.394.394 0 0 1 .484.61l-1.286 1.371.804-.463a.394.394 0 0 1 .48.612l-1.212 1.264.73-.42a.393.393 0 0 1 .464.63l-.588.551.124-.07a.393.393 0 0 1 .462.63l-.438.4a.394.394 0 0 1 .449.635l-.872.851.402-.232a.393.393 0 0 1 .489.605l-1.426 1.574.939-.54a.394.394 0 0 1 .455.636l-.255.222a.394.394 0 0 1 .262.683l-.465.428a.394.394 0 0 1 .457.636l-.288.252a.395.395 0 0 1 .422.4.4.4 0 0 1-.098.253l-1.537 1.75 1.046-.603a.394.394 0 0 1 .467.63l-.666.63.2-.116a.393.393 0 0 1 .472.62l-.94.929.468-.27a.394.394 0 0 1 .455.637l-.28.246a.37.37 0 0 1 .363.196.393.393 0 0 1-.144.538l-3.112 1.791a.4.4 0 0 1-.197.054"/><path fill="#00AF1A" d="M26.174 24.578a.393.393 0 0 1-.3-.649l1.277-1.502-2.827 1.632a.393.393 0 0 1-.445-.646l.773-.63-1.065.615a.394.394 0 0 1-.442-.648l.817-.654-.855.493a.394.394 0 0 1-.444-.646l.708-.575-.48.277a.393.393 0 0 1-.508-.582l1.329-1.7-.109.068a.395.395 0 0 1-.602-.284.4.4 0 0 1 .209-.397l1.87-1.08a.394.394 0 0 1 .507.583l-1.33 1.698 3.103-1.793a.394.394 0 0 1 .445.647l-.714.576.979-.564a.393.393 0 0 1 .442.647l-.822.658.839-.484a.394.394 0 0 1 .444.646l-.77.63.523-.303a.393.393 0 0 1 .497.596l-1.277 1.503.165-.096a.394.394 0 0 1 .393.682l-2.133 1.231a.4.4 0 0 1-.197.05M51.616 51.367a.395.395 0 0 1-.276-.674l.213-.21-1.44.829a.394.394 0 0 1-.49-.603l1.387-1.54-3.713 2.143a.394.394 0 0 1-.472-.618l1.81-1.822-3.247 1.873a.394.394 0 0 1-.44-.65l1.41-1.102-1.416.817a.393.393 0 0 1-.495-.598l.466-.541a.393.393 0 0 1-.107-.724l1.513-.873a.394.394 0 0 1 .495.597l-.257.297 4.238-2.446a.394.394 0 0 1 .44.65l-1.417 1.107.975-.562a.393.393 0 0 1 .472.618l-1.81 1.824 3.306-1.909a.394.394 0 0 1 .49.604l-1.382 1.537 1.942-1.12a.393.393 0 0 1 .472.62l-.272.268a.393.393 0 0 1 .275.727l-2.473 1.426a.4.4 0 0 1-.197.055"/><path fill="#00AF1A" d="M47.874 47.227a.393.393 0 0 1-.266-.684l.44-.402a.394.394 0 0 1-.463-.62l1.339-1.438-.851.49a.394.394 0 0 1-.458-.635l.326-.29a.394.394 0 0 1-.328-.68l.295-.26a.4.4 0 0 1-.345-.151.394.394 0 0 1 .029-.516l1.125-1.155-.647.373a.394.394 0 0 1-.483-.61l1.27-1.347-.787.454a.394.394 0 0 1-.472-.623l.831-.81-.359.207a.393.393 0 0 1-.478-.614l1.14-1.176-.662.382a.394.394 0 0 1-.477-.616l1.09-1.11-.613.352a.393.393 0 0 1-.49-.6l1.503-1.7-1.013.584a.393.393 0 0 1-.478-.615l1.133-1.168-.655.378a.393.393 0 0 1-.48-.613l1.18-1.226-.697.404a.394.394 0 0 1-.48-.614l1.162-1.206-.682.394a.394.394 0 0 1-.46-.63l.359-.322a.4.4 0 0 1-.405-.138.394.394 0 0 1 .023-.515l1.252-1.324-.77.443a.394.394 0 0 1-.466-.63l.642-.603-.175.1a.394.394 0 0 1-.583-.418l.261-1.298a.394.394 0 0 1-.072-.714l.4-.23a.393.393 0 0 1 .582.419l-.227 1.124 2.347-1.355a.393.393 0 0 1 .466.63l-.642.605.177-.102a.393.393 0 0 1 .483.611l-1.252 1.325.77-.445a.393.393 0 0 1 .46.634l-.358.321a.393.393 0 0 1 .378.655l-1.165 1.204.685-.393a.394.394 0 0 1 .48.614l-1.18 1.226.7-.404a.393.393 0 0 1 .478.615l-1.13 1.165.657-.378a.394.394 0 0 1 .49.601l-1.504 1.7 1.014-.585a.394.394 0 0 1 .478.617L50.176 35l.614-.355a.394.394 0 0 1 .48.616l-1.144 1.172.662-.382a.394.394 0 0 1 .472.624l-.829.803.359-.207a.393.393 0 0 1 .484.61l-1.271 1.348.787-.455a.394.394 0 0 1 .48.615l-1.127 1.155.648-.373a.393.393 0 0 1 .457.636l-.295.26a.4.4 0 0 1 .355.157.393.393 0 0 1-.058.525l-.326.29a.394.394 0 0 1 .353.655l-1.338 1.44.853-.493a.394.394 0 0 1 .462.63l-.44.402a.393.393 0 0 1 .372.692l-3.118 1.8a.4.4 0 0 1-.194.06"/><path fill="#00AF1A" d="M49.957 24.553a.393.393 0 0 1-.292-.658l.916-1.017-2.339 1.355a.393.393 0 1 1-.472-.63l1.853-1.762-2.507 1.447a.394.394 0 0 1-.438-.65l.425-.331-.398.229a.394.394 0 0 1-.461-.63l1.574-1.428-1.307.756a.393.393 0 0 1-.49-.603l1.028-1.148a.39.39 0 0 1-.364-.197.394.394 0 0 1 .144-.537l1.87-1.08a.393.393 0 0 1 .49.604l-.943 1.048 2.377-1.372a.394.394 0 0 1 .461.63l-1.578 1.433 2.142-1.238a.394.394 0 0 1 .439.652l-.421.328.43-.249a.393.393 0 0 1 .468.63l-1.853 1.762 1.63-.94a.394.394 0 0 1 .488.605l-1.015 1.127a.43.43 0 0 1 .352.197.394.394 0 0 1-.143.538l-1.87 1.08a.4.4 0 0 1-.196.049"/><path fill="#262626" d="M19.426 37.248c-2.02 4.659-2.713 9.997-4.277 14.883-.581 1.942-2.046 5.464 1.247 5.464 10.799.019 21.598-.012 32.397 0 2.88-.581 14.1 2.02 11.946-3.255-1.612-5.645-2.893-11.431-4.677-17.003-1.063-1.35-3.011-.636-4.494-.81v-12.73c3.324-2.053.792-7.126-2.855-6.039-2.986.465-4.16 4.632-1.434 6.235v1.671c-5.324 2.938-14.038 2.932-19.325-.088v-1.78c2.34-1.41 1.92-5.274-.798-5.995-3.71-1.343-7.16 3.913-3.495 6.189v12.509c-1.438-.077-3.277-.23-4.235.75m35.743.931c1.318 4.733 2.53 9.51 3.835 14.248.33 1.435 1.977 4.729-.621 4.566H27.205c-3.505-.018-7.021.027-10.52 0-1.504-.171-1.347-1.482-1.067-2.537q2.218-8.22 4.426-16.447c.55-1.519 2.402-.672 3.62-.883v9.738c-3.512.187-4.6 4.227-.582 4.478h4.575c4.397.236 4.75-4.078.297-4.553v-9.576H47.28v9.696c-4.86.81-3.904 5.079.858 4.397 1.497.107 3 .092 4.495-.044 2.293-.385 2.885-3.395.44-4.073-.498-.133-1.001-.247-1.503-.374v-9.721c1.363-.087 3.127-.221 3.6 1.085m-7.89-1.736H27.954V30.42a35.97 35.97 0 0 0 19.325-.19zm3.367 10.916c1.457.143 3.936 1.181 2.561 2.974-.422.45-.938.355-1.495.355-1.851-.112-3.795.236-5.6-.158a1.532 1.532 0 0 1 .184-2.799c.63-.33 1.81-.111 2.12-.824V25.863a.21.21 0 0 0 0-.23v-1.199c.668.13 1.357.096 2.01-.098.217 7.58-.413 15.701.22 23.023m-2.09-29.037c4.608-1.005 4.433 7.312-.166 5.267-2.019-1.023-2.073-4.446.167-5.267m-15.33 10.022c4.561.601 9.87.562 14.053-1.604v3.065a31.47 31.47 0 0 1-19.325-.236v-2.684c1.653.806 3.44 1.3 5.273 1.459M23.63 19.47c2.423-3.644 6.817 1.624 3.665 4.02a.7.7 0 0 0-.443.26c-2.383.992-4.563-2.248-3.222-4.28m2.892 4.955c.1-.021.192-.057.288-.086v19.927c.166.96-.348 2.396.227 3.122.54.133 1.09.243 1.622.401 2.037.692 1.612 3.33-.72 2.862-1.81-.117-3.73.251-5.487-.168a1.486 1.486 0 0 1 .242-2.711c.63-.344 1.72-.12 2.111-.776V24.44c.567.115 1.152.11 1.717-.014"/></g><defs><clipPath id="a"><path fill="#fff" d="M14 14h47.23v47.23H14z"/></clipPath></defs></svg>