<svg width="74" height="74" viewBox="0 0 74 74" fill="none" xmlns="http://www.w3.org/2000/svg">
<circle cx="37.001" cy="37" r="37" fill="url(#paint0_linear_670_6505)"/>
<g clip-path="url(#clip0_670_6505)">
<path d="M46.3022 31.2935C46.1945 31.2935 46.089 31.2506 46.0158 31.1704C45.8991 31.0417 45.8991 30.8543 46.0158 30.7256L46.8227 29.832L44.9336 30.8404C44.7676 30.9303 44.5559 30.8875 44.443 30.7429C44.3315 30.599 44.3555 30.3991 44.4991 30.2816L45.4182 29.5304L44.9336 29.7891C44.7713 29.8762 44.5634 29.8382 44.4497 29.6999C44.336 29.5615 44.3502 29.3665 44.4841 29.2441L46.1384 27.7293L44.9343 28.3719C44.772 28.4597 44.5641 28.421 44.4497 28.2812C44.336 28.1429 44.3517 27.9472 44.4864 27.8254L46.0636 26.4006L44.9343 27.003C44.7706 27.0923 44.5567 27.0508 44.4445 26.9055C44.3323 26.7616 44.3562 26.5624 44.4991 26.4449L45.4459 25.6681L44.9343 25.9413C44.7661 26.0326 44.5507 25.9863 44.44 25.8389C44.3293 25.6916 44.36 25.489 44.511 25.3748L44.7997 25.1563C44.6644 25.1729 44.5267 25.1224 44.443 25.0138C44.3315 24.8685 44.3577 24.6686 44.5036 24.5517L45.2006 23.9956L44.9351 24.1374C44.772 24.2274 44.5597 24.1852 44.4467 24.042C44.3338 23.8995 44.3555 23.701 44.4968 23.582L45.6239 22.6344L44.9351 23.0017C44.772 23.0909 44.5604 23.0501 44.4467 22.9069C44.3345 22.7645 44.3547 22.5666 44.4953 22.4477L45.6837 21.4399L44.9351 21.839C44.772 21.9289 44.5597 21.8867 44.4467 21.7436C44.3338 21.6011 44.3555 21.4026 44.4968 21.2836L45.6209 20.3381L44.9351 20.704C44.772 20.7939 44.5604 20.7524 44.4467 20.6092C44.3345 20.4667 44.3555 20.2689 44.4953 20.1493L45.6635 19.1602L44.9343 19.5489C44.7683 19.6388 44.5522 19.5945 44.4415 19.4479C44.3301 19.3006 44.3585 19.1 44.5073 18.9845L44.9336 18.6532C44.7758 18.7375 44.5754 18.7043 44.4587 18.5736C44.3428 18.4436 44.345 18.2548 44.4639 18.1268L45.4414 17.081L44.9343 17.3514C44.7855 17.4331 44.5955 17.4068 44.4766 17.2899C44.3577 17.1744 44.3398 16.998 44.434 16.8638L44.6569 16.5463C44.5783 16.5194 44.5088 16.4675 44.4632 16.3949C44.3592 16.2295 44.4205 16.0179 44.6 15.9224L45.4683 15.459C45.6186 15.3788 45.8071 15.4037 45.926 15.5206C46.0449 15.6361 46.0629 15.8125 45.9686 15.9466L45.9088 16.0324L46.9835 15.459C47.1398 15.3739 47.3417 15.4071 47.4592 15.5379C47.5751 15.6679 47.5728 15.8567 47.4539 15.9847L46.4772 17.0305L48.2489 16.0843C48.4164 15.993 48.6311 16.0393 48.7418 16.1853C48.8532 16.3326 48.8248 16.5332 48.6759 16.6487L48.2504 16.98L48.2564 16.9772C48.4202 16.8887 48.6318 16.9295 48.7447 17.072C48.8569 17.2145 48.836 17.4123 48.6961 17.532L47.5272 18.5217L48.2586 18.1316C48.4232 18.0431 48.6348 18.0846 48.747 18.2271C48.8599 18.3696 48.8382 18.5681 48.6969 18.6871L47.5713 19.634L48.2609 19.266C48.4254 19.1781 48.6363 19.2176 48.7492 19.3607C48.8614 19.5032 48.8412 19.701 48.7006 19.82L47.5137 20.8264L48.2624 20.4273C48.4261 20.3395 48.6385 20.3803 48.7507 20.5228C48.8637 20.6652 48.842 20.8637 48.7006 20.9827L47.5743 21.9303L48.2646 21.5616C48.4291 21.471 48.6445 21.5146 48.756 21.6606C48.8674 21.8065 48.8412 22.0064 48.6954 22.1233L47.9954 22.6815L48.2654 22.5376C48.4336 22.447 48.649 22.4926 48.7597 22.64C48.8704 22.7873 48.8397 22.9899 48.6887 23.1041L48.4022 23.3213C48.5323 23.306 48.6729 23.3552 48.7567 23.4617C48.8689 23.6055 48.845 23.8047 48.7021 23.9223L47.7523 24.7011L48.2676 24.4266C48.4291 24.338 48.6378 24.3774 48.7522 24.5172C48.8659 24.6555 48.8502 24.8512 48.7156 24.973L47.1383 26.3978L48.2698 25.794C48.4306 25.7055 48.6385 25.7449 48.7537 25.8832C48.8674 26.0215 48.8532 26.2166 48.7193 26.339L47.0658 27.8538L48.2713 27.2098C48.4366 27.1213 48.6498 27.1635 48.7619 27.3074C48.8734 27.4512 48.8494 27.6511 48.7059 27.7687L47.7867 28.5199L48.2728 28.2605C48.4291 28.1761 48.6296 28.2079 48.7462 28.3366C48.8629 28.4652 48.8629 28.6527 48.7462 28.7813L47.9393 29.6757L48.2743 29.4965C48.4089 29.4253 48.5735 29.437 48.6946 29.5249C48.8143 29.6134 48.8644 29.7607 48.8195 29.8963L48.643 30.433C48.7014 30.4621 48.7522 30.5064 48.7874 30.5631C48.8906 30.7284 48.8293 30.94 48.6498 31.0362L48.2721 31.2375C48.139 31.308 47.9737 31.2969 47.8518 31.2084C47.7321 31.1199 47.682 30.9725 47.7269 30.837L47.8271 30.5333L46.4892 31.2471C46.4308 31.279 46.3665 31.2935 46.3022 31.2935Z" fill="#247ED5"/>
<path d="M53.6719 31.1675C53.5702 31.1675 53.4699 31.1297 53.3974 31.0577C53.2792 30.9396 53.2643 30.7625 53.3637 30.6307L53.9493 29.8441L51.6608 31.057C51.4933 31.1476 51.2764 31.1023 51.1657 30.9547C51.0558 30.8071 51.0872 30.6067 51.2383 30.4934L51.4926 30.3047C51.3766 30.3143 51.245 30.2594 51.1687 30.1605C51.0573 30.015 51.0842 29.8166 51.2308 29.7013L51.8493 29.2161L51.6608 29.3163C51.4963 29.4055 51.2824 29.3636 51.1702 29.2195C51.0588 29.076 51.0827 28.8777 51.2271 28.7617L52.1051 28.0526L51.6608 28.288C51.5015 28.3745 51.2944 28.3382 51.1777 28.2016C51.064 28.0663 51.0753 27.8735 51.2061 27.7513L53.0063 26.0627L51.6601 26.7759C51.4978 26.8624 51.2906 26.824 51.1762 26.6867C51.0625 26.5494 51.0767 26.3558 51.2114 26.2343L52.8372 24.7627L51.6608 25.386C51.5015 25.4718 51.2944 25.4354 51.1785 25.2995C51.064 25.1643 51.0753 24.9721 51.2054 24.8499L53.0197 23.1414L51.6608 23.8615C51.4985 23.9493 51.2876 23.9102 51.174 23.7695C51.061 23.6295 51.0797 23.4338 51.2181 23.3144L52.577 22.14L51.6608 22.6253C51.5008 22.7124 51.2929 22.6747 51.1777 22.5367C51.0633 22.4001 51.0767 22.2073 51.2099 22.0858L52.8881 20.5489L51.6608 21.1989C51.4985 21.2854 51.2914 21.247 51.177 21.1097C51.0633 20.9724 51.0775 20.7789 51.2121 20.6574L52.8223 19.2015L51.6608 19.8165C51.4933 19.9071 51.2764 19.8612 51.1665 19.7149C51.0558 19.5681 51.0865 19.3676 51.2368 19.2544L51.5247 19.0382C51.3894 19.0608 51.2495 19.0025 51.1665 18.8933C51.0558 18.7464 51.0865 18.5467 51.2368 18.4328L51.4836 18.2467C51.3744 18.2481 51.2495 18.2008 51.1747 18.1088C51.061 17.9694 51.079 17.7745 51.2173 17.6544L51.5008 17.4087C51.3916 17.419 51.2832 17.3791 51.2046 17.3036C51.0857 17.1897 51.0663 17.0154 51.159 16.8822L51.3938 16.5431C51.3108 16.5177 51.2368 16.4649 51.1904 16.3894C51.0865 16.2253 51.1478 16.0153 51.3273 15.9205L52.1956 15.4607C52.3444 15.381 52.5336 15.4051 52.6525 15.5204C52.7714 15.6343 52.7909 15.8087 52.6981 15.9418L52.6106 16.0681L53.7571 15.4607C53.9202 15.3735 54.1311 15.4126 54.2432 15.5526C54.3569 15.692 54.339 15.8869 54.2006 16.007L54.0353 16.1505L54.8333 15.7277C55.0016 15.6371 55.217 15.6831 55.3277 15.8293C55.4383 15.9755 55.4077 16.1759 55.2574 16.2898L55.1093 16.401C55.2484 16.3818 55.392 16.434 55.4757 16.5452C55.5864 16.6921 55.5558 16.8925 55.4054 17.0057L55.1182 17.2213C55.2424 17.2069 55.383 17.2515 55.4668 17.3531C55.5804 17.4903 55.5662 17.6839 55.4316 17.8054L53.8214 19.2606L54.9851 18.6449C55.1459 18.5584 55.3546 18.5961 55.4683 18.7334C55.5827 18.87 55.5692 19.0629 55.4361 19.1844L53.7571 20.7219L54.9874 20.0705C55.1504 19.9833 55.3606 20.0218 55.4742 20.1632C55.5872 20.3025 55.5685 20.4981 55.4301 20.6176L54.072 21.7906L54.9889 21.3053C55.1482 21.2188 55.3561 21.2552 55.4712 21.3918C55.5857 21.527 55.5745 21.7192 55.4443 21.8414L53.63 23.5505L54.9919 22.8284C55.1527 22.7413 55.3613 22.7804 55.4757 22.9177C55.5894 23.055 55.5752 23.2485 55.4406 23.37L53.8155 24.841L54.9934 24.217C55.1541 24.1312 55.3598 24.1676 55.4757 24.3035C55.5902 24.4387 55.5789 24.6316 55.4481 24.7538L53.6472 26.443L54.9963 25.7285C55.1616 25.6392 55.3755 25.6818 55.487 25.8259C55.5984 25.9687 55.5745 26.1671 55.4301 26.2831L54.5536 26.9908L54.9978 26.7553C55.1631 26.6654 55.3778 26.7086 55.4899 26.8542C55.6014 26.9997 55.5745 27.198 55.4279 27.3134L54.8086 27.7986L54.9993 27.6984C55.1676 27.6078 55.3837 27.6531 55.4944 27.8007C55.6044 27.9483 55.573 28.1487 55.4219 28.262L55.1684 28.45C55.2775 28.4391 55.3845 28.4823 55.4623 28.5592C55.5804 28.6772 55.5954 28.8543 55.4959 28.9861L54.9103 29.772L55.0023 29.724C55.1803 29.6272 55.4099 29.6849 55.5131 29.8496C55.6171 30.0136 55.5558 30.2237 55.3763 30.3184L53.8588 31.1229C53.8005 31.1544 53.7362 31.1688 53.6719 31.1688V31.1675Z" fill="#247ED5"/>
<path d="M17.2858 56.522C17.1579 56.522 17.0338 56.4562 16.9635 56.3388C16.8588 56.1623 16.9171 55.9349 17.0921 55.828L26.2019 50.3087L16.514 55.902C16.336 56.0052 16.1087 55.9454 16.0047 55.7681C15.9 55.5916 15.9583 55.3635 16.1348 55.2573L18.2984 53.959L16.514 54.9889C16.3368 55.0913 16.1109 55.033 16.0055 54.8565C15.9008 54.6807 15.9568 54.4534 16.1311 54.3464L30.061 45.799L16.514 53.621C16.3368 53.7242 16.1109 53.6651 16.0055 53.4886C15.9008 53.3136 15.9568 53.0863 16.1304 52.9786L29.3124 44.8559L16.514 52.2449C16.336 52.3481 16.1094 52.2875 16.0047 52.1118C15.9 51.9353 15.9583 51.7072 16.1333 51.601L18.8803 49.9385L16.514 51.3041C16.3375 51.4073 16.1124 51.3497 16.007 51.174C15.9015 50.9997 15.9554 50.7731 16.1274 50.6639L31.1349 41.1809L16.514 49.6236C16.3368 49.7261 16.1109 49.667 16.0062 49.4927C15.9008 49.3177 15.9561 49.0911 16.1289 48.9827L26.2693 42.652L16.514 48.2834C16.3375 48.3866 16.1124 48.3291 16.007 48.1533C15.9015 47.979 15.9554 47.7524 16.1274 47.6433L25.991 41.4247L16.5133 46.8961C16.3368 46.9993 16.1132 46.941 16.0062 46.7668C15.9008 46.5932 15.9539 46.3666 16.1244 46.2574L27.4838 39.0001L16.5125 45.3346C16.336 45.4385 16.1109 45.3794 16.0047 45.2037C15.8993 45.0294 15.9546 44.8021 16.1266 44.6936L23.7385 39.9297L16.5125 44.1013C16.3353 44.2045 16.1094 44.1455 16.004 43.969C15.8993 43.7932 15.9561 43.5659 16.1304 43.4582L16.6726 43.1269L16.5125 43.2188C16.336 43.322 16.1109 43.263 16.0047 43.088C15.8993 42.913 15.9546 42.6864 16.1274 42.5779L23.544 37.9396L16.5125 41.9991C16.3353 42.1015 16.1094 42.0424 16.004 41.8674C15.8993 41.6917 15.9554 41.4643 16.1289 41.3566L19.7822 39.1011L16.5125 40.9879C16.336 41.0897 16.1139 41.0336 16.0084 40.8623C15.9015 40.691 15.9494 40.4667 16.1169 40.3537L22.8978 35.7962L16.5125 39.4832C16.336 39.5857 16.1146 39.5281 16.007 39.3561C15.9008 39.1841 15.9509 38.9582 16.1199 38.8468L17.8475 37.713L16.5125 38.4833C16.336 38.5858 16.1132 38.5289 16.007 38.3554C15.9008 38.1834 15.9516 37.9576 16.1206 37.8469L17.5693 36.8986L16.5125 37.5081C16.3413 37.6083 16.1191 37.5545 16.0107 37.3869C15.903 37.2187 15.9456 36.9958 16.1087 36.8799L22.3766 32.4173L16.5125 35.8022C16.3383 35.9047 16.1161 35.8478 16.0084 35.6773C15.9015 35.506 15.9494 35.2817 16.1161 35.1687L20.0918 32.4786L16.5125 34.545C16.3383 34.6475 16.1161 34.5914 16.0084 34.4201C15.9015 34.2496 15.9486 34.026 16.1154 33.9123L19.9737 31.2813L16.5125 33.2796C16.3532 33.3731 16.1498 33.3342 16.0331 33.1891C15.918 33.0448 15.9247 32.8369 16.0511 32.7023L16.8004 31.8953L16.5514 32.0382C16.3719 32.1414 16.1431 32.0808 16.0406 31.9013C15.9367 31.7225 15.998 31.4937 16.1775 31.3905L18.5781 30.0039C18.7374 29.9112 18.9416 29.9493 19.0575 30.0944C19.1727 30.2388 19.166 30.4467 19.0396 30.5813L18.2902 31.389L28.2623 25.6311C28.4358 25.5302 28.6595 25.5848 28.7664 25.756C28.8734 25.9265 28.8262 26.1502 28.6595 26.2638L24.7982 28.8971L28.8068 26.5824C28.9825 26.4815 29.2039 26.5368 29.3109 26.7073C29.4178 26.8786 29.3699 27.1029 29.2032 27.2159L25.2275 29.906L28.8068 27.8396C28.9781 27.7379 29.1994 27.7925 29.3086 27.9608C29.4163 28.129 29.3737 28.3519 29.2106 28.4678L22.9427 32.9304L28.8068 29.5455C28.9825 29.4438 29.2062 29.5006 29.3124 29.6734C29.4185 29.8461 29.3677 30.0712 29.1987 30.1819L27.75 31.1302L28.8068 30.5207C28.9825 30.4183 29.2054 30.4758 29.3124 30.6479C29.4185 30.8199 29.3684 31.0457 29.1994 31.1572L27.4748 32.2887L32.0309 29.6584C32.2051 29.556 32.4287 29.6128 32.5349 29.7841C32.6419 29.9553 32.594 30.1797 32.4265 30.2926L25.6418 34.8524L41.2955 25.8151C41.4728 25.7112 41.6986 25.7702 41.8041 25.9467C41.9088 26.1225 41.8527 26.3498 41.6792 26.4575L38.0236 28.7146L41.5236 26.6946C41.7009 26.5921 41.9267 26.6505 42.0314 26.8255C42.1369 27.0005 42.0815 27.2271 41.9088 27.3355L34.4914 31.9746L41.5288 27.9114C41.7053 27.8074 41.9312 27.8665 42.0374 28.0438C42.1421 28.2195 42.0853 28.4469 41.911 28.5546L41.3808 28.8791L41.5333 28.7916C41.7106 28.6892 41.9357 28.7483 42.0411 28.9225C42.1466 29.0968 42.0912 29.3241 41.9192 29.4326L34.3007 34.201L41.5393 30.0219C41.7166 29.9194 41.9402 29.9778 42.0464 30.1513C42.1518 30.3248 42.0987 30.5514 41.9282 30.6606L30.5673 37.9179L42.264 31.1661C42.4405 31.0637 42.6656 31.122 42.7711 31.2963C42.8765 31.4705 42.8227 31.6971 42.6507 31.8063L32.7877 38.0241L44.6669 31.1661C44.8434 31.0622 45.0685 31.122 45.1747 31.297C45.2802 31.472 45.2248 31.6986 45.0521 31.8071L34.9094 38.1393L46.9868 31.1669C47.1641 31.0644 47.3892 31.1228 47.4939 31.297C47.5993 31.4713 47.5455 31.6979 47.3735 31.8071L32.3667 41.2893L49.899 31.1676C50.077 31.0637 50.3029 31.1243 50.4083 31.3008C50.513 31.4772 50.4547 31.7053 50.2797 31.8115L47.5492 33.4643L51.5264 31.1684C51.7029 31.0644 51.9288 31.1235 52.035 31.3008C52.1397 31.4758 52.0836 31.7031 51.9101 31.8108L38.7221 39.9372L53.9106 31.1684C54.0871 31.0644 54.313 31.1235 54.4192 31.3008C54.5239 31.4765 54.4678 31.7039 54.2935 31.8108L40.3614 40.359L56.1124 31.2663C56.2904 31.1616 56.517 31.2222 56.6217 31.4002C56.7264 31.5767 56.668 31.8048 56.4915 31.911L54.3541 33.1944L56.4826 31.9656C56.6605 31.8617 56.8864 31.9222 56.9919 32.0987C57.0966 32.2752 57.0382 32.5026 56.8632 32.6095L47.7324 38.1415L56.4841 33.0889C56.6605 32.985 56.8864 33.044 56.9926 33.2213C57.0973 33.3963 57.0412 33.6236 56.867 33.7313L42.5527 42.542L56.4855 34.4979C56.6628 34.3939 56.8872 34.453 56.9934 34.6295C57.0988 34.8038 57.0435 35.0311 56.87 35.1396L41.9013 44.4498L56.487 36.0295C56.6643 35.9271 56.8887 35.9847 56.9941 36.1604C57.0996 36.3339 57.0457 36.5613 56.8737 36.6697L41.8975 46.1019L56.4893 37.6779C56.6658 37.5761 56.8909 37.6337 56.9963 37.808C57.1018 37.9822 57.0479 38.2088 56.8759 38.318L44.2421 46.2889L56.4908 39.217C56.668 39.1138 56.8946 39.1729 56.9993 39.3501C57.104 39.5258 57.0472 39.7532 56.8729 39.8602L55.636 40.6155L56.4923 40.1219C56.668 40.0194 56.8924 40.0763 56.9986 40.2505C57.1048 40.4233 57.0524 40.6492 56.8827 40.7598L45.1889 48.3119L56.4938 41.7844C56.6695 41.682 56.8924 41.7396 56.9993 41.9116C57.1055 42.0836 57.0554 42.3094 56.8864 42.4209L46.4596 49.2617L56.496 43.4671C56.6725 43.3647 56.8969 43.4215 57.0023 43.5958C57.1085 43.7685 57.0562 43.9951 56.8857 44.1051L50.6088 48.1496L56.4975 44.7497C56.6718 44.6473 56.8961 44.7041 57.0031 44.8769C57.1093 45.0489 57.0592 45.274 56.8909 45.3862L50.6723 49.4838L56.4998 46.1198C56.677 46.0174 56.9006 46.0757 57.0061 46.2492C57.1123 46.4227 57.0592 46.6486 56.8886 46.7585L55.464 47.6717L56.5013 47.0726C56.677 46.9702 56.9006 47.0278 57.0068 47.2005C57.113 47.3733 57.0622 47.5984 56.8931 47.7098L55.0272 48.9266L56.5028 48.0748C56.674 47.9731 56.8946 48.0284 57.0031 48.1944C57.1123 48.3612 57.0704 48.5841 56.9096 48.7007L52.0245 52.2516L56.5042 49.6655C56.674 49.5653 56.8931 49.6176 57.0023 49.7822C57.1115 49.9467 57.0749 50.1673 56.9178 50.287L53.5472 52.8462L56.5057 51.1388C56.6703 51.0431 56.8827 51.0872 56.9956 51.2435C57.1078 51.3991 57.0846 51.6137 56.9418 51.7416L54.4169 53.9972L56.5072 52.7909C56.665 52.6989 56.867 52.7348 56.9836 52.8776C57.0996 53.019 57.0958 53.2239 56.9747 53.3607L55.8222 54.671L56.5087 54.2754C56.6583 54.1871 56.8498 54.2156 56.9694 54.3442C57.0876 54.4721 57.1033 54.665 57.0053 54.8094L56.7645 55.1639C56.8685 55.1826 56.9642 55.2454 57.0203 55.3441C57.1242 55.5228 57.0629 55.7517 56.8834 55.8549L55.8416 56.4562C55.6913 56.5437 55.5006 56.5153 55.3809 56.3874C55.262 56.2595 55.2471 56.0665 55.345 55.9222L55.4707 55.7382L54.2247 56.4569C54.0677 56.5497 53.865 56.513 53.7483 56.3702C53.6324 56.2288 53.6362 56.0239 53.7573 55.8871L54.909 54.5775L51.6498 56.4592C51.4853 56.5571 51.2729 56.5108 51.1599 56.3545C51.0478 56.1989 51.071 55.9843 51.2138 55.8564L53.7386 53.6008L48.7855 56.4599C48.6149 56.5594 48.3958 56.507 48.2874 56.3433C48.1782 56.1787 48.2148 55.9581 48.3719 55.8384L51.741 53.28L46.2307 56.4614C46.0595 56.5616 45.8381 56.5078 45.7304 56.3418C45.6212 56.175 45.6631 55.9521 45.8239 55.8355L50.709 52.2846L43.4711 56.4629C43.2946 56.5661 43.0717 56.5078 42.9655 56.335C42.8593 56.1623 42.9102 55.9372 43.0792 55.8257L44.9459 54.6089L41.7315 56.4637C41.555 56.5669 41.3314 56.5078 41.2252 56.3343C41.119 56.1608 41.1721 55.9349 41.3426 55.825L42.7711 54.9096L40.0787 56.4637C39.903 56.5646 39.6801 56.5085 39.5732 56.3365C39.467 56.1645 39.5171 55.9394 39.6853 55.8272L45.9017 51.7319L37.7035 56.4644C37.527 56.5669 37.3026 56.51 37.1972 56.3358C37.091 56.163 37.1433 55.9364 37.3138 55.8265L43.5833 51.7872L35.4793 56.4659C35.3036 56.5684 35.0807 56.51 34.9737 56.3388C34.8675 56.1668 34.9177 55.9409 35.0867 55.8295L45.5158 48.9872L32.5596 56.4674C32.3846 56.5706 32.1595 56.5123 32.0533 56.3388C31.9471 56.1653 31.9995 55.9402 32.1692 55.8295L43.8645 48.2767L29.6758 56.4682C29.4986 56.5714 29.2712 56.5115 29.1673 56.335C29.0626 56.1593 29.1194 55.9319 29.2937 55.825L30.5306 55.0696L28.1075 56.4682C27.9318 56.5714 27.7067 56.513 27.6005 56.338C27.495 56.1638 27.5489 55.9372 27.7209 55.828L40.3592 47.8542L25.4369 56.4696C25.2611 56.5729 25.036 56.5153 24.9298 56.3388C24.8244 56.1653 24.8782 55.9379 25.0502 55.8295L40.0316 46.3936L22.5763 56.4711C22.3983 56.5736 22.1732 56.5145 22.0685 56.3395C21.963 56.1653 22.0184 55.9379 22.1919 55.8295L37.1568 46.5214L19.9198 56.4726C19.7426 56.5751 19.5167 56.5168 19.4113 56.3403C19.3066 56.1653 19.3627 55.9379 19.5369 55.8302L33.8467 47.0225L17.4758 56.4741C17.4167 56.5085 17.3524 56.5242 17.2888 56.5242L17.2858 56.522Z" fill="white"/>
<path d="M38.5797 49.7699C38.4616 49.7699 38.3464 49.7138 38.2738 49.6106C38.1624 49.4513 38.1916 49.2337 38.3397 49.1095L39.6679 47.9952L37.5028 49.2449C37.333 49.3451 37.1146 49.292 37.0062 49.1305C36.8963 48.9674 36.9307 48.7476 37.0855 48.6271L37.9485 47.9526L37.4534 48.2382C37.2941 48.3302 37.0922 48.2928 36.9755 48.15C36.8604 48.0079 36.8656 47.8015 36.9882 47.6654L38.0749 46.4553L37.4534 46.8136C37.3061 46.8988 37.1206 46.8741 37.001 46.753C36.8813 46.6326 36.8589 46.4463 36.9449 46.2998L37.2283 45.8219C37.1281 45.8002 37.0376 45.7381 36.983 45.6431C36.8791 45.4644 36.9404 45.2355 37.1199 45.1323L37.9882 44.6313C38.1347 44.5445 38.3202 44.5699 38.4406 44.6918C38.5603 44.8122 38.5827 44.9985 38.4967 45.145L38.3142 45.4532L39.7382 44.6305C39.896 44.537 40.0979 44.5752 40.2161 44.7188C40.3312 44.8609 40.326 45.0673 40.2034 45.2034L39.1159 46.4142L42.2076 44.6298C42.3774 44.5303 42.5958 44.5819 42.7042 44.7442C42.8142 44.9072 42.7798 45.1271 42.625 45.2475L41.7642 45.9206L43.0011 45.2064C43.1687 45.1084 43.3833 45.157 43.494 45.3156C43.6054 45.4749 43.5763 45.6925 43.4282 45.8166L42.0985 46.9317L43.0176 46.4015C43.1791 46.3057 43.3878 46.3484 43.5022 46.4994C43.6159 46.6498 43.6002 46.8614 43.4648 46.993L42.8695 47.5719L43.0168 47.4874C43.1619 47.4014 43.3474 47.4261 43.4678 47.5457C43.5882 47.6654 43.6122 47.8501 43.5284 47.9967L43.2263 48.5254C43.3332 48.5426 43.4304 48.6062 43.4888 48.7072C43.5927 48.8859 43.5314 49.1148 43.3519 49.218L42.4844 49.719C42.3378 49.8043 42.1531 49.7796 42.0334 49.6607C41.9137 49.541 41.8891 49.3563 41.9728 49.2097L42.1912 48.8276L40.6476 49.7183C40.4845 49.8133 40.2766 49.7706 40.163 49.6203C40.0493 49.47 40.065 49.2583 40.2004 49.1267L40.7964 48.5471L38.7667 49.7183C38.7084 49.7527 38.6433 49.7684 38.5797 49.7684V49.7699Z" fill="#257FD6"/>
<path d="M29.9413 49.7703C29.8283 49.7703 29.7161 49.7187 29.6436 49.623C29.5299 49.4734 29.5449 49.2617 29.6795 49.1301L31.7541 47.0914L28.4777 48.9828C28.3176 49.0763 28.1127 49.0366 27.9975 48.8915C27.8824 48.7465 27.8906 48.5378 28.0177 48.4032L29.7633 46.547L28.4769 47.2889C28.3363 47.3696 28.1598 47.3509 28.0387 47.2425C27.919 47.1333 27.8824 46.959 27.9489 46.811L28.3954 45.8238C28.2458 45.8514 28.0865 45.7826 28.0058 45.6428C27.9018 45.464 27.9631 45.2352 28.1426 45.132L29.0109 44.6309C29.1515 44.5494 29.3273 44.5681 29.4492 44.6773C29.5688 44.7865 29.6055 44.9607 29.5389 45.1088L29.1089 46.0608L31.5858 44.6309C31.7451 44.5367 31.95 44.5771 32.066 44.7222C32.1819 44.8672 32.1729 45.0759 32.0458 45.2105L30.3002 47.0667L33.9274 44.9727C34.0882 44.877 34.2976 44.9196 34.412 45.0699C34.5257 45.2195 34.5108 45.4311 34.3761 45.5628L32.3015 47.6015L34.0411 46.5971C34.1959 46.5073 34.3926 46.5402 34.51 46.6748C34.6274 46.8095 34.6334 47.0084 34.5235 47.1497L33.7726 48.1167L34.0411 47.9619C34.2191 47.8572 34.4487 47.9193 34.5519 48.0988C34.6558 48.2775 34.5945 48.5064 34.415 48.6096L32.493 49.7194C32.3389 49.8107 32.1415 49.777 32.0241 49.6417C31.9067 49.507 31.9007 49.3081 32.0106 49.1668L32.7615 48.199L30.1282 49.7194C30.0699 49.7538 30.0056 49.7703 29.9413 49.7703Z" fill="#257FD6"/>
<path d="M21.8368 49.7701C21.7261 49.7701 21.6162 49.7207 21.5429 49.628C21.4284 49.4821 21.4367 49.2735 21.5646 49.1396L23.2114 47.4016L19.662 49.4507C19.4937 49.5487 19.2798 49.5001 19.1691 49.3415C19.0577 49.1822 19.0869 48.9654 19.2349 48.8405L20.9356 47.412L19.5012 48.2399C19.3374 48.3371 19.1242 48.2923 19.0121 48.136C18.8999 47.9812 18.9223 47.7658 19.0644 47.6379L19.7031 47.0635L19.5004 47.1794C19.3591 47.261 19.1796 47.2423 19.0592 47.1308C18.9395 47.0201 18.9051 46.8429 18.9762 46.6956L19.3905 45.8273C19.2476 45.8333 19.1048 45.7734 19.03 45.6418C18.9261 45.4631 18.9874 45.2342 19.1669 45.131L20.0352 44.6299C20.1765 44.5484 20.356 44.5671 20.4764 44.6785C20.5961 44.7892 20.6305 44.9665 20.5594 45.1138L20.1698 45.9297L22.4224 44.6299C22.5869 44.5342 22.8 44.5783 22.9115 44.7339C23.0237 44.8887 23.0012 45.1041 22.8591 45.232L22.2197 45.8071L24.2591 44.6307C24.4267 44.5327 24.6406 44.5813 24.752 44.7399C24.8634 44.8992 24.8343 45.1161 24.6862 45.2409L22.9863 46.6679L25.0653 45.4683C25.2254 45.3748 25.4303 45.4145 25.5462 45.5603C25.6607 45.7061 25.6524 45.9148 25.5245 46.0487L23.8777 47.7867L25.0661 47.1009C25.2067 47.0201 25.3847 47.0373 25.5051 47.148C25.6255 47.2572 25.6606 47.4322 25.5926 47.5803L25.1581 48.5264C25.3002 48.5024 25.458 48.572 25.538 48.7088C25.6412 48.8876 25.5799 49.1164 25.4004 49.2204L24.5329 49.7207C24.3915 49.8015 24.215 49.782 24.0939 49.6728C23.9734 49.5637 23.9383 49.3886 24.0064 49.2406L24.4222 48.3364L22.0245 49.7207C21.9662 49.7551 21.9018 49.7708 21.8375 49.7708L21.8368 49.7701Z" fill="#257FD6"/>
<path d="M38.7102 41.5431C38.5905 41.5431 38.4739 41.4855 38.4013 41.3801C38.2914 41.2185 38.3235 40.9987 38.4769 40.8768L39.1066 40.3734L37.6228 41.2305C37.4545 41.33 37.2376 41.2799 37.1277 41.1191C37.0178 40.9583 37.0492 40.7392 37.201 40.6165L38.6504 39.4431L37.4545 40.1334C37.2922 40.2276 37.0821 40.1857 36.9691 40.0339C36.8555 39.8828 36.8727 39.6712 37.0095 39.5403L37.9945 38.5943L37.4545 38.9054C37.3117 38.9869 37.1322 38.9667 37.0125 38.8553C36.8921 38.7431 36.8592 38.5651 36.9317 38.4178L37.3311 37.6018C37.198 37.6198 37.0566 37.5427 36.9834 37.4156C36.8794 37.2369 36.9407 37.008 37.1202 36.9048L37.9885 36.4037C38.1306 36.3192 38.3093 36.3417 38.4312 36.4538C38.5509 36.566 38.5838 36.744 38.5113 36.8914L38.1426 37.6445L40.2934 36.4037C40.4557 36.308 40.6659 36.3506 40.7788 36.5032C40.8925 36.6543 40.8753 36.8659 40.7384 36.9968L39.755 37.9414L42.3979 36.4157C42.5655 36.317 42.7824 36.3663 42.893 36.5271C43.003 36.6879 42.9716 36.9071 42.8197 37.0297L41.3704 38.2016L43.0172 37.2511C43.1862 37.1516 43.4023 37.2025 43.513 37.3633C43.623 37.5248 43.5908 37.7447 43.4375 37.8666L42.8055 38.3721L43.0164 38.2502C43.1765 38.156 43.3829 38.1964 43.4988 38.3445C43.6132 38.4918 43.602 38.702 43.4711 38.8351L42.8332 39.4887L43.0164 39.3825C43.1645 39.2958 43.3522 39.3212 43.4719 39.4461C43.5908 39.5687 43.6117 39.7572 43.5205 39.903L43.2692 40.3084C43.3575 40.3346 43.4375 40.3936 43.4868 40.4796C43.5908 40.6584 43.5295 40.8872 43.35 40.9904L42.4825 41.4915C42.3336 41.5775 42.1459 41.5521 42.027 41.4279C41.9081 41.3053 41.8872 41.1168 41.9784 40.971L42.1003 40.7743L40.8573 41.4915C40.6973 41.5857 40.4909 41.5461 40.375 41.3973C40.2605 41.25 40.2717 41.0398 40.4026 40.9067L41.0406 40.2538L38.8957 41.4915C38.8373 41.5259 38.7723 41.5416 38.7087 41.5416L38.7102 41.5431Z" fill="#257FD6"/>
<path d="M48.6765 41.5431C48.5599 41.5431 48.4439 41.4885 48.3721 41.386C48.2607 41.2297 48.2861 41.0136 48.4312 40.8872L49.0071 40.3861L47.1008 41.487C46.9325 41.5857 46.7149 41.5356 46.6057 41.3748C46.495 41.214 46.5279 40.9949 46.6797 40.8723L48.0349 39.7826L46.4299 40.7085C46.2624 40.8064 46.0478 40.7578 45.9371 40.5993C45.8256 40.4407 45.8541 40.2231 46.0021 40.0982L47.1015 39.1746L46.4307 39.562C46.2669 39.6592 46.0537 39.6136 45.9416 39.458C45.8294 39.3032 45.8518 39.0886 45.9932 38.9599L46.2706 38.7109C46.1659 38.7206 46.059 38.681 45.9804 38.6032C45.8608 38.485 45.8354 38.3011 45.9176 38.1537L46.231 37.5981C46.121 37.5824 46.0186 37.5188 45.9595 37.4148C45.8555 37.2361 45.9169 37.0072 46.0964 36.904L46.9646 36.403C47.1105 36.317 47.2945 36.3424 47.4149 36.4606C47.5353 36.5787 47.5599 36.7627 47.4777 36.91L47.2414 37.3296L48.8463 36.4037C49.0116 36.3072 49.224 36.3529 49.3354 36.5077C49.4476 36.6625 49.4251 36.8771 49.2838 37.0058L49.1395 37.1351L50.4064 36.4037C50.5739 36.3057 50.7878 36.3544 50.8992 36.5129C51.0106 36.6715 50.9822 36.8891 50.8341 37.014L49.734 37.9383L51.8587 36.7118C52.027 36.6124 52.2446 36.664 52.3538 36.824C52.4645 36.9848 52.4316 37.2039 52.2798 37.3266L50.9269 38.4147L51.9941 37.7992C52.1594 37.7028 52.3725 37.7484 52.4854 37.9062C52.5969 38.0625 52.5714 38.2786 52.4264 38.405L51.8505 38.9061L51.9933 38.8238C52.1437 38.7363 52.3329 38.7655 52.451 38.8904C52.5699 39.0153 52.5879 39.206 52.4937 39.3511L52.027 40.0705C52.1997 39.9942 52.4084 40.0563 52.5041 40.2246C52.6081 40.4033 52.5468 40.6322 52.3673 40.7354L51.0548 41.4937C50.9067 41.582 50.7167 41.5528 50.5971 41.4279C50.4781 41.3023 50.4602 41.1116 50.5544 40.9665L51.0189 40.25L48.8642 41.4937C48.8059 41.5281 48.7416 41.5438 48.6773 41.5438L48.6765 41.5431Z" fill="#257FD6"/>
<path d="M31.3993 41.5439C31.2916 41.5439 31.1854 41.4975 31.1121 41.4092C30.9954 41.2694 30.9962 41.0667 31.1143 40.9276L32.5517 39.2322L28.8281 41.3823C28.6576 41.484 28.4377 41.4294 28.3285 41.2641C28.2193 41.0989 28.2589 40.8767 28.4182 40.7586L28.6688 40.5724L28.4796 40.6816C28.3195 40.775 28.1146 40.7362 27.9987 40.5896C27.8835 40.4437 27.8925 40.2351 28.0204 40.1012L29.6919 38.3385L28.4788 39.0385C28.3382 39.1185 28.1602 39.1006 28.0406 38.9921C27.9202 38.8829 27.8843 38.7079 27.9516 38.5598L28.3913 37.5996C28.244 37.622 28.0869 37.5547 28.0077 37.4171C27.9037 37.2384 27.965 37.0095 28.1445 36.9063L29.0128 36.4052C29.1534 36.3237 29.3306 36.3417 29.4518 36.4516C29.5715 36.5608 29.6074 36.7358 29.5401 36.8839L29.119 37.806L31.5466 36.4045C31.7059 36.311 31.9116 36.3506 32.0275 36.4965C32.1434 36.6423 32.1337 36.851 32.0058 36.9848L30.3358 38.7468L33.8949 36.6917C34.0662 36.5922 34.2853 36.6453 34.3945 36.8098C34.5037 36.9744 34.464 37.1972 34.3047 37.3154L34.052 37.5031C34.2075 37.4193 34.4035 37.4545 34.5179 37.5921C34.6346 37.7319 34.6338 37.9346 34.5156 38.0737L33.0782 39.7692L34.0437 39.212C34.1948 39.1237 34.387 39.1529 34.5059 39.283C34.6241 39.4117 34.6375 39.6061 34.5373 39.7497L34.2614 40.1453C34.3765 40.1573 34.4842 40.2224 34.5463 40.3301C34.6503 40.5088 34.5889 40.7376 34.4094 40.8409L33.2779 41.4937C33.1261 41.582 32.9346 41.5528 32.8157 41.4227C32.6976 41.2941 32.6841 41.0996 32.7843 40.956L32.9638 40.6988L31.5862 41.493C31.5279 41.5274 31.4636 41.5439 31.3993 41.5439Z" fill="#257FD6"/>
<path d="M21.2076 41.5429C21.0939 41.5429 20.9817 41.4913 20.9099 41.3948C20.7962 41.2445 20.8119 41.0328 20.9473 40.9012L22.808 39.0943L19.5398 40.9805C19.3738 41.0784 19.1591 41.0306 19.0477 40.8728C18.9363 40.715 18.9632 40.4981 19.1098 40.3724L20.6265 39.0749L19.5039 39.7225C19.3394 39.8205 19.1262 39.7734 19.0133 39.6171C18.9019 39.4615 18.9258 39.2461 19.0694 39.119L19.388 38.8371C19.2706 38.858 19.1479 38.8243 19.0589 38.7398C18.9393 38.6247 18.9093 38.4437 18.9856 38.2971L19.3476 37.6008C19.2212 37.5978 19.1 37.5305 19.0327 37.4139C18.9288 37.2351 18.9901 37.0063 19.1696 36.9031L20.0379 36.402C20.1815 36.3175 20.3632 36.3414 20.4836 36.4551C20.6033 36.5703 20.6332 36.7512 20.5569 36.8978L20.242 37.5036L22.1506 36.402C22.3166 36.304 22.5283 36.3519 22.6412 36.5074C22.7527 36.663 22.7287 36.8784 22.5851 37.0055L22.3451 37.2187L23.76 36.402C23.9276 36.304 24.1415 36.3526 24.2521 36.5097C24.3636 36.6675 24.3367 36.8844 24.1901 37.01L22.6749 38.3068L25.0426 36.9397C25.2042 36.844 25.4136 36.8866 25.5273 37.0377C25.6409 37.188 25.6252 37.3996 25.4899 37.5313L23.6292 39.3389L25.0688 38.508C25.2139 38.4227 25.3971 38.4474 25.5175 38.5641C25.6372 38.6815 25.6641 38.864 25.5841 39.0113L24.9454 40.175L25.0703 40.1032C25.2483 39.9985 25.4779 40.0606 25.5811 40.2401C25.6851 40.4188 25.6237 40.6477 25.4442 40.7509L24.1602 41.492C24.0151 41.5773 23.8318 41.5533 23.7114 41.4359C23.591 41.3185 23.5648 41.136 23.6449 40.9887L24.2836 39.825L21.396 41.492C21.3377 41.5264 21.2734 41.5421 21.209 41.5421L21.2076 41.5429Z" fill="#257FD6"/>
<path d="M47.1838 56.5205C47.0626 56.5205 46.9437 56.4615 46.8719 56.353C46.7627 56.1877 46.8009 55.9664 46.9587 55.8475L48.6062 54.6045L46.4284 55.8617C46.2564 55.9626 46.0358 55.908 45.9266 55.7398C45.8182 55.5715 45.8623 55.3494 46.0253 55.2327L46.9587 54.5701L46.4284 54.876C46.2564 54.9762 46.0358 54.9223 45.9281 54.7563C45.8189 54.5888 45.8608 54.3667 46.0216 54.25L47.6781 53.0467L46.4284 53.7684C46.2564 53.8693 46.0335 53.8147 45.9259 53.645C45.8182 53.4752 45.8638 53.2523 46.0283 53.1372L46.3058 52.9442C46.1637 52.9726 46.0104 52.9091 45.9274 52.7782C45.8189 52.6107 45.8615 52.3886 46.0238 52.2719L47.2743 51.3759L46.4284 51.8635C46.2587 51.9623 46.041 51.9122 45.9326 51.7506C45.8226 51.5883 45.8556 51.3692 46.0096 51.2473L49.482 48.4891L46.4292 50.2511C46.2631 50.3476 46.0485 50.302 45.9371 50.1427C45.8256 49.9849 45.8526 49.768 45.9999 49.6424L48.7199 47.3255L46.4299 48.6477C46.2661 48.7449 46.053 48.6993 45.9408 48.5437C45.8286 48.3889 45.8511 48.1743 45.9932 48.0457L47.0888 47.06L46.4299 47.4406C46.2901 47.5199 46.1151 47.5042 45.9962 47.3973C45.8757 47.2911 45.8361 47.1205 45.8982 46.9725L46.3836 45.814C46.2272 45.8604 46.0463 45.7931 45.9588 45.6412C45.8548 45.4625 45.9161 45.2337 46.0956 45.1305L46.9639 44.6294C47.103 44.5486 47.278 44.5651 47.3984 44.6728C47.5181 44.779 47.5577 44.9495 47.4956 45.0975L47.017 46.2381L49.8043 44.6294C49.9689 44.5336 50.182 44.5778 50.2934 44.7333C50.4056 44.8881 50.3832 45.1028 50.2411 45.2314L49.1447 46.2171L51.8961 44.6294C52.0636 44.5322 52.2775 44.5793 52.3882 44.7378C52.4997 44.8956 52.4727 45.1125 52.3254 45.2381L49.6061 47.5543L53.4853 45.3152C53.6544 45.2157 53.8713 45.2666 53.9812 45.4281C54.0911 45.5896 54.0582 45.8095 53.9042 45.9314L50.431 48.6903L53.4928 46.9231C53.6633 46.8214 53.8855 46.876 53.9939 47.0443C54.1023 47.2118 54.0597 47.4339 53.8974 47.5506L52.6485 48.4458L53.4951 47.9574C53.6686 47.8564 53.8899 47.9103 53.9976 48.0808C54.1053 48.2506 54.0597 48.4734 53.8952 48.5886L53.62 48.7793C53.7621 48.7539 53.9139 48.816 53.9969 48.9446C54.1061 49.1121 54.0642 49.3342 53.9034 49.4509L52.2409 50.658L53.4996 49.9318C53.6708 49.8308 53.8922 49.8854 54.0014 50.0537C54.1098 50.222 54.0657 50.4441 53.9027 50.5608L52.9708 51.2219L53.5018 50.916C53.6716 50.8158 53.8914 50.8681 54.0006 51.0327C54.1098 51.1979 54.0717 51.4193 53.9139 51.5382L52.2663 52.7812L53.504 52.067C53.6731 51.9675 53.8907 52.0191 54.0014 52.1814C54.1106 52.3444 54.0762 52.5651 53.9206 52.6855L53.3792 53.1065L53.5063 53.0332C53.6671 52.9397 53.875 52.9801 53.9894 53.1282C54.1038 53.2763 54.0919 53.4864 53.9602 53.6188L53.1615 54.4302L53.5093 54.2291C53.6529 54.1468 53.8339 54.167 53.9543 54.2814C54.0739 54.3951 54.1046 54.5753 54.0298 54.7227L53.7396 55.2888C53.854 55.3015 53.961 55.3666 54.0231 55.4735C54.127 55.6523 54.0657 55.8811 53.8862 55.9843L53.0763 56.4525C52.9334 56.5355 52.7524 56.5146 52.6313 56.4001C52.5116 56.2865 52.481 56.1062 52.5557 55.9589L52.7853 55.5102L51.1438 56.4585C50.9837 56.5527 50.7758 56.5131 50.6606 56.3635C50.5462 56.2162 50.5582 56.0053 50.6898 55.8729L51.4893 55.0607L49.0579 56.4645C48.8889 56.5647 48.6705 56.5116 48.5606 56.35C48.4514 56.187 48.4858 55.9664 48.6414 55.846L49.1821 55.4257L47.3722 56.4697C47.3139 56.5041 47.2488 56.5198 47.1853 56.5198L47.1838 56.5205Z" fill="#247ED5"/>
<path d="M20.3468 59.4946C20.2264 59.4946 20.1082 59.4363 20.0365 59.3294C19.9273 59.1656 19.9617 58.9457 20.1172 58.8253L20.5547 58.4858L18.8937 59.4438C18.7277 59.5425 18.5138 59.4939 18.4023 59.3361C18.2909 59.179 18.3171 58.9629 18.4629 58.8365L19.7395 57.7364L16.7825 59.443C16.6187 59.5395 16.4078 59.4954 16.2941 59.3406C16.1819 59.1865 16.2021 58.9726 16.3427 58.844L17.8624 57.4485L15.0953 59.0459C14.9375 59.1379 14.7355 59.102 14.6189 58.9592C14.5029 58.8178 14.5067 58.6129 14.6278 58.476L16.0249 56.8898L15.016 57.4716C14.8597 57.5636 14.6592 57.527 14.5418 57.3886C14.4259 57.2488 14.4259 57.0461 14.5433 56.907L14.8978 56.4867C14.8245 56.456 14.761 56.4029 14.7191 56.3289C14.6151 56.1501 14.6764 55.9213 14.8559 55.8181L16.0944 55.1031C16.25 55.0119 16.4504 55.0478 16.5686 55.1861C16.6845 55.326 16.6845 55.5287 16.5671 55.6678L16.4938 55.7553L17.6261 55.1016C17.7839 55.0089 17.9858 55.0455 18.1025 55.1884C18.2184 55.3297 18.2146 55.5346 18.0935 55.6715L16.6972 57.257L20.4313 55.1009C20.5959 55.0052 20.8068 55.0493 20.9197 55.2033C21.0319 55.3567 21.0117 55.5713 20.8711 55.6999L19.3507 57.0962L22.8081 55.1009C22.9756 55.0037 23.188 55.0515 23.2994 55.2086C23.4109 55.3656 23.3847 55.5818 23.2388 55.7082L21.9622 56.8083L24.9193 55.1016C25.0883 55.0022 25.3075 55.0538 25.4166 55.2161C25.5258 55.3798 25.4914 55.5997 25.3359 55.7201L24.8984 56.0597L26.5594 55.1016C26.7269 55.0037 26.9431 55.053 27.0537 55.2116C27.1637 55.3716 27.1338 55.59 26.9842 55.7134L25.9738 56.5458L28.4769 55.1009C28.6452 55.0014 28.8636 55.0515 28.9728 55.2138C29.0827 55.3761 29.0498 55.5952 28.8965 55.7171L28.195 56.2743L30.2285 55.1009C30.39 55.0059 30.5987 55.047 30.7131 55.1989C30.8268 55.3484 30.811 55.5601 30.6764 55.6917L29.0214 57.3086L32.8468 55.1009C33.0113 55.0052 33.2244 55.0493 33.3366 55.2056C33.448 55.3604 33.4256 55.575 33.2835 55.7029L31.8401 56.996L35.1233 55.1016C35.2923 55.0022 35.5107 55.0538 35.6199 55.2153C35.7298 55.3783 35.6954 55.5982 35.5413 55.7194L34.9961 56.1457L36.806 55.1016C36.9668 55.0067 37.1754 55.0478 37.2899 55.1981C37.4035 55.3477 37.3893 55.5586 37.2555 55.691L35.5817 57.3497L39.4766 55.1016C39.6442 55.0037 39.8588 55.0523 39.9695 55.2108C40.0809 55.3701 40.0518 55.5877 39.9037 55.7119L38.7751 56.6587L41.472 55.1024C41.6395 55.0037 41.8564 55.0538 41.9663 55.2131C42.077 55.3731 42.0463 55.5915 41.8953 55.7149L40.9402 56.4972L43.3566 55.1024C43.5181 55.0089 43.7253 55.0493 43.8397 55.1974C43.9542 55.3447 43.9422 55.5548 43.8106 55.688L42.1069 57.42L46.123 55.1016C46.2913 55.0022 46.5089 55.0523 46.6196 55.2153C46.7288 55.3776 46.6959 55.5967 46.5418 55.7186L45.9016 56.2249L47.8483 55.1016C48.0114 55.0059 48.2215 55.0485 48.3352 55.2026C48.4481 55.3544 48.4294 55.5676 48.2911 55.6977L46.7086 57.1867L50.3208 55.1016C50.4883 55.0029 50.7052 55.0523 50.8159 55.2131C50.9258 55.3739 50.8944 55.5922 50.7426 55.7156L49.8609 56.4306L52.1636 55.1016C52.3281 55.0059 52.5405 55.0508 52.6527 55.2056C52.7648 55.3611 52.7424 55.5758 52.6003 55.7037L51.1509 57.0057L54.449 55.1016C54.6098 55.0067 54.8192 55.0478 54.9337 55.1996C55.0473 55.3492 55.0316 55.5608 54.897 55.6924L53.2442 57.3056L56.9425 55.1712C57.107 55.0747 57.3186 55.1203 57.4316 55.2744C57.5437 55.4292 57.5221 55.6438 57.3807 55.7717L55.9762 57.0446L57.8377 55.9699C57.9999 55.8742 58.2108 55.9168 58.3245 56.0709C58.4375 56.2227 58.4188 56.4358 58.2804 56.566L57.62 57.1874L57.9708 56.9848C58.1129 56.9018 58.2939 56.9227 58.4143 57.0356C58.5347 57.1493 58.5661 57.328 58.4928 57.4754L58.1076 58.2434C58.2355 58.2315 58.3716 58.307 58.4419 58.4304C58.5459 58.6092 58.4846 58.838 58.3051 58.9412L57.4375 59.4423C57.2947 59.5238 57.1137 59.5029 56.9941 59.3914C56.8736 59.2785 56.8422 59.099 56.9163 58.9517L57.2655 58.2554L55.2089 59.4423C55.0458 59.538 54.8357 59.4946 54.722 59.3413C54.6091 59.1895 54.6278 58.9764 54.7661 58.8462L55.4265 58.2255L53.3183 59.4423C53.1545 59.5388 52.9428 59.4939 52.8292 59.3391C52.717 59.1843 52.7387 58.9696 52.88 58.8417L54.2845 57.5689L51.0387 59.4423C50.8772 59.5365 50.6686 59.4954 50.5541 59.3443C50.4405 59.1947 50.4562 58.9831 50.5908 58.8515L52.2436 57.2376L48.4249 59.4423C48.2619 59.5388 48.048 59.4939 47.9358 59.3383C47.8236 59.1828 47.8461 58.9681 47.9882 58.8402L49.4383 57.5375L46.1387 59.4423C45.9704 59.541 45.7543 59.4916 45.6436 59.3308C45.5337 59.1701 45.5651 58.9517 45.7169 58.8283L46.5986 58.1133L44.2959 59.4423C44.1329 59.538 43.9227 59.4946 43.8091 59.3413C43.6961 59.1895 43.7148 58.9764 43.8532 58.8462L45.4357 57.3572L41.8235 59.4423C41.6544 59.5403 41.4368 59.4916 41.3269 59.3286C41.2177 59.1663 41.2506 58.9472 41.4047 58.8253L42.0448 58.319L40.0981 59.4423C39.9381 59.5373 39.7302 59.4969 39.615 59.3473C39.5006 59.2 39.5125 58.9898 39.6442 58.8567L41.3478 57.1246L37.3317 59.443C37.1642 59.5417 36.9481 59.4924 36.8374 59.3323C36.7267 59.1723 36.7574 58.9539 36.9085 58.8305L37.8635 58.0482L35.4471 59.443C35.2796 59.541 35.0649 59.4924 34.9543 59.3338C34.8428 59.1745 34.872 58.9569 35.0201 58.8328L36.1486 57.886L33.4518 59.4423C33.2895 59.5365 33.0816 59.4954 32.9679 59.3458C32.8542 59.1962 32.8684 58.9853 33.0023 58.853L34.6761 57.1942L30.7811 59.4423C30.6114 59.5417 30.3937 59.4901 30.2845 59.3286C30.1746 59.1656 30.209 58.9457 30.3631 58.8245L30.9083 58.3983L29.0984 59.4423C28.9346 59.5388 28.7222 59.4946 28.6086 59.3376C28.4971 59.1828 28.5196 58.9681 28.6617 58.8402L30.1051 57.5472L26.8219 59.4415C26.6596 59.5358 26.451 59.4946 26.3373 59.3436C26.2236 59.194 26.2393 58.9823 26.3739 58.8507L28.029 57.2338L24.2036 59.4415C24.0346 59.5395 23.8162 59.4894 23.7078 59.3286C23.5978 59.1663 23.6307 58.9472 23.784 58.8253L24.4855 58.2681L22.4521 59.4415C22.2846 59.5395 22.0684 59.4901 21.9577 59.3316C21.8478 59.1716 21.8777 58.9532 22.0273 58.8298L23.0377 57.9974L20.5345 59.4423C20.4762 59.4767 20.4111 59.4924 20.3476 59.4924L20.3468 59.4946Z" fill="#C4C4C4"/>
<path d="M57.2692 55.1592C57.258 55.1569 57.2452 55.1577 57.234 55.1554C56.5161 51.9089 58.9863 29.834 55.733 31.1016V16.744C55.938 15.5795 54.7339 15.3439 53.8372 15.4666C52.8074 15.4666 50.9736 15.2348 50.9108 16.7126C50.8105 21.5019 50.9631 26.3033 50.9108 31.0956H49.0029V16.744C49.2116 15.587 48.0045 15.3724 47.1146 15.4958C46.1079 15.4958 44.2502 15.2654 44.1799 16.7133C44.0662 21.5012 44.239 26.3048 44.1799 31.0964H42.2773C41.9894 29.3897 42.9504 27.0055 41.7127 25.6848C37.5059 26.0482 33.611 29.3568 29.5687 30.8032C29.4708 28.8453 30.4632 24.1995 27.0761 25.9936C23.8378 27.5178 20.5987 29.042 17.3605 30.5661C13.9913 30.4876 16.469 51.3218 15.7555 55.2691C14.1304 55.5802 13.728 58.0774 14.6068 59.1999C22.1072 59.8065 29.8963 59.2111 37.4887 59.4138C44.1074 59.4063 50.7335 59.4909 57.3499 59.4019C59.45 59.339 59.1882 55.4067 57.2699 55.1607L57.2692 55.1592ZM52.0094 16.1546C52.6062 16.0185 54.2545 15.753 54.6217 16.4598C54.7017 21.3202 54.6202 26.2217 54.6486 31.0956H51.9929C52.0101 26.12 51.96 21.1198 52.0094 16.1546ZM45.2733 16.1359C45.8507 15.9766 47.5573 15.7194 47.8909 16.4598C47.9701 21.3239 47.8909 26.2203 47.9178 31.0956H45.2621C45.2748 26.1133 45.2389 21.1085 45.2733 16.1359ZM16.9948 31.5533C20.4514 29.8946 24.015 28.2717 27.5016 26.6091C29.4184 25.4028 28.1463 30.5003 28.4679 31.5182C28.4679 31.9116 28.9944 31.8899 29.2494 31.7695C30.808 31.5324 41.949 24.5996 41.1817 27.179C41.5025 28.5215 40.4869 31.1697 41.6745 31.8465H54.0047C54.597 31.8465 55.9634 31.5272 56.1391 32.284C56.1653 39.8674 56.1212 47.5167 56.1391 55.1233C55.5012 55.1435 54.873 55.1293 54.2365 55.1337C53.3369 46.3814 57.8196 43.7474 47.2911 44.6389C44.0939 44.6202 46.2792 52.7376 45.6742 55.1337C36.0655 55.1457 26.4553 55.1188 16.8482 55.1263C17.0052 47.3013 16.552 39.2916 16.994 31.5541L16.9948 31.5533ZM46.7675 55.133H46.7578C46.8954 51.8633 46.4871 48.4066 46.9089 45.2222C56.3044 44.7383 52.3751 45.6784 53.1529 55.133H46.7675ZM42.6251 58.8724H16.7779C14.9344 59.4677 14.8843 56.4657 15.9582 55.738C29.3294 55.5526 42.8345 55.7425 56.2379 55.6655C56.3568 55.7777 56.5654 55.8023 56.7681 55.7582C57.9168 56.1523 57.759 57.9562 57.5324 58.8724C52.5636 58.8724 47.5939 58.8724 42.6251 58.8724Z" fill="#262626"/>
<path d="M43.1156 44.7329C38.7204 44.7142 35.3437 43.4428 36.9808 49.4228C38.395 49.713 43.4506 50.4204 43.767 48.5283C43.5359 47.3542 44.387 45.3783 43.1156 44.7329ZM38.3569 49.1715C38.3143 49.1715 38.2671 49.1767 38.2253 49.1715C37.8147 48.826 37.6681 45.9145 37.7818 45.4486C37.8304 45.2512 41.4807 45.1831 42.2413 45.1831C43.0423 45.6176 42.7005 48.301 42.5532 49.1715H38.3569Z" fill="#262626"/>
<path d="M27.7287 48.5428C28.048 50.8163 31.8577 49.3303 33.5239 49.6893C35.514 49.45 34.6098 47.0022 34.7953 45.6291C34.206 43.6367 30.8817 45.0233 29.2581 44.6352C27.081 44.603 27.8536 47.1263 27.7287 48.5428ZM29.8294 45.2275C34.0347 45.1534 34.0527 44.6995 33.5912 49.1239C29.5138 48.9698 28.1325 50.3541 28.9282 45.2334C29.2296 45.2192 29.528 45.232 29.8294 45.2275Z" fill="#262626"/>
<path d="M18.7454 48.5175C19.008 50.9175 22.7929 49.3694 24.4697 49.7852C26.5345 49.6251 25.6498 47.0741 25.8211 45.6853C25.3387 43.521 21.9045 44.9644 20.2606 44.568C18.0881 44.5329 18.8778 47.1115 18.7454 48.5175ZM19.8702 45.2979C19.8702 45.2979 19.8747 45.2979 19.8762 45.2979C19.862 45.3151 19.8299 45.2935 19.8702 45.2979ZM19.8897 45.3832C19.9002 45.3645 19.9196 45.3264 19.9301 45.2979C23.9813 45.5552 25.3679 43.8598 24.632 49.056C20.6637 48.8025 19.2622 50.4867 19.8897 45.3832Z" fill="#262626"/>
<path d="M36.6985 40.2959C36.9693 42.6644 40.7475 41.1245 42.416 41.5359C44.4854 41.3833 43.5992 38.8398 43.7719 37.4517C43.2776 35.3203 39.8546 36.754 38.2182 36.3599C36.0457 36.3277 36.8287 38.8877 36.6985 40.2959ZM37.8166 37.0509C37.8166 37.0509 37.8196 37.0509 37.8211 37.0509C37.8039 37.0688 37.78 37.0442 37.8166 37.0509ZM37.8383 37.1436C37.8473 37.1249 37.8682 37.0823 37.8787 37.0509C41.9688 37.2977 43.306 35.6314 42.588 40.8471C38.5899 40.6018 37.2213 42.2636 37.8383 37.1436Z" fill="#262626"/>
<path d="M45.6666 40.2742C45.9029 42.7519 49.7081 41.2038 51.4102 41.6129C53.4669 41.4327 52.5762 38.863 52.7512 37.4727C52.2755 35.2156 48.7306 36.671 47.0329 36.2851C44.989 36.407 45.8274 38.9116 45.6666 40.2742ZM46.8714 37.1227C46.8213 37.1219 46.8437 37.1264 46.8714 37.1227V37.1227ZM46.7674 39.931C46.5528 35.9792 46.9065 37.3501 50.2293 37.1249C50.6392 37.1541 51.0707 37.0644 51.4663 37.1638C51.8515 38.1772 51.681 39.6954 51.5478 40.7753C50.3064 40.4044 46.6874 41.6795 46.7674 39.931Z" fill="#262626"/>
<path d="M27.7287 40.3178C28.048 42.5906 31.8577 41.1045 33.5239 41.4643C35.5148 41.225 34.6098 38.7779 34.7953 37.4048C34.206 35.4132 30.8817 36.7998 29.2581 36.4116C27.081 36.3795 27.8536 38.9013 27.7287 40.3178ZM29.8287 37.0017C34.0355 36.9277 34.0519 36.4745 33.5912 40.8996C29.5123 40.7463 28.1333 42.1291 28.9282 37.0077C29.2296 36.9935 29.5273 37.0062 29.8287 37.0017Z" fill="#262626"/>
<path d="M18.7511 40.3157C19.0749 42.5668 22.8741 41.0801 24.5336 41.4435C26.5357 41.2177 25.6345 38.7766 25.8177 37.4028C25.2217 35.4344 21.9048 36.8172 20.2857 36.429C18.1086 36.3954 18.8722 38.897 18.7511 40.3157ZM20.8466 36.9802C25.0788 36.8905 25.0706 36.4993 24.6121 40.9163C20.5033 40.7787 19.1549 42.1114 19.9551 36.9855C20.2528 36.972 20.549 36.984 20.8466 36.9802Z" fill="#262626"/>
</g>
<defs>
<linearGradient id="paint0_linear_670_6505" x1="0.000976228" y1="-10.6277" x2="90.5329" y2="94.4681" gradientUnits="userSpaceOnUse">
<stop stop-color="#E3F1FF"/>
<stop offset="1" stop-color="#77B2EA"/>
</linearGradient>
<clipPath id="clip0_670_6505">
<rect width="44.8723" height="44.8723" fill="white" transform="translate(14.0605 15.0171)"/>
</clipPath>
</defs>
</svg>
