<svg xmlns="http://www.w3.org/2000/svg" width="74" height="74" fill="none" viewBox="0 0 74 74"><circle cx="37" cy="37" r="37" fill="#BCDABF"/><path fill="#425C46" d="M38.447 60.799a.394.394 0 0 1-.22-.72l7.14-4.817-9.207 5.315a.394.394 0 0 1-.412-.67l6.704-4.37-8.22 4.747a.394.394 0 0 1-.414-.67l8.567-5.657-10.146 5.857a.394.394 0 0 1-.407-.674l2.907-1.837-3.695 2.134a.394.394 0 0 1-.41-.672l4.693-3.013-5.55 3.204a.393.393 0 0 1-.412-.67l5.905-3.867-6.787 3.918a.394.394 0 0 1-.416-.668l6.21-4.138-7.04 4.064a.394.394 0 0 1-.41-.672l1.913-1.23-2.297 1.326a.394.394 0 0 1-.417-.667l5.033-3.402-5.562 3.21a.393.393 0 0 1-.415-.668l2.704-1.794-2.945 1.699a.394.394 0 0 1-.417-.667l2.182-1.464-2.29 1.322a.392.392 0 0 1-.436-.653l4.58-3.513-4.69 2.707a.39.39 0 0 1-.529-.13.39.39 0 0 1 .108-.533l.521-.363-.201.115a.39.39 0 0 1-.517-.11.395.395 0 0 1 .06-.526l2.495-2.205-2.043 1.179a.394.394 0 0 1-.5-.591l1.2-1.458-.7.405a.393.393 0 0 1-.579-.441l.214-.808a.392.392 0 0 1-.03-.697l.394-.227a.39.39 0 0 1 .436.028c.126.096.182.26.142.413l-.152.578 1.767-1.021a.393.393 0 0 1 .5.59l-1.2 1.46 3.553-2.052a.393.393 0 0 1 .457.636l-2.497 2.207 4.927-2.844a.39.39 0 0 1 .53.13.39.39 0 0 1-.109.534l-.522.364 1.783-1.03a.394.394 0 0 1 .437.653l-4.579 3.511 7.216-4.166a.394.394 0 0 1 .416.667l-2.184 1.467 3.698-2.135a.394.394 0 0 1 .415.669l-2.702 1.793 4.268-2.464a.394.394 0 0 1 .417.667L35.643 50.8l7.059-4.074a.393.393 0 0 1 .41.672l-1.907 1.225 3.288-1.898a.394.394 0 0 1 .416.668l-6.213 4.14 8.332-4.809a.394.394 0 0 1 .412.67l-5.9 3.863 7.856-4.535a.394.394 0 0 1 .41.672l-4.693 3.012 6.384-3.686a.393.393 0 0 1 .407.674l-2.9 1.832 4.342-2.508a.393.393 0 0 1 .415.67l-8.568 5.658 9.52-5.496a.394.394 0 0 1 .412.67l-6.705 4.37 6.294-3.634a.39.39 0 0 1 .53.133.393.393 0 0 1-.114.534l-7.141 4.82 6.725-3.883a.394.394 0 0 1 .41.671l-1.567 1.013 1.15-.663a.393.393 0 0 1 .424.662l-4.598 3.252 3.815-2.203a.392.392 0 0 1 .448.643l-2.673 2.222.1-.057a.39.39 0 0 1 .538.144.39.39 0 0 1-.144.538l-4.099 2.367a.393.393 0 0 1-.448-.643l2.673-2.223-7.234 4.176a.393.393 0 0 1-.424-.662l4.602-3.253-7.27 4.196a.394.394 0 0 1-.41-.671l1.565-1.012-2.926 1.689a.4.4 0 0 1-.197.053z"/><path fill="#809E85" d="M38.337 56.074a.394.394 0 0 1-.22-.72l6.372-4.276-8.282 4.781a.394.394 0 0 1-.415-.67l6.994-4.627-8.632 4.982a.394.394 0 0 1-.41-.672l4.76-3.05-5.852 3.378a.394.394 0 0 1-.406-.674l.506-.316-1.181.682a.394.394 0 0 1-.405-.675l1.252-.782-1.897 1.095a.39.39 0 0 1-.533-.137.393.393 0 0 1 .123-.536l6.186-3.968-7.084 4.089a.393.393 0 0 1-.534-.136.395.395 0 0 1 .125-.537l5.585-3.565-6.318 3.648a.394.394 0 0 1-.412-.67l7.833-5.1-8.642 4.988a.393.393 0 0 1-.413-.67l8.352-5.493-9.061 5.23a.39.39 0 0 1-.534-.136.395.395 0 0 1 .126-.537l2.942-1.86-3.181 1.836a.394.394 0 0 1-.417-.667l8.62-5.835-9.052 5.226a.39.39 0 0 1-.534-.137.395.395 0 0 1 .126-.537l2.082-1.328-2.017 1.164a.39.39 0 0 1-.534-.136.395.395 0 0 1 .125-.537l.668-.425-.442.254a.394.394 0 0 1-.41-.672l.292-.187a.393.393 0 0 1-.328-.705l2.686-1.811-2.013 1.162a.394.394 0 0 1-.453-.64l3.127-2.688-.454.262a.39.39 0 0 1-.538-.144.39.39 0 0 1 .144-.537l4.1-2.367a.393.393 0 0 1 .453.639l-3.127 2.688 8.134-4.696a.393.393 0 0 1 .417.667l-2.683 1.81 4.653-2.687a.393.393 0 0 1 .41.672l-.083.053 1.3-.751a.394.394 0 0 1 .409.673l-.658.419 1.79-1.034a.395.395 0 0 1 .533.136.395.395 0 0 1-.125.537l-2.096 1.337 3.23-1.865a.394.394 0 0 1 .417.667l-8.618 5.834 10.568-6.1a.393.393 0 0 1 .533.136.395.395 0 0 1-.126.537l-2.947 1.864 3.843-2.218a.394.394 0 0 1 .413.67l-8.35 5.493 9.689-5.593a.394.394 0 0 1 .412.67l-7.832 5.1 8.903-5.14a.393.393 0 0 1 .408.673l-5.582 3.563 6.298-3.636a.393.393 0 0 1 .41.672l-6.194 3.974 6.852-3.955a.394.394 0 0 1 .405.675l-1.23.77 1.533-.885a.393.393 0 0 1 .405.675l-.519.324.732-.422a.393.393 0 0 1 .409.672l-4.766 3.055 5.056-2.92a.394.394 0 0 1 .415.67l-6.984 4.623 7.24-4.18a.394.394 0 0 1 .416.668l-6.37 4.273 6.37-3.677a.394.394 0 0 1 .417.667l-4.952 3.356 4.598-2.654a.393.393 0 0 1 .434.655l-4.908 3.687 3.735-2.155a.393.393 0 0 1 .433.656l-1.783 1.335a.392.392 0 0 1 .017.69l-4.099 2.368a.393.393 0 0 1-.433-.656l.574-.43-3.693 2.132a.393.393 0 0 1-.434-.655l4.91-3.689-8.413 4.856a.394.394 0 0 1-.417-.667l4.945-3.351-7.023 4.054a.4.4 0 0 1-.196.052z"/><path fill="#425C46" d="M35.805 52.937a.395.395 0 0 1-.217-.723l4.74-3.12-6.407 3.698a.394.394 0 0 1-.409-.673l2.318-1.472-3.426 1.978a.395.395 0 0 1-.412-.671l6.734-4.365-8.164 4.714a.394.394 0 0 1-.417-.668l9.283-6.222-10.973 6.335a.394.394 0 0 1-.416-.668l8.08-5.38-9.39 5.423a.394.394 0 0 1-.415-.67l6.752-4.468-7.749 4.473a.393.393 0 0 1-.412-.67l4.369-2.841-5.015 2.895a.393.393 0 0 1-.42-.665l6.716-4.614-7.542 4.355a.394.394 0 0 1-.412-.67l2.543-1.665-2.863 1.652a.392.392 0 0 1-.423-.662l5.287-3.736-5.724 3.304a.393.393 0 0 1-.428-.659l4.419-3.218-4.602 2.657a.393.393 0 0 1-.423-.662l1.953-1.38-1.779 1.028a.393.393 0 0 1-.433-.656l1.872-1.4-1.488.859a.394.394 0 0 1-.445-.645l1.288-1.048-.842.486a.39.39 0 0 1-.485-.073.39.39 0 0 1-.037-.489l1.04-1.529-.518.3a.393.393 0 0 1-.57-.468l.161-.473a.394.394 0 0 1 .016-.673l.393-.228a.392.392 0 0 1 .57.468l-.058.168 1.103-.636a.39.39 0 0 1 .485.073c.125.134.14.338.037.489l-1.04 1.528 3.626-2.093a.394.394 0 0 1 .445.646l-1.288 1.047 2.935-1.694a.393.393 0 0 1 .433.656l-1.873 1.4 3.567-2.058a.392.392 0 0 1 .424.662l-1.952 1.377 3.534-2.04a.393.393 0 0 1 .428.659l-4.419 3.217 6.719-3.879a.393.393 0 0 1 .424.662l-5.286 3.735 7.62-4.4a.394.394 0 0 1 .413.67l-2.546 1.667 4.05-2.338a.393.393 0 0 1 .42.665l-6.718 4.615 9.147-5.281a.393.393 0 0 1 .412.67l-4.37 2.843 6.088-3.515a.394.394 0 0 1 .415.669l-6.754 4.47 8.904-5.14a.394.394 0 0 1 .416.668l-8.078 5.378 10.476-6.049a.393.393 0 0 1 .417.668l-9.282 6.22L51.56 39.27a.395.395 0 0 1 .412.671l-6.731 4.363 6.32-3.648a.394.394 0 0 1 .409.673l-2.329 1.478 1.92-1.107a.39.39 0 0 1 .531.134.395.395 0 0 1-.118.535l-4.735 3.118 4.321-2.496a.394.394 0 0 1 .417.667l-4.385 2.97 3.894-2.248a.393.393 0 0 1 .43.658l-3.977 2.905 2.8-1.616a.394.394 0 0 1 .43.656l-1.693 1.256a.394.394 0 0 1-.012.674l-4.097 2.366a.392.392 0 0 1-.432-.657l.218-.161-3.166 1.828a.39.39 0 0 1-.527-.126.39.39 0 0 1 .098-.532l3.975-2.904-7.057 4.074a.394.394 0 0 1-.417-.667l4.387-2.97L36 52.885a.4.4 0 0 1-.197.053z"/><path fill="#809E85" d="M37.099 48.199a.394.394 0 0 1-.218-.721l4.15-2.76-5.93 3.424a.393.393 0 0 1-.412-.67l4.006-2.607-5.441 3.14a.39.39 0 0 1-.535-.137.395.395 0 0 1 .122-.533l-.874.505a.395.395 0 0 1-.412-.67l6.316-4.12-7.7 4.446a.394.394 0 0 1-.412-.67l7.04-4.586-8.313 4.8a.393.393 0 0 1-.413-.67l8.562-5.635-9.855 5.69a.395.395 0 0 1-.413-.67l8.027-5.233-9.053 5.227a.39.39 0 0 1-.534-.138.395.395 0 0 1 .128-.537l2.387-1.496-2.877 1.66a.393.393 0 0 1-.415-.668l9.385-6.239-10.304 5.95a.395.395 0 0 1-.415-.67l8.605-5.706-9.252 5.34a.393.393 0 0 1-.534-.135.395.395 0 0 1 .126-.537l3.755-2.396-3.952 2.282a.394.394 0 0 1-.415-.67l6.573-4.35-6.74 3.89a.39.39 0 0 1-.534-.136.395.395 0 0 1 .126-.537l.271-.172-.104.06a.393.393 0 0 1-.423-.662l6.502-4.587-6.13 3.539a.393.393 0 0 1-.418-.666l2.314-1.575-1.493.862a.393.393 0 0 1-.444-.647l2.341-1.89a.393.393 0 0 1-.259-.73l4.1-2.367a.394.394 0 0 1 .444.647l-2.212 1.787 6.366-3.676a.394.394 0 0 1 .418.666L29.41 32.82l4.396-2.538a.394.394 0 0 1 .424.663l-6.502 4.586 9.185-5.303a.394.394 0 0 1 .408.673l-.283.18 1.313-.758a.394.394 0 0 1 .415.67l-6.57 4.347 8.234-4.754a.394.394 0 0 1 .409.673l-3.756 2.395 4.815-2.78a.394.394 0 0 1 .415.67l-8.601 5.703 10.117-5.841a.393.393 0 0 1 .415.668l-9.385 6.24 10.774-6.222a.396.396 0 0 1 .535.138.395.395 0 0 1-.128.537l-2.398 1.503 2.966-1.712a.394.394 0 0 1 .412.67l-8.022 5.23 8.908-5.143a.394.394 0 0 1 .413.669l-8.566 5.638 9.357-5.403a.393.393 0 0 1 .412.67l-7.044 4.588 7.545-4.356a.393.393 0 0 1 .413.67l-6.31 4.115 6.613-3.818a.393.393 0 0 1 .406.674l-.02.012a.393.393 0 0 1 .396.68l-3.997 2.6 3.921-2.264a.393.393 0 0 1 .415.668l-4.15 2.76 3.846-2.22a.393.393 0 0 1 .424.662l-4.636 3.286 3.838-2.215a.394.394 0 0 1 .432.657l-2.116 1.577.355-.205a.39.39 0 0 1 .537.144.39.39 0 0 1-.144.538l-6.187 3.572a.394.394 0 0 1-.432-.657l2.116-1.576-5.314 3.067a.393.393 0 0 1-.425-.662L44.64 43.9l-7.344 4.24a.4.4 0 0 1-.197.053z"/><path fill="#425C46" d="M38.3 45.068a.394.394 0 0 1-.22-.72l6.55-4.423-8.61 4.97a.394.394 0 0 1-.414-.67l7.175-4.727-8.872 5.122a.393.393 0 0 1-.413-.67l8.067-5.283-9.594 5.54a.395.395 0 0 1-.412-.67l7.08-4.617-8.313 4.799a.39.39 0 0 1-.534-.138.393.393 0 0 1 .127-.536l1.593-1.001-2.23 1.287a.394.394 0 0 1-.407-.674l1.665-1.052-2.243 1.295a.393.393 0 0 1-.411-.671l4.256-2.752-4.934 2.848a.394.394 0 0 1-.417-.667l6.597-4.462-7.446 4.298a.394.394 0 0 1-.412-.671l2.432-1.577-2.796 1.614a.393.393 0 0 1-.416-.669l3.537-2.355-3.887 2.245a.394.394 0 0 1-.426-.661l5.171-3.697-5.562 3.211a.394.394 0 0 1-.425-.66l3.455-2.46-3.509 2.026a.394.394 0 0 1-.435-.654l3.189-2.43-2.975 1.718a.394.394 0 0 1-.454-.638l2.413-2.087-1.964 1.134a.394.394 0 0 1-.474-.62l1.081-1.076-.607.35a.394.394 0 0 1-.582-.422l.25-1.178a.394.394 0 0 1-.061-.71l.393-.228a.394.394 0 0 1 .582.422l-.211.992 2.454-1.417a.394.394 0 0 1 .474.62l-1.082 1.076 2.941-1.698a.394.394 0 0 1 .454.638l-2.413 2.087 4.726-2.728a.394.394 0 0 1 .435.654l-3.188 2.43 5.343-3.086a.394.394 0 0 1 .425.662l-3.456 2.46 5.41-3.122a.393.393 0 0 1 .425.66l-5.173 3.699 7.554-4.362a.393.393 0 0 1 .416.669l-3.533 2.352 5.234-3.022a.394.394 0 0 1 .412.671l-2.43 1.576 3.894-2.248a.394.394 0 0 1 .418.667l-6.596 4.46 8.886-5.13a.394.394 0 0 1 .41.672l-4.26 2.755 5.937-3.427a.395.395 0 0 1 .407.674L46.116 32.7l2.979-1.72a.393.393 0 0 1 .407.675l-1.605 1.009 2.918-1.686a.394.394 0 0 1 .412.671l-7.08 4.616 9.16-5.289a.393.393 0 0 1 .413.67l-8.067 5.283 8.27-4.774a.394.394 0 0 1 .414.67l-7.176 4.728 6.762-3.904a.394.394 0 0 1 .417.668l-6.549 4.421 6.133-3.54a.394.394 0 0 1 .423.663l-5.674 4.008 5.085-2.936a.394.394 0 0 1 .419.666l-1.492 1.02.482-.279a.394.394 0 0 1 .434.656l-1.797 1.35a.393.393 0 0 1 .022.693l-4.1 2.367a.393.393 0 0 1-.434-.655l.635-.475-3.782 2.183a.394.394 0 0 1-.419-.666l1.492-1.021-3.61 2.083a.393.393 0 0 1-.423-.662l5.674-4.008-8.365 4.83a.4.4 0 0 1-.197.052z"/><path fill="#809E85" d="M37.533 40.33a.394.394 0 0 1-.214-.724l3.043-1.967-4.382 2.53a.393.393 0 0 1-.418-.666l8.514-5.805-10.608 6.124a.394.394 0 0 1-.407-.674l1.925-1.213-2.786 1.608a.395.395 0 0 1-.412-.67l7.464-4.877-8.76 5.057a.393.393 0 0 1-.416-.667l9.855-6.595-11.314 6.532a.395.395 0 0 1-.416-.669l9.755-6.496-10.953 6.324a.394.394 0 0 1-.41-.672l7.223-4.678-7.945 4.588a.393.393 0 0 1-.41-.672l5.788-3.715-6.28 3.627a.394.394 0 0 1-.413-.67l6.988-4.563-7.431 4.291a.394.394 0 0 1-.41-.671l4.973-3.214-5.157 2.977a.394.394 0 0 1-.416-.668l6.326-4.212-6.381 3.684a.394.394 0 0 1-.414-.67l3.931-2.591-3.683 2.126a.393.393 0 0 1-.412-.671l.806-.525-.313.181a.394.394 0 0 1-.423-.663l2.977-2.087-1.965 1.134a.394.394 0 0 1-.436-.654l1.92-1.465a.392.392 0 0 1-.063-.71l4.1-2.368a.394.394 0 0 1 .436.654l-1.053.804 4.433-2.56a.394.394 0 0 1 .423.664L30.335 25.6l5.463-3.154a.393.393 0 0 1 .411.671l-.806.524 2.232-1.288a.394.394 0 0 1 .414.669l-3.932 2.593 5.593-3.23a.394.394 0 0 1 .416.67l-6.327 4.211 8.105-4.679a.394.394 0 0 1 .41.672l-4.972 3.213 6.247-3.607a.393.393 0 0 1 .413.67l-6.988 4.562 8.335-4.812a.394.394 0 0 1 .41.672l-5.786 3.713 6.805-3.929a.394.394 0 0 1 .41.672l-7.225 4.679 8.255-4.767a.393.393 0 0 1 .416.669l-9.755 6.496 10.95-6.321a.393.393 0 0 1 .416.668l-9.854 6.595 10.863-6.272a.394.394 0 0 1 .412.67l-7.463 4.875 8.024-4.633a.394.394 0 0 1 .407.674l-1.927 1.213 2.084-1.202a.394.394 0 0 1 .418.666l-8.51 5.803 8.856-5.114a.394.394 0 0 1 .41.672l-3.049 1.97 2.92-1.685a.393.393 0 0 1 .415.668l-3.885 2.582 3.545-2.048a.393.393 0 0 1 .415.669l-1.532 1.014.91-.525a.394.394 0 0 1 .437.653l-3.257 2.513 1.454-.84a.39.39 0 0 1 .538.144.39.39 0 0 1-.144.538l-6.544 3.778a.394.394 0 0 1-.438-.652l3.257-2.514-6.986 4.034a.394.394 0 0 1-.415-.67l1.53-1.011-3.216 1.856a.393.393 0 0 1-.415-.669l3.887-2.582-5.66 3.267a.4.4 0 0 1-.197.053z"/><path fill="#425C46" d="M34.68 37.162a.394.394 0 0 1-.21-.726l1.132-.719L33.382 37a.394.394 0 0 1-.408-.673l3.04-1.934-4.17 2.408a.394.394 0 0 1-.409-.672l5.214-3.329-6.4 3.695a.393.393 0 0 1-.407-.673l3.59-2.27-4.506 2.6a.394.394 0 0 1-.406-.673l1.834-1.152-2.545 1.47a.394.394 0 0 1-.414-.67l7.245-4.785-8.379 4.838a.394.394 0 0 1-.417-.666l7.8-5.293-8.933 5.157a.394.394 0 0 1-.412-.67l4.056-2.645-4.632 2.674a.394.394 0 0 1-.423-.663l7.043-4.976-7.893 4.557a.394.394 0 0 1-.429-.66l6.094-4.422-6.68 3.856a.393.393 0 0 1-.43-.657l4.71-3.48-4.92 2.84a.394.394 0 0 1-.428-.66l2.764-2.02-2.593 1.497a.394.394 0 0 1-.444-.647l2.462-1.993-2.041 1.179a.394.394 0 0 1-.493-.6L21.675 25l-1.16.67a.394.394 0 0 1-.582-.422l.25-1.18a.395.395 0 0 1-.062-.711l.394-.228a.394.394 0 0 1 .582.422l-.212.995 2.459-1.419a.394.394 0 0 1 .493.6l-1.654 1.886 4.31-2.488a.394.394 0 0 1 .444.647l-2.461 1.993 4.575-2.642a.394.394 0 0 1 .429.659l-2.764 2.02 4.644-2.681a.395.395 0 0 1 .526.125.39.39 0 0 1-.095.532l-4.711 3.48 7.172-4.14a.39.39 0 0 1 .526.127c.115.176.071.41-.098.533l-6.093 4.422 8.806-5.083a.393.393 0 0 1 .424.663l-7.045 4.977 9.773-5.642a.394.394 0 0 1 .413.67l-4.054 2.643 5.742-3.315a.393.393 0 0 1 .417.666l-7.802 5.294 10.327-5.962a.393.393 0 0 1 .414.669l-7.249 4.787 9.455-5.459a.393.393 0 0 1 .406.674L46.79 24.93l3.156-1.822a.394.394 0 0 1 .408.673l-3.59 2.27 4.797-2.77a.394.394 0 0 1 .409.672l-5.21 3.326 4.802-2.772a.394.394 0 0 1 .409.673l-3.05 1.939 2.641-1.526a.393.393 0 0 1 .408.673l-1.128.716.72-.416a.394.394 0 0 1 .424.662l-6.952 4.923 6.49-3.747a.393.393 0 0 1 .414.67l-.597.392a.393.393 0 0 1 .344.697l-1.603 1.13.288-.166a.39.39 0 0 1 .538.144.39.39 0 0 1-.144.538l-7.799 4.503a.394.394 0 0 1-.423-.663l1.603-1.131-4.1 2.367a.393.393 0 0 1-.414-.67l.46-.302-2.026 1.17a.393.393 0 0 1-.424-.663l6.952-4.922-9.718 5.611a.4.4 0 0 1-.197.053z"/><path fill="#00AF1A" d="M35.274 32.46a.393.393 0 0 1-.222-.718l7.333-5.006-9.504 5.486a.393.393 0 0 1-.412-.67l6.067-3.969-7.53 4.348a.394.394 0 0 1-.407-.674l1.36-.853-2.175 1.255a.393.393 0 0 1-.413-.67l7.377-4.813-8.653 4.996a.393.393 0 0 1-.412-.67l8.246-5.4-9.446 5.454a.393.393 0 0 1-.41-.672l6.81-4.39-7.686 4.438a.394.394 0 0 1-.415-.668l9.829-6.562L23.705 29a.394.394 0 0 1-.413-.67l8.33-5.478-9.037 5.217a.393.393 0 0 1-.416-.667l9.159-6.176-9.776 5.644a.394.394 0 0 1-.416-.668l7.839-5.286-8.108 4.682a.393.393 0 0 1-.416-.668l5.879-3.947-5.784 3.34a.394.394 0 0 1-.423-.663l5.61-3.942-5.077 2.93a.394.394 0 0 1-.418-.665l1.441-.98-.49.283a.393.393 0 0 1-.436-.654l1.924-1.471a.392.392 0 0 1-.065-.712l4.1-2.367a.394.394 0 0 1 .436.654l-1.072.82 4.464-2.578a.393.393 0 0 1 .418.666l-1.443.981 3.478-2.008a.394.394 0 0 1 .423.663l-5.607 3.94 8.222-4.745a.394.394 0 0 1 .416.667l-5.878 3.946 7.797-4.502a.394.394 0 0 1 .416.668l-7.839 5.285 9.77-5.641a.393.393 0 0 1 .417.667l-9.159 6.176 10.978-6.338a.393.393 0 0 1 .413.67l-8.332 5.48 9.667-5.582a.393.393 0 0 1 .415.669l-9.828 6.56 11.182-6.455a.394.394 0 0 1 .41.672l-6.81 4.388 7.601-4.388a.394.394 0 0 1 .414.67l-8.249 5.402 9.036-5.218a.394.394 0 0 1 .413.671l-7.375 4.811 7.932-4.58a.393.393 0 0 1 .406.674l-1.361.856 1.508-.87a.394.394 0 0 1 .413.67l-6.067 3.968 6.278-3.625a.394.394 0 0 1 .42.666l-7.332 5.006 7.382-4.263a.393.393 0 0 1 .426.662l-6.507 4.65 6.063-3.501a.394.394 0 0 1 .43.658l-3.78 2.78 2.502-1.444a.393.393 0 1 1 .393.681l-8.67 5.006a.393.393 0 0 1-.43-.658l3.78-2.78-6.923 3.998a.394.394 0 0 1-.426-.662l6.507-4.65-9.376 5.413a.4.4 0 0 1-.196.053z"/><path fill="#262626" d="M22.866 49.356c-1.256 14.492 26.548 14.748 32.108 4.687 1.028-4.145 1.381-9.528-2.606-12.333q-.004-.499-.006-.998c2.9-2.349 2.458-6.344 2.286-9.65-.073-1.607-.894-3.154-2.208-4.398 1.533-14.154-20.616-14.547-29.05-8.787-4.828 2.85-5.16 11.325-1.311 15.064-.003.547-.019 1.097-.024 1.646-3.598 3.757-3.592 11.651.811 14.77m-1.678-3.85c-.35-.943-.321-1.911-.315-2.894 7.24 7.88 23.258 7.801 30.37-.217.272 12.663-25.597 12.589-30.055 3.111M48.386 58.36c-7.619 2.974-23.897 2.856-24.379-7.94 5.546 5.905 16.201 7.369 24.077 4.255 2.53-1 4.56-2.66 6.32-4.55.603 3.995-2.54 6.987-6.019 8.236zm5.97-11.152c-.898 3.476-3.432 5.57-6.592 6.884-6.818 2.833-16.85 1.298-21.756-2.978 8.19 3.311 25.17 3.19 26.357-8.085 1.145 1.154 1.978 2.593 1.99 4.179m-2.806-6.961c-7.103 6.061-27.583 6.437-28.331-5.554 7.305 7.819 23.236 7.624 30.414-.283.129 2.18-.343 4.388-2.083 5.837m1.478-6.577c-6.019 8.317-21.54 7.932-28.484.942 8.36 3.94 24.719 4.244 27.814-6.408 1.164 1.592 1.627 3.54.67 5.466M23.095 18.988c6.443-5.908 26.347-5.845 28.115 4.574-.947 13.282-39.191 9.5-28.115-4.574m-1.802 11.039c-.45-1.045-.426-2.1-.426-3.206 7.18 7.951 23.192 7.593 30.347-.205.106 12.323-20.379 11.865-27.672 6.26-.034-.162-.226-.16-.329-.275-.744-.732-1.517-1.549-1.92-2.575m.791 5.932c2.459 11.208 19.745 10.674 28 6.398-5.31 8.102-34.087 6.756-28-6.398"/><path fill="#fff" d="M31.056 25.673c-3.733.168 3.345 2.548 4.41 2.058-.41 2.227 1.504 2.103 1.147-.01 7.063-.213 7.313-4.575 0-4.598V19.88c1.537.062 3.198.31 4.409 1.337 3.733-.169-3.345-2.549-4.41-2.058.41-2.227-1.504-2.104-1.147.01-7.063.212-7.313 4.575 0 4.598v3.242c-1.537-.062-3.198-.31-4.409-1.337m3.832-2.71c-5.742-.333-4.162-3.196.577-3.089v3.142q-.288-.026-.577-.054m2.303.966c5.743.332 4.163 3.195-.577 3.088v-3.142c.193.019.385.034.577.054"/></svg>