<svg width="92" height="92" viewBox="0 0 92 92" fill="none" xmlns="http://www.w3.org/2000/svg">
<circle cx="46" cy="46" r="46" fill="#D9EDFA"/>
<g clip-path="url(#clip0_670_7298)">
<path d="M35.6334 81.0676C35.4018 80.9295 35.3555 80.6074 35.3555 80.1013C35.3555 79.8252 35.4018 79.5492 35.4944 79.2271C35.5408 78.905 35.6334 78.5369 35.7261 78.1228C35.9114 77.2945 36.1893 76.3743 36.4672 75.316C36.7452 74.2577 37.0694 73.1534 37.3937 71.9111C37.718 70.7148 37.9959 69.5645 38.2739 68.5062C38.5518 67.4479 38.7834 66.4817 39.015 65.6995C39.154 65.2853 39.2466 64.9173 39.3856 64.5952C39.5246 64.2731 39.6172 63.997 39.7099 63.7669C39.9415 63.3068 40.1731 63.0307 40.4511 63.0768C40.6827 63.0768 40.9143 63.3528 41.0996 63.859C41.1922 64.089 41.2849 64.4111 41.3312 64.7792C41.3775 65.1473 41.4702 65.5154 41.5165 65.9755C41.6091 66.8498 41.6091 67.9081 41.5165 69.1044C41.4702 69.7025 41.3775 70.3007 41.2849 70.9449C41.1922 71.589 41.0069 72.2332 40.868 72.8774C40.6827 73.5215 40.4974 74.1657 40.2658 74.7639C40.0341 75.362 39.8025 75.9142 39.5709 76.4663C39.0614 77.5246 38.5518 78.4449 38.0422 79.1811C37.8106 79.5492 37.5327 79.8712 37.3011 80.1473C37.0694 80.4234 36.8378 80.6534 36.6062 80.7915C36.1893 81.1136 35.865 81.2516 35.6334 81.1136V81.0676Z" fill="#231F20"/>
<path d="M41.4238 81.85C41.3311 81.804 41.3311 81.574 41.4238 81.2059C41.5164 80.8378 41.7017 80.3316 41.887 79.6875C42.1186 79.0433 42.3966 78.2611 42.6745 77.3869C42.9525 76.4666 43.2767 75.4543 43.5547 74.35C44.1106 72.0954 44.5738 69.3347 44.6201 66.2519C44.6201 65.5157 44.6201 64.6875 44.5738 63.9513C44.5275 63.2151 44.3885 62.4329 44.2032 61.7427C44.0179 61.0525 43.74 60.4083 43.3694 59.9482C42.9988 59.4881 42.5819 59.166 42.0723 59.028C41.5628 58.8899 41.0069 58.8899 40.3583 59.074C39.7561 59.258 39.1539 59.5801 38.6907 60.0402C38.2275 60.4543 37.7642 61.0065 37.3936 61.6046C37.0231 62.2028 36.6988 62.893 36.3745 63.5832C35.7723 64.9635 35.2628 66.4359 34.7069 67.7703C34.1973 69.1046 33.6878 70.347 33.1782 71.4513C31.2789 75.9605 29.8892 78.6752 29.426 78.4911C28.9628 78.3071 29.5186 75.3163 30.8157 70.6231C31.14 69.4267 31.5106 68.1384 31.9275 66.804C32.3444 65.4237 32.7613 63.9973 33.3172 62.3869C33.9194 60.7764 34.7069 58.9819 36.3745 57.4635C37.2083 56.7273 38.1811 56.1292 39.2929 55.7611C40.4047 55.393 41.748 55.255 43.0451 55.6691C44.3422 56.0372 45.4539 56.9114 46.1951 57.8776C46.9363 58.8439 47.3069 59.9022 47.5848 60.9145C47.8164 61.9267 47.9554 62.893 47.9554 63.8132C47.9554 64.7335 47.9554 65.5617 47.9091 66.4359C47.6775 69.8408 46.89 72.7856 45.9635 75.1783C45.5003 76.3746 44.9907 77.3869 44.5275 78.2611C44.0179 79.1353 43.5547 79.8715 43.1378 80.4237C42.7208 80.9758 42.3503 81.3899 42.0723 81.666C41.7944 81.8961 41.5628 82.0341 41.4701 81.9421L41.4238 81.85Z" fill="#231F20"/>
<path d="M48.3255 82.7699C48.0939 82.6779 48.3255 81.7117 48.7888 80.0552C49.252 78.3988 49.9468 76.0061 50.4564 73.0153C50.7343 71.4969 50.9196 69.8865 51.0586 68.092C51.1976 66.3436 51.1976 64.4571 50.966 62.5706C50.688 60.6841 50.1321 58.7975 49.113 57.1871C48.0939 55.5307 46.5652 54.1503 44.7586 53.5522C42.952 52.908 40.8674 53.046 39.0145 53.6442C37.1616 54.2423 35.5402 55.3466 34.2432 56.681C32.8998 58.0153 31.8807 59.5337 31.0468 61.0522C30.213 62.5706 29.5645 64.089 29.0086 65.5153C28.4527 66.9417 27.9895 68.2761 27.5726 69.4264C27.1557 70.5767 26.7851 71.589 26.4608 72.4172C25.766 74.0736 25.2564 74.9018 25.0248 74.8558C24.7932 74.7638 24.8858 73.7975 25.1174 72.0491C25.2564 71.1748 25.4417 70.1166 25.6733 68.9202C25.9049 67.6779 26.2292 66.2976 26.6461 64.7331C27.063 63.1687 27.6189 61.5123 28.4527 59.7178C29.2866 57.9693 30.3983 56.1288 31.927 54.4724C32.7145 53.6442 33.5483 52.862 34.5674 52.1258C35.5866 51.4356 36.6983 50.8374 37.9027 50.4233C39.1071 50.0092 40.4042 49.6871 41.7939 49.6411C43.1373 49.5951 44.5733 49.7331 45.9167 50.2393C46.6116 50.4693 47.2601 50.7914 47.8623 51.1595C48.4645 51.5276 49.0204 51.9417 49.5299 52.4018C50.5491 53.3221 51.3829 54.3344 52.0314 55.4387C52.6799 56.543 53.1895 57.6933 53.5138 58.8436C53.838 59.9939 54.0696 61.1442 54.1623 62.2485C54.3476 64.4571 54.2086 66.5736 53.9307 68.4601C53.6527 70.3466 53.2821 72.0951 52.8652 73.6135C51.9851 76.6963 50.9196 79.089 50.0395 80.6534C49.1593 82.2178 48.5108 82.954 48.2792 82.862L48.3255 82.7699Z" fill="#231F20"/>
<path d="M54.1625 81.5276C53.9309 81.3895 54.3478 80.3312 54.9963 78.4908C55.6448 76.6042 56.4787 73.8895 56.8956 70.4386C57.0809 68.7362 57.1735 66.8036 57.0345 64.8251C56.8956 62.8006 56.525 60.684 55.8301 58.6135C55.1353 56.5429 54.0235 54.4724 52.4948 52.6779C51.7073 51.8036 50.8272 50.9754 49.9007 50.2852C48.9279 49.5951 47.8625 48.9969 46.7507 48.5828C44.4809 47.7546 42.072 47.6165 39.7559 48.1227C37.4397 48.5828 35.3088 49.549 33.5022 50.7454C32.5757 51.3435 31.7419 52.0337 30.9544 52.7239C30.5375 53.046 30.2132 53.4601 29.8426 53.8282C29.5184 54.1963 29.1478 54.5644 28.8235 54.9785C27.5264 56.5429 26.5073 58.1073 25.6735 59.6717C24.8397 61.1901 24.1448 62.6625 23.5889 63.9509C23.0331 65.2392 22.5698 66.3895 22.1992 67.3098C21.8287 68.23 21.5044 68.9662 21.2728 69.4263C21.0412 69.8865 20.8559 70.1625 20.7169 70.1165C20.5779 70.0705 20.5316 69.7944 20.5779 69.2423C20.5779 68.6901 20.7169 67.9079 20.9022 66.8957C21.0875 65.8834 21.3654 64.6871 21.7823 63.2607C22.1992 61.8343 22.7088 60.2699 23.4963 58.5674C24.2375 56.865 25.2566 55.0245 26.5537 53.23C26.8779 52.7699 27.2485 52.3558 27.6191 51.8957C28.036 51.4816 28.4066 50.9754 28.8235 50.5613C29.6573 49.6871 30.6301 48.9049 31.6956 48.1227C33.7801 46.6503 36.2816 45.3619 39.1073 44.7638C40.497 44.4417 42.0257 44.3036 43.5081 44.3957C45.0367 44.4877 46.5654 44.7638 48.0478 45.3159C49.5301 45.8681 50.8735 46.6043 52.0779 47.4785C53.2823 48.3527 54.3478 49.365 55.2742 50.4693C57.1272 52.6779 58.3316 55.1625 59.0728 57.6472C59.814 60.0858 60.0919 62.5245 60.0919 64.7331C60.0919 66.9417 59.8603 69.0122 59.4897 70.8527C59.1191 72.6932 58.6095 74.3036 58.0537 75.684C57.4978 77.0644 56.9419 78.2147 56.386 79.0889C55.8301 79.9631 55.3669 80.6073 54.9963 81.0214C54.6257 81.4355 54.3941 81.6196 54.3014 81.5736L54.1625 81.5276Z" fill="#231F20"/>
<path d="M61.5738 77.7085C61.3421 77.7085 61.2958 76.4662 61.4811 74.3496C61.5738 73.2914 61.7127 72.003 61.898 70.4846C62.0833 69.0122 62.3149 67.3098 62.4076 65.4693C62.5002 63.6288 62.5466 61.6502 62.176 59.6257C61.8517 57.6012 61.0642 55.4846 59.9988 53.4601C58.8407 51.4355 57.3583 49.457 55.4591 47.8006C54.5326 46.9723 53.5135 46.1901 52.3554 45.546C51.2436 44.9018 50.0855 44.3036 48.7885 43.8435C46.287 42.9233 43.6466 42.5091 41.0988 42.5091C38.551 42.5091 36.0958 42.9233 33.8723 43.6595C31.6488 44.3496 29.6105 45.4079 27.8966 46.5582C26.1363 47.7085 24.6539 49.0429 23.4495 50.3772C22.1988 51.7116 21.226 52.9999 20.3921 54.2423C19.6047 55.4846 18.9561 56.5429 18.4929 57.4631C18.2613 57.9233 18.076 58.3374 17.8907 58.7055C17.7054 59.0736 17.5664 59.3956 17.4274 59.6257C17.1495 60.1318 16.9642 60.3619 16.8716 60.3619C16.7789 60.3619 16.7326 60.0398 16.7789 59.4417C16.7789 59.1656 16.8252 58.7975 16.9179 58.3834C17.0105 57.9693 17.1032 57.5091 17.2422 56.957C17.5201 55.8987 18.0296 54.6564 18.6782 53.23C19.373 51.8036 20.2995 50.2852 21.5502 48.7208C22.7547 47.1564 24.3297 45.592 26.1826 44.1656C28.0819 42.7392 30.3054 41.4509 32.8532 40.5306C35.3546 39.6104 38.1804 39.0582 41.0988 39.0122C44.0172 38.9662 47.0745 39.3803 50.0392 40.4846C53.0039 41.5429 55.6444 43.1993 57.8216 45.2239C59.9988 47.2024 61.6664 49.549 62.9172 51.9417C64.1216 54.3343 64.8627 56.819 65.0944 59.2116C65.3723 61.6042 65.187 63.8128 64.9091 65.6993C64.6311 67.6318 64.2142 69.3343 63.8436 70.8067C63.473 72.2791 63.1488 73.5214 62.8245 74.5337C62.2223 76.5582 61.8054 77.6625 61.5274 77.6625L61.5738 77.7085Z" fill="#231F20"/>
<path d="M69.1249 69.1506C69.2638 69.1046 69.5418 69.3807 69.9124 69.9328L69.1712 70.0248C69.1712 69.4727 69.1712 68.7825 69.1712 67.9083C69.1712 67.4481 69.1712 66.988 69.1712 66.4819C69.1712 65.9757 69.1249 65.4236 69.0785 64.8254C68.9396 63.6291 68.8006 62.2948 68.5227 60.8684C68.3837 60.1322 68.1984 59.396 68.0131 58.6138C67.7815 57.8316 67.5499 57.0494 67.2719 56.2672C66.716 54.6567 65.9749 53.0003 65.0021 51.3438C64.0293 49.6874 62.9175 48.031 61.5278 46.5126C58.7947 43.3837 55.0888 40.669 50.7808 38.8745C48.2793 37.8162 45.6852 37.1261 43.1374 36.804C40.5896 36.4359 38.0881 36.4359 35.7719 36.758C33.4094 37.034 31.2322 37.5862 29.2403 38.3224C27.2484 39.0586 25.4418 39.8868 23.8668 40.807C22.2918 41.7273 20.9484 42.6935 19.7903 43.5678C19.2344 44.0279 18.7249 44.488 18.2153 44.8561C17.7521 45.2702 17.3352 45.6843 16.9646 46.0064C16.594 46.3745 16.2697 46.6966 15.9918 46.9727C15.7138 47.2487 15.4822 47.4788 15.2506 47.7089C14.8337 48.077 14.5558 48.261 14.4631 48.169C14.3705 48.077 14.4631 47.8009 14.6484 47.2948C14.7874 47.0187 14.9263 46.6966 15.1116 46.3745C15.3433 46.0064 15.5749 45.6383 15.8991 45.1782C16.2234 44.7181 16.594 44.258 17.0109 43.7518C17.4278 43.2457 17.9374 42.6935 18.4469 42.1414C19.5124 41.0371 20.8558 39.8868 22.4771 38.7365C24.0984 37.5862 25.9513 36.5279 28.1285 35.6076C30.2594 34.6874 32.6683 33.9512 35.3087 33.5371C37.9028 33.123 40.7285 33.031 43.6006 33.3991C46.4727 33.7211 49.391 34.4573 52.1705 35.6537C56.9881 37.6782 61.1109 40.807 64.0756 44.396C65.558 46.1905 66.7624 48.077 67.7352 49.9635C68.708 51.85 69.4028 53.7365 69.9124 55.4849C70.1903 56.3592 70.3756 57.2794 70.5609 58.1076C70.6999 58.9819 70.8388 59.7641 70.9315 60.5463C71.1168 62.1107 71.1168 63.5371 71.0705 64.8254C71.0705 65.4696 70.9778 66.0678 70.9315 66.5739C70.8852 67.1261 70.7462 67.6322 70.6999 68.0923C70.5146 69.0126 70.283 69.7027 70.144 70.2089L69.7271 71.5892L69.4028 70.3009C69.2175 69.6107 69.2175 69.2426 69.3102 69.1506H69.1249Z" fill="#231F20"/>
<path d="M74.8686 58.6598C74.9613 58.5217 75.3319 58.6598 76.0267 58.8898L75.3782 59.304C75.1929 58.7978 74.9613 58.1536 74.7297 57.3714C74.637 56.9573 74.4054 56.5432 74.2664 56.0831C74.0811 55.623 73.9422 55.1168 73.7105 54.6107C73.4789 54.1046 73.2473 53.5524 73.0157 52.9543C72.7841 52.3561 72.4598 51.804 72.1355 51.1598C71.8576 50.5156 71.4407 49.9174 71.1164 49.2733C70.7458 48.6291 70.3289 47.9849 69.8657 47.2948C68.9855 45.9604 67.9201 44.58 66.762 43.2457C66.4841 42.8776 66.1598 42.6015 65.8355 42.2334C65.5113 41.9113 65.187 41.5432 64.8627 41.2211C64.5385 40.899 64.1679 40.577 63.7973 40.2549C63.612 40.0708 63.4267 39.9328 63.2877 39.7487C63.1024 39.6107 62.9172 39.4267 62.7319 39.2886C62.3613 38.9665 61.9907 38.6444 61.5738 38.3224C61.1569 38.0463 60.7863 37.7242 60.3694 37.4481C60.1841 37.3101 59.9525 37.126 59.7672 36.988C59.5355 36.85 59.3502 36.7119 59.1186 36.5739C58.7017 36.2978 58.2385 36.0217 57.8216 35.7457C57.3583 35.5156 56.8951 35.2395 56.4319 35.0095L55.737 34.6414L54.9958 34.3193C54.4863 34.0892 54.023 33.8592 53.5135 33.6291C53.0039 33.4451 52.4944 33.261 51.9848 33.031C49.576 32.1567 47.1208 31.6046 44.712 31.2825C42.3032 31.0064 39.9407 30.9604 37.7172 31.0984C36.6054 31.1905 35.4936 31.2825 34.4745 31.4665C33.4091 31.6046 32.39 31.8346 31.4172 32.0647C30.9076 32.1567 30.4444 32.3408 29.9811 32.4328C29.5179 32.5708 29.0547 32.6629 28.5914 32.8469C28.1282 32.9849 27.7113 33.169 27.2944 33.307C27.0627 33.399 26.8775 33.4451 26.6458 33.5371C26.4605 33.6291 26.2289 33.7211 26.0436 33.7671C24.4686 34.4113 23.0326 35.0555 21.8282 35.6997C21.226 36.0217 20.6701 36.3438 20.1605 36.6199C19.651 36.942 19.1877 37.2181 18.7708 37.4481C18.5392 37.5862 18.3539 37.6782 18.1686 37.8162C17.9833 37.9543 17.798 38.0463 17.6591 38.1383C17.3348 38.3224 17.0569 38.5064 16.8252 38.6444C16.362 38.8745 16.0841 38.9665 15.9914 38.9205C15.8988 38.8285 15.9914 38.5524 16.362 38.1383C16.501 37.9083 16.7326 37.6782 17.0105 37.3561C17.1495 37.2181 17.2885 37.034 17.4275 36.896C17.5664 36.7579 17.7517 36.5739 17.937 36.3898C18.3076 36.0678 18.7245 35.6536 19.1877 35.2395C19.651 34.8714 20.2069 34.4573 20.8091 34.0432C22.0135 33.215 23.4032 32.3408 25.0708 31.5125C25.2561 31.4205 25.4877 31.2825 25.673 31.1905C25.9047 31.0984 26.09 31.0064 26.3216 30.9144C26.7848 30.7303 27.2017 30.5463 27.665 30.3162C28.1282 30.1322 28.6377 29.9481 29.101 29.8101C29.6105 29.626 30.0738 29.442 30.6297 29.304C31.6951 29.0279 32.7605 28.7058 33.9186 28.4757C35.0304 28.1997 36.2348 28.0616 37.4392 27.9236C39.8944 27.6935 42.4885 27.6475 45.1289 27.9236C47.7694 28.2457 50.5488 28.8438 53.2355 29.7641C53.7914 29.9941 54.3473 30.1782 54.9495 30.4082C55.5054 30.6383 56.0149 30.9144 56.5708 31.1444C56.8488 31.2825 57.1267 31.4205 57.3583 31.5125C57.6363 31.6506 57.8679 31.7886 58.1458 31.9267C58.6554 32.2027 59.165 32.4788 59.6745 32.8009C60.1377 33.123 60.6473 33.4451 61.1105 33.7211C61.3422 33.8592 61.5738 34.0432 61.8054 34.1813C62.037 34.3653 62.2686 34.5033 62.4539 34.6874C62.9172 35.0095 63.3341 35.3776 63.751 35.6997C64.1679 36.0678 64.5848 36.4359 64.9554 36.7579C65.1407 36.942 65.3723 37.126 65.5576 37.3101C65.7429 37.4941 65.9282 37.6782 66.1135 37.8622C66.4841 38.2303 66.8547 38.5984 67.2252 38.9665C67.5958 39.3346 67.9201 39.7487 68.2444 40.1168C68.5686 40.4849 68.8929 40.853 69.2172 41.2671C70.4216 42.8316 71.4407 44.35 72.3208 45.8684C72.7377 46.6506 73.1547 47.3408 73.4789 48.077C73.8032 48.8132 74.1738 49.5033 74.4054 50.1935C74.637 50.8837 74.9149 51.5279 75.1002 52.1721C75.2855 52.8162 75.4708 53.4144 75.6098 54.0125C75.7488 54.5647 75.8414 55.1629 75.9341 55.669C76.0267 56.1751 76.1194 56.6352 76.1657 57.0954C76.2583 57.9696 76.3047 58.6598 76.3047 59.2119V60.2242L75.6561 59.626C75.1002 59.1199 74.8686 58.7978 74.9613 58.6598H74.8686Z" fill="#231F20"/>
<path d="M76.7685 44.8559C76.6759 44.9019 76.4443 44.7639 76.12 44.4878C75.7957 44.1657 75.3788 43.6596 74.8229 43.0614C74.545 42.7393 74.267 42.4172 73.9428 42.0492C73.6185 41.6811 73.2479 41.2669 72.831 40.8528C72.4604 40.3927 71.9972 39.9786 71.534 39.5185C71.0707 39.0584 70.5612 38.5522 70.0516 38.0461C68.9862 37.0338 67.7818 36.0215 66.4847 34.9633C65.1413 33.951 63.659 32.8467 62.0376 31.8804C60.4163 30.9142 58.656 29.9019 56.7568 29.1197C54.8575 28.2915 52.8656 27.5553 50.781 26.9571C48.6965 26.359 46.5656 25.9909 44.5273 25.7148C42.4891 25.4387 40.4972 25.3467 38.5979 25.3467C36.6987 25.3467 34.892 25.4847 33.1781 25.6688C31.5104 25.8988 29.9354 26.1289 28.4994 26.451C27.8046 26.589 27.1097 26.7271 26.4612 26.9111C25.8126 27.0952 25.2104 27.2332 24.6545 27.3712C24.0987 27.5553 23.5891 27.6933 23.0795 27.8314C22.6163 27.9694 22.1531 28.1074 21.7825 28.2455C20.995 28.4755 20.3928 28.7056 19.9295 28.7976C19.4663 28.8896 19.2347 28.8896 19.1884 28.7976C19.142 28.7056 19.281 28.4755 19.6053 28.1995C19.9759 27.9234 20.4854 27.4633 21.2266 27.0492C21.5972 26.8191 22.0141 26.589 22.4773 26.313C22.9406 26.0829 23.4501 25.8068 24.006 25.5768C24.5619 25.3007 25.1641 25.0706 25.8126 24.7945C26.4612 24.5185 27.156 24.2884 27.8972 24.0584C29.3795 23.5522 31.0009 23.1381 32.7612 22.816C34.5678 22.4939 36.467 22.2179 38.5516 22.1258C40.5898 22.0338 42.767 22.0338 44.9906 22.3099C47.2141 22.5399 49.5303 22.9541 51.8001 23.5982C54.07 24.2424 56.2472 25.0706 58.2854 26.0369C60.3237 26.9571 62.1766 28.1074 63.8906 29.2117C65.6045 30.362 67.0869 31.6044 68.4766 32.8007C69.82 34.043 70.9781 35.2393 71.9972 36.4357C72.5068 37.0338 72.97 37.586 73.3869 38.1381C73.8038 38.6903 74.1744 39.1964 74.4987 39.7025C74.8229 40.2087 75.1472 40.6688 75.3788 41.1289C75.6104 41.589 75.842 42.0031 76.0737 42.3712C76.4906 43.1074 76.6759 43.7516 76.8148 44.1657C76.9538 44.5798 76.9538 44.8559 76.8148 44.9019L76.7685 44.8559Z" fill="#231F20"/>
<path d="M75.8886 36.4355C75.7496 36.4355 75.6107 36.2975 75.379 35.9754C75.1474 35.6533 74.8695 35.1472 74.4526 34.595C73.6651 33.3987 72.368 31.8343 70.4224 30.1319C69.4496 29.3036 68.3379 28.4294 67.0871 27.5552C65.8364 26.6809 64.493 25.8067 63.0107 24.9325C60.0459 23.23 56.618 21.6656 52.8658 20.5153C49.1136 19.365 45.4077 18.7208 41.9798 18.4447C40.2658 18.3067 38.6445 18.3067 37.1158 18.3067C35.5871 18.3067 34.1511 18.4447 32.854 18.5368C31.557 18.6748 30.3989 18.8128 29.3334 18.9509C28.8239 18.9969 28.3143 19.0889 27.8974 19.1809C27.4342 19.227 27.0636 19.319 26.693 19.365C25.9518 19.457 25.3959 19.549 24.979 19.595C24.5621 19.595 24.3305 19.595 24.2842 19.457C24.2842 19.365 24.3768 19.1809 24.7474 18.9049C25.0717 18.6748 25.6276 18.3527 26.3224 18.0766C26.693 17.8926 27.0636 17.7546 27.4805 17.5705C27.8974 17.3865 28.407 17.2024 28.9165 17.0644C29.9356 16.6963 31.1401 16.3742 32.4834 16.0981C33.8268 15.822 35.3092 15.546 36.9305 15.4079C38.5518 15.2699 40.3121 15.1779 42.1187 15.2239C45.7783 15.3159 49.8084 15.9141 53.8849 17.1564C57.9614 18.3987 61.6209 20.1932 64.6783 22.1717C66.207 23.184 67.5967 24.1963 68.8474 25.2546C70.0981 26.3128 71.2099 27.3251 72.1364 28.3834C73.0629 29.4417 73.8504 30.4539 74.4062 31.4202C75.0084 32.3865 75.379 33.2607 75.6107 33.9969C75.8423 34.7331 75.9812 35.3312 75.9812 35.7454C75.9812 36.1595 75.9812 36.3895 75.8423 36.4355H75.8886Z" fill="#0089DE"/>
<path d="M70.0046 21.9419C69.912 22.0339 69.7267 21.9419 69.4488 21.8499C69.1708 21.7118 68.8466 21.4818 68.4296 21.1597C68.2444 21.0217 68.0127 20.8376 67.7811 20.6075C67.5495 20.4235 67.2716 20.1934 66.9936 19.9634C66.4377 19.5032 65.7892 18.9971 65.048 18.491C64.3069 17.9388 63.5194 17.4327 62.6392 16.8345C61.7591 16.2824 60.7863 15.7302 59.7208 15.2241C58.6554 14.718 57.5436 14.1658 56.3855 13.7517C55.1811 13.2916 53.9304 12.9235 52.6333 12.6014C51.3363 12.2793 50.0392 12.0493 48.7885 11.9112C47.5377 11.7272 46.287 11.6812 45.1289 11.6812C43.9708 11.6812 42.8591 11.6812 41.7936 11.7732C40.7282 11.8652 39.7554 11.9572 38.8752 12.0953C37.9951 12.2333 37.1613 12.3713 36.4664 12.5094C36.0958 12.5554 35.7716 12.6474 35.4936 12.6934C35.1694 12.7394 34.8914 12.8315 34.6598 12.8775C34.1502 12.9695 33.7333 13.0155 33.4554 13.0155C33.1774 13.0155 32.9922 13.0155 32.9458 12.8775C32.8995 12.7394 32.9458 12.6014 33.1774 12.3713C33.4091 12.1413 33.7333 11.8652 34.1502 11.5891C34.3819 11.4511 34.6598 11.2671 34.9377 11.129C35.2157 10.991 35.5399 10.8069 35.9105 10.6229C36.6054 10.3008 37.4392 9.97871 38.3657 9.65662C39.2922 9.33454 40.3113 9.05846 41.4694 8.8284C42.5811 8.64435 43.8319 8.4603 45.1289 8.36828C46.426 8.32227 47.8157 8.27625 49.2054 8.41429C50.6414 8.55233 52.0774 8.78239 53.5598 9.10447C55.0422 9.47257 56.4319 9.9327 57.7289 10.4848C59.026 11.037 60.2304 11.6812 61.3885 12.3253C62.5002 12.9695 63.5194 13.7057 64.3995 14.3959C65.2797 15.1321 66.0671 15.8223 66.762 16.5125C67.4569 17.2026 68.0127 17.8928 68.476 18.491C68.7076 18.8131 68.9392 19.0891 69.0782 19.3652C69.2635 19.6413 69.4024 19.9174 69.5414 20.1474C69.8194 20.6075 69.9583 21.0217 70.051 21.2977C70.1436 21.5738 70.1436 21.7578 70.051 21.8499L70.0046 21.9419Z" fill="#0089DE"/>
</g>
<defs>
<clipPath id="clip0_670_7298">
<rect width="63" height="75" fill="white" transform="translate(14 8)"/>
</clipPath>
</defs>
</svg>
