<svg xmlns="http://www.w3.org/2000/svg" width="60" height="60" fill="none" viewBox="0 0 60 60"><g clip-path="url(#a)"><path fill="#E5EAEF" d="M6.72 51.47a.5.5 0 0 1-.43-.245.5.5 0 0 1 .17-.683l7.908-4.804-9.722 5.613a.5.5 0 0 1-.515-.857l24.217-15.129L2.497 50.29a.5.5 0 0 1-.512-.859l19.962-12.274L1.572 48.921a.5.5 0 0 1-.511-.86l18.074-11.057L1.28 47.314a.5.5 0 0 1-.512-.859L21.025 34.02 1.28 45.421a.5.5 0 0 1-.508-.862l5.356-3.225-4.85 2.8a.5.5 0 0 1-.51-.862l10.368-6.278-9.858 5.691a.5.5 0 0 1-.51-.86l8.569-5.187-8.06 4.652a.5.5 0 0 1-.68-.177.5.5 0 0 1 .169-.683l13.433-8.215-12.922 7.46a.5.5 0 0 1-.515-.857L19.637 27.04 1.279 37.645a.5.5 0 0 1-.515-.857l16.202-10.13-15.687 9.056a.5.5 0 0 1-.512-.859l7.775-4.789-7.265 4.194a.499.499 0 0 1-.512-.859l4.75-2.92-4.238 2.445a.5.5 0 0 1-.518-.855l12.14-7.705-11.621 6.711a.501.501 0 0 1-.522-.853l12.404-8.038-11.882 6.861a.499.499 0 0 1-.523-.852l9.478-6.153-8.955 5.171a.501.501 0 0 1-.53-.849l9.494-6.353-8.964 5.177a.5.5 0 0 1-.521-.854l1.99-1.277-1.471.85a.499.499 0 0 1-.53-.849L5.8 19.654l-4.522 2.61a.5.5 0 0 1-.528-.849l1.8-1.2-1.272.734a.5.5 0 0 1-.53-.847l.97-.657-.44.254a.499.499 0 0 1-.545-.835l2.576-1.896-2.03 1.172a.501.501 0 0 1-.555-.829l1.385-1.064-.83.48a.502.502 0 0 1-.59-.8l1.335-1.237-.745.43a.5.5 0 0 1-.686-.678l.907-1.617a.498.498 0 0 1 .067-.821l.703-.406a.501.501 0 0 1 .686.678l-.6 1.066 3.023-1.745a.5.5 0 0 1 .59.8l-1.336 1.238 3.53-2.039a.5.5 0 0 1 .556.83l-1.39 1.067 3.288-1.897a.5.5 0 0 1 .546.835L8.59 14.324l4.727-2.729a.499.499 0 0 1 .53.847l-.974.658 2.61-1.506a.5.5 0 0 1 .528.849l-1.802 1.2 3.552-2.05a.5.5 0 0 1 .529.848l-5.05 3.404 7.366-4.253a.5.5 0 0 1 .521.854l-1.997 1.281 3.698-2.135a.5.5 0 0 1 .675.168.5.5 0 0 1-.146.681l-9.49 6.351 12.474-7.2a.5.5 0 0 1 .523.852l-9.477 6.151 12.131-7.005a.5.5 0 0 1 .523.853L17.63 20.485l15.408-8.896a.499.499 0 0 1 .518.855l-12.144 7.71 14.835-8.565a.5.5 0 0 1 .512.859l-4.737 2.913 6.534-3.772a.5.5 0 0 1 .512.859l-7.764 4.781 9.772-5.64a.5.5 0 0 1 .515.857L25.389 22.576l19.034-10.989a.499.499 0 0 1 .514.857L26.06 24.225l21.889-12.638a.497.497 0 0 1 .68.177c.14.235.064.54-.17.683l-13.434 8.217 15.721-9.077a.5.5 0 0 1 .51.861l-8.557 5.18 9.35-5.398a.5.5 0 0 1 .508.861L42.159 19.39l10.454-6.035a.5.5 0 0 1 .508.862l-5.35 3.221 4.954-2.859a.5.5 0 0 1 .512.859l-20.25 12.43 19.74-11.397a.497.497 0 0 1 .68.177c.14.235.063.54-.17.683L35.165 28.386l17.563-10.14a.5.5 0 0 1 .512.859L33.273 31.382 52.727 20.15a.5.5 0 0 1 .515.857l-24.216 15.13L52.73 22.45a.5.5 0 0 1 .51.861l-7.907 4.802 7.397-4.27a.5.5 0 0 1 .514.858l-15.728 9.743 15.215-8.784a.5.5 0 0 1 .68.177.5.5 0 0 1-.169.683l-7.507 4.596 6.996-4.039a.5.5 0 0 1 .511.86l-3.338 2.037 2.828-1.633a.5.5 0 0 1 .511.86l-1.172.716.663-.383a.5.5 0 0 1 .522.853l-15.851 10.25 14.508-8.376a.499.499 0 0 1 .525.851L39.053 41.91l4.815-2.779a.5.5 0 0 1 .53.847l-6.272 4.238a.5.5 0 0 1 .269.89l-6.126 4.894a.5.5 0 0 1-.24.53l-1.547.891a.5.5 0 0 1-.562-.824l2.673-2.136-5.126 2.96a.5.5 0 0 1-.53-.847l5.205-3.52-7.562 4.365a.5.5 0 0 1-.524-.85l13.382-8.796-16.708 9.646a.499.499 0 0 1-.521-.853l15.847-10.247-19.226 11.1a.5.5 0 0 1-.511-.86l1.175-.717-2.73 1.576a.5.5 0 0 1-.511-.86l3.334-2.034-5.014 2.894a.5.5 0 0 1-.51-.86l7.515-4.6-9.457 5.46a.5.5 0 0 1-.514-.859l15.723-9.74L6.973 51.416a.5.5 0 0 1-.25.067z"/><path fill="#1C3531" d="M1.666 14.5a.5.5 0 0 1-.304-.898l5.565-4.248-5.647 3.26a.5.5 0 0 1-.546-.836l2.42-1.777-1.874 1.082a.5.5 0 0 1-.557-.827l1.49-1.16-.934.539a.5.5 0 0 1-.64-.745l1.629-2.032-.072.04a.499.499 0 1 1-.5-.865l2.376-1.371a.499.499 0 0 1 .64.745l-1.628 2.03 4.92-2.84a.499.499 0 0 1 .558.827L7.07 6.584l3.444-1.987a.5.5 0 0 1 .546.836L8.64 7.21l4.526-2.613a.501.501 0 0 1 .554.83L8.156 9.675l8.797-5.078a.5.5 0 0 1 .548.833l-5.227 3.906 8.21-4.74a.5.5 0 0 1 .532.847l-2.172 1.48 4.032-2.326a.499.499 0 0 1 .541.839L19.18 8.47l6.712-3.874a.5.5 0 0 1 .538.84l-3.942 2.8 6.307-3.64a.5.5 0 0 1 .534.844l-2.88 1.992 4.912-2.836a.499.499 0 0 1 .541.839l-4.227 3.029 6.7-3.868a.5.5 0 0 1 .542.839l-4.286 3.077 6.783-3.916a.5.5 0 0 1 .529.848l-1.145.77 2.801-1.617a.498.498 0 0 1 .538.841l-3.687 2.6 5.961-3.44a.5.5 0 0 1 .556.828l-5.72 4.428 9.103-5.256a.5.5 0 0 1 .53.847l-1.669 1.13 3.425-1.977a.5.5 0 0 1 .55.834l-5.124 3.812 6.888-3.977a.499.499 0 0 1 .53.847l-.618.418.91-.525a.5.5 0 0 1 .537.843l-1.282.896 1.35-.78a.499.499 0 0 1 .537.843l-.145.103a.5.5 0 0 1 .442.882l-.32.232a.502.502 0 0 1 .438.843l-1.822 1.874 1.227-.707a.499.499 0 0 1 .627.76l-.362.42a.5.5 0 0 1 .241.933l-2.177 1.258a.5.5 0 0 1-.628-.76l.225-.26-1.767 1.02a.5.5 0 0 1-.61-.78l1.82-1.873-4.6 2.656a.5.5 0 0 1-.545-.837l.075-.054-1.547.892a.499.499 0 0 1-.536-.842l.027-.021-1.494.863a.5.5 0 0 1-.536-.843l1.28-.895-3.013 1.739a.5.5 0 0 1-.53-.847l.613-.415-2.188 1.263a.5.5 0 0 1-.549-.834l5.127-3.814-8.056 4.65a.5.5 0 0 1-.53-.847l1.674-1.134-3.433 1.98a.5.5 0 0 1-.556-.828l5.72-4.426-9.108 5.258a.499.499 0 0 1-.538-.841l3.69-2.603-5.968 3.444a.5.5 0 0 1-.529-.848l1.14-.765-2.798 1.614a.5.5 0 0 1-.541-.84l4.288-3.078-6.788 3.919a.499.499 0 0 1-.541-.839l4.226-3.028-6.703 3.869a.5.5 0 0 1-.534-.844l2.875-1.988-4.91 2.834a.5.5 0 0 1-.539-.84l3.946-2.803-6.311 3.644a.5.5 0 0 1-.541-.84l4.234-3.033-6.713 3.875a.5.5 0 0 1-.532-.846l2.17-1.48-4.033 2.328a.499.499 0 0 1-.549-.833l5.228-3.907-8.211 4.743a.5.5 0 0 1-.25.067"/><path fill="#333232" d="M9.062 10.23a.5.5 0 0 1-.359-.848l.381-.39-.588.338a.5.5 0 0 1-.593-.796l.622-.587-.245.141a.499.499 0 0 1-.617-.773L9.334 5.52l-1.055.608a.499.499 0 0 1-.613-.777l1.205-1.264-.593.342a.5.5 0 0 1-.668-.707l.815-1.245a.5.5 0 0 1-.362-.92L9.72.6a.5.5 0 0 1 .668.707l-.789 1.204 1.786-1.03a.5.5 0 0 1 .613.776L10.79 3.523l.928-.535a.5.5 0 0 1 .617.773l-1.67 1.796 1.054-.608a.5.5 0 0 1 .593.796l-.62.587.026-.016a.499.499 0 0 1 .61.781l-.456.467a.498.498 0 0 1 .342.924l-2.903 1.676a.5.5 0 0 1-.25.067zM43.762 10.451a.501.501 0 0 1-.403-.796l.8-1.088-1.573.907a.5.5 0 0 1-.608-.782l1.09-1.114-.787.454a.5.5 0 0 1-.6-.789l1.134-1.114-.533.308a.5.5 0 0 1-.61-.779l1.287-1.34-.678.391a.499.499 0 0 1-.678-.689l.952-1.59a.498.498 0 0 1-.488-.872L43.723.6a.499.499 0 0 1 .678.689l-.95 1.59 2.061-1.19a.5.5 0 0 1 .611.78l-1.286 1.337.884-.51a.5.5 0 0 1 .6.789l-1.136 1.116.535-.309a.499.499 0 0 1 .608.782L45.24 6.788l.481-.277a.5.5 0 0 1 .653.73l-.8 1.09a.5.5 0 0 1 .484.873l-2.046 1.181a.5.5 0 0 1-.25.067z"/><path fill="#C2CDD8" d="M8.23 30.47a.5.5 0 0 1-.296-.904l1.383-1.015-2.888 1.667a.497.497 0 0 1-.669-.16.5.5 0 0 1 .124-.677l3.246-2.37-3.709 2.142a.499.499 0 0 1-.549-.833l4.275-3.194-3.868 2.232a.5.5 0 0 1-.562-.822l3.488-2.798-2.926 1.688a.5.5 0 0 1-.588-.801l2.058-1.89-1.47.849a.499.499 0 0 1-.674-.696l.893-1.435a.5.5 0 0 1-.432-.9l1.656-.955a.498.498 0 0 1 .674.696l-.887 1.425 3.678-2.123a.5.5 0 0 1 .588.8l-2.059 1.892 4.662-2.691a.499.499 0 0 1 .562.822l-3.487 2.797 5.521-3.187a.5.5 0 0 1 .55.833l-4.275 3.194 4.464-2.577a.5.5 0 0 1 .545.837l-3.247 2.37 2.71-1.563a.5.5 0 0 1 .545.836l-1.386 1.017.84-.484a.499.499 0 0 1 .593.796l-2.249 2.132 1.655-.955a.5.5 0 0 1 .672.7l-.868 1.372a.505.505 0 0 1 .592.225.5.5 0 0 1-.183.683l-1.654.956a.5.5 0 0 1-.672-.7l.857-1.356-3.565 2.059a.497.497 0 0 1-.65-.134.5.5 0 0 1 .057-.662l2.25-2.133-5.074 2.929a.5.5 0 0 1-.25.067zM25.207 30.47a.499.499 0 0 1-.31-.891l2.528-2.017-4.76 2.749a.5.5 0 0 1-.549-.834l3.657-2.722-4.312 2.489a.5.5 0 0 1-.546-.836l3.837-2.816-3.472 2.004a.498.498 0 0 1-.569-.817l4.068-3.383-3.499 2.02a.501.501 0 0 1-.59-.8l2.073-1.915-1.483.855a.5.5 0 0 1-.673-.698l.88-1.4a.5.5 0 0 1-.42-.903l1.655-.956a.495.495 0 0 1 .61.086.5.5 0 0 1 .063.612l-.87 1.386 3.614-2.086a.501.501 0 0 1 .59.8l-2.07 1.914 4.7-2.714a.5.5 0 0 1 .57.817l-4.068 3.382 6.28-3.625a.5.5 0 0 1 .545.836l-3.839 2.818 3.872-2.235a.5.5 0 0 1 .55.834l-3.658 2.72 3.108-1.793a.496.496 0 0 1 .663.15.5.5 0 0 1-.102.673l-2.532 2.018 1.971-1.137a.499.499 0 0 1 .627.76L31.41 28.04l1.31-.755a.5.5 0 0 1 .682.183.5.5 0 0 1-.183.683l-3.897 2.25a.5.5 0 0 1-.627-.76l1.936-2.226-5.174 2.986a.5.5 0 0 1-.25.068M41.25 30.34a.5.5 0 0 1-.32-.885l3.188-2.646-5.803 3.35a.499.499 0 0 1-.547-.834l3.835-2.843-4.25 2.454a.499.499 0 0 1-.546-.836l3.675-2.695-3.2 1.848a.5.5 0 0 1-.546-.836l1.902-1.396-1.356.783a.5.5 0 0 1-.595-.794l2.585-2.475-1.99 1.148a.499.499 0 0 1-.676-.69l.94-1.56a.499.499 0 0 1-.475-.878l1.657-.957a.499.499 0 0 1 .678.691l-.94 1.557 3.898-2.25a.5.5 0 0 1 .595.794l-2.586 2.474 5.662-3.268a.5.5 0 0 1 .546.836l-1.899 1.394L47.9 19.97a.5.5 0 0 1 .546.836L44.772 23.5l3.922-2.264a.5.5 0 0 1 .547.834l-3.835 2.843 3.316-1.915a.5.5 0 0 1 .66.146.5.5 0 0 1-.091.671l-3.187 2.646 2.617-1.51a.498.498 0 0 1 .625.762l-1.775 2.01 1.15-.665a.501.501 0 0 1 .646.74l-.374.483a.498.498 0 0 1 .074.901l-1.48.854a.5.5 0 0 1-.646-.739l.08-.104-1.605.927a.5.5 0 0 1-.625-.763l1.775-2.009-5.065 2.925a.5.5 0 0 1-.25.067zM8.145 45.47a.499.499 0 0 1-.29-.906l.496-.355-1.823 1.052a.5.5 0 0 1-.555-.83l4.648-3.572-5.278 3.047a.5.5 0 0 1-.549-.833l4.13-3.084-3.644 2.103a.498.498 0 0 1-.564-.821l3.22-2.601-2.655 1.533a.5.5 0 0 1-.614-.776l2.125-2.244-1.512.872a.5.5 0 0 1-.65-.733l.627-.835a.498.498 0 0 1-.191-.93l1.656-.956a.5.5 0 0 1 .65.733l-.476.634 2.37-1.368a.499.499 0 0 1 .614.776L7.755 37.62l5.232-3.021a.5.5 0 0 1 .564.821l-3.22 2.6 5.431-3.135a.499.499 0 0 1 .549.833l-4.13 3.086 4.502-2.6a.5.5 0 0 1 .555.829l-4.646 3.57 4.127-2.382a.499.499 0 0 1 .541.839l-.508.364a.5.5 0 0 1 .566.807l-2.369 2.312 1.77-1.021a.5.5 0 0 1 .594.795l-.348.33a.501.501 0 0 1 .241.934l-3.156 1.822a.5.5 0 0 1-.594-.795l.128-.121-1.588.916a.5.5 0 0 1-.599-.79l2.37-2.312-5.373 3.102a.5.5 0 0 1-.25.067zM23.108 45.47a.5.5 0 0 1-.31-.892l2.364-1.877-3.428 1.98a.5.5 0 0 1-.559-.827l4.441-3.482-4.337 2.504a.5.5 0 0 1-.535-.844l.597-.413-.062.035a.501.501 0 0 1-.584-.805l3.33-2.988-2.746 1.585a.5.5 0 0 1-.599-.79l1.242-1.219-.643.371a.501.501 0 0 1-.635-.752l.497-.598a.5.5 0 0 1-.075-.902l1.658-.957a.501.501 0 0 1 .635.752l-.16.194 1.642-.948a.499.499 0 0 1 .6.79l-1.243 1.218 3.48-2.008a.501.501 0 0 1 .584.805l-3.33 2.988 6.41-3.7a.499.499 0 0 1 .535.843l-.61.422a.501.501 0 0 1 .526.845l-4.44 3.482 3.176-1.834a.5.5 0 0 1 .56.824l-2.363 1.877 1.234-.713a.501.501 0 0 1 .641.745l-1.624 2.03.23-.133a.497.497 0 0 1 .682.183.5.5 0 0 1-.183.683l-2.526 1.458a.501.501 0 0 1-.64-.745l1.622-2.028-4.804 2.773a.5.5 0 0 1-.25.068"/><path fill="#17D87A" d="M42.936 59.432a.5.5 0 0 1-.284-.911l5.347-3.7-7.221 4.169a.5.5 0 0 1-.522-.853l1.498-.969-2.433 1.404a.5.5 0 0 1-.527-.849l6.652-4.423-7.861 4.539a.501.501 0 0 1-.52-.854l2.811-1.796-3.457 1.996a.499.499 0 0 1-.525-.851l8.354-5.498-9.264 5.349a.499.499 0 0 1-.529-.848l11.369-7.632-12.338 7.123a.5.5 0 0 1-.523-.852l8.714-5.663-9.229 5.328a.5.5 0 0 1-.529-.849l12.236-8.187-12.821 7.402a.5.5 0 0 1-.521-.854l7.468-4.798-7.603 4.389A.497.497 0 0 1 30 50.57a.5.5 0 0 1 .16-.682l4.539-2.875-4.497 2.596a.5.5 0 0 1-.529-.848l11.876-7.972-11.917 6.879a.501.501 0 0 1-.522-.853l7.238-4.691-6.97 4.023a.5.5 0 0 1-.523-.852l6.743-4.389-6.321 3.649a.501.501 0 0 1-.529-.848l8.402-5.635-7.758 4.479a.5.5 0 0 1-.521-.853l2.119-1.367-1.343.775a.5.5 0 0 1-.534-.844l6.479-4.474-5.223 3.015a.5.5 0 0 1-.535-.844l3.522-2.441-1.87 1.079a.498.498 0 0 1-.564-.821l3.326-2.696a.498.498 0 0 1-.189-.929l4.677-2.7a.497.497 0 0 1 .662.149.5.5 0 0 1-.098.672l-2.829 2.294 6.862-3.962a.5.5 0 0 1 .535.844l-3.515 2.437 5.458-3.151a.5.5 0 0 1 .534.844l-6.483 4.478 8.301-4.792a.5.5 0 0 1 .521.853l-2.126 1.371 2.991-1.727a.501.501 0 0 1 .529.848l-8.394 5.629 9.656-5.575a.499.499 0 0 1 .523.852l-6.757 4.397 7.559-4.363a.501.501 0 0 1 .522.853l-7.238 4.691 7.903-4.562a.499.499 0 0 1 .529.848l-11.875 7.972 12.741-7.355a.5.5 0 0 1 .518.856l-4.533 2.872 4.765-2.751a.5.5 0 0 1 .521.854l-7.463 4.795 7.705-4.448a.5.5 0 0 1 .675.168.5.5 0 0 1-.146.681l-12.233 8.185 12.565-7.255a.5.5 0 0 1 .523.852l-8.724 5.669 8.716-5.031a.5.5 0 0 1 .529.848l-11.369 7.631L58.56 41.42a.501.501 0 0 1 .525.851l-8.348 5.493 7.966-4.599a.5.5 0 0 1 .52.854l-2.813 1.797 2.276-1.313a.5.5 0 0 1 .527.849l-6.655 4.424 5.893-3.401a.499.499 0 0 1 .522.853l-1.496.968.617-.356a.5.5 0 0 1 .534.844l-5.349 3.701 3.932-2.27a.5.5 0 0 1 .546.836l-3.911 2.871 1.608-.928a.497.497 0 0 1 .683.183.5.5 0 0 1-.183.683l-9.488 5.478a.5.5 0 0 1-.546-.836l3.908-2.869-6.644 3.835a.5.5 0 0 1-.25.067z"/><path fill="#262626" d="M.276 47.021c.376 6.137 7.94 3.917 12.07 4.312h17.74c3.139 6.027 10.17 9.186 16.786 7.935 13.063-2.386 17.423-19.449 6.852-27.547V12.122c.607-5.482-1.234-8.108-6.988-7.502.003-.602.004-1.205-.011-1.806C46.66.098 42.71-.005 41.572 2.03c-.428.787-.264 1.661-.297 2.515h-28.52c.867-5.625-6.354-5.339-5.49.102C1.308 4.205-.29 7.277.276 12.74c.033 11.427-.06 22.856 0 34.282m57.99-2.97c-2.044 24.4-36.898 14.586-26.63-7.34 7.488-12.718 26.423-7.192 26.63 7.34m-29.947.655c-2.447-.3-7.052 1.284-6.593-2.699.291-1.953-.836-5.406.832-6.719 2.755.107 5.648-.175 8.407.1a15.6 15.6 0 0 0-2.646 9.318m9.406-17.487c-.148-9.012-.534-6.508 7.64-6.857 2.023-.27 3.072.536 2.91 2.617-.137 1.963.306 4.071-.21 5.97-3.131-.794-6.42-.586-9.404.494-.785-.413-.937-1.353-.937-2.224m11.682 2.13c-.081-.03-.164-.05-.245-.077 1.08-1.74.366-4.139.563-6.12.776-5.554-6.584-2.953-9.882-3.516-2.462-.124-3.922 1.317-3.568 3.803.316 2.03-.895 5.258 1.075 6.548-2.278 1.058-4.373 2.665-5.904 4.723-3.206.542-11.397-1.929-11.17 3.17-.331 8.703.055 7.346 8.07 7.412a15.4 15.4 0 0 0 1.404 5.373H7.82c-5.185.348-6.587-1.68-6.097-6.746V14.294h50.552v16.43a15.2 15.2 0 0 0-2.87-1.377zM42.725 2.932c.057-2.3 2.364-1.775 2.547.14-.231 1.535.799 6.104-.989 6.524-2.608-.336-1.25-4.79-1.559-6.664m-33.99 3.72c.256-1.464-.749-4.416.927-5.084 2.326-.083 1.473 3.113 1.603 4.601 0 1.036.345 3.194-1.17 3.277-1.426-.092-1.432-1.713-1.359-2.794M2.21 6.96c1.067-1.91 3.166-1.677 5.055-1.633C7.188 7.5 6.94 10.55 9.94 10.545c2.976-.165 2.902-2.804 2.81-5.09h28.527c-.046 2.037-.39 4.898 2.44 4.947 3.202-.133 3.119-2.54 3.017-5.04 6.099-.632 5.672 3.806 5.542 8.341H1.724c.17-2.234-.445-4.64.486-6.743"/><path fill="#262626" d="M17.731 22.345c.292-4.647-7.481-2.3-10.412-2.833-4.622.098-2.728 6.073-3.002 9.085.882 3.398 7.826 1.435 10.607 1.89 4.159-.28 2.495-5.355 2.807-8.142m-2.65 7.167c-2.606-.002-5.213.003-7.819 0-2.461-.345-1.294-3.638-1.532-5.351.131-1.14-.396-2.617.558-3.483 2.681-.506 5.628-.036 8.392-.19 2.521.277 1.379 3.628 1.588 5.35 0 1.072.414 3.603-1.188 3.674zM33.724 22.355c.421-4.488-7.559-2.233-10.376-2.736-4.623.087-2.74 5.887-3.047 8.898.571 3.276 8.068 1.462 10.677 1.837 4.088-.335 2.435-5.232 2.746-8M31.29 29.62c-2.666-.004-5.333.005-7.998 0-2.447-.436-1.35-3.66-1.568-5.41.114-1.163-.328-2.517.427-3.515.32-.354 5.16-.317 7.218-.317 2.14-.28 3.186.698 2.907 2.869-.245 1.36.791 6.163-.986 6.374M17.728 37.334c.354-4.553-7.525-2.277-10.399-2.787-4.623.102-2.736 6.034-3.01 9.05.876 3.345 7.84 1.408 10.595 1.852 4.166-.266 2.505-5.328 2.814-8.115m-2.608 7.213c-2.616-.002-5.233.004-7.848 0-2.465-.378-1.314-3.666-1.544-5.398 0-.95-.318-2.837.552-3.507 2.678-.507 5.628-.036 8.392-.19 2.526.307 1.407 3.657 1.601 5.398 0 1.055.403 3.595-1.152 3.697M36.667 42.694c-.422-.421-1.797.148-1.334.61l6 6c.346.347.946.159 1.263-.127l10-9c.257-.231.105-.524-.169-.63-.34-.132-.772.047-1.024.274l-9.268 8.34-5.469-5.468z"/></g><defs><clipPath id="a"><path fill="#fff" d="M0 0h60v60H0z"/></clipPath></defs></svg>