<svg xmlns="http://www.w3.org/2000/svg" width="133" height="132" fill="none" viewBox="0 0 133 132"><circle cx="66.5" cy="66" r="66" fill="#D9E5DA"/><g clip-path="url(#a)"><path fill="#fff" d="m99.059 106.118-66-.565c-.094-27.435-.189-54.894-.26-82.33h66.377c-.023 27.624-.07 55.271-.094 82.895z"/><path fill="#0B130C" d="M32.587 23.694c-.306 2.494-.235 5.13-.282 7.67-.047 2.8-.047 5.624-.047 8.448 0 5.623 0 11.247-.024 16.894V90.47c0 6.26 0 12.447.424 18.683.023.447.282.423.306 0 .753-10.965.4-22.07.4-33.06 0-10.987 0-22.329-.024-33.481 0-3.177 0-6.377-.047-9.553-.023-3.012.07-6.189-.306-9.177-.047-.376-.282-.73-.353-.141zM98.87 22.611c-.282 1.036-.258 2.165-.306 3.27-.023 1.366-.07 2.73-.07 4.119-.024 2.917-.07 5.811-.094 8.729-.047 5.718-.094 11.435-.094 17.153 0 11.341.023 22.682.023 34.023v9.553c0 1.6 0 3.2.094 4.777s.306 3.082.424 4.659c.047.588.353.541.4 0 .094-1.318.306-2.589.4-3.906.07-1.388.094-2.777.117-4.165.024-2.918 0-5.812 0-8.73 0-5.717.024-11.435.047-17.152.024-11.342-.023-22.683-.094-34.024 0-3.176-.047-6.376-.094-9.553 0-1.6-.047-3.176-.07-4.776-.024-1.341 0-2.706-.33-3.977-.07-.306-.258-.282-.353 0"/><path fill="#0B130C" d="M32.823 24.47c2.094.518 4.329.306 6.47.306h6.47c4.307 0 8.612-.047 12.918-.094l25.836-.212c2.423 0 4.847-.023 7.27-.047h3.53c1.247 0 2.494.047 3.74-.094.283-.023.26-2.07-.046-2.094-2.141-.235-4.33-.023-6.47 0a590 590 0 0 1-6.471.047c-4.306.047-8.612.07-12.918.118-8.612.07-17.224.117-25.835.235-2.424.023-4.847.07-7.271.094q-1.764 0-3.53.07c-1.246.024-2.517.024-3.717.354-.259.07-.235 1.294.023 1.364zM32.682 109.67c2.094.377 4.33.235 6.47.212h6.471q6.459 0 12.918-.071c8.612-.047 17.223-.117 25.835-.164 2.423 0 4.847-.024 7.27-.047h3.53c1.247 0 2.494.023 3.741-.071.282-.024.259-1.482-.047-1.506-2.141-.165-4.33-.023-6.47 0-2.142.024-4.306.024-6.471.047l-12.918.071c-8.611.047-17.223.07-25.835.164l-7.27.071c-1.177 0-2.353.024-3.53.047-1.247.024-2.518.024-3.718.259-.258.047-.235.941.024.988M66.023 57.93s-.095.235-.095.353c-.047.353-.047.706-.07 1.059-.047.752-.047 1.482-.047 2.235v4.612c0 3.082-.07 6.164.164 9.247.024.282.236.282.212 0 0-.236-.047-.471-.047-.73 0-.165-.118-.165-.141 0 0 .212-.024.447-.047.659l.212.118c.235-3.036.164-6.071.164-9.106v-4.612c0-.73 0-1.482-.047-2.212 0-.4-.047-.8-.07-1.2 0-.141 0-.306-.094-.423h-.094"/><path fill="#0B130C" d="M66 58.377c.07.235.118.282.376.282h.542c.4 0 .8-.023 1.223-.047.8-.023 1.6-.047 2.4-.094.047 0 .047-.07.07-.094.048-.212.048-.236 0-.447 0-.024-.023-.094-.07-.094-.894-.047-1.788-.024-2.659 0-.447 0-.87.023-1.317.07-.165 0-.377 0-.494.141-.047.047-.071.189-.047.26z"/><path fill="#D2EAD8" d="M79.105 66.306h-4.494v8.94h4.494z"/><path fill="#0B130C" d="M70.588 58.047c-.048.541-.142 1.059-.165 1.624 0 .729-.024 1.458-.024 2.211v4.4c0 2.941-.047 5.86-.023 8.8 0 .141.047.565.259.565.211 0 .235-.447.235-.565 0-2.894-.024-5.788-.024-8.706V62.07c0-.729 0-1.458-.023-2.211 0-.612-.094-1.2-.165-1.812 0-.024-.023-.024-.023 0z"/><path fill="#0B130C" d="M65.858 75.46c.423.4.988.305 1.53.329.54.023 1.128.047 1.717.047l3.53.07h3.41c.566.024 1.13.047 1.718.047h.8c.33 0 .448-.07.612-.376.047-.07.024-.188 0-.259-.164-.259-.235-.33-.54-.376-.26-.024-.542 0-.8 0h-5.247999999999999c-1.13-.047-2.282-.024-3.412-.024-.564 0-1.13 0-1.717.023-.589.024-1.2-.117-1.624.306-.047.047-.047.189 0 .26zM70.541 63.2c.306.33.824.259 1.247.259h2.541c.165 0 .424.047.565 0 .07-.047.165-.259.165-.353s-.094-.306-.188-.353c-.142-.07-.4 0-.565 0h-2.5410000000000004c-.4 0-.918-.07-1.224.282-.023.024-.023.118 0 .165"/><path fill="#0B130C" d="M74.847 62.87c-.306 2.047-.142 4.188-.142 6.26 0 2.07-.07 4.117.142 6.164.023.33.211.07.188-.141v-.306c-.024-.141-.141-.235-.165-.047 0 .117 0 .235-.023.353l.211.117c.212-2.047.141-4.117.141-6.164s.142-4.165-.14-6.189c-.024-.164-.165-.33-.212-.07z"/><path fill="#0B130C" d="M74.87 66.776c.282.141.658.118.964.118.33 0 .683.023 1.012.023.682.024 1.341.024 2.023.024.212 0 .212-.87-.023-.87-.682 0-1.341 0-2.024.023-.329 0-.682 0-1.011.023-.306 0-.66 0-.965.118-.094.047-.094.47 0 .518z"/><path fill="#0B130C" d="M78.965 66.259c-.094.258-.094.564-.118.847-.023.4-.047.776-.07 1.153a77 77 0 0 0-.048 2.329c0 .777-.023 1.553-.047 2.33-.023.776-.094 1.646 0 2.447.047.258.306.494.377.094.141-.777.07-1.6.07-2.377v-4.659000000000001c0-.682.071-1.53-.14-2.164 0-.024-.024-.047-.048 0zM70.54 58.353h-4.494v16.894h4.494z"/><path fill="#0B130C" d="M79.011 61.247c-.188 1.083-.165 2.236-.165 3.341v3.718c0 2.4-.047 4.8.165 7.2.023.33.212.07.212-.141 0-.188-.024-.353-.047-.518 0-.117-.118-.212-.118-.023 0 .188-.024.376-.047.564l.212.118c.212-2.376.164-4.73.164-7.106v-3.53c0-1.176 0-2.4-.164-3.576 0-.117-.141-.235-.165-.047z"/><path fill="#0B130C" d="M79.059 61.506c.07.235.117.282.376.305h.541c.4 0 .824-.023 1.224-.023.8 0 1.6-.024 2.4-.094.047 0 .047-.07.07-.094.047-.212.047-.236 0-.447 0-.024-.023-.095-.07-.095-.894-.047-1.788-.023-2.66 0-.446 0-.87.024-1.317.071-.164 0-.376-.023-.494.141-.047.047-.07.188-.047.259z"/><path fill="#D2EAD8" d="M92.164 66.306H87.67v8.94h4.494z"/><path fill="#0B130C" d="M83.647 61.2c-.212 1.035-.188 2.094-.188 3.13v3.623c0 2.377-.023 4.753-.023 7.13 0 .14.047.564.258.564s.236-.447.236-.565c0-2.376-.024-4.752-.024-7.129v-3.506c0-1.082 0-2.165-.188-3.223 0-.024-.024-.024-.024 0z"/><path fill="#0B130C" d="M78.917 75.46c.424.4.989.305 1.53.329.54.023 1.129.047 1.717.047l3.53.07h3.412c.564.024 1.129.047 1.717.047h.8c.33 0 .447-.07.612-.376.047-.07.023-.188 0-.259-.165-.259-.235-.33-.541-.376-.26-.024-.541 0-.8 0h-5.247999999999999c-1.129-.047-2.282-.024-3.411-.024-.565 0-1.13 0-1.718.023-.588.024-1.2-.117-1.623.306-.047.047-.047.189 0 .26zM83.6 63.2c.306.33.823.259 1.247.259h2.5410000000000004c.165 0 .423.047.565 0 .07-.047.164-.259.164-.353s-.094-.306-.188-.353c-.141-.07-.4 0-.565 0h-2.541c-.4 0-.917-.07-1.223.282-.024.024-.024.118 0 .165"/><path fill="#0B130C" d="M87.905 62.87c-.306 2.047-.141 4.188-.141 6.26 0 2.07-.07 4.117.141 6.164.024.33.212.07.188-.141v-.306c-.023-.141-.14-.235-.164-.047 0 .117 0 .235-.024.353l.212.117c.212-2.047.141-4.117.141-6.164s.141-4.165-.141-6.189c-.024-.164-.165-.33-.212-.07z"/><path fill="#0B130C" d="M87.93 66.776c.281.141.658.118.964.118.33 0 .682.023 1.011.023a58 58 0 0 0 2.024.024c.212 0 .212-.87-.023-.87-.683 0-1.342 0-2.024.023-.33 0-.682 0-1.012.023-.306 0-.659 0-.965.118-.094.047-.094.47 0 .518z"/><path fill="#0B130C" d="M92.023 66.259c-.094.258-.094.564-.117.847l-.071 1.153c-.023.776-.047 1.553-.047 2.329s-.023 1.553-.047 2.33c-.024.776-.094 1.646 0 2.447.047.258.306.494.376.094.142-.777.071-1.6.071-2.377v-4.659000000000001c0-.682.07-1.53-.141-2.164 0-.024-.024-.047-.047 0zM83.6 61.482h-4.494v13.789H83.6zM43.081 61.788a1.506 1.506 0 1 0 0-3.012 1.506 1.506 0 0 0 0 3.012M43.081 67.812a1.506 1.506 0 1 0 0-3.012 1.506 1.506 0 0 0 0 3.012M43.081 73.835a1.506 1.506 0 1 0 0-3.012 1.506 1.506 0 0 0 0 3.012M46.141 72.565c1.13.212 2.377.07 3.506.07s2.33-.023 3.506-.047c1.176-.023 2.259-.023 3.412-.047.588 0 1.2 0 1.812-.023h.8c.423 0 .564 0 .8-.33.023-.023.023-.117 0-.164-.236-.283-.353-.306-.706-.306h-.8c-.589 0-1.2 0-1.812.023-1.177 0-2.33.024-3.506.047-1.176.024-2.259.047-3.412.047s-2.47-.07-3.6.189c-.117.023-.094.517 0 .54M46.141 66.612c1.13.212 2.377.07 3.506.07s2.33-.023 3.506-.047c1.176-.023 2.259-.023 3.412-.047.588 0 1.2 0 1.812-.023h.8c.423 0 .564 0 .8-.33.023-.023.023-.117 0-.165-.236-.282-.353-.305-.706-.305h-.8c-.589 0-1.2 0-1.812.023-1.177 0-2.33.024-3.506.047-1.176.024-2.259.047-3.412.047s-2.47-.07-3.6.188c-.117.024-.094.518 0 .542M46.141 60.659c1.13.211 2.377.07 3.506.07s2.33-.023 3.506-.047c1.176-.023 2.259-.023 3.412-.047.588 0 1.2 0 1.812-.023h.8c.423 0 .564 0 .8-.33.023-.023.023-.117 0-.165-.236-.282-.353-.305-.706-.305h-.8c-.589 0-1.2 0-1.812.023-1.177 0-2.33.024-3.506.047-1.176.024-2.259.047-3.412.047s-2.47-.07-3.6.188c-.117.024-.094.518 0 .542M70.188 35.317a1.506 1.506 0 1 0 0-3.011 1.506 1.506 0 0 0 0 3.011M70.188 41.34a1.506 1.506 0 1 0 0-3.01 1.506 1.506 0 0 0 0 3.01M70.188 47.364a1.506 1.506 0 1 0 0-3.011 1.506 1.506 0 0 0 0 3.011M73.27 46.094c1.13.212 2.377.07 3.506.07s2.33-.023 3.506-.046c1.176-.024 2.259-.024 3.412-.047.588 0 1.2 0 1.811-.024h.8c.424 0 .565 0 .8-.33.024-.023.024-.117 0-.164-.235-.282-.353-.306-.706-.306h-.8c-.588 0-1.2 0-1.811.024-1.177 0-2.33.023-3.506.047-1.177.023-2.259.047-3.412.047s-2.47-.07-3.6.188c-.118.024-.094.518 0 .541M73.27 40.141c1.13.212 2.377.07 3.506.07s2.33-.023 3.506-.047c1.176-.023 2.259-.023 3.412-.047.588 0 1.2 0 1.811-.023h.8c.424 0 .565 0 .8-.33.024-.023.024-.117 0-.164-.235-.282-.353-.306-.706-.306h-.8c-.588 0-1.2 0-1.811.024-1.177 0-2.33.023-3.506.047-1.177.023-2.259.047-3.412.047s-2.47-.071-3.6.188c-.118.023-.094.517 0 .541M73.27 34.164c1.13.212 2.377.071 3.506.071s2.33-.023 3.506-.047 2.259-.024 3.412-.047c.588 0 1.2 0 1.811-.024h.8c.424 0 .565 0 .8-.329.024-.024.024-.118 0-.165-.235-.282-.353-.306-.706-.306h-.8c-.588 0-1.2 0-1.811.024-1.177 0-2.33.023-3.506.047-1.177.023-2.259.047-3.412.047s-2.47-.07-3.6.188c-.118.024-.094.518 0 .541M49.647 39.953c2.588 2.023 5.176 4.047 7.74 6.094.33-.4 3.413-4.306 2.142-9.13-1.082-4.094-4.8-7.153-9.341-7.576l-.565 10.635z"/><path fill="#D2EAD8" d="M39.741 40.117c3.318-.047 6.612-.117 9.93-.188l.54-10.094c-1.176 0-2.846.188-4.587 1.082-4.989 2.541-5.812 8.518-5.883 9.2"/><path fill="#0B130C" d="M59.929 38.306c-.471-4.541-4.283-8.518-8.777-9.2-4.847-.753-9.506 2.565-11.035 7.082-1.341 3.906-.847 8.8 2.023 11.93 3.318 3.647 8.871 3.717 12.871 1.2 3.624-2.283 5.859-6.918 4.918-11.153-.095-.447-.236.117-.236.282.26 3.412-1.176 6.8-3.882 8.894-3.482 2.682-8.565 3.341-12.212.588-3.082-2.329-4.188-6.47-3.27-10.14 1.058-4.189 4.94-7.507 9.294-7.695 5.082-.212 9.059 3.6 10.117 8.377.071.306.189-.071.189-.212z"/><path fill="#0B130C" d="M39.553 40.54c.87.213 1.882.048 2.777 0 .894-.046 1.788-.07 2.682-.14 1.835-.094 3.623-.33 5.459-.541.023 0 .023-.095 0-.095-1.836-.047-3.647-.117-5.46-.047-.893.047-1.787.07-2.681.118s-1.906 0-2.777.259c-.094.023-.094.4 0 .423zM40.612 93.082s-.048.212-.048.306c0 .118 0 .26-.023.377 0 .259-.024.517-.047.776-.024.259 0 .541-.024.8s-.047.541.023.8c0 .047.095.165.142.118.071-.07.047-.212.047-.306V93.93c0-.26 0-.518-.047-.777 0 0-.047-.118-.07-.07z"/><path fill="#0B130C" d="M40.776 96.26c.588.046 1.153.046 1.74.046h15.247c.19 0 .283-.047.425-.141v-.094c-.118-.094-.212-.141-.354-.141H42.682c-.635 0-1.293 0-1.929.07-.07 0-.07.236 0 .26zM40.635 93.294c1.13.094 2.259.047 3.388.047H58c.07 0 .07-.353 0-.353H42.564c-.611 0-1.294 0-1.93.047-.046 0-.046.212 0 .212z"/><path fill="#0B130C" d="M58.047 93.035s-.047.235-.047.353v2.023c0 .26-.048.589.07.848 0 .047.048.07.095.07 0 0 .047-.117.047-.141v-2.259c0-.235 0-.517-.047-.776 0-.024-.071-.189-.095-.118zM40.635 93.177c4.306 0 8.612.047 12.94.047v2.823c-4.21.024-8.705.165-12.917.189.212-.989-.047-2.024 0-3.06z"/><path fill="#D5D5D5" d="M40.54 87.553c3.459 0 6.918.047 10.377.047l-.118 2.847-10.306.07c.165-.988-.118-2 .047-2.988z"/><path fill="#0B130C" d="M40.564 87.483s-.047.212-.047.306v.376c0 .259 0 .518-.024.777-.023.258 0 .54 0 .8 0 .258-.047.54.047.8 0 .047.095.164.142.117.071-.094.047-.212.047-.306V88.33c0-.259 0-.518-.047-.777 0 0-.047-.117-.07-.07z"/><path fill="#0B130C" d="M40.8 90.659a22 22 0 0 0 1.74.047h15.247c.189 0 .283-.047.424-.142v-.094c-.118-.094-.212-.14-.353-.14H42.705c-.635 0-1.294 0-1.93.07-.07 0-.07.235 0 .258zM40.658 87.695c1.13.094 2.26.047 3.389.047h13.975999999999999c.07 0 .07-.353 0-.353H42.587c-.611 0-1.293 0-1.929.047-.047 0-.047.211 0 .211z"/><path fill="#0B130C" d="M58.094 87.412s-.047.235-.047.353v2.024c0 .258-.07.588.07.846 0 .048.048.071.095.071 0 0 .047-.118.047-.141v-2.259c0-.235 0-.517-.047-.776 0-.024-.07-.189-.094-.118zM58.07 98.706s-.047.235-.047.353c0 .141 0 .282-.023.423 0 .26 0 .542-.024.8-.023.259 0 .542-.023.8-.024.259-.071.589.07.847 0 .048.048.071.095.071 0 0 .07-.118.07-.141 0-.494 0-1.012.024-1.506V99.6c0-.235 0-.518-.023-.776 0-.024-.071-.189-.095-.118z"/><path fill="#D2EAD8" d="M44.023 98.847h-3.435v2.988h3.435z"/><path fill="#0B130C" d="M40.564 98.753s-.047.212-.047.306v1.953c0 .259-.048.541.047.8 0 .047.094.165.142.118.07-.094.047-.212.047-.306V99.6c0-.258 0-.517-.047-.776 0 0-.048-.118-.071-.07z"/><path fill="#0B130C" d="M40.705 101.929c.589.047 1.153.047 1.742.047h15.246000000000002c.189 0 .283-.047.424-.141v-.094c-.117-.094-.212-.141-.353-.141H42.611c-.635 0-1.294 0-1.93.07-.07 0-.07.235 0 .259zM40.612 98.965c1.129.094 2.258.047 3.388.047h13.975999999999999c.07 0 .07-.353 0-.353H42.54c-.61 0-1.293 0-1.928.047-.048 0-.048.212 0 .212zM70.188 90.189a1.506 1.506 0 1 0 0-3.012 1.506 1.506 0 0 0 0 3.011M70.188 96.212a1.506 1.506 0 1 0 0-3.012 1.506 1.506 0 0 0 0 3.012M70.188 102.235a1.506 1.506 0 1 0 0-3.011 1.506 1.506 0 0 0 0 3.011M73.27 100.964c1.13.212 2.377.071 3.506.071s2.33-.024 3.506-.047c1.176-.024 2.259-.024 3.412-.047.588 0 1.2 0 1.811-.024h.8c.424 0 .565 0 .8-.329.024-.024.024-.118 0-.165-.235-.282-.353-.306-.706-.306h-.8c-.588 0-1.2 0-1.811.024-1.177 0-2.33.023-3.506.047-1.177.023-2.259.047-3.412.047s-2.47-.071-3.6.188c-.118.024-.094.518 0 .541M73.27 95.012c1.13.212 2.377.07 3.506.07s2.33-.023 3.506-.046c1.176-.024 2.259-.024 3.412-.047.588 0 1.2 0 1.811-.024h.8c.424 0 .565 0 .8-.33.024-.023.024-.117 0-.164-.235-.282-.353-.306-.706-.306h-.8c-.588 0-1.2 0-1.811.024-1.177 0-2.33.023-3.506.047-1.177.023-2.259.047-3.412.047s-2.47-.07-3.6.188c-.118.023-.094.518 0 .541M73.27 89.059c1.13.212 2.377.07 3.506.07s2.33-.023 3.506-.047c1.176-.023 2.259-.023 3.412-.047.588 0 1.2 0 1.811-.023h.8c.424 0 .565 0 .8-.33.024-.023.024-.117 0-.164-.235-.283-.353-.306-.706-.306h-.8c-.588 0-1.2 0-1.811.023-1.177 0-2.33.024-3.506.047-1.177.024-2.259.048-3.412.048s-2.47-.071-3.6.188c-.118.023-.094.517 0 .541"/></g><defs><clipPath id="a"><path fill="#fff" d="M32.117 22h67.765v88H32.117z"/></clipPath></defs></svg>