<svg width="74" height="74" viewBox="0 0 74 74" fill="none" xmlns="http://www.w3.org/2000/svg">
<g clip-path="url(#clip0_405_2645)">
<path d="M6.67525 56.4945C6.56959 56.4681 6.47543 56.4079 6.4071 56.3231C6.33878 56.2383 6.30001 56.1335 6.2967 56.0246C6.29339 55.9158 6.32572 55.8088 6.38877 55.72C6.45182 55.6312 6.54214 55.5654 6.64601 55.5326L28.7096 48.5217L3.98416 55.5826C3.85903 55.6156 3.72596 55.5988 3.61294 55.5358C3.49992 55.4727 3.41575 55.3683 3.37813 55.2445C3.34052 55.1206 3.35238 54.987 3.41124 54.8718C3.47009 54.7565 3.57135 54.6686 3.69371 54.6264L29.2532 46.3754L4.51973 53.4436C4.3953 53.474 4.26393 53.4555 4.15275 53.3919C4.04156 53.3283 3.95902 53.2244 3.92217 53.1018C3.88532 52.9791 3.89696 52.8469 3.95469 52.7326C4.01242 52.6182 4.11184 52.5304 4.23243 52.4872L20.1371 47.4628L4.92973 51.8062C4.80487 51.8374 4.67275 51.8194 4.56088 51.7557C4.44902 51.692 4.36601 51.5877 4.32915 51.4643C4.29229 51.341 4.30441 51.2082 4.36299 51.0936C4.42157 50.979 4.52209 50.8914 4.64364 50.849L15.0283 47.5897L5.28823 50.3744C5.16324 50.4065 5.03068 50.389 4.91826 50.3257C4.80584 50.2623 4.72228 50.1579 4.68505 50.0344C4.64782 49.9108 4.6598 49.7776 4.71849 49.6627C4.77718 49.5478 4.87804 49.46 4.99996 49.4177L16.0851 45.905L5.66252 48.8795C5.53853 48.9107 5.40732 48.8931 5.29585 48.8305C5.18438 48.768 5.10112 48.665 5.06319 48.5429C5.02525 48.4209 5.03552 48.2889 5.09189 48.1741C5.14825 48.0594 5.24643 47.9706 5.36625 47.926L24.8357 41.3943L6.2044 46.7153C6.07889 46.7487 5.94532 46.7319 5.83196 46.6685C5.71861 46.6051 5.63437 46.5001 5.59707 46.3757C5.55977 46.2513 5.57234 46.1172 5.63212 46.0019C5.69189 45.8867 5.79419 45.7991 5.91735 45.7579L7.26673 45.334L6.49053 45.552C6.36512 45.5882 6.23051 45.574 6.11545 45.5123C6.00039 45.4506 5.91402 45.3464 5.8748 45.2219C5.83557 45.0974 5.8466 44.9625 5.90552 44.846C5.96444 44.7295 6.06659 44.6406 6.19014 44.5985L22.7671 38.8528L7.04771 43.3473C6.9242 43.3786 6.79337 43.3617 6.68196 43.2998C6.57054 43.238 6.48695 43.1359 6.44826 43.0145C6.40957 42.8931 6.4187 42.7614 6.47379 42.6465C6.52887 42.5316 6.62576 42.4421 6.74465 42.3962L20.5971 37.5146L7.57696 41.2335C7.45094 41.2695 7.31585 41.2545 7.20076 41.1918C7.08568 41.1291 6.9998 41.0238 6.9616 40.8984C6.9234 40.7731 6.93595 40.6377 6.99653 40.5215C7.05712 40.4053 7.1609 40.3176 7.28554 40.2771L7.88589 40.0821L7.86382 40.0879C7.73959 40.1207 7.6075 40.1044 7.49496 40.0424C7.38242 39.9804 7.29807 39.8775 7.2594 39.755C7.22073 39.6324 7.23071 39.4997 7.28727 39.3844C7.34383 39.269 7.44263 39.1798 7.56318 39.1354L14.4914 36.7322L8.25851 38.5116C8.13517 38.5449 8.00375 38.5298 7.8912 38.4693C7.77866 38.4088 7.69355 38.3076 7.65334 38.1863C7.61313 38.065 7.62087 37.9329 7.67498 37.8172C7.72908 37.7014 7.82545 37.6108 7.94429 37.5639L16.8286 34.1949L8.76153 36.5026C8.63838 36.5362 8.50704 36.5214 8.39442 36.4613C8.2818 36.4012 8.19644 36.3003 8.15583 36.1793C8.11521 36.0583 8.12243 35.9263 8.17599 35.8104C8.22956 35.6946 8.32541 35.6036 8.44391 35.5561L14.6256 33.1618L9.21136 34.706C9.08789 34.7403 8.95597 34.7259 8.84284 34.6657C8.72971 34.6055 8.644 34.5042 8.60341 34.3827C8.56281 34.2611 8.57042 34.1286 8.62467 34.0126C8.67892 33.8965 8.77567 33.8056 8.89495 33.7588L11.7573 32.6612L9.56671 33.2869C9.44711 33.3201 9.3194 33.3078 9.20843 33.2521C9.09746 33.1964 9.01117 33.1015 8.96634 32.9857C8.92152 32.8699 8.92136 32.7416 8.96591 32.6258C9.01046 32.5099 9.09653 32.4147 9.20736 32.3588L13.7145 30.1308L10.0974 31.1673C9.97821 31.2008 9.8508 31.1889 9.73986 31.1339C9.62892 31.0789 9.54234 30.9847 9.49689 30.8695C9.45143 30.7543 9.45034 30.6264 9.49382 30.5104C9.5373 30.3945 9.62226 30.2988 9.73225 30.2419L11.4531 29.3594L10.4805 29.6375C10.3682 29.6688 10.2486 29.6599 10.1423 29.6124C10.0359 29.5649 9.94946 29.4817 9.89789 29.3772C9.84631 29.2728 9.83282 29.1536 9.85976 29.0403C9.8867 28.9269 9.95236 28.8265 10.0454 28.7565L11.0149 28.0343L10.8717 28.0748C10.7734 28.1031 10.6687 28.1005 10.5718 28.0674C10.4749 28.0343 10.3905 27.9723 10.33 27.8897C10.2695 27.8071 10.2358 27.7079 10.2335 27.6055C10.2312 27.5032 10.2604 27.4026 10.3171 27.3174L10.651 26.8072C10.5975 26.7498 10.5587 26.6803 10.5378 26.6046C10.5016 26.4774 10.5172 26.341 10.5814 26.2252C10.6455 26.1095 10.7529 26.0239 10.88 25.9872L11.4352 25.8283C11.5328 25.8016 11.6363 25.8051 11.7318 25.8383C11.8274 25.8716 11.9106 25.9331 11.9705 26.0146C12.0304 26.0962 12.0642 26.194 12.0673 26.2952C12.0704 26.3963 12.0427 26.496 11.9879 26.5811L11.8831 26.7404L13.3783 26.319C13.4906 26.2871 13.6106 26.2956 13.7174 26.343C13.8241 26.3904 13.9109 26.4736 13.9627 26.5783C14.0145 26.683 14.028 26.8025 14.0009 26.9161C13.9738 27.0297 13.9078 27.1303 13.8143 27.2003L12.8417 27.9227L16.0867 26.9971C16.2054 26.9646 16.3321 26.9771 16.4422 27.0322C16.5524 27.0872 16.6384 27.181 16.6836 27.2956C16.7289 27.4101 16.7303 27.5373 16.6876 27.6529C16.6448 27.7684 16.561 27.8641 16.4521 27.9216L14.7312 28.7999L18.7415 27.6546C18.8613 27.6204 18.9897 27.6321 19.1013 27.6876C19.213 27.7431 19.2999 27.8382 19.345 27.9545C19.3901 28.0707 19.3902 28.1996 19.3452 28.3158C19.3002 28.4321 19.2134 28.5274 19.1018 28.5829L14.5946 30.8109L22.4233 28.5744C22.5473 28.5383 22.6805 28.5516 22.7949 28.6115C22.9093 28.6714 22.9961 28.7732 23.0372 28.8957C23.0782 29.0182 23.0702 29.1518 23.015 29.2685C22.9597 29.3852 22.8614 29.476 22.7407 29.5219L19.8752 30.6198L24.8836 29.1936C25.0067 29.1599 25.1381 29.1747 25.2507 29.2348C25.3633 29.2949 25.4487 29.3958 25.4893 29.5168C25.5299 29.6379 25.5227 29.7698 25.4691 29.8857C25.4156 30.0016 25.3197 30.0926 25.2012 30.1401L19.0196 32.5343L27.995 29.9706C28.1184 29.9372 28.2498 29.9523 28.3623 30.0128C28.4749 30.0733 28.56 30.1746 28.6002 30.2959C28.6404 30.4171 28.6327 30.5492 28.5786 30.665C28.5245 30.7807 28.4281 30.8713 28.3093 30.9183L19.4254 34.2853L31.4809 30.8413C31.6058 30.8066 31.7392 30.8216 31.8532 30.8833C31.9671 30.945 32.0526 31.0486 32.0918 31.1721C32.1309 31.2956 32.1205 31.4295 32.0628 31.5456C32.0051 31.6616 31.9046 31.7507 31.7825 31.7941L24.8476 34.1997L34.2148 31.5248C34.3395 31.4928 34.4716 31.5102 34.5839 31.5732C34.6961 31.6362 34.7797 31.7401 34.8172 31.8632C34.8548 31.9862 34.8435 32.1191 34.7856 32.234C34.7277 32.349 34.6277 32.4372 34.5065 32.4803L33.9238 32.6704L36.201 32.0201C36.3254 31.9864 36.4579 32.002 36.5711 32.0637C36.6842 32.1253 36.7692 32.2283 36.8082 32.3511C36.8473 32.4739 36.8374 32.607 36.7807 32.7227C36.724 32.8384 36.6248 32.9278 36.5038 32.9721L22.6484 37.853L39.8678 32.9341C39.9932 32.8978 40.1278 32.912 40.2429 32.9737C40.3579 33.0354 40.4443 33.1396 40.4835 33.2642C40.5227 33.3887 40.5117 33.5236 40.4528 33.6401C40.3939 33.7566 40.2917 33.8454 40.1682 33.8876L23.5883 39.6326L43.6937 33.8879C43.8207 33.8497 43.9576 33.8635 44.0744 33.9263C44.1912 33.9891 44.2783 34.0957 44.3165 34.2227C44.3547 34.3497 44.3409 34.4866 44.2781 34.6034C44.2153 34.7203 44.1087 34.8073 43.9817 34.8455L42.619 35.2733L45.7078 34.3912C45.8336 34.3543 45.9689 34.3684 46.0845 34.4304C46.2001 34.4924 46.2867 34.5973 46.3256 34.7225C46.3646 34.8477 46.3528 34.9833 46.2928 35.0999C46.2328 35.2165 46.1293 35.3048 46.0048 35.3459L26.5442 41.8747L49.4604 35.3287C49.5874 35.2905 49.7244 35.3043 49.8412 35.3671C49.958 35.4299 50.0451 35.5365 50.0832 35.6635C50.1214 35.7905 50.1076 35.9275 50.0448 36.0443C49.982 36.1611 49.8754 36.2481 49.7484 36.2863L38.6633 39.7991L52.0432 35.9775C52.1695 35.9422 52.3045 35.9579 52.4193 36.0212C52.5341 36.0845 52.6195 36.1904 52.6569 36.316C52.6944 36.4417 52.6811 36.577 52.6197 36.6929C52.5584 36.8088 52.454 36.8959 52.329 36.9356L41.9255 40.1963L54.5248 36.5978C54.6518 36.5596 54.7888 36.5734 54.9056 36.6362C55.0224 36.699 55.1095 36.8056 55.1477 36.9326C55.1859 37.0596 55.172 37.1966 55.1092 37.3134C55.0465 37.4302 54.9398 37.5172 54.8129 37.5554L38.9177 42.575L57.3608 37.3058C57.4859 37.2728 57.619 37.2896 57.732 37.3526C57.845 37.4157 57.9292 37.5201 57.9668 37.6439C58.0044 37.7678 57.9926 37.9014 57.9337 38.0166C57.8749 38.1319 57.7736 38.2198 57.6512 38.262L32.1039 46.5098L61.0824 38.2315C61.1453 38.2125 61.2113 38.2061 61.2767 38.2126C61.342 38.2192 61.4055 38.2385 61.4634 38.2696C61.5213 38.3006 61.5725 38.3428 61.6141 38.3936C61.6557 38.4445 61.6869 38.503 61.7058 38.5659C61.7248 38.6288 61.7312 38.6948 61.7247 38.7602C61.7181 38.8256 61.6988 38.889 61.6677 38.9469C61.6367 39.0048 61.5945 39.056 61.5437 39.0976C61.4928 39.1392 61.4343 39.1704 61.3714 39.1894L39.3078 46.2003L64.3471 39.0469C64.4731 39.0109 64.6082 39.0259 64.7233 39.0886C64.8384 39.1513 64.9243 39.2566 64.9625 39.382C65.0007 39.5073 64.9881 39.6427 64.9276 39.7589C64.867 39.8751 64.7632 39.9628 64.6385 40.0033L37.8594 48.6829L64.7905 40.9938C64.9152 40.9619 65.0474 40.9792 65.1596 41.0422C65.2718 41.1052 65.3554 41.2091 65.3929 41.3322C65.4305 41.4553 65.4192 41.5881 65.3613 41.7031C65.3034 41.818 65.2034 41.9062 65.0822 41.9493L40.8798 49.8154L64.2556 43.1382C64.38 43.1085 64.511 43.1275 64.6217 43.1914C64.7324 43.2553 64.8145 43.3592 64.851 43.4817C64.8875 43.6042 64.8757 43.7361 64.818 43.8501C64.7603 43.9642 64.6611 44.0519 64.5408 44.0951L57.0325 46.4355L63.9251 44.4666C64.0501 44.4345 64.1826 44.452 64.295 44.5153C64.4075 44.5787 64.491 44.6831 64.5283 44.8067C64.5655 44.9302 64.5535 45.0634 64.4948 45.1783C64.4361 45.2932 64.3353 45.381 64.2133 45.4233L51.2762 49.5434L63.5314 46.0432C63.6562 46.0119 63.7883 46.03 63.9002 46.0937C64.0121 46.1574 64.0951 46.2617 64.1319 46.385C64.1688 46.5084 64.1567 46.6412 64.0981 46.7558C64.0395 46.8704 63.939 46.958 63.8174 47.0004L59.4785 48.3592L63.2209 47.2912C63.3452 47.2601 63.4767 47.2778 63.5882 47.3408C63.6998 47.4037 63.7829 47.5071 63.8205 47.6296C63.858 47.752 63.8472 47.8842 63.7901 47.9989C63.7331 48.1136 63.6342 48.202 63.5138 48.2459L48.9299 53.0474L62.7714 49.0909C62.8342 49.0718 62.9002 49.0653 62.9655 49.0718C63.0309 49.0782 63.0943 49.0975 63.1523 49.1285C63.2102 49.1594 63.2614 49.2015 63.3031 49.2523C63.3447 49.303 63.376 49.3615 63.395 49.4244C63.4141 49.4872 63.4206 49.5532 63.4141 49.6186C63.4077 49.6839 63.3884 49.7474 63.3575 49.8053C63.3265 49.8632 63.2844 49.9144 63.2337 49.9561C63.1829 49.9977 63.1244 50.029 63.0616 50.048L57.3126 51.8878L62.4386 50.424C62.5655 50.3852 62.7025 50.3984 62.8196 50.4607C62.8776 50.4916 62.929 50.5335 62.9708 50.5842C63.0125 50.6349 63.0439 50.6933 63.0631 50.7561C63.0823 50.8189 63.089 50.8849 63.0827 50.9503C63.0764 51.0157 63.0572 51.0792 63.0264 51.1372C62.9956 51.1952 62.9536 51.2465 62.9029 51.2883C62.8522 51.3301 62.7938 51.3615 62.731 51.3807L55.5273 53.7272L62.0784 51.8543C62.2051 51.8151 62.3422 51.8278 62.4595 51.8897C62.5768 51.9515 62.6648 52.0575 62.704 52.1842C62.7432 52.3109 62.7305 52.448 62.6687 52.5653C62.6068 52.6826 62.5009 52.7706 62.3742 52.8098L53.9545 55.6199L61.6898 53.4105C61.8137 53.3767 61.9458 53.3918 62.0589 53.4527C62.1719 53.5136 62.2572 53.6157 62.297 53.7378C62.3369 53.86 62.3281 53.9927 62.2727 54.1086C62.2173 54.2244 62.1194 54.3145 61.9994 54.3602L49.4756 58.9126L61.1547 55.5764C61.2792 55.5437 61.4115 55.5602 61.5242 55.6225C61.6368 55.6849 61.721 55.7883 61.7594 55.9112C61.7977 56.0341 61.7871 56.1671 61.7298 56.2824C61.6725 56.3977 61.573 56.4864 61.4519 56.5302L59.0646 57.3324L60.8414 56.8237C60.9652 56.7874 61.0982 56.8003 61.2127 56.8598C61.3272 56.9193 61.4142 57.0207 61.4556 57.1429C61.4971 57.2651 61.4896 57.3986 61.4349 57.5154C61.3802 57.6323 61.2825 57.7235 61.1621 57.7699L51.7504 61.4749L60.2898 59.0349C60.412 59.0004 60.5428 59.0138 60.6556 59.0722C60.7683 59.1307 60.8546 59.2298 60.8969 59.3496C60.9393 59.4694 60.9344 59.6007 60.8834 59.717C60.8323 59.8333 60.7389 59.9259 60.6222 59.9758L53.4726 63.004L59.7522 61.2105C59.8712 61.1809 59.997 61.196 60.1055 61.253C60.2141 61.31 60.2979 61.4049 60.3411 61.5197C60.3843 61.6345 60.3837 61.7611 60.3396 61.8755C60.2955 61.99 60.2109 62.0842 60.1019 62.1403L55.1014 64.5148L59.2193 63.3388C59.3366 63.3086 59.4608 63.3219 59.5689 63.3763C59.6771 63.4308 59.7618 63.5226 59.8074 63.6347C59.8529 63.7469 59.8563 63.8717 59.8168 63.9862C59.7773 64.1006 59.6976 64.1968 59.5925 64.2569L56.9547 65.6644L58.769 65.1455C58.8761 65.1161 58.99 65.1231 59.0927 65.1656C59.1953 65.2081 59.2809 65.2835 59.336 65.38C59.391 65.4765 59.4123 65.5886 59.3965 65.6986C59.3808 65.8086 59.3288 65.9101 59.2489 65.9873L57.9017 67.2509L58.2745 67.1453C58.3385 67.124 58.4061 67.1159 58.4733 67.1215C58.5405 67.127 58.6059 67.1461 58.6656 67.1776C58.7252 67.209 58.7778 67.2523 58.8204 67.3046C58.8629 67.357 58.8943 67.4174 58.9129 67.4822C58.9315 67.547 58.9367 67.6149 58.9283 67.6819C58.92 67.7488 58.8981 67.8133 58.8642 67.8716C58.8302 67.9298 58.7848 67.9806 58.7307 68.0209C58.6767 68.0611 58.615 68.09 58.5494 68.1059L56.1772 68.786C56.07 68.8155 55.9562 68.8084 55.8535 68.766C55.7508 68.7235 55.6652 68.6481 55.6102 68.5516C55.5552 68.4551 55.5339 68.343 55.5496 68.233C55.5654 68.123 55.6173 68.0214 55.6973 67.9443L57.0445 66.6807L52.7 67.9216C52.5828 67.9518 52.4586 67.9385 52.3504 67.8841C52.2423 67.8296 52.1576 67.7378 52.112 67.6257C52.0664 67.5135 52.063 67.3886 52.1026 67.2742C52.1421 67.1598 52.2218 67.0636 52.3268 67.0035L54.9632 65.6018L49.5626 67.1371C49.4424 67.1704 49.3141 67.1576 49.2028 67.1012C49.0916 67.0448 49.0054 66.9488 48.9613 66.8321C48.9171 66.7155 48.9182 66.5865 48.9643 66.4706C49.0104 66.3547 49.0981 66.2601 49.2103 66.2056L54.2108 63.831L45.8672 66.2138C45.7449 66.2483 45.6142 66.235 45.5014 66.1765C45.3886 66.1181 45.3023 66.0189 45.26 65.8992C45.2177 65.7794 45.2225 65.648 45.2736 65.5317C45.3246 65.4154 45.418 65.3229 45.5348 65.2729L52.6929 62.2438L42.0976 65.27C41.9738 65.3063 41.8407 65.2933 41.7262 65.2338C41.6117 65.1744 41.5247 65.0729 41.4833 64.9507C41.4418 64.8285 41.4493 64.6951 41.504 64.5782C41.5587 64.4614 41.6564 64.3702 41.7768 64.3237L51.1858 60.6212L38.2622 64.3127C38.1382 64.3439 38.007 64.3264 37.8955 64.2638C37.7841 64.2012 37.7008 64.0983 37.6629 63.9762C37.6249 63.8541 37.6352 63.7221 37.6916 63.6074C37.7479 63.4926 37.8461 63.4038 37.9659 63.3592L40.3554 62.5566L36.0987 63.7721C35.9745 63.8068 35.8415 63.7922 35.7278 63.7312C35.6141 63.6702 35.5283 63.5676 35.4885 63.4449C35.4487 63.3221 35.4578 63.1887 35.5141 63.0726C35.5703 62.9564 35.6693 62.8666 35.7903 62.8217L48.3168 58.2668L32.3383 62.8326C32.2134 62.8664 32.0801 62.8504 31.9667 62.7881C31.8533 62.7257 31.7685 62.6217 31.7301 62.4981C31.6918 62.3744 31.7029 62.2407 31.7611 62.1251C31.8193 62.0095 31.9201 61.9209 32.0423 61.8781L40.4724 59.0634L29.6404 62.1581C29.515 62.1921 29.3814 62.1761 29.2677 62.1134C29.154 62.0506 29.0691 61.9461 29.0311 61.822C28.9931 61.6978 29.0049 61.5637 29.064 61.4481C29.1231 61.3324 29.2248 61.2443 29.3477 61.2024L36.5439 58.857L27.157 61.5404C27.0319 61.5734 26.8988 61.5567 26.7858 61.4936C26.6728 61.4305 26.5886 61.3261 26.551 61.2023C26.5134 61.0785 26.5252 60.9449 26.5841 60.8296C26.6429 60.7143 26.7442 60.6264 26.8666 60.5842L32.6192 58.7423L24.8471 60.9631C24.7218 60.9971 24.5881 60.9811 24.4744 60.9184C24.3607 60.8556 24.2759 60.7511 24.2378 60.627C24.1998 60.5028 24.2116 60.3687 24.2707 60.2531C24.3298 60.1374 24.4315 60.0493 24.5544 60.0074L39.1432 55.2071L21.7259 60.1836C21.5996 60.2189 21.4646 60.2032 21.3498 60.1399C21.235 60.0766 21.1496 59.9707 21.1122 59.845C21.0747 59.7194 21.088 59.5841 21.1494 59.4682C21.2107 59.3523 21.3151 59.2652 21.4401 59.2255L25.7652 57.8725L19.562 59.6449C19.4349 59.6832 19.2979 59.6695 19.181 59.6068C19.0641 59.5441 18.9769 59.4375 18.9385 59.3105C18.9002 59.1834 18.9139 59.0464 18.9766 58.9295C19.0394 58.8126 19.1459 58.7253 19.273 58.687L32.2031 54.5703L16.8267 58.9672C16.7004 59.0025 16.5653 58.9868 16.4505 58.9235C16.3357 58.8602 16.2504 58.7543 16.2129 58.6286C16.1754 58.503 16.1888 58.3677 16.2501 58.2518C16.3114 58.1359 16.4158 58.0488 16.5408 58.0091L24.0651 55.6665L14.5172 58.3921C14.3903 58.4308 14.2533 58.4176 14.1361 58.3553C14.019 58.2931 13.9314 58.1868 13.8927 58.0599C13.8539 57.9331 13.8671 57.796 13.9294 57.6789C13.9917 57.5618 14.0979 57.4742 14.2248 57.4354L38.4337 49.5596L10.7978 57.4536C10.6717 57.4895 10.5367 57.4745 10.4216 57.4118C10.3065 57.3492 10.2206 57.2438 10.1824 57.1184C10.1442 56.9931 10.1567 56.8578 10.2173 56.7416C10.2779 56.6254 10.3817 56.5376 10.5063 56.4971L37.2786 47.82L6.93452 56.4883C6.85019 56.5134 6.76069 56.5156 6.67525 56.4945Z" fill="white"/>
<path d="M10.8449 60.6002C10.7449 60.575 10.6552 60.5196 10.5879 60.4415C10.5207 60.3633 10.4792 60.2663 10.4693 60.1637C10.4593 60.0611 10.4813 59.9579 10.5322 59.8683C10.5831 59.7786 10.6605 59.707 10.7538 59.663L10.8324 59.625L9.14974 60.1036C9.03252 60.1338 8.90831 60.1205 8.80016 60.0661C8.69202 60.0117 8.6073 59.9199 8.56171 59.8077C8.51613 59.6955 8.51278 59.5707 8.5523 59.4562C8.59181 59.3418 8.6715 59.2456 8.77657 59.1855L9.77504 58.6561L6.77408 59.5088C6.66239 59.5399 6.54335 59.5312 6.43734 59.4843C6.33132 59.4373 6.24492 59.355 6.19292 59.2514C6.14092 59.1477 6.12656 59.0292 6.15229 58.9162C6.17801 58.8031 6.24223 58.7025 6.33396 58.6316L8.2379 57.1785L3.20525 58.6152C3.09256 58.6475 2.97212 58.6391 2.86496 58.5916C2.75781 58.5441 2.67074 58.4605 2.61899 58.3553C2.56723 58.2501 2.55407 58.1301 2.5818 58.0162C2.60953 57.9023 2.67639 57.8018 2.77071 57.7322L4.65135 56.3475L2.61577 56.9306C2.51233 56.9608 2.40188 56.9569 2.30088 56.9193C2.19987 56.8817 2.11372 56.8124 2.05527 56.7219C1.99681 56.6313 1.96918 56.5243 1.97649 56.4168C1.9838 56.3092 2.02566 56.207 2.09583 56.1252L2.86111 55.2302C2.77439 55.2054 2.69473 55.1605 2.62859 55.0992C2.56246 55.0379 2.51171 54.9618 2.48046 54.8772C2.44432 54.7499 2.46015 54.6134 2.52448 54.4977C2.58881 54.382 2.69639 54.2966 2.82363 54.2601L4.1126 53.8921C4.21593 53.8624 4.32609 53.8668 4.42673 53.9046C4.52738 53.9424 4.61315 54.0117 4.67132 54.1021C4.72838 54.1929 4.75476 54.2996 4.74655 54.4065C4.73835 54.5134 4.696 54.6148 4.62575 54.6958L3.92816 55.5139L7.03731 54.6244C7.14984 54.5927 7.26992 54.6015 7.37667 54.6491C7.48342 54.6968 7.5701 54.7804 7.62164 54.8853C7.67318 54.9902 7.68632 55.1099 7.65878 55.2235C7.63124 55.3371 7.56475 55.4375 7.47089 55.5072L5.59025 56.8919L10.4973 55.4918C10.6091 55.4601 10.7285 55.4684 10.8349 55.5152C10.9413 55.562 11.028 55.6444 11.0803 55.7483C11.1325 55.8521 11.1469 55.9709 11.121 56.0843C11.0951 56.1976 11.0305 56.2983 10.9383 56.3692L9.02858 57.8208L14.0755 56.3888C14.1928 56.3585 14.317 56.3719 14.4251 56.4263C14.5333 56.4807 14.618 56.5725 14.6636 56.6847C14.7092 56.7968 14.7125 56.9217 14.673 57.0361C14.6335 57.1506 14.5538 57.2468 14.4487 57.3069L13.4481 57.8367L16.4512 56.9836C16.5713 56.951 16.6993 56.9644 16.81 57.0211C16.9208 57.0778 17.0064 57.1738 17.0502 57.2903C17.094 57.4068 17.0927 57.5354 17.0467 57.6511C17.0007 57.7667 16.9132 57.861 16.8013 57.9156L16.7252 57.9522L18.4059 57.473C18.5236 57.4379 18.6501 57.4474 18.7613 57.4996C18.8725 57.5518 18.9606 57.6431 19.0087 57.7561C19.0569 57.8691 19.0618 57.9959 19.0225 58.1122C18.9832 58.2286 18.9024 58.3264 18.7955 58.387L17.4038 59.1901L21.0735 58.141C21.1864 58.1088 21.3069 58.1174 21.4141 58.1652C21.5212 58.213 21.6082 58.2969 21.6597 58.4024C21.7112 58.5078 21.724 58.628 21.6958 58.7419C21.6677 58.8558 21.6003 58.9561 21.5056 59.0254L19.6296 60.3958L24.5143 59.0025C24.6271 58.9704 24.7477 58.9789 24.8549 59.0267C24.962 59.0745 25.049 59.1585 25.1005 59.2639C25.152 59.3693 25.1648 59.4895 25.1366 59.6034C25.1084 59.7173 25.0411 59.8177 24.9464 59.8869L23.0748 61.2481L27.9376 59.8596C28.0553 59.8279 28.1805 59.8403 28.2896 59.8944C28.3988 59.9485 28.4845 60.0406 28.5306 60.1534C28.5766 60.2662 28.5799 60.392 28.5398 60.507C28.4997 60.6221 28.4189 60.7185 28.3127 60.7783L27.2296 61.3617L30.3659 60.4666C30.4848 60.4334 30.6118 60.4453 30.7224 60.5001C30.833 60.5548 30.9195 60.6486 30.9651 60.7633C31.0108 60.878 31.0124 61.0056 30.9696 61.1214C30.9268 61.2372 30.8427 61.3331 30.7335 61.3906L29.8711 61.8375L32.6611 61.0413C32.7752 61.0093 32.897 61.0188 33.0047 61.0683C33.1124 61.1177 33.1991 61.2038 33.2492 61.3112C33.2994 61.4186 33.3097 61.5404 33.2784 61.6547C33.2471 61.769 33.1762 61.8685 33.0784 61.9354L31.2938 63.138L35.8513 61.8411C35.9708 61.808 36.0982 61.8204 36.209 61.876C36.3198 61.9315 36.406 62.0262 36.4509 62.1418C36.4959 62.2573 36.4963 62.3853 36.4521 62.5011C36.4079 62.6169 36.3223 62.7122 36.2119 62.7685L35.6513 63.0477L37.9971 62.3784C38.1106 62.3467 38.2316 62.3562 38.3389 62.4051C38.4461 62.454 38.5326 62.5392 38.5831 62.6457C38.6336 62.7522 38.6449 62.873 38.615 62.987C38.585 63.101 38.5158 63.2007 38.4195 63.2687L36.5995 64.5304L41.271 63.1981C41.3842 63.1655 41.5052 63.1739 41.6128 63.2219C41.7204 63.2698 41.8076 63.3541 41.8591 63.4601C41.9106 63.566 41.923 63.6867 41.8942 63.8009C41.8654 63.9151 41.7972 64.0154 41.7017 64.0843L39.8358 65.4304L44.673 64.0499C44.7923 64.017 44.9195 64.0294 45.0301 64.0849C45.1408 64.1403 45.2269 64.2348 45.2719 64.3501C45.3169 64.4653 45.3176 64.5932 45.2738 64.7089C45.23 64.8246 45.1448 64.92 45.0348 64.9766L44.4196 65.2844L46.843 64.5933C46.9572 64.5613 47.0791 64.571 47.1869 64.6205C47.2946 64.6701 47.3812 64.7564 47.4312 64.8639C47.4812 64.9715 47.4914 65.0933 47.4599 65.2077C47.4283 65.322 47.3572 65.4214 47.2591 65.4882L45.4836 66.6796L50.0131 65.387C50.1272 65.355 50.2489 65.3644 50.3566 65.4137C50.4643 65.4631 50.551 65.549 50.6013 65.6563C50.6515 65.7635 50.6621 65.8852 50.631 65.9995C50.5999 66.1138 50.5293 66.2134 50.4317 66.2805L48.6399 67.4956L53.2153 66.1888C53.3261 66.1572 53.4444 66.1648 53.5502 66.2103C53.656 66.2558 53.7429 66.3365 53.7961 66.4387C53.8493 66.5408 53.8656 66.6582 53.8422 66.7711C53.8188 66.8839 53.7572 66.9851 53.6678 67.0578L51.7415 68.6166L56.9597 67.1264C57.07 67.0955 57.1876 67.1033 57.2927 67.1487C57.3979 67.1941 57.4843 67.2742 57.5375 67.3756C57.5907 67.4771 57.6074 67.5937 57.5849 67.706C57.5624 67.8183 57.5021 67.9195 57.4139 67.9926L55.4866 69.5718L58.906 68.5961C59.0109 68.5666 59.1225 68.5721 59.2239 68.6118C59.3254 68.6516 59.411 68.7233 59.4679 68.8162C59.5248 68.9091 59.5498 69.018 59.5392 69.1264C59.5285 69.2349 59.4827 69.3368 59.4087 69.4168L58.3101 70.5973L58.4112 70.568C58.5384 70.5326 58.6745 70.5489 58.7897 70.6134C58.9049 70.6779 58.9899 70.7854 59.0262 70.9123C59.0624 71.0393 59.047 71.1754 58.9833 71.291C58.9195 71.4067 58.8126 71.4924 58.6859 71.5295L56.8587 72.0503C56.754 72.0796 56.6426 72.0739 56.5414 72.0342C56.4402 71.9945 56.3547 71.9229 56.2979 71.8303C56.241 71.7376 56.2159 71.6289 56.2263 71.5207C56.2368 71.4125 56.2822 71.3107 56.3558 71.2306L57.4534 70.0498L53.4434 71.1941C53.333 71.2255 53.2151 71.218 53.1096 71.1728C53.004 71.1276 52.9173 71.0474 52.8639 70.9457C52.8105 70.8441 52.7937 70.7272 52.8163 70.6146C52.839 70.502 52.8997 70.4007 52.9882 70.3276L54.9165 68.7487L49.6592 70.2466C49.5486 70.2777 49.4306 70.2698 49.3252 70.2241C49.2197 70.1785 49.1332 70.0979 49.0802 69.9959C49.0272 69.8939 49.0109 69.7768 49.0342 69.6643C49.0574 69.5517 49.1187 69.4506 49.2077 69.3779L51.133 67.8189L45.9148 69.3091C45.8008 69.3411 45.6791 69.3317 45.5713 69.2824C45.4636 69.2331 45.3769 69.1471 45.3267 69.0398C45.2764 68.9326 45.2659 68.8109 45.2969 68.6966C45.328 68.5823 45.3986 68.4827 45.4963 68.4156L47.2871 67.2002L42.7117 68.507C42.5975 68.539 42.4756 68.5294 42.3678 68.4798C42.2601 68.4302 42.1735 68.3439 42.1235 68.2364C42.0734 68.1288 42.0633 68.007 42.0948 67.8927C42.1264 67.7783 42.1975 67.6789 42.2956 67.6122L44.0716 66.4229L39.5415 67.7133C39.4223 67.7462 39.295 67.7338 39.1844 67.6784C39.0738 67.6229 38.9876 67.5284 38.9426 67.4132C38.8976 67.2979 38.897 67.1701 38.9408 67.0543C38.9846 66.9386 39.0697 66.8432 39.1798 66.7867L39.7925 66.4803L37.3715 67.1699C37.2585 67.2019 37.1379 67.1931 37.0307 67.1451C36.9235 67.097 36.8367 67.0127 36.7855 66.9071C36.7342 66.8014 36.7218 66.681 36.7504 66.5671C36.779 66.4532 36.8468 66.353 36.9418 66.284L38.8069 64.9367L33.9686 66.3179C33.8551 66.3495 33.734 66.3401 33.6268 66.2912C33.5196 66.2423 33.4331 66.1571 33.3826 66.0506C33.3321 65.9441 33.3208 65.8232 33.3507 65.7093C33.3806 65.5953 33.4499 65.4955 33.5462 65.4276L35.3661 64.1659L30.6956 65.4984C30.5759 65.5325 30.4478 65.5207 30.3364 65.4653C30.2249 65.4099 30.1381 65.315 30.0929 65.1991C30.0477 65.0831 30.0474 64.9545 30.092 64.8383C30.1366 64.7221 30.2229 64.6267 30.3341 64.5708L30.8957 64.2918L28.5508 64.9614C28.4367 64.9934 28.3149 64.9838 28.2072 64.9344C28.0994 64.8849 28.0128 64.7988 27.9627 64.6914C27.9125 64.584 27.9022 64.4623 27.9335 64.348C27.9648 64.2336 28.0357 64.1341 28.1335 64.0672L29.9171 62.8644L25.3603 64.1625C25.2414 64.1958 25.1144 64.1838 25.0038 64.1291C24.8932 64.0743 24.8067 63.9805 24.7611 63.8658C24.7155 63.7511 24.7139 63.6236 24.7566 63.5078C24.7994 63.392 24.8835 63.2961 24.9927 63.2386L25.8541 62.7914L23.0642 63.5876C22.9465 63.6193 22.8214 63.6069 22.7122 63.5528C22.603 63.4987 22.5173 63.4066 22.4713 63.2938C22.4252 63.181 22.4219 63.0553 22.462 62.9402C22.5021 62.8251 22.5829 62.7287 22.6891 62.669L23.7734 62.0849L20.6352 62.9794C20.5225 63.0109 20.4023 63.002 20.2956 62.954C20.1888 62.9061 20.1023 62.8222 20.051 62.7171C19.9997 62.6119 19.9869 62.492 20.0149 62.3784C20.0428 62.2648 20.1098 62.1646 20.204 62.0952L22.0757 60.734L17.2119 62.1222C17.099 62.1548 16.9782 62.1465 16.8708 62.0988C16.7634 62.0512 16.6762 61.9673 16.6245 61.8618C16.5731 61.7561 16.5605 61.6356 16.5891 61.5215C16.6176 61.4074 16.6855 61.307 16.7807 61.238L18.6567 59.8677L13.7721 61.261C13.6543 61.2961 13.5278 61.2866 13.4166 61.2344C13.3054 61.1822 13.2174 61.0909 13.1692 60.9779C13.121 60.8649 13.1161 60.7381 13.1554 60.6218C13.1948 60.5054 13.2755 60.4076 13.3824 60.3469L14.7741 59.5439L11.1005 60.592C11.0175 60.6172 10.9293 60.62 10.8449 60.6002Z" fill="#ECD9A4"/>
<path d="M13.4352 49.9093C13.3324 49.8833 13.2405 49.8254 13.1728 49.7438C13.1051 49.6622 13.0651 49.5612 13.0586 49.4554C13.052 49.3496 13.0793 49.2444 13.1364 49.1551C13.1935 49.0658 13.2775 48.9969 13.3763 48.9585L15.6104 48.0932L11.3355 49.3114C11.2127 49.3444 11.0818 49.3294 10.9697 49.2694C10.8575 49.2094 10.7724 49.1088 10.7318 48.9883C10.6912 48.8677 10.698 48.7362 10.7509 48.6205C10.8039 48.5049 10.8989 48.4137 11.0167 48.3656L16.076 46.4027L9.99084 48.1438C9.8675 48.1772 9.73607 48.1621 9.62353 48.1016C9.51099 48.0411 9.42588 47.9398 9.38567 47.8185C9.34546 47.6973 9.3532 47.5652 9.4073 47.4494C9.46141 47.3337 9.55777 47.243 9.67661 47.1961L15.5943 44.9502L10.3996 46.4329C10.2756 46.469 10.1425 46.4557 10.028 46.3958C9.91361 46.3359 9.82679 46.2341 9.78577 46.1116C9.74474 45.9892 9.7527 45.8556 9.80797 45.7388C9.86324 45.6221 9.96154 45.5313 10.0823 45.4854L16.7663 42.9046L10.8592 44.5934C10.7363 44.6265 10.6055 44.6114 10.4934 44.5514C10.3812 44.4914 10.2961 44.3909 10.2555 44.2703C10.2148 44.1498 10.2217 44.0182 10.2746 43.9026C10.3275 43.7869 10.4226 43.6957 10.5404 43.6476L17.6637 40.8686L11.3357 42.6737C11.2117 42.7085 11.079 42.6942 10.9653 42.6335C10.8516 42.5729 10.7657 42.4708 10.7254 42.3484C10.6852 42.226 10.6938 42.0927 10.7494 41.9765C10.8051 41.8603 10.9034 41.77 11.0239 41.7245L14.6673 40.3689L11.704 41.2196C11.583 41.2527 11.454 41.2391 11.3426 41.1815C11.2311 41.124 11.1454 41.0266 11.1024 40.9088C11.0593 40.791 11.0621 40.6613 11.1103 40.5455C11.1584 40.4297 11.2482 40.3362 11.3621 40.2835L16.8414 37.8165L12.2259 39.1349C12.1058 39.1688 11.9773 39.1566 11.8658 39.1006C11.7542 39.0446 11.6677 38.9489 11.6231 38.8323C11.5785 38.7157 11.5791 38.5867 11.6249 38.4705C11.6706 38.3544 11.7581 38.2596 11.8702 38.2047L14.9228 36.7176L12.6694 37.3595C12.5543 37.3919 12.4313 37.382 12.3228 37.3315C12.2144 37.2809 12.1276 37.1932 12.0783 37.0842C12.029 36.9752 12.0205 36.8521 12.0542 36.7373C12.0879 36.6225 12.1616 36.5236 12.2621 36.4586L14.0488 35.3132L13.1164 35.5787C13.0114 35.6099 12.899 35.6053 12.797 35.5655C12.6949 35.5258 12.609 35.4532 12.5528 35.3592C12.4955 35.2659 12.4705 35.1563 12.4816 35.0473C12.4927 34.9383 12.5392 34.836 12.6141 34.7561L13.2195 34.1087C13.122 34.071 13.0388 34.0036 12.9816 33.916C12.9244 33.8285 12.8961 33.7253 12.9006 33.6208C12.9051 33.5164 12.9423 33.4159 13.0069 33.3337C13.0714 33.2515 13.1602 33.1915 13.2606 33.1624L14.5495 32.7944C14.6545 32.7646 14.7664 32.77 14.8681 32.8098C14.9697 32.8495 15.0556 32.9215 15.1126 33.0146C15.1695 33.1077 15.1944 33.2169 15.1835 33.3255C15.1725 33.4341 15.1264 33.5362 15.052 33.6161L14.5813 34.1167L17.0399 33.4211C17.1553 33.388 17.2787 33.3974 17.3876 33.4478C17.4965 33.4981 17.5837 33.586 17.6333 33.6953C17.6828 33.8046 17.6914 33.9281 17.6574 34.0432C17.6234 34.1583 17.5492 34.2573 17.4483 34.3222L15.663 35.4659L20.1261 34.1918C20.2458 34.159 20.3734 34.172 20.484 34.228C20.5947 34.2841 20.6806 34.3793 20.725 34.4952C20.7693 34.6111 20.7691 34.7393 20.7242 34.8549C20.6793 34.9706 20.593 35.0654 20.4821 35.121L17.4295 36.6081L23.1966 34.9595C23.3179 34.9253 23.4476 34.9382 23.5599 34.9955C23.6721 35.0529 23.7585 35.1505 23.8019 35.2688C23.8452 35.3872 23.8422 35.5175 23.7936 35.6338C23.7449 35.75 23.6542 35.8436 23.5394 35.8958L18.0592 38.3626L26.8103 35.8674C26.9335 35.8349 27.0645 35.8507 27.1765 35.9115C27.2885 35.9723 27.373 36.0735 27.4129 36.1946C27.4527 36.3156 27.4448 36.4473 27.3908 36.5627C27.3368 36.6782 27.2408 36.7686 27.1223 36.8156L23.4838 38.1725L27.6418 36.9849C27.764 36.9535 27.8935 36.9695 28.0044 37.0297C28.1153 37.0898 28.1994 37.1897 28.2397 37.3092C28.2801 37.4287 28.2738 37.5591 28.2221 37.6742C28.1703 37.7892 28.077 37.8805 27.9609 37.9297L20.8361 40.7104L27.1747 38.8956C27.2987 38.8595 27.4319 38.8728 27.5463 38.9327C27.6607 38.9926 27.7476 39.0944 27.7886 39.2169C27.8296 39.3393 27.8216 39.4729 27.7664 39.5897C27.7111 39.7064 27.6128 39.7972 27.4921 39.8431L20.8049 42.42L26.7113 40.7341C26.8346 40.7008 26.966 40.7159 27.0786 40.7764C27.1911 40.8369 27.2762 40.9381 27.3164 41.0594C27.3567 41.1807 27.3489 41.3128 27.2948 41.4285C27.2407 41.5443 27.1443 41.6349 27.0255 41.6818L21.1087 43.9239L26.2828 42.4453C26.4064 42.4101 26.5389 42.4238 26.6527 42.4836C26.7664 42.5435 26.8528 42.6448 26.8938 42.7667C26.9348 42.8885 26.9273 43.0215 26.8728 43.1379C26.8184 43.2544 26.7212 43.3454 26.6014 43.392L21.5378 45.3559L25.8672 44.1216C25.9904 44.0879 26.1217 44.1027 26.2343 44.1628C26.347 44.2229 26.4323 44.3238 26.4729 44.4448C26.5135 44.5659 26.5063 44.6978 26.4528 44.8137C26.3992 44.9296 26.3033 45.0206 26.1848 45.068L23.945 45.936L25.5184 45.4857C25.6391 45.4524 25.7679 45.4655 25.8793 45.5226C25.9908 45.5796 26.0768 45.6764 26.1203 45.7938C26.1638 45.9112 26.1618 46.0406 26.1145 46.1565C26.0672 46.2724 25.9781 46.3664 25.8649 46.4198L22.6324 47.9134L25.0895 47.2112C25.208 47.174 25.336 47.1823 25.4487 47.2343C25.5614 47.2864 25.6507 47.3785 25.6993 47.4927C25.7478 47.607 25.7521 47.7352 25.7114 47.8525C25.6706 47.9698 25.5876 48.0676 25.4787 48.1271L23.4102 49.307L24.6569 48.9512C24.7584 48.9222 24.8665 48.9261 24.9657 48.9622C25.0648 48.9984 25.15 49.065 25.209 49.1526C25.268 49.2401 25.2978 49.3441 25.294 49.4496C25.2903 49.5551 25.2533 49.6567 25.1883 49.7399L24.2703 50.911C24.3743 50.9174 24.4737 50.9557 24.5552 51.0205C24.6367 51.0854 24.6963 51.1737 24.7259 51.2735C24.7439 51.3367 24.7493 51.4028 24.7417 51.4681C24.7341 51.5333 24.7137 51.5964 24.6818 51.6538C24.6498 51.7112 24.6068 51.7617 24.5553 51.8025C24.5038 51.8432 24.4447 51.8734 24.3815 51.8914L23.0938 52.2586C22.9923 52.2876 22.8842 52.2837 22.785 52.2476C22.6859 52.2114 22.6007 52.1448 22.5417 52.0572C22.4827 51.9697 22.4529 51.8657 22.4567 51.7602C22.4604 51.6547 22.4974 51.5531 22.5624 51.4699L23.4515 50.3359L19.6945 51.4044C19.576 51.4415 19.448 51.4332 19.3353 51.3812C19.2226 51.3292 19.1333 51.237 19.0847 51.1228C19.0362 51.0085 19.0319 50.8803 19.0726 50.763C19.1134 50.6458 19.1963 50.5479 19.3053 50.4884L21.3712 49.3109L16.6825 50.6502C16.5618 50.6835 16.433 50.6703 16.3216 50.6133C16.2101 50.5562 16.1241 50.4595 16.0806 50.3421C16.0371 50.2247 16.0391 50.0953 16.0864 49.9794C16.1337 49.8635 16.2228 49.7695 16.336 49.7161L19.5705 48.223L13.6947 49.9021C13.6104 49.9276 13.5208 49.9301 13.4352 49.9093Z" fill="#7FC3CF"/>
<path d="M26.7703 60.4952C26.6673 60.4693 26.5753 60.4113 26.5075 60.3295C26.4397 60.2478 26.3997 60.1466 26.3932 60.0406C26.3868 59.9345 26.4143 59.8293 26.4718 59.7399C26.5292 59.6506 26.6136 59.5819 26.7127 59.5437L26.8143 59.5042L26.7035 59.5352C26.5804 59.5704 26.4486 59.5571 26.3351 59.498C26.2216 59.4389 26.1351 59.3385 26.0934 59.2175C26.0516 59.0965 26.0578 58.964 26.1108 58.8474C26.1637 58.7309 26.2594 58.639 26.3781 58.5909L29.158 57.4644L27.0744 58.0581C26.952 58.0922 26.8212 58.0784 26.7086 58.0195C26.596 57.9607 26.5101 57.8612 26.4682 57.7413C26.4263 57.6213 26.4316 57.4899 26.4831 57.3738C26.5346 57.2577 26.6283 57.1655 26.7453 57.116L30.1047 55.7253L27.47 56.4779C27.3484 56.5107 27.2188 56.4964 27.1073 56.4378C26.9957 56.3793 26.9104 56.2807 26.8684 56.162C26.8263 56.0432 26.8307 55.9129 26.8805 55.7972C26.9304 55.6815 27.0221 55.5889 27.1374 55.5379L31.2679 53.7764L27.9062 54.7356C27.7851 54.769 27.6557 54.7556 27.544 54.6979C27.4323 54.6403 27.3465 54.5426 27.3035 54.4245C27.2605 54.3064 27.2636 54.1764 27.3122 54.0604C27.3608 53.9445 27.4512 53.8511 27.5656 53.7988L32.6805 51.5148L28.4073 52.7344C28.284 52.7689 28.1522 52.7549 28.039 52.6951C27.9258 52.6353 27.8398 52.5344 27.7988 52.4131C27.7578 52.2918 27.7649 52.1594 27.8186 52.0432C27.8723 51.927 27.9686 51.8358 28.0875 51.7884L29.7549 51.14L28.7379 51.4307C28.6152 51.4653 28.484 51.4517 28.371 51.3928C28.258 51.3339 28.1718 51.234 28.1299 51.1136C28.0881 50.9933 28.0938 50.8615 28.1458 50.7451C28.1979 50.6288 28.2924 50.5368 28.4101 50.4878L31.628 49.1638L29.1287 49.8781C29.0064 49.9126 28.8757 49.8992 28.7629 49.8408C28.6501 49.7824 28.5638 49.6832 28.5215 49.5634C28.4792 49.4437 28.484 49.3123 28.5351 49.196C28.5861 49.0797 28.6795 48.9871 28.7963 48.9372L32.7468 47.2646L29.5504 48.1693C29.4269 48.2036 29.295 48.1892 29.1818 48.129C29.0687 48.0688 28.983 47.9675 28.9424 47.846C28.9018 47.7244 28.9094 47.5919 28.9637 47.4759C29.0179 47.3598 29.1147 47.2689 29.234 47.2221L30.0116 46.9241L29.8508 46.9694C29.7272 47.0046 29.5947 46.9909 29.481 46.9311C29.3672 46.8712 29.2808 46.7698 29.2398 46.648C29.1988 46.5262 29.2063 46.3932 29.2608 46.2768C29.3152 46.1603 29.4124 46.0693 29.5322 46.0227L30.9268 45.4801L30.17 45.6947C30.0474 45.7273 29.917 45.712 29.8053 45.6521C29.6935 45.5921 29.6087 45.492 29.5681 45.3719C29.5274 45.2518 29.5339 45.1207 29.5862 45.0052C29.6385 44.8896 29.7328 44.7983 29.8499 44.7497L31.4666 44.1144L30.4974 44.3871C30.3783 44.4205 30.2511 44.4086 30.1404 44.3537C30.0296 44.2988 29.9431 44.2048 29.8975 44.0899C29.852 43.9749 29.8506 43.8472 29.8937 43.7313C29.9369 43.6154 30.0214 43.5196 30.131 43.4624L34.4138 41.2535L31.0395 42.2219C30.9218 42.2571 30.7953 42.2476 30.6841 42.1954C30.5729 42.1432 30.4848 42.0519 30.4366 41.9389C30.3885 41.8259 30.3836 41.6991 30.4229 41.5827C30.4622 41.4664 30.543 41.3685 30.6498 41.3079L32.4559 40.2705L31.4568 40.5554C31.3544 40.5841 31.2454 40.5795 31.1458 40.5421C31.0463 40.5047 30.9612 40.4365 30.903 40.3474C30.8448 40.2584 30.8166 40.1531 30.8224 40.0468C30.8281 39.9406 30.8676 39.839 30.9351 39.7568L31.7606 38.7532C31.6481 38.736 31.5449 38.681 31.4679 38.5973C31.3909 38.5135 31.3448 38.4059 31.3372 38.2924C31.3295 38.1789 31.3609 38.0662 31.426 37.9728C31.4911 37.8795 31.5861 37.8112 31.6952 37.7792L32.9842 37.4112C33.0865 37.3827 33.1952 37.3874 33.2946 37.4248C33.394 37.4621 33.4789 37.5302 33.5371 37.6191C33.5952 37.7079 33.6235 37.813 33.618 37.919C33.6124 38.0251 33.5732 38.1266 33.5061 38.2089L32.7292 39.1545L36.0966 38.1926C36.2143 38.1575 36.3409 38.1669 36.452 38.2191C36.5632 38.2713 36.6513 38.3626 36.6995 38.4756C36.7477 38.5886 36.7526 38.7154 36.7132 38.8318C36.6739 38.9482 36.5931 39.046 36.4863 39.1066L34.68 40.145L38.9854 38.9159C39.1045 38.8825 39.2317 38.8944 39.3425 38.9493C39.4533 39.0042 39.5398 39.0982 39.5853 39.2132C39.6309 39.3281 39.6322 39.4558 39.5891 39.5717C39.546 39.6876 39.4614 39.7834 39.3518 39.8406L35.0698 42.0466L41.2318 40.2907C41.3551 40.2562 41.4869 40.2702 41.6001 40.33C41.7133 40.3898 41.7993 40.4908 41.8403 40.612C41.8813 40.7333 41.8742 40.8657 41.8205 40.9819C41.7668 41.0982 41.6705 41.1893 41.5516 41.2367L39.9363 41.8703L40.9349 41.5874C41.0586 41.5522 41.191 41.5659 41.3048 41.6257C41.4186 41.6856 41.5049 41.787 41.5459 41.9088C41.5869 42.0306 41.5794 42.1636 41.525 42.28C41.4705 42.3965 41.3733 42.4875 41.2535 42.5342L39.8498 43.0806L40.6182 42.8606C40.7417 42.8264 40.8736 42.8408 40.9867 42.901C41.0999 42.9611 41.1856 43.0625 41.2262 43.184C41.2668 43.3055 41.2592 43.438 41.2049 43.5541C41.1507 43.6702 41.0539 43.761 40.9346 43.8078L40.1601 44.1056L40.3187 44.0608C40.4406 44.0276 40.5705 44.0418 40.6824 44.1004C40.7943 44.1591 40.8798 44.2579 40.9218 44.3771C40.9638 44.4962 40.9591 44.6268 40.9087 44.7427C40.8583 44.8585 40.766 44.951 40.6502 45.0015L36.7028 46.6738L39.8959 45.7621C40.0181 45.7288 40.1484 45.7432 40.2605 45.8024C40.3725 45.8615 40.4579 45.961 40.4994 46.0807C40.541 46.2005 40.5355 46.3315 40.4841 46.4473C40.4327 46.5631 40.3393 46.6551 40.2227 46.7047L37.0098 48.0207L39.5072 47.3059C39.631 47.2696 39.7641 47.2825 39.8786 47.342C39.9931 47.4015 40.0801 47.503 40.1215 47.6251C40.163 47.7473 40.1555 47.8808 40.1008 47.9977C40.0461 48.1145 39.9484 48.2057 39.828 48.2521L38.1613 48.9059L39.1815 48.615C39.3031 48.5804 39.4332 48.5931 39.5457 48.6506C39.6582 48.708 39.7448 48.8059 39.7881 48.9246C39.8314 49.0433 39.8281 49.174 39.779 49.2904C39.7298 49.4068 39.6384 49.5003 39.5232 49.552L34.4048 51.8373L38.6838 50.615C38.8058 50.581 38.9362 50.5945 39.0486 50.6528C39.161 50.7112 39.2471 50.81 39.2894 50.9294C39.3318 51.0487 39.3273 51.1797 39.2768 51.2959C39.2263 51.412 39.1336 51.5047 39.0175 51.5552L34.8913 53.3157L38.25 52.3558C38.3724 52.3217 38.5032 52.3355 38.6158 52.3943C38.7284 52.4531 38.8143 52.5526 38.8562 52.6726C38.8981 52.7925 38.8928 52.9239 38.8413 53.04C38.7898 53.1562 38.6961 53.2484 38.5791 53.2979L35.2146 54.6925L37.857 53.9377C37.9803 53.9019 38.1126 53.9148 38.2266 53.9739C38.3406 54.0329 38.4275 54.1336 38.4693 54.2549C38.5111 54.3763 38.5046 54.5091 38.4512 54.6258C38.3978 54.7425 38.3016 54.8343 38.1824 54.882L35.4023 56.0095L37.4896 55.4136C37.613 55.3793 37.7449 55.3938 37.8581 55.454C37.9712 55.5141 38.0569 55.6155 38.0975 55.737C38.1381 55.8585 38.1305 55.991 38.0762 56.1071C38.022 56.2232 37.9252 56.314 37.806 56.3608L37.3807 56.5234C37.4771 56.5294 37.5696 56.5636 37.6467 56.6217C37.7238 56.6799 37.7821 56.7595 37.8143 56.8505C37.8582 56.9688 37.8557 57.0993 37.8074 57.2159C37.7591 57.3325 37.6685 57.4265 37.5538 57.4791L35.8543 58.2432L36.8588 57.9576C36.9737 57.9251 37.0965 57.9349 37.2049 57.9851C37.3133 58.0354 37.4001 58.1228 37.4496 58.2315C37.4992 58.3402 37.5081 58.463 37.4749 58.5778C37.4417 58.6925 37.3685 58.7916 37.2686 58.8571L35.5297 59.9845L36.4177 59.7316C36.5248 59.7021 36.6387 59.7092 36.7413 59.7516C36.844 59.7941 36.9296 59.8695 36.9846 59.966C37.0397 60.0625 37.061 60.1746 37.0452 60.2846C37.0294 60.3946 36.9775 60.4962 36.8976 60.5733L36.409 61.0303C36.5079 61.0665 36.593 61.133 36.652 61.2203C36.7109 61.3076 36.7408 61.4114 36.7373 61.5167C36.7338 61.622 36.6971 61.7235 36.6324 61.8067C36.5678 61.89 36.4785 61.9506 36.3773 61.9801L34.8463 62.4215C34.7392 62.4509 34.6253 62.4439 34.5226 62.4014C34.42 62.3589 34.3344 62.2835 34.2793 62.187C34.2243 62.0905 34.203 61.9784 34.2187 61.8684C34.2345 61.7584 34.2864 61.6569 34.3664 61.5797L34.7002 61.2674L32.596 61.8693C32.4808 61.9025 32.3576 61.8932 32.2488 61.8431C32.1399 61.793 32.0527 61.7055 32.0029 61.5965C31.9531 61.4875 31.9442 61.3643 31.9776 61.2492C32.0111 61.1342 32.0848 61.0349 32.1852 60.9696L33.9263 59.8417L29.503 61.1052C29.382 61.1383 29.253 61.1247 29.1416 61.0672C29.0301 61.0096 28.9444 60.9123 28.9014 60.7945C28.8583 60.6767 28.8612 60.547 28.9093 60.4311C28.9574 60.3153 29.0473 60.2218 29.1611 60.1691L30.8601 59.4029L27.0361 60.4958C26.9491 60.5199 26.8572 60.5197 26.7703 60.4952Z" fill="#7FC3CF"/>
<path d="M13.8712 50.0494C13.7783 50.0261 13.694 49.9766 13.6285 49.9068C13.5629 49.8369 13.5187 49.7498 13.5013 49.6556C13.4838 49.5614 13.4938 49.4642 13.5299 49.3755C13.5661 49.2868 13.627 49.2104 13.7054 49.1553L15.6163 47.8061L14.0639 48.2421C13.9476 48.2739 13.8236 48.2626 13.7149 48.2102C13.6062 48.1578 13.5202 48.0679 13.4726 47.957C13.425 47.8461 13.4191 47.7218 13.456 47.6069C13.4929 47.492 13.5701 47.3944 13.6733 47.3319L15.1385 46.4618L14.4637 46.6536C14.347 46.6862 14.2225 46.6753 14.1132 46.6229C14.004 46.5706 13.9174 46.4803 13.8697 46.369C13.822 46.2576 13.8163 46.1327 13.8538 46.0175C13.8912 45.9022 13.9693 45.8045 14.0733 45.7425L15.4762 44.9155L14.8545 45.0928C14.7403 45.1255 14.6182 45.1165 14.5101 45.0673C14.4019 45.0182 14.3148 44.9321 14.2643 44.8246C14.2138 44.717 14.2033 44.595 14.2346 44.4804C14.2659 44.3658 14.3369 44.2661 14.435 44.1991L16.7986 42.5818L15.3821 42.9858C15.263 43.0228 15.1344 43.014 15.0215 42.961C14.9086 42.908 14.8196 42.8148 14.7719 42.6996C14.7242 42.5844 14.7212 42.4555 14.7637 42.3382C14.8061 42.221 14.8908 42.1238 15.0012 42.0658L15.7508 41.6411L15.7163 41.651C15.613 41.6811 15.5028 41.677 15.402 41.6394C15.3012 41.6019 15.2152 41.5328 15.1568 41.4424C15.0984 41.3521 15.0707 41.2454 15.0777 41.138C15.0848 41.0307 15.1263 40.9285 15.1961 40.8466L15.9653 39.9403C15.8746 39.9234 15.7906 39.8814 15.7227 39.819C15.6548 39.7566 15.6059 39.6764 15.5815 39.5875C15.5453 39.4602 15.5612 39.3237 15.6255 39.208C15.6898 39.0923 15.7974 39.0069 15.9246 38.9704L17.2136 38.6024C17.3167 38.5717 17.4271 38.5756 17.5278 38.6135C17.6285 38.6514 17.714 38.7211 17.7714 38.8122C17.8294 38.9024 17.8568 39.0088 17.8497 39.1158C17.8426 39.2228 17.8013 39.3247 17.7319 39.4064L17.0272 40.2361L19.5353 39.5239C19.6544 39.487 19.783 39.4958 19.8959 39.5488C20.0088 39.6017 20.0978 39.695 20.1455 39.8102C20.1932 39.9254 20.1962 40.0543 20.1537 40.1715C20.1113 40.2888 20.0266 40.386 19.9163 40.444L19.1667 40.8687L19.481 40.7783C19.5952 40.7456 19.7173 40.7547 19.8255 40.8038C19.9337 40.8529 20.0208 40.939 20.0713 41.0465C20.1217 41.1541 20.1323 41.2761 20.101 41.3907C20.0697 41.5053 19.9986 41.605 19.9005 41.672L17.5367 43.2903L18.9612 42.8831C19.0779 42.8505 19.2025 42.8614 19.3117 42.9138C19.421 42.9661 19.5075 43.0564 19.5553 43.1678C19.603 43.2791 19.6086 43.404 19.5712 43.5192C19.5337 43.6345 19.4557 43.7322 19.3516 43.7942L17.9487 44.6212L18.5748 44.4429C18.6912 44.4111 18.8151 44.4224 18.9238 44.4748C19.0325 44.5272 19.1186 44.6172 19.1661 44.728C19.2137 44.8389 19.2196 44.9632 19.1827 45.0781C19.1458 45.193 19.0687 45.2906 18.9654 45.3531L17.4983 46.2228L18.1798 46.0285C18.2932 45.9967 18.4141 46.006 18.5213 46.0546C18.6285 46.1032 18.7151 46.1881 18.7659 46.2943C18.8166 46.4005 18.8283 46.5212 18.7988 46.6352C18.7693 46.7491 18.7006 46.849 18.6047 46.9173L16.7018 48.2675L17.7013 47.9807C17.7958 47.9537 17.8961 47.9551 17.9898 47.9848C18.0835 48.0145 18.1663 48.0711 18.228 48.1476C18.2897 48.2241 18.3275 48.317 18.3366 48.4148C18.3458 48.5127 18.3259 48.611 18.2795 48.6976L17.7393 49.7025C17.8242 49.7673 17.8858 49.858 17.9148 49.9609C17.9509 50.0882 17.9351 50.2247 17.8708 50.3404C17.8064 50.4561 17.6989 50.5415 17.5716 50.578L17.0098 50.7384C16.9155 50.7651 16.8153 50.7634 16.7219 50.7337C16.6284 50.7039 16.5458 50.6473 16.4843 50.5709C16.4227 50.4945 16.385 50.4017 16.3759 50.3041C16.3667 50.2064 16.3864 50.1082 16.4326 50.0217L16.8382 49.2666L14.1271 50.0403C14.0441 50.066 13.9558 50.0691 13.8712 50.0494Z" fill="#FDE060"/>
<path d="M45.7671 58.0047C45.6653 57.9792 45.5741 57.9224 45.5064 57.8422C45.4387 57.762 45.398 57.6625 45.39 57.5579C45.382 57.4532 45.4071 57.3487 45.4618 57.2592C45.5165 57.1696 45.5979 57.0995 45.6947 57.0588L50.1951 55.1662L42.9583 57.2293C42.8357 57.2639 42.7044 57.2503 42.5914 57.1914C42.4784 57.1325 42.3922 57.0326 42.3503 56.9122C42.3085 56.7919 42.3142 56.6601 42.3663 56.5437C42.4183 56.4274 42.5128 56.3354 42.6305 56.2864L50.1541 53.1932L42.1518 55.481C42.0289 55.5141 41.8981 55.4991 41.786 55.439C41.6738 55.379 41.5887 55.2785 41.5481 55.1579C41.5074 55.0374 41.5143 54.9059 41.5672 54.7902C41.6201 54.6745 41.7152 54.5833 41.833 54.5353L48.885 51.7899L42.6288 53.5758C42.5052 53.6111 42.3728 53.5974 42.259 53.5375C42.1452 53.4777 42.0589 53.3763 42.0179 53.2545C41.9769 53.1326 41.9844 52.9997 42.0388 52.8832C42.0933 52.7668 42.1905 52.6758 42.3102 52.6291L49.2545 49.9351L43.1003 51.693C42.9763 51.7258 42.8444 51.7098 42.7319 51.6482C42.6195 51.5865 42.535 51.484 42.4959 51.3619C42.4569 51.2397 42.4663 51.1072 42.5222 50.9918C42.5781 50.8763 42.6762 50.7868 42.7962 50.7416L44.5762 50.109L43.4148 50.4368C43.2911 50.4708 43.1591 50.456 43.046 50.3955C42.933 50.3349 42.8475 50.2332 42.8073 50.1114C42.7671 49.9896 42.7752 49.857 42.83 49.741C42.8849 49.625 42.9822 49.5346 43.1018 49.4883L46.7035 48.1387L43.7811 48.9739C43.6582 49.007 43.5274 48.9919 43.4152 48.9319C43.3031 48.8719 43.218 48.7714 43.1774 48.6508C43.1367 48.5303 43.1436 48.3987 43.1965 48.2831C43.2494 48.1674 43.3445 48.0762 43.4623 48.0281L45.9294 47.0635L44.1262 47.579C44.0057 47.6128 43.8768 47.6002 43.7651 47.5435C43.6533 47.4869 43.567 47.3904 43.523 47.2731C43.479 47.1559 43.4806 47.0264 43.5276 46.9103C43.5745 46.7941 43.6633 46.6999 43.7764 46.6461L47.1635 45.0582L44.5763 45.798C44.4603 45.8304 44.3365 45.8198 44.2276 45.7683C44.1188 45.7167 44.0322 45.6275 43.9838 45.5172C43.9354 45.4069 43.9285 45.2828 43.9643 45.1678C44.0001 45.0528 44.0762 44.9546 44.1786 44.8912L46.3685 43.5561L45.0422 43.9374C44.9397 43.9661 44.8308 43.9615 44.7312 43.9241C44.6316 43.8867 44.5466 43.8185 44.4884 43.7294C44.4302 43.6404 44.4019 43.5351 44.4077 43.4288C44.4135 43.3226 44.453 43.221 44.5205 43.1388L45.3343 42.157C45.2399 42.1419 45.1517 42.1003 45.08 42.0371C45.0082 41.9739 44.9559 41.8916 44.9289 41.7999C44.8928 41.6725 44.9086 41.5361 44.973 41.4204C45.0373 41.3047 45.1449 41.2192 45.2721 41.1828L46.5611 40.8148C46.6635 40.786 46.7724 40.7907 46.872 40.8281C46.9716 40.8655 47.0567 40.9337 47.1149 41.0228C47.173 41.1118 47.2013 41.2171 47.1955 41.3234C47.1897 41.4296 47.1502 41.5312 47.0827 41.6134L46.3216 42.5331L49.6396 41.5836C49.7556 41.5511 49.8794 41.5617 49.9882 41.6132C50.0971 41.6648 50.1837 41.754 50.2321 41.8643C50.2804 41.9746 50.2874 42.0987 50.2516 42.2137C50.2158 42.3287 50.1397 42.4269 50.0372 42.4903L47.8474 43.8254L52.8718 42.3929C52.9924 42.359 53.1213 42.3717 53.233 42.4283C53.3447 42.4849 53.431 42.5814 53.475 42.6987C53.519 42.8159 53.5174 42.9454 53.4705 43.0616C53.4235 43.1777 53.3348 43.272 53.2217 43.3258L49.8348 44.9127L55.9556 43.165C56.0784 43.1319 56.2093 43.147 56.3214 43.207C56.4336 43.267 56.5186 43.3675 56.5593 43.4881C56.5999 43.6087 56.5931 43.7402 56.5402 43.8558C56.4872 43.9715 56.3922 44.0627 56.2744 44.1108L53.8024 45.0742L58.371 43.7698C58.4939 43.7378 58.6244 43.7538 58.7359 43.8145C58.8475 43.8753 58.9317 43.9761 58.9716 44.0967C59.0115 44.2173 59.004 44.3485 58.9506 44.4638C58.8972 44.579 58.802 44.6697 58.6843 44.7172L55.0901 46.0657L59.659 44.7603C59.7853 44.7199 59.9225 44.7313 60.0404 44.792C60.1583 44.8528 60.2472 44.9579 60.2877 45.0842C60.3281 45.2105 60.3167 45.3477 60.2559 45.4656C60.1952 45.5835 60.0901 45.6724 59.9638 45.7128L58.1855 46.3428L59.4141 45.9896C59.5377 45.9544 59.6702 45.9681 59.7839 46.0279C59.8977 46.0878 59.984 46.1891 60.025 46.311C60.066 46.4328 60.0585 46.5658 60.0041 46.6822C59.9497 46.7987 59.8524 46.8897 59.7327 46.9363L52.7884 49.6303L58.9426 47.8725C59.0663 47.8372 59.1987 47.851 59.3125 47.9108C59.4262 47.9707 59.5126 48.072 59.5536 48.1939C59.5946 48.3157 59.5871 48.4486 59.5327 48.5651C59.4782 48.6815 59.381 48.7726 59.2612 48.8192L52.2034 51.5673L58.4654 49.7786C58.588 49.7441 58.7192 49.7576 58.8322 49.8165C58.9452 49.8755 59.0315 49.9753 59.0733 50.0957C59.1152 50.2161 59.1095 50.3479 59.0574 50.4642C59.0053 50.5805 58.9108 50.6725 58.7932 50.7215L51.2683 53.8155L57.93 51.9125C58.0525 51.8775 58.1838 51.8907 58.297 51.9492C58.4101 52.0077 58.4967 52.1072 58.539 52.2274C58.5812 52.3476 58.576 52.4794 58.5244 52.5959C58.4728 52.7124 58.3787 52.8047 58.2612 52.8542L53.7671 54.7463L57.4906 53.6838C57.613 53.6487 57.7441 53.6616 57.8573 53.7198C57.9705 53.778 58.0572 53.8772 58.0998 53.9972C58.1424 54.1173 58.1374 54.2492 58.086 54.3659C58.0346 54.4825 57.9405 54.5751 57.8231 54.6248L55.9892 55.4026L57.1428 55.073C57.262 55.0388 57.3895 55.0501 57.5008 55.1047C57.6121 55.1593 57.6991 55.2533 57.745 55.3684C57.7909 55.4835 57.7925 55.6116 57.7493 55.7278C57.7061 55.8439 57.6213 55.9399 57.5114 55.9972L55.6445 56.9729L56.7457 56.659C56.8575 56.6273 56.9769 56.6356 57.0833 56.6824C57.1897 56.7292 57.2765 56.8116 57.3287 56.9155C57.3809 57.0193 57.3953 57.1382 57.3694 57.2515C57.3435 57.3648 57.2789 57.4655 57.1868 57.5364L56.1904 58.3003L56.3457 58.2567C56.471 58.2264 56.6032 58.2458 56.7147 58.3108C56.8261 58.3757 56.9081 58.4812 56.9436 58.6052C56.9791 58.7291 56.9653 58.862 56.9051 58.9761C56.8449 59.0902 56.743 59.1765 56.6206 59.2172L53.9325 59.9771C53.8205 60.0093 53.7008 60.0014 53.594 59.9548C53.4872 59.9081 53.4001 59.8256 53.3477 59.7215C53.2952 59.6174 53.2808 59.4983 53.3069 59.3847C53.333 59.2711 53.3979 59.1702 53.4905 59.0994L54.4868 58.3356L51.1679 59.2848C51.0491 59.318 50.9224 59.306 50.8119 59.2514C50.7014 59.1967 50.615 59.1032 50.5693 58.9887C50.5235 58.8742 50.5217 58.7469 50.5641 58.6312C50.6065 58.5154 50.6902 58.4194 50.7991 58.3616L52.6636 57.3914L48.4304 58.5994C48.3081 58.6339 48.1774 58.6206 48.0646 58.5621C47.9518 58.5037 47.8655 58.4045 47.8232 58.2847C47.7809 58.165 47.7857 58.0336 47.8368 57.9173C47.8878 57.801 47.9812 57.7085 48.098 57.6585L49.9309 56.8804L46.0247 57.9971C45.941 58.0224 45.8521 58.025 45.7671 58.0047Z" fill="#7FC3CF"/>
<path d="M47.2183 58.3846C47.1295 58.3625 47.0485 58.3165 46.9841 58.2516C46.9196 58.1867 46.8742 58.1054 46.8528 58.0164C46.8314 57.9275 46.8347 57.8344 46.8625 57.7473C46.8904 57.6602 46.9415 57.5823 47.0105 57.5223L48.078 56.5937L45.8377 57.2286C45.721 57.2612 45.5965 57.2503 45.4872 57.1979C45.3779 57.1456 45.2914 57.0553 45.2437 56.9439C45.196 56.8326 45.1903 56.7077 45.2278 56.5925C45.2652 56.4772 45.3432 56.3795 45.4473 56.3175L46.8512 55.4907L46.2283 55.6688C46.1125 55.7019 45.9887 55.6921 45.8795 55.6412C45.7704 55.5903 45.6833 55.5018 45.6342 55.3918C45.5852 55.2818 45.5774 55.1579 45.6124 55.0427C45.6474 54.9275 45.7228 54.8288 45.8248 54.7647L47.6881 53.5932L46.6757 53.8819C46.5586 53.9153 46.4335 53.9048 46.3236 53.8525C46.2137 53.8002 46.1267 53.7096 46.0789 53.5977C46.031 53.4859 46.0256 53.3604 46.0636 53.2448C46.1017 53.1292 46.1806 53.0314 46.2855 52.9698L47.6372 52.1826L47.0619 52.3478C46.9444 52.3787 46.8197 52.3659 46.7111 52.3116C46.6024 52.2574 46.5172 52.1654 46.4714 52.0529C46.4256 51.9405 46.4223 51.8152 46.4621 51.7004C46.5019 51.5857 46.5821 51.4893 46.6877 51.4294L47.301 51.1005C47.1915 51.1136 47.0808 51.0902 46.9861 51.0339C46.8914 50.9775 46.8179 50.8915 46.7771 50.7891C46.7363 50.6867 46.7305 50.5737 46.7605 50.4677C46.7906 50.3616 46.8549 50.2685 46.9433 50.2028L48.7628 48.8523L47.8746 49.1061C47.7665 49.137 47.6512 49.1306 47.5472 49.0879C47.4432 49.0453 47.3566 48.9688 47.3014 48.8709C47.2463 48.7729 47.2257 48.6593 47.243 48.5482C47.2604 48.4372 47.3147 48.3352 47.3971 48.2588L47.7904 47.8944C47.713 47.8402 47.6526 47.7651 47.6161 47.678C47.5796 47.5908 47.5685 47.4951 47.5842 47.402C47.5999 47.3088 47.6416 47.222 47.7046 47.1515C47.7676 47.0811 47.8492 47.03 47.9401 47.0041L49.2291 46.6361C49.3371 46.6052 49.4525 46.6116 49.5564 46.6543C49.6604 46.697 49.747 46.7735 49.8022 46.8714C49.8573 46.9693 49.8779 47.083 49.8606 47.194C49.8432 47.3051 49.789 47.4071 49.7065 47.4835L49.6153 47.5637L51.1318 47.1311C51.2444 47.0988 51.3648 47.107 51.472 47.1544C51.5791 47.2017 51.6662 47.2852 51.7181 47.3903C51.77 47.4953 51.7834 47.6152 51.7558 47.7291C51.7283 47.843 51.6617 47.9436 51.5676 48.0134L49.7473 49.3627L51.4821 48.8692C51.5996 48.8383 51.7243 48.8512 51.8329 48.9054C51.9416 48.9597 52.0268 49.0516 52.0726 49.1641C52.1184 49.2766 52.1217 49.4019 52.0819 49.5166C52.0421 49.6314 51.9619 49.7277 51.8563 49.7876L51.2442 50.1158C51.3584 50.1015 51.4741 50.127 51.5716 50.1881C51.6692 50.2492 51.7427 50.342 51.7797 50.451C51.8168 50.56 51.8151 50.6784 51.7749 50.7863C51.7348 50.8941 51.6587 50.9849 51.5594 51.0431L50.2068 51.8384L50.7879 51.6746C50.9039 51.6408 51.0282 51.6501 51.1378 51.7009C51.2474 51.7516 51.335 51.8403 51.3843 51.9505C51.4336 52.0608 51.4414 52.1852 51.4061 52.3007C51.3708 52.4162 51.2949 52.5151 51.1924 52.579L49.3291 53.7505L50.3473 53.4591C50.464 53.4265 50.5886 53.4374 50.6978 53.4898C50.8071 53.5421 50.8936 53.6324 50.9414 53.7437C50.9891 53.8551 50.9947 53.98 50.9573 54.0952C50.9198 54.2104 50.8418 54.3081 50.7377 54.3702L49.3339 55.197L49.9611 55.0179C50.0705 54.9868 50.1871 54.9938 50.292 55.0378C50.3968 55.0819 50.4834 55.1603 50.5377 55.2603C50.5919 55.3602 50.6105 55.4756 50.5903 55.5875C50.5701 55.6994 50.5124 55.801 50.4267 55.8757L49.3602 56.8045L49.5312 56.7556C49.5952 56.7343 49.6628 56.7262 49.73 56.7317C49.7972 56.7373 49.8626 56.7564 49.9223 56.7878C49.9819 56.8193 50.0346 56.8625 50.0771 56.9149C50.1196 56.9672 50.1511 57.0276 50.1696 57.0924C50.1882 57.1573 50.1934 57.2252 50.1851 57.2921C50.1767 57.359 50.1549 57.4235 50.1209 57.4818C50.087 57.5401 50.0416 57.5909 49.9875 57.6311C49.9334 57.6714 49.8717 57.7003 49.8061 57.7161L47.4744 58.3827C47.3907 58.4058 47.3023 58.4065 47.2183 58.3846Z" fill="#FDE060"/>
<path d="M51.7039 37.8429C51.6 37.8171 51.5072 37.7585 51.4391 37.676C51.3709 37.5934 51.3311 37.4911 51.3254 37.3842C51.3198 37.2773 51.3486 37.1714 51.4076 37.0821C51.4666 36.9928 51.5528 36.9248 51.6533 36.8881L51.9427 36.7822L49.9826 37.3398C49.8602 37.3739 49.7294 37.3601 49.6168 37.3012C49.5043 37.2424 49.4183 37.1429 49.3764 37.023C49.3345 36.903 49.3399 36.7716 49.3913 36.6555C49.4428 36.5394 49.5366 36.4472 49.6536 36.3976L53.9388 34.6192L47.0142 36.5965C46.8916 36.6311 46.7603 36.6176 46.6473 36.5586C46.5343 36.4997 46.4481 36.3999 46.4062 36.2795C46.3644 36.1591 46.3701 36.0273 46.4222 35.911C46.4742 35.7947 46.5688 35.7026 46.6864 35.6537L50.8298 33.948L44.1041 35.872C43.9811 35.9072 43.8494 35.8939 43.7359 35.8349C43.6224 35.7759 43.5359 35.6757 43.4941 35.5548C43.4523 35.434 43.4583 35.3017 43.511 35.1852C43.5637 35.0687 43.6591 34.9768 43.7775 34.9284L47.7818 33.292L41.2482 35.1611C41.1257 35.196 40.9945 35.1829 40.8813 35.1244C40.7681 35.0659 40.6816 34.9664 40.6393 34.8462C40.597 34.726 40.6022 34.5942 40.6538 34.4777C40.7054 34.3612 40.7996 34.2688 40.917 34.2194L45.4238 32.3264L38.1848 34.3858C38.0618 34.4197 37.9305 34.4053 37.8178 34.3456C37.7051 34.2859 37.6194 34.1853 37.5784 34.0645C37.5374 33.9438 37.5441 33.8119 37.5972 33.6958C37.6502 33.5798 37.7456 33.4885 37.8638 33.4405L40.9745 32.2154L35.6209 33.7438C35.4978 33.7774 35.3664 33.7627 35.2538 33.7026C35.1412 33.6425 35.0558 33.5416 35.0152 33.4205C34.9746 33.2995 34.9818 33.1675 35.0354 33.0517C35.089 32.9358 35.1848 32.8448 35.3033 32.7973L37.7724 31.8455L33.2297 33.1451C33.1069 33.1763 32.9769 33.1597 32.8658 33.0987C32.7548 33.0377 32.671 32.9368 32.6315 32.8164C32.592 32.696 32.5997 32.5651 32.653 32.4502C32.7063 32.3352 32.8012 32.2448 32.9187 32.1972L33.9348 31.8197L31.1257 32.6183C31.0039 32.6519 30.874 32.6382 30.7619 32.58C30.6498 32.5217 30.564 32.4232 30.5216 32.3042C30.4791 32.1852 30.4833 32.0546 30.5333 31.9386C30.5833 31.8226 30.6753 31.7298 30.7909 31.6788L35.6826 29.5698L27.8653 31.8019C27.7444 31.8363 27.6149 31.8239 27.5026 31.767C27.3904 31.7102 27.3038 31.6132 27.2599 31.4953C27.2161 31.3774 27.2183 31.2473 27.2661 31.1309C27.3139 31.0146 27.4038 30.9206 27.5179 30.8676L33.1105 28.2939L24.1171 30.8634C23.9955 30.8967 23.8659 30.8828 23.7542 30.8247C23.6424 30.7665 23.5567 30.6683 23.5143 30.5497C23.4718 30.4311 23.4757 30.3008 23.5251 30.1849C23.5746 30.069 23.666 29.9761 23.781 29.9247L28.7285 27.7822L20.8237 30.0388C20.7023 30.0725 20.5726 30.0592 20.4607 30.0014C20.3487 29.9437 20.2626 29.8457 20.2197 29.7273C20.1768 29.6088 20.1803 29.4785 20.2293 29.3624C20.2783 29.2464 20.3694 29.1531 20.4843 29.1013L25.7224 26.778L17.35 29.169C17.2283 29.2031 17.0983 29.1899 16.986 29.132C16.8737 29.0742 16.7875 28.976 16.7446 28.8571C16.7018 28.7383 16.7055 28.6077 16.7551 28.4915C16.8046 28.3753 16.8963 28.2821 17.0117 28.2308L22.1058 26.0013L13.9742 28.3238C13.8505 28.3578 13.7185 28.343 13.6054 28.2825C13.4923 28.2219 13.4068 28.1202 13.3666 27.9984C13.3264 27.8766 13.3346 27.744 13.3894 27.628C13.4442 27.5121 13.5415 27.4216 13.6612 27.3753L14.791 26.9552L11.8546 27.7931C11.7321 27.8248 11.6022 27.809 11.4909 27.7488C11.3797 27.6885 11.2954 27.5883 11.2551 27.4684C11.2148 27.3485 11.2214 27.2177 11.2737 27.1025C11.326 26.9873 11.4199 26.8962 11.5367 26.8475L14.1216 25.8453L10.2881 26.9431C10.1676 26.9757 10.0392 26.9619 9.92821 26.9046C9.81727 26.8472 9.7318 26.7504 9.68863 26.6332C9.64546 26.5161 9.64771 26.387 9.69493 26.2713C9.74216 26.1557 9.83095 26.062 9.94382 26.0085L14.7997 23.7957L10.6131 24.9906C10.4934 25.0233 10.3659 25.0104 10.2552 24.9543C10.1445 24.8982 10.0587 24.803 10.0143 24.6871C9.9699 24.5713 9.97018 24.4431 10.0151 24.3274C10.06 24.2117 10.1462 24.1169 10.2572 24.0613L12.8593 22.7923L11.0331 23.3134C10.9132 23.3476 10.7848 23.3359 10.6732 23.2804C10.5615 23.2249 10.4746 23.1298 10.4295 23.0135C10.3844 22.8973 10.3843 22.7684 10.4293 22.6522C10.4743 22.5359 10.5611 22.4406 10.6727 22.3851L11.1829 22.1303C11.0898 22.1274 10.9994 22.0984 10.9219 22.0469C10.8444 21.9953 10.7828 21.9231 10.7441 21.8384C10.7054 21.7537 10.6911 21.6598 10.7029 21.5675C10.7147 21.4751 10.752 21.3878 10.8107 21.3155L11.6342 20.3156C11.5217 20.2984 11.4184 20.2434 11.3414 20.1596C11.2645 20.0759 11.2183 19.9683 11.2107 19.8548C11.2031 19.7413 11.2344 19.6285 11.2995 19.5352C11.3646 19.4419 11.4596 19.3736 11.5688 19.3416L12.8578 18.9736C12.9601 18.9451 13.0688 18.9498 13.1682 18.9872C13.2676 19.0245 13.3525 19.0926 13.4106 19.1814C13.4688 19.2703 13.4971 19.3754 13.4915 19.4814C13.486 19.5875 13.4468 19.689 13.3797 19.7713L12.6051 20.7113L15.9661 19.7509C16.0855 19.7177 16.213 19.7302 16.3238 19.7857C16.4346 19.8413 16.5208 19.936 16.5657 20.0515C16.6106 20.167 16.611 20.2951 16.5668 20.4109C16.5227 20.5267 16.4371 20.6219 16.3266 20.6782L15.9293 20.8777L18.0493 20.2745C18.1689 20.2418 18.2965 20.2547 18.4072 20.3108C18.5178 20.3669 18.6037 20.4621 18.6481 20.578C18.6925 20.6938 18.6922 20.822 18.6473 20.9377C18.6024 21.0534 18.5161 21.1482 18.4052 21.2038L15.8011 22.4682L20.9551 21C21.0756 20.9675 21.204 20.9812 21.315 21.0386C21.4259 21.0959 21.5114 21.1927 21.5546 21.3099C21.5977 21.4271 21.5955 21.5562 21.5483 21.6718C21.501 21.7874 21.4122 21.8812 21.2994 21.9346L16.4452 24.1448L24.423 21.8684C24.5455 21.8366 24.6754 21.8524 24.7867 21.9127C24.8979 21.9729 24.9822 22.0731 25.0225 22.193C25.0628 22.3129 25.0562 22.4437 25.0039 22.5589C24.9517 22.6741 24.8577 22.7652 24.7409 22.8139L22.1512 23.8148L26.8481 22.4756C26.9714 22.443 27.1023 22.4588 27.2143 22.5196C27.3263 22.5804 27.4109 22.6817 27.4507 22.8027C27.4905 22.9238 27.4827 23.0554 27.4287 23.1709C27.3747 23.2863 27.2786 23.3768 27.1602 23.4238L26.0313 23.8441L28.9648 23.0056C29.0861 22.9726 29.2154 22.9866 29.3268 23.0446C29.4383 23.1027 29.5238 23.2006 29.5663 23.3189C29.6089 23.4372 29.6053 23.5671 29.5563 23.6829C29.5073 23.7987 29.4166 23.8917 29.3021 23.9436L24.208 26.173L32.335 23.8525C32.4568 23.8176 32.5872 23.8301 32.7001 23.8876C32.8129 23.9452 32.8997 24.0434 32.943 24.1625C32.9862 24.2815 32.9826 24.4126 32.933 24.5291C32.8833 24.6456 32.7913 24.739 32.6754 24.7903L27.4363 27.1133L35.8173 24.7213C35.9388 24.688 36.0684 24.7019 36.1801 24.76C36.2919 24.8182 36.3776 24.9164 36.4201 25.035C36.4625 25.1537 36.4586 25.2839 36.4092 25.3998C36.3597 25.5157 36.2684 25.6086 36.1533 25.6601L31.2048 27.8023L39.1096 25.5457C39.2303 25.5124 39.3591 25.5255 39.4705 25.5826C39.582 25.6396 39.6679 25.7364 39.7115 25.8538C39.755 25.9711 39.7529 26.1006 39.7057 26.2165C39.6584 26.3324 39.5693 26.4264 39.4561 26.4798L33.8638 29.0525L42.857 26.484C42.9791 26.449 43.1099 26.4619 43.2229 26.5199C43.3358 26.578 43.4225 26.6768 43.4652 26.7964C43.508 26.916 43.5036 27.0474 43.453 27.1639C43.4024 27.2804 43.3093 27.3733 43.1928 27.4237L38.2991 29.5322L46.1192 27.3008C46.2421 27.2696 46.3721 27.2862 46.4832 27.3472C46.5942 27.4082 46.678 27.5091 46.7175 27.6295C46.757 27.7499 46.7493 27.8808 46.696 27.9957C46.6427 28.1107 46.5477 28.2011 46.4303 28.2487L45.4152 28.6265L48.2184 27.8264C48.3416 27.7928 48.4729 27.8075 48.5856 27.8676C48.6982 27.9277 48.7835 28.0287 48.8241 28.1497C48.8648 28.2707 48.8575 28.4027 48.804 28.5185C48.7504 28.6344 48.6546 28.7254 48.5361 28.7729L46.0669 29.7247L50.6184 28.4273C50.7422 28.391 50.8752 28.4039 50.9897 28.4634C51.1042 28.5229 51.1912 28.6244 51.2326 28.7466C51.2741 28.8688 51.2666 29.0022 51.2119 29.1191C51.1572 29.2359 51.0595 29.3271 50.9391 29.3736L47.8277 30.5975L53.1783 29.0683C53.3005 29.0347 53.4308 29.0486 53.543 29.1074C53.6552 29.1662 53.741 29.2653 53.7829 29.3848C53.8248 29.5044 53.8198 29.6354 53.7689 29.7513C53.718 29.8673 53.6249 29.9597 53.5086 30.0097L49.0042 31.9013L56.2437 29.8358C56.3667 29.8007 56.4984 29.8139 56.6119 29.8729C56.7253 29.9319 56.8118 30.0322 56.8537 30.153C56.8955 30.2738 56.8894 30.4061 56.8367 30.5226C56.784 30.6391 56.6887 30.731 56.5703 30.7794L52.5659 32.4158L59.0995 30.5468C59.2222 30.5122 59.3534 30.5257 59.4664 30.5846C59.5794 30.6436 59.6657 30.7434 59.7075 30.8638C59.7494 30.9842 59.7437 31.116 59.6916 31.2323C59.6395 31.3486 59.545 31.4406 59.4274 31.4896L55.2888 33.1965L62.0146 31.2725C62.1369 31.2384 62.2677 31.2522 62.3803 31.3111C62.4929 31.3699 62.5789 31.4694 62.6207 31.5893C62.6626 31.7093 62.6573 31.8406 62.6058 31.9568C62.5543 32.0729 62.4606 32.1651 62.3436 32.2146L58.0505 33.9994L64.9761 32.0223C65.0995 31.99 65.2306 32.0061 65.3426 32.0672C65.4545 32.1284 65.5389 32.2301 65.5783 32.3514C65.6177 32.4727 65.6093 32.6045 65.5547 32.7198C65.5002 32.8352 65.4036 32.9253 65.2848 32.9717L65.0034 33.0744L66.9541 32.5175C67.0747 32.4842 67.2035 32.4974 67.315 32.5544C67.4264 32.6115 67.5124 32.7083 67.5559 32.8256C67.5995 32.943 67.5974 33.0724 67.5501 33.1884C67.5028 33.3043 67.4138 33.3982 67.3006 33.4517L61.6781 36.0416L67.4693 34.3877C67.5909 34.3548 67.7205 34.3691 67.832 34.4277C67.9436 34.4863 68.0289 34.5848 68.0709 34.7036C68.113 34.8224 68.1086 34.9526 68.0587 35.0683C68.0089 35.184 67.9171 35.2766 67.8019 35.3276L65.6341 36.2538L67.1074 35.8331C67.2257 35.7989 67.3525 35.8097 67.4634 35.8632C67.5743 35.9168 67.6615 36.0094 67.7084 36.1233C67.7552 36.2372 67.7584 36.3644 67.7172 36.4805C67.6761 36.5966 67.5935 36.6934 67.4854 36.7524L65.2463 37.9834L66.6707 37.5772C66.7839 37.5447 66.905 37.5532 67.0126 37.6013C67.1202 37.6493 67.2073 37.7338 67.2587 37.8399C67.3101 37.9459 67.3223 38.0667 67.2933 38.1809C67.2643 38.2951 67.1959 38.3954 67.1001 38.4641L66.283 39.0512L66.3029 39.0459C66.4283 39.0156 66.5605 39.035 66.6719 39.1C66.7833 39.1649 66.8653 39.2704 66.9008 39.3944C66.9363 39.5183 66.9225 39.6512 66.8623 39.7653C66.8022 39.8794 66.7002 39.9657 66.5778 40.0064L63.802 40.8C63.6887 40.8325 63.5676 40.824 63.46 40.7759C63.3524 40.7279 63.2653 40.6434 63.2139 40.5373C63.1626 40.4313 63.1503 40.3105 63.1793 40.1963C63.2084 40.0821 63.2768 39.9818 63.3725 39.9131L64.1884 39.3267L61.2643 40.1646C61.146 40.1987 61.0192 40.188 60.9083 40.1344C60.7974 40.0808 60.7102 39.9882 60.6633 39.8743C60.6165 39.7604 60.6133 39.6332 60.6545 39.5171C60.6956 39.401 60.7782 39.3042 60.8863 39.2452L63.1234 38.0137L58.2416 39.4077C58.12 39.4406 57.9904 39.4263 57.8789 39.3677C57.7673 39.3091 57.682 39.2106 57.64 39.0918C57.5979 38.973 57.6023 38.8428 57.6522 38.7271C57.702 38.6114 57.7938 38.5188 57.909 38.4678L60.0778 37.5418L55.735 38.7801C55.6143 38.8134 55.4855 38.8003 55.3741 38.7432C55.2627 38.6862 55.1767 38.5894 55.1332 38.472C55.0896 38.3546 55.0917 38.2252 55.139 38.1093C55.1863 37.9934 55.2753 37.8994 55.3885 37.846L61.011 35.256L51.9634 37.8358C51.8791 37.861 51.7896 37.8634 51.7039 37.8429Z" fill="#FFCE48"/>
<path d="M21.932 51.81C21.8434 51.7878 21.7626 51.7418 21.6983 51.677C21.634 51.6122 21.5886 51.531 21.5672 51.4423C21.5458 51.3535 21.549 51.2606 21.5767 51.1736C21.6043 51.0866 21.6552 51.0088 21.7239 50.9486L22.9423 49.8827L21.7633 50.2194C21.6524 50.2509 21.5341 50.2432 21.4283 50.1975C21.3225 50.1518 21.2357 50.071 21.1826 49.9687C21.1295 49.8665 21.1134 49.749 21.137 49.6362C21.1606 49.5234 21.2224 49.4222 21.312 49.3497L22.8127 48.1441L21.3171 48.5717C21.2084 48.6026 21.0924 48.5958 20.988 48.5523C20.8837 48.5089 20.7971 48.4314 20.7425 48.3324C20.6879 48.2335 20.6684 48.1189 20.6872 48.0075C20.706 47.896 20.7621 47.7942 20.8462 47.7187L22.5653 46.1802L20.8055 46.6828C20.6907 46.716 20.5678 46.707 20.459 46.6573C20.3503 46.6076 20.2629 46.5206 20.2128 46.4121C20.1627 46.3036 20.1531 46.1806 20.1858 46.0657C20.2185 45.9507 20.2914 45.8512 20.3911 45.7853L21.2029 45.2484L20.4728 45.4552C20.3567 45.4877 20.2329 45.4771 20.1241 45.4256C20.0152 45.374 19.9286 45.2848 19.8802 45.1745C19.8319 45.0642 19.8249 44.9401 19.8607 44.8251C19.8965 44.7101 19.9726 44.6119 20.0751 44.5485L20.4783 44.301L20.1828 44.3858C20.0674 44.4156 19.945 44.4031 19.838 44.3507C19.7309 44.2982 19.6461 44.2092 19.5988 44.0997C19.5516 43.9902 19.545 43.8674 19.5804 43.7535C19.6157 43.6396 19.6906 43.5421 19.7915 43.4786L20.1333 43.2704L19.9045 43.3358C19.7926 43.3674 19.6732 43.359 19.5668 43.312C19.4604 43.2651 19.3737 43.1825 19.3216 43.0785C19.2695 42.9745 19.2553 42.8557 19.2814 42.7423C19.3075 42.629 19.3723 42.5283 19.4646 42.4576L20.4467 41.7098L19.8449 41.8817C19.7809 41.903 19.7133 41.9111 19.6461 41.9056C19.5789 41.9 19.5135 41.8809 19.4538 41.8495C19.3942 41.818 19.3415 41.7748 19.299 41.7224C19.2565 41.6701 19.2251 41.6097 19.2065 41.5449C19.1879 41.48 19.1827 41.4121 19.1911 41.3452C19.1994 41.2783 19.2213 41.2138 19.2552 41.1555C19.2892 41.0972 19.3346 41.0464 19.3887 41.0062C19.4427 40.9659 19.5044 40.937 19.57 40.9212L22.7245 40.0194C22.8364 39.9878 22.9558 39.9962 23.0622 40.0431C23.1686 40.0901 23.2553 40.1727 23.3074 40.2766C23.3595 40.3806 23.3737 40.4995 23.3476 40.6128C23.3215 40.7261 23.2567 40.8268 23.1644 40.8975L22.1821 41.6464L23.4322 41.2893C23.5484 41.2569 23.6723 41.2675 23.7812 41.3192C23.8901 41.3709 23.9767 41.4602 24.025 41.5707C24.0732 41.6812 24.0799 41.8054 24.0439 41.9204C24.0078 42.0355 23.9314 42.1336 23.8287 42.1968L23.4847 42.4055L23.7321 42.3355C23.8481 42.3031 23.9719 42.3136 24.0808 42.3652C24.1897 42.4167 24.2762 42.5059 24.3246 42.6162C24.373 42.7265 24.3799 42.8506 24.3441 42.9656C24.3083 43.0806 24.2322 43.1788 24.1298 43.2422L23.7256 43.4895L24.0373 43.4015C24.152 43.369 24.2745 43.3785 24.3828 43.4283C24.4911 43.4782 24.578 43.5651 24.6279 43.6733C24.6778 43.7816 24.6873 43.9041 24.6549 44.0188C24.6224 44.1335 24.55 44.2328 24.4508 44.2988L23.6412 44.8353L24.3861 44.6228C24.4948 44.5919 24.6108 44.5987 24.7152 44.6421C24.8195 44.6856 24.9061 44.7631 24.9607 44.8621C25.0153 44.961 25.0348 45.0755 25.016 45.187C24.9972 45.2985 24.9412 45.4002 24.8571 45.4758L23.1379 47.0143L24.9253 46.5041C25.036 46.4731 25.154 46.4812 25.2595 46.527C25.3649 46.5728 25.4513 46.6536 25.5042 46.7556C25.5571 46.8577 25.5731 46.9749 25.5497 47.0874C25.5263 47.2 25.4648 47.301 25.3756 47.3735L23.8749 48.5791L24.8197 48.3095C24.9289 48.2782 25.0456 48.2851 25.1504 48.329C25.2553 48.3729 25.342 48.4512 25.3964 48.551C25.4508 48.6509 25.4695 48.7662 25.4495 48.8781C25.4295 48.99 25.372 49.0918 25.2865 49.1666L24.0625 50.2301L24.3543 50.1475C24.4797 50.1173 24.6119 50.1367 24.7233 50.2016C24.8347 50.2666 24.9167 50.372 24.9522 50.496C24.9877 50.62 24.9739 50.7529 24.9137 50.867C24.8535 50.981 24.7516 51.0674 24.6292 51.1081L22.1874 51.8028C22.1044 51.8278 22.0162 51.8302 21.932 51.81Z" fill="#CD4D61"/>
<path d="M54.8352 60.2793C54.7526 60.2586 54.6767 60.2173 54.6147 60.1591C54.5526 60.1009 54.5064 60.0278 54.4804 59.9468C54.4545 59.8658 54.4496 59.7795 54.4664 59.6961C54.4831 59.6127 54.5208 59.5349 54.5759 59.4701L55.2951 58.6193L53.9819 58.9936C53.8728 59.0244 53.7564 59.0172 53.6519 58.9731C53.5474 58.9291 53.461 58.8508 53.4068 58.7512C53.3526 58.6516 53.334 58.5365 53.3538 58.4248C53.3737 58.3132 53.4309 58.2116 53.5161 58.1368L55.2148 56.655L53.4829 57.1491C53.3652 57.1843 53.2387 57.1748 53.1275 57.1226C53.0163 57.0704 52.9282 56.9791 52.8801 56.8661C52.8319 56.7531 52.827 56.6263 52.8663 56.5099C52.9057 56.3936 52.9864 56.2957 53.0933 56.2351L53.2146 56.1624C53.0987 56.1962 52.9745 56.187 52.865 56.1364C52.7554 56.0858 52.6678 55.9973 52.6184 55.8872C52.569 55.7771 52.561 55.6528 52.596 55.5374C52.631 55.4219 52.7066 55.3229 52.8089 55.2588L53.4675 54.8392L52.9014 55.0005C52.7908 55.0318 52.6729 55.024 52.5674 54.9784C52.4619 54.9329 52.3753 54.8525 52.3222 54.7506C52.2691 54.6487 52.2526 54.5317 52.2757 54.4191C52.2987 54.3066 52.3598 54.2054 52.4487 54.1326L53.9351 52.9265L52.454 53.3494C52.345 53.3805 52.2287 53.3736 52.1241 53.3298C52.0195 53.2861 51.9329 53.2081 51.8785 53.1087C51.8241 53.0092 51.805 52.8943 51.8245 52.7826C51.844 52.6709 51.9009 52.5692 51.9858 52.4941L53.6384 51.0358L51.9577 51.515C51.8474 51.5465 51.7295 51.5391 51.624 51.494C51.5184 51.4489 51.4316 51.3689 51.3781 51.2674C51.3245 51.1658 51.3076 51.049 51.33 50.9364C51.3525 50.8238 51.413 50.7224 51.5014 50.6492L52.7168 49.6402L51.8519 49.8875C51.7879 49.9088 51.7202 49.9169 51.653 49.9113C51.5858 49.9058 51.5204 49.8867 51.4608 49.8552C51.4012 49.8238 51.3485 49.7806 51.306 49.7282C51.2635 49.6759 51.232 49.6155 51.2134 49.5506C51.1949 49.4858 51.1896 49.4179 51.198 49.351C51.2064 49.2841 51.2282 49.2195 51.2622 49.1613C51.2961 49.103 51.3415 49.0522 51.3956 49.0119C51.4497 48.9717 51.5114 48.9428 51.5769 48.927L54.7314 48.0252C54.8418 47.9936 54.9597 48.001 55.0652 48.0461C55.1708 48.0912 55.2576 48.1712 55.3111 48.2728C55.3647 48.3743 55.3816 48.4912 55.3592 48.6037C55.3367 48.7163 55.2762 48.8177 55.1878 48.8909L53.9711 49.9007L55.4888 49.4673C55.5979 49.4363 55.7142 49.4432 55.8188 49.4869C55.9233 49.5307 56.0099 49.6087 56.0644 49.7081C56.1188 49.8075 56.1378 49.9225 56.1183 50.0341C56.0989 50.1458 56.042 50.2475 55.9571 50.3227L54.3044 51.7809L56.012 51.2931C56.1227 51.2619 56.2406 51.2699 56.3461 51.3156C56.4516 51.3612 56.5381 51.4418 56.5911 51.5438C56.6441 51.6458 56.6603 51.7629 56.6371 51.8754C56.6139 51.988 56.5526 52.0891 56.4636 52.1617L54.9783 53.3671L56.4815 52.9384C56.5969 52.9053 56.7205 52.9148 56.8294 52.9653C56.9384 53.0158 57.0256 53.1038 57.075 53.2133C57.1244 53.3227 57.1328 53.4463 57.0986 53.5615C57.0643 53.6766 56.9898 53.7756 56.8886 53.8402L56.2307 54.2611L56.8129 54.0976C56.9302 54.0633 57.056 54.0733 57.1666 54.1256C57.2771 54.1778 57.3646 54.2688 57.4126 54.3812C57.4606 54.4936 57.4658 54.6197 57.4271 54.7357C57.3884 54.8517 57.3086 54.9495 57.2028 55.0106L57.0815 55.0833L57.0936 55.0802C57.2029 55.049 57.3196 55.056 57.4244 55.1001C57.5292 55.1441 57.6159 55.2226 57.6701 55.3225C57.7244 55.4224 57.7429 55.5378 57.7228 55.6497C57.7026 55.7616 57.6449 55.8632 57.5592 55.9379L55.8604 57.4197L56.6044 57.207C56.7078 57.1768 56.8182 57.1807 56.9193 57.2183C57.0203 57.2559 57.1064 57.3252 57.1649 57.4157C57.2233 57.5063 57.2509 57.6133 57.2436 57.7208C57.2363 57.8283 57.1945 57.9306 57.1243 58.0124L56.3449 58.9306C56.4553 58.9516 56.5554 59.0091 56.6292 59.0938C56.7029 59.1786 56.7459 59.2858 56.7512 59.398C56.7566 59.5102 56.724 59.621 56.6587 59.7124C56.5935 59.8039 56.4993 59.8706 56.3914 59.902L55.0952 60.2743C55.0104 60.2989 54.9207 60.3006 54.8352 60.2793Z" fill="#CD4D61"/>
<path d="M27.5229 27.6648C27.418 27.6386 27.3245 27.5791 27.2563 27.4952C27.188 27.4114 27.1488 27.3077 27.1445 27.1996C27.1402 27.0916 27.171 26.9851 27.2324 26.8961C27.2937 26.807 27.3823 26.7403 27.4847 26.7058L37.719 23.2563L25.0142 26.8851C24.8897 26.9179 24.7573 26.9014 24.6447 26.839C24.5321 26.7767 24.4478 26.6733 24.4095 26.5504C24.3712 26.4275 24.3818 26.2945 24.4391 26.1792C24.4963 26.0639 24.5959 25.9751 24.7169 25.9314L35.3401 22.3658L24.071 25.5841C23.9473 25.6146 23.8167 25.5967 23.7058 25.5342C23.5948 25.4717 23.5119 25.3692 23.474 25.2476C23.436 25.1261 23.4459 24.9946 23.5015 24.8801C23.5572 24.7655 23.6544 24.6765 23.7735 24.6313L33.7706 21.2399L24.2746 23.9516C24.1513 23.9832 24.0206 23.9665 23.9091 23.905C23.7977 23.8435 23.7139 23.7419 23.6748 23.6207C23.6358 23.4996 23.6443 23.3682 23.6988 23.2531C23.7533 23.1381 23.8496 23.0482 23.9681 23.0017L35.622 18.8067L24.7875 21.9029C24.6627 21.9376 24.5292 21.9226 24.4153 21.8609C24.3014 21.7992 24.2158 21.6956 24.1767 21.5721C24.1376 21.4486 24.148 21.3147 24.2057 21.1986C24.2633 21.0826 24.3638 20.9935 24.4859 20.9501L30.7119 18.7741L25.1752 20.3547C25.0512 20.3875 24.9193 20.3715 24.8068 20.3099C24.6944 20.2482 24.6099 20.1457 24.5708 20.0236C24.5318 19.9014 24.5412 19.7689 24.5971 19.6534C24.653 19.538 24.7511 19.4485 24.8711 19.4033L29.0811 17.9174L25.5291 18.9289C25.4068 18.9622 25.2765 18.9477 25.1644 18.8886C25.0524 18.8294 24.967 18.7299 24.9255 18.6102C24.884 18.4905 24.8895 18.3595 24.9408 18.2437C24.9922 18.1279 25.0856 18.0359 25.2022 17.9863L32.4214 15.0385L26.0501 16.8605C25.9275 16.8942 25.7968 16.88 25.6843 16.8208C25.5719 16.7615 25.4863 16.6617 25.4448 16.5416C25.4033 16.4215 25.4092 16.2901 25.4611 16.1741C25.5131 16.0581 25.6072 15.9662 25.7244 15.9172L29.5117 14.378L26.453 15.2512C26.3333 15.2853 26.2052 15.2735 26.0938 15.2181C25.9823 15.1628 25.8955 15.0678 25.8503 14.9519C25.8051 14.8359 25.8048 14.7073 25.8494 14.5911C25.894 14.4749 25.9803 14.3795 26.0915 14.3236L29.8658 12.4245L26.9524 13.2568C26.8334 13.2908 26.706 13.2794 26.5949 13.225C26.4838 13.1705 26.3968 13.0768 26.3508 12.9619C26.3048 12.847 26.3031 12.7191 26.3459 12.603C26.3887 12.4869 26.4731 12.3908 26.5826 12.3333L27.8423 11.6704L27.3119 11.8211C27.202 11.8521 27.0849 11.8445 26.98 11.7997C26.875 11.7549 26.7885 11.6756 26.7349 11.5749C26.6812 11.4742 26.6637 11.3581 26.6851 11.246C26.7065 11.134 26.7656 11.0326 26.8526 10.9587L27.7383 10.2125C27.6336 10.1833 27.5412 10.1207 27.4752 10.0342C27.4093 9.94768 27.3733 9.84204 27.3728 9.73326C27.3723 9.62449 27.4073 9.51851 27.4724 9.43141C27.5376 9.34431 27.6294 9.28084 27.7338 9.25061L29.5734 8.72571C29.6836 8.69459 29.8011 8.70222 29.9063 8.74733C30.0116 8.79244 30.0981 8.87229 30.1515 8.97355C30.2053 9.0746 30.2228 9.19104 30.201 9.30342C30.1792 9.4158 30.1196 9.51731 30.032 9.591L29.2835 10.2211L32.2081 9.38539C32.3249 9.35654 32.4482 9.37078 32.5554 9.4255C32.6625 9.48022 32.7464 9.57175 32.7915 9.68329C32.8366 9.79484 32.84 9.91891 32.801 10.0327C32.7621 10.1466 32.6833 10.2426 32.5793 10.303L31.3191 10.9679L34.6934 10.0077C34.8126 9.97472 34.9399 9.98716 35.0505 10.0426C35.1611 10.098 35.2473 10.1925 35.2923 10.3078C35.3373 10.423 35.3379 10.5509 35.2941 10.6666C35.2503 10.7823 35.1652 10.8777 35.0551 10.9343L31.2811 12.8325L38.1487 10.8728C38.2709 10.8404 38.4008 10.8554 38.5123 10.9149C38.6238 10.9743 38.7087 11.0738 38.7498 11.1933C38.791 11.3128 38.7853 11.4435 38.734 11.559C38.6827 11.6745 38.5896 11.7663 38.4734 11.8159L34.6863 13.3542L40.9357 11.5707C41.0582 11.5369 41.189 11.5512 41.3014 11.6104C41.4138 11.6696 41.4995 11.7695 41.5409 11.8896C41.5824 12.0097 41.5766 12.1411 41.5246 12.2571C41.4727 12.3731 41.3785 12.4649 41.2613 12.514L34.0412 15.4616L44.521 12.4684C44.645 12.4355 44.7768 12.4516 44.8893 12.5132C45.0018 12.5748 45.0863 12.6773 45.1254 12.7995C45.1644 12.9216 45.155 13.0542 45.0991 13.1696C45.0432 13.285 44.9451 13.3746 44.825 13.4197L40.6107 14.9066L46.9898 13.0865C47.1136 13.0545 47.2451 13.0712 47.357 13.1331C47.4689 13.195 47.5529 13.2975 47.5915 13.4195C47.6302 13.5414 47.6207 13.6735 47.5649 13.7886C47.5091 13.9038 47.4113 13.9931 47.2916 14.0383L41.0684 16.2119L49.67 13.7576C49.7938 13.7246 49.9255 13.7404 50.0379 13.8016C50.1504 13.8629 50.2351 13.965 50.2745 14.0868C50.314 14.2087 50.3051 14.341 50.2499 14.4565C50.1946 14.5721 50.0971 14.662 49.9775 14.7077L38.3216 18.9023L53.2214 14.6468C53.345 14.6163 53.4757 14.6342 53.5866 14.6967C53.6976 14.7592 53.7805 14.8617 53.8184 14.9833C53.8564 15.1048 53.8465 15.2363 53.7909 15.3508C53.7352 15.4654 53.6379 15.5543 53.5189 15.5996L43.5286 18.9886L56.1558 15.3816C56.2803 15.3488 56.4127 15.3653 56.5253 15.4276C56.6379 15.49 56.7222 15.5934 56.7605 15.7163C56.7988 15.8392 56.7882 15.9722 56.731 16.0875C56.6737 16.2028 56.5742 16.2916 56.4531 16.3353L45.8311 19.9001L57.9745 16.4307C58.0985 16.3996 58.2297 16.4171 58.3411 16.4797C58.4526 16.5423 58.5359 16.6452 58.5738 16.7673C58.6117 16.8894 58.6015 17.0213 58.5451 17.1361C58.4887 17.2508 58.3905 17.3396 58.2707 17.3842L48.0352 20.8345L58.192 17.9335C58.3163 17.8998 58.4489 17.9155 58.5621 17.9771C58.6752 18.0388 58.7601 18.1418 58.7992 18.2646C58.8383 18.3874 58.8284 18.5205 58.7717 18.6362C58.715 18.7519 58.6158 18.8413 58.4948 18.8856L46.7596 23.0222L57.7003 19.8969C57.825 19.8632 57.9579 19.879 58.0711 19.9411C58.1844 20.0031 58.2692 20.1066 58.3079 20.2297C58.3466 20.3529 58.3362 20.4863 58.2787 20.602C58.2213 20.7176 58.1213 20.8066 57.9998 20.8502L51.7658 22.9922L57.3178 21.4042C57.4432 21.3679 57.5778 21.3821 57.6929 21.4438C57.8079 21.5055 57.8943 21.6097 57.9335 21.7342C57.9728 21.8588 57.9617 21.9937 57.9028 22.1102C57.8439 22.2267 57.7417 22.3155 57.6182 22.3577L53.6246 23.7411L56.9809 22.7826C57.1056 22.7489 57.2384 22.7647 57.3517 22.8267C57.4649 22.8888 57.5498 22.9922 57.5885 23.1154C57.6272 23.2386 57.6167 23.372 57.5593 23.4877C57.5018 23.6033 57.4019 23.6923 57.2803 23.7359L56.1526 24.1226L56.6819 23.9726C56.8049 23.9398 56.9358 23.9552 57.0479 24.0157C57.16 24.0761 57.2448 24.177 57.285 24.2978C57.3252 24.4185 57.3179 24.5501 57.2644 24.6657C57.211 24.7812 57.1155 24.872 56.9974 24.9196L51.9747 26.835L56.2726 25.6072C56.3958 25.5735 56.5271 25.5883 56.6398 25.6484C56.7524 25.7085 56.8377 25.8094 56.8784 25.9304C56.919 26.0515 56.9117 26.1834 56.8582 26.2993C56.8046 26.4152 56.7088 26.5062 56.5903 26.5536L53.8002 27.6343L55.9163 27.0302C56.0393 26.9963 56.1706 27.0107 56.2833 27.0704C56.396 27.1301 56.4817 27.2307 56.5227 27.3515C56.5637 27.4722 56.557 27.6041 56.504 27.7202C56.4509 27.8362 56.3555 27.9275 56.2373 27.9755L55.1501 28.4063L55.6042 28.2767C55.7219 28.2451 55.8471 28.2574 55.9562 28.3115C56.0654 28.3656 56.1511 28.4577 56.1972 28.5705C56.2432 28.6833 56.2465 28.8091 56.2064 28.9241C56.1663 29.0392 56.0855 29.1356 55.9793 29.1954L53.119 30.7378L55.1294 30.165C55.2375 30.1342 55.3528 30.1407 55.4568 30.1836C55.5607 30.2264 55.6472 30.303 55.7022 30.401C55.7573 30.499 55.7777 30.6127 55.7602 30.7238C55.7426 30.8348 55.6882 30.9367 55.6057 31.013L54.2096 32.2985L54.4313 32.2364C54.4953 32.2152 54.563 32.2071 54.6302 32.2126C54.6974 32.2182 54.7628 32.2372 54.8224 32.2687C54.882 32.3002 54.9347 32.3434 54.9772 32.3957C55.0197 32.4481 55.0512 32.5085 55.0697 32.5733C55.0883 32.6382 55.0936 32.7061 55.0852 32.773C55.0768 32.8399 55.055 32.9044 55.021 32.9627C54.9871 33.021 54.9417 33.0717 54.8876 33.112C54.8335 33.1523 54.7718 33.1812 54.7063 33.197L52.4587 33.8362C52.3505 33.8685 52.2346 33.8627 52.1301 33.8198C52.0257 33.777 51.9391 33.6997 51.8847 33.6008C51.8296 33.5025 51.8093 33.3886 51.8271 33.2775C51.8448 33.1663 51.8995 33.0643 51.9824 32.9881L53.3826 31.7068L48.9694 32.9625C48.8518 32.9942 48.7266 32.9819 48.6174 32.9278C48.5082 32.8737 48.4225 32.7816 48.3765 32.6688C48.3304 32.556 48.3271 32.4302 48.3672 32.3152C48.4073 32.2001 48.4881 32.1037 48.5943 32.0439L51.4551 30.4995L45.6964 32.143C45.5735 32.177 45.4422 32.1626 45.3295 32.1029C45.2167 32.0431 45.1311 31.9426 45.0901 31.8218C45.0491 31.701 45.0558 31.5691 45.1088 31.4531C45.1619 31.3371 45.2572 31.2458 45.3754 31.1978L46.4614 30.7677L43.5371 31.6024C43.4146 31.6341 43.2847 31.6183 43.1734 31.5581C43.0622 31.4978 42.9779 31.3976 42.9376 31.2777C42.8973 31.1578 42.9039 31.0271 42.9562 30.9118C43.0085 30.7966 43.1025 30.7055 43.2192 30.6569L46.0095 29.5752L41.0722 30.9852C40.9492 31.018 40.8183 31.0026 40.7062 30.9422C40.5941 30.8817 40.5094 30.7809 40.4691 30.6601C40.4289 30.5393 40.4362 30.4077 40.4897 30.2921C40.5431 30.1766 40.6387 30.0858 40.7568 30.0382L45.7772 28.1233L38.2406 30.2762C38.1169 30.3074 37.9859 30.2902 37.8744 30.2279C37.763 30.1657 37.6796 30.0632 37.6413 29.9415C37.603 29.8198 37.6127 29.688 37.6684 29.5732C37.7241 29.4583 37.8216 29.3692 37.9409 29.3239L39.0684 28.9382L36.1819 29.7618C36.0577 29.7946 35.9256 29.7783 35.8131 29.7163C35.7005 29.6543 35.6162 29.5513 35.5775 29.4288C35.5388 29.3063 35.5488 29.1736 35.6054 29.0582C35.6619 28.9429 35.7607 28.8537 35.8813 28.8092L39.8919 27.4239L33.7949 29.1631C33.6711 29.1943 33.5401 29.177 33.4287 29.1148C33.3173 29.0526 33.2338 28.9501 33.1955 28.8283C33.1572 28.7066 33.1669 28.5748 33.2226 28.46C33.2783 28.3452 33.3758 28.256 33.4952 28.2107L39.7257 26.07L31.1835 28.5092C31.0595 28.5421 30.9276 28.526 30.8151 28.4644C30.7026 28.4028 30.6181 28.3003 30.5791 28.1781C30.5401 28.0559 30.5495 27.9234 30.6054 27.808C30.6612 27.6925 30.7594 27.603 30.8794 27.5579L42.6121 23.4228L27.7825 27.6576C27.6981 27.6828 27.6086 27.6853 27.5229 27.6648Z" fill="#ECD9A4"/>
<path d="M44.4598 10.547C44.3531 10.5202 44.2581 10.459 44.1897 10.3728C44.1213 10.2866 44.0832 10.1802 44.0814 10.0702C44.0796 9.96014 44.1141 9.85257 44.1797 9.76416C44.2452 9.67575 44.3381 9.61144 44.4439 9.5812L46.7475 8.92404C46.8729 8.89381 47.0051 8.91318 47.1165 8.97812C47.228 9.04306 47.31 9.14854 47.3455 9.27252C47.3809 9.3965 47.3672 9.5294 47.307 9.64346C47.2468 9.75751 47.1449 9.8439 47.0225 9.88458L44.7181 10.5447C44.6337 10.568 44.5447 10.5688 44.4598 10.547Z" fill="#D3E5F4"/>
<path d="M32.8879 24.8847C32.7832 24.8585 32.6898 24.799 32.6217 24.7153C32.5536 24.6316 32.5144 24.5282 32.51 24.4203C32.5056 24.3125 32.5361 24.2062 32.5971 24.1172C32.6581 24.0281 32.7463 23.9613 32.8484 23.9265L35.6833 22.9591L30.9099 24.3194C30.785 24.3532 30.6518 24.3373 30.5383 24.2749C30.4249 24.2125 30.3401 24.1085 30.3017 23.9849C30.2634 23.8612 30.2745 23.7275 30.3327 23.6119C30.3909 23.4963 30.4917 23.4077 30.6139 23.3649L33.0881 22.5412L28.9806 23.7126C28.8561 23.7454 28.7237 23.7289 28.6111 23.6665C28.4984 23.6042 28.4142 23.5008 28.3759 23.3779C28.3376 23.2549 28.3482 23.122 28.4054 23.0067C28.4627 22.8914 28.5622 22.8026 28.6833 22.7588L35.308 20.5178L28.7875 22.3798C28.6635 22.4127 28.5316 22.3966 28.4192 22.335C28.3067 22.2734 28.2222 22.1709 28.1831 22.0487C28.1441 21.9265 28.1535 21.794 28.2094 21.6786C28.2653 21.5631 28.3634 21.4736 28.4835 21.4285L40.0367 17.3556L29.2806 20.4271C29.157 20.4584 29.0262 20.4415 28.9148 20.3796C28.8034 20.3178 28.7198 20.2157 28.6811 20.0943C28.6424 19.9728 28.6515 19.8412 28.7066 19.7263C28.7617 19.6114 28.8586 19.5219 28.9775 19.476L38.1657 16.2439L29.7231 18.6596C29.5984 18.6934 29.4656 18.6775 29.3523 18.6155C29.2391 18.5535 29.1542 18.45 29.1155 18.3268C29.0768 18.2036 29.0873 18.0702 29.1447 17.9546C29.2022 17.8389 29.3021 17.75 29.4237 17.7064L33.3064 16.3704L30.0631 17.3016C29.9377 17.3378 29.8031 17.3236 29.6881 17.2619C29.573 17.2002 29.4866 17.096 29.4474 16.9715C29.4082 16.847 29.4192 16.712 29.4781 16.5956C29.537 16.4791 29.6392 16.3902 29.7627 16.3481L32.2301 15.4938L30.3837 16.0211C30.2599 16.055 30.1277 16.0399 30.0146 15.9789C29.9016 15.918 29.8163 15.8159 29.7765 15.6938C29.7367 15.5717 29.7454 15.4389 29.8008 15.3231C29.8562 15.2072 29.9541 15.1171 30.0741 15.0715L30.7839 14.81L30.6796 14.8396C30.5565 14.8744 30.4247 14.8607 30.3114 14.8013C30.1981 14.7419 30.1118 14.6413 30.0704 14.5203C30.029 14.3992 30.0356 14.2669 30.0888 14.1505C30.142 14.0342 30.2377 13.9427 30.3564 13.8948L33.8266 12.5102L31.0663 13.2952C30.9453 13.3283 30.8163 13.3148 30.7049 13.2572C30.5934 13.1996 30.5077 13.1023 30.4647 12.9845C30.4216 12.8667 30.4245 12.737 30.4726 12.6212C30.5207 12.5054 30.6106 12.4118 30.7244 12.3592L34.9964 10.4445L31.5375 11.434C31.4151 11.468 31.2843 11.4543 31.1717 11.3954C31.0591 11.3366 30.9732 11.2371 30.9313 11.1171C30.8894 10.9972 30.8947 10.8658 30.9462 10.7497C30.9977 10.6335 31.0914 10.5413 31.2084 10.4918L31.6375 10.3137C31.5315 10.3036 31.4315 10.2599 31.352 10.1889C31.2725 10.1179 31.2178 10.0235 31.1958 9.91923C31.1738 9.81499 31.1857 9.70646 31.2297 9.60944C31.2737 9.51242 31.3475 9.43199 31.4405 9.37988L32.9396 8.53883L32.2103 8.7469C32.1074 8.77629 31.9978 8.77192 31.8976 8.73443C31.7975 8.69694 31.7119 8.6283 31.6536 8.53861C31.5954 8.44892 31.5674 8.34289 31.5738 8.23611C31.5802 8.12934 31.6207 8.02743 31.6893 7.94537L32.4874 6.98134C32.3942 6.96462 32.3074 6.92253 32.2366 6.85969C32.1657 6.79685 32.1136 6.7157 32.0859 6.62516C32.0679 6.56197 32.0625 6.49587 32.0701 6.43062C32.0777 6.36537 32.0981 6.30225 32.1301 6.24487C32.162 6.18749 32.205 6.13698 32.2565 6.09621C32.308 6.05545 32.3671 6.02524 32.4303 6.0073L33.7248 5.64178C33.8277 5.61239 33.9372 5.61677 34.0374 5.65426C34.1376 5.69175 34.2231 5.76038 34.2814 5.85008C34.3397 5.93977 34.3677 6.04579 34.3613 6.15257C34.3549 6.25935 34.3144 6.36125 34.2457 6.44331L33.4933 7.3363L36.7679 6.40372C36.8867 6.36775 37.0147 6.37728 37.1269 6.43046C37.2391 6.48363 37.3274 6.57664 37.3748 6.69139C37.4222 6.80614 37.4253 6.93442 37.3833 7.05127C37.3413 7.16812 37.2574 7.26518 37.1478 7.32356L35.6513 8.15806L39.4481 7.07482C39.5705 7.04074 39.7013 7.05452 39.8139 7.11337C39.9265 7.17221 40.0124 7.27171 40.0543 7.39164C40.0962 7.51158 40.0909 7.64296 40.0394 7.7591C39.9879 7.87524 39.8941 7.96744 39.7772 8.01695L39.6289 8.07777L41.3987 7.57249C41.5205 7.53662 41.6515 7.5485 41.765 7.60571C41.8784 7.66292 41.9658 7.76117 42.0094 7.8805C42.053 7.99982 42.0496 8.13128 41.9998 8.24816C41.95 8.36504 41.8575 8.45858 41.7413 8.50977L37.4753 10.425L43.0375 8.83742C43.1599 8.80454 43.2902 8.81938 43.4021 8.87893C43.514 8.93849 43.5991 9.03831 43.6402 9.15821C43.6813 9.27812 43.6753 9.40915 43.6235 9.52481C43.5716 9.64048 43.4778 9.73213 43.3609 9.78125L39.8854 11.1666L43.476 10.1451C43.5991 10.1134 43.7297 10.1297 43.8412 10.1908C43.9526 10.2519 44.0367 10.3532 44.0761 10.474C44.1156 10.5949 44.1076 10.7262 44.0536 10.8413C43.9997 10.9564 43.904 11.0467 43.7859 11.0938L43.0785 11.3537L49.364 9.55763C49.4889 9.52286 49.6223 9.53792 49.7363 9.59963C49.8502 9.66133 49.9357 9.76486 49.9748 9.8884C50.014 10.0119 50.0036 10.1458 49.9459 10.2619C49.8882 10.3779 49.7877 10.467 49.6656 10.5104L47.1832 11.3671L51.5835 10.1134C51.7089 10.0771 51.8435 10.0913 51.9586 10.153C52.0737 10.2147 52.16 10.3189 52.1992 10.4434C52.2385 10.568 52.2274 10.7029 52.1685 10.8194C52.1096 10.9359 52.0075 11.0247 51.8839 11.0669L48.0079 12.3921L53.934 10.7019C54.0575 10.6705 54.1883 10.6875 54.2997 10.7493C54.4111 10.8112 54.4947 10.9133 54.5334 11.0347C54.5721 11.1561 54.563 11.2877 54.5079 11.4026C54.4528 11.5175 54.3559 11.6071 54.237 11.653L45.0537 14.8821L55.5571 11.8814C55.6816 11.8467 55.8147 11.8616 55.9286 11.9229C56.0424 11.9843 56.128 12.0873 56.1674 12.2105C56.2069 12.3336 56.1971 12.4672 56.1402 12.5833C56.0833 12.6993 55.9836 12.7889 55.8621 12.833L44.3127 16.9068L55.0967 13.8269C55.2212 13.7941 55.3536 13.8106 55.4662 13.873C55.5789 13.9353 55.6631 14.0387 55.7014 14.1616C55.7397 14.2845 55.7291 14.4175 55.6719 14.5328C55.6146 14.6481 55.5151 14.7369 55.394 14.7806L48.7557 17.0265L54.7217 15.3246C54.8461 15.2927 54.978 15.3099 55.0901 15.3725C55.2021 15.4352 55.2858 15.5386 55.3237 15.6612C55.3617 15.7839 55.351 15.9165 55.2938 16.0315C55.2367 16.1464 55.1375 16.235 55.0168 16.2789L52.5426 17.1026L54.4067 16.5704C54.5308 16.5385 54.6624 16.5554 54.7744 16.6177C54.8864 16.68 54.9702 16.7829 55.0085 16.9052C55.0468 17.0275 55.0367 17.1598 54.9802 17.2749C54.9238 17.3899 54.8253 17.4789 54.7052 17.5235L51.871 18.4921L54.0909 17.8604C54.2143 17.827 54.3457 17.8421 54.4582 17.9026C54.5708 17.9631 54.6559 18.0644 54.6961 18.1857C54.7363 18.3069 54.7286 18.439 54.6745 18.5548C54.6204 18.6705 54.524 18.7611 54.4052 18.8081L47.5048 21.4213L53.6343 19.6676C53.7594 19.6316 53.8935 19.6458 54.0083 19.7072C54.123 19.7685 54.2093 19.8722 54.2489 19.9961C54.2884 20.1201 54.2781 20.2546 54.2201 20.3711C54.162 20.4875 54.0609 20.5768 53.9381 20.6199L53.4239 20.8004C53.5444 20.7847 53.6665 20.8135 53.7673 20.8813C53.8682 20.9491 53.9409 21.0513 53.9719 21.1689C54.0028 21.2864 53.9899 21.4112 53.9355 21.5199C53.8812 21.6286 53.7891 21.7137 53.6765 21.7595L49.2345 23.612L52.9095 22.5622C53.0303 22.5281 53.1595 22.5407 53.2715 22.5974C53.3834 22.6541 53.4699 22.7509 53.5138 22.8685C53.5577 22.986 53.5558 23.1158 53.5085 23.2321C53.4611 23.3483 53.3718 23.4425 53.2582 23.4959L50.0746 24.9832L52.475 24.2976C52.592 24.2681 52.7158 24.2819 52.8234 24.3365C52.9311 24.3911 53.0153 24.4827 53.0607 24.5946C53.106 24.7064 53.1094 24.8309 53.0702 24.945C53.0309 25.0591 52.9517 25.1552 52.8472 25.2155L51.2738 26.0483L52.0951 25.8148C52.2001 25.7848 52.3121 25.79 52.4139 25.8297C52.5156 25.8693 52.6016 25.9412 52.6587 26.0343C52.716 26.1276 52.741 26.2372 52.7299 26.3462C52.7188 26.4552 52.6722 26.5575 52.5974 26.6374L51.6145 27.681C51.6785 27.6597 51.7461 27.6516 51.8133 27.6571C51.8805 27.6627 51.9459 27.6817 52.0055 27.7132C52.0652 27.7447 52.1178 27.7879 52.1604 27.8403C52.2029 27.8926 52.2343 27.953 52.2529 28.0178C52.2714 28.0827 52.2767 28.1506 52.2683 28.2175C52.26 28.2844 52.2381 28.3489 52.2042 28.4072C52.1702 28.4655 52.1248 28.5163 52.0707 28.5565C52.0166 28.5968 51.955 28.6257 51.8894 28.6415L50.1517 29.1342C50.0467 29.1642 49.9347 29.1589 49.833 29.1193C49.7312 29.0797 49.6452 29.0078 49.5881 28.9147C49.5309 28.8213 49.5059 28.7118 49.517 28.6028C49.528 28.4938 49.5746 28.3915 49.6495 28.3116L50.6321 27.269L46.927 28.3278C46.81 28.3573 46.6862 28.3435 46.5786 28.2889C46.4709 28.2344 46.3867 28.1427 46.3413 28.0309C46.296 27.919 46.2926 27.7946 46.3318 27.6804C46.3711 27.5663 46.4503 27.4702 46.5548 27.4099L48.1272 26.581L44.2972 27.6734C44.1769 27.7063 44.0487 27.6929 43.9377 27.6361C43.8267 27.5793 43.741 27.483 43.6973 27.3663C43.6536 27.2495 43.6551 27.1206 43.7015 27.0049C43.748 26.8892 43.836 26.795 43.9483 26.7408L47.1316 25.2545L41.2949 26.9176C41.1721 26.9531 41.0403 26.9403 40.9267 26.8817C40.8131 26.8231 40.7262 26.7232 40.684 26.6025C40.6417 26.4819 40.6473 26.3496 40.6996 26.233C40.7518 26.1163 40.8467 26.024 40.9649 25.9752L45.4044 24.1241L38.277 26.162C38.1525 26.1967 38.0193 26.1818 37.9055 26.1204C37.7917 26.0591 37.7061 25.9561 37.6666 25.8329C37.6272 25.7098 37.6369 25.5762 37.6939 25.4601C37.7508 25.344 37.8505 25.2545 37.972 25.2104L38.3883 25.0631L36.2816 25.6623C36.159 25.6938 36.029 25.6776 35.9178 25.617C35.8067 25.5563 35.7227 25.4558 35.6828 25.3356C35.6429 25.2155 35.65 25.0847 35.7028 24.9696C35.7556 24.8545 35.8501 24.7638 35.9672 24.7156L42.8731 22.1007L33.1474 24.8776C33.063 24.9028 32.9735 24.9052 32.8879 24.8847Z" fill="white"/>
<path d="M27.461 35.9035C13.6822 32.9482 13.4556 27.7392 10.3357 43.4107C10.0491 44.5554 8.75956 47.2643 9.42099 48.501C12.6487 50.9297 17.9286 50.5683 21.7041 52.0569C21.7428 52.106 21.7966 52.1408 21.8572 52.156C21.9177 52.1711 21.9816 52.1658 22.0388 52.1407C24.3654 53.0552 25.2172 50.847 25.4869 48.8971C25.6718 45.3673 29.6977 38.5273 27.461 35.9035ZM10.3835 47.4606C10.7203 45.1564 11.7102 42.7302 12.152 40.3977C12.4638 39.1521 12.8533 34.5128 13.9906 33.8203C15.1279 33.1278 19.543 35.0219 20.7876 35.3335C30.5083 36.3809 26.3548 38.6459 25.2982 45.6613C24.5877 43.1052 24.1643 38.3036 20.3458 40.2886C20.159 39.1285 18.9571 38.91 17.908 38.7071C13.6689 38.0941 14.4632 46.1781 13.0028 48.9968C11.7381 48.6791 10.6197 48.2135 10.3835 47.4606ZM16.8518 49.7183C15.9803 49.3801 15.063 49.1744 14.1306 49.1081C15.1306 46.2422 15.362 42.8436 16.4312 40.0022C22.0052 37.7249 16.9575 47.316 16.9401 49.7404L16.8518 49.7183ZM19.4861 44.2741C20.2381 46.4912 20.7022 48.6145 21.3364 50.8412L18.0479 50.0178L19.4861 44.2741ZM23.3008 51.333L22.5247 51.1387C21.8824 48.0224 20.4625 44.8907 20.1554 41.8109C23.9163 38.5735 23.6903 45.9484 24.8561 48.0567C24.5255 49.6037 24.042 51.0939 23.3008 51.333Z" fill="#1E1E1E"/>
<path d="M57.7978 55.4544C57.9615 52.1203 61.6193 46.4747 59.4095 43.8669C57.9954 42.9273 55.2298 42.7822 53.6088 42.3763C50.8727 41.9366 45.2496 38.3865 44.5448 42.9304C43.8513 47.4173 41.3527 52.0605 41.5186 56.544C45.0573 59.1392 50.8154 58.8234 54.9753 60.4402C57.2605 60.4247 57.104 57.7393 57.6479 56.0694C57.9157 56.0087 57.8918 55.6924 57.7978 55.4544ZM42.3269 55.4857C42.6598 53.1887 43.6568 50.7509 44.0954 48.4227C44.4162 47.1413 44.8232 42.5104 45.998 41.8737C47.2471 41.1958 51.5495 43.0874 52.8581 43.4151C62.6734 44.4553 58.3602 46.7359 57.3545 53.7951C56.6672 51.0973 56.0134 46.3061 52.1449 48.4331C52.0826 47.5454 51.5396 46.927 49.9135 46.6034C45.9458 45.981 46.5424 54.3031 45.1458 56.9986C43.8086 56.6865 42.5898 56.2308 42.3269 55.4857ZM51.0269 50.2139C50.341 52.7307 49.7018 55.2097 49.0839 57.7352L46.0767 56.9823C47.3202 54.8401 46.8376 46.7548 50.1078 47.8818C51.5968 48.2588 51.1059 49.1245 51.0269 50.2139ZM51.4298 52.0549C52.1808 54.3047 52.6796 56.5326 53.3206 58.7981L49.9525 57.9548L51.4298 52.0549ZM55.2636 59.2846L54.538 59.1029C54.0028 56.2299 52.4422 53.2362 52.1704 50.3528C55.4988 45.3474 55.6365 54.1391 56.9633 55.9588C56.6275 57.5345 56.121 59.0591 55.2636 59.2846Z" fill="#1E1E1E"/>
<path d="M66.2525 40.9269C67.9841 39.841 69.1732 33.9515 67.5061 32.5815C64.0805 31.1403 59.8197 30.9312 56.2481 29.7359C56.4528 25.2131 62.0101 16.8392 55.7087 15.1088C58.333 10.3136 52.1729 9.91654 49.0638 9.43082C46.9944 8.92608 45.2723 8.66497 43.9789 9.9771C43.2477 7.63952 40.5555 7.30045 38.0556 6.67453C35.111 5.4991 31.26 4.64106 31.1464 8.94021C24.8956 7.55549 25.815 17.647 23.9603 21.6288C18.7493 20.1384 9.84607 15.3732 9.90926 24.3515C9.59991 25.9986 9.52544 26.7078 10.3242 27.2521L3.61704 54.0392C-1.99857 57.8658 5.08391 60.0134 8.63457 60.1808L43.9543 69.0243C47.6514 69.8171 62.297 76.3592 58.8867 67.5944L65.5049 41.1624C65.7686 41.1409 66.0241 41.0605 66.2525 40.9269ZM53.1135 11.3726C57.1365 12.3088 52.7946 19.1799 52.7065 22.0556C52.4371 31.7361 47.1123 27.604 40.6014 25.8707C43.5194 18.3626 41.2317 5.85955 53.1135 11.3726ZM34.9249 6.81843C48.2024 7.31317 40.5818 17.5745 39.4661 25.5834L29.559 23.1027C28.0088 21.5332 31.8608 11.4396 32.3458 9.50236C32.8692 7.41189 32.6852 6.60709 34.9269 6.81891L34.9249 6.81843ZM30.9447 10.1206C27.8876 23.9522 23.8446 23.2028 39.4367 26.5038C39.4913 26.5669 39.5635 26.6122 39.6441 26.6339C39.7247 26.6555 39.8099 26.6525 39.8888 26.6252C54.6736 31.0797 51.8272 29.5443 55.4037 16.2241C60.0615 17.7543 55.5185 25.7658 55.3391 29.6567C54.9401 29.8217 54.654 30.2769 55.0689 30.4477C53.5821 35.9329 43.2795 29.5679 39.2161 29.5339C35.768 27.5366 22.5943 28.3977 24.6706 22.5756C24.9452 22.3929 25.1095 22.0907 24.8887 21.9231C26.8455 18.3813 25.4937 9.4567 30.9447 10.1206ZM13.3223 20.0166C16.7018 20.201 20.3663 22.0958 23.7553 22.6289C21.5751 29.4836 34.6689 28.5665 38.9067 30.6172C43.7324 30.7483 54.3333 37.7044 55.9436 30.6884C58.6518 32.0881 67.1943 31.6653 66.9659 35.2492C66.9319 36.1221 66.3221 39.6939 65.4592 40.25C65.3716 40.2051 65.2725 40.1877 65.1749 40.2C65.0773 40.2124 64.9857 40.2539 64.912 40.3191C49.0367 35.9628 33.1551 32.2986 17.2116 28.2107C15.8118 27.8602 12.7248 27.7058 11.5726 26.7988C9.90836 25.4831 11.4981 20.2454 13.3223 20.0166ZM56.7691 70.996C41.3263 67.2097 25.798 63.1845 10.319 59.3655C8.27989 59.1106 -0.408336 58.0774 4.18934 54.9443C14.3478 57.3847 24.6482 60.1391 34.8615 62.6242C37.0908 64.0545 65.8678 67.8909 56.7691 70.996ZM31.9738 39.4704C33.0554 37.7444 34.3752 38.7316 36.4763 39.2577C38.3776 39.7337 40.519 39.638 40.6628 41.6739C39.5229 48.285 37.0287 54.9528 35.6753 61.593L26.9798 59.4157C28.9241 52.9225 29.8461 45.8352 31.9738 39.4704ZM58.0472 67.1925L36.6808 61.8427C38.2402 54.7912 40.5495 47.7462 41.919 40.7204C41.5424 38.519 38.023 38.5275 36.2361 38.0801C34.9198 37.7505 32.95 36.7655 31.7057 37.7085C28.8659 44.3486 28.1638 52.159 25.976 59.1592C18.8758 57.8443 11.7221 54.713 4.60667 53.8004L11.1518 27.6603C28.8777 32.3945 46.8062 36.464 64.5729 41.1301L58.0472 67.1925Z" fill="#1E1E1E"/>
<path d="M33.4643 50.3234C33.9943 49.5283 33.4104 48.0358 32.5466 49.0483C32.0168 49.8424 32.6003 51.3369 33.4643 50.3234Z" fill="#1E1E1E"/>
<path d="M35.3102 11.1713C36.3601 11.2435 40.6675 13.2426 39.7035 11.0776C38.6526 11.0052 34.3433 9.00562 35.3102 11.1713Z" fill="#1E1E1E"/>
<path d="M34.3199 15.9499C35.0948 16.0583 40.2962 17.9122 38.264 15.9994C37.4891 15.8909 32.2877 14.037 34.3199 15.9499Z" fill="#1E1E1E"/>
<path d="M37.1984 20.8849C36.434 20.7883 31.355 18.9435 32.9556 20.7647C33.721 20.8616 38.8 22.7064 37.1984 20.8849Z" fill="#1E1E1E"/>
<path d="M47.0899 13.9879C47.8414 14.0905 53.0148 15.9332 51.2052 14.0905C50.4526 13.9876 45.2798 12.143 47.0899 13.9879Z" fill="#1E1E1E"/>
<path d="M49.9674 18.9349C49.2156 18.8292 44.0217 16.9905 45.8977 18.8437C46.6496 18.9495 51.8435 20.7881 49.9674 18.9349Z" fill="#1E1E1E"/>
<path d="M48.7283 23.7686C47.957 23.6662 42.782 21.8014 44.7071 23.7102C45.4792 23.8128 50.6543 25.6776 48.7283 23.7686Z" fill="#1E1E1E"/>
</g>
<defs>
<clipPath id="clip0_405_2645">
<rect width="60" height="60" fill="white" transform="translate(15.4395 0.444824) rotate(14.0571)"/>
</clipPath>
</defs>
</svg>
