<svg width="73" height="74" viewBox="0 0 73 74" fill="none" xmlns="http://www.w3.org/2000/svg">
<g clip-path="url(#clip0_405_2622)">
<path d="M24.7357 11.734C24.6331 11.7081 24.5414 11.6504 24.4738 11.5692C24.4061 11.4879 24.3659 11.3873 24.359 11.2818C24.3521 11.1763 24.3788 11.0713 24.4353 10.982C24.4918 10.8926 24.5752 10.8234 24.6734 10.7844L26.3792 10.1105L23.8037 10.845C23.6828 10.8773 23.5542 10.8631 23.4433 10.8053C23.3323 10.7474 23.2471 10.6501 23.2044 10.5324C23.1618 10.4148 23.1648 10.2855 23.2128 10.1699C23.2609 10.0544 23.3505 9.96109 23.464 9.90842L26.4341 8.59035L24.2132 9.22595C24.0951 9.26204 23.9679 9.25316 23.8559 9.20102C23.744 9.14889 23.6553 9.05719 23.607 8.94359C23.5586 8.82998 23.554 8.70251 23.594 8.58571C23.6341 8.46891 23.7159 8.37104 23.8238 8.31097L26.1878 6.95144L24.6693 7.3877C24.5603 7.41875 24.444 7.41183 24.3394 7.36808C24.2348 7.32433 24.1482 7.24635 24.0938 7.14692C24.0394 7.04749 24.0203 6.93252 24.0398 6.82085C24.0593 6.70919 24.1162 6.60746 24.2011 6.53235L25.1943 5.65327C25.0983 5.6407 25.0082 5.60008 24.9352 5.5365C24.8621 5.47293 24.8095 5.38922 24.7838 5.29587C24.7476 5.16863 24.7633 5.0322 24.8274 4.91649C24.8915 4.80077 24.9989 4.71519 25.126 4.6785L26.9668 4.14874C27.0757 4.11805 27.1917 4.12516 27.2959 4.16889C27.4002 4.21263 27.4866 4.29042 27.541 4.38956C27.5953 4.48871 27.6145 4.60335 27.5953 4.71478C27.5761 4.82622 27.5197 4.92786 27.4353 5.00312L26.5163 5.81625L29.8464 4.86769C29.9645 4.83161 30.0918 4.84049 30.2037 4.89262C30.3156 4.94475 30.4043 5.03645 30.4526 5.15006C30.501 5.26366 30.5056 5.39114 30.4656 5.50794C30.4255 5.62474 30.3437 5.7226 30.2359 5.78268L27.8631 7.14002L33.0306 5.66703C33.1515 5.6347 33.2801 5.64886 33.3911 5.70672C33.502 5.76458 33.5872 5.86194 33.6299 5.97957C33.6726 6.09719 33.6696 6.22654 33.6215 6.34207C33.5735 6.4576 33.4838 6.55091 33.3703 6.60359L30.4012 7.9219L35.839 6.3702C35.9619 6.33629 36.0932 6.35066 36.2059 6.41038C36.3187 6.4701 36.4043 6.57064 36.4453 6.69143C36.4863 6.81221 36.4796 6.94411 36.4266 7.06012C36.3735 7.17613 36.2782 7.26748 36.16 7.31547L34.4617 7.98401L38.1244 6.94244C38.2474 6.90967 38.3783 6.92506 38.4904 6.98548C38.6024 7.04589 38.6872 7.14679 38.7275 7.26758C38.7677 7.38837 38.7604 7.51996 38.7069 7.63551C38.6535 7.75106 38.5579 7.84187 38.4398 7.88941L37.9967 8.05782L40.1382 7.44668C40.2586 7.41309 40.3872 7.42581 40.4987 7.48234C40.6102 7.53886 40.6964 7.63509 40.7405 7.75205C40.7846 7.86902 40.7832 7.99825 40.7367 8.11427C40.6902 8.23029 40.602 8.32469 40.4893 8.37887L36.0834 10.4662L43.6101 8.31597C43.7332 8.27981 43.8655 8.29236 43.9796 8.35102C44.0937 8.40968 44.1809 8.50996 44.2231 8.63111C44.2653 8.75226 44.2594 8.88502 44.2065 9.00191C44.1536 9.11879 44.0577 9.21086 43.9388 9.25907L41.2638 10.3624L46.1797 8.95938C46.3027 8.92547 46.434 8.93985 46.5467 8.99957C46.6594 9.05928 46.7451 9.15982 46.7861 9.28061C46.8271 9.4014 46.8204 9.5333 46.7674 9.64931C46.7143 9.76532 46.6189 9.85667 46.5007 9.90466L44.8733 10.5456L48.4477 9.52726C48.5708 9.49243 48.7026 9.50613 48.8159 9.56552C48.9292 9.62491 49.0155 9.72549 49.0569 9.84654C49.0983 9.9676 49.0917 10.0999 49.0385 10.2163C48.9853 10.3326 48.8896 10.4242 48.7709 10.472L46.8874 11.222L50.7807 10.1114C50.9013 10.0776 51.0302 10.0902 51.1419 10.1468C51.2536 10.2035 51.34 10.3 51.384 10.4172C51.4279 10.5345 51.4263 10.664 51.3794 10.7801C51.3325 10.8962 51.2437 10.9905 51.1306 11.0443L46.8091 13.0703L54.1836 10.9635C54.306 10.9281 54.4373 10.9407 54.5507 10.9988C54.664 11.0569 54.7509 11.1561 54.7936 11.2762C54.8363 11.3962 54.8316 11.528 54.7804 11.6446C54.7293 11.7613 54.6355 11.854 54.5183 11.9039L51.2425 13.3021L56.9842 11.6647C57.1059 11.6297 57.2364 11.6423 57.3493 11.6998C57.4621 11.7574 57.5489 11.8556 57.5922 11.9746C57.6354 12.0937 57.6318 12.2247 57.5821 12.3413C57.5325 12.4578 57.4404 12.5511 57.3246 12.6024L53.5662 14.2654L60.0137 12.4232C60.1357 12.3915 60.2652 12.4071 60.3763 12.4669C60.4873 12.5267 60.5717 12.6262 60.6124 12.7455C60.6532 12.8648 60.6474 12.9951 60.5962 13.1103C60.5449 13.2255 60.4521 13.3171 60.3361 13.3668L58.5254 14.0896L61.1957 13.3264C61.3175 13.29 61.4486 13.3013 61.5623 13.3581C61.676 13.4149 61.7638 13.5129 61.8078 13.6321C61.8519 13.7513 61.8489 13.8828 61.7995 13.9999C61.75 14.117 61.6579 14.2109 61.5417 14.2624L58.2812 15.7562L61.3901 14.8677C61.5051 14.836 61.6277 14.8464 61.7357 14.897C61.8437 14.9477 61.93 15.0353 61.9791 15.144C62.0281 15.2528 62.0367 15.3755 62.0032 15.49C61.9698 15.6045 61.8965 15.7032 61.7966 15.7684L58.9953 17.5648L60.864 17.0307C60.9803 16.9969 61.1049 17.0064 61.2148 17.0575C61.3246 17.1086 61.4121 17.1978 61.4611 17.3086C61.5101 17.4194 61.5172 17.5442 61.4811 17.6598C61.445 17.7754 61.3681 17.874 61.2649 17.9372L60.8857 18.1711C60.9573 18.1952 61.0226 18.2352 61.0765 18.2882C61.1304 18.3411 61.1717 18.4056 61.1971 18.4767C61.2225 18.5479 61.2315 18.6239 61.2234 18.699C61.2152 18.7741 61.1901 18.8464 61.15 18.9105L60.7921 19.4796C60.8513 19.539 60.8943 19.6126 60.9169 19.6933C60.953 19.8206 60.9372 19.9571 60.8729 20.0728C60.8085 20.1885 60.701 20.2739 60.5737 20.3104L60.0188 20.4684C59.9214 20.4964 59.8179 20.4941 59.7218 20.462C59.6258 20.4298 59.5418 20.3693 59.4809 20.2883C59.42 20.2074 59.3852 20.1098 59.381 20.0086C59.3768 19.9075 59.4034 19.8074 59.4573 19.7216L59.6078 19.483L57.9601 19.9498C57.8443 19.9822 57.7207 19.9718 57.6119 19.9205C57.5032 19.8692 57.4166 19.7804 57.368 19.6704C57.3194 19.5604 57.312 19.4366 57.3473 19.3217C57.3825 19.2067 57.458 19.1083 57.56 19.0445L57.6599 18.9829L55.9942 19.4597C55.8791 19.4921 55.7561 19.4821 55.6476 19.4316C55.5392 19.3811 55.4524 19.2934 55.4031 19.1844C55.3538 19.0754 55.3453 18.9523 55.379 18.8375C55.4127 18.7227 55.4865 18.6238 55.5869 18.5587L58.392 16.7633L52.2348 18.5204C52.1136 18.5551 51.9838 18.5428 51.8713 18.4858C51.7588 18.4289 51.672 18.3316 51.6282 18.2134C51.5844 18.0951 51.5869 17.9647 51.6352 17.8483C51.6835 17.7318 51.774 17.6379 51.8886 17.5853L55.1488 16.0925L49.2531 17.7769C49.1304 17.8103 48.9996 17.7957 48.8873 17.736C48.7751 17.6764 48.6897 17.5762 48.6487 17.4559C48.6076 17.3355 48.6139 17.2041 48.6664 17.0883C48.7188 16.9724 48.8134 16.8809 48.9309 16.8324L50.7421 16.1117L46.9342 17.1984C46.8124 17.2333 46.6819 17.2207 46.5691 17.1632C46.4562 17.1057 46.3694 17.0074 46.3262 16.8884C46.283 16.7693 46.2866 16.6383 46.3362 16.5217C46.3859 16.4052 46.4779 16.3119 46.5938 16.2606L50.3469 14.5984L43.8875 16.4427C43.7651 16.4781 43.6338 16.4655 43.5205 16.4073C43.4071 16.3492 43.3202 16.25 43.2775 16.13C43.2348 16.01 43.2395 15.8782 43.2907 15.7615C43.3419 15.6449 43.4356 15.5521 43.5529 15.5023L46.8303 14.1014L41.0826 15.7425C40.9623 15.7753 40.8341 15.762 40.7231 15.7051C40.6121 15.6483 40.5263 15.5521 40.4827 15.4353C40.439 15.3185 40.4405 15.1896 40.4869 15.0739C40.5334 14.9582 40.6214 14.864 40.7337 14.8098L45.0552 12.7838L37.675 14.8924C37.5523 14.9257 37.4215 14.9111 37.3092 14.8515C37.197 14.7918 37.1116 14.6916 37.0706 14.5713C37.0295 14.451 37.0358 14.3195 37.0883 14.2037C37.1407 14.0879 37.2353 13.9964 37.3528 13.9478L39.2368 13.2L35.3377 14.3092C35.2147 14.3431 35.0834 14.3287 34.9707 14.269C34.858 14.2093 34.7723 14.1087 34.7313 13.9879C34.6903 13.8672 34.697 13.7353 34.75 13.6192C34.8031 13.5032 34.8984 13.4119 35.0166 13.3639L36.6426 12.7206L33.0663 13.7425C32.9432 13.7787 32.8109 13.7661 32.6968 13.7075C32.5827 13.6488 32.4955 13.5485 32.4532 13.4274C32.411 13.3062 32.4169 13.1735 32.4699 13.0566C32.5228 12.9397 32.6186 12.8476 32.7375 12.7994L35.414 11.6944L30.4922 13.1001C30.3713 13.135 30.2417 13.1231 30.1292 13.0667C30.0167 13.0103 29.9297 12.9135 29.8854 12.7957C29.8411 12.6779 29.8428 12.5477 29.8903 12.4312C29.9378 12.3146 30.0274 12.2203 30.1414 12.1669L34.5543 10.0762L27.0158 12.2327C26.892 12.2677 26.7594 12.2537 26.6457 12.1934C26.532 12.1332 26.4459 12.0315 26.4053 11.9094C26.3646 11.7872 26.3727 11.6542 26.4277 11.5378C26.4827 11.4215 26.5805 11.3309 26.7006 11.2848L27.1416 11.1169L24.9976 11.7294C24.9123 11.7546 24.8218 11.7562 24.7357 11.734Z" fill="#FFCE48"/>
<path d="M6.26336 56.5905C6.15745 56.5642 6.06306 56.5039 5.9946 56.4189C5.92614 56.334 5.88736 56.2289 5.88418 56.1198C5.88101 56.0107 5.91361 55.9036 5.97701 55.8148C6.04041 55.726 6.13114 55.6603 6.23534 55.6279L24.7638 49.8285L5.44502 55.3465C5.32003 55.3786 5.18746 55.3612 5.07505 55.2978C4.96263 55.2344 4.87907 55.13 4.84184 55.0065C4.8046 54.8829 4.81659 54.7498 4.87528 54.6348C4.93397 54.5199 5.03482 54.4321 5.15675 54.3898L31.0458 46.1605L5.95022 53.3288C5.82579 53.3592 5.69443 53.3407 5.58324 53.2771C5.47205 53.2135 5.38952 53.1096 5.35266 52.9869C5.31581 52.8642 5.32745 52.7321 5.38518 52.6177C5.44291 52.5034 5.54233 52.4156 5.66292 52.3724L29.9316 44.694L6.43138 51.4071C6.30566 51.4416 6.17143 51.4256 6.05732 51.3625C5.94321 51.2995 5.85823 51.1944 5.82051 51.0696C5.78279 50.9448 5.7953 50.8102 5.85539 50.6945C5.91547 50.5788 6.01836 50.4911 6.14214 50.4502L34.5811 41.3337L6.97958 49.2177C6.8536 49.2516 6.71936 49.2349 6.60551 49.1712C6.49166 49.1075 6.40721 49.0018 6.37019 48.8767C6.33318 48.7516 6.34652 48.617 6.40737 48.5016C6.46823 48.3862 6.57178 48.2992 6.69592 48.2591L11.6595 46.7443L7.28635 47.9925C7.16192 48.0229 7.03055 48.0044 6.91937 47.9408C6.80818 47.8772 6.72564 47.7733 6.68879 47.6506C6.65194 47.528 6.66358 47.3958 6.72131 47.2815C6.77904 47.1671 6.87846 47.0793 6.99905 47.0361L28.447 40.2524L7.74371 46.1659C7.61927 46.1963 7.48791 46.1778 7.37672 46.1142C7.26553 46.0506 7.183 45.9467 7.14615 45.824C7.1093 45.7013 7.12094 45.5692 7.17867 45.4549C7.2364 45.3405 7.33581 45.2527 7.45641 45.2095L25.3886 39.5392L8.17144 44.4576C8.04445 44.4958 7.90748 44.482 7.79068 44.4192C7.67388 44.3564 7.5868 44.2498 7.5486 44.1228C7.51041 43.9958 7.52423 43.8589 7.58701 43.7421C7.6498 43.6253 7.75642 43.5382 7.88341 43.5L23.8012 38.4479L8.58799 42.794C8.46172 42.8293 8.32664 42.8136 8.21184 42.7502C8.09705 42.6869 8.01172 42.581 7.97423 42.4554C7.93675 42.3298 7.95012 42.1944 8.01145 42.0785C8.07278 41.9627 8.17718 41.8755 8.30214 41.8359L17.4771 38.953L8.93872 41.3932C8.81457 41.4236 8.6835 41.4053 8.57243 41.342C8.46136 41.2788 8.37874 41.1754 8.34153 41.0531C8.30431 40.9309 8.31534 40.799 8.37234 40.6846C8.42935 40.5702 8.528 40.4819 8.64802 40.438L24.1243 35.4198L9.3798 39.6316C9.25575 39.6613 9.12504 39.6424 9.01443 39.5789C8.90383 39.5153 8.82169 39.4119 8.78482 39.2898C8.74796 39.1677 8.75916 39.0361 8.81613 38.922C8.8731 38.8079 8.97154 38.7198 9.09129 38.6759L17.453 36.0069L9.73539 38.2114C9.61114 38.2426 9.47967 38.2248 9.36812 38.1619C9.25657 38.0989 9.17343 37.9955 9.13586 37.8731C9.0983 37.7506 9.10916 37.6184 9.16622 37.5037C9.22328 37.389 9.32218 37.3006 9.44251 37.2567L21.276 33.3737L10.1512 36.5507C10.0267 36.5835 9.89437 36.567 9.78173 36.5046C9.66909 36.4423 9.58485 36.3389 9.54654 36.216C9.50823 36.0931 9.51881 35.9601 9.57608 35.8448C9.63335 35.7295 9.73289 35.6407 9.85397 35.597L22.7684 31.2299L10.6144 34.7008C10.4901 34.732 10.3587 34.7142 10.2471 34.6512C10.1356 34.5883 10.0524 34.4849 10.0149 34.3624C9.97731 34.24 9.98818 34.1078 10.0452 33.9931C10.1023 33.8784 10.2012 33.79 10.3215 33.7461L16.1329 31.8344L10.9627 33.3098C10.839 33.3427 10.7073 33.327 10.5948 33.2657C10.4823 33.2045 10.3976 33.1024 10.3582 32.9806C10.3188 32.8587 10.3276 32.7264 10.3829 32.6108C10.4382 32.4953 10.5357 32.4054 10.6553 32.3596L22.8091 27.963L11.491 31.1999C11.3672 31.2349 11.2346 31.2209 11.1209 31.1606C11.0072 31.1004 10.921 30.9986 10.8804 30.8765C10.8398 30.7544 10.8479 30.6214 10.9029 30.505C10.9579 30.3887 11.0556 30.298 11.1758 30.252L21.7746 26.2113L12.0455 28.9853C11.9225 29.018 11.7916 29.0026 11.6795 28.9422C11.5675 28.8818 11.4827 28.7809 11.4424 28.6601C11.4022 28.5393 11.4095 28.4077 11.463 28.2922C11.5164 28.1766 11.612 28.0858 11.7301 28.0383L18.6011 25.4187L12.5024 27.1606C12.3785 27.1945 12.2463 27.1794 12.1333 27.1184C12.0202 27.0575 11.9349 26.9554 11.8951 26.8333C11.8553 26.7112 11.864 26.5784 11.9194 26.4626C11.9748 26.3467 12.0727 26.2566 12.1928 26.2109L14.6243 25.3147L12.8368 25.8248C12.713 25.8598 12.5804 25.8458 12.4667 25.7856C12.353 25.7253 12.2669 25.6236 12.2263 25.5015C12.1857 25.3793 12.1937 25.2463 12.2487 25.13C12.3037 25.0136 12.4015 24.923 12.5216 24.8769L14.0969 24.2755L13.1577 24.5434C13.0364 24.5763 12.9071 24.5624 12.7957 24.5043C12.6842 24.4462 12.5987 24.3483 12.5562 24.23C12.5136 24.1118 12.5172 23.9818 12.5662 23.866C12.6151 23.7503 12.7059 23.6572 12.8204 23.6054L15.4029 22.4768L13.5424 23.0068C13.422 23.0391 13.2939 23.0253 13.1832 22.9681C13.0725 22.9108 12.9871 22.8143 12.9439 22.6974C12.9006 22.5805 12.9026 22.4517 12.9494 22.3361C12.9962 22.2206 13.0845 22.1268 13.1969 22.0729L14.0614 21.6709L13.8635 21.7244C13.7449 21.7594 13.6176 21.7493 13.5061 21.6959C13.3945 21.6425 13.3067 21.5497 13.2596 21.4354C13.2125 21.3211 13.2094 21.1934 13.2509 21.0769C13.2925 20.9604 13.3757 20.8635 13.4845 20.8048L14.0456 20.4948C13.9591 20.4959 13.8738 20.4746 13.798 20.4329C13.7222 20.3912 13.6586 20.3306 13.6132 20.2569C13.5679 20.1832 13.5425 20.099 13.5394 20.0126C13.5363 19.9261 13.5557 19.8403 13.5957 19.7636L14.1778 18.6455C14.0899 18.5806 14.0263 18.4881 13.9972 18.3828C13.9609 18.2556 13.9766 18.1191 14.0407 18.0034C14.1049 17.8877 14.2122 17.8021 14.3394 17.7654L14.8946 17.6065C14.9886 17.5795 15.0885 17.5806 15.1818 17.6098C15.2752 17.639 15.358 17.6949 15.4199 17.7706C15.4818 17.8464 15.5201 17.9386 15.5301 18.0359C15.5401 18.1332 15.5214 18.2313 15.4762 18.3181L15.0196 19.1944L17.9228 18.3782C18.0425 18.3389 18.1725 18.3463 18.287 18.3988C18.4015 18.4513 18.4919 18.545 18.5403 18.6613C18.5886 18.7775 18.5913 18.9078 18.5478 19.0259C18.5044 19.1441 18.4179 19.2415 18.3057 19.2987L17.8142 19.5695L20.0912 18.92C20.2115 18.8877 20.3396 18.9016 20.4504 18.9588C20.5611 19.016 20.6464 19.1126 20.6897 19.2295C20.7329 19.3464 20.731 19.4752 20.6842 19.5907C20.6374 19.7062 20.5491 19.8001 20.4367 19.8539L19.5702 20.2555L22.3014 19.4755C22.4231 19.4414 22.5531 19.4546 22.6654 19.5125C22.7777 19.5704 22.8639 19.6686 22.9067 19.7874C22.9496 19.9062 22.9458 20.0369 22.8963 20.1531C22.8468 20.2693 22.7551 20.3624 22.6397 20.4138L20.0582 21.5426L24.9657 20.1406C25.0895 20.1055 25.2221 20.1196 25.3358 20.1798C25.4495 20.2401 25.5356 20.3418 25.5762 20.4639C25.6168 20.586 25.6088 20.7191 25.5538 20.8354C25.4988 20.9518 25.401 21.0424 25.2809 21.0885L23.7027 21.6892L27.1864 20.6956C27.3103 20.6617 27.4424 20.6768 27.5555 20.7377C27.6686 20.7986 27.7538 20.9007 27.7936 21.0229C27.8335 21.145 27.8248 21.2777 27.7693 21.3936C27.7139 21.5094 27.616 21.5995 27.496 21.6452L25.0689 22.5405L29.5034 21.2736C29.6272 21.2386 29.7597 21.2527 29.8735 21.3129C29.9872 21.3731 30.0733 21.4749 30.1139 21.597C30.1545 21.7191 30.1465 21.8522 30.0915 21.9685C30.0364 22.0848 29.9387 22.1755 29.8185 22.2216L22.9429 24.8431L32.6689 22.0652C32.7927 22.0302 32.9253 22.0442 33.039 22.1045C33.1527 22.1647 33.2388 22.2665 33.2794 22.3886C33.32 22.5107 33.312 22.6437 33.257 22.7601C33.202 22.8764 33.1042 22.9671 32.9841 23.0132L22.3908 27.0521L36.4984 23.0127C36.6232 22.9769 36.757 22.9909 36.8715 23.0519C36.9861 23.1129 37.0725 23.2161 37.1124 23.3396C37.1523 23.4631 37.1426 23.5973 37.0853 23.7138C37.0281 23.8303 36.9278 23.9199 36.8056 23.9638L24.6498 28.36L40.1647 23.9287C40.2275 23.9094 40.2935 23.9027 40.3588 23.9089C40.4242 23.9151 40.4877 23.9341 40.5457 23.9649C40.6037 23.9956 40.6551 24.0375 40.697 24.0881C40.7388 24.1387 40.7702 24.1971 40.7895 24.2598C40.8088 24.3226 40.8155 24.3885 40.8093 24.4539C40.8031 24.5193 40.7841 24.5828 40.7533 24.6408C40.7226 24.6988 40.6807 24.7502 40.6301 24.792C40.5795 24.8339 40.5211 24.8653 40.4583 24.8846L34.6324 26.8009L42.5765 24.5315C42.7032 24.492 42.8403 24.5044 42.9578 24.566C43.0753 24.6276 43.1635 24.7334 43.203 24.86C43.2425 24.9867 43.2301 25.1238 43.1685 25.2413C43.1069 25.3588 43.0011 25.447 42.8745 25.4865L29.9623 29.853L45.785 25.3328C45.9118 25.2939 46.0488 25.3069 46.166 25.369C46.2831 25.4311 46.3708 25.5372 46.4098 25.664C46.4487 25.7907 46.4357 25.9278 46.3736 26.0449C46.3115 26.1621 46.2054 26.2498 46.0786 26.2887L34.2521 30.1684L48.6646 26.0518C48.7903 26.0173 48.9246 26.0333 49.0387 26.0963C49.1528 26.1594 49.2378 26.2645 49.2755 26.3893C49.3132 26.5141 49.3007 26.6487 49.2406 26.7644C49.1805 26.8801 49.0776 26.9677 48.9538 27.0087L40.6128 29.6694L51.1261 26.666C51.2521 26.6301 51.3872 26.6451 51.5023 26.7078C51.6174 26.7704 51.7033 26.8758 51.7415 27.0011C51.7797 27.1265 51.7671 27.2618 51.7066 27.378C51.646 27.4942 51.5422 27.582 51.4175 27.6224L35.9412 32.6407L54.1813 27.4289C54.3084 27.3909 54.4454 27.4049 54.5621 27.4679C54.6789 27.5309 54.7659 27.6376 54.8039 27.7647C54.8419 27.8918 54.8279 28.0288 54.7649 28.1455C54.702 28.2623 54.5952 28.3493 54.4681 28.3873L45.2701 31.2757L56.6103 28.033C56.6732 28.014 56.7392 28.0076 56.8046 28.0142C56.87 28.0207 56.9334 28.0401 56.9913 28.0711C57.0492 28.1022 57.1004 28.1443 57.142 28.1952C57.1836 28.246 57.2148 28.3046 57.2338 28.3674C57.2527 28.4303 57.2591 28.4964 57.2526 28.5617C57.2461 28.6271 57.2267 28.6905 57.1957 28.7484C57.1646 28.8063 57.1224 28.8575 57.0716 28.8991C57.0208 28.9407 56.9622 28.9719 56.8993 28.9909L40.9784 34.0473L59.495 28.7563C59.622 28.7181 59.759 28.7319 59.8758 28.7947C59.9926 28.8575 60.0797 28.9641 60.1179 29.0911C60.156 29.2181 60.1422 29.3551 60.0794 29.4719C60.0167 29.5887 59.91 29.6758 59.783 29.714L41.8511 35.3833L62.459 29.4964C62.5845 29.4631 62.7181 29.4799 62.8315 29.5432C62.9448 29.6066 63.0291 29.7116 63.0664 29.836C63.1037 29.9604 63.0911 30.0945 63.0313 30.2098C62.9715 30.3251 62.8692 30.4126 62.7461 30.4538L41.286 37.2448L64.6795 30.5627C64.8055 30.5288 64.9398 30.5455 65.0536 30.6092C65.1675 30.6728 65.2519 30.7785 65.2889 30.9036C65.3259 31.0287 65.3126 31.1633 65.2517 31.2787C65.1909 31.3941 65.0873 31.4812 64.9632 31.5213L60.0205 33.0268L64.3771 31.7828C64.5029 31.7483 64.6371 31.7643 64.7512 31.8273C64.8653 31.8904 64.9503 31.9955 64.988 32.1203C65.0257 32.2451 65.0132 32.3797 64.9531 32.4954C64.8931 32.6111 64.7902 32.6987 64.6664 32.7397L36.2321 41.8543L63.8282 33.971C63.9537 33.9376 64.0873 33.9544 64.2007 34.0178C64.314 34.0812 64.3982 34.1862 64.4355 34.3106C64.4728 34.435 64.4603 34.569 64.4005 34.6843C64.3407 34.7996 64.2384 34.8871 64.1153 34.9284L39.8434 42.6069L63.349 35.8931C63.474 35.861 63.6065 35.8785 63.719 35.9418C63.8314 36.0052 63.9149 36.1096 63.9522 36.2331C63.9894 36.3567 63.9774 36.4899 63.9187 36.6048C63.86 36.7197 63.7592 36.8075 63.6373 36.8498L37.7458 45.0805L62.846 37.9104C62.9708 37.8791 63.1029 37.8971 63.2148 37.9608C63.3267 38.0245 63.4097 38.1289 63.4465 38.2522C63.4834 38.3755 63.4713 38.5083 63.4127 38.6229C63.3541 38.7375 63.2536 38.8251 63.1321 38.8675L44.6048 44.6661L62.4301 39.5752C62.5549 39.5447 62.6866 39.5634 62.798 39.6273C62.9093 39.6913 62.9918 39.7957 63.0283 39.9188C63.0648 40.0419 63.0525 40.1744 62.994 40.2887C62.9355 40.403 62.8353 40.4904 62.714 40.5328L55.0059 42.9098L62.1037 40.8831C62.2292 40.8497 62.3628 40.8665 62.4761 40.9299C62.5895 40.9933 62.6737 41.0983 62.711 41.2227C62.7483 41.3471 62.7358 41.4812 62.676 41.5965C62.6162 41.7118 62.5139 41.7993 62.3908 41.8405L45.274 47.2593L61.6808 42.572C61.8078 42.5335 61.9448 42.547 62.0617 42.6095C62.1787 42.6721 62.266 42.7785 62.3045 42.9054C62.343 43.0324 62.3295 43.1694 62.2669 43.2863C62.2044 43.4033 62.098 43.4906 61.971 43.5291L45.3118 48.8542L61.2497 44.302C61.3748 44.269 61.5079 44.2858 61.6209 44.3488C61.7339 44.4119 61.8181 44.5163 61.8557 44.6402C61.8933 44.764 61.8815 44.8976 61.8226 45.0129C61.7638 45.1281 61.6625 45.2161 61.5402 45.2582L47.3412 49.8108L60.8365 45.9562C60.9619 45.9222 61.0955 45.9382 61.2092 46.0009C61.3229 46.0637 61.4078 46.1682 61.4458 46.2923C61.4838 46.4165 61.472 46.5506 61.4129 46.6662C61.3538 46.7819 61.2521 46.87 61.1292 46.9119L46.2709 51.7633L60.395 47.728C60.521 47.6921 60.6561 47.7071 60.7712 47.7698C60.8863 47.8324 60.9721 47.9378 61.0103 48.0631C61.0485 48.1885 61.036 48.3238 60.9754 48.44C60.9148 48.5562 60.811 48.644 60.6864 48.6845L51.9827 51.4843L60.0309 49.1863C60.1552 49.1543 60.2871 49.1715 60.3992 49.2342C60.5113 49.2968 60.595 49.4002 60.6329 49.5229C60.6708 49.6455 60.6601 49.7781 60.603 49.8931C60.5458 50.0081 60.4466 50.0967 60.3259 50.1405L49.1129 53.8511L59.6151 50.8511C59.7406 50.8159 59.8749 50.831 59.9895 50.8934C60.104 50.9558 60.1896 51.0604 60.228 51.185C60.2665 51.3096 60.2548 51.4443 60.1953 51.5604C60.1359 51.6765 60.0334 51.7647 59.9099 51.8063L51.9945 54.418L59.2412 52.3482C59.3666 52.3141 59.5002 52.3301 59.6139 52.3929C59.7276 52.4556 59.8125 52.5601 59.8505 52.6843C59.8885 52.8084 59.8767 52.9425 59.8176 53.0582C59.7585 53.1738 59.6568 53.2619 59.5339 53.3039L57.5301 53.9536L58.941 53.5513C59.065 53.5184 59.1969 53.5345 59.3094 53.5961C59.4219 53.6577 59.5064 53.7602 59.5454 53.8824C59.5844 54.0046 59.575 54.1371 59.5192 54.2525C59.4632 54.3679 59.3651 54.4575 59.2451 54.5026L49.4485 57.9576L58.4834 55.3747C58.6073 55.3409 58.7395 55.3559 58.8526 55.4169C58.9656 55.4778 59.0509 55.5799 59.0907 55.702C59.1305 55.8242 59.1218 55.9569 59.0664 56.0728C59.011 56.1886 58.9131 56.2787 58.7931 56.3244L50.1513 59.4861L58.0176 57.2394C58.1416 57.2066 58.2734 57.2226 58.3859 57.2842C58.4984 57.3459 58.5829 57.4484 58.6219 57.5705C58.661 57.6927 58.6516 57.8252 58.5957 57.9406C58.5398 58.0561 58.4417 58.1456 58.3216 58.1908L55.1559 59.3062L57.6819 58.5842C57.8054 58.5499 57.9373 58.5643 58.0504 58.6245C58.1635 58.6847 58.2493 58.786 58.2899 58.9075C58.3305 59.0291 58.3228 59.1616 58.2686 59.2776C58.2143 59.3937 58.1176 59.4846 57.9983 59.5314L53.0072 61.4485L57.2748 60.2306C57.3978 60.1954 57.5295 60.2087 57.643 60.2677C57.7564 60.3267 57.843 60.4269 57.8848 60.5478C57.9266 60.6686 57.9205 60.8009 57.8678 60.9174C57.8151 61.0339 57.7198 61.1258 57.6014 61.1742L53.6308 62.7994L56.8638 61.876C56.9846 61.8419 57.1138 61.8545 57.2258 61.9112C57.3377 61.968 57.4242 62.0647 57.4681 62.1823C57.5121 62.2999 57.5101 62.4297 57.4628 62.5459C57.4154 62.6621 57.3261 62.7563 57.2125 62.8097L54.0377 64.2827L56.4347 63.5984C56.5558 63.5631 56.6857 63.5749 56.7985 63.6315C56.9112 63.688 56.9985 63.785 57.0427 63.9031C57.0869 64.0213 57.0849 64.1517 57.0369 64.2684C56.989 64.3851 56.8988 64.4793 56.7843 64.5323L56.0755 64.864L56.1221 64.851C56.2292 64.8215 56.3431 64.8286 56.4457 64.871C56.5484 64.9135 56.634 64.9889 56.689 65.0854C56.744 65.1819 56.7654 65.294 56.7496 65.404C56.7338 65.514 56.6819 65.6156 56.602 65.6927L55.3889 66.8322L55.6431 66.7598C55.7071 66.7385 55.7747 66.7304 55.8419 66.736C55.9091 66.7415 55.9745 66.7606 56.0342 66.7921C56.0938 66.8235 56.1465 66.8667 56.189 66.9191C56.2315 66.9714 56.2629 67.0318 56.2815 67.0967C56.3001 67.1615 56.3053 67.2294 56.2969 67.2963C56.2886 67.3632 56.2667 67.4278 56.2328 67.486C56.1988 67.5443 56.1534 67.5951 56.0993 67.6353C56.0453 67.6756 55.9836 67.7045 55.918 67.7203L53.6797 68.3598C53.5727 68.3888 53.4591 68.3815 53.3567 68.3389C53.2544 68.2963 53.1691 68.2209 53.1142 68.1246C53.0594 68.0282 53.0381 67.9164 53.0538 67.8066C53.0694 67.6969 53.1211 67.5954 53.2007 67.5183L54.4138 66.3788L50.3718 67.5316C50.2512 67.5654 50.1223 67.5528 50.0106 67.4961C49.8989 67.4395 49.8125 67.343 49.7685 67.2257C49.7245 67.1085 49.7262 66.979 49.7731 66.8628C49.82 66.7467 49.9088 66.6524 50.0219 66.5986L50.7295 66.2676L48.1984 66.9894C48.0779 67.0225 47.9494 67.0092 47.8382 66.9523C47.727 66.8954 47.6411 66.7989 47.5975 66.6818C47.5539 66.5647 47.5557 66.4356 47.6026 66.3197C47.6494 66.2039 47.7379 66.1098 47.8507 66.056L51.0236 64.5826L45.2048 66.244C45.0818 66.2793 44.9501 66.2661 44.8365 66.2072C44.723 66.1483 44.6364 66.0481 44.5944 65.9273C44.5525 65.8063 44.5585 65.6739 44.6113 65.5573C44.6641 65.4406 44.7596 65.3487 44.8782 65.3004L48.8413 63.6764L42.346 65.5323C42.2226 65.5666 42.0906 65.5522 41.9775 65.492C41.8644 65.4318 41.7787 65.3305 41.7381 65.209C41.6975 65.0874 41.7051 64.9549 41.7593 64.8388C41.8136 64.7228 41.9103 64.6319 42.0296 64.5851L47.0304 62.6745L39.5018 64.8243C39.3783 64.8557 39.2475 64.8387 39.1361 64.7768C39.0247 64.715 38.9411 64.6129 38.9024 64.4915C38.8637 64.3701 38.8728 64.2385 38.9279 64.1235C38.983 64.0086 39.0799 63.9191 39.1988 63.8732L42.3587 62.7604L37.1679 64.244C37.0434 64.2797 36.9099 64.2658 36.7955 64.205C36.6811 64.1442 36.5948 64.0415 36.5546 63.9183C36.5145 63.795 36.5239 63.6609 36.5808 63.5444C36.6376 63.4278 36.7376 63.3379 36.8595 63.2937L45.5034 60.1274L33.9303 63.4313C33.8059 63.465 33.6734 63.4494 33.5602 63.3878C33.4471 63.3261 33.3621 63.2231 33.3231 63.1003C33.284 62.9775 33.2939 62.8444 33.3506 62.7287C33.4073 62.613 33.5065 62.5236 33.6275 62.4793L43.4277 59.0221L30.7628 62.6393C30.6382 62.6713 30.506 62.6539 30.3938 62.5909C30.2816 62.5279 30.198 62.424 30.1604 62.3009C30.1228 62.1778 30.1342 62.045 30.192 61.9301C30.2499 61.8151 30.3499 61.7269 30.4712 61.6838L32.4389 61.0425L28.6784 62.1163C28.5516 62.1554 28.4145 62.1425 28.2972 62.0805C28.18 62.0184 28.0921 61.9123 28.0531 61.7855C28.014 61.6587 28.0269 61.5216 28.0889 61.4043C28.151 61.2871 28.2571 61.1992 28.3839 61.1602L36.3211 58.5395L26.0748 61.4685C25.95 61.5014 25.8173 61.4847 25.7045 61.422C25.5918 61.3593 25.5076 61.2554 25.4696 61.1321C25.4317 61.0087 25.4429 60.8755 25.5009 60.7602C25.5589 60.6449 25.6593 60.5566 25.781 60.5136L36.9872 56.8054L23.1845 60.7469C23.1217 60.766 23.0557 60.7726 22.9903 60.7662C22.9249 60.7598 22.8614 60.7406 22.8034 60.7097C22.7454 60.6787 22.6941 60.6367 22.6524 60.5859C22.6107 60.5352 22.5794 60.4767 22.5603 60.4138C22.5411 60.351 22.5346 60.2849 22.541 60.2195C22.5474 60.1542 22.5666 60.0907 22.5975 60.0327C22.6284 59.9747 22.6705 59.9234 22.7213 59.8817C22.772 59.84 22.8305 59.8087 22.8934 59.7895L31.597 56.9897L20.6619 60.1174C20.5359 60.1533 20.4008 60.1383 20.2857 60.0756C20.1706 60.013 20.0847 59.9076 20.0465 59.7822C20.0083 59.6569 20.0209 59.5216 20.0815 59.4054C20.1421 59.2892 20.2458 59.2014 20.3705 59.1609L35.2283 54.3115L17.5905 59.3493C17.4647 59.3838 17.3305 59.3678 17.2164 59.3048C17.1023 59.2417 17.0173 59.1366 16.9796 59.0118C16.9419 58.887 16.9544 58.7524 17.0145 58.6367C17.0746 58.521 17.1775 58.4334 17.3012 58.3924L31.5026 53.8384L14.7206 58.6328C14.5936 58.6713 14.4566 58.6578 14.3397 58.5953C14.2227 58.5327 14.1354 58.4263 14.0969 58.2994C14.0584 58.1724 14.0719 58.0354 14.1345 57.9184C14.197 57.8015 14.3034 57.7142 14.4304 57.6757L31.0751 52.3593L11.7216 57.884C11.5961 57.9173 11.4626 57.9005 11.3492 57.8372C11.2359 57.7738 11.1516 57.6688 11.1143 57.5444C11.077 57.42 11.0896 57.2859 11.1494 57.1706C11.2091 57.0553 11.3114 56.9678 11.4346 56.9266L28.5647 51.5039L8.78771 57.1514C8.66056 57.1892 8.52363 57.1749 8.40703 57.1117C8.29043 57.0484 8.20372 56.9415 8.16597 56.8143C8.12823 56.6872 8.14254 56.5502 8.20576 56.4336C8.26898 56.3171 8.37593 56.2303 8.50308 56.1926L16.2105 53.8185L6.52239 56.5853C6.43805 56.61 6.34864 56.6118 6.26336 56.5905Z" fill="white"/>
<path d="M34.3243 24.4126C34.2199 24.3863 34.1267 24.3269 34.0587 24.2434C33.9908 24.1599 33.9516 24.0566 33.947 23.949C33.9424 23.8414 33.9727 23.7352 34.0334 23.6462C34.0941 23.5572 34.1818 23.4902 34.2837 23.4551L35.2141 23.1355L32.5457 23.8951C32.4231 23.9266 32.2931 23.9104 32.182 23.8498C32.0708 23.7891 31.9868 23.6886 31.9469 23.5685C31.907 23.4483 31.9141 23.3175 31.9669 23.2024C32.0197 23.0873 32.1142 22.9966 32.2313 22.9484L39.046 20.3684L29.4202 23.1126C29.2969 23.1441 29.1662 23.1274 29.0548 23.0659C28.9434 23.0044 28.8596 22.9028 28.8205 22.7817C28.7814 22.6605 28.79 22.5291 28.8445 22.4141C28.899 22.2991 28.9953 22.2091 29.1138 22.1627L33.4281 20.6142L26.8903 22.4791C26.7673 22.513 26.6361 22.4986 26.5233 22.4389C26.4106 22.3792 26.325 22.2787 26.284 22.1579C26.2429 22.0371 26.2496 21.9052 26.3027 21.7892C26.3557 21.6732 26.4511 21.5818 26.5693 21.5338L34.3885 18.4703L23.4049 21.6064C23.2819 21.6392 23.151 21.6238 23.0389 21.5634C22.9269 21.5029 22.8421 21.4021 22.8018 21.2813C22.7616 21.1605 22.7689 21.0289 22.8224 20.9133C22.8759 20.7978 22.9714 20.707 23.0895 20.6594L29.9462 18.0559L20.2658 20.8204C20.1428 20.8543 20.0116 20.8399 19.8988 20.7802C19.7861 20.7205 19.7005 20.62 19.6595 20.4992C19.6184 20.3784 19.6251 20.2465 19.6782 20.1305C19.7312 20.0145 19.8266 19.9231 19.9448 19.8751L27.9283 16.7197L16.7047 19.9288C16.5819 19.9618 16.4511 19.9468 16.3389 19.8868C16.2267 19.8267 16.1417 19.7262 16.101 19.6057C16.0604 19.4851 16.0672 19.3536 16.1202 19.2379C16.1731 19.1222 16.2681 19.0311 16.3859 18.983L23.9973 16.021L13.2989 19.076C13.1758 19.1077 13.0452 19.0914 12.9337 19.0303C12.8223 18.9692 12.7382 18.8679 12.6988 18.7471C12.6593 18.6262 12.6673 18.4949 12.7213 18.3798C12.7752 18.2646 12.8709 18.1744 12.989 18.1273L18.6212 16.0542L11.8421 17.9896C11.7183 18.0217 11.5868 18.005 11.4749 17.9431C11.363 17.8811 11.279 17.7786 11.2404 17.6567C11.2017 17.5348 11.2112 17.4026 11.267 17.2875C11.3228 17.1724 11.4206 17.083 11.5403 17.0378L12.9539 16.5423L12.3611 16.7114C12.2371 16.7463 12.1044 16.7319 11.9907 16.6713C11.877 16.6107 11.791 16.5085 11.7508 16.3861C11.7106 16.2637 11.7192 16.1305 11.7748 16.0143C11.8304 15.898 11.9288 15.8078 12.0493 15.7623L16.8801 13.9627C16.8065 13.9142 16.747 13.8471 16.7077 13.7682C16.6683 13.6893 16.6506 13.6014 16.6562 13.5134C16.6618 13.4254 16.6905 13.3405 16.7395 13.2672C16.7885 13.1939 16.856 13.1349 16.9352 13.0961L22.2326 10.5114C22.2343 10.4041 22.2705 10.3001 22.3358 10.2149C22.4011 10.1297 22.4922 10.0678 22.5954 10.0384L24.0939 9.61157C24.2144 9.57661 24.3435 9.58818 24.4558 9.64397C24.5681 9.69976 24.6553 9.7957 24.7002 9.91278C24.7451 10.0299 24.7443 10.1595 24.6981 10.2761C24.6519 10.3926 24.5635 10.4876 24.4506 10.5421L22.4755 11.5052L26.7647 10.2834C26.888 10.2509 27.0189 10.2666 27.1309 10.3274C27.2429 10.3882 27.3275 10.4895 27.3673 10.6105C27.4071 10.7316 27.3993 10.8633 27.3453 10.9787C27.2913 11.0941 27.1952 11.1846 27.0768 11.2316L24.3134 12.2592L29.153 10.8814C29.2769 10.8494 29.4083 10.866 29.5202 10.928C29.6322 10.9899 29.7161 11.0924 29.7548 11.2143C29.7935 11.3363 29.7839 11.4684 29.7281 11.5835C29.6723 11.6986 29.5745 11.788 29.4549 11.8332L28.0359 12.3294L31.2561 11.408C31.3796 11.3748 31.5112 11.3903 31.6237 11.4511C31.7362 11.512 31.821 11.6137 31.8609 11.7352C31.9007 11.8568 31.8924 11.989 31.8377 12.1046C31.783 12.2202 31.6861 12.3105 31.5669 12.3569L25.9415 14.4275L34.0644 12.1111C34.188 12.0759 34.3205 12.0896 34.4343 12.1495C34.548 12.2093 34.6344 12.3107 34.6754 12.4325C34.7164 12.5543 34.7089 12.6873 34.6544 12.8037C34.6 12.9202 34.5028 13.0112 34.383 13.0579L26.7685 16.016L37.4722 12.9644C37.5952 12.9305 37.7265 12.9449 37.8392 13.0046C37.9519 13.0643 38.0375 13.1648 38.0786 13.2856C38.1196 13.4064 38.1129 13.5383 38.0598 13.6543C38.0068 13.7703 37.9114 13.8617 37.7932 13.9097L29.8107 17.0653L41.0367 13.8507C41.1604 13.8155 41.293 13.8293 41.4068 13.8892C41.5206 13.9492 41.6069 14.0508 41.6477 14.1728C41.6887 14.2951 41.6808 14.4285 41.6256 14.5452C41.5705 14.6618 41.4724 14.7526 41.3519 14.7986L34.4932 17.4017L44.177 14.636C44.3003 14.6014 44.4321 14.6155 44.5453 14.6753C44.6585 14.7351 44.7445 14.836 44.7855 14.9573C44.8265 15.0786 44.8194 15.211 44.7657 15.3272C44.712 15.4434 44.6157 15.5346 44.4968 15.582L36.6824 18.6426L47.6685 15.505C47.7918 15.4735 47.9224 15.4902 48.0339 15.5516C48.1453 15.6131 48.2291 15.7148 48.2682 15.8359C48.3073 15.957 48.2987 16.0885 48.2442 16.2035C48.1897 16.3185 48.0934 16.4084 47.9749 16.4549L43.6541 18.009L50.1945 16.1416C50.3178 16.1083 50.4492 16.1234 50.5618 16.1839C50.6743 16.2444 50.7594 16.3456 50.7996 16.4669C50.8399 16.5882 50.8321 16.7203 50.778 16.836C50.7239 16.9518 50.6275 17.0424 50.5087 17.0893L43.6942 19.6766L53.319 16.9322C53.4428 16.901 53.5738 16.9182 53.6852 16.9805C53.7966 17.0427 53.88 17.1452 53.9183 17.2669C53.9566 17.3887 53.947 17.5204 53.8912 17.6353C53.8355 17.7501 53.738 17.8393 53.6187 17.8845L52.688 18.2051L55.3532 17.4415C55.4773 17.4067 55.61 17.4211 55.7237 17.4817C55.8374 17.5423 55.9233 17.6444 55.9635 17.7669C56.0037 17.8893 55.9951 18.0225 55.9395 18.1387C55.8839 18.2549 55.7856 18.3452 55.665 18.3907L49.5268 20.6732L58.2901 18.1666C58.4136 18.1352 58.5444 18.1522 58.6558 18.2141C58.7672 18.2759 58.8508 18.378 58.8895 18.4994C58.9282 18.6208 58.9191 18.7524 58.864 18.8673C58.8089 18.9823 58.712 19.0718 58.5931 19.1177L55.6734 20.1442L60.4838 18.7715C60.6064 18.739 60.7367 18.7542 60.8485 18.8142C60.9603 18.8741 61.0451 18.9743 61.0857 19.0944C61.1264 19.2145 61.1199 19.3456 61.0676 19.4611C61.0153 19.5766 60.921 19.6679 60.8039 19.7166L53.0055 22.7833L61.5257 20.3499C61.6474 20.3174 61.777 20.3322 61.8883 20.3911C61.9997 20.4501 62.0847 20.549 62.1263 20.6679C62.1679 20.7868 62.1631 20.9171 62.1128 21.0326C62.0624 21.1482 61.9704 21.2405 61.8549 21.291L54.8705 24.2069L62.6133 21.9963C62.7378 21.9605 62.8713 21.9743 62.9858 22.035C63.1003 22.0956 63.1867 22.1983 63.227 22.3214C63.2672 22.4445 63.2582 22.5785 63.2016 22.695C63.1451 22.8116 63.0455 22.9016 62.9239 22.9462L61.6109 23.4308L63.2499 22.9619C63.3741 22.9259 63.5074 22.9395 63.6219 22.9998C63.7363 23.06 63.8229 23.1623 63.8635 23.2851C63.9042 23.4078 63.8957 23.5416 63.8398 23.6582C63.7839 23.7748 63.685 23.8653 63.5639 23.9105L62.5118 24.3079L63.8806 23.9177C64.0006 23.8846 64.1287 23.8974 64.2398 23.9537C64.3508 24.01 64.4369 24.1057 64.4811 24.2221C64.5253 24.3385 64.5245 24.4672 64.4788 24.5831C64.4331 24.6989 64.3459 24.7935 64.2341 24.8484L60.0548 26.8544L64.9026 25.4683C65.0255 25.4332 65.1573 25.4465 65.2707 25.5055C65.3842 25.5645 65.4707 25.6647 65.5125 25.7855C65.5544 25.9064 65.5483 26.0386 65.4956 26.1552C65.4429 26.2717 65.3475 26.3636 65.2292 26.4119L65.0863 26.4761L65.4882 26.3613C65.604 26.3275 65.728 26.3367 65.8376 26.3871C65.9471 26.4376 66.0347 26.5259 66.0842 26.6358C66.1338 26.7458 66.1419 26.8699 66.1072 26.9854C66.0724 27.1008 65.9971 27.1999 65.8951 27.2642L63.2758 28.9309L66.5645 27.9916C66.6723 27.9607 66.7873 27.9671 66.8911 28.0095C66.9949 28.0519 67.0814 28.128 67.1368 28.2256C67.1923 28.3231 67.2134 28.4365 67.1966 28.5475C67.1799 28.6585 67.1262 28.7606 67.0444 28.8375L65.5732 30.2216L67.6349 29.6327C67.7387 29.602 67.8496 29.6057 67.951 29.6434C68.0524 29.681 68.1389 29.7506 68.1974 29.8416C68.256 29.9325 68.2834 30.0401 68.2757 30.148C68.2679 30.2559 68.2253 30.3584 68.1544 30.44L67.6871 30.9807C67.8078 30.9798 67.9248 31.0226 68.0164 31.1012C68.108 31.1799 68.1681 31.289 68.1856 31.4084C68.203 31.5279 68.1767 31.6496 68.1114 31.7512C68.0461 31.8527 67.9462 31.9272 67.8303 31.9609L66.3778 32.3765C66.2741 32.4073 66.1632 32.4035 66.0618 32.3659C65.9603 32.3282 65.8739 32.2587 65.8153 32.1677C65.7568 32.0767 65.7293 31.9692 65.7371 31.8613C65.7449 31.7533 65.7874 31.6509 65.8584 31.5692L66.3043 31.052L63.8625 31.7467C63.7552 31.7766 63.6411 31.7699 63.5381 31.7276C63.4351 31.6852 63.3492 31.6097 63.294 31.5131C63.2388 31.4164 63.2174 31.304 63.2333 31.1938C63.2492 31.0836 63.3013 30.9819 63.3816 30.9047L64.8601 29.5121L60.2437 30.8303C60.1284 30.8627 60.0054 30.8527 59.8969 30.8021C59.7883 30.7514 59.7016 30.6635 59.6524 30.5544C59.6033 30.4452 59.5949 30.322 59.6289 30.2072C59.6628 30.0923 59.7369 29.9935 59.8375 29.9287L62.4583 28.2603L56.6273 29.9248C56.5044 29.96 56.3726 29.9467 56.2592 29.8877C56.1457 29.8287 56.0592 29.7285 56.0174 29.6076C55.9755 29.4868 55.9816 29.3545 56.0343 29.238C56.087 29.1215 56.1824 29.0296 56.3007 28.9813L56.4373 28.9258L54.661 29.4325C54.5407 29.4666 54.412 29.4545 54.3002 29.3983C54.1885 29.3422 54.1018 29.2463 54.0573 29.1294C54.0128 29.0125 54.0137 28.8832 54.0598 28.767C54.106 28.6508 54.194 28.556 54.3065 28.5015L58.4871 26.4948L51.2203 28.571C51.0969 28.6043 50.9655 28.5892 50.8529 28.5287C50.7404 28.4682 50.6553 28.367 50.6151 28.2457C50.5749 28.1244 50.5826 27.9923 50.6367 27.8766C50.6908 27.7608 50.7872 27.6702 50.906 27.6233L51.9593 27.2252L49.1046 28.0412C48.981 28.0744 48.8495 28.0589 48.737 27.9981C48.6245 27.9372 48.5396 27.8355 48.4998 27.714C48.46 27.5924 48.4683 27.4602 48.5229 27.3446C48.5776 27.229 48.6745 27.1387 48.7937 27.0923L50.1 26.6102L46.9617 27.5047C46.8396 27.5383 46.7093 27.5243 46.597 27.4656C46.4848 27.4068 46.3991 27.3077 46.3572 27.1881C46.3152 27.0686 46.3202 26.9376 46.3712 26.8216C46.4221 26.7057 46.5151 26.6133 46.6315 26.5633L53.6185 23.645L43.3075 26.5897C43.1849 26.6223 43.0546 26.607 42.9428 26.5471C42.8311 26.4872 42.7463 26.387 42.7056 26.2669C42.6649 26.1468 42.6714 26.0157 42.7237 25.9002C42.7761 25.7846 42.8703 25.6933 42.9875 25.6447L50.789 22.5778L39.8076 25.7134C39.684 25.7448 39.5532 25.7278 39.4418 25.6659C39.3304 25.6041 39.2468 25.502 39.2081 25.3806C39.1694 25.2592 39.1785 25.1276 39.2336 25.0126C39.2887 24.8977 39.3856 24.8082 39.5045 24.7623L42.4153 23.7386L37.5134 25.139C37.3902 25.1715 37.2592 25.1557 37.1472 25.0949C37.0352 25.0341 36.9507 24.9329 36.9108 24.8118C36.871 24.6908 36.8789 24.5591 36.9329 24.4437C36.9869 24.3282 37.0829 24.2378 37.2013 24.1908L43.34 21.9064L34.5838 24.4054C34.4995 24.4306 34.4099 24.4331 34.3243 24.4126Z" fill="#FFCE48"/>
<path d="M49.7503 70.5407C49.6511 70.5159 49.5619 70.4613 49.4948 70.3842C49.4276 70.3072 49.3857 70.2114 49.3746 70.1098C49.3635 70.0082 49.3839 69.9056 49.4329 69.8159C49.4819 69.7262 49.5572 69.6537 49.6487 69.6081L50.2372 69.3163L47.8534 69.9936C47.7338 70.0269 47.606 70.0145 47.4951 69.9588C47.3841 69.9032 47.2978 69.8082 47.253 69.6924C47.2082 69.5767 47.208 69.4484 47.2526 69.3325C47.2971 69.2166 47.3832 69.1214 47.494 69.0655L47.9998 68.8159L45.7318 69.4624C45.6181 69.4939 45.4968 69.4841 45.3896 69.4348C45.2823 69.3855 45.1959 69.2998 45.1458 69.1929C45.0956 69.086 45.0849 68.9649 45.1155 68.8508C45.1462 68.7368 45.2161 68.6373 45.3131 68.5699L47.1092 67.3456L42.5151 68.657C42.4029 68.689 42.283 68.6807 42.1763 68.6336C42.0695 68.5865 41.9826 68.5036 41.9305 68.3991C41.8785 68.2947 41.8646 68.1753 41.8913 68.0617C41.918 67.9481 41.9836 67.8475 42.0767 67.7771L43.9724 66.3529L38.9919 67.7748C38.8772 67.8066 38.7549 67.7965 38.647 67.7463C38.5391 67.696 38.4527 67.6089 38.4033 67.5006C38.3539 67.3923 38.3447 67.27 38.3774 67.1555C38.4102 67.0411 38.4827 66.9421 38.5819 66.8763L40.306 65.7545L35.9197 67.0056C35.8024 67.0398 35.6765 67.0298 35.566 66.9775C35.4555 66.9253 35.368 66.8343 35.32 66.7219C35.272 66.6095 35.2668 66.4834 35.3055 66.3674C35.3442 66.2514 35.424 66.1536 35.5298 66.0925L36.9458 65.2708L33.2288 66.3318C33.1152 66.3634 32.9941 66.3538 32.8869 66.3048C32.7796 66.2557 32.6932 66.1704 32.6428 66.0638C32.5924 65.9572 32.5813 65.8362 32.6115 65.7222C32.6416 65.6082 32.7111 65.5085 32.8076 65.4408L34.6208 64.1897L29.9743 65.5169C29.8568 65.5479 29.7321 65.535 29.6235 65.4807C29.5148 65.4265 29.4296 65.3345 29.3838 65.2221C29.338 65.1096 29.3347 64.9843 29.3745 64.8695C29.4143 64.7548 29.4945 64.6585 29.6001 64.5985L30.6549 64.0379L27.5637 64.9133C27.4507 64.9453 27.33 64.9365 27.2229 64.8885C27.1157 64.8404 27.0289 64.7561 26.9776 64.6504C26.9263 64.5448 26.9139 64.4244 26.9425 64.3105C26.9711 64.1966 27.0389 64.0964 27.134 64.0274L28.9974 62.6828L24.1646 64.0623C24.0534 64.0939 23.9346 64.0861 23.8285 64.04C23.7224 63.9939 23.6355 63.9124 23.5828 63.8094C23.53 63.7065 23.5145 63.5884 23.5391 63.4754C23.5636 63.3623 23.6265 63.2613 23.7172 63.1894L25.6314 61.6791L20.4988 63.1444C20.38 63.1769 20.2534 63.1644 20.1432 63.1093C20.033 63.0543 19.9471 62.9605 19.9018 62.8459C19.8565 62.7314 19.8551 62.6041 19.8979 62.4886C19.9406 62.3731 20.0245 62.2774 20.1334 62.2199L20.9116 61.821L18.2473 62.5806C18.1285 62.6132 18.0019 62.6007 17.8917 62.5456C17.7815 62.4905 17.6956 62.3967 17.6503 62.2822C17.605 62.1676 17.6036 62.0404 17.6464 61.9249C17.6891 61.8094 17.773 61.7137 17.8819 61.6562L18.6722 61.25L15.9909 62.0157C15.8749 62.0468 15.7515 62.0351 15.6434 61.9826C15.5352 61.9302 15.4496 61.8406 15.4021 61.7302C15.3547 61.6198 15.3486 61.496 15.3849 61.3815C15.4213 61.267 15.4976 61.1693 15.6001 61.1065L17.1019 60.2136L13.2166 61.321C13.1041 61.3528 12.9841 61.3442 12.8774 61.2966C12.7706 61.2491 12.6839 61.1657 12.6322 61.0609C12.5805 60.9561 12.5672 60.8365 12.5945 60.7229C12.6219 60.6093 12.6881 60.5088 12.7818 60.439L14.6656 59.0458L9.74089 60.4508C9.63026 60.4819 9.51229 60.4739 9.40683 60.4283C9.30137 60.3826 9.21487 60.302 9.16186 60.2C9.10886 60.0981 9.0926 59.9809 9.11582 59.8684C9.13904 59.7558 9.20033 59.6547 9.28936 59.5821L11.2149 58.022L5.9926 59.5122C5.8768 59.5446 5.75321 59.5342 5.64446 59.4829C5.53572 59.4316 5.44911 59.3428 5.4005 59.2329C5.35189 59.1229 5.34455 58.9991 5.37981 58.8841C5.41507 58.7691 5.49058 58.6707 5.5925 58.6069L7.19456 57.6185L3.09892 58.7877C2.98013 58.8202 2.85351 58.8077 2.74334 58.7527C2.63318 58.6976 2.54722 58.6038 2.50194 58.4892C2.45667 58.3747 2.45526 58.2475 2.49799 58.132C2.54073 58.0164 2.62459 57.9208 2.73352 57.8633L3.53112 57.4527L1.82592 57.9432C1.71085 57.9757 1.58797 57.9658 1.47954 57.9154C1.37112 57.865 1.28434 57.7775 1.23492 57.6686C1.18551 57.5598 1.17674 57.4368 1.21021 57.322C1.24367 57.2072 1.31715 57.1083 1.41733 57.043L2.54223 56.3134L2.0804 56.4452C1.97302 56.4755 1.85858 56.4691 1.75529 56.4269C1.65199 56.3847 1.56578 56.3092 1.51037 56.2123C1.45496 56.1155 1.43354 56.0029 1.44952 55.8924C1.4655 55.782 1.51795 55.6801 1.59854 55.6029L2.02846 55.1951C1.94721 55.1434 1.88261 55.0694 1.84242 54.9819C1.80222 54.8944 1.78815 54.7972 1.80189 54.7019C1.81563 54.6066 1.85659 54.5172 1.91986 54.4447C1.98313 54.3721 2.06601 54.3193 2.15855 54.2927L3.44752 53.9247C3.55489 53.8944 3.66933 53.9008 3.77263 53.943C3.87592 53.9852 3.96214 54.0607 4.01755 54.1576C4.07296 54.2544 4.09438 54.367 4.0784 54.4775C4.06242 54.5879 4.00996 54.6898 3.92937 54.767L3.76415 54.9246L5.48027 54.4358C5.59505 54.404 5.71743 54.4142 5.82535 54.4646C5.93328 54.515 6.01967 54.6022 6.06897 54.7107C6.11827 54.8191 6.12724 54.9416 6.09426 55.056C6.06129 55.1705 5.98853 55.2694 5.8891 55.335L4.76395 56.0656L8.13918 55.1015C8.25798 55.069 8.3846 55.0815 8.49476 55.1366C8.60493 55.1916 8.69089 55.2854 8.73617 55.4C8.78144 55.5145 8.78285 55.6418 8.74011 55.7573C8.69738 55.8728 8.61351 55.9685 8.50459 56.026L7.70699 56.4365L10.4004 55.6677C10.5162 55.6353 10.6398 55.6457 10.7485 55.697C10.8573 55.7483 10.9439 55.8371 10.9925 55.9471C11.0411 56.0571 11.0484 56.1809 11.0132 56.2958C10.9779 56.4108 10.9024 56.5092 10.8005 56.573L9.19987 57.5598L13.2931 56.392C13.4039 56.3604 13.5222 56.3679 13.628 56.4135C13.7338 56.459 13.8207 56.5396 13.8739 56.6418C13.9271 56.744 13.9434 56.8614 13.92 56.9742C13.8966 57.087 13.835 57.1883 13.7456 57.2609L11.8198 58.8219L17.0433 57.331C17.1556 57.2998 17.2753 57.3088 17.3816 57.3565C17.488 57.4041 17.5744 57.4874 17.6258 57.592C17.6773 57.6966 17.6906 57.8159 17.6634 57.9292C17.6363 58.0426 17.5704 58.1429 17.4771 58.2128L15.5936 59.605L20.5161 58.2005C20.6322 58.1694 20.7556 58.1812 20.8637 58.2336C20.9718 58.286 21.0575 58.3756 21.1049 58.486C21.1524 58.5964 21.1585 58.7202 21.1221 58.8347C21.0858 58.9493 21.0094 59.0469 20.907 59.1097L19.4061 60.0029L23.2914 58.8954C23.4102 58.8629 23.5368 58.8754 23.647 58.9305C23.7572 58.9856 23.8431 59.0794 23.8884 59.1939C23.9337 59.3084 23.9351 59.4357 23.8924 59.5512C23.8496 59.6667 23.7658 59.7624 23.6568 59.8199L22.8643 60.2266L25.5509 59.456C25.6697 59.4235 25.7963 59.436 25.9065 59.4911C26.0167 59.5462 26.1026 59.64 26.1479 59.7545C26.1932 59.869 26.1946 59.9963 26.1519 60.1118C26.1091 60.2273 26.0253 60.323 25.9163 60.3805L25.1381 60.7794L27.7983 60.0239C27.9094 59.9928 28.0279 60.001 28.1336 60.0472C28.2393 60.0935 28.3258 60.1749 28.3784 60.2776C28.4309 60.3803 28.4463 60.4981 28.422 60.6109C28.3976 60.7237 28.335 60.8246 28.2447 60.8965L26.3262 62.4077L31.4632 60.9415C31.5762 60.9095 31.6968 60.9183 31.804 60.9664C31.9112 61.0145 31.998 61.0987 32.0493 61.2044C32.1005 61.3101 32.1129 61.4304 32.0843 61.5444C32.0557 61.6583 31.988 61.7585 31.8929 61.8274L30.0297 63.1711L34.8642 61.7931C34.9816 61.7621 35.1063 61.775 35.215 61.8293C35.3236 61.8835 35.4088 61.9755 35.4546 62.088C35.5005 62.2004 35.5038 62.3257 35.464 62.4405C35.4242 62.5552 35.344 62.6515 35.2383 62.7115L34.1836 63.2721L37.2748 62.3967C37.3884 62.3651 37.5095 62.3746 37.6167 62.4237C37.7239 62.4727 37.8104 62.5581 37.8608 62.6647C37.9112 62.7713 37.9223 62.8923 37.8921 63.0063C37.862 63.1203 37.7925 63.2199 37.696 63.2877L35.8828 64.5387L40.5303 63.2118C40.6476 63.1776 40.7735 63.1876 40.884 63.2398C40.9945 63.2921 41.082 63.383 41.13 63.4955C41.178 63.6079 41.1832 63.734 41.1445 63.85C41.1059 63.9659 41.026 64.0637 40.9202 64.1249L39.5027 64.9441L43.2222 63.8858C43.3369 63.854 43.4591 63.8641 43.567 63.9144C43.6749 63.9646 43.7614 64.0517 43.8108 64.16C43.8602 64.2683 43.8694 64.3907 43.8366 64.5051C43.8039 64.6195 43.7314 64.7185 43.6322 64.7843L41.9079 65.9071L46.2934 64.6548C46.4056 64.6228 46.5255 64.6311 46.6322 64.6782C46.739 64.7252 46.8259 64.8082 46.878 64.9126C46.93 65.0171 46.9439 65.1364 46.9172 65.25C46.8905 65.3636 46.8249 65.4643 46.7318 65.5346L44.8361 66.9588L49.8185 65.5375C49.9323 65.506 50.0536 65.5157 50.1608 65.5651C50.2681 65.6144 50.3544 65.7001 50.4046 65.8069C50.4547 65.9138 50.4655 66.035 50.4348 66.149C50.4042 66.263 50.3343 66.3625 50.2373 66.4299L48.4411 67.6543L53.0323 66.3421C53.1519 66.3089 53.2796 66.3212 53.3906 66.3769C53.5016 66.4326 53.5879 66.5275 53.6327 66.6433C53.6775 66.7591 53.6777 66.8874 53.6331 67.0033C53.5886 67.1191 53.5025 67.2143 53.3917 67.2702L52.8847 67.5206L55.1538 66.8733C55.2733 66.8402 55.4007 66.8526 55.5115 66.9082C55.6223 66.9637 55.7085 67.0585 55.7535 67.174C55.7984 67.2895 55.7988 67.4176 55.7546 67.5334C55.7104 67.6492 55.6248 67.7444 55.5144 67.8007L54.9259 68.0925L57.3112 67.4135C57.4272 67.3804 57.5513 67.3904 57.6605 67.4415C57.7697 67.4926 57.8568 67.5816 57.9057 67.6918C57.9545 67.8021 57.9618 67.9263 57.9263 68.0416C57.8908 68.1569 57.8148 68.2554 57.7123 68.3191L56.0981 69.3189L58.2181 68.7158C58.3207 68.6868 58.4298 68.6914 58.5296 68.7288C58.6294 68.7662 58.7146 68.8346 58.7728 68.9239C58.831 69.0131 58.8592 69.1187 58.8532 69.2251C58.8472 69.3315 58.8074 69.4332 58.7395 69.5154L57.7187 70.7432C57.8434 70.7205 57.9721 70.7461 58.0787 70.8147C58.1853 70.8833 58.2618 70.9898 58.2929 71.1127C58.3239 71.2356 58.3071 71.3657 58.2459 71.4767C58.1847 71.5876 58.0836 71.6712 57.9631 71.7105L56.4354 72.1465C56.3329 72.1755 56.2237 72.1709 56.1239 72.1335C56.0241 72.0961 55.9389 72.0277 55.8807 71.9385C55.8225 71.8492 55.7943 71.7437 55.8003 71.6372C55.8063 71.5308 55.8461 71.4291 55.914 71.3469L56.9334 70.1208L52.9209 71.2624C52.8051 71.2948 52.6815 71.2844 52.5728 71.2331C52.464 71.1818 52.3774 71.093 52.3288 70.9831C52.2802 70.8731 52.2729 70.7493 52.3081 70.6343C52.3434 70.5193 52.4189 70.4209 52.5208 70.3571L54.1365 69.3556L50.0108 70.5338C49.9261 70.5594 49.8361 70.5618 49.7503 70.5407Z" fill="#ECD9A4"/>
<path d="M15.4453 53.7043C15.3414 53.6783 15.2485 53.6196 15.1805 53.5368C15.1124 53.454 15.0727 53.3515 15.0673 53.2445C15.0619 53.1375 15.091 53.0316 15.1504 52.9423C15.2097 52.8531 15.2961 52.7853 15.3969 52.7489L24.714 49.3852L12.4571 52.8839C12.3334 52.9169 12.2017 52.9011 12.0892 52.8399C11.9767 52.7786 11.8921 52.6766 11.8526 52.5547C11.8132 52.4329 11.822 52.3005 11.8773 52.185C11.9326 52.0695 12.0301 51.9795 12.1497 51.9338L25.2624 47.1989L10.7847 51.3374C10.6594 51.3714 10.5257 51.3554 10.412 51.2927C10.2983 51.2299 10.2135 51.1254 10.1754 51.0013C10.1374 50.8771 10.1492 50.743 10.2083 50.6274C10.2674 50.5117 10.3691 50.4236 10.492 50.3817L15.322 48.7953L10.8967 50.0583C10.773 50.0895 10.642 50.0723 10.5305 50.01C10.4191 49.9478 10.3357 49.8453 10.2974 49.7236C10.2591 49.6018 10.2688 49.4701 10.3245 49.3552C10.3802 49.2404 10.4777 49.1512 10.597 49.106L21.9341 45.2089L11.3545 48.2297C11.2306 48.2609 11.0993 48.2434 10.9879 48.1808C10.8764 48.1182 10.7931 48.0153 10.7552 47.8932C10.7173 47.7711 10.7276 47.6391 10.7839 47.5244C10.8403 47.4096 10.9385 47.3208 11.0583 47.2762L19.7045 44.3682L11.7483 46.6408C11.6234 46.6755 11.49 46.6605 11.376 46.5988C11.2621 46.5371 11.1766 46.4335 11.1375 46.31C11.0983 46.1865 11.1087 46.0526 11.1664 45.9365C11.2241 45.8205 11.3246 45.7314 11.4467 45.688L24.4657 41.1379L12.2528 44.626C12.1291 44.6581 11.9979 44.6417 11.886 44.5802C11.774 44.5186 11.6899 44.4166 11.6509 44.2949C11.6118 44.1733 11.6208 44.0414 11.6759 43.9261C11.7311 43.8109 11.8283 43.7212 11.9475 43.6754L26.3994 38.5408L12.8046 42.422C12.6802 42.4539 12.5483 42.4368 12.4363 42.3741C12.3242 42.3115 12.2405 42.2081 12.2026 42.0854C12.1647 41.9628 12.1754 41.8302 12.2325 41.7152C12.2897 41.6002 12.3889 41.5116 12.5095 41.4678L19.2315 39.2336L13.1694 40.965C13.0454 40.9979 12.9136 40.9818 12.8011 40.9202C12.6886 40.8586 12.6041 40.7561 12.5651 40.6339C12.526 40.5117 12.5354 40.3792 12.5913 40.2638C12.6472 40.1483 12.7453 40.0588 12.8654 40.0137L25.4146 35.5573L13.6843 38.9085C13.5588 38.9437 13.4244 38.9286 13.3099 38.8662C13.1954 38.8038 13.1098 38.6992 13.0714 38.5746C13.0329 38.45 13.0446 38.3153 13.1041 38.1992C13.1635 38.0831 13.2659 37.9949 13.3895 37.9533L16.1635 37.0314L13.9999 37.6484C13.8756 37.6843 13.7423 37.6707 13.6279 37.6105C13.5134 37.5502 13.4268 37.448 13.3862 37.3252C13.3456 37.2024 13.3541 37.0687 13.4099 36.952C13.4658 36.8354 13.5647 36.745 13.6859 36.6997L23.3896 33.0349L14.5211 35.5666C14.3981 35.6018 14.2664 35.5885 14.1529 35.5295C14.0395 35.4705 13.9529 35.3703 13.9111 35.2495C13.8693 35.1286 13.8754 34.9963 13.9281 34.8798C13.9808 34.7633 14.0761 34.6714 14.1945 34.6231L22.4148 31.263L15.0734 33.3607C14.9499 33.3939 14.8183 33.3784 14.7058 33.3176C14.5934 33.2567 14.5085 33.155 14.4687 33.0335C14.4288 32.9119 14.4371 32.7797 14.4918 32.6641C14.5465 32.5485 14.6434 32.4582 14.7626 32.4118L16.5105 31.7629L15.3938 32.0812C15.2729 32.1136 15.1443 32.0994 15.0334 32.0415C14.9224 31.9837 14.8372 31.8863 14.7945 31.7687C14.7519 31.6511 14.7549 31.5217 14.8029 31.4062C14.851 31.2907 14.9406 31.1974 15.0541 31.1447L18.9904 29.3933L15.8417 30.2925C15.7242 30.3234 15.5995 30.3105 15.4909 30.2563C15.3822 30.202 15.297 30.1101 15.2512 29.9976C15.2054 29.8851 15.2021 29.7598 15.2419 29.6451C15.2817 29.5303 15.3619 29.434 15.4675 29.3741L18.1697 27.924L16.3015 28.4561C16.1955 28.4861 16.0827 28.4802 15.9805 28.4394C15.8782 28.3987 15.7923 28.3254 15.736 28.2308C15.6796 28.1362 15.6561 28.0257 15.669 27.9164C15.6819 27.8071 15.7305 27.7051 15.8072 27.6262L17.1693 26.2375L17.1494 26.2428C17.0241 26.2731 16.8919 26.2537 16.7805 26.1887C16.669 26.1238 16.587 26.0183 16.5515 25.8943C16.516 25.7704 16.5298 25.6375 16.59 25.5234C16.6502 25.4094 16.7521 25.323 16.8745 25.2823L18.7131 24.7613C18.819 24.7313 18.9319 24.7372 19.0341 24.778C19.1364 24.8187 19.2223 24.892 19.2786 24.9866C19.3349 25.0812 19.3585 25.1917 19.3456 25.301C19.3327 25.4103 19.2841 25.5123 19.2073 25.5912L17.8452 26.9799L22.3969 25.6816C22.5143 25.6506 22.639 25.6635 22.7477 25.7177C22.8563 25.772 22.9415 25.8639 22.9874 25.9764C23.0332 26.0889 23.0365 26.2142 22.9967 26.3289C22.9569 26.4437 22.8767 26.54 22.771 26.5999L20.0692 28.045L25.5714 26.4744C25.6926 26.441 25.8219 26.4544 25.9336 26.5121C26.0453 26.5697 26.1312 26.6674 26.1742 26.7855C26.2171 26.9036 26.214 27.0336 26.1654 27.1496C26.1169 27.2655 26.0264 27.3589 25.9121 27.4112L21.9751 29.1613L28.6688 27.2499C28.792 27.2174 28.923 27.2331 29.035 27.2939C29.147 27.3547 29.2315 27.456 29.2714 27.577C29.3112 27.6981 29.3033 27.8298 29.2493 27.9452C29.1953 28.0606 29.0993 28.1511 28.9808 28.1981L27.2285 28.852L30.8825 27.8083C31.005 27.7746 31.1357 27.7888 31.2482 27.848C31.3606 27.9073 31.4462 28.0071 31.4877 28.1272C31.5292 28.2474 31.5233 28.3788 31.4714 28.4947C31.4195 28.6107 31.3253 28.7026 31.2081 28.7516L22.9912 32.1104L34.7045 28.7653C34.8278 28.7319 34.9592 28.747 35.0718 28.8075C35.1843 28.868 35.2694 28.9693 35.3096 29.0906C35.3498 29.2118 35.3421 29.3439 35.288 29.4597C35.2339 29.5754 35.1375 29.666 35.0187 29.713L25.3147 33.3788L38.3053 29.6669C38.4297 29.6349 38.5616 29.6521 38.6736 29.7147C38.7857 29.7774 38.8694 29.8808 38.9073 30.0035C38.9453 30.1261 38.9345 30.2587 38.8774 30.3737C38.8202 30.4887 38.7211 30.5773 38.6004 30.6211L35.8385 31.5398L40.4183 30.232C40.5419 30.1999 40.6732 30.2163 40.7851 30.2778C40.897 30.3394 40.9812 30.4414 41.0202 30.5631C41.0593 30.6847 41.0503 30.8166 40.9951 30.9318C40.94 31.0471 40.8428 31.1368 40.7236 31.1826L28.1744 35.639L41.5618 31.8162C41.6862 31.7843 41.818 31.8014 41.9301 31.8641C42.0422 31.9267 42.1259 32.0301 42.1638 32.1528C42.2017 32.2755 42.191 32.408 42.1339 32.523C42.0767 32.638 41.9775 32.7266 41.8568 32.7704L35.1397 35.0059L41.3306 33.2376C41.4552 33.2029 41.5883 33.2178 41.7021 33.2791C41.8159 33.3405 41.9015 33.4435 41.941 33.5666C41.9805 33.6898 41.9707 33.8234 41.9138 33.9395C41.8568 34.0555 41.7571 34.145 41.6356 34.1892L27.1832 39.3216L40.778 35.4404C40.9019 35.4083 41.0333 35.425 41.1453 35.4869C41.2572 35.5489 41.3411 35.6514 41.3798 35.7733C41.4185 35.8952 41.4089 36.0274 41.3532 36.1425C41.2974 36.2576 41.1996 36.347 41.0799 36.3922L28.0614 40.9403L40.2743 37.4523C40.3983 37.4211 40.5295 37.4386 40.641 37.5012C40.7524 37.5638 40.8357 37.6667 40.8736 37.7888C40.9116 37.9109 40.9013 38.0429 40.8449 38.1576C40.7886 38.2724 40.6904 38.3612 40.5706 38.4058L31.9243 41.3138L39.8762 39.0422C40.0009 39.0085 40.1337 39.0243 40.247 39.0863C40.3602 39.1483 40.4451 39.2518 40.4838 39.375C40.5225 39.4982 40.512 39.6316 40.4546 39.7472C40.3971 39.8629 40.2972 39.9518 40.1756 39.9954L28.8315 43.8918L39.4179 40.8727C39.5432 40.8386 39.6768 40.8546 39.7905 40.9174C39.9042 40.9801 39.9891 41.0846 40.0271 41.2088C40.0651 41.3329 40.0533 41.467 39.9943 41.5827C39.9352 41.6983 39.8334 41.7864 39.7105 41.8284L34.9 43.4072L39.0824 42.2123C39.2072 42.1765 39.341 42.1905 39.4556 42.2515C39.5701 42.3125 39.6565 42.4157 39.6964 42.5392C39.7363 42.6627 39.7266 42.7969 39.6693 42.9134C39.6121 43.0299 39.5118 43.1195 39.3896 43.1634L26.2723 47.9002L38.5352 44.3978C38.66 44.362 38.7938 44.376 38.9083 44.437C39.0229 44.498 39.1093 44.6012 39.1492 44.7247C39.189 44.8482 39.1793 44.9824 39.1221 45.0989C39.0649 45.2154 38.9646 45.3051 38.8424 45.3489L29.5256 48.7117L38.0657 46.273C38.1883 46.2404 38.3186 46.2557 38.4304 46.3156C38.5421 46.3755 38.6269 46.4757 38.6676 46.5958C38.7083 46.7159 38.7018 46.847 38.6495 46.9625C38.5972 47.0781 38.5029 47.1694 38.3858 47.218L29.2409 50.8042L37.5233 48.4391C37.646 48.4045 37.7772 48.4181 37.8902 48.477C38.0032 48.5359 38.0895 48.6358 38.1313 48.7561C38.1732 48.8765 38.1675 49.0083 38.1154 49.1246C38.0633 49.2409 37.9688 49.333 37.8512 49.3819L31.2433 52.0993L37.0162 50.4522C37.1367 50.4191 37.2652 50.4324 37.3764 50.4893C37.4876 50.5463 37.5734 50.6428 37.6171 50.7598C37.6607 50.8769 37.6589 51.0061 37.612 51.1219C37.5652 51.2377 37.4766 51.3318 37.3639 51.3856L32.3954 53.6898L36.5027 52.5194C36.6187 52.487 36.7426 52.4975 36.8514 52.5491C36.9603 52.6006 37.0469 52.6898 37.0952 52.8001C37.1436 52.9104 37.1505 53.0345 37.1147 53.1495C37.079 53.2645 37.0028 53.3627 36.9004 53.4261L33.6567 55.4086L35.9421 54.7541C36.0544 54.7222 36.1744 54.7306 36.2811 54.7778C36.3879 54.8251 36.4748 54.9082 36.5267 55.0127C36.5786 55.1173 36.5923 55.2367 36.5654 55.3503C36.5385 55.4639 36.4727 55.5645 36.3794 55.6347L35.4235 56.352L35.4446 56.346C35.5086 56.3247 35.5762 56.3166 35.6434 56.3221C35.7106 56.3277 35.776 56.3468 35.8357 56.3782C35.8953 56.4097 35.948 56.4529 35.9905 56.5053C36.033 56.5576 36.0645 56.618 36.083 56.6829C36.1016 56.7477 36.1068 56.8156 36.0985 56.8825C36.0901 56.9494 36.0683 57.014 36.0343 57.0722C36.0004 57.1305 35.955 57.1813 35.9009 57.2215C35.8468 57.2618 35.7851 57.2907 35.7195 57.3065L33.0999 58.0526C32.9875 58.0849 32.8673 58.0768 32.7602 58.0296C32.6532 57.9825 32.5661 57.8993 32.514 57.7945C32.4619 57.6898 32.4482 57.5702 32.4751 57.4564C32.5021 57.3426 32.5681 57.2419 32.6617 57.1718L33.6171 56.4564L30.3973 57.3759C30.2811 57.409 30.1568 57.399 30.0475 57.3475C29.9381 57.2961 29.8511 57.2069 29.8024 57.0962C29.7538 56.9856 29.7469 56.8611 29.783 56.7458C29.8191 56.6305 29.8957 56.5321 29.9987 56.4689L33.2409 54.4881L26.5219 56.4055C26.4015 56.4386 26.273 56.4254 26.1618 56.3684C26.0506 56.3115 25.9647 56.215 25.9211 56.0979C25.8775 55.9808 25.8793 55.8517 25.9261 55.7359C25.973 55.62 26.0615 55.526 26.1742 55.4721L31.1425 53.1689L22.9434 55.5095C22.8208 55.5441 22.6895 55.5306 22.5765 55.4716C22.4635 55.4127 22.3773 55.3129 22.3354 55.1925C22.2936 55.0721 22.2993 54.9403 22.3514 54.824C22.4034 54.7077 22.4979 54.6156 22.6156 54.5667L29.2201 51.8505L19.457 54.6366C19.3345 54.6691 19.2041 54.6539 19.0924 54.5939C18.9806 54.534 18.8958 54.4338 18.8551 54.3137C18.8144 54.1936 18.8209 54.0625 18.8733 53.947C18.9256 53.8315 19.0199 53.7402 19.137 53.6916L28.2831 50.1005L15.7049 53.6971C15.6205 53.7223 15.531 53.7248 15.4453 53.7043Z" fill="#7FC3CF"/>
<path d="M41.3915 61.2626C41.2905 61.2374 41.1999 61.1812 41.1323 61.102C41.0648 61.0228 41.0236 60.9245 41.0146 60.8207C41.0057 60.717 41.0293 60.6131 41.0822 60.5234C41.1351 60.4338 41.2147 60.3629 41.3099 60.3206L46.7576 57.9137L40.4297 59.7188C40.3067 59.7541 40.1749 59.7409 40.0614 59.682C39.9479 59.6231 39.8612 59.5229 39.8193 59.4021C39.7774 59.2811 39.7834 59.1487 39.8362 59.0321C39.889 58.9155 39.9845 58.8235 40.1031 58.7752L45.3858 56.6157L40.8863 57.8992C40.7643 57.9333 40.6339 57.9197 40.5215 57.8614C40.4091 57.803 40.3231 57.7042 40.2807 57.5848C40.2383 57.4655 40.2429 57.3345 40.2933 57.2183C40.3438 57.1022 40.4365 57.0095 40.5527 56.959L47.1009 54.1587L41.4173 55.7787C41.2949 55.8128 41.1641 55.799 41.0515 55.7401C40.9389 55.6813 40.853 55.5818 40.8111 55.4619C40.7692 55.3419 40.7745 55.2105 40.826 55.0944C40.8775 54.9783 40.9712 54.8861 41.0882 54.8366L46.771 52.4834L41.8938 53.8754C41.7704 53.9109 41.638 53.8976 41.5241 53.8381C41.4103 53.7787 41.3237 53.6777 41.2823 53.5561C41.2409 53.4345 41.2478 53.3017 41.3018 53.1851C41.3557 53.0685 41.4524 52.9771 41.5718 52.9299L45.8864 51.2197L42.3026 52.2428C42.1796 52.2767 42.0483 52.2624 41.9356 52.2027C41.8229 52.1429 41.7373 52.0424 41.6962 51.9216C41.6552 51.8008 41.6619 51.6689 41.715 51.5529C41.768 51.4369 41.8634 51.3455 41.9816 51.2976L46.2498 49.6077L42.7094 50.618C42.5869 50.6505 42.4565 50.6353 42.3447 50.5754C42.233 50.5154 42.1482 50.4152 42.1075 50.2951C42.0668 50.175 42.0733 50.0439 42.1257 49.9284C42.178 49.8129 42.2723 49.7216 42.3894 49.673L46.3047 48.1369L43.1017 49.0514C42.9784 49.0872 42.8461 49.0742 42.7321 49.0151C42.6182 48.9561 42.5313 48.8555 42.4895 48.7341C42.4476 48.6127 42.4541 48.4799 42.5075 48.3632C42.5609 48.2465 42.6571 48.1548 42.7763 48.107L47.7488 46.0956L43.5406 47.2985C43.4175 47.3346 43.2852 47.3221 43.1711 47.2634C43.057 47.2048 42.9698 47.1045 42.9275 46.9833C42.8853 46.8622 42.8913 46.7294 42.9442 46.6125C42.9971 46.4956 43.0929 46.4036 43.2118 46.3554L48.8094 44.0458L44.0128 45.4127C43.8891 45.4479 43.7567 45.4342 43.6429 45.3744C43.5291 45.3145 43.4428 45.2131 43.4018 45.0913C43.3608 44.9695 43.3683 44.8365 43.4227 44.7201C43.4772 44.6036 43.5744 44.5126 43.6942 44.4659L47.1998 43.1005L44.3909 43.9023C44.2678 43.9371 44.136 43.9234 44.0227 43.864C43.9094 43.8046 43.8232 43.7041 43.7818 43.583C43.7403 43.462 43.7469 43.3296 43.8001 43.2133C43.8533 43.0969 43.9491 43.0054 44.0677 42.9575L48.0653 41.3524L44.7956 42.2862C44.6743 42.3204 44.5445 42.3076 44.4323 42.2502C44.3201 42.1929 44.2337 42.0952 44.1903 41.9769C44.147 41.8585 44.15 41.7282 44.1986 41.6119C44.2473 41.4957 44.338 41.4021 44.4527 41.3499L50.0863 38.8019L45.3285 40.1579C45.205 40.1934 45.0727 40.18 44.9588 40.1206C44.845 40.0611 44.7584 39.9601 44.717 39.8386C44.6756 39.717 44.6825 39.5841 44.7364 39.4675C44.7903 39.3509 44.887 39.2596 45.0065 39.2124L46.232 38.7275L45.6459 38.89C45.5237 38.9245 45.3929 38.9112 45.2801 38.8527C45.1674 38.7943 45.0811 38.6951 45.0387 38.5754C44.9964 38.4556 45.0013 38.3242 45.0523 38.2079C45.1034 38.0916 45.1967 37.9991 45.3135 37.9491L46.8427 37.3011L46.101 37.5133C45.9854 37.5464 45.8618 37.5368 45.7528 37.4862C45.6437 37.4355 45.5566 37.3474 45.5073 37.2377C45.458 37.1281 45.4498 37.0044 45.4843 36.8892C45.5188 36.7741 45.5936 36.6752 45.695 36.6107L48.2529 34.9915C48.1282 35.008 48.0019 34.9769 47.8992 34.9044C47.7964 34.8319 47.7247 34.7234 47.6984 34.6004C47.6721 34.4774 47.6931 34.349 47.7573 34.2408C47.8214 34.1326 47.9239 34.0526 48.0444 34.0167L51.3045 33.0805C51.42 33.0474 51.5436 33.057 51.6527 33.1076C51.7617 33.1582 51.8488 33.2464 51.8981 33.3561C51.9474 33.4657 51.9556 33.5894 51.9211 33.7046C51.8866 33.8197 51.8118 33.9186 51.7104 33.9831L49.1658 35.5943L54.5262 34.0634C54.6486 34.0284 54.7798 34.0414 54.893 34.0999C55.0061 34.1583 55.0927 34.2576 55.1351 34.3777C55.1773 34.4978 55.172 34.6295 55.1205 34.7459C55.0689 34.8623 54.9749 34.9546 54.8576 35.0041L53.3275 35.6518L55.627 34.9905C55.7504 34.955 55.8828 34.9684 55.9966 35.0278C56.1105 35.0873 56.1971 35.1883 56.2385 35.3099C56.2799 35.4315 56.2729 35.5643 56.219 35.6809C56.1651 35.7975 56.0684 35.8888 55.949 35.9361L54.7313 36.4187L56.3545 35.9551C56.4756 35.9212 56.605 35.9342 56.7169 35.9915C56.8289 36.0487 56.9151 36.146 56.9585 36.264C57.0019 36.382 56.9993 36.5121 56.9511 36.6282C56.9029 36.7444 56.8127 36.8381 56.6985 36.8907L51.0582 39.4576L57.0613 37.7434C57.1844 37.7085 57.3162 37.7222 57.4295 37.7816C57.5428 37.841 57.6291 37.9416 57.6705 38.0626C57.7119 38.1837 57.7053 38.316 57.6521 38.4324C57.5989 38.5487 57.5031 38.6403 57.3845 38.6881L53.3872 40.2923L57.2075 39.2015C57.3311 39.1663 57.4636 39.18 57.5773 39.2399C57.6911 39.2997 57.7775 39.4011 57.8185 39.5229C57.8595 39.6447 57.852 39.7777 57.7975 39.8941C57.7431 40.0106 57.6459 40.1016 57.5261 40.1483L54.0227 41.5132L56.9948 40.6647C57.1179 40.6285 57.2502 40.6411 57.3643 40.6997C57.4784 40.7584 57.5656 40.8587 57.6078 40.9798C57.65 41.101 57.6441 41.2337 57.5912 41.3506C57.5383 41.4675 57.4424 41.5596 57.3235 41.6078L51.7269 43.9176L56.5265 42.5473C56.6497 42.5115 56.782 42.5245 56.896 42.5835C57.01 42.6426 57.0969 42.7432 57.1387 42.8646C57.1805 42.9859 57.174 43.1187 57.1206 43.2354C57.0673 43.3522 56.971 43.4439 56.8518 43.4916L51.875 45.5041L56.0934 44.3016C56.2159 44.2691 56.3463 44.2843 56.4581 44.3443C56.5698 44.4042 56.6546 44.5044 56.6953 44.6245C56.736 44.7446 56.7295 44.8757 56.6772 44.9912C56.6248 45.1067 56.5306 45.1981 56.4134 45.2467L52.4935 46.7846L55.6999 45.869C55.823 45.834 55.9549 45.8475 56.0684 45.9068C56.1818 45.966 56.2682 46.0666 56.3098 46.1877C56.3513 46.3092 56.3445 46.4421 56.2907 46.5588C56.237 46.6755 56.1403 46.767 56.0209 46.8143L51.7582 48.4984L55.2955 47.4883C55.4189 47.4528 55.5513 47.4661 55.6652 47.5256C55.779 47.585 55.8656 47.686 55.907 47.8076C55.9484 47.9292 55.9415 48.0621 55.8875 48.1786C55.8336 48.2952 55.7369 48.3866 55.6175 48.4338L51.3002 50.1506L54.8918 49.1252C55.0142 49.0912 55.145 49.1049 55.2575 49.1638C55.3701 49.2226 55.4561 49.3221 55.498 49.4421C55.5399 49.562 55.5345 49.6934 55.4831 49.8095C55.4316 49.9257 55.3378 50.0179 55.2208 50.0674L49.5361 52.4201L54.4148 51.0263C54.5372 50.9909 54.6684 51.0036 54.7818 51.0617C54.8952 51.1198 54.9821 51.219 55.0248 51.339C55.0675 51.459 55.0627 51.5908 55.0116 51.7075C54.9604 51.8242 54.8666 51.9169 54.7494 51.9667L48.2103 54.7674L53.8872 53.1456C54.0102 53.1105 54.1419 53.1238 54.2554 53.1828C54.3688 53.2418 54.4554 53.342 54.4972 53.4628C54.539 53.5837 54.5329 53.7159 54.4802 53.8325C54.4275 53.949 54.3322 54.0409 54.2138 54.0892L48.9221 56.2517L53.4345 54.9621C53.5562 54.9271 53.6867 54.9397 53.7995 54.9972C53.9124 55.0548 53.9992 55.153 54.0424 55.272C54.0856 55.3911 54.0821 55.5221 54.0324 55.6387C53.9828 55.7552 53.8907 55.8485 53.7749 55.8998L48.3305 58.3055L52.9271 56.9926C53.05 56.9587 53.1813 56.9731 53.2941 57.0328C53.4068 57.0925 53.4924 57.1931 53.5334 57.3139C53.5744 57.4346 53.5677 57.5665 53.5147 57.6826C53.4617 57.7986 53.3663 57.8899 53.2481 57.9379L52.8134 58.1095C52.9047 58.116 52.9925 58.1471 53.0676 58.1995C53.1427 58.2519 53.2022 58.3236 53.2399 58.407C53.2887 58.5172 53.296 58.6413 53.2606 58.7565C53.2251 58.8717 53.1492 58.9702 53.0469 59.0339L50.3825 60.6913L52.1321 60.1924C52.2479 60.16 52.3715 60.1704 52.4802 60.2217C52.589 60.273 52.6756 60.3618 52.7242 60.4717C52.7728 60.5817 52.7801 60.7055 52.7449 60.8205C52.7096 60.9354 52.6341 61.0338 52.5322 61.0976L52.1394 61.3405C52.212 61.364 52.2783 61.4038 52.3331 61.4568C52.388 61.5098 52.43 61.5747 52.4559 61.6465C52.4818 61.7182 52.4909 61.795 52.4826 61.8708C52.4743 61.9466 52.4487 62.0196 52.4079 62.084L52.05 62.649C52.1102 62.711 52.1533 62.7875 52.1752 62.8712C52.197 62.9548 52.1968 63.0427 52.1745 63.1262C52.1522 63.2097 52.1087 63.2861 52.0481 63.3477C51.9876 63.4094 51.912 63.4543 51.8289 63.4781L51.2735 63.638C51.176 63.6659 51.0723 63.6636 50.9762 63.6312C50.8801 63.5989 50.7962 63.5381 50.7354 63.4569C50.6747 63.3757 50.64 63.278 50.6361 63.1766C50.6322 63.0753 50.6592 62.9752 50.7135 62.8896L50.8601 62.6582L49.2157 63.1279C49.1 63.1603 48.9764 63.1499 48.8676 63.0986C48.7589 63.0473 48.6723 62.9585 48.6237 62.8485C48.575 62.7386 48.5677 62.6148 48.603 62.4998C48.6382 62.3848 48.7137 62.2864 48.8156 62.2226L48.9386 62.1431L47.2191 62.6332C47.1034 62.6656 46.98 62.6552 46.8713 62.604C46.7626 62.5529 46.6759 62.4643 46.6272 62.3545C46.5785 62.2446 46.571 62.1209 46.606 62.006C46.641 61.8911 46.7162 61.7926 46.8178 61.7286L49.481 60.0718L43.6285 61.7444C43.5055 61.7783 43.3742 61.7639 43.2615 61.7042C43.1488 61.6445 43.0631 61.544 43.0221 61.4232C42.9811 61.3024 42.9878 61.1705 43.0408 61.0545C43.0939 60.9385 43.1893 60.8471 43.3075 60.7991L43.4748 60.7318L41.6493 61.254C41.5657 61.2798 41.4767 61.2828 41.3915 61.2626Z" fill="#7FC3CF"/>
<path d="M17.1672 54.123C17.0727 54.0996 16.987 54.0491 16.9207 53.9777C16.8545 53.9063 16.8105 53.8171 16.7943 53.7211C16.7781 53.625 16.7902 53.5263 16.8293 53.4371C16.8684 53.3479 16.9327 53.272 17.0143 53.2188L17.433 52.9464L16.2241 53.291C16.1105 53.3233 15.9891 53.3144 15.8815 53.2658C15.7738 53.2172 15.6869 53.132 15.636 53.0254C15.5852 52.9189 15.5737 52.7977 15.6036 52.6835C15.6335 52.5692 15.7029 52.4692 15.7995 52.4013L17.4067 51.2728L15.7015 51.7592C15.5914 51.7905 15.4739 51.783 15.3686 51.7381C15.2634 51.6931 15.1767 51.6135 15.1231 51.5123C15.0696 51.4112 15.0523 51.2948 15.0742 51.1824C15.0961 51.0701 15.1559 50.9687 15.2436 50.8952L16.3686 49.9511C16.2501 49.9467 16.137 49.9002 16.0496 49.8201C15.9622 49.74 15.9061 49.6314 15.8913 49.5137C15.8765 49.3961 15.9041 49.277 15.969 49.1777C16.0339 49.0785 16.132 49.0056 16.2457 48.972L18.3087 48.3824C18.419 48.3506 18.5368 48.3577 18.6424 48.4025C18.748 48.4473 18.835 48.5271 18.8888 48.6284C18.9426 48.7297 18.9599 48.8465 18.9378 48.9591C18.9157 49.0716 18.8556 49.1732 18.7675 49.2467L17.6872 50.1524L19.9799 49.4977C20.0935 49.4654 20.2148 49.4743 20.3225 49.5229C20.4301 49.5716 20.517 49.6567 20.5679 49.7633C20.6188 49.8699 20.6303 49.991 20.6003 50.1053C20.5704 50.2195 20.501 50.3195 20.4045 50.3875L18.7953 51.5154L20.337 51.0767C20.4524 51.0429 20.576 51.0518 20.6854 51.1017C20.7947 51.1516 20.8824 51.2392 20.9324 51.3485C20.9824 51.4578 20.9914 51.5815 20.9577 51.6968C20.9239 51.8122 20.8498 51.9115 20.7488 51.9767L20.0666 52.4244C20.166 52.4603 20.2514 52.5268 20.3106 52.6143C20.3698 52.7018 20.3998 52.8058 20.3963 52.9114C20.3928 53.0169 20.3559 53.1187 20.2909 53.202C20.2259 53.2853 20.1363 53.3459 20.0347 53.3751L17.4221 54.1178C17.3391 54.1418 17.2512 54.1436 17.1672 54.123Z" fill="#A53E51"/>
<path d="M27.1886 56.6292C27.0973 56.6064 27.0143 56.5584 26.9491 56.4905C26.8839 56.4227 26.8392 56.3379 26.82 56.2458C26.8009 56.1536 26.8081 56.058 26.8409 55.9698C26.8737 55.8816 26.9307 55.8045 27.0053 55.7472L27.7882 55.1485L25.9008 55.6872C25.7846 55.7203 25.6604 55.7103 25.551 55.6588C25.4416 55.6074 25.3546 55.5182 25.306 55.4075C25.2574 55.2969 25.2504 55.1724 25.2865 55.0571C25.3226 54.9418 25.3992 54.8434 25.5022 54.7802L26.5703 54.125L25.4118 54.4535C25.3047 54.4829 25.1909 54.4759 25.0882 54.4334C24.9855 54.391 24.8999 54.3155 24.8449 54.219C24.7899 54.1225 24.7686 54.0104 24.7843 53.9004C24.8001 53.7905 24.852 53.6889 24.9319 53.6117L26.2887 52.3432L26.2198 52.3631C26.1558 52.3844 26.0881 52.3925 26.0209 52.3869C25.9537 52.3814 25.8883 52.3623 25.8287 52.3308C25.7691 52.2994 25.7164 52.2561 25.6739 52.2038C25.6314 52.1514 25.5999 52.091 25.5814 52.0262C25.5628 51.9614 25.5575 51.8935 25.5659 51.8266C25.5743 51.7596 25.5961 51.6951 25.6301 51.6369C25.664 51.5786 25.7094 51.5278 25.7635 51.4875C25.8176 51.4473 25.8793 51.4184 25.9448 51.4026L28.0078 50.813C28.1149 50.7835 28.2288 50.7906 28.3315 50.833C28.4341 50.8755 28.5197 50.9509 28.5748 51.0474C28.6298 51.1439 28.6511 51.256 28.6354 51.366C28.6196 51.476 28.5677 51.5776 28.4877 51.6547L27.131 52.9232L29.8057 52.159C29.9219 52.1258 30.0462 52.1359 30.1556 52.1873C30.2649 52.2387 30.352 52.328 30.4006 52.4386C30.4492 52.5492 30.4561 52.6737 30.4201 52.7891C30.384 52.9044 30.3074 53.0028 30.2044 53.066L29.1363 53.7211L30.0478 53.4608C30.16 53.428 30.2802 53.4356 30.3873 53.4823C30.4945 53.529 30.582 53.6117 30.6345 53.7161C30.687 53.8206 30.7013 53.9401 30.6748 54.054C30.6483 54.1678 30.5828 54.2688 30.4896 54.3394L29.5245 55.0771C29.6263 55.1101 29.7147 55.175 29.7769 55.262C29.8391 55.3491 29.8717 55.4538 29.8699 55.5608C29.8682 55.6677 29.8322 55.7713 29.7672 55.8563C29.7022 55.9413 29.6117 56.0032 29.5089 56.0329L27.4469 56.6227C27.3629 56.6479 27.2737 56.6501 27.1886 56.6292Z" fill="#A53E51"/>
<path d="M17.9137 44.8383C17.8164 44.814 17.7286 44.761 17.6618 44.6862C17.595 44.6113 17.5523 44.5181 17.5392 44.4187C17.5261 44.3192 17.5432 44.2181 17.5883 44.1285C17.6333 44.0389 17.7044 43.9649 17.792 43.9162L20.0566 42.6534L17.7372 43.3159C17.6229 43.3485 17.5007 43.3394 17.3925 43.2901C17.2844 43.2408 17.1973 43.1546 17.1469 43.047C17.0966 42.9393 17.0862 42.8172 17.1177 42.7026C17.1493 42.5879 17.2206 42.4883 17.3189 42.4215L19.5666 40.8968C19.4423 40.9105 19.3174 40.8772 19.2165 40.8033C19.1156 40.7295 19.046 40.6206 19.0214 40.498C18.9969 40.3754 19.0191 40.248 19.0838 40.1411C19.1485 40.0341 19.251 39.9552 19.3709 39.92L22.2734 39.0901C22.3875 39.0581 22.5092 39.0675 22.6169 39.1168C22.7246 39.1661 22.8113 39.2521 22.8616 39.3594C22.9118 39.4666 22.9224 39.5883 22.8913 39.7026C22.8602 39.8169 22.7896 39.9165 22.692 39.9836L20.4574 41.4971L23.9384 40.5018C24.0572 40.4658 24.1852 40.4754 24.2974 40.5285C24.4096 40.5817 24.498 40.6747 24.5454 40.7895C24.5928 40.9042 24.5958 41.0325 24.5538 41.1494C24.5119 41.2662 24.4279 41.3633 24.3184 41.4217L22.0526 42.6852L23.2848 42.3339C23.4102 42.3037 23.5424 42.3231 23.6538 42.388C23.7652 42.453 23.8473 42.5584 23.8828 42.6824C23.9182 42.8064 23.9044 42.9393 23.8443 43.0534C23.7841 43.1674 23.6821 43.2538 23.5598 43.2945L18.173 44.8321C18.0887 44.8575 17.9991 44.8596 17.9137 44.8383Z" fill="#FD7060"/>
<path d="M27.5032 47.1672C27.4061 47.1428 27.3186 47.0897 27.2521 47.015C27.1855 46.9402 27.1429 46.8472 27.1297 46.748C27.1166 46.6488 27.1336 46.5479 27.1784 46.4584C27.2233 46.3689 27.2939 46.2949 27.3813 46.246L29.7421 44.928L27.4873 45.5716C27.3723 45.604 27.2495 45.5943 27.1411 45.544C27.0328 45.4938 26.9459 45.4064 26.8964 45.2977C26.8469 45.189 26.8379 45.0661 26.8711 44.9514C26.9043 44.8366 26.9775 44.7376 27.0775 44.6721L29.1492 43.327C29.035 43.3129 28.9292 43.2597 28.8497 43.1766C28.7701 43.0935 28.7216 42.9855 28.7124 42.8708C28.7033 42.7561 28.7339 42.6417 28.7992 42.547C28.8645 42.4523 28.9605 42.383 29.071 42.3508L31.9735 41.5209C32.0885 41.4885 32.2112 41.4982 32.3196 41.5485C32.428 41.5987 32.5148 41.6861 32.5644 41.7948C32.6139 41.9035 32.6229 42.0264 32.5896 42.1411C32.5564 42.2559 32.4832 42.3549 32.3833 42.4204L30.4217 43.692L33.6157 42.7805C33.7346 42.7446 33.8625 42.7541 33.9747 42.8073C34.0869 42.8604 34.1753 42.9534 34.2227 43.0682C34.2701 43.1829 34.2731 43.3112 34.2312 43.4281C34.1892 43.5449 34.1053 43.642 33.9957 43.7004L31.6373 45.017L33.1072 44.5974C33.1712 44.5761 33.2388 44.568 33.306 44.5736C33.3732 44.5791 33.4386 44.5982 33.4983 44.6297C33.5579 44.6612 33.6106 44.7044 33.6531 44.7567C33.6956 44.8091 33.7271 44.8695 33.7456 44.9343C33.7642 44.9991 33.7694 45.0671 33.761 45.134C33.7527 45.2009 33.7308 45.2654 33.6969 45.3237C33.6629 45.3819 33.6175 45.4327 33.5635 45.473C33.5094 45.5132 33.4477 45.5421 33.3821 45.558L27.7617 47.1639C27.6774 47.1882 27.5881 47.1893 27.5032 47.1672Z" fill="#FD7060"/>
<path d="M22.0003 35.7219C21.9065 35.6986 21.8215 35.6486 21.7555 35.578C21.6895 35.5073 21.6454 35.4191 21.6286 35.3239C21.6117 35.2287 21.6228 35.1306 21.6605 35.0416C21.6983 34.9526 21.761 34.8764 21.8411 34.8223L23.3161 33.8185L20.8536 34.5215C20.7373 34.5546 20.6129 34.5445 20.5035 34.493C20.394 34.4414 20.307 34.352 20.2585 34.2412C20.21 34.1304 20.2033 34.0057 20.2396 33.8904C20.276 33.775 20.3529 33.6767 20.4562 33.6138L21.9687 32.6946L20.4221 33.1321C20.3141 33.163 20.1987 33.1566 20.0948 33.1139C19.9908 33.0712 19.9042 32.9947 19.849 32.8968C19.7938 32.7989 19.7733 32.6852 19.7906 32.5742C19.808 32.4631 19.8622 32.3611 19.9447 32.2847L20.9103 31.3925C20.7889 31.4 20.6689 31.3629 20.5729 31.2883C20.4769 31.2137 20.4113 31.1066 20.3885 30.9872C20.3657 30.8677 20.3872 30.7441 20.4491 30.6393C20.5109 30.5346 20.6088 30.456 20.7244 30.4182L22.6309 29.8729C22.7391 29.8417 22.8548 29.8479 22.959 29.8906C23.0633 29.9333 23.1501 30.01 23.2053 30.1082C23.2606 30.2064 23.281 30.3204 23.2634 30.4316C23.2458 30.5429 23.191 30.645 23.1081 30.7213L22.1551 31.6042L25.256 30.7189C25.3721 30.6865 25.4961 30.6971 25.605 30.7488C25.7139 30.8005 25.8005 30.8898 25.8488 31.0003C25.897 31.1108 25.9037 31.235 25.8677 31.35C25.8316 31.4651 25.7552 31.5632 25.6525 31.6264L24.1416 32.5428L26.0283 32.007C26.1423 31.975 26.264 31.9844 26.3717 32.0337C26.4795 32.083 26.5662 32.169 26.6164 32.2763C26.6667 32.3835 26.6772 32.5052 26.6461 32.6195C26.6151 32.7338 26.5444 32.8334 26.4468 32.9005L24.973 33.9035L25.519 33.7485C25.583 33.7272 25.6507 33.7191 25.7179 33.7247C25.7851 33.7302 25.8505 33.7493 25.9101 33.7808C25.9698 33.8122 26.0224 33.8555 26.0649 33.9078C26.1074 33.9602 26.1389 34.0206 26.1575 34.0854C26.176 34.1502 26.1813 34.2181 26.1729 34.285C26.1645 34.352 26.1427 34.4165 26.1087 34.4748C26.0748 34.533 26.0294 34.5838 25.9753 34.6241C25.9212 34.6643 25.8595 34.6932 25.794 34.709L22.2633 35.7177C22.1776 35.743 22.0867 35.7445 22.0003 35.7219Z" fill="#854844"/>
<path d="M31.957 38.2438C31.863 38.2202 31.7779 38.1697 31.712 38.0987C31.6462 38.0276 31.6024 37.9389 31.586 37.8434C31.5696 37.7478 31.5813 37.6496 31.6197 37.5607C31.6581 37.4717 31.7216 37.3958 31.8023 37.3422L32.9149 36.6043L30.741 37.2249C30.6226 37.2621 30.4945 37.2538 30.3818 37.2018C30.2691 37.1497 30.1798 37.0576 30.1313 36.9433C30.0827 36.8291 30.0784 36.7009 30.1192 36.5836C30.16 36.4663 30.2429 36.3684 30.3519 36.309L31.5878 35.6133L30.1756 36.0164C30.0715 36.0463 29.9605 36.0417 29.8593 36.0031C29.7581 35.9645 29.6721 35.894 29.6144 35.8024C29.5566 35.7107 29.5302 35.6028 29.5391 35.4948C29.548 35.3868 29.5917 35.2847 29.6637 35.2037L30.9594 33.7344L30.6974 33.809C30.6334 33.8303 30.5658 33.8384 30.4986 33.8329C30.4314 33.8273 30.366 33.8082 30.3063 33.7768C30.2467 33.7453 30.194 33.7021 30.1515 33.6497C30.109 33.5974 30.0776 33.537 30.059 33.4721C30.0404 33.4073 30.0352 33.3394 30.0436 33.2725C30.0519 33.2056 30.0738 33.141 30.1077 33.0828C30.1417 33.0245 30.1871 32.9737 30.2411 32.9335C30.2952 32.8932 30.3569 32.8643 30.4225 32.8485L32.329 32.3032C32.4331 32.2733 32.5441 32.278 32.6454 32.3166C32.7466 32.3552 32.8325 32.4256 32.8903 32.5172C32.948 32.6089 32.9744 32.7168 32.9655 32.8248C32.9566 32.9328 32.9129 33.0349 32.8409 33.1159L31.5453 34.5852L35.3135 33.5092C35.4319 33.4721 35.5599 33.4804 35.6727 33.5324C35.7854 33.5844 35.8747 33.6766 35.9232 33.7908C35.9718 33.9051 35.9761 34.0333 35.9353 34.1506C35.8945 34.2678 35.8116 34.3657 35.7026 34.4252L34.4705 35.1259L35.7484 34.7614C35.863 34.7288 35.9856 34.7383 36.0938 34.7882C36.2021 34.838 36.289 34.9249 36.3389 35.0331C36.3888 35.1414 36.3984 35.2639 36.3659 35.3786C36.3334 35.4933 36.261 35.5926 36.1618 35.6587L35.0493 36.3965C35.1746 36.3663 35.3068 36.3857 35.4182 36.4506C35.5297 36.5155 35.6117 36.621 35.6472 36.745C35.6827 36.869 35.6689 37.0019 35.6087 37.1159C35.5485 37.23 35.4466 37.3164 35.3242 37.3571L32.215 38.2465C32.1303 38.2682 32.0413 38.2673 31.957 38.2438Z" fill="#854844"/>
<path d="M22.7244 21.5081C22.6215 21.4825 22.5295 21.4248 22.4615 21.3435C22.3936 21.2621 22.3533 21.1613 22.3464 21.0555C22.3395 20.9497 22.3664 20.8445 22.4232 20.755C22.48 20.6655 22.5638 20.5964 22.6624 20.5576L28.8589 18.1124L22.717 19.8662C22.5929 19.901 22.4602 19.8866 22.3465 19.826C22.2328 19.7654 22.1469 19.6633 22.1067 19.5409C22.0665 19.4184 22.0751 19.2852 22.1307 19.169C22.1863 19.0528 22.2846 18.9625 22.4052 18.917L26.2436 17.4823L25.2168 17.7747C25.0973 17.8073 24.97 17.7943 24.8595 17.7383C24.749 17.6824 24.6632 17.5874 24.6188 17.4718C24.5743 17.3562 24.5743 17.2282 24.6188 17.1126C24.6633 16.997 24.7492 16.9021 24.8597 16.8462L29.2775 14.6783L28.7313 14.8343C28.617 14.8669 28.4948 14.8578 28.3866 14.8085C28.2784 14.7592 28.1914 14.673 28.141 14.5653C28.0906 14.4577 28.0803 14.3356 28.1118 14.2209C28.1433 14.1063 28.2147 14.0067 28.313 13.9399L30.5497 12.4176C30.5226 12.293 30.5441 12.1628 30.6097 12.0536C30.6754 11.9443 30.7803 11.8643 30.9031 11.8298L31.8655 11.5554C31.9793 11.5239 32.1006 11.5336 32.2078 11.583C32.3151 11.6323 32.4015 11.718 32.4516 11.8248C32.5018 11.9317 32.5125 12.0529 32.4819 12.1669C32.4512 12.2809 32.3813 12.3804 32.2843 12.4478L31.4415 13.0223L34.4025 12.1772C34.522 12.1446 34.6493 12.1576 34.7598 12.2136C34.8703 12.2695 34.9561 12.3645 35.0006 12.4801C35.045 12.5957 35.045 12.7237 35.0005 12.8393C34.956 12.9549 34.8702 13.0498 34.7596 13.1057L30.3442 15.2722L38.0526 13.0715C38.1758 13.039 38.3068 13.0547 38.4188 13.1155C38.5307 13.1763 38.6153 13.2776 38.6551 13.3987C38.695 13.5197 38.6871 13.6514 38.6331 13.7668C38.5791 13.8822 38.4831 13.9727 38.3646 14.0197L34.5255 15.4532L38.4191 14.3416C38.542 14.3077 38.6733 14.322 38.786 14.3818C38.8988 14.4415 38.9844 14.542 39.0254 14.6628C39.0664 14.7836 39.0597 14.9155 39.0067 15.0315C38.9536 15.1475 38.8583 15.2389 38.7401 15.2868L32.5422 17.7337L36.9912 16.4623C37.1115 16.4281 37.2403 16.4403 37.352 16.4964C37.4638 16.5525 37.5505 16.6485 37.595 16.7654C37.6395 16.8822 37.6386 17.0115 37.5924 17.1278C37.5463 17.244 37.4582 17.3387 37.3457 17.3932L32.1269 19.9193L35.2678 19.0223C35.3867 18.9897 35.5136 19.0022 35.6239 19.0574C35.7342 19.1125 35.8202 19.2066 35.8654 19.3214C35.9106 19.4361 35.9117 19.5636 35.8686 19.6791C35.8256 19.7947 35.7413 19.8903 35.632 19.9475L34.0955 20.7318L34.1243 20.7235C34.2384 20.6908 34.3603 20.6996 34.4685 20.7485C34.5766 20.7973 34.6638 20.8831 34.7145 20.9903C34.7652 21.0976 34.7761 21.2194 34.7453 21.334C34.7145 21.4485 34.644 21.5484 34.5463 21.6157L33.6247 22.254C33.6999 22.3182 33.7539 22.4036 33.7798 22.499C33.8163 22.6264 33.8008 22.7631 33.7366 22.8791C33.6723 22.995 33.5647 23.0807 33.4373 23.1174L31.559 23.6532C31.4452 23.6854 31.3237 23.6762 31.216 23.6273C31.1084 23.5784 31.0215 23.493 30.9709 23.3861C30.9203 23.2793 30.9092 23.1579 30.9395 23.0437C30.9699 22.9294 31.0398 22.8296 31.1368 22.7619L31.4873 22.5188L29.4028 23.1081C29.2838 23.1408 29.157 23.1283 29.0467 23.0731C28.9364 23.0179 28.8504 22.9239 28.8052 22.8091C28.76 22.6943 28.7588 22.5669 28.8019 22.4513C28.845 22.3358 28.9293 22.2402 29.0386 22.183L30.5743 21.4016L26.8409 22.4667C26.721 22.4996 26.5932 22.4867 26.4823 22.4305C26.3715 22.3743 26.2855 22.2789 26.2412 22.1627C26.1969 22.0466 26.1975 21.9181 26.2428 21.8024C26.288 21.6867 26.3748 21.5919 26.4861 21.5367L31.7049 19.0106L22.9839 21.5009C22.8996 21.5265 22.81 21.529 22.7244 21.5081Z" fill="#ECD9A4"/>
<path d="M46.3251 27.437C46.2233 27.4115 46.1321 27.3546 46.0644 27.2744C45.9967 27.1942 45.956 27.0948 45.948 26.9901C45.94 26.8855 45.9651 26.781 46.0198 26.6914C46.0744 26.6019 46.1559 26.5318 46.2527 26.4911L47.2717 26.0648L46.3471 26.3281C46.2281 26.3608 46.1013 26.3483 45.991 26.2931C45.8807 26.2379 45.7947 26.1439 45.7495 26.0291C45.7043 25.9143 45.7031 25.7869 45.7462 25.6713C45.7893 25.5557 45.8736 25.4602 45.9829 25.403L49.7254 23.5031L46.1595 24.5205C46.0373 24.5549 45.9065 24.5416 45.7937 24.4832C45.6809 24.4247 45.5946 24.3256 45.5523 24.2058C45.51 24.086 45.5149 23.9547 45.5659 23.8383C45.6169 23.722 45.7103 23.6295 45.8271 23.5795L46.4719 23.3059L46.0454 23.428C45.928 23.459 45.8033 23.4461 45.6946 23.3919C45.586 23.3376 45.5008 23.2457 45.455 23.1332C45.4092 23.0207 45.4058 22.8954 45.4456 22.7807C45.4855 22.6659 45.5657 22.5696 45.6713 22.5097L49.1167 20.6684L45.8538 21.6038C45.7347 21.6408 45.6061 21.632 45.4932 21.579C45.3803 21.526 45.2912 21.4328 45.2435 21.3176C45.1958 21.2024 45.1929 21.0735 45.2353 20.9562C45.2778 20.839 45.3625 20.7418 45.4728 20.6838L48.7077 18.8805L45.6657 19.7486C45.5527 19.7852 45.4304 19.7804 45.3206 19.735C45.2109 19.6896 45.1208 19.6066 45.0667 19.5009C45.0125 19.3952 44.9978 19.2736 45.0251 19.158C45.0524 19.0424 45.12 18.9403 45.2157 18.87L46.9287 17.5042L45.4753 17.9196C45.3954 17.9426 45.311 17.9453 45.2298 17.9275C45.1486 17.9097 45.0731 17.8719 45.0101 17.8176C44.9477 17.763 44.8996 17.694 44.8701 17.6165C44.8406 17.539 44.8306 17.4554 44.841 17.3732L45.0166 16.0585C44.9107 16.0306 44.8168 15.9687 44.7494 15.8823C44.6821 15.7958 44.645 15.6897 44.6439 15.5801C44.6427 15.4706 44.6776 15.3637 44.7431 15.2759C44.8086 15.1881 44.9012 15.1242 45.0065 15.0941L45.4662 14.9628C45.546 14.9393 45.6305 14.9363 45.7119 14.9541C45.7932 14.9719 45.8687 15.01 45.9313 15.0649C45.994 15.1192 46.0421 15.1882 46.0715 15.2657C46.1009 15.3432 46.1105 15.4268 46.0995 15.509L45.9344 16.749L49.0627 15.8572C49.1738 15.8253 49.2925 15.8329 49.3987 15.8787C49.5048 15.9245 49.5918 16.0057 49.6448 16.1084C49.6978 16.2111 49.7136 16.3291 49.6895 16.4421C49.6654 16.5552 49.6028 16.6564 49.5125 16.7285L47.7978 18.0929L52.5718 16.7296C52.6909 16.6927 52.8195 16.7015 52.9324 16.7545C53.0453 16.8074 53.1344 16.9007 53.1821 17.0159C53.2298 17.1311 53.2327 17.26 53.1903 17.3772C53.1478 17.4945 53.0631 17.5917 52.9528 17.6497L49.7177 19.454L53.3449 18.418C53.4623 18.387 53.587 18.3999 53.6957 18.4541C53.8043 18.5084 53.8895 18.6003 53.9354 18.7128C53.9812 18.8253 53.9845 18.9506 53.9447 19.0653C53.9049 19.1801 53.8247 19.2764 53.719 19.3363L50.2758 21.1771L54.0285 20.1055C54.1504 20.0723 54.2803 20.0865 54.3922 20.1451C54.504 20.2038 54.5896 20.3026 54.6315 20.4218C54.6735 20.5409 54.6688 20.6715 54.6185 20.7874C54.5681 20.9032 54.4757 20.9957 54.3599 21.0462L53.7164 21.3191L54.4346 21.1144C54.5536 21.0817 54.6804 21.0942 54.7907 21.1494C54.901 21.2046 54.987 21.2986 55.0322 21.4134C55.0774 21.5282 55.0786 21.6556 55.0355 21.7712C54.9924 21.8868 54.9081 21.9823 54.7988 22.0395L51.0589 23.9411L55.108 22.785C55.2305 22.75 55.3618 22.7631 55.4749 22.8216C55.5881 22.8801 55.6747 22.9797 55.7169 23.0999C55.7592 23.22 55.754 23.3518 55.7024 23.4683C55.6508 23.5848 55.5566 23.6772 55.4392 23.7266L54.418 24.1533L55.5284 23.8355C55.6431 23.803 55.7656 23.8125 55.8739 23.8623C55.9822 23.9122 56.0691 23.9991 56.119 24.1073C56.1689 24.2156 56.1784 24.3381 56.146 24.4528C56.1135 24.5675 56.0411 24.6668 55.9419 24.7328L53.2248 26.5266L56.258 25.6604C56.3703 25.6284 56.4901 25.6367 56.5969 25.6838C56.7037 25.7308 56.7906 25.8138 56.8427 25.9182C56.8947 26.0227 56.9086 26.142 56.8819 26.2556C56.8552 26.3692 56.7896 26.4699 56.6965 26.5402L55.563 27.3904L56.8142 27.0336C56.9192 27.0038 57.0312 27.0092 57.1329 27.049C57.2347 27.0888 57.3206 27.1608 57.3775 27.254C57.4342 27.3476 57.4586 27.4573 57.447 27.5661C57.4354 27.6749 57.3884 27.7769 57.3132 27.8565L56.9978 28.1898L57.2498 28.1179C57.3244 28.0967 57.4029 28.0931 57.4791 28.1075C57.5552 28.1218 57.627 28.1537 57.6888 28.2005C57.7506 28.2474 57.8006 28.3079 57.8349 28.3774C57.8692 28.447 57.8869 28.5235 57.8866 28.601L57.8847 29.0737C57.9694 29.0995 58.047 29.1446 58.1114 29.2054C58.1757 29.2663 58.2251 29.3412 58.2557 29.4243C58.2918 29.5516 58.276 29.6881 58.2116 29.8038C58.1473 29.9195 58.0397 30.0049 57.9125 30.0414L57.5205 30.1495C57.446 30.1707 57.3676 30.1743 57.2915 30.16C57.2153 30.1458 57.1435 30.114 57.0818 30.0673C57.02 30.0205 56.9699 29.96 56.9355 29.8906C56.9011 29.8212 56.8833 29.7448 56.8835 29.6673L56.8837 29.255L55.5091 29.6479C55.4038 29.6776 55.2917 29.672 55.19 29.632C55.0882 29.5919 55.0024 29.5195 54.9457 29.426C54.8889 29.3325 54.8645 29.223 54.8759 29.1142C54.8874 29.0054 54.9343 28.9034 55.0093 28.8238L55.3237 28.4902L53.2464 29.0834C53.1342 29.1154 53.0143 29.1072 52.9076 29.0601C52.8008 29.013 52.7139 28.93 52.6618 28.8256C52.6098 28.7211 52.5959 28.6018 52.6226 28.4882C52.6493 28.3746 52.7149 28.2739 52.808 28.2036L53.9405 27.3532L50.3744 28.3715C50.2597 28.404 50.1372 28.3945 50.0289 28.3447C49.9206 28.2949 49.8337 28.208 49.7838 28.0997C49.7339 27.9915 49.7243 27.869 49.7568 27.7543C49.7893 27.6396 49.8617 27.5403 49.9609 27.4742L52.678 25.6804L46.572 27.4225C46.4923 27.4484 46.4073 27.4533 46.3251 27.437Z" fill="#ECD9A4"/>
<path d="M41.2679 64.3171C41.1987 64.3001 41.1339 64.2683 41.0781 64.2239C41.0223 64.1795 40.9768 64.1236 40.9447 64.0599C40.8918 63.957 40.8762 63.839 40.9006 63.7259C40.925 63.6129 40.9878 63.5117 41.0783 63.4398L43.0211 61.9057L38.5313 63.1876C38.4116 63.2217 38.2835 63.2099 38.172 63.1545C38.0606 63.0991 37.9738 63.0042 37.9286 62.8883C37.8834 62.7723 37.8831 62.6437 37.9277 62.5275C37.9723 62.4113 38.0586 62.3159 38.1698 62.26L38.5919 62.0482C38.5241 62.0367 38.4596 62.0109 38.4026 61.9727C38.3455 61.9344 38.2972 61.8844 38.2609 61.8261C38.2036 61.7352 38.1772 61.6283 38.1854 61.5212C38.1937 61.4141 38.2362 61.3125 38.3067 61.2315L39.0518 60.3676L39.0392 60.3644C38.9329 60.3374 38.8383 60.2761 38.7703 60.1901C38.7022 60.104 38.6643 59.9979 38.6624 59.8882C38.6606 59.7785 38.6949 59.6712 38.7601 59.5829C38.8253 59.4946 38.9177 59.4302 39.0231 59.3996L40.3121 59.0317C40.4158 59.0009 40.5267 59.0047 40.6281 59.0423C40.7296 59.08 40.816 59.1495 40.8746 59.2405C40.9331 59.3315 40.9606 59.439 40.9528 59.5469C40.945 59.6549 40.9025 59.7573 40.8315 59.839L40.1609 60.6195L43.1849 59.753C43.3041 59.7201 43.4314 59.7325 43.542 59.788C43.6526 59.8434 43.7388 59.9379 43.7838 60.0531C43.8288 60.1684 43.8295 60.2963 43.7857 60.412C43.7418 60.5277 43.6567 60.6231 43.5466 60.6797L43.3766 60.7659L45.1774 60.2519C45.2886 60.2202 45.4074 60.2281 45.5135 60.2742C45.6196 60.3203 45.7065 60.4018 45.7592 60.5047C45.812 60.6077 45.8274 60.7257 45.8029 60.8388C45.7784 60.9518 45.7154 61.0529 45.6248 61.1247L43.6815 62.6607L48.8723 61.1771C48.9917 61.139 49.121 61.1472 49.2346 61.1999C49.3483 61.2526 49.438 61.3461 49.486 61.4618C49.534 61.5775 49.5368 61.7071 49.4939 61.8248C49.451 61.9425 49.3654 62.0398 49.2542 62.0974L47.9406 62.8355L51.4691 61.8273C51.5794 61.7964 51.697 61.8043 51.8022 61.8496C51.9073 61.895 51.9937 61.9751 52.0469 62.0766C52.1001 62.178 52.1168 62.2946 52.0944 62.4069C52.0719 62.5192 52.0115 62.6204 51.9233 62.6936L49.9876 64.282L52.289 63.6211C52.4 63.5899 52.5185 63.598 52.6242 63.6441C52.7299 63.6902 52.8165 63.7715 52.8692 63.8741C52.9219 63.9767 52.9375 64.0944 52.9133 64.2072C52.8891 64.32 52.8267 64.4209 52.7366 64.493L52.2218 64.9022C52.3092 64.9245 52.3895 64.9684 52.4553 65.0299C52.5212 65.0915 52.5705 65.1686 52.5986 65.2543C52.635 65.3818 52.6193 65.5185 52.5549 65.6344C52.4905 65.7503 52.3827 65.8359 52.2552 65.8724L50.1968 66.46C50.0856 66.4918 49.9669 66.484 49.8607 66.4381C49.7546 66.3921 49.6677 66.3108 49.6148 66.208C49.5619 66.1051 49.5463 65.9871 49.5706 65.8741C49.5949 65.761 49.6577 65.6599 49.7482 65.5879L50.1451 65.2749L47.9436 65.903C47.8333 65.934 47.7158 65.9261 47.6106 65.8807C47.5054 65.8353 47.419 65.7552 47.3658 65.6538C47.3127 65.5523 47.2959 65.4357 47.3184 65.3234C47.3409 65.2111 47.4013 65.1099 47.4894 65.0368L49.4252 63.4484L44.1359 64.9589C44.0165 64.997 43.8872 64.9888 43.7736 64.9361C43.66 64.8834 43.5702 64.7899 43.5222 64.6742C43.4742 64.5585 43.4714 64.4289 43.5143 64.3112C43.5572 64.1935 43.6428 64.0962 43.754 64.0386L45.0666 63.3003L41.5337 64.3094C41.4475 64.3365 41.3555 64.3392 41.2679 64.3171Z" fill="#7FC3CF"/>
<path d="M7.8771 60.1624C23.9117 63.8866 39.8434 68.6271 55.8715 72.1796C59.2905 72.3707 60.3632 67.119 56.4426 67.0167L65.1137 32.3857C73.0035 33.4334 62.9252 21.3105 61.143 18.918C65.6458 9.16871 49.48 10.7403 43.823 8.17754C37.4515 7.76049 24.2553 -1.26397 23.3469 9.61003C20.4608 10.877 5.4007 17.0983 13.5415 19.3872L4.89084 53.9367C2.76011 53.4217 -0.0890417 55.6525 1.3044 58.1075C2.21289 59.5967 6.46664 59.8093 7.8771 60.1624ZM66.5432 29.2459C68.5808 33.6157 60.3357 29.2936 58.3629 29.3625L53.8114 18.074L60.2439 19.6845C62.2376 22.6568 65.3135 25.9474 66.5451 29.2464L66.5432 29.2459ZM38.3847 14.2113C36.4299 17.1052 34.4752 19.9987 32.5206 22.8919L22.2381 20.3173L31.5749 12.5062L38.3847 14.2113ZM39.4401 14.4756L44.5872 15.7643C44.947 19.2377 45.3075 22.711 45.6687 26.1841L33.576 23.1562L39.4401 14.4756ZM46.7901 26.4648C46.4303 22.9914 46.0698 19.5182 45.7086 16.0451L52.4204 17.7257L56.9747 29.0149L46.7901 26.4648ZM31.5616 6.31768L56.6181 12.5915C60.3712 13.5312 61.1698 14.5868 60.2909 18.484C48.2952 15.4805 36.13 12.4211 24.1879 9.47524C25.2616 4.65572 27.5484 4.99222 31.5616 6.31768ZM13.2534 18.0677C10.3039 15.5365 21.7573 11.7882 23.6389 10.5192L30.3157 12.191C27.2027 14.7948 24.0905 17.3985 20.9789 20.0021C18.4927 19.2352 15.678 18.916 13.2534 18.0677ZM14.7212 19.6166C31.1393 23.8182 47.6379 27.6038 63.9795 32.0863L55.3045 66.7327L52.5884 66.0526C53.0065 64.7038 53.6464 63.0868 52.5075 62.18C52.9772 54.6393 63.5164 36.2783 52.9476 33.2826C42.2555 30.8528 42.8308 52.1916 39.7055 59.0375C38.3122 59.3401 38.1111 60.9505 37.8273 62.3556C27.1281 59.7076 16.722 57.1403 6.08915 54.0996L14.7212 19.6166ZM50.741 34.4949C63.1 32.9887 51.6839 55.4896 51.4248 61.6296C47.8756 60.777 44.4443 59.9024 40.9213 59.0399C43.9057 52.2834 42.8937 36.7113 50.741 34.4949ZM38.963 62.641C38.9782 58.1997 43.1215 60.533 45.5929 61.2394C48.1471 61.982 53.5926 61.6961 51.4485 65.7673L38.963 62.641ZM3.43187 54.9259C13.5845 57.3649 23.8925 60.1222 34.104 62.6058C36.3957 64.0754 64.941 67.7787 56.1918 71.0774C40.7539 67.2964 25.219 63.2645 9.74076 59.4467C7.64512 59.1539 -0.836754 58.2517 3.43187 54.9259Z" fill="#1E1E1E"/>
<path d="M10.1105 51.2387C11.0806 53.8856 17.5239 54.2382 19.6668 54.7747C24.268 55.8763 28.8444 57.1757 33.4542 58.1733C36.3795 58.0676 36.5707 55.7393 37.176 53.322C37.7347 47.6282 43.6826 35.01 41.5411 30.7049C39.5976 28.7751 34.1552 28.5463 31.6952 27.9304C27.0069 27.4441 17.5767 21.045 15.5598 27.9024C14.0581 35.5301 10.4615 43.5538 10.1105 51.2387ZM22.1135 34.6483C17.5924 30.7442 25.2821 29.0874 25.6291 33.1936C25.5334 33.5486 25.3574 33.8768 25.1148 34.153C24.8721 34.4292 24.5692 34.646 24.2295 34.7865C23.8898 34.9271 23.5223 34.9877 23.1554 34.9638C22.7885 34.9398 22.4321 34.8319 22.1135 34.6483ZM39.4872 40.2623C38.5702 43.107 37.8158 46.0016 37.2278 48.9321L30.9913 47.3706C32.732 46.7054 35.2435 44.4973 34.1021 42.4312C31.8517 39.6895 26.1812 43.0808 26.7163 46.3002L21.3936 44.9674C23.1212 44.2434 25.4003 42.0534 24.3562 39.9982C22.1611 37.1095 16.4758 40.6631 17.1117 43.8953L12.9939 42.8643C13.6845 39.9291 14.5317 37.1342 15.0865 34.1527L39.4872 40.2623ZM31.2241 33.5049C35.7071 32.1925 37.2689 37.7709 32.1126 37.1901C30.7349 36.7183 29.4644 34.3694 31.2241 33.5049ZM31.421 46.1896C28.0582 48.199 26.2283 44.9925 29.6177 43.066C32.9863 41.054 34.8036 44.2449 31.421 46.1896ZM21.8556 43.6327C18.6701 45.6504 16.271 42.8807 19.8048 40.7647C22.9097 38.7598 25.3993 41.4686 21.8527 43.6278L21.8556 43.6327ZM19.9475 51.908C19.1533 54.3389 15.4793 53.0252 16.1251 50.652C16.8679 48.2041 20.537 49.5743 19.9446 51.9032L19.9475 51.908ZM29.5903 54.3369C28.8113 56.8633 25.2664 55.4789 25.8712 53.1088C26.5631 50.5471 30.2426 51.9663 29.5874 54.332L29.5903 54.3369ZM33.5433 57.2534L29.3071 56.1927C29.9041 55.8357 30.3577 55.2814 30.5896 54.6257C30.8216 53.9699 30.8173 53.2537 30.5776 52.6007C31.7948 52.1076 31.066 50.72 30.0525 51.7332C27.9255 49.1327 23.3077 52.1154 24.9942 55.1128L19.6094 53.7645C20.1853 53.3874 20.6193 52.8293 20.843 52.1783C21.0667 51.5273 21.0673 50.8203 20.8448 50.1689C22.0957 49.7017 21.4215 48.3021 20.3709 49.3152C18.2703 46.5513 13.7316 49.7043 15.3172 52.6888C9.78949 52.1954 11.8344 47.384 12.7755 43.7363C20.8631 45.8139 28.9424 47.7843 37.0744 49.8204C36.5319 52.9009 35.585 57.1399 33.5433 57.2534ZM16.9668 26.9971C19.4033 23.6682 32.7157 30.059 37.1999 30.2983C42.3167 30.8187 40.633 35.6205 39.7957 39.121L34.8377 37.8796C41.1109 32.6208 26.65 29.0258 29.9486 36.6554L25.0353 35.4252C31.8054 30.3475 16.9965 26.7014 20.1016 34.1899L15.2824 32.9832C15.6317 30.8306 16.0262 28.4852 16.9668 26.9971Z" fill="#1E1E1E"/>
<path d="M47.1469 48.3386C47.8018 48.2675 48.4118 46.3873 47.6042 46.2573C46.9493 46.3284 46.3406 48.2037 47.1469 48.3386Z" fill="#1E1E1E"/>
</g>
<defs>
<clipPath id="clip0_405_2622">
<rect width="60" height="60" fill="white" transform="translate(14.7715 0.476685) rotate(14.0571)"/>
</clipPath>
</defs>
</svg>
