<svg xmlns="http://www.w3.org/2000/svg" width="74" height="74" fill="none" viewBox="0 0 74 74"><circle cx="37" cy="37" r="37" fill="#BCDABF"/><g clip-path="url(#a)"><path fill="#fff" d="M49.6 59.484a.374.374 0 0 1-.22-.677l3.654-2.648-5.67 3.273a.374.374 0 0 1-.396-.633l3.217-2.175-3.28 1.892a.37.37 0 0 1-.503-.124.373.373 0 0 1 .104-.508l4.531-3.112-4.416 2.549a.373.373 0 0 1-.402-.63l5.965-4.21-5.563 3.211a.374.374 0 0 1-.39-.638l.296-.191a.375.375 0 0 1-.297-.677l.29-.187a.373.373 0 0 1-.3-.671l5.034-3.475-4.635 2.675a.374.374 0 0 1-.399-.632l4.71-3.228-4.31 2.488a.374.374 0 0 1-.394-.637l2.081-1.37-1.69.975a.374.374 0 0 1-.394-.635l2.888-1.922-2.494 1.44a.375.375 0 0 1-.396-.635l3.37-2.258-2.975 1.717a.373.373 0 0 1-.395-.634l3.515-2.361-3.12 1.801a.374.374 0 0 1-.396-.633l3.914-2.646-3.519 2.031a.374.374 0 0 1-.395-.635l3.169-2.116-2.774 1.6a.373.373 0 0 1-.393-.636l1.975-1.299-1.583.914a.375.375 0 0 1-.392-.637l1.286-.84-.894.516a.374.374 0 0 1-.396-.634l3.722-2.507-3.325 1.92a.373.373 0 0 1-.394-.637l2.71-1.798-2.318 1.337a.375.375 0 0 1-.4-.632l4.986-3.437-4.586 2.647a.373.373 0 0 1-.398-.632l4.653-3.186-4.255 2.456a.373.373 0 0 1-.4-.63l4.86-3.359-4.46 2.575a.373.373 0 0 1-.4-.631l3.767-2.62-3.367 1.944a.373.373 0 0 1-.404-.63l2.403-1.7-2 1.155a.373.373 0 0 1-.417-.618l2.46-1.925-2.042 1.18a.374.374 0 0 1-.453-.586l1.847-1.869-1.395.806a.375.375 0 0 1-.52-.493l.578-1.139c-.147.017-.268-.062-.34-.186a.373.373 0 0 1 .138-.511l.885-.511a.374.374 0 0 1 .52.493l-.543 1.068 2.708-1.563a.373.373 0 0 1 .453.586l-1.847 1.87L52.9 27.4a.373.373 0 0 1 .417.619l-2.46 1.923 4.406-2.543a.374.374 0 0 1 .403.63l-2.406 1.7L57.3 27.4a.374.374 0 0 1 .4.631l-3.767 2.62 4.752-2.744a.375.375 0 0 1 .4.632l-4.86 3.358 4.688-2.706a.374.374 0 0 1 .398.633l-4.65 3.184 4.252-2.455a.375.375 0 0 1 .4.632l-4.988 3.439 4.588-2.65a.373.373 0 0 1 .394.636l-2.702 1.794 2.309-1.333a.373.373 0 0 1 .396.633l-3.724 2.51 3.328-1.922a.374.374 0 0 1 .391.637l-1.29.843.899-.52a.374.374 0 0 1 .392.636l-1.97 1.297 1.578-.91a.374.374 0 0 1 .395.635l-3.169 2.116 2.774-1.602a.373.373 0 0 1 .396.633l-3.917 2.65 3.521-2.034a.37.37 0 0 1 .504.126.373.373 0 0 1-.109.508l-3.511 2.36 3.116-1.8a.374.374 0 0 1 .396.634l-3.376 2.263 2.98-1.721a.374.374 0 0 1 .395.635l-2.882 1.917 2.487-1.436a.373.373 0 0 1 .506.127.375.375 0 0 1-.112.51l-2.085 1.373 1.692-.977a.374.374 0 0 1 .399.632l-4.71 3.228 4.311-2.488a.374.374 0 0 1 .4.631l-5.032 3.474 4.631-2.674a.374.374 0 0 1 .39.638l-.289.187a.374.374 0 0 1 .29.678l-.299.193a.37.37 0 0 1 .41.16.373.373 0 0 1-.099.507l-5.962 4.21 5.56-3.21a.373.373 0 0 1 .399.632l-4.533 3.113 4.133-2.385a.375.375 0 0 1 .397.633l-3.217 2.176 2.82-1.628a.374.374 0 0 1 .406.626l-3.654 2.648 3.248-1.875a.374.374 0 0 1 .408.625l-1.912 1.4 1.504-.869a.374.374 0 0 1 .414.621l-.981.746.567-.328a.374.374 0 0 1 .459.581l-1.338 1.408.88-.508a.38.38 0 0 1 .444.051c.12.113.151.294.077.44l-.381.757c.114.005.26.064.33.187a.373.373 0 0 1-.136.51l-.869.503a.38.38 0 0 1-.444-.052.38.38 0 0 1-.077-.44l.343-.681-2.035 1.175a.374.374 0 0 1-.458-.581l1.339-1.41-3.452 1.994a.374.374 0 0 1-.414-.622l.981-.745-2.37 1.369a.374.374 0 0 1-.408-.625l1.916-1.403-3.516 2.03a.37.37 0 0 1-.187.05z"/><path fill="#425C46" d="M53.568 35.541a.374.374 0 0 1-.311-.58l.825-1.248-2.74 1.582a.375.375 0 0 1-.469-.57l.922-1.056-.688.397a.375.375 0 0 1-.508-.516l.277-.462a.373.373 0 0 1-.102-.688l.868-.502a.375.375 0 0 1 .508.515l-.172.287 1.39-.803a.374.374 0 0 1 .469.57l-.922 1.057 2.167-1.252a.374.374 0 0 1 .499.53l-.826 1.248.42-.242a.374.374 0 1 1 .375.648l-1.794 1.035a.4.4 0 0 1-.188.05M53.504 42.273a.374.374 0 0 1-.296-.604l.668-.858-2.335 1.348a.374.374 0 0 1-.49-.544l1.061-1.461-1.004.579a.373.373 0 0 1-.505-.522l.25-.4a.373.373 0 0 1-.08-.682l.87-.5a.374.374 0 0 1 .504.521l-.118.187 1.23-.709a.375.375 0 0 1 .49.544l-1.061 1.461 2.472-1.426a.373.373 0 0 1 .482.553l-.668.858.203-.117a.37.37 0 0 1 .51.137.373.373 0 0 1-.136.511l-1.859 1.073a.37.37 0 0 1-.187.05zM52.44 49.005a.374.374 0 0 1-.295-.604l1.11-1.421-2.147 1.24a.374.374 0 0 1-.533-.466l.497-1.21a.38.38 0 0 1-.435-.171.373.373 0 0 1 .137-.511l.868-.501a.373.373 0 0 1 .533.465l-.491 1.197 2.861-1.652a.37.37 0 0 1 .47.078.376.376 0 0 1 .013.476l-1.11 1.421 1.26-.726a.374.374 0 0 1 .517.5l-.343.636a.373.373 0 0 1 .16.697l-.868.501a.375.375 0 0 1-.517-.5l.284-.529-1.783 1.03a.37.37 0 0 1-.187.05M51.749 55.735a.374.374 0 0 1-.285-.616l1.106-1.303-1.46.842a.374.374 0 0 1-.525-.483l.42-.887a.38.38 0 0 1-.365-.185.373.373 0 0 1 .136-.511l.869-.501a.374.374 0 0 1 .525.483l-.397.838 2.29-1.322a.373.373 0 0 1 .472.566l-1.105 1.302 1.748-1.01a.374.374 0 0 1 .529.476l-.47 1.059a.375.375 0 0 1 .281.687l-.893.514a.375.375 0 0 1-.529-.476l.46-1.038-2.62 1.512a.37.37 0 0 1-.187.05z"/><path fill="#00AF1A" d="M47.448 28.833a.375.375 0 0 1-.242-.659l1.215-1.03-1.799 1.04a.374.374 0 0 1-.47-.57l1.243-1.437-.773.447a.375.375 0 0 1-.551-.411l.218-.909a.374.374 0 0 1-.041-.669l.374-.216a.374.374 0 0 1 .551.412l-.171.71 1.942-1.122a.375.375 0 0 1 .47.57l-1.244 1.437 3.475-2.007a.374.374 0 0 1 .428.61l-1.214 1.029 2.838-1.639a.374.374 0 0 1 .43.608l-1.272 1.09 2.943-1.698a.374.374 0 0 1 .443.595l-1.606 1.518 3.643-2.103a.374.374 0 0 1 .44.599l-1.53 1.412 1.73-1a.37.37 0 0 1 .456.065c.12.124.14.312.048.458l-.877 1.404.386-.223a.374.374 0 1 1 .374.647l-1.685.973a.375.375 0 0 1-.503-.522l.877-1.403-3.345 1.931a.373.373 0 0 1-.44-.599l1.531-1.412-3.492 2.015a.374.374 0 0 1-.443-.595l1.605-1.518-3.667 2.118a.374.374 0 0 1-.43-.608l1.272-1.09-2.949 1.702a.4.4 0 0 1-.187.05"/><path fill="#fff" d="M17.176 59.476a.374.374 0 0 1-.208-.685l1.727-1.153-2.594 1.497a.374.374 0 0 1-.4-.63l5.351-3.734-5.1 2.944a.373.373 0 0 1-.402-.629l6.061-4.29-5.658 3.267a.374.374 0 0 1-.397-.633l4.302-2.927-3.905 2.255a.374.374 0 0 1-.399-.632l4.733-3.248-4.335 2.503a.374.374 0 0 1-.402-.63l5.771-4.052-5.369 3.1a.373.373 0 0 1-.4-.63l5.619-3.931-5.22 3.012a.373.373 0 0 1-.402-.629l5.991-4.231-5.589 3.225a.373.373 0 0 1-.4-.63l5.44-3.79-5.04 2.91a.374.374 0 0 1-.396-.633l3.894-2.632-3.499 2.02a.373.373 0 0 1-.392-.637l1.728-1.135-1.336.771a.374.374 0 0 1-.4-.631l5.281-3.664-4.88 2.818a.375.375 0 0 1-.393-.636L17.45 41.5l-1.501.867a.37.37 0 0 1-.503-.124.373.373 0 0 1 .103-.507l5.385-3.746-4.986 2.878a.373.373 0 0 1-.396-.635l3.224-2.155-2.828 1.633a.373.373 0 0 1-.395-.635l3.145-2.1-2.75 1.587a.374.374 0 0 1-.394-.636l2.447-1.62-2.055 1.186a.375.375 0 0 1-.393-.636l1.664-1.091-1.271.734a.374.374 0 0 1-.392-.636l1.02-.667-.629.363a.374.374 0 0 1-.403-.63l3.998-2.829-3.596 2.076a.374.374 0 0 1-.416-.62l3.524-2.721-3.108 1.794a.374.374 0 0 1-.415-.62l1.454-1.117-1.04.6a.374.374 0 0 1-.428-.609l.894-.758-.466.269a.375.375 0 0 1-.524-.485l.617-1.297a.38.38 0 0 1-.374-.184.373.373 0 0 1 .137-.51l.886-.511a.375.375 0 0 1 .524.485l-.597 1.252 3.011-1.739a.375.375 0 0 1 .429.609l-.892.757 2.367-1.367a.374.374 0 0 1 .415.62l-1.455 1.118 3.013-1.74a.373.373 0 0 1 .416.62l-3.524 2.722 5.79-3.343a.374.374 0 0 1 .403.63l-3.995 2.827 5.31-3.065a.374.374 0 0 1 .392.636l-1.02.666.973-.561a.375.375 0 0 1 .393.636l-1.664 1.091 1.271-.734a.374.374 0 0 1 .394.636l-2.451 1.622 2.059-1.189a.374.374 0 0 1 .395.635l-3.148 2.103 2.753-1.59a.374.374 0 0 1 .396.635l-3.224 2.156 2.828-1.634a.374.374 0 0 1 .4.631l-5.38 3.744 4.98-2.877a.373.373 0 0 1 .393.637l-1.893 1.245 1.501-.867a.373.373 0 0 1 .4.631l-5.28 3.664 4.88-2.817a.374.374 0 0 1 .392.636l-1.728 1.135 1.335-.772a.375.375 0 0 1 .397.633l-3.895 2.632 3.499-2.019a.373.373 0 0 1 .4.63l-5.445 3.794 5.045-2.913a.37.37 0 0 1 .502.122.373.373 0 0 1-.1.507l-5.99 4.231 5.588-3.225a.374.374 0 0 1 .4.63l-5.616 3.93 5.216-3.012a.373.373 0 0 1 .402.63l-5.77 4.053 5.368-3.1a.373.373 0 0 1 .399.632l-4.73 3.245 4.331-2.501a.373.373 0 0 1 .397.633l-4.302 2.928 3.905-2.255a.373.373 0 0 1 .403.629l-6.063 4.291 5.661-3.268a.373.373 0 0 1 .4.63l-5.35 3.733 4.95-2.858a.374.374 0 0 1 .395.635l-1.733 1.158 1.339-.773a.374.374 0 0 1 .402.63l-2.456 1.73 2.054-1.185a.374.374 0 0 1 .402.63l-.679.476.277-.16a.373.373 0 0 1 .439.6l-2.254 2.056 1.815-1.047a.373.373 0 0 1 .441.597l-.57.53.128-.073a.375.375 0 0 1 .502.525l-.618.964a.373.373 0 0 1-.09.575l-.522.301a.375.375 0 0 1-.502-.525l.272-.424-1.645.95a.373.373 0 0 1-.442-.598l.57-.529-1.953 1.127a.374.374 0 0 1-.439-.6l2.254-2.056-4.6 2.656a.373.373 0 0 1-.402-.63l.676-.475-1.913 1.105a.374.374 0 0 1-.402-.63l2.457-1.731-4.09 2.361a.4.4 0 0 1-.187.05"/><path fill="#425C46" d="M21.305 35.543a.373.373 0 0 1-.261-.641l.466-.457-1.54.888a.375.375 0 0 1-.48-.556l.991-1.25-.783.453a.373.373 0 0 1-.503-.525l.239-.377a.373.373 0 0 1-.07-.68l.868-.5a.373.373 0 0 1 .503.524l-.096.15 1.168-.675a.375.375 0 0 1 .48.556l-.991 1.25 2.402-1.386a.374.374 0 0 1 .448.59l-.466.458.086-.05a.374.374 0 0 1 .503.524l-.264.413c.101.021.193.084.249.18a.373.373 0 0 1-.137.51l-.95.549a.375.375 0 0 1-.503-.524l.153-.241-1.326.766a.4.4 0 0 1-.187.05M22.555 42.272a.372.372 0 0 1-.318-.57l.614-.992-2.59 1.494a.374.374 0 0 1-.48-.556l1.104-1.392-1.187.684a.372.372 0 0 1-.516-.502l.333-.611a.374.374 0 0 1-.152-.697l.868-.5a.374.374 0 0 1 .515.502l-.27.496 1.73-.999a.373.373 0 0 1 .48.556l-1.103 1.392 2.179-1.257a.373.373 0 0 1 .505.52l-.615.992.113-.065a.373.373 0 0 1 .51.137.373.373 0 0 1-.136.511l-1.398.807a.36.36 0 0 1-.186.05M22.472 49.006a.373.373 0 0 1-.318-.57l.686-1.112-2.715 1.568a.374.374 0 0 1-.431-.607l.349-.302-.345.2a.373.373 0 0 1-.532-.468l.487-1.168a.373.373 0 0 1-.29-.683l.869-.5a.373.373 0 0 1 .532.467l-.482 1.15 2.796-1.613a.374.374 0 0 1 .431.606l-.347.3.585-.337a.373.373 0 0 1 .505.52l-.686 1.112.198-.114a.37.37 0 0 1 .511.137.373.373 0 0 1-.137.51l-1.48.856a.37.37 0 0 1-.187.05zM21.659 55.735a.374.374 0 0 1-.26-.642l.114-.11-1.198.69a.374.374 0 0 1-.47-.568l1.087-1.25-1.234.712a.375.375 0 0 1-.522-.49l.39-.786a.4.4 0 0 1-.34-.187.373.373 0 0 1 .137-.51l.869-.502a.375.375 0 0 1 .522.49l-.357.717 2.091-1.207a.374.374 0 0 1 .47.569l-1.086 1.25 1.893-1.093a.374.374 0 0 1 .447.592l-.262.253h.002a.373.373 0 0 1 .187.698l-2.294 1.325a.37.37 0 0 1-.187.05z"/><path fill="#00AF1A" d="M16.875 28.833a.375.375 0 0 1-.252-.65l1.53-1.394-2.198 1.269a.375.375 0 0 1-.444-.595l.88-.839-.435.25a.375.375 0 0 1-.522-.49l.385-.764a.36.36 0 0 1-.334-.187.373.373 0 0 1 .136-.511l.87-.503a.373.373 0 0 1 .522.492l-.348.69 2.056-1.186a.375.375 0 0 1 .445.595l-.88.839 2.49-1.438a.374.374 0 0 1 .439.6l-1.53 1.394 3.46-1.998a.374.374 0 0 1 .425.613l-1.054.87 2.574-1.486a.375.375 0 0 1 .442.598l-1.577 1.461 3.574-2.063a.375.375 0 0 1 .483.096c.114.149.101.358-.031.492l-1.723 1.734 1.999-1.154a.373.373 0 0 1 .503.523l-.8 1.271.306-.177a.374.374 0 1 1 .374.648l-1.615.932a.374.374 0 0 1-.503-.522l.8-1.272-3.116 1.8a.373.373 0 0 1-.452-.588l1.722-1.734-4.03 2.327a.375.375 0 0 1-.441-.598l1.576-1.462-3.574 2.064a.376.376 0 0 1-.494-.111.376.376 0 0 1 .07-.502l1.054-.87-2.574 1.486a.4.4 0 0 1-.187.05z"/><path fill="#fff" d="M28.253 59.497a.375.375 0 0 1-.206-.687l8.262-5.44-8.385 4.842a.374.374 0 0 1-.385-.641l1.1-.687-.715.412a.375.375 0 0 1-.387-.64l3.402-2.147-3.015 1.74a.375.375 0 0 1-.39-.639l6.35-4.084-5.96 3.44a.374.374 0 0 1-.386-.641l.401-.25-.016.01a.374.374 0 0 1-.389-.639l5.741-3.676-5.352 3.09a.373.373 0 0 1-.392-.637L36 46.664l-8.078 4.663a.374.374 0 0 1-.388-.64l4.666-2.967-4.28 2.47a.373.373 0 0 1-.506-.129.375.375 0 0 1 .119-.51l5.188-3.31-4.8 2.771a.374.374 0 0 1-.391-.638l7.281-4.721-6.89 3.978a.374.374 0 0 1-.386-.642l.48-.297-.095.053a.373.373 0 0 1-.39-.638l7.07-4.577-6.68 3.857a.374.374 0 0 1-.387-.64l2.59-1.629-2.204 1.272a.374.374 0 0 1-.385-.64l1.142-.714-.757.437a.373.373 0 0 1-.391-.638l7.647-4.976-7.256 4.19a.375.375 0 0 1-.392-.637l7.872-5.134-7.481 4.318a.373.373 0 0 1-.386-.64l1.962-1.23-1.576.91a.375.375 0 0 1-.391-.638l7.311-4.743-6.92 3.995a.375.375 0 0 1-.389-.639l5.369-3.43-4.98 2.876a.374.374 0 0 1-.389-.64l4.478-2.844-4.09 2.362a.374.374 0 0 1-.388-.64l4.16-2.637-3.773 2.178a.374.374 0 0 1-.385-.642l.626-.39-.241.14a.374.374 0 0 1-.395-.635l9.593-6.382-9.199 5.311a.374.374 0 0 1-.39-.638l6.887-4.451-6.498 3.751a.373.373 0 0 1-.387-.64l3.018-1.908-2.631 1.52a.374.374 0 0 1-.395-.637l6.205-4.111-5.811 3.355a.374.374 0 0 1-.396-.633l5.241-3.549-4.845 2.797a.374.374 0 0 1-.395-.635l2.363-1.575-1.969 1.138a.375.375 0 0 1-.407-.627l3.832-2.79-3.425 1.979a.374.374 0 0 1-.4-.63l.683-.477-.283.163a.375.375 0 0 1-.429-.61l2.208-1.866-1.779 1.027a.374.374 0 0 1-.463-.577l1.209-1.314-.747.431a.373.373 0 0 1-.551-.407l.228-1.003a.373.373 0 0 1-.05-.672l.375-.217a.375.375 0 0 1 .55.407l-.184.817 2.124-1.227a.374.374 0 0 1 .463.577l-1.209 1.314 3.28-1.893a.375.375 0 0 1 .428.61l-2.206 1.866 4.292-2.479a.373.373 0 0 1 .4.63l-.683.477 1.92-1.11a.373.373 0 0 1 .407.628l-3.833 2.79 5.924-3.42a.374.374 0 0 1 .394.636l-2.361 1.574 3.83-2.212a.375.375 0 0 1 .396.634l-5.243 3.55 7.248-4.186a.374.374 0 0 1 .394.636l-6.204 4.112 8.227-4.75a.374.374 0 0 1 .387.639l-3.02 1.91 3.305-1.909a.374.374 0 0 1 .39.638l-6.886 4.451 6.497-3.752a.374.374 0 0 1 .395.635l-9.593 6.383 9.2-5.312a.374.374 0 0 1 .385.642l-.62.387.235-.137a.374.374 0 0 1 .387.64l-4.165 2.641 3.78-2.182a.374.374 0 0 1 .388.64l-4.47 2.838 4.082-2.356a.375.375 0 0 1 .389.639l-5.375 3.433 4.987-2.88a.375.375 0 0 1 .39.639l-7.307 4.74 6.918-3.994a.375.375 0 0 1 .386.64l-1.97 1.236 1.585-.916a.375.375 0 0 1 .392.637l-7.87 5.132 7.48-4.318a.373.373 0 0 1 .505.129.37.37 0 0 1-.114.508l-7.645 4.975 7.254-4.189a.373.373 0 0 1 .385.641l-1.142.714.759-.438a.375.375 0 0 1 .387.641l-2.591 1.629 2.204-1.274a.374.374 0 0 1 .39.638l-7.071 4.578 6.683-3.858a.374.374 0 0 1 .385.642l-.48.298.095-.055a.374.374 0 0 1 .39.638l-7.284 4.724 6.896-3.981a.374.374 0 0 1 .388.639L42.165 41.1l4.791-2.766a.374.374 0 0 1 .388.64l-4.672 2.97 4.285-2.473a.374.374 0 0 1 .392.636l-8.467 5.557 8.076-4.662a.374.374 0 0 1 .389.639l-5.745 3.68 5.357-3.094a.375.375 0 0 1 .385.642l-.393.245.01-.006a.373.373 0 0 1 .39.64l-6.354 4.087 5.965-3.443a.375.375 0 0 1 .387.64l-3.396 2.144 3.01-1.738a.374.374 0 0 1 .385.64l-1.107.693.723-.418a.373.373 0 0 1 .506.128.375.375 0 0 1-.112.509l-8.267 5.442 7.874-4.545a.375.375 0 0 1 .393.636l-5.852 3.85 5.46-3.154a.373.373 0 0 1 .398.632l-5.995 4.11 5.598-3.231a.374.374 0 0 1 .392.636l-1.352.888.96-.554a.374.374 0 0 1 .398.633l-2.256 1.542 1.858-1.073a.373.373 0 0 1 .417.618l-3.456 2.703 3.04-1.755a.374.374 0 0 1 .44.598l-2.317 2.142 1.878-1.084a.373.373 0 0 1 .468.57l-.924 1.054.456-.264a.374.374 0 0 1 .52.495l-.23.449a.375.375 0 0 1 .085.684l-.715.413a.375.375 0 0 1-.52-.495l.134-.263-1.315.76a.374.374 0 0 1-.468-.57l.923-1.054-2.82 1.627a.375.375 0 0 1-.441-.598l2.32-2.143-4.753 2.744a.373.373 0 0 1-.417-.618l3.454-2.702-5.757 3.324a.374.374 0 0 1-.398-.633l2.257-1.542-3.771 2.177a.374.374 0 0 1-.393-.636l1.361-.894-2.653 1.531a.373.373 0 0 1-.398-.632l5.992-4.107-8.215 4.743a.373.373 0 0 1-.393-.636l5.859-3.853-7.78 4.491a.4.4 0 0 1-.187.05z"/><path fill="#00AF1A" d="M40.035 32.572a.373.373 0 0 1-.187-.698l4.108-2.372a.375.375 0 0 1 .475.565l-.614.728.14-.081a.373.373 0 0 1 .512.137.373.373 0 0 1-.137.51l-1.989 1.15a.375.375 0 0 1-.474-.565l.613-.728-2.26 1.306a.4.4 0 0 1-.187.05z"/><path fill="#00AF1A" d="M36.11 37.039a.373.373 0 0 1-.264-.638L37.4 34.84l-2 1.155a.374.374 0 0 1-.411-.624l3.774-2.81-3.373 1.948a.373.373 0 0 1-.397-.632l.574-.391-.182.105a.374.374 0 0 1-.413-.622l2.608-1.988-2.634 1.52a.373.373 0 0 1-.433-.605l2.206-1.933-4.395 2.54a.375.375 0 0 1-.42-.618l3.569-2.834-4.56 2.632a.374.374 0 0 1-.396-.633l.538-.365-.14.081a.374.374 0 0 1-.452-.587l.717-.72-.265.154a.375.375 0 0 1-.509-.513l.29-.495a.373.373 0 0 1-.114-.691l.871-.503a.373.373 0 0 1 .51.513l-.197.334 1.485-.857a.375.375 0 0 1 .452.588l-.718.718 6.493-3.748a.373.373 0 0 1 .397.633l-.535.363.143-.082a.374.374 0 0 1 .419.617l-3.568 2.834 3.31-1.912a.374.374 0 0 1 .433.605l-2.207 1.934 4.398-2.539a.374.374 0 0 1 .414.622l-2.609 1.989 3.812-2.2a.375.375 0 0 1 .397.632l-.576.392.251-.145a.375.375 0 0 1 .411.624l-4.6 3.424a.375.375 0 0 1 .155.621l-1.556 1.56 1.104-.636a.374.374 0 0 1 .505.519l-.486.794a.374.374 0 0 1 .354.658l-1.254.724a.374.374 0 0 1-.506-.519l.486-.793-2.272 1.312a.4.4 0 0 1-.187.05z"/><path fill="#00AF1A" d="M35.214 27.871a.374.374 0 0 1-.231-.668l.348-.273a.374.374 0 0 1-.36-.639l.833-.718-.403.233a.375.375 0 0 1-.534-.464l.503-1.235a.38.38 0 0 1-.44-.168.373.373 0 0 1 .136-.51l.87-.503a.373.373 0 0 1 .533.465l-.498 1.223 2.9-1.674a.374.374 0 0 1 .43.607l-.834.719 1.003-.58a.374.374 0 0 1 .418.619l-.344.27a.373.373 0 0 1 .305.679l-4.447 2.568a.4.4 0 0 1-.187.05zM33.955 19.839a.374.374 0 0 1-.233-.666l.778-.623-2.147 1.24a.374.374 0 0 1-.448-.59l1.664-1.636-3.855 2.226a.374.374 0 0 1-.449-.59l1.664-1.635-3.853 2.224a.375.375 0 0 1-.439-.6l1.495-1.361-2.431 1.404a.374.374 0 0 1-.473-.565l1.268-1.51-.814.47a.375.375 0 0 1-.509-.514l.282-.476a.373.373 0 0 1-.107-.689l.868-.501a.375.375 0 0 1 .508.515l-.18.304 1.418-.82a.373.373 0 0 1 .474.565l-1.268 1.51 3.592-2.074a.375.375 0 0 1 .44.6l-1.496 1.362 3.397-1.962a.374.374 0 0 1 .449.59l-1.663 1.635 3.853-2.225a.374.374 0 0 1 .449.59l-1.665 1.636 3.856-2.226a.373.373 0 0 1 .42.615l-.777.623 2.145-1.238a.373.373 0 0 1 .443.595l-1.595 1.51 3.645-2.105a.375.375 0 0 1 .436.603l-1.42 1.264 3.235-1.867a.375.375 0 0 1 .446.593l-1.64 1.589 3.779-2.182a.374.374 0 0 1 .422.614l-.895.728 1.951-1.127a.374.374 0 0 1 .446.594l-1.4 1.344 1.17-.676a.374.374 0 0 1 .471.567l-.477.556.006-.003a.373.373 0 1 1 .374.648l-1.902 1.098a.375.375 0 0 1-.471-.568l.477-.555-1.945 1.123a.375.375 0 0 1-.446-.593l1.401-1.345-3.357 1.938a.374.374 0 0 1-.423-.614l.897-.728-2.325 1.342a.375.375 0 0 1-.447-.593l1.64-1.589-3.778 2.182a.373.373 0 0 1-.436-.604l1.42-1.264-3.234 1.867a.373.373 0 0 1-.444-.595l1.595-1.509-3.645 2.105a.4.4 0 0 1-.187.05z"/><path fill="#425C46" d="M34.864 43.021a.373.373 0 0 1-.336-.538l.52-1.064-2.684 1.549a.374.374 0 0 1-.488-.546l1.109-1.501-1.32.762a.373.373 0 0 1-.516-.504l.332-.605a.375.375 0 0 1-.151-.697l.868-.5a.373.373 0 0 1 .515.503l-.267.487 1.718-.99a.373.373 0 0 1 .488.545l-1.109 1.5 2.19-1.263a.373.373 0 0 1 .523.488l-.52 1.065a.374.374 0 0 1 .357.656l-1.043.602a.4.4 0 0 1-.187.05zM41.158 43.022a.375.375 0 0 1-.304-.592l.977-1.366-2.614 1.51a.374.374 0 0 1-.44-.6l.302-.278a.373.373 0 0 1-.454-.533l.326-.588a.374.374 0 0 1-.146-.696l.868-.5a.375.375 0 0 1 .515.505l-.258.464 1.68-.97a.374.374 0 0 1 .44.6l-.283.26 1.186-.684a.374.374 0 0 1 .491.541l-.977 1.367.74-.427a.37.37 0 0 1 .51.137.373.373 0 0 1-.136.51l-2.235 1.291a.37.37 0 0 1-.187.05zM34.557 49.75a.374.374 0 0 1-.32-.566l.604-.995-2.593 1.497a.373.373 0 0 1-.427-.61l.13-.11-.27.157a.374.374 0 0 1-.444-.595l.298-.284a.372.372 0 0 1-.373-.568l.243-.387a.373.373 0 0 1-.074-.68l.868-.502a.373.373 0 0 1 .503.523l-.105.166 1.194-.689a.374.374 0 0 1 .444.594l-.22.21 1.284-.74a.373.373 0 0 1 .427.61l-.127.106.13-.075a.374.374 0 0 1 .506.517l-.603.995.1-.057a.37.37 0 0 1 .51.137.373.373 0 0 1-.137.51l-1.361.787a.37.37 0 0 1-.187.05M41.265 49.75a.374.374 0 0 1-.263-.64l.06-.057-1.123.648a.374.374 0 0 1-.48-.556l1.117-1.411-1.437.83a.373.373 0 0 1-.521-.491l.385-.767a.373.373 0 0 1-.197-.698l.868-.5a.374.374 0 0 1 .521.491l-.348.693 2.053-1.185a.373.373 0 0 1 .48.556l-1.118 1.411 1.946-1.123a.374.374 0 0 1 .45.59l-.237.233a.375.375 0 0 1 .16.697l-2.129 1.23a.37.37 0 0 1-.187.05M35.415 59.49a.375.375 0 0 1-.242-.659l2.604-2.214-3.871 2.235a.373.373 0 0 1-.418-.618l3.282-2.574-2.864 1.654a.373.373 0 0 1-.414-.621l1.326-1.007-.913.526a.374.374 0 0 1-.428-.61l.927-.783-.499.288a.374.374 0 0 1-.463-.576l.54-.59-.077.045a.374.374 0 0 1-.545-.43l.179-.598a.373.373 0 0 1-.008-.652l.376-.217a.374.374 0 0 1 .545.43l-.105.348 1.358-.784a.374.374 0 0 1 .463.576l-.54.59 2.03-1.172a.373.373 0 0 1 .428.61l-.926.784 2.422-1.399a.374.374 0 0 1 .414.621L38.67 53.7l2.294-1.325a.373.373 0 0 1 .418.618L38.1 55.567l2.871-1.657a.375.375 0 0 1 .43.609l-2.604 2.213 2.18-1.258a.373.373 0 0 1 .424.612l-.52.427.098-.057a.374.374 0 0 1 .483.553l-.633.814.155-.09a.37.37 0 0 1 .51.138.373.373 0 0 1-.136.51l-1.814 1.047a.374.374 0 0 1-.482-.553l.633-.814-2.38 1.374a.373.373 0 0 1-.423-.613l.52-.427L35.6 59.44a.37.37 0 0 1-.187.05z"/><path fill="#0F1D11" d="M44.698 28.364c-.403-1.823-3.12-.712-4.476-1-.294-1.413.863-4.148-1.123-4.488-4.394-.352-4.748.184-4.454 4.487-3.575-.157-5.07-.265-4.487 3.898.148 2.14 3.063 1.02 4.487 1.287.294 1.412-.863 4.147 1.123 4.488 4.395.352 4.748-.184 4.454-4.488 4.068.252 4.86.126 4.476-4.184m-1.157 3.487c-1.321.28-3.397-.563-4.41.404-.052 1.322.098 2.796-.032 4.083-.472.057-1.038-.032-1.532 0-3.437.867-.843-3.351-2.178-4.487-1.253-.271-3.347.61-4.141-.461.012-1.052-.133-2.347.098-3.328 3.633-.2 4.828 1.21 4.388-3.402.003-.561-.253-1.354.628-1.085 3.996-.585 2.514 1.353 2.77 4.193 3.318 1.376 5.133-2.081 4.41 4.083M20.118 42.217c1.393-.198 4.364.744 4.395-1.404.002-.792.236-1.995-.834-2.156-1.427.112-3.168-.433-4.408.415-.6.88-.702 3.256.847 3.145m-.093-1.845c.042-.387-.115-.806.131-1.146 2.274.072 3.938-.725 3.154 2.402-1.18-.203-3.693.748-3.285-1.256M20.118 48.983c1.393-.198 4.364.743 4.395-1.404.002-.793.236-1.995-.834-2.156-1.427.112-3.168-.434-4.408.414-.6.88-.702 3.257.847 3.147zm-.093-1.846c.042-.386-.115-.805.131-1.145 2.274.071 3.938-.726 3.154 2.402-1.18-.203-3.693.748-3.285-1.257M20.118 35.493c1.393-.198 4.364.743 4.395-1.405.002-.792.236-1.994-.834-2.155-1.427.111-3.168-.434-4.408.414-.6.88-.702 3.256.847 3.146m-.093-1.846c.042-.387-.115-.805.131-1.146 2.274.072 3.938-.725 3.154 2.403-1.18-.203-3.693.747-3.285-1.257M20.118 55.747c1.393-.198 4.364.744 4.395-1.404.002-.792.236-1.995-.834-2.156-1.427.112-3.168-.433-4.408.415-.6.88-.702 3.256.847 3.145m-.093-1.846c.042-.386-.115-.805.131-1.145 2.274.072 3.938-.726 3.154 2.402-1.18-.203-3.693.748-3.285-1.257M51.417 42.217c1.393-.198 4.364.744 4.394-1.404.003-.792.237-1.995-.834-2.156-1.426.112-3.167-.433-4.407.415-.601.88-.702 3.256.847 3.145m-.093-1.845c.042-.387-.115-.806.131-1.146 2.274.072 3.938-.725 3.154 2.402-1.181-.203-3.693.748-3.285-1.256M51.419 48.983c1.393-.198 4.364.743 4.394-1.404.003-.793.237-1.995-.834-2.156-1.426.112-3.167-.434-4.407.414-.601.88-.702 3.257.847 3.147zm-.093-1.846c.042-.386-.115-.805.131-1.145 2.273.071 3.938-.726 3.154 2.402-1.181-.203-3.693.748-3.285-1.257M39.59 42.915c1.394-.198 4.365.744 4.395-1.404.002-.792.237-1.995-.834-2.156-1.427.112-3.168-.433-4.408.415-.6.88-.701 3.256.848 3.145m-.092-1.846c.042-.386-.115-.805.13-1.145 2.274.072 3.938-.726 3.155 2.402-1.181-.203-3.693.748-3.285-1.257M39.59 49.679c1.394-.198 4.365.743 4.395-1.405.002-.792.237-1.994-.834-2.155-1.427.111-3.168-.434-4.408.414-.6.88-.701 3.256.848 3.146m-.092-1.846c.042-.387-.115-.805.13-1.146 2.274.072 3.938-.725 3.155 2.403-1.181-.203-3.693.747-3.285-1.257M32.114 42.915c1.394-.198 4.364.744 4.395-1.404.002-.792.236-1.995-.834-2.156-1.427.112-3.168-.433-4.408.415-.6.88-.702 3.256.847 3.145m-.093-1.846c.042-.386-.115-.805.131-1.145 2.274.072 3.938-.726 3.154 2.402-1.18-.203-3.693.748-3.285-1.257M32.114 49.679c1.394-.198 4.364.743 4.395-1.405.002-.792.236-1.994-.834-2.155-1.427.111-3.168-.434-4.408.414-.6.88-.702 3.256.847 3.146m-.093-1.846c.042-.387-.115-.805.131-1.146 2.274.072 3.938-.725 3.154 2.403-1.18-.203-3.693.747-3.285-1.257M51.419 35.493c1.393-.198 4.364.743 4.394-1.405.003-.792.237-1.994-.834-2.155-1.426.111-3.167-.434-4.407.414-.601.88-.702 3.256.847 3.146m-.093-1.846c.042-.387-.115-.805.131-1.146 2.273.072 3.938-.725 3.154 2.403-1.181-.203-3.693.747-3.285-1.257M51.417 55.748c1.393-.198 4.364.743 4.394-1.405.003-.792.237-1.994-.834-2.155-1.426.111-3.167-.434-4.407.414-.601.88-.702 3.256.847 3.146m-.093-1.846c.042-.387-.115-.806.131-1.146 2.274.072 3.938-.725 3.154 2.402-1.181-.202-3.693.748-3.285-1.256"/><path fill="#0F1D11" d="M58.095 24.517H47.704v-4.683c1.843.288 2.471-1.006 2.24-2.64.349-2.78-3.195-1.602-4.883-1.795H30.278c-1.698.262-5.245-1.003-5.356 1.574-.256 1.798.08 3.283 2.24 2.862v4.678c-2.852.619-10.815-1.519-11.958 1.238-.004 7.675.002 15.354 0 23.03-.312 14.473-1.08 9.82 12.001 10.552 6.596.348 13.734.353 20.353-.005 10.158-.972 12.984 4.104 12.105-8.048V28.397c-.08-1.417.753-4.262-1.568-3.88m-5.873.408c1.913.068 3.88-.112 5.77 0 1.085.437.46 2.38.588 3.291H47.705v-3.29zm-25.756-5.787c-.764-.21-.455-1.818-.454-2.415.001-.575-.092-.628.444-.628 7.322.01 14.687-.012 21.987 0 .575.182.41.942.41 1.391 0 .145.128 1.598-.138 1.653-7.388-.01-14.879.008-22.25 0M16.203 24.93c3.622-.023 7.315.015 10.96 0v3.164H16.299c.07-1.037.07-2.217-.096-3.164m2.613 33.985c-2.28.398-2.857-.363-2.529-2.613V28.828h10.876v30.087zm15.422-6.19h2.652v6.006h-2.652zm6.367 0h.026v6.006h-2.654v-6.007zm1.11 6.006v-6.007c3.148-1.159-6.652-.515-7.452-.663-.579.07-1.415-.219-1.825.306-.15.433.44.355.712.358v6.006h-4.89V19.834h18.347V58.73zm16.95.189c-3.622.022-7.315-.016-10.96 0V28.705H58.58c.101 10.043-.187 20.251.085 30.215"/></g><defs><clipPath id="a"><path fill="#fff" d="M15 15h44.872v44.872H15z"/></clipPath></defs></svg>