<svg width="550" height="577" viewBox="0 0 550 577" fill="none" xmlns="http://www.w3.org/2000/svg">
<path d="M192.33 471.907L192.907 471.882L200.016 473.287L204.047 474.981L205.388 463.805L216.135 469.101L218.053 457.899L226.877 462.967L229.499 454.159L235.684 459.407L238.323 453.045L245.31 475.825L251.275 493.49L248.442 494.302L214.58 503.657L211.684 499.935L192.33 471.907Z" fill="white"/>
<path d="M242.626 473.917L401.982 435.066L432.019 464.323L197.826 527.128L207.595 486.591L242.626 473.917Z" fill="white"/>
<path d="M416.043 325.477C416.775 327.513 416.406 330.287 416.204 332.319C416.082 335.148 415.602 337.948 415.013 340.776C412.995 349.668 408.864 358.03 403.39 365.671C401.234 368.766 398.693 371.722 395.961 374.375C394.195 376.207 392.096 378.588 389.537 379.566L389.427 379.593L388.847 380.085C393.101 393.622 396.65 404.765 397.653 407.901C397.68 408.011 397.922 409.001 397.617 409.659C397.312 410.317 396.322 410.56 396.322 410.56C390.931 411.882 385.594 413.425 380.314 414.72L386.669 437.305L401.632 433.635C401.632 433.635 401.825 433.471 401.962 433.554L402.182 433.5C402.402 433.446 402.593 433.749 402.838 434.273C405.082 436.288 407.159 438.578 409.183 440.648C411.508 442.993 413.916 445.202 416.324 447.411C421.277 451.911 426.478 456.001 431.404 460.391C431.732 460.777 432.06 461.164 432.305 461.687C432.606 461.963 432.959 462.926 432.984 463.503L433.119 464.053L444.902 514C445.118 514.88 444.62 515.702 443.74 515.918L216.007 571.773C215.237 571.962 214.442 571.574 214.143 570.83C211.534 564.472 201.166 535.989 197.936 527.101C197.826 527.128 197.662 526.935 197.525 526.852C197.006 526.162 196.763 525.172 196.904 524.321C197.562 518.444 199.181 512.682 200.938 507.003C202.389 501.981 203.784 497.207 205.098 492.102C204.224 490.917 203.46 489.705 202.586 488.52C200.73 485.709 198.764 482.925 196.799 480.141C195.871 478.736 194.943 477.331 194.015 475.925C193.06 474.41 192.436 472.814 191.701 471.244C191.701 471.244 191.62 470.914 191.647 471.024C191.975 471.41 192.386 471.659 192.687 471.936L192.633 471.716C194.638 471.807 196.45 472.062 198.316 472.538C199.304 472.762 200.182 473.013 201.087 473.374C201.882 473.762 202.787 474.124 203.721 474.128C203.674 472.507 203.846 470.831 204.045 469.266C204.22 467.124 204.531 465.065 204.843 463.006C204.982 462.622 205.148 462.348 205.559 462.597C208.82 464.48 212.247 466.088 215.674 467.697C216.184 464.073 216.722 460.559 217.233 456.934C217.372 456.55 217.538 456.276 217.949 456.525C220.743 458.406 223.593 460.04 226.553 461.646C226.979 458.626 227.815 455.855 229.146 453.196C229.092 452.976 229.422 452.895 229.696 453.061C231.778 454.417 233.721 456.156 235.36 458.087C236.166 456.14 236.971 454.192 237.777 452.245C238.055 451.477 237.953 449.636 238.79 453.047C239.626 456.457 240.93 459.87 241.986 463.227C243.043 466.583 244.072 469.83 245.129 473.186C249.53 472.107 253.82 471.055 258.167 469.755L257.951 468.875C256.693 467.551 256.263 465.323 255.859 463.673C255.209 461.5 254.422 459.243 253.883 457.043C252.583 452.696 251.174 448.376 249.93 443.782C248.797 439.162 247.361 434.732 246.007 430.165L245.926 429.835L231.514 433.37C230.964 433.505 230.416 433.172 230.391 432.595L223.689 401.464C214.35 407.137 204.328 411.928 193.983 415.398C187.433 417.705 180.639 419.487 173.738 420.83C170.327 421.667 166.892 421.926 163.483 422.296C159.608 422.663 155.925 422.866 152.081 422.41L149.993 422.455L150.155 423.115C150.182 423.225 149.962 423.279 149.962 423.279C150.016 423.499 149.796 423.553 149.742 423.333C147.379 417.031 146.778 410.297 146.809 403.291C146.84 396.285 147.969 389.477 150.197 382.865C152.229 376.885 155.056 371.293 158.568 366.115C162.633 360.336 167.436 355.193 171.774 349.58C180.175 338.655 186.878 326.514 191.771 313.65C194.189 307.341 196.553 300.813 200.259 295.472C203.964 290.131 208.352 285.672 213.645 281.575C218.939 277.477 224.969 274.482 231.026 271.597C237.413 268.63 244.045 266.187 250.704 263.854L248.491 254.833C247.196 249.552 245.048 244.597 243.23 239.561C239.695 237.512 236.436 235.162 233.343 232.538C227.896 227.925 223.498 222.356 219.705 216.404C219.35 215.908 219.105 215.385 218.75 214.889C218.47 216.124 217.148 216.915 215.718 217.266C213.407 217.832 211.101 217.465 208.907 216.603C205.123 214.965 201.426 212.256 198.719 209.305C196.012 206.353 194.271 202.581 194.097 198.541C194.03 194.942 194.956 190.632 199.081 189.854C200.868 189.532 202.981 190.064 204.735 191.033C196.135 178.796 187.398 166.476 180.011 153.475C179.029 151.849 178.157 150.197 178.055 148.356C177.794 145.387 179.455 142.647 181.059 140.154C185.402 133.607 190.072 127.446 195.181 121.644C202.388 113.462 208.827 105.001 214.446 95.5746C218.276 99.3008 223.293 101.686 228.509 102.506C225.855 100.241 223.862 97.3476 222.722 94.128C228.715 99.5398 236.559 102.515 244.381 104.445C252.202 106.376 260.275 107.429 268.013 109.496C268.754 109.665 270.373 110.084 271.934 111.217C275.384 113.87 275.914 118.406 276.179 120.44C279.932 153.811 279.926 155.213 279.978 155.9C279.963 159.169 280.027 163.236 280.034 168.016C280.976 166.152 282.576 164.593 284.611 164.328C288.102 163.821 290.726 166.91 291.921 169.883C293.416 173.598 293.837 177.694 293.518 181.621C293.2 185.082 292.355 189.721 289.679 192.127C287.969 193.713 284.363 195.181 282.198 193.962C282.705 197.454 283.074 200.862 283.361 204.408C283.832 209.657 283.259 214.93 282.275 219.953C281.685 222.781 281.123 225.718 280.149 228.406C281.183 230.719 281.804 233.249 282.644 235.726C283.649 238.395 284.544 241.092 285.658 243.734C286.773 246.377 287.941 249.239 289.249 251.718C289.739 252.764 290.449 253.756 290.966 254.913C293.224 253.659 295.782 253.148 298.256 252.775C301.06 252.32 304.029 252.059 306.914 251.934C312.438 251.629 317.961 251.324 323.483 251.486C328.317 251.7 333.123 252.271 337.704 253.83C341.874 255.14 345.849 257.081 349.575 259.433C357.465 264.496 364.415 270.956 371.227 277.333C378.943 284.539 386.438 291.798 393.851 299.194C397.598 303.058 401.207 306.838 404.844 310.728C408.481 314.618 412.337 318.454 415.505 322.809C415.532 322.919 415.802 324.02 415.746 324.267L416.043 325.477ZM416.043 325.477L416.153 325.45" stroke="white" stroke-width="7" stroke-linecap="round" stroke-linejoin="round"/>
<path d="M313.24 65.1619C312.481 63.0155 312.134 60.6511 311.594 58.4507C311.055 56.2504 310.488 53.94 310.278 51.6586C309.693 47.37 309.438 43.0003 309.623 38.5228C309.99 30.0347 311.813 21.773 314.513 13.7625C315.989 9.31817 317.849 5.01295 319.983 0.873811C315.856 8.30101 312.608 15.9794 310.675 24.2681C308.743 32.5568 308.261 42.006 309.375 50.8303C309.749 53.3047 310.096 55.6691 310.799 58.0625C311.42 60.593 312.454 62.9055 313.377 65.245L313.267 65.2719L313.24 65.1619Z" fill="#DBDFFA"/>
<path d="M322.992 59.271C320.01 44.2565 321.947 28.8518 327.477 14.782C329.033 10.6678 330.974 6.69263 333.079 2.91053L333.025 2.69049C328.546 9.1545 325.328 16.0088 323.344 23.6104C321.359 31.212 320.502 38.6538 320.879 46.3759C321.135 50.7455 321.72 55.0342 322.635 59.2419C322.743 59.682 323.127 59.8211 323.075 59.134L322.992 59.271Z" fill="#DBDFFA"/>
<path d="M77.2839 79.8782C85.6741 83.6523 93.4001 88.5223 100.877 93.8034C108.354 99.0845 114.977 104.691 121.213 111.093C124.632 114.571 127.968 118.185 131.193 121.826L131.139 121.606C125.815 114.164 119.498 107.432 112.547 101.439C105.595 95.4455 98.5292 90.4135 90.6082 86.1745C86.1951 83.8744 81.589 81.7383 77.0099 79.7122L77.2839 79.8782Z" fill="#DBDFFA"/>
<path d="M86.764 73.3541C90.546 75.4591 94.2989 77.9211 97.9419 80.4101C101.585 82.8991 104.954 85.222 108.294 87.902C115 93.372 121.045 99.4709 126.62 106.035C129.763 109.813 132.796 113.618 135.415 117.641C130.971 109.983 125.728 102.871 119.519 96.5792C113.311 90.2872 106.714 84.7903 99.3721 80.0593C95.3451 77.4312 91.013 75.4612 86.6809 73.4911L86.764 73.3541Z" fill="#DBDFFA"/>
<path d="M464.473 246.649C465.972 249.43 468.89 254.196 474.449 258.315C479.022 261.742 483.493 263.328 486.347 264.028C484.168 266.079 481.241 269.363 478.912 274.133C475.445 281.398 475.333 288.074 475.565 291.399C473.546 288.396 470.241 283.958 465.039 279.868C460.001 275.972 455.175 273.889 451.829 272.611C454.119 270.533 457.239 267.085 459.842 262.481C463.414 256.123 464.402 250.165 464.693 246.595L464.473 246.649Z" fill="white"/>
<path d="M464.5 246.759C468.168 256.007 477.12 263.025 486.671 265.348L486.023 262.708C484.367 264.514 482.546 266.126 481.191 268.209C479.366 270.755 477.953 273.552 476.923 276.487C475.254 281.095 474.6 286.038 474.963 290.847L475.954 290.604C474.644 288.593 473.471 286.664 471.885 284.954C469.944 282.747 467.81 280.705 465.4 278.963C462.991 277.221 460.882 275.756 458.166 274.672C455.972 273.811 453.668 272.976 451.64 271.84L452.018 273.381C453.946 272.208 455.493 270.429 456.929 268.677C458.698 266.377 460.276 263.774 461.606 261.115C463.686 256.756 464.861 252.035 465.212 247.284C465.214 246.817 465.135 246.02 464.807 245.634C464.506 245.357 464.259 245.301 464.147 245.795C463.632 250.354 462.459 254.607 460.572 258.802C459.352 261.435 457.884 264.011 456.006 266.338C454.596 268.2 452.913 269.895 451.53 271.867C451.254 272.168 451.524 273.269 451.908 273.408C453.994 273.829 456.242 274.911 458.023 275.99C460.379 277.512 462.899 279.227 465.089 281.022C467.279 282.818 469.413 284.86 471.217 286.984C472.666 288.612 474.114 290.239 475.26 292.057C475.642 292.664 476.329 292.612 476.25 291.815C476.051 287.198 476.703 282.723 478.233 278.498C479.262 275.563 480.703 272.877 482.418 270.357C483.717 268.522 485.21 266.523 486.864 265.184C487.443 264.692 486.82 262.629 486.216 262.544C481.579 261.232 477.083 259.069 473.305 256.029C469.828 253.266 467.124 249.847 464.612 246.265C464.394 245.851 464.363 246.676 464.39 246.786L464.5 246.759Z" fill="black"/>
<path d="M379.496 141.755C379.199 140.545 377.954 136.418 373.846 133.46C369.848 130.475 365.645 130.456 364.38 130.533C365.676 129.632 367.579 127.882 369.02 125.196C371.762 120.208 370.905 115.286 370.527 113.746C371.947 115.731 374.353 118.406 377.996 120.895C381.474 123.191 384.711 124.497 386.961 125.112C385.665 126.013 382.799 128.115 380.941 131.953C378.861 136.313 379.145 140.325 379.413 141.892L379.523 141.865L379.496 141.755Z" fill="white"/>
<path d="M379.743 141.811C379.264 138.43 377.19 135.206 374.562 133.051C371.934 130.897 370.782 130.479 368.559 129.975C367.187 129.612 365.813 129.715 364.385 129.599L364.816 131.359C367.847 129.45 370.062 125.641 370.957 122.155C371.656 119.301 371.642 116.389 371.05 113.501L370.552 114.323C372.655 117.19 374.979 119.536 377.91 121.499C379.444 122.523 381.034 123.299 382.708 123.939C384.217 124.385 385.753 124.941 387.179 125.525L386.909 124.425C383.799 125.537 381.447 129.263 380.308 132.225C379.168 135.187 378.824 138.538 379.222 141.589C379.384 142.249 380.013 142.912 379.88 141.894C379.482 138.843 380.017 135.796 381.294 132.917C382.043 131.216 383.15 129.545 384.557 128.151C385.495 127.221 386.46 126.401 387.399 125.471C387.592 125.307 387.376 124.427 387.129 124.371C385.701 124.254 384.138 123.588 382.932 122.951C381.178 121.981 379.397 120.902 377.809 119.658C375.262 117.833 372.827 115.515 370.915 112.951C370.56 112.455 370.255 113.113 370.363 113.553C370.984 116.083 370.807 118.693 370.137 121.19C369.578 123.193 368.719 124.92 367.476 126.508C366.591 127.658 365.433 128.642 364.385 129.599C363.999 129.927 364.376 131.467 364.926 131.332C366.027 131.063 367.289 131.453 368.387 131.65C370.363 132.098 372.173 132.821 373.844 133.927C376.638 135.808 378.494 138.619 379.716 141.701C379.77 141.921 379.99 141.867 379.936 141.647L379.716 141.701L379.743 141.811Z" fill="black"/>
<path d="M73.7936 407.086C72.6748 405.378 70.844 403.144 68.1331 401.126C64.9842 398.749 61.9681 397.39 59.938 396.721C61.1793 395.6 62.7797 394.041 64.2183 391.822C67.0683 387.274 67.3631 382.77 67.2905 380.571C67.6413 382.002 69.0818 385.497 72.6957 388.343C75.8986 390.94 79.3029 391.505 80.731 391.621C79.3776 393.236 77.719 395.509 76.3863 398.635C74.8606 401.926 74.188 404.89 73.7936 407.086Z" fill="white"/>
<path d="M73.8767 406.949C72.378 404.167 70.0532 401.822 67.5893 399.86C65.3163 398.201 62.6863 396.514 59.8591 395.924L60.2369 397.464C61.6443 396.069 62.8856 394.948 64.019 393.388C64.9593 391.99 65.7627 390.51 66.319 388.974C67.2925 386.286 67.579 383.65 67.7285 380.931L66.9605 380.652C67.716 383.733 69.5448 386.434 72.0087 388.395C73.4866 389.666 75.0766 390.442 76.9697 391.028C78.2318 391.418 79.6039 391.781 80.8659 392.171L80.5691 390.961C78.4726 392.875 76.9759 395.808 75.8384 398.303C74.7008 400.798 73.8912 403.68 73.5487 406.563C73.6297 406.893 73.9535 408.213 74.2316 407.445C74.7382 404.755 75.4917 402.121 76.6292 399.626C77.8228 396.884 79.6184 394.694 81.086 392.117C81.252 391.843 81.1192 390.826 80.7891 390.907C77.8478 391.279 74.8628 389.095 72.6729 387.299C70.456 385.394 68.7913 382.886 67.7596 380.106C67.6517 379.666 66.9937 379.361 67.0456 380.048C67.1992 382.577 66.5557 385.184 65.6112 387.515C64.4715 390.477 62.3688 393.792 59.8322 395.814C59.4461 396.142 59.9359 397.188 60.2099 397.354C62.815 398.465 65.4201 399.576 67.72 401.344C70.0199 403.113 71.9068 405.099 73.9307 407.169C73.9846 407.389 73.8497 406.839 73.8497 406.839L73.8767 406.949Z" fill="black"/>
<path d="M85.6793 193.524C84.8096 191.404 82.1423 185.76 75.7593 181.61C69.6504 177.627 63.5248 177.379 61.1896 177.369C63.5622 175.154 66.9852 171.515 69.7833 166.28C73.1648 159.619 73.9059 153.605 73.9765 150.089C74.8732 152.318 77.5675 158.072 83.7304 162.276C89.2084 166.065 94.6178 166.721 97.117 166.924C94.9665 168.618 90.8834 172.419 88.1911 178.561C85.3327 184.977 85.3348 190.692 85.5693 193.551L85.6793 193.524Z" fill="white"/>
<path d="M85.6793 193.523C84.081 188.434 80.5294 183.939 76.1745 180.925C73.4905 179.017 70.4475 177.548 67.2363 176.819C66.0012 176.539 64.7931 176.368 63.612 176.308C62.6779 176.304 61.7708 176.41 60.9197 176.269L61.4594 178.469C63.4438 177.049 65.0463 175.023 66.4558 173.161C68.2244 170.861 69.692 168.285 70.9126 165.653C73.1316 160.91 73.8955 155.94 74.4955 150.778L73.4804 150.444C75.1908 155.04 78.3044 159.175 82.1923 162.187C84.7932 164.232 87.6993 165.618 90.9105 166.347C92.0355 166.654 93.2706 166.934 94.3687 167.132C95.3568 167.356 96.2908 167.36 97.1689 167.611L96.8181 166.181C95.0558 167.08 93.6754 168.585 92.405 170.063C90.3894 172.307 88.8118 174.91 87.6182 177.652C85.4262 182.505 84.6332 187.832 84.9943 193.108C85.0753 193.438 85.1541 194.236 85.5651 194.485C85.9761 194.734 86.0052 194.377 86.0343 194.02C85.7271 188.963 86.711 183.939 88.737 179.36C89.9576 176.728 91.4522 174.262 93.3577 172.045C94.6281 170.567 96.0355 169.172 97.4159 167.667C97.692 167.366 97.3952 166.156 97.0651 166.237C95.2509 166.449 92.9177 165.971 91.2447 165.332C88.3926 164.165 85.5426 162.531 82.9956 160.707C79.2447 157.778 76.4321 153.919 74.4456 149.624C74.1737 148.991 73.3517 148.492 73.4015 149.647C73.4077 154.427 71.9297 159.339 69.9868 163.781C68.7932 166.523 67.2156 169.126 65.337 171.453C63.9005 173.205 62.4101 174.737 60.8367 176.406C60.4776 176.844 60.8263 178.741 61.6234 178.662C63.4376 178.45 65.5507 178.982 67.2798 179.374C70.244 180.047 73.2061 181.187 75.8361 182.874C80.1101 185.558 83.2798 189.447 85.6502 193.881C85.7582 194.321 85.9803 193.8 85.9263 193.58L85.7063 193.634L85.6793 193.523Z" fill="black"/>
<path d="M-0.343066 255.562C11.9434 254.298 24.4914 256.002 36.3461 259.16C48.2007 262.318 59.8831 267.15 71.1233 272.558C77.4565 275.554 83.7066 278.686 89.9006 282.066C90.0376 282.149 89.9567 281.819 89.8197 281.736C84.3127 278.304 78.9427 274.956 73.1866 271.935C67.4306 268.915 61.7285 266.115 55.6672 263.752C44.2589 259.085 32.0742 256.009 19.7981 254.937C13.0145 254.385 6.19975 254.657 -0.590088 255.506L-0.509135 255.836L-0.343066 255.562Z" fill="#DBDFFA"/>
<path d="M23.8916 242.619C43.7421 245.565 62.7457 253.618 79.0964 265.121C83.4783 268.245 87.8872 271.479 92.02 275.014C84.9646 267.647 76.9418 261.567 68.1448 256.609C59.4847 251.735 50.2434 247.82 40.6659 245.387C35.1775 243.934 29.5771 242.974 23.9207 242.262L24.0286 242.702L23.8916 242.619Z" fill="#DBDFFA"/>
<path d="M418.767 188.693C421.055 168.536 428.148 148.951 438.747 131.772C441.736 126.84 445.136 122.157 448.727 117.777C435.334 133.075 425.773 151.633 421.289 171.395C420 177.076 419.205 182.87 418.657 188.72C418.657 188.72 418.711 188.94 418.684 188.83L418.767 188.693Z" fill="#DBDFFA"/>
<path d="M426.209 201.914C431.342 178.144 441.966 155.36 456.86 136.194C461.115 130.718 465.755 125.381 470.722 120.43C470.722 120.43 470.668 120.21 470.695 120.32C452.461 136.806 438.603 157.817 430.944 181.274C428.743 187.995 427.257 194.775 426.155 201.694C426.155 201.694 426.209 201.914 426.182 201.804L426.209 201.914Z" fill="#DBDFFA"/>
<path d="M552.214 409.416C538.502 385.369 513.47 367.481 485.848 363.759C477.885 362.679 470.137 362.947 462.274 364.176L462.328 364.396C469.335 363.96 476.642 364.267 483.644 365.233C490.645 366.198 497.288 367.601 503.816 369.966C516.544 374.309 528.463 381.533 538.037 391.082C543.479 396.629 548.26 402.805 552.351 409.499L552.241 409.526L552.214 409.416Z" fill="#DBDFFA"/>
<path d="M526.935 403.836C512.277 388.769 493.148 377.831 472.563 373.316C466.882 372.026 461.032 371.478 455.181 371.397L455.262 371.727C476.158 374.183 496.405 380.648 513.522 392.896C518.205 396.296 522.695 399.86 526.852 403.973C526.825 403.863 526.962 403.946 526.962 403.946L526.935 403.836Z" fill="#DBDFFA"/>
<path d="M76.6841 529.196C77.5145 515.463 81.2282 502.072 87.9579 490.04C94.6876 478.009 104.101 467.886 115.045 459.72C121.357 455.022 128.382 450.85 135.649 447.668L135.595 447.448C128.689 449.725 122.302 452.691 116.294 456.73C110.48 460.606 105.212 465.28 100.519 470.397C91.0758 480.878 84.454 493.349 80.4103 506.821C78.2348 514.12 76.9374 521.67 76.6841 529.196Z" fill="#DBDFFA"/>
<path d="M96.5389 512.663C103.001 492.883 115.36 475.272 131.053 461.742C135.576 457.833 140.18 454.255 145.085 450.952L145.004 450.622C126.609 460.266 112.193 477.098 102.962 495.575C100.217 501.03 98.1041 506.681 96.4019 512.58C96.4019 512.58 96.4559 512.8 96.4289 512.69L96.5389 512.663Z" fill="#DBDFFA"/>
<path d="M419.786 453.443C425.945 452.399 432.108 450.421 438.269 448.91C444.43 447.399 450.537 445.668 456.56 444.074C468.828 440.832 481.013 437.727 493.2 434.155C500.077 432.235 506.956 429.848 513.833 427.928C507.645 429.329 501.403 430.51 495.215 431.911L476.733 436.444C464.411 439.466 452.28 442.791 440.012 446.033C433.108 447.843 426.04 449.46 419.271 451.82C418.941 451.901 419.292 453.331 419.649 453.36L419.786 453.443Z" fill="black"/>
<path d="M106.01 532.734C109.253 532.639 112.553 531.83 115.634 531.074L124.875 528.807C131.036 527.296 137.087 525.812 143.194 524.081C155.462 520.839 167.702 517.487 179.972 513.778C186.822 511.748 193.728 509.471 200.36 507.028L200.253 506.588C187.877 509.39 175.69 512.962 163.366 516.451C151.152 519.913 138.884 523.155 126.507 526.424C122.986 527.288 119.576 528.124 116.109 529.208C112.643 530.291 109.068 530.935 105.846 532.541L105.9 532.761L106.01 532.734Z" fill="black"/>
<path d="M291.444 172.216L291.984 174.416C292.708 178.321 292.992 182.333 291.795 186.01C290.485 190.18 286.485 193.844 282.254 193.715C282.034 193.769 281.677 193.74 281.43 193.684C283.778 203.255 283.485 213.475 280.668 222.913C280.305 224.286 279.722 225.712 279.605 227.14C279.632 227.25 279.659 227.36 279.603 227.607C279.518 228.211 279.68 228.871 279.732 229.558C279.892 230.685 280.272 231.759 280.542 232.859C282.814 240.699 286.077 248.297 290.03 255.375C290.084 255.595 290.275 255.899 290.439 256.092C290.875 256.918 291.256 257.524 291.665 258.24C291.719 258.46 291.883 258.653 292.047 258.846C292.101 259.066 292.265 259.259 292.429 259.452L292.618 260.223C295.364 266.664 292.058 275.056 287.034 280.254C286.924 280.281 286.758 280.555 286.648 280.582L286.428 280.636C284.718 282.222 282.733 283.642 280.504 284.538C280.284 284.592 280.064 284.646 279.871 284.81C278.714 285.327 277.504 285.624 276.404 285.894C272.884 286.757 269.12 286.631 265.691 285.489C258.339 283.093 252.489 276.363 251.534 268.666C251.427 268.226 251.402 267.649 251.404 267.182L251.323 266.852C251.215 266.412 251.217 265.945 251.219 265.477C251.194 264.9 251.169 264.323 251.144 263.746L251.036 263.306C250.928 262.866 251.041 262.372 250.906 261.822C250.802 260.448 250.671 258.964 250.32 257.533C249.328 252.061 247.209 246.749 245.116 241.547C244.982 240.997 244.627 240.501 244.382 239.978C244.083 239.235 243.701 238.629 243.182 237.939C243.128 237.719 242.881 237.663 242.717 237.47C242.717 237.47 242.553 237.277 242.443 237.304C241.677 236.559 240.691 235.868 239.732 235.286C231.35 229.644 224.212 222.414 218.644 213.982C218.617 213.872 218.454 213.679 218.317 213.596C218.343 213.706 218.26 213.843 218.177 213.98C217.65 215.159 216 215.563 214.572 215.447C210.891 215.183 207.464 213.575 204.203 211.692C200.915 209.699 197.656 207.349 195.666 203.988C193.675 200.627 193.393 196.148 195.797 193.109C198.2 190.07 203.56 189.572 205.744 192.769L205.312 191.008C204.66 189.302 204.008 187.596 203.494 185.972C202.217 182.67 201.486 180.166 200.127 177.001L200.293 176.727C197.329 169.872 195.108 162.719 193.547 155.403C193.115 153.643 192.656 151.773 193.049 150.044C193.447 146.913 195.602 144.285 197.865 142.098C201.811 138.214 206.359 134.882 211.179 132.184C216.852 129.159 222.988 127.071 229.041 125.12C235.397 122.978 241.863 120.809 248.246 118.777C251.492 117.747 254.822 116.581 258.228 116.678C261.634 116.776 265.201 118.001 267.193 120.895C268.694 123.209 268.929 126.068 269.109 128.706C270.024 139.096 271.957 149.352 274.853 159.256C275.095 160.246 275.338 161.236 275.691 162.2C276.748 165.556 277.777 168.803 278.944 172.132L279.133 172.903C279.384 172.025 279.635 171.146 280.023 170.351C280.55 169.172 281.215 168.076 282.18 167.256C283.807 165.808 286.201 165.104 288.202 166.129C290.23 167.265 290.96 169.768 291.39 171.996L291.444 172.216Z" fill="white"/>
<path d="M250.81 264.761C251.053 265.752 251.103 266.906 251.483 267.979C251.806 269.299 252.653 270.374 253.417 271.587C255.383 274.37 257.679 277.073 260.114 279.392C262.083 281.242 264.246 282.927 266.631 284.092C271.375 286.311 276.869 286.363 282.117 286.359C277.948 284.582 275.026 280.75 272.653 276.783C266.461 266.755 262.256 254.839 263.846 243.252C263.676 244.46 253.081 242.16 252.066 241.826C250.173 241.24 248.363 240.518 246.609 239.548C245.266 238.828 243.898 237.531 242.526 237.167C242.823 238.377 243.724 239.673 244.351 240.802C245.384 243.115 246.115 245.618 246.819 248.011C248.525 253.541 250.121 259.098 250.947 264.844L250.81 264.761Z" fill="#DBDFFA"/>
<path d="M416.016 325.367L415.455 334.019L411.067 350.841L400.661 367.857L389.4 379.483L388.847 380.085L384.293 384.818L383.639 377.397L381.751 357.332L381.672 356.535L381.331 352.769L381.761 348.815L382.726 341.813L382.758 340.989L382.928 339.781L382.957 339.424L384.15 330.5L377.4 316.293L377.346 316.073L377.292 315.853L377.101 315.55L376.829 314.916L375.169 311.475L379.968 307.265L389.98 298.628L390.752 297.972L394.662 302.028L395.756 303.159L395.92 303.352L415.337 323.551L415.609 324.184L416.016 325.367Z" fill="white"/>
<path d="M386.91 438.762C374.977 397.717 363.017 356.561 351.194 315.489L370.633 330.549C371.418 327.091 373.871 319.024 381.238 311.969C386.895 306.499 392.977 304.191 396.25 303.271C381.05 286.471 366.897 274.896 356.655 267.377C343.566 257.758 337.368 255.312 332.73 254C315.609 248.868 299.958 253.057 291.593 256.042C294.754 267.98 289.704 279.25 281.39 282.922C271.48 287.218 260.913 278.846 259.626 277.879C253.822 273.237 251.678 267.348 250.893 264.624C244.923 266.439 236.668 269.396 227.578 274.658C220.03 279.076 210.225 284.747 202.376 295.069C194.112 306.077 195.926 312.047 188.329 327.674C182.616 339.573 175.544 348.305 170.023 354.325L169.969 354.105C173.209 354.477 180.731 355.664 188.152 361.192C194.888 366.305 198.13 372.392 199.463 375.447C206.842 365.589 214.249 355.842 221.628 345.984C233.864 386.838 246.339 429.617 258.576 470.472L386.91 438.762Z" fill="#2C49E6"/>
<path d="M192.802 365.884C195.864 369.332 197.881 372.803 199.243 375.501C189.628 375.293 179.704 376.678 171.303 381.421C169.458 382.457 167.749 383.576 166.232 384.997C164.825 386.392 163.608 388.09 162.502 389.761C159.847 393.678 157.713 397.818 155.168 401.708C155.562 399.511 156.096 396.931 157.042 394.133C157.989 391.335 158.906 388.894 159.932 386.892C160.656 384.615 162.045 381.242 165.026 378.178C169.001 373.937 172.63 373.514 178.114 369.72C180.484 367.972 183.876 365.157 187.303 360.584C189.028 361.911 190.998 363.76 192.912 365.857L192.802 365.884Z" fill="#DBDFFA"/>
<path d="M351.847 316.728L351.627 316.782C351.737 316.755 351.874 316.838 352.011 316.921C352.011 316.921 351.958 316.701 351.847 316.728ZM382.511 310.024C382.21 309.748 382.019 309.445 381.718 309.168C381.089 308.506 380.46 307.844 379.968 307.265C368.346 295.069 352.327 283.019 331.47 277.87C329.714 277.368 327.875 277.002 326.173 276.72C326.785 281.119 327.7 291.508 322.212 302.419C315.837 314.946 304.738 321.051 297.006 323.764C289.963 325.958 272.638 329.507 252.223 323.783C236.555 319.345 226.015 311.083 220.597 306.113C215.158 318.178 208.094 331.224 198.913 344.673C195.152 350.261 191.282 355.409 187.552 360.173C187.716 360.366 187.99 360.532 188.264 360.698C190.016 362.135 192.123 364.067 194.118 366.494C196.605 369.5 198.323 372.228 199.494 374.623L199.548 374.843L199.71 375.503C199.876 375.229 200.152 374.928 200.428 374.627C207.255 365.371 214.083 356.115 220.91 346.86C220.91 346.86 221.076 346.586 221.159 346.449L221.348 347.219L225.084 359.599L224.584 360.888L226.209 366.088L226.857 368.728L227.778 371.535L231.38 383.365L233.925 391.839L234.41 393.819L245.16 429.09L245.349 429.86L257.264 468.927L257.696 470.687L386.414 439.117L386.009 437.467L379.654 414.882L378.817 411.471C378.707 411.498 378.111 409.545 378.111 409.545L377.005 405.034L376.895 405.061L375.353 399.724L373.595 393.507L373.352 392.517L365.616 365.255L365.076 363.054L362.994 355.517L362.224 355.706C361.784 355.814 361.207 355.839 360.74 355.837C345.348 357.279 330.764 356.307 317.257 354.021C317.257 354.021 317.037 354.075 316.9 353.992C300.098 351.115 284.929 345.854 271.932 339.944C274.847 339.463 278.367 338.599 281.919 336.912C282.083 337.105 282.33 337.161 282.577 337.217C289.383 338.813 296.329 340.026 303.166 340.798L304.267 340.528C314.737 339.943 324.858 337.461 335.009 334.621C337.759 333.947 340.346 333.079 343.042 332.184C344.445 331.723 345.821 331.153 347.198 330.582C347.472 330.748 347.966 330.86 348.379 330.642C349.975 330.017 351.625 329.613 353.276 329.208L355.476 328.668C358.116 328.021 360.811 327.593 363.395 327.192C363.945 327.057 364.605 326.896 365.182 326.871L366.612 326.52C367.933 326.196 369.801 326.204 370.903 325.468L371.013 325.441C371.895 324.758 372.368 323.359 372.867 322.537C373.753 320.919 374.639 319.302 375.416 317.712C375.721 317.054 376.136 316.369 376.441 315.711C376.607 315.437 376.746 315.053 376.885 314.669C377.161 314.368 377.548 314.04 377.824 313.739C378.982 312.755 380.223 311.634 381.492 310.624C381.712 310.57 381.768 310.323 381.988 310.269L382.538 310.134L382.511 310.024ZM354.536 323.883C354.206 323.964 354.012 324.128 353.709 324.319C353.379 324.4 353.076 324.591 352.773 324.782C352.553 324.836 352.333 324.89 352.14 325.054C351.951 324.284 351.735 323.404 351.793 322.69L351.316 318.841L350.996 316.587C350.996 316.587 351.106 316.56 351.243 316.643C351.243 316.643 351.353 316.616 351.49 316.699C351.6 316.672 351.737 316.755 351.874 316.838C352.643 317.116 353.438 317.504 354.15 318.029C355.794 319.026 357.188 320.433 358.28 322.032L357.84 322.14C356.684 322.657 355.555 323.283 354.399 323.8L354.536 323.883Z" fill="#223ABD"/>
<path d="M293.894 362.434L293.014 362.65C293.041 362.76 290.288 363.902 290.288 363.902L282.114 367.19L260.453 375.885L258.029 377.412L257.422 377.794L251.251 381.641L250.039 382.405L246.375 384.586L241.499 387.532L240.893 387.914L239.571 388.704L238.552 389.304L235.108 391.432L234.502 391.814L234.392 391.841L223.041 398.824L210.452 406.46L203.234 410.797L201.113 412.133L198.142 412.862L190.937 414.396L159.421 421.426L155.35 422.424L152.025 422.657L149.964 422.812L149.744 422.866C148.938 418.632 148.27 414.48 147.492 410.355C147.444 408.734 147.369 407.003 147.461 404.997C147.537 400.08 148.252 393.956 150.342 387.262C152.935 378.811 156.617 372.426 159.575 368.318L170.184 354.985L170.461 354.684L170.627 354.41L171.505 354.661L172.52 354.996L180.202 357.31L180.422 357.256C180.476 357.476 180.723 357.532 180.86 357.615C182.614 358.585 184.779 359.804 186.915 361.379C187.901 362.07 188.777 362.789 189.68 363.617C190.884 364.721 192.088 365.826 193.045 366.874L193.099 367.094C195.013 369.191 196.569 371.258 197.742 373.187C198.288 373.986 198.697 374.702 199.106 375.418L199.16 375.638C198.994 375.912 198.828 376.186 198.525 376.377L199.405 376.161C199.432 376.271 205.479 375.721 205.479 375.721L225.265 368.419L226.284 367.819L226.394 367.792L227.303 367.219L233.998 363.128L254.907 350.418L267.44 349.21L285.045 356.79L285.95 357.151L287.237 358.118L293.288 362.816L293.894 362.434Z" fill="white"/>
<path d="M257.634 188.44C257.715 188.77 258.153 189.129 258.51 189.158C258.84 189.077 259.116 188.776 259.255 188.392C259.45 187.761 259.315 187.211 259.153 186.551C258.991 185.891 258.612 184.818 258.203 184.101C257.958 183.578 257.387 182.202 256.617 182.391C255.847 182.58 255.845 183.047 255.953 183.487L256.438 185.467C256.681 186.457 257.171 187.504 257.634 188.44Z" fill="black"/>
<path d="M249.034 219.475C250.983 219.814 252.743 219.382 254.532 218.593C257.698 217.233 260.234 215.212 262.198 212.281C264.577 208.665 265.613 204.328 265.138 200.013L264.666 200.945C269.401 205.032 271.952 212.104 269.81 218.112C269.032 220.169 267.622 222.031 265.503 222.901C263.383 223.77 260.662 224.088 258.329 223.61C256.737 223.301 255.064 222.662 253.721 221.941C252.104 221.055 250.514 220.279 249.09 219.228C248.953 219.145 249.061 219.585 249.171 219.558C251.713 222.317 254.617 224.171 258.13 225.176C260.874 225.902 263.674 226.382 266.426 225.24C272.151 222.903 272.598 215.212 271.44 210.014C270.36 205.613 267.849 202.03 264.731 198.829C264.403 198.443 264.235 199.184 264.179 199.431C264.49 203.554 263.537 207.753 261.214 211.122C259.417 213.779 256.934 216.021 253.988 217.327C252.419 218.062 250.713 218.713 249.144 219.448L249.034 219.475Z" fill="black"/>
<path d="M262.08 220.358C263.402 219.567 264.45 218.61 265.445 217.433C266.356 216.393 267.103 215.16 267.713 213.844C268.907 211.102 269.443 208.055 268.934 205.03C268.853 204.7 268.664 203.93 268.307 203.901C267.95 203.872 267.975 204.449 268.029 204.669C268.718 210.332 266.576 216.339 261.999 220.028L262.08 220.358Z" fill="black"/>
<path d="M292.786 259.482C292.786 259.482 292.867 259.812 292.647 259.866C292.647 259.866 292.4 259.809 292.373 259.699C292.236 259.616 291.962 259.45 291.798 259.257C291.333 258.788 290.924 258.072 290.569 257.576C289.668 256.281 288.878 254.958 288.197 253.609C286.862 251.02 285.72 248.268 284.552 245.405C283.383 242.543 282.408 239.516 281.459 236.599C280.836 234.536 280.05 232.28 279.51 230.079C278.97 227.879 279.159 228.649 279.08 227.852C278.972 227.412 279.221 227.001 279.522 227.277L279.576 227.497C279.657 227.827 279.848 228.13 280.012 228.323C281.046 230.636 281.667 233.166 282.507 235.643C283.512 238.312 284.407 241.009 285.521 243.651C286.636 246.294 287.804 249.156 289.112 251.635C289.602 252.681 290.312 253.673 290.829 254.83C291.074 255.353 291.292 255.766 291.537 256.289L291.591 256.509C292.054 257.445 292.433 258.518 292.676 259.508L292.786 259.482Z" fill="black"/>
<path d="M204.98 191.556L204.926 191.336C204.926 191.336 204.98 191.556 205.09 191.529L204.98 191.556Z" fill="black"/>
<path d="M276.179 120.44C279.932 153.812 279.926 155.213 279.978 155.9C279.963 159.169 280.027 163.236 280.034 168.016C280.002 168.84 280.081 169.638 280.05 170.462C280.158 170.902 280.046 171.396 280.044 171.863C280.056 175.242 280.123 178.842 280.243 182.661C280.297 182.881 280.351 183.101 280.295 183.348C280.403 183.788 280.291 184.283 280.289 184.75L280.127 184.089C278.674 177.214 277.057 170.146 274.946 162.966C274.46 160.985 274.001 159.115 273.323 157.299C273.269 157.079 272.995 156.913 272.858 156.83C267.99 151.725 263.179 146.373 258.421 141.242C259.075 136.299 259.866 131.44 260.52 126.497C256.285 127.303 251.114 128.571 245.472 130.771C239.527 133.162 234.597 135.888 230.768 138.343C227.608 138.302 224.036 138.478 220.324 139.039C210.977 140.398 203.49 143.634 198.23 146.44C201.213 149.091 204.003 151.906 206.682 154.748C205.644 159.551 204.496 164.382 203.486 169.295C202.869 172.013 202.252 174.73 201.609 177.337L201.771 177.997C202.692 180.804 203.668 183.83 205.001 186.886C206.848 191.565 208.808 195.75 210.796 199.578C210.059 198.475 209.349 197.483 208.749 196.464C208.367 195.858 208.013 195.362 207.658 194.865C206.921 193.763 206.238 192.881 205.692 192.082C205.474 191.669 205.173 191.393 204.982 191.089L204.928 190.869C196.328 178.632 187.591 166.312 180.204 153.311C179.222 151.686 178.35 150.033 178.249 148.192C177.987 145.223 179.648 142.483 181.252 139.99C185.595 133.443 190.265 127.282 195.374 121.481C202.581 113.298 209.02 104.837 214.639 95.4108C218.469 99.137 223.486 101.522 228.703 102.342C226.048 100.078 224.055 97.1838 222.915 93.9641C228.908 99.376 236.752 102.351 244.574 104.282C252.395 106.212 260.468 107.265 268.206 109.333C268.947 109.501 270.566 109.92 272.127 111.053C275.577 113.706 276.107 118.242 276.372 120.276L276.152 120.33L276.179 120.44Z" fill="black"/>
<path d="M223.018 181.883C226.01 182.666 228.334 185.012 229.806 187.683C231.278 190.355 232.006 193.326 232.735 196.296C233.464 199.267 233.517 199.487 234.142 201.083C236.56 207.138 243.246 211.097 249.733 210.439C246.25 209.077 243.074 206.59 241.138 203.45C236.992 196.535 238.873 187.559 236.187 179.937C235.373 177.57 234.037 175.449 232.81 173.3C231.473 171.179 230.109 168.947 228.276 167.181C226.444 165.414 224.032 164.139 221.559 164.046C220.625 164.042 219.718 164.148 218.919 164.693C218.01 165.266 217.402 166.115 216.903 166.937C215.631 168.882 214.549 171.131 213.798 173.298C213.186 175.081 212.131 177.439 212.123 179.307C212.195 181.505 214.088 182.091 216.013 181.852C218.404 181.616 220.878 181.242 223.238 181.83L223.018 181.883Z" fill="#DBDFFA"/>
<path d="M247.278 169.518C249.005 170.378 250.113 168.24 255.805 167.194C259.93 166.415 262.703 166.785 263.066 165.413C263.344 164.645 262.608 163.542 261.705 162.714C259.517 160.451 251.033 152.968 246.761 155.999C243.095 158.647 244.044 167.746 247.224 169.298L247.278 169.518Z" fill="#DBDFFA"/>
<path d="M227.861 198.775C228.079 199.188 228.407 199.574 228.874 199.576C229.314 199.468 229.59 199.167 229.619 198.81C229.814 198.179 229.625 197.409 229.464 196.749C229.221 195.759 228.758 194.822 228.322 193.996C228.077 193.473 227.342 191.904 226.572 192.093C225.802 192.281 225.717 192.886 225.825 193.326L226.364 195.526C226.634 196.626 227.151 197.782 227.751 198.802L227.861 198.775Z" fill="black"/>
<path d="M218.541 163.153C217.661 163.369 216.945 163.778 216.752 163.942C210.713 168.806 211.313 176.007 211.313 176.007C211.573 179.442 213.179 182.664 213.729 182.529C214.279 182.394 213.927 181.431 213.96 180.14C214.145 175.662 216.222 171.77 218.217 168.015C219.326 165.877 220.598 163.932 219.969 163.27C219.641 162.883 218.871 163.072 218.624 163.016L218.514 163.043L218.541 163.153Z" fill="black"/>
<path d="M219.691 164.038C222.058 163.224 224.086 164.359 225.947 165.769C227.508 166.902 228.986 168.173 230.271 169.607C232.895 172.696 234.637 176.468 235.828 180.375C237.044 184.859 237.464 189.421 238.13 194.04C238.634 197.999 239.247 202.397 241.897 205.596C244.083 208.326 247.452 210.649 251.026 210.005L250.972 209.785C247.352 208.341 243.651 206.566 241.937 202.904C240.004 198.829 239.778 194.102 238.946 189.758C237.607 181.921 235.693 173.643 229.923 167.71C227.461 165.281 223.38 162.433 219.774 163.901L219.664 163.928L219.691 164.038Z" fill="black"/>
<path d="M247.181 154.379C247.98 153.833 248.777 153.755 249.051 153.921C256.746 153.433 261.171 159.113 261.171 159.113C263.357 161.842 264.303 165.226 263.917 165.554C263.697 165.608 263.068 164.946 262.138 164.007C258.938 160.943 254.823 159.386 250.873 158.022C248.569 157.188 246.456 156.657 246.46 155.722C246.352 155.282 247.041 154.763 247.261 154.709L247.208 154.489L247.181 154.379Z" fill="black"/>
<path d="M283.232 177.729C283.73 176.907 284.449 176.031 285.466 175.898C286.126 175.736 286.701 176.179 286.948 176.235C288.729 177.314 289.596 179.901 289.532 182.016C289.515 185.752 286.676 187.965 286.483 188.129C283.946 190.151 281.2 189.891 280.596 189.806C280.303 187.662 280.476 185.987 280.646 184.779C280.731 184.174 281.295 180.77 283.205 177.619L283.232 177.729Z" fill="#DBDFFA"/>
<path d="M280.77 187.664C281.1 187.583 281.078 186.539 281.134 186.292C281.192 185.578 281.277 184.974 281.445 184.233C281.698 182.887 282.171 181.488 282.782 180.172C283.392 178.856 283.502 178.829 283.944 178.254C284.276 177.706 284.801 176.994 285.435 176.722C286.865 176.372 288.096 177.586 288.916 178.551C288.291 176.955 287.475 175.056 285.47 174.964C284.536 174.96 283.984 175.562 283.431 176.164C282.879 176.766 282.464 177.451 282.076 178.246C281.273 179.726 280.633 181.399 280.351 183.101C280.21 183.952 280.069 184.803 280.148 185.601C280.199 186.288 280.195 187.222 280.687 187.801L280.797 187.774L280.77 187.664Z" fill="black"/>
<path d="M293.518 181.621C293.2 185.082 292.355 189.721 289.679 192.127C287.969 193.713 284.363 195.18 282.198 193.962C281.787 193.713 281.322 193.244 281.077 192.721C281.05 192.611 280.7 191.18 281.275 191.622C281.549 191.789 281.713 191.982 281.96 192.038C285.194 193.81 289.221 190.257 290.497 187.378C292.052 183.73 292.565 179.639 292.171 175.653C292.09 175.323 292.009 174.993 292.038 174.636C291.876 173.976 291.824 173.289 291.552 172.656C290.823 169.685 288.914 166.655 285.588 166.887C283.747 166.989 282.313 168.274 281.372 169.671C280.874 170.493 280.486 171.288 280.125 172.193C279.957 172.934 279.789 173.675 279.319 174.14L279.266 173.92C279.156 173.947 279.075 173.617 279.075 173.617C278.994 173.287 278.913 172.957 278.942 172.6C278.948 171.198 279.367 169.579 280.088 168.236C281.03 166.372 282.63 164.813 284.665 164.548C288.156 164.041 290.78 167.13 291.975 170.103C293.47 173.818 293.891 177.914 293.572 181.841L293.518 181.621Z" fill="black"/>
<path d="M206.935 209.039C210.962 211.667 215.556 210.424 216.436 210.208C213.852 204.427 210.595 201.61 208.596 200.117C207.336 199.26 204.515 197.269 203 198.224C202.393 198.606 202.142 199.484 202.14 199.951C201.522 203.135 203.867 206.992 207.045 209.012L206.935 209.039Z" fill="#DBDFFA"/>
<path d="M218.674 213.625L218.835 214.285C218.889 214.505 218.916 214.615 218.75 214.889C218.47 216.124 217.148 216.915 215.718 217.266C213.407 217.832 211.101 217.465 208.907 216.603C205.123 214.966 201.426 212.256 198.719 209.305C196.012 206.353 194.271 202.581 194.097 198.541C194.03 194.942 194.956 190.632 199.081 189.854C200.868 189.532 202.981 190.064 204.735 191.033C204.872 191.116 205.146 191.282 205.31 191.476C205.995 191.891 206.597 192.443 207.089 193.022C207.444 193.518 207.799 194.014 208.044 194.537L208.152 194.977L207.822 195.058C207.218 194.973 206.699 194.284 206.261 193.925C205.522 193.29 204.563 192.709 203.658 192.347C201.931 191.488 199.952 191.507 198.19 192.405C196.015 193.522 195.427 195.882 195.39 198.108C195.269 200.47 195.836 202.78 197.036 204.819C199.19 208.373 203.134 211.138 206.779 213.16C208.643 214.102 210.701 214.881 212.87 215.165C214.078 215.335 215.342 215.258 216.415 214.879C217.295 214.663 217.6 214.005 218.042 213.43C218.042 213.43 218.209 213.156 218.292 213.019C218.568 212.718 218.921 213.681 218.921 213.681L218.701 213.735L218.674 213.625Z" fill="black"/>
<path d="M202.103 202.176C202.001 200.335 202.669 198.305 204.893 198.809C206.869 199.258 208.565 200.941 209.85 202.376C211.134 203.81 212.363 205.492 213.455 207.09C214.138 207.972 214.738 208.991 215.421 209.874C215.913 210.453 216.567 211.692 217.391 211.723C217.501 211.696 217.447 211.476 217.447 211.476C217.123 210.156 216.359 208.944 215.485 207.758C214.748 206.656 214.038 205.664 213.302 204.562C212.019 202.66 210.626 200.786 208.874 199.349C207.423 198.189 204.712 196.171 202.784 197.344C201.158 198.326 201.615 200.663 202.103 202.176Z" fill="black"/>
<path d="M250.538 257.946L251.968 263.777C252.373 265.428 252.695 267.215 252.66 268.973C252.74 269.303 252.601 269.687 252.572 270.044C252.626 270.264 252.543 270.401 252.46 270.538C252.161 269.795 251.889 269.162 251.701 268.392L250.81 264.761L248.382 254.86C247.086 249.579 244.938 244.624 243.12 239.588L242.904 238.708L242.794 238.734C242.74 238.514 242.659 238.184 242.852 238.02C242.852 238.02 242.825 237.91 242.935 237.883C242.935 237.883 243.155 237.829 243.236 238.16L243.29 238.38C243.672 238.986 243.944 239.619 244.326 240.225C245.251 242.097 245.957 244.024 246.773 245.923C247.888 248.566 248.782 251.262 249.621 254.206L250.538 257.946Z" fill="black"/>
<path d="M271.491 253.974C276.834 251.03 279.73 242.389 276.911 233.749C276.162 235.449 273.503 240.301 267.886 243.078C258.387 247.624 249.154 241.84 248.469 241.425C252.591 253.477 264.826 257.708 271.491 253.974Z" fill="black"/>
<path d="M280.27 182.771L280.756 184.752C280.945 185.522 281.134 186.292 281.102 187.116C281.318 187.996 281.424 188.903 281.53 189.81C281.692 190.471 281.771 191.268 281.823 191.955C281.985 192.615 282.009 193.192 282.061 193.879C282.568 197.371 282.964 200.889 283.224 204.325C283.695 209.574 283.122 214.847 282.138 219.87C281.548 222.698 280.986 225.635 280.012 228.323C279.873 228.707 279.761 229.201 279.512 229.612C279.539 229.722 279.346 229.886 279.373 229.996C278.817 231.532 278.123 232.985 277.32 234.465C277.32 234.465 277.347 234.575 277.264 234.712C274.495 239.591 270.823 243.64 264.855 244.988L263.645 245.284C258.586 246.058 253.455 244.634 248.849 242.498C248.438 242.249 247.917 242.027 247.533 241.888C246.601 241.417 245.532 240.862 244.573 240.281L244.299 240.115C244.162 240.032 244.025 239.949 243.778 239.893C243.531 239.837 243.367 239.644 243.093 239.478C239.558 237.429 236.299 235.079 233.206 232.455C227.759 227.842 223.361 222.273 219.568 216.321C219.213 215.825 218.968 215.302 218.613 214.806C218.559 214.586 218.395 214.393 218.231 214.2C218.04 213.897 217.849 213.594 217.658 213.291C217.25 212.574 216.868 211.968 216.459 211.252C216.268 210.949 216.05 210.536 215.859 210.233C214.468 207.891 213.187 205.523 211.907 203.154C211.662 202.631 211.417 202.108 211.089 201.722C210.961 201.52 210.961 201.52 211.089 201.722C210.19 199.96 209.318 198.307 208.529 196.518C208.284 195.995 208.04 195.472 207.795 194.948C207.523 194.315 207.224 193.572 206.842 192.966C204.774 188.341 203.037 183.635 201.603 178.738C201.522 178.408 201.468 178.188 201.551 178.051C201.717 177.777 202.047 177.696 202.182 178.246C204.625 184.879 207.315 191.567 210.611 197.873C214.207 204.923 218.049 212.029 222.636 218.368C226.705 224.019 231.518 228.903 237.16 232.885C241.488 235.789 245.953 238.776 250.835 240.611C256.238 242.669 262.252 243.41 267.622 240.576C272.469 237.988 275.458 233.056 277.403 228.147C279.126 223.758 280.191 219.065 280.926 214.452C281.746 209.236 281.495 203.932 280.913 198.709C279.245 184.772 276.476 171.105 272.8 157.544L272.638 156.883C272.584 156.663 272.613 156.306 272.943 156.225C273.493 156.091 273.709 156.971 273.79 157.301C273.979 158.071 274.278 158.814 274.576 159.557C274.819 160.547 275.172 161.511 275.415 162.501L275.658 163.491C277.443 169.818 278.898 176.226 280.023 182.715L280.243 182.661L280.27 182.771Z" fill="black"/>
<path d="M267.363 391.219C267.921 395.398 269.881 399.583 272.036 403.136C274.271 407.02 277.086 410.412 280.287 413.476C283.324 416.347 286.8 419.11 290.944 420.31C292.206 420.701 294.84 421.454 295.616 419.864C296.004 419.069 295.683 417.282 294.582 417.552C293.482 417.821 294.69 417.992 294.69 417.992C294.856 417.718 294.966 417.691 294.69 417.992L294.524 418.266C294.028 418.621 293.534 418.508 293.094 418.616C292.27 418.585 291.502 418.307 290.651 418.166C289.005 417.637 287.442 416.97 285.935 416.057C283.031 414.203 280.376 411.938 278.107 409.345C275.838 406.753 273.626 403.913 271.963 400.938C270.3 397.963 269.024 394.661 267.527 391.412L267.473 391.192L267.363 391.219Z" fill="black"/>
<path d="M416.204 332.319C416.082 335.148 415.602 337.948 415.013 340.776C412.995 349.668 408.864 358.03 403.39 365.671C401.234 368.766 398.693 371.722 395.961 374.374C394.195 376.207 392.096 378.588 389.537 379.566L389.427 379.593C389.454 379.703 389.373 379.373 389.373 379.373C391.253 376.579 393.956 374.283 396.165 371.875C401.686 365.855 406.305 359.007 409.551 351.796C411.631 347.437 413.026 342.663 414.091 337.969C414.542 335.526 414.909 333.22 415.25 330.803C415.449 329.238 415.183 327.204 415.933 325.504C416.665 327.54 416.296 330.314 416.094 332.346L416.204 332.319Z" fill="black"/>
<path d="M169.666 354.296C170.708 354.74 172.026 354.883 173.151 355.191C174.496 355.444 175.868 355.807 177.157 356.308C180.449 357.366 183.656 359.029 186.477 361.02C190.996 364.227 194.687 368.337 197.468 373.021C197.904 373.847 198.34 374.673 198.776 375.499C198.83 375.719 199.401 377.095 199.814 376.877C200.75 376.415 198.485 372.888 198.213 372.255C195.569 367.654 192.098 363.49 187.853 360.449C184.868 358.265 181.524 356.519 177.958 355.295C176.422 354.738 174.94 354.402 173.348 354.093C172.14 353.922 170.768 353.559 169.558 353.856C168.347 354.153 169.666 354.296 169.666 354.296Z" fill="black"/>
<path d="M156.069 415.366C158.292 415.871 160.629 415.414 162.966 414.958C171.739 413.156 180.27 409.897 188.501 406.362C207.824 398.124 226.469 388.069 243.147 375.23C245.449 376.532 247.419 378.382 248.783 380.613C236.032 393.771 220.326 403.922 203.234 410.797C186.252 417.644 168.048 421.409 149.773 422.509C149.086 422.561 147.749 414.258 147.643 413.351C147.299 410.519 146.846 407.248 147.299 404.337C148.721 405.855 148.488 408.711 149.634 410.53C151.025 412.871 153.325 414.64 156.042 415.256L156.069 415.366Z" fill="#DBDFFA"/>
<path d="M249.686 381.442C249.686 381.442 249.576 381.468 249.493 381.606C248.445 382.562 247.396 383.519 246.348 384.476C244.638 386.062 242.9 387.538 241.163 389.014C240.391 389.67 239.619 390.326 238.819 390.872C237.744 391.719 236.779 392.539 235.677 393.275C235.484 393.439 235.18 393.63 234.987 393.794C233.802 394.668 232.617 395.542 231.322 396.443C228.841 398.218 226.197 399.8 223.689 401.464C214.35 407.137 204.328 411.928 193.983 415.399C187.434 417.705 180.64 419.488 173.738 420.831C170.327 421.667 166.892 421.926 163.483 422.296C159.608 422.663 155.925 422.867 152.081 422.41C154.501 421.816 156.893 421.58 159.394 421.316C161.208 421.104 163.022 420.893 164.81 420.571C168.604 419.873 172.426 419.286 176.166 418.369C181.144 417.264 186.068 415.94 190.91 414.286C197.596 412.063 204.175 409.4 210.535 406.323C214.913 404.2 219.126 401.883 223.286 399.347C227.143 397.001 230.836 394.463 234.502 391.814L234.612 391.787C234.832 391.733 234.998 391.459 235.218 391.405C236.293 390.558 237.478 389.684 238.554 388.837C239.353 388.291 240.015 387.663 240.787 387.007C243.407 384.848 245.999 382.579 248.455 380.227C248.648 380.063 248.841 379.899 249.034 379.735C249.42 379.407 250.126 381.334 249.74 381.662L249.686 381.442Z" fill="black"/>
<path d="M398.824 323.751C391.665 327.374 386.139 334.328 384.209 342.149C379.391 338.199 374.656 334.111 369.838 330.161C370.841 327.116 372.425 323.112 375.219 318.81C377.764 314.92 380.441 312.048 382.621 309.997C382.509 310.491 381.685 316.641 386.39 321.086C389.701 324.123 394.394 325.188 398.851 323.862L398.824 323.751Z" fill="#DBDFFA"/>
<path d="M370.579 330.329C370.828 329.918 370.94 329.424 371.079 329.04C371.248 328.299 371.443 327.668 371.638 327.037C372.028 325.775 372.665 324.569 373.193 323.39C374.44 320.868 375.688 318.346 377.346 316.073C380.304 311.965 384.138 308.575 388.545 306.094C389.784 305.441 391.024 304.787 392.317 304.353C392.977 304.191 393.583 303.809 394.243 303.647L395.233 303.404C395.673 303.296 395.783 303.269 396.142 302.831C396.225 302.694 396.091 302.144 395.954 302.061C395.57 301.922 395.433 301.839 394.992 301.947L394.222 302.136C393.562 302.298 392.902 302.46 392.296 302.842C391.113 303.249 389.957 303.765 388.827 304.392C386.542 305.536 384.448 306.983 382.517 308.623C380.587 310.263 378.737 312.232 377.272 314.341C375.613 316.614 374.365 319.137 373.118 321.659C372.425 323.112 371.841 324.538 371.285 326.074C370.812 327.473 370.338 328.872 370.579 330.329Z" fill="black"/>
<path d="M265.08 398.077C264.907 399.753 264.986 400.55 265.067 400.88C265.526 402.75 266.838 404.295 268.096 405.619C271.95 409.922 275.17 414.965 276.299 420.519C276.434 421.07 276.596 421.73 277.007 421.979C277.418 422.228 278.188 422.039 278.547 421.601C278.906 421.163 278.991 420.559 279.103 420.065C279.224 417.703 277.997 415.554 276.88 413.379C276.089 412.056 275.382 410.597 274.398 409.439C272.731 407.398 270.348 405.766 269.204 403.481C268.496 402.022 268.339 400.427 268.071 398.86C267.94 397.376 268.465 396.664 268.445 395.153C268.37 393.421 267.936 392.128 267.473 391.192C265.84 394.042 265.389 396.485 265.053 397.967L265.08 398.077Z" fill="#DBDFFA"/>
<path d="M273.873 391.605C273.81 393.253 274.078 394.821 274.456 396.361C276.966 406.593 284.646 415.556 294.549 418.843C287.656 412.136 281.949 404.087 277.84 395.415C277.323 394.258 276.779 392.992 276.262 391.836C275.745 390.68 275.56 388.975 274.657 388.147C274.103 389.216 273.96 390.534 273.873 391.605Z" fill="#DBDFFA"/>
<path d="M283.536 368.707C284.804 367.696 286.67 368.171 288.04 369.002C290.369 370.413 292.2 372.647 294.751 373.538C297.933 374.623 301.319 373.21 304.046 371.491C300.227 371.611 296.497 370.194 293.734 367.489C292.366 366.191 291.274 364.593 289.823 363.432C286.811 361.139 282.774 360.846 279.208 359.621C277.178 358.953 274.959 357.514 272.79 357.229C276.289 361.037 279.982 364.68 283.399 368.624L283.509 368.597L283.536 368.707Z" fill="#DBDFFA"/>
<path d="M154.942 403.163C156.766 400.616 158.07 397.846 159.647 395.243C161.225 392.64 162.967 390.23 164.982 387.986C169.483 383.034 175.457 380.285 182.056 379.133C189.121 377.984 196.345 378.428 203.411 377.278C210.477 376.128 217.713 373.77 224.239 370.42C230.462 367.261 236.14 363.302 241.981 359.537C244.902 357.654 247.849 355.882 250.934 354.192C254.018 352.502 257.35 350.869 260.898 350.115C267.442 348.743 273.115 351.901 278.901 354.564C281.807 355.951 284.935 356.817 287.785 358.45C290.334 359.808 292.248 361.905 294.272 363.974C296.295 366.044 298.292 368.004 300.953 368.867C301.584 369.062 302.298 369.12 302.93 369.316C303.287 369.345 303.561 369.511 303.945 369.65L304.111 369.376C304.028 369.513 303.862 369.787 303.668 369.951C302.674 371.128 301.242 371.946 299.756 372.543C296.976 373.575 293.682 372.983 291.409 371.325C289.136 369.666 286.323 365.807 283.291 368.184C283.071 368.238 283.478 369.421 283.561 369.284C287.141 367.239 289.813 371.95 292.306 373.554C294.498 374.883 297.134 375.169 299.691 374.659C301.562 374.2 305.057 372.759 305.068 370.424C305.072 369.49 304.665 368.307 303.816 367.699C302.693 366.924 301.209 367.055 299.92 366.555C294.737 364.443 292.042 358.689 287.108 356.167C284.175 354.67 280.937 353.832 277.921 352.472C274.905 351.112 272.082 349.588 269.037 348.586C265.828 347.39 262.504 347.155 259.177 347.855C255.519 348.635 252.188 350.269 249.02 352.095C242.548 355.666 236.511 360.062 230.23 363.935C223.949 367.809 217.259 370.966 210.051 372.967C206.201 373.911 202.46 374.829 198.448 375.113C194.792 375.426 191.11 375.63 187.455 375.943C183.359 376.364 179.291 376.896 175.465 378.417C172.052 379.721 169.049 381.74 166.537 384.339C161.46 389.317 157.281 396.057 154.971 402.806C154.971 402.806 155.16 403.576 155.243 403.439L154.942 403.163Z" fill="black"/>
<path d="M243.805 375.536C246.076 377.661 248.32 379.677 250.039 382.405C251.567 384.829 252.681 387.472 253.796 390.114C255.046 393.307 256.212 396.637 257.352 399.856C257.839 401.37 258.327 402.883 259.228 404.178C260.102 405.364 261.142 406.275 262.319 407.269C267.191 411.44 271.4 416.239 274.838 421.694C275.438 422.714 276.091 423.953 277.161 424.507C278.23 425.061 279.386 424.545 279.803 423.393C280.693 420.841 279.72 417.348 278.686 415.035C277.3 411.76 274.784 409.111 272.268 406.462C270.846 404.944 269.314 403.454 268.912 401.337C268.509 399.219 268.683 397.077 268.638 394.989C268.638 394.989 268.449 394.219 268.283 394.493C267.392 397.044 267.407 399.956 268.384 402.516C269.443 405.405 271.687 407.421 273.738 409.601C275.842 412 277.972 414.977 278.645 418.195C278.888 419.185 279.062 423.224 276.926 421.649C276.378 421.317 276.079 420.573 275.807 419.94C275.398 419.224 274.989 418.508 274.47 417.819C271.141 412.804 267.122 408.307 262.441 404.44C261.291 403.556 260.141 402.671 259.571 401.295C258.836 399.726 258.404 397.965 257.779 396.369C256.721 393.479 255.772 390.563 254.493 387.727C253.215 384.892 251.907 382.413 250.159 380.042C248.629 378.085 246.552 375.795 244.055 375.125C243.945 375.152 244.109 375.345 244.135 375.455L243.805 375.536Z" fill="black"/>
<path d="M389.674 342.558C384.354 358.909 386.02 373.314 387.552 380.986C383.776 377.48 376.717 371.047 374.718 369.554C374.28 369.195 373.568 368.67 373.265 368.861C373.045 368.915 373.234 369.685 373.535 369.961C374.083 370.293 375.459 369.722 379.544 365.454C379.905 358.367 380.947 352.63 381.9 348.431C382.826 344.121 384.028 339.511 386.575 335.154C388.043 332.578 391.499 327.648 398.934 323.724C395.754 328.354 392.292 334.685 389.674 342.558Z" fill="#DBDFFA"/>
<path d="M379.874 365.373C380.453 364.881 380.403 363.727 380.598 363.096C380.796 361.998 381.103 360.873 381.163 359.692C381.475 357.633 381.813 355.684 382.124 353.624C382.691 349.753 383.395 345.965 384.455 342.205C385.516 338.446 387.318 334.855 389.832 331.789C391.075 330.201 392.51 328.916 394.054 327.604C395.708 326.265 397.226 324.843 398.907 323.615L398.826 323.284C397.147 324.046 395.441 324.698 393.842 325.79C392.134 326.909 390.7 328.194 389.182 329.615C386.367 332.405 384.182 335.857 383.011 339.644C381.84 343.43 381.136 347.218 380.57 351.09C380.312 353.369 380.028 355.538 379.77 357.817C379.513 360.097 378.979 362.677 379.409 364.904C379.409 364.904 379.571 365.564 379.764 365.4L379.874 365.373Z" fill="black"/>
<path d="M378.282 395.973C377.827 399.351 378.637 402.651 378.759 406.004C378.94 408.642 378.763 411.251 378.23 413.831C380.031 410.24 381.285 406.317 382.456 402.531C382.763 401.406 383.18 400.254 383.488 399.129C384.185 396.741 384.966 394.217 385.663 391.83C385.719 391.583 385.775 391.336 385.721 391.116C385.667 390.896 385.393 390.73 385.119 390.564C383.749 389.733 381.584 388.515 380.368 390.213C379.151 391.911 378.537 394.161 378.309 396.083L378.282 395.973Z" fill="#DBDFFA"/>
<path d="M366.753 418.396C367.334 417.437 367.942 416.588 368.249 415.463C368.474 414.475 368.698 413.487 368.785 412.416C369.015 410.026 368.862 407.498 368.982 405.136C369.103 402.773 369.636 400.193 370.828 397.918C372.102 395.506 374.365 393.318 376.515 391.624C374.012 392.355 371.863 393.582 370.315 395.828C368.932 397.8 368.235 400.187 368.005 402.576C367.691 405.102 367.845 407.631 367.888 410.186C367.855 411.477 367.822 412.768 367.652 413.977C367.535 415.405 367.363 417.08 366.753 418.396Z" fill="black"/>
<path d="M377.08 412.947C378.169 408.831 377.337 404.486 377.246 400.31C377.155 396.133 377.375 396.079 378.043 394.049C378.377 393.034 378.931 391.965 379.54 391.116C379.899 390.678 380.258 390.24 380.617 389.802C381.086 389.337 381.088 388.87 381.393 388.212L381.339 387.992C380.681 387.687 380.6 387.357 379.967 387.628C379.527 387.736 379.168 388.174 378.892 388.475C378.147 389.241 377.676 390.173 377.231 391.215C376.343 393.299 376.086 395.579 376.021 397.694C375.861 402.749 377.103 407.81 376.943 412.864L377.053 412.837L377.08 412.947Z" fill="black"/>
<path d="M251.887 263.447L251.968 263.777C251.748 263.831 251.418 263.912 251.225 264.076L250.785 264.184C250.042 264.483 249.216 264.919 248.473 265.218C242.169 268.047 235.865 270.876 229.805 274.229C223.196 277.716 216.83 282.193 211.175 287.196C206.486 291.379 202.399 296.113 199.298 301.54C195.891 307.624 194.021 314.264 191.382 320.627C191.243 321.011 191.077 321.285 190.938 321.669C189.217 325.59 187.387 329.538 185.392 333.293C181.458 340.556 176.949 347.377 171.866 353.756C171.866 353.756 171.7 354.03 171.59 354.057L171.37 354.111C171.397 354.221 171.204 354.385 171.231 354.495C167.114 359.587 162.531 364.677 158.77 370.265C155.45 375.278 152.98 380.899 151.141 386.716C149.302 392.532 148.341 398.6 148.231 404.809C148.285 405.029 148.256 405.386 148.2 405.633C148.202 411.347 149.057 416.736 150.049 422.208L150.211 422.868C150.238 422.978 150.018 423.032 150.018 423.032C150.072 423.252 149.852 423.306 149.798 423.086C147.436 416.784 146.834 410.05 146.865 403.044C146.896 396.038 148.025 389.23 150.253 382.618C152.285 376.638 155.112 371.045 158.624 365.868C162.689 360.089 167.492 354.946 171.831 349.333C180.231 338.408 186.934 326.267 191.827 313.403C194.245 307.094 196.609 300.566 200.315 295.225C204.02 289.884 208.408 285.425 213.701 281.328C218.995 277.23 225.025 274.235 231.082 271.35C237.469 268.383 244.101 265.94 250.76 263.607L251.97 263.31L251.887 263.447Z" fill="black"/>
<path d="M342.2 286.902C343.495 292.183 345.12 297.383 346.745 302.583C347.503 305.197 348.261 307.81 349.128 310.397C349.452 311.717 349.776 313.037 350.32 314.303C350.536 315.183 350.862 316.037 351.49 316.699C351.775 314.53 350.604 312.134 349.898 310.208C349.114 307.484 348.219 304.788 347.462 302.174C345.836 296.974 344.238 291.884 342.503 286.711C342.395 286.271 342.119 286.572 342.173 286.792L342.2 286.902Z" fill="black"/>
<path d="M349.234 292.758C349.693 294.629 350.619 296.501 351.078 298.371C351.536 300.242 351.966 302.469 352.122 304.53C352.277 306.592 352.186 308.597 351.848 310.546C351.592 312.358 350.787 314.305 351.136 316.203C351.19 316.423 351.27 316.753 351.517 316.809C352.342 316.84 352.348 315.439 352.543 314.808C352.85 313.683 353.02 312.475 353.108 311.403C353.365 309.124 353.292 306.926 353.11 304.755C352.927 302.583 352.497 300.356 351.875 298.292C351.416 296.422 350.683 294.386 349.371 292.841L349.261 292.868L349.234 292.758Z" fill="black"/>
<path d="M350.972 316.01C352.254 324.093 354.691 332.127 356.881 340.104C357.852 344.065 359.044 347.971 360.262 351.988C360.748 353.969 361.344 355.922 361.94 357.875C362.479 360.076 363.046 362.386 363.999 364.368C364.217 364.782 364.736 365.471 365.369 365.199C366.002 364.927 365.842 363.8 365.734 363.36C365.578 361.298 364.736 359.289 364.25 357.309C363.764 355.328 363.168 353.375 362.573 351.422C361.464 347.378 360.356 343.334 359.137 339.317C356.754 331.504 354.785 323.472 351.659 315.958C351.524 315.408 350.974 315.543 351.109 316.093L350.999 316.12L350.972 316.01Z" fill="black"/>
<path d="M198.965 376.269C201.389 374.742 203.106 371.755 204.764 369.482C206.699 366.908 208.661 364.444 210.485 361.897C212.31 359.35 214.382 356.859 216.453 354.368C218.332 352.041 220.347 349.797 221.815 347.221L220.914 345.925C222.257 352.828 224.15 359.595 226.263 366.308C226.371 366.748 226.805 368.041 227.521 367.633C228.237 367.224 227.666 365.847 227.586 365.517C225.306 359.078 223.577 352.504 221.848 345.93C221.767 345.6 221.25 344.443 220.945 345.101C219.615 347.76 217.489 350.031 215.611 352.358C213.539 354.849 211.604 357.423 209.643 359.887C207.681 362.351 205.993 364.981 204.169 367.528C202.344 370.075 200.106 372.84 199.021 376.022L199.075 376.242L198.965 376.269Z" fill="black"/>
<path d="M214.976 322.188L218.214 335.391C218.726 337.481 219.266 339.681 219.889 341.745C220.321 343.505 220.696 345.512 221.761 347.001C221.906 345.216 221.091 343.316 220.659 341.556C220.227 339.796 219.497 337.292 218.874 335.229C217.684 330.855 216.385 326.508 214.976 322.188C214.922 321.968 214.812 321.995 214.866 322.215L214.976 322.188Z" fill="black"/>
<path d="M212.464 330.969C212.321 332.287 212.15 333.495 212.254 334.869C212.574 337.124 213.361 339.38 214.726 341.145C215.818 342.743 217.213 344.151 218.774 345.284C219.349 345.726 219.897 346.058 220.555 346.363C220.939 346.502 221.514 346.945 221.927 346.727C222.367 346.619 221.987 345.546 221.823 345.353C221.194 344.69 220.069 344.383 219.247 343.885C217.877 343.054 216.536 341.867 215.526 340.599C214.187 338.944 213.371 337.045 212.968 334.928C212.671 333.717 212.348 332.397 212.491 331.079C212.491 331.079 212.41 330.749 212.437 330.859L212.464 330.969Z" fill="black"/>
<path d="M351.001 315.653C353.103 318.519 356.088 320.703 358.853 322.941C361.618 325.179 364.383 327.417 367.121 329.545C372.514 333.937 377.934 338.44 383.602 342.531C384.177 342.973 384.346 342.232 384.348 341.765C384.406 341.051 383.997 340.335 383.532 339.866C378.222 335.336 372.636 331.108 367.023 326.769C364.312 324.751 361.685 322.597 358.974 320.579C357.55 319.528 356.209 318.341 354.785 317.291C353.662 316.516 352.348 315.439 350.893 315.213C350.783 315.24 350.974 315.543 350.974 315.543L351.001 315.653Z" fill="black"/>
<path d="M258.252 469.151C258.252 469.151 258.088 468.958 257.951 468.875C256.693 467.551 256.373 465.297 255.969 463.646C255.319 461.473 254.532 459.216 253.993 457.016C252.693 452.669 251.284 448.349 250.04 443.756C248.907 439.135 247.471 434.705 246.117 430.138L245.848 429.038C245.389 427.168 244.737 425.461 244.305 423.701C243.874 421.941 242.896 419.381 242.686 417.1C242.686 417.1 242.742 416.853 242.879 416.936C243.942 418.891 244.345 421.009 244.967 423.072C245.727 425.218 246.377 427.392 247.027 429.565C248.436 433.885 249.735 438.232 251.089 442.799C252.442 447.365 253.768 451.822 255.122 456.389C255.661 458.59 256.504 460.599 257.044 462.799C257.64 464.753 258.783 467.038 258.335 469.014L258.252 469.151Z" fill="black"/>
<path d="M253.826 272.303C255.219 274.178 256.419 276.216 258.115 277.9C259.673 279.5 261.425 280.937 263.233 282.126C266.712 284.422 270.8 285.869 275.003 285.888C279.206 285.907 282.978 284.165 286.013 281.321C288.855 278.641 290.795 274.666 291.883 271.017C293.276 266.71 293.849 261.437 291.256 257.524C293.504 264.787 289.868 273.261 284.543 278.183C278.86 283.542 270.289 283.312 263.684 279.683C261.793 278.63 260.095 277.414 258.59 276.033C257.824 275.288 257.085 274.653 256.319 273.908C255.443 273.189 254.594 272.581 253.911 271.699C253.583 271.313 253.662 272.11 253.826 272.303Z" fill="black"/>
<path d="M415.609 324.184C415.636 324.294 415.416 324.348 415.279 324.265C413.226 322.552 411.449 320.538 409.425 318.469C407.511 316.372 405.514 314.413 403.491 312.343C400.674 309.418 397.884 306.603 394.957 303.705L394.903 303.485C394.465 303.126 394.11 302.63 393.672 302.271C392.906 301.525 392.113 300.67 391.347 299.925C390.882 299.456 390.554 299.07 390.09 298.601C383.279 291.756 376.138 284.993 368.942 278.477C362.293 272.293 355.508 266.026 347.699 261.293C339.89 256.56 339.777 257.054 335.387 255.798C330.64 254.513 325.972 254.025 320.944 253.975C315.917 253.925 310.943 254.095 305.997 254.375C303.358 254.556 300.83 254.709 298.246 255.11C296.101 255.403 293.928 256.052 291.757 256.235C291.317 256.343 290.85 256.341 290.493 256.312L290.273 256.366C290.246 256.256 289.864 255.649 290.084 255.595C290.36 255.294 290.773 255.077 291.076 254.886C293.334 253.632 295.892 253.121 298.366 252.748C301.17 252.293 304.139 252.032 307.024 251.907C312.548 251.602 318.071 251.297 323.593 251.459C328.427 251.673 333.233 252.244 337.814 253.803C341.984 255.113 345.959 257.054 349.685 259.406C357.575 264.469 364.525 270.929 371.337 277.306C379.053 284.512 386.548 291.771 393.961 299.167C397.708 303.031 401.317 306.811 404.954 310.701C408.591 314.591 412.447 318.427 415.615 322.782C415.642 322.892 415.912 323.993 415.856 324.24L415.636 324.294L415.609 324.184Z" fill="black"/>
<path d="M284.034 312.249C291.675 311.541 296.396 300.353 294.428 298.036C293.581 296.961 290.004 298.071 282.988 300.375C276.605 302.407 273.359 303.437 273.159 305.002C272.597 307.939 278.482 312.911 284.061 312.359L284.034 312.249Z" fill="#223ABD"/>
<path d="M259.377 469.459C259.512 470.009 259.537 470.586 259.562 471.163C259.823 474.131 259.398 477.152 259.192 480.118C258.902 483.688 258.721 487.232 258.54 490.775C258.125 497.642 257.6 504.536 256.828 511.374C256.724 503.818 256.784 496.455 257.201 489.121C257.382 485.577 257.59 482.144 257.88 478.574C258.171 475.003 258.198 475.113 258.343 473.328C258.489 471.543 258.486 472.01 258.572 471.406C258.657 470.802 258.742 470.198 258.964 469.677L259.404 469.569L259.377 469.459Z" fill="black"/>
<path d="M209.208 494.594C211.173 497.377 213.112 500.051 214.472 503.217L214.252 503.271L214.387 503.821C214.414 503.931 214.33 504.068 214.166 503.875C211.813 501.886 210.067 499.048 208.292 496.568C207.609 495.685 207.036 494.776 206.353 493.894C205.971 493.288 205.48 492.709 205.071 491.993C204.197 490.807 203.433 489.595 202.559 488.41C200.703 485.599 198.738 482.815 196.772 480.031C195.844 478.626 194.916 477.221 193.988 475.815C193.033 474.3 192.409 472.704 191.674 471.134C191.674 471.134 191.593 470.804 191.62 470.914C191.948 471.3 192.359 471.55 192.66 471.826C193.399 472.461 194.028 473.123 194.574 473.922C195.584 475.191 196.622 476.569 197.55 477.974L203.283 486.132C205.249 488.916 207.215 491.7 209.181 494.484L209.208 494.594Z" fill="black"/>
<path d="M206.526 492.219C206.441 492.823 206.355 493.427 206.27 494.031C205.45 499.248 203.889 504.296 202.465 509.427C201.097 514.312 199.729 519.196 198.828 524.083C198.687 524.934 198.519 525.675 198.378 526.526C198.378 526.526 198.432 526.746 198.322 526.773C198.266 527.02 198.046 527.074 197.799 527.018C197.689 527.045 197.525 526.852 197.388 526.769C196.869 526.079 196.626 525.089 196.767 524.238C197.425 518.362 199.044 512.599 200.801 506.92C202.252 501.898 203.647 497.124 204.961 492.019C205.046 491.415 205.268 490.894 205.38 490.4C205.602 489.879 206.04 490.238 206.121 490.569C206.449 490.955 206.611 491.615 206.499 492.109L206.526 492.219Z" fill="black"/>
<path d="M432.764 463.557C432.845 463.887 432.679 464.161 432.569 464.188L431.688 464.404C427.917 466.145 423.736 467.171 419.776 468.142C415.815 469.114 411.192 470.714 406.902 471.766C398.264 474.118 389.764 476.553 381.127 478.904C350.758 487.286 320.363 495.557 289.913 503.609C274.675 507.579 259.491 511.77 244.199 515.521C236.551 517.63 228.74 519.545 221.039 521.434C213.585 523.379 205.911 525.378 198.322 526.773L197.772 526.908C197.195 526.932 196.655 524.732 197.205 524.597L198.855 524.192C199.406 524.058 199.956 523.923 200.479 523.678C207.935 521.266 215.443 519.541 223.007 517.569C231.698 515.437 240.226 513.113 248.863 510.761C251.503 510.113 254.117 509.356 256.73 508.598L257.06 508.517C284.759 501.14 312.512 493.984 340.157 486.387C355.369 482.306 370.553 478.115 385.737 473.925C393.384 471.816 401.141 469.68 408.789 467.571C416.436 465.462 416.243 465.626 420.149 464.435C422.983 463.623 425.762 462.592 428.65 462C429.75 461.73 430.877 461.57 431.921 461.547L432.141 461.494C432.442 461.77 432.795 462.733 432.82 463.31L432.874 463.53L432.764 463.557Z" fill="black"/>
<path d="M322.084 454.545C320.324 454.977 318.59 455.519 316.967 456.034C316.197 456.223 315.317 456.438 314.574 456.737L313.144 457.088C310.53 457.846 307.917 458.603 305.303 459.361C290.256 463.635 274.991 467.495 259.645 471.026L258.545 471.296C254.144 472.375 249.799 473.207 245.482 474.15L245.152 474.231C244.932 474.285 244.552 473.212 244.882 473.131L245.102 473.077C249.503 471.997 253.793 470.945 258.14 469.646L261.77 468.755C278.769 464.353 295.659 459.51 312.496 454.448C315.439 453.609 318.466 452.634 321.409 451.795C321.959 451.66 322.607 454.301 322.057 454.435L322.084 454.545Z" fill="black"/>
<path d="M402.692 436.058L388.28 439.593C383.77 440.699 379.012 441.749 374.308 443.02L352.305 448.416C351.425 448.632 350.545 448.848 349.501 448.871C348.237 448.947 346.808 448.831 345.598 449.128C345.571 449.018 345.681 448.991 345.791 448.964C346.948 448.447 348.187 447.793 349.316 447.166C350.252 446.704 350.499 446.76 351.682 446.353L352.783 446.083C355.039 445.296 357.349 444.73 359.66 444.163L402.016 433.774C402.236 433.721 402.427 434.024 402.672 434.547C402.861 435.317 403.076 436.197 402.636 436.305L402.582 436.085L402.692 436.058Z" fill="black"/>
<path d="M432.436 463.171C432.407 463.528 432.212 464.159 432.019 464.323L431.688 464.404C431.688 464.404 431.468 464.458 431.304 464.265C430.866 463.906 430.318 463.574 429.853 463.104C429.416 462.745 428.978 462.386 428.54 462.027C424.243 458.299 420.112 454.296 416.118 450.377C413.656 447.948 411.278 445.383 408.843 443.064C406.545 440.828 404.11 438.509 402.115 436.083C402.061 435.863 401.814 435.807 401.76 435.587C401.679 435.257 401.297 434.65 401.41 434.156C401.383 434.046 401.439 433.799 401.522 433.662C401.522 433.662 401.715 433.498 401.852 433.581C402.126 433.747 402.317 434.051 402.591 434.217C404.835 436.232 406.912 438.522 408.936 440.592C411.261 442.937 413.669 445.146 416.077 447.355C421.03 451.855 426.231 455.945 431.157 460.335C431.485 460.721 431.813 461.108 432.058 461.631L432.409 463.061L432.436 463.171Z" fill="black"/>
<path d="M433.009 464.08L444.792 514.027C445.008 514.907 444.51 515.729 443.63 515.945L215.897 571.8C215.127 571.989 214.332 571.601 214.033 570.857C211.424 564.499 201.056 536.017 197.826 527.128L197.583 526.138C197.421 525.477 197.616 524.846 198.112 524.491C198.332 524.438 198.498 524.164 198.829 524.083L200.589 523.651L257.004 508.764L257.334 508.683L430.211 463.134L431.421 462.837C431.971 462.702 432.465 462.814 432.766 463.09C432.793 463.2 433.04 463.256 433.094 463.476L433.229 464.026L433.009 464.08Z" fill="black"/>
<path d="M240.596 399.067C243.187 409.629 246.85 419.811 250.277 427.602C250.412 428.152 250.217 428.783 249.667 428.918L231.514 433.37C230.964 433.505 230.416 433.173 230.391 432.596L223.689 401.464L223.041 398.824L221.13 390.078L217.9 375.008C217.765 374.458 218.124 374.02 218.564 373.912L235.177 369.837C235.727 369.702 236.302 370.145 236.327 370.722C236.451 373.607 236.713 376.575 237.111 379.627C237.483 382.568 237.854 385.51 238.417 388.754L238.929 390.845C239.467 393.512 240.005 396.18 240.706 399.04L240.596 399.067Z" fill="black"/>
<path d="M397.617 409.66C397.202 410.345 396.322 410.56 396.322 410.56C390.931 411.883 385.594 413.425 380.314 414.72L379.984 414.801C375.583 415.88 371.209 417.07 366.836 418.259C364.855 418.745 364.855 418.745 366.836 418.259C360.702 419.88 354.568 421.501 348.434 423.122C345.8 410.005 343.029 396.805 340.285 383.715C324.993 387.465 309.647 390.996 294.354 394.747L305.221 434.771C289.486 439.096 273.835 443.285 258.101 447.611C257.881 447.665 257.331 447.8 256.619 447.274C255.907 446.749 255.579 446.363 255.525 446.143L241.163 389.014L231.638 350.177C231.368 349.077 231.922 348.008 233.022 347.738L366.581 314.981C367.131 314.846 367.735 314.931 368.146 315.18C368.146 315.18 368.804 315.485 369.103 316.228L368.883 316.282C368.964 316.612 369.994 319.859 371.729 325.032L371.972 326.022C372.404 327.782 373.11 329.709 373.732 331.772C373.894 332.432 374.056 333.092 374.328 333.725C374.49 334.386 374.652 335.046 374.951 335.789C376.576 340.989 378.446 346.712 380.287 352.792L380.611 354.112C380.827 354.992 381.043 355.873 381.506 356.809L381.614 357.249C383.131 362.009 384.675 366.879 386.193 371.639C387.114 374.445 387.926 377.279 388.821 379.975C393.074 393.512 396.623 404.655 397.626 407.791C397.653 407.901 397.896 408.892 397.59 409.55L397.617 409.66Z" fill="black"/>
<path d="M202.019 480.027C204.101 481.383 206.156 482.628 208.348 483.957C207.885 483.021 208 482.06 208.087 480.989C208.317 478.599 208.575 476.32 208.695 473.958C211.653 476.032 214.584 477.995 217.542 480.069C218.246 476.281 219.169 472.439 220.257 468.789C222.968 470.807 225.596 472.962 227.948 475.418C229.256 471.714 230.59 468.121 231.788 464.445C233.949 466.597 235.834 469.051 237.498 471.559L240.583 463.687C244.193 473.649 247.609 483.775 250.696 493.982C243.466 494.939 236.504 497.463 229.272 498.887C227.512 499.319 225.697 499.53 223.937 499.962C222.177 500.394 221.021 500.911 219.534 501.508C218.488 501.998 217.11 503.036 215.902 502.866C213.98 502.637 212.813 499.308 211.885 497.902C208.45 491.98 205.125 486.031 201.882 479.944L202.019 480.027Z" fill="#DBDFFA"/>
<path d="M251.551 493.189C251.632 493.519 251.576 493.766 251.383 493.93C251.163 493.984 251.053 494.011 250.945 493.571L250.837 493.131C248.448 486.719 246.416 480.336 244.247 473.87C243.08 470.54 242.078 467.403 240.994 463.937C240.045 461.02 239.317 458.05 238.368 455.133C237.7 457.163 237.004 459.083 236.172 460.92C235.923 461.331 235.539 461.192 235.348 460.889C233.681 458.849 231.958 457.055 229.876 455.699C228.519 458.249 227.792 460.993 227.477 463.986C227.504 464.096 227.282 464.617 227.008 464.451C224.048 462.844 221.087 461.238 218.184 459.384C217.673 463.008 217.245 466.496 216.708 470.01C216.708 470.01 216.512 470.641 216.238 470.475C212.838 468.976 209.384 467.257 206.013 465.401C205.731 467.103 205.532 468.669 205.359 470.344C205.104 472.156 205.26 474.217 204.757 475.973C204.811 476.193 204.562 476.604 204.261 476.328C202.729 474.838 200.342 474.14 198.449 473.555C196.556 472.97 194.663 472.384 192.687 471.936L192.633 471.716C194.638 471.807 196.45 472.062 198.316 472.538C199.304 472.762 200.182 473.013 201.087 473.374C201.882 473.763 202.787 474.124 203.722 474.128C203.674 472.507 203.846 470.832 204.045 469.266C204.22 467.124 204.531 465.065 204.843 463.006C204.982 462.622 205.148 462.348 205.559 462.597C208.82 464.48 212.247 466.089 215.674 467.697C216.184 464.073 216.722 460.559 217.233 456.934C217.372 456.55 217.538 456.276 217.949 456.525C220.743 458.406 223.593 460.04 226.553 461.647C226.979 458.626 227.815 455.855 229.146 453.196C229.092 452.976 229.422 452.895 229.696 453.061C231.778 454.417 233.721 456.156 235.36 458.087C236.166 456.14 236.971 454.193 237.777 452.245C238.055 451.477 237.953 449.636 238.79 453.047C239.626 456.457 240.93 459.87 241.986 463.227C243.043 466.583 244.072 469.83 245.129 473.187L245.399 474.287C247.404 480.56 249.409 486.833 251.441 493.216L251.551 493.189Z" fill="black"/>
<path d="M214.277 503.848C214.825 504.18 215.265 504.072 215.925 503.91L221.535 502.534C223.956 501.94 226.486 501.32 228.853 500.506C233.693 499.319 238.453 497.801 243.377 496.477L249.428 494.993C250.088 494.831 250.858 494.642 251.327 494.177C251.52 494.013 251.221 493.27 251.084 493.187C250.453 492.992 250.04 493.21 249.49 493.345L247.51 493.831C246.299 494.127 245.089 494.424 243.906 494.831C241.486 495.425 238.982 496.155 236.589 496.859C231.665 498.183 226.769 499.618 221.845 500.942C220.525 501.266 219.121 501.726 217.828 502.16L215.848 502.646C215.188 502.808 214.528 502.97 214.223 503.628L214.33 504.068L214.277 503.848Z" fill="black"/>
<path d="M316.642 350.09C318.502 358.148 320.142 366.26 322.002 374.319C322.056 374.539 322.218 375.199 322.548 375.118C337.948 371.807 353.184 368.304 368.53 364.773C368.86 364.692 368.671 363.922 368.617 363.702C365.908 355.035 362.87 346.45 360.271 337.756C360.244 337.646 360.109 337.096 359.889 337.15C352.628 338.931 345.338 341.069 338.131 343.07C334.527 344.07 330.924 345.071 327.32 346.071C323.716 347.072 319.785 347.686 316.671 349.733C316.561 349.76 316.669 350.2 316.806 350.283C320.57 350.409 324.258 348.805 327.862 347.804C331.465 346.804 335.069 345.803 338.645 344.693C345.852 342.692 353.17 340.664 360.296 338.333L359.968 337.947C362.76 346.477 365.358 355.17 368.067 363.837L368.154 362.766C352.754 366.076 337.518 369.58 322.199 373.221L322.745 374.02L316.835 349.926C316.781 349.706 316.671 349.733 316.725 349.953L316.642 350.09Z" fill="white"/>
<path d="M299.81 354.218L305.719 378.312L305.833 377.351C290.568 381.212 275.467 385.266 260.256 389.346L260.802 390.146C258.971 381.73 257.14 373.315 255.172 364.816L255.087 365.42C262.622 363.805 270.13 362.081 277.611 360.246L294.114 356.198C296.204 355.686 298.074 355.227 299.92 354.191C300.03 354.164 299.812 353.751 299.785 353.641C295.995 353.404 292.032 354.843 288.401 355.733L277.18 358.486C269.699 360.32 262.218 362.155 254.764 364.1C254.653 364.127 254.624 364.484 254.651 364.594C256.399 373.147 258.23 381.562 260.088 390.087C260.142 390.307 260.303 390.968 260.634 390.887C275.899 387.026 291 382.972 306.184 378.782C306.514 378.701 306.325 377.93 306.298 377.82C304.329 369.789 302.029 361.839 299.839 353.861C299.785 353.641 299.675 353.668 299.729 353.888L299.81 354.218Z" fill="white"/>
<path d="M399.643 460.717L283.24 490.666C282.14 490.936 281.1 490.024 281.16 488.843L282.464 473.711C282.522 472.996 283.074 472.395 283.734 472.233L387.369 446.815C387.919 446.68 388.577 446.985 388.905 447.371L400.232 457.889C401.162 458.828 400.853 460.42 399.533 460.744L399.643 460.717Z" fill="#DBDFFA"/>
<path d="M337.24 388.894L299.174 398.23C298.931 398.289 298.783 398.535 298.842 398.778L316.706 471.611C316.765 471.854 317.01 472.002 317.254 471.943L355.319 462.607C355.562 462.547 355.711 462.302 355.651 462.058L337.788 389.226C337.728 388.983 337.483 388.834 337.24 388.894Z" fill="black"/>
<path d="M370.855 385.664C371.064 387.946 371.934 390.065 372.474 392.265C373.013 394.466 373.746 396.502 374.286 398.703C375.639 403.269 376.966 407.726 378.209 412.32C379.452 416.914 380.862 421.234 382.161 425.581C382.701 427.781 383.487 430.037 384.137 432.211C384.569 433.971 384.942 436.446 386.42 437.716L386.53 437.689C386.979 435.713 385.835 433.427 385.239 431.474C384.7 429.274 383.967 427.237 383.317 425.064C381.964 420.497 380.638 416.04 379.284 411.473C377.931 406.906 376.631 402.56 375.222 398.24C374.572 396.066 373.896 393.783 373.136 391.637C372.513 389.573 372.111 387.456 371.075 385.61C370.994 385.28 370.718 385.581 370.772 385.801L370.855 385.664Z" fill="black"/>
</svg>
