<svg xmlns="http://www.w3.org/2000/svg" id="uuid-106fb2ea-3f80-4782-82ab-c25eeb02bb9d" version="1.1" viewBox="0 0 795.3 686.1"><defs><clipPath id="clippath"><path d="m109.7 356.7-73.5 26.2L6.4 615.2l9.7.2 62.5 20.7 79.5 25.2s7.2 2 9.1 2.6c1.9.5 4.5 1.6 8.3-.2s18.1-9.1 18.1-9.1 33.3-15.7 35.7-16.5c2.5-.8 19.3-5.9 26.1-13.9s17-14.8 17-14.8l2.5-18.6 4-104-24.3-82.8-54.4-47.2h-90.7Z" style="fill:none"/></clipPath><style>.st2{fill:#010101}.st5{fill:#fff}.st6{fill:#d4d4d3}</style></defs><g id="uuid-a5d0ce2d-57f5-4b1d-9f15-f3b17acaf632"><g id="uuid-7afc9b98-469c-4197-8a93-b1954bf05d0a"><g id="uuid-d34ab968-2689-493c-937b-ba6388d21e0e"><path id="uuid-a28a790f-fc29-415e-827e-62d01488a4d0" d="M793.2 492.9c-21.2 77.3-211.3 98.6-362.7 115.6-103.7 11.6-153 3.9-172.5.3C168.8 592.5 11.8 536.3.6 451.2c-13.3-101.9 182.6-245.8 374.2-248.4 229.7-3.2 443.9 196.7 418.3 290.2" style="fill:#eab91f"/><path id="uuid-e6d68e83-5c87-4cc3-b5a0-aba8227e7b12" d="m254.9 216.2 4.4 16.6-.7 3.2 2.2 14.5 4.4 9.7-.5 6 .8 6.5 4.9 11.5 8.5 8.7 5.2 3.9 2 11.9 3.7 21.6 4.4 30.9 5.9 36.7 9.4 31.1 9.2 16.8 7 10.9 4.6 2 11.5-4.8 23.5-16.4 19.9-18.4 8.8-8.9 1.9 5.6-1.8 33.2-5.4 112.7h-11l-23-5.6h-6.3l-13.1 15.2-37.3 41.3-12.6 16.5-1.1 6.6 1.1 17.1 6.5 2.8 70.9 8.7 49.2 8.6 52.4 9.3 16 1.4 4.8-.7 43-53.4 2.8 4.4 33.7 9.9 30.1 6.2 4.7 2.8 10.4-.3 22.9-17.2 20.7-16 30.3-24.2 9.9-11.3 1.1-10.6v-6.4l-4.3-7.5 2.1-4.3 5.2-6v-8.1l-1.7-13.3-2.5-4.3-3.2-3.1 4.4-4.1-.5-6.8-5.3-5.2-7.3-2.5-1.1-.3 3-21 6-49.7 4.1-40-2.5-23.1-3.5-13-5.2-14-19-9.7-16.6-7-20-7.5-25.3-7.1-11.9-16.8-24.8-14.8-23.7-9.2-19.7-10-6.1-7-5.9-18.2-3-23.5 3.2-23.9 11.2-16.8 11.2-12.3 3.8-22.7-16.7-48.2-80-25.7-42.9-22.3-6.3 31.1-1.8 13.2-1.3 23-.7 33.3 3.8 27.7 1.3 4.2 10.1 30.4 4 11 11.9 13.3 13.1 5.2 20.5-4.1 11.2 29.5 2.4 5.9-7.8.4-36.8 14.9-23 18-10.6 15.8-4.7 11.7-12.5-5.5-24.4-23.1-4.7-7.1-8.7-25.1-6.1-9.4-14.6-16.4-7.7-16-5.1-3-32.6-6.2-10.4-11.6-.8 4.4 1.3 13Zm56.4 94.6.8-1.2 12.9 6.9 13.1 11.7 23.8 21.5-1.3 2.8-4.5 10.4 3 3.7-4.3 7.8-9.6 16.6-2.2.7-5.7-18.2-9.8-24-12.7-26.9z" class="st5"/><path id="uuid-07864a60-2195-4ee4-87ca-99ccbddccb13" d="M435.8 102.8s-7.7 12.9-7.2 18.8 30.4-.8 30.4-.8l-15.2-15.4z" class="st6"/><path id="uuid-51433d2d-2fc5-4414-842e-f34aef83f393" d="m402.8 102.4-16.9 9.1.7 17 .8 12.5s7.2 55.4 29 39.4l-4.5-2.5-3.9-6.7-.7-8 2.1-11.6 3.5-9.2 2.5-10.5.5-6.7-.8-6.4-3.6-8.1-4.8-6.8z" class="st6"/><path id="uuid-c4420ce8-309d-4918-af92-d29a9f5b9437" d="M498.6 171.3s4.5 82.7-7.6 97.6c-16.5 20.4-25.5 13.2-25.5 13.2l-1.3 3.8 4.9 2.8 10.8 5.9 16.4-3.5 12.7-8.2 10.2-14 4.2-8.4-2.3-3.1-6.1-6.5-5.9-17.9-3.4-16.2.8-18 3.4-28.6-11.4 1.2Z" class="st6"/><path id="uuid-04adaa49-00b1-4eb7-910c-a109ac913f5b" d="M592.6 298.3s3.9 61-17.4 80-25.6 21.8-25.6 21.8l-3.4-8.4-35.9 35.5s-14.5 17-44.7-4.3-90.5-67.5-98.3-76.5-43.6-37.9-51.9-41.3c-8.4-3.4-38-13.1-41.4-16.5l9.5 8.7 13.7 5.5 20.7 9.1 10.1 7.3 22.1 19.1 17.7 16.7 30.6 28.8 28.7 27.2 29.4 22.5 18.4 12 13.3 7.8h5.5l10.6-6.5 28.4-18.2 22.9-8.3 17.2-17.9s7.3 35-13.1 47.4c0 0 23.1 9.2 9 43.9S463.5 537 440.2 530.5s-47-28-47-28l-4.6 59.2 78.3 17.5 63.7 4.5.2-4.5 1.3-6.1-4.1-1.2 1.3-2.5 5.6-3 1-4-1-8.1-2.3-4.1.7-.9 4.3-1.4 2.2-3.6v-8.2l-2.1-5.6-3.3-1.7 3.9-2.5 30.3-13.6 44.3-20.5 10.5-78.2-11.8-80.8-10.8-26.8-8-8.1Z" class="st6"/><path id="uuid-451391c0-0b31-47a3-87a7-d30057094128" d="m254.4 198.8 3.5 6 2.5 5.6s-.3 16.9 4.4 32l-4.4-7.1s4.9 27.8 9.8 33.1l-5-6.7c.7 6.8 2.4 13.5 5 19.8h-1.8l-4-11.3v-3l.6-7-3.6-6.5-3.2-13.1.3-6.3.8-1.9-3.5-11.2-2.3-11.1v-8.8l.8-2.5Z" class="st6"/><path id="uuid-469f0dd1-9ea1-4b51-b69e-35d543259237" d="M299.8 218.3s-2.6 1.4-2.6 4 5 16.8 6 20c.9 3.3 2 15.8-1.6 13.6s-3.1-8.2-3.1-8.2l-7.1-21.8 3-9.1 5.4 1.3Z" class="st6"/><path id="uuid-61755c31-4bfc-4c73-a8c1-6c9e657cf6ee" d="m370.8 360.3-2.3 6.4 4.7 2.3s-11 41.8-18 51.1-27.4 23.5-37.9-4.7-26-111.2-29.7-116.4-3.2-1.9-3.2-1.9v3.8l4.8 28 4 27.8 3.1 23.8 2.5 13.6 4.4 18.9 6.8 18.5 9.8 17 10.6 10.8 15-7.1 25.7-19.1 24.2-24.4 1-24.9-25.7-23.4Z" class="st6"/><path id="uuid-fbfbc8fc-6939-4f40-a446-cd35fe09f6f9" d="m692.2 565.6-21.5 20-56.4 42.7-27.3-8-35.2-9.8-4.7 1.9-20.3 17.8 10 6.5 31.5 7.2 30.7 9h9.5l9.4-3.5 50.6-43.3 21.8-16.2 3.2-8.9v-11.2l-1.6-4.2Z" class="st6"/><path id="uuid-23afb785-692c-4ef0-bb5a-d8a91c7e73f1" d="m696 541.6-86.5 54.1-43.3-12-34.2-10.6-1.3 12.5 13.3 1.5-.4 3.5 12.8 3.8 54 12.8 33.8-18.7 42.1-28.2 11.4-10.1v-8.6z" class="st6"/><path id="uuid-a986a98c-89bd-4f2e-89f3-6ae5ab92f9d2" d="m689.8 520-71.2 32.8-9.1-2.6-48.5-13.8-23.4-5.9 2.1 5.6 26 7 37.4 11.8s8.3 7.9 24.3 2.4c16-5.6 47.6-23.1 47.6-23.1l18.8-9.5-4-4.5Z" class="st6"/><path id="uuid-dc0f9ec9-6a71-42db-84cc-c72d96a5b4fe" d="M543.6 590.6S532 628.1 480.7 676c0 0-93.5-16-104.7-17.3-11.2-1.4-92.2-11.2-92.2-11.2l1.4 5.4 38.2 5.8 115.4 18.6 37.2 7.2h7.5l60.1-70.3 4.5-3.9-2.5-4.2-1.3-11.5z" class="st6"/><path id="uuid-b9720f26-3f3e-4521-8d68-3c1013c617bc" d="M530.5 583.7s-20.2 20.9-35.3 22.3c0 0-31.1 34.3-60.2 35s-75.3-5.1-84.5-7-66.4-4.1-66.4-4.1l52 9.3 34.9 8.2 40.4 7.3 45 5.1 24.1 4.8 12.7-16.8L516 622l21.2-23 7.3-9.7v-3.5l-13.8-2.1Z" class="st6"/><path id="uuid-070b33c7-4454-4875-afc5-c2c4bc2ccd18" d="m523.5 259.5-2.9 6.4-8.5 12.5-10.3 9-7.8 3.9-15.5 2.1-9.5-3.7-3.6-3.8-.5-6.9s-11.9-.9-10.2 11 6.8 15.2 6.8 15.2l12.7 4.2 11-.8 11-3.4 9.3-5.9 5.4-4.7 8.2-8.9 6.7-9.4 6.8-11.7z" style="fill:#e4b323"/><path id="uuid-1aa867a4-2fcb-4f6a-a667-27eb763b4891" d="M520 30.9S511.3 13.1 493.5 5 461-.2 437.8 5s-39.3 4-54.7.8c-15.5-3.2-22.2 10.9-22.4 26.8s16.5 34.9 32.5 37.7c16.1 2.8 19.4 6.9 41.2 4 21.8-3 36.3 3 41.6 3.2l-2.2 27.4s22.6 2.9 15.1 43.6c0 0 6.3.5 8.7 3.1 0 0 7.1-21 25.2-13.9 18 7.1.8 31.1-11.3 31.3h-13.1l.2 2.4h9.3s-6 28.5-1.4 36.7c0 0 6-25.6 18.2-41.4 12.3-15.9 18.6-33.9 24.6-46.4s23-44.8-7.7-67.2c0 0-3.6-7.7-10.5-11.1 0 0 6.3-.6 13.3 5.9 0 0-3-8.5-19.6-10.7 0 0 2.4-5.6 15.7-1 0 0-7.1-9.5-17.7-3.8 0 0-1-18.6-16.5-28.1 0 0 11.3 10.8 13.7 26.8" class="st2"/><path id="uuid-3a0b8039-6d32-4621-8ee8-db4f81040c3e" d="M389.5 64.5c-7.3 42.5-8 103.6 12.1 142.5 6.8 12.9 18.8 27 34.9 25.5 3.8-.5 7.5-1.5 11-3 6.4-2.5 12.2-6.2 17.2-10.9 3.2-3 5.8-6.5 7.7-10.4.2-.4 0-.8-.3-1-.4-.2-.8 0-1 .4-1.2 2-2.7 3.8-4.3 5.5-6.1 6.3-13.8 10.9-22.2 13.3l-1.7.4c-8.7 2.8-18 .4-24.9-5.5-24.3-21.4-29.7-68.5-30.5-99.4-.5-19.2.8-38.3 3.8-57.2 0-.5-.2-.9-.7-1s-.9.2-1 .7" class="st2"/><path id="uuid-f0acf6eb-921f-449c-8503-4b35f04c0685" d="M523.9 149.9c-.8-4.7-6.7-6.3-10.8-4.6-5 1.7-9.7 6.9-8.6 12.4 2.1-3.4 5.1-6.2 8.8-7.9 3.6-1.9 7-2.6 10.6.1" class="st2"/><path id="uuid-2ad7198c-962b-4f08-b8f0-5c40c49c6b7f" d="M451.1 173.6c-1 6.4-2.2 13.2-6 18.5-2.3 3.1-4 5.4-7.8 7.5v.4c3.1.8 6.4 0 8.7-2.1 2.4-2 3.4-5 4.3-7.8.8-2.7 1.3-5.5 1.5-8.3s.1-5.5-.2-8.3h-.4Z" class="st2"/><path id="uuid-c9e0a3bb-dc4c-42fa-8608-7787d7e6c8b2" d="M386.6 107.2s6.7-5.6 12.5-6.6c5.5-.9 8.3 2.1 3.4 5.1s-14.2 5.1-15.9 8.3v-6.9Z" class="st2"/><path id="uuid-0a6e049c-66c5-46f3-8496-d713e6f6ac94" d="M442.5 102.1s-5.3-1.7-6.7.8.7 4.3 4.8 6.1 11 5.3 16.1 11.3 3-11.1-14.2-18.2" class="st2"/><path id="uuid-c646e230-c43b-4ef2-810a-39f851216052" d="M437.3 144.9c1 3.1 3 5.5 4.5 5.5s1.9-2.5 1-5.5-3-5.5-4.5-5.5-1.9 2.5-1 5.5" class="st2"/><path id="uuid-97c03f7a-c1cf-42c9-a82b-7d2b8433e8a1" d="M396.6 144c.9 2.9 2.8 5.2 4.3 5.2s1.8-2.3.9-5.2-2.8-5.2-4.3-5.2-1.8 2.3-.9 5.2" class="st2"/><path id="uuid-7e29ff21-9d40-4f5f-bc65-385167040c42" d="M403.8 101.6c4.2 5.7 9.6 11.1 10.7 18.4.9 5.3.6 10.7-1 15.9-.3.9-.9 3-1.2 3.9-3.3 8.9-7.5 18.3-6.4 28.2.5 5.9 4.4 11.3 10.2 12.9.4.1.8-.1.9-.5 0-.3 0-.7-.4-.9-11.3-4.4-8.8-18.1-6.2-27.4 1.9-7 5.1-13.8 5.9-21.1.7-7.4-.6-15.1-4.8-21.3-2.1-3-4.3-6.1-7.5-8.1zv.1" class="st2"/><path id="uuid-07bef348-b41f-4164-ba1b-cc4868e36f1e" d="M507.1 176.9c-3.7 23.4-4.2 51.9 7 73.4 1.7 3.2 3.8 6.1 6.1 8.9.4.4 1 .5 1.5 0 .4-.4.5-1 .1-1.4-13.2-16.6-14.8-39.1-14.1-59.5.3-7 1-13.9 2.1-20.8.2-.8-.4-1.5-1.1-1.6s-1.5.4-1.6 1.1" class="st2"/><path id="uuid-c479b21a-0112-4bd2-a741-10f4b80f79be" d="M450.1 227.8c6.6 13.5 10.9 28 12.8 43 .7 5 1 10.1 1.4 15.1 0 .3.3.5.5.5s.5-.2.5-.5c.1-1.3.2-2.5.3-3.8.8-14.2-1.3-28.4-6.3-41.8-1.8-4.9-4-9.6-6.8-14-.4-.6-1.3-.8-2-.4-.6.4-.8 1.2-.4 1.9" class="st2"/><path id="uuid-98401825-6929-42d0-a631-bec692ac2b2d" d="M471.7 207.9s15.8 24-12.5 33.7l-7-14.6z" class="st2"/><path id="uuid-5b4a95f3-37a3-4324-aba0-007616523845" d="M520.9 265c-8.5 13.7-22.1 27.5-39.3 26.8-5.6-.2-10.9-2.3-15.9-4.8 2.1 2 4.5 3.7 7.1 5 15.3 7.9 29.2-.3 39.1-12.2 3.7-4.4 6.8-9.3 9.4-14.5v-.3h-.3" class="st2"/><path id="uuid-a3d7bc5c-c7f3-4db4-a088-7bac457ac077" d="M527.7 272.8c-11.2 17.3-28.3 35.2-50.4 34.2-6-.2-12.5-1.1-17-5.5-4.6-4.5-5.6-11.4-4.8-17.5-2.9 8.8-.3 19.1 8.5 23.5 6.1 3.2 13.3 3.2 20 2.4 19.2-2.5 35.6-20.7 43.8-37.1" class="st2"/><path id="uuid-31ac4f4f-ad49-4a7c-af2e-dfa4a4ac0a4d" d="M611.1 494.7c4.3-29.1 6.8-58.5 7.4-87.9.5-30.9-1.1-64.6-10.6-92.7-5.3-13.5-16.4-24.9-28.8-32.2-2.8-1.6-5.6-3.1-8.5-4.4-2.5-1.1-6.3-2.4-8.9-3.5-5.9-1.7-11.7-3.8-17.3-6.3-7-2.8-13.9-6.1-20.6-9.7-1.3-.7-2.6-1.5-3.7-2.5-.4-.4-1.1-.3-1.4.1-.4.4-.3 1.1 0 1.4 1.2 1 2.6 1.9 4 2.7 9.4 5.4 19.2 10 29 14.5 4.3 1.6 8.5 3.5 12.5 5.6 2.3 1.1 5.7 3.2 7.9 4.5 1.3.8 2.6 1.6 3.8 2.5l3.7 2.5 3.5 2.7c6.5 5 11.9 11.1 16.1 18.1 1.8 3.1 3.2 6.5 4 10 10.4 34.9 10.3 72.1 9.4 108.2-.8 21.9-2.4 43.8-4.9 65.6-.1.9.5 1.8 1.5 1.9.9.1 1.8-.5 1.9-1.4" class="st2"/><path id="uuid-34dcf6d0-17ba-409d-9ced-b5cb45b11fdb" d="M549.9 322.3c-8 11.3-17.1 21.7-27.3 31-13.5 11.8-26.4 24.3-37.8 38.2-.5.6-.3 1.4.2 1.9.5.4 1.3.4 1.8-.1 12.2-13 25-25.4 38.1-37.5 10-9.8 19-20.8 25.6-33.1 0-.2 0-.4-.2-.5-.2 0-.4 0-.5.1" class="st2"/><path id="uuid-f91b4e47-1b65-49a5-95f8-03e3efd35e99" d="M499.2 424c.2-2.6 0-5.2-.7-7.8-.9-3.8-2.2-7.6-4.1-11-6.6-12.9-17.4-23.1-28.7-31.9-1.3-.9-6.8-4.9-8-5.7-3-2-6.9-4.3-10-6.2-8.3-4.8-17.2-9.5-25.6-13.9-20.2-11.1-39.6-23.8-58-37.8-5.1-3.9-10-8.1-14.5-12.7-3.5-3.7-7-7.5-9.1-12.2-2.1-4.6-4-9.5-6-14.2-2.1-4.7-3.9-9.5-5.3-14.5 0 0 0-.1-.1 0v.1c.2 2.6.6 5.2 1.2 7.7.9 3.8 1.8 7.6 3.1 11.4 1.7 4.6 4 9.1 6.7 13.2 9.9 12.5 22 23.1 34.6 32.9 15.6 11.7 32 22.2 49 31.5 7.4 4 14.8 7.9 22.1 12 2.4 1.4 5.8 3.5 8.2 5 2.4 1.4 7.2 4.9 9.5 6.5 2.6 1.9 5.1 3.9 7.6 5.8l.8.6.7.6c1.4 1.2 4.3 3.8 5.7 5.1 1.3 1.3 4 4.1 5.3 5.5l2.5 2.9c1.8 2.2 3.6 4.5 5.2 6.8l.5.8 1 1.6c2.3 3.8 4.1 7.9 5.3 12.2.5 1.9.8 3.8.8 5.7v.1s.1 0 .1-.1" class="st2"/><path id="uuid-5da249b4-fc26-42b2-b822-c6fdebf9f3e4" d="M604.6 349.6s-8 23.1-23.8 38.9-27.2 25.9-27.2 25.9l-3.3-2.8-22.5 18.7 7.2 9.3s25.8-17.8 35.8-28.8c21.5-23.6 34.2-50.8 34-61.2" class="st2"/><path id="uuid-f07884f9-b631-4e18-9000-9d75895acce3" d="M553.5 414.9c-1.5-6-2.7-11.9-4.9-17.7-6.2-16.1-16.7-26-34.3-27.5-3.1-.2-6.2-.3-9.3-.1-1 0-1.8.9-1.7 1.8 0 1 .9 1.8 1.8 1.7h.5c2.8-.7 5.6-.9 8.4-.5 5.6.7 11 2.9 15.5 6.3 9.1 6.8 20.8 24.7 20.5 36.3 0 1 .7 1.8 1.6 1.9 1 0 1.8-.7 1.9-1.6z" class="st2"/><path id="uuid-e5b1cfdd-11cf-4e6c-a36a-7c378cc89878" d="M591.8 395.4c-4.6 10.7-13 23.2-25.9 23.5-1.8 0-3.5-.2-5.2-.7-1.1-.4-2.3.2-2.8 1.3v.2c-.3 1.1.4 2.3 1.6 2.6h.1c12.9 2.7 23-6 28.7-16.6 1.8-3.2 3.2-6.5 4.3-10 0-.2 0-.5-.2-.5s-.5 0-.5.2" class="st2"/><path id="uuid-e69960ef-2210-48e5-902b-cb74f2a6d5ca" d="M613.1 312.8c15.4 6.8 32.6 12.5 48 19.1 4.4 1.8 8.6 3.9 12.7 6.3 2.5 1.6 4.8 3.1 6.5 5.3 2.1 3.1 3.8 6.3 5.2 9.7 3.5 8.5 4.4 18.2 4.8 27.9.4 9.8.4 19.7 0 29.6-.5 14.8-1.6 29.7-3.5 44.4-1 9.8-2.5 19.6-4.2 29.2-.8 4.9-1.6 9.8-2.7 14.6 0 .2 0 .5.3.5s.5 0 .5-.3c1.5-4.7 2.8-9.6 3.7-14.4 3.3-14.5 4.8-29.4 6.1-44.2 1.7-19.8 3.2-39.5 3.1-59.4 0-11.8-1-23.9-6.3-34.6-1.5-2.7-2.9-5.7-5.1-7.9-3.7-3.5-8.1-5.9-12.6-8.1-9-4.2-18.3-7.8-27.8-10.6-9.5-3-19-5.6-28.7-8-.2 0-.5 0-.5.3 0 .2 0 .5.3.5" class="st2"/><path id="uuid-d500bb8e-cc69-4613-a119-8733da7f1896" d="M696 511.4c.8 3.7-.5 8.3-4 10.1-3.3 1.9-6.7 3.4-10.1 5.1-11.7 5.7-28.8 13.2-40.8 18.7l-10.2 4.6c-5.2 2.1-10.4 5.2-16.1 4.9-3.4-.2-6.2-2.2-9.2-3.5-16.2-5.8-33-10.2-49.7-14.8-3.6-1-7.2-1.9-10.9-2.7-3.2-1-13.4-1.3-12.3-6.3.4-1.1 1.1-2 2.1-2.5 3.3-2 6.7-3.6 10.3-4.8 8.9-3 17.3-6.9 25.8-10.7 7.1-3.2 23.7-10.8 30.7-13.9 10.4-4.5 22-5.5 33.2-5.2 7.5.2 14.8 2.2 22.2 3.8 7.3 1.7 14.6 3.4 21.8 5.2 3.2.8 8 1.6 10.8 3.2 3.5 1.7 6 5.2 6.5 9.1m-2.6.1v-.7c0-2.4-1.4-4.6-3.4-5.8-1.3-.6-2.7-.9-4.1-1.1-1.5-.2-6.5-1.3-8-1.7-10.5-2.4-22.1-5.3-32.7-7.5-3.5-.8-7-1.5-10.6-2-5.4-.8-11.1-1.5-16.5 0-10.3 2.5-20.7 8.5-30.2 13-11.9 5.6-23.8 11.2-36 16.2-2.6 1-5.3 1.9-7.9 2.9-2.7.9-5.2 2-7.7 3.3h-.1s0 .1 0 0 0 0 .1-.1 0 .2 0 .2v.1c0-.2 0-.4-.1-.6 1 1.2 3.7 1.8 5.5 2.2 1.3.3 3 .5 4.3.7 3.7.5 7.4 1.3 11 2.4 15.6 3.7 30.6 8.8 46 13.5 1.3.4 2.9.8 4.2 1.3.8.3 2.1.8 2.9 1.1 1.8.4 4 1.2 5.4 1.2 2.7 0 5.9-1.5 8.7-2.7l5.1-2.2c9.9-4.3 21-9 30.8-13.3 6.8-3 13.7-6 20.5-9.1 2.6-1 5-2.3 7.4-3.8.6-.4 1.6-1 2.1-1.3.5-.2 1-.5 1.5-.8 1.7-1.2 2.6-3.3 2.3-5.3" class="st2"/><path id="uuid-b21d7bb2-75d4-4dd4-9575-be40ffd2efde" d="M612.2 324.3s31.7 10.4 37.2 24.3 3 47.5 2.3 54.1-4.1 41-5.1 48.6-5.8 40.7-5.8 40.7l-10.1-.8-11.1.5-8.3 2-.6-3.2 2.5-18.4 2.2-25.5 1.8-43.2-.5-32.1-4-32-3-15.6 2.6.6Z" class="st2"/><path id="uuid-e7438da1-955b-45a7-9f8a-a11baad320fd" d="M623.2 542.7c.6-5.2-5.8-8.1-9.6-9.8-4.3-2-8.7-3.7-13.3-5-9.2-2.5-18.7-3.4-28.2-2.6-.2 0-.4.2-.4.5 0 .2.2.3.3.4 9.4 1.3 18.4 2 27.5 4.3q6.75 1.65 13.2 4.2c3.4 1.3 9.4 3.6 9.6 7.8 0 .4.2.5.4.5s.3-.1.4-.3" class="st2"/><path id="uuid-b892385a-d3d4-41f5-b818-82f942f04c75" d="M616.1 546c-1-5.2-8.1-7.3-12.7-7.5-.1 0-.3 0-.3.2s0 .2.2.2c1 .4 2.5.8 3.6 1.2 3.3 1.2 7.2 2.6 9 5.8h.2v-.1" class="st2"/><path id="uuid-a6009e3c-b72d-45d1-89c6-323ce8137de9" d="m538 531 .8 9.8c.2 1 .2 2 .1 3 0 1.7-1.2 3.2-2.9 3.5-4.4.7-7.5 1.7-3.4 6.2 1.4 1.6 3.1 2.8 5.1 3.5q5.7 2.25 11.7 3.6c11.8 3 23.8 5.3 35.5 9 7.8 2.4 14.9 6.5 22.7 9 2 .7 4.2.8 6.2.4 2-.5 3.9-1.3 5.8-2.2 3.7-1.7 7.4-3.4 11.1-5.2 7.4-3.5 14.7-7 22-10.6 11-5.4 21.9-10.8 32.6-16.7 3.6-2.1 7.2-3.9 10.4-6.6.6-.5.7-1.4.1-2s-1.5-.6-2.1 0c-6.6 4.2-14 7.2-21.1 10.6-12.2 5.7-31.8 14.5-44.2 20.3-3.7 1.7-7.4 3.4-11 5-1.5.8-3.4 1.2-4.5 2.3-1.1 1.2-2.7 1.8-4.3 1.6-2-.2-3.9-.6-5.8-1-4-1-7.8-2.2-11.6-3.8-5.7-2.3-11.6-4.1-17.5-5.9-9-2.8-20.1-5.7-29.2-8.5-2.9-1-5.9-1.6-8.4-3.1q-1.65-1.2-2.7-3s0 .1 0 .2v.2c-.2.2-.1 0 .2 0 .8-.3 1.8-.4 2.6-.2h.8c0 .1.1.2.1.2.3 0 .9 0 1.2-.1 3.6-.8 4.7-5.2 4.2-8.1-.6-3-1.4-6-2.3-8.9-.3-.8-.6-1.7-.9-2.5 0-.2-.3-.3-.5-.2-.2 0-.3.2-.2.4" class="st2"/><path id="uuid-e12641f1-ce1f-4088-bbb8-6c1638198954" d="M540.9 541.6s65.1 19.9 69.6 23.8c.8.7 1.4 1.7 1.5 2.8 0 0-.3-2.2-14.3-6.8s-44.1-12.5-57.8-13.2l1.1-6.6Z" class="st2"/><path id="uuid-c42ceec9-1592-4340-b723-986b31d25f1d" d="M690.7 520.8c2.4 2.2 3.8 5.3 4.1 8.5 0 2.1.3 4.3.5 6.3.3 4 1.3 7.9.6 11.9-1 5.4-6.1 8.4-10.4 11.3-15.4 10.1-31.5 19.3-47.6 28.3-5 2.7-9.9 5.7-14.9 8.5-3.6 2.1-7.8 4.2-10.8 7.1-1.2 1.1-2.2 2.3-3.2 3.6l-.2.3c-.4.7-.3 1.5.4 2 .5.3 1.1.3 1.5 0 2.4-1.5 4.9-2.9 7.3-4.3l7.4-4.3c19.6-11.3 40-23 58.4-36.2 4-3 8.3-5.9 11.4-9.9l.7-.9.5-1c3.7-6.5 2.1-14.3 1-21.3-.3-4.5-2.8-8.6-6.7-10.9-.5-.2-.8.5-.4.8" class="st2"/><path id="uuid-d0d7b7f7-1db2-45ee-af6f-3004c5de1297" d="M545.2 585.7c-1.9-1.2-4.2-1.3-6.3-1.7-6.3-.8-12.6-.8-18.9-1.3-16.8-1.3-33.5-3.1-50.2-5.6-33.2-5.4-66.5-10.9-99-20-6.1-1.6-12.4-3.2-18.8-3-2.2.2-4.5.4-6.1 2.1-.6.6-.5 1.6.1 2.2.5.5 1.3.5 1.9.1.5-.4 1.1-.6 1.8-.7 2.7-.3 5.5-.2 8.2.4 6 1.2 12 2.7 17.9 4.6 6.2 1.7 12.4 3.1 18.6 4.5 41.4 8.8 83.1 15.9 125.3 18.9 5.7.5 13.1.6 18.7 1.2 1.6.2 3.2.5 4.7 1-.1 0-.3-.2-.4-.3.7.7 1.7.6 2.4 0 .6-.6.6-1.6 0-2.3" class="st2"/><path id="uuid-26b04afd-aaf8-4a1f-a274-c014eff2dbea" d="M348.2 556.1c-4.2 1.2-6.7 4.9-9.7 7.8l-8.5 9c-5.6 6-19.8 21.4-25.1 27.2-5.2 6.2-10.3 13-15.3 19.5-2.6 3.2-5 6.6-7.1 10.2-.3.6-.1 1.3.5 1.7.6.3 1.4 0 1.7-.6 1.5-2.1 3.7-4.8 5.4-6.9 5.1-6.2 10.5-12.8 15.5-19.1.5-.6 1.3-1.6 1.9-2.2 12.5-13.4 25.2-27.3 37.3-41 1.5-1.3 2.7-2.8 3.5-4.6l.2-.4c0-.2 0-.3-.2-.4h-.2" class="st2"/><path id="uuid-3d203f40-d992-45a2-a4e4-b0159c5d24bd" d="M481.3 665.2c-.1-.2-.3-.3-.5-.4-1.8-.8-3.7-1.5-5.6-1.9-6.1-1.5-12.2-2.5-18.4-3.5-24.7-3.6-49.4-6.8-73.9-11.2-14.3-2.3-34.4-7.3-48.6-10.8-10.1-2.3-20.2-5.3-30.5-6.5l-6.2-.7c-4.1-.4-8.3-.9-12.4-1.1-.8 0-1.4.6-1.4 1.3s.5 1.3 1.2 1.4c4 .3 8.2.7 12.3 1.2 3.6.5 8.6 1 12.2 1.5 13.7 2.8 34.6 8 48.4 11.2 32.6 7 65.7 10.6 98.7 14.9 7.9 1.2 16 2 23.5 4.7.2 0 .3.2.5.3.1.2.4.3.6.2s.3-.4.2-.6" class="st2"/><path id="uuid-92be9d53-bc15-4c83-a316-2e36db4ff6b1" d="m283.2 629.9-.5 14.1c0 4.5-1.6 11.5 5 11.9 19.4 2.6 43.9 5.7 63 8.5 29.1 4.9 75.7 11.7 104.4 17.9 4.6.9 9.3 1.8 13.9 2.5 4.7.7 9.4 1.5 14.2 1.2 1 0 1.8-1 1.7-2 0-1-1-1.8-2-1.7s-2 .1-3.1 0c-8.1-.4-16-2-24-3.5-4.8-1-16.2-3.2-20.8-4.1-23.1-4-68-11.7-90.7-15.5-18.6-2.8-37.3-5.8-56-7.7h-.8l-.2-.1s-.4-.3-.5-1c-.2-.9-.3-1.8-.3-2.8 0-2.1-.3-5-.5-7.1-.4-3.6-.9-7.2-1.7-10.7 0-.3-.3-.5-.5-.4-.2 0-.3.2-.3.4" class="st2"/><path id="uuid-22a9c280-293e-46de-9acc-bc58408f3378" d="M544.4 586c-1.2 2.6-1 5.2-.9 7.7.2 2.2.5 5.4.7 7.6.2 2 .2 4.5 1.3 6.3.5 1 1 1.5.7 2.4-.6 1.4-2.1 2.5-3.2 3.8-5.3 5.5-10.8 10.8-16.1 16.4-8.6 9.3-18.6 20.3-26.9 29.8-1 1.2-2.7 3.3-3.7 4.6l-4.8 5.9c-3.2 4-6.4 8-9.5 12-.6.8-.4 1.8.3 2.4.7.5 1.7.4 2.3-.3 19.2-24.4 42.2-48.9 62.4-72.2.9-1.1 1.2-2.6.8-4-.3-1-1-1.7-1.3-2.6-.3-1.5-.5-3.1-.5-4.6-.2-5.1-.6-10.2-.9-15.3 0-.2-.2-.4-.4-.4-.1 0-.3 0-.3.2v.2" class="st2"/><path id="uuid-4d05f940-8379-4fa5-82d5-e536a3f315d4" d="M543.6 590.6c-11.4 12.8-38.4 41.8-49.1 54.4-3.9 4.7-7.9 9.4-11.5 14.3-1.2 1.7-2.3 3.4-3.4 5.2-.2.4 0 .9.3 1.1.4.2.9 0 1.1-.3 4.3-6.6 9.9-12.8 15-18.9 10-11.8 22-24.9 32.2-36.7 5.4-6.1 10.7-12.3 16-18.5.2-.2.1-.4 0-.6s-.4-.1-.6 0" class="st2"/><path id="uuid-d8fc3e6b-c876-4ebd-ae34-d29e8ef026b4" d="M482.1 683.3c-.8-6.1-2.1-12.5-1.6-18.6 0-.2-.1-.5-.3-.5s-.5.1-.5.3c-.8 6.3 0 12.7.5 19 0 .5.5.9 1.1.9s.9-.5.9-1.1" class="st2"/><path id="uuid-112dd73d-89d4-410e-a617-2dc9ac6bbe06" d="M684.5 569.9c-19.9 16-39.8 32.1-60.1 47.5-3.1 2.5-6.3 4.7-9.7 6.8q-1.05.3-2.1 0c-1.5-.3-3.1-.7-4.6-1.1-18.3-5.6-37-10.6-56.1-12.7-.2 0-.4.1-.5.4 0 .2.1.4.4.5 12.5 2.5 24.8 5.7 36.9 9.5 6.1 1.8 12 4 18.2 5.9 2.4.9 4.8 1.4 7.4 1.5 1.2-.1 2.4-.5 3.4-1.2 3.2-2 6.2-4.2 9.1-6.3 15.6-11.4 30.4-23.5 45-36 4.9-4.1 9.5-8.5 13-14.4v-.4z" class="st2"/><path id="uuid-9815f09a-0c7b-4b60-8543-9ae4b74cd123" d="M623.9 598.5c1.1-7-1-14.6-6.4-19.3h-.1v.1c1.2 1.2 2.2 2.6 3 4.1 2.3 4.5 2.9 9.7 1.7 14.6-.2.5 0 1 .6 1.2.5.2 1 0 1.2-.6z" class="st2"/><path id="uuid-91b76352-9410-4c19-8345-2ef0f993fe5f" d="M534.3 554.5c.2 3.5.8 7.2 0 10.7-1.3 1.3-3.2 2-4.9 2.8l-1.6.6c-.6.3-1.1.8-1.4 1.4-1.1 2.7 2.3 4.3 4.4 4.9 8.7 2.5 17.3 4.9 26 7.3 6.5 1.8 19.6 5.3 26.1 7 8.7 2.1 17.7 5 26.4 6.6-8.1-3.9-17-6.8-25.5-9.9-8.5-3-17.1-5.9-25.8-8.1-.9-.3-28.5-6.7-28.4-7-.3-.1-.3-.2-.2 0 0 .2 0 .5-.1.5h-.1s-.2 0 0 0c2.2-1 4.4-2.3 6.3-3.8.5-.4 1-1 1.2-1.7.2-1.5.2-3.1-.1-4.7-.3-2.3-.8-4.6-1.3-6.8 0-.2-.3-.4-.5-.3-.2 0-.4.2-.3.5" class="st2"/><path id="uuid-dbc6d0bc-4458-442b-be4e-b8ee279d91f7" d="M610.1 607.1c-18.5-5.7-37.7-10.7-56.5-15.3l-8.2-1.8c-.4 0-.7.2-.8.5 0 .3.1.7.5.8l64.5 17.6c.5.1 1-.2 1.1-.7s-.2-1-.6-1.1" class="st2"/><path id="uuid-ff5318d6-72ce-486a-a1e6-cc099a5b7c7a" d="M530.5 573.4c-.9 3.4-.9 6.9 0 10.3 1.3 1.8 1.5-4.5 1.5-5.2 0-.6-.2-7-1.5-5.2" class="st2"/><path id="uuid-9e36a2bd-6bef-4eb4-b706-8cb27b49c445" d="M689.3 558.9c1.5 2 2.5 4.3 3 6.7v1.5l.2 3.5c.2 4.5.5 9.4-1.4 13.3-.5.8-1.1 1.6-1.8 2.2-5.5 5-11.4 9.7-17.1 14.4-18.9 15.2-40.7 32.9-59.7 47.8-6.5 5.5-9.7 2.1-16.7.5-2-.5-4.8-1.3-6.8-1.8-1.7-.4-5.1-1.4-6.8-1.8-6.7-2-13.4-3.7-20.1-5.7q-10.65-3.45-21.6-5.7c-4-.8-7.9-1.3-11.9-2.1h-.2c-.2 0-.4 0-.5.2 0 .2 0 .3.2.4l1.5 1c3.6 1.9 7.4 3.5 11.3 4.7 8.8 2.9 17.9 5.3 26.9 7.4s18.1 4.1 27.1 6.6c8.1 2.2 12.3 5.5 20.1-.3 19.3-14.6 40.8-32.8 59.6-48.2 5.4-4.5 10.8-8.9 15.9-13.6 1.4-1.1 2.6-2.5 3.5-4 1.3-2.7 2-5.6 1.9-8.6 0-2.3-.1-4.7-.4-7s-.2-4.7-1-7c-.9-2.2-2.2-4.3-4-5.9-.4-.3-1-.3-1.3 0-.3.4-.3 1 0 1.4" class="st2"/><path id="uuid-246c96cc-93e1-4c62-b9c7-405fe6cf2351" d="M613.1 626.9c.5 5.5.7 11.3 1.3 16.9.8-2.4.3-5.8 0-8.5-.3-2.8-.8-5.6-1.2-8.4" class="st2"/><path id="uuid-33465da5-0185-413b-8cc1-caccbe732e6e" d="M614.4 638.3c-11.5-3.2-24.3-6.1-36-8.5-9-2-18.2-3.6-27.4-4.7q-4.65-.6-9.3-.6c-.2 0-.4.2-.5.4s.2.4.4.5c12.2 1.5 24.3 4 36.4 6.3 12.1 2.4 24.2 4.9 36.2 7.5.2 0 .5 0 .5-.3 0-.2 0-.5-.3-.5" class="st2"/><path id="uuid-a869f161-598c-4bb6-9544-7f1173b82624" d="M334.6 276.4c-3.2-5.2-3.2-13.9-6.8-19.3-8.6-8.9-17.6-17.6-23.3-28.8-1.6-2.8-2.9-6.3-5.1-8.7-2.8-3-4.7 2.4-5 4.6-.8 5 1.8 8.3 4 12.5 2.7 5.1 4.3 10.6 5 16.3 0 .5.2 4-1.2 3.3-20.9-11.5-39.3-31-45.3-54.2 9.6 18.3 24.8 39.1 45.7 49.1l-1.2 3.3c-.1-9.8-7.8-17.1-9-26.5-.2-3.8.3-10.4 3.8-12.9 5-2.7 8.6 10.5 11.3 13.5q4.5 7.5 10.2 14.1c4.4 4.8 10.3 8.6 12.9 14.7 2.2 6.8 2.1 12.8 5.3 16.8 1.9 2.4.8 5.4-1.2 2.2" class="st2"/><path id="uuid-a06806fd-9249-4517-b36f-6d28ba8d3c8e" d="M254.4 198.8c-2.1 21.2 9.4 39.6 17.7 58.1-9.6-10-16.5-28.2-18.7-43.1-.7-1.3-.5-18.1 1-15" class="st2"/><path id="uuid-949d7ea6-9853-4407-a02e-6034316e79e2" d="M258.8 231.2c.1 15.6 4.9 26.3 12.9 39-9.9-6.6-16.4-28.9-12.9-39" class="st2"/><path id="uuid-8c614b3c-803b-425e-8db6-ce96aeebe0f0" d="M264.9 261.3c-1 28.1 27.2 37.8 48.8 46.5 6.2 2.9 13.4 6.4 16.9 12.6-.3 1.8-6.5-3.5-7.9-4.1-8.8-5.5-18.8-8.4-28.3-12.3-16.9-6.2-35-23.7-29.5-42.6Z" class="st2"/><path id="uuid-47b412f4-0b97-4d39-8f7c-68145cd17a65" d="M294.8 191.7c.3-5.7-2.3-13.7-9.4-14.8-8.4-2.6-16.8-5-25.2-7.4-4.5-2.2-4.7 5.2-4.3 7.8.8 22.3.3 27.4 11.9 45.5 0 0 15.2 25.1 32.4 30.8 7.4 2.6-4.5-15.8-5.4-20.2-3-5.3-2-13.6 2.7-16.9-1.6-10.9-2.3-18.9-2.6-24.9" class="st2"/><path id="uuid-e51fcca7-8d69-4373-841a-6059414fcbfb" d="M271.9 201.3c-2.1 0-1.5 7.8.5 7.6 2.1 0 1.5-7.8-.5-7.6" class="st5"/><path id="uuid-23d78fa7-0339-4879-91de-f16c296baeaa" d="M271.3 192.1c-1.5 0-1.1 5.6.4 5.4 1.5 0 1.1-5.6-.4-5.4" class="st5"/><path id="uuid-115eb1d1-1ea6-4200-a57d-10b24d0bf91f" d="M289.8 188c1 8.6 2 18.5 1.5 26.7-.6-8.7-1.6-18.5-1.6-26.7Z" class="st5"/><path id="uuid-7d77294e-00aa-45af-9898-30d8966a7608" d="M282.2 180.9c-7.4-2.9-15.3-5-22.6-7.8 7.6 1.4 16.2 4 22.6 7.8" class="st5"/><path id="uuid-f9d33384-4837-437a-b99a-8100175155d2" d="M543.4 419c-12.2 8-24.5 16.4-36.9 24-4.5 2.8-9.3 5.9-14 8.6-1.1.7-1.9.5-3.2.1-2.6-.9-5.1-2.1-7.4-3.6-18.5-11.8-36.2-25-53.4-38.5-9.1-7.3-17.6-15.3-26.1-23.3-20.2-19.1-43.9-42.2-64.5-60.5-4.6-3.9-9-8.2-14.3-11.4l-1.2 2.3.9.6c9.1 6.9 17.1 15.1 25.4 22.9 17 16.3 33.8 32.9 50.8 49.2 6.4 6.1 12.8 12.2 19.5 18 11.2 9.6 23.3 18.1 35.4 26.5 7.3 5 14.6 9.9 22.1 14.7 4.4 2.7 8.8 5.8 14 6.7 2.3.3 4.4-1.5 6.3-2.5l3.8-2.2c10.2-5.9 20-12.6 29.2-19.9 4.7-3.6 9.3-7.2 13.9-10.9l-.5-.7Z" class="st2"/><path id="uuid-345dd492-cd6f-4614-aa07-0734364a242b" d="M283.5 297.2c4.4 28.3 8.5 56.7 11.6 85.2 3.1 21.3 9.2 42.4 20 61.1 3.7 6.1 8.2 12.4 14.3 16q.75.3 1.5.3c3.1-.2 5.9-1.7 8.7-3 21.2-11.7 39.3-28.5 55.6-46.2.7-.8.6-2-.2-2.7s-2-.6-2.6.2c-4.4 5.1-9.2 10.1-14.1 14.8-9.7 9.6-20.2 18.2-31.6 25.8-4.9 3-9.9 6.4-15.5 7.7h-.5c.3 0 .6.2.9.4-5.7-3.4-9.9-9.4-13.4-15.1-12.2-21.3-18.3-46-21-70.4-2.4-17.7-5.3-35.7-8.5-53.2-.6-3-2.5-12.8-3.1-15.9l-1.1-5.3c0-.2-.2-.4-.5-.4s-.4.2-.4.5" class="st2"/><path id="uuid-9094616d-0df6-4958-a574-ac69b52a2005" d="M345.1 421.9c4.2-8 1.6-21.3-.2-29.9-2.9-12.2-7.1-24.1-12.6-35.4-5.3-11.4-11.5-22.3-16.6-33.7-2.1-4.5-3.6-9.3-4.5-14.2h-.8c.2 1.4.3 2.6.5 3.9.8 3.8 1.8 7.4 3.2 11 5.1 13.5 13 27.8 18.4 41.2 3.8 9.1 7 18.5 9.4 28 1.9 7.6 3.7 15.5 3.5 23.4 0 1.8-.3 3.6-.9 5.3l.7.5Z" class="st2"/><path id="uuid-c9a98e01-5a38-411d-8229-51fb580454c6" d="m359.7 363.9-15.3 27.4.8.4 16.7-26.6z" class="st2"/><path id="uuid-4a60ce21-cea4-4ba1-81ec-9446ad0ba4e3" d="M361.5 349.5c-1.2 2.2-2.5 4.5-3.5 6.8-1.1 2.3-1.6 4.9-2.8 7.1l.8.4c1.4-2.2 2.2-4.6 3.5-6.8s2.7-4.2 4.1-6.3l-2.2-1.2Z" class="st2"/><path id="uuid-5feb8501-bb42-4248-8e94-380a2621717a" d="M460 260.9c-24.1 4.9-55.3 15.7-68.6 37.7-3.7 6.7-8.8 16.8-12.5 23.6l2.3 1.2c4-6.5 8.1-13.6 11.8-20.2 7.5-14 22.3-22.7 36.5-29 10.1-4.3 20.3-8 30.6-12.5v-.8Z" class="st2"/><path id="uuid-94e493e3-6d49-46b7-aca0-eeba8b912e4a" d="M394.8 382.9c-2.8 42-4.5 84.1-5.8 126.2-.4 14-.8 28.1-.5 42.1 0 .2.2.4.4.4s.4-.2.4-.4c1.6-14 3-28 4-42 1.9-24.2 3-49.2 3.8-73.5.4-17.5.7-35 .2-52.6 0-.7-.5-1.3-1.2-1.3s-1.3.5-1.3 1.2" class="st2"/><path id="uuid-8ab84857-a32f-4754-bebb-0e0157694ed4" d="M414.1 325.5c-2.7 4.7-5.3 9.5-7.7 14.4l2.3 1.1c1.7-5.2 3.5-10.3 5.6-15.4h-.2Z" class="st2"/><path id="uuid-2762ca06-bee9-418e-81b6-06e7b5346035" d="M407.7 322.1c-1.3 5.3-2.4 10.6-3.3 16l1.8.3q.6-8.1 1.8-16.2h-.2Z" class="st2"/><path id="uuid-d6ebbc49-ec77-482e-a9e4-1c88cb422df0" d="M393.6 380.9c-7.8-5.8-27.9-20.8-37.6-18.1-.6.2-.9.9-.7 1.5 0 0 0 .2.1.2l3.5 5.5c.3.4.8.1.8-.4l.9-7.6-2.7 6.2c5.7-2.1 20.5 5.5 26.1 8.3 3 1.6 6.1 3.3 9 5 .4.3 1-.3.5-.7" class="st2"/><path id="uuid-7ea1eeb0-1a21-4568-9a2a-60b7b8407800" d="M243.2 174.2c-2.1-2.1-4.3-4.1-6.7-6-.8-.5-1.6-1.2-2.2-2 0-1.3 9.5 6.7 12.8 10.8 2.3 2.9.6 1.6-3.9-2.9" class="st2"/><path id="uuid-95a590b8-7617-4811-84ef-ad13398988d1" d="M241 210.3c-.2.8-4.8 6.9-5 6.6.3-.9.7-1.8 1.3-2.5 1.4-2.2 4.1-5.2 3.7-4.1" class="st2"/><path id="uuid-87260594-e960-42cb-b926-d7452ba30209" d="M238.9 187.6c0 .2-.4.3-1 .2-.5-.2-3.3-.8-6.2-1.4s-7-1.2-9-1.4-3.7-.5-3.8-.7c-.1-.6 5-.8 8.8-.2 5.2.7 11.2 2.6 11.2 3.5" class="st2"/><path id="uuid-e0567254-6821-49cd-9943-d8ebf55d409c" d="M228.7 200.5c1-1.1 4.2-2.4 8.2-3.3 4-.8 8.4-1.1 8.4-.5-1.5.6-3 .9-4.6 1.1-4.9.8-9.4 2-11.1 3-1.2.7-1.6.5-.9-.3" class="st2"/></g></g><g id="uuid-214d7273-a042-42fb-9d33-a5191609b603" style="clip-path:url(#clippath)"><g id="uuid-4bcbcf7a-1065-4b28-8849-af2689816b0d"><path id="uuid-83047f23-453e-408c-8500-811ba98d8697" d="m236.1 419.9-.8-13.1-4.6-12.2-22.4-15.3-28.5-16.2-9.2 2-54.9 10.1-47.3 3.9 9.2 6.1-.7 7.7-1.8 4.3-9.6 4.6-1.8 1.8-1.3 2.5-1.2 9.5-.3 3.7 8.4 3.4-1.9 5.4.5 12.3.9 7h-2.1l-.8 7.4v8.3l-3.6 2.8-.8 11.5.2 3 4.4 2.9 1.9 4.2v8.8l-1.5 2.4h-2.2l-.4 5.9-.5 4.8-2.5 1.7-19.2 7.5-5.2 5.6-6.1 8.7-2.2 7.7v15.5l3.9 7.3-2.9 2.2L17.8 578l-4.4 8.1-3.1 8.4v7.4l.9 8.4 2.3 3 8.9 2-5.3 3.7-5.5 3.5L3 632.8-3.3 646l-1 6.2v15.1l1.3 6.4 20.2 6-2.2 4.2L2 697l-4.3 7-4.6 11.4-2.9 10.3 3.3 23.8 15.9 4.7 30.6 6.5 44 12.8 47.7 12 44.1 10.1 40.7 10.6 11.6 1 11-7.7 23.5-21.9 26.5-27 15.2-19.8 2.5-9.3 1-8.1-4.5 1.1-2.3-5.4-4.8-15.3 9.2-12.5 2.4-9-.6-15-3.6-4.7-12.3-7.9-18-5.1-15.9-6.7-10-3.8 7-5.9 8.7-11.7 2.9-10.9-2.8-11.1-5.5-7.1-9-1.3 4.2-4.5 7.4-5.3 5-11.2.6-6.2-2.6-12.8 4.5-.9 2.5-.2 1.1-4.1-1.1-11.5-3.5-1.5.2-10.8-2.3-3.6 3.3-7.2.6-8.4-2.5-7.3h-6.2l-1.9-4.1.2-6.8-.2-1.7-.4-1.3h-2.2l-3.9.4-.3-2.7v-5.7l2.5-1.9 1.2-2.4 1-6.5-2.2-.8-3.9-.2.7-7.4-.6-4.1 5-2.9 3.1-2.9 1-2.1-3.9-3.1-2-.7-6.6-3.5-4.6-2.6-2.9-.7-2.8-1.8Z" class="st5"/><path id="uuid-f95ad4e6-7560-4171-8c4c-34085440bbf7" d="m297.7 693.4-38.4 22.7-31.3 17.3-57.6-15.7L21 679.9l-11.7 6.5s190.5 43.8 205.7 50.7 30.1-4.7 30.1-4.7l52.5-31.7v-7.2Z" class="st6"/><path id="uuid-561d6c04-f9ef-455b-828f-c6f386ee3c07" d="M305 654.2s-11.4 14.2-21.2 21.1c-9.9 6.9-48.4 25.6-54.9 39.8l-1.3 8.1s-3.1 4.2-6.6 3.9-42.1-10.5-42.1-10.5L34 678.7S2.1 672.8-.5 667.3c-1.7-4.2-3-8.6-3.8-13.1V670l4.4 5.3 25.6 5.7 128.9 33.6 65.5 16.6 10.5 3 18.5-11 23.2-13.7 20.4-14.3 10.1-8.8 6.3-11.8-1.2-9.6-2.8-10.9Z" class="st6"/><path id="uuid-9abe088d-cf4b-4898-8d98-53198e9cc7b9" d="M279.1 643s-57.4 21.7-67.9 32.3-49.3 0-49.3 0-137.8-56.4-143.8-55.6h20.3l92 30.1 38 14.2 20.6-9.9 36.9-14.5 23.1-11.1 29.9 14.5Z" class="st6"/><path id="uuid-eac94802-7287-4e12-84f7-7d3f24e086f7" d="m249.1 580.7-59.8 22.7-22 3.7s4.8 32.9-2.3 35.6-41.2-3.6-55.7-7.2-99.9-29-99.9-29l2.2 5.2 35.1 12.6 95.5 30.1 25.2 7.1h10.2l44.4-22.3 27.2-10.4 9.6-9.8 5.7-9.7 1.4-10.8-2.1-7.8-3.8-5.2-10.9-4.6Z" class="st6"/><path id="uuid-86b6f08a-1ac4-4560-a53c-d55954bbf0f5" d="m29.1 567 26.4 10.4s102 30.3 109.5 39.1l3.2 4.4 2 1.2-1.8-13.5-35.8-10.6-43.5-13.4-46.6-17.2-10.2-3.2-3.2 2.7Z" class="st6"/><path id="uuid-87bf40d3-56cd-4f05-abb1-0556c8cadec8" d="m189.1 429.5-35.2 4v9.2l5 5v8.3l5.3 8.3.4 13.5-2.9 1.9v16.2l4.1 1.1-.8 9.8.8 7.8 8 4.3-.4 13.1-4.5 1.3-2.4 10.4-1.4 11.5 14-2.7-3.1 11.3-7.5 18.2-1.1 25.1 31.2-7.2 47.2-19.2 11-6.2 6.7-5.9 2.5-11.3v-7.7l-3.3-7.8 3.3-1.1 4.7-1.4.7-9.9-1.1-5-.6-.9-2.1-.5v-2.8l-.6-9.2-2.4-2.2 1.5-5.9 3.2-4.1-.6-6.1-1.6-6.1-1.8-.8-5.6-.3-1.6-6.6-.4-7-.5-.8-5.5.4-1.3-.5v-3.2c.1 0 .6-3.7.6-3.7l1.8-1.9 1.3-1 1.7-6.5-.4-2.1-1.4-.8-4-.3v-12.1c-.1 0 6.3-3.3 6.3-3.3l1.9-3.1-1.6-3.3-4.4-1.9-7.1-3.7-4.5-2.6-4.1.2-47.3 7.6Z" class="st6"/><path id="uuid-de7fdef3-d447-4870-a618-097f92761174" d="M-10.8 732.3c0 6.6.1 8.2 1 11.7 1 4.1 3 6.6 6.1 7.6 5.2 1.7 42.9 12.5 54.1 15.5 4.8 1.3 12.5 3.4 17.1 4.7 8.4 2.3 64.6 16.5 87.1 22 6.4 1.6 19.3 4.7 28.6 7 27.1 6.7 38 9.3 40 9.5 4.2.6 11-3.6 21.9-13.6 17.1-15.8 24.1-22.6 36-35.5 2.8-3 6.4-7 8.1-8.7 8.9-9.4 15.5-18 16.9-22.2.5-1.6 1.4-9.1 1.5-13.2.3-.7.7-1.3 1.3-1.8.6-.6 1.1-1.4 1.3-2.2 0-1-.2-1-5.1-.1l-1.5.2-.5-2.4c-1.5-6.7-5.6-15.6-6.6-14.6q.3 2.25 1.2 4.5c.8 2.3 2.1 6.4 2.8 9l1.4 4.7-1.1.8c-2 1.1-4.1 2.1-6.3 2.9-5.5 2.2-34.4 15.3-41.5 18.9-5.5 2.8-8.3 4.7-11.3 8-2.9 2.9-5.2 6.4-6.9 10.2-2.7 5.7-4.4 12-7.7 28-2 10-2.2 10.8-2 15.7 0 2 .2 3.9.5 5.9.3.8.2.8-2 .5-3.3-.4-9.5-1.9-42.8-10-32.9-8-99.1-24.9-113.1-28.7-29.7-8.1-35.6-9.7-45.3-12.5-19.2-5.5-26.9-7.8-28.1-8.2-1.9-.7-2.2-2.8-2.2-12.8 0-8.6 0-8.8 1.5-14.4 2.2-8 2.2-8.1 3.6-7.6 1.5.5 22.5 6.3 30.2 8.2 8.7 2.2 49.1 11.3 78.2 17.6 5.3 1.2 12.7 2.8 16.3 3.6 11.4 2.6 15 3.4 37.5 8.4 23.5 5.2 31.8 7 38.5 8.3 2.3.5 6.4 1.4 9.1 2.1 8.6 2.2 22.5 4.5 21.6 3.6-1.3-.3-2.6-.6-4-.8-9.8-1.7-11.9-2.1-18.9-3.8-8.6-2.1-36.6-9.2-46.1-11.7-12.4-3.2-59.6-14.1-68.5-15.8-.7-.1-6.5-1.4-12.9-2.8s-17.1-3.7-23.7-5.1C28.1 717.2 0 711-1.7 710.5l-1.8-.5.8-2.2c2.3-7 13.4-19.9 20.6-24.1l1.7-1 6.3 1.9c3.5 1.1 6.6 1.9 6.9 1.9 1.2 0 1 .8-.3 1.5-3.5 1.8-6.9 5.8-8.8 10.1-1.6 3.9-.9 3.6 1.9-.7 3.3-5.1 8.7-9.7 11.5-9.7 2 .3 4.1.7 6.1 1.3 2.7.7 8.7 2.2 13.4 3.4 4.7 1.1 9 2.3 9.7 2.5l1.1.4-2.5 2c-4.6 3.8-8.1 8.2-7.7 9.5 0 .2 1.1-.8 2.2-2.3 2-2.8 6.9-7.5 8.8-8.6 1-.5 2.1-.3 11.9 2.2 5.9 1.5 14.6 3.8 19.2 5 4.7 1.3 15.8 4.1 24.8 6.3s20.7 5.2 26 6.6c9.3 2.5 16.9 4.5 37.1 9.6 5 1.3 11.6 3 14.6 3.8s9.2 2.4 13.8 3.6c6 1.6 9.4 2.2 12.3 2.4l4 .2 1.7-1.4c1.3-1 2.6-1.8 4-2.5 2.5-1.3 10.9-6 21.1-11.9 8-4.7 20.3-12.5 26.6-16.9 2.8-2 6.1-4.3 7.4-5 3.1-1.9 11.2-10.5 13-13.8 2.4-4.6 3.7-9.7 3.6-15 0-8.2-2.2-16.3-5.2-18.8-4.5-3.8-24.4-12.6-42.5-18.8-3.9-1.4-7.9-2.8-8.8-3.2l-1.6-.7 1.7-1.2c3.2-2.5 6.1-5.5 8.5-8.8 3.9-5.7 5.1-9.9 5.1-17.1s-1.8-13.4-5.9-17.5c-2.8-2.9-5.2-4.2-7.3-3.9-2 .2-1.7-.1.9-1.1 3.2-1.4 6-3.8 8-6.7 1.2-2.4 2.2-5 3-7.5 1.7-5.1 1.8-5.5 1.5-9.2-.2-2.6-.7-5.2-1.3-7.8-.5-1.4-.7-2.8-.9-4.3.8-.4 1.7-.6 2.6-.6 1.1-.1 2.2-.5 3.1-1 1.2-1 1.8-4.9 1.6-11.1-.1-5.8-.5-6.7-2.5-6.7h-1.1l-.2-6.7c-.2-7.2-.5-8.3-2.3-9-1.2-.4-1.4-.4-30.6 3.8-28.6 4.2-43.1 5.7-58.2 6.1-7.8.2-8 .2-9.2 1.3-.9 1.1-1.5 2.4-1.8 3.8-1.3 5-.7 6 .9 1.6 1.1-3.1 2.5-4.4 4.7-4.2 1.4.1 1.5.2 1.4 1.2 0 .6-.2 3.3-.4 6.1l-.3 5.1h-4.5c-6.1 0-9.7-1.1-31.6-8.4-39-13.1-56.6-19-62.3-20.7-3.3-1-6-1.9-6.1-1.9 0 0 0-.5.4-.8.4-.5.5-2.2.3-7.6-.2-2.3-.2-4.7 0-7 0 0 2 .7 4.3 1.5s8.8 2.9 14.5 4.6c15.4 4.5 26.8 8.1 43.8 13.5 29.5 9.4 35.9 11 37.3 9.6.6-.6 5.1-1.6 10.8-2.3 2.9-.4 7.3-1 9.7-1.3 2.5-.4 5.7-.8 7.2-1.1 1.5-.2 7.3-1.1 12.9-2.1 5.6-.9 13.2-2.2 16.9-2.8s9.8-1.7 13.6-2.4 8.8-1.5 11.2-1.9c5.2-.7 9.2-1.8 9.8-2.5.8-.9 0-1-5.3-.2-2.8.4-6.9 1-9.1 1.2-8.1 1-32.2 4.8-40.6 6.4-4.7.9-11.9 2.1-15.9 2.7-12.6 1.9-17 2.7-20.5 3.8-2.1.7-3.5.9-3.7.7-.6-.6-.5-6.5.1-9.5.4-1.7.4-2.6 0-2.9-.2-.2-.5-.4-.6-.2-.5.5-1.1 7.8-.9 10.3.2 1.8.1 2.8-.2 2.8-.7 0-13-3.7-18.5-5.6-2.8-.9-13.1-4.5-22.9-7.8-9.8-3.4-27.1-9.3-38.6-13.1-18.3-6.1-20.8-7-21.1-7.9-.1-.5-.2-3.5-.3-6.7 0-5.2 0-5.6.7-5.3 6.8 3 62.7 20.5 86.4 27.1 13 3.6 16.4 4.1 24.8 3.1 16.7-1.9 49.7-8 72.1-13.5 7.3-1.8 8.9-2.5 7.9-3.4-.3-.3-1.2-.3-3.6 0-9.2 1.4-17.7 2.8-26.6 4.5-16.6 3.3-16.4 3.2-37.5 7-18.1 3.3-26 3.8-30.5 2.2-1.4-.5-5.4-1.8-8.9-2.9s-14.3-4.6-23.9-7.8c-9.7-3.2-26.2-8.7-36.7-12.2l-19.2-6.3-.2-1.3c-.2-1.6-1.1-13.8-1-14 .1 0 23.6 6.9 35.1 10.4 35.1 10.8 56.9 16.8 62.9 17.5 1.7.2 5.4 0 11.6-.8 5-.6 11.5-1.4 14.4-1.7 18.6-2.2 45.5-7.4 53.9-10.5 3.9-1.4 4.2-1.4 4.6-.3q.45 1.8.6 3.6c.2 2.3.2 2.7-.5 3-.7.4-15.3 3.5-26.4 5.6-2.5.5-8.6 1.8-13.8 2.9-5.1 1.1-14.3 2.9-20.3 4-14.9 2.6-17.6 3.2-18.6 3.7-1.1.6-.7.8.8.4.7-.2 3.2-.7 5.5-1 7.6-1.2 23.2-3.6 29.4-4.5 17.5-2.5 40.6-7.2 44.5-9 1.4-.5 2.8-.9 4.3-1.1l2.5-.2v3.1c0 1.4-.1 2.8-.4 4.2 0 1.3.1 2.6.6 3.8 1.6 4.9 1.6 5 .2 4.8-1.8 0-3.5.2-5.2.5-2.1.3-5.4.8-7.3 1.1-3.5.5-8.4 1.3-23.3 4-4.7.8-10.8 1.9-13.6 2.4s-8.8 1.6-13.4 2.5c-10.8 2.1-17.9 3.4-19 3.4s-1.1.8.8 1.3c1.7.5 6.9 0 15.2-1.6 1.7-.3 9.3-1.5 16.7-2.7 19.9-3.1 23.3-3.7 32.6-5.5 8.4-1.7 19.3-4.5 19.7-5 .7-.4 1.5-.6 2.3-.8 2.7-.6 2.9-.4 4 3.9 1.4 5.4 1 8.4-1.4 11l-1.3 1.5h1.1c1.7 0 3-1.7 4.1-4.9 1.3-4.3 1.6-6.5.7-6.5s-1.4-1-2.2-4.7c-.9-4.1-1.5-4.7-5.2-4.7-1.2 0-2.4 0-3.5-.4-.5-.3-.7-1.6-.9-5.8-.2-5.2-.2-5.4-1.2-5.9-1.1-.3-2.3-.5-3.5-.3l-2.5.2v-2.1c0-2.7 1-5.3 2.6-6.5 1.4-1.1 2.2-4.3 2-7.8v-2c-.1 0-2.3-.4-2.3-.4-1.3-.2-2.3-.7-2.5-1.1-.3-1.9-.5-3.8-.5-5.6l-.2-5 1.5-.6c2.2-1.1 4.1-2.6 5.6-4.6.5-.8.5-.8 1.7.8.3.5.6.9.9 1.4-.6-3.2-1.3-6.4-2.3-9.6-.9-.3-1.8-.6-2.9-1-6.5-2.3-10.1-3.9-12.8-5.7-1.9.4-3.8.2-5.6-.5q-1.5-.6-2.7-1.8c-1.4.2-3.8.7-6.3 1.1-12.8 2.5-35.5 6.7-46.4 8.7-11 2-20 3.7-22.5 4.4l-1.3.4v3.3c.3 3-.1 4.5-1.1 4.5-.4-1.2-.6-2.4-.6-3.7 0-2.5-.7-4.9-1.9-7.1-3-6.3-8.9-12.7-15.9-17.4-4.5-2.9-16.2-8.9-25.6-13.1-3.6-1.6-12.3-5.6-19.3-8.9-11.3-5.3-14.5-6.8-20.7-9.3-.9-.4-1.5-.8-1.4-.8.5-.5 9.7-1.6 20-2.3 21.1-1.5 34.6-3.2 47-5.8 3.9-.8 10.2-2.2 14-2.9s10.8-2 15.7-2.8c13.6-2 12.7-2 14.5-.8.9.6 4.3 2.5 7.5 4.2 9.3 4.8 18.4 10.1 27.1 15.9 4.7 3 9.3 6.1 10.4 6.7s2.4 1.5 3 1.9l1.1.7-.9-1c-1.2-1.4-13.1-10.2-19.3-14.3-5.2-3.3-10.3-6.3-22.9-13.1-2.5-1.2-4.8-2.7-7.1-4.3-.9-1-1.1-1-3-.5-1.1.2-7.8 1.4-15 2.6-7.1 1.2-17.4 3-22.9 4-16.9 3.2-28.6 4.7-53.6 6.8-9.8.8-23.1 2.6-23.8 3.2-.3.2-.4.8-.2 1.6.2 1 .9 1.4 4.1 2.5 2.1.8 5 1.9 6.6 2.5l2.9 1.1-.3 3.2c-.2 1.7-.4 3.4-.8 5.1l-.5 1.9h-5.4c-4.8-.2-5.4-.1-5.8.6-.4.8-1.4 7.8-1.1 8.1 0 0 2.5.7 5.5 1.4s5.6 1.4 5.7 1.5c.2.1 5.1 1.6 10.9 3.2 18.7 5.3 30.7 8.8 38.5 11.4 7.1 2.3 23.9 7.5 28.8 8.9 2.1.6 3.1 1.7 1.6 1.7s-12.5-3.1-19.1-5.2c-11.5-3.7-14.1-4.5-32.9-10-31.9-9.3-36.3-10.7-38.6-12.2-.8-.5-1-.5-1.4 0-.8 1-1.4 5.1-1.2 9.2v3.9c.1 0 3.5.8 3.5.8 1.9.4 4.7 1.1 6.4 1.4 3.6.8 16.9 4.6 32 9.1 6.2 1.8 15.2 4.5 20.1 5.9 14.8 4.4 32.1 9.6 33.3 10.1.9.4.5.5-2.1.3-2.2-.2-5.7-1-11.6-2.8-4.7-1.4-11-3.2-14-4.1-3-.8-7.3-2.1-9.5-2.8-2.2-.6-11.9-3.5-21.4-6.3-16.4-4.8-21.8-6.5-25.9-8.2-2.5-1-3.1-.5-4.1 3.5l-.9 3.3h-3.3c-3.2-.2-3.3-.1-3.2.8 0 .8.6 1 2.7 1.5 1.4.3 2.8.6 3.1.7.2 0 .6 1.4.7 3s.4 4.3.6 6.1c.2 1.7.3 3.2.2 3.3-.9-.2-1.7-.5-2.5-.8-.9-.3-1.9-.6-2.8-.8-.2 0-.3.9-.2 2 .1 1.7.3 2.1 1.5 2.9l1.4.8v14.6h-2.2l-2.2-.2v9.6c0 5.3.2 9.7.3 9.9 1 .5 1.9.9 3 1.2 2.3.8 2.7 1.1 2.5 2 0 1.8.2 3.6.6 5.3.9 6.2 1 5.8-1.6 6.3l-2.2.4-.2 5.7c-.2 5.3-.2 5.7-1.1 5.8-4.4 1-8.8 2.3-13.1 3.9-8.7 3.7-15.6 10.7-19.2 19.5-3.1 8-3.6 20-1.2 27.6.2.9.7 1.7 1.4 2.4.6.4.6.5-.2 1.1q-5.4 4.05-9.9 9c-2.9 3.7-5.4 7.8-7.3 12.2-2.5 5.9-2.9 8-2.9 15.7 0 7.1.5 10.5 1.7 11.8 1.6 1.4 3.5 2.3 5.6 2.6 3.1.5 3.3.8 1.2 1.9-3.4 1.9-6.5 4.2-9.4 6.8-4.4 4.1-8.8 10.8-11.4 17.4-2.2 5-3.3 10.4-3 15.9 0 8.7 1.6 15.4 3.9 17.9 1.2 1.3 1.6 1.4 11.7 4.1 2.1.5 4.2 1.2 6.3 1.9.2.2-.3.5-1.1.8-2.1.8-12.5 11.5-15.3 15.7-6.9 10.3-9.8 20.8-9.8 34.5m112.7-325.7c-13-4-25.5-8.6-25.5-9.4s1.4-.6 4.1.5c4.3 1.9 17 6.8 22.9 8.8 5.5 1.9 4.7 1.9-1.5 0m88.7 44c-4.7.7-12.3 1.8-16.9 2.5-4.7.7-9.2 1.3-10 1.4h-1.8c-.3-1-.5-2-.5-3 0-1.1-.1-2.2-.4-3.2-.2-.3 3-.9 9.5-1.8 20.2-2.8 67.1-11.1 74.8-13.2 1.3-.4 2.5-.7 3.9-.8.8 0 1.3-1.1 1.3-2.8s-5.7-2.1-20.1.9c-21.2 4.4-36.3 7.2-49.6 9.3-5.1.8-11.2 1.9-13.6 2.3-5.9 1.2-10 1.6-10 1 0-1.2 5.6-2.8 18.1-5 34.1-6 45.8-8.2 54.6-10.4 3.1-.7 6.2-1.6 9.2-2.7.7-.4 1-1.2 1-2v-1.3l1.7 1.7c1.8 1.8 3.6 2.8 7.7 4.4 3.5 1.3 5 2.1 5 2.5s1.3 1.6 2.7 2.5l1.1.8-1.1 1.4q-1.05 1.35-2.7 2.1c-8.6 3.6-34.2 8.9-64.3 13.4M165 474.6v-3.8c.1 0 .3-3.8.3-3.8l4.5.2c4.8.2 9.3-.1 21.1-1.8 7.7-1.1 25.5-4.1 29.7-5 1.4-.3 4.5-1 6.8-1.5s8.7-2.1 14.2-3.5 10.7-2.7 11.6-2.8l1.6-.2-.2 3.6c0 1.6-.3 3.2-.8 4.7-.5 1-.7 1.1-2 1-1.7 0-3.5.2-5.1.6-19.8 4.5-39.8 7.9-60 10.3-3 .3-7.5.9-10 1.2s-6.1.6-8 .6h-3.6Zm-96.3-39.7c0-2.2.2-2.2 5.1-.7 1.9.6 8.4 2.5 14.4 4.2 5.9 1.7 16.1 4.7 22.4 6.6 6.4 2 14.1 4.3 17.2 5.2 3 .9 11 3 17.7 4.8 13.6 3.5 14 3.6 23.8 2.5 19.8-2.2 52.2-7.5 65.7-10.8 7.5-1.9 9.1-2.5 9.5-3.6.9-1.4 2.3-2.4 3.9-2.7.7 0 .8.5.8 5.4v5.4l-5.6 1.2c-9.6 2-33.2 6.5-41.2 7.9-20.1 3.4-28.3 4.4-34.1 4.2h-4v4.9c0 3.5-.1 5-.5 5-2.2 0-19.4-4.5-30.4-8-4.5-1.4-12.3-3.9-17.6-5.5s-14.3-4.5-20.1-6.4c-5.9-1.9-13.8-4.3-17.7-5.4q-3.9-.9-7.5-2.4c-.4-.5-1.7-9-1.7-11.5m-3 66.1c-.5 0-1.1-.2-1.2-.4-.3-.5.6-.5 1.5 0 .5.3.5.4-.3.4m176.8 40.5c-5.1.6-14.5 1.7-20.8 2.4s-12 1.4-12.7 1.4c-.7.1-5.1.6-9.7 1.1-10.9 1.1-24.2 2.8-27.8 3.6-1.4.3-2.8.8-4.1 1.4-1.7 1-1.9.5-1.4-3.3.4-2.9 1.2-5 2.2-5.9 1.3-1.1 11.7-2.4 34.7-4.6 32.2-3 56.3-6.1 60-7.6 1.5-.6 1.9-1.9.6-1.9s-21.8 2.4-36.1 4.2c-7.3.9-19.1 2.2-26 3-19.3 2-31.9 3.7-33.6 4.5-.9.4-1.6 1.1-2.1 1.9-.8 1.6-1.4 5.5-1.4 8.9s-.2 2.8-.5 2.8c-1.3 0-9.8-2.6-27.9-8.5-20-6.6-66.5-21.9-69.8-23.1l-1.8-.7v-8.3c.3-9.9-.3-9.3 6.9-7.2 2.6.8 6.9 2.1 9.4 2.8 12 3.5 38.1 11.5 51.5 15.8 7.6 2.5 17.2 5.2 26.5 7.7 6.3 1.9 12.9 2.3 19.3 1.3 2.9-.3 7.9-1 11.2-1.3 7.3-.8 46.1-6.3 52.7-7.5 7.8-1.4 14.5-3 16.2-3.8.9-.5 1.6-.9 1.4-1-1 0-1.9.2-2.9.4-5.6 1.2-11.3 2.1-17 2.6-7.4.8-26.6 3-33 3.8-2.6.3-9.7 1.1-15.8 1.7-10 1-13.9 1.6-16 2.5-.7.3-.7-.1-.7-5.1v-5.5h10.1c22.1-.1 54.1-3.6 75.7-8.3 4.7-1 5.9-1.2 6.2-.8.2 2.1.2 4.3 0 6.4l-.2 5.8h1.6c1.2 0 1.6.2 1.9 1 .5 1.2 1 12.6.7 13.5-.2.5-.8.7-2.1.7s-4.5.3-25.5 2.8m.9 39.3c-4.2 2.1-14.7 6.3-27.3 11-10.6 4.2-21.6 7.5-32.8 9.7-4.7 1.1-9.3 2.2-10.4 2.5-4.7 1.5-7.8.8-34-7.2-20.3-6.2-79.9-26.3-101.6-34.3-1.5-.6-3.1-1.1-4.7-1.5-1.2 0-2.4-1.7-3-4.1-.6-4.3-.7-8.7-.2-13 .3-2 .5-2.5 1.1-2.3.4 0 3.6 1.1 7.1 2.1 6.7 2.1 19.8 6 28.4 8.5 2.8.8 11.4 3.4 19.1 5.7s20 5.9 27.3 8.1 15.2 4.5 17.4 5.1c2.3.7 6.1 1.8 8.5 2.5s6.4 2 8.8 2.7c5.3 1.7 17.3 4.7 17.6 4.4.2-.2.3-.2-5.5-1.8-2.3-.6-7.4-2.1-11.2-3.3-3.9-1.1-8.6-2.6-10.6-3.2-2-.5-8.5-2.6-14.4-4.5s-15.7-4.9-21.6-6.7c-5.9-1.9-15.8-5.1-22-7.2-20.7-6.9-31.9-10.4-41.9-12.9l-7-1.7v-1.4c.2-2 3.7-8.9 6.1-11.6 4.4-5.1 10.8-9.1 19.7-12.3 1.8-.6 3.6-1.3 5.2-2.1.9-.8 1-.2.6 2.7-.6 3.4-.6 7.2 0 8.6.4.8 1.1 1.5 2 1.9 1.9 1 16.5 6.2 24.1 8.6 3 .9 13.5 4.4 23.3 7.6 36.1 11.9 49.1 15.8 53 15.8 2.3-.2 4.6-.5 6.8-1.1 5.2-1.3 7.4-1.7 7.4-1.1-.5 1.4-1.1 2.8-1.9 4.1-4.1 8.2-6.9 15.7-8 21.9-1.2 6.3-1.4 18-.3 18 .3-1.8.5-3.6.4-5.4 0-2.7.2-5.5.5-8.2 1.2-6.6 3.1-13.1 5.7-19.3 1.2-2.8 2.8-6.4 3.4-8.1 1.5-4 1.2-3.9 15.9-5.7 23.9-2.8 45.2-5.7 59.5-8.1 3-.5 6.2-.9 7-1 1.4 0 1.5 0 2.2 2.1.5 2.2 1 4.3 1.2 6.6.8 6.8.8 6.4-.6 6.9-3 .9-15.8 3.5-28 5.6-37.4 6.7-57.4 11.2-59.4 13.4-.7.8-.7.8.5.4 4.5-1.6 42.6-9.3 55.2-11.2 5.2-.8 11.4-1.8 13.8-2.3 7-1.4 15.9-3.4 16.4-3.7 1.2-.8-1.2 7.8-2.7 9.7-.5.6-1.1 1-1.9 1.1-.5 0-1.1.2-1.1.4-.2.7-9.1 6.3-12.9 8.3m3.4 45.7c-12.8 4.9-30.7 13-53 24-7.1 3.5-14.7 7.1-16.7 8-1.7.8-3.5 1.3-5.3 1.6-2.3 0-6.4-.9-15-3.7-4.5-1.4-11.9-3.7-16.5-5.2-8.4-2.6-32.3-10.3-58.2-18.8-14.9-4.9-35.5-11.4-47.4-14.9-4.3-1.3-11.2-3.4-15.2-4.7l-7.4-2.4-.3-1.9c-.4-2.2-.2-12.5.2-13 .3-.3 5.9 1.1 16.6 4 3.3.9 10.1 2.8 15.2 4.3 5.1 1.4 13.6 3.9 18.9 5.5 11.2 3.4 28.8 8.6 48.9 14.4 17 4.9 20.6 6 26.3 7.9 7.1 2.4 30.2 9.1 31.3 9.1s-.5-.8-2.1-1.1c-2.6-.7-19.3-5.8-29.4-9-5-1.6-12.1-3.8-15.7-4.9s-8.9-2.7-11.6-3.6c-10.2-3.3-25.6-8-30.3-9.3-2.7-.8-9.5-2.8-15.2-4.5-5.6-1.7-14.2-4.2-19.1-5.5-4.8-1.3-11.1-3-13.9-3.8s-7.9-2.1-11.3-2.9c-7.9-1.8-8.1-2-7.8-3.9.4-2.3 4.1-9.9 6.3-12.9 3.4-4.3 7.3-8 11.7-11.2l2.6-1.8 2.4 1.2c1.3.7 4.8 2.1 7.7 3.1 12.5 4.6 84.9 28.6 97.2 32.3 4.4 1.3 11.6 3.5 15.9 4.8 9.9 3 12.2 3.1 20.8.8 3.1-.8 8.6-2.2 12.2-3.1 9.3-2.2 18.2-5.2 35.9-12.3 15.1-6 18.7-7.6 20.9-9.1.9-.6 1.5-.7 3.9-.4 3.6.2 7 1.9 9.4 4.6 2.6 2.9 3.5 5.1 4.2 10.4.7 6 .9 5.8-5.7 7.8-5.6 1.8-9.9 3.3-25.3 9.2-8.2 3.1-20.3 7.2-33.9 11.5-7.5 2.4-17.3 6.3-19.7 7.9-3 2-2.9 1.3.6-5.7 3-5.9 2.8-5.6 2-5.3-2.5.9-8.1 13.4-9.4 20.7-.6 3.5-.9 7.8-.5 7.4.5-1.6 1-3.2 1.3-4.9.5-2.4 1.2-4.8 2-7.2.9-2.2 1.1-2.5 2.9-2.9 2.2-.7 4.3-1.6 6.4-2.5 4-1.8 12.7-4.8 32.4-11.4 15.1-5.1 41.8-15.1 44.6-16.8.5-.3 1-.6 1.6-.8.5 0 0 1.9-.9 4.5-1.6 4-4.1 7.7-7.2 10.7-3.2 3.4-4.8 4.6-8.3 5.9m-18.9 95.8c.2-5.4.2-5.7 1.2-6.4l1-.8-1.9-.5c-1.1-.3-4.1-1.2-6.8-2-7-2.1-23.8-6.9-34.8-9.9-5.2-1.4-14.5-4-20.5-5.7-6.1-1.7-15-4.2-19.9-5.5s-11.4-3.1-14.4-4.1c-3-.9-16.6-4.6-30.1-8.2s-28.8-7.7-33.9-9.1c-15.2-4.1-42.9-11.3-53.8-13.8-18.4-4.4-17.4-4-17.2-5.5.4-3.7 4.1-12.3 7.5-16.9 5.3-7.5 11.2-12.2 17.5-13.8 1.6-.4 2.5-.3 8.9 1.5 3.9 1.1 7.5 2.1 7.9 2.4.7.4.5.7-1.8 2.8-2.9 2.6-6.8 7.8-6.8 9.1s.6.9 1.9-1.3c2.8-4.5 7.9-9 10.1-9s8.7 2 9.3 2.5c.2.2-.2.6-.9 1-3.1 1.6-9 8-9 9.7s1.1-.2 4.1-3.5c1.9-2 3.9-3.9 6-5.6l1.9-1.3 5.5 1.9c5.3 1.8 5.5 1.9 4.5 2.5-4.6 3-9.6 8.3-8.7 9.2.2.2 1.9-1.4 4-3.3 5.6-5.5 6.5-6.3 6.9-6.3s10.2 3 21.9 6.9c3.6 1.2 9.5 3 13.1 4.2 3.6 1.1 11.6 3.7 17.7 5.7s15 4.8 19.7 6.2 11.4 3.5 14.9 4.6c8.5 2.8 13.9 4.2 16.7 4.7 3 .4 5.1-.2 12-3.7l5.5-2.8 3.2.3c5.8.5 18.5 3.7 26 6.6 3.4 1.3 5.8 1.6 2.9.3-.8-.4-3.1-1.4-5.1-2.4-3.9-1.9-12.2-4.5-18.9-6l-4.1-.9 1.3-.8c3.1-1.8 6.3-3.3 9.5-4.7 2.2-.8 2.4-.8 5-.2 3.4.9 12.3 3.5 14.5 4.2.9.3 4.9 1.6 8.9 2.8 3.9 1.2 7.5 2.2 7.7 2.3.3.1.5 0 .5-.2 0-.8-8.3-3.8-22-8.1-10.2-3.2-9.6-2.8-6.8-4 1.3-.5 2.5-1.2 3.8-1.9 2.6-1.7 5.9-3 7.3-3 2.7 0 24.6 7 27.8 8.8 2.2 1.3 1.9.5-.4-.9-1.9-1.2-6.7-3.3-16.3-7-3.7-1.4-7-2.8-7.1-2.9-.4-.4 6.6-3.3 19.3-8.1l2-.7 5 1.6c17.3 5.5 38.9 14.2 47.6 19.2 5.3 3 5.8 3.7 7.2 10.2 1 4.2 1 8.6 0 12.8-1.2 4.7-2.7 7.2-7.2 11.7-3.2 3.2-6 5.4-13.3 10.4-15.1 10.3-20.7 13.8-29.7 18.8-4.7 2.6-11 6.2-14 8s-7 4.1-8.7 5q-1.8 1.2-3.9 1.8c-1.3 0-1.8-2.6-1.6-8.8M-1.4 671.6c-.5-.9-.8-1.9-1-2.9-.7-2.9-1.3-14.5-.7-14.5s3.1.7 6.3 1.5c3.3.8 17.1 4.3 30.9 7.8 13.7 3.4 30.4 7.7 37.1 9.4 6.6 1.8 19.5 5.1 28.6 7.5s20.8 5.5 26 7c9.2 2.6 20.5 5.7 33.5 9.1 5.3 1.4 20.6 5.5 35.1 9.5 2 .5 8.6 2.4 14.6 4.2 6.1 1.7 12.8 3.6 15 4.2l4 1-.2 1.3c-.1.7-.4 2.1-.6 3.2-.6 2.9-.5 5.8.2 8.7.3.7.5 1.4.6 2.2 0 .6-4.6-.5-17.1-3.8-14.6-3.9-28.9-7.7-39.4-10.4-5.6-1.4-14.4-3.7-19.5-5.1s-17.3-4.5-27.1-7-21.7-5.5-26.5-6.9c-13.6-3.7-23.9-6.3-56.1-14.5-35.9-9.1-43.1-11-43.6-11.4m229.6 110.8c3.8-17.5 6.6-24.9 12.4-32 5.2-6.4 13.9-11.6 40.7-24.3 19.3-9.2 25.6-11.6 24.7-9.5-.5 2.1-1 4.2-1.3 6.3-.4 2.5-1 5.1-1.9 7.5-2.9 6-27 31.8-48.1 51.6-18.3 17.1-19.8 18.4-24.4 20.9-3.8 2-4 2-4.3-1.3-.4-4.2.3-10.6 2.2-19.3" class="st2"/><path id="uuid-482b69e9-562d-4634-9b84-78f0af1d50c1" d="M180.7 593.2c6.9-.5 22.5-4.9 39-11 3.3-1.2 8.3-3 11.2-4s6.8-2.4 8.7-3.1c3.5-1.3 12-3.6 12.3-3.3-2.1 1.1-4.3 2-6.5 2.8-3.7 1.4-8.6 3.4-10.9 4.3s-7.1 2.7-10.6 3.9-7.1 2.5-8 2.9c-2.6 1.1-22.5 7-26.5 7.9-4.1.9-9.6 1.1-11.3.3-1.1-.5-.8-.5 2.6-.8" class="st2"/><path id="uuid-7dce05de-c844-4ea8-9d63-b1119a9061a0" d="M209.3 579.2c-5.4 1.6-11 2.9-16.5 3.9-3.6.8-6.6 1.4-6.7 1.5-1.2.1-2.4.2-3.6.1h-3.4l2.8-.5c11.1-1.8 22.1-4.3 32.8-7.6 6.5-2.1 13-3.9 13.2-3.6.2.2-13.2 4.7-18.5 6.2" class="st2"/><path id="uuid-2422243d-9e5f-4769-ad41-7d9da0e26acc" d="M181.4 645.4c.7-.8 6.9-3.8 11-5.2.8-.3 3.9-1.5 6.8-2.7s7.1-2.8 9.3-3.6 5.2-1.9 6.7-2.5c1.5-.5 6.1-2.2 10.4-3.7 7.6-2.7 12.9-4.6 18.7-6.8 10.1-3.8 12.3-4.1 4.9-.5-4.7 2.2-9.5 4.2-14.4 5.7-8 2.8-27.7 10.1-33.7 12.4-3.5 1.4-8.2 3.2-10.4 4s-5.2 2-6.8 2.5c-1.5.6-2.8 1.1-2.9 1.1 0 0 .1-.3.4-.7" class="st2"/><path id="uuid-a0d13d02-c1f3-4d3a-aadf-afbbda705f2c" d="M246.1 696.9c3.2-2.1 29.2-15.5 45.2-23.3 8.9-4.3 11.6-5.3 10.4-3.9-1 1.2-14.4 8.4-36.5 19.6-7.6 3.8-15.2 7.9-17.1 8.9-3.9 2.3-9.2 7.3-12.9 12.3-2.4 3.1-3.4 4.1-3.4 3.1.9-1.7 1.9-3.4 3-5 2.9-4.7 6.7-8.7 11.3-11.8" class="st2"/><path id="uuid-503fbfa5-c3e9-4a1b-9f7a-9bd48b11456e" d="M250.2 706.6c6.7-4.1 7.8-4.7 15.3-8.6 3.5-1.8 7.6-4 9.1-4.9 6.9-3.9 22.2-11.9 22.9-11.9 1.2 0-1.2 1.7-7.8 5.5-3.6 2.1-6.7 3.8-6.9 3.8s-1.8.9-3.7 2.1c-2 1.1-8.2 4.5-14 7.4-14.9 7.5-20.5 11.1-25.1 15.9-1.8 1.9-1.9 2-1.9 1.3 1-1.5 2.1-2.8 3.4-4 2.5-2.7 5.4-4.9 8.6-6.7" class="st2"/><path id="uuid-c6a4528c-8e42-4cf0-8a71-ca0b053a63b6" d="M153 411.7c-.8-1.1-.9-1.1-.1-2 1.8-2 6-2.6 7.8-1.2 1.1.7 2.3 1.2 3.5 1.5 4.2 1.1 5.7 3.7 2.8 4.8-3.5 1.2-7.3.9-10.5-.8-1.3-.6-2.5-1.4-3.5-2.4" class="st2"/><path id="uuid-ffe1bbb5-509e-4e7a-8de3-15d4d73ef688" d="M218.3 395.7c3.2 1 6.3 2.5 9.2 4.3.9.7 1 .8.3 1.5-1.1 1.1-3 .9-8.7-1-5.8-1.9-6.8-2.5-5.9-3.5.7-.9 3.4-1.6 5.1-1.3" class="st2"/><path id="uuid-454c755a-8e9c-4998-9680-9e6a0a954d66" d="M216.3 400.5c4.1 1.1 5.7 2 5.7 2.8s0 .6-.1.6-.9.3-1.8.6c-1.5.5-3.1.6-4.7.5-2.5-.1-3.6-.5-7.4-2.3-4.1-2-7.6-4.4-7.6-5.1s3.9-.8 6.4-.4c1.5.3 2.9.8 4.2 1.4 1.7.8 3.5 1.4 5.3 1.9" class="st2"/><path id="uuid-373cc7c6-883a-4b3a-b167-a72cd27ff015" d="M161.7 493.7c-.2-.2-.4-3.2-.4-7s.2-6.7.5-7c.4-.4.5 1.1.4 7 0 5-.2 7.3-.5 7" class="st2"/><path id="uuid-71194509-b5f8-4b45-a375-f5339887ee91" d="M162.7 407.3c0-.9 7.1-1.1 11.3-.3 2.8.5 6.4 1.9 6.6 2.6.4 1-.5 2.5-1.9 3.1-2.4 1.1-5 .5-10.8-2.4-1.8-.8-3.6-1.8-5.2-3" class="st2"/><path id="uuid-f009c46c-bc4b-4cc3-b9e2-78727f03959a" d="M228 409.7c0 .7-17.2 4.8-27.3 6.5-4.6.8-19.8 3.9-25.8 5.2-2.1.6-4.2 1-6.4 1.1-.9 0-.7-.1.8-.5 3.6-.9 17.5-3.8 31.4-6.6 7.2-1.4 16.3-3.3 20.2-4.2s7.1-1.6 7.1-1.5" class="st2"/><path id="uuid-2065b001-d04a-4e8d-a2d7-f817b485fd1a" d="M191.6 400.6c1.5-.5 3.1-.5 4.6 0 3.5.6 10.6 3.8 10.6 4.7 0 2.4-5.5 3.1-11.3 1.4-3.4-1-4.9-1.7-5.9-3-1.1-1.4-.5-2.3 1.9-3" class="st2"/><path id="uuid-7be27023-0c44-48f2-8235-dec75f292888" d="M182.1 403.9c2.9.7 8.2 2.8 9.4 3.8.6.5.9 1 .7 1.3-.5.8-6.3.3-9.2-.8-2.4-.9-5-2.9-5-3.8s2-1 4.1-.5" class="st2"/><path id="uuid-4d1e8be1-06a2-468e-b6ec-f7ba2370fdbe" d="M145.1 397.3c-12.1-6.7-25.4-13.3-27.4-13.5-1.4-.2-2.7-1-1.7-1 1.7 0 19.2-2.8 23-3.6 2.7-.6 6.8-1.5 9.1-2s6.6-1.4 9.5-2.1 6.2-1.4 7.4-1.5c3.6-.5 6.8-1.1 7.3-1.6.4-.3 1.1-.2 2.3.1 2 .6 10 4.6 14.5 7.2 1.6 1 4.2 2.5 5.8 3.3s4 2.4 5.5 3.4c1.2.8 2.4 1.5 3.6 2.2 1.8.7 4.4 2.5 4.1 2.9-.1.2-.9.4-1.8.4-1.5 0-2.7-.6-12.5-6.3-2-1.2-5.3-3-7.2-4s-5.5-2.9-7.9-4.2c-5-2.7-6.8-3.3-8.9-3.1h-1.5c0 .1 1.9 1.4 1.9 1.4 1.1.7 5.4 3.1 9.7 5.3s10.5 5.6 13.8 7.4c3.5 2 6.6 3.5 7.6 3.6l1.7.3-3 1c-1.9.6-3.8 1-5.8 1.2-3.3.2-3.7 0-14.1-5.9-3.3-1.9-9.2-5.1-13.2-7.2s-7.5-4.1-7.9-4.4c-1-.9-4.2-.7-4.2.2s11.5 7.1 30 16.5c3.3 1.7 3.3 2 .5 2.9-1.7.5-6.3.6-6.5 0-1-.7-2-1.4-3.1-1.9-1.6-.8-4.8-2.5-7.2-3.8-2.3-1.3-4.3-2.4-4.4-2.4s-2.5-1.3-5.4-2.9-7.2-3.9-9.5-5c-3.9-2-4.4-2.1-5.6-1.7l-1.4.5 1.4.5c1.6.8 3.2 1.6 4.7 2.6 6.6 4.1 24.7 13.4 28.4 14.6.8.2-4.4 1.9-7 2.2-1.9.2-2.3.2-4.8-1.4-1.5-.9-4.4-2.5-6.4-3.5s-4.8-2.6-6.4-3.6c-1.5-.9-6-3.3-10-5.4-5.6-2.9-7.6-3.8-8.7-3.6H132c0 .1 2.1 1.7 2.1 1.7 2 1.4 8.6 5.2 17.4 9.9 2.1 1.1 4.8 2.7 6 3.4 1.5.9 3.1 1.7 4.8 2.3 1.9.6 2.5 1.1 2 1.3-3.1 1-6.2 1.6-9.5 2-.9 0-3.9-1.4-10.2-4.9Z" class="st2"/></g></g><g id="uuid-67a55a64-5620-492a-8920-9a60b368d6e5"><g id="uuid-6859ee5d-8fbd-4ee7-8030-b39961f06343"><path id="uuid-f5a39311-51ff-4360-ba08-14e73b89aa17" d="M434.5 614.7c-5.9 8.5-19.8 12.7-31 9.5s-15.6-12.7-9.7-21.2 19.8-12.7 31-9.5 15.6 12.7 9.7 21.2" style="fill:#59481c"/><path id="uuid-9be74e3c-d07c-495d-bbc4-d6a0167c832c" d="M422.4 601c.5.2.9.5 1.3.7 1.1.5 1.9 1.6 2 2.9 0 1-.4 1.8-1.1 2.5-.8.8-1.7 1.5-2.8 1.9-1.5.5-3 .8-4.6.8-1.8 0-3.6-.2-5.4-.7-.1 0-.2 0-.4-.1s-.2 0-.5-.1c-.3.4-.7.7-1 1.1-.7.9-1.3 1.7-2 2.6s-1.4 1.8-2.3 2.6c-.3.3-.7.5-1.1.7-.5.2-1.1.3-1.7.1-.7-.1-1.4-.3-1.6-.8-.1-.5 0-1 .2-1.4.4-.6.9-1.2 1.5-1.7 1.3-1.4 2.7-2.7 4-4.1 1.3-1.3 2.5-2.7 3.7-4.1l1.5-1.8h-.7c-.4 0-.8.1-1.2.1q-.45 0-.3-.3c.1-.5.6-.7 1.1-.8 1.7-.6 3.4-.9 5.2-1 1 0 2 0 3.1.1 1.1.2 2.1.4 3.1.8m-9.9 6.3h.2c1 .2 2.1.3 3.2.3 1.4 0 2.8-.4 3.9-1.3.7-.5 1-1.4.8-2.2-.5-1.1-1.6-1.8-2.8-2-.1 0-.3 0-.4.1-.2.2-.3.4-.5.7l-3.2 3.2z" class="st5"/></g></g></g></svg>