<svg width="74" height="74" viewBox="0 0 74 74" fill="none" xmlns="http://www.w3.org/2000/svg">
<circle cx="37" cy="37" r="37" fill="url(#paint0_linear_670_6531)"/>
<g clip-path="url(#clip0_670_6531)">
<path d="M49.0009 59.677C48.8783 59.677 48.7586 59.6164 48.6868 59.5065C48.5784 59.339 48.6203 59.1168 48.7818 58.9994L52.4359 56.352L46.7655 59.6254C46.592 59.7279 46.3692 59.6718 46.2615 59.5005C46.1545 59.3292 46.2024 59.1049 46.3692 58.9919L49.5865 56.8164L46.3063 58.7093C46.1321 58.8117 45.9107 58.7556 45.803 58.5851C45.6953 58.4153 45.7417 58.1917 45.9077 58.0773L50.4383 54.9647L46.0229 57.5134C45.8509 57.6144 45.6288 57.5598 45.5211 57.3915C45.4126 57.2225 45.4568 57.0004 45.6205 56.8844L51.5848 52.6747L46.0221 55.8853C45.8464 55.9877 45.6213 55.9309 45.5158 55.7567C45.4096 55.5839 45.462 55.358 45.6318 55.2474L45.9279 55.0559C45.7746 55.0963 45.6026 55.0335 45.5151 54.8884C45.4089 54.7156 45.4612 54.4898 45.631 54.3791L45.9204 54.1921C45.7709 54.2295 45.6056 54.1667 45.5181 54.0283C45.4104 53.8578 45.4568 53.6349 45.622 53.5205L50.6552 50.0459L46.0207 52.721C45.8464 52.8235 45.625 52.7674 45.5173 52.5969C45.4096 52.4264 45.4568 52.2028 45.622 52.0891L50.3314 48.8605L46.0207 51.3487C45.8449 51.4504 45.622 51.3936 45.5151 51.2216C45.4089 51.0495 45.459 50.8244 45.6273 50.7123L47.7086 49.3414L46.0192 50.3166C45.8442 50.4176 45.6213 50.3622 45.5143 50.1902C45.4074 50.0182 45.4568 49.7939 45.6243 49.6817L48.5126 47.7597L46.0184 49.1993C45.8434 49.3003 45.6205 49.2442 45.5136 49.0737C45.4067 48.9024 45.456 48.6773 45.6228 48.5651L48.9927 46.3065L46.0177 48.0237C45.8427 48.1246 45.619 48.0693 45.5136 47.898C45.4059 47.7267 45.4545 47.5024 45.6228 47.3895L49.1378 45.0284L46.0169 46.83C45.8434 46.9325 45.6198 46.8757 45.5128 46.7052C45.4059 46.5339 45.4538 46.3095 45.6205 46.1966L49.5357 43.5506L46.0169 45.5819C45.8412 45.6836 45.619 45.6275 45.5121 45.4555C45.4052 45.2842 45.4545 45.0598 45.622 44.9469L48.79 42.8304L46.0162 44.4316C45.8404 44.5341 45.6176 44.4765 45.5106 44.3045C45.4044 44.1325 45.4545 43.9074 45.6235 43.7952L47.5987 42.4961L46.0154 43.41C45.8389 43.5125 45.6153 43.4549 45.5099 43.2821C45.4037 43.1101 45.4545 42.8843 45.6235 42.7728L46.9099 41.933L46.0154 42.449C45.8397 42.5507 45.6183 42.4939 45.5114 42.3234C45.4044 42.1521 45.4523 41.9285 45.6198 41.8148L49.3412 39.3079L46.0162 41.227C45.8404 41.328 45.6183 41.2726 45.5114 41.1006C45.4044 40.9286 45.4538 40.7035 45.622 40.5913L48.3316 38.7927L46.0147 40.1299C45.8412 40.2323 45.619 40.1755 45.5114 40.0065C45.4037 39.8359 45.45 39.6123 45.6153 39.4979L50.6006 36.0607L46.0147 38.7082C45.8412 38.8099 45.619 38.7545 45.5114 38.584C45.4037 38.4135 45.4508 38.1899 45.6168 38.0762L50.2693 34.8895L46.0147 37.3463C45.8412 37.4472 45.619 37.3926 45.5114 37.2221C45.4037 37.0524 45.45 36.8288 45.6153 36.7151L50.4742 33.3571L46.0147 35.9321C45.8404 36.0323 45.6198 35.9784 45.5121 35.8087C45.4044 35.6396 45.4493 35.416 45.6146 35.3008L49.3816 32.6803L46.0139 34.6248C45.8427 34.725 45.6198 34.6711 45.5121 34.5021C45.4037 34.3338 45.4478 34.111 45.6108 33.9951L48.0137 32.2951L46.0139 33.4499C45.8442 33.5478 45.6265 33.4985 45.5173 33.3354C45.4074 33.1724 45.4418 32.9525 45.5966 32.8314L48.0571 30.9071L46.0139 32.0872C45.8539 32.18 45.646 32.1411 45.5308 31.9923C45.4164 31.8442 45.4291 31.634 45.5607 31.5009L47.408 29.632L46.0132 30.4374C45.8696 30.5197 45.6886 30.4988 45.5689 30.3851C45.4485 30.2714 45.4179 30.0919 45.4927 29.9446L46.0715 28.8063C45.9242 28.8228 45.8038 28.7443 45.732 28.6194C45.628 28.4406 45.6893 28.2118 45.8688 28.1086L46.7543 27.5978C46.8972 27.5147 47.0789 27.5364 47.1986 27.6501C47.319 27.7638 47.3496 27.9433 47.2748 28.0906L46.7311 29.1593L49.4392 27.5955C49.6 27.5035 49.8071 27.5424 49.9223 27.6905C50.0375 27.8386 50.024 28.0487 49.8924 28.1819L48.0451 30.0515L52.3013 27.594C52.4711 27.4953 52.6894 27.5462 52.7979 27.7084C52.9078 27.8715 52.8734 28.0914 52.7186 28.2125L50.2581 30.136L54.6646 27.5925C54.8366 27.4931 55.0587 27.5462 55.1664 27.7152C55.2748 27.8834 55.2307 28.1063 55.0677 28.2222L52.6618 29.9236L56.701 27.5918C56.8753 27.4923 57.0959 27.5462 57.2036 27.7152C57.3113 27.8842 57.2664 28.1078 57.1011 28.223L53.3348 30.842L58.0868 28.0988C58.2611 27.9994 58.4825 28.0532 58.5901 28.223C58.6978 28.3928 58.6515 28.6164 58.4862 28.7308L53.6265 32.0887L58.3142 29.3829C58.4892 29.2827 58.7106 29.3381 58.8175 29.5078C58.9252 29.6783 58.8781 29.902 58.712 30.0156L54.0618 33.2001L58.3142 30.7448C58.4892 30.6453 58.7106 30.6992 58.8175 30.869C58.9252 31.0387 58.8788 31.2623 58.7135 31.3768L53.726 34.8155L58.3142 32.1665C58.4892 32.0648 58.7113 32.1216 58.819 32.2937C58.9259 32.4649 58.8766 32.69 58.7083 32.8022L56.0062 34.5964L58.3149 33.2629C58.4899 33.1619 58.7113 33.2165 58.819 33.3885C58.9259 33.5598 58.8781 33.7842 58.7106 33.8963L54.9869 36.4055L58.3149 34.4842C58.4907 34.3832 58.7143 34.4393 58.8205 34.6121C58.9267 34.7841 58.8758 35.0099 58.7068 35.1206L57.416 35.9635L58.3149 35.4444C58.4907 35.3427 58.7135 35.4003 58.8205 35.5716C58.9267 35.7436 58.8766 35.9694 58.7076 36.0801L56.7369 37.3769L58.3149 36.466C58.4899 36.3643 58.7121 36.4204 58.8197 36.5924C58.9267 36.7637 58.8773 36.9888 58.7098 37.101L55.5418 39.2182L58.3157 37.6163C58.4907 37.5168 58.7121 37.5706 58.8197 37.7419C58.9267 37.9124 58.8788 38.1375 58.712 38.2497L54.7939 40.8979L58.3157 38.8652C58.4907 38.7627 58.7128 38.8188 58.8197 38.9908C58.9274 39.1621 58.8788 39.3865 58.7106 39.4994L55.1993 41.8582L58.3157 40.0588C58.4907 39.9564 58.7128 40.0124 58.8205 40.1845C58.9274 40.3557 58.8781 40.5808 58.7113 40.693L55.3354 42.9553L58.3157 41.2345C58.4907 41.132 58.7128 41.1881 58.8205 41.3609C58.9274 41.5321 58.8781 41.7572 58.7106 41.8694L55.8283 43.787L58.3157 42.351C58.4907 42.2486 58.7135 42.3054 58.8212 42.4782C58.9274 42.6502 58.8773 42.8753 58.7091 42.9875L56.6247 44.3606L58.3164 43.3839C58.4914 43.2836 58.7128 43.3382 58.8197 43.508C58.9274 43.6785 58.8803 43.9021 58.715 44.0158L54.0057 47.2444L58.3164 44.7562C58.4914 44.6552 58.7128 44.7106 58.8197 44.8796C58.9274 45.0501 58.8811 45.273 58.7158 45.3874L53.6849 48.8605L58.3157 46.1869C58.4914 46.0837 58.7165 46.142 58.822 46.3155C58.9282 46.4883 58.8758 46.7141 58.7061 46.8248L58.4166 47.0118C58.5662 46.9721 58.7352 47.038 58.822 47.1808C58.9282 47.3536 58.8758 47.5794 58.7061 47.6901L58.4077 47.8831C58.5602 47.8404 58.7292 47.9032 58.8182 48.0431C58.9267 48.2121 58.8826 48.4342 58.7188 48.5502L52.7567 52.7592L58.3164 49.5493C58.4914 49.4484 58.7128 49.5029 58.8197 49.6735C58.9274 49.8432 58.8811 50.0668 58.715 50.1813L54.1822 53.2954L58.3157 50.9097C58.4907 50.8087 58.7121 50.8648 58.8197 51.0346C58.9267 51.2058 58.8788 51.4302 58.712 51.5431L55.4955 53.7187L58.3157 52.0906C58.4869 51.9889 58.7068 52.0442 58.8168 52.2102C58.9252 52.3778 58.8833 52.5999 58.7218 52.7173L55.0677 55.3648L58.3157 53.4899C58.4869 53.3896 58.7076 53.4435 58.816 53.6088C58.9244 53.7755 58.8841 53.9984 58.7233 54.1151L56.811 55.5143L58.3157 54.6461C58.4854 54.5451 58.7046 54.5982 58.8138 54.7627C58.9229 54.9273 58.8863 55.1479 58.7292 55.2675L57.748 56.0124L58.3157 55.6849C58.4757 55.5906 58.6806 55.6303 58.7966 55.7768C58.9117 55.9227 58.902 56.1313 58.7741 56.266L57.4362 57.6742L58.3164 57.1656C58.4593 57.0834 58.6403 57.1043 58.7607 57.2172C58.8803 57.3302 58.9117 57.5104 58.8377 57.6577L58.4563 58.4138C58.57 58.4183 58.7158 58.4782 58.7868 58.6008C58.8908 58.7796 58.8295 59.0084 58.65 59.1116L57.7817 59.6134C57.6389 59.6957 57.4579 59.6748 57.3375 59.5618C57.2178 59.4489 57.1864 59.2687 57.2604 59.1213L57.6037 58.4408L55.5687 59.6157C55.4094 59.7092 55.2038 59.6695 55.0879 59.5237C54.9719 59.3779 54.9824 59.1692 55.1103 59.0346L56.449 57.6256L52.9976 59.6187C52.8263 59.7181 52.6079 59.6658 52.4995 59.502C52.3903 59.3375 52.4269 59.1168 52.584 58.9972L53.5644 58.2523L51.1944 59.6209C51.0247 59.7219 50.8033 59.6688 50.6941 59.502C50.5857 59.3352 50.6261 59.1124 50.7868 58.9957L52.7029 57.5927L49.1864 59.6232C49.1281 59.6576 49.063 59.6733 48.9994 59.6733L49.0009 59.677Z" fill="white"/>
<path d="M52.9708 35.7343C52.8706 35.7343 52.7711 35.6939 52.6986 35.6168C52.5797 35.4904 52.5632 35.299 52.6589 35.1539L53.4846 33.9057L50.7444 35.4882C50.5873 35.5787 50.3854 35.5428 50.2687 35.4022C50.1528 35.2608 50.1558 35.0567 50.2755 34.9191L51.1976 33.8616L50.5095 34.2587C50.363 34.3432 50.176 34.3185 50.0563 34.1974C49.9374 34.0762 49.915 33.8893 50.0017 33.7434L50.2785 33.2805C50.1805 33.258 50.093 33.1967 50.0391 33.1032C49.9352 32.9245 49.9965 32.6956 50.176 32.5924L51.0443 32.0906C51.1909 32.0061 51.3778 32.0315 51.4975 32.1519C51.6164 32.2731 51.6388 32.4601 51.5521 32.6059L51.3808 32.8923L52.7704 32.0899C52.9282 31.9994 53.1286 32.0345 53.246 32.1759C53.3619 32.3172 53.3589 32.5214 53.2393 32.659L52.3172 33.7165L54.4845 32.4646C54.6341 32.3793 54.8248 32.4055 54.9437 32.5319C55.0626 32.6583 55.079 32.8497 54.9833 32.9948L54.1577 34.243L54.578 34.0007C54.756 33.8975 54.9856 33.9581 55.0888 34.1375C55.1927 34.3163 55.1314 34.5451 54.9519 34.6483L53.1585 35.6841C53.1002 35.7178 53.0351 35.7343 52.9708 35.7343Z" fill="#231F20"/>
<path d="M52.9071 42.4654C52.8016 42.4654 52.6984 42.4205 52.6251 42.3367C52.5077 42.2021 52.5025 42.0032 52.6117 41.8618L53.2795 41.004L50.9447 42.3517C50.7921 42.4414 50.5992 42.41 50.4802 42.2784C50.3621 42.1468 50.3516 41.9508 50.4556 41.808L51.5153 40.3467L50.5109 40.9255C50.3628 41.0123 50.1744 40.9846 50.0555 40.8619C49.9365 40.7385 49.9156 40.5501 50.0068 40.4042L50.2566 40.0041C50.1684 39.978 50.0891 39.9196 50.0405 39.8329C49.9365 39.6541 49.9979 39.4253 50.1774 39.3221L51.0456 38.821C51.1937 38.7335 51.3814 38.7612 51.5011 38.8846C51.62 39.008 51.6409 39.1964 51.5497 39.3423L51.4323 39.53L52.6618 38.821C52.8136 38.7313 53.0081 38.7627 53.1262 38.8943C53.2444 39.0259 53.2549 39.2219 53.1517 39.3647L52.0912 40.826L54.5629 39.3999C54.7177 39.3101 54.9151 39.343 55.0318 39.4776C55.1492 39.6122 55.1545 39.8112 55.0453 39.9525L54.3774 40.8111L54.5801 40.6944C54.7581 40.5897 54.9877 40.6518 55.0909 40.8313C55.1948 41.01 55.1335 41.2389 54.954 41.3421L53.0956 42.4153C53.0372 42.4497 52.9729 42.4654 52.9086 42.4654H52.9071Z" fill="#231F20"/>
<path d="M51.844 49.1981C51.7385 49.1981 51.6353 49.1532 51.562 49.0694C51.4446 48.9341 51.4394 48.7351 51.5486 48.5938L52.6577 47.1728L50.5113 48.4121C50.3714 48.4913 50.1994 48.4756 50.0783 48.3694C49.9579 48.264 49.9175 48.0942 49.978 47.9469L50.4754 46.7361C50.3131 46.7832 50.1284 46.7204 50.0401 46.5656C49.9362 46.3868 49.9975 46.158 50.177 46.0548L51.0453 45.5537C51.1844 45.4737 51.3579 45.4901 51.4783 45.5963C51.5987 45.7018 51.6391 45.8715 51.5785 46.0189L51.0871 47.2162L53.9485 45.5642C54.1033 45.4737 54.3007 45.5073 54.4174 45.6419C54.5348 45.7773 54.5401 45.9762 54.4309 46.1176L53.321 47.5393L54.5805 46.8124C54.7248 46.7271 54.9073 46.7503 55.0284 46.8677C55.1481 46.9836 55.1758 47.1654 55.0972 47.3127L54.7555 47.9491C54.8744 47.9581 54.988 48.0239 55.0516 48.1353C55.1556 48.3141 55.0942 48.5429 54.9148 48.6461L54.0472 49.1472C53.9029 49.2325 53.7204 49.2085 53.5992 49.0919C53.4796 48.976 53.4519 48.7942 53.5304 48.6469L53.8146 48.1181L52.031 49.1472C51.9726 49.1816 51.9083 49.1981 51.844 49.1981Z" fill="#231F20"/>
<path d="M51.151 55.9282C51.0433 55.9282 50.9371 55.8818 50.8638 55.7935C50.7472 55.6537 50.7487 55.451 50.8661 55.3119L51.9722 54.0091L50.5123 54.8512C50.371 54.932 50.1922 54.9133 50.0718 54.8034C49.9514 54.6927 49.917 54.5162 49.9873 54.3681L50.4076 53.4804C50.2715 53.4953 50.1182 53.4295 50.0419 53.2956C49.938 53.1169 49.9993 52.8881 50.1788 52.7848L51.047 52.2838C51.1876 52.203 51.3664 52.2217 51.4875 52.3316C51.608 52.4423 51.6424 52.6188 51.5721 52.7669L51.1757 53.6045L53.4657 52.283C53.622 52.191 53.8239 52.2277 53.9398 52.3668C54.0565 52.5066 54.055 52.7093 53.9376 52.8484L52.8322 54.1512L54.5807 53.1416C54.7206 53.0616 54.8971 53.0795 55.0175 53.1872C55.1379 53.2964 55.1753 53.4692 55.1095 53.6172L54.6391 54.6755C54.7954 54.6336 54.9711 54.7016 55.0579 54.8505C55.1611 55.0292 55.0998 55.2581 54.9203 55.362L54.0273 55.8766C53.8867 55.9566 53.7102 55.9379 53.5898 55.8302C53.4702 55.721 53.4328 55.5482 53.4986 55.4002L53.9593 54.3629L51.3387 55.8751C51.2804 55.9095 51.2161 55.9252 51.1518 55.9252L51.151 55.9282Z" fill="#231F20"/>
<path d="M46.8497 29.0253C46.7323 29.0253 46.6164 28.9693 46.5438 28.8668C46.4332 28.709 46.4608 28.4921 46.6082 28.3665L47.822 27.3374L46.0233 28.3762C45.8663 28.4667 45.6651 28.4323 45.5477 28.2902C45.4318 28.1496 45.434 27.9454 45.5537 27.8071L46.7966 26.3697L46.0233 26.8169C45.8954 26.8917 45.7324 26.8827 45.6127 26.7922C45.4931 26.7032 45.4377 26.5506 45.4721 26.4055L45.6905 25.4969C45.618 25.4662 45.5544 25.4124 45.5125 25.3398C45.4086 25.1611 45.4699 24.9322 45.6494 24.8283L46.0233 24.6122C46.1527 24.5374 46.315 24.5471 46.4339 24.6361C46.5536 24.7258 46.6089 24.8776 46.5745 25.0235L46.4032 25.734L48.3455 24.6122C48.5025 24.5217 48.7037 24.5568 48.8211 24.6982C48.937 24.8388 48.9348 25.0429 48.8151 25.1813L47.5714 26.6187L51.046 24.6122C51.2143 24.5157 51.4282 24.5628 51.5389 24.7213C51.6496 24.8799 51.6219 25.096 51.4746 25.2217L50.2608 26.2507L53.0982 24.6122C53.2627 24.5157 53.4789 24.562 53.5903 24.7198C53.7017 24.8776 53.6748 25.0938 53.5282 25.2194L52.2561 26.3106L55.199 24.6114C55.362 24.5164 55.5722 24.5591 55.6858 24.7116C55.7988 24.8642 55.7801 25.0766 55.6425 25.2067L54.036 26.7249L57.6797 24.6219C57.8442 24.5269 58.0551 24.5703 58.1673 24.7243C58.2802 24.8776 58.26 25.0915 58.1202 25.2209L56.5893 26.6329L58.3198 25.6337C58.4672 25.5485 58.6556 25.5732 58.7753 25.6981C58.895 25.8215 58.9151 26.0099 58.8232 26.1558L57.9459 27.5595L58.3326 27.3367C58.5098 27.2334 58.7401 27.294 58.8433 27.4735C58.9473 27.6523 58.886 27.8811 58.7065 27.9843L57.0215 28.9573C56.8735 29.0418 56.6857 29.0171 56.5661 28.893C56.4464 28.7696 56.4262 28.5811 56.5182 28.4353L57.3955 27.0315L54.0502 28.9633C53.8879 29.0583 53.6756 29.0149 53.5626 28.8608C53.4497 28.7075 53.4699 28.4936 53.6097 28.3642L55.1414 26.9515L51.6496 28.967C51.4865 29.0612 51.2764 29.0194 51.1627 28.8668C51.0498 28.7142 51.0685 28.5018 51.2061 28.3717L52.8118 26.8535L49.1442 28.9715C48.9774 29.0672 48.7628 29.0216 48.6521 28.8638C48.5407 28.706 48.5676 28.4899 48.7142 28.3642L49.9863 27.2731L47.0374 28.976C46.9791 29.0096 46.914 29.0261 46.8505 29.0261L46.8497 29.0253Z" fill="#2381D9"/>
<path d="M16.5789 59.6687C16.454 59.6687 16.3321 59.6059 16.261 59.4922C16.1541 59.321 16.2034 59.0966 16.3709 58.9837L18.0978 57.8305L15.5042 59.3277C15.3321 59.4294 15.1093 59.3741 15.0016 59.205C14.8939 59.0353 14.9388 58.8124 15.1033 58.6972L20.4558 54.9639L15.3561 57.9082C15.1841 58.0092 14.962 57.9546 14.8543 57.7863C14.7458 57.6181 14.7899 57.3952 14.953 57.2793L21.0145 52.9895L15.3561 56.2562C15.1818 56.3586 14.9597 56.3026 14.852 56.1313C14.7451 55.9608 14.7922 55.7372 14.959 55.6235L19.2615 52.6956L15.3561 54.9504C15.1841 55.0521 14.9605 54.9968 14.8528 54.8263C14.7451 54.6557 14.7922 54.4321 14.9575 54.3184L19.6907 51.0712L15.3553 53.5743C15.1841 53.6753 14.962 53.6207 14.8528 53.4517C14.7451 53.2826 14.7899 53.0598 14.9537 52.9446L20.7243 48.8919L15.3553 51.9918C15.1818 52.0928 14.9605 52.0382 14.8528 51.8692C14.7451 51.7001 14.7899 51.4773 14.9545 51.3614L20.574 47.4305L15.3546 50.443C15.1811 50.5439 14.9605 50.4893 14.8528 50.3211C14.7443 50.152 14.7884 49.9299 14.9522 49.814L20.9434 45.5825L15.3546 48.8081C15.1811 48.9091 14.959 48.8545 14.852 48.6855C14.7443 48.5157 14.7892 48.2928 14.9537 48.1777L20.3952 44.3874L15.3538 47.2982C15.1803 47.3999 14.9575 47.3445 14.8498 47.1725C14.7428 47.002 14.7907 46.7776 14.9575 46.6647L18.8524 44.033L15.3538 46.0522C15.1788 46.1547 14.956 46.0971 14.8483 45.9251C14.7421 45.7531 14.7922 45.5272 14.9612 45.4158L16.6895 44.2812L15.3538 45.0523C15.1796 45.154 14.959 45.0987 14.8513 44.9289C14.7436 44.7591 14.7892 44.5363 14.9537 44.4211L20.2345 40.7573L15.3538 43.5753C15.1781 43.6777 14.9552 43.6201 14.8483 43.4481C14.7421 43.2761 14.7922 43.0503 14.9612 42.9388L16.8548 41.6936L15.3531 42.5604C15.1796 42.6621 14.9582 42.6068 14.8505 42.437C14.7428 42.268 14.7877 42.0444 14.953 41.9299L20.3384 38.1838L15.3523 41.0617C15.1766 41.1634 14.9545 41.1065 14.8475 40.9353C14.7406 40.764 14.7899 40.5396 14.9567 40.4267L18.1808 38.2721L15.3523 39.9047C15.1766 40.0057 14.9545 39.9503 14.8475 39.7783C14.7406 39.607 14.7899 39.3827 14.9575 39.2698L18.1023 37.169L15.3516 38.7567C15.1758 38.8584 14.953 38.8023 14.8468 38.6296C14.7398 38.4583 14.7899 38.2325 14.9575 38.121L17.4053 36.5011L15.3501 37.6873C15.1736 37.7875 14.9522 37.7314 14.8445 37.5594C14.7383 37.3874 14.7892 37.1615 14.9575 37.0508L16.6215 35.9597L15.3501 36.6941C15.1736 36.795 14.9507 36.739 14.8445 36.5662C14.7383 36.3942 14.7892 36.1683 14.9582 36.0576L15.9776 35.3913L15.3493 35.754C15.1773 35.8535 14.9545 35.8004 14.8475 35.6314C14.7391 35.4631 14.7832 35.2402 14.9462 35.1243L18.9444 32.2951L15.3486 34.3712C15.1788 34.4699 14.9597 34.4198 14.8513 34.2553C14.7421 34.0922 14.7772 33.8716 14.9328 33.7512L18.456 31.0297L15.3486 32.8238C15.1788 32.9218 14.9612 32.8717 14.8505 32.7079C14.7413 32.5441 14.7772 32.3235 14.9335 32.2039L16.3874 31.0865L15.3479 31.6871C15.1811 31.7843 14.9672 31.7364 14.855 31.5786C14.7443 31.4201 14.772 31.2032 14.9193 31.0783L15.813 30.32L15.3471 30.5885C15.2058 30.67 15.027 30.6498 14.9059 30.5391C14.7862 30.4277 14.7518 30.2512 14.8228 30.1031L15.4406 28.807C15.2948 28.825 15.1444 28.7592 15.0667 28.623C14.9627 28.4443 15.024 28.2155 15.2035 28.1122L16.089 27.6015C16.2303 27.5199 16.4098 27.5394 16.5302 27.6508C16.6499 27.7622 16.6843 27.9387 16.6133 28.0868L16.0165 29.3388L19.0274 27.6C19.1949 27.5035 19.4088 27.5506 19.5202 27.7084C19.6309 27.8669 19.6032 28.0838 19.4559 28.2087L18.5645 28.9656L20.9315 27.5985C21.1005 27.4997 21.3196 27.5506 21.4296 27.7144C21.5387 27.8782 21.5028 28.0988 21.3465 28.2184L19.8912 29.3373L22.9044 27.597C23.0734 27.4982 23.2925 27.5491 23.4017 27.7129C23.5109 27.8759 23.4757 28.0965 23.3202 28.217L19.7962 30.9392L25.587 27.5962C25.7605 27.496 25.9811 27.5499 26.0888 27.7189C26.1972 27.8871 26.1531 28.11 25.9901 28.2259L21.9942 31.0529L27.3041 27.9874C27.4798 27.8864 27.7035 27.9425 27.8097 28.1152C27.9158 28.2873 27.865 28.5131 27.696 28.6238L26.6766 29.2901L27.6496 28.7285C27.8261 28.6275 28.0482 28.6844 28.1552 28.8564C28.2614 29.0284 28.2105 29.2543 28.0422 29.3649L26.3782 30.4561L27.6496 29.7217C27.8246 29.6207 28.0475 29.6761 28.1544 29.8488C28.2614 30.0208 28.2113 30.2459 28.0437 30.3574L25.5922 31.9795L27.6511 30.7911C27.8261 30.6894 28.0482 30.7455 28.1559 30.9175C28.2629 31.0888 28.2135 31.3139 28.046 31.4261L24.8982 33.5283L27.6518 31.9391C27.8269 31.8382 28.049 31.8935 28.1567 32.0655C28.2636 32.2368 28.2142 32.4619 28.0475 32.5741L24.8234 34.7294L27.6518 33.0961C27.8261 32.9959 28.0467 33.0505 28.1544 33.2195C28.2621 33.3885 28.2172 33.6121 28.052 33.7273L22.671 37.4704L27.6518 34.5941C27.8276 34.4923 28.0505 34.5492 28.1574 34.7219C28.2636 34.894 28.2135 35.1191 28.0445 35.2305L26.1509 36.4757L27.6526 35.6089C27.8269 35.5095 28.0475 35.5626 28.1552 35.7331C28.2629 35.9021 28.2172 36.1257 28.0527 36.2401L22.772 39.904L27.6518 37.0867C27.8276 36.9858 28.0505 37.0418 28.1574 37.2146C28.2636 37.3866 28.2135 37.6125 28.0445 37.7232L26.3161 38.8577L27.6518 38.0859C27.8269 37.9864 28.0482 38.0403 28.1559 38.2115C28.2629 38.382 28.215 38.6071 28.0482 38.7193L24.1533 41.3511L27.6518 39.3318C27.8261 39.2309 28.0467 39.2855 28.1544 39.4545C28.2621 39.6235 28.2172 39.8471 28.0527 39.9623L22.6075 43.7555L27.6526 40.8425C27.8261 40.7408 28.0467 40.7962 28.1544 40.9644C28.2629 41.1335 28.2187 41.3556 28.055 41.4715L22.0637 45.703L27.6526 42.4774C27.8261 42.3757 28.0475 42.431 28.1552 42.6C28.2629 42.7691 28.218 42.9919 28.0535 43.1078L22.4362 47.0372L27.6526 44.0262C27.8239 43.9245 28.046 43.9799 28.1552 44.1489C28.2629 44.3179 28.218 44.5408 28.0542 44.6559L22.2836 48.7087L27.6526 45.6087C27.8269 45.5078 28.0482 45.5624 28.1559 45.7329C28.2636 45.9034 28.2165 46.127 28.0512 46.2407L23.3209 49.4857L27.6526 46.9848C27.8269 46.8838 28.0497 46.9384 28.1567 47.1097C28.2636 47.2802 28.2165 47.5038 28.0497 47.6175L23.7472 50.5454L27.6526 48.2906C27.8239 48.1896 28.0467 48.2442 28.1544 48.4125C28.2629 48.5808 28.2187 48.8036 28.0557 48.9196L21.9927 53.2108L27.6533 49.9426C27.8269 49.8417 28.049 49.8963 28.1559 50.0653C28.2636 50.2351 28.2187 50.4579 28.0542 50.5731L22.7024 54.3057L27.6533 51.4481C27.8283 51.3457 28.0505 51.4017 28.1582 51.5745C28.2651 51.7458 28.2157 51.9701 28.0482 52.0831L26.3154 53.2408L27.6541 52.4682C27.8276 52.3665 28.0482 52.4218 28.1559 52.5901C28.2644 52.7591 28.2202 52.982 28.0564 53.0979L25.6004 54.8277L27.6541 53.6424C27.8276 53.5407 28.0482 53.596 28.1567 53.765C28.2644 53.934 28.2195 54.1569 28.0557 54.2721L27.3774 54.7492L27.6541 54.5892C27.8186 54.4934 28.0303 54.5376 28.1425 54.6924C28.2554 54.8464 28.2337 55.0603 28.0931 55.189L25.839 57.2449L27.6541 56.1978C27.8171 56.1029 28.028 56.1455 28.1417 56.2996C28.2546 56.4521 28.2344 56.6653 28.0953 56.7954L27.5262 57.3249L27.6533 57.2516C27.8022 57.1648 27.9914 57.191 28.1103 57.3167C28.2292 57.4416 28.2479 57.6315 28.1552 57.7766L27.5374 58.7414C27.5546 58.7601 27.5711 58.7825 27.5838 58.8057C27.6877 58.9844 27.6264 59.2133 27.4469 59.3165L26.9257 59.6171C26.7768 59.7046 26.5876 59.677 26.4687 59.5521C26.3498 59.4272 26.3311 59.2372 26.4238 59.0921L26.6953 58.6681L25.05 59.6179C24.8877 59.7136 24.6761 59.6702 24.5624 59.5162C24.4495 59.3636 24.4689 59.1504 24.6088 59.0203L25.1779 58.4908L23.2252 59.6179C23.0622 59.7143 22.8498 59.6702 22.7368 59.5147C22.6239 59.3606 22.6456 59.1467 22.7862 59.0181L25.0403 56.9622L20.4401 59.6179C20.2666 59.7188 20.046 59.6642 19.9375 59.4952C19.8299 59.3262 19.8747 59.1033 20.0385 58.9882L20.7146 58.5133L18.8008 59.6179C18.6273 59.7188 18.4067 59.6642 18.299 59.496C18.1905 59.3269 18.2346 59.1041 18.3984 58.9882L20.8559 57.2568L16.7658 59.6179C16.7067 59.6523 16.6424 59.6687 16.5789 59.6687Z" fill="white"/>
<path d="M20.7062 35.7354C20.5933 35.7354 20.4811 35.6838 20.4086 35.5873C20.2949 35.437 20.3098 35.2261 20.4452 35.0945L20.9111 34.6375L19.372 35.526C19.2172 35.6143 19.0198 35.5828 18.9016 35.4467C18.7849 35.3106 18.7804 35.1109 18.8919 34.9703L19.8828 33.7199L19.099 34.1724C18.9509 34.2584 18.7625 34.2314 18.6428 34.1073C18.5232 33.9831 18.5037 33.7939 18.5965 33.6481L18.835 33.2712C18.7513 33.2435 18.6757 33.1859 18.6286 33.1029C18.5247 32.9242 18.586 32.6953 18.7655 32.5921L19.6338 32.0903C19.7826 32.005 19.971 32.0305 20.09 32.1554C20.2096 32.2795 20.2291 32.4687 20.1363 32.6145L20.0406 32.7649L21.2088 32.0903C21.3628 32.0005 21.5603 32.0334 21.6792 32.1696C21.7959 32.3057 21.8003 32.5054 21.6889 32.646L20.6972 33.8964L23.0994 32.5098C23.2602 32.4164 23.4696 32.4567 23.584 32.6078C23.6977 32.7581 23.6827 32.969 23.5474 33.1007L23.0814 33.5576L23.1675 33.5075C23.3163 33.4215 23.504 33.4477 23.6244 33.5726C23.7433 33.6967 23.7628 33.8867 23.67 34.0318L23.4068 34.4453C23.5077 34.4663 23.5997 34.5283 23.6551 34.6248C23.759 34.8036 23.6977 35.0324 23.5182 35.1356L22.5677 35.6838C22.4196 35.7691 22.2311 35.7436 22.1107 35.6187C21.9918 35.4946 21.9724 35.3046 22.0651 35.1596L22.2184 34.9187L20.8924 35.6846C20.8341 35.7182 20.7698 35.7347 20.7055 35.7347L20.7062 35.7354Z" fill="#231F20"/>
<path d="M21.9559 42.465C21.8572 42.465 21.76 42.4261 21.6882 42.3521C21.5685 42.2287 21.5476 42.0402 21.6381 41.8951L22.2521 40.9027L19.6622 42.397C19.5066 42.4875 19.31 42.4538 19.1918 42.3184C19.0751 42.1823 19.0706 41.9826 19.1821 41.8413L20.2859 40.4488L19.0991 41.1331C18.9547 41.2183 18.7715 41.1944 18.6503 41.077C18.5307 40.9603 18.5037 40.7778 18.5838 40.6305L18.9166 40.0195C18.7999 40.0083 18.69 39.9432 18.6271 39.834C18.5232 39.6553 18.5845 39.4264 18.764 39.3232L19.6323 38.8221C19.7766 38.7369 19.9606 38.7608 20.081 38.8782C20.2007 38.9949 20.2276 39.1774 20.1476 39.3247L19.8776 39.8205L21.6074 38.8221C21.7607 38.7309 21.9589 38.7646 22.0778 38.9007C22.1945 39.0368 22.199 39.2365 22.0875 39.3778L20.9844 40.7703L23.163 39.5124C23.3103 39.4257 23.498 39.4518 23.6177 39.5752C23.7374 39.6986 23.7583 39.8871 23.6678 40.0322L23.0538 41.0246L23.166 40.9603C23.344 40.8564 23.5736 40.9177 23.6768 41.0972C23.7807 41.2759 23.7194 41.5048 23.5399 41.608L22.1421 42.4149C22.0838 42.4493 22.0202 42.465 21.9559 42.465Z" fill="#231F20"/>
<path d="M21.8735 49.199C21.7747 49.199 21.6775 49.1601 21.6057 49.086C21.4861 48.9634 21.4651 48.7749 21.5556 48.6291L22.2414 47.517L19.5266 49.0845C19.3629 49.1818 19.1475 49.1354 19.0353 48.9776C18.9239 48.8205 18.9493 48.6037 19.0951 48.478L19.4444 48.1759L19.0989 48.3756C18.9583 48.4548 18.7855 48.4391 18.6651 48.3322C18.5447 48.226 18.505 48.0555 18.5671 47.9081L19.0547 46.74C18.8932 46.7871 18.7145 46.7198 18.6277 46.5679C18.5237 46.3892 18.5851 46.1604 18.7646 46.0572L19.6328 45.5561C19.7727 45.4761 19.9455 45.4925 20.0666 45.5995C20.187 45.7057 20.2267 45.8762 20.1646 46.0235L19.6837 47.1745L22.4792 45.5606C22.6445 45.4641 22.8592 45.5105 22.9706 45.6675C23.082 45.8246 23.0566 46.0414 22.9108 46.1671L22.563 46.4677L23.1486 46.1297C23.2959 46.0422 23.4836 46.0691 23.6033 46.1925C23.723 46.3152 23.7439 46.5036 23.6534 46.6495L22.9676 47.7616L23.1658 47.6479C23.3438 47.5432 23.5734 47.6052 23.6766 47.7847C23.7805 47.9635 23.7192 48.1923 23.5397 48.2955L22.0597 49.1503C22.0014 49.1848 21.937 49.2005 21.8727 49.2005L21.8735 49.199Z" fill="#231F20"/>
<path d="M21.06 55.9278C20.9463 55.9278 20.8342 55.8762 20.7616 55.779C20.6487 55.6287 20.6644 55.417 20.8005 55.2854L20.9142 55.1755L19.7168 55.8665C19.5598 55.9592 19.3579 55.9211 19.2412 55.7812C19.1253 55.6406 19.1275 55.4357 19.2472 55.2981L20.3331 54.0477L19.0991 54.7596C18.9555 54.8412 18.7768 54.8217 18.6556 54.7088C18.5359 54.5966 18.5038 54.4171 18.5771 54.2698L18.9675 53.4838C18.8388 53.4815 18.7005 53.4217 18.6279 53.2968C18.524 53.1181 18.5853 52.8892 18.7648 52.786L19.6331 52.2849C19.7752 52.2012 19.9554 52.2221 20.0766 52.3358C20.1962 52.448 20.2284 52.6275 20.1551 52.7748L19.7984 53.492L21.8894 52.2849C22.0465 52.1929 22.2484 52.2296 22.3651 52.3702C22.4817 52.5108 22.4787 52.7157 22.3591 52.8533L21.2732 54.1045L23.1668 53.0111C23.3291 52.9146 23.5377 52.958 23.6521 53.1098C23.7651 53.2602 23.7494 53.4718 23.6133 53.6034L23.3515 53.8562H23.353C23.4824 53.8562 23.608 53.9235 23.6768 54.0432C23.7808 54.2219 23.7195 54.4508 23.54 54.554L21.2462 55.8785C21.1879 55.9129 21.1236 55.9286 21.0593 55.9286L21.06 55.9278Z" fill="#231F20"/>
<path d="M16.2782 29.0255C16.163 29.0255 16.0486 28.9717 15.9768 28.8722C15.8638 28.7182 15.8855 28.5035 16.0261 28.3749L17.5555 26.9816L15.3583 28.2507C15.196 28.3442 14.9858 28.3031 14.8722 28.1513C14.7592 27.9995 14.7764 27.7871 14.914 27.6562L15.7935 26.8171L15.359 27.0676C15.2154 27.1506 15.0352 27.1289 14.9148 27.016C14.7951 26.9023 14.7637 26.7236 14.8378 26.5763L15.2222 25.8127C15.0771 25.8172 14.9582 25.7499 14.8879 25.6257C14.7839 25.447 14.8452 25.2181 15.0247 25.1149L15.8953 24.6123C16.0381 24.5293 16.2191 24.5503 16.3387 24.6639C16.4592 24.7776 16.4906 24.9564 16.4165 25.1037L16.0688 25.7947L18.1247 24.6079C18.2862 24.5144 18.4964 24.5548 18.6108 24.7073C18.7237 24.8591 18.7065 25.0715 18.5689 25.2024L17.6902 26.0415L20.1791 24.6041C20.3436 24.5099 20.5552 24.5525 20.6674 24.7073C20.7804 24.8614 20.7587 25.076 20.6181 25.2047L19.0887 26.5979L22.5491 24.6004C22.7166 24.5032 22.9327 24.551 23.0434 24.7111C23.1534 24.8704 23.1234 25.0887 22.9739 25.2129L21.9194 26.0834L24.4935 24.5966C24.6581 24.5024 24.8682 24.5458 24.9812 24.6983C25.0941 24.8517 25.0739 25.0656 24.9348 25.1949L23.3583 26.6563L26.9324 24.5929C27.0939 24.5009 27.3018 24.5398 27.4155 24.6886C27.5292 24.8375 27.5164 25.0469 27.3841 25.1807L25.6617 26.915L27.66 25.7611C27.8081 25.6758 27.9973 25.702 28.1162 25.8254C28.2352 25.9488 28.2553 26.138 28.1626 26.2838L27.3624 27.5552L27.669 27.378C27.847 27.2748 28.0766 27.3353 28.1798 27.5148C28.2838 27.6936 28.2224 27.9224 28.0429 28.0256L26.4283 28.9582C26.2802 29.0442 26.091 29.0173 25.9721 28.8939C25.8532 28.7698 25.833 28.5813 25.9257 28.4355L26.7259 27.1641L23.6088 28.9642C23.4488 29.0577 23.2409 29.0181 23.1257 28.8685C23.012 28.7197 23.0247 28.5103 23.1571 28.3764L24.8794 26.6421L20.8492 28.9687C20.6861 29.0644 20.4752 29.021 20.3616 28.867C20.2486 28.7137 20.2688 28.4998 20.4079 28.3704L21.9844 26.9091L18.4104 28.9724C18.2436 29.0689 18.0267 29.021 17.916 28.8618C17.8061 28.7025 17.836 28.4841 17.9856 28.3599L19.0401 27.4894L16.4659 28.9762C16.4075 29.0098 16.3432 29.0263 16.2789 29.0263L16.2782 29.0255Z" fill="#2381D9"/>
<path d="M27.6539 59.6901C27.5282 59.6901 27.4063 59.6266 27.3353 59.5129C27.2291 59.3409 27.2792 59.1158 27.4475 59.0036L35.7107 53.5636L27.3256 58.4046C27.1476 58.507 26.9232 58.4479 26.8177 58.2737C26.7123 58.0987 26.7676 57.8721 26.9404 57.7636L28.0398 57.0771L27.3256 57.4892C27.1491 57.5924 26.9247 57.5348 26.8185 57.359C26.713 57.1848 26.7669 56.9582 26.9389 56.849L30.3402 54.7018L27.3256 56.4421C27.1498 56.5446 26.9247 56.4878 26.8192 56.3135C26.713 56.14 26.7654 55.9141 26.9359 55.8035L33.2846 51.7186L27.3248 55.1595C27.1468 55.262 26.9225 55.2029 26.817 55.0279C26.7116 54.8529 26.7669 54.6263 26.9397 54.5179L27.3405 54.2688L27.3248 54.2778C27.1483 54.381 26.9247 54.3227 26.8185 54.1484C26.7123 53.9757 26.7654 53.7491 26.9359 53.6391L32.6766 49.9626L27.3248 53.052C27.1491 53.1545 26.9262 53.0969 26.8192 52.9249C26.713 52.7529 26.7632 52.527 26.9322 52.4156L35.4018 46.8574L27.3241 51.5204C27.1476 51.6228 26.9232 51.5653 26.817 51.3903C26.7116 51.2168 26.7647 50.9901 26.9359 50.881L31.6026 47.9127L27.3233 50.3836C27.1468 50.4868 26.9239 50.4285 26.8163 50.2542C26.7108 50.0807 26.7639 49.8541 26.9352 49.7442L32.1239 46.4341L27.3233 49.205C27.1476 49.3074 26.9239 49.2506 26.817 49.0763C26.7108 48.9043 26.7624 48.6777 26.9322 48.567L34.2135 43.8457L27.3226 47.8237C27.1446 47.9261 26.9202 47.867 26.8148 47.692C26.7093 47.517 26.7647 47.2904 26.9374 47.182L27.4168 46.8843L27.3226 46.9382C27.1468 47.0399 26.9232 46.9838 26.8163 46.8095C26.7101 46.6368 26.7624 46.4109 26.9322 46.3002L34.0033 41.7225L27.3218 45.58C27.1453 45.6832 26.921 45.6257 26.814 45.4492C26.7086 45.2749 26.7632 45.0483 26.9352 44.9399L29.525 43.311L27.3218 44.5831C27.1438 44.6856 26.9195 44.6265 26.814 44.4522C26.7086 44.2772 26.7639 44.0506 26.9367 43.9422L28.0787 43.2287L27.3211 43.6655C27.1453 43.7672 26.9217 43.7104 26.8155 43.5376C26.7086 43.3648 26.7602 43.139 26.9299 43.0283L34.5769 38.052L27.3211 42.2415C27.1453 42.344 26.9217 42.2864 26.8155 42.1137C26.7093 41.9409 26.7602 41.7158 26.9292 41.6044L34.8013 36.471L27.3203 40.7892C27.1438 40.8924 26.9187 40.8333 26.8125 40.6583C26.7071 40.484 26.7624 40.2567 26.9344 40.1482L28.8968 38.918L27.3203 39.8282C27.1446 39.9306 26.921 39.8738 26.814 39.6995C26.7078 39.5275 26.7594 39.3017 26.9292 39.1902L34.2404 34.448L27.3196 38.4431C27.1431 38.5463 26.9202 38.488 26.8125 38.3137C26.7071 38.1402 26.7602 37.9136 26.9307 37.8044L32.3004 34.3739L27.3196 37.2502C27.1431 37.3519 26.9187 37.2951 26.8125 37.1201C26.7071 36.9459 26.7602 36.7192 26.9314 36.6108L31.4097 33.7659L27.3188 36.1277C27.1423 36.2301 26.918 36.1718 26.8118 35.9976C26.7063 35.824 26.7602 35.5974 26.9314 35.4883L31.0911 32.8505L27.3181 35.0291C27.1401 35.1308 26.9157 35.0724 26.8103 34.8974C26.7048 34.7224 26.7602 34.4958 26.9329 34.3874L27.5596 33.997L27.3181 34.1368C27.1416 34.2363 26.9202 34.1817 26.8133 34.0105C26.7063 33.8392 26.7557 33.6141 26.9232 33.5019L36.5162 27.1203L27.3173 32.4309C27.1416 32.5319 26.918 32.4758 26.811 32.3023C26.7048 32.1296 26.7572 31.9037 26.9269 31.793L33.8141 27.3417L27.3166 31.093C27.1401 31.1955 26.9157 31.1371 26.8095 30.9629C26.7041 30.7886 26.7579 30.562 26.9292 30.4528L29.9476 28.545L27.3158 30.0639C27.1393 30.1641 26.9165 30.1088 26.811 29.9368C26.7041 29.7655 26.7542 29.5397 26.9217 29.4282L33.1268 25.3164L27.3151 28.6714C27.1408 28.7724 26.9187 28.7178 26.811 28.5458C26.7041 28.3752 26.7519 28.1509 26.9187 28.0379L32.1606 24.49L27.3151 27.2871C27.1386 27.3873 26.9172 27.3327 26.8103 27.1607C26.7033 26.9894 26.7527 26.7643 26.9202 26.6521L29.2835 25.0771L27.3143 26.2146C27.1431 26.3134 26.9217 26.261 26.814 26.0942C26.7048 25.9275 26.7467 25.7053 26.9075 25.5879L30.7396 22.7984L27.3143 24.7765C27.1423 24.8767 26.9195 24.8221 26.8118 24.6531C26.7041 24.4841 26.7489 24.2604 26.9135 24.146L27.5978 23.6696L27.3143 23.8334C27.1476 23.9306 26.9329 23.8835 26.8215 23.7242C26.7108 23.5657 26.7385 23.3488 26.8858 23.2239L29.0935 21.3565L27.3143 22.384C27.1558 22.4753 26.9524 22.4386 26.835 22.2935C26.7198 22.1492 26.7265 21.9428 26.8514 21.8067L28.06 20.4934L27.3136 20.9242C27.1857 20.999 27.0242 20.9893 26.9045 20.901C26.7848 20.8128 26.7295 20.6624 26.7624 20.5173L26.9905 19.5137C26.9142 19.4838 26.8477 19.4292 26.8035 19.3529C26.6996 19.1742 26.7609 18.9453 26.9404 18.8421L27.3151 18.6252C27.443 18.5512 27.6053 18.5602 27.7242 18.6484C27.8438 18.7367 27.8992 18.887 27.8663 19.0321L27.6815 19.8487L29.8055 18.6222C29.964 18.531 30.1682 18.5684 30.2849 18.7127C30.4001 18.8571 30.3933 19.0635 30.2684 19.1996L29.0599 20.5129L32.3393 18.62C32.5068 18.5243 32.7215 18.5706 32.8321 18.7292C32.9428 18.8877 32.9152 19.1046 32.7678 19.2295L30.5616 21.0954L34.8536 18.617C35.0257 18.5175 35.2485 18.5714 35.3562 18.7404C35.4639 18.9094 35.419 19.133 35.2545 19.2475L34.5702 19.7239L36.4907 18.6148C36.662 18.5145 36.8826 18.5684 36.9911 18.7352C37.1002 18.9019 37.0584 19.1241 36.8976 19.2415L33.064 22.0325L38.9879 18.6125C39.1629 18.5116 39.385 18.5669 39.4927 18.7389C39.5996 18.9102 39.5503 19.1353 39.3828 19.2475L37.021 20.8217L40.8508 18.6103C41.0258 18.5108 41.2472 18.5646 41.3549 18.7359C41.4618 18.9064 41.414 19.1308 41.2472 19.2437L36.0039 22.7931L43.2522 18.608C43.4272 18.5071 43.6509 18.5632 43.7571 18.7352C43.864 18.9064 43.8139 19.1323 43.6464 19.2437L37.442 23.3555L45.6694 18.605C45.8466 18.5041 46.071 18.5609 46.1764 18.7352C46.2819 18.9094 46.228 19.136 46.0568 19.2445L43.0369 21.1545L46.3417 19.246C46.5182 19.145 46.7411 19.2011 46.848 19.3746C46.9542 19.5474 46.9019 19.7732 46.7321 19.8839L39.8449 24.3352L46.3425 20.5832C46.5167 20.4814 46.7396 20.5383 46.8473 20.7095C46.9542 20.8808 46.9049 21.1059 46.7373 21.2181L37.1444 27.6004L46.3439 22.2891C46.5212 22.1866 46.7456 22.2457 46.8518 22.4207C46.9572 22.5957 46.9019 22.8223 46.7291 22.9307L46.1091 23.3174L46.3447 23.1813C46.5219 23.081 46.7463 23.1371 46.8518 23.3114C46.9572 23.4849 46.9034 23.7115 46.7321 23.8207L42.5664 26.4622L46.3462 24.2799C46.5227 24.1797 46.7478 24.2365 46.8532 24.41C46.9587 24.5843 46.9056 24.8109 46.7343 24.9193L42.2651 27.7575L46.3462 25.4017C46.5227 25.3007 46.7471 25.3576 46.8532 25.5311C46.9587 25.7046 46.9056 25.9312 46.7351 26.0404L41.3601 29.4739L46.3469 26.5946C46.5227 26.4936 46.7463 26.5497 46.8532 26.7232C46.9594 26.8959 46.9078 27.1218 46.7381 27.2325L39.4299 31.9733L46.3484 27.9789C46.5257 27.8779 46.7508 27.9347 46.8562 28.1097C46.9617 28.284 46.9063 28.5114 46.7343 28.6198L44.7644 29.8545L46.3492 28.9391C46.5249 28.8389 46.7493 28.895 46.8547 29.067C46.9609 29.2398 46.9101 29.4656 46.7411 29.5763L38.872 34.7082L46.3507 30.39C46.5264 30.2883 46.75 30.3451 46.8562 30.5186C46.9632 30.6914 46.9116 30.9173 46.7418 31.0272L39.0971 36.002L46.3514 31.8132C46.5279 31.7107 46.7538 31.7691 46.8592 31.9448C46.9647 32.1198 46.9093 32.3464 46.7366 32.4541L45.5938 33.1684L46.3529 32.7301C46.5294 32.6291 46.7545 32.6867 46.8607 32.861C46.9662 33.0352 46.9116 33.2626 46.7396 33.371L44.1489 34.9999L46.3537 33.7263C46.5294 33.6246 46.753 33.6814 46.86 33.8549C46.9662 34.0277 46.9138 34.2535 46.7441 34.3642L39.6722 38.9419L46.3552 35.0837C46.5317 34.9812 46.7575 35.0403 46.863 35.2153C46.9684 35.3903 46.9131 35.6176 46.7403 35.7253L46.2609 36.0237L46.3552 35.9691C46.5317 35.8682 46.7545 35.9243 46.8615 36.0978C46.9677 36.2705 46.9161 36.4964 46.7463 36.6071L39.4613 41.3314L46.3574 37.3497C46.5347 37.2487 46.7583 37.3063 46.8645 37.4791C46.9699 37.6526 46.9168 37.8792 46.7456 37.9884L41.5665 41.2925L46.3574 38.5269C46.5347 38.4244 46.759 38.482 46.8645 38.657C46.9699 38.8305 46.9168 39.0571 46.7456 39.1663L42.0729 42.1376L46.3582 39.6636C46.5347 39.5612 46.7568 39.6195 46.8637 39.7908C46.9699 39.9628 46.9198 40.1886 46.7508 40.3001L38.2834 45.8568L46.3597 41.1945C46.5362 41.0921 46.7605 41.1504 46.866 41.3239C46.9722 41.4967 46.9191 41.7233 46.7485 41.8332L41.0034 45.5135L46.3604 42.4203C46.5376 42.3163 46.762 42.3754 46.8682 42.5519C46.9737 42.7262 46.9183 42.9535 46.7456 43.062L46.3522 43.3065L46.3619 43.3013C46.5384 43.1988 46.7628 43.2571 46.8682 43.4299C46.9744 43.6034 46.9221 43.8293 46.7515 43.94L40.3984 48.0278L46.3634 44.5846C46.5399 44.4822 46.765 44.5397 46.8705 44.7148C46.9759 44.8898 46.9221 45.1156 46.75 45.2248L43.354 47.3689L46.3641 45.6309C46.5414 45.5269 46.7657 45.5868 46.8719 45.7618C46.9774 45.9368 46.9221 46.1634 46.7493 46.2718L45.6424 46.9636L46.3656 46.5463C46.5421 46.4438 46.7643 46.5014 46.8712 46.6734C46.9774 46.8454 46.9273 47.0705 46.759 47.1827L38.4928 52.625L46.3664 48.0794C46.5421 47.9762 46.765 48.0346 46.8719 48.2066C46.9781 48.3786 46.928 48.6044 46.759 48.7159L40.9069 52.5652L46.3679 49.4121C46.5436 49.3104 46.7643 49.3665 46.8712 49.5363C46.9789 49.7068 46.9318 49.9304 46.7657 50.0441L40.7708 54.1536L46.3679 50.9228C46.5436 50.8204 46.7665 50.8787 46.8734 51.05C46.9796 51.222 46.9295 51.4478 46.7605 51.5593L45.4084 52.447L46.3686 51.8928C46.5436 51.7919 46.765 51.8465 46.8719 52.017C46.9796 52.1875 46.9325 52.4111 46.7665 52.5255L44.5102 54.0676L46.3679 52.9944C46.5376 52.895 46.7553 52.9466 46.8645 53.1089C46.9744 53.2712 46.94 53.4918 46.7852 53.6122L43.3293 56.3157L46.3694 54.5605C46.5332 54.4648 46.7456 54.5089 46.857 54.6622C46.9699 54.8155 46.9497 55.0294 46.8099 55.1588L44.4922 57.3007L46.3701 56.217C46.5279 56.1243 46.7284 56.1617 46.8465 56.303C46.9624 56.4444 46.9587 56.6493 46.8383 56.7862L45.9147 57.8414L46.3709 57.5774C46.5145 57.4936 46.6954 57.5161 46.8159 57.6298C46.9363 57.7442 46.9662 57.9244 46.8906 58.0718L46.6603 58.5205C46.7508 58.5459 46.8316 58.6057 46.8832 58.6932C46.9864 58.872 46.925 59.1008 46.7456 59.2048L46.0298 59.6176C45.8863 59.6999 45.7053 59.6789 45.5849 59.5645C45.4645 59.4501 45.4345 59.2698 45.5101 59.1225L45.6447 58.86L44.3292 59.6191C44.1721 59.7111 43.9702 59.6752 43.8528 59.5331C43.7369 59.3917 43.7406 59.1868 43.861 59.05L44.7846 57.9955L41.9652 59.6228C41.8029 59.7193 41.5905 59.6744 41.4775 59.5211C41.3646 59.3678 41.3848 59.1539 41.5239 59.0245L43.8431 56.8819L39.0903 59.6258C38.9213 59.7253 38.7029 59.6737 38.5937 59.5114C38.4838 59.3491 38.5182 59.1285 38.673 59.0081L42.1274 56.306L36.3703 59.6296C36.1991 59.732 35.9747 59.6759 35.867 59.5054C35.7593 59.3349 35.8064 59.1113 35.9725 58.9969L38.2295 57.4548L34.458 59.6318C34.2823 59.7335 34.0594 59.6767 33.9525 59.5047C33.8463 59.3327 33.8964 59.1068 34.0654 58.9954L35.4265 58.1017L32.7738 59.6333C32.6003 59.7358 32.3782 59.6797 32.2705 59.5092C32.1628 59.3386 32.2099 59.115 32.3759 59.0014L38.3671 54.894L30.1525 59.637C29.9768 59.7395 29.7539 59.6819 29.647 59.5099C29.5408 59.3379 29.5909 59.112 29.7599 59.0006L35.618 55.1476L27.8378 59.6393C27.7788 59.6737 27.7144 59.6894 27.6509 59.6894L27.6539 59.6901Z" fill="white"/>
<path d="M39.4369 32.7652C39.3083 32.7652 39.1819 32.6986 39.1131 32.5782C39.0092 32.3995 39.0705 32.1706 39.25 32.0674L43.3588 29.6952C43.5151 29.6047 43.7155 29.6391 43.8329 29.7789C43.9489 29.918 43.9489 30.1214 43.8329 30.2598L43.2197 30.9875L43.3603 30.9067C43.5383 30.8035 43.7679 30.8633 43.8711 31.0436C43.975 31.2223 43.9137 31.4512 43.7342 31.5544L41.7456 32.7031C41.5893 32.7936 41.3896 32.7592 41.2715 32.6193C41.1556 32.4802 41.1556 32.2768 41.2715 32.1385L41.8847 31.4108L39.6247 32.7166C39.5656 32.7502 39.5013 32.7667 39.4377 32.7667L39.4369 32.7652Z" fill="#2381D9"/>
<path d="M35.5126 37.2316C35.4004 37.2316 35.289 37.1807 35.2164 37.0857C35.1028 36.9369 35.1155 36.7268 35.2479 36.5936L36.8034 35.0328L34.8029 36.1875C34.6324 36.287 34.4132 36.2354 34.3033 36.0694C34.1941 35.9034 34.2337 35.682 34.3923 35.5638L38.1668 32.7548L34.7932 34.7023C34.6189 34.8032 34.3968 34.7486 34.2891 34.5774C34.1821 34.4069 34.2293 34.1825 34.396 34.0696L34.9704 33.6784L34.7887 33.7839C34.6174 33.8826 34.399 33.831 34.2906 33.6672C34.1814 33.5027 34.218 33.2821 34.3751 33.1624L36.9829 31.1738L34.3497 32.6942C34.1859 32.79 33.9712 32.7458 33.8591 32.588C33.7469 32.4317 33.7723 32.2156 33.9166 32.0892L36.1229 30.156L31.7269 32.695C31.5579 32.7922 31.3402 32.7428 31.231 32.5813C31.1211 32.4198 31.154 32.1999 31.3081 32.078L34.8762 29.2436L30.3171 31.8761C30.1436 31.977 29.9208 31.9217 29.8131 31.7512C29.7061 31.5807 29.7532 31.3563 29.92 31.2434L30.4585 30.8777L30.3179 30.9592C30.1578 31.0527 29.9499 31.013 29.8348 30.8634C29.7211 30.7146 29.7338 30.5045 29.8662 30.3713L30.5834 29.6526L30.3186 29.806C30.172 29.8905 29.9866 29.865 29.8669 29.7454C29.7473 29.625 29.7241 29.4387 29.8093 29.2929L30.1003 28.7978C29.9978 28.7776 29.9043 28.7148 29.849 28.6176C29.745 28.4388 29.8063 28.21 29.9858 28.1068L30.8564 27.6042C31.0022 27.5197 31.1877 27.5436 31.3081 27.6648C31.4277 27.7852 31.4509 27.9714 31.3657 28.1173L31.1697 28.4508L32.6542 27.5937C32.8158 27.5018 33.0229 27.5406 33.1374 27.6895C33.251 27.8383 33.2383 28.0485 33.1059 28.1816L32.3887 28.9003L38.8818 25.1519C39.0568 25.0517 39.2781 25.1071 39.3858 25.2768C39.4928 25.4474 39.4457 25.6717 39.2789 25.7846L38.7434 26.1481L38.8863 26.0658C39.0545 25.9671 39.2729 26.0172 39.3821 26.1795C39.492 26.3411 39.4591 26.5609 39.3051 26.6828L35.737 29.5165L39.0478 27.605C39.2131 27.51 39.4277 27.5549 39.5384 27.7112C39.6506 27.8675 39.6252 28.0836 39.4808 28.21L37.2738 30.144L41.6713 27.605C41.8411 27.5055 42.0602 27.5578 42.1694 27.7216C42.2786 27.8862 42.242 28.1068 42.0849 28.2264L39.4763 30.2158L43.2882 28.0155C43.4625 27.9153 43.6854 27.9699 43.7923 28.1404C43.8992 28.311 43.8521 28.5353 43.6854 28.6482L43.1095 29.0401L43.3608 28.895C43.532 28.7963 43.7512 28.8479 43.8604 29.0132C43.9695 29.1792 43.9299 29.4006 43.7714 29.5188L39.1712 32.9425C39.243 32.9642 39.3088 33.0083 39.3574 33.0719C39.4711 33.2207 39.4584 33.4309 39.326 33.564L37.7704 35.1248L38.8743 34.4876C39.0209 34.4031 39.2093 34.4271 39.329 34.5505C39.4479 34.6731 39.4696 34.8608 39.3798 35.0067L38.8937 35.8009C39.0665 35.7134 39.2849 35.7747 39.3843 35.9482C39.4883 36.127 39.427 36.3558 39.2475 36.459L37.9933 37.183C37.8452 37.2682 37.6575 37.2428 37.5386 37.1201C37.4197 36.9975 37.398 36.8098 37.4877 36.6639L37.9731 35.8712L35.7011 37.183C35.6427 37.2166 35.5784 37.2331 35.5141 37.2331L35.5126 37.2316Z" fill="#2381D9"/>
<path d="M34.6171 28.0641C34.4975 28.0641 34.3793 28.0057 34.3075 27.8995C34.1976 27.7365 34.232 27.5166 34.386 27.3962L34.7338 27.1233C34.582 27.1719 34.4085 27.1203 34.3127 26.9842C34.2013 26.8271 34.2275 26.6102 34.3733 26.4846L35.2072 25.7659L34.8041 25.9992C34.665 26.0792 34.4915 26.0613 34.3718 25.9573C34.2514 25.8519 34.2103 25.6821 34.2708 25.5348L34.7734 24.3C34.6126 24.3531 34.4242 24.2888 34.3329 24.1318C34.229 23.953 34.2903 23.7242 34.4698 23.621L35.3396 23.1184C35.4787 23.0391 35.6522 23.0563 35.7718 23.1603C35.8922 23.265 35.9334 23.4355 35.8728 23.5828L35.3747 24.8063L38.2735 23.1326C38.4402 23.0361 38.6541 23.0832 38.7648 23.2403C38.8762 23.3974 38.8501 23.6142 38.7042 23.7399L37.8704 24.4586L38.8733 23.8797C39.0415 23.781 39.2599 23.8319 39.3698 23.9942C39.4798 24.1572 39.4454 24.3771 39.2913 24.4975L38.9473 24.7682C39.1096 24.7129 39.2995 24.7779 39.3893 24.9357C39.4932 25.1145 39.4319 25.3433 39.2524 25.4465L34.8048 28.0147C34.7465 28.0484 34.6814 28.0648 34.6179 28.0648L34.6171 28.0641Z" fill="#2381D9"/>
<path d="M33.3586 20.0317C33.2389 20.0317 33.1222 19.9742 33.0497 19.8687C32.9398 19.7072 32.9719 19.488 33.1252 19.3661L33.9038 18.7424L31.7566 19.9824C31.5943 20.0759 31.3857 20.0355 31.272 19.8852C31.1583 19.7348 31.1733 19.5239 31.3079 19.3923L32.9719 17.7567L29.1174 19.9824C28.9551 20.0751 28.7472 20.0355 28.6328 19.8852C28.5191 19.7348 28.534 19.5239 28.6687 19.3923L30.3319 17.7575L26.4789 19.9824C26.3158 20.0774 26.1027 20.0347 25.9905 19.8792C25.8776 19.7251 25.8993 19.5105 26.0399 19.3818L27.5356 18.0207L25.1043 19.4245C24.9487 19.5142 24.7468 19.4806 24.6309 19.3407C24.5142 19.2016 24.5142 18.9989 24.6309 18.8598L25.8993 17.3499L25.0848 17.8203C24.9375 17.904 24.752 17.8801 24.6324 17.759C24.5127 17.6378 24.4903 17.4516 24.5763 17.3057L24.8582 16.8301C24.7588 16.8084 24.669 16.7471 24.6144 16.6521C24.5105 16.4734 24.5718 16.2445 24.7513 16.1413L25.6196 15.6395C25.7654 15.5542 25.9524 15.5789 26.072 15.7008C26.1917 15.822 26.2141 16.0082 26.1281 16.154L25.9471 16.4592L27.3659 15.6395C27.5222 15.549 27.7226 15.5834 27.8393 15.7233C27.9559 15.8624 27.9559 16.065 27.8393 16.2041L26.5709 17.7141L30.1636 15.6402C30.3274 15.546 30.5406 15.5894 30.652 15.7434C30.7649 15.8975 30.7432 16.1121 30.6026 16.2408L29.1077 17.6019L32.5045 15.6402C32.6653 15.5468 32.8747 15.5871 32.9891 15.7375C33.1028 15.8878 33.0878 16.0987 32.9532 16.2303L31.2899 17.8652L35.143 15.6402C35.3038 15.5468 35.5132 15.5871 35.6276 15.7375C35.7413 15.887 35.7263 16.0987 35.5917 16.2303L33.9277 17.8659L37.783 15.6395C37.952 15.5415 38.1681 15.5901 38.2788 15.7524C38.3887 15.914 38.3566 16.1331 38.2033 16.255L37.4262 16.878L39.5711 15.6395C39.7342 15.5453 39.9443 15.5871 40.0573 15.7397C40.1709 15.8915 40.1522 16.1047 40.0146 16.2348L38.4194 17.744L42.0645 15.6395C42.2291 15.5445 42.4422 15.5886 42.5544 15.7442C42.6666 15.8997 42.6434 16.1151 42.5006 16.243L41.0811 17.5069L44.3149 15.6395C44.4764 15.5445 44.6866 15.5864 44.8003 15.7382C44.9132 15.8893 44.8975 16.1009 44.7614 16.2326L43.1213 17.8218L46.9003 15.6402C47.0686 15.5423 47.2847 15.5916 47.3954 15.7517C47.5053 15.9125 47.4739 16.1308 47.3228 16.2542L46.4269 16.9819L48.3788 15.8549C48.5404 15.7599 48.7513 15.8018 48.8642 15.9543C48.9779 16.1054 48.9607 16.3178 48.8246 16.4487L47.4238 17.7926L48.5942 17.1165C48.7513 17.026 48.9524 17.0604 49.0691 17.2018C49.185 17.3424 49.1835 17.5458 49.0654 17.6842L48.5882 18.2398L48.5942 18.2369C48.7715 18.1329 49.0018 18.1942 49.105 18.3737C49.209 18.5525 49.1476 18.7813 48.9681 18.8845L47.0663 19.9831C46.91 20.0729 46.7081 20.0385 46.5914 19.8979C46.4755 19.7573 46.477 19.5539 46.5952 19.4155L47.0723 18.8598L45.1271 19.9831C44.9648 20.0759 44.7554 20.0355 44.6417 19.8837C44.528 19.7326 44.5452 19.5202 44.6813 19.3893L46.0829 18.0446L42.7249 19.9831C42.5566 20.0811 42.3405 20.0317 42.2298 19.8717C42.1199 19.7109 42.1513 19.4925 42.3024 19.3691L43.1991 18.6407L40.8739 19.9831C40.7109 20.0766 40.5022 20.0355 40.3886 19.8844C40.2756 19.7333 40.2913 19.5217 40.4275 19.3901L42.0675 17.8008L38.2893 19.9824C38.1255 20.0781 37.9116 20.034 37.7994 19.8777C37.6872 19.7221 37.7104 19.5067 37.8533 19.3789L39.2727 18.1149L36.0389 19.9824C35.8766 20.0766 35.6657 20.0347 35.5528 19.8822C35.4391 19.7304 35.4578 19.5172 35.5954 19.3871L37.1907 17.8779L33.5455 19.9824C33.4872 20.016 33.4221 20.0325 33.3586 20.0325V20.0317Z" fill="#2381D9"/>
<path d="M34.2655 43.2143C34.1735 43.2143 34.0815 43.1799 34.0104 43.1133C33.89 43.0019 33.8571 42.8239 33.9297 42.6758L34.4487 41.6116L31.7653 43.1604C31.6127 43.2509 31.4176 43.2188 31.2994 43.0856C31.182 42.9533 31.1722 42.7573 31.2777 42.6145L32.386 41.1135L31.0661 41.8756C30.921 41.9608 30.7377 41.9362 30.6173 41.8195C30.4969 41.7028 30.4707 41.5203 30.5508 41.3723L30.8821 40.7665C30.7662 40.7545 30.6562 40.6894 30.5941 40.581C30.4902 40.4023 30.5515 40.1734 30.731 40.0702L31.5993 39.5691C31.7444 39.4846 31.9276 39.5078 32.048 39.6252C32.1677 39.7419 32.1946 39.9244 32.1146 40.0725L31.8476 40.5601L33.5654 39.5691C33.718 39.4801 33.914 39.5115 34.0314 39.6439C34.1488 39.7763 34.1585 39.9722 34.0531 40.1151L32.9447 41.6153L35.1345 40.3522C35.2766 40.2699 35.4561 40.2893 35.5765 40.4023C35.6969 40.5137 35.7298 40.6917 35.6572 40.8398L35.1375 41.9047C35.314 41.815 35.5309 41.8771 35.6311 42.0506C35.735 42.2293 35.6737 42.4582 35.4942 42.5614L34.4517 43.1634C34.3933 43.1971 34.329 43.2135 34.2647 43.2135L34.2655 43.2143Z" fill="#231F20"/>
<path d="M40.5617 43.2147C40.4593 43.2147 40.3583 43.1721 40.285 43.0921C40.1669 42.9619 40.1549 42.766 40.2574 42.6232L41.2341 41.2568L38.6203 42.7667C38.4572 42.864 38.2456 42.8191 38.1327 42.6643C38.0197 42.511 38.0399 42.2971 38.1798 42.1677L38.4827 41.8887C38.3488 41.9381 38.1977 41.9059 38.093 41.8042C37.9734 41.6868 37.9472 41.5043 38.0279 41.3563L38.354 40.7677C38.2396 40.7542 38.1326 40.6899 38.0713 40.583C37.9674 40.4042 38.0287 40.1754 38.2082 40.0722L39.0765 39.5711C39.2216 39.4858 39.4048 39.509 39.5259 39.6279C39.6456 39.7453 39.6718 39.9278 39.591 40.0759L39.3337 40.5411L41.0135 39.5711C41.1772 39.4754 41.3881 39.5195 41.5018 39.6736C41.614 39.8269 41.5938 40.0408 41.454 40.1701L41.1705 40.4311L42.3559 39.7468C42.5077 39.6578 42.7007 39.6885 42.8196 39.8194C42.9377 39.9495 42.9497 40.1455 42.8472 40.2883L41.8705 41.6547L42.6102 41.2276C42.7889 41.1229 43.0185 41.1843 43.121 41.3645C43.2249 41.5432 43.1636 41.7721 42.9841 41.8753L40.7495 43.1661C40.6911 43.2005 40.6268 43.2162 40.5625 43.2162L40.5617 43.2147Z" fill="#231F20"/>
<path d="M33.9593 49.9436C33.8614 49.9436 33.7641 49.9047 33.6923 49.8314C33.5734 49.7095 33.5517 49.5218 33.64 49.3767L34.2435 48.382L31.6507 49.8785C31.4839 49.9765 31.2685 49.9286 31.1571 49.7693C31.0464 49.6108 31.0755 49.3931 31.2236 49.2682L31.353 49.1598L31.0838 49.3154C30.9215 49.4096 30.7113 49.3677 30.5977 49.2159C30.4847 49.0641 30.5019 48.8517 30.6395 48.7208L30.9372 48.4366C30.8213 48.4553 30.6979 48.4164 30.6104 48.3267C30.4915 48.2033 30.4713 48.0141 30.564 47.8682L30.8071 47.4816C30.7211 47.4547 30.644 47.3963 30.5962 47.3118C30.4922 47.1331 30.5535 46.9042 30.733 46.801L31.6013 46.2999C31.7494 46.2132 31.9386 46.2409 32.0575 46.3643C32.1764 46.4877 32.1966 46.6769 32.1039 46.8227L31.9992 46.9887L33.1935 46.2999C33.3551 46.2042 33.5652 46.2468 33.6796 46.3994C33.7926 46.5512 33.7754 46.7636 33.6378 46.8945L33.4179 47.1039L34.7012 46.3635C34.8688 46.2648 35.0834 46.3142 35.1948 46.4727C35.3055 46.6312 35.2763 46.8489 35.1283 46.9738L35.0011 47.08L35.132 47.0044C35.2793 46.9177 35.4663 46.9446 35.586 47.0665C35.7049 47.1884 35.7266 47.3761 35.6383 47.5212L35.0348 48.5166L35.1335 48.4598C35.3115 48.3558 35.5411 48.4164 35.6443 48.5967C35.7483 48.7754 35.6869 49.0043 35.5074 49.1075L34.1463 49.8935C34.088 49.9279 34.0237 49.9436 33.9593 49.9436Z" fill="#231F20"/>
<path d="M40.6677 49.9438C40.5547 49.9438 40.4433 49.8929 40.3708 49.7965C40.2571 49.6476 40.2713 49.4367 40.4052 49.3044L40.4642 49.246L39.3417 49.8937C39.1869 49.9842 38.9894 49.9505 38.8713 49.8152C38.7546 49.6791 38.7501 49.4794 38.8616 49.338L39.9789 47.9268L38.5415 48.7562C38.3986 48.8369 38.2176 48.8175 38.098 48.7046C37.9776 48.5916 37.9462 48.4129 38.0202 48.2648L38.4054 47.499C38.27 47.499 38.1406 47.4354 38.0711 47.312C37.9671 47.1333 38.0284 46.9044 38.2079 46.8012L39.0762 46.3002C39.2175 46.2157 39.3993 46.2381 39.5197 46.3518C39.6401 46.4647 39.6715 46.6442 39.5975 46.7915L39.249 47.4848L41.3019 46.3002C41.4559 46.2089 41.6534 46.2426 41.7723 46.3787C41.8889 46.5148 41.8934 46.7145 41.782 46.8558L40.6647 48.2671L42.6106 47.1438C42.7722 47.048 42.9801 47.0899 43.0945 47.241C43.2082 47.3898 43.194 47.6007 43.0601 47.7331L42.823 47.9672C42.9427 47.9761 43.0564 48.042 43.1207 48.1534C43.2246 48.3321 43.1633 48.561 42.9838 48.6642L40.8546 49.8937C40.7963 49.9281 40.732 49.9438 40.6677 49.9438Z" fill="#231F20"/>
<path d="M34.8175 59.6832C34.7 59.6832 34.5841 59.6279 34.5123 59.5247C34.4009 59.3669 34.4286 59.1493 34.5751 59.0244L37.1792 56.8099L33.3082 59.0446C33.1385 59.1448 32.9209 59.0917 32.8117 58.9309C32.7017 58.7679 32.7361 58.548 32.8902 58.4268L36.1719 55.8534L33.3082 57.5069C33.1377 57.6064 32.9186 57.5541 32.8102 57.3903C32.701 57.2257 32.7376 57.0051 32.8947 56.8855L34.2199 55.8788L33.3075 56.4053C33.1415 56.5018 32.9261 56.4554 32.8147 56.2961C32.704 56.1376 32.7316 55.9207 32.8797 55.7958L33.8063 55.012L33.3075 55.3C33.149 55.3935 32.9448 55.3538 32.8289 55.211C32.7137 55.0674 32.7197 54.8602 32.8446 54.7241L33.3845 54.1348L33.3075 54.1789C33.1744 54.2559 33.0098 54.244 32.8879 54.149C32.7683 54.0533 32.7174 53.8947 32.7623 53.7481L32.941 53.1506C32.8827 53.1184 32.8319 53.0713 32.7967 53.0092C32.6928 52.8305 32.7541 52.6016 32.9336 52.4984L33.309 52.2816C33.4414 52.2053 33.6074 52.2172 33.7286 52.3115C33.8482 52.4072 33.8991 52.5657 33.8542 52.7123L33.7495 53.0601L35.1076 52.2763C35.2662 52.1828 35.4696 52.2225 35.5863 52.3653C35.7014 52.5089 35.6955 52.7161 35.5706 52.8522L35.0306 53.4423L37.0611 52.2703C37.2286 52.1731 37.4432 52.221 37.5539 52.3795C37.6646 52.5381 37.6369 52.755 37.4889 52.8799L36.5622 53.6636L38.9846 52.2651C39.1551 52.1641 39.3735 52.2172 39.4827 52.3818C39.5919 52.5463 39.5552 52.7669 39.3982 52.8866L38.0737 53.8917L40.3674 52.5672C40.5372 52.4678 40.7548 52.5194 40.864 52.6809C40.9739 52.844 40.9395 53.0638 40.7855 53.185L37.5016 55.7599L40.3727 54.1026C40.5402 54.0054 40.7541 54.0525 40.8647 54.2111C40.9762 54.3689 40.9485 54.5865 40.8019 54.7114L38.1986 56.9251L40.3779 55.6664C40.5462 55.5677 40.7615 55.6178 40.8722 55.7771C40.9829 55.9364 40.9523 56.1548 40.8019 56.2789L40.2822 56.706L40.3809 56.6491C40.5357 56.5594 40.7324 56.5923 40.8498 56.7269C40.9672 56.8615 40.9724 57.0605 40.8633 57.2018L40.2298 58.0162L40.3854 57.9265C40.5626 57.8218 40.793 57.8831 40.8962 58.0634C41.0001 58.2421 40.9388 58.4709 40.7593 58.5742L38.9457 59.6212C38.7924 59.7124 38.595 59.6788 38.4768 59.5434C38.3594 59.4088 38.3541 59.2098 38.4633 59.0685L39.0968 58.2541L36.7171 59.6279C36.5495 59.7266 36.3334 59.6765 36.2227 59.5172C36.112 59.3579 36.1427 59.1395 36.293 59.0154L36.8135 58.5876L35.0022 59.6331C34.9438 59.6675 34.8788 59.6832 34.8152 59.6832H34.8175Z" fill="#231F20"/>
<path d="M44.0999 28.5569C43.6976 26.7344 40.9813 27.845 39.6246 27.5563C39.33 26.1443 40.4869 23.4093 38.5013 23.0691C34.1068 22.7168 33.7531 23.253 34.047 27.5563C30.4722 27.3992 28.9764 27.2908 29.5605 31.4534C29.7086 33.5939 32.6231 32.4743 34.047 32.7413C34.3417 34.1533 33.1847 36.8882 35.1703 37.2285C39.5656 37.5808 39.9186 37.0445 39.6246 32.7413C43.6923 32.9926 44.4836 32.8669 44.0999 28.5569ZM42.9437 32.0435C41.6222 32.3247 39.5461 31.4811 38.5342 32.4474C38.4811 33.7704 38.6315 35.2444 38.5013 36.5308C38.0294 36.5883 37.4633 36.4986 36.9697 36.5308C33.5325 37.3975 36.1261 33.1795 34.7919 32.0435C33.5385 31.7728 31.4444 32.653 30.6502 31.5828C30.6621 30.5313 30.5178 29.236 30.7481 28.2548C34.3813 28.0544 35.5764 29.4649 35.1367 24.8527C35.1389 24.2918 34.8831 23.4991 35.7641 23.7676C39.76 23.1827 38.2785 25.1212 38.5335 27.9609C41.8518 29.337 43.6669 25.8796 42.9437 32.0435Z" fill="#262626"/>
<path d="M19.5214 42.4103C20.9147 42.2121 23.8852 43.1537 23.9159 41.0058C23.9181 40.2138 24.1522 39.0112 23.082 38.8504C21.6551 38.9618 19.914 38.4166 18.6741 39.2647C18.0735 40.145 17.9726 42.521 19.5214 42.4103ZM19.4287 40.5645C19.4705 40.1779 19.3135 39.7591 19.5595 39.4188C21.8331 39.4906 23.4971 38.6934 22.7133 41.821C21.5324 41.6183 19.0203 42.5688 19.4287 40.5645Z" fill="#262626"/>
<path d="M19.5214 49.1759C20.9147 48.9777 23.8852 49.9193 23.9159 47.7714C23.9181 46.9794 24.1522 45.7768 23.082 45.616C21.6551 45.7275 19.914 45.1823 18.6741 46.0304C18.0735 46.9106 17.9726 49.2873 19.5214 49.1767V49.1759ZM19.4287 47.3302C19.4705 46.9435 19.3135 46.5247 19.5595 46.1844C21.8331 46.2562 23.4971 45.459 22.7133 48.5866C21.5324 48.3839 19.0203 49.3345 19.4287 47.3302Z" fill="#262626"/>
<path d="M19.5214 35.6857C20.9147 35.4875 23.8852 36.4291 23.9159 34.2812C23.9181 33.4892 24.1522 32.2866 23.082 32.1258C21.6551 32.2372 19.914 31.692 18.6741 32.5401C18.0735 33.4204 17.9726 35.7964 19.5214 35.6857ZM19.4287 33.8399C19.4705 33.4533 19.3135 33.0345 19.5595 32.6942C21.8331 32.766 23.4971 31.9687 22.7133 35.0963C21.5324 34.8937 19.0203 35.8442 19.4287 33.8399Z" fill="#262626"/>
<path d="M19.5214 55.9401C20.9147 55.7419 23.8852 56.6835 23.9159 54.5356C23.9181 53.7436 24.1522 52.541 23.082 52.3802C21.6551 52.4916 19.914 51.9464 18.6741 52.7945C18.0735 53.6748 17.9726 56.0508 19.5214 55.9401ZM19.4287 54.0943C19.4705 53.7077 19.3135 53.2889 19.5595 52.9486C21.8331 53.0204 23.4971 52.2231 22.7133 55.3507C21.5324 55.1481 19.0203 56.0986 19.4287 54.0943Z" fill="#262626"/>
<path d="M50.8193 42.4103C52.2125 42.2121 55.1831 43.1537 55.2137 41.0058C55.216 40.2138 55.4501 39.0112 54.3799 38.8504C52.9529 38.9618 51.2119 38.4166 49.9719 39.2647C49.3714 40.145 49.2704 42.521 50.8193 42.4103ZM50.7265 40.5645C50.7684 40.1779 50.6113 39.7591 50.8574 39.4188C53.1309 39.4906 54.7949 38.6934 54.0112 41.821C52.8303 41.6183 50.3182 42.5688 50.7265 40.5645Z" fill="#262626"/>
<path d="M50.8202 49.1759C52.2135 48.9777 55.1841 49.9193 55.2147 47.7714C55.217 46.9794 55.4511 45.7768 54.3808 45.616C52.9539 45.7275 51.2129 45.1823 49.9729 46.0304C49.3723 46.9106 49.2714 49.2873 50.8202 49.1767V49.1759ZM50.7275 47.3302C50.7694 46.9435 50.6123 46.5247 50.8584 46.1844C53.1319 46.2562 54.7959 45.459 54.0121 48.5866C52.8313 48.3839 50.3192 49.3345 50.7275 47.3302Z" fill="#262626"/>
<path d="M38.9941 43.108C40.3873 42.9098 43.3579 43.8514 43.3886 41.7035C43.3908 40.9115 43.6249 39.709 42.5547 39.5482C41.1277 39.6596 39.3867 39.1144 38.1467 39.9625C37.5462 40.8427 37.4452 43.2187 38.9941 43.108ZM38.9013 41.2623C38.9432 40.8756 38.7861 40.4568 39.0322 40.1165C41.3057 40.1883 42.9697 39.3911 42.186 42.5187C41.0051 42.316 38.493 43.2666 38.9013 41.2623Z" fill="#262626"/>
<path d="M38.9931 49.8717C40.3864 49.6735 43.3569 50.6151 43.3876 48.4672C43.3898 47.6752 43.6239 46.4726 42.5537 46.3118C41.1268 46.4233 39.3857 45.8781 38.1457 46.7262C37.5452 47.6064 37.4442 49.9824 38.9931 49.8717ZM38.9003 48.026C38.9422 47.6393 38.7852 47.2205 39.0312 46.8802C41.3048 46.952 42.9688 46.1548 42.185 49.2824C41.0041 49.0797 38.492 50.0303 38.9003 48.026Z" fill="#262626"/>
<path d="M31.5155 43.108C32.9088 42.9098 35.8794 43.8514 35.91 41.7035C35.9123 40.9115 36.1464 39.709 35.0762 39.5482C33.6492 39.6596 31.9082 39.1144 30.6682 39.9625C30.0677 40.8427 29.9667 43.2187 31.5155 43.108ZM31.4228 41.2623C31.4647 40.8756 31.3076 40.4568 31.5537 40.1165C33.8272 40.1883 35.4912 39.3911 34.7075 42.5187C33.5266 42.316 31.0145 43.2666 31.4228 41.2623Z" fill="#262626"/>
<path d="M31.5155 49.8717C32.9088 49.6735 35.8794 50.6151 35.91 48.4672C35.9123 47.6752 36.1464 46.4726 35.0762 46.3118C33.6492 46.4233 31.9082 45.8781 30.6682 46.7262C30.0677 47.6064 29.9667 49.9824 31.5155 49.8717ZM31.4228 48.026C31.4647 47.6393 31.3076 47.2205 31.5537 46.8802C33.8272 46.952 35.4912 46.1548 34.7075 49.2824C33.5266 49.0797 31.0145 50.0303 31.4228 48.026Z" fill="#262626"/>
<path d="M50.8202 35.6857C52.2135 35.4875 55.1841 36.4291 55.2147 34.2812C55.217 33.4892 55.4511 32.2866 54.3808 32.1258C52.9539 32.2372 51.2129 31.692 49.9729 32.5401C49.3723 33.4204 49.2714 35.7964 50.8202 35.6857ZM50.7275 33.8399C50.7694 33.4533 50.6123 33.0345 50.8584 32.6942C53.1319 32.766 54.7959 31.9687 54.0121 35.0963C52.8313 34.8937 50.3192 35.8442 50.7275 33.8399Z" fill="#262626"/>
<path d="M50.8193 55.9406C52.2125 55.7424 55.1831 56.6839 55.2137 54.5361C55.216 53.7441 55.4501 52.5415 54.3799 52.3807C52.9529 52.4921 51.2119 51.9469 49.9719 52.795C49.3714 53.6752 49.2704 56.0512 50.8193 55.9406ZM50.7265 54.0948C50.7684 53.7082 50.6113 53.2893 50.8574 52.9491C53.1309 53.0209 54.7949 52.2236 54.0112 55.3512C52.8303 55.1486 50.3182 56.0991 50.7265 54.0948Z" fill="#262626"/>
<path d="M57.4971 24.7099H47.1062V20.0267C48.9489 20.3146 49.5779 19.0208 49.346 17.386C49.6953 14.6069 46.1511 15.7848 44.4632 15.5918C39.5354 15.5918 34.6077 15.5918 29.68 15.5918C27.9823 15.8543 24.4352 14.5889 24.3245 17.1661C24.0687 18.964 24.4037 20.4485 26.5651 20.0274V24.7061C23.7127 25.3246 15.7494 23.1872 14.6059 25.9439C14.6029 33.6193 14.6081 41.2977 14.6059 48.9738C14.294 63.4467 13.5267 58.7942 26.6077 59.5256C33.2032 59.8741 40.3417 59.8786 46.9603 59.5211C57.1187 58.5488 59.9441 63.6254 59.0654 51.4725C59.0654 43.8449 59.0654 36.2174 59.0654 28.5898C58.9846 27.1726 59.8185 24.3277 57.4971 24.7099ZM51.6241 25.1182C53.5379 25.1855 55.5048 25.006 57.3939 25.1182C58.4791 25.555 57.8538 27.4987 57.9825 28.4088H47.1069V25.1182H51.6248H51.6241ZM25.8681 19.3312C25.1045 19.1218 25.4134 17.5131 25.4141 16.9155C25.4156 16.3404 25.3221 16.2881 25.8584 16.2881C33.18 16.2971 40.5451 16.2754 47.8451 16.2881C48.4202 16.4698 48.2556 17.2297 48.2556 17.6791C48.2556 17.8242 48.3835 19.2766 48.1173 19.3319C40.7298 19.3222 33.2384 19.3401 25.8673 19.3319L25.8681 19.3312ZM15.605 25.1227C19.2277 25.1003 22.92 25.1384 26.5651 25.1227V28.2869H15.7015C15.7711 27.2496 15.7711 26.0695 15.605 25.1227ZM18.2181 59.1083C15.9378 59.5054 15.3612 58.7448 15.6895 56.4952C15.6895 47.3375 15.6895 38.1791 15.6895 29.0206H26.5651V59.1083H18.2181ZM33.6407 52.9174H36.2927V58.9243H33.6407V52.9174ZM40.0074 52.9174H40.0335V58.9243H37.3793V52.9174H40.0074ZM41.1172 58.9243V52.9174C44.2657 51.7582 34.4656 52.4013 33.6654 52.254C33.0865 52.3236 32.2504 52.0349 31.8406 52.5599C31.691 52.9929 32.2811 52.9144 32.5526 52.9174V58.9243H27.6622V20.0267H46.0098V58.9235H41.1172V58.9243ZM58.0677 59.1127C54.445 59.1352 50.752 59.097 47.1069 59.1127V28.898H57.9825C58.0834 38.9411 57.7955 49.1488 58.0677 59.1127Z" fill="#262626"/>
</g>
<defs>
<linearGradient id="paint0_linear_670_6531" x1="-3.34263e-07" y1="-10.6277" x2="90.5319" y2="94.4681" gradientUnits="userSpaceOnUse">
<stop stop-color="#E3F1FF"/>
<stop offset="1" stop-color="#77B2EA"/>
</linearGradient>
<clipPath id="clip0_670_6531">
<rect width="44.8723" height="44.8723" fill="white" transform="translate(14.4023 15.1929)"/>
</clipPath>
</defs>
</svg>
