<svg xmlns="http://www.w3.org/2000/svg" width="74" height="74" fill="none" viewBox="0 0 74 74"><circle cx="37" cy="37" r="37" fill="#BCDABF"/><g clip-path="url(#a)"><path fill="#fff" d="M29.566 59.474a.374.374 0 0 1-.197-.692l.243-.15-1.376.79a.373.373 0 0 1-.386-.64l4.517-2.83-6.007 3.47a.374.374 0 0 1-.387-.64l8.545-5.408-9.56 5.516a.374.374 0 0 1-.383-.641l3.775-2.33-3.42 1.973a.374.374 0 0 1-.383-.64l5.833-3.628-5.45 3.147a.374.374 0 1 1-.386-.64l10.422-6.616-10.036 5.793a.374.374 0 0 1-.387-.638l11.191-7.143-10.804 6.236a.374.374 0 0 1-.388-.638l11.312-7.226-10.923 6.307a.374.374 0 0 1-.383-.641l3.778-2.334-3.396 1.964a.374.374 0 0 1-.386-.64L34.65 44.15l-9.722 5.609a.374.374 0 0 1-.381-.643l.885-.542-.504.29a.374.374 0 0 1-.383-.642l3.701-2.284-3.315 1.915a.374.374 0 0 1-.388-.639l11.197-7.146-10.81 6.24a.374.374 0 0 1-.387-.638l10.897-6.94-10.51 6.066a.374.374 0 0 1-.383-.641l5.203-3.227-4.82 2.782a.373.373 0 1 1-.384-.641l6.22-3.872-5.833 3.37a.374.374 0 1 1-.385-.644l2.583-1.59-2.2 1.27a.374.374 0 0 1-.39-.636l10.62-6.854-10.23 5.908a.373.373 0 0 1-.389-.638l7.06-4.512-6.672 3.85a.374.374 0 0 1-.391-.637l7.506-4.921-7.115 4.107a.374.374 0 0 1-.39-.636l5.099-3.335-4.709 2.716a.374.374 0 0 1-.401-.63l6.462-4.52-6.058 3.498a.374.374 0 0 1-.391-.636l.958-.63-.567.328a.374.374 0 0 1-.396-.634l1.476-.998-1.08.622a.373.373 0 0 1-.412-.622l2.9-2.187-2.488 1.435a.374.374 0 0 1-.419-.616l1.698-1.351-1.279.738a.373.373 0 0 1-.448-.592l1.196-1.163-.748.43a.374.374 0 0 1-.485-.55l.462-.61a.374.374 0 0 1-.137-.695l1.239-.715a.374.374 0 0 1 .485.548l-.341.45 1.737-1.003a.373.373 0 0 1 .448.591l-1.196 1.163 3.04-1.746a.374.374 0 0 1 .42.616l-1.696 1.349 3.406-1.967a.373.373 0 0 1 .412.622l-2.9 2.188 4.867-2.808a.374.374 0 0 1 .397.632l-1.476.998 2.828-1.63a.373.373 0 0 1 .392.635l-.955.627 2.188-1.262a.374.374 0 0 1 .401.63l-6.464 4.519 8.925-5.15a.373.373 0 0 1 .39.637l-5.094 3.327 6.873-3.963a.374.374 0 0 1 .393.635l-7.51 4.92 9.63-5.555a.373.373 0 0 1 .387.637l-7.056 4.51 8.916-5.147a.374.374 0 0 1 .39.637l-10.614 6.849 11.989-6.922a.373.373 0 1 1 .383.642l-2.59 1.595 2.511-1.45a.374.374 0 1 1 .386.641l-6.215 3.868 5.84-3.371a.374.374 0 0 1 .383.64l-5.204 3.227 4.82-2.783a.374.374 0 0 1 .387.639L39.43 37.074l10.51-6.07a.374.374 0 0 1 .386.64l-11.197 7.148 10.81-6.241a.374.374 0 0 1 .383.642l-3.717 2.298 3.334-1.925a.374.374 0 0 1 .381.643l-.866.53.485-.279a.373.373 0 0 1 .387.639l-10.107 6.403 9.722-5.609a.373.373 0 0 1 .383.642l-3.779 2.332 3.396-1.96a.374.374 0 0 1 .388.639l-11.323 7.227 10.933-6.31a.374.374 0 0 1 .387.639l-11.184 7.137 10.797-6.233a.374.374 0 0 1 .387.639l-10.42 6.617 10.033-5.789a.374.374 0 0 1 .384.641l-5.848 3.635 5.464-3.154a.374.374 0 0 1 .383.642l-3.775 2.327 3.392-1.958a.374.374 0 0 1 .387.64l-8.542 5.41 8.155-4.712a.374.374 0 0 1 .385.64l-4.513 2.833 4.128-2.382a.373.373 0 0 1 .384.641l-.338.21a.374.374 0 0 1 .342.661l-4.72 3.02 4.332-2.5a.374.374 0 0 1 .389.637l-3.32 2.128 2.929-1.691a.374.374 0 0 1 .392.636l-3.873 2.547 3.483-2.01a.374.374 0 0 1 .39.637l-.972.632.584-.336a.374.374 0 0 1 .403.629l-4.062 2.877 3.66-2.111a.374.374 0 0 1 .395.633l-.322.218a.374.374 0 0 1 .34.653L48.11 55.86l1.833-1.057a.374.374 0 0 1 .42.616l-1.058.842.638-.368a.374.374 0 0 1 .436.598l-.523.466.087-.049a.374.374 0 0 1 .507.515l-.399.673a.38.38 0 0 1 .392.18.374.374 0 0 1-.137.511l-1.1.635a.374.374 0 0 1-.509-.514l.374-.633-1.99 1.147a.374.374 0 0 1-.436-.598l.524-.466-1.853 1.064a.374.374 0 0 1-.42-.616l1.064-.841-2.532 1.457a.374.374 0 0 1-.414-.62l2.243-1.714-4.04 2.334a.374.374 0 0 1-.396-.632l.225-.15-1.36.782a.374.374 0 0 1-.403-.628l4.06-2.875-6.073 3.503a.374.374 0 0 1-.39-.637l.98-.635-2.206 1.27a.374.374 0 0 1-.391-.635l3.875-2.547-5.518 3.184a.374.374 0 0 1-.389-.638l3.314-2.126-4.79 2.767a.373.373 0 0 1-.388-.638l4.721-3.02-6.335 3.655a.4.4 0 0 1-.187.053"/><path fill="#3D3B33" d="M38.852 23.338a.374.374 0 0 1-.317-.572l.098-.155-.41.235a.373.373 0 0 1-.47-.567l1.117-1.308-3.722 2.148a.374.374 0 0 1-.41-.623l.832-.616-.3.17a.373.373 0 0 1-.422-.613l.902-.734-.29.168a.374.374 0 0 1-.442-.598l.877-.815-1.16.67a.374.374 0 0 1-.56-.331l.019-1.002-.278.16a.374.374 0 1 1-.374-.647l.852-.491a.374.374 0 0 1 .561.33l-.02 1.002 3.45-1.99a.374.374 0 0 1 .44.598l-.874.812 1.477-.852a.374.374 0 0 1 .422.613l-.897.734 1.834-1.058a.374.374 0 0 1 .41.624l-.831.616.018-.01a.374.374 0 0 1 .471.567l-1.167 1.362a.374.374 0 0 1 .378.566l-.164.26a.374.374 0 0 1 .17.698l-1.033.598a.4.4 0 0 1-.187.05"/><path fill="#3D3B33" d="M36.25 17.976a.374.374 0 0 1-.298-.598l.684-.897a.374.374 0 0 1 .081-.586l.718-.413a.375.375 0 0 1 .468.075.374.374 0 0 1 .017.473l-.24.317.25-.145a.375.375 0 1 1 .374.647l-1.866 1.077a.37.37 0 0 1-.187.05M28.672 23.495a.374.374 0 0 1-.347-.514l.212-.524-.727.418a.374.374 0 0 1-.474-.563l1.288-1.542-3.959 2.284a.374.374 0 0 1-.428-.608l2.215-1.87-1.556.897a.374.374 0 0 1-.46-.58l1.67-1.773-1.807 1.04a.373.373 0 0 1-.56-.323v-1.05l-.291.168a.376.376 0 0 1-.525-.129.375.375 0 0 1 .15-.518l.852-.492a.374.374 0 0 1 .561.324v1.048l3.452-1.988a.374.374 0 0 1 .46.58l-1.674 1.774 2.987-1.724a.374.374 0 0 1 .428.61l-2.216 1.87 2.149-1.241a.374.374 0 0 1 .474.563l-1.327 1.592a.38.38 0 0 1 .433.28.38.38 0 0 1-.016.227l-.224.566a.37.37 0 0 1 .369.184.374.374 0 0 1-.137.51l-.781.45a.4.4 0 0 1-.191.054"/><path fill="#3D3B33" d="M25.78 17.976a.374.374 0 0 1-.299-.598l.684-.897a.374.374 0 0 1 .082-.586l.718-.413a.375.375 0 0 1 .467.075.374.374 0 0 1 .017.473l-.24.317.25-.145a.375.375 0 1 1 .375.647l-1.867 1.077a.37.37 0 0 1-.187.05M49.705 23.536a.375.375 0 0 1-.345-.517l.133-.32-.519.299a.374.374 0 0 1-.498-.53l.783-1.186-3.541 2.044a.374.374 0 0 1-.42-.616l1.905-1.51-1.46.844a.374.374 0 0 1-.448-.593L47 19.814l-1.339.777a.373.373 0 0 1-.453-.586l1.38-1.409-1.845 1.063a.374.374 0 0 1-.532-.466l.083-.2a.374.374 0 0 1-.282-.685l.852-.492a.373.373 0 0 1 .532.466l-.075.18 3.257-1.88a.373.373 0 0 1 .455.585l-1.382 1.41 1.649-.952a.374.374 0 0 1 .448.593l-1.705 1.637 3.21-1.853a.374.374 0 0 1 .419.617l-1.908 1.51.497-.285a.374.374 0 0 1 .498.529l-.785 1.185.104-.06a.374.374 0 0 1 .532.467l-.18.434a.374.374 0 0 1 .142.694l-.68.393a.4.4 0 0 1-.187.05"/><path fill="#3D3B33" d="M46.72 17.976a.374.374 0 0 1-.3-.598l.685-.897a.374.374 0 0 1 .082-.586l.717-.413a.374.374 0 0 1 .56.309.37.37 0 0 1-.075.24l-.241.316.251-.145a.374.374 0 1 1 .374.647l-1.866 1.077a.37.37 0 0 1-.187.05"/><path fill="#00AF1A" d="M29.27 34.047a.374.374 0 0 1-.27-.633l1.068-1.108-2.094 1.21a.374.374 0 0 1-.44-.597l1.627-1.496-1.235.713a.374.374 0 0 1-.449-.587l.583-.587-.131.075a.374.374 0 0 1-.506-.518l.261-.427a.374.374 0 0 1-.09-.684l.869-.502a.374.374 0 0 1 .506.519l-.141.23 1.298-.748a.374.374 0 0 1 .449.587l-.584.586 1.74-1.004a.374.374 0 0 1 .44.598l-1.627 1.495 1.447-.839a.374.374 0 0 1 .456.583l-1.07 1.11.613-.353a.374.374 0 0 1 .515.502l-.339.628a.37.37 0 0 1 .295.185.373.373 0 0 1-.137.51l-.868.501a.374.374 0 0 1-.516-.5l.28-.518-1.763 1.017a.37.37 0 0 1-.187.052M37.265 34.047A.374.374 0 0 1 37 33.41l.435-.439-1.638.949a.374.374 0 0 1-.45-.59l1.918-1.897-1.864 1.071a.374.374 0 0 1-.462-.575l1.06-1.155-.599.345a.374.374 0 0 1-.51-.512l.294-.508a.374.374 0 0 1-.118-.69l.868-.501a.374.374 0 0 1 .51.51l-.203.352 1.495-.862a.374.374 0 0 1 .463.576l-1.063 1.154 2.263-1.306a.374.374 0 0 1 .449.59l-1.914 1.897 1.535-.886a.374.374 0 0 1 .453.586l-.437.442a.374.374 0 0 1 .358.656l-2.393 1.38a.37.37 0 0 1-.185.05M44.95 34.048a.374.374 0 0 1-.286-.616l.803-.951-2.329 1.346a.374.374 0 0 1-.449-.587l2.026-2.04-1.836 1.055a.374.374 0 0 1-.465-.572l.859-.963-.394.225a.374.374 0 0 1-.5-.528l.22-.337a.374.374 0 0 1-.054-.673l.868-.5a.375.375 0 0 1 .5.527l-.052.082 1.053-.606a.374.374 0 0 1 .465.572l-.858.962 2.237-1.291a.373.373 0 0 1 .448.587l-2.024 2.04 1.76-1.015a.374.374 0 0 1 .472.564l-.805.951.333-.19a.374.374 0 0 1 .373.647l-2.177 1.258a.37.37 0 0 1-.189.053M29.881 41.526a.372.372 0 0 1-.37-.432.37.37 0 0 1 .091-.191l.748-.836-2.159 1.246a.374.374 0 0 1-.448-.594l1.84-1.755-1.66.957a.374.374 0 0 1-.437-.599l.553-.496-.116.066a.374.374 0 0 1-.524-.487l.4-.818a.38.38 0 0 1-.348-.186.374.374 0 0 1 .137-.51l.868-.502a.37.37 0 0 1 .442.05.37.37 0 0 1 .08.438l-.368.753 2.155-1.242a.374.374 0 0 1 .436.598l-.552.495 1.252-.72a.374.374 0 0 1 .444.595L30.51 39.11l1.48-.853a.374.374 0 0 1 .466.572l-.748.836.28-.161a.374.374 0 0 1 .374.647l-2.29 1.321a.37.37 0 0 1-.19.053M35.998 41.526a.373.373 0 0 1-.241-.66l.428-.361-.757.436a.374.374 0 0 1-.428-.609l1.089-.918-.685.395a.374.374 0 0 1-.46-.58l.873-.93-.413.24a.373.373 0 0 1-.507-.518l.27-.45a.374.374 0 0 1-.098-.686l.869-.5a.374.374 0 0 1 .507.516l-.158.262 1.346-.779a.374.374 0 0 1 .46.58l-.873.929 2.104-1.215a.374.374 0 0 1 .43.61l-1.086.917.801-.462a.374.374 0 0 1 .428.61l-.429.36a.374.374 0 0 1 .507.517l-.523.87.017-.01a.374.374 0 0 1 .374.647l-1.271.736a.374.374 0 0 1-.508-.516l.523-.87-2.402 1.386a.37.37 0 0 1-.187.053M45.332 41.526a.374.374 0 0 1-.292-.608l.56-.699-2.148 1.24a.374.374 0 0 1-.453-.587l1.88-1.896-2 1.151a.374.374 0 0 1-.444-.598l.972-.92-.523.304a.375.375 0 0 1-.523-.486l.409-.85a.374.374 0 0 1-.22-.695l.868-.501a.373.373 0 0 1 .523.485l-.381.794 2.211-1.272a.374.374 0 0 1 .445.598l-.969.913 1.676-.967a.375.375 0 0 1 .453.586l-1.88 1.897 1.451-.837a.374.374 0 0 1 .479.557l-.56.7.081-.047a.374.374 0 0 1 .374.647l-1.802 1.038a.4.4 0 0 1-.187.053M28.62 49.004a.374.374 0 0 1-.251-.652l.915-.821-1.352.777a.374.374 0 0 1-.43-.607l1.146-.984-.725.419a.374.374 0 0 1-.432-.606l.262-.224a.4.4 0 0 1-.275-.103.375.375 0 0 1-.075-.444l.362-.693a.374.374 0 0 1-.178-.697l.869-.501a.374.374 0 0 1 .518.496l-.314.599 1.904-1.097a.374.374 0 0 1 .433.605l-.095.083.854-.493a.374.374 0 0 1 .43.608l-1.147.984.952-.55a.374.374 0 0 1 .438.6l-.916.822.478-.275a.373.373 0 0 1 .524.484l-.464.985a.374.374 0 0 1 .3.681l-.958.553a.375.375 0 0 1-.524-.484l.461-.972-2.524 1.455a.37.37 0 0 1-.187.052M36.698 49.004a.375.375 0 0 1-.282-.62l1.483-1.702-2.498 1.442a.374.374 0 0 1-.425-.611l.71-.587-.285.165a.374.374 0 0 1-.44-.598l.337-.306a.37.37 0 0 1-.346-.098.374.374 0 0 1-.065-.449l.322-.58a.373.373 0 0 1-.143-.693l.869-.502a.374.374 0 0 1 .513.506l-.25.449 1.657-.954a.374.374 0 0 1 .44.599l-.278.253 1.188-.686a.374.374 0 0 1 .425.613l-.71.585.549-.317a.374.374 0 0 1 .469.57l-1.485 1.702 1.016-.585a.373.373 0 0 1 .491.54l-.299.418a.374.374 0 0 1 .177.698l-1.207.696a.374.374 0 0 1-.492-.54l.225-.31-1.479.85a.37.37 0 0 1-.187.052"/><path fill="#3D3B33" d="M33.223 59.496a.373.373 0 0 1-.23-.673l4.355-3.38-4.187 2.418a.374.374 0 0 1-.398-.631l.324-.225a.374.374 0 0 1-.33-.662l.485-.343-.081.046a.374.374 0 0 1-.438-.598l1.87-1.686-1.436.831a.373.373 0 0 1-.441-.598l.404-.378a.374.374 0 0 1-.475-.523l.313-.554a.374.374 0 0 1-.135-.694l.873-.501a.374.374 0 0 1 .513.508l-.236.417 1.6-.925a.374.374 0 0 1 .441.598l-.396.37 1.675-.968a.374.374 0 0 1 .438.598l-1.87 1.687 3.963-2.288a.374.374 0 0 1 .404.629l-.482.342 1.557-.897a.374.374 0 0 1 .397.633l-.224.149.238-.137a.373.373 0 0 1 .416.619l-4.36 3.384 3.949-2.28a.374.374 0 0 1 .408.625l-1.414 1.047 1.009-.582a.374.374 0 0 1 .438.598l-1.733 1.576 1.301-.747a.374.374 0 0 1 .474.564l-.72.855.25-.144a.374.374 0 0 1 .545.433l-.17.553a.373.373 0 0 1 .004.65l-.374.216a.374.374 0 0 1-.545-.434l.091-.295-1.27.733a.374.374 0 0 1-.474-.565l.72-.855-2.468 1.426a.374.374 0 0 1-.438-.599l1.727-1.58-3.78 2.182a.374.374 0 0 1-.407-.625l1.42-1.047-2.901 1.675a.37.37 0 0 1-.19.052"/><path fill="#00AF1A" d="M45.503 49.004a.374.374 0 0 1-.3-.598l.585-.8-2.304 1.33a.374.374 0 0 1-.425-.613l.31-.253-.474.273a.374.374 0 0 1-.418-.618l.3-.234a.374.374 0 0 1-.356-.62l1.036-1.11-.576.332a.374.374 0 0 1-.511-.506l.3-.53a.374.374 0 0 1-.127-.69l.868-.502a.374.374 0 0 1 .511.509l-.218.382 1.545-.89a.374.374 0 0 1 .46.579l-1.035 1.11 2.203-1.271a.374.374 0 0 1 .418.618l-.264.207a.37.37 0 0 1 .41.15.374.374 0 0 1-.07.502l-.352.288a.377.377 0 0 1 .488.337.37.37 0 0 1-.072.24l-.585.8.097-.056a.374.374 0 0 1 .374.648l-1.631.934a.37.37 0 0 1-.187.052"/><path fill="#0F1D11" d="M26.317 25.818c-3.625.434-1.68 5.341-2.144 7.819.082 8.364-.138 16.786.046 25.119.366 1.126 2.522.766 3.413.766 7.317-.053 14.67.102 21.97-.054 1.321-.352 1.096-1.583 1.096-2.73V34.886c-.53-2.706 1.323-7.292-1.258-8.958-7.646-.283-15.444-.147-23.123-.109m7.173 32.905c.075-2.25-.154-4.575.081-6.787 8.152.407 8.14-2.429 7.81 6.787zm13.892-32.106c3.183-.564 2.038 3.21 2.218 5.18V57.84c.128 1.955-5.526.423-7.136.883-.561-2.063 1.547-7.642-1.713-7.37-8.245.19-8.814-1.932-8.344 7.37-1.522-.435-7.542 1.091-7.136-1.02.032-9.94-.053-19.881 0-29.819-.236-2.872 18.746-.566 22.111-1.267M41.676 18.381c-.425-.873-1.645-.59-2.445-.83-.919-2.916-2.596-2.811-3.534.028-2.907.122-3.229 1.363-1.005 3.141-.817 2.785.201 3.67 2.65 1.97 2.455 1.744 3.696.702 2.84-2.108.503-.692 1.714-1.214 1.494-2.2M39.962 19.6c-1.294.748-.718 1.938-.561 3.12l-.005.034c-1.436-1.122-2.402-.956-3.843.04-.3-.994.886-2.327-.348-3.028-.294-.39-.985-.7-.932-1.227 1.756-.042 2.638-.533 3.126-2.273.79 3.654 4.774 1.174 2.563 3.334M29.977 17.779l-1.197-.181c-.912-2.936-2.622-2.801-3.56.035-2.887.134-3.216 1.305-.992 3.088-.778 2.855.085 3.608 2.611 1.933 2.449 1.759 3.733.7 2.864-2.108 1.014-.802 2.603-2.663.274-2.767m-.474 1.858c-1.271.748-.748 1.902-.571 3.082l-.007.056c-1.416-1.126-2.393-.916-3.814.065-.293-.692.262-1.56.224-2.311-.202-.8-1.509-1.137-1.531-2.02l.009-.025c1.815-.054 2.569-.448 3.112-2.237.396.584.493 1.541 1.069 1.958.953.241 3.265.054 1.509 1.432M52.146 18.38c-.426-.866-1.645-.58-2.443-.822-.916-2.92-2.599-2.81-3.538.03-2.9.124-3.23 1.352-1.002 3.134-.816 2.784.197 3.664 2.642 1.963 2.455 1.744 3.703.706 2.842-2.108.504-.692 1.715-1.213 1.499-2.196m-1.713 1.225c-1.29.748-.723 1.933-.563 3.113l-.006.038c-1.433-1.122-2.393-.951-3.835.043-.326-.986.888-2.332-.354-3.032-.3-.39-.99-.706-.934-1.237 1.754-.044 2.64-.529 3.126-2.268.765 3.624 4.778 1.181 2.566 3.343"/><path fill="#0F1D11" d="M27.172 30.23c.163 1.128-.397 2.6.345 3.535 1.45.294 4.467.897 5.217-.761-.225-1.253.697-3.48-.77-4.07-1.464.16-4.606-.857-4.792 1.295m2.094-.71c3.378-.498 2.318 1.36 2.322 3.808 0-.005-.017.028-.039.057-3.957.316-3.467-.31-3.177-3.865h.894m-.988 0q.037.003.075 0c-.037.03-.075.056-.094 0zM34.988 33.739c1.496.18 4.363.836 5.216-.762-.213-1.205.69-3.413-.708-3.973-4.454-.307-5.811-.046-4.508 4.735m1.654-4.306c3.396-.557 2.543 1.6 2.358 4.033-3.995.39-3.458-.605-3.13-4.033zm-1.022 0c-.048-.008-.02 0 0 0M42.472 33.755c1.465.251 4.435.874 5.216-.761-.224-1.236.704-3.477-.76-4.035-4.54-.353-5.722.031-4.456 4.796m.87-4.267c4.058-.299 3.42.308 3.151 3.928-3.938.355-3.493-.428-3.149-3.927zM31.893 36.357c-2.976-.134-5.39-.612-4.725 3.318 0 .578-.112 1.267.43 1.65 1.45.225 4.554.934 5.146-.887-.24-1.27.708-3.532-.851-4.081m-3.53.694c-.011.004-.018 0-.018 0zm-.066 0h.015c-.05.01-.054.003-.015 0m.452 3.76c-.957-.26-.436-2.917-.374-3.76 3.942-.258 3.418.102 3.201 3.727.007-.016-.011.01-.022.03-.936.007-1.87 0-2.805.002M40.221 37.899c.327-2.3-2.657-1.306-4.034-1.503-1.927-.075-1.521 1.986-1.536 3.29-.507 2.6 2.711 1.626 4.272 1.759 1.879-.146 1.18-2.268 1.298-3.547m-3.963 2.984c-1.103-.512-.281-2.57-.524-3.583a.6.6 0 0 1 .124-.322c4.03-.307 3.425.31 3.165 3.905zM42.469 41.223c1.48.207 4.398.847 5.216-.762-.217-1.215.688-3.415-.713-3.99-4.479-.346-5.802-.008-4.503 4.752m1.732-4.29c.658.016 1.378-.031 2.005.019.822.876.394 2.837.28 3.976-3.907.405-3.507-.598-3.142-3.995zm-.841-.027c.032-.042.033-.028 0 0m-.15.027a1 1 0 0 0 .104 0 .2.2 0 0 1-.125 0c.009.002.018-.001.024 0zM31.896 43.844c-2.969-.126-5.392-.616-4.727 3.313 0 .574-.112 1.26.427 1.64 1.454.212 4.543.926 5.149-.884-.244-1.265.71-3.53-.849-4.07m-3.601.673h.008c-.049.015-.043.001-.008.001zm.458 3.78c-.953-.328-.444-2.908-.38-3.78 3.986-.26 3.44.128 3.177 3.78zM40.22 45.377c.603-2.259-4.526-1.853-5.42-.865-.177 1.262-.486 3.09.194 4.206 3.287.548 5.911.996 5.226-3.341m-3.963 2.975c-1.099-.502-.282-2.576-.518-3.57a.56.56 0 0 1 .122-.317c4.06-.275 3.412.225 3.166 3.889zM46.858 43.861c-4.596-.412-5.725.258-4.308 4.924 1.462.195 4.52.912 5.15-.879-.244-1.253.71-3.522-.842-4.045m-3.509.614h-.008c.04-.067.038.001.008 0m-.104.022c-.034.009-.03 0 0 0m.47 3.824c-.973-.344-.44-2.92-.387-3.824 4.002-.275 3.44.187 3.177 3.824z"/></g><defs><clipPath id="a"><path fill="#fff" d="M15 15h44.87v44.87H15z"/></clipPath></defs></svg>