<svg xmlns="http://www.w3.org/2000/svg" width="133" height="132" fill="none" viewBox="0 0 133 132"><g clip-path="url(#a)"><circle cx="66.5" cy="66" r="66" fill="#F7FBFD"/><g clip-path="url(#b)"><path fill="#212121" d="M70.029 26.18c-.183.735-.11 1.556-.102 2.314s.02 1.448.029 2.175c.015 1.485-.037 2.99.102 4.467.028.29.211 1.025.624 1.02s.559-.75.575-1.048c.057-1.485-.074-2.983-.139-4.468l-.086-2.089c-.037-.779.008-1.644-.225-2.392-.05-.175-.151-.551-.4-.546-.248.005-.326.392-.37.567z"/><path fill="#212121" d="M70.196 26.58c.08.175.117.342.284.429.24.138.632.073.902.08.53.016 1.068.016 1.598 0 1.134-.015 2.268-.028 3.394-.044s2.194-.065 3.294-.102c.53-.02 1.06-.05 1.599-.08.619-.045 1.186-.152 1.794-.262.183-.037.167-.72-.02-.75-.612-.095-1.187-.189-1.803-.217a38 38 0 0 0-1.803-.045 158 158 0 0 0-3.699-.015c-1.235.015-2.398.007-3.597.036-.298 0-.595.029-.901.044-.24.016-.624-.044-.828.11-.204.155-.335.575-.217.816h.008zM73.62 106.78c.27-.685.233-1.491.27-2.22.036-.729.065-1.44.094-2.159.065-1.49.232-3.02.167-4.51-.016-.408-.102-1.404-.632-1.506s-.685.772-.719 1.127c-.151 1.477-.065 3.012-.086 4.502-.008.698-.02 1.388-.02 2.089 0 .807-.074 1.657.145 2.452.131.481.523.894.779.232l.008-.007z"/><path fill="#212121" d="M73.017 106.487c.087.204.118.384.306.486.232.131.611.086.872.102.583.029 1.155.044 1.738.05 1.084.007 2.165.02 3.25.028 1.083.008 2.165-.015 3.25-.028a47 47 0 0 0 1.728-.058c.575-.029 1.142-.139 1.73-.24.203-.037.183-.787-.021-.829-.624-.118-1.215-.241-1.847-.29a39 39 0 0 0-1.847-.094 151 151 0 0 0-3.686-.102c-1.228-.016-2.385-.05-3.576-.05-.327 0-.648.016-.975.029-.203 0-.545-.037-.713.094-.204.159-.305.64-.204.886l-.007.016zM105.937 73.607c-.188 1.608-.102 3.297-.122 4.918s-.029 3.228-.037 4.844c-.008 1.615-.016 3.106-.021 4.664-.008 1.555-.183 3.207.073 4.742.094.551.653 1.053.8.212.276-1.55.122-3.224.122-4.803s.008-3.228.016-4.844c.008-1.615 0-3.228 0-4.844s.073-3.297-.102-4.91c-.094-.865-.632-.787-.726.016v.008z"/><path fill="#212121" d="M92.04 74.162c1.12.233 2.37.086 3.51.081 1.208 0 2.415-.016 3.614-.016h5.256c.611 0 1.264.066 1.86-.036.305-.05.277-1.025-.029-1.077-.567-.095-1.178-.037-1.753-.037h-5.366c-1.199 0-2.34-.016-3.503-.016-1.162 0-2.463-.16-3.613.081-.276.058-.248.955.021 1.012v.008zM106.358 57.182c.183-1.615.081-3.296.086-4.917a453 453 0 0 0 0-4.664c-.007-1.555-.007-3.106-.015-4.664s.175-3.338-.102-4.917c-.094-.546-.653-1.061-.8-.212-.261 1.556-.101 3.224-.094 4.803s.016 3.228.021 4.844c.008 1.615.016 3.228.037 4.844.021 1.615-.05 3.296.131 4.91.101.857.64.791.726-.016l.008-.016z"/><path fill="#212121" d="M87.897 57.852c.742.138 1.55.073 2.304.057.755-.016 1.534-.02 2.296-.029 1.497-.02 2.994-.05 4.494-.065q2.243-.023 4.493-.044c.726-.008 1.46-.016 2.189-.021.778-.008 1.643.08 2.406-.066.305-.057.277-1.024-.029-1.077-.742-.117-1.554-.02-2.296-.008s-1.534.016-2.296.03c-1.497.015-2.994.036-4.493.049s-2.994.02-4.494.036c-.726 0-1.46.016-2.189.021-.786 0-1.635-.05-2.406.11-.277.058-.248.96.021 1.012v-.008zM58.668 25.655c-.232.69-.217 1.456-.248 2.175s-.058 1.44-.094 2.159c-.065 1.477-.217 2.99-.167 4.473.015.379.094 1.265.574 1.367.481.102.625-.714.654-1.025.146-1.469.065-2.99.086-4.467.008-.698.02-1.389.028-2.09 0-.8.058-1.607-.122-2.391-.102-.421-.502-.829-.713-.212v.008z"/><path fill="#212121" d="M59.235 25.888c-.081-.175-.118-.343-.285-.437-.24-.146-.632-.086-.901-.102-.53-.029-1.069-.036-1.599-.044-1.134-.016-2.267-.021-3.393-.037s-2.195.008-3.294.021c-.53 0-1.061.021-1.6.044-.618.03-1.185.123-1.794.218-.188.028-.167.718.021.75.611.11 1.186.217 1.803.261.616.045 1.199.066 1.802.086 1.236.045 2.464.087 3.7.102 1.235.016 2.397.05 3.596.05.298 0 .596-.016.902-.02.24 0 .624.057.828-.087s.326-.567.216-.816l-.007.008zM58.602 106.487c.24-.821.188-1.689.188-2.539 0-.726-.015-1.448-.02-2.175-.016-1.521.049-3.077-.103-4.59-.028-.32-.224-1.135-.684-1.122s-.62.829-.632 1.15c-.065 1.522.08 3.07.146 4.591.029.698.058 1.388.094 2.089.045.873.021 1.783.327 2.611.151.429.559.445.697-.015H58.6z"/><path fill="#212121" d="M58.472 105.76c-.087-.196-.118-.385-.306-.487-.232-.122-.611-.073-.872-.081a44 44 0 0 0-1.738-.007q-1.624.021-3.25.044c-1.084.016-2.165.065-3.25.102-.582.021-1.154.058-1.728.094-.575.037-1.142.167-1.73.285-.204.037-.183.792.021.829.624.102 1.215.217 1.847.248s1.228.045 1.847.05c1.228.015 2.458.029 3.686.015s2.385 0 3.576-.036c.327-.008.648-.029.974-.05.204-.015.546.021.714-.117.203-.16.313-.649.203-.895l.008.008zM22.743 73.31c-.182 1.615-.08 3.296-.086 4.917a465 465 0 0 0 0 4.663c.008 1.556.008 3.106.016 4.664s-.175 3.339.102 4.918c.094.546.653 1.061.8.211.26-1.555.101-3.223.093-4.802s-.015-3.228-.02-4.844c-.009-1.616-.016-3.229-.037-4.844s.05-3.297-.13-4.91c-.103-.857-.64-.792-.727.016l-.008.016z"/><path fill="#212121" d="M38.083 72.857c-1.186-.24-2.529-.086-3.736-.08-1.206.005-2.492.015-3.735.015h-5.496c-.648 0-1.338-.073-1.978.037-.306.05-.277 1.024.029 1.077.603.102 1.256.036 1.867.036h5.604c1.243 0 2.421.016 3.628.016s2.626.167 3.846-.081c.277-.057.248-.954-.021-1.012zM23.812 56.884c.188-1.608.102-3.297.123-4.917.02-1.621.029-3.229.036-4.844.008-1.616.016-3.106.021-4.664.008-1.556.183-3.208-.073-4.742-.094-.552-.653-1.054-.8-.212-.276 1.55-.122 3.223-.122 4.802 0 1.58-.008 3.229-.016 4.844s0 3.229 0 4.844-.073 3.297.102 4.91c.094.865.632.787.727-.016v-.008z"/><path fill="#212121" d="M41.534 56.542c-.734-.152-1.55-.102-2.304-.11l-2.296-.021c-1.497-.016-2.994-.016-4.494-.037s-2.993-.036-4.493-.05c-.726-.007-1.46-.015-2.189-.02-.778-.008-1.635-.118-2.406.008-.305.05-.269 1.024.029 1.077.734.13 1.554.05 2.296.057.742.008 1.534.016 2.296.021q2.245.023 4.494.044c1.499.016 2.993.045 4.493.066.726.008 1.46.02 2.189.029.786.007 1.635.086 2.406-.058.277-.05.248-.954-.021-1.012v.008z"/><path fill="#fff" d="M38.43 76.08c-2.348-2.379-3.503-5.876-3.038-9.186.473-3.31 2.558-6.35 5.473-7.981-1.774-3.02-1.803-6.99-.081-10.039s5.138-5.064 8.642-5.092c.122-3.53 2.115-7.035 5.276-8.598s7.393-.881 9.624 1.856c3.286-2.147 7.414-3.958 11.027-2.424 1.875.8 3.307 2.416 4.266 4.212.958 1.796 1.504 3.782 2.042 5.746.502.08 4.98.873 7.234 5.129 1.998 3.783.734 7.443.522 8.023 1.077.685 1.86 1.44 2.45 2.16 4.792 5.884 1.025 15.261.604 16.278a7.36 7.36 0 0 1 .56 6.104c.725 2.816-.764 5.77-3.12 7.48-2.348 1.71-5.444 2.175-8.323 1.782-.595 3.195-3.772 5.55-7.014 5.673s-6.374-1.694-8.33-4.292c-.175-.233-.437-.51-.714-.408-.122.044-.211.16-.29.261-1.206 1.593-2.703 3.012-4.534 3.828-1.824.815-3.997.959-5.808.11-1.883-.887-3.14-2.698-4.195-4.49-.13-.224-.277-.457-.502-.574-.24-.123-.517-.094-.786-.074-3.715.29-7.523-1.46-9.712-4.48s-2.683-7.187-1.252-10.627c.021-.045.118-.518.066-.53-.021 0-.066.072-.095.138v.015z"/><path fill="#C0AF70" d="M40.946 81.1c1.06 2.481 3.352 4.4 5.974 5.012 1.717-2.51 4.6-4.183 7.634-4.432-1.688.968-2.929 2.604-3.67 4.4s-1.02 3.762-1.098 5.704c-1.227.074-2.45.4-3.678.343-2.58-.123-4.799-1.958-6.28-4.08-1.374-1.98-2.296-4.307-2.39-6.714-.102-2.526.909-6.314 3.417-7.5.248.886-.486 2.256-.551 3.228a8.64 8.64 0 0 0 .66 4.031l-.015.008zM89.43 81.85c-1.06 2.481-3.351 4.4-5.974 5.012-1.716-2.51-4.6-4.183-7.633-4.431 1.687.967 2.928 2.603 3.67 4.4.742 1.795 1.019 3.761 1.097 5.704 1.228.073 2.45.4 3.678.342 2.581-.123 4.799-1.958 6.28-4.08 1.374-1.98 2.296-4.306 2.39-6.714.102-2.525-.909-6.313-3.416-7.5-.249.886.485 2.256.55 3.228a8.64 8.64 0 0 1-.66 4.031l.015.008zM57.453 40.276c-.016 2.285 1.162 4.546 3.03 5.848.327.233.763.437 1.12.248.335-.182.421-.62.466-.995a30.6 30.6 0 0 0-.392-9.035c.415.319.959.37 1.455.53s1.01.539.987 1.062a8.55 8.55 0 0 1 3.911-2.983c-.546.633-.778 1.47-.938 2.293a17.6 17.6 0 0 0 .13 7.244c.233.996.764 2.159 1.782 2.248.93.08 1.644-.792 2.072-1.616a12.7 12.7 0 0 0 1.243-3.607c-.472 2.248-.253 4.705-1.374 6.708-1.112 1.987-3.466 3.129-5.741 3.011-2.276-.117-4.405-1.411-5.771-3.228s-2.014-4.125-2.05-6.402c0-.095 0-.204.072-.278.074-.073.217-.05.225.05"/><path fill="#C0AF70" d="M83.978 72.62c.058.355.48 3.244-1.549 5.325-1.04 1.069-2.26 1.448-2.863 1.586.326-1.121.66-2.256.8-3.411.211-1.775-.249-3.39-.918-5.012-.159-.384-2.246-4.198-2.659-3.905.713-.502.988-1.412 1.155-2.27.546-2.844.086-5.704-.452-7.07-1.432-3.637-4.297-5.478-5.33-6.074.604-.065 4.674-.444 7.822 2.554 2.625 2.494 3.592 6.374 2.529 10.01 1.105.204 3.722.853 6.063 3.085 3.075 2.93 3.547 6.575 3.641 7.573-2.74-.8-5.488-1.592-8.228-2.392l-.016.008zM51.625 52.628c-3.453 2.154-5.232 6.57-4.53 11.202-.828.152-4.098.858-6.54 3.93s-2.399 6.422-2.362 7.259a18.5 18.5 0 0 1 4.493-2.836 18.5 18.5 0 0 1 3.54-1.164 12.2 12.2 0 0 0 2.092 4.685 12.1 12.1 0 0 0 3.576 3.236 11.5 11.5 0 0 1-1.019-3.97c-.334-4.628 2.283-8.024 3.09-8.99-.689-.466-.945-1.39-1.083-2.257-.583-3.595.253-6.54.64-7.377 1.366-2.967 3.686-4.481 4.623-5.02-1.105-.138-3.89-.334-6.528 1.318z"/><path fill="#C0AF70" d="M56.108 48.519c1.113 4.794 4.898 7.055 5.546 7.427.326 8.948.66 17.902.995 26.85.77 4.742-1.345 8.627-4.2 9.427-1.534.429-3.462.021-4.66-1.192-1.926-1.95-1.905-5.921.785-9.121-3.001 2.429-4.558 6.525-3.918 10.329.225 1.36.726 2.706 1.627 3.754 1.782 2.065 4.93 2.62 7.503 1.717 2.573-.902 4.572-3.056 5.778-5.5.816 2.293 2.574 4.248 4.805 5.215 2.23.968 4.905.895 7.037-.277 2.13-1.17 3.65-3.432 3.825-5.863.11-1.55-.298-3.106-.983-4.51a12.2 12.2 0 0 0-3.169-4.036 6.14 6.14 0 0 1 1.302 2.88c.065.421.522 3.26-1.526 4.975-.081.066-1.831 1.49-3.895.976-2.385-.589-3.336-3.297-3.895-4.873a11.5 11.5 0 0 1-.64-4c-.167-9.137-.342-18.274-.51-27.418 1.22.05 2.325-.743 3.104-1.681 1.52-1.833 2.145-4.27 2.181-6.648.029-2.379-.486-4.73-1.047-7.043a12.04 12.04 0 0 1-2.108 8.648c-.604.845-1.33 1.616-2.255 2.081-.486.248-1.337.429-2.988.13-1.717-.313-4.2-.763-6.011-2.945-2.61-3.143-1.591-7.195-1.476-7.616-.436.771-2.19 4.097-1.207 8.308v.008z"/><path fill="#212121" d="M57.208 40.051c-.183 1.025-.371 2.053-.314 3.093.058 1.156.29 2.293.661 3.39.648 1.907 1.672 3.893 3.49 4.902.828.466 1.889.772 2.835.589.436-.081.893-.233 1.089-.67.11-.248.146-.604.123-.873-.037-.436-.416-.923-.873-.902-1.032.045-1.948 0-2.878-.502s-1.623-1.244-2.195-2.065c-.64-.917-1.053-1.979-1.309-3.061-.277-1.187-.509-2.444-.4-3.66.016-.175-.166-.625-.24-.24h.011M40.684 58.2c-.37-.082-.807.35-1.089.559a11.7 11.7 0 0 0-1.52 1.354c-1.468 1.542-2.385 3.529-2.822 5.602a14.87 14.87 0 0 0 .408 7.587c.285.857.632 1.701 1.068 2.494.285.517.604 1.236 1.098 1.586.472.327.799-.546.864-.828.167-.69.102-1.47-.175-2.126-.211-.494-.493-.779-.69-1.126-.313-.56-.587-1.15-.807-1.755-.587-1.644-.762-3.346-.392-5.063.371-1.718 1.2-3.318 2.224-4.73.363-.501.755-.982 1.186-1.424.29-.298.624-.552.815-.923.13-.261.253-1.127-.168-1.216z"/><path fill="#212121" d="M51.69 71.155c-.762-1.354-2.646-1.506-4.062-1.514a10.8 10.8 0 0 0-3.895.727c-2.63 1.004-4.762 2.996-5.88 5.595-2.463 5.725.253 13.523 5.872 16.279 1.244.611 2.668.988 4.05 1.024.843.021 1.729.081 2.442-.42.538-.38.551-2.016-.057-2.343-.518-.277-1.011-.306-1.591-.379a16.5 16.5 0 0 1-2.777-.604c-2.471-.763-4.535-2.24-5.982-4.4-1.322-1.979-1.978-4.329-1.236-6.648.786-2.436 2.712-4.378 5.016-5.427a10.5 10.5 0 0 1 3.963-.902c.705-.02 1.402 0 2.1.094.697.095 1.418.364 2.006-.175.225-.204.16-.677.029-.91h.008zM64.083 36.4c-.277.53-.313 1.126-.342 1.717-.044.954-.073 1.898-.094 2.852a155 155 0 0 0 .016 5.615c.05 3.804.151 7.602.248 11.406.196 7.485.42 14.964.713 22.44q.123 3.163.253 6.337c.045 1.085.087 2.168.139 3.26.05 1.02.073 2.102.546 3.033.204.408.595.465.778-.021.632-1.673.29-3.66.225-5.404q-.11-2.803-.217-5.607c-.138-3.738-.277-7.48-.407-11.218-.262-7.479-.481-14.964-.734-22.44-.074-2.052-.094-4.102-.225-6.154-.073-1.085-.139-2.167-.225-3.252-.065-.852-.057-1.791-.486-2.554-.044-.081-.146-.073-.183 0v-.008z"/><path fill="#212121" d="M54.684 81.52c-.546.314-1.25.38-1.737.772-.517.407-.982 1.011-1.382 1.534-.8 1.033-1.33 2.306-1.672 3.558-.718 2.604-.582 5.799.727 8.198 2.69 4.939 10.235 5.441 13.832 1.221 1.308-1.526 1.92-3.66 1.875-5.644a7 7 0 0 0-.117-1.142 2.7 2.7 0 0 0-.183-.633c-.139-.319-.086.021-.167-.314.16.654.02-.065-.029-.232q-.065-.219-.13-.421c-.102-.298-.225-.021-.225.16 0 .216-.094.538-.05.742.021.102.27-.4.021-.102.016-.016.044-.087-.008 0-.123.196-.183.4-.253.62-.204.632-.254.865-.436 1.403-.204.62-.445 1.156-.82 1.689-1.31 1.825-3.556 2.677-5.742 2.758-2.19.081-4.465-.583-5.954-2.204-.596-.64-.938-1.2-1.207-2.044-.248-.78-.306-1.388-.232-2.233.11-1.257.53-2.46 1.112-3.57.343-.654.735-1.23 1.187-1.812.559-.72.922-1.564 1.614-2.191.02-.016.016-.123-.016-.102l-.008-.008zM54.562 65.532c-.523-1.163-1.098-2.342-1.288-3.615-.191-1.273-.327-2.59.008-3.877.69-2.677 2.63-5.1 4.869-6.677.02-.016.02-.117-.008-.11-1.424.314-2.748.853-3.788 1.906-1.17 1.187-1.912 2.627-2.325 4.233-.486 1.905-.379 3.884-.073 5.819.16 1.02.392 2.057.967 2.93.415.64.851.808 1.533.539.342-.13.212-.923.11-1.156l-.008.008z"/><path fill="#212121" d="M50.3 74.538c-.11-.742-.64-4.867 2.357-8.227 2.63-2.954 6.149-3.244 6.875-3.288-1.113.48-4.23 1.992-6.243 5.537-2.798 4.925-1.265 9.892-.988 10.723-.611-.816-1.656-2.444-1.998-4.734v-.008zM72.022 39.607c.167 1.22.015 2.473-.196 3.68-.188 1.107-.51 2.22-1.076 3.2-1.09 1.89-2.814 3.237-5.052 3.216-.408 0-1.048-.217-1.359.118-.4.436-.29 1.338.044 1.775.625.82 2.195.625 3.039.37 2.223-.653 3.51-2.53 4.33-4.59.51-1.265.845-2.648.918-4.015s-.147-2.67-.429-4.008c-.08-.379-.248.073-.224.249l.008.008zM79.566 73.325c.502.437 1.011.327 1.628.217q.97-.184 1.962-.196c1.214-.02 2.421.11 3.584.473 2.275.714 4.362 2.27 5.501 4.387 2.589 4.795-1.126 10.039-5.72 11.72-1.048.384-2.21.604-3.324.734-.66.074-1.256.05-1.868.356-.652.327-.428 1.979.058 2.342.583.429 1.264.465 1.97.502 1.186.058 2.32-.118 3.445-.48 2.994-.96 5.277-3.326 6.5-6.176 2.356-5.5.872-12.556-4.812-15.27a11.2 11.2 0 0 0-4.498-1.09c-1.555-.041-3.728.087-4.507 1.58-.123.24-.16.713.073.91z"/><path fill="#212121" d="M76.491 82.752c.648.539.988 1.258 1.52 1.89.421.502.858.954 1.208 1.514.603.96 1.12 1.958 1.374 3.061.102.437.138.771.151 1.106.008.277-.02.698-.065.93-.102.466-.086.445-.29.918-.123.29-.327.633-.604.988-2.479 3.266-8.315 3.13-11.376.821-1.06-.8-1.643-1.885-2.124-3.092-.151-.392-.277-.894-.596-1.18.212.189.11.204.074-.086a3 3 0 0 1-.03-.384c0-.094-.138-.465-.216-.204-.225.75-.428 1.237-.48 2.065-.11 1.791.42 3.571 1.43 5.04 1.607 2.343 4.544 3.449 7.308 3.457 2.507.007 5.248-.845 6.781-2.947 1.586-2.175 1.803-5.23 1.22-7.777a10.05 10.05 0 0 0-1.709-3.725c-.407-.552-.909-1.049-1.418-1.514-.648-.604-1.374-.604-2.137-.996-.029-.016-.029.086-.008.102l-.015.008zM76.272 68.172c.355.118.517.212.88.066.364-.147.588-.421.792-.772.494-.865.684-1.84.815-2.815.277-2.029.306-4.096-.305-6.073-.502-1.615-1.322-3.048-2.545-4.227s-2.602-1.739-4.18-2.089c-.028 0-.02.094 0 .11 2.349 1.587 4.47 3.966 5.416 6.672.48 1.367.428 2.697.277 4.117-.152 1.42-.727 2.627-1.301 3.869-.11.233-.175 1.033.167 1.15z"/><path fill="#212121" d="M80.839 75.95c.094-.72.546-4.771-2.691-8.14-2.879-3.005-6.63-3.331-7.406-3.384 1.207.494 4.564 2.058 6.805 5.616 3.067 4.873 1.607 9.683 1.345 10.475.612-.78 1.651-2.35 1.941-4.567h.008zM85.796 22.366c2.153.073 3.67 2.125 3.605 4.11-.065 1.759-1.374 3.476-3.176 3.73-2.158.298-4.26-1.608-4.297-3.856-.03-2.073 1.7-4.052 3.866-3.979v-.008zM110.211 94.71c-.073 2.154-2.124 3.673-4.106 3.607-1.758-.065-3.475-1.375-3.728-3.179-.298-2.159 1.606-4.263 3.853-4.3 2.072-.029 4.049 1.702 3.976 3.869h.008zM88.623 110.285c2.153-.073 3.67-2.125 3.605-4.11-.065-1.759-1.374-3.477-3.177-3.73-2.157-.298-4.26 1.608-4.297 3.856-.029 2.073 1.7 4.052 3.866 3.979v.008zM109.942 35.518c-.073-2.154-2.123-3.673-4.106-3.608-1.758.066-3.475 1.376-3.728 3.18-.298 2.159 1.607 4.263 3.853 4.3 2.072.029 4.049-1.702 3.976-3.87h.008zM43.629 22.076c-2.153.073-3.67 2.125-3.605 4.11.065 1.759 1.374 3.477 3.176 3.73 2.158.298 4.261-1.608 4.298-3.856.028-2.073-1.701-4.052-3.867-3.979v-.008zM19.22 94.411c.073 2.154 2.123 3.673 4.106 3.608 1.758-.066 3.474-1.375 3.728-3.18.298-2.159-1.607-4.263-3.853-4.3-2.072-.028-4.05 1.702-3.976 3.87h-.008zM42.866 109.987c-2.152-.073-3.67-2.126-3.605-4.11.066-1.759 1.374-3.477 3.177-3.73 2.158-.298 4.26 1.608 4.297 3.856.029 2.073-1.7 4.052-3.866 3.979v.007zM19.538 35.783c.073-2.155 2.124-3.674 4.107-3.608 1.758.065 3.474 1.375 3.727 3.179.298 2.16-1.606 4.264-3.853 4.3-2.071.029-4.049-1.702-3.976-3.869h-.008z"/><path fill="#C0AF70" d="M45.7 45.042c.118.48.633 2.313 2.443 3.57 2.21 1.527 4.6.983 4.98.887a21 21 0 0 1-2.692-3.012 20 20 0 0 1-1.635-2.62l-3.09 1.172h-.008z"/><path fill="#212121" d="M64.242 36.946s.11 1.069.058.407a3.076 3.076 0 0 0-.298-1.121c-.277-.552-.677-1.025-1.134-1.449-.807-.734-1.794-1.186-2.826-1.49-2.088-.62-4.392-.29-6.31.714-3.917 2.058-5.582 7.043-4.44 11.189.285 1.02.734 2.167 1.468 2.954s1.55 1.142 2.516 1.461c.057.021.044-.13.015-.16-1.003-.945-1.671-2.1-2.332-3.3-.494-.882-.865-1.85-.946-2.86-.146-1.922.893-3.885 2.26-5.172 1.614-1.521 3.795-2.248 5.99-2.146 1.105.05 2.218.225 3.234.677.465.212.93.444 1.345.735.363.253.713.677 1.15.787.391.102.29-1.09.253-1.237v.016z"/><path fill="#212121" d="M40.894 58.199c-.538-1.543-1.032-2.889-.852-4.554.167-1.498.792-2.902 1.68-4.118.888-1.215 2.05-2.196 3.336-2.962a11.2 11.2 0 0 1 2.152-.995c.75-.254 1.563-.356 2.268-.69.611-.29.517-2.576-.204-2.699-.852-.151-1.889.233-2.683.523-.844.314-1.664.698-2.421 1.18a11.3 11.3 0 0 0-3.773 3.957c-1.04 1.856-1.512 4.081-1.468 6.199.037 1.694.343 4.015 1.484 5.354.48.559.567-.968.486-1.193h-.008z"/><path fill="#C0AF70" d="M78.315 49.494c1.578-1.412 2.194-3.587 2.732-5.639a13 13 0 0 1 4.05 2.256c.122.102-1.257 1.563-1.395 1.694a8.4 8.4 0 0 1-1.79 1.273 9 9 0 0 1-2.05.787c-.371.086-1.876.486-2.088.102.16-.175.363-.319.538-.481v.008z"/><path fill="#212121" d="M64.54 37.819c.319.248 1.097-.633 1.345-.816a7.7 7.7 0 0 1 1.469-.808c1.126-.494 2.377-.67 3.605-.698 2.492-.065 4.95.821 6.773 2.53 1.55 1.449 2.785 3.645 2.66 5.828-.139 2.37-1.73 5.027-3.446 6.575-.02.02-.037.175.016.159.917-.306 1.781-.698 2.463-1.383.763-.763 1.228-1.76 1.554-2.787.75-2.379.546-5.048-.37-7.346-1.847-4.619-7.132-7.725-12.03-6.19-1.251.392-2.435 1.004-3.307 2.015-.473.547-1.55 2.277-.727 2.918h-.008z"/><path fill="#212121" d="M89.48 58.345c.436-.624.632-1.513.77-2.248.168-.886.233-1.796.212-2.698-.058-1.811-.48-3.73-1.338-5.338-.807-1.527-1.99-2.873-3.445-3.82a10 10 0 0 0-2.255-1.084c-.684-.233-1.622-.568-2.348-.38-.726.189-.697 2.416-.073 2.706s1.316.35 1.949.552c.676.212 1.33.518 1.933.873 1.199.706 2.254 1.652 3.038 2.8a8.4 8.4 0 0 1 1.395 3.427c.224 1.433-.086 2.64-.392 4.031-.065.32-.073.75.086 1.049.094.188.29.355.457.122l.008.008z"/><path fill="#212121" d="M89.067 58.367c.465.734 1.317 1.28 1.884 1.958 1.133 1.36 2.056 2.962 2.573 4.656.893 2.954.342 6.206-1.2 8.744-.341.56-.684 1.004-.754 1.71-.05.53-.05 1.746.517 2.044.946.502 1.92-2.13 2.137-2.648 1.578-3.673 1.65-7.986.253-11.727-.64-1.718-1.622-3.237-2.965-4.473-.457-.421-1.627-1.629-2.325-1.485-.415.086-.248.988-.102 1.22h-.018"/></g></g><defs><clipPath id="a"><rect width="132" height="132" x=".5" fill="#fff" rx="66"/></clipPath><clipPath id="b"><path fill="#fff" d="M19 22h94v88H19z"/></clipPath></defs></svg>