<svg width="92" height="105" viewBox="0 0 92 105" fill="none" xmlns="http://www.w3.org/2000/svg">
<circle cx="46" cy="59" r="46" fill="#D9EDFA"/>
<g clip-path="url(#clip0_986_5138)">
<path d="M26.042 63.3276C25.9229 63.5671 20.3535 74.9996 20.3535 74.9996L72.7712 74.7003L69.227 64.016L26.042 63.3276Z" fill="#231F20"/>
<path d="M4.00195 74.9996H16.749L28.2153 50.4585L16.8979 53.5112L4.00195 74.9996Z" fill="#231F20"/>
<path d="M18.5664 50.4584L23.3019 42.4077H32.2367L29.2286 47.8846L18.5664 50.4584Z" fill="#231F20"/>
<path d="M67.7363 52.344L76.7307 74.9996H89.0012L77.5349 50.4585L67.7363 52.344Z" fill="#231F20"/>
<path d="M63.6855 42.3478C64.7577 44.9815 65.8001 47.5853 66.8723 50.219L76.6708 48.4532C75.6284 46.2684 74.586 44.0837 73.5436 41.8989C70.2675 42.0486 66.9914 42.2281 63.7153 42.3778L63.6855 42.3478Z" fill="#231F20"/>
<path d="M27.3516 60.3646L35.3333 42.4077H61.4528L67.737 60.9333L27.3516 60.3646Z" fill="#231F20"/>
<path d="M53.667 17.4712C53.667 20.6469 51.0926 23.8601 47.917 23.8601C44.7414 23.8601 42.167 21.2858 42.167 18.1101C42.167 14.9345 44.7414 12.999 47.917 12.999C51.0926 12.999 53.667 14.2956 53.667 17.4712Z" fill="#0089DE"/>
<path d="M62.2269 11.5214C59.8741 6.31386 54.3643 0.926794 47.0079 1.13629C39.6218 1.34579 34.3205 7.092 32.3548 12.6886C29.6148 20.44 33.5759 27.2037 34.1418 28.1614C38.6985 36.6012 43.2553 45.0708 47.8121 53.5106C52.1306 45.2504 56.4789 37.0202 60.7974 28.76C61.2143 28.1315 66.0689 20.1108 62.1972 11.4914L62.2269 11.5214ZM48.2886 24.0613C45.0125 24.2708 42.5107 21.3977 42.332 18.9436C42.2129 17.2077 43.2553 15.6215 43.4638 15.3222C43.7021 14.9631 44.119 14.3346 44.9231 13.8258C45.6677 13.3171 46.4421 13.1076 47.0675 13.0178C47.0675 13.0178 47.0675 13.0178 47.0973 13.0178C47.2462 13.0178 47.3653 12.9878 47.4845 12.9878C47.544 12.9878 47.6036 12.9878 47.6632 12.9878C47.8419 12.9878 47.9908 12.9878 48.1099 12.9878C50.6712 13.1375 53.6197 15.3222 53.5899 18.6143C53.5899 21.5772 51.118 23.9715 48.2886 24.1511V24.0613Z" fill="white"/>
<path d="M36.5244 31.6934L44.8338 22.8347C47.1569 24.2114 50.1351 23.7924 52.0115 21.877C53.9175 19.9017 54.1856 16.8191 52.6369 14.4847C54.9302 12.0306 57.2234 9.57653 59.5167 7.15234C60.7676 9.75609 62.0185 12.3598 63.2991 14.9636C55.5854 23.0143 47.8419 31.065 40.1281 39.1456C38.9368 36.6615 37.7455 34.1775 36.5542 31.6934H36.5244Z" fill="#D9EDFA"/>
<path d="M48.1389 11.9106C47.573 11.5814 47.0667 11.6113 46.4413 11.761C45.6073 11.9705 44.8926 12.2697 44.2373 12.8384C43.4034 13.5866 42.8078 14.6341 42.4206 15.6815C41.408 18.4948 42.361 21.727 44.8925 23.403C47.3943 25.079 50.5215 24.4804 52.3978 22.3256C54.3337 20.1109 54.4826 16.4298 52.7254 14.0654C51.8617 12.8982 50.6406 12.0303 49.211 11.6712C48.4367 11.4617 47.573 11.4916 46.8284 11.761C46.471 11.8807 46.0541 12.0303 45.7562 12.2697C45.4584 12.5092 45.1904 12.7187 44.8925 12.9581C44.8032 13.0479 44.8032 13.5566 44.9521 13.4968C45.1606 13.407 45.3989 13.2873 45.6371 13.2873C45.786 13.2873 45.9052 13.2873 46.0541 13.2873C46.2328 13.2873 46.3817 13.1975 46.5604 13.1975C47.2156 13.1077 47.9006 13.1377 48.5558 13.2574C49.6578 13.4669 50.6704 13.9457 51.5341 14.664C52.3382 15.3523 53.0232 16.2502 53.2317 17.3276C53.4402 18.405 53.053 19.4525 52.4574 20.3204C51.0874 22.2957 48.4069 23.2234 46.1136 22.3256C45.0117 21.9066 44.0884 21.1285 43.4332 20.1708C42.8375 19.3029 42.5695 18.4349 42.8078 17.4473C43.046 16.4298 43.6119 15.4721 44.3267 14.7238C44.9223 14.1253 45.7265 13.5566 46.5604 13.3172C46.888 13.2274 47.2156 13.1975 47.5134 13.1077C47.7517 13.0479 47.9602 12.9282 48.1687 12.8084C48.3176 12.7187 48.2878 12.1201 48.1687 12.0602L48.1389 11.9106Z" fill="#0089DE"/>
<path d="M41.3481 40.3423L63.5959 17.8662C63.5959 17.8662 63.8043 22.3854 63.5959 22.535C63.3874 22.6846 41.7055 41.8387 41.7055 41.8387L41.3184 40.3423H41.3481Z" fill="#D9EDFA"/>
<path d="M47.9026 52.8821C50.4341 48.0636 52.9954 43.2452 55.527 38.4268C51.953 41.2699 48.3791 44.143 44.835 46.9862C45.8476 48.9615 46.89 50.9367 47.9026 52.912V52.8821Z" fill="#D9EDFA"/>
<path d="M32.2347 21.3381C32.1454 21.0987 50.1937 1.88477 50.1937 1.88477L52.9337 2.4534L32.6219 22.9542L32.2347 21.368V21.3381Z" fill="#D9EDFA"/>
<path d="M31.4307 18.4945L46.6199 1.55518L47.9899 1.88439L31.4902 19.6318L31.4307 18.4945Z" fill="#D9EDFA"/>
<path d="M48.0208 53.3014C47.038 50.7275 45.668 48.3034 44.3873 45.8792C43.1066 43.455 41.8558 41.0607 40.5751 38.6366C38.4308 34.6561 36.2566 30.6757 34.142 26.6653C33.874 26.1864 33.6655 25.6777 33.4273 25.1988C33.3677 25.0492 33.3081 24.8995 33.2486 24.7499C33.2188 24.6601 33.189 24.6002 33.1592 24.5105C33.2486 24.72 33.1592 24.4207 33.1294 24.4207C32.9805 24.0316 32.8614 23.6425 32.7422 23.2235C32.2062 21.4279 31.9679 19.8417 31.9977 17.9263C31.9977 17.0583 32.1764 15.8313 32.4146 14.8437C32.6529 13.856 32.9805 12.9582 33.3975 12.0603C34.142 10.4143 35.1249 8.91788 36.3162 7.57111C38.8775 4.66808 42.4514 2.63296 46.3232 2.33368C50.1949 2.0344 54.2454 3.47095 57.2535 6.10463C58.6235 7.30176 59.8148 8.76824 60.7083 10.3245C61.7209 12.0903 62.525 14.2152 62.8228 15.951C62.8824 16.2204 62.9122 16.4897 62.942 16.7591C62.942 16.8788 62.942 17.0284 63.0015 17.1481C63.0611 17.597 63.0015 16.8488 63.0015 17.2678C63.0015 17.8365 63.0611 18.3752 63.0313 18.9438C63.0313 19.3628 63.0313 18.6445 63.0313 19.0336C63.0313 19.1533 63.0313 19.273 63.0313 19.3927C63.0313 19.6322 63.0015 19.8716 62.9718 20.111C62.942 20.3504 62.9122 20.5899 62.8824 20.7994C62.8824 20.8592 62.8228 21.2184 62.8824 20.8891C62.8824 21.0388 62.8228 21.1884 62.7931 21.3381C62.7037 21.7571 62.6144 22.1761 62.4952 22.625C62.4357 22.8045 62.4059 22.9841 62.3463 23.1637C62.3463 23.2535 62.2867 23.3133 62.2867 23.4031C62.2867 23.463 62.1378 23.882 62.2272 23.5827C61.9889 24.271 61.7507 24.9594 61.4528 25.6178C61.2443 26.0966 61.0061 26.5755 60.7678 27.0244C60.7678 27.0543 60.7083 27.1142 60.7083 27.1441C60.6189 27.2938 60.8572 26.9047 60.7678 27.0543C60.738 27.1142 60.7083 27.1741 60.6487 27.2339C60.5891 27.3237 60.5593 27.3836 60.4998 27.4733C59.8148 28.6705 59.2191 29.9275 58.5639 31.1545C57.9385 32.3816 57.3428 33.6086 56.7472 34.8357C55.5261 37.2898 54.305 39.714 53.0839 42.1382C51.833 44.5623 50.5523 46.9267 49.361 49.3508C48.7654 50.548 48.2293 51.7451 47.6336 52.9422C47.4847 53.2415 47.5145 53.7503 47.6336 54.0496C47.7528 54.3488 47.991 54.289 48.1399 54.0496C48.7952 52.8524 49.5099 51.6852 50.1652 50.4881C50.8204 49.291 51.4458 48.0639 52.101 46.8668C53.3817 44.4426 54.6921 42.0184 56.0324 39.5943C57.3428 37.1701 58.7426 34.8057 60.0233 32.3516C60.3509 31.7531 60.6487 31.1545 60.9763 30.5559C61.0657 30.3764 61.155 30.2267 61.2444 30.0472C61.2444 30.0472 61.3635 29.8077 61.3039 29.9574C61.3039 30.0172 61.2741 30.0172 61.3039 29.9574C61.3039 29.9275 61.3635 29.8975 61.3635 29.8377C61.6017 29.4486 61.8102 29.0895 61.9889 28.7004C63.6568 25.4682 64.5205 21.787 64.4609 18.1657C64.4311 15.5919 63.9248 12.9283 62.7931 10.5939C61.9889 8.91788 60.9167 7.33168 59.6956 5.95499C57.0152 2.87239 53.4115 0.597846 49.3312 0.059139C45.251 -0.479568 40.9921 0.8672 37.8053 3.50088C34.6186 6.16449 32.504 9.60623 31.4914 13.467C30.3894 17.7168 30.8957 22.2658 32.5338 26.3061C32.8912 27.204 33.3379 28.0719 33.8144 28.9099C35.1546 31.2742 36.4055 33.6984 37.716 36.0927C40.3368 40.941 43.0173 45.7295 45.7275 50.518C46.0551 51.0867 46.3827 51.6852 46.7104 52.2539C47.038 52.8225 47.3954 53.3014 47.7825 53.8101C48.0208 54.1094 48.1102 53.3612 48.0506 53.2415L48.0208 53.3014Z" fill="#0089DE"/>
<path d="M84.5937 47.6456C83.8194 45.8799 81.9431 44.0842 79.4711 44.144C76.9991 44.2039 75.2121 46.1492 74.5569 48.0347C73.6337 50.6384 74.9739 52.913 75.1526 53.2422C76.6715 56.0854 78.2202 58.9286 79.7391 61.7717C81.1985 58.9884 82.6578 56.235 84.1172 53.4517C84.2661 53.2422 85.8744 50.5487 84.5937 47.6456ZM79.9178 51.8655C78.8159 51.9254 77.9819 50.9677 77.9224 50.1297C77.8926 49.561 78.2202 49.0223 78.3096 48.9026C78.3989 48.7829 78.5478 48.5734 78.7861 48.3938C79.0243 48.2143 79.2924 48.1544 79.5009 48.1245C79.5604 48.1245 79.5902 48.1245 79.62 48.1245C79.62 48.1245 79.6498 48.1245 79.6796 48.1245C79.7391 48.1245 79.7987 48.1245 79.8285 48.1245C80.6922 48.1843 81.675 48.9026 81.675 50.01C81.675 50.9976 80.8411 51.8056 79.888 51.8655H79.9178Z" fill="white"/>
<path d="M75.957 54.4392L78.7566 51.4763C79.531 51.9253 80.5436 51.8056 81.169 51.1471C81.8242 50.4887 81.9136 49.4412 81.3775 48.6631C82.1518 47.855 82.9262 47.017 83.7005 46.209C84.1175 47.0769 84.5345 47.9448 84.9812 48.8427C82.3901 51.5362 79.799 54.2597 77.1781 56.9532C76.7909 56.1152 76.374 55.2772 75.9868 54.4392H75.957Z" fill="#BCCEDA"/>
<path d="M79.8585 47.7655C79.6799 47.6458 79.5012 47.6757 79.2927 47.7057C79.0246 47.7655 78.7566 47.8852 78.5481 48.0648C78.2801 48.3042 78.0716 48.6634 77.9525 49.0225C77.5951 49.9802 77.9525 51.0576 78.7864 51.6263C79.6203 52.1949 80.6627 51.9854 81.3179 51.2671C81.9731 50.5189 82.0327 49.2919 81.437 48.4838C81.1392 48.0947 80.7222 47.7955 80.2457 47.6758C79.9777 47.6159 79.7096 47.6159 79.4416 47.6758C79.3225 47.7057 79.1735 47.7655 79.0842 47.8553C78.9949 47.9451 78.8757 48.005 78.7864 48.0947C78.7566 48.0947 78.7566 48.3042 78.7864 48.2743C78.8459 48.2743 78.9353 48.2145 79.0246 48.1845C79.0842 48.1845 79.114 48.1845 79.1735 48.1845C79.2331 48.1845 79.2927 48.1845 79.3522 48.1546C79.5607 48.1247 79.799 48.1546 80.0075 48.1546C80.3649 48.2145 80.7223 48.394 81.0201 48.6335C81.2881 48.8729 81.5264 49.1722 81.5859 49.5313C81.6455 49.8904 81.5264 50.2496 81.3179 50.5489C80.8414 51.2073 79.9479 51.5365 79.2033 51.2372C78.8459 51.0876 78.5183 50.8481 78.3098 50.5189C78.1014 50.2196 78.012 49.9503 78.1014 49.5912C78.1907 49.232 78.3694 48.9327 78.6077 48.6933C78.8162 48.4838 79.0842 48.3042 79.3522 48.2145C79.4714 48.1845 79.5607 48.1845 79.6799 48.1546C79.7692 48.1546 79.8288 48.0947 79.9181 48.0648C79.9777 48.0648 79.9479 47.8254 79.9181 47.7955L79.8585 47.7655Z" fill="#231F20"/>
<path d="M77.5947 57.3422L85.0702 49.8003C85.0702 49.8003 85.1596 51.3266 85.0702 51.3865C84.9809 51.4463 77.7139 57.8809 77.7139 57.8809L77.5947 57.3721V57.3422Z" fill="#BCCEDA"/>
<path d="M79.8002 61.5619C80.6639 59.9458 81.4978 58.3296 82.3615 56.6836C81.1702 57.6413 79.9491 58.599 78.7578 59.5567C79.1152 60.2151 79.4428 60.8735 79.8002 61.532V61.5619Z" fill="#BCCEDA"/>
<path d="M74.5275 50.9376C74.4977 50.8478 80.5734 44.3833 80.5734 44.3833L81.4966 44.5629L74.6764 51.4463L74.5572 50.9076L74.5275 50.9376Z" fill="#BCCEDA"/>
<path d="M74.2607 49.9798L79.3536 44.2935L79.8301 44.4132L74.2607 50.3689V49.9798Z" fill="#BCCEDA"/>
<path d="M79.8291 61.6817C79.5015 60.8138 79.025 60.0057 78.608 59.1976C78.1911 58.3896 77.7741 57.5815 77.3274 56.7735C76.6126 55.4267 75.868 54.0799 75.1532 52.7631C75.0639 52.6134 74.9745 52.4339 74.915 52.2543C74.915 52.1944 74.8852 52.1645 74.8554 52.1047C74.8554 52.1047 74.8554 52.0448 74.8256 52.0149C74.8256 52.0747 74.8256 52.0149 74.8256 51.9849C74.766 51.8652 74.7363 51.7156 74.7065 51.5959C74.5278 50.9973 74.4384 50.4586 74.4682 49.8301C74.4682 49.5308 74.5278 49.1118 74.6171 48.7826C74.7065 48.4534 74.7958 48.1541 74.9447 47.8549C75.183 47.3161 75.5404 46.8074 75.9276 46.3584C76.7913 45.3708 77.9826 44.7124 79.293 44.5927C80.6035 44.5029 81.9437 44.9817 82.9861 45.8497C83.4328 46.2387 83.8498 46.7475 84.1476 47.2563C84.4752 47.8549 84.7433 48.5731 84.8624 49.1418C84.8624 49.2316 84.8624 49.3213 84.8922 49.4111C84.8922 49.4411 84.8922 49.5009 84.8922 49.5308C84.8922 49.6805 84.8922 49.4411 84.8922 49.5608C84.8922 49.7403 84.8922 49.9199 84.8922 50.1294C84.8922 50.279 84.8922 50.0396 84.8922 50.1593C84.8922 50.1893 84.8922 50.2491 84.8922 50.279C84.8922 50.3688 84.8922 50.4287 84.8922 50.5185C84.8922 50.6082 84.8922 50.6681 84.8624 50.7579C84.8624 50.7579 84.8624 50.9075 84.8624 50.7878C84.8624 50.8477 84.8624 50.8776 84.8624 50.9375C84.8624 51.0871 84.8028 51.2367 84.7731 51.3565C84.7731 51.4163 84.7433 51.4762 84.7135 51.536C84.7135 51.536 84.7135 51.5959 84.7135 51.6258C84.7135 51.6258 84.6539 51.7754 84.7135 51.6857C84.6241 51.9251 84.5646 52.1346 84.4454 52.374C84.3859 52.5237 84.2965 52.7032 84.2072 52.8529C84.2072 52.8529 84.2072 52.8529 84.2072 52.8828C84.2667 52.793 84.2072 52.9426 84.2072 52.8828C84.2072 52.8828 84.2072 52.9127 84.1774 52.9426C84.1774 52.9426 84.1476 53.0025 84.1178 53.0324C83.8796 53.4215 83.6711 53.8704 83.4626 54.2595C83.2541 54.6486 83.0457 55.0975 82.8372 55.4865C82.4202 56.2946 82.033 57.1326 81.6161 57.9407C81.1991 58.7487 80.7822 59.5568 80.3652 60.3648C80.1567 60.7539 79.978 61.1729 79.7696 61.562C79.71 61.6517 79.7398 61.8313 79.7696 61.9211C79.7993 62.0109 79.8887 62.0109 79.9482 61.9211C80.1567 61.532 80.4248 61.113 80.6332 60.724C80.8417 60.3349 81.08 59.9159 81.2885 59.4969C81.7352 58.6889 82.1522 57.8808 82.5989 57.0428C83.0457 56.2048 83.5222 55.4267 83.9391 54.6186C84.0583 54.4091 84.1476 54.2296 84.2667 54.0201C84.2667 53.9602 84.3263 53.9003 84.3561 53.8405C84.3561 53.8405 84.3859 53.7507 84.3561 53.8106C84.3561 53.8106 84.3561 53.8106 84.3561 53.7806C84.4454 53.6609 84.505 53.5113 84.5646 53.3916C85.1304 52.3142 85.3985 51.0572 85.3985 49.86C85.3985 48.9921 85.2198 48.0943 84.8326 47.3162C84.5646 46.7475 84.2072 46.2088 83.7902 45.7599C82.8967 44.7124 81.6757 43.9642 80.3056 43.7846C78.9356 43.6051 77.5061 44.054 76.4339 44.9518C75.3617 45.8497 74.6469 47.0169 74.3193 48.3038C73.9619 49.7403 74.1108 51.2667 74.6767 52.6134C74.7958 52.9127 74.9447 53.212 75.0937 53.4814C75.5404 54.2595 75.9574 55.0975 76.4041 55.9055C77.2976 57.5217 78.1911 59.1378 79.0846 60.7539C79.2037 60.9335 79.293 61.143 79.4122 61.3225C79.5313 61.5021 79.6504 61.6817 79.7696 61.8313C79.8589 61.9211 79.8887 61.6817 79.8589 61.6517L79.8291 61.6817Z" fill="#231F20"/>
<path d="M37.9245 59.1372C37.2991 57.7306 35.81 56.294 33.8443 56.3539C31.8786 56.4137 30.4491 57.9401 29.913 59.4365C29.1684 61.5015 30.2406 63.3271 30.3895 63.5665C31.6106 65.8112 32.8317 68.0857 34.0528 70.3303C35.2143 68.1156 36.3758 65.9309 37.5374 63.7162C37.6565 63.5366 38.9372 61.4117 37.9245 59.1072V59.1372ZM34.2017 62.4891C33.3082 62.549 32.653 61.7709 32.6232 61.1124C32.5934 60.6635 32.8615 60.2146 32.921 60.1547C32.9806 60.065 33.0997 59.8854 33.3082 59.7657C33.5167 59.616 33.7252 59.5562 33.8741 59.5562C33.9039 59.5562 33.9337 59.5562 33.9634 59.5562C33.9634 59.5562 33.9932 59.5562 34.023 59.5562C34.0826 59.5562 34.1123 59.5562 34.1421 59.5562C34.8271 59.5861 35.6313 60.1847 35.6015 61.0526C35.6015 61.8307 34.9463 62.4891 34.1719 62.5191L34.2017 62.4891Z" fill="white"/>
<path d="M31.0449 64.5549L33.2786 62.1906C33.9041 62.5497 34.7082 62.4599 35.1847 61.9212C35.691 61.3825 35.7804 60.5745 35.3634 59.946C35.9889 59.2875 36.5845 58.6291 37.21 57.9707C37.5376 58.6591 37.895 59.3773 38.2226 60.0657C36.1676 62.2205 34.0828 64.3753 32.0278 66.5302C31.7001 65.8717 31.4023 65.2133 31.0747 64.525L31.0449 64.5549Z" fill="#BCCEDA"/>
<path d="M34.1424 59.2576C33.9935 59.1678 33.8446 59.1678 33.6957 59.2276C33.4872 59.2875 33.2787 59.3474 33.1 59.5269C32.8915 59.7364 32.7128 60.0058 32.6235 60.2751C32.3554 61.0233 32.6235 61.8913 33.2787 62.3402C33.9637 62.7891 34.7678 62.6395 35.2741 62.0409C35.7805 61.4423 35.84 60.4547 35.3635 59.8262C35.1252 59.497 34.7976 59.2875 34.4402 59.1977C34.2318 59.1379 33.9935 59.1379 33.8148 59.1977C33.7254 59.2277 33.6063 59.2576 33.517 59.3474C33.4276 59.4371 33.3681 59.4671 33.2787 59.5269V59.6766C33.3383 59.6766 33.3978 59.6167 33.4574 59.6167C33.4872 59.6167 33.517 59.6167 33.5765 59.6167C33.6361 59.6167 33.6659 59.6167 33.7254 59.6167C33.9041 59.6167 34.0828 59.6167 34.2615 59.6167C34.5594 59.6766 34.8274 59.7963 35.0657 59.9759C35.2741 60.1554 35.4528 60.3949 35.5124 60.6941C35.572 60.9934 35.4528 61.2628 35.3039 61.5022C34.9465 62.0409 34.2318 62.2803 33.6063 62.0409C33.3085 61.9212 33.0702 61.7117 32.8915 61.4723C32.7426 61.2328 32.6533 61.0233 32.7128 60.754C32.7724 60.4846 32.9213 60.2153 33.1298 60.0357C33.2787 59.8861 33.517 59.7364 33.7254 59.6466C33.8148 59.6466 33.9041 59.6167 33.9935 59.5868C34.0531 59.5868 34.1126 59.5269 34.1722 59.497C34.202 59.497 34.202 59.3174 34.1722 59.2875L34.1424 59.2576Z" fill="#231F20"/>
<path d="M32.3252 66.8588L38.2817 60.8433C38.2817 60.8433 38.3413 62.0404 38.2817 62.1002C38.2222 62.1601 32.4145 67.2778 32.4145 67.2778L32.3252 66.8888V66.8588Z" fill="#BCCEDA"/>
<path d="M34.0829 70.2108C34.7679 68.9239 35.4529 67.637 36.1082 66.3501C35.1551 67.0983 34.2021 67.8764 33.249 68.6246C33.5171 69.1633 33.7851 69.6721 34.0829 70.2108Z" fill="#BCCEDA"/>
<path d="M29.8828 61.771C29.8828 61.7111 34.6778 56.5635 34.6778 56.5635L35.4224 56.7131L30.0019 62.19L29.9126 61.771H29.8828Z" fill="#BCCEDA"/>
<path d="M29.6748 61.0227L33.755 56.4736L34.1124 56.5634L29.7046 61.322L29.6748 61.0227Z" fill="#BCCEDA"/>
<path d="M34.1125 70.3306C33.8444 69.6422 33.4871 68.9838 33.1297 68.3553C32.802 67.6969 32.4447 67.0684 32.117 66.41C31.5512 65.3326 30.9555 64.2851 30.3896 63.2077C30.3301 63.088 30.2705 62.9383 30.2109 62.8186C30.2109 62.7887 30.1812 62.7288 30.1514 62.6989C30.1514 62.6989 30.1514 62.669 30.1514 62.639C30.1216 62.5193 30.0918 62.4295 30.0323 62.3098C29.8833 61.831 29.8238 61.412 29.8238 60.9032C29.8238 60.6638 29.8833 60.3346 29.9429 60.0652C30.0025 59.7959 30.0918 59.5564 30.2109 59.317C30.4194 58.8681 30.6875 58.479 30.9853 58.1199C31.6703 57.3418 32.6234 56.803 33.6657 56.7133C34.7081 56.6235 35.7803 57.0125 36.5845 57.7308C36.9419 58.06 37.2695 58.4491 37.5077 58.8681C37.7758 59.3469 37.9842 59.9156 38.0736 60.3645C38.0736 60.4244 38.0736 60.5141 38.1034 60.574C38.1034 60.6039 38.1034 60.6339 38.1034 60.6937C38.1034 60.8134 38.1034 60.6039 38.1034 60.7236C38.1034 60.8733 38.1034 61.0229 38.1034 61.1726C38.1034 61.2923 38.1034 61.0828 38.1034 61.1726C38.1034 61.2025 38.1034 61.2324 38.1034 61.2623C38.1034 61.3222 38.1034 61.3821 38.1034 61.4419C38.1034 61.5018 38.1034 61.5616 38.1034 61.6215C38.1034 61.6514 38.1034 61.7113 38.1034 61.7412C38.1034 61.8609 38.0438 61.9806 38.014 62.0704C38.014 62.1303 38.014 62.1602 37.9842 62.22C37.9842 62.22 37.9842 62.25 37.9842 62.2799C37.9842 62.2799 37.9545 62.3996 37.9842 62.3398C37.9247 62.5193 37.8651 62.6989 37.7758 62.8785C37.7162 62.9982 37.6566 63.1179 37.5971 63.2675C37.5971 63.2675 37.5971 63.2675 37.5971 63.2975C37.6269 63.2376 37.5971 63.3274 37.5971 63.2975C37.5971 63.2975 37.5971 63.3274 37.5971 63.3573C37.5971 63.3573 37.5971 63.3872 37.5673 63.4172C37.3886 63.7464 37.2099 64.0756 37.061 64.4048C36.9121 64.734 36.7334 65.0632 36.5845 65.3924C36.2568 66.0509 35.9292 66.7093 35.6016 67.3378C35.274 67.9663 34.9166 68.6247 34.6188 69.2532C34.4699 69.5824 34.321 69.8817 34.1423 70.2109C34.1125 70.3007 34.1125 70.4204 34.1423 70.5102C34.1721 70.5999 34.2316 70.57 34.2614 70.5102C34.4401 70.1809 34.6188 69.8817 34.7975 69.5524C34.9762 69.2232 35.1549 68.894 35.3038 68.5947C35.6612 67.9363 35.9888 67.3078 36.3462 66.6494C36.7036 65.991 37.061 65.3625 37.4184 64.7041C37.5077 64.5544 37.5971 64.3749 37.6566 64.2252C37.6566 64.1953 37.7162 64.1354 37.7162 64.1055C37.7162 64.1055 37.7162 64.1055 37.7162 64.0756C37.7758 63.9858 37.8353 63.8661 37.8949 63.7763C38.3416 62.9084 38.5799 61.9208 38.5501 60.9631C38.5501 60.2747 38.4012 59.5564 38.1034 58.9279C37.8949 58.479 37.5971 58.06 37.2695 57.671C36.5547 56.833 35.6016 56.2344 34.4997 56.0848C33.3977 55.9351 32.266 56.2943 31.432 57.0125C30.5683 57.7308 30.0025 58.6586 29.7344 59.6762C29.4366 60.8134 29.5855 62.0405 30.0025 63.1179C30.0918 63.3573 30.2109 63.5967 30.3599 63.8062C30.7173 64.4347 31.0449 65.0932 31.4023 65.7216C32.117 67.0086 32.8318 68.2955 33.5466 69.5824C33.636 69.732 33.7253 69.8817 33.8147 70.0313C33.904 70.1809 33.9934 70.3007 34.1125 70.4503C34.1721 70.5401 34.2018 70.3306 34.1721 70.3007L34.1125 70.3306Z" fill="#231F20"/>
<path d="M19.727 51.0571C18.9824 49.3811 17.1955 47.6453 14.8128 47.7051C12.4302 47.765 10.7326 49.6205 10.0774 51.4162C9.18391 53.9302 10.4646 56.1149 10.6433 56.4142C12.1026 59.1377 13.5918 61.8611 15.0511 64.5846C16.4509 61.921 17.8507 59.2574 19.2505 56.5938C19.3696 56.3843 20.9481 53.8105 19.6972 51.0271L19.727 51.0571ZM15.2 55.0974C14.1278 55.1572 13.3237 54.2295 13.2939 53.4513C13.2641 52.8827 13.5918 52.3739 13.6513 52.2841C13.7407 52.1644 13.8598 51.9849 14.1278 51.8053C14.3661 51.6556 14.6044 51.5659 14.8128 51.5359C14.8426 51.5359 14.9022 51.5359 14.932 51.5359C14.932 51.5359 14.9618 51.5359 14.9915 51.5359C15.0511 51.5359 15.1107 51.5359 15.1405 51.5359C15.9744 51.5659 16.9274 52.2841 16.8976 53.3615C16.8976 54.3192 16.0935 55.0974 15.2 55.1572V55.0974Z" fill="white"/>
<path d="M11.418 57.5519L14.0984 54.7087C14.843 55.1577 15.796 55.008 16.4215 54.4095C17.0469 53.781 17.1363 52.7634 16.63 52.0152C17.3745 51.2371 18.1191 50.429 18.8339 49.6509C19.2508 50.4889 19.638 51.3269 20.055 52.1648C17.5532 54.7686 15.0812 57.3723 12.5795 59.9761C12.1923 59.168 11.8051 58.36 11.418 57.5818V57.5519Z" fill="#BCCEDA"/>
<path d="M15.1701 51.1767C14.9914 51.057 14.8127 51.0869 14.6042 51.1168C14.3362 51.1767 14.0979 51.2665 13.8894 51.476C13.6214 51.7154 13.4427 52.0446 13.2938 52.4037C12.9662 53.3016 13.2938 54.3491 14.0979 54.8878C14.902 55.4265 15.9147 55.2469 16.5103 54.5286C17.1357 53.8103 17.1953 52.6432 16.6294 51.865C16.3614 51.476 15.9444 51.2066 15.4977 51.0869C15.2594 51.027 14.9616 51.027 14.7233 51.0869C14.6042 51.1168 14.4851 51.1767 14.3659 51.2365C14.2468 51.2964 14.1873 51.3862 14.0979 51.446C14.0681 51.446 14.0681 51.6555 14.0979 51.6256C14.1575 51.6256 14.2468 51.5657 14.3064 51.5657C14.3362 51.5657 14.3957 51.5657 14.4255 51.5657C14.4851 51.5657 14.5446 51.5657 14.6042 51.5358C14.8127 51.5059 15.051 51.5358 15.2594 51.5358C15.6168 51.5957 15.9444 51.7453 16.2125 51.9847C16.4805 52.1942 16.689 52.4935 16.7486 52.8526C16.8081 53.2118 16.689 53.541 16.5103 53.8103C16.0636 54.4388 15.1999 54.7381 14.4553 54.4688C14.0979 54.3191 13.8001 54.0797 13.5916 53.7804C13.4129 53.5111 13.3236 53.2118 13.3831 52.9125C13.4427 52.6132 13.6512 52.284 13.8596 52.0446C14.0383 51.8351 14.3064 51.6555 14.5744 51.5957C14.6638 51.5657 14.7829 51.5657 14.8723 51.5358C14.9616 51.5358 15.0212 51.4759 15.0807 51.446C15.1403 51.446 15.1105 51.2365 15.0807 51.2066L15.1701 51.1767Z" fill="#231F20"/>
<path d="M12.9658 60.3349L20.1435 53.0923C20.1435 53.0923 20.203 54.5588 20.1435 54.5887C20.0839 54.6186 13.085 60.8138 13.085 60.8138L12.9658 60.3349Z" fill="#BCCEDA"/>
<path d="M15.1117 64.4051C15.9457 62.8489 16.7498 61.2926 17.5837 59.7363C16.4222 60.6641 15.2904 61.5619 14.1289 62.4897C14.4565 63.1182 14.7841 63.7467 15.1117 64.4051Z" fill="#BCCEDA"/>
<path d="M10.048 54.2293C10.0182 54.1395 15.8556 47.9443 15.8556 47.9443L16.7491 48.1239L10.1969 54.738L10.0777 54.2293H10.048Z" fill="#BCCEDA"/>
<path d="M9.77832 53.3016L14.6925 47.8247L15.1094 47.9444L9.8081 53.6607L9.77832 53.3016Z" fill="#BCCEDA"/>
<path d="M15.141 64.5247C14.8134 63.6867 14.3666 62.9086 13.9794 62.1305C13.5625 61.3523 13.1753 60.5742 12.7583 59.7961C12.0733 58.5092 11.3586 57.2223 10.6736 55.9353C10.5842 55.7857 10.5246 55.6361 10.4353 55.4565C10.4353 55.3966 10.4055 55.3667 10.3757 55.3069C10.3757 55.3069 10.3757 55.247 10.3459 55.2171C10.3459 55.2769 10.3459 55.2171 10.3459 55.1871C10.2864 55.0674 10.2566 54.9477 10.2268 54.7981C10.0481 54.2294 9.98855 53.6907 9.98855 53.0922C9.98855 52.8228 10.0481 52.4038 10.1375 52.1045C10.2268 51.8053 10.3162 51.506 10.4651 51.2067C10.7033 50.668 11.0309 50.1891 11.4181 49.7701C12.252 48.8424 13.3838 48.184 14.6644 48.0642C15.9153 47.9745 17.2258 48.4234 18.2086 49.2913C18.6553 49.6804 19.0425 50.1592 19.3403 50.6381C19.668 51.2067 19.936 51.895 20.0253 52.4637C20.0253 52.5535 20.0253 52.6432 20.0551 52.733C20.0551 52.763 20.0551 52.8228 20.0551 52.8527C20.0551 53.0024 20.0551 52.763 20.0551 52.8827C20.0551 53.0622 20.0551 53.2418 20.0551 53.4214C20.0551 53.571 20.0551 53.3316 20.0551 53.4513C20.0551 53.4812 20.0551 53.5411 20.0551 53.571C20.0551 53.6608 20.0551 53.7207 20.0551 53.8105C20.0551 53.9002 20.0551 53.9601 20.0551 54.0499C20.0551 54.0499 20.0551 54.1995 20.0551 54.0798C20.0551 54.1397 20.0551 54.1696 20.0551 54.2294C20.0551 54.3791 19.9956 54.4988 19.9658 54.6484C19.9658 54.7083 19.936 54.7681 19.9062 54.828C19.9062 54.828 19.9062 54.8879 19.9062 54.9178C19.9062 54.9178 19.8466 55.0674 19.9062 54.9776C19.8466 55.1871 19.7573 55.4266 19.6679 55.6361C19.6084 55.7857 19.519 55.9353 19.4595 56.085C19.4595 56.085 19.4595 56.085 19.4595 56.1149C19.4893 56.0251 19.4595 56.1748 19.4595 56.1149C19.4595 56.1149 19.4595 56.1448 19.4297 56.1748C19.4297 56.1748 19.3999 56.2346 19.3701 56.2646C19.1319 56.6536 18.9532 57.0427 18.7447 57.4617C18.5362 57.8807 18.3575 58.2398 18.149 58.6588C17.7619 59.4369 17.3747 60.245 16.9577 61.0231C16.5408 61.8013 16.1536 62.5794 15.7664 63.3575C15.5877 63.7466 15.409 64.1357 15.2005 64.5247C15.141 64.6145 15.1708 64.7941 15.2005 64.8839C15.2303 64.9737 15.3197 64.9737 15.3494 64.8839C15.5579 64.4948 15.7962 64.1357 16.0047 63.7466C16.2131 63.3575 16.4216 62.9685 16.6301 62.5794C17.0471 61.8013 17.464 61.0231 17.881 60.245C18.2979 59.4669 18.7447 58.6887 19.1616 57.9106C19.251 57.731 19.3701 57.5215 19.4595 57.342C19.4595 57.2821 19.519 57.2223 19.5488 57.1923C19.5488 57.1923 19.5786 57.1025 19.5488 57.1624C19.5488 57.1624 19.5488 57.1624 19.5488 57.1325C19.6084 57.0128 19.6977 56.893 19.7573 56.7733C20.2934 55.7259 20.5614 54.5587 20.5614 53.3615C20.5614 52.5235 20.3827 51.6856 20.0253 50.9074C19.7573 50.3687 19.4297 49.8599 19.0425 49.411C18.1788 48.4234 17.0173 47.6752 15.7068 47.5255C14.3964 47.346 13.0264 47.7949 11.984 48.6329C10.9416 49.5008 10.2566 50.6081 9.95877 51.8651C9.60137 53.2418 9.78007 54.7083 10.2864 55.9952C10.4055 56.2945 10.5544 56.5638 10.7033 56.8332C11.1501 57.5814 11.5373 58.3895 11.9542 59.1377C12.7881 60.6939 13.6518 62.2502 14.5453 63.8065C14.6644 63.986 14.7538 64.1656 14.8729 64.3751C14.9921 64.5846 15.0814 64.7043 15.2303 64.8839C15.2899 64.9737 15.3197 64.7342 15.3197 64.7043L15.141 64.5247Z" fill="#231F20"/>
</g>
<defs>
<clipPath id="clip0_986_5138">
<rect width="85" height="75" fill="white" transform="translate(4)"/>
</clipPath>
</defs>
</svg>
