<svg xmlns="http://www.w3.org/2000/svg" width="74" height="74" fill="none" viewBox="0 0 74 74"><circle cx="37" cy="37" r="37" fill="#BCDABF"/><g clip-path="url(#a)"><path fill="#fff" fill-rule="evenodd" d="M41.08 45.995a.37.37 0 0 1-.315-.192.42.42 0 0 1-.05-.297.4.4 0 0 1 .162-.247l2.69-1.858-3.956 2.442a.354.354 0 0 1-.502-.136.42.42 0 0 1 .105-.544l7.49-5.373-7.13 4.404a.36.36 0 0 1-.517-.129.42.42 0 0 1 .12-.552l7.408-5.325-7.011 4.324a.36.36 0 0 1-.487-.149.42.42 0 0 1 .097-.532l3.746-2.578-3.326 2.05a.354.354 0 0 1-.502-.136.417.417 0 0 1 .105-.545l4.741-3.355-4.337 2.723a.36.36 0 0 1-.478-.148.42.42 0 0 1 .081-.525l5.588-4.132-5.19 3.203a.354.354 0 0 1-.503-.128.42.42 0 0 1 .105-.544l5.453-4.004-5.056 3.123a.36.36 0 0 1-.517-.129.42.42 0 0 1 .12-.552l2.996-2.138-2.584 1.601a.37.37 0 0 1-.51-.136.417.417 0 0 1 .12-.544l1.012-.72-.622.383a.36.36 0 0 1-.478-.147.42.42 0 0 1 .081-.525l2.854-2.106-2.457 1.513a.36.36 0 0 1-.502-.12.43.43 0 0 1 .09-.544l3.43-2.795-2.995 1.866a.367.367 0 0 1-.495-.12.41.41 0 0 1 .075-.537l2.052-1.778-1.633 1.01a.36.36 0 0 1-.506-.087.42.42 0 0 1 .05-.546l1.348-1.466-.929.56a.34.34 0 0 1-.404 0 .4.4 0 0 1-.15-.4l.247-1.337a.4.4 0 0 1-.247-.337.41.41 0 0 1 .18-.384l.374-.232a.35.35 0 0 1 .405.022c.12.091.178.249.15.403l-.218 1.153 2.57-1.602a.36.36 0 0 1 .468.112c.11.153.103.37-.02.513l-1.318 1.457 3.394-2.09a.36.36 0 0 1 .502.12.43.43 0 0 1-.075.537l-2.06 1.777 3.947-2.402a.36.36 0 0 1 .502.12.43.43 0 0 1-.09.545l-3.43 2.795 5.505-3.396a.36.36 0 0 1 .51.129.42.42 0 0 1-.105.544l-2.854 2.098 3.61-2.226a.36.36 0 0 1 .502.136.41.41 0 0 1 .05.297.4.4 0 0 1-.163.248l-1.018.72 1.25-.8a.37.37 0 0 1 .51.136.417.417 0 0 1-.112.544l-2.997 2.13 3.311-2.034a.353.353 0 0 1 .502.128.417.417 0 0 1-.105.545l-5.468 4.036 5.993-3.7a.36.36 0 0 1 .516.128.417.417 0 0 1-.12.553l-5.587 4.06 6.105-3.764a.34.34 0 0 1 .277-.046.36.36 0 0 1 .224.182.417.417 0 0 1-.112.545l-4.741 3.355 5.153-3.203a.36.36 0 0 1 .487.149.42.42 0 0 1-.098.532l-3.745 2.578 4.045-2.498a.36.36 0 0 1 .502.136.42.42 0 0 1-.105.544l-7.408 5.333 7.648-4.724a.36.36 0 0 1 .375-.014.4.4 0 0 1 .198.34.41.41 0 0 1-.176.355l-7.498 5.38 7.22-4.46a.36.36 0 0 1 .488.15.42.42 0 0 1-.098.531l-2.689 1.858 2.307-1.425a.36.36 0 0 1 .502.136.426.426 0 0 1-.105.544l-6.06 4.588 5.663-3.499a.36.36 0 0 1 .502.136.41.41 0 0 1-.098.537l-3.992 3.059 3.588-2.21a.36.36 0 0 1 .502.12.43.43 0 0 1-.075.536L53.4 42.536l3.033-1.874a.36.36 0 0 1 .496.112.42.42 0 0 1-.061.537l-1.962 1.818 1.498-.945a.36.36 0 0 1 .494.112.42.42 0 0 1-.06.536l-.434.409a.35.35 0 0 1 .464.088.404.404 0 0 1 0 .504l-.33.465a.38.38 0 0 1 .36.2c.051.09.066.2.04.303a.4.4 0 0 1-.175.242l-1.423.88a.365.365 0 0 1-.472-.088.43.43 0 0 1 0-.504l.285-.393-1.52.985a.36.36 0 0 1-.495-.112.43.43 0 0 1 .06-.536l.434-.409-1.723 1.057a.353.353 0 0 1-.487-.112.42.42 0 0 1 .06-.536l1.963-1.818-4.008 2.474a.36.36 0 0 1-.52-.108.42.42 0 0 1 .101-.556l3.453-2.931-5.828 3.596a.36.36 0 0 1-.5-.132.42.42 0 0 1 .096-.541l3.993-3.06-6.053 3.733a.354.354 0 0 1-.502-.129.436.436 0 0 1 .098-.544l6.067-4.589-8.539 5.27a.32.32 0 0 1-.225.055" clip-rule="evenodd"/><path fill="#303931" fill-rule="evenodd" d="M41.465 44.532a.35.35 0 0 1-.224-.074.37.37 0 0 1-.141-.388l.134-.53-1.492.88a.38.38 0 0 1-.477-.09.37.37 0 0 1 0-.477l.798-.902-2.425 1.402a.373.373 0 0 1-.492-.112.38.38 0 0 1 .06-.5l1.066-.887-2.484 1.432a.366.366 0 0 1-.5-.112.373.373 0 0 1 .09-.507l1.03-.746-2.306 1.335a.373.373 0 0 1-.5-.127.36.36 0 0 1 .097-.5l1.067-.745-2.313 1.313a.373.373 0 0 1-.5-.127.365.365 0 0 1 .098-.507l2.006-1.388-3.387 1.947a.375.375 0 1 1-.402-.634l4.356-3.021-6.236 3.573a.373.373 0 0 1-.388-.634l2.238-1.492-3.573 2.059a.36.36 0 0 1-.5-.134.373.373 0 0 1 .119-.508l.597-.373-1.679.962a.373.373 0 0 1-.388-.633l1.358-.858-2.484 1.454a.37.37 0 0 1-.508-.127.373.373 0 0 1 .12-.507l7.057-4.617-8.952 5.177a.373.373 0 0 1-.38-.635l3.05-1.917-4.333 2.5a.366.366 0 0 1-.508-.135.373.373 0 0 1 .12-.507l4.744-2.984-5.714 3.32a.365.365 0 0 1-.507-.135.373.373 0 0 1 .12-.507l4.714-2.932-5.17 2.984a.366.366 0 0 1-.5-.156.38.38 0 0 1 .112-.508L29.18 34.44l-12.391 7.154a.36.36 0 0 1-.5-.134.373.373 0 0 1 .119-.508l9.146-5.766-8.893 5.132a.366.366 0 0 1-.507-.134.373.373 0 0 1 .12-.507l9.436-5.968-9.049 5.267a.374.374 0 1 1-.387-.642l11.19-7.14L16.66 37.4a.373.373 0 0 1-.507-.126.373.373 0 0 1 .12-.537l11.018-7.028-10.63 6.17a.373.373 0 0 1-.388-.635l12.495-8.071-12.108 6.99a.373.373 0 0 1-.38-.642l6.192-3.864-5.812 3.35a.38.38 0 0 1-.507-.127.373.373 0 0 1 .12-.508l10.683-6.892-10.296 5.967a.38.38 0 0 1-.507-.126.373.373 0 0 1 .12-.553l10.026-6.557-9.639 5.565a.372.372 0 0 1-.387-.634l6.572-4.267-6.185 3.574a.384.384 0 0 1-.387-.665l4.923-3.207-4.536 2.648a.376.376 0 0 1-.402-.634l6.415-4.476-6.013 3.491a.365.365 0 0 1-.5-.12.365.365 0 0 1 .098-.506l4.23-2.984-3.828 2.238a.374.374 0 1 1-.41-.627l3.38-2.462-2.984 1.716a.373.373 0 0 1-.403-.627l1.052-.746-.65.373a.373.373 0 0 1-.492-.104.366.366 0 0 1 .06-.493l1.94-1.686-1.455.821a.373.373 0 0 1-.463-.574l.918-.992a.37.37 0 0 1-.298-.187.367.367 0 0 1 .134-.507l1.7-1.015a.38.38 0 0 1 .478.09.366.366 0 0 1 0 .485l-.746.858 2.626-1.492a.373.373 0 0 1 .492.104c.106.159.08.37-.06.5l-1.946 1.663 3.976-2.29a.365.365 0 0 1 .5.12.373.373 0 0 1-.097.507l-1.052.746 2.395-1.373a.373.373 0 0 1 .5.12.365.365 0 0 1-.098.5l-3.372 2.469 5.357-3.089a.373.373 0 0 1 .5.12.373.373 0 0 1-.105.507l-4.222 2.984 6.2-3.58a.373.373 0 0 1 .499.118.373.373 0 0 1-.105.508l-6.408 4.476 8.803-5.133a.373.373 0 0 1 .395.634l-4.93 3.208 6.661-3.842a.373.373 0 0 1 .388.634l-6.572 4.268 8.49-4.902a.373.373 0 0 1 .387.634l-10.026 6.58 12.115-6.997a.375.375 0 1 1 .388.641l-10.683 6.9 11.51-6.661a.38.38 0 0 1 .508.134.373.373 0 0 1-.127.507l-6.206 3.872 6.319-3.648a.372.372 0 0 1 .387.634L29.313 27.71l12.294-7.094a.373.373 0 0 1 .388.634l-11.019 7.027 10.63-6.14a.373.373 0 0 1 .389.634l-11.19 7.14 10.794-6.237a.38.38 0 0 1 .508.135.373.373 0 0 1-.12.507l-9.43 5.968 9.05-5.222a.366.366 0 0 1 .5.134.373.373 0 0 1-.12.507l-9.123 5.76 8.765-5.066a.38.38 0 0 1 .507.134.373.373 0 0 1-.119.508l-12.033 7.773 11.63-6.714a.375.375 0 0 1 .388.642l-4.714 2.939 4.326-2.507a.38.38 0 0 1 .507.134.373.373 0 0 1-.119.508l-4.752 2.984 4.364-2.522a.375.375 0 0 1 .388.642l-3.036 1.902 2.648-1.537a.38.38 0 0 1 .396.642l-7.065 4.617 6.714-3.856a.366.366 0 0 1 .5.134.373.373 0 0 1-.12.507l-1.35.858.97-.56a.373.373 0 0 1 .507.128.373.373 0 0 1-.12.507l-.618.395.231-.134a.373.373 0 0 1 .388.634l-2.238 1.492 1.873-1.082a.373.373 0 0 1 .5.127.36.36 0 0 1-.098.5l-4.357 3.059 3.955-2.29a.38.38 0 0 1 .507.126.373.373 0 0 1-.105.507l-2.066 1.38 1.604-.932a.376.376 0 0 1 .403.634l-1.06.746.664-.388a.373.373 0 0 1 .403.627l-1.03.746.627-.366a.373.373 0 0 1 .425.612l-1.067.888.642-.366a.36.36 0 0 1 .47.082c.12.14.12.346 0 .485l-.79.903.328-.194a.37.37 0 0 1 .41 0c.12.09.173.243.134.388l-.186.746c.063.03.115.08.149.141a.38.38 0 0 1-.134.515l-.351.202a.4.4 0 0 1-.194.09" clip-rule="evenodd"/><path fill="#425C46" fill-rule="evenodd" d="M56.862 52.76a.36.36 0 0 1-.276-.126.37.37 0 0 1 0-.478l.895-1.17-2.812 1.626a.373.373 0 0 1-.425-.605l1.492-1.283-1.642.932a.373.373 0 0 1-.432-.604l2.238-1.97-3.253 1.874a.366.366 0 0 1-.5-.12.38.38 0 0 1 .097-.507l.247-.172-.978.56a.365.365 0 0 1-.492-.12.373.373 0 0 1 .082-.507l2.648-1.94-4.177 2.395a.38.38 0 0 1-.5-.12.38.38 0 0 1 .09-.506l3.73-2.76-6.573 3.789a.365.365 0 0 1-.507-.135.38.38 0 0 1 .134-.514l12.28-7.095a.373.373 0 0 1 .402.627l-3.73 2.768 3.842-2.238a.38.38 0 0 1 .5.12.373.373 0 0 1-.09.499l-2.596 1.947 2.208-1.238a.366.366 0 0 1 .5.119.374.374 0 0 1-.097.507l-.32.232a.373.373 0 0 1 .35.634l-2.238 1.976 1.805-1.044a.373.373 0 0 1 .492.105.38.38 0 0 1-.059.5L57.705 50l1.06-.581a.366.366 0 0 1 .47.074.395.395 0 0 1 0 .477l-.918 1.164.432-.246a.374.374 0 0 1 .593.313.37.37 0 0 1-.22.329l-2.089 1.208q-.083.034-.171.023" clip-rule="evenodd"/><path fill="#425C46" fill-rule="evenodd" d="M30.895 52.769a.373.373 0 0 1-.217-.68l6.192-4.408-6.714 3.894a.38.38 0 0 1-.507-.127.37.37 0 0 1 .082-.537l.955-.634-1.41.82a.38.38 0 0 1-.5-.119.38.38 0 0 1 .09-.507l4.557-3.29-6.094 3.521a.38.38 0 0 1-.5-.12.38.38 0 0 1 .097-.507l2.984-2.118-4.506 2.589a.373.373 0 0 1-.507-.12.38.38 0 0 1 .104-.507l3.118-2.238-5.632 3.252a.365.365 0 0 1-.507-.134.38.38 0 0 1 .134-.514l12.369-7.132a.365.365 0 0 1 .5.12.38.38 0 0 1-.097.506l-3.119 2.238 4.931-2.842a.373.373 0 0 1 .403.627l-2.983 2.118 4.714-2.767a.373.373 0 0 1 .41.619l-4.565 3.357 6.9-3.976a.373.373 0 0 1 .388.634l-.895.626 2.186-1.26a.365.365 0 0 1 .5.12.373.373 0 0 1-.097.506l-6.185 4.41 8.729-5.036a.373.373 0 0 1 .395.626l-4.715 3.178 6.595-3.804a.365.365 0 0 1 .5.12.365.365 0 0 1-.097.506l-5.648 3.94 7.916-4.566a.373.373 0 0 1 .5.12.373.373 0 0 1-.105.506l-4.64 3.148 6.542-3.774a.38.38 0 0 1 .507.12.373.373 0 0 1-.111.506l-4.073 2.738 5.833-3.364a.37.37 0 0 1 .5.12.373.373 0 0 1-.104.506l-11.012 7.595a.38.38 0 0 1-.186.328l-1.746 1a.365.365 0 0 1-.5-.12.373.373 0 0 1 .105-.507l5.267-3.633-7.393 4.267a.373.373 0 0 1-.395-.634l4.073-2.73-5.827 3.364a.38.38 0 0 1-.507-.12.373.373 0 0 1 .112-.507l4.633-3.148-6.55 3.783a.373.373 0 0 1-.5-.128.38.38 0 0 1 .104-.507l5.64-3.939-7.915 4.574a.374.374 0 0 1-.395-.635l4.67-3.17-6.595 3.805a.34.34 0 0 1-.186.052" clip-rule="evenodd"/><path fill="#425C46" fill-rule="evenodd" d="M18.25 52.754a.37.37 0 0 1-.306-.18.38.38 0 0 1 .112-.507l3.342-2.238-4.886 2.843a.374.374 0 0 1-.396-.635l4.678-3.185-4.879 2.805a.366.366 0 0 1-.5-.127.373.373 0 0 1 .105-.507l3.267-2.238-2.872 1.686a.373.373 0 0 1-.403-.627l2.984-2.118-2.574 1.491a.38.38 0 0 1-.5-.119.38.38 0 0 1 .09-.507l2.081-1.544-1.67.97a.38.38 0 0 1-.5-.09.365.365 0 0 1 .06-.492l1.924-1.679-1.492.865a.373.373 0 0 1-.447-.589l.79-.79-.343.2a.373.373 0 0 1-.515-.5l.306-.618a.36.36 0 0 1-.261-.18.373.373 0 0 1 .142-.506l.865-.485a.373.373 0 0 1 .515.5l-.246.44 1.626-.94a.373.373 0 0 1 .455.581l-.798.799 2.395-1.38a.365.365 0 0 1 .484.104.38.38 0 0 1-.052.5l-1.932 1.67 3.946-2.237a.366.366 0 0 1 .5.12.373.373 0 0 1-.09.499l-2.08 1.507 3.73-2.163a.373.373 0 0 1 .402.626l-2.984 2.111 4.745-2.737a.38.38 0 0 1 .507.119.373.373 0 0 1-.112.507l-3.26 2.238 4.946-2.85a.373.373 0 0 1 .5.12.373.373 0 0 1-.105.507L24.86 46.98l6.61-3.813a.373.373 0 0 1 .507.127.38.38 0 0 1-.113.507l-3.342 2.238 4.931-2.842a.373.373 0 0 1 .389.634l-13.287 8.512a.5.5 0 0 1-.112.105l-.448.253a.373.373 0 0 1-.387-.634l.619-.41-1.79 1.044a.35.35 0 0 1-.187.053" clip-rule="evenodd"/><path fill="#303931" fill-rule="evenodd" d="M46.038 36.342a.37.37 0 0 1-.306-.157.38.38 0 0 1 .06-.5l2.357-1.999-3.14 1.813a.373.373 0 0 1-.425-.612l2.513-2.119-2.089 1.209a.39.39 0 0 1-.5-.112.39.39 0 0 1 .083-.508l.611-.462-.194.112a.38.38 0 0 1-.477-.09.37.37 0 0 1 0-.484l1.492-1.656-1.007.581a.38.38 0 0 1-.448-.052.366.366 0 0 1-.067-.44l.366-.709a.37.37 0 0 1-.299-.186.367.367 0 0 1 .135-.508l.842-.485a.373.373 0 0 1 .522.492l-.312.598 1.894-1.09a.366.366 0 0 1 .478.083.374.374 0 0 1 0 .485l-1.492 1.656 3.125-1.806a.373.373 0 0 1 .493.12.366.366 0 0 1-.082.5l-.612.47.82-.47a.366.366 0 0 1 .485.111.373.373 0 0 1-.06.5l-2.513 2.112 3.051-1.761a.373.373 0 0 1 .425.612l-2.357 1.999 2.85-1.664a.373.373 0 1 1 .417.62l-.85.686 1.096-.634a.373.373 0 0 1 .493.104.36.36 0 0 1-.06.492l-.627.553.746-.418a.38.38 0 0 1 .448.052.39.39 0 0 1 .075.448l-.612 1.186.156-.09a.365.365 0 0 1 .508.134.38.38 0 0 1-.134.515l-1.254.746a.36.36 0 0 1-.44-.052.37.37 0 0 1-.075-.44l.612-1.186-2.916 1.648a.373.373 0 0 1-.493-.104.38.38 0 0 1 .06-.5l.626-.544-1.999 1.148a.373.373 0 0 1-.418-.611l.85-.687-2.237 1.298a.35.35 0 0 1-.194.053" clip-rule="evenodd"/><path fill="#00AF1A" fill-rule="evenodd" d="M33.924 27.986a.4.4 0 0 1-.276-.12.37.37 0 0 1 0-.47l.186-.26-.515.29a.36.36 0 0 1-.47-.081.366.366 0 0 1 0-.478l.627-.746-1.178.686a.373.373 0 0 1-.456-.582l1.224-1.29-1.992 1.126a.39.39 0 0 1-.485-.104.373.373 0 0 1 .045-.492l1.925-1.836-2.798 1.62a.373.373 0 0 1-.492-.12.366.366 0 0 1 .082-.5l1.208-.94-7.057 4.096a.373.373 0 0 1-.5-.127.38.38 0 0 1 .105-.508l4.767-3.334-4.476 2.596a.38.38 0 0 1-.53-.12.373.373 0 0 1 .12-.507l.328-.238a.373.373 0 0 1-.336-.664l2.559-1.716-2.164 1.246a.373.373 0 0 1-.5-.112.38.38 0 0 1 .09-.507l4.207-3.208-3.797 2.193a.374.374 0 1 1-.41-.627l1.418-1.037-1.008.582a.373.373 0 0 1-.44-.596l1.873-1.716-1.433.82a.373.373 0 0 1-.455-.589l.56-.567-.105.06a.36.36 0 0 1-.41 0 .37.37 0 0 1-.134-.388l.201-.746a.35.35 0 0 1-.164-.15.365.365 0 0 1 .134-.507l.373-.216a.36.36 0 0 1 .41 0 .35.35 0 0 1 .135.395l-.142.552 1.694-.977a.38.38 0 0 1 .485.097.366.366 0 0 1 0 .485l-.553.537 2.007-1.156a.373.373 0 0 1 .485.097.38.38 0 0 1-.045.5l-1.872 1.715 4.02-2.32a.373.373 0 0 1 .404.627l-1.418 1.037 2.887-1.671a.373.373 0 0 1 .492.12.373.373 0 0 1-.081.506l-4.208 3.208 6.647-3.834a.366.366 0 0 1 .5.127.38.38 0 0 1-.105.507l-2.596 1.708 2.372-1.365a.373.373 0 0 1 .389.634l-.329.202a.37.37 0 0 1 .44.149.365.365 0 0 1-.096.507l-4.768 3.342 4.364-2.506a.373.373 0 0 1 .418.619l-1.216.94.798-.463a.373.373 0 0 1 .485.097.39.39 0 0 1-.037.5l-1.925 1.828 1.492-.85a.373.373 0 0 1 .456.574l-1.224 1.29.746-.44a.365.365 0 0 1 .47.082.37.37 0 0 1 0 .478l-.634.746.157-.09a.365.365 0 0 1 .462.075.36.36 0 0 1 0 .462l-.276.388c.122.01.23.08.29.187a.38.38 0 0 1-.133.514l-1.157.665a.35.35 0 0 1-.141.059" clip-rule="evenodd"/><path fill="#303931" fill-rule="evenodd" d="M24.896 57.908a.373.373 0 0 1-.231-.671l1.492-1.164-2.491 1.44a.373.373 0 0 1-.403-.627l1.253-.91-1.805 1.037a.36.36 0 0 1-.5-.135.366.366 0 0 1 .09-.507l2.73-2.037-3.253 1.895a.366.366 0 0 1-.5-.096.373.373 0 0 1 .105-.508l.932-.641-1.052.604a.366.366 0 0 1-.5-.127.373.373 0 0 1 .105-.507l.634-.433-.574.328a.373.373 0 0 1-.5-.111.38.38 0 0 1 .09-.508l3.222-2.44-3.23 1.843a.373.373 0 0 1-.5-.119.38.38 0 0 1 .097-.507l1.85-1.35-1.544.895a.366.366 0 0 1-.492-.112.366.366 0 0 1 .074-.5l2.238-1.798-1.522.888a.373.373 0 0 1-.447-.597l1.41-1.32a.36.36 0 0 1-.284-.18.38.38 0 0 1 .134-.514l2.388-1.358a.373.373 0 0 1 .485.097.38.38 0 0 1-.045.5l-1.186 1.104 2.984-1.753a.365.365 0 0 1 .492.112c.113.16.08.38-.074.5l-2.239 1.797 3.313-1.91a.373.373 0 0 1 .403.627l-1.85 1.35 2.342-1.35a.36.36 0 0 1 .492.112.373.373 0 0 1-.082.508l-3.23 2.439 3.678-2.126a.376.376 0 0 1 .402.634l-.634.433.657-.38a.373.373 0 0 1 .395.626l-.925.649.858-.5a.38.38 0 0 1 .5.12.38.38 0 0 1-.09.507l-2.737 2.036 2.536-1.492a.373.373 0 0 1 .5.12.38.38 0 0 1-.097.507l-1.254.902.8-.455a.36.36 0 0 1 .491.112c.113.16.08.38-.074.5l-1.492 1.171.671-.387a.373.373 0 0 1 .433.604l-1.075.925c.06.036.11.087.142.149a.373.373 0 0 1-.134.507l-2.372 1.388a.373.373 0 0 1-.493-.105.38.38 0 0 1 .06-.5l.358-.306-1.768 1.023a.35.35 0 0 1-.157.052" clip-rule="evenodd"/><path fill="#fff" fill-rule="evenodd" d="M24.823 54.872a.39.39 0 0 1-.283-.127.37.37 0 0 1 0-.477l1.26-1.56-2.051 1.187a.38.38 0 0 1-.493-.113.37.37 0 0 1 .068-.5l.178-.156h-.044a.365.365 0 0 1-.463-.075.38.38 0 0 1 0-.47l.843-1.178a.37.37 0 0 1-.462-.157.38.38 0 0 1 .134-.515l1.447-.835a.37.37 0 0 1 .463.074.38.38 0 0 1 0 .47l-.836 1.216 2.082-1.208a.373.373 0 0 1 .432.604l-.186.157.239-.135a.365.365 0 0 1 .47.083.365.365 0 0 1 0 .47l-1.254 1.521.955-.552a.366.366 0 0 1 .508.135.38.38 0 0 1-.135.514l-2.685 1.552a.4.4 0 0 1-.187.075" clip-rule="evenodd"/><path fill="#303931" fill-rule="evenodd" d="M48.88 57.923a.39.39 0 0 1-.305-.157.373.373 0 0 1 .067-.5l2.238-1.85-3.506 2.022a.38.38 0 0 1-.493-.112.39.39 0 0 1 .075-.507l3.521-2.865-4.476 2.596a.373.373 0 0 1-.5-.126.36.36 0 0 1 .097-.5l2.171-1.567-2.447 1.41a.36.36 0 0 1-.492-.112.373.373 0 0 1 .082-.507l3.73-2.91-4.014 2.32a.373.373 0 0 1-.5-.126.38.38 0 0 1 .098-.508l1.432-1-1.276.747a.373.373 0 0 1-.417-.612l3.073-2.424-2.693 1.559a.373.373 0 0 1-.425-.612l1.79-1.417-1 .581a.374.374 0 0 1-.44-.604l1.186-1.052a.373.373 0 0 1-.052-.671l2.38-1.358a.373.373 0 0 1 .492.105c.116.153.09.37-.06.492l-.67.604 2.237-1.29c.168-.1.385-.051.493.112a.373.373 0 0 1-.075.5l-1.79 1.41 2.82-1.62a.365.365 0 0 1 .492.112.373.373 0 0 1-.075.5l-3.118 2.41 3.887-2.238a.373.373 0 0 1 .403.627l-1.425 1.007 1.67-.97a.374.374 0 0 1 .418.62L49.71 52.35 53.782 50a.373.373 0 0 1 .5.12c.11.166.07.389-.09.507l-2.178 1.567 2.104-1.216a.373.373 0 0 1 .425.611l-3.529 2.865 3.178-1.835a.373.373 0 0 1 .5.112.39.39 0 0 1-.067.5l-2.238 1.85 1.313-.746a.366.366 0 0 1 .492.104.373.373 0 0 1-.067.5l-.992.835a.38.38 0 0 1 0 .635l-2.365 1.335a.373.373 0 0 1-.492-.105.373.373 0 0 1 .067-.5l.067-.059-1.373.79a.34.34 0 0 1-.156.053" clip-rule="evenodd"/><path fill="#fff" fill-rule="evenodd" d="M48.82 54.901a.373.373 0 0 1-.261-.641l.507-.5-1.059.612a.373.373 0 0 1-.44-.597l.746-.746-.933.53a.373.373 0 0 1-.485-.097.39.39 0 0 1 .045-.5l.605-.552-.314.179a.37.37 0 0 1-.477-.09.37.37 0 0 1 0-.485l.574-.619a.35.35 0 0 1-.164-.149.38.38 0 0 1 .134-.515l1.447-.835a.373.373 0 0 1 .456.581l-.202.217 1.082-.53a.373.373 0 0 1 .44.597l-.597.552.895-.515a.374.374 0 0 1 .44.597l-.746.746.746-.425a.365.365 0 0 1 .478.097.365.365 0 0 1 0 .492l-.515.5a.38.38 0 0 1 .515.134.39.39 0 0 1-.142.515l-2.536 1.492a.33.33 0 0 1-.239-.045" clip-rule="evenodd"/><path fill="#0C160D" d="M25.679 49.897A2.984 2.984 0 0 0 22.695 52a2.416 2.416 0 0 0 2.283 2.887h.096a.3.3 0 0 0 .12 0h.052a1 1 0 0 0 .246 0 2.834 2.834 0 0 0 2.678-2.305 2.446 2.446 0 0 0-2.491-2.685m0 4.476a2.06 2.06 0 0 1-1.828-1.403 1.836 1.836 0 0 1 1.09-2.417c2.282-.627 3.05 3.648.708 3.812zM49.388 49.755a2.85 2.85 0 0 0-2.888 2.439 2.65 2.65 0 0 0 2.597 2.857h.134a2.865 2.865 0 0 0 2.835-2.648 2.656 2.656 0 0 0-2.678-2.648m0 4.476a1.89 1.89 0 0 1-1.739-1.492 1.732 1.732 0 0 1 1.537-2.149c2.156-.044 2.395 3.454.179 3.626z"/><path fill="#0C160D" d="M59.452 43.95c-.336-.634-1.18-.895-2.171-.977v-9.877a.1.1 0 0 0 0-.052c-.328-1.664-1.627-2.596-2.79-3.73-.963-.955-2.097-2.581-3.41-3.118-2.387-.977-6.094-.276-8.72-.217v-4.214c0-2.671-.746-4.476-3.73-4.656-3.327-.164-6.714-.067-10.049 0h-3.29c-2.238-.09-4.886-.44-6.915.254-2.835.962-2.462 3.73-2.462 6.14v13.54c0 2.238-.32 4.841 1.447 6.027-.977.06-1.85.38-2.193 1.32s0 2.664 0 3.678c0 1.015-.38 2.798 0 3.686.642 1.492 2.984 1.03 4.476.955.134 6.937 10.653 6.378 11.466 0h12.414c.186 6.982 10.712 6.624 11.473.037 1.492.112 3.67.388 4.409-.888.977-1.7.104-5.833.104-7.796a.12.12 0 0 0-.06-.111m-9.885-17.314c1.641.32 2.805 1.984 3.916 3.096 1.112 1.111 2.388 1.999 2.709 3.588v7.893a7.7 7.7 0 0 0 0 1.708c-.873 0-1.753.112-2.432.164h-9.534c-.097 0-.306 0-.56.045h-1.313c.18-.276 0-1.306 0-1.701V27.785c0-.396.038-.82 0-1.216a24.5 24.5 0 0 1 7.214.067M34.565 18.16a19 19 0 0 0 0 3.238c0 .358 0 5.968-.164 6.028-1.373-.873-3.059-2.432-4.633-2.798s-3.304 1.395-4.43 2.09c-.896.558-1.418 1.327-1.635 0a21 21 0 0 1 0-3.045v-6.08h10.653a1 1 0 0 1 .12 0h.074q.039.283.015.567M16.99 39.64c-.156-3.484 0-7.005 0-10.49 0-2.685-.619-6.213 0-8.832.657-2.76 3.193-2.976 5.648-2.872v6.468c0 1.126-.62 3.984 1.074 4.05 1.842.075 3.305-2.237 4.96-2.737q.204-.035.381-.142s0 .075.246.157q.71.37 1.328.88l2.798 1.738a.1.1 0 0 0 .052 0c2.238.448 2.119-1.313 2.119-2.984v-7.303h1.193c1.686 0 3.566 0 4.29 1.954.201.893.254 1.813.156 2.724v20.887H20.511c-1.888-.179-3.402-.88-3.522-3.498m6.767 17.344a5.22 5.22 0 0 1-3.03-4.677c.307-3.2 4.626-6.528 7.856-3.372.082.074.15.164.224.246a5.46 5.46 0 0 1 1.149 2.425c0 .119.045.238.06.357.015.12.059.389.074.582-.172 3.178-3.021 5.931-6.333 4.439m24.722.201a4.976 4.976 0 0 1-3.85-4.886v-.246c.5-3.118 4.663-6.184 7.811-3.118.72.753 1.204 1.7 1.395 2.723 0 .104 0 .216.053.328.052.112.052.358.067.544-.202 2.76-2.44 5.32-5.476 4.655m9.803-5.08c-.224.202-2.612.15-3.253 0a5.56 5.56 0 0 0-.888-2.685 1 1 0 0 0-.112-.209 5.4 5.4 0 0 0-2.514-1.962 6.13 6.13 0 0 0-4.819.283 5.22 5.22 0 0 0-3.185 4.76c-1.283.201-4.193-.187-4.857-.187-2.051 0-4.618.425-6.617 0a3.6 3.6 0 0 0-.597 0 5 5 0 0 0-.373-.813l-.074-.149a5.1 5.1 0 0 0-1.045-2.149 4.1 4.1 0 0 0-1.417-1.342c-2.618-1.574-7.945-.597-8.58 2.984a5.6 5.6 0 0 0-.297 1.492H18.51c-.97 0-1.723.238-2.283-.687-.641-1.089 0-4.782 0-6.057 0-1.492-.238-1.283.821-1.612a5.2 5.2 0 0 1 1.641-.163l.38.074a50 50 0 0 0 8.267.067h14.106a.5.5 0 0 0 .172.045h14.92c.203-.005.403-.06.582-.157.67.127 1.164.343 1.32.701v5.528c0 .38.216 1.895-.156 2.238"/><path fill="#0C160D" d="M44.262 35.386c.47 1.768 4.52.993 5.826.993 1.947 0 4.267.552 4.207-2.052a2.32 2.32 0 0 0-.902-1.925c-.97-.962-1.903-1.984-2.91-2.902a2.16 2.16 0 0 0-1.67-.611 16.4 16.4 0 0 0-3.365 0c-1.231.253-1.194 1.223-1.194 2.238v4.125a.2.2 0 0 0 .008.134m1.574-5.722a8.8 8.8 0 0 1 3.297 0c.798.314 1.67 1.62 2.238 2.201.567.582 1.649 1.32 1.813 2.238.194 1.156 0 1.492-1.067 1.492H48.29c-.746 0-2.685.403-2.984-.492v-3.044c.038-.828-.283-2.104.53-2.395"/></g><defs><clipPath id="a"><path fill="#fff" d="M15 15h44.87v44.87H15z"/></clipPath></defs></svg>