<svg xmlns="http://www.w3.org/2000/svg" width="74" height="74" fill="none" viewBox="0 0 74 74"><circle cx="37" cy="37" r="37" fill="#BCDABF"/><g clip-path="url(#a)"><path fill="#425C46" d="M46.24 31.564a.374.374 0 0 1-.287-.613l.807-.967-1.889 1.09a.373.373 0 0 1-.49-.105.375.375 0 0 1 .056-.499l.919-.812-.485.28a.373.373 0 0 1-.45-.59l1.655-1.637-1.204.695a.374.374 0 0 1-.448-.59L46 26.273l-1.13.652a.374.374 0 0 1-.435-.604l.947-.84-.511.296a.373.373 0 0 1-.423-.613l.288-.236a.375.375 0 0 1-.296-.654l.697-.601-.265.153a.374.374 0 0 1-.438-.6l1.126-1.025-.688.397a.374.374 0 0 1-.44-.599l1.188-1.09-.748.432a.374.374 0 0 1-.438-.6l1.123-1.023-.685.396a.37.37 0 0 1-.489-.102.376.376 0 0 1 .049-.498l1.168-1.07-.73.421a.374.374 0 0 1-.426-.61l.426-.358a.37.37 0 0 1-.475-.086.375.375 0 0 1 .005-.483l.978-1.131-.507.292a.373.373 0 0 1-.5-.527l.222-.343a.375.375 0 0 1-.056-.675l.868-.5a.373.373 0 0 1 .5.527l-.06.092 1.075-.62a.373.373 0 0 1 .47.569l-.976 1.13 1.771-1.023a.373.373 0 0 1 .427.61l-.425.359.006-.003a.373.373 0 0 1 .44.6l-1.17 1.07.732-.422a.373.373 0 0 1 .438.6l-1.125 1.024.69-.398a.373.373 0 0 1 .439.6l-1.187 1.087.749-.431a.374.374 0 0 1 .438.6l-1.126 1.025.69-.399a.37.37 0 0 1 .491.107.375.375 0 0 1-.06.5l-.7.604.27-.155a.374.374 0 0 1 .423.612l-.286.235a.374.374 0 0 1 .3.65l-.95.842.515-.297a.374.374 0 0 1 .448.59l-1.577 1.541 1.131-.653a.374.374 0 0 1 .45.59l-1.654 1.637 1.206-.696a.375.375 0 0 1 .434.604l-.919.813.486-.28a.373.373 0 0 1 .474.562l-.807.967.335-.193a.375.375 0 0 1 .545.432l-.177.58q.09.049.145.14a.375.375 0 0 1-.138.512l-.378.218a.376.376 0 0 1-.545-.433l.1-.328-1.337.771a.37.37 0 0 1-.187.05M53.611 31.56a.373.373 0 0 1-.308-.584l.586-.857-2.289 1.322a.373.373 0 0 1-.422-.614l.254-.206a.375.375 0 0 1-.262-.657l.619-.53-.189.11a.375.375 0 0 1-.434-.604l.879-.773-.445.257a.373.373 0 0 1-.454-.585l1.8-1.84-1.346.777a.373.373 0 0 1-.45-.59l1.627-1.603-1.177.679a.374.374 0 0 1-.455-.584l1.814-1.861-1.359.784a.37.37 0 0 1-.487-.1.375.375 0 0 1 .044-.496l1.36-1.28-.917.53a.37.37 0 0 1-.483-.097.37.37 0 0 1 .032-.492l1.678-1.674-1.227.708a.373.373 0 0 1-.448-.59l1.61-1.586-1.162.67a.373.373 0 0 1-.424-.613l.288-.235a.36.36 0 0 1-.358-.158.374.374 0 0 1 .07-.502l.247-.202a.373.373 0 0 1-.266-.645l.283-.268a.36.36 0 0 1-.296-.115.374.374 0 0 1-.045-.459l.234-.37a.373.373 0 0 1-.067-.678l.869-.5a.374.374 0 0 1 .503.524l-.088.137 1.146-.662a.373.373 0 0 1 .444.595l-.165.157.798-.46a.373.373 0 0 1 .424.612l-.149.12a.374.374 0 0 1 .296.659l-.287.235a.374.374 0 0 1 .313.636l-1.61 1.586 1.164-.67a.37.37 0 0 1 .483.096c.115.149.101.359-.032.491l-1.679 1.675 1.23-.71a.374.374 0 0 1 .443.596l-1.358 1.279.917-.529a.373.373 0 0 1 .455.584l-1.814 1.862 1.362-.787a.373.373 0 0 1 .449.59l-1.625 1.603 1.178-.68a.374.374 0 0 1 .454.585l-1.8 1.84 1.349-.778a.374.374 0 0 1 .434.604l-.877.771.444-.256a.374.374 0 0 1 .43.608l-.62.528.192-.109a.373.373 0 0 1 .495.112c.11.16.078.379-.073.502l-.253.205a.35.35 0 0 1 .294.12.37.37 0 0 1 .033.464l-.585.857.092-.053a.37.37 0 0 1 .51.137.373.373 0 0 1-.136.51l-1.518.877a.37.37 0 0 1-.187.05z"/><path fill="#fff" d="M17.225 55.504a.375.375 0 0 1-.194-.694l9.11-5.519-9.688 5.593a.373.373 0 0 1-.379-.644l2.164-1.299-1.785 1.03a.374.374 0 0 1-.383-.642L30 44.782l-13.547 7.821a.375.375 0 0 1-.384-.642l13.182-8.122-12.798 7.388a.374.374 0 0 1-.38-.643l2.747-1.663-2.367 1.366a.375.375 0 0 1-.387-.64l15.008-9.483-14.62 8.442a.374.374 0 0 1-.386-.64l10.14-6.331-9.755 5.631a.375.375 0 0 1-.387-.64l9.864-6.218-9.477 5.47a.374.374 0 0 1-.389-.639l11.359-7.256-10.971 6.334a.375.375 0 0 1-.386-.64l7.611-4.764-7.225 4.171a.373.373 0 0 1-.509-.132.375.375 0 0 1 .127-.51l.542-.332-.16.092a.373.373 0 0 1-.385-.641l7.416-4.638-7.031 4.06a.375.375 0 0 1-.384-.643l3.653-2.256-3.27 1.887a.374.374 0 0 1-.396-.634l6.782-4.557-6.385 3.686a.373.373 0 0 1-.393-.636l1.728-1.134-1.335.77a.374.374 0 0 1-.392-.636l1.449-.948-1.057.61a.375.375 0 0 1-.404-.629l6.268-4.462-5.864 3.384a.374.374 0 0 1-.396-.633l3.975-2.69-3.58 2.066a.374.374 0 0 1-.397-.633l3.859-2.63-3.461 1.998a.37.37 0 0 1-.48-.09.37.37 0 0 1 .019-.487l.749-.807-.25.143a.373.373 0 0 1-.51-.137.373.373 0 0 1 .137-.51l2.4-1.387a.373.373 0 0 1 .462.577l-.75.808 9.972-5.758a.373.373 0 0 1 .397.633l-3.86 2.633 4.008-2.315a.373.373 0 0 1 .396.634l-3.976 2.69 3.58-2.067a.374.374 0 0 1 .404.628l-6.268 4.463 5.864-3.385a.373.373 0 0 1 .391.637l-1.448.948 1.057-.61a.373.373 0 0 1 .392.637l-1.724 1.131 4.555-2.63a.374.374 0 0 1 .396.634l-6.784 4.56 15.653-9.037a.37.37 0 0 1 .508.132.376.376 0 0 1-.125.51l-3.655 2.257 3.5-2.02a.373.373 0 0 1 .385.641l-7.417 4.64 7.037-4.064a.37.37 0 0 1 .508.133.375.375 0 0 1-.126.51l-.53.325.152-.088a.374.374 0 0 1 .386.641l-7.618 4.768 7.238-4.178a.374.374 0 0 1 .39.638l-11.361 7.257 11.696-6.751a.373.373 0 0 1 .387.64l-9.863 6.217 11.879-6.857a.374.374 0 0 1 .385.64l-10.142 6.333 12.077-6.972a.375.375 0 0 1 .387.64l-15.007 9.481 17.532-10.12a.373.373 0 0 1 .38.643l-2.73 1.653 3.977-2.296a.375.375 0 0 1 .384.642L38.66 38.92l15.188-8.768a.374.374 0 0 1 .383.642L40.3 39.342l15.75-9.092a.374.374 0 0 1 .38.645l-2.138 1.283 2.128-1.229a.373.373 0 0 1 .38.644l-9.13 5.532 8.751-5.053a.374.374 0 0 1 .383.642l-14.313 8.811 13.932-8.044a.374.374 0 0 1 .384.642l-14.968 9.31 14.585-8.42a.374.374 0 0 1 .387.64l-14.975 9.432 14.59-8.424a.374.374 0 0 1 .387.64l-12.633 7.97 12.248-7.07a.374.374 0 0 1 .382.643l-1.237.755.857-.494a.374.374 0 0 1 .39.638l-11.693 7.552 11.304-6.528a.373.373 0 0 1 .393.637l-10.427 6.84 10.036-5.794a.374.374 0 0 1 .39.638l-6.277 4.044 5.889-3.4a.373.373 0 0 1 .505.128.375.375 0 0 1-.112.509l-6.218 4.097 5.827-3.363a.374.374 0 0 1 .389.639l-1.425.912 1.038-.599a.375.375 0 0 1 .392.637l-1.866 1.217 1.475-.852a.373.373 0 0 1 .407.626l-4.885 3.551 4.48-2.586a.374.374 0 0 1 .413.621l-3.37 2.56 2.958-1.708a.373.373 0 0 1 .436.603l-2.525 2.256 2.09-1.207a.372.372 0 0 1 .468.57l-1.152 1.31.686-.395a.375.375 0 0 1 .496.534l-.24.354a.373.373 0 0 1 .119.691l-1.042.601a.373.373 0 0 1-.497-.534l.126-.184-1.246.72a.373.373 0 0 1-.467-.57l1.151-1.31-3.259 1.881a.374.374 0 0 1-.436-.603l2.525-2.255-4.953 2.86a.373.373 0 0 1-.413-.622l3.369-2.559-5.51 3.182a.374.374 0 0 1-.407-.626l4.885-3.551-7.238 4.178a.375.375 0 0 1-.392-.637l1.867-1.217-3.214 1.855a.374.374 0 0 1-.389-.639l1.428-.915-2.692 1.554a.374.374 0 0 1-.393-.636l6.215-4.096-8.197 4.733a.374.374 0 0 1-.39-.638l6.27-4.04-8.104 4.68a.374.374 0 0 1-.393-.637l10.429-6.842-12.956 7.48a.374.374 0 0 1-.39-.638l11.694-7.553-14.187 8.191a.374.374 0 0 1-.382-.643l1.236-.755-2.423 1.398a.375.375 0 0 1-.387-.64l12.638-7.973-14.921 8.615a.374.374 0 0 1-.387-.64l14.98-9.436-17.454 10.077a.373.373 0 0 1-.384-.641l14.964-9.308-17.236 9.95a.374.374 0 0 1-.383-.642l14.31-8.807-16.37 9.451a.37.37 0 0 1-.188.05z"/><path fill="#00AF1A" d="M38.52 48.752a.373.373 0 0 1-.241-.66l1.328-1.115-2.165 1.25a.373.373 0 0 1-.417-.618l.863-.674-.495.285a.374.374 0 0 1-.465-.572l1.086-1.21-.621.358a.373.373 0 0 1-.509-.514l.284-.478a.373.373 0 0 1-.108-.69l.867-.5a.374.374 0 0 1 .509.514l-.182.307 1.424-.822a.373.373 0 0 1 .465.573l-1.088 1.21 3.092-1.784c.17-.1.388-.048.496.115a.373.373 0 0 1-.079.503l-.86.673 1.236-.714a.374.374 0 0 1 .427.61l-1.33 1.115.92-.53a.374.374 0 0 1 .447.591l-.595.58.147-.085a.374.374 0 0 1 .511.51l-.302.528a.373.373 0 0 1 .126.693l-.867.5a.373.373 0 0 1-.512-.51l.218-.381-1.543.89a.374.374 0 0 1-.447-.592l.596-.579-2.03 1.171a.37.37 0 0 1-.187.05zM29.88 48.752a.374.374 0 0 1-.261-.64l2.074-2.04-3.276 1.892a.374.374 0 0 1-.46-.58l1.746-1.856-1.287.742a.38.38 0 0 1-.438-.046.38.38 0 0 1-.09-.432l.447-.987a.374.374 0 0 1-.253-.692l.868-.5a.374.374 0 0 1 .528.477l-.43.952 2.477-1.43a.37.37 0 0 1 .48.092.37.37 0 0 1-.02.488l-1.745 1.856 3.627-2.094a.374.374 0 0 1 .449.59l-2.075 2.039 1.74-1.005a.374.374 0 0 1 .482.553l-.751.967.268-.155a.37.37 0 0 1 .511.137.373.373 0 0 1-.137.51l-1.922 1.11a.373.373 0 0 1-.482-.553l.75-.967-2.632 1.52a.37.37 0 0 1-.187.051M21.778 48.752a.375.375 0 0 1-.272-.63l1.647-1.739-3.55 2.05a.374.374 0 0 1-.427-.61l1.7-1.43-1.433.829a.375.375 0 0 1-.437-.602l.639-.575-.203.116a.373.373 0 0 1-.524-.484l.414-.868a.39.39 0 0 1-.36-.185.373.373 0 0 1 .136-.511l.869-.501a.373.373 0 0 1 .524.484l-.39.816 2.253-1.3a.373.373 0 0 1 .489.104c.112.155.09.37-.053.498l-.64.575 2.04-1.176a.374.374 0 0 1 .427.61l-1.7 1.427 2.08-1.2a.374.374 0 0 1 .459.58l-1.647 1.739 1.188-.686a.374.374 0 0 1 .527.48l-.435.945a.375.375 0 0 1 .242.694l-.867.5a.373.373 0 0 1-.526-.48l.415-.904-2.397 1.384a.37.37 0 0 1-.187.05zM38.649 40.525a.374.374 0 0 1-.234-.666l.63-.503-1.484.857a.375.375 0 0 1-.422-.614l1.45-1.174-1.196.69a.373.373 0 0 1-.445-.592l.985-.946-.54.31a.373.373 0 0 1-.523-.488l.4-.815a.36.36 0 0 1-.348-.186.373.373 0 0 1 .137-.51l.868-.502a.374.374 0 0 1 .523.487l-.369.754 2.15-1.24a.37.37 0 0 1 .486.099.373.373 0 0 1-.04.493l-.984.945 2.643-1.526a.373.373 0 0 1 .422.614l-1.45 1.172 1.647-.95a.373.373 0 0 1 .42.615l-.631.506.21-.122a.373.373 0 0 1 .455.584l-.638.654.184-.106a.373.373 0 0 1 .504.52l-.252.406a.373.373 0 0 1 .081.682l-.867.5a.373.373 0 0 1-.504-.52l.121-.196-1.242.717a.373.373 0 0 1-.455-.585l.638-.653-2.145 1.238a.37.37 0 0 1-.187.05zM48.614 40.526a.374.374 0 0 1-.245-.656l.575-.501-1.906 1.1a.374.374 0 0 1-.421-.615l1.355-1.089-1.605.926a.374.374 0 0 1-.428-.61l1.1-.924-.67.388a.37.37 0 0 1-.49-.104.376.376 0 0 1 .052-.498l.277-.25a.375.375 0 0 1-.353-.557l.314-.555a.373.373 0 0 1-.135-.694l.868-.501a.374.374 0 0 1 .513.507l-.236.42 1.605-.926a.373.373 0 0 1 .489.104c.112.154.09.369-.052.498l-.144.129 1.267-.731a.374.374 0 0 1 .428.61l-1.1.924 2.124-1.226a.373.373 0 0 1 .42.614l-1.352 1.089 1.067-.616a.373.373 0 0 1 .433.606l-.576.5.143-.081a.373.373 0 0 1 .5.527l-.467.72a.375.375 0 0 1 .477.153.373.373 0 0 1-.137.511l-1.312.758a.375.375 0 0 1-.5-.527l.464-.716-2.154 1.243a.37.37 0 0 1-.187.05zM31.339 40.526a.373.373 0 0 1-.285-.616l1.437-1.696-3.724 2.15a.373.373 0 0 1-.41-.624l.251-.186-.189.11a.373.373 0 0 1-.46-.581l1.672-1.763-1.213.7a.375.375 0 0 1-.527-.479l.44-.96a.38.38 0 0 1-.384-.182.373.373 0 0 1 .137-.51l.868-.502a.374.374 0 0 1 .527.479l-.42.922 2.427-1.402a.374.374 0 0 1 .459.58l-1.67 1.763 3.56-2.055a.375.375 0 0 1 .409.623l-.253.188a.373.373 0 0 1 .464.57l-1.438 1.696.966-.557a.374.374 0 0 1 .493.538l-.276.395a.373.373 0 0 1 .148.696l-1.13.652a.374.374 0 0 1-.494-.538l.179-.256-1.377.794a.37.37 0 0 1-.187.05M21.149 40.526a.374.374 0 0 1-.26-.642l1.86-1.807-3.268 1.886a.375.375 0 0 1-.43-.608l1.517-1.297-1.123.647a.374.374 0 0 1-.434-.604l.318-.281a.375.375 0 0 1-.402-.54l.362-.696a.373.373 0 0 1-.178-.698l.868-.501a.374.374 0 0 1 .52.496l-.316.605 1.909-1.101a.374.374 0 0 1 .434.603l-.24.214 1.415-.817a.375.375 0 0 1 .43.608l-1.515 1.297 2.368-1.367a.374.374 0 0 1 .447.591l-1.86 1.808 1.439-.831a.373.373 0 0 1 .515.503l-.638 1.164.124-.072a.37.37 0 0 1 .511.137.373.373 0 0 1-.137.51l-1.284.742a.374.374 0 0 1-.515-.503l.639-1.164-2.888 1.667a.37.37 0 0 1-.187.05z"/><path fill="#425C46" d="M47.121 55.502a.373.373 0 0 1-.225-.673l1.648-1.243-2.178 1.257a.373.373 0 0 1-.403-.629l.933-.663-.53.306a.373.373 0 0 1-.407-.626l1.656-1.203-1.25.722a.374.374 0 0 1-.4-.631l.278-.193a.37.37 0 0 1-.378-.166.373.373 0 0 1 .096-.507l1.25-.895-.845.487a.373.373 0 0 1-.419-.616l3.472-2.758-3.052 1.762a.374.374 0 0 1-.43-.609l2.72-2.317-2.29 1.322a.37.37 0 0 1-.489-.103.375.375 0 0 1 .053-.499l1.095-.985-.659.38a.373.373 0 0 1-.531-.468l.485-1.158a.374.374 0 0 1-.288-.684l.868-.5a.374.374 0 0 1 .532.468l-.479 1.14 2.788-1.609a.375.375 0 0 1 .437.602l-1.097.986 2.751-1.588a.374.374 0 0 1 .43.609l-2.72 2.316 3.88-2.239a.374.374 0 0 1 .419.616l-3.474 2.759 3.062-1.767a.37.37 0 0 1 .501.121.373.373 0 0 1-.096.506l-1.25.896.847-.489a.374.374 0 0 1 .4.631l-.275.191a.374.374 0 0 1 .283.672l-1.662 1.207 1.259-.727a.374.374 0 0 1 .403.63l-.932.66.53-.305a.373.373 0 0 1 .413.622l-1.648 1.243 1.238-.715a.374.374 0 0 1 .417.619l-.542.421.127-.073a.375.375 0 0 1 .454.585l-.798.812.347-.201a.375.375 0 0 1 .52.493l-.29.566a.375.375 0 0 1 .147.696l-.81.468a.374.374 0 0 1-.52-.494l.23-.448-1.642.948a.37.37 0 0 1-.483-.095.37.37 0 0 1 .03-.49l.798-.813-2.43 1.404a.374.374 0 0 1-.417-.619l.54-.42-1.81 1.044a.37.37 0 0 1-.186.05z"/><path fill="#425C46" d="M20.286 58.474a.373.373 0 0 1-.23-.67l.438-.339-1.661.958a.374.374 0 0 1-.43-.607l1.276-1.1-2.957 1.706a.374.374 0 0 1-.44-.599l1.52-1.395-2.767 1.597a.372.372 0 0 1-.468-.57l1.397-1.586-1.009.582a.374.374 0 0 1-.472-.565l.354-.42a.373.373 0 0 1-.042-.669l1.239-.714a.376.376 0 0 1 .474.083.375.375 0 0 1-.002.481l-.073.088 1.132-.654a.373.373 0 0 1 .467.57l-1.395 1.585 3.733-2.156a.373.373 0 0 1 .44.6l-1.52 1.396 3.457-1.996a.374.374 0 0 1 .43.607l-1.276 1.1 2.957-1.706a.374.374 0 0 1 .417.619l-.438.34 1.661-.959a.375.375 0 0 1 .425.612l-1.01.832 2.503-1.445a.374.374 0 0 1 .42.616l-.702.558 2.033-1.174a.374.374 0 0 1 .448.59L28.96 56.29l3.825-2.208a.373.373 0 0 1 .437.602l-1.443 1.293 3.283-1.894a.373.373 0 0 1 .418.618l-.545.426 1.81-1.044a.374.374 0 0 1 .45.59l-1.675 1.658 3.895-2.248a.374.374 0 0 1 .427.61l-1.129.947 2.697-1.556a.373.373 0 0 1 .423.612l-.955.783 2.416-1.395a.375.375 0 0 1 .455.585L42.045 56.4l4.016-2.318a.375.375 0 0 1 .419.617l-.64.506 1.946-1.123a.374.374 0 0 1 .443.596l-1.583 1.49 3.612-2.086a.373.373 0 0 1 .422.614l-.882.715 2.303-1.329a.374.374 0 0 1 .437.602l-1.45 1.302 3.298-1.904a.374.374 0 0 1 .448.59l-1.652 1.614 3.698-2.134a.374.374 0 0 1 .438.6l-1.404 1.273 1.86-1.075a.374.374 0 0 1 .443.596l-.66.622.351-.203a.374.374 0 0 1 .522.49l-.385.769a.36.36 0 0 1 .334.187.373.373 0 0 1-.137.51l-.867.502a.374.374 0 0 1-.521-.49l.349-.697-2.057 1.187a.374.374 0 0 1-.443-.596l.66-.621-2.107 1.217a.373.373 0 0 1-.438-.601l1.404-1.273-3.246 1.874a.373.373 0 0 1-.448-.591l1.653-1.614-3.818 2.205a.37.37 0 0 1-.49-.104.375.375 0 0 1 .053-.498l1.45-1.303-3.3 1.904a.373.373 0 0 1-.421-.613l.881-.715-2.302 1.328a.374.374 0 0 1-.443-.596l1.583-1.488-3.613 2.084a.373.373 0 0 1-.418-.616l.64-.507-1.947 1.124a.37.37 0 0 1-.483-.095.373.373 0 0 1 .03-.491l1.703-1.732-4.016 2.318a.373.373 0 0 1-.423-.612l.955-.782-2.416 1.394a.374.374 0 0 1-.427-.61l1.128-.947-2.697 1.556a.373.373 0 0 1-.45-.589l1.674-1.658-3.894 2.248a.373.373 0 0 1-.418-.618l.545-.426-1.81 1.044a.375.375 0 0 1-.437-.602l1.444-1.294-3.283 1.895a.373.373 0 0 1-.448-.591l1.655-1.617-3.826 2.208a.374.374 0 0 1-.419-.616l.701-.558-2.033 1.174a.375.375 0 0 1-.425-.612l1.01-.832-2.502 1.445a.37.37 0 0 1-.187.05z"/><path fill="#0C160D" d="M57.208 54.14q-.017-.003-.035-.004c-.718-3.247 1.752-25.32-1.5-24.053V15.726c.204-1.164-1-1.4-1.897-1.277-1.03 0-2.863-.232-2.926 1.246-.1 4.789.053 9.59 0 14.382h-1.907v-14.35c.208-1.158-.999-1.372-1.889-1.249-1.006 0-2.864-.23-2.934 1.218-.114 4.787.059 9.59 0 14.382h-1.903c-.288-1.707.673-4.09-.564-5.411-4.207.363-8.102 3.671-12.144 5.118-.098-1.958.895-6.603-2.492-4.81l-9.715 4.573c-3.37-.079-.892 20.754-1.605 24.702-1.625.31-2.027 2.808-1.149 3.93 7.5.607 15.289.011 22.88.214 6.62-.008 13.245.077 19.861-.012 2.1-.063 1.838-3.995-.08-4.241zm-5.26-39.003c.598-.136 2.246-.402 2.613.305.08 4.86-.002 9.762.027 14.635h-2.656c.018-4.975-.032-9.975.017-14.94m-6.735-.019c.577-.159 2.284-.416 2.617.324.08 4.864 0 9.76.027 14.635h-2.655c.013-4.982-.023-9.986.011-14.959M16.936 30.535c3.456-1.659 7.02-3.282 10.506-4.944 1.917-1.206.645 3.891.966 4.909 0 .393.527.371.782.251 1.558-.237 12.699-7.17 11.932-4.59.32 1.342-.695 3.99.492 4.667h12.33c.592 0 1.959-.32 2.134.438.026 7.583-.018 15.231 0 22.838-.638.02-1.266.006-1.902.01-.9-8.752 3.583-11.386-6.945-10.494-3.197-.019-1.012 8.098-1.617 10.494-9.608.012-19.218-.015-28.825-.007.157-7.825-.296-15.834.146-23.571zm29.771 23.578h-.01c.138-3.27-.27-6.726.152-9.91 9.395-.484 5.466.456 6.243 9.91zm-4.142 3.74H16.719c-1.843.595-1.893-2.407-.82-3.135 13.371-.185 26.875.005 40.278-.072.119.112.328.137.53.093 1.149.394.991 2.197.765 3.114z"/><path fill="#0C160D" d="M43.055 43.713c-4.395-.018-7.772-1.29-6.135 4.69 1.414.29 6.47.998 6.786-.894-.231-1.175.62-3.15-.651-3.796m-4.759 4.439c-.042 0-.09.005-.131 0-.41-.346-.557-3.257-.444-3.723.049-.197 3.699-.266 4.46-.266.8.435.459 3.118.311 3.989zM27.668 47.524c.32 2.273 4.129.788 5.795 1.146 1.99-.239 1.086-2.687 1.271-4.06-.589-1.992-3.913-.605-5.537-.993-2.177-.033-1.404 2.49-1.529 3.907m2.1-3.315c4.206-.074 4.224-.528 3.762 3.896-4.077-.154-5.458 1.23-4.662-3.89.301-.014.6-.002.9-.006M18.688 47.498c.262 2.4 4.047.852 5.724 1.268 2.065-.16 1.18-2.711 1.351-4.1-.482-2.164-3.916-.72-5.56-1.117-2.172-.035-1.383 2.543-1.515 3.95m1.125-3.22h.006c-.015.018-.047-.004-.006 0m.019.086a1 1 0 0 0 .04-.085c4.051.257 5.438-1.438 4.702 3.758-3.968-.254-5.37 1.43-4.742-3.673M36.636 39.278c.27 2.368 4.049.828 5.717 1.24 2.07-.153 1.183-2.696 1.356-4.084-.494-2.132-3.917-.698-5.553-1.092-2.173-.032-1.39 2.528-1.52 3.936m1.118-3.245h.005c-.018.018-.042-.007-.005 0m.022.093c.009-.02.03-.062.04-.093 4.09.247 5.427-1.42 4.71 3.796-3.999-.245-5.367 1.416-4.75-3.703M45.605 39.256c.236 2.478 4.041.93 5.743 1.34 2.057-.181 1.166-2.75 1.341-4.14-.475-2.258-4.02-.803-5.718-1.189-2.043.122-1.205 2.627-1.366 3.99m1.205-3.15c-.05-.002-.028.003 0 0m-.104 2.807c-.215-3.951.139-2.58 3.462-2.806.41.03.84-.06 1.236.04.386 1.013.215 2.53.082 3.61-1.241-.37-4.86.905-4.78-.844M27.668 39.298c.32 2.273 4.129.787 5.795 1.146 1.99-.239 1.086-2.686 1.271-4.059-.589-1.991-3.913-.605-5.537-.993-2.177-.032-1.404 2.49-1.529 3.906m2.1-3.316c4.207-.074 4.223-.527 3.762 3.898-4.078-.154-5.457 1.23-4.662-3.892.301-.014.599-.001.9-.006M18.693 39.298c.324 2.25 4.123.764 5.783 1.128 2.002-.226 1.1-2.667 1.284-4.04-.596-1.97-3.913-.586-5.532-.975-2.177-.033-1.413 2.468-1.535 3.887m2.096-3.335c4.232-.09 4.224-.481 3.765 3.935-4.108-.137-5.457 1.195-4.656-3.93.297-.014.593-.002.89-.005"/></g><defs><clipPath id="a"><path fill="#fff" d="M14 14h44.87v44.87H14z"/></clipPath></defs></svg>