<svg xmlns="http://www.w3.org/2000/svg" width="74" height="74" fill="none" viewBox="0 0 74 74"><circle cx="37" cy="37" r="37" fill="#FAECBC"/><g clip-path="url(#a)"><path fill="#3D3B33" d="M46.24 31.564a.374.374 0 0 1-.287-.614l.807-.966-1.889 1.09a.373.373 0 0 1-.49-.105.375.375 0 0 1 .056-.499l.919-.812-.485.28a.373.373 0 0 1-.45-.59l1.655-1.637-1.204.695a.374.374 0 0 1-.448-.59l1.577-1.542-1.129.652a.374.374 0 0 1-.435-.604l.947-.84-.512.296a.373.373 0 0 1-.423-.613l.288-.236a.375.375 0 0 1-.296-.654l.697-.601-.265.153a.374.374 0 0 1-.438-.6l1.127-1.025-.69.397a.374.374 0 0 1-.44-.599l1.19-1.09-.75.432a.374.374 0 0 1-.438-.6l1.125-1.023-.686.396a.37.37 0 0 1-.488-.102.376.376 0 0 1 .048-.498l1.168-1.07-.729.421a.374.374 0 0 1-.427-.61l.426-.358a.373.373 0 0 1-.47-.57l.978-1.13-.507.292a.373.373 0 0 1-.5-.527l.223-.343a.375.375 0 0 1-.057-.675l.868-.5a.373.373 0 0 1 .5.527l-.06.092 1.075-.62a.373.373 0 0 1 .47.569l-.976 1.13 1.771-1.023a.374.374 0 0 1 .427.61l-.425.359.006-.003a.373.373 0 0 1 .44.6l-1.17 1.07.732-.422a.373.373 0 0 1 .438.6l-1.125 1.024.69-.398a.373.373 0 0 1 .44.6l-1.188 1.087.749-.431a.374.374 0 0 1 .438.6l-1.126 1.025.69-.399a.37.37 0 0 1 .492.107.375.375 0 0 1-.061.5l-.7.604.27-.155a.374.374 0 0 1 .423.612l-.286.235a.374.374 0 0 1 .3.65l-.95.842.515-.297a.374.374 0 0 1 .448.59l-1.577 1.541 1.131-.653a.374.374 0 0 1 .45.59l-1.654 1.637 1.206-.696a.375.375 0 0 1 .434.604l-.919.813.486-.28a.373.373 0 0 1 .474.562l-.807.967.335-.194a.375.375 0 0 1 .545.432l-.176.581a.375.375 0 0 1 .007.652l-.378.218a.375.375 0 0 1-.545-.433l.1-.329-1.338.772a.37.37 0 0 1-.187.05M53.612 31.56a.373.373 0 0 1-.308-.584l.585-.857-2.288 1.321a.373.373 0 0 1-.422-.614l.254-.205a.374.374 0 0 1-.262-.657l.619-.53-.189.11a.375.375 0 0 1-.434-.604l.878-.773-.444.256a.374.374 0 0 1-.455-.584l1.8-1.84-1.346.777a.374.374 0 0 1-.448-.59l1.626-1.603-1.177.679a.374.374 0 0 1-.455-.584l1.814-1.862-1.359.785a.375.375 0 0 1-.443-.596l1.36-1.28-.917.529a.37.37 0 0 1-.483-.097.37.37 0 0 1 .032-.491l1.678-1.674-1.227.708a.373.373 0 0 1-.449-.59l1.61-1.586-1.16.67a.373.373 0 0 1-.425-.613l.288-.235a.36.36 0 0 1-.358-.158.374.374 0 0 1 .07-.502l.247-.203a.373.373 0 0 1-.266-.645l.283-.268a.374.374 0 0 1-.342-.574l.235-.369a.373.373 0 0 1-.066-.678l.868-.501a.374.374 0 0 1 .503.524l-.088.138 1.146-.662a.373.373 0 0 1 .444.595l-.166.157.798-.461a.373.373 0 0 1 .424.612l-.148.121a.374.374 0 0 1 .296.659l-.287.235a.374.374 0 0 1 .313.636l-1.61 1.586 1.164-.67a.37.37 0 0 1 .483.096.37.37 0 0 1-.032.491l-1.679 1.675 1.23-.71a.374.374 0 0 1 .443.596l-1.358 1.278.917-.528a.373.373 0 0 1 .455.584l-1.814 1.862 1.362-.787a.373.373 0 0 1 .449.59l-1.625 1.603 1.178-.68a.374.374 0 0 1 .454.585l-1.8 1.84 1.349-.778a.374.374 0 0 1 .434.604l-.877.771.444-.256a.375.375 0 0 1 .43.608l-.62.528.191-.109a.373.373 0 0 1 .423.614l-.254.205a.35.35 0 0 1 .294.119.37.37 0 0 1 .034.465l-.586.856.092-.052a.37.37 0 0 1 .511.137.373.373 0 0 1-.137.51l-1.517.877a.37.37 0 0 1-.187.05z"/><path fill="#fff" d="M17.225 55.504a.375.375 0 0 1-.194-.694l9.11-5.519-9.688 5.593a.373.373 0 0 1-.38-.645l2.164-1.298-1.784 1.03a.373.373 0 0 1-.383-.642L30 44.781l-13.547 7.821a.375.375 0 0 1-.384-.642l13.182-8.122-12.798 7.388a.374.374 0 0 1-.38-.644l2.746-1.662-2.366 1.365a.375.375 0 0 1-.387-.64l15.007-9.482-14.62 8.442a.374.374 0 0 1-.385-.64l10.14-6.331-9.755 5.63a.375.375 0 0 1-.387-.64l9.864-6.218-9.478 5.472a.375.375 0 0 1-.389-.639l11.36-7.257-10.971 6.334a.375.375 0 0 1-.386-.64l7.611-4.764-7.225 4.171a.373.373 0 0 1-.51-.132.375.375 0 0 1 .127-.511l.543-.331-.16.092a.373.373 0 0 1-.386-.641l7.417-4.638-7.032 4.059a.375.375 0 0 1-.383-.643l3.653-2.255-3.27 1.887a.374.374 0 0 1-.396-.634l6.782-4.558-6.385 3.687a.373.373 0 0 1-.393-.636l1.727-1.134-1.335.77a.374.374 0 0 1-.392-.636l1.45-.948-1.058.61a.375.375 0 0 1-.403-.63l6.267-4.461-5.864 3.384a.374.374 0 0 1-.396-.633l3.976-2.69-3.58 2.066a.374.374 0 0 1-.397-.633l3.858-2.63-3.46 1.998a.373.373 0 0 1-.462-.577l.75-.807-.25.142a.373.373 0 0 1-.51-.136.373.373 0 0 1 .136-.511l2.401-1.387a.373.373 0 0 1 .461.578l-.749.807 9.972-5.757a.373.373 0 0 1 .397.632l-3.861 2.634 4.008-2.315a.373.373 0 0 1 .396.633l-3.975 2.69 3.58-2.066a.374.374 0 0 1 .404.628l-6.269 4.463 5.864-3.385a.373.373 0 0 1 .392.636l-1.449.949 1.057-.61a.373.373 0 0 1 .393.636l-1.725 1.132 4.556-2.63a.374.374 0 0 1 .396.634l-6.785 4.56 15.653-9.037a.37.37 0 0 1 .509.131.376.376 0 0 1-.125.511l-3.656 2.257 3.5-2.02a.373.373 0 0 1 .385.641l-7.417 4.639 7.038-4.063a.37.37 0 0 1 .508.132.375.375 0 0 1-.126.511l-.53.325.152-.088a.374.374 0 0 1 .386.641l-7.618 4.768 7.238-4.179a.374.374 0 0 1 .389.639L30.506 36.9l11.696-6.752a.373.373 0 0 1 .386.64l-9.862 6.218 11.878-6.857a.374.374 0 0 1 .385.64l-10.142 6.332 12.077-6.972a.375.375 0 0 1 .387.64l-15.006 9.482 17.531-10.121a.373.373 0 0 1 .38.644l-2.73 1.652 3.978-2.295a.375.375 0 0 1 .384.642L38.66 38.92l15.188-8.768a.374.374 0 0 1 .383.642l-13.932 8.548 15.75-9.092a.374.374 0 0 1 .38.645l-2.138 1.283 2.128-1.23a.373.373 0 0 1 .381.645l-9.13 5.531 8.75-5.052a.374.374 0 0 1 .383.642l-14.313 8.81 13.932-8.043a.374.374 0 0 1 .384.642l-14.967 9.31 14.585-8.42a.374.374 0 0 1 .387.64l-14.976 9.431 14.591-8.423a.374.374 0 0 1 .387.64l-12.633 7.97L56.428 38.2a.374.374 0 0 1 .382.643l-1.237.755.856-.493a.375.375 0 0 1 .39.638l-11.693 7.551 11.305-6.527a.373.373 0 0 1 .392.637l-10.426 6.84 10.036-5.794a.374.374 0 0 1 .39.638l-6.277 4.044 5.888-3.4a.373.373 0 0 1 .506.127.375.375 0 0 1-.112.51l-6.219 4.097 5.828-3.364a.374.374 0 0 1 .389.639l-1.425.913 1.037-.599a.375.375 0 0 1 .392.637l-1.866 1.217 1.476-.852a.373.373 0 0 1 .407.626l-4.885 3.55 4.48-2.585a.374.374 0 0 1 .413.621l-3.37 2.56 2.958-1.708a.373.373 0 0 1 .436.603l-2.525 2.255 2.09-1.206a.372.372 0 0 1 .467.57l-1.152 1.31.687-.395a.37.37 0 0 1 .46.068c.118.128.134.321.036.465l-.24.355a.373.373 0 0 1 .119.691l-1.042.601a.373.373 0 0 1-.497-.534l.126-.184-1.246.719a.373.373 0 0 1-.467-.57l1.151-1.31-3.26 1.882a.374.374 0 0 1-.436-.603l2.526-2.255-4.953 2.859a.373.373 0 0 1-.414-.621l3.37-2.559-5.51 3.181a.374.374 0 0 1-.408-.625l4.885-3.551-7.237 4.178a.375.375 0 0 1-.392-.637l1.866-1.217-3.214 1.855a.374.374 0 0 1-.389-.639l1.429-.915-2.693 1.554a.375.375 0 0 1-.393-.637l6.216-4.095-8.198 4.732a.374.374 0 0 1-.39-.638l6.27-4.038-8.104 4.678a.374.374 0 0 1-.392-.636l10.428-6.842-12.955 7.48a.374.374 0 0 1-.39-.638l11.694-7.553-14.188 8.191a.374.374 0 0 1-.382-.643l1.237-.755-2.423 1.398a.375.375 0 0 1-.387-.64l12.638-7.973-14.922 8.615a.374.374 0 0 1-.387-.64l14.981-9.436-17.454 10.077a.373.373 0 0 1-.384-.642l14.964-9.307-17.236 9.95a.373.373 0 0 1-.383-.642l14.309-8.807-16.37 9.451a.4.4 0 0 1-.187.05z"/><path fill="#D8AF11" d="M38.518 48.752a.373.373 0 0 1-.24-.66l1.328-1.115-2.165 1.25a.373.373 0 0 1-.417-.618l.863-.674-.495.285a.374.374 0 0 1-.465-.573l1.086-1.21-.621.359a.372.372 0 0 1-.509-.514l.283-.478a.373.373 0 0 1-.108-.69l.868-.5a.374.374 0 0 1 .508.514l-.182.307 1.424-.822a.373.373 0 0 1 .465.572l-1.087 1.211 3.091-1.784a.373.373 0 0 1 .417.618l-.86.673 1.237-.715a.374.374 0 0 1 .427.61l-1.33 1.116.92-.53a.374.374 0 0 1 .447.591l-.596.579.148-.085a.374.374 0 0 1 .512.51l-.303.528a.373.373 0 0 1 .126.693l-.868.5a.373.373 0 0 1-.511-.508l.218-.383-1.543.891a.373.373 0 0 1-.448-.591l.596-.58-2.03 1.171a.37.37 0 0 1-.186.05zM29.882 48.752a.374.374 0 0 1-.262-.64l2.074-2.039-3.276 1.891a.373.373 0 0 1-.46-.58l1.746-1.855-1.287.741a.38.38 0 0 1-.438-.046.38.38 0 0 1-.09-.431l.447-.987a.374.374 0 0 1-.253-.692l.868-.501a.374.374 0 0 1 .528.478l-.43.951 2.477-1.43a.373.373 0 0 1 .46.58l-1.745 1.856 3.627-2.093a.374.374 0 0 1 .449.59l-2.075 2.038 1.74-1.004a.374.374 0 0 1 .482.552l-.751.967.268-.154a.37.37 0 0 1 .511.136.373.373 0 0 1-.137.511l-1.922 1.11a.373.373 0 0 1-.482-.553l.75-.967-2.632 1.52a.37.37 0 0 1-.187.05M21.779 48.752a.374.374 0 0 1-.272-.63l1.646-1.739-3.549 2.05a.374.374 0 0 1-.427-.61l1.7-1.43-1.433.829a.37.37 0 0 1-.49-.104.375.375 0 0 1 .053-.498l.638-.575-.202.116a.373.373 0 0 1-.524-.484l.414-.868a.39.39 0 0 1-.36-.185.373.373 0 0 1 .136-.511l.868-.501a.373.373 0 0 1 .524.484l-.389.816 2.253-1.3a.375.375 0 0 1 .437.602l-.64.575 2.04-1.176a.374.374 0 0 1 .427.61l-1.7 1.427 2.078-1.2a.374.374 0 0 1 .46.58L23.82 46.77l1.188-.686a.373.373 0 0 1 .527.48l-.435.945a.375.375 0 0 1 .242.694l-.867.5a.373.373 0 0 1-.526-.48l.415-.904-2.397 1.385a.37.37 0 0 1-.187.05zM38.649 40.526a.374.374 0 0 1-.234-.667l.63-.503-1.484.857a.374.374 0 0 1-.422-.614l1.45-1.173-1.196.69a.373.373 0 0 1-.445-.593l.985-.946-.54.311a.373.373 0 0 1-.523-.488l.4-.815a.36.36 0 0 1-.348-.187.373.373 0 0 1 .137-.51l.868-.502a.374.374 0 0 1 .523.488l-.369.753 2.15-1.24a.37.37 0 0 1 .486.099.373.373 0 0 1-.04.494l-.984.944 2.643-1.526a.373.373 0 0 1 .422.614l-1.45 1.172 1.647-.95a.373.373 0 0 1 .42.615l-.631.506.21-.122a.373.373 0 0 1 .455.585l-.638.653.184-.106a.372.372 0 0 1 .504.52l-.252.406a.373.373 0 0 1 .081.682l-.867.501a.373.373 0 0 1-.504-.52l.121-.197-1.242.717a.374.374 0 0 1-.455-.585l.638-.653-2.145 1.238a.37.37 0 0 1-.187.05zM48.614 40.526a.374.374 0 0 1-.245-.656l.576-.501-1.906 1.1a.374.374 0 0 1-.421-.615l1.355-1.089-1.605.926a.374.374 0 0 1-.428-.61l1.1-.924-.672.388a.37.37 0 0 1-.489-.104.376.376 0 0 1 .052-.498l.278-.25a.375.375 0 0 1-.353-.557l.313-.555a.373.373 0 0 1-.135-.694l.869-.501a.374.374 0 0 1 .513.507l-.237.42 1.605-.927a.373.373 0 0 1 .49.104c.111.155.089.37-.053.498l-.144.13 1.267-.732a.374.374 0 0 1 .428.61l-1.1.925 2.124-1.226a.374.374 0 0 1 .421.615l-1.352 1.087 1.067-.615a.373.373 0 0 1 .432.606l-.576.5.143-.081a.373.373 0 0 1 .5.527l-.467.72a.375.375 0 0 1 .478.153.373.373 0 0 1-.137.511l-1.313.758a.374.374 0 0 1-.5-.527l.465-.716-2.155 1.243a.37.37 0 0 1-.187.05M31.339 40.526a.373.373 0 0 1-.285-.616l1.437-1.696-3.724 2.15a.373.373 0 0 1-.41-.624l.251-.186-.189.11a.373.373 0 0 1-.46-.58l1.672-1.764-1.213.7a.375.375 0 0 1-.527-.479l.44-.96a.38.38 0 0 1-.384-.182.373.373 0 0 1 .137-.51l.868-.502a.374.374 0 0 1 .527.479l-.42.922 2.427-1.401a.374.374 0 0 1 .459.58l-1.67 1.762 3.56-2.055a.375.375 0 0 1 .409.623l-.253.188a.373.373 0 0 1 .464.57l-1.438 1.696.966-.557a.374.374 0 0 1 .493.538l-.276.395a.373.373 0 0 1 .148.695l-1.13.654a.374.374 0 0 1-.494-.538l.179-.257-1.377.794a.37.37 0 0 1-.187.05M21.149 40.526a.374.374 0 0 1-.26-.642l1.86-1.807-3.268 1.886a.374.374 0 0 1-.43-.608l1.516-1.297-1.122.647a.375.375 0 0 1-.434-.603l.318-.282a.375.375 0 0 1-.402-.54l.362-.696a.373.373 0 0 1-.178-.698l.868-.501a.374.374 0 0 1 .519.496l-.315.606 1.909-1.102a.373.373 0 0 1 .434.604l-.24.213 1.415-.817a.375.375 0 0 1 .43.608l-1.515 1.297 2.367-1.367a.374.374 0 0 1 .447.592l-1.86 1.807 1.44-.831a.373.373 0 0 1 .515.503l-.639 1.164.125-.072a.37.37 0 0 1 .51.137.373.373 0 0 1-.136.51l-1.284.742a.374.374 0 0 1-.515-.503l.638-1.164-2.887 1.667a.37.37 0 0 1-.187.05z"/><path fill="#3D3B33" d="M47.122 55.502a.374.374 0 0 1-.225-.673l1.647-1.243-2.178 1.257a.373.373 0 0 1-.403-.629l.934-.663-.53.306a.373.373 0 0 1-.408-.626l1.657-1.203-1.25.722a.374.374 0 0 1-.4-.631l.278-.193a.37.37 0 0 1-.379-.166.373.373 0 0 1 .097-.507l1.25-.896-.846.488a.373.373 0 0 1-.419-.616l3.473-2.758-3.053 1.762a.374.374 0 0 1-.43-.609l2.72-2.317-2.29 1.322a.37.37 0 0 1-.488-.104.375.375 0 0 1 .052-.498l1.096-.985-.66.38a.373.373 0 0 1-.531-.468l.485-1.158a.374.374 0 0 1-.288-.684l.869-.5a.374.374 0 0 1 .532.468l-.48 1.14 2.788-1.609a.373.373 0 0 1 .49.104c.111.155.089.37-.053.498l-1.097.986 2.752-1.588a.374.374 0 0 1 .43.609l-2.72 2.316 3.879-2.239a.374.374 0 0 1 .419.616l-3.473 2.759 3.061-1.767a.37.37 0 0 1 .501.121.373.373 0 0 1-.096.506l-1.249.895.846-.488a.374.374 0 0 1 .4.631l-.275.19a.373.373 0 0 1 .284.672l-1.663 1.207 1.259-.726a.373.373 0 0 1 .403.63l-.932.66.531-.306a.373.373 0 0 1 .412.623l-1.647 1.243 1.237-.715a.374.374 0 0 1 .417.619l-.541.42.127-.072a.375.375 0 0 1 .454.585l-.799.812.348-.202a.375.375 0 0 1 .52.494l-.29.566a.375.375 0 0 1 .147.696l-.81.468a.374.374 0 0 1-.52-.494l.229-.449-1.642.949a.373.373 0 0 1-.454-.586l.8-.812-2.431 1.404a.374.374 0 0 1-.417-.619l.54-.42-1.809 1.044a.37.37 0 0 1-.187.05z"/><path fill="#3D3B33" d="M20.287 58.474a.374.374 0 0 1-.23-.67l.438-.34-1.661.959a.374.374 0 0 1-.43-.607l1.276-1.1-2.957 1.706a.374.374 0 0 1-.44-.599l1.52-1.395-2.767 1.597a.373.373 0 0 1-.468-.57l1.397-1.586-1.008.582a.374.374 0 0 1-.473-.565l.354-.42a.373.373 0 0 1-.042-.669l1.239-.715a.375.375 0 0 1 .474.083.375.375 0 0 1-.002.482l-.073.087 1.132-.653a.373.373 0 0 1 .467.57l-1.395 1.585 3.734-2.156a.373.373 0 0 1 .44.6l-1.521 1.395 3.457-1.995a.374.374 0 0 1 .43.607l-1.276 1.1 2.957-1.706a.374.374 0 0 1 .417.618l-.438.34 1.661-.958a.375.375 0 0 1 .425.612l-1.01.832 2.503-1.445a.374.374 0 0 1 .42.616l-.702.558 2.033-1.174a.374.374 0 0 1 .448.59l-1.655 1.618 3.825-2.208a.373.373 0 0 1 .437.602l-1.443 1.293 3.283-1.894a.373.373 0 0 1 .418.618l-.545.426 1.81-1.044a.374.374 0 0 1 .45.59l-1.675 1.658 3.895-2.248a.374.374 0 0 1 .427.61l-1.129.947 2.697-1.556a.373.373 0 0 1 .423.612l-.955.782 2.417-1.394a.374.374 0 0 1 .454.585L42.046 56.4l4.016-2.318c.168-.1.386-.05.496.113a.375.375 0 0 1-.077.504l-.64.506 1.946-1.123a.374.374 0 0 1 .443.596l-1.583 1.489 3.613-2.085a.373.373 0 0 1 .421.614l-.881.715 2.302-1.33a.374.374 0 0 1 .437.603l-1.45 1.302 3.299-1.904a.374.374 0 0 1 .448.59l-1.653 1.614 3.698-2.135a.374.374 0 0 1 .438.6l-1.404 1.274 1.86-1.075a.374.374 0 0 1 .443.596l-.66.622.351-.203a.374.374 0 0 1 .522.49l-.385.768a.36.36 0 0 1 .334.188.373.373 0 0 1-.137.51l-.867.501a.374.374 0 0 1-.521-.49l.349-.697-2.057 1.187a.374.374 0 0 1-.443-.596l.66-.62-2.107 1.216a.373.373 0 0 1-.438-.6l1.404-1.273-3.246 1.873a.373.373 0 0 1-.448-.59l1.653-1.614-3.818 2.204a.37.37 0 0 1-.49-.104.375.375 0 0 1 .053-.498l1.45-1.302-3.3 1.904a.373.373 0 0 1-.421-.614l.882-.715-2.303 1.33a.374.374 0 0 1-.443-.596l1.583-1.49-3.612 2.085a.373.373 0 0 1-.42-.617l.64-.506-1.946 1.123a.37.37 0 0 1-.483-.095.37.37 0 0 1 .03-.49l1.703-1.732-4.016 2.318a.372.372 0 0 1-.423-.612l.955-.783-2.416 1.395a.374.374 0 0 1-.427-.61l1.128-.947-2.697 1.556a.373.373 0 0 1-.45-.589l1.674-1.659-3.894 2.248a.373.373 0 0 1-.418-.617l.545-.427-1.81 1.044a.375.375 0 0 1-.437-.602l1.444-1.293-3.283 1.895a.373.373 0 0 1-.448-.591l1.655-1.617-3.825 2.208a.374.374 0 0 1-.42-.617l.702-.557-2.034 1.174a.375.375 0 0 1-.425-.612l1.01-.832-2.502 1.444a.37.37 0 0 1-.187.05z"/><path fill="#262626" d="M57.21 54.14q-.019-.002-.036-.005c-.718-3.246 1.752-25.32-1.501-24.052V15.726c.205-1.164-1-1.4-1.896-1.277-1.03 0-2.863-.232-2.926 1.246-.1 4.789.052 9.59 0 14.382h-1.908V15.726c.209-1.157-.998-1.372-1.888-1.248-1.007 0-2.864-.23-2.934 1.217-.114 4.788.059 9.591 0 14.383h-1.903c-.288-1.707.673-4.091-.565-5.412-4.206.364-8.1 3.672-12.143 5.119-.098-1.958.894-6.604-2.493-4.81l-9.715 4.572c-3.369-.078-.891 20.755-1.604 24.702-1.626.311-2.028 2.808-1.15 3.93 7.5.607 15.29.012 22.882.215 6.618-.008 13.244.077 19.86-.012 2.1-.063 1.838-3.995-.08-4.241zm-5.26-39.003c.596-.136 2.244-.402 2.612.305.08 4.86-.002 9.761.027 14.635h-2.656c.017-4.975-.033-9.975.017-14.94m-6.736-.019c.577-.16 2.284-.417 2.617.324.08 4.864 0 9.76.027 14.635h-2.655c.012-4.982-.024-9.987.01-14.959M16.937 30.535c3.456-1.66 7.02-3.282 10.506-4.944 1.917-1.207.645 3.89.966 4.909 0 .393.527.371.782.25 1.558-.236 12.699-7.169 11.931-4.59.321 1.343-.694 3.991.493 4.668h12.33c.592 0 1.958-.32 2.134.437.026 7.583-.018 15.232 0 22.838-.638.02-1.266.006-1.902.01-.9-8.751 3.583-11.385-6.946-10.494-3.197-.018-1.011 8.099-1.616 10.495-9.608.012-19.218-.015-28.825-.008.157-7.824-.296-15.834.146-23.57zm29.771 23.578h-.01c.138-3.27-.27-6.726.151-9.91 9.395-.484 5.466.456 6.244 9.91zm-4.142 3.74H16.72c-1.843.594-1.894-2.407-.82-3.135 13.37-.185 26.875.004 40.278-.073.119.113.327.137.53.093 1.149.394.99 2.198.764 3.114z"/><path fill="#262626" d="M43.056 43.713c-4.395-.019-7.771-1.29-6.134 4.69 1.414.29 6.47.997 6.786-.895-.231-1.174.62-3.15-.652-3.795m-4.758 4.438c-.043 0-.09.005-.132 0-.41-.345-.557-3.257-.443-3.722.048-.198 3.699-.266 4.46-.266.8.435.458 3.118.31 3.988zM27.667 47.524c.32 2.273 4.13.787 5.795 1.146 1.99-.239 1.086-2.687 1.272-4.06-.59-1.992-3.914-.605-5.537-.993-2.177-.033-1.405 2.49-1.53 3.907m2.101-3.315c4.205-.074 4.223-.528 3.762 3.896-4.078-.154-5.459 1.23-4.663-3.89.301-.015.6-.002.901-.006M18.688 47.498c.263 2.4 4.047.852 5.724 1.267 2.065-.16 1.18-2.71 1.351-4.1-.482-2.164-3.916-.72-5.56-1.117-2.172-.035-1.382 2.544-1.515 3.95m1.125-3.22h.006c-.014.017-.046-.004-.006 0m.02.086a1 1 0 0 0 .04-.086c4.05.258 5.437-1.438 4.701 3.758-3.968-.253-5.37 1.43-4.742-3.672M36.638 39.278c.27 2.368 4.048.828 5.717 1.24 2.07-.153 1.183-2.697 1.356-4.084-.495-2.132-3.917-.698-5.554-1.092-2.172-.032-1.39 2.527-1.52 3.936m1.118-3.245h.004c-.017.018-.041-.007-.004 0m.021.092c.01-.018.03-.06.04-.092 4.09.246 5.428-1.42 4.71 3.796-3.998-.246-5.367 1.416-4.75-3.704M45.606 39.256c.237 2.477 4.042.93 5.744 1.338 2.056-.18 1.166-2.75 1.34-4.14-.475-2.257-4.02-.801-5.717-1.187-2.044.122-1.206 2.626-1.367 3.989m1.205-3.151c-.05-.001-.028.003 0 0m-.104 2.808c-.214-3.952.14-2.581 3.462-2.806.41.029.841-.06 1.237.039.385 1.013.215 2.531.081 3.61-1.241-.37-4.86.905-4.78-.843M27.667 39.298c.32 2.272 4.13.786 5.795 1.146 1.991-.24 1.086-2.686 1.272-4.06-.59-1.99-3.914-.604-5.537-.992-2.177-.032-1.405 2.49-1.53 3.906m2.1-3.316c4.207-.074 4.223-.527 3.763 3.898-4.079-.154-5.458 1.229-4.663-3.892.301-.014.599-.002.9-.006M18.693 39.298c.324 2.25 4.123.764 5.783 1.127 2.002-.225 1.1-2.666 1.284-4.04-.596-1.968-3.913-.586-5.532-.974-2.177-.033-1.413 2.468-1.535 3.887m2.096-3.336c4.232-.09 4.224-.48 3.765 3.936-4.108-.137-5.457 1.195-4.656-3.93.297-.014.593-.002.89-.006"/></g><defs><clipPath id="a"><path fill="#fff" d="M14 14h44.87v44.87H14z"/></clipPath></defs></svg>