<svg width="114" height="115" viewBox="0 0 114 115" fill="none" xmlns="http://www.w3.org/2000/svg">
<ellipse cx="56.5682" cy="57.4116" rx="56.4999" ry="56.5" fill="#DAECFB"/>
<path d="M37.924 47.2172C40.3729 49.3599 43.3956 50.8139 45.7105 53.0905C48.0254 55.3672 49.575 59.0021 48.0637 61.891C47.1454 63.6511 45.347 64.7224 43.7017 65.8512C35.1309 71.8202 29.7358 82.1128 29.6784 92.5777C32.816 91.9655 36.0492 91.9846 39.2441 92.042C46.3227 92.1951 53.3822 92.5968 60.4225 93.2664C66.6594 93.8595 72.9919 94.6821 79.1904 93.6682C79.1139 88.1392 78.406 82.4189 75.4981 77.7126C73.2406 74.0203 69.7969 71.2079 66.4107 68.4913C63.6557 66.2721 60.6904 63.7276 60.1547 60.2265C59.5999 56.5916 61.8957 53.1288 64.574 50.6226C67.2333 48.0972 70.4283 46.0502 72.5136 43.0466C76.0337 37.9959 75.8424 31.319 75.4981 25.1587C63.0627 23.2265 50.4934 21.409 37.924 22.2316C35.59 22.3847 33.0838 22.6334 30.9985 23.8004C29.1236 24.8526 29.1427 25.9048 29.468 27.8371C30.2524 32.3904 31.0941 36.9245 33.2177 41.076C34.4039 43.3718 35.9344 45.4954 37.8858 47.1981L37.924 47.2172Z" fill="white"/>
<path d="M75.5546 24.3934C75.2676 28.6023 75.3059 32.7729 74.2154 36.8862C73.2397 40.502 71.4605 43.8691 68.6673 46.4136C65.855 48.9389 62.5835 50.8521 60.7469 54.2001C58.9103 57.548 59.4077 61.4891 61.6078 64.5501C62.8131 66.2337 64.4775 67.5729 66.1611 68.759C67.7107 69.8495 69.4325 70.8061 70.4274 72.4897C70.6761 72.8914 70.7526 72.1262 70.7143 71.9731C70.3317 70.3661 69.1647 69.1034 67.9212 68.0894C66.448 66.9224 64.8793 65.9085 63.5401 64.5693C62.2009 63.2301 61.1104 61.757 60.6704 59.9777C60.2303 58.1794 60.7852 56.5915 61.7226 55.1566C63.7696 52 67.1942 50.1633 69.8152 47.5423C72.3788 44.9787 73.9858 41.6499 74.9424 38.1871C76.1285 33.8251 76.3772 29.0614 76.052 24.5464C76.0137 24.0681 75.612 23.7046 75.5546 24.3934Z" fill="#08141E"/>
<path d="M63.5398 70.2405C63.5398 70.2352 63.5376 70.2302 63.5338 70.2266C61.1463 67.9901 59.8852 65.7352 59.2161 64.3015C58.2787 62.2927 56.3273 58.1412 57.8195 53.6071C58.6065 51.2463 60.0455 49.6211 60.6673 48.9974C60.7446 48.9198 60.8356 48.8581 60.9342 48.8106C67.0294 45.8732 71.4008 39.3812 71.2706 31.947C71.2614 31.4211 70.8223 31.0129 70.2963 31.0129H36.926C36.3996 31.0129 35.9603 31.4218 35.9517 31.9482C35.8418 38.6526 39.3948 44.5196 44.5125 47.7766C44.608 47.8373 44.6918 47.9144 44.7776 47.9882C45.4992 48.6093 48.2213 49.8604 49.9565 52.3827C52.5393 56.1516 52.0227 61.5466 50.2626 65.2964C49.1208 67.6924 47.5394 69.2642 46.522 70.1373C46.4775 70.1754 46.4301 70.2088 46.3797 70.2385C40.9635 73.4369 37.2246 79.5085 37.3471 86.4017C37.3565 86.9275 37.7956 87.3357 38.3215 87.3357H71.6712C72.1982 87.3357 72.6378 86.9259 72.6458 86.399C72.7503 79.4657 68.9645 73.4263 63.5492 70.2569C63.5434 70.2535 63.5398 70.2472 63.5398 70.2405Z" fill="#C1D4E3"/>
<path d="M83.341 98.1451L27.2861 98.7764C26.7504 98.7764 26.2913 98.3938 26.2147 97.8581C26.0234 96.6719 25.966 94.5866 27.3243 92.6926C28.6444 90.856 30.5384 90.2821 31.1315 90.129L78.1755 90.0525C78.9791 90.2438 80.6244 90.7795 82.0783 92.2143C83.6854 93.7831 84.2402 95.658 84.4315 96.9015C84.5272 97.552 84.0297 98.1451 83.3601 98.1451H83.341Z" fill="#08141E"/>
<path d="M73.8901 76.9473C74.6936 78.0378 75.5737 79.09 76.2624 80.257C76.9511 81.424 77.4294 82.6293 77.7929 83.8919C78.6347 86.7999 78.7112 89.8418 78.8069 92.8454L79.6104 92.0993L79.553 91.9845C79.4573 91.7549 79.266 91.6593 79.0556 91.7932C78.826 91.9654 78.8069 92.4437 78.8069 92.6733V92.8454C78.8069 93.1324 78.9025 93.8594 79.3043 93.8594C79.7061 93.8594 79.7634 93.075 79.7634 92.8263C79.6869 89.4783 79.4956 86.0538 78.4816 82.8397C78.0607 81.5197 77.5059 80.2379 76.7789 79.0708C76.0328 77.8847 75.2484 76.8325 73.9858 76.3351C73.7179 76.2203 73.7945 76.8707 73.871 76.9855L73.8901 76.9473Z" fill="#08141E"/>
<path d="M30.8834 92.2145C30.7112 89.4213 30.8834 86.6664 31.6104 83.9497C32.3374 81.2331 33.5235 78.7269 35.0349 76.412C36.5463 74.0971 38.1916 72.2031 40.1047 70.4047C42.0179 68.6064 44.084 67.2672 46.0354 65.6219C47.9677 64.0149 49.326 62.0252 49.3834 59.4233C49.4217 56.8215 48.2738 54.5257 46.6285 52.7273C44.8684 50.7759 42.5344 49.475 40.3726 48.0019C38.2107 46.5288 36.355 44.7687 34.8436 42.6068C31.1704 37.3266 30.1564 30.8219 29.6972 24.5277C29.6972 24.279 29.6399 23.552 29.2572 23.552C28.8746 23.552 28.8555 24.3364 28.8555 24.5468C29.1233 30.2862 29.9842 36.1787 32.6052 41.3633C33.7531 43.6399 35.2453 45.7635 37.082 47.5236C38.9186 49.2837 41.2909 50.642 43.4527 52.1725C45.5954 53.703 47.5086 55.4631 48.2356 57.9693C48.9625 60.4756 47.3555 62.3122 45.5763 63.747C43.5484 65.3732 41.4439 66.8272 39.5499 68.6064C37.6559 70.4047 35.9341 72.4135 34.4801 74.6136C31.1512 79.7026 29.085 86.2646 30.2138 92.3676C30.3477 93.0945 30.8834 92.8076 30.8451 92.1762L30.8834 92.2145Z" fill="#08141E"/>
<path d="M54.5475 62.7517C54.5475 62.8282 54.5858 62.9047 54.6432 62.9621C54.758 63.0769 54.9493 63.0195 55.045 62.9047C55.1406 62.7899 55.1597 62.6177 55.1597 62.4647C55.1597 61.7951 54.9302 61.1446 54.9684 60.475C55.0258 59.6141 54.2988 59.7098 54.2988 60.5324C54.2988 61.2786 54.3945 62.0247 54.5475 62.7517Z" fill="#08141E"/>
<path d="M54.9884 50.5652C63.9228 49.8956 68.3421 42.3004 68.6674 41.7073C67.5577 40.7508 65.8742 39.6029 63.8845 39.7177C60.5556 39.8899 59.9243 43.3526 56.3659 44.0222C53.0179 44.6536 51.6596 41.8987 47.8333 42.1856C45.0018 42.3961 42.84 44.1179 41.5391 45.4188C42.2661 46.1458 47.3167 51.1391 54.9884 50.5652Z" fill="#08141E"/>
<path d="M48.6191 49.7232C48.9635 49.7998 49.4801 49.9337 50.0349 50.2015C51.9671 51.1198 52.9046 52.7269 53.3637 53.5112C54.282 55.08 54.5499 56.5914 54.6264 57.5862C54.6838 57.6436 54.7794 57.7201 54.856 57.701C55.3343 57.5862 54.6073 54.8504 55.3725 52.8608C55.7743 51.8085 56.7691 50.5076 59.3136 49.4937C57.5918 49.7041 55.6978 49.838 53.6507 49.8763C51.8523 49.9145 50.1688 49.8571 48.6191 49.7232Z" fill="#08141E"/>
<path d="M38.5348 86.3599C37.54 84.6764 41.0602 80.9458 48.1579 73.5419C51.5059 70.06 52.9599 68.7591 54.8156 68.9121C56.8435 69.0843 58.0106 70.8827 59.6941 73.0636C66.7536 82.1893 72.6461 85.1738 71.6704 86.8956C71.3643 87.4313 70.3886 87.9096 67.0406 87.3165H40.9836C39.3957 87.2591 38.7835 86.8 38.5157 86.3408L38.5348 86.3599Z" fill="#08141E"/>
<path d="M76.626 79.4726C84.9097 79.4726 91.625 72.7573 91.625 64.4736C91.625 56.1899 84.9097 49.4746 76.626 49.4746C68.3422 49.4746 61.627 56.1899 61.627 64.4736C61.627 72.7573 68.3422 79.4726 76.626 79.4726Z" fill="#08141E"/>
<path d="M24.7996 18.7497L80.8545 18.1184C81.3902 18.1184 81.8493 18.501 81.9258 19.0367C82.1172 20.2229 82.1746 22.3082 80.8162 24.2022C79.4962 26.0388 77.6022 26.6127 77.0091 26.7658L29.965 26.8423C29.1615 26.651 27.5162 26.1153 26.0622 24.6805C24.4552 23.1117 23.9004 21.2368 23.7091 19.9933C23.6134 19.3428 24.1108 18.7497 24.7804 18.7497H24.7996Z" fill="#08141E"/>
<path d="M83.1886 59.1743L73.7277 68.6167C73.5324 68.8117 73.2161 68.8115 73.021 68.6164L70.0645 65.6599" stroke="white" stroke-width="2.60187" stroke-miterlimit="10" stroke-linecap="round"/>
</svg>
