<svg width="133" height="132" viewBox="0 0 133 132" fill="none" xmlns="http://www.w3.org/2000/svg">
<circle cx="66.6854" cy="66" r="66" fill="#F3E6E4"/>
<path d="M47.4588 35.6109C49.8758 34.5613 50.749 31.6033 51.5795 29.0271C52.41 26.4508 53.9114 23.5882 56.584 23.408C59.6931 23.1853 62.0889 26.737 65.2087 27.2671C67.53 27.6594 69.6489 26.3023 71.704 25.2633C73.759 24.2243 76.4316 23.5352 78.3482 25.0301C80.744 26.9066 80.2648 30.9036 82.405 33.0876C84.4494 35.1656 88.0165 34.7415 90.1461 36.7559C91.8923 38.4098 92.0414 41.1558 91.4983 43.4246C90.9553 45.6934 89.8905 47.7926 89.6456 50.1251C89.3475 52.9876 90.3377 55.882 90.7317 58.7763C91.1257 61.6707 90.7317 64.9891 88.4211 66.5582C86.217 68.0531 82.9162 67.5018 80.9996 69.3359C80.3926 69.919 79.9986 70.6824 79.5727 71.4033C78.5399 73.1633 77.2408 74.8066 75.4839 75.782C73.727 76.7573 71.4378 76.98 69.585 75.9516C68.5096 75.3473 67.6152 74.3613 66.4652 73.9796C63.3773 72.9618 60.939 76.6937 57.7872 76.8846C56.2858 76.9694 54.7632 76.206 53.6452 75.0822C52.5272 73.9584 51.7925 72.5059 51.2494 71.0216C50.7383 69.6116 50.3337 68.0637 49.205 67.0883C47.8314 65.9009 45.8829 65.9751 44.2644 65.2329C41.1978 63.8335 39.9946 59.4761 41.4108 56.5075C42.0922 55.0656 43.2635 53.857 43.519 52.2561C43.8704 50.0509 42.4116 47.9411 41.3043 45.9267C40.2714 44.0501 39.4942 41.7601 40.2927 39.8623C41.7515 36.3849 47.0329 36.8195 49.3541 33.904" fill="#DCBCB8"/>
<path d="M65.7199 69.9298C77.0872 69.9298 86.3022 60.7544 86.3022 49.4361C86.3022 38.1177 77.0872 28.9424 65.7199 28.9424C54.3526 28.9424 45.1376 38.1177 45.1376 49.4361C45.1376 60.7544 54.3526 69.9298 65.7199 69.9298Z" fill="#0C1D2C"/>
<path d="M42.6672 32.6533C45.8509 31.6991 46.8944 28.2111 47.8314 25.3591C48.8216 22.3375 50.4401 18.0967 54.284 18.0861C57.7232 18.0861 60.2042 21.3622 63.2708 22.4648C67.2744 23.9066 70.4474 21.1289 73.9825 19.7612C75.8033 19.0615 78.0181 18.6268 79.8389 19.5386C81.5212 20.3762 82.2879 22.0301 82.8203 23.737C83.7466 26.6844 84.4388 29.7908 87.4521 31.2962C90.4655 32.8017 94.9908 32.7275 96.4495 36.4912C98.0148 40.5306 94.9269 44.941 94.32 48.8956C93.6385 53.306 95.2783 57.4302 95.6083 61.7664C95.8852 65.4878 94.5223 68.785 90.7529 69.983C89.1344 70.5025 87.4095 70.6297 85.823 71.2447C83.9809 71.955 83.0865 73.312 82.0643 74.9129C79.9454 78.2632 76.9213 81.624 72.5557 81.2C70.4155 80.9879 69.1058 79.6096 67.3489 78.5813C66.0073 77.8073 64.5911 77.6589 63.1217 78.1466C60.0764 79.1644 57.67 82.2814 54.1881 81.6982C49.4498 80.8925 48.3851 75.8989 46.7134 72.2518C45.968 70.6297 44.8819 69.3575 43.1676 68.7214C41.4533 68.0853 39.6431 68.0004 38.1099 67.0357C35.2136 65.2227 34.1595 61.2894 35.7673 58.3102C36.6511 56.6775 37.8117 55.2462 38.1844 53.3909C38.5464 51.6309 38.2376 49.8074 37.5881 48.1641C36.353 45.0365 32.1151 40.6472 34.6493 37.244C36.3104 35.007 39.558 34.4238 41.9431 33.2576C43.2528 32.6215 44.3176 31.7945 45.1694 30.6177C45.3611 30.3527 45.1694 28.9744 44.9139 29.2289C42.6565 31.5083 39.2066 31.8582 36.4807 33.3636C33.3929 35.06 32.5091 38.3466 33.2438 41.6544C33.691 43.6582 34.6706 45.4287 35.6609 47.1993C36.2784 48.3019 36.9279 49.4363 37.2474 50.6661C37.6201 52.0762 37.0451 53.253 36.321 54.4299C35.3734 55.9777 34.4683 57.4196 34.1489 59.2326C33.872 60.8335 33.9466 62.498 34.3405 64.0777C35.1924 67.4279 37.3752 69.5907 40.7079 70.4389C43.0505 71.0326 44.9458 71.6157 46.0212 73.9694C46.8731 75.8565 47.3309 77.8497 48.4276 79.6415C50.4401 82.9705 53.9752 85.1651 57.8191 83.5324C60.8963 82.2283 63.8351 79.1113 67.2531 81.359C69.0313 82.5252 70.3942 83.8292 72.6196 84.0413C74.632 84.2321 76.6658 83.5748 78.2949 82.4192C79.9241 81.2636 81.2018 79.7475 82.1601 78.083C83.2675 76.164 84.1193 74.4041 86.3341 73.5983C89.7201 72.3685 93.5533 72.7819 95.4806 69.1561C97.4078 65.5302 96.8541 61.5332 96.1088 57.8543C95.587 55.2674 94.8524 52.5957 95.2038 49.9346C95.5232 47.5385 96.5773 45.2909 97.2055 42.9691C98.0999 39.64 98.2064 35.2614 95.6297 32.6003C93.0529 29.9392 88.8044 30.5435 86.0998 28.1156C83.3952 25.6878 83.9489 21.4364 81.649 18.7541C78.9551 15.6053 74.7066 17.0683 71.5974 18.6904C69.4785 19.7931 67.1998 21.0759 64.7295 20.7578C62.8023 20.514 61.1625 19.2948 59.6079 18.2346C56.8075 16.3368 53.4854 14.7253 50.6105 17.45C47.9805 19.9415 47.4694 23.6628 46.149 26.854C45.393 28.6775 44.2324 30.4163 42.5607 31.5189C42.3264 31.6673 42.3371 32.7487 42.6565 32.6533H42.6672Z" fill="#0C1D2C"/>
<path d="M41.469 119.44C41.3496 120.207 42.1114 120.811 42.8312 120.521L54.2933 115.897C54.6296 115.761 55.013 115.818 55.2953 116.046L63.6356 122.774C64.2702 123.285 65.2177 122.864 65.262 122.049L67.4771 81.3373C66.572 80.8072 65.1132 80.118 63.3031 80.1074C59.7893 80.0968 58.2986 82.6625 55.4024 82.9594C53.72 83.129 51.1858 82.5671 47.7785 78.8882C45.6754 92.4085 43.5722 105.929 41.469 119.44Z" fill="#0C1D2C"/>
<path d="M104.119 108.752C104.502 109.429 103.999 110.265 103.221 110.243L90.8737 109.905C90.5103 109.895 90.1701 110.083 89.9852 110.396L84.5588 119.587C84.1424 120.292 83.1009 120.225 82.7785 119.472C77.245 106.548 71.7115 93.6145 66.178 80.6911C66.8169 80.479 67.7858 80.2458 68.9039 80.426C70.2774 80.6487 70.8631 81.3272 71.7149 81.7301C74.4301 82.9811 78.1249 80.5214 79.0193 79.9277C82.4586 77.6377 83.5979 74.139 83.9174 72.9834C90.6549 84.9062 97.3826 96.829 104.119 108.752Z" fill="#0C1D2C"/>
<path d="M56.0411 86.6386C55.2105 87.9851 55.498 90.3069 55.4022 91.8336C55.2744 93.9964 55.136 96.1698 54.9869 98.3326C54.6888 102.658 54.1457 107.069 54.4439 111.405C54.4439 111.522 54.5503 111.702 54.6142 111.5C55.7109 107.376 55.7429 102.891 55.9772 98.6507C56.1049 96.3818 56.2114 94.1236 56.2966 91.8548C56.3605 90.2327 56.7225 88.2183 56.1262 86.6598C56.1156 86.628 56.073 86.5962 56.0411 86.6386Z" fill="white"/>
<path d="M78.9762 84.211C79.4447 86.0345 80.3924 87.7733 81.1591 89.4802C81.979 91.3143 82.8095 93.1379 83.672 94.9402C85.2904 98.3223 87.0899 101.588 88.9853 104.821C89.0917 105.002 89.1237 104.641 89.0917 104.556C87.6223 100.761 86.0997 96.997 84.3534 93.3181C83.5442 91.6112 82.703 89.9043 81.8512 88.2185C81.0845 86.7025 80.4137 84.7729 79.2744 83.4901C78.9656 83.1508 78.9443 84.0732 78.9762 84.1898V84.211Z" fill="white"/>
<path d="M57.1687 48.772C56.4428 48.2123 55.4788 48.2278 54.8971 48.7185C54.1703 49.3345 54.1234 50.655 55.008 51.451C57.2641 53.5411 59.5276 55.6215 61.7852 57.7096C62.1968 58.0903 62.8409 58.0588 63.213 57.6394C67.0046 53.3655 70.7879 49.0921 74.5793 44.8082C75.5958 43.5997 75.6094 42.1017 75.009 41.5154C74.324 40.8543 72.4938 40.9798 71.3259 42.5175L61.6527 52.8087C60.1611 51.4592 58.6695 50.1097 57.1779 48.7602L57.1687 48.772Z" fill="white"/>
</svg>
