<svg width="133" height="132" viewBox="0 0 133 132" fill="none" xmlns="http://www.w3.org/2000/svg">
<circle cx="66.2008" cy="66" r="66" fill="#DEE4F5"/>
<path d="M22.9148 42.8613C23.0912 33.5316 30.7277 24.5783 40.8333 24.5547C50.7685 24.5312 58.4168 33.1378 58.8401 42.5086C59.2692 52.0322 52.1676 61.0502 42.7381 61.9791C32.1504 63.0196 22.709 53.449 22.9089 42.8672L22.9148 42.8613Z" fill="white"/>
<path d="M29.0464 48.6932C33.1028 57.3056 43.8727 61.2562 52.9378 56.994C46.718 62.2026 38.2643 63.2197 31.8388 59.6277C24.2669 55.395 23.1264 46.7943 22.9912 45.6127C22.7914 43.9079 22.227 36.9768 27.2475 31.292C30.5514 27.5531 34.5783 26.2656 36.3008 25.8247C28.2998 30.61 25.2722 40.6569 29.0523 48.6932H29.0464Z" fill="#A9B7DE"/>
<path d="M33.6554 40.8863C34.8015 40.8863 35.7306 39.9572 35.7306 38.8111C35.7306 37.6649 34.8015 36.7358 33.6554 36.7358C32.5092 36.7358 31.5801 37.6649 31.5801 38.8111C31.5801 39.9572 32.5092 40.8863 33.6554 40.8863Z" fill="#0C1D2B"/>
<path d="M47.9643 40.8863C49.1104 40.8863 50.0395 39.9572 50.0395 38.8111C50.0395 37.6649 49.1104 36.7358 47.9643 36.7358C46.8182 36.7358 45.8891 37.6649 45.8891 38.8111C45.8891 39.9572 46.8182 40.8863 47.9643 40.8863Z" fill="#0C1D2B"/>
<path d="M49.3811 44.666H32.4032C32.1445 44.666 31.9446 44.8894 31.9681 45.1481C32.3738 49.7159 36.2538 53.3196 40.8862 53.3196C45.5246 53.3196 49.4105 49.7159 49.8102 45.1481C49.8338 44.8894 49.6339 44.666 49.3752 44.666H49.3811Z" fill="#0C1D2B"/>
<path d="M23.197 43.4257C23.5909 36.2713 28.1469 29.6047 34.8958 26.9886C38.3231 25.66 42.3207 25.5601 45.8303 26.6536C49.34 27.747 52.2558 29.9633 54.4369 32.7851C56.6179 35.6069 58.0582 39.0049 58.2933 42.5145C58.5285 46.0242 57.5644 49.5691 55.7478 52.5673C51.9207 58.8811 44.5723 62.5024 37.259 60.7211C30.422 59.0574 24.6961 52.9023 23.4439 46.0006C23.2793 45.0894 23.1911 44.1782 23.1852 43.2494C23.1852 43.1024 23.1323 42.5851 22.8972 42.6086C22.662 42.6321 22.6444 43.1024 22.6385 43.2611C22.4033 51.2151 26.9653 59.0339 34.3373 62.2437C37.9351 63.8075 42.0032 64.1543 45.7774 63.0374C49.5516 61.9204 52.7438 59.6042 55.107 56.5354C60.0805 50.0923 60.8153 40.7862 56.7825 33.6846C52.7496 26.583 45.1543 22.6383 37.3766 24.3667C29.599 26.0951 24.0376 32.744 22.8384 40.404C22.6914 41.3564 22.6267 42.3029 22.6267 43.267C22.6267 43.8255 23.1558 44.19 23.197 43.4257Z" fill="#0C1D2B"/>
<path d="M74.2072 43.3196C74.3836 34.0899 82.0201 25.2306 92.1258 25.2012C102.061 25.1777 109.709 33.6961 110.132 42.9669C110.562 52.3906 103.46 61.3146 94.0305 62.2317C83.4428 63.2605 74.0015 53.7956 74.2013 43.3196H74.2072Z" fill="white"/>
<path d="M80.3388 49.0869C84.3951 57.6112 95.1651 61.5147 104.23 57.2996C98.0104 62.4553 89.5567 63.4606 83.1312 59.9039C75.5593 55.7182 74.4188 47.2057 74.2836 46.0358C74.0837 44.3486 73.5194 37.4881 78.5399 31.868C81.8438 28.1643 85.8707 26.8945 87.5932 26.4595C79.5922 31.1919 76.5646 41.1388 80.3447 49.0869H80.3388Z" fill="#A9B7DE"/>
<path d="M84.9477 41.3622C86.0938 41.3622 87.023 40.4436 87.023 39.3105C87.023 38.1774 86.0938 37.2588 84.9477 37.2588C83.8016 37.2588 82.8725 38.1774 82.8725 39.3105C82.8725 40.4436 83.8016 41.3622 84.9477 41.3622Z" fill="#0C1D2B"/>
<path d="M99.2567 41.3622C100.403 41.3622 101.332 40.4436 101.332 39.3105C101.332 38.1774 100.403 37.2588 99.2567 37.2588C98.1106 37.2588 97.1815 38.1774 97.1815 39.3105C97.1815 40.4436 98.1106 41.3622 99.2567 41.3622Z" fill="#0C1D2B"/>
<path d="M100.674 45.1011H83.6956C83.4369 45.1011 83.237 45.3245 83.2605 45.5773C83.6662 50.098 87.5462 53.6606 92.1787 53.6665C96.817 53.6665 100.703 50.1039 101.103 45.5773C101.126 45.3245 100.926 45.1011 100.668 45.1011H100.674Z" fill="#0C1D2B"/>
<path d="M74.4894 43.8783C74.8833 36.7356 79.5099 30.1572 86.2411 27.6C89.7331 26.2714 93.8012 26.2067 97.3461 27.3589C100.891 28.5112 103.707 30.704 105.859 33.5258C108.01 36.3476 109.392 39.6397 109.592 43.0788C109.792 46.5179 108.821 50.0511 106.987 53.0081C103.125 59.2396 95.7941 62.7316 88.5514 60.9915C81.7556 59.3631 75.9885 53.2962 74.7363 46.4297C74.5717 45.5244 74.4835 44.6249 74.4776 43.7078C74.4776 43.5609 74.4247 43.0494 74.1896 43.0671C73.9544 43.0847 73.9368 43.5609 73.9309 43.7196C73.6957 51.6325 78.2988 59.3513 85.6297 62.5082C89.1981 64.0485 93.2192 64.3894 96.9699 63.3195C100.721 62.2495 103.942 59.9686 106.335 56.9351C111.273 50.6742 112.12 41.5327 108.234 34.5252C104.442 27.6881 96.5877 23.2967 88.7337 24.9898C81.0795 26.6417 75.3418 33.2083 74.119 40.8625C73.9662 41.809 73.9015 42.7555 73.9074 43.7137C73.9074 44.2722 74.4365 44.6308 74.4776 43.8725L74.4894 43.8783Z" fill="#0C1D2B"/>
<path d="M35.3602 74.5776C35.6659 58.3933 48.9167 42.8616 66.4472 42.8145C83.6779 42.7734 96.9581 57.7114 97.693 73.9604C98.4396 90.4856 86.1176 106.129 69.757 107.734C51.3858 109.539 35.0133 92.9371 35.3602 74.5776Z" fill="white"/>
<path d="M46.0008 84.6832C53.0318 99.6271 71.7205 106.476 87.4521 99.0863C76.6587 108.122 61.997 109.886 50.8449 103.654C37.7117 96.3115 35.7306 81.3911 35.4895 79.3394C35.1486 76.3765 34.1668 64.3544 42.8733 54.4957C48.6051 48.0055 55.595 45.7774 58.5814 45.0132C44.7016 53.314 39.446 70.7446 46.0067 84.6891L46.0008 84.6832Z" fill="#A9B7DE"/>
<path d="M53.9901 71.1503C55.9803 71.1503 57.5938 69.5368 57.5938 67.5466C57.5938 65.5563 55.9803 63.9429 53.9901 63.9429C51.9998 63.9429 50.3864 65.5563 50.3864 67.5466C50.3864 69.5368 51.9998 71.1503 53.9901 71.1503Z" fill="#0C1D2B"/>
<path d="M78.8103 71.1503C80.8006 71.1503 82.414 69.5368 82.414 67.5466C82.414 65.5563 80.8006 63.9429 78.8103 63.9429C76.82 63.9429 75.2066 65.5563 75.2066 67.5466C75.2066 69.5368 76.82 71.1503 78.8103 71.1503Z" fill="#0C1D2B"/>
<path d="M81.2735 77.7051H51.8149C51.3681 77.7051 51.0272 78.0931 51.0624 78.5399C51.762 86.4704 58.4932 92.7195 66.5354 92.7195C74.5835 92.7195 81.3206 86.4704 82.0201 78.5399C82.0613 78.0931 81.7203 77.7051 81.2677 77.7051H81.2735Z" fill="#0C1D2B"/>
<path d="M35.7541 75.4947C36.3361 62.9376 44.437 51.1741 56.2769 46.6592C62.3321 44.3489 69.3337 44.2313 75.4888 46.2418C81.6439 48.2524 86.782 52.2558 90.562 57.3292C92.4197 59.8277 93.9188 62.6025 95.0299 65.5066C96.0822 68.2403 96.7641 71.3325 96.9287 74.0603C97.2991 80.1448 95.6707 86.4351 92.4374 91.7731C89.204 97.111 84.4069 101.608 78.6633 104.254C72.9198 106.899 66.2415 107.499 60.057 105.947C48.029 102.931 38.1585 92.0435 36.1303 79.8626C35.8775 78.3341 35.7423 76.8057 35.7482 75.2537C35.7482 75.0303 35.6776 74.3542 35.3484 74.366C35.0192 74.3777 34.9957 75.0773 34.9898 75.2772C34.79 82.2494 36.8064 89.0218 40.3983 94.9711C43.7786 100.579 49.2576 105.183 55.2423 107.787C61.2269 110.391 68.352 111.067 74.8245 109.21C81.297 107.352 86.8466 103.384 90.9559 98.1515C99.5566 87.1994 100.956 71.3443 94.1246 59.1458C90.9265 53.4316 86.1941 48.5698 80.3329 45.5775C74.4718 42.5852 67.2703 41.3448 60.5743 42.791C47.3 45.6598 37.4178 57.2175 35.3367 70.4448C35.0839 72.0438 34.9663 73.6488 34.9722 75.2713C34.9722 75.4947 35.0369 76.1002 35.3426 76.1472C35.6483 76.1943 35.76 75.7122 35.7658 75.4947H35.7541Z" fill="#0C1D2B"/>
<path d="M27.318 91.6788C26.6184 93.6188 26.007 95.5001 24.7784 97.199C23.6555 98.7569 22.3034 100.086 20.6809 101.114C20.3046 101.349 20.3458 102.519 20.8102 102.637C24.4668 103.572 27.6296 106.47 28.8289 110.062C29.111 110.914 29.499 110.115 29.5108 109.627C29.5519 107.781 30.181 105.97 31.2039 104.442C31.7036 103.689 32.2856 102.99 32.9558 102.384C33.6789 101.732 34.4196 101.308 35.2779 100.885C35.6659 100.697 35.613 99.4212 35.1486 99.3565C32.9734 99.0332 30.9276 97.9045 29.5284 96.1996C28.3703 94.7828 28.0293 93.1838 27.4826 91.5025C27.4062 91.2732 27.2239 91.2379 27.1769 91.5084C26.8418 93.5071 27.7589 95.7058 28.9112 97.2931C30.3926 99.333 32.6971 100.615 35.1897 100.914L35.0604 99.3859C31.2156 101.344 28.8641 105.382 28.7701 109.644L29.452 109.209C28.1175 105.182 24.8901 102.137 20.769 101.085L20.8984 102.608C24.4962 100.303 27.4238 96.1173 27.365 91.72C27.365 91.6965 27.3415 91.6259 27.318 91.6788Z" fill="#0C1D2B"/>
<path d="M104.465 91.6671C103.872 93.3014 103.266 94.9534 102.214 96.3584C100.732 98.3337 98.6336 99.8504 96.2879 100.615C95.8118 100.767 95.7765 102.078 96.2292 102.29C99.9798 104.018 102.813 107.622 103.401 111.749C103.478 112.296 103.989 112.713 104.154 111.949C104.577 109.956 105.518 108.11 106.887 106.587C107.728 105.653 108.727 104.859 109.815 104.236C110.509 103.836 111.379 103.325 112.19 103.231C112.678 103.172 112.625 101.837 112.243 101.667C111.42 101.302 110.579 101.044 109.792 100.591C108.481 99.8386 107.358 98.8098 106.494 97.5694C105.712 96.4525 105.188 95.1591 104.977 93.8129C104.859 93.0721 104.789 92.3079 104.677 91.5848C104.653 91.4261 104.465 91.0557 104.348 91.3908C103.578 93.613 104.548 96.5524 105.676 98.4747C106.535 99.9444 107.746 101.173 109.204 102.055C110.08 102.584 111.15 103.137 112.184 103.231L112.055 101.673C111.249 102.061 110.385 102.278 109.586 102.702C108.375 103.348 107.299 104.212 106.376 105.229C104.9 106.858 103.889 108.904 103.425 111.049L104.177 111.249C103.531 106.664 100.632 102.578 96.3879 100.644L96.3291 102.319C100.803 100.844 104.571 96.5994 104.518 91.7141C104.518 91.6906 104.489 91.6142 104.471 91.6671H104.465Z" fill="#0C1D2B"/>
<path d="M66.4825 18.5583C65.877 19.7693 65.3832 20.9862 64.5131 22.0503C63.6959 23.0497 62.7436 23.8903 61.6325 24.5429C61.3797 24.6898 61.4091 25.4952 61.7207 25.5658C64.2015 26.1419 66.2885 28.1524 66.8058 30.6803C66.8999 31.1389 67.2585 31.1918 67.2879 30.6686C67.4172 28.0584 69.0574 25.8244 71.4677 24.8721C71.744 24.7604 71.6793 23.8962 71.3795 23.8433C70.0627 23.5964 68.8222 22.8792 67.9639 21.8445C67.1056 20.8098 66.9058 19.6811 66.6001 18.4407C66.5589 18.2643 66.4355 18.282 66.3943 18.4407C66.0651 19.7928 66.7176 21.4154 67.4878 22.4971C68.4107 23.7904 69.8393 24.6369 71.403 24.8897L71.3149 23.8609C68.6753 24.972 66.941 27.541 66.7941 30.3805L67.2761 30.3687C66.6941 27.4764 64.613 25.1837 61.6972 24.5194L61.7853 25.5423C64.225 24.0961 66.3002 21.4977 66.5178 18.5935C66.5178 18.5818 66.506 18.5171 66.4884 18.5524L66.4825 18.5583Z" fill="#0C1D2B"/>
</svg>
