<svg width="84" height="101" viewBox="0 0 84 101" fill="none" xmlns="http://www.w3.org/2000/svg">
<g clip-path="url(#clip0_154_2527)">
<path d="M7.37695 74.2381L42.3032 90.8364L75.9031 74.2381V9.33105H7.37695V74.2381Z" fill="white"/>
<path d="M76.6128 9.5791L6.67188 75.3945L42.9244 92.158L76.6128 76.0551V9.5791Z" fill="#F2F3F2"/>
<path d="M5.08008 30.9653V75.6405L6.31797 76.2186L41.2442 92.8169L42.3053 93.3124L43.3663 92.8169L77.0547 76.2186L78.2926 75.6405V7.18262H5.08008V30.9653ZM7.37902 74.4018V9.32967H75.9936V74.4018L42.3053 91.0002L7.37902 74.4018Z" fill="#DCDEDC"/>
<path d="M41.686 10.4032C42.0397 10.4032 42.3934 10.4032 42.7471 10.4858L41.686 12.3851C40.0945 12.3025 38.6797 13.4586 38.5913 14.945C38.5029 16.4315 39.7408 17.7527 41.3323 17.8353H41.686C42.3934 17.8353 43.1008 17.5876 43.6313 17.1747L44.7808 18.9914C43.8966 19.5695 42.8355 19.8998 41.686 19.8998C38.8566 19.9823 36.4692 18.0005 36.3808 15.3579C36.2924 12.7154 38.4145 10.4858 41.2439 10.4032H41.686ZM45.3113 14.4496L46.6376 16.514L45.3113 18.4959L44.0734 16.514H41.5092L42.8355 14.4496H45.3113ZM43.1892 13.7064C43.1892 13.376 43.2776 13.0457 43.4544 12.798C43.6313 12.5502 43.985 12.3025 44.2502 12.1374L44.4271 12.0548C44.7808 11.8896 44.8692 11.807 44.8692 11.6419C44.8692 11.4767 44.6039 11.3116 44.4271 11.3116C44.0734 11.3116 43.8081 11.4767 43.6313 11.807L43.1892 11.3941C43.2776 11.229 43.4544 11.0638 43.6313 10.8987C43.8965 10.7335 44.1618 10.7335 44.4271 10.7335C44.6923 10.7335 45.046 10.8161 45.2229 10.9812C45.3997 11.1464 45.5765 11.3941 45.5765 11.6419C45.5765 12.0548 45.3113 12.3851 44.7808 12.5502L44.5155 12.7154C44.2502 12.8806 44.0734 12.9631 43.985 13.2109H45.5765V13.7889L43.1892 13.7064ZM41.686 24.0287L50.086 19.5695V7.18262H33.1976V19.4869L41.686 24.0287ZM79.9723 53.2616H3.39978L0.570312 59.0422L3.39978 64.8227H79.9723L82.7133 59.0422L79.9723 53.2616Z" fill="#FF492C"/>
<path d="M15.5148 40.8674C16.0984 40.8674 16.6112 40.9775 17.0533 41.1977C17.4954 41.4179 17.8373 41.7344 18.079 42.1473C18.3207 42.5547 18.4415 43.0227 18.4415 43.5512C18.4415 44.0742 18.3177 44.5339 18.0701 44.9303C17.8167 45.3211 17.463 45.6267 17.0091 45.8469C16.5552 46.0671 16.0306 46.1772 15.4352 46.1772H13.5518C13.5106 46.1772 13.4899 46.1992 13.4899 46.2433V49.3978C13.4899 49.4418 13.4723 49.4776 13.4369 49.5051C13.4074 49.5326 13.3691 49.5464 13.3219 49.5464H11.7746C11.7274 49.5464 11.6891 49.5326 11.6596 49.5051C11.6302 49.4776 11.6154 49.4418 11.6154 49.3978V41.016C11.6154 40.972 11.6302 40.9362 11.6596 40.9087C11.6891 40.8811 11.7274 40.8674 11.7746 40.8674H15.5148ZM15.2318 44.7816C15.6445 44.7816 15.9716 44.6715 16.2133 44.4513C16.4609 44.2311 16.5847 43.9448 16.5847 43.5925C16.5847 43.2236 16.4609 42.9291 16.2133 42.7089C15.9716 42.4832 15.6445 42.3703 15.2318 42.3703H13.5518C13.5106 42.3703 13.4899 42.3923 13.4899 42.4364V44.7155C13.4899 44.7596 13.5106 44.7816 13.5518 44.7816H15.2318ZM25.135 45.7065C25.1821 46.0203 25.1969 46.3699 25.1792 46.7552C25.1733 46.8598 25.1173 46.9121 25.0112 46.9121H20.9173C20.8642 46.9121 20.8436 46.9314 20.8554 46.9699C20.8849 47.1351 20.935 47.3003 21.0057 47.4654C21.2356 47.9279 21.7042 48.1591 22.4116 48.1591C22.9775 48.1536 23.4226 47.9389 23.7468 47.515C23.788 47.4654 23.8293 47.4406 23.8706 47.4406C23.8941 47.4406 23.9236 47.4572 23.959 47.4902L24.9139 48.3655C24.9611 48.4096 24.9847 48.4481 24.9847 48.4811C24.9847 48.4977 24.967 48.5307 24.9316 48.5802C24.6369 48.9216 24.2626 49.1831 23.8087 49.3647C23.343 49.5519 22.836 49.6455 22.2878 49.6455C21.5333 49.6455 20.8908 49.4859 20.3602 49.1665C19.8356 48.8417 19.4584 48.3903 19.2285 47.8123C19.0398 47.3994 18.9455 46.8598 18.9455 46.1937C18.9455 45.7368 19.0133 45.3349 19.1489 44.9881C19.3552 44.4045 19.7118 43.9393 20.2188 43.5925C20.7257 43.2456 21.327 43.0722 22.0226 43.0722C22.9068 43.0722 23.6171 43.3117 24.1535 43.7907C24.6899 44.2696 25.0171 44.9082 25.135 45.7065ZM22.0402 44.5834C21.4802 44.5834 21.1118 44.8256 20.935 45.3101C20.8996 45.4202 20.8701 45.5523 20.8466 45.7065C20.8466 45.745 20.8701 45.7643 20.9173 45.7643H23.2074C23.2604 45.7643 23.2781 45.745 23.2604 45.7065C23.2133 45.4698 23.1897 45.3542 23.1897 45.3597C23.1131 45.1119 22.9746 44.9192 22.7741 44.7816C22.5796 44.6495 22.335 44.5834 22.0402 44.5834ZM29.7329 43.097C30.0512 43.097 30.3046 43.1548 30.4933 43.2704C30.5581 43.3034 30.5817 43.364 30.564 43.4521L30.2899 44.8642C30.284 44.9633 30.2221 44.9936 30.1042 44.955C29.9686 44.911 29.8154 44.889 29.6444 44.889C29.5737 44.889 29.4735 44.8972 29.3438 44.9137C29.0314 44.9413 28.7632 45.0514 28.5392 45.2441C28.3211 45.4367 28.212 45.6955 28.212 46.0203V49.3978C28.212 49.4418 28.1943 49.4776 28.159 49.5051C28.1295 49.5326 28.0941 49.5464 28.0529 49.5464H26.4967C26.4554 49.5464 26.4171 49.5326 26.3817 49.5051C26.3522 49.4776 26.3375 49.4418 26.3375 49.3978V43.3282C26.3375 43.2897 26.3522 43.2539 26.3817 43.2209C26.4171 43.1933 26.4554 43.1796 26.4967 43.1796H28.0529C28.0941 43.1796 28.1295 43.1933 28.159 43.2209C28.1943 43.2539 28.212 43.2897 28.212 43.3282V43.7989C28.212 43.8209 28.2209 43.8375 28.2385 43.8485C28.2503 43.8595 28.2621 43.854 28.2739 43.832C28.6394 43.342 29.1257 43.097 29.7329 43.097ZM35.383 43.1713C35.4301 43.1713 35.4684 43.1851 35.4979 43.2126C35.5274 43.2401 35.5421 43.2759 35.5421 43.32V44.4926C35.5421 44.5366 35.5274 44.5724 35.4979 44.5999C35.4684 44.6275 35.4301 44.6412 35.383 44.6412H34.1009C34.0537 44.6412 34.0301 44.6605 34.0301 44.699V49.3978C34.0301 49.4418 34.0154 49.4776 33.9859 49.5051C33.9564 49.5326 33.9181 49.5464 33.871 49.5464H32.3236C32.2764 49.5464 32.2381 49.5326 32.2086 49.5051C32.1792 49.4776 32.1644 49.4418 32.1644 49.3978V44.699C32.1644 44.6605 32.1409 44.6412 32.0937 44.6412H31.3156C31.2684 44.6412 31.2301 44.6275 31.2006 44.5999C31.1712 44.5724 31.1564 44.5366 31.1564 44.4926V43.32C31.1564 43.2759 31.1712 43.2401 31.2006 43.2126C31.2301 43.1851 31.2684 43.1713 31.3156 43.1713H32.0937C32.1409 43.1713 32.1644 43.1493 32.1644 43.1053V42.8327C32.1644 42.3208 32.247 41.9216 32.412 41.6354C32.583 41.3546 32.8541 41.1536 33.2255 41.0325C33.6027 40.9114 34.1244 40.8591 34.7905 40.8756H35.2945C35.3358 40.8756 35.3712 40.8894 35.4006 40.9169C35.436 40.9499 35.4537 40.9857 35.4537 41.0243V42.0235C35.4537 42.0675 35.436 42.1033 35.4006 42.1308C35.3712 42.1639 35.3358 42.1804 35.2945 42.1804H34.8524C34.5459 42.1859 34.3307 42.2437 34.207 42.3538C34.0891 42.4694 34.0301 42.6758 34.0301 42.9731V43.1053C34.0301 43.1493 34.0537 43.1713 34.1009 43.1713H35.383ZM39.2293 49.6455C38.4865 49.6455 37.8499 49.4638 37.3194 49.1005C36.7888 48.7371 36.4263 48.2417 36.2318 47.6141C36.108 47.2287 36.0461 46.8075 36.0461 46.3506C36.0461 45.8661 36.108 45.4285 36.2318 45.0376C36.4381 44.4265 36.8065 43.9476 37.3371 43.6007C37.8676 43.2539 38.5042 43.0805 39.2469 43.0805C39.9661 43.0805 40.5851 43.2511 41.1038 43.5925C41.6107 43.9393 41.9703 44.4183 42.1825 45.0293C42.3299 45.4422 42.4036 45.8744 42.4036 46.3258C42.4036 46.7718 42.3417 47.1902 42.2179 47.581C42.0234 48.2251 41.6608 48.7289 41.1303 49.0922C40.6057 49.4611 39.972 49.6455 39.2293 49.6455ZM39.2293 48.1508C39.5181 48.1508 39.7657 48.0682 39.972 47.9031C40.1783 47.7379 40.3257 47.5095 40.4141 47.2177C40.4789 46.9534 40.5114 46.6644 40.5114 46.3506C40.5114 46.0038 40.4789 45.712 40.4141 45.4753C40.3139 45.1945 40.1636 44.9743 39.9632 44.8146C39.7568 44.6605 39.5063 44.5834 39.2116 44.5834C38.9168 44.5834 38.6693 44.6605 38.4688 44.8146C38.2684 44.9743 38.124 45.1945 38.0356 45.4753C37.9648 45.668 37.9295 45.9597 37.9295 46.3506C37.9295 46.725 37.9619 47.014 38.0267 47.2177C38.1152 47.5095 38.2625 47.7379 38.4688 47.9031C38.6752 48.0682 38.9286 48.1508 39.2293 48.1508ZM47.0015 43.097C47.3198 43.097 47.5732 43.1548 47.7619 43.2704C47.8326 43.3034 47.8562 43.364 47.8326 43.4521L47.5585 44.8642C47.5526 44.9633 47.4907 44.9936 47.3728 44.955C47.2373 44.911 47.084 44.889 46.913 44.889C46.8423 44.889 46.745 44.8972 46.6213 44.9137C46.3029 44.9413 46.0318 45.0514 45.8078 45.2441C45.5897 45.4367 45.4806 45.6955 45.4806 46.0203V49.3978C45.4806 49.4418 45.4629 49.4776 45.4276 49.5051C45.3981 49.5326 45.3598 49.5464 45.3126 49.5464H43.7653C43.724 49.5464 43.6857 49.5326 43.6503 49.5051C43.6208 49.4776 43.6061 49.4418 43.6061 49.3978V43.3282C43.6061 43.2897 43.6208 43.2539 43.6503 43.2209C43.6857 43.1933 43.724 43.1796 43.7653 43.1796H45.3126C45.3598 43.1796 45.3981 43.1933 45.4276 43.2209C45.4629 43.2539 45.4806 43.2897 45.4806 43.3282V43.7989C45.4806 43.8209 45.4865 43.8375 45.4983 43.8485C45.5219 43.8595 45.5366 43.854 45.5425 43.832C45.908 43.342 46.3943 43.097 47.0015 43.097ZM56.2414 43.0805C56.9311 43.0805 57.4705 43.2732 57.8596 43.6585C58.2486 44.0494 58.4431 44.5972 58.4431 45.3019V49.3978C58.4431 49.4418 58.4284 49.4776 58.3989 49.5051C58.3694 49.5326 58.3341 49.5464 58.2928 49.5464H56.7366C56.6953 49.5464 56.657 49.5326 56.6217 49.5051C56.5922 49.4776 56.5774 49.4418 56.5774 49.3978V45.6817C56.5774 45.3459 56.4861 45.0789 56.3033 44.8807C56.1147 44.6825 55.8642 44.5834 55.5518 44.5834C55.2452 44.5834 54.9947 44.6825 54.8002 44.8807C54.6057 45.0789 54.5084 45.3431 54.5084 45.6735V49.3978C54.5084 49.4418 54.4937 49.4776 54.4642 49.5051C54.4288 49.5326 54.3905 49.5464 54.3492 49.5464H52.8107C52.7636 49.5464 52.7252 49.5326 52.6958 49.5051C52.6663 49.4776 52.6516 49.4418 52.6516 49.3978V45.6817C52.6516 45.3514 52.5543 45.0844 52.3598 44.8807C52.1652 44.6825 51.9118 44.5834 51.5993 44.5834C51.3223 44.5834 51.0865 44.6605 50.892 44.8146C50.7034 44.9743 50.5914 45.1945 50.556 45.4753V49.3978C50.556 49.4418 50.5412 49.4776 50.5118 49.5051C50.4764 49.5326 50.4381 49.5464 50.3968 49.5464H48.8495C48.8023 49.5464 48.764 49.5326 48.7345 49.5051C48.705 49.4776 48.6903 49.4418 48.6903 49.3978V43.3282C48.6903 43.2897 48.705 43.2539 48.7345 43.2209C48.764 43.1933 48.8023 43.1796 48.8495 43.1796H50.3968C50.4381 43.1796 50.4764 43.1933 50.5118 43.2209C50.5412 43.2539 50.556 43.2897 50.556 43.3282V43.8154C50.556 43.8375 50.5648 43.854 50.5825 43.865C50.6002 43.8705 50.6179 43.8595 50.6356 43.832C51.001 43.331 51.564 43.0805 52.3244 43.0805C52.7665 43.0805 53.1526 43.1686 53.4827 43.3447C53.8128 43.5154 54.0663 43.7631 54.2431 44.0879C54.2667 44.1375 54.2991 44.1375 54.3404 44.0879C54.529 43.7466 54.7913 43.4934 55.1273 43.3282C55.4574 43.1631 55.8288 43.0805 56.2414 43.0805ZM65.7555 45.7065C65.8086 46.0203 65.8263 46.3699 65.8086 46.7552C65.7968 46.8598 65.7379 46.9121 65.6317 46.9121H61.5379C61.4848 46.9121 61.4671 46.9314 61.4848 46.9699C61.5084 47.1351 61.5555 47.3003 61.6263 47.4654C61.8562 47.9279 62.3248 48.1591 63.0322 48.1591C63.5981 48.1536 64.0461 47.9389 64.3762 47.515C64.4115 47.4654 64.4499 47.4406 64.4911 47.4406C64.5206 47.4406 64.553 47.4572 64.5884 47.4902L65.5433 48.3655C65.5846 48.4096 65.6052 48.4481 65.6052 48.4811C65.6052 48.4977 65.5875 48.5307 65.5522 48.5802C65.2633 48.9216 64.889 49.1831 64.4292 49.3647C63.9694 49.5519 63.4654 49.6455 62.9172 49.6455C62.1568 49.6455 61.5143 49.4859 60.9897 49.1665C60.4591 48.8417 60.0789 48.3903 59.849 47.8123C59.6663 47.3994 59.5749 46.8598 59.5749 46.1937C59.5749 45.7368 59.6398 45.3349 59.7694 44.9881C59.9758 44.4045 60.3324 43.9393 60.8393 43.5925C61.3463 43.2456 61.9505 43.0722 62.652 43.0722C63.5362 43.0722 64.2465 43.3117 64.7829 43.7907C65.3193 44.2696 65.6435 44.9082 65.7555 45.7065ZM62.6608 44.5834C62.1067 44.5834 61.7412 44.8256 61.5644 45.3101C61.529 45.4202 61.4966 45.5523 61.4671 45.7065C61.4671 45.745 61.4907 45.7643 61.5379 45.7643H63.828C63.881 45.7643 63.8987 45.745 63.881 45.7065C63.8397 45.4698 63.8191 45.3542 63.8191 45.3597C63.7366 45.1119 63.5981 44.9192 63.4035 44.7816C63.2031 44.6495 62.9555 44.5834 62.6608 44.5834ZM70.3534 43.097C70.6717 43.097 70.9252 43.1548 71.1138 43.2704C71.1846 43.3034 71.2111 43.364 71.1934 43.4521L70.9193 44.8642C70.9075 44.9633 70.8427 44.9936 70.7248 44.955C70.5951 44.911 70.4418 44.889 70.265 44.889C70.1943 44.889 70.097 44.8972 69.9732 44.9137C69.6549 44.9413 69.3837 45.0514 69.1597 45.2441C68.9416 45.4367 68.8326 45.6955 68.8326 46.0203V49.3978C68.8326 49.4418 68.8178 49.4776 68.7884 49.5051C68.753 49.5326 68.7147 49.5464 68.6734 49.5464H67.1172C67.076 49.5464 67.0406 49.5326 67.0111 49.5051C66.9757 49.4776 66.9581 49.4418 66.9581 49.3978V43.3282C66.9581 43.2897 66.9757 43.2539 67.0111 43.2209C67.0406 43.1933 67.076 43.1796 67.1172 43.1796H68.6734C68.7147 43.1796 68.753 43.1933 68.7884 43.2209C68.8178 43.2539 68.8326 43.2897 68.8326 43.3282V43.7989C68.8326 43.8209 68.8414 43.8375 68.8591 43.8485C68.8768 43.8595 68.8915 43.854 68.9033 43.832C69.2629 43.342 69.7463 43.097 70.3534 43.097ZM33.871 28.6374C33.871 28.5989 33.8857 28.5631 33.9152 28.5301C33.9446 28.5026 33.98 28.4888 34.0213 28.4888H35.5775C35.6187 28.4888 35.6571 28.5026 35.6924 28.5301C35.7219 28.5631 35.7366 28.5989 35.7366 28.6374V37.0109C35.7366 37.055 35.7219 37.0908 35.6924 37.1183C35.6571 37.1458 35.6187 37.1596 35.5775 37.1596H34.0213C33.98 37.1596 33.9446 37.1458 33.9152 37.1183C33.8857 37.0908 33.871 37.055 33.871 37.0109V33.5922C33.871 33.5536 33.8474 33.5344 33.8002 33.5344H30.8646C30.8234 33.5344 30.8028 33.5536 30.8028 33.5922V37.0109C30.8028 37.055 30.788 37.0908 30.7585 37.1183C30.7232 37.1458 30.6849 37.1596 30.6436 37.1596H29.0874C29.0461 37.1596 29.0108 37.1458 28.9813 37.1183C28.9459 37.0908 28.9282 37.055 28.9282 37.0109V28.6374C28.9282 28.5989 28.9459 28.5631 28.9813 28.5301C29.0108 28.5026 29.0461 28.4888 29.0874 28.4888H30.6436C30.6849 28.4888 30.7232 28.5026 30.7585 28.5301C30.788 28.5631 30.8028 28.5989 30.8028 28.6374V31.9654C30.8028 32.0094 30.8234 32.0314 30.8646 32.0314H33.8002C33.8474 32.0314 33.871 32.0094 33.871 31.9654V28.6374ZM38.1505 30.0743C37.8499 30.0743 37.5994 29.9807 37.399 29.7935C37.1985 29.6119 37.0983 29.3806 37.0983 29.0999C37.0983 28.8081 37.1956 28.5714 37.3901 28.3897C37.5846 28.208 37.8381 28.1172 38.1505 28.1172C38.463 28.1172 38.7164 28.208 38.9109 28.3897C39.1055 28.5714 39.2027 28.8081 39.2027 29.0999C39.2027 29.3806 39.1025 29.6119 38.9021 29.7935C38.7017 29.9807 38.4512 30.0743 38.1505 30.0743ZM37.3547 37.1596C37.3135 37.1596 37.2752 37.1458 37.2398 37.1183C37.2103 37.0908 37.1956 37.055 37.1956 37.0109V30.9331C37.1956 30.8891 37.2103 30.8533 37.2398 30.8258C37.2752 30.7983 37.3135 30.7845 37.3547 30.7845H38.9109C38.9522 30.7845 38.9876 30.7983 39.0171 30.8258C39.0524 30.8533 39.0701 30.8891 39.0701 30.9331V37.0109C39.0701 37.055 39.0524 37.0908 39.0171 37.1183C38.9876 37.1458 38.9522 37.1596 38.9109 37.1596H37.3547ZM44.6848 30.9414C44.6848 30.9029 44.7025 30.8671 44.7379 30.834C44.7674 30.8065 44.8027 30.7927 44.844 30.7927H46.4002C46.4415 30.7927 46.4798 30.8065 46.5151 30.834C46.5446 30.8671 46.5594 30.9029 46.5594 30.9414V36.5898C46.5594 37.6688 46.2263 38.4396 45.5602 38.902C44.8941 39.3699 44.0335 39.6039 42.9783 39.6039C42.6659 39.6039 42.321 39.5819 41.9438 39.5378C41.8554 39.5268 41.8112 39.4745 41.8112 39.3809L41.8642 38.101C41.8642 37.9909 41.9261 37.9441 42.0499 37.9606C42.3682 38.0101 42.66 38.0349 42.9253 38.0349C43.4912 38.0349 43.9274 37.9221 44.2339 37.6963C44.5345 37.4596 44.6848 37.088 44.6848 36.5815C44.6848 36.554 44.676 36.5375 44.6583 36.532C44.6406 36.5265 44.6229 36.5347 44.6053 36.5568C44.2693 36.8926 43.78 37.0605 43.1375 37.0605C42.5598 37.0605 42.0322 36.9311 41.5547 36.6724C41.0714 36.4136 40.7265 35.9952 40.5202 35.4172C40.3905 35.0373 40.3257 34.5446 40.3257 33.939C40.3257 33.2949 40.4053 32.7719 40.5644 32.37C40.7472 31.8635 41.0596 31.4589 41.5017 31.1561C41.9438 30.8478 42.4596 30.6936 43.049 30.6936C43.7269 30.6936 44.2457 30.8836 44.6053 31.2634C44.6229 31.28 44.6406 31.2855 44.6583 31.28C44.676 31.2745 44.6848 31.2607 44.6848 31.2387V30.9414ZM44.5787 34.9382C44.6495 34.696 44.6848 34.3574 44.6848 33.9225C44.6848 33.6692 44.676 33.4738 44.6583 33.3362C44.6406 33.193 44.6111 33.0582 44.5699 32.9315C44.4874 32.7113 44.3547 32.5324 44.172 32.3948C43.9893 32.2626 43.7594 32.1966 43.4823 32.1966C43.217 32.1966 42.993 32.2626 42.8103 32.3948C42.6217 32.5324 42.4832 32.7113 42.3947 32.9315C42.2709 33.1793 42.209 33.5151 42.209 33.939C42.209 34.4014 42.2621 34.7318 42.3682 34.9299C42.4448 35.1557 42.5834 35.3346 42.7838 35.4667C42.9842 35.6043 43.22 35.6732 43.4911 35.6732C43.7741 35.6732 44.0099 35.6043 44.1985 35.4667C44.3813 35.3346 44.508 35.1584 44.5787 34.9382ZM51.4579 30.6936C52.1652 30.6936 52.7341 30.8973 53.1644 31.3047C53.5947 31.7066 53.8099 32.2544 53.8099 32.9481V37.0109C53.8099 37.055 53.7951 37.0908 53.7657 37.1183C53.7362 37.1458 53.7008 37.1596 53.6596 37.1596H52.1033C52.0621 37.1596 52.0238 37.1458 51.9884 37.1183C51.9589 37.0908 51.9442 37.055 51.9442 37.0109V33.3031C51.9442 32.9783 51.844 32.7113 51.6436 32.5021C51.449 32.2984 51.1867 32.1966 50.8566 32.1966C50.5324 32.1966 50.2701 32.2984 50.0697 32.5021C49.8692 32.7113 49.769 32.9783 49.769 33.3031V37.0109C49.769 37.055 49.7543 37.0908 49.7248 37.1183C49.6954 37.1458 49.657 37.1596 49.6099 37.1596H48.0625C48.0154 37.1596 47.977 37.1458 47.9476 37.1183C47.9181 37.0908 47.9034 37.055 47.9034 37.0109V28.6374C47.9034 28.5989 47.9181 28.5631 47.9476 28.5301C47.977 28.5026 48.0154 28.4888 48.0625 28.4888H49.6099C49.657 28.4888 49.6954 28.5026 49.7248 28.5301C49.7543 28.5631 49.769 28.5989 49.769 28.6374V31.3791C49.769 31.4011 49.7779 31.4176 49.7956 31.4286C49.8132 31.4341 49.825 31.4286 49.8309 31.4121C50.1964 30.9331 50.7387 30.6936 51.4579 30.6936Z" fill="#252530"/>
<path d="M24.1147 56.549C24.1442 56.5049 24.1855 56.4829 24.2385 56.4829H25.052C25.0815 56.4829 25.105 56.4939 25.1227 56.5159C25.1463 56.5325 25.1581 56.5545 25.1581 56.582V62.1643C25.1581 62.1919 25.1463 62.2139 25.1227 62.2304C25.105 62.2524 25.0815 62.2634 25.052 62.2634H24.2385C24.2091 62.2634 24.1825 62.2524 24.1589 62.2304C24.1413 62.2139 24.1324 62.1919 24.1324 62.1643V58.2253C24.1324 58.2088 24.1265 58.1978 24.1147 58.1923C24.0971 58.1868 24.0853 58.1923 24.0794 58.2088L22.9741 59.7943C22.9446 59.8384 22.9034 59.8604 22.8503 59.8604H22.4436C22.3905 59.8604 22.3493 59.8384 22.3198 59.7943L21.2057 58.2171C21.1998 58.2005 21.191 58.195 21.1792 58.2005C21.1615 58.2061 21.1526 58.2171 21.1526 58.2336V62.1643C21.1526 62.1919 21.1408 62.2139 21.1173 62.2304C21.0996 62.2524 21.076 62.2634 21.0465 62.2634H20.2331C20.2036 62.2634 20.18 62.2524 20.1623 62.2304C20.1387 62.2139 20.127 62.1919 20.127 62.1643V56.582C20.127 56.5545 20.1387 56.5325 20.1623 56.5159C20.18 56.4939 20.2036 56.4829 20.2331 56.4829H21.0465C21.0996 56.4829 21.1408 56.5049 21.1703 56.549L22.6116 58.5887C22.6234 58.5997 22.6352 58.6052 22.6469 58.6052C22.6587 58.6052 22.6676 58.5997 22.6735 58.5887L24.1147 56.549ZM26.9354 57.4656C26.7526 57.4656 26.6023 57.4105 26.4844 57.3004C26.3665 57.1903 26.3076 57.0499 26.3076 56.8793C26.3076 56.7086 26.3665 56.5682 26.4844 56.4581C26.6023 56.348 26.7526 56.293 26.9354 56.293C27.1181 56.293 27.2684 56.348 27.3863 56.4581C27.5042 56.5682 27.5632 56.7086 27.5632 56.8793C27.5632 57.0499 27.5042 57.1903 27.3863 57.3004C27.2684 57.4105 27.1181 57.4656 26.9354 57.4656ZM26.5109 62.2634C26.4815 62.2634 26.4579 62.2524 26.4402 62.2304C26.4166 62.2139 26.4048 62.1919 26.4048 62.1643V58.1345C26.4048 58.107 26.4166 58.0849 26.4402 58.0684C26.4579 58.0464 26.4815 58.0354 26.5109 58.0354H27.3244C27.3539 58.0354 27.3804 58.0464 27.404 58.0684C27.4217 58.0849 27.4305 58.107 27.4305 58.1345V62.1643C27.4305 62.1919 27.4217 62.2139 27.404 62.2304C27.3804 62.2524 27.3539 62.2634 27.3244 62.2634H26.5109ZM31.4095 56.582C31.4095 56.5545 31.4212 56.5325 31.4448 56.5159C31.4625 56.4939 31.4861 56.4829 31.5156 56.4829H32.329C32.3585 56.4829 32.385 56.4939 32.4086 56.5159C32.4263 56.5325 32.4351 56.5545 32.4351 56.582V62.1643C32.4351 62.1919 32.4263 62.2139 32.4086 62.2304C32.385 62.2524 32.3585 62.2634 32.329 62.2634H31.5156C31.4861 62.2634 31.4625 62.2524 31.4448 62.2304C31.4212 62.2139 31.4095 62.1919 31.4095 62.1643V61.9166C31.4095 61.9001 31.4036 61.8891 31.3918 61.8836C31.38 61.8781 31.3682 61.8836 31.3564 61.9001C31.097 62.1863 30.7581 62.3295 30.3396 62.3295C29.921 62.3295 29.5674 62.2276 29.2785 62.0239C28.9897 61.8203 28.7804 61.5367 28.6507 61.1734C28.5446 60.8651 28.4916 60.521 28.4916 60.1411C28.4916 59.7503 28.5417 59.4145 28.6419 59.1337C28.7716 58.7703 28.9808 58.4868 29.2697 58.2831C29.5585 58.0794 29.921 57.9776 30.3573 57.9776C30.764 57.9776 31.097 58.1152 31.3564 58.3905C31.3682 58.4015 31.38 58.407 31.3918 58.407C31.4036 58.4015 31.4095 58.3905 31.4095 58.374V56.582ZM31.1973 61.1073C31.3328 60.8816 31.4006 60.5623 31.4006 60.1494C31.4006 59.72 31.3269 59.3924 31.1796 59.1667C31.0204 58.9245 30.7964 58.8034 30.5076 58.8034C30.2069 58.8034 29.9711 58.919 29.8002 59.1502C29.6234 59.3924 29.5349 59.7283 29.5349 60.1577C29.5349 60.543 29.6057 60.8596 29.7471 61.1073C29.9122 61.3716 30.1627 61.5037 30.4987 61.5037C30.7994 61.5037 31.0322 61.3716 31.1973 61.1073ZM33.3901 60.1907C33.3606 60.1907 33.337 60.1824 33.3194 60.1659C33.2958 60.1439 33.284 60.1191 33.284 60.0916V59.464C33.284 59.4365 33.2958 59.4117 33.3194 59.3897C33.337 59.3732 33.3606 59.3649 33.3901 59.3649H36.1753C36.2048 59.3649 36.2284 59.3732 36.2461 59.3897C36.2697 59.4117 36.2815 59.4365 36.2815 59.464V60.0916C36.2815 60.1191 36.2697 60.1439 36.2461 60.1659C36.2284 60.1824 36.2048 60.1907 36.1753 60.1907H33.3901ZM41.2065 56.549C41.236 56.5049 41.2772 56.4829 41.3303 56.4829H42.1438C42.1732 56.4829 42.1998 56.4939 42.2233 56.5159C42.241 56.5325 42.2499 56.5545 42.2499 56.582V62.1643C42.2499 62.1919 42.241 62.2139 42.2233 62.2304C42.1998 62.2524 42.1732 62.2634 42.1438 62.2634H41.3303C41.3008 62.2634 41.2772 62.2524 41.2595 62.2304C41.236 62.2139 41.2242 62.1919 41.2242 62.1643V58.2253C41.2242 58.2088 41.2183 58.1978 41.2065 58.1923C41.1888 58.1868 41.177 58.1923 41.1711 58.2088L40.0659 59.7943C40.0364 59.8384 39.9951 59.8604 39.9421 59.8604H39.5353C39.4823 59.8604 39.441 59.8384 39.4116 59.7943L38.2974 58.2171C38.2916 58.2005 38.2827 58.195 38.2709 58.2005C38.2532 58.2061 38.2444 58.2171 38.2444 58.2336V62.1643C38.2444 62.1919 38.2356 62.2139 38.2179 62.2304C38.1943 62.2524 38.1678 62.2634 38.1383 62.2634H37.3248C37.2953 62.2634 37.2718 62.2524 37.2541 62.2304C37.2305 62.2139 37.2187 62.1919 37.2187 62.1643V56.582C37.2187 56.5545 37.2305 56.5325 37.2541 56.5159C37.2718 56.4939 37.2953 56.4829 37.3248 56.4829H38.1383C38.1913 56.4829 38.2326 56.5049 38.2621 56.549L39.7033 58.5887C39.7151 58.5997 39.7269 58.6052 39.7387 58.6052C39.7505 58.6052 39.7593 58.5997 39.7652 58.5887L41.2065 56.549ZM45.1678 57.9776C45.5391 57.9776 45.8663 58.0381 46.1492 58.1593C46.4322 58.2804 46.6503 58.4455 46.8035 58.6547C46.9568 58.8694 47.0334 59.1117 47.0334 59.3814V62.1643C47.0334 62.1919 47.0246 62.2139 47.0069 62.2304C46.9833 62.2524 46.9568 62.2634 46.9273 62.2634H46.1139C46.0844 62.2634 46.0608 62.2524 46.0431 62.2304C46.0195 62.2139 46.0078 62.1919 46.0078 62.1643V61.9001C46.0078 61.8836 46.0019 61.8725 45.9901 61.867C45.9783 61.867 45.9665 61.8726 45.9547 61.8836C45.6659 62.1808 45.2473 62.3295 44.6991 62.3295C44.257 62.3295 43.8945 62.2249 43.6115 62.0157C43.3227 61.8065 43.1783 61.4954 43.1783 61.0825C43.1783 60.6531 43.3404 60.3173 43.6646 60.0751C43.9829 59.8384 44.4339 59.72 45.0174 59.72H45.9635C45.993 59.72 46.0078 59.7062 46.0078 59.6787V59.4805C46.0078 59.2658 45.94 59.0979 45.8044 58.9768C45.6688 58.8612 45.4654 58.8034 45.1943 58.8034C44.9703 58.8034 44.7905 58.8419 44.6549 58.919C44.5134 58.9905 44.425 59.0924 44.3896 59.2245C44.372 59.2906 44.3307 59.3181 44.2659 59.3071L43.4082 59.208C43.3787 59.2025 43.3551 59.1942 43.3374 59.1832C43.3139 59.1667 43.305 59.1474 43.3109 59.1254C43.3581 58.7896 43.5526 58.5143 43.8945 58.2996C44.2305 58.0849 44.6549 57.9776 45.1678 57.9776ZM44.9555 61.5698C45.2444 61.5698 45.492 61.4982 45.6983 61.3551C45.9046 61.2119 46.0078 61.0302 46.0078 60.81V60.4219C46.0078 60.3944 45.993 60.3806 45.9635 60.3806H45.2208C44.9084 60.3806 44.6638 60.4357 44.4869 60.5458C44.3042 60.6559 44.2128 60.8128 44.2128 61.0165C44.2128 61.1927 44.2835 61.3275 44.425 61.4211C44.5606 61.5202 44.7374 61.5698 44.9555 61.5698ZM50.1635 57.9941C50.3522 57.9941 50.5172 58.0299 50.6587 58.1014C50.7058 58.1235 50.7235 58.1648 50.7117 58.2253L50.5614 58.9685C50.5555 59.0346 50.5143 59.0539 50.4376 59.0263C50.3492 58.9988 50.2461 58.985 50.1282 58.985C50.0515 58.985 49.9926 58.9878 49.9513 58.9933C49.7037 59.0043 49.4974 59.0841 49.3324 59.2328C49.1673 59.3869 49.0848 59.5851 49.0848 59.8273V62.1643C49.0848 62.1919 49.076 62.2139 49.0583 62.2304C49.0347 62.2524 49.0082 62.2634 48.9787 62.2634H48.1652C48.1357 62.2634 48.1122 62.2524 48.0945 62.2304C48.0709 62.2139 48.0591 62.1919 48.0591 62.1643V58.1427C48.0591 58.1152 48.0709 58.0904 48.0945 58.0684C48.1122 58.0519 48.1357 58.0436 48.1652 58.0436H48.9787C49.0082 58.0436 49.0347 58.0519 49.0583 58.0684C49.076 58.0904 49.0848 58.1152 49.0848 58.1427V58.5143C49.0848 58.5364 49.0907 58.5474 49.1025 58.5474C49.1084 58.5529 49.1172 58.5474 49.129 58.5309C49.3766 58.173 49.7214 57.9941 50.1635 57.9941ZM51.4898 62.2634C51.4604 62.2634 51.4368 62.2524 51.4191 62.2304C51.3955 62.2139 51.3837 62.1919 51.3837 62.1643V56.582C51.3837 56.5545 51.3955 56.5325 51.4191 56.5159C51.4368 56.4939 51.4604 56.4829 51.4898 56.4829H52.3033C52.3328 56.4829 52.3564 56.4939 52.3741 56.5159C52.3976 56.5325 52.4094 56.5545 52.4094 56.582V59.5631C52.4094 59.5796 52.4153 59.5906 52.4271 59.5961C52.4389 59.6016 52.4507 59.5961 52.4625 59.5796L53.8949 58.1014C53.9362 58.0629 53.9804 58.0436 54.0275 58.0436H54.9648C55.0237 58.0436 55.0532 58.0629 55.0532 58.1014C55.0532 58.118 55.0444 58.14 55.0267 58.1675L53.9037 59.4227C53.8861 59.4392 53.8831 59.4585 53.8949 59.4805L55.2212 62.1478C55.233 62.1698 55.2389 62.1864 55.2389 62.1974C55.2389 62.2414 55.2065 62.2634 55.1416 62.2634H54.284C54.225 62.2634 54.1837 62.2386 54.1602 62.1891L53.1964 60.0916C53.1905 60.0806 53.1787 60.0723 53.161 60.0668C53.1492 60.0668 53.1404 60.0723 53.1345 60.0833L52.4271 60.8431C52.4153 60.8651 52.4094 60.8844 52.4094 60.9009V62.1643C52.4094 62.1919 52.3976 62.2139 52.3741 62.2304C52.3564 62.2524 52.3328 62.2634 52.3033 62.2634H51.4898ZM59.4919 59.6787C59.5155 59.8163 59.5273 59.9705 59.5273 60.1411L59.5185 60.3971C59.5185 60.4632 59.4831 60.4962 59.4124 60.4962H56.6448C56.6153 60.4962 56.6006 60.51 56.6006 60.5375C56.6183 60.7192 56.6448 60.8431 56.6802 60.9091C56.8216 61.3055 57.1665 61.5064 57.7147 61.512C58.1155 61.512 58.4338 61.3578 58.6696 61.0495C58.6932 61.0165 58.7227 61 58.758 61C58.7816 61 58.8023 61.0082 58.8199 61.0247L59.3682 61.4459C59.4212 61.4844 59.43 61.5285 59.3947 61.578C59.2119 61.8203 58.9673 62.0074 58.6608 62.1396C58.3601 62.2717 58.0242 62.3377 57.6528 62.3377C57.193 62.3377 56.801 62.2414 56.4768 62.0487C56.1585 61.856 55.9256 61.5863 55.7783 61.2394C55.6427 60.9422 55.5749 60.5293 55.5749 60.0008C55.5749 59.6815 55.6103 59.4227 55.681 59.2245C55.7989 58.8392 56.0229 58.5336 56.353 58.3079C56.6772 58.0877 57.0692 57.9776 57.529 57.9776C58.6903 57.9776 59.3446 58.5446 59.4919 59.6787ZM57.529 58.8034C57.3109 58.8034 57.1282 58.8557 56.9808 58.9603C56.8393 59.0594 56.7391 59.1998 56.6802 59.3814C56.6448 59.475 56.6212 59.5961 56.6094 59.7448C56.5976 59.7723 56.6094 59.7861 56.6448 59.7861H58.4397C58.4692 59.7861 58.4839 59.7723 58.4839 59.7448C58.4722 59.6071 58.4545 59.5025 58.4309 59.431C58.3778 59.2328 58.2747 59.0786 58.1214 58.9685C57.9623 58.8584 57.7648 58.8034 57.529 58.8034ZM62.7724 58.7208C62.7724 58.7483 62.7635 58.7703 62.7458 58.7869C62.7223 58.8089 62.6957 58.8199 62.6662 58.8199H61.7644C61.7349 58.8199 61.7201 58.8336 61.7201 58.8612V60.8513C61.7201 61.0605 61.7703 61.2119 61.8705 61.3055C61.9648 61.3991 62.118 61.4459 62.3302 61.4459H62.5955C62.625 61.4459 62.6486 61.4542 62.6662 61.4707C62.6898 61.4927 62.7016 61.5175 62.7016 61.545V62.1643C62.7016 62.2249 62.6663 62.2607 62.5955 62.2717L62.1357 62.2799C61.67 62.2799 61.3223 62.2056 61.0924 62.057C60.8625 61.9083 60.7446 61.6276 60.7387 61.2147V58.8612C60.7387 58.8336 60.7239 58.8199 60.6945 58.8199H60.1905C60.161 58.8199 60.1374 58.8089 60.1197 58.7869C60.0961 58.7703 60.0844 58.7483 60.0844 58.7208V58.1427C60.0844 58.1152 60.0961 58.0904 60.1197 58.0684C60.1374 58.0519 60.161 58.0436 60.1905 58.0436H60.6945C60.7239 58.0436 60.7387 58.0299 60.7387 58.0024V57.0362C60.7387 57.0087 60.7505 56.9839 60.774 56.9619C60.7917 56.9453 60.8153 56.9371 60.8448 56.9371H61.614C61.6435 56.9371 61.6671 56.9453 61.6848 56.9619C61.7084 56.9839 61.7201 57.0087 61.7201 57.0362V58.0024C61.7201 58.0299 61.7349 58.0436 61.7644 58.0436H62.6662C62.6957 58.0436 62.7223 58.0519 62.7458 58.0684C62.7635 58.0904 62.7724 58.1152 62.7724 58.1427V58.7208Z" fill="white"/>
<path d="M29.5267 73.9732C29.0552 73.9732 28.6425 73.9016 28.2889 73.7585C27.9352 73.6209 27.664 73.4199 27.4754 73.1557C27.2809 72.8969 27.1836 72.5941 27.1836 72.2473V72.0656C27.1836 72.0381 27.1954 72.0161 27.219 71.9996C27.2366 71.9775 27.2602 71.9665 27.2897 71.9665H28.2977C28.3272 71.9665 28.3537 71.9775 28.3773 71.9996C28.395 72.0161 28.4038 72.0381 28.4038 72.0656V72.1895C28.4038 72.4097 28.5129 72.5941 28.731 72.7428C28.9491 72.8969 29.2438 72.974 29.6152 72.974C29.9276 72.974 30.1604 72.9134 30.3137 72.7923C30.467 72.6657 30.5436 72.5115 30.5436 72.3299C30.5436 72.1977 30.4964 72.0876 30.4021 71.9996C30.3078 71.906 30.1781 71.8261 30.0131 71.7601C29.8539 71.6885 29.5975 71.5922 29.2438 71.4711C28.8489 71.3444 28.5129 71.2151 28.2358 71.0829C27.9646 70.9508 27.7377 70.7691 27.555 70.5379C27.3663 70.3122 27.272 70.0314 27.272 69.6956C27.272 69.3653 27.3634 69.0763 27.5461 68.8285C27.7289 68.5808 27.9823 68.3909 28.3065 68.2587C28.6307 68.1266 29.0051 68.0605 29.4295 68.0605C29.8775 68.0605 30.2754 68.1349 30.6232 68.2835C30.9769 68.4322 31.2539 68.6414 31.4543 68.9111C31.6489 69.1754 31.7461 69.4837 31.7461 69.836V69.9599C31.7461 69.9874 31.7373 70.0094 31.7196 70.0259C31.696 70.0479 31.6695 70.059 31.64 70.059H30.6232C30.5937 70.059 30.5701 70.0479 30.5524 70.0259C30.5289 70.0094 30.5171 69.9874 30.5171 69.9599V69.8938C30.5171 69.6626 30.4169 69.4644 30.2164 69.2992C30.0101 69.1396 29.7301 69.0598 29.3764 69.0598C29.0994 69.0598 28.8813 69.1148 28.7221 69.2249C28.5689 69.335 28.4922 69.4864 28.4922 69.6791C28.4922 69.8167 28.5394 69.9323 28.6337 70.0259C28.7221 70.1195 28.8577 70.2021 29.0404 70.2737C29.2173 70.3507 29.4943 70.4526 29.8716 70.5792C30.2901 70.7223 30.6173 70.849 30.8531 70.9591C31.0947 71.0692 31.3128 71.2316 31.5074 71.4463C31.696 71.6665 31.7903 71.95 31.7903 72.2968C31.7903 72.8143 31.587 73.2217 31.1802 73.519C30.7735 73.8218 30.2223 73.9732 29.5267 73.9732ZM35.2211 68.1184C35.6101 68.1184 35.952 68.1927 36.2467 68.3413C36.5415 68.49 36.7714 68.6992 36.9364 68.9689C37.0956 69.2442 37.1752 69.558 37.1752 69.9103C37.1752 70.2571 37.0926 70.5627 36.9276 70.8269C36.7566 71.0912 36.5179 71.2976 36.2114 71.4463C35.9107 71.5894 35.5629 71.661 35.168 71.661H33.9124C33.883 71.661 33.8682 71.6748 33.8682 71.7023V73.808C33.8682 73.8356 33.8564 73.8576 33.8328 73.8741C33.8152 73.8961 33.7916 73.9071 33.7621 73.9071H32.7276C32.6981 73.9071 32.6716 73.8961 32.648 73.8741C32.6303 73.8576 32.6215 73.8356 32.6215 73.808V68.2174C32.6215 68.1899 32.6303 68.1651 32.648 68.1431C32.6716 68.1266 32.6981 68.1184 32.7276 68.1184H35.2211ZM35.0354 70.7278C35.3065 70.7278 35.5246 70.6535 35.6897 70.5049C35.8547 70.3617 35.9373 70.1718 35.9373 69.9351C35.9373 69.6929 35.8547 69.4974 35.6897 69.3488C35.5246 69.2001 35.3065 69.1258 35.0354 69.1258H33.9124C33.883 69.1258 33.8682 69.1396 33.8682 69.1671V70.6866C33.8682 70.7141 33.883 70.7278 33.9124 70.7278H35.0354ZM41.3398 73.9071C41.2808 73.9071 41.2396 73.8824 41.216 73.8328L40.1107 71.5454C40.0989 71.5234 40.0813 71.5123 40.0577 71.5123H39.2354C39.2059 71.5123 39.1912 71.5261 39.1912 71.5536V73.808C39.1912 73.8356 39.1794 73.8576 39.1558 73.8741C39.1381 73.8961 39.1145 73.9071 39.085 73.9071H38.0505C38.0211 73.9071 37.9945 73.8961 37.9709 73.8741C37.9533 73.8576 37.9444 73.8356 37.9444 73.808V68.2257C37.9444 68.1982 37.9533 68.1762 37.9709 68.1596C37.9945 68.1376 38.0211 68.1266 38.0505 68.1266H40.5794C40.9566 68.1266 41.2867 68.1982 41.5697 68.3413C41.8585 68.4845 42.0796 68.6881 42.2328 68.9524C42.392 69.2167 42.4716 69.5222 42.4716 69.869C42.4716 70.2434 42.3714 70.5627 42.1709 70.8269C41.9705 71.0967 41.6905 71.2866 41.3309 71.3967C41.3015 71.4077 41.2926 71.427 41.3044 71.4545L42.5069 73.7915C42.5187 73.8135 42.5246 73.8301 42.5246 73.8411C42.5246 73.8851 42.4922 73.9071 42.4274 73.9071H41.3398ZM39.2354 69.1258C39.2059 69.1258 39.1912 69.1396 39.1912 69.1671V70.5792C39.1912 70.6067 39.2059 70.6205 39.2354 70.6205H40.3937C40.6413 70.6205 40.8417 70.5517 40.9949 70.414C41.1541 70.2764 41.2337 70.0975 41.2337 69.8773C41.2337 69.6571 41.1541 69.4754 40.9949 69.3323C40.8417 69.1946 40.6413 69.1258 40.3937 69.1258H39.2354ZM43.4796 73.9071C43.4501 73.9071 43.4265 73.8961 43.4088 73.8741C43.3853 73.8576 43.3735 73.8356 43.3735 73.808V68.2257C43.3735 68.1982 43.3853 68.1762 43.4088 68.1596C43.4265 68.1376 43.4501 68.1266 43.4796 68.1266H44.5141C44.5436 68.1266 44.5701 68.1376 44.5937 68.1596C44.6114 68.1762 44.6202 68.1982 44.6202 68.2257V73.808C44.6202 73.8356 44.6114 73.8576 44.5937 73.8741C44.5701 73.8961 44.5436 73.9071 44.5141 73.9071H43.4796ZM49.2535 68.2257C49.2535 68.1982 49.2652 68.1762 49.2888 68.1596C49.3065 68.1376 49.3301 68.1266 49.3596 68.1266H50.3941C50.4236 68.1266 50.4501 68.1376 50.4737 68.1596C50.4913 68.1762 50.5002 68.1982 50.5002 68.2257V73.808C50.5002 73.8356 50.4913 73.8576 50.4737 73.8741C50.4501 73.8961 50.4236 73.9071 50.3941 73.9071H49.3949C49.336 73.9071 49.2947 73.8851 49.2711 73.8411L46.981 70.3067C46.9692 70.2902 46.9575 70.2847 46.9457 70.2902C46.9339 70.2902 46.928 70.3012 46.928 70.3232L46.9457 73.808C46.9457 73.8356 46.9368 73.8576 46.9191 73.8741C46.8956 73.8961 46.869 73.9071 46.8396 73.9071H45.805C45.7756 73.9071 45.752 73.8961 45.7343 73.8741C45.7107 73.8576 45.6989 73.8356 45.6989 73.808V68.2257C45.6989 68.1982 45.7107 68.1762 45.7343 68.1596C45.752 68.1376 45.7756 68.1266 45.805 68.1266H46.8042C46.8631 68.1266 46.9044 68.1486 46.928 68.1927L49.2092 71.7105C49.221 71.727 49.2328 71.7326 49.2446 71.727C49.2564 71.727 49.2623 71.716 49.2623 71.694L49.2535 68.2257ZM53.7541 73.9732C53.3002 73.9732 52.8993 73.8879 52.5515 73.7172C52.2038 73.5465 51.9356 73.3098 51.7469 73.007C51.5524 72.6987 51.4551 72.3436 51.4551 71.9418V70.092C51.4551 69.6901 51.5524 69.335 51.7469 69.0267C51.9356 68.7184 52.2038 68.4789 52.5515 68.3083C52.8993 68.1431 53.3002 68.0605 53.7541 68.0605C54.2021 68.0605 54.6 68.1431 54.9478 68.3083C55.2897 68.4734 55.5579 68.6992 55.7524 68.9854C55.941 69.2662 56.0353 69.58 56.0353 69.9268V69.9846C56.0353 70.0122 56.0265 70.0342 56.0088 70.0507C55.9852 70.0727 55.9587 70.0837 55.9292 70.0837H54.8947C54.8652 70.0837 54.8417 70.0727 54.824 70.0507C54.8004 70.0342 54.7886 70.0122 54.7886 69.9846V69.9599C54.7886 69.7066 54.6943 69.4947 54.5057 69.324C54.317 69.1478 54.0665 69.0598 53.7541 69.0598C53.4358 69.0598 53.1823 69.1506 52.9937 69.3323C52.7991 69.5194 52.7019 69.7617 52.7019 70.059V71.9748C52.7019 72.2721 52.805 72.5115 53.0113 72.6932C53.2177 72.8804 53.48 72.974 53.7983 72.974C54.1048 72.974 54.3494 72.8969 54.5322 72.7428C54.7149 72.5941 54.8063 72.3849 54.8063 72.1152V71.7436C54.8063 71.716 54.7915 71.7023 54.7621 71.7023H53.7718C53.7423 71.7023 53.7187 71.6913 53.701 71.6692C53.6774 71.6527 53.6657 71.6307 53.6657 71.6032V70.8435C53.6657 70.8159 53.6774 70.7939 53.701 70.7774C53.7187 70.7554 53.7423 70.7444 53.7718 70.7444H55.9292C55.9587 70.7444 55.9852 70.7554 56.0088 70.7774C56.0265 70.7939 56.0353 70.8159 56.0353 70.8435V71.9335C56.0353 72.3519 55.941 72.7152 55.7524 73.0235C55.5638 73.3318 55.2985 73.5686 54.9566 73.7337C54.6088 73.8934 54.208 73.9732 53.7541 73.9732ZM33.5322 80.6208C33.5204 80.6318 33.5175 80.6428 33.5234 80.6538C33.5293 80.6648 33.5411 80.6703 33.5587 80.6703H35.9549C35.9844 80.6703 36.0109 80.6786 36.0345 80.6951C36.0522 80.7171 36.0611 80.7419 36.0611 80.7694V81.5704C36.0611 81.598 36.0522 81.62 36.0345 81.6365C36.0109 81.6585 35.9844 81.6695 35.9549 81.6695H31.976C31.9465 81.6695 31.92 81.6585 31.8964 81.6365C31.8787 81.62 31.8699 81.598 31.8699 81.5704V80.8107C31.8699 80.7612 31.8876 80.7199 31.923 80.6869C32.2118 80.4226 32.5065 80.1363 32.8072 79.828C33.1078 79.5142 33.2964 79.3188 33.3731 79.2417C33.5381 79.0601 33.7061 78.8866 33.8771 78.7215C34.4135 78.1654 34.6817 77.7526 34.6817 77.4828C34.6817 77.2901 34.608 77.1305 34.4606 77.0038C34.3133 76.8827 34.1217 76.8222 33.8859 76.8222C33.6501 76.8222 33.4585 76.8827 33.3112 77.0038C33.1638 77.1305 33.0901 77.2956 33.0901 77.4993V77.7058C33.0901 77.7333 33.0783 77.7581 33.0547 77.7801C33.0371 77.7966 33.0135 77.8049 32.984 77.8049H31.9406C31.9112 77.8049 31.8876 77.7966 31.8699 77.7801C31.8463 77.7581 31.8345 77.7333 31.8345 77.7058V77.3176C31.8522 77.0204 31.9524 76.7561 32.1352 76.5249C32.3179 76.2992 32.5596 76.1257 32.8602 76.0046C33.1667 75.8835 33.5086 75.823 33.8859 75.823C34.3044 75.823 34.6699 75.8945 34.9823 76.0377C35.2888 76.1863 35.5276 76.3845 35.6985 76.6322C35.8636 76.88 35.9461 77.1552 35.9461 77.458C35.9461 77.6892 35.8842 77.926 35.7604 78.1682C35.6366 78.4104 35.4509 78.6719 35.2034 78.9527C35.0206 79.1674 34.8232 79.3794 34.611 79.5886C34.3987 79.7978 34.0834 80.1005 33.6648 80.4969L33.5322 80.6208ZM38.9347 81.7604C38.2863 81.7604 37.7735 81.5897 37.3962 81.2484C37.0189 80.9126 36.8303 80.4529 36.8303 79.8693V77.6892C36.8303 77.1167 37.0189 76.6625 37.3962 76.3267C37.7735 75.9909 38.2863 75.823 38.9347 75.823C39.5832 75.823 40.0989 75.9909 40.4821 76.3267C40.8594 76.6625 41.048 77.1167 41.048 77.6892V79.8693C41.048 80.4529 40.8594 80.9126 40.4821 81.2484C40.0989 81.5897 39.5832 81.7604 38.9347 81.7604ZM38.9347 80.7612C39.2 80.7612 39.4122 80.6841 39.5714 80.53C39.7246 80.3813 39.8013 80.1804 39.8013 79.9271V77.6562C39.8013 77.403 39.7246 77.202 39.5714 77.0534C39.4122 76.8992 39.2 76.8222 38.9347 76.8222C38.6754 76.8222 38.469 76.8992 38.3158 77.0534C38.1566 77.202 38.077 77.403 38.077 77.6562V79.9271C38.077 80.1804 38.1566 80.3813 38.3158 80.53C38.469 80.6841 38.6754 80.7612 38.9347 80.7612ZM43.5238 80.6208C43.512 80.6318 43.509 80.6428 43.5149 80.6538C43.5208 80.6648 43.5326 80.6703 43.5503 80.6703H45.9465C45.976 80.6703 46.0025 80.6786 46.0261 80.6951C46.0438 80.7171 46.0526 80.7419 46.0526 80.7694V81.5704C46.0526 81.598 46.0438 81.62 46.0261 81.6365C46.0025 81.6585 45.976 81.6695 45.9465 81.6695H41.9676C41.9381 81.6695 41.9145 81.6585 41.8968 81.6365C41.8733 81.62 41.8615 81.598 41.8615 81.5704V80.8107C41.8615 80.7612 41.8791 80.7199 41.9145 80.6869C42.2034 80.4226 42.4981 80.1363 42.7987 79.828C43.0994 79.5142 43.288 79.3188 43.3646 79.2417C43.5297 79.0601 43.6977 78.8866 43.8686 78.7215C44.405 78.1654 44.6732 77.7526 44.6732 77.4828C44.6732 77.2901 44.5996 77.1305 44.4522 77.0038C44.3048 76.8827 44.1133 76.8222 43.8775 76.8222C43.6417 76.8222 43.4501 76.8827 43.3027 77.0038C43.1554 77.1305 43.0817 77.2956 43.0817 77.4993V77.7058C43.0817 77.7333 43.0728 77.7581 43.0551 77.7801C43.0316 77.7966 43.005 77.8049 42.9756 77.8049H41.9322C41.9027 77.8049 41.8791 77.7966 41.8615 77.7801C41.8379 77.7581 41.8261 77.7333 41.8261 77.7058V77.3176C41.8438 77.0204 41.944 76.7561 42.1267 76.5249C42.3095 76.2992 42.5541 76.1257 42.8606 76.0046C43.1613 75.8835 43.5002 75.823 43.8775 75.823C44.296 75.823 44.6615 75.8945 44.9739 76.0377C45.2804 76.1863 45.5191 76.3845 45.6901 76.6322C45.8551 76.88 45.9377 77.1552 45.9377 77.458C45.9377 77.6892 45.8758 77.926 45.752 78.1682C45.6282 78.4104 45.4425 78.6719 45.1949 78.9527C45.0122 79.1674 44.8147 79.3794 44.6025 79.5886C44.3903 79.7978 44.0749 80.1005 43.6564 80.4969L43.5238 80.6208ZM51.2429 79.1509C51.2724 79.1509 51.2989 79.1591 51.3225 79.1757C51.3402 79.1977 51.349 79.2225 51.349 79.25V80.084C51.349 80.1116 51.3402 80.1363 51.3225 80.1583C51.2989 80.1749 51.2724 80.1831 51.2429 80.1831H50.8627C50.8332 80.1831 50.8185 80.1969 50.8185 80.2244V81.5704C50.8185 81.598 50.8097 81.62 50.792 81.6365C50.7684 81.6585 50.7419 81.6695 50.7124 81.6695H49.6779C49.6484 81.6695 49.6248 81.6585 49.6071 81.6365C49.5836 81.62 49.5718 81.598 49.5718 81.5704V80.2244C49.5718 80.1969 49.557 80.1831 49.5276 80.1831H46.813C46.7836 80.1831 46.76 80.1749 46.7423 80.1583C46.7187 80.1363 46.7069 80.1116 46.7069 80.084V79.4234C46.7069 79.3904 46.7158 79.3491 46.7335 79.2995L48.325 75.9633C48.3486 75.9138 48.3899 75.889 48.4488 75.889H49.5541C49.5953 75.889 49.6248 75.9 49.6425 75.9221C49.6543 75.9386 49.6513 75.9661 49.6337 76.0046L48.157 79.1013C48.1511 79.1124 48.1511 79.1234 48.157 79.1344C48.1629 79.1454 48.1718 79.1509 48.1836 79.1509H49.5276C49.557 79.1509 49.5718 79.1371 49.5718 79.1096V78.0856C49.5718 78.0581 49.5836 78.0361 49.6071 78.0196C49.6248 77.9975 49.6484 77.9865 49.6779 77.9865H50.7124C50.7419 77.9865 50.7684 77.9975 50.792 78.0196C50.8097 78.0361 50.8185 78.0581 50.8185 78.0856V79.1096C50.8185 79.1371 50.8332 79.1509 50.8627 79.1509H51.2429Z" fill="#252530"/>
</g>
<defs>
<clipPath id="clip0_154_2527">
<rect width="83.1157" height="100.746" fill="white" transform="translate(0.212891)"/>
</clipPath>
</defs>
</svg>
