<svg width="78" height="101" viewBox="0 0 78 101" fill="none" xmlns="http://www.w3.org/2000/svg">
<g clip-path="url(#clip0_154_2535)">
<path d="M7.02191 74.2381L39.6406 90.8364L71.0205 74.2381V9.33105H7.02191V74.2381Z" fill="white"/>
<path d="M71.6758 9.5791L6.3559 75.3945L40.2132 92.158L71.6758 76.0551V9.5791Z" fill="#F2F3F2"/>
<path d="M4.86957 30.9653V75.6405L6.02567 76.2186L38.6443 92.8169L39.6353 93.3124L40.6262 92.8169L72.0888 76.2186L73.2449 75.6405V7.18262H4.86957V30.9653ZM7.01662 74.4018V9.32967H71.0978V74.4018L39.6353 91.0002L7.01662 74.4018Z" fill="#DCDEDC"/>
<path d="M39.0608 10.4032C39.3911 10.4032 39.7214 10.4032 40.0518 10.4858L39.0608 12.3851C37.5744 12.3025 36.2531 13.4586 36.1706 14.945C36.088 16.4315 37.2441 17.7527 38.7305 17.8353H39.0608C39.7214 17.8353 40.3821 17.5876 40.8775 17.1747L41.9511 18.9914C41.1253 19.5694 40.1343 19.8998 39.0608 19.8998C36.4183 19.9823 34.1887 18.0005 34.1061 15.3579C34.0235 12.7154 36.0054 10.4858 38.6479 10.4032H39.0608ZM42.4465 14.4496L43.6852 16.514L42.4465 18.4959L41.2904 16.514H38.8957L40.1343 14.4496H42.4465ZM40.4647 13.7063C40.4647 13.376 40.5472 13.0457 40.7124 12.798C40.8776 12.5502 41.2079 12.3025 41.4556 12.1374L41.6208 12.0548C41.9511 11.8896 42.0337 11.807 42.0337 11.6419C42.0337 11.4767 41.7859 11.3116 41.6208 11.3116C41.2904 11.3116 41.0427 11.4767 40.8775 11.807L40.4647 11.3941C40.5472 11.229 40.7124 11.0638 40.8775 10.8987C41.1253 10.7335 41.373 10.7335 41.6208 10.7335C41.8685 10.7335 42.1988 10.8161 42.364 10.9812C42.5291 11.1464 42.6943 11.3941 42.6943 11.6419C42.6943 12.0548 42.4466 12.3851 41.9511 12.5502L41.7033 12.7154C41.4556 12.8806 41.2904 12.9631 41.2079 13.2109H42.6943V13.7889L40.4647 13.7063ZM39.0608 24.0287L46.9058 19.5695V7.18262H31.1332V19.4869L39.0608 24.0287Z" fill="#FF492C"/>
<path d="M74.8125 53.2627H3.2992L0.656677 59.0432L3.2992 64.8237H74.8125L77.3725 59.0432L74.8125 53.2627Z" fill="#23CCA2"/>
<path d="M20.3296 49.645C19.669 49.645 19.0937 49.5404 18.6037 49.3312C18.1027 49.1165 17.7201 48.8137 17.4558 48.4228C17.1861 48.0319 17.0512 47.5778 17.0512 47.0603V46.7878C17.0512 46.7437 17.065 46.7079 17.0925 46.6804C17.1255 46.6529 17.1613 46.6391 17.1999 46.6391H18.6119C18.6505 46.6391 18.6863 46.6529 18.7193 46.6804C18.7468 46.7079 18.7606 46.7437 18.7606 46.7878V46.9694C18.7606 47.2997 18.9147 47.5778 19.223 47.8035C19.5258 48.0347 19.9387 48.1503 20.4617 48.1503C20.8966 48.1503 21.2214 48.0567 21.4361 47.8695C21.6509 47.6824 21.7582 47.4539 21.7582 47.1841C21.7582 46.9804 21.6921 46.8125 21.56 46.6804C21.4279 46.5428 21.249 46.4217 21.0233 46.3171C20.792 46.218 20.4314 46.0776 19.9415 45.8959C19.3854 45.7032 18.9147 45.5078 18.5294 45.3096C18.1495 45.1114 17.8275 44.8416 17.5632 44.5003C17.3045 44.159 17.1751 43.7351 17.1751 43.2286C17.1751 42.7331 17.3045 42.301 17.5632 41.9321C17.8164 41.5578 18.1688 41.2715 18.6202 41.0733C19.0771 40.8751 19.6029 40.776 20.1975 40.776C20.8251 40.776 21.3838 40.8889 21.8738 41.1146C22.3638 41.3348 22.7491 41.6458 23.0299 42.0477C23.3052 42.4441 23.4428 42.9093 23.4428 43.4433V43.625C23.4428 43.669 23.429 43.7048 23.4015 43.7323C23.3685 43.7599 23.3327 43.7736 23.2942 43.7736H21.8738C21.8298 43.7736 21.794 43.7599 21.7665 43.7323C21.7334 43.7048 21.7169 43.669 21.7169 43.625V43.5259C21.7169 43.1791 21.5765 42.8845 21.2958 42.6423C21.0095 42.4001 20.6186 42.279 20.1231 42.279C19.7323 42.279 19.4295 42.3615 19.2148 42.5267C18.9946 42.6863 18.8845 42.9121 18.8845 43.2038C18.8845 43.413 18.9478 43.5864 19.0744 43.7241C19.2065 43.8672 19.3964 43.9938 19.6442 44.1039C19.8974 44.214 20.2883 44.3654 20.8168 44.5581C21.4059 44.7728 21.8656 44.9628 22.1959 45.1279C22.5317 45.2931 22.8345 45.5381 23.1042 45.8629C23.374 46.1877 23.5089 46.6116 23.5089 47.1346C23.5089 47.9108 23.2226 48.5219 22.6501 48.9678C22.083 49.4193 21.3095 49.645 20.3296 49.645ZM28.3315 43.3277C28.3315 43.2892 28.348 43.2534 28.381 43.2203C28.4086 43.1928 28.4416 43.1791 28.4801 43.1791H29.9335C29.972 43.1791 30.0078 43.1928 30.0409 43.2203C30.0684 43.2534 30.0822 43.2892 30.0822 43.3277V49.3972C30.0822 49.4413 30.0684 49.4771 30.0409 49.5046C30.0078 49.5321 29.972 49.5459 29.9335 49.5459H28.4801C28.4416 49.5459 28.4086 49.5321 28.381 49.5046C28.348 49.4771 28.3315 49.4413 28.3315 49.3972V48.9761C28.3315 48.9541 28.3232 48.9403 28.3067 48.9348C28.2902 48.9293 28.2737 48.9403 28.2572 48.9678C27.9268 49.4083 27.4149 49.6285 26.7212 49.6285C26.0936 49.6285 25.5789 49.4413 25.177 49.0669C24.7696 48.6871 24.5659 48.1531 24.5659 47.4649V43.3277C24.5659 43.2892 24.5824 43.2534 24.6154 43.2203C24.643 43.1928 24.676 43.1791 24.7145 43.1791H26.1514C26.1954 43.1791 26.2312 43.1928 26.2588 43.2203C26.2863 43.2534 26.3 43.2892 26.3 43.3277V47.0355C26.3 47.3658 26.3909 47.6328 26.5726 47.8365C26.7487 48.0457 26.9937 48.1503 27.3075 48.1503C27.5883 48.1503 27.8195 48.065 28.0012 47.8943C28.1828 47.7236 28.2929 47.5034 28.3315 47.2337V43.3277ZM37.0518 44.8884C37.2005 45.3068 37.2748 45.8023 37.2748 46.3749C37.2748 46.9474 37.1977 47.4649 37.0435 47.9273C36.8509 48.4558 36.5508 48.8742 36.1434 49.1825C35.736 49.4908 35.2296 49.645 34.624 49.645C34.0294 49.645 33.567 49.4385 33.2367 49.0256C33.2201 49.0036 33.2036 48.9954 33.1871 49.0009C33.1706 49.0064 33.1623 49.0229 33.1623 49.0504V51.7012C33.1623 51.7452 33.1486 51.781 33.1211 51.8086C33.0935 51.8361 33.0577 51.8498 33.0137 51.8498H31.5686C31.5245 51.8498 31.4887 51.8361 31.4612 51.8086C31.4337 51.781 31.4199 51.7452 31.4199 51.7012V43.3277C31.4199 43.2892 31.4337 43.2534 31.4612 43.2203C31.4887 43.1928 31.5245 43.1791 31.5686 43.1791H33.0137C33.0577 43.1791 33.0935 43.1928 33.1211 43.2203C33.1486 43.2534 33.1623 43.2892 33.1623 43.3277V43.7323C33.1623 43.7599 33.1706 43.7764 33.1871 43.7819C33.2036 43.7874 33.2201 43.7819 33.2367 43.7654C33.5835 43.3084 34.0625 43.08 34.6735 43.08C35.2461 43.08 35.7416 43.2396 36.16 43.5589C36.5728 43.8782 36.8701 44.3214 37.0518 44.8884ZM35.1608 47.6631C35.3644 47.3438 35.4663 46.9061 35.4663 46.3501C35.4663 45.8326 35.381 45.4197 35.2103 45.1114C35.0176 44.7591 34.7121 44.5829 34.2937 44.5829C33.9138 44.5829 33.6275 44.7591 33.4349 45.1114C33.2642 45.4087 33.1789 45.8271 33.1789 46.3666C33.1789 46.9171 33.2697 47.3465 33.4514 47.6548C33.6385 47.9851 33.9193 48.1503 34.2937 48.1503C34.6625 48.1503 34.9516 47.9879 35.1608 47.6631ZM44.0875 44.8884C44.2362 45.3068 44.3105 45.8023 44.3105 46.3749C44.3105 46.9474 44.2334 47.4649 44.0793 47.9273C43.8866 48.4558 43.5865 48.8742 43.1792 49.1825C42.7718 49.4908 42.2653 49.645 41.6597 49.645C41.0651 49.645 40.6027 49.4385 40.2724 49.0256C40.2559 49.0036 40.2394 48.9954 40.2228 49.0009C40.2063 49.0064 40.1981 49.0229 40.1981 49.0504V51.7012C40.1981 51.7452 40.1843 51.781 40.1568 51.8086C40.1292 51.8361 40.0935 51.8498 40.0494 51.8498H38.6043C38.5602 51.8498 38.5245 51.8361 38.4969 51.8086C38.4694 51.781 38.4556 51.7452 38.4556 51.7012V43.3277C38.4556 43.2892 38.4694 43.2534 38.4969 43.2203C38.5245 43.1928 38.5602 43.1791 38.6043 43.1791H40.0494C40.0935 43.1791 40.1292 43.1928 40.1568 43.2203C40.1843 43.2534 40.1981 43.2892 40.1981 43.3277V43.7323C40.1981 43.7599 40.2063 43.7764 40.2228 43.7819C40.2394 43.7874 40.2559 43.7819 40.2724 43.7654C40.6192 43.3084 41.0982 43.08 41.7093 43.08C42.2818 43.08 42.7773 43.2396 43.1957 43.5589C43.6086 43.8782 43.9059 44.3214 44.0875 44.8884ZM42.1965 47.6631C42.4002 47.3438 42.502 46.9061 42.502 46.3501C42.502 45.8326 42.4167 45.4197 42.246 45.1114C42.0533 44.7591 41.7478 44.5829 41.3294 44.5829C40.9495 44.5829 40.6633 44.7591 40.4706 45.1114C40.2999 45.4087 40.2146 45.8271 40.2146 46.3666C40.2146 46.9171 40.3054 47.3465 40.4871 47.6548C40.6743 47.9851 40.955 48.1503 41.3294 48.1503C41.6982 48.1503 41.9873 47.9879 42.1965 47.6631ZM48.2165 49.645C47.5228 49.645 46.9282 49.4633 46.4328 49.1C45.9373 48.7366 45.5987 48.2411 45.417 47.6135C45.3014 47.2282 45.2436 46.807 45.2436 46.3501C45.2436 45.8656 45.3014 45.428 45.417 45.0371C45.6042 44.426 45.9456 43.947 46.441 43.6002C46.9365 43.2534 47.5338 43.08 48.233 43.08C48.9046 43.08 49.4799 43.2506 49.9589 43.592C50.4433 43.9388 50.7847 44.4177 50.9829 45.0288C51.1095 45.4417 51.1728 45.8739 51.1728 46.3253C51.1728 46.7712 51.1177 47.1896 51.0076 47.5805C50.8205 48.2246 50.4819 48.7284 49.9919 49.0917C49.5019 49.4606 48.9101 49.645 48.2165 49.645ZM48.2165 48.1503C48.4862 48.1503 48.7174 48.0677 48.9101 47.9026C49.0973 47.7374 49.2322 47.5089 49.3148 47.2172C49.3808 46.9529 49.4139 46.6639 49.4139 46.3501C49.4139 46.0033 49.3808 45.7115 49.3148 45.4748C49.2267 45.194 49.0863 44.9738 48.8936 44.8141C48.7064 44.66 48.478 44.5829 48.2082 44.5829C47.9219 44.5829 47.688 44.66 47.5063 44.8141C47.3191 44.9738 47.1842 45.194 47.1017 45.4748C47.0356 45.6674 47.0026 45.9592 47.0026 46.3501C47.0026 46.7244 47.0301 47.0135 47.0851 47.2172C47.1677 47.5089 47.3081 47.7374 47.5063 47.9026C47.699 48.0677 47.9357 48.1503 48.2165 48.1503ZM55.4751 43.0965C55.7724 43.0965 56.0092 43.1543 56.1853 43.2699C56.2514 43.3029 56.2762 43.3635 56.2597 43.4516L55.9954 44.8637C55.9899 44.9628 55.9321 44.993 55.822 44.9545C55.7009 44.9105 55.5577 44.8884 55.3926 44.8884C55.321 44.8884 55.2302 44.8967 55.1201 44.9132C54.8228 44.9407 54.5695 45.0508 54.3603 45.2435C54.1566 45.4362 54.0548 45.695 54.0548 46.0198V49.3972C54.0548 49.4413 54.0383 49.4771 54.0052 49.5046C53.9777 49.5321 53.9447 49.5459 53.9062 49.5459H52.4528C52.4142 49.5459 52.3784 49.5321 52.3454 49.5046C52.3179 49.4771 52.3041 49.4413 52.3041 49.3972V43.3277C52.3041 43.2892 52.3179 43.2534 52.3454 43.2203C52.3784 43.1928 52.4142 43.1791 52.4528 43.1791H53.9062C53.9447 43.1791 53.9777 43.1928 54.0052 43.2203C54.0383 43.2534 54.0548 43.2892 54.0548 43.3277V43.7984C54.0548 43.8204 54.063 43.8369 54.0796 43.8479C54.0961 43.859 54.1071 43.8535 54.1126 43.8314C54.4539 43.3415 54.9081 43.0965 55.4751 43.0965ZM60.7767 44.4343C60.7767 44.4728 60.763 44.5058 60.7354 44.5334C60.7079 44.5664 60.6721 44.5829 60.6281 44.5829H59.4389C59.4004 44.5829 59.3811 44.6022 59.3811 44.6407V47.2667C59.3811 47.5365 59.4362 47.7402 59.5463 47.8778C59.6564 48.0099 59.8353 48.076 60.083 48.076H60.4959C60.5345 48.076 60.5675 48.0898 60.595 48.1173C60.6281 48.1448 60.6446 48.1806 60.6446 48.2246V49.3972C60.6446 49.4908 60.595 49.5431 60.4959 49.5541C60.1491 49.5707 59.9014 49.5789 59.7527 49.5789C59.0646 49.5789 58.5526 49.4661 58.2168 49.2403C57.8754 49.0146 57.702 48.588 57.6965 47.9604V44.6407C57.6965 44.6022 57.6745 44.5829 57.6305 44.5829H56.9285C56.8845 44.5829 56.8487 44.5664 56.8212 44.5334C56.7937 44.5058 56.7799 44.4728 56.7799 44.4343V43.3277C56.7799 43.2892 56.7937 43.2534 56.8212 43.2203C56.8487 43.1928 56.8845 43.1791 56.9285 43.1791H57.6305C57.6745 43.1791 57.6965 43.157 57.6965 43.113V41.6431C57.6965 41.6046 57.7103 41.5688 57.7378 41.5357C57.7653 41.5082 57.8011 41.4945 57.8452 41.4945H59.2325C59.271 41.4945 59.3041 41.5082 59.3316 41.5357C59.3646 41.5688 59.3811 41.6046 59.3811 41.6431V43.113C59.3811 43.157 59.4004 43.1791 59.4389 43.1791H60.6281C60.6721 43.1791 60.7079 43.1928 60.7354 43.2203C60.763 43.2534 60.7767 43.2892 60.7767 43.3277V44.4343ZM31.8493 32.642C31.7998 32.664 31.7998 32.6888 31.8493 32.7163C32.6311 33.1182 33.022 33.7898 33.022 34.7312C33.022 35.535 32.7494 36.1406 32.2044 36.548C31.6594 36.9554 30.9465 37.1591 30.0656 37.1591H26.8533C26.8148 37.1591 26.7818 37.1453 26.7542 37.1178C26.7212 37.0902 26.7047 37.0545 26.7047 37.0104V28.6369C26.7047 28.5984 26.7212 28.5626 26.7542 28.5296C26.7818 28.502 26.8148 28.4883 26.8533 28.4883H29.9665C31.9209 28.4883 32.8981 29.281 32.8981 30.8666C32.8981 31.6923 32.5485 32.2842 31.8493 32.642ZM28.5132 29.983C28.4746 29.983 28.4553 30.005 28.4553 30.049V31.9814C28.4553 32.0254 28.4746 32.0474 28.5132 32.0474H29.9665C30.3519 32.0474 30.6547 31.9566 30.8749 31.7749C31.0841 31.5932 31.1887 31.3455 31.1887 31.0317C31.1887 30.7069 31.0841 30.4509 30.8749 30.2637C30.6547 30.0765 30.3519 29.983 29.9665 29.983H28.5132ZM30.0656 35.6479C30.4455 35.6479 30.7428 35.5515 30.9575 35.3588C31.1722 35.1662 31.2795 34.8992 31.2795 34.5578C31.2795 34.222 31.1722 33.955 30.9575 33.7568C30.7428 33.5641 30.44 33.4678 30.0491 33.4678H28.5132C28.4746 33.4678 28.4553 33.4898 28.4553 33.5338V35.5818C28.4553 35.6258 28.4746 35.6479 28.5132 35.6479H30.0656ZM39.909 33.3191C39.9586 33.6329 39.9751 33.9825 39.9586 34.3679C39.9531 34.4725 39.9008 34.5248 39.8017 34.5248H35.97C35.9205 34.5248 35.904 34.5441 35.9205 34.5826C35.948 34.7478 35.9948 34.9129 36.0609 35.0781C36.2756 35.5405 36.7132 35.7717 37.3739 35.7717C37.9024 35.7662 38.318 35.5515 38.6208 35.1276C38.6538 35.0781 38.6924 35.0533 38.7364 35.0533C38.7584 35.0533 38.786 35.0698 38.819 35.1028L39.7108 35.9782C39.7549 36.0222 39.7769 36.0608 39.7769 36.0938C39.7769 36.1103 39.7604 36.1433 39.7274 36.1929C39.4521 36.5342 39.0998 36.7957 38.6704 36.9774C38.2464 37.1646 37.7757 37.2582 37.2583 37.2582C36.5481 37.2582 35.948 37.0985 35.458 36.7792C34.9681 36.4544 34.6157 36.003 34.401 35.4249C34.2249 35.012 34.1368 34.4725 34.1368 33.8064C34.1368 33.3494 34.2001 32.9475 34.3267 32.6007C34.5139 32.0172 34.847 31.552 35.3259 31.2051C35.7994 30.8583 36.3609 30.6849 37.0105 30.6849C37.8363 30.6849 38.4997 30.9244 39.0007 31.4033C39.5016 31.8823 39.8044 32.5209 39.909 33.3191ZM37.027 32.1961C36.504 32.1961 36.16 32.4383 35.9948 32.9228C35.9618 33.0329 35.9342 33.165 35.9122 33.3191C35.9122 33.3577 35.9315 33.3769 35.97 33.3769H38.1171C38.1666 33.3769 38.1831 33.3577 38.1666 33.3191C38.1226 33.0824 38.1006 32.9668 38.1006 32.9723C38.029 32.7246 37.8996 32.5319 37.7124 32.3943C37.5253 32.2621 37.2968 32.1961 37.027 32.1961ZM43.493 37.2416C42.9369 37.2416 42.4525 37.1646 42.0396 37.0104C41.6267 36.8563 41.3074 36.6388 41.0817 36.358C40.8559 36.0773 40.7431 35.758 40.7431 35.4001V35.2763C40.7431 35.2377 40.7568 35.2019 40.7844 35.1689C40.8119 35.1414 40.8477 35.1276 40.8917 35.1276H42.2625C42.3066 35.1276 42.3424 35.1414 42.3699 35.1689C42.3974 35.2019 42.4112 35.2377 42.4112 35.2763V35.2845C42.4112 35.4717 42.513 35.6286 42.7167 35.7552C42.9204 35.8818 43.1737 35.9452 43.4764 35.9452C43.7572 35.9452 43.9857 35.8901 44.1618 35.78C44.3325 35.6644 44.4178 35.5268 44.4178 35.3671C44.4178 35.2185 44.3435 35.1056 44.1949 35.0285C44.0462 34.957 43.804 34.8799 43.4682 34.7973C43.0773 34.6982 42.7718 34.6019 42.5516 34.5083C42.0231 34.3266 41.6019 34.1036 41.2881 33.8394C40.9743 33.5751 40.8174 33.1953 40.8174 32.6998C40.8174 32.0887 41.0541 31.6043 41.5276 31.2464C42.001 30.8886 42.6314 30.7097 43.4186 30.7097C43.9471 30.7097 44.4096 30.7922 44.806 30.9574C45.2023 31.1281 45.5106 31.3675 45.7308 31.6758C45.9455 31.9786 46.0529 32.3254 46.0529 32.7163C46.0529 32.7549 46.0391 32.7879 46.0116 32.8154C45.9841 32.8429 45.9483 32.8567 45.9043 32.8567H44.583C44.539 32.8567 44.5032 32.8429 44.4756 32.8154C44.4481 32.7879 44.4344 32.7549 44.4344 32.7163C44.4344 32.5346 44.3408 32.3805 44.1536 32.2539C43.9664 32.1273 43.7214 32.0639 43.4186 32.0639C43.1434 32.0639 42.9204 32.1162 42.7497 32.2208C42.5736 32.3199 42.4855 32.4548 42.4855 32.6255C42.4855 32.7906 42.5708 32.9145 42.7415 32.9971C42.9122 33.0797 43.1957 33.1677 43.5921 33.2613C43.6801 33.2834 43.782 33.3081 43.8976 33.3357C44.0132 33.3632 44.1371 33.399 44.2692 33.443C44.8583 33.6192 45.3207 33.8421 45.6565 34.1119C45.9979 34.3872 46.1685 34.7835 46.1685 35.301C46.1685 35.9121 45.9263 36.3883 45.4418 36.7297C44.9574 37.071 44.3077 37.2416 43.493 37.2416ZM50.8094 32.0474C50.8094 32.086 50.7957 32.119 50.7682 32.1465C50.7406 32.1796 50.7048 32.1961 50.6608 32.1961H49.4717C49.4331 32.1961 49.4139 32.2153 49.4139 32.2539V34.8799C49.4139 35.1496 49.4689 35.3533 49.579 35.491C49.6891 35.6231 49.8708 35.6892 50.124 35.6892H50.5287C50.5672 35.6892 50.603 35.7029 50.636 35.7304C50.6636 35.758 50.6773 35.7938 50.6773 35.8378V37.0104C50.6773 37.104 50.6278 37.1563 50.5287 37.1673C50.1818 37.1838 49.9341 37.1921 49.7855 37.1921C49.0973 37.1921 48.5853 37.0792 48.2495 36.8535C47.9082 36.6278 47.7348 36.2011 47.7293 35.5735V32.2539C47.7293 32.2153 47.7072 32.1961 47.6632 32.1961H46.9613C46.9172 32.1961 46.8814 32.1796 46.8539 32.1465C46.8264 32.119 46.8126 32.086 46.8126 32.0474V30.9409C46.8126 30.9023 46.8264 30.8666 46.8539 30.8335C46.8814 30.806 46.9172 30.7922 46.9613 30.7922H47.6632C47.7072 30.7922 47.7293 30.7702 47.7293 30.7262V29.2563C47.7293 29.2177 47.743 29.1819 47.7705 29.1489C47.7981 29.1214 47.8339 29.1076 47.8779 29.1076H49.2652C49.3038 29.1076 49.3395 29.1214 49.3726 29.1489C49.4001 29.1819 49.4139 29.2177 49.4139 29.2563V30.7262C49.4139 30.7702 49.4331 30.7922 49.4717 30.7922H50.6608C50.7048 30.7922 50.7406 30.806 50.7682 30.8335C50.7957 30.8666 50.8094 30.9023 50.8094 30.9409V32.0474Z" fill="#252530"/>
<path d="M22.6487 56.549C22.6762 56.5049 22.7147 56.4829 22.7643 56.4829H23.524C23.5515 56.4829 23.5735 56.4939 23.5901 56.5159C23.6121 56.5325 23.6231 56.5545 23.6231 56.582V62.1643C23.6231 62.1919 23.6121 62.2139 23.5901 62.2304C23.5735 62.2524 23.5515 62.2634 23.524 62.2634H22.7643C22.7367 62.2634 22.712 62.2524 22.6899 62.2304C22.6734 62.2139 22.6652 62.1919 22.6652 62.1643V58.2253C22.6652 58.2088 22.6597 58.1978 22.6487 58.1923C22.6321 58.1868 22.6211 58.1923 22.6156 58.2088L21.5834 59.7943C21.5559 59.8384 21.5173 59.8604 21.4678 59.8604H21.0879C21.0384 59.8604 20.9998 59.8384 20.9723 59.7943L19.9318 58.2171C19.9263 58.2005 19.918 58.195 19.907 58.2005C19.8905 58.2061 19.8823 58.2171 19.8823 58.2336V62.1643C19.8823 62.1919 19.8713 62.2139 19.8492 62.2304C19.8327 62.2524 19.8107 62.2634 19.7832 62.2634H19.0234C18.9959 62.2634 18.9739 62.2524 18.9574 62.2304C18.9354 62.2139 18.9243 62.1919 18.9243 62.1643V56.582C18.9243 56.5545 18.9354 56.5325 18.9574 56.5159C18.9739 56.4939 18.9959 56.4829 19.0234 56.4829H19.7832C19.8327 56.4829 19.8713 56.5049 19.8988 56.549L21.2448 58.5887C21.2558 58.5997 21.2668 58.6052 21.2778 58.6052C21.2889 58.6052 21.2971 58.5997 21.3026 58.5887L22.6487 56.549ZM25.2829 57.4656C25.1123 57.4656 24.9719 57.4105 24.8618 57.3004C24.7517 57.1903 24.6966 57.0499 24.6966 56.8793C24.6966 56.7086 24.7517 56.5682 24.8618 56.4581C24.9719 56.348 25.1123 56.293 25.2829 56.293C25.4536 56.293 25.594 56.348 25.7041 56.4581C25.8142 56.5682 25.8692 56.7086 25.8692 56.8793C25.8692 57.0499 25.8142 57.1903 25.7041 57.3004C25.594 57.4105 25.4536 57.4656 25.2829 57.4656ZM24.8865 62.2634C24.859 62.2634 24.837 62.2524 24.8205 62.2304C24.7985 62.2139 24.7874 62.1919 24.7874 62.1643V58.1345C24.7874 58.107 24.7985 58.0849 24.8205 58.0684C24.837 58.0464 24.859 58.0354 24.8865 58.0354H25.6463C25.6738 58.0354 25.6986 58.0464 25.7206 58.0684C25.7371 58.0849 25.7454 58.107 25.7454 58.1345V62.1643C25.7454 62.1919 25.7371 62.2139 25.7206 62.2304C25.6986 62.2524 25.6738 62.2634 25.6463 62.2634H24.8865ZM29.4614 56.582C29.4614 56.5545 29.4724 56.5325 29.4944 56.5159C29.511 56.4939 29.533 56.4829 29.5605 56.4829H30.3202C30.3478 56.4829 30.3725 56.4939 30.3946 56.5159C30.4111 56.5325 30.4193 56.5545 30.4193 56.582V62.1643C30.4193 62.1919 30.4111 62.2139 30.3946 62.2304C30.3725 62.2524 30.3478 62.2634 30.3202 62.2634H29.5605C29.533 62.2634 29.511 62.2524 29.4944 62.2304C29.4724 62.2139 29.4614 62.1919 29.4614 62.1643V61.9166C29.4614 61.9001 29.4559 61.8891 29.4449 61.8836C29.4339 61.8781 29.4229 61.8836 29.4119 61.9001C29.1696 62.1863 28.8531 62.3295 28.4622 62.3295C28.0713 62.3295 27.741 62.2276 27.4713 62.0239C27.2015 61.8203 27.0061 61.5367 26.8849 61.1734C26.7859 60.8651 26.7363 60.521 26.7363 60.1411C26.7363 59.7503 26.7831 59.4145 26.8767 59.1337C26.9978 58.7703 27.1932 58.4868 27.463 58.2831C27.7328 58.0794 28.0713 57.9776 28.4787 57.9776C28.8586 57.9776 29.1696 58.1152 29.4119 58.3905C29.4229 58.4015 29.4339 58.407 29.4449 58.407C29.4559 58.4015 29.4614 58.3905 29.4614 58.374V56.582ZM29.2632 61.1073C29.3898 60.8816 29.4532 60.5623 29.4532 60.1494C29.4532 59.72 29.3843 59.3924 29.2467 59.1667C29.0981 58.9245 28.8889 58.8034 28.6191 58.8034C28.3383 58.8034 28.1181 58.919 27.9585 59.1502C27.7933 59.3924 27.7107 59.7283 27.7107 60.1577C27.7107 60.543 27.7768 60.8596 27.9089 61.1073C28.0631 61.3716 28.297 61.5037 28.6108 61.5037C28.8916 61.5037 29.1091 61.3716 29.2632 61.1073ZM31.3112 60.1907C31.2837 60.1907 31.2616 60.1824 31.2451 60.1659C31.2231 60.1439 31.2121 60.1191 31.2121 60.0916V59.464C31.2121 59.4365 31.2231 59.4117 31.2451 59.3897C31.2616 59.3732 31.2837 59.3649 31.3112 59.3649H33.9124C33.9399 59.3649 33.962 59.3732 33.9785 59.3897C34.0005 59.4117 34.0115 59.4365 34.0115 59.464V60.0916C34.0115 60.1191 34.0005 60.1439 33.9785 60.1659C33.962 60.1824 33.9399 60.1907 33.9124 60.1907H31.3112ZM38.6112 56.549C38.6387 56.5049 38.6772 56.4829 38.7268 56.4829H39.4865C39.514 56.4829 39.5388 56.4939 39.5608 56.5159C39.5773 56.5325 39.5856 56.5545 39.5856 56.582V62.1643C39.5856 62.1919 39.5773 62.2139 39.5608 62.2304C39.5388 62.2524 39.514 62.2634 39.4865 62.2634H38.7268C38.6992 62.2634 38.6772 62.2524 38.6607 62.2304C38.6387 62.2139 38.6277 62.1919 38.6277 62.1643V58.2253C38.6277 58.2088 38.6222 58.1978 38.6112 58.1923C38.5946 58.1868 38.5836 58.1923 38.5781 58.2088L37.5459 59.7943C37.5184 59.8384 37.4798 59.8604 37.4303 59.8604H37.0504C37.0009 59.8604 36.9623 59.8384 36.9348 59.7943L35.8943 58.2171C35.8888 58.2005 35.8805 58.195 35.8695 58.2005C35.853 58.2061 35.8448 58.2171 35.8448 58.2336V62.1643C35.8448 62.1919 35.8365 62.2139 35.82 62.2304C35.798 62.2524 35.7732 62.2634 35.7457 62.2634H34.9859C34.9584 62.2634 34.9364 62.2524 34.9199 62.2304C34.8979 62.2139 34.8868 62.1919 34.8868 62.1643V56.582C34.8868 56.5545 34.8979 56.5325 34.9199 56.5159C34.9364 56.4939 34.9584 56.4829 34.9859 56.4829H35.7457C35.7952 56.4829 35.8337 56.5049 35.8613 56.549L37.2073 58.5887C37.2183 58.5997 37.2293 58.6052 37.2403 58.6052C37.2514 58.6052 37.2596 58.5997 37.2651 58.5887L38.6112 56.549ZM42.3107 57.9776C42.6575 57.9776 42.9631 58.0381 43.2273 58.1593C43.4916 58.2804 43.6953 58.4455 43.8384 58.6547C43.9815 58.8694 44.0531 59.1117 44.0531 59.3814V62.1643C44.0531 62.1919 44.0448 62.2139 44.0283 62.2304C44.0063 62.2524 43.9815 62.2634 43.954 62.2634H43.1943C43.1668 62.2634 43.1447 62.2524 43.1282 62.2304C43.1062 62.2139 43.0952 62.1919 43.0952 62.1643V61.9001C43.0952 61.8836 43.0897 61.8725 43.0787 61.867C43.0677 61.867 43.0566 61.8726 43.0456 61.8836C42.7759 62.1808 42.385 62.3295 41.873 62.3295C41.4601 62.3295 41.1215 62.2249 40.8573 62.0157C40.5875 61.8065 40.4527 61.4954 40.4527 61.0825C40.4527 60.6531 40.6041 60.3173 40.9068 60.0751C41.2041 59.8384 41.6253 59.72 42.1703 59.72H43.0539C43.0814 59.72 43.0952 59.7062 43.0952 59.6787V59.4805C43.0952 59.2658 43.0319 59.0979 42.9053 58.9768C42.7786 58.8612 42.5887 58.8034 42.3355 58.8034C42.1263 58.8034 41.9583 58.8419 41.8317 58.919C41.6996 58.9905 41.617 59.0924 41.584 59.2245C41.5675 59.2906 41.5289 59.3181 41.4684 59.3071L40.6674 59.208C40.6398 59.2025 40.6178 59.1942 40.6013 59.1832C40.5793 59.1667 40.571 59.1474 40.5765 59.1254C40.6206 58.7896 40.8022 58.5143 41.1215 58.2996C41.4353 58.0849 41.8317 57.9776 42.3107 57.9776ZM42.1125 61.5698C42.3822 61.5698 42.6135 61.4982 42.8062 61.3551C42.9988 61.2119 43.0952 61.0302 43.0952 60.81V60.4219C43.0952 60.3944 43.0814 60.3806 43.0539 60.3806H42.3602C42.0685 60.3806 41.84 60.4357 41.6748 60.5458C41.5042 60.6559 41.4188 60.8128 41.4188 61.0165C41.4188 61.1927 41.4849 61.3275 41.617 61.4211C41.7436 61.5202 41.9088 61.5698 42.1125 61.5698ZM46.9764 57.9941C47.1526 57.9941 47.3067 58.0299 47.4388 58.1014C47.4829 58.1235 47.4994 58.1648 47.4884 58.2253L47.348 58.9685C47.3425 59.0346 47.304 59.0539 47.2324 59.0263C47.1498 58.9988 47.0535 58.985 46.9434 58.985C46.8718 58.985 46.8167 58.9878 46.7782 58.9933C46.547 59.0043 46.3543 59.0841 46.2001 59.2328C46.046 59.3869 45.9689 59.5851 45.9689 59.8273V62.1643C45.9689 62.1919 45.9607 62.2139 45.9442 62.2304C45.9221 62.2524 45.8974 62.2634 45.8698 62.2634H45.1101C45.0826 62.2634 45.0606 62.2524 45.044 62.2304C45.022 62.2139 45.011 62.1919 45.011 62.1643V58.1427C45.011 58.1152 45.022 58.0904 45.044 58.0684C45.0606 58.0519 45.0826 58.0436 45.1101 58.0436H45.8698C45.8974 58.0436 45.9221 58.0519 45.9442 58.0684C45.9607 58.0904 45.9689 58.1152 45.9689 58.1427V58.5143C45.9689 58.5364 45.9744 58.5474 45.9854 58.5474C45.9909 58.5529 45.9992 58.5474 46.0102 58.5309C46.2414 58.173 46.5635 57.9941 46.9764 57.9941ZM48.2151 62.2634C48.1875 62.2634 48.1655 62.2524 48.149 62.2304C48.127 62.2139 48.116 62.1919 48.116 62.1643V56.582C48.116 56.5545 48.127 56.5325 48.149 56.5159C48.1655 56.4939 48.1875 56.4829 48.2151 56.4829H48.9748C49.0023 56.4829 49.0243 56.4939 49.0409 56.5159C49.0629 56.5325 49.0739 56.5545 49.0739 56.582V59.5631C49.0739 59.5796 49.0794 59.5906 49.0904 59.5961C49.1014 59.6016 49.1124 59.5961 49.1234 59.5796L50.4612 58.1014C50.4998 58.0629 50.541 58.0436 50.5851 58.0436H51.4604C51.5155 58.0436 51.543 58.0629 51.543 58.1014C51.543 58.118 51.5347 58.14 51.5182 58.1675L50.4695 59.4227C50.453 59.4392 50.4502 59.4585 50.4612 59.4805L51.6999 62.1478C51.7109 62.1698 51.7164 62.1864 51.7164 62.1974C51.7164 62.2414 51.6861 62.2634 51.6256 62.2634H50.8246C50.7695 62.2634 50.731 62.2386 50.709 62.1891L49.8088 60.0916C49.8033 60.0806 49.7923 60.0723 49.7758 60.0668C49.7648 60.0668 49.7565 60.0723 49.751 60.0833L49.0904 60.8431C49.0794 60.8651 49.0739 60.8844 49.0739 60.9009V62.1643C49.0739 62.1919 49.0629 62.2139 49.0409 62.2304C49.0243 62.2524 49.0023 62.2634 48.9748 62.2634H48.2151ZM55.6885 59.6787C55.7105 59.8163 55.7215 59.9705 55.7215 60.1411L55.7132 60.3971C55.7132 60.4632 55.6802 60.4962 55.6141 60.4962H53.0294C53.0019 60.4962 52.9881 60.51 52.9881 60.5375C53.0046 60.7192 53.0294 60.8431 53.0625 60.9091C53.1946 61.3055 53.5166 61.5064 54.0286 61.512C54.403 61.512 54.7003 61.3578 54.9205 61.0495C54.9425 61.0165 54.97 61 55.0031 61C55.0251 61 55.0443 61.0082 55.0609 61.0247L55.5729 61.4459C55.6224 61.4844 55.6307 61.5285 55.5976 61.578C55.427 61.8203 55.1985 62.0074 54.9122 62.1396C54.6315 62.2717 54.3176 62.3377 53.9708 62.3377C53.5414 62.3377 53.1753 62.2414 52.8725 62.0487C52.5752 61.856 52.3578 61.5863 52.2201 61.2394C52.0935 60.9422 52.0302 60.5293 52.0302 60.0008C52.0302 59.6815 52.0632 59.4227 52.1293 59.2245C52.2394 58.8392 52.4486 58.5336 52.7569 58.3079C53.0597 58.0877 53.4258 57.9776 53.8552 57.9776C54.9397 57.9776 55.5508 58.5446 55.6885 59.6787ZM53.8552 58.8034C53.6515 58.8034 53.4809 58.8557 53.3432 58.9603C53.2111 59.0594 53.1175 59.1998 53.0625 59.3814C53.0294 59.475 53.0074 59.5961 52.9964 59.7448C52.9854 59.7723 52.9964 59.7861 53.0294 59.7861H54.7058C54.7333 59.7861 54.7471 59.7723 54.7471 59.7448C54.7361 59.6071 54.7195 59.5025 54.6975 59.431C54.648 59.2328 54.5516 59.0786 54.4085 58.9685C54.2598 58.8584 54.0754 58.8034 53.8552 58.8034ZM58.7521 58.7208C58.7521 58.7483 58.7439 58.7703 58.7274 58.7869C58.7053 58.8089 58.6806 58.8199 58.653 58.8199H57.8107C57.7832 58.8199 57.7694 58.8336 57.7694 58.8612V60.8513C57.7694 61.0605 57.8162 61.2119 57.9098 61.3055C57.9979 61.3991 58.1411 61.4459 58.3392 61.4459H58.587C58.6145 61.4459 58.6365 61.4542 58.653 61.4707C58.6751 61.4927 58.6861 61.5175 58.6861 61.545V62.1643C58.6861 62.2249 58.653 62.2607 58.587 62.2717L58.1576 62.2799C57.7227 62.2799 57.3978 62.2056 57.1831 62.057C56.9684 61.9083 56.8583 61.6276 56.8528 61.2147V58.8612C56.8528 58.8336 56.8391 58.8199 56.8115 58.8199H56.3408C56.3133 58.8199 56.2913 58.8089 56.2748 58.7869C56.2528 58.7703 56.2417 58.7483 56.2417 58.7208V58.1427C56.2417 58.1152 56.2528 58.0904 56.2748 58.0684C56.2913 58.0519 56.3133 58.0436 56.3408 58.0436H56.8115C56.8391 58.0436 56.8528 58.0299 56.8528 58.0024V57.0362C56.8528 57.0087 56.8638 56.9839 56.8859 56.9619C56.9024 56.9453 56.9244 56.9371 56.9519 56.9371H57.6704C57.6979 56.9371 57.7199 56.9453 57.7364 56.9619C57.7584 56.9839 57.7694 57.0087 57.7694 57.0362V58.0024C57.7694 58.0299 57.7832 58.0436 57.8107 58.0436H58.653C58.6806 58.0436 58.7053 58.0519 58.7274 58.0684C58.7439 58.0904 58.7521 58.1152 58.7521 58.1427V58.7208Z" fill="#242530"/>
<path d="M27.7024 73.9732C27.262 73.9732 26.8767 73.9016 26.5463 73.7585C26.216 73.6209 25.9628 73.4199 25.7866 73.1557C25.6049 72.8969 25.5141 72.5941 25.5141 72.2473V72.0656C25.5141 72.0381 25.5251 72.0161 25.5471 71.9996C25.5636 71.9775 25.5857 71.9665 25.6132 71.9665H26.5546C26.5821 71.9665 26.6069 71.9775 26.6289 71.9996C26.6454 72.0161 26.6537 72.0381 26.6537 72.0656V72.1895C26.6537 72.4097 26.7555 72.5941 26.9592 72.7428C27.1629 72.8969 27.4382 72.974 27.785 72.974C28.0768 72.974 28.2943 72.9134 28.4374 72.7923C28.5805 72.6657 28.6521 72.5115 28.6521 72.3299C28.6521 72.1977 28.6081 72.0876 28.52 71.9996C28.4319 71.906 28.3108 71.8261 28.1566 71.7601C28.008 71.6885 27.7685 71.5922 27.4382 71.4711C27.0693 71.3444 26.7555 71.2151 26.4968 71.0829C26.2435 70.9508 26.0316 70.7691 25.8609 70.5379C25.6848 70.3122 25.5967 70.0314 25.5967 69.6956C25.5967 69.3653 25.682 69.0763 25.8527 68.8285C26.0233 68.5808 26.2601 68.3909 26.5629 68.2587C26.8656 68.1266 27.2152 68.0605 27.6116 68.0605C28.03 68.0605 28.4016 68.1349 28.7264 68.2835C29.0567 68.4322 29.3155 68.6414 29.5027 68.9111C29.6843 69.1754 29.7752 69.4837 29.7752 69.836V69.9599C29.7752 69.9874 29.7669 70.0094 29.7504 70.0259C29.7284 70.0479 29.7036 70.059 29.6761 70.059H28.7264C28.6989 70.059 28.6769 70.0479 28.6604 70.0259C28.6383 70.0094 28.6273 69.9874 28.6273 69.9599V69.8938C28.6273 69.6626 28.5337 69.4644 28.3466 69.2992C28.1539 69.1396 27.8924 69.0598 27.5621 69.0598C27.3033 69.0598 27.0996 69.1148 26.951 69.2249C26.8078 69.335 26.7363 69.4864 26.7363 69.6791C26.7363 69.8167 26.7803 69.9323 26.8684 70.0259C26.951 70.1195 27.0776 70.2021 27.2483 70.2737C27.4134 70.3507 27.6722 70.4526 28.0245 70.5792C28.4154 70.7223 28.7209 70.849 28.9411 70.9591C29.1668 71.0692 29.3705 71.2316 29.5522 71.4463C29.7284 71.6665 29.8165 71.95 29.8165 72.2968C29.8165 72.8143 29.6265 73.2217 29.2467 73.519C28.8668 73.8218 28.3521 73.9732 27.7024 73.9732ZM33.0205 68.1184C33.3839 68.1184 33.7032 68.1927 33.9784 68.3413C34.2537 68.49 34.4684 68.6992 34.6225 68.9689C34.7712 69.2442 34.8455 69.558 34.8455 69.9103C34.8455 70.2571 34.7684 70.5627 34.6143 70.8269C34.4546 71.0912 34.2317 71.2976 33.9454 71.4463C33.6646 71.5894 33.3398 71.661 32.971 71.661H31.7983C31.7708 71.661 31.7571 71.6748 31.7571 71.7023V73.808C31.7571 73.8356 31.746 73.8576 31.724 73.8741C31.7075 73.8961 31.6855 73.9071 31.658 73.9071H30.6918C30.6643 73.9071 30.6395 73.8961 30.6175 73.8741C30.601 73.8576 30.5927 73.8356 30.5927 73.808V68.2174C30.5927 68.1899 30.601 68.1651 30.6175 68.1431C30.6395 68.1266 30.6643 68.1184 30.6918 68.1184H33.0205ZM32.8471 70.7278C33.1003 70.7278 33.304 70.6535 33.4582 70.5049C33.6123 70.3617 33.6894 70.1718 33.6894 69.9351C33.6894 69.6929 33.6123 69.4974 33.4582 69.3488C33.304 69.2001 33.1003 69.1258 32.8471 69.1258H31.7983C31.7708 69.1258 31.7571 69.1396 31.7571 69.1671V70.6866C31.7571 70.7141 31.7708 70.7278 31.7983 70.7278H32.8471ZM38.735 73.9071C38.6799 73.9071 38.6414 73.8824 38.6194 73.8328L37.5871 71.5454C37.5761 71.5234 37.5596 71.5123 37.5376 71.5123H36.7696C36.7421 71.5123 36.7283 71.5261 36.7283 71.5536V73.808C36.7283 73.8356 36.7173 73.8576 36.6953 73.8741C36.6788 73.8961 36.6567 73.9071 36.6292 73.9071H35.663C35.6355 73.9071 35.6107 73.8961 35.5887 73.8741C35.5722 73.8576 35.5639 73.8356 35.5639 73.808V68.2257C35.5639 68.1982 35.5722 68.1762 35.5887 68.1596C35.6107 68.1376 35.6355 68.1266 35.663 68.1266H38.0248C38.3771 68.1266 38.6854 68.1982 38.9497 68.3413C39.2194 68.4845 39.4259 68.6881 39.569 68.9524C39.7177 69.2167 39.792 69.5222 39.792 69.869C39.792 70.2434 39.6984 70.5627 39.5112 70.8269C39.324 71.0967 39.0625 71.2866 38.7267 71.3967C38.6992 71.4077 38.6909 71.427 38.7019 71.4545L39.825 73.7915C39.836 73.8135 39.8415 73.8301 39.8415 73.8411C39.8415 73.8851 39.8113 73.9071 39.7507 73.9071H38.735ZM36.7696 69.1258C36.7421 69.1258 36.7283 69.1396 36.7283 69.1671V70.5792C36.7283 70.6067 36.7421 70.6205 36.7696 70.6205H37.8514C38.0826 70.6205 38.2698 70.5517 38.4129 70.414C38.5616 70.2764 38.6359 70.0975 38.6359 69.8773C38.6359 69.6571 38.5616 69.4754 38.4129 69.3323C38.2698 69.1946 38.0826 69.1258 37.8514 69.1258H36.7696ZM40.7334 73.9071C40.7059 73.9071 40.6838 73.8961 40.6673 73.8741C40.6453 73.8576 40.6343 73.8356 40.6343 73.808V68.2257C40.6343 68.1982 40.6453 68.1762 40.6673 68.1596C40.6838 68.1376 40.7059 68.1266 40.7334 68.1266H41.6996C41.7271 68.1266 41.7519 68.1376 41.7739 68.1596C41.7904 68.1762 41.7986 68.1982 41.7986 68.2257V73.808C41.7986 73.8356 41.7904 73.8576 41.7739 73.8741C41.7519 73.8961 41.7271 73.9071 41.6996 73.9071H40.7334ZM46.1258 68.2257C46.1258 68.1982 46.1368 68.1762 46.1588 68.1596C46.1753 68.1376 46.1973 68.1266 46.2249 68.1266H47.191C47.2186 68.1266 47.2433 68.1376 47.2654 68.1596C47.2819 68.1762 47.2901 68.1982 47.2901 68.2257V73.808C47.2901 73.8356 47.2819 73.8576 47.2654 73.8741C47.2433 73.8961 47.2186 73.9071 47.191 73.9071H46.2579C46.2029 73.9071 46.1643 73.8851 46.1423 73.8411L44.0035 70.3067C43.9925 70.2902 43.9815 70.2847 43.9705 70.2902C43.9595 70.2902 43.954 70.3012 43.954 70.3232L43.9705 73.808C43.9705 73.8356 43.9622 73.8576 43.9457 73.8741C43.9237 73.8961 43.8989 73.9071 43.8714 73.9071H42.9052C42.8777 73.9071 42.8557 73.8961 42.8391 73.8741C42.8171 73.8576 42.8061 73.8356 42.8061 73.808V68.2257C42.8061 68.1982 42.8171 68.1762 42.8391 68.1596C42.8557 68.1376 42.8777 68.1266 42.9052 68.1266H43.8383C43.8934 68.1266 43.9319 68.1486 43.954 68.1927L46.0845 71.7105C46.0955 71.727 46.1065 71.7326 46.1175 71.727C46.1285 71.727 46.134 71.716 46.134 71.694L46.1258 68.2257ZM50.329 73.9732C49.9051 73.9732 49.5308 73.8879 49.206 73.7172C48.8812 73.5465 48.6307 73.3098 48.4545 73.007C48.2728 72.6987 48.182 72.3436 48.182 71.9418V70.092C48.182 69.6901 48.2728 69.335 48.4545 69.0267C48.6307 68.7184 48.8812 68.4789 49.206 68.3083C49.5308 68.1431 49.9051 68.0605 50.329 68.0605C50.7474 68.0605 51.119 68.1431 51.4439 68.3083C51.7632 68.4734 52.0137 68.6992 52.1953 68.9854C52.3715 69.2662 52.4596 69.58 52.4596 69.9268V69.9846C52.4596 70.0122 52.4513 70.0342 52.4348 70.0507C52.4128 70.0727 52.388 70.0837 52.3605 70.0837H51.3943C51.3668 70.0837 51.3448 70.0727 51.3282 70.0507C51.3062 70.0342 51.2952 70.0122 51.2952 69.9846V69.9599C51.2952 69.7066 51.2071 69.4947 51.031 69.324C50.8548 69.1478 50.6208 69.0598 50.329 69.0598C50.0318 69.0598 49.795 69.1506 49.6189 69.3323C49.4372 69.5194 49.3464 69.7617 49.3464 70.059V71.9748C49.3464 72.2721 49.4427 72.5115 49.6354 72.6932C49.8281 72.8804 50.073 72.974 50.3703 72.974C50.6566 72.974 50.8851 72.8969 51.0557 72.7428C51.2264 72.5941 51.3117 72.3849 51.3117 72.1152V71.7436C51.3117 71.716 51.298 71.7023 51.2704 71.7023H50.3456C50.318 71.7023 50.296 71.6913 50.2795 71.6692C50.2575 71.6527 50.2465 71.6307 50.2465 71.6032V70.8435C50.2465 70.8159 50.2575 70.7939 50.2795 70.7774C50.296 70.7554 50.318 70.7444 50.3456 70.7444H52.3605C52.388 70.7444 52.4128 70.7554 52.4348 70.7774C52.4513 70.7939 52.4596 70.8159 52.4596 70.8435V71.9335C52.4596 72.3519 52.3715 72.7152 52.1953 73.0235C52.0192 73.3318 51.7714 73.5686 51.4521 73.7337C51.1273 73.8934 50.7529 73.9732 50.329 73.9732ZM31.4433 80.6208C31.4323 80.6318 31.4295 80.6428 31.435 80.6538C31.4405 80.6648 31.4515 80.6703 31.468 80.6703H33.7059C33.7334 80.6703 33.7582 80.6786 33.7802 80.6951C33.7968 80.7171 33.805 80.7419 33.805 80.7694V81.5704C33.805 81.598 33.7968 81.62 33.7802 81.6365C33.7582 81.6585 33.7334 81.6695 33.7059 81.6695H29.9899C29.9623 81.6695 29.9376 81.6585 29.9156 81.6365C29.899 81.62 29.8908 81.598 29.8908 81.5704V80.8107C29.8908 80.7612 29.9073 80.7199 29.9403 80.6869C30.2101 80.4226 30.4853 80.1363 30.7661 79.828C31.0469 79.5142 31.2231 79.3188 31.2946 79.2417C31.4488 79.0601 31.6057 78.8866 31.7653 78.7215C32.2663 78.1654 32.5168 77.7526 32.5168 77.4828C32.5168 77.2901 32.448 77.1305 32.3103 77.0038C32.1727 76.8827 31.9938 76.8222 31.7736 76.8222C31.5534 76.8222 31.3744 76.8827 31.2368 77.0038C31.0992 77.1305 31.0304 77.2956 31.0304 77.4993V77.7058C31.0304 77.7333 31.0194 77.7581 30.9973 77.7801C30.9808 77.7966 30.9588 77.8049 30.9313 77.8049H29.9568C29.9293 77.8049 29.9073 77.7966 29.8908 77.7801C29.8688 77.7581 29.8577 77.7333 29.8577 77.7058V77.3176C29.8743 77.0204 29.9679 76.7561 30.1385 76.5249C30.3092 76.2992 30.5349 76.1258 30.8157 76.0046C31.1019 75.8835 31.4212 75.823 31.7736 75.823C32.1645 75.823 32.5058 75.8945 32.7976 76.0377C33.0838 76.1863 33.3068 76.3845 33.4664 76.6322C33.6206 76.88 33.6977 77.1552 33.6977 77.458C33.6977 77.6892 33.6399 77.926 33.5242 78.1682C33.4086 78.4104 33.2352 78.6719 33.004 78.9527C32.8333 79.1674 32.6489 79.3794 32.4507 79.5886C32.2525 79.7978 31.958 80.1005 31.5671 80.4969L31.4433 80.6208ZM36.4888 81.7604C35.8833 81.7604 35.4043 81.5897 35.052 81.2484C34.6996 80.9126 34.5235 80.4529 34.5235 79.8693V77.6892C34.5235 77.1167 34.6996 76.6625 35.052 76.3267C35.4043 75.9909 35.8833 75.823 36.4888 75.823C37.0944 75.823 37.5761 75.9909 37.934 76.3267C38.2863 76.6625 38.4625 77.1167 38.4625 77.6892V79.8693C38.4625 80.4529 38.2863 80.9126 37.934 81.2484C37.5761 81.5897 37.0944 81.7604 36.4888 81.7604ZM36.4888 80.7612C36.7366 80.7612 36.9348 80.6841 37.0834 80.53C37.2265 80.3813 37.2981 80.1804 37.2981 79.9271V77.6562C37.2981 77.403 37.2265 77.202 37.0834 77.0534C36.9348 76.8992 36.7366 76.8222 36.4888 76.8222C36.2466 76.8222 36.0539 76.8992 35.9108 77.0534C35.7621 77.202 35.6878 77.403 35.6878 77.6562V79.9271C35.6878 80.1804 35.7621 80.3813 35.9108 80.53C36.0539 80.6841 36.2466 80.7612 36.4888 80.7612ZM40.7747 80.6208C40.7637 80.6318 40.7609 80.6428 40.7664 80.6538C40.7719 80.6648 40.7829 80.6703 40.7994 80.6703H43.0373C43.0649 80.6703 43.0896 80.6786 43.1117 80.6951C43.1282 80.7171 43.1364 80.7419 43.1364 80.7694V81.5704C43.1364 81.598 43.1282 81.62 43.1117 81.6365C43.0896 81.6585 43.0649 81.6695 43.0373 81.6695H39.3213C39.2938 81.6695 39.2717 81.6585 39.2552 81.6365C39.2332 81.62 39.2222 81.598 39.2222 81.5704V80.8107C39.2222 80.7612 39.2387 80.7199 39.2717 80.6869C39.5415 80.4226 39.8168 80.1363 40.0975 79.828C40.3783 79.5142 40.5545 79.3188 40.626 79.2417C40.7802 79.0601 40.9371 78.8866 41.0967 78.7215C41.5977 78.1654 41.8482 77.7526 41.8482 77.4828C41.8482 77.2901 41.7794 77.1305 41.6417 77.0038C41.5041 76.8827 41.3252 76.8222 41.105 76.8222C40.8848 76.8222 40.7059 76.8827 40.5682 77.0038C40.4306 77.1305 40.3618 77.2956 40.3618 77.4993V77.7058C40.3618 77.7333 40.3535 77.7581 40.337 77.7801C40.315 77.7966 40.2902 77.8049 40.2627 77.8049H39.2883C39.2607 77.8049 39.2387 77.7966 39.2222 77.7801C39.2002 77.7581 39.1892 77.7333 39.1892 77.7058V77.3176C39.2057 77.0204 39.2993 76.7561 39.4699 76.5249C39.6406 76.2992 39.8691 76.1258 40.1553 76.0046C40.4361 75.8835 40.7527 75.823 41.105 75.823C41.4959 75.823 41.8372 75.8945 42.129 76.0377C42.4152 76.1863 42.6382 76.3845 42.7979 76.6322C42.952 76.88 43.0291 77.1552 43.0291 77.458C43.0291 77.6892 42.9713 77.926 42.8557 78.1682C42.74 78.4104 42.5666 78.6719 42.3354 78.9527C42.1647 79.1674 41.9803 79.3794 41.7821 79.5886C41.5839 79.7978 41.2894 80.1005 40.8985 80.4969L40.7747 80.6208ZM47.9838 79.1509C48.0113 79.1509 48.0361 79.1591 48.0581 79.1757C48.0746 79.1977 48.0829 79.2225 48.0829 79.25V80.084C48.0829 80.1116 48.0746 80.1363 48.0581 80.1583C48.0361 80.1749 48.0113 80.1831 47.9838 80.1831H47.6287C47.6012 80.1831 47.5874 80.1969 47.5874 80.2244V81.5704C47.5874 81.598 47.5792 81.62 47.5627 81.6365C47.5406 81.6585 47.5159 81.6695 47.4883 81.6695H46.5222C46.4946 81.6695 46.4726 81.6585 46.4561 81.6365C46.4341 81.62 46.4231 81.598 46.4231 81.5704V80.2244C46.4231 80.1969 46.4093 80.1831 46.3818 80.1831H43.8466C43.8191 80.1831 43.7971 80.1749 43.7805 80.1583C43.7585 80.1363 43.7475 80.1116 43.7475 80.084V79.4234C43.7475 79.3904 43.7558 79.3491 43.7723 79.2995L45.2587 75.9633C45.2807 75.9138 45.3193 75.889 45.3743 75.889H46.4065C46.4451 75.889 46.4726 75.9 46.4891 75.9221C46.5001 75.9386 46.4974 75.9661 46.4809 76.0046L45.1018 79.1013C45.0963 79.1124 45.0963 79.1234 45.1018 79.1344C45.1073 79.1454 45.1156 79.1509 45.1266 79.1509H46.3818C46.4093 79.1509 46.4231 79.1371 46.4231 79.1096V78.0856C46.4231 78.0581 46.4341 78.0361 46.4561 78.0196C46.4726 77.9975 46.4946 77.9865 46.5222 77.9865H47.4883C47.5159 77.9865 47.5406 77.9975 47.5627 78.0196C47.5792 78.0361 47.5874 78.0581 47.5874 78.0856V79.1096C47.5874 79.1371 47.6012 79.1509 47.6287 79.1509H47.9838Z" fill="#252530"/>
</g>
<defs>
<clipPath id="clip0_154_2535">
<rect width="77.6241" height="100.746" fill="white" transform="translate(0.328552)"/>
</clipPath>
</defs>
</svg>
