<svg width="79" height="101" viewBox="0 0 79 101" fill="none" xmlns="http://www.w3.org/2000/svg">
<path d="M7.64215 74.2381L40.2608 90.8364L71.6408 74.2381V9.33105H7.64215V74.2381Z" fill="white"/>
<path d="M72.2999 9.5791L6.98004 75.3945L40.8374 92.158L72.2999 76.0551V9.5791Z" fill="#F2F3F2"/>
<path d="M5.49567 30.9653V75.6405L6.65177 76.2186L39.2704 92.8169L40.2614 93.3124L41.2523 92.8169L72.7149 76.2186L73.871 75.6405V7.18262H5.49567V30.9653ZM7.64272 74.4018V9.32967H71.7239V74.4018L40.2614 91.0002L7.64272 74.4018Z" fill="#DCDEDC"/>
<path d="M39.6839 10.4032C40.0142 10.4032 40.3445 10.4032 40.6749 10.4858L39.6839 12.3851C38.1975 12.3025 36.8762 13.4586 36.7937 14.945C36.7111 16.4315 37.8672 17.7527 39.3536 17.8353H39.6839C40.3445 17.8353 41.0052 17.5876 41.5006 17.1747L42.5742 18.9914C41.7484 19.5695 40.7574 19.8998 39.6839 19.8998C37.0414 19.9823 34.8118 18.0005 34.7292 15.3579C34.6466 12.7154 36.6285 10.4858 39.271 10.4032H39.6839ZM43.0696 14.4496L44.3083 16.514L43.0696 18.4959L41.9135 16.514H39.5188L40.7574 14.4496H43.0696ZM41.0878 13.7064C41.0878 13.376 41.1703 13.0457 41.3355 12.798C41.5006 12.5502 41.831 12.3025 42.0787 12.1374L42.2439 12.0548C42.5742 11.8896 42.6568 11.807 42.6568 11.6419C42.6568 11.4767 42.409 11.3116 42.2439 11.3116C41.9135 11.3116 41.6658 11.4767 41.5006 11.807L41.0878 11.3941C41.1703 11.229 41.3355 11.0638 41.5006 10.8987C41.7484 10.7335 41.9961 10.7335 42.2439 10.7335C42.4916 10.7335 42.8219 10.8161 42.9871 10.9812C43.1522 11.1464 43.3174 11.3941 43.3174 11.6419C43.3174 12.0548 43.0696 12.3851 42.5742 12.5502L42.3264 12.7154C42.0787 12.8806 41.9135 12.9631 41.831 13.2109H43.3174V13.7889L41.0878 13.7064ZM39.6839 24.0287L47.5289 19.5695V7.18262H31.7563V19.4869L39.6839 24.0287ZM75.4406 53.2616H3.92725L1.28473 59.0422L3.92725 64.8227H75.4406L78.0005 59.0422L75.4406 53.2616Z" fill="#FF492C"/>
<path d="M16.7179 49.5456C16.6684 49.5456 16.6271 49.529 16.594 49.496C16.561 49.4575 16.5445 49.4134 16.5445 49.3639V39.3223C16.5445 39.2727 16.561 39.2287 16.594 39.1902C16.6271 39.1571 16.6684 39.1406 16.7179 39.1406H18.4603C18.5099 39.1406 18.5512 39.1571 18.5842 39.1902C18.6227 39.2287 18.642 39.2727 18.642 39.3223V47.671C18.642 47.7206 18.6668 47.7453 18.7163 47.7453H23.572C23.6215 47.7453 23.6655 47.7619 23.7041 47.7949C23.7371 47.8334 23.7536 47.8775 23.7536 47.927V49.3639C23.7536 49.4134 23.7371 49.4575 23.7041 49.496C23.6655 49.529 23.6215 49.5456 23.572 49.5456H16.7179ZM31.6729 44.9377C31.7335 45.312 31.7528 45.7332 31.7308 46.2011C31.7252 46.3222 31.6619 46.3828 31.5408 46.3828H26.9494C26.8889 46.3828 26.8696 46.4076 26.8916 46.4571C26.9192 46.6553 26.9715 46.8535 27.0485 47.0517C27.3073 47.6022 27.833 47.8775 28.6258 47.8775C29.2589 47.872 29.7599 47.616 30.1287 47.1095C30.1673 47.0489 30.2113 47.0186 30.2608 47.0186C30.2939 47.0186 30.3297 47.0379 30.3682 47.0765L31.4335 48.1335C31.483 48.183 31.5078 48.2271 31.5078 48.2656C31.5078 48.2876 31.4885 48.3289 31.45 48.3895C31.1252 48.7913 30.704 49.1051 30.1865 49.3309C29.6745 49.5511 29.1102 49.6612 28.4937 49.6612C27.6403 49.6612 26.9192 49.4685 26.3301 49.0831C25.741 48.6978 25.3171 48.1582 25.0584 47.4646C24.8492 46.9691 24.7446 46.3195 24.7446 45.5157C24.7446 44.9707 24.8189 44.4917 24.9675 44.0788C25.1988 43.3742 25.5979 42.8126 26.1649 42.3942C26.7375 41.9813 27.4146 41.7749 28.1964 41.7749C29.1873 41.7749 29.9828 42.0612 30.5829 42.6337C31.183 43.2063 31.5463 43.9742 31.6729 44.9377ZM28.2129 43.5834C27.5853 43.5834 27.1724 43.8751 26.9742 44.4587C26.9357 44.5908 26.9026 44.7505 26.8751 44.9377C26.8751 44.9872 26.8999 45.012 26.9494 45.012H29.5176C29.5782 45.012 29.5975 44.9872 29.5754 44.9377C29.5259 44.6514 29.5011 44.5138 29.5011 44.5248C29.413 44.2275 29.2589 43.9963 29.0387 43.8311C28.813 43.6659 28.5377 43.5834 28.2129 43.5834ZM36.0001 41.7831C36.6442 41.7831 37.2195 41.896 37.726 42.1217C38.2325 42.3419 38.6261 42.6475 38.9069 43.0383C39.1876 43.4237 39.328 43.8531 39.328 44.3266V49.3639C39.328 49.4134 39.3115 49.4575 39.2785 49.496C39.2454 49.529 39.2041 49.5456 39.1546 49.5456H37.4122C37.3626 49.5456 37.3213 49.529 37.2883 49.496C37.2498 49.4575 37.2305 49.4134 37.2305 49.3639V48.8767C37.2305 48.8491 37.2222 48.8299 37.2057 48.8189C37.1837 48.8079 37.1644 48.8161 37.1479 48.8436C36.7295 49.3887 36.0606 49.6612 35.1413 49.6612C34.365 49.6612 33.7402 49.474 33.2667 49.0996C32.7878 48.7253 32.5483 48.1692 32.5483 47.4315C32.5483 46.6718 32.818 46.08 33.3576 45.6561C33.8916 45.2377 34.654 45.0285 35.645 45.0285H37.1562C37.2057 45.0285 37.2305 45.0037 37.2305 44.9542V44.6239C37.2305 44.2991 37.1314 44.0431 36.9332 43.8559C36.735 43.6742 36.4377 43.5834 36.0414 43.5834C35.7386 43.5834 35.4853 43.6384 35.2816 43.7485C35.0779 43.8586 34.9458 44.0128 34.8853 44.211C34.8577 44.3211 34.7944 44.3706 34.6953 44.3596L32.8951 44.1201C32.774 44.0981 32.7189 44.0541 32.73 43.988C32.7685 43.5696 32.9337 43.1925 33.2254 42.8567C33.5172 42.5209 33.9053 42.2594 34.3898 42.0722C34.8687 41.8795 35.4055 41.7831 36.0001 41.7831ZM35.7028 48.1004C36.1267 48.1004 36.4873 47.9876 36.7846 47.7619C37.0819 47.5361 37.2305 47.2444 37.2305 46.8865V46.3498C37.2305 46.3002 37.2057 46.2754 37.1562 46.2754H36.0909C35.645 46.2754 35.2954 46.3608 35.0422 46.5314C34.7889 46.6966 34.6623 46.9333 34.6623 47.2416C34.6623 47.5114 34.7559 47.7206 34.9431 47.8692C35.1302 48.0234 35.3835 48.1004 35.7028 48.1004ZM45.5462 39.3223C45.5462 39.2727 45.5627 39.2287 45.5957 39.1902C45.6288 39.1571 45.6701 39.1406 45.7196 39.1406H47.462C47.5116 39.1406 47.5529 39.1571 47.5859 39.1902C47.6189 39.2287 47.6354 39.2727 47.6354 39.3223V49.3639C47.6354 49.4134 47.6189 49.4575 47.5859 49.496C47.5529 49.529 47.5116 49.5456 47.462 49.5456H45.7196C45.6701 49.5456 45.6288 49.529 45.5957 49.496C45.5627 49.4575 45.5462 49.4134 45.5462 49.3639V48.8767C45.5462 48.8491 45.5352 48.8326 45.5132 48.8271C45.4911 48.8216 45.4719 48.8271 45.4554 48.8436C45.037 49.3887 44.4672 49.6612 43.746 49.6612C43.0523 49.6612 42.455 49.4685 41.954 49.0831C41.453 48.6978 41.0924 48.1692 40.8722 47.4976C40.7071 46.9801 40.6245 46.38 40.6245 45.6974C40.6245 44.9927 40.7126 44.3789 40.8887 43.8559C41.12 43.2173 41.4806 42.7135 41.9705 42.3447C42.4605 41.9703 43.0661 41.7831 43.7873 41.7831C44.5029 41.7831 45.059 42.0309 45.4554 42.5264C45.4719 42.5594 45.4911 42.5704 45.5132 42.5594C45.5352 42.5484 45.5462 42.5291 45.5462 42.5016V39.3223ZM45.2324 47.2251C45.4306 46.8617 45.5297 46.3608 45.5297 45.7222C45.5297 45.0615 45.4196 44.5413 45.1994 44.1614C44.9737 43.7761 44.6433 43.5834 44.2084 43.5834C43.7405 43.5834 43.3881 43.7761 43.1514 44.1614C42.9037 44.5523 42.7798 45.078 42.7798 45.7387C42.7798 46.3332 42.8844 46.8287 43.0936 47.2251C43.3413 47.6545 43.7074 47.8692 44.1919 47.8692C44.6378 47.8692 44.9847 47.6545 45.2324 47.2251ZM55.9759 44.9377C56.0365 45.312 56.0557 45.7332 56.0337 46.2011C56.0282 46.3222 55.9649 46.3828 55.8438 46.3828H51.2524C51.1918 46.3828 51.1726 46.4076 51.1946 46.4571C51.2221 46.6553 51.2744 46.8535 51.3515 47.0517C51.6102 47.6022 52.136 47.8775 52.9287 47.8775C53.5618 47.872 54.0628 47.616 54.4317 47.1095C54.4702 47.0489 54.5143 47.0186 54.5638 47.0186C54.5968 47.0186 54.6326 47.0379 54.6712 47.0765L55.7364 48.1335C55.786 48.183 55.8108 48.2271 55.8108 48.2656C55.8108 48.2876 55.7915 48.3289 55.7529 48.3895C55.4281 48.7913 55.007 49.1051 54.4895 49.3309C53.9775 49.5511 53.4132 49.6612 52.7966 49.6612C51.9433 49.6612 51.2221 49.4685 50.6331 49.0831C50.044 48.6978 49.6201 48.1582 49.3613 47.4646C49.1521 46.9691 49.0475 46.3195 49.0475 45.5157C49.0475 44.9707 49.1219 44.4917 49.2705 44.0788C49.5017 43.3742 49.9009 42.8126 50.4679 42.3942C51.0404 41.9813 51.7176 41.7749 52.4993 41.7749C53.4903 41.7749 54.2858 42.0612 54.8859 42.6337C55.4859 43.2063 55.8493 43.9742 55.9759 44.9377ZM52.5159 43.5834C51.8883 43.5834 51.4754 43.8751 51.2772 44.4587C51.2386 44.5908 51.2056 44.7505 51.1781 44.9377C51.1781 44.9872 51.2028 45.012 51.2524 45.012H53.8206C53.8812 45.012 53.9004 44.9872 53.8784 44.9377C53.8289 44.6514 53.8041 44.5138 53.8041 44.5248C53.716 44.2275 53.5618 43.9963 53.3416 43.8311C53.1159 43.6659 52.8407 43.5834 52.5159 43.5834ZM61.1371 41.7997C61.4949 41.7997 61.7757 41.8685 61.9794 42.0061C62.062 42.0502 62.0923 42.1245 62.0702 42.2291L61.7564 43.9302C61.7509 44.0458 61.6821 44.0788 61.55 44.0293C61.4013 43.9797 61.2279 43.955 61.0297 43.955C60.9527 43.955 60.8453 43.966 60.7077 43.988C60.3498 44.0155 60.0471 44.1449 59.7993 44.3761C59.5516 44.6129 59.4277 44.9239 59.4277 45.3093V49.3639C59.4277 49.4134 59.4112 49.4575 59.3782 49.496C59.3396 49.529 59.2956 49.5456 59.246 49.5456H57.5119C57.4623 49.5456 57.4183 49.529 57.3798 49.496C57.3467 49.4575 57.3302 49.4134 57.3302 49.3639V42.0804C57.3302 42.0309 57.3467 41.9896 57.3798 41.9566C57.4183 41.9235 57.4623 41.907 57.5119 41.907H59.246C59.2956 41.907 59.3396 41.9235 59.3782 41.9566C59.4112 41.9896 59.4277 42.0309 59.4277 42.0804V42.6502C59.4277 42.6778 59.436 42.697 59.4525 42.708C59.4745 42.719 59.491 42.7135 59.502 42.6915C59.9094 42.0969 60.4544 41.7997 61.1371 41.7997Z" fill="#252530"/>
<path d="M28.3191 62.3306C27.8897 62.3306 27.5153 62.2618 27.196 62.1242C26.8767 61.9865 26.629 61.7939 26.4528 61.5461C26.2822 61.2984 26.1968 61.0066 26.1968 60.6708V60.4643C26.1968 60.4368 26.2078 60.412 26.2299 60.39C26.2464 60.3735 26.2684 60.3652 26.2959 60.3652H27.0309C27.0584 60.3652 27.0832 60.3735 27.1052 60.39C27.1217 60.412 27.13 60.4368 27.13 60.4643V60.6212C27.13 60.8745 27.2428 61.0837 27.4686 61.2488C27.6943 61.4195 28.0026 61.5048 28.3934 61.5048C28.7293 61.5048 28.9825 61.4333 29.1532 61.2901C29.3238 61.147 29.4092 60.9626 29.4092 60.7368C29.4092 60.5827 29.3624 60.4506 29.2688 60.3405C29.1752 60.2359 29.0431 60.1395 28.8724 60.0514C28.6962 59.9634 28.4347 59.8533 28.0879 59.7211C27.697 59.578 27.3805 59.4431 27.1382 59.3165C26.896 59.1899 26.6951 59.0164 26.5354 58.7962C26.3703 58.5815 26.2877 58.3118 26.2877 57.987C26.2877 57.5025 26.4638 57.1199 26.8162 56.8391C27.1685 56.5584 27.6392 56.418 28.2283 56.418C28.6412 56.418 29.0073 56.4895 29.3266 56.6327C29.6404 56.7758 29.8854 56.9768 30.0615 57.2355C30.2377 57.4887 30.3258 57.7833 30.3258 58.1191V58.2595C30.3258 58.287 30.3148 58.3118 30.2927 58.3338C30.2762 58.3503 30.2542 58.3586 30.2267 58.3586H29.4835C29.456 58.3586 29.4339 58.3503 29.4174 58.3338C29.3954 58.3118 29.3844 58.287 29.3844 58.2595V58.1686C29.3844 57.9099 29.2798 57.6924 29.0706 57.5163C28.8559 57.3346 28.5613 57.2438 28.187 57.2438C27.8842 57.2438 27.6502 57.3071 27.4851 57.4337C27.3144 57.5603 27.2291 57.7392 27.2291 57.9704C27.2291 58.1356 27.2731 58.2705 27.3612 58.3751C27.4493 58.4797 27.5814 58.5733 27.7576 58.6559C27.9337 58.7439 28.2063 58.854 28.5751 58.9862C28.966 59.1348 29.2798 59.2697 29.5165 59.3908C29.7477 59.5119 29.9487 59.6798 30.1193 59.8945C30.2845 60.1147 30.3671 60.3873 30.3671 60.7121C30.3671 61.2075 30.1826 61.6012 29.8138 61.8929C29.4504 62.1847 28.9522 62.3306 28.3191 62.3306ZM33.6537 56.4758C34.0005 56.4758 34.3061 56.5473 34.5703 56.6905C34.8346 56.8336 35.0383 57.0346 35.1814 57.2933C35.3301 57.5576 35.4044 57.8603 35.4044 58.2017C35.4044 58.5375 35.3301 58.8348 35.1814 59.0935C35.0328 59.3523 34.8236 59.5505 34.5538 59.6881C34.2786 59.8312 33.962 59.9028 33.6042 59.9028H32.2829C32.2554 59.9028 32.2416 59.9166 32.2416 59.9441V62.1655C32.2416 62.193 32.2334 62.215 32.2168 62.2315C32.1948 62.2535 32.17 62.2646 32.1425 62.2646H31.3828C31.3553 62.2646 31.3332 62.2535 31.3167 62.2315C31.2947 62.215 31.2837 62.193 31.2837 62.1655V56.5749C31.2837 56.5473 31.2947 56.5226 31.3167 56.5005C31.3332 56.484 31.3553 56.4758 31.3828 56.4758H33.6537ZM33.5133 59.1266C33.7941 59.1266 34.0198 59.044 34.1905 58.8788C34.3611 58.7137 34.4465 58.4962 34.4465 58.2264C34.4465 57.9512 34.3611 57.7282 34.1905 57.5576C34.0198 57.3869 33.7941 57.3016 33.5133 57.3016H32.2829C32.2554 57.3016 32.2416 57.3153 32.2416 57.3429V59.0853C32.2416 59.1128 32.2554 59.1266 32.2829 59.1266H33.5133ZM39.492 62.2646C39.437 62.2646 39.3984 62.2398 39.3764 62.1902L38.2864 59.812C38.2754 59.7899 38.2589 59.7789 38.2368 59.7789H37.2459C37.2184 59.7789 37.2046 59.7927 37.2046 59.8202V62.1655C37.2046 62.193 37.1936 62.215 37.1716 62.2315C37.1551 62.2535 37.133 62.2646 37.1055 62.2646H36.3458C36.3183 62.2646 36.2962 62.2535 36.2797 62.2315C36.2577 62.215 36.2467 62.193 36.2467 62.1655V56.5831C36.2467 56.5556 36.2577 56.5336 36.2797 56.5171C36.2962 56.495 36.3183 56.484 36.3458 56.484H38.6167C38.9525 56.484 39.2498 56.5528 39.5085 56.6905C39.7673 56.8336 39.9682 57.0318 40.1114 57.285C40.2545 57.5438 40.3261 57.8383 40.3261 58.1686C40.3261 58.5485 40.2297 58.8706 40.0371 59.1348C39.8389 59.4046 39.5664 59.5918 39.2195 59.6964C39.2085 59.6964 39.2003 59.7019 39.1948 59.7129C39.1892 59.7239 39.1892 59.7349 39.1948 59.7459L40.3591 62.1489C40.3701 62.171 40.3756 62.1875 40.3756 62.1985C40.3756 62.2425 40.3453 62.2646 40.2848 62.2646H39.492ZM37.2459 57.3098C37.2184 57.3098 37.2046 57.3236 37.2046 57.3511V58.9944C37.2046 59.022 37.2184 59.0357 37.2459 59.0357H38.4846C38.7488 59.0357 38.9608 58.9559 39.1204 58.7962C39.2856 58.6421 39.3682 58.4356 39.3682 58.1769C39.3682 57.9181 39.2856 57.709 39.1204 57.5493C38.9608 57.3896 38.7488 57.3098 38.4846 57.3098H37.2459ZM41.4079 62.2646C41.3803 62.2646 41.3556 62.2535 41.3335 62.2315C41.317 62.215 41.3088 62.193 41.3088 62.1655V56.5831C41.3088 56.5556 41.317 56.5336 41.3335 56.5171C41.3556 56.495 41.3803 56.484 41.4079 56.484H42.1676C42.1951 56.484 42.2171 56.495 42.2337 56.5171C42.2557 56.5336 42.2667 56.5556 42.2667 56.5831V62.1655C42.2667 62.193 42.2557 62.215 42.2337 62.2315C42.2171 62.2535 42.1951 62.2646 42.1676 62.2646H41.4079ZM46.8333 56.5831C46.8333 56.5556 46.8443 56.5336 46.8663 56.5171C46.8828 56.495 46.9049 56.484 46.9324 56.484H47.6921C47.7196 56.484 47.7444 56.495 47.7664 56.5171C47.7829 56.5336 47.7912 56.5556 47.7912 56.5831V62.1655C47.7912 62.193 47.7829 62.215 47.7664 62.2315C47.7444 62.2535 47.7196 62.2646 47.6921 62.2646H46.9572C46.9021 62.2646 46.8636 62.2425 46.8416 62.1985L44.4633 58.3008C44.4523 58.2843 44.4413 58.276 44.4303 58.276C44.4192 58.2815 44.4137 58.2953 44.4137 58.3173L44.4303 62.1655C44.4303 62.193 44.4192 62.215 44.3972 62.2315C44.3807 62.2535 44.3587 62.2646 44.3312 62.2646H43.5714C43.5439 62.2646 43.5219 62.2535 43.5054 62.2315C43.4833 62.215 43.4723 62.193 43.4723 62.1655V56.5831C43.4723 56.5556 43.4833 56.5336 43.5054 56.5171C43.5219 56.495 43.5439 56.484 43.5714 56.484H44.3064C44.3614 56.484 44.4 56.5061 44.422 56.5501L46.792 60.4478C46.803 60.4643 46.814 60.4698 46.825 60.4643C46.836 60.4643 46.8416 60.4533 46.8416 60.4313L46.8333 56.5831ZM50.9292 62.3306C50.5163 62.3306 50.153 62.2508 49.8392 62.0911C49.5254 61.926 49.2831 61.6948 49.1125 61.3975C48.9418 61.1002 48.8565 60.7589 48.8565 60.3735V58.3751C48.8565 57.9842 48.9418 57.6401 49.1125 57.3429C49.2831 57.0511 49.5254 56.8226 49.8392 56.6574C50.153 56.4978 50.5163 56.418 50.9292 56.418C51.3366 56.418 51.6972 56.4978 52.011 56.6574C52.3193 56.8171 52.5588 57.0346 52.7294 57.3098C52.9001 57.5851 52.9854 57.8961 52.9854 58.243V58.309C52.9854 58.3366 52.9772 58.3586 52.9606 58.3751C52.9386 58.3971 52.9138 58.4081 52.8863 58.4081H52.1349C52.1073 58.4081 52.0853 58.3971 52.0688 58.3751C52.0468 58.3586 52.0358 58.3366 52.0358 58.309V58.2677C52.0358 57.9705 51.9339 57.7255 51.7302 57.5328C51.532 57.3401 51.265 57.2438 50.9292 57.2438C50.5934 57.2438 50.3236 57.3456 50.1199 57.5493C49.9162 57.7475 49.8144 58.0117 49.8144 58.3421V60.4065C49.8144 60.7368 49.9217 61.0039 50.1364 61.2075C50.3512 61.4057 50.6292 61.5048 50.9705 61.5048C51.3008 61.5048 51.5623 61.4167 51.755 61.2406C51.9422 61.0699 52.0358 60.8332 52.0358 60.5304V60.0184C52.0358 59.9909 52.022 59.9771 51.9945 59.9771H50.9788C50.9512 59.9771 50.9265 59.9661 50.9044 59.9441C50.8879 59.9276 50.8797 59.9056 50.8797 59.878V59.2669C50.8797 59.2394 50.8879 59.2174 50.9044 59.2009C50.9265 59.1789 50.9512 59.1678 50.9788 59.1678H52.8863C52.9138 59.1678 52.9386 59.1789 52.9606 59.2009C52.9772 59.2174 52.9854 59.2394 52.9854 59.2669V60.324C52.9854 60.9571 52.801 61.4498 52.4321 61.8021C52.0578 62.1544 51.5568 62.3306 50.9292 62.3306Z" fill="white"/>
<path d="M28.6082 77.1753C28.5917 77.1918 28.5862 77.2083 28.5917 77.2248C28.6027 77.2413 28.6192 77.2496 28.6412 77.2496H31.8866C31.9251 77.2496 31.9582 77.2633 31.9857 77.2909C32.0187 77.3184 32.0352 77.3514 32.0352 77.39V78.5543C32.0352 78.5929 32.0187 78.6259 31.9857 78.6534C31.9582 78.681 31.9251 78.6947 31.8866 78.6947H26.5024C26.4584 78.6947 26.4226 78.681 26.3951 78.6534C26.3676 78.6259 26.3538 78.5929 26.3538 78.5543V77.4478C26.3538 77.3762 26.3786 77.3157 26.4281 77.2661C26.819 76.8862 27.2181 76.4706 27.6255 76.0192C28.0329 75.5677 28.2889 75.287 28.3935 75.1769C28.6137 74.9126 28.8394 74.6594 29.0707 74.4171C29.7973 73.6134 30.1607 73.016 30.1607 72.6252C30.1607 72.3444 30.0616 72.1132 29.8634 71.9315C29.6652 71.7553 29.4065 71.6673 29.0872 71.6673C28.7679 71.6673 28.5091 71.7553 28.3109 71.9315C28.1072 72.1132 28.0054 72.3527 28.0054 72.6499V72.9472C28.0054 72.9858 27.9916 73.0188 27.9641 73.0463C27.9366 73.0738 27.9035 73.0876 27.865 73.0876H26.4529C26.4144 73.0876 26.3813 73.0738 26.3538 73.0463C26.3208 73.0188 26.3043 72.9858 26.3043 72.9472V72.3857C26.3318 71.9563 26.4694 71.5737 26.7172 71.2378C26.9649 70.9075 27.2925 70.6543 27.6998 70.4781C28.1127 70.302 28.5752 70.2139 29.0872 70.2139C29.6542 70.2139 30.1469 70.3212 30.5653 70.5359C30.9837 70.7451 31.3058 71.0286 31.5315 71.3865C31.7627 71.7498 31.8783 72.149 31.8783 72.5839C31.8783 72.9197 31.793 73.2638 31.6223 73.6161C31.4572 73.9685 31.2067 74.3483 30.8709 74.7557C30.6231 75.064 30.3561 75.3723 30.0699 75.6806C29.7836 75.9834 29.3569 76.421 28.7899 76.9936L28.6082 77.1753ZM35.9247 78.8268C35.0439 78.8268 34.3502 78.5819 33.8437 78.0919C33.3317 77.6019 33.0757 76.933 33.0757 76.0852V72.9225C33.0757 72.0912 33.3317 71.4333 33.8437 70.9488C34.3502 70.4589 35.0439 70.2139 35.9247 70.2139C36.8 70.2139 37.4964 70.4589 38.0139 70.9488C38.5259 71.4333 38.7819 72.0912 38.7819 72.9225V76.0852C38.7819 76.933 38.5259 77.6019 38.0139 78.0919C37.4964 78.5819 36.8 78.8268 35.9247 78.8268ZM35.9247 77.3817C36.2825 77.3817 36.5661 77.2716 36.7753 77.0514C36.99 76.8312 37.0973 76.5367 37.0973 76.1678V72.8729C37.0973 72.5096 36.99 72.2178 36.7753 71.9976C36.5661 71.7774 36.2825 71.6673 35.9247 71.6673C35.5724 71.6673 35.2916 71.7774 35.0824 71.9976C34.8677 72.2178 34.7603 72.5096 34.7603 72.8729V76.1678C34.7603 76.5367 34.8677 76.8312 35.0824 77.0514C35.2916 77.2716 35.5724 77.3817 35.9247 77.3817ZM42.1346 77.1753C42.1181 77.1918 42.1154 77.2083 42.1264 77.2248C42.1319 77.2413 42.1484 77.2496 42.1759 77.2496H45.4213C45.4598 77.2496 45.4928 77.2633 45.5204 77.2909C45.5479 77.3184 45.5616 77.3514 45.5616 77.39V78.5543C45.5616 78.5929 45.5479 78.6259 45.5204 78.6534C45.4928 78.681 45.4598 78.6947 45.4213 78.6947H40.0289C39.9903 78.6947 39.9573 78.681 39.9298 78.6534C39.9022 78.6259 39.8885 78.5929 39.8885 78.5543V77.4478C39.8885 77.3762 39.9105 77.3157 39.9545 77.2661C40.3509 76.8862 40.7501 76.4706 41.1519 76.0192C41.5593 75.5677 41.8153 75.287 41.9199 75.1769C42.1456 74.9126 42.3741 74.6594 42.6053 74.4171C43.332 73.6134 43.6954 73.016 43.6954 72.6252C43.6954 72.3444 43.5963 72.1132 43.3981 71.9315C43.1944 71.7553 42.9329 71.6673 42.6136 71.6673C42.2943 71.6673 42.0355 71.7553 41.8373 71.9315C41.6392 72.1132 41.5401 72.3527 41.5401 72.6499V72.9472C41.5401 72.9858 41.5263 73.0188 41.4988 73.0463C41.4712 73.0738 41.4355 73.0876 41.3914 73.0876H39.9793C39.9408 73.0876 39.9077 73.0738 39.8802 73.0463C39.8527 73.0188 39.8389 72.9858 39.8389 72.9472V72.3857C39.861 71.9563 39.9958 71.5737 40.2436 71.2378C40.4913 70.9075 40.8216 70.6543 41.2345 70.4781C41.6474 70.302 42.1071 70.2139 42.6136 70.2139C43.1806 70.2139 43.6733 70.3212 44.0917 70.5359C44.5156 70.7451 44.8405 71.0286 45.0662 71.3865C45.2919 71.7498 45.4047 72.149 45.4047 72.5839C45.4047 72.9197 45.3222 73.2638 45.157 73.6161C44.9863 73.9685 44.7331 74.3483 44.3973 74.7557C44.1495 75.064 43.8825 75.3723 43.5963 75.6806C43.31 75.9834 42.8833 76.421 42.3163 76.9936L42.1346 77.1753ZM52.5891 75.0447C52.6276 75.0447 52.6634 75.0585 52.6965 75.086C52.724 75.1135 52.7377 75.1466 52.7377 75.1851V76.399C52.7377 76.4376 52.724 76.4706 52.6965 76.4981C52.6634 76.5256 52.6276 76.5394 52.5891 76.5394H52.0771C52.0386 76.5394 52.0193 76.5587 52.0193 76.5972V78.5543C52.0193 78.5929 52.0056 78.6259 51.978 78.6534C51.945 78.681 51.9092 78.6947 51.8707 78.6947H50.4751C50.431 78.6947 50.3953 78.681 50.3677 78.6534C50.3402 78.6259 50.3264 78.5929 50.3264 78.5543V76.5972C50.3264 76.5587 50.3072 76.5394 50.2686 76.5394H46.5939C46.5553 76.5394 46.5196 76.5256 46.4865 76.4981C46.459 76.4706 46.4452 76.4376 46.4452 76.399V75.4411C46.4452 75.3916 46.459 75.331 46.4865 75.2594L48.6418 70.4203C48.6749 70.3487 48.7299 70.313 48.807 70.313H50.3017C50.3567 70.313 50.3953 70.3267 50.4173 70.3542C50.4393 70.3818 50.4366 70.4231 50.409 70.4781L48.4106 74.9704C48.4051 74.9869 48.4051 75.0034 48.4106 75.02C48.4216 75.0365 48.4354 75.0447 48.4519 75.0447H50.2686C50.3072 75.0447 50.3264 75.0227 50.3264 74.9787V73.5005C50.3264 73.4565 50.3402 73.4207 50.3677 73.3932C50.3953 73.3656 50.431 73.3519 50.4751 73.3519H51.8707C51.9092 73.3519 51.945 73.3656 51.978 73.3932C52.0056 73.4207 52.0193 73.4565 52.0193 73.5005V74.9787C52.0193 75.0227 52.0386 75.0447 52.0771 75.0447H52.5891Z" fill="#252530"/>
</svg>
