<svg width="79" height="101" viewBox="0 0 79 101" fill="none" xmlns="http://www.w3.org/2000/svg">
<g clip-path="url(#clip0_154_2552)">
<path d="M7.26825 74.2371L39.8869 90.8355L71.2669 74.2371V9.33008H7.26825V74.2371Z" fill="white"/>
<path d="M71.928 9.57812L6.60809 75.3935L40.4654 92.157L71.928 76.0541V9.57812Z" fill="#F2F3F2"/>
<path d="M5.11981 30.9653V75.6405L6.27592 76.2186L38.8946 92.8169L39.8855 93.3124L40.8765 92.8169L72.339 76.2186L73.4951 75.6405V7.18262H5.11981V30.9653ZM7.26686 74.4018V9.32967H71.3481V74.4018L39.8855 91.0002L7.26686 74.4018Z" fill="#DCDEDC"/>
<path d="M39.3072 10.4032C39.6375 10.4032 39.9678 10.4032 40.2981 10.4858L39.3072 12.3851C37.8207 12.3025 36.4995 13.4586 36.4169 14.945C36.3343 16.4315 37.4904 17.7527 38.9768 17.8353H39.3072C39.9678 17.8353 40.6284 17.5876 41.1239 17.1747L42.1974 18.9914C41.3716 19.5694 40.3807 19.8998 39.3072 19.8998C36.6646 19.9823 34.435 18.0005 34.3524 15.3579C34.2698 12.7154 36.2517 10.4858 38.8943 10.4032H39.3072ZM42.6929 14.4496L43.9316 16.514L42.6929 18.4959L41.5368 16.514H39.142L40.3807 14.4496H42.6929ZM40.711 13.7063C40.711 13.376 40.7936 13.0457 40.9587 12.798C41.1239 12.5502 41.4542 12.3025 41.7019 12.1374L41.8671 12.0548C42.1974 11.8896 42.28 11.807 42.28 11.6419C42.28 11.4767 42.0323 11.3116 41.8671 11.3116C41.5368 11.3116 41.289 11.4767 41.1239 11.807L40.711 11.3941C40.7936 11.229 40.9587 11.0638 41.1239 10.8987C41.3716 10.7335 41.6194 10.7335 41.8671 10.7335C42.1148 10.7335 42.4452 10.8161 42.6103 10.9812C42.7755 11.1464 42.9406 11.3941 42.9406 11.6419C42.9406 12.0548 42.6929 12.3851 42.1974 12.5502L41.9497 12.7154C41.7019 12.8806 41.5368 12.9631 41.4542 13.2109H42.9406V13.7889L40.711 13.7063ZM39.3072 24.0287L47.1521 19.5695V7.18262H31.3796V19.4869L39.3072 24.0287Z" fill="#FF492C"/>
<path d="M75.0608 53.2627H3.54749L0.904968 59.0432L3.54749 64.8237H75.0608L77.6208 59.0432L75.0608 53.2627Z" fill="#23CCA2"/>
<path d="M14.9718 46.2344C14.9333 46.2509 14.9333 46.2674 14.9718 46.2839C15.5443 46.5812 15.8306 47.074 15.8306 47.7621C15.8306 48.3512 15.6297 48.7971 15.2278 49.0999C14.8314 49.3972 14.3084 49.5458 13.6588 49.5458H11.3053C11.2778 49.5458 11.253 49.5348 11.231 49.5128C11.2089 49.4908 11.1979 49.466 11.1979 49.4385V43.2946C11.1979 43.2671 11.2089 43.2423 11.231 43.2203C11.253 43.1983 11.2778 43.1872 11.3053 43.1872H13.5845C15.0213 43.1872 15.7398 43.768 15.7398 44.9297C15.7398 45.5352 15.4838 45.9702 14.9718 46.2344ZM12.5275 44.2855C12.4944 44.2855 12.4779 44.3021 12.4779 44.3351V45.7472C12.4779 45.7802 12.4944 45.7967 12.5275 45.7967H13.5845C13.8707 45.7967 14.0937 45.7279 14.2534 45.5903C14.4075 45.4582 14.4846 45.2792 14.4846 45.0535C14.4846 44.8168 14.4075 44.6296 14.2534 44.492C14.0937 44.3544 13.8707 44.2855 13.5845 44.2855H12.5275ZM13.6588 48.4393C13.9396 48.4393 14.157 48.3677 14.3112 48.2246C14.4708 48.0814 14.5506 47.886 14.5506 47.6382C14.5506 47.3905 14.4708 47.1951 14.3112 47.0519C14.157 46.9088 13.9368 46.8372 13.6505 46.8372H12.5275C12.4944 46.8372 12.4779 46.8537 12.4779 46.8868V48.3897C12.4779 48.4227 12.4944 48.4393 12.5275 48.4393H13.6588ZM19.4228 44.9875C19.4228 44.9544 19.4311 44.9269 19.4476 44.9049C19.4696 44.8884 19.4971 44.8801 19.5301 44.8801H20.5872C20.6202 44.8801 20.6477 44.8884 20.6697 44.9049C20.6918 44.9269 20.7028 44.9544 20.7028 44.9875V49.4385C20.7028 49.466 20.6918 49.4908 20.6697 49.5128C20.6477 49.5348 20.6202 49.5458 20.5872 49.5458H19.5301C19.4971 49.5458 19.4696 49.5348 19.4476 49.5128C19.4311 49.4908 19.4228 49.466 19.4228 49.4385V49.1247C19.4228 49.1081 19.4145 49.0999 19.398 49.0999C19.387 49.0944 19.376 49.0999 19.365 49.1164C19.1228 49.4467 18.7484 49.6119 18.2419 49.6119C17.7795 49.6119 17.3996 49.4715 17.1023 49.1907C16.805 48.9155 16.6564 48.5246 16.6564 48.0181V44.9875C16.6564 44.9544 16.6674 44.9269 16.6894 44.9049C16.7115 44.8884 16.7362 44.8801 16.7638 44.8801H17.8208C17.8483 44.8801 17.8731 44.8884 17.8951 44.9049C17.9171 44.9269 17.9281 44.9544 17.9281 44.9875V47.7043C17.9281 47.9465 17.9942 48.142 18.1263 48.2906C18.2529 48.4448 18.4318 48.5218 18.6631 48.5218C18.8723 48.5218 19.0429 48.4585 19.1751 48.3319C19.3072 48.2108 19.3898 48.0484 19.4228 47.8447V44.9875ZM23.5104 49.6119C23.1031 49.6119 22.748 49.5541 22.4452 49.4385C22.1424 49.3229 21.9084 49.1632 21.7433 48.9595C21.5726 48.7503 21.4873 48.5163 21.4873 48.2576V48.1667C21.4873 48.1337 21.4983 48.1062 21.5203 48.0842C21.5423 48.0677 21.5698 48.0594 21.6029 48.0594H22.6103C22.6379 48.0594 22.6626 48.0677 22.6847 48.0842C22.7067 48.1062 22.7177 48.1337 22.7177 48.1667V48.175C22.7177 48.3071 22.792 48.42 22.9407 48.5136C23.0893 48.6072 23.2737 48.654 23.4939 48.654C23.7031 48.654 23.871 48.6127 23.9977 48.5301C24.1243 48.4475 24.1876 48.3484 24.1876 48.2328C24.1876 48.1227 24.1325 48.0401 24.0224 47.9851C23.9123 47.93 23.7334 47.8722 23.4857 47.8117C23.2049 47.7401 22.9819 47.6713 22.8168 47.6052C22.4314 47.4676 22.1231 47.3024 21.8919 47.1097C21.6607 46.9171 21.5451 46.639 21.5451 46.2757C21.5451 45.8298 21.7185 45.4747 22.0653 45.2104C22.4121 44.9462 22.8746 44.814 23.4526 44.814C23.838 44.814 24.1766 44.8746 24.4684 44.9957C24.7601 45.1223 24.9859 45.2985 25.1455 45.5242C25.3052 45.7444 25.385 45.9977 25.385 46.2839C25.385 46.317 25.374 46.3418 25.352 46.3583C25.3354 46.3803 25.3107 46.3913 25.2776 46.3913H24.3032C24.2757 46.3913 24.2509 46.3803 24.2289 46.3583C24.2069 46.3418 24.1959 46.317 24.1959 46.2839C24.1959 46.1518 24.127 46.039 23.9894 45.9454C23.8573 45.8573 23.6784 45.8132 23.4526 45.8132C23.2544 45.8132 23.092 45.849 22.9654 45.9206C22.8333 45.9922 22.7672 46.0913 22.7672 46.2179C22.7672 46.339 22.8305 46.4298 22.9572 46.4904C23.0838 46.551 23.2902 46.617 23.5765 46.6886L23.8077 46.7464L24.0802 46.8207C24.5096 46.9473 24.8482 47.1097 25.096 47.3079C25.3437 47.5116 25.4676 47.8034 25.4676 48.1833C25.4676 48.6292 25.2914 48.9788 24.9391 49.232C24.5812 49.4853 24.105 49.6119 23.5104 49.6119ZM26.8962 44.3516C26.687 44.3516 26.5163 44.2828 26.3842 44.1452C26.2466 44.0075 26.1777 43.8369 26.1777 43.6332C26.1777 43.4185 26.2438 43.245 26.3759 43.1129C26.5081 42.9808 26.6815 42.9147 26.8962 42.9147C27.1054 42.9147 27.2788 42.9808 27.4164 43.1129C27.5486 43.245 27.6146 43.4185 27.6146 43.6332C27.6146 43.8369 27.5458 44.0075 27.4082 44.1452C27.2705 44.2828 27.0999 44.3516 26.8962 44.3516ZM26.3512 49.5458C26.3181 49.5458 26.2934 49.5348 26.2768 49.5128C26.2548 49.4908 26.2438 49.466 26.2438 49.4385V44.9792C26.2438 44.9462 26.2548 44.9186 26.2768 44.8966C26.2934 44.8746 26.3181 44.8636 26.3512 44.8636H27.4164C27.444 44.8636 27.4687 44.8746 27.4907 44.8966C27.5128 44.9186 27.5238 44.9462 27.5238 44.9792V49.4385C27.5238 49.466 27.5128 49.4908 27.4907 49.5128C27.4687 49.5348 27.444 49.5458 27.4164 49.5458H26.3512ZM30.9591 44.8058C31.4435 44.8058 31.8316 44.9544 32.1234 45.2517C32.4207 45.549 32.5693 45.9509 32.5693 46.4574V49.4385C32.5693 49.466 32.5611 49.4908 32.5446 49.5128C32.5226 49.5348 32.495 49.5458 32.462 49.5458H31.3967C31.3692 49.5458 31.3444 49.5348 31.3224 49.5128C31.3004 49.4908 31.2894 49.466 31.2894 49.4385V46.7216C31.2894 46.4794 31.2233 46.2812 31.0912 46.1271C30.9536 45.9784 30.7719 45.9041 30.5462 45.9041C30.3204 45.9041 30.1415 45.9784 30.0094 46.1271C29.8718 46.2812 29.803 46.4794 29.803 46.7216V49.4385C29.803 49.466 29.7919 49.4908 29.7699 49.5128C29.7479 49.5348 29.7231 49.5458 29.6956 49.5458H28.6303C28.5973 49.5458 28.5725 49.5348 28.556 49.5128C28.534 49.4908 28.523 49.466 28.523 49.4385V44.9875C28.523 44.9544 28.534 44.9269 28.556 44.9049C28.5725 44.8884 28.5973 44.8801 28.6303 44.8801H29.6956C29.7231 44.8801 29.7479 44.8884 29.7699 44.9049C29.7919 44.9269 29.803 44.9544 29.803 44.9875V45.3013C29.803 45.3233 29.8085 45.337 29.8195 45.3426C29.8305 45.3481 29.8387 45.3453 29.8442 45.3343C30.092 44.982 30.4636 44.8058 30.9591 44.8058ZM37.5984 46.7299C37.6314 46.9611 37.6424 47.2198 37.6314 47.5061C37.6259 47.5777 37.5874 47.6135 37.5158 47.6135H34.7081C34.6696 47.6135 34.6558 47.6272 34.6669 47.6548C34.6889 47.7759 34.7247 47.897 34.7742 48.0181C34.9283 48.3594 35.2477 48.5301 35.7321 48.5301C36.123 48.5246 36.4285 48.3677 36.6487 48.0594C36.6763 48.0209 36.7038 48.0016 36.7313 48.0016C36.7478 48.0016 36.7699 48.0126 36.7974 48.0346L37.4498 48.687C37.4828 48.7145 37.4993 48.7393 37.4993 48.7613C37.4993 48.7778 37.4855 48.8026 37.458 48.8356C37.2598 49.0834 37.0038 49.2761 36.69 49.4137C36.3707 49.5513 36.0239 49.6201 35.6495 49.6201C35.132 49.6201 34.6916 49.5018 34.3283 49.265C33.9704 49.0283 33.7117 48.698 33.552 48.2741C33.4254 47.9713 33.3621 47.5749 33.3621 47.085C33.3621 46.7491 33.4089 46.4546 33.5025 46.2014C33.6401 45.772 33.8823 45.4306 34.2292 45.1774C34.576 44.9241 34.9889 44.7975 35.4679 44.7975C36.0734 44.7975 36.5607 44.9737 36.9295 45.326C37.2929 45.6729 37.5158 46.1408 37.5984 46.7299ZM35.4761 45.9041C35.0963 45.9041 34.8458 46.083 34.7247 46.4409C34.7026 46.5179 34.6806 46.6143 34.6586 46.7299C34.6586 46.7629 34.6751 46.7794 34.7081 46.7794H36.2771C36.3157 46.7794 36.3294 46.7629 36.3184 46.7299C36.2854 46.5537 36.2689 46.4684 36.2689 46.4739C36.2138 46.2922 36.1175 46.1518 35.9799 46.0527C35.8477 45.9536 35.6798 45.9041 35.4761 45.9041ZM40.2244 49.6119C39.817 49.6119 39.4619 49.5541 39.1591 49.4385C38.8564 49.3229 38.6224 49.1632 38.4572 48.9595C38.2866 48.7503 38.2012 48.5163 38.2012 48.2576V48.1667C38.2012 48.1337 38.2122 48.1062 38.2343 48.0842C38.2563 48.0677 38.2838 48.0594 38.3168 48.0594H39.3243C39.3518 48.0594 39.3766 48.0677 39.3986 48.0842C39.4206 48.1062 39.4317 48.1337 39.4317 48.1667V48.175C39.4317 48.3071 39.506 48.42 39.6546 48.5136C39.8033 48.6072 39.9877 48.654 40.2079 48.654C40.4171 48.654 40.585 48.6127 40.7116 48.5301C40.8382 48.4475 40.9016 48.3484 40.9016 48.2328C40.9016 48.1227 40.8465 48.0401 40.7364 47.9851C40.6263 47.93 40.4474 47.8722 40.1996 47.8117C39.9189 47.7401 39.6959 47.6713 39.5307 47.6052C39.1454 47.4676 38.8371 47.3024 38.6059 47.1097C38.3746 46.9171 38.259 46.639 38.259 46.2757C38.259 45.8298 38.4324 45.4747 38.7793 45.2104C39.1261 44.9462 39.5886 44.814 40.1666 44.814C40.552 44.814 40.8905 44.8746 41.1823 44.9957C41.4741 45.1223 41.6998 45.2985 41.8595 45.5242C42.0191 45.7444 42.0989 45.9977 42.0989 46.2839C42.0989 46.317 42.0879 46.3418 42.0659 46.3583C42.0494 46.3803 42.0246 46.3913 41.9916 46.3913H41.0172C40.9896 46.3913 40.9649 46.3803 40.9428 46.3583C40.9208 46.3418 40.9098 46.317 40.9098 46.2839C40.9098 46.1518 40.841 46.039 40.7034 45.9454C40.5712 45.8573 40.3923 45.8132 40.1666 45.8132C39.9684 45.8132 39.806 45.849 39.6794 45.9206C39.5473 45.9922 39.4812 46.0913 39.4812 46.2179C39.4812 46.339 39.5445 46.4298 39.6711 46.4904C39.7977 46.551 40.0042 46.617 40.2905 46.6886L40.5217 46.7464L40.7942 46.8207C41.2236 46.9473 41.5622 47.1097 41.8099 47.3079C42.0577 47.5116 42.1815 47.8034 42.1815 48.1833C42.1815 48.6292 42.0054 48.9788 41.653 49.232C41.2952 49.4853 40.819 49.6119 40.2244 49.6119ZM44.7167 49.6119C44.3093 49.6119 43.9542 49.5541 43.6514 49.4385C43.3486 49.3229 43.1147 49.1632 42.9495 48.9595C42.7844 48.7503 42.7018 48.5163 42.7018 48.2576V48.1667C42.7018 48.1337 42.7128 48.1062 42.7348 48.0842C42.7568 48.0677 42.7816 48.0594 42.8091 48.0594H43.8166C43.8496 48.0594 43.8771 48.0677 43.8992 48.0842C43.9157 48.1062 43.9239 48.1337 43.9239 48.1667V48.175C43.9239 48.3071 43.9983 48.42 44.1469 48.5136C44.2955 48.6072 44.4827 48.654 44.7084 48.654C44.9121 48.654 45.0773 48.6127 45.2039 48.5301C45.336 48.4475 45.4021 48.3484 45.4021 48.2328C45.4021 48.1227 45.347 48.0401 45.2369 47.9851C45.1268 47.93 44.9479 47.8722 44.7002 47.8117C44.4139 47.7401 44.1882 47.6713 44.023 47.6052C43.6377 47.4676 43.3294 47.3024 43.0982 47.1097C42.8669 46.9171 42.7513 46.639 42.7513 46.2757C42.7513 45.8298 42.9275 45.4747 43.2798 45.2104C43.6267 44.9462 44.0891 44.814 44.6672 44.814C45.0525 44.814 45.3911 44.8746 45.6829 44.9957C45.9691 45.1223 46.1949 45.2985 46.36 45.5242C46.5197 45.7444 46.5995 45.9977 46.5995 46.2839C46.5995 46.317 46.5885 46.3418 46.5665 46.3583C46.5444 46.3803 46.5197 46.3913 46.4921 46.3913H45.5177C45.4847 46.3913 45.4599 46.3803 45.4434 46.3583C45.4214 46.3418 45.4104 46.317 45.4104 46.2839C45.4104 46.1518 45.3415 46.039 45.2039 45.9454C45.0663 45.8573 44.8874 45.8132 44.6672 45.8132C44.4635 45.8132 44.2983 45.849 44.1717 45.9206C44.0451 45.9922 43.9817 46.0913 43.9817 46.2179C43.9817 46.339 44.0451 46.4298 44.1717 46.4904C44.2928 46.551 44.4992 46.617 44.791 46.6886C44.8571 46.7051 44.9314 46.7244 45.014 46.7464C45.1021 46.7684 45.1929 46.7932 45.2865 46.8207C45.7159 46.9473 46.0572 47.1097 46.3105 47.3079C46.5582 47.5116 46.6821 47.8034 46.6821 48.1833C46.6821 48.6292 46.5032 48.9788 46.1453 49.232C45.793 49.4853 45.3168 49.6119 44.7167 49.6119ZM50.7202 49.5458C50.6541 49.5458 50.6128 49.5155 50.5963 49.455L48.986 43.3029L48.9778 43.2698C48.9778 43.2148 49.0108 43.1872 49.0769 43.1872H50.2082C50.2687 43.1872 50.3073 43.2175 50.3238 43.2781L51.1826 46.9776C51.1881 46.9996 51.1991 47.0106 51.2157 47.0106C51.2267 47.0106 51.2349 46.9996 51.2404 46.9776L52.0745 43.2863C52.091 43.2203 52.1295 43.1872 52.1901 43.1872H53.2884C53.36 43.1872 53.404 43.2175 53.4205 43.2781L54.3289 46.9776C54.3344 46.9941 54.3426 47.0051 54.3536 47.0106C54.3647 47.0106 54.3729 46.9996 54.3784 46.9776L55.2207 43.2863C55.2372 43.2203 55.2758 43.1872 55.3363 43.1872H56.4099C56.4924 43.1872 56.5255 43.2258 56.509 43.3029L55.0143 49.455C54.9978 49.5155 54.9565 49.5458 54.8904 49.5458H53.8086C53.7481 49.5458 53.7095 49.5155 53.693 49.455L52.7681 45.5242C52.7626 45.4967 52.7516 45.4829 52.7351 45.4829C52.7241 45.4829 52.7158 45.4967 52.7103 45.5242L51.8515 49.4467C51.835 49.5128 51.7937 49.5458 51.7276 49.5458H50.7202ZM57.888 44.3516C57.6843 44.3516 57.5137 44.2828 57.376 44.1452C57.2384 44.0075 57.1696 43.8369 57.1696 43.6332C57.1696 43.4185 57.2357 43.245 57.3678 43.1129C57.5054 42.9808 57.6788 42.9147 57.888 42.9147C58.1027 42.9147 58.2761 42.9808 58.4083 43.1129C58.5404 43.245 58.6065 43.4185 58.6065 43.6332C58.6065 43.8369 58.5376 44.0075 58.4 44.1452C58.2624 44.2828 58.0917 44.3516 57.888 44.3516ZM57.343 49.5458C57.3155 49.5458 57.2907 49.5348 57.2687 49.5128C57.2467 49.4908 57.2357 49.466 57.2357 49.4385V44.9792C57.2357 44.9462 57.2467 44.9186 57.2687 44.8966C57.2907 44.8746 57.3155 44.8636 57.343 44.8636H58.4083C58.4358 44.8636 58.4606 44.8746 58.4826 44.8966C58.5046 44.9186 58.5156 44.9462 58.5156 44.9792V49.4385C58.5156 49.466 58.5046 49.4908 58.4826 49.5128C58.4606 49.5348 58.4358 49.5458 58.4083 49.5458H57.343ZM62.1904 45.7967C62.1904 45.8243 62.1821 45.849 62.1656 45.8711C62.1436 45.8931 62.1161 45.9041 62.083 45.9041H61.216C61.1829 45.9041 61.1664 45.9178 61.1664 45.9454V47.8777C61.1664 48.0759 61.2077 48.2246 61.2903 48.3236C61.3729 48.4172 61.505 48.464 61.6867 48.464H61.9839C62.017 48.464 62.0445 48.475 62.0665 48.4971C62.083 48.5191 62.0913 48.5439 62.0913 48.5714V49.4385C62.0913 49.5045 62.0555 49.5431 61.9839 49.5541C61.7307 49.5651 61.549 49.5706 61.4389 49.5706C60.9379 49.5706 60.5636 49.488 60.3158 49.3229C60.0681 49.1577 59.9415 48.8439 59.936 48.3815V45.9454C59.936 45.9178 59.9195 45.9041 59.8864 45.9041H59.3662C59.3387 45.9041 59.3139 45.8931 59.2919 45.8711C59.2698 45.849 59.2588 45.8243 59.2588 45.7967V44.9875C59.2588 44.9544 59.2698 44.9269 59.2919 44.9049C59.3139 44.8884 59.3387 44.8801 59.3662 44.8801H59.8864C59.9195 44.8801 59.936 44.8636 59.936 44.8306V43.7488C59.936 43.7213 59.9442 43.6965 59.9608 43.6745C59.9828 43.6524 60.0103 43.6414 60.0433 43.6414H61.0591C61.0866 43.6414 61.1114 43.6524 61.1334 43.6745C61.1554 43.6965 61.1664 43.7213 61.1664 43.7488V44.8306C61.1664 44.8636 61.1829 44.8801 61.216 44.8801H62.083C62.1161 44.8801 62.1436 44.8884 62.1656 44.9049C62.1821 44.9269 62.1904 44.9544 62.1904 44.9875V45.7967ZM65.4027 44.8058C65.8872 44.8058 66.278 44.9544 66.5753 45.2517C66.8726 45.549 67.0212 45.9509 67.0212 46.4574V49.4385C67.0212 49.466 67.0102 49.4908 66.9882 49.5128C66.9662 49.5348 66.9387 49.5458 66.9056 49.5458H65.8486C65.8156 49.5458 65.7881 49.5348 65.766 49.5128C65.7495 49.4908 65.7413 49.466 65.7413 49.4385V46.7216C65.7413 46.4794 65.6725 46.2812 65.5348 46.1271C65.3972 45.9784 65.2155 45.9041 64.9898 45.9041C64.7696 45.9041 64.5907 45.9784 64.453 46.1271C64.3154 46.2812 64.2466 46.4794 64.2466 46.7216V49.4385C64.2466 49.466 64.2356 49.4908 64.2136 49.5128C64.1915 49.5348 64.1668 49.5458 64.1392 49.5458H63.074C63.0465 49.5458 63.0217 49.5348 62.9997 49.5128C62.9776 49.4908 62.9666 49.466 62.9666 49.4385V43.2946C62.9666 43.2671 62.9776 43.2423 62.9997 43.2203C63.0217 43.1983 63.0465 43.1872 63.074 43.1872H64.1392C64.1668 43.1872 64.1915 43.1983 64.2136 43.2203C64.2356 43.2423 64.2466 43.2671 64.2466 43.2946V45.3013C64.2466 45.3233 64.2521 45.337 64.2631 45.3426C64.2741 45.3481 64.2851 45.3453 64.2961 45.3343C64.5439 44.982 64.9127 44.8058 65.4027 44.8058ZM17.0776 35.0945C17.0776 35.122 17.0665 35.1468 17.0445 35.1688C17.0225 35.1909 16.995 35.2019 16.9619 35.2019H13.9891C13.9561 35.2019 13.9396 35.2184 13.9396 35.2514V36.6553C13.9396 36.6883 13.9561 36.7048 13.9891 36.7048H15.938C15.971 36.7048 15.9985 36.7131 16.0205 36.7296C16.0371 36.7516 16.0453 36.7791 16.0453 36.8122V37.6957C16.0453 37.7233 16.0371 37.748 16.0205 37.7701C15.9985 37.7921 15.971 37.8031 15.938 37.8031H13.9891C13.9561 37.8031 13.9396 37.8169 13.9396 37.8444V39.3143C13.9396 39.3473 13.9561 39.3638 13.9891 39.3638H16.9619C16.995 39.3638 17.0225 39.3748 17.0445 39.3969C17.0665 39.4189 17.0776 39.4437 17.0776 39.4712V40.3548C17.0776 40.3823 17.0665 40.4071 17.0445 40.4291C17.0225 40.4511 16.995 40.4621 16.9619 40.4621H12.7669C12.7394 40.4621 12.7146 40.4511 12.6926 40.4291C12.6706 40.4071 12.6596 40.3823 12.6596 40.3548V34.2109C12.6596 34.1834 12.6706 34.1586 12.6926 34.1366C12.7146 34.1146 12.7394 34.1036 12.7669 34.1036H16.9619C16.995 34.1036 17.0225 34.1146 17.0445 34.1366C17.0665 34.1586 17.0776 34.1834 17.0776 34.2109V35.0945ZM19.7448 35.7221C20.1412 35.7221 20.4936 35.7909 20.8019 35.9286C21.1102 36.0607 21.3496 36.2451 21.5203 36.4818C21.691 36.7186 21.7763 36.9828 21.7763 37.2746V40.3548C21.7763 40.3823 21.768 40.4071 21.7515 40.4291C21.7295 40.4511 21.702 40.4621 21.6689 40.4621H20.6119C20.5789 40.4621 20.5514 40.4511 20.5293 40.4291C20.5073 40.4071 20.4963 40.3823 20.4963 40.3548V40.0575C20.4963 40.0355 20.4908 40.0217 20.4798 40.0162C20.4688 40.0107 20.4578 40.0162 20.4468 40.0327C20.1935 40.3685 19.7834 40.5365 19.2163 40.5365C18.7429 40.5365 18.363 40.4208 18.0768 40.1896C17.785 39.9584 17.6391 39.6198 17.6391 39.1739C17.6391 38.706 17.8015 38.3426 18.1263 38.0839C18.4566 37.8306 18.9246 37.704 19.5301 37.704H20.455C20.4826 37.704 20.4963 37.6875 20.4963 37.6545V37.4563C20.4963 37.2581 20.4358 37.1012 20.3146 36.9856C20.1935 36.8755 20.0119 36.8204 19.7696 36.8204C19.5824 36.8204 19.4283 36.8534 19.3072 36.9195C19.1806 36.9856 19.1007 37.0792 19.0677 37.2003C19.0457 37.2663 19.0044 37.2966 18.9438 37.2911L17.8455 37.1507C17.774 37.1342 17.7409 37.1067 17.7464 37.0681C17.7685 36.8094 17.8703 36.5782 18.052 36.3745C18.2282 36.1708 18.4649 36.0111 18.7622 35.8955C19.0539 35.7799 19.3815 35.7221 19.7448 35.7221ZM19.5632 39.5785C19.8219 39.5785 20.0421 39.5097 20.2238 39.3721C20.4055 39.2345 20.4963 39.0555 20.4963 38.8353V38.5133C20.4963 38.4802 20.4826 38.4637 20.455 38.4637H19.8027C19.5274 38.4637 19.3127 38.516 19.1585 38.6206C19.0044 38.7197 18.9273 38.8656 18.9273 39.0583C18.9273 39.2179 18.9851 39.3446 19.1007 39.4382C19.2163 39.5317 19.3705 39.5785 19.5632 39.5785ZM24.5427 40.5282C24.1353 40.5282 23.7802 40.4704 23.4774 40.3548C23.1746 40.2392 22.9407 40.0795 22.7755 39.8758C22.6103 39.6666 22.5278 39.4327 22.5278 39.1739V39.0831C22.5278 39.05 22.5388 39.0225 22.5608 39.0005C22.5773 38.984 22.6021 38.9757 22.6351 38.9757H23.6426C23.6701 38.9757 23.6949 38.984 23.7169 39.0005C23.7389 39.0225 23.7499 39.05 23.7499 39.0831V39.0913C23.7499 39.2235 23.8242 39.3363 23.9729 39.4299C24.1215 39.5235 24.3087 39.5703 24.5344 39.5703C24.7381 39.5703 24.9033 39.529 25.0299 39.4464C25.1565 39.3638 25.2198 39.2647 25.2198 39.1491C25.2198 39.039 25.1675 38.9565 25.0629 38.9014C24.9528 38.8463 24.7739 38.7885 24.5262 38.728C24.2399 38.6564 24.0142 38.5876 23.849 38.5215C23.4637 38.3839 23.1554 38.2187 22.9241 38.0261C22.6929 37.8334 22.5773 37.5554 22.5773 37.192C22.5773 36.7461 22.7535 36.391 23.1058 36.1267C23.4526 35.8625 23.9123 35.7304 24.4849 35.7304C24.8757 35.7304 25.2143 35.7909 25.5006 35.912C25.7924 36.0387 26.0181 36.2148 26.1777 36.4405C26.3429 36.6608 26.4255 36.914 26.4255 37.2003C26.4255 37.2333 26.4145 37.2581 26.3924 37.2746C26.3704 37.2966 26.3429 37.3076 26.3099 37.3076H25.3437C25.3107 37.3076 25.2831 37.2966 25.2611 37.2746C25.2391 37.2581 25.2281 37.2333 25.2281 37.2003C25.2281 37.0681 25.162 36.9553 25.0299 36.8617C24.8923 36.7736 24.7106 36.7296 24.4849 36.7296C24.2867 36.7296 24.1243 36.7654 23.9977 36.8369C23.871 36.9085 23.8077 37.0076 23.8077 37.1342C23.8077 37.2553 23.8683 37.3462 23.9894 37.4067C24.116 37.4673 24.3252 37.5333 24.617 37.6049C24.6831 37.6214 24.7574 37.6407 24.84 37.6627C24.928 37.6847 25.0189 37.7095 25.1125 37.737C25.5419 37.8637 25.8805 38.0261 26.1282 38.2243C26.3759 38.4279 26.4998 38.7197 26.4998 39.0996C26.4998 39.5455 26.3236 39.8951 25.9713 40.1483C25.619 40.4016 25.1428 40.5282 24.5427 40.5282ZM27.9284 35.2679C27.7247 35.2679 27.5541 35.1991 27.4164 35.0615C27.2788 34.9238 27.21 34.7532 27.21 34.5495C27.21 34.3348 27.276 34.1614 27.4082 34.0292C27.5458 33.8971 27.7192 33.8311 27.9284 33.8311C28.1431 33.8311 28.3165 33.8971 28.4487 34.0292C28.5808 34.1614 28.6469 34.3348 28.6469 34.5495C28.6469 34.7532 28.578 34.9238 28.4404 35.0615C28.3083 35.1991 28.1376 35.2679 27.9284 35.2679ZM27.3834 40.4621C27.3559 40.4621 27.3311 40.4511 27.3091 40.4291C27.2871 40.4071 27.276 40.3823 27.276 40.3548V35.8955C27.276 35.8625 27.2871 35.835 27.3091 35.8129C27.3311 35.7909 27.3559 35.7799 27.3834 35.7799H28.4487C28.4762 35.7799 28.501 35.7909 28.523 35.8129C28.545 35.835 28.556 35.8625 28.556 35.8955V40.3548C28.556 40.3823 28.545 40.4071 28.523 40.4291C28.501 40.4511 28.4762 40.4621 28.4487 40.4621H27.3834ZM33.6924 37.6462C33.7255 37.8774 33.7365 38.1362 33.7255 38.4224C33.7199 38.494 33.6814 38.5298 33.6098 38.5298H30.8022C30.7636 38.5298 30.7499 38.5436 30.7609 38.5711C30.7829 38.6922 30.8159 38.8133 30.86 38.9344C31.0196 39.2758 31.3417 39.4464 31.8261 39.4464C32.2115 39.4409 32.517 39.284 32.7428 38.9757C32.7703 38.9372 32.7978 38.9179 32.8253 38.9179C32.8419 38.9179 32.8639 38.9289 32.8914 38.9509L33.5438 39.6033C33.5713 39.6308 33.5851 39.6556 33.5851 39.6776C33.5851 39.6942 33.5741 39.7189 33.552 39.752C33.3538 39.9997 33.0979 40.1924 32.7841 40.33C32.4647 40.4676 32.1179 40.5365 31.7436 40.5365C31.2261 40.5365 30.7856 40.4181 30.4223 40.1814C30.0645 39.9446 29.8057 39.6143 29.6461 39.1904C29.5194 38.8876 29.4561 38.4913 29.4561 38.0013C29.4561 37.6655 29.5002 37.3709 29.5882 37.1177C29.7314 36.6883 29.9764 36.347 30.3232 36.0937C30.67 35.8405 31.0829 35.7139 31.5619 35.7139C32.1675 35.7139 32.6547 35.89 33.0235 36.2424C33.3869 36.5892 33.6098 37.0571 33.6924 37.6462ZM31.5701 36.8204C31.1903 36.8204 30.9398 36.9993 30.8187 37.3572C30.7967 37.4342 30.7746 37.5306 30.7526 37.6462C30.7526 37.6792 30.7691 37.6957 30.8022 37.6957H32.3712C32.4097 37.6957 32.4207 37.6792 32.4042 37.6462C32.3767 37.47 32.3629 37.3847 32.3629 37.3902C32.3078 37.2085 32.2115 37.0681 32.0739 36.9691C31.9417 36.87 31.7738 36.8204 31.5701 36.8204ZM36.3102 40.5282C35.9083 40.5282 35.556 40.4704 35.2532 40.3548C34.9504 40.2392 34.7164 40.0795 34.5512 39.8758C34.3806 39.6666 34.2952 39.4327 34.2952 39.1739V39.0831C34.2952 39.05 34.3063 39.0225 34.3283 39.0005C34.3503 38.984 34.3751 38.9757 34.4026 38.9757H35.4183C35.4458 38.9757 35.4706 38.984 35.4926 39.0005C35.5147 39.0225 35.5257 39.05 35.5257 39.0831V39.0913C35.5257 39.2235 35.6 39.3363 35.7486 39.4299C35.8973 39.5235 36.0817 39.5703 36.3019 39.5703C36.5111 39.5703 36.679 39.529 36.8056 39.4464C36.9323 39.3638 36.9956 39.2647 36.9956 39.1491C36.9956 39.039 36.9405 38.9565 36.8304 38.9014C36.7203 38.8463 36.5414 38.7885 36.2937 38.728C36.0129 38.6564 35.7899 38.5876 35.6248 38.5215C35.2339 38.3839 34.9256 38.2187 34.6999 38.0261C34.4687 37.8334 34.3531 37.5554 34.3531 37.192C34.3531 36.7461 34.5265 36.391 34.8733 36.1267C35.2201 35.8625 35.6826 35.7304 36.2606 35.7304C36.646 35.7304 36.9846 35.7909 37.2763 35.912C37.5681 36.0387 37.7938 36.2148 37.9535 36.4405C38.1131 36.6608 38.193 36.914 38.193 37.2003C38.193 37.2333 38.182 37.2581 38.1599 37.2746C38.1379 37.2966 38.1131 37.3076 38.0856 37.3076H37.1112C37.0837 37.3076 37.0589 37.2966 37.0369 37.2746C37.0148 37.2581 37.0038 37.2333 37.0038 37.2003C37.0038 37.0681 36.935 36.9553 36.7974 36.8617C36.6653 36.7736 36.4863 36.7296 36.2606 36.7296C36.0624 36.7296 35.8973 36.7654 35.7651 36.8369C35.6385 36.9085 35.5752 37.0076 35.5752 37.1342C35.5752 37.2553 35.6385 37.3462 35.7651 37.4067C35.8863 37.4673 36.0927 37.5333 36.3845 37.6049L36.6157 37.6627L36.8882 37.737C37.3176 37.8637 37.6562 38.0261 37.9039 38.2243C38.1517 38.4279 38.2755 38.7197 38.2755 39.0996C38.2755 39.5455 38.0994 39.8951 37.747 40.1483C37.3892 40.4016 36.9102 40.5282 36.3102 40.5282ZM41.6861 36.7131C41.6861 36.7406 41.675 36.7654 41.653 36.7874C41.631 36.8094 41.6035 36.8204 41.5704 36.8204H40.7034C40.6703 36.8204 40.6538 36.8342 40.6538 36.8617V38.794C40.6538 38.9922 40.6951 39.1409 40.7777 39.24C40.8603 39.3336 40.9924 39.3804 41.1741 39.3804H41.4713C41.5044 39.3804 41.5319 39.3914 41.5539 39.4134C41.5759 39.4354 41.587 39.4602 41.587 39.4877V40.3548C41.587 40.4208 41.5484 40.4594 41.4713 40.4704C41.2181 40.4814 41.0364 40.4869 40.9263 40.4869C40.4253 40.4869 40.051 40.4043 39.8033 40.2392C39.5555 40.074 39.4289 39.7602 39.4234 39.2978V36.8617C39.4234 36.8342 39.4069 36.8204 39.3738 36.8204H38.8536C38.8261 36.8204 38.8013 36.8094 38.7793 36.7874C38.7573 36.7654 38.7462 36.7406 38.7462 36.7131V35.9038C38.7462 35.8708 38.7573 35.8432 38.7793 35.8212C38.8013 35.8047 38.8261 35.7964 38.8536 35.7964H39.3738C39.4069 35.7964 39.4234 35.7799 39.4234 35.7469V34.6651C39.4234 34.6376 39.4344 34.6128 39.4564 34.5908C39.4729 34.5688 39.4977 34.5577 39.5307 34.5577H40.5465C40.5795 34.5577 40.6043 34.5688 40.6208 34.5908C40.6428 34.6128 40.6538 34.6376 40.6538 34.6651V35.7469C40.6538 35.7799 40.6703 35.7964 40.7034 35.7964H41.5704C41.6035 35.7964 41.631 35.8047 41.653 35.8212C41.675 35.8432 41.6861 35.8708 41.6861 35.9038V36.7131ZM48.7383 34.1036C48.7713 34.1036 48.7988 34.1146 48.8209 34.1366C48.8429 34.1586 48.8539 34.1834 48.8539 34.2109V35.1028C48.8539 35.1358 48.8429 35.1606 48.8209 35.1771C48.7988 35.1991 48.7713 35.2101 48.7383 35.2101H47.1115C47.084 35.2101 47.0702 35.2266 47.0702 35.2597V40.3548C47.0702 40.3823 47.0592 40.4071 47.0372 40.4291C47.0151 40.4511 46.9904 40.4621 46.9628 40.4621H45.8976C45.87 40.4621 45.8453 40.4511 45.8233 40.4291C45.8012 40.4071 45.7902 40.3823 45.7902 40.3548V35.2597C45.7902 35.2266 45.7737 35.2101 45.7407 35.2101H44.1634C44.1304 35.2101 44.1056 35.1991 44.0891 35.1771C44.0671 35.1606 44.0561 35.1358 44.0561 35.1028V34.2109C44.0561 34.1834 44.0671 34.1586 44.0891 34.1366C44.1056 34.1146 44.1304 34.1036 44.1634 34.1036H48.7383ZM50.8853 40.5365C50.3789 40.5365 49.9439 40.4016 49.5806 40.1318C49.2172 39.8676 48.9668 39.5042 48.8291 39.0418C48.7465 38.761 48.7053 38.4527 48.7053 38.1169C48.7053 37.7591 48.7465 37.4398 48.8291 37.159C48.9723 36.7076 49.2255 36.3552 49.5889 36.102C49.9522 35.8487 50.3871 35.7221 50.8936 35.7221C51.3891 35.7221 51.813 35.846 52.1653 36.0937C52.5176 36.347 52.7654 36.6993 52.9085 37.1507C53.0076 37.4535 53.0572 37.7701 53.0572 38.1004C53.0572 38.4252 53.0131 38.7307 52.925 39.017C52.7929 39.4905 52.5479 39.8621 52.1901 40.1318C51.8267 40.4016 51.3918 40.5365 50.8853 40.5365ZM50.8853 39.4382C51.0835 39.4382 51.2542 39.3776 51.3973 39.2565C51.535 39.1354 51.6341 38.9675 51.6946 38.7528C51.7442 38.5601 51.7689 38.3481 51.7689 38.1169C51.7689 37.8637 51.7442 37.649 51.6946 37.4728C51.6285 37.2691 51.5239 37.1094 51.3808 36.9938C51.2432 36.8782 51.0753 36.8204 50.8771 36.8204C50.6679 36.8204 50.4972 36.8782 50.3651 36.9938C50.2275 37.1094 50.1284 37.2691 50.0678 37.4728C50.0183 37.6214 49.9935 37.8361 49.9935 38.1169C49.9935 38.3922 50.0155 38.6041 50.0596 38.7528C50.1201 38.9675 50.222 39.1354 50.3651 39.2565C50.5082 39.3776 50.6816 39.4382 50.8853 39.4382ZM55.8896 40.4621C55.8621 40.4621 55.8373 40.4511 55.8153 40.4291C55.7933 40.4071 55.7823 40.3823 55.7823 40.3548V34.2109C55.7823 34.1834 55.7933 34.1586 55.8153 34.1366C55.8373 34.1146 55.8621 34.1036 55.8896 34.1036H58.1605C58.6175 34.1036 59.0166 34.1834 59.3579 34.343C59.6993 34.5027 59.9635 34.7284 60.1507 35.0202C60.3379 35.312 60.4315 35.6478 60.4315 36.0277V38.538C60.4315 38.9179 60.3379 39.2537 60.1507 39.5455C59.9635 39.8373 59.6993 40.063 59.3579 40.2227C59.0166 40.3823 58.6175 40.4621 58.1605 40.4621H55.8896ZM57.0622 39.3143C57.0622 39.3473 57.076 39.3638 57.1035 39.3638H58.2101C58.4853 39.3638 58.7083 39.2703 58.879 39.0831C59.0551 38.8959 59.146 38.6454 59.1515 38.3316V36.2424C59.1515 35.9231 59.0662 35.6698 58.8955 35.4826C58.7193 35.2955 58.4853 35.2019 58.1936 35.2019H57.1035C57.076 35.2019 57.0622 35.2184 57.0622 35.2514V39.3143ZM63.3713 40.5365C62.8648 40.5365 62.4299 40.4016 62.0665 40.1318C61.7032 39.8676 61.4554 39.5042 61.3233 39.0418C61.2352 38.761 61.1912 38.4527 61.1912 38.1169C61.1912 37.7591 61.2352 37.4398 61.3233 37.159C61.4609 36.7076 61.7114 36.3552 62.0748 36.102C62.4381 35.8487 62.8758 35.7221 63.3878 35.7221C63.8833 35.7221 64.3072 35.846 64.6595 36.0937C65.0063 36.347 65.2541 36.6993 65.4027 37.1507C65.4963 37.4535 65.5431 37.7701 65.5431 38.1004C65.5431 38.4252 65.5018 38.7307 65.4192 39.017C65.2871 39.4905 65.0393 39.8621 64.676 40.1318C64.3182 40.4016 63.8833 40.5365 63.3713 40.5365ZM63.3713 39.4382C63.575 39.4382 63.7456 39.3776 63.8833 39.2565C64.0209 39.1354 64.12 38.9675 64.1805 38.7528C64.2301 38.5601 64.2549 38.3481 64.2549 38.1169C64.2549 37.8637 64.2301 37.649 64.1805 37.4728C64.1145 37.2691 64.0126 37.1094 63.875 36.9938C63.7374 36.8782 63.5667 36.8204 63.363 36.8204C63.1593 36.8204 62.9886 36.8782 62.851 36.9938C62.7134 37.1094 62.6143 37.2691 62.5537 37.4728C62.5097 37.6214 62.4877 37.8361 62.4877 38.1169C62.4877 38.3922 62.5069 38.6041 62.5455 38.7528C62.606 38.9675 62.7079 39.1354 62.851 39.2565C62.9942 39.3776 63.1676 39.4382 63.3713 39.4382Z" fill="#252530"/>
<path d="M27.9452 62.3287C27.5158 62.3287 27.1414 62.2599 26.8221 62.1222C26.5028 61.9846 26.2551 61.7919 26.0789 61.5442C25.9083 61.2964 25.8229 61.0047 25.8229 60.6688V60.4624C25.8229 60.4349 25.8339 60.4101 25.856 60.3881C25.8725 60.3715 25.8945 60.3633 25.922 60.3633H26.657C26.6845 60.3633 26.7093 60.3715 26.7313 60.3881C26.7478 60.4101 26.7561 60.4349 26.7561 60.4624V60.6193C26.7561 60.8725 26.8689 61.0817 27.0947 61.2469C27.3204 61.4175 27.6287 61.5029 28.0195 61.5029C28.3554 61.5029 28.6086 61.4313 28.7793 61.2882C28.9499 61.145 29.0353 60.9606 29.0353 60.7349C29.0353 60.5807 28.9885 60.4486 28.8949 60.3385C28.8013 60.2339 28.6692 60.1376 28.4985 60.0495C28.3223 59.9614 28.0608 59.8513 27.714 59.7192C27.3231 59.576 27.0066 59.4412 26.7643 59.3145C26.5221 59.1879 26.3212 59.0145 26.1615 58.7943C25.9964 58.5796 25.9138 58.3098 25.9138 57.985C25.9138 57.5006 26.0899 57.1179 26.4423 56.8372C26.7946 56.5564 27.2653 56.416 27.8544 56.416C28.2673 56.416 28.6334 56.4876 28.9527 56.6307C29.2665 56.7739 29.5115 56.9748 29.6876 57.2335C29.8638 57.4868 29.9519 57.7813 29.9519 58.1171V58.2575C29.9519 58.2851 29.9409 58.3098 29.9188 58.3318C29.9023 58.3484 29.8803 58.3566 29.8528 58.3566H29.1096C29.082 58.3566 29.06 58.3484 29.0435 58.3318C29.0215 58.3098 29.0105 58.2851 29.0105 58.2575V58.1667C29.0105 57.9079 28.9059 57.6905 28.6967 57.5143C28.482 57.3326 28.1874 57.2418 27.8131 57.2418C27.5103 57.2418 27.2763 57.3051 27.1112 57.4317C26.9405 57.5584 26.8552 57.7373 26.8552 57.9685C26.8552 58.1337 26.8992 58.2685 26.9873 58.3731C27.0754 58.4777 27.2075 58.5713 27.3837 58.6539C27.5598 58.742 27.8324 58.8521 28.2012 58.9842C28.5921 59.1329 28.9059 59.2677 29.1426 59.3889C29.3738 59.51 29.5748 59.6779 29.7454 59.8926C29.9106 60.1128 29.9932 60.3853 29.9932 60.7101C29.9932 61.2056 29.8087 61.5992 29.4399 61.891C29.0765 62.1828 28.5783 62.3287 27.9452 62.3287ZM33.2798 56.4738C33.6266 56.4738 33.9322 56.5454 34.1964 56.6885C34.4607 56.8317 34.6644 57.0326 34.8075 57.2913C34.9562 57.5556 35.0305 57.8584 35.0305 58.1997C35.0305 58.5355 34.9562 58.8328 34.8075 59.0916C34.6589 59.3503 34.4497 59.5485 34.1799 59.6861C33.9047 59.8293 33.5881 59.9008 33.2303 59.9008H31.909C31.8815 59.9008 31.8677 59.9146 31.8677 59.9421V62.1635C31.8677 62.191 31.8595 62.2131 31.8429 62.2296C31.8209 62.2516 31.7961 62.2626 31.7686 62.2626H31.0089C30.9814 62.2626 30.9593 62.2516 30.9428 62.2296C30.9208 62.2131 30.9098 62.191 30.9098 62.1635V56.5729C30.9098 56.5454 30.9208 56.5206 30.9428 56.4986C30.9593 56.4821 30.9814 56.4738 31.0089 56.4738H33.2798ZM33.1394 59.1246C33.4202 59.1246 33.6459 59.042 33.8166 58.8769C33.9872 58.7117 34.0726 58.4943 34.0726 58.2245C34.0726 57.9492 33.9872 57.7263 33.8166 57.5556C33.6459 57.3849 33.4202 57.2996 33.1394 57.2996H31.909C31.8815 57.2996 31.8677 57.3134 31.8677 57.3409V59.0833C31.8677 59.1108 31.8815 59.1246 31.909 59.1246H33.1394ZM39.1181 62.2626C39.0631 62.2626 39.0245 62.2378 39.0025 62.1883L37.9125 59.81C37.9015 59.788 37.885 59.777 37.8629 59.777H36.872C36.8445 59.777 36.8307 59.7907 36.8307 59.8183V62.1635C36.8307 62.191 36.8197 62.2131 36.7977 62.2296C36.7812 62.2516 36.7591 62.2626 36.7316 62.2626H35.9719C35.9444 62.2626 35.9223 62.2516 35.9058 62.2296C35.8838 62.2131 35.8728 62.191 35.8728 62.1635V56.5812C35.8728 56.5536 35.8838 56.5316 35.9058 56.5151C35.9223 56.4931 35.9444 56.4821 35.9719 56.4821H38.2428C38.5786 56.4821 38.8759 56.5509 39.1346 56.6885C39.3934 56.8317 39.5943 57.0299 39.7375 57.2831C39.8806 57.5418 39.9522 57.8364 39.9522 58.1667C39.9522 58.5466 39.8558 58.8686 39.6632 59.1329C39.465 59.4026 39.1925 59.5898 38.8456 59.6944C38.8346 59.6944 38.8264 59.6999 38.8208 59.7109C38.8153 59.7219 38.8153 59.7329 38.8208 59.7439L39.9852 62.147C39.9962 62.169 40.0017 62.1855 40.0017 62.1965C40.0017 62.2406 39.9714 62.2626 39.9109 62.2626H39.1181ZM36.872 57.3079C36.8445 57.3079 36.8307 57.3216 36.8307 57.3492V58.9925C36.8307 59.02 36.8445 59.0338 36.872 59.0338H38.1107C38.3749 59.0338 38.5869 58.9539 38.7465 58.7943C38.9117 58.6401 38.9943 58.4337 38.9943 58.1749C38.9943 57.9162 38.9117 57.707 38.7465 57.5473C38.5869 57.3877 38.3749 57.3079 38.1107 57.3079H36.872ZM41.034 62.2626C41.0064 62.2626 40.9817 62.2516 40.9596 62.2296C40.9431 62.2131 40.9349 62.191 40.9349 62.1635V56.5812C40.9349 56.5536 40.9431 56.5316 40.9596 56.5151C40.9817 56.4931 41.0064 56.4821 41.034 56.4821H41.7937C41.8212 56.4821 41.8432 56.4931 41.8598 56.5151C41.8818 56.5316 41.8928 56.5536 41.8928 56.5812V62.1635C41.8928 62.191 41.8818 62.2131 41.8598 62.2296C41.8432 62.2516 41.8212 62.2626 41.7937 62.2626H41.034ZM46.4594 56.5812C46.4594 56.5536 46.4704 56.5316 46.4924 56.5151C46.5089 56.4931 46.531 56.4821 46.5585 56.4821H47.3182C47.3457 56.4821 47.3705 56.4931 47.3925 56.5151C47.409 56.5316 47.4173 56.5536 47.4173 56.5812V62.1635C47.4173 62.191 47.409 62.2131 47.3925 62.2296C47.3705 62.2516 47.3457 62.2626 47.3182 62.2626H46.5833C46.5282 62.2626 46.4897 62.2406 46.4676 62.1965L44.0894 58.2988C44.0784 58.2823 44.0674 58.274 44.0563 58.274C44.0453 58.2795 44.0398 58.2933 44.0398 58.3153L44.0563 62.1635C44.0563 62.191 44.0453 62.2131 44.0233 62.2296C44.0068 62.2516 43.9848 62.2626 43.9573 62.2626H43.1975C43.17 62.2626 43.148 62.2516 43.1315 62.2296C43.1094 62.2131 43.0984 62.191 43.0984 62.1635V56.5812C43.0984 56.5536 43.1094 56.5316 43.1315 56.5151C43.148 56.4931 43.17 56.4821 43.1975 56.4821H43.9325C43.9875 56.4821 44.0261 56.5041 44.0481 56.5481L46.4181 60.4459C46.4291 60.4624 46.4401 60.4679 46.4511 60.4624C46.4621 60.4624 46.4676 60.4514 46.4676 60.4293L46.4594 56.5812ZM50.5553 62.3287C50.1424 62.3287 49.7791 62.2488 49.4653 62.0892C49.1515 61.924 48.9092 61.6928 48.7386 61.3955C48.5679 61.0982 48.4826 60.7569 48.4826 60.3715V58.3731C48.4826 57.9823 48.5679 57.6382 48.7386 57.3409C48.9092 57.0491 49.1515 56.8207 49.4653 56.6555C49.7791 56.4958 50.1424 56.416 50.5553 56.416C50.9627 56.416 51.3233 56.4958 51.6371 56.6555C51.9454 56.8151 52.1849 57.0326 52.3555 57.3079C52.5262 57.5831 52.6115 57.8942 52.6115 58.241V58.3071C52.6115 58.3346 52.6033 58.3566 52.5867 58.3731C52.5647 58.3952 52.5399 58.4062 52.5124 58.4062H51.761C51.7334 58.4062 51.7114 58.3952 51.6949 58.3731C51.6729 58.3566 51.6619 58.3346 51.6619 58.3071V58.2658C51.6619 57.9685 51.56 57.7235 51.3563 57.5308C51.1581 57.3381 50.8911 57.2418 50.5553 57.2418C50.2195 57.2418 49.9497 57.3437 49.746 57.5473C49.5423 57.7455 49.4405 58.0098 49.4405 58.3401V60.4046C49.4405 60.7349 49.5478 61.0019 49.7625 61.2056C49.9773 61.4038 50.2553 61.5029 50.5966 61.5029C50.9269 61.5029 51.1884 61.4148 51.3811 61.2386C51.5683 61.068 51.6619 60.8312 51.6619 60.5284V60.0165C51.6619 59.9889 51.6481 59.9752 51.6206 59.9752H50.6049C50.5773 59.9752 50.5526 59.9642 50.5305 59.9421C50.514 59.9256 50.5058 59.9036 50.5058 59.8761V59.265C50.5058 59.2375 50.514 59.2154 50.5305 59.1989C50.5526 59.1769 50.5773 59.1659 50.6049 59.1659H52.5124C52.5399 59.1659 52.5647 59.1769 52.5867 59.1989C52.6033 59.2154 52.6115 59.2375 52.6115 59.265V60.322C52.6115 60.9551 52.4271 61.4478 52.0582 61.8002C51.6839 62.1525 51.1829 62.3287 50.5553 62.3287Z" fill="#242530"/>
<path d="M28.2363 77.1753C28.2197 77.1918 28.2142 77.2083 28.2197 77.2248C28.2308 77.2413 28.2473 77.2496 28.2693 77.2496H31.5146C31.5532 77.2496 31.5862 77.2633 31.6137 77.2909C31.6468 77.3184 31.6633 77.3514 31.6633 77.39V78.5543C31.6633 78.5929 31.6468 78.6259 31.6137 78.6534C31.5862 78.681 31.5532 78.6947 31.5146 78.6947H26.1305C26.0865 78.6947 26.0507 78.681 26.0231 78.6534C25.9956 78.6259 25.9819 78.5929 25.9819 78.5543V77.4478C25.9819 77.3762 26.0066 77.3157 26.0562 77.2661C26.4471 76.8862 26.8462 76.4706 27.2536 76.0192C27.661 75.5677 27.917 75.287 28.0216 75.1769C28.2418 74.9126 28.4675 74.6594 28.6987 74.4171C29.4254 73.6134 29.7887 73.016 29.7887 72.6252C29.7887 72.3444 29.6896 72.1132 29.4915 71.9315C29.2933 71.7553 29.0345 71.6673 28.7152 71.6673C28.3959 71.6673 28.1372 71.7553 27.939 71.9315C27.7353 72.1132 27.6334 72.3527 27.6334 72.6499V72.9472C27.6334 72.9858 27.6197 73.0188 27.5921 73.0463C27.5646 73.0738 27.5316 73.0876 27.4931 73.0876H26.081C26.0424 73.0876 26.0094 73.0738 25.9819 73.0463C25.9488 73.0188 25.9323 72.9858 25.9323 72.9472V72.3857C25.9598 71.9563 26.0975 71.5737 26.3452 71.2378C26.5929 70.9075 26.9205 70.6543 27.3279 70.4781C27.7408 70.302 28.2032 70.2139 28.7152 70.2139C29.2823 70.2139 29.775 70.3212 30.1934 70.5359C30.6118 70.7451 30.9338 71.0286 31.1596 71.3865C31.3908 71.7498 31.5064 72.149 31.5064 72.5839C31.5064 72.9197 31.4211 73.2638 31.2504 73.6161C31.0852 73.9685 30.8347 74.3483 30.4989 74.7557C30.2512 75.064 29.9842 75.3723 29.6979 75.6806C29.4116 75.9834 28.985 76.421 28.4179 76.9936L28.2363 77.1753ZM35.5527 78.8268C34.6719 78.8268 33.9782 78.5819 33.4718 78.0919C32.9598 77.6019 32.7038 76.933 32.7038 76.0852V72.9225C32.7038 72.0912 32.9598 71.4333 33.4718 70.9488C33.9782 70.4589 34.6719 70.2139 35.5527 70.2139C36.4281 70.2139 37.1245 70.4589 37.642 70.9488C38.154 71.4333 38.41 72.0912 38.41 72.9225V76.0852C38.41 76.933 38.154 77.6019 37.642 78.0919C37.1245 78.5819 36.4281 78.8268 35.5527 78.8268ZM35.5527 77.3817C35.9106 77.3817 36.1941 77.2716 36.4033 77.0514C36.618 76.8312 36.7254 76.5367 36.7254 76.1678V72.8729C36.7254 72.5096 36.618 72.2178 36.4033 71.9976C36.1941 71.7774 35.9106 71.6673 35.5527 71.6673C35.2004 71.6673 34.9196 71.7774 34.7104 71.9976C34.4957 72.2178 34.3884 72.5096 34.3884 72.8729V76.1678C34.3884 76.5367 34.4957 76.8312 34.7104 77.0514C34.9196 77.2716 35.2004 77.3817 35.5527 77.3817ZM41.7627 77.1753C41.7462 77.1918 41.7434 77.2083 41.7544 77.2248C41.7599 77.2413 41.7764 77.2496 41.804 77.2496H45.0493C45.0879 77.2496 45.1209 77.2633 45.1484 77.2909C45.1759 77.3184 45.1897 77.3514 45.1897 77.39V78.5543C45.1897 78.5929 45.1759 78.6259 45.1484 78.6534C45.1209 78.681 45.0879 78.6947 45.0493 78.6947H39.6569C39.6184 78.6947 39.5853 78.681 39.5578 78.6534C39.5303 78.6259 39.5165 78.5929 39.5165 78.5543V77.4478C39.5165 77.3762 39.5386 77.3157 39.5826 77.2661C39.979 76.8862 40.3781 76.4706 40.78 76.0192C41.1874 75.5677 41.4434 75.287 41.548 75.1769C41.7737 74.9126 42.0022 74.6594 42.2334 74.4171C42.9601 73.6134 43.3234 73.016 43.3234 72.6252C43.3234 72.3444 43.2243 72.1132 43.0261 71.9315C42.8224 71.7553 42.5609 71.6673 42.2416 71.6673C41.9223 71.6673 41.6636 71.7553 41.4654 71.9315C41.2672 72.1132 41.1681 72.3527 41.1681 72.6499V72.9472C41.1681 72.9858 41.1543 73.0188 41.1268 73.0463C41.0993 73.0738 41.0635 73.0876 41.0195 73.0876H39.6074C39.5688 73.0876 39.5358 73.0738 39.5083 73.0463C39.4807 73.0188 39.467 72.9858 39.467 72.9472V72.3857C39.489 71.9563 39.6239 71.5737 39.8716 71.2378C40.1194 70.9075 40.4497 70.6543 40.8626 70.4781C41.2755 70.302 41.7352 70.2139 42.2416 70.2139C42.8087 70.2139 43.3014 70.3212 43.7198 70.5359C44.1437 70.7451 44.4685 71.0286 44.6942 71.3865C44.9199 71.7498 45.0328 72.149 45.0328 72.5839C45.0328 72.9197 44.9502 73.2638 44.7851 73.6161C44.6144 73.9685 44.3612 74.3483 44.0253 74.7557C43.7776 75.064 43.5106 75.3723 43.2243 75.6806C42.938 75.9834 42.5114 76.421 41.9444 76.9936L41.7627 77.1753ZM52.2172 75.0447C52.2557 75.0447 52.2915 75.0585 52.3245 75.086C52.352 75.1135 52.3658 75.1466 52.3658 75.1851V76.399C52.3658 76.4376 52.352 76.4706 52.3245 76.4981C52.2915 76.5256 52.2557 76.5394 52.2172 76.5394H51.7052C51.6666 76.5394 51.6474 76.5587 51.6474 76.5972V78.5543C51.6474 78.5929 51.6336 78.6259 51.6061 78.6534C51.573 78.681 51.5373 78.6947 51.4987 78.6947H50.1031C50.0591 78.6947 50.0233 78.681 49.9958 78.6534C49.9683 78.6259 49.9545 78.5929 49.9545 78.5543V76.5972C49.9545 76.5587 49.9352 76.5394 49.8967 76.5394H46.2219C46.1834 76.5394 46.1476 76.5256 46.1146 76.4981C46.0871 76.4706 46.0733 76.4376 46.0733 76.399V75.4411C46.0733 75.3916 46.0871 75.331 46.1146 75.2594L48.2699 70.4203C48.3029 70.3487 48.358 70.313 48.435 70.313H49.9297C49.9848 70.313 50.0233 70.3267 50.0453 70.3542C50.0674 70.3818 50.0646 70.4231 50.0371 70.4781L48.0387 74.9704C48.0332 74.9869 48.0332 75.0034 48.0387 75.02C48.0497 75.0365 48.0634 75.0447 48.08 75.0447H49.8967C49.9352 75.0447 49.9545 75.0227 49.9545 74.9787V73.5005C49.9545 73.4565 49.9683 73.4207 49.9958 73.3932C50.0233 73.3656 50.0591 73.3519 50.1031 73.3519H51.4987C51.5373 73.3519 51.573 73.3656 51.6061 73.3932C51.6336 73.4207 51.6474 73.4565 51.6474 73.5005V74.9787C51.6474 75.0227 51.6666 75.0447 51.7052 75.0447H52.2172Z" fill="#252530"/>
</g>
<defs>
<clipPath id="clip0_154_2552">
<rect width="77.6241" height="100.746" fill="white" transform="translate(0.576843)"/>
</clipPath>
</defs>
</svg>
