<svg width="78" height="101" viewBox="0 0 78 101" fill="none" xmlns="http://www.w3.org/2000/svg">
<g clip-path="url(#clip0_154_2561)">
<path d="M6.90411 74.3583L39.5763 90.9839L71.0078 74.3583V9.34473H6.90411V74.3583Z" fill="white"/>
<path d="M71.6692 9.59277L6.242 75.5162L40.1549 92.3073L71.6692 76.1779V9.59277Z" fill="#F2F3F2"/>
<path d="M4.75372 31.0181V75.7666L5.91173 76.3456L38.584 92.9712L39.5765 93.4675L40.5691 92.9712L72.0833 76.3456L73.2413 75.7666V7.19629H4.75372V31.0181ZM6.9043 74.5259V9.34687H71.0907V74.5259L39.5765 91.1515L6.9043 74.5259Z" fill="#DCDEDC"/>
<path d="M38.997 10.4222C39.3279 10.4222 39.6588 10.4222 39.9896 10.5049L38.997 12.4073C37.5082 12.3246 36.1848 13.4826 36.102 14.9715C36.0193 16.4603 37.1773 17.7837 38.6662 17.8665H38.997C39.6588 17.8665 40.3205 17.6183 40.8168 17.2047L41.8921 19.0245C41.0649 19.6035 40.0723 19.9343 38.997 19.9343C36.3502 20.017 34.1169 18.0319 34.0342 15.385C33.9515 12.7382 35.9366 10.5049 38.5835 10.4222H38.997ZM42.3883 14.4752L43.6291 16.543L42.3883 18.5282L41.2303 16.543H38.8316L40.0723 14.4752H42.3883ZM40.4032 13.7307C40.4032 13.3999 40.4859 13.069 40.6513 12.8209C40.8168 12.5727 41.1476 12.3246 41.3958 12.1592L41.5612 12.0764C41.8921 11.911 41.9748 11.8283 41.9748 11.6629C41.9748 11.4974 41.7266 11.332 41.5612 11.332C41.2303 11.332 40.9822 11.4974 40.8168 11.8283L40.4032 11.4147C40.4859 11.2493 40.6513 11.0839 40.8168 10.9184C41.0649 10.753 41.3131 10.753 41.5612 10.753C41.8093 10.753 42.1402 10.8357 42.3056 11.0012C42.4711 11.1666 42.6365 11.4147 42.6365 11.6629C42.6365 12.0764 42.3883 12.4073 41.8921 12.5727L41.6439 12.7382C41.3958 12.9036 41.2303 12.9863 41.1476 13.2344H42.6365V13.8134L40.4032 13.7307ZM38.997 24.07L46.8549 19.6035V7.19629H31.0565V19.5208L38.997 24.07Z" fill="#FF492C"/>
<path d="M19.487 40.6074V33.3285C19.487 33.2458 19.5697 33.1631 19.6524 33.1631H21.5549C21.6376 33.1631 21.7203 33.2458 21.7203 33.3285V40.6074C21.7203 41.6827 22.4647 42.5098 23.6227 42.5098C24.7807 42.5098 25.5251 41.7654 25.5251 40.6074V33.3285C25.5251 33.2458 25.6079 33.1631 25.6906 33.1631H27.593C27.6757 33.1631 27.7584 33.2458 27.7584 33.3285V40.6074C27.7584 42.9234 26.1041 44.4123 23.6227 44.4123C21.1413 44.4123 19.487 42.8407 19.487 40.6074ZM29.1646 42.0135V41.8481C29.1646 41.7654 29.2473 41.6827 29.33 41.6827H31.067C31.1497 41.6827 31.2324 41.7654 31.2324 41.8481C31.2324 42.3444 31.8115 42.6753 32.6386 42.6753C33.383 42.6753 33.8793 42.3444 33.8793 41.9308C33.8793 41.2691 32.6386 41.2691 31.4806 40.8555C30.4053 40.5247 29.2473 39.9457 29.2473 38.5395C29.2473 36.968 30.5707 35.9754 32.6386 35.9754C34.7065 35.9754 36.0299 37.0507 36.0299 38.5395C36.0299 38.6222 35.9472 38.705 35.8645 38.705H34.1275C34.0447 38.705 33.962 38.6222 33.962 38.5395C33.962 38.0432 33.4657 37.7124 32.6386 37.7124C31.9769 37.7124 31.4806 37.9605 31.4806 38.4568C31.4806 39.1185 32.5559 39.1185 33.7966 39.5321C35.0373 39.863 36.278 40.442 36.278 41.9308C36.278 43.5024 34.8719 44.4123 32.804 44.4123C30.5707 44.4123 29.1646 43.4197 29.1646 42.0135ZM44.7976 40.6901C44.7976 40.8555 44.7149 40.8555 44.5495 40.8555H39.5866C39.5039 40.8555 39.5039 40.8555 39.5039 40.9382C39.5039 41.1864 39.5866 41.3518 39.6693 41.6C39.9175 42.179 40.4138 42.5098 41.3236 42.5098C42.068 42.5098 42.5643 42.179 42.9779 41.6827C43.0606 41.6 43.1433 41.5173 43.226 41.6827L44.3841 42.8407C44.4668 42.9234 44.4668 43.0061 44.3841 43.0888C43.6396 43.9987 42.4816 44.495 41.1582 44.495C39.3385 44.495 38.0977 43.5851 37.5187 42.0963C37.2706 41.5173 37.1879 40.9382 37.1879 40.1111C37.1879 39.5321 37.2706 38.9531 37.436 38.4568C37.9323 36.968 39.173 35.9754 40.91 35.9754C43.0606 35.9754 44.384 37.3815 44.6322 39.3667C44.7976 39.7802 44.7976 40.1938 44.7976 40.6901ZM39.6693 38.7877C39.5866 38.9531 39.5866 39.1185 39.5866 39.284C39.5866 39.3667 39.5866 39.3667 39.6693 39.3667H42.3989C42.4816 39.3667 42.4816 39.3667 42.4816 39.284C42.4816 39.1185 42.3989 38.9531 42.3989 38.8704C42.2335 38.2087 41.7372 37.8778 40.9928 37.8778C40.331 37.8778 39.9175 38.2087 39.6693 38.7877ZM51.2494 36.2235C51.3321 36.3062 51.3321 36.389 51.3321 36.4717L51.0012 38.2914C51.0012 38.4568 50.9185 38.4568 50.7531 38.3741C50.5049 38.2914 50.1741 38.2914 49.8432 38.2914C49.0988 38.3741 48.4371 38.8704 48.4371 39.6975V44.0814C48.4371 44.1641 48.3543 44.2468 48.2716 44.2468H46.3692C46.2865 44.2468 46.2038 44.1641 46.2038 44.0814V36.3062C46.2038 36.2235 46.2865 36.1408 46.3692 36.1408H48.2716C48.3543 36.1408 48.4371 36.2235 48.4371 36.3062V36.8852C48.4371 36.968 48.5198 36.968 48.5198 36.968C48.9333 36.389 49.5123 35.9754 50.2568 35.9754C50.7531 35.9754 51.0012 36.0581 51.2494 36.2235ZM51.9111 42.0135V41.8481C51.9111 41.7654 51.9938 41.6827 52.0765 41.6827H53.8135C53.8962 41.6827 53.9789 41.7654 53.9789 41.8481C53.9789 42.3444 54.5579 42.6753 55.3851 42.6753C56.1295 42.6753 56.6258 42.3444 56.6258 41.9308C56.6258 41.2691 55.3851 41.2691 54.2271 40.8555C53.1518 40.5247 51.9938 39.9457 51.9938 38.5395C51.9938 36.968 53.3172 35.9754 55.3851 35.9754C57.4529 35.9754 58.7764 37.0507 58.7764 38.5395C58.7764 38.6222 58.6937 38.705 58.6109 38.705H56.8739C56.7912 38.705 56.7085 38.6222 56.7085 38.5395C56.7085 38.0432 56.2122 37.7124 55.3851 37.7124C54.7234 37.7124 54.2271 37.9605 54.2271 38.4568C54.2271 39.1185 55.3024 39.1185 56.5431 39.5321C57.7838 39.863 59.0245 40.442 59.0245 41.9308C59.0245 43.5024 57.6184 44.4123 55.5505 44.4123C53.3172 44.4123 51.9111 43.4197 51.9111 42.0135ZM12.2908 57.4811V46.7283C12.2908 46.6455 12.3735 46.5628 12.4563 46.5628H14.3587C14.4414 46.5628 14.5241 46.6455 14.5241 46.7283V55.6614C14.5241 55.7441 14.5241 55.7441 14.6068 55.7441H19.8179C19.9006 55.7441 19.9833 55.8269 19.9833 55.9096V57.4811C19.9833 57.5639 19.9006 57.6466 19.8179 57.6466H12.4563C12.3735 57.6466 12.2908 57.5639 12.2908 57.4811ZM21.3067 55.1651C21.1413 54.6689 21.0586 54.0898 21.0586 53.5108C21.0586 52.9318 21.1413 52.2701 21.3067 51.8566C21.803 50.285 23.1264 49.3751 24.9461 49.3751C26.6832 49.3751 28.0066 50.3677 28.5029 51.8566C28.6683 52.3528 28.751 52.9318 28.751 53.5108C28.751 54.0898 28.6683 54.6689 28.5029 55.0824C28.0066 56.7367 26.6832 57.7293 24.9461 57.7293C23.1264 57.812 21.7203 56.8194 21.3067 55.1651ZM26.3523 54.6689C26.435 54.338 26.5177 53.9244 26.5177 53.5936C26.5177 53.18 26.435 52.7664 26.3523 52.4356C26.1042 51.6911 25.6079 51.2776 24.9461 51.2776C24.2017 51.2776 23.7054 51.6911 23.54 52.4356C23.3746 52.6837 23.3746 53.0973 23.3746 53.5936C23.3746 54.0071 23.3746 54.4207 23.4573 54.6689C23.7054 55.4133 24.2017 55.8269 24.9461 55.8269C25.6079 55.9096 26.1042 55.4133 26.3523 54.6689ZM31.8115 57.4811L29.2473 49.6233C29.1646 49.4578 29.2473 49.3751 29.4127 49.3751H31.4806C31.5633 49.3751 31.646 49.4578 31.7287 49.5406L33.0522 54.338C33.0522 54.4207 33.1349 54.4207 33.1349 54.338L34.4583 49.5406C34.4583 49.4578 34.541 49.3751 34.7065 49.3751H36.7743C36.9397 49.3751 37.0225 49.4578 36.9397 49.6233L34.3756 57.3984C34.3756 57.4811 34.2929 57.5639 34.1275 57.5639H32.0596C31.8942 57.6466 31.8115 57.6466 31.8115 57.4811ZM44.8803 54.0899C44.8803 54.2553 44.7976 54.2553 44.6322 54.2553H39.6693C39.5866 54.2553 39.5866 54.2553 39.5866 54.338C39.5866 54.5861 39.6693 54.7516 39.752 54.9997C40.0002 55.5787 40.4965 55.9096 41.4063 55.9096C42.1508 55.9096 42.647 55.5787 43.0606 55.0824C43.1433 54.9997 43.226 54.917 43.3088 55.0824L44.4668 56.2404C44.5495 56.3231 44.5495 56.4059 44.4668 56.4886C43.7223 57.3984 42.5643 57.8947 41.2409 57.8947C39.4212 57.8947 38.1805 56.9849 37.6015 55.496C37.3533 54.917 37.2706 54.338 37.2706 53.5108C37.2706 52.9318 37.3533 52.3528 37.5187 51.8566C38.015 50.3677 39.2558 49.3751 40.9928 49.3751C43.1433 49.3751 44.4668 50.7813 44.7149 52.7664C44.8803 53.18 44.8803 53.5936 44.8803 54.0899ZM39.752 52.1874C39.6693 52.3528 39.6693 52.5183 39.6693 52.6837C39.6693 52.7664 39.6693 52.7664 39.752 52.7664H42.4816C42.5643 52.7664 42.5643 52.7664 42.5643 52.6837C42.5643 52.5183 42.4816 52.3528 42.4816 52.2701C42.3162 51.6084 41.8199 51.2776 41.0755 51.2776C40.331 51.2776 39.9175 51.6084 39.752 52.1874ZM49.5123 54.0071V46.7283C49.5123 46.6455 49.5951 46.5628 49.6778 46.5628H51.5802C51.6629 46.5628 51.7456 46.6455 51.7456 46.7283V54.0071C51.7456 55.0824 52.4901 55.9096 53.6481 55.9096C54.8061 55.9096 55.5505 55.1651 55.5505 54.0071V46.7283C55.5505 46.6455 55.6332 46.5628 55.7159 46.5628H57.6184C57.7011 46.5628 57.7838 46.6455 57.7838 46.7283V54.0071C57.7838 56.3231 56.1295 57.812 53.6481 57.812C51.1666 57.812 49.5123 56.2404 49.5123 54.0071ZM59.1899 55.4133V55.2479C59.1899 55.1651 59.2727 55.0824 59.3554 55.0824H61.0924C61.1751 55.0824 61.2578 55.1651 61.2578 55.2479C61.2578 55.7441 61.8368 56.075 62.664 56.075C63.4084 56.075 63.9047 55.7441 63.9047 55.3306C63.9047 54.6689 62.664 54.6689 61.5059 54.2553C60.4307 53.9244 59.2727 53.3454 59.2727 51.9393C59.2727 50.3677 60.5961 49.3751 62.664 49.3751C64.7318 49.3751 66.0552 50.4504 66.0552 51.9393C66.0552 52.022 65.9725 52.1047 65.8898 52.1047H64.1528C64.0701 52.1047 63.9874 52.022 63.9874 51.9393C63.9874 51.443 63.4911 51.1121 62.664 51.1121C62.0022 51.1121 61.5059 51.3603 61.5059 51.8566C61.5059 52.5183 62.5812 52.5183 63.822 52.9318C65.0627 53.2627 66.3034 53.8417 66.3034 55.3306C66.3034 56.9021 64.8972 57.812 62.8294 57.812C60.5961 57.812 59.1899 56.8194 59.1899 55.4133Z" fill="#252530"/>
<path d="M16.1776 67.1602H32.7204V67.8219H16.1776V67.1602ZM45.7893 67.1602H62.3322V67.8219H45.7893V67.1602Z" fill="#DCDEDC"/>
<path d="M35.2811 66.4152L37.8452 66.0017L39.1686 63.4375L40.4094 65.9189L43.1389 66.4152L41.2365 68.3177L41.6501 71.0472L39.1686 69.8892L36.6872 71.0472L37.0181 68.3177L35.2811 66.4152Z" fill="#DCDEDC"/>
</g>
<defs>
<clipPath id="clip0_154_2561">
<rect width="77.5862" height="100.746" fill="white" transform="translate(0.200989)"/>
</clipPath>
</defs>
</svg>
