<svg width="78" height="91" viewBox="0 0 78 91" fill="none" xmlns="http://www.w3.org/2000/svg">
<g clip-path="url(#clip0_971_6348)">
<path d="M0.196381 70.7264L38.5891 89.6439L76.9818 70.7264V1.17383H0.196381V70.7264Z" fill="white"/>
<path d="M0.196381 70.7264L38.5891 89.6439L76.9818 70.7264V1.17383H0.196381V70.7264Z" fill="white"/>
<path d="M10.8754 11.8458C10.6695 11.8458 10.4775 11.8208 10.2995 11.7707C10.1159 11.7206 9.95451 11.6511 9.81541 11.562C9.67631 11.4674 9.56224 11.3645 9.47321 11.2532C9.37862 11.1419 9.31742 11.0223 9.2896 10.8943L10.0741 10.6606C10.1242 10.7942 10.2132 10.9082 10.3412 11.0028C10.4692 11.0974 10.6306 11.1475 10.8253 11.1531C11.0312 11.1586 11.2009 11.1141 11.3344 11.0195C11.4624 10.9249 11.5264 10.8053 11.5264 10.6606C11.5264 10.5327 11.4763 10.4242 11.3762 10.3351C11.2704 10.2461 11.1286 10.1793 10.9505 10.1348L10.4163 9.99293C10.2216 9.94286 10.0463 9.86496 9.89053 9.75924C9.74029 9.65909 9.62345 9.53111 9.53998 9.37531C9.45096 9.22508 9.40644 9.04981 9.40644 8.8495C9.40644 8.46001 9.53442 8.15676 9.79037 7.93976C10.0463 7.72832 10.408 7.6226 10.8754 7.6226C11.1369 7.6226 11.365 7.65877 11.5598 7.7311C11.7601 7.809 11.9242 7.9175 12.0522 8.05661C12.1857 8.19571 12.2887 8.36264 12.361 8.55738L11.5848 8.79108C11.5347 8.65754 11.4485 8.54625 11.3261 8.45723C11.1981 8.36264 11.0395 8.31534 10.8503 8.31534C10.6556 8.31534 10.5026 8.35985 10.3913 8.44888C10.28 8.53791 10.2244 8.66588 10.2244 8.83281C10.2244 8.96078 10.2689 9.06094 10.3579 9.13327C10.4469 9.20561 10.5666 9.26125 10.7168 9.3002L11.251 9.43374C11.6015 9.52276 11.8741 9.67856 12.0689 9.90113C12.2636 10.1237 12.361 10.3713 12.361 10.6439C12.361 10.8832 12.3026 11.0919 12.1857 11.2699C12.0689 11.4535 11.902 11.5954 11.685 11.6956C11.4624 11.7957 11.1925 11.8458 10.8754 11.8458ZM13.6296 11.779V7.68937H15.1487C15.438 7.68937 15.6939 7.7478 15.9165 7.86465C16.1391 7.97593 16.3116 8.13451 16.434 8.34038C16.562 8.54625 16.6259 8.78273 16.6259 9.04981C16.6259 9.31689 16.5647 9.55337 16.4423 9.75924C16.3199 9.96511 16.1558 10.1265 15.9499 10.2433C15.7385 10.3657 15.4936 10.4269 15.2154 10.4269H14.4309V11.779H13.6296ZM14.4309 9.68412H15.1987C15.3768 9.68412 15.5242 9.6257 15.6411 9.50885C15.7524 9.39201 15.808 9.23899 15.808 9.04981C15.808 8.86619 15.7468 8.71318 15.6244 8.59077C15.4964 8.47948 15.3323 8.42384 15.132 8.42384H14.4309V9.68412ZM17.736 11.779V7.68937H19.255C19.5443 7.68937 19.8003 7.74502 20.0229 7.8563C20.2454 7.97315 20.4179 8.12894 20.5403 8.32369C20.6683 8.51843 20.7323 8.74656 20.7323 9.00808C20.7323 9.26403 20.6655 9.49216 20.532 9.69247C20.404 9.89278 20.2259 10.0486 19.9978 10.1599C19.7753 10.2711 19.5193 10.3268 19.23 10.3268H18.5372V11.779H17.736ZM19.9895 11.779L19.0463 10.1348L19.6556 9.70082L20.8909 11.779H19.9895ZM18.5372 9.60066H19.2633C19.3858 9.60066 19.4943 9.57562 19.5889 9.52555C19.6834 9.47547 19.7586 9.40592 19.8142 9.31689C19.8698 9.22786 19.8977 9.12493 19.8977 9.00808C19.8977 8.83559 19.8365 8.6937 19.714 8.58242C19.5861 8.4767 19.4219 8.42384 19.2216 8.42384H18.5372V9.60066ZM22.0927 11.779V7.68937H22.894V11.779H22.0927ZM24.3629 11.779V7.68937H25.1975L27.2006 10.4353V7.68937H27.9935V11.779H27.2006L25.1641 8.98304V11.779H24.3629ZM31.3654 11.8458C30.9481 11.8458 30.5781 11.7568 30.2553 11.5787C29.9326 11.3951 29.6822 11.1447 29.5042 10.8276C29.3206 10.5104 29.2288 10.1459 29.2288 9.7342C29.2288 9.32245 29.3206 8.958 29.5042 8.64084C29.6822 8.32369 29.9326 8.0733 30.2553 7.88968C30.5781 7.71163 30.9481 7.6226 31.3654 7.6226C31.6158 7.6226 31.8439 7.65877 32.0498 7.7311C32.2612 7.80344 32.4476 7.90638 32.609 8.03992C32.7703 8.16789 32.9067 8.31534 33.0179 8.48227L32.3669 8.89123C32.3002 8.78551 32.2111 8.6937 32.0999 8.61581C31.9941 8.53234 31.8773 8.46836 31.7493 8.42384C31.6213 8.37376 31.4934 8.34873 31.3654 8.34873C31.1094 8.34873 30.8813 8.40715 30.681 8.524C30.4807 8.64641 30.3249 8.81055 30.2136 9.01643C30.1023 9.2223 30.0467 9.46156 30.0467 9.7342C30.0467 10.0013 30.1023 10.2405 30.2136 10.452C30.3249 10.6634 30.4807 10.8276 30.681 10.9444C30.8813 11.0668 31.115 11.128 31.3821 11.128C31.588 11.128 31.7716 11.0863 31.9329 11.0028C32.0943 10.9194 32.2223 10.8053 32.3169 10.6606C32.4115 10.5104 32.4587 10.3379 32.4587 10.1432L33.2183 10.0263C33.2183 10.4102 33.1376 10.7385 32.9762 11.0112C32.8204 11.2838 32.6034 11.4925 32.3252 11.6371C32.047 11.7762 31.7271 11.8458 31.3654 11.8458ZM31.4989 10.2099V9.59232H33.2183V10.0847L32.7843 10.2099H31.4989ZM36.2229 11.779V11.1864C36.2229 11.0752 36.2563 10.9528 36.3231 10.8192C36.3954 10.6801 36.4928 10.5438 36.6152 10.4102C36.7432 10.2711 36.8906 10.1432 37.0575 10.0263L37.6751 9.58397C37.7586 9.52276 37.8393 9.45599 37.9172 9.38366C37.9951 9.31133 38.0563 9.23065 38.1008 9.14162C38.1509 9.05259 38.1759 8.96913 38.1759 8.89123C38.1759 8.78551 38.1509 8.6937 38.1008 8.61581C38.0563 8.53234 37.9867 8.46836 37.8922 8.42384C37.7976 8.37376 37.6807 8.34873 37.5416 8.34873C37.4248 8.34873 37.3218 8.37376 37.2328 8.42384C37.1438 8.46836 37.0687 8.52956 37.0074 8.60746C36.9518 8.68536 36.9101 8.76882 36.8823 8.85785L36.0643 8.71596C36.1033 8.52122 36.1867 8.34038 36.3147 8.17346C36.4427 8.00653 36.6096 7.87021 36.8155 7.76449C37.0269 7.66433 37.2634 7.61426 37.5249 7.61426C37.8309 7.61426 38.0925 7.6699 38.3095 7.78118C38.5265 7.8869 38.6962 8.03435 38.8186 8.22353C38.9354 8.41271 38.9939 8.6325 38.9939 8.88289C38.9939 9.13327 38.9243 9.35862 38.7852 9.55893C38.6461 9.75368 38.4569 9.93729 38.2177 10.1098L37.6585 10.5104C37.5472 10.5883 37.4498 10.6745 37.3663 10.7691C37.2884 10.8637 37.2272 10.9667 37.1827 11.0779H39.0439V11.779H36.2229ZM41.7815 11.8458C41.4476 11.8458 41.1555 11.7568 40.9051 11.5787C40.6492 11.3951 40.4517 11.1447 40.3126 10.8276C40.1679 10.5104 40.0956 10.1459 40.0956 9.7342C40.0956 9.32245 40.1679 8.958 40.3126 8.64084C40.4517 8.32369 40.6492 8.0733 40.9051 7.88968C41.1555 7.71163 41.4449 7.6226 41.7731 7.6226C42.107 7.6226 42.4019 7.71163 42.6579 7.88968C42.9082 8.0733 43.1058 8.32369 43.2504 8.64084C43.3951 8.958 43.4674 9.32245 43.4674 9.7342C43.4674 10.1459 43.3951 10.5104 43.2504 10.8276C43.1058 11.1447 42.9082 11.3951 42.6579 11.5787C42.4019 11.7568 42.1098 11.8458 41.7815 11.8458ZM41.7815 11.128C41.954 11.128 42.1098 11.0668 42.2489 10.9444C42.388 10.8276 42.4965 10.6634 42.5744 10.452C42.6523 10.2461 42.6912 10.0068 42.6912 9.7342C42.6912 9.46156 42.6523 9.21952 42.5744 9.00808C42.4965 8.79664 42.388 8.6325 42.2489 8.51565C42.1098 8.3988 41.9512 8.34038 41.7731 8.34038C41.6007 8.34038 41.4449 8.3988 41.3058 8.51565C41.1722 8.6325 41.0665 8.79664 40.9886 9.00808C40.9107 9.21952 40.8718 9.46156 40.8718 9.7342C40.8718 10.0068 40.9107 10.2461 40.9886 10.452C41.0665 10.6634 41.175 10.8276 41.3141 10.9444C41.4476 11.0668 41.6034 11.128 41.7815 11.128ZM44.5524 11.779V11.1864C44.5524 11.0752 44.5886 10.9528 44.6609 10.8192C44.7333 10.6801 44.8307 10.5438 44.9531 10.4102C45.0755 10.2711 45.2229 10.1432 45.3954 10.0263L46.013 9.58397C46.0965 9.52276 46.1772 9.45599 46.2551 9.38366C46.3274 9.31133 46.3886 9.23065 46.4387 9.14162C46.4888 9.05259 46.5138 8.96913 46.5138 8.89123C46.5138 8.78551 46.4888 8.6937 46.4387 8.61581C46.3886 8.53234 46.3191 8.46836 46.23 8.42384C46.1354 8.37376 46.0186 8.34873 45.8795 8.34873C45.7627 8.34873 45.6597 8.37376 45.5707 8.42384C45.4761 8.46836 45.401 8.52956 45.3453 8.60746C45.2841 8.68536 45.2424 8.76882 45.2201 8.85785L44.4022 8.71596C44.4412 8.52122 44.5246 8.34038 44.6526 8.17346C44.7806 8.00653 44.9475 7.87021 45.1534 7.76449C45.3648 7.66433 45.6013 7.61426 45.8628 7.61426C46.1688 7.61426 46.4304 7.6699 46.6474 7.78118C46.8644 7.8869 47.0341 8.03435 47.1565 8.22353C47.2733 8.41271 47.3317 8.6325 47.3317 8.88289C47.3317 9.13327 47.2622 9.35862 47.1231 9.55893C46.984 9.75368 46.7948 9.93729 46.5555 10.1098L45.9963 10.5104C45.8851 10.5883 45.7877 10.6745 45.7042 10.7691C45.6263 10.8637 45.5651 10.9667 45.5206 11.0779H47.3818V11.779H44.5524ZM49.9358 11.8458C49.7522 11.8458 49.5602 11.8152 49.3599 11.754C49.1651 11.6928 48.9899 11.601 48.8341 11.4786C48.6727 11.3506 48.5559 11.1948 48.4835 11.0112L49.2096 10.7942C49.2987 10.9221 49.4016 11.014 49.5185 11.0696C49.6353 11.1308 49.7605 11.1614 49.894 11.1614C50.0943 11.1614 50.2585 11.1002 50.3865 10.9778C50.5089 10.8554 50.5701 10.6912 50.5701 10.4854C50.5701 10.2906 50.5089 10.1293 50.3865 10.0013C50.2641 9.87331 50.1027 9.80932 49.9024 9.80932C49.78 9.80932 49.6687 9.83714 49.5685 9.89278C49.4684 9.94842 49.3905 10.0124 49.3348 10.0847L48.6171 9.92616L48.8591 7.68937H51.1794V8.4155H49.5435L49.4267 9.39201C49.5324 9.33636 49.6492 9.28907 49.7772 9.25012C49.9052 9.21674 50.0443 9.20004 50.1945 9.20004C50.4171 9.20004 50.6202 9.25568 50.8038 9.36697C50.9874 9.47269 51.1321 9.61735 51.2378 9.80097C51.3435 9.98459 51.3964 10.1988 51.3964 10.4436C51.3964 10.7218 51.3352 10.9667 51.2127 11.1781C51.0848 11.3895 50.9123 11.5537 50.6953 11.6705C50.4783 11.7874 50.2251 11.8458 49.9358 11.8458Z" fill="black"/>
<path d="M6.48528 39.3221V30.5586H8.69703L11.0256 34.0139L13.3709 30.5586H15.5827V39.3221H13.5712V33.6884L11.0423 37.3942L8.49672 33.6884V39.3221H6.48528ZM20.1063 39.4724C19.4442 39.4724 18.8627 39.3333 18.362 39.0551C17.8612 38.7769 17.4661 38.3901 17.1768 37.8949C16.893 37.4053 16.7511 36.8377 16.7511 36.1923C16.7511 35.5524 16.8903 34.9849 17.1685 34.4897C17.4467 34 17.8389 33.6133 18.3453 33.3295C18.8516 33.0513 19.4247 32.9122 20.0646 32.9122C20.7267 32.9122 21.311 33.0513 21.8173 33.3295C22.3181 33.6133 22.7104 34 22.9941 34.4897C23.2723 34.9849 23.4114 35.5524 23.4114 36.1923C23.4114 36.8377 23.2723 37.4053 22.9941 37.8949C22.7104 38.3901 22.3181 38.7769 21.8173 39.0551C21.3165 39.3333 20.7462 39.4724 20.1063 39.4724ZM20.1063 37.6696C20.3567 37.6696 20.5793 37.6084 20.774 37.486C20.9688 37.358 21.1218 37.1827 21.2331 36.9602C21.3499 36.7432 21.4083 36.4872 21.4083 36.1923C21.4083 35.903 21.3499 35.647 21.2331 35.4245C21.1218 35.2019 20.966 35.0294 20.7657 34.907C20.5654 34.779 20.3372 34.715 20.0813 34.715C19.8198 34.715 19.5889 34.779 19.3886 34.907C19.1882 35.0294 19.0325 35.2019 18.9212 35.4245C18.8099 35.647 18.7542 35.903 18.7542 36.1923C18.7542 36.4872 18.8099 36.7432 18.9212 36.9602C19.0325 37.1827 19.191 37.358 19.3969 37.486C19.6028 37.6084 19.8393 37.6696 20.1063 37.6696ZM24.3629 39.3221V33.0625H26.1991L26.2742 33.8554C26.4745 33.5438 26.7221 33.3073 27.017 33.1459C27.3175 32.9901 27.6458 32.9122 28.0019 32.9122C28.5193 32.9122 28.9478 33.018 29.2872 33.2294C29.6266 33.4464 29.8742 33.7719 30.03 34.2059C30.2248 33.7886 30.4891 33.4686 30.8229 33.2461C31.1568 33.0235 31.5323 32.9122 31.9496 32.9122C32.7008 32.9122 33.2656 33.1404 33.6439 33.5966C34.0223 34.0584 34.2087 34.7734 34.2031 35.7416V39.3221H32.2501V36.1172C32.2501 35.7833 32.2139 35.519 32.1416 35.3243C32.0693 35.1295 31.9663 34.9849 31.8328 34.8903C31.6993 34.8013 31.5407 34.7512 31.3571 34.7401C31.001 34.7289 30.7283 34.8319 30.5391 35.0489C30.3499 35.2603 30.2554 35.583 30.2554 36.017V39.3221H28.3023V36.1172C28.3023 35.7833 28.2662 35.519 28.1938 35.3243C28.1271 35.1295 28.0269 34.9849 27.8934 34.8903C27.7598 34.8013 27.6013 34.7512 27.4176 34.7401C27.056 34.7289 26.7805 34.8319 26.5914 35.0489C26.4077 35.2603 26.3159 35.583 26.3159 36.017V39.3221H24.3629ZM38.3929 39.4724C37.7419 39.4724 37.166 39.3333 36.6653 39.0551C36.1645 38.7769 35.7722 38.3901 35.4884 37.8949C35.2047 37.4053 35.0628 36.8377 35.0628 36.1923C35.0628 35.5413 35.2075 34.971 35.4968 34.4813C35.7861 33.9861 36.1812 33.6022 36.682 33.3295C37.1827 33.0513 37.7614 32.9122 38.418 32.9122C39.0133 32.9122 39.5475 33.0541 40.0205 33.3379C40.499 33.6217 40.8773 34.0445 41.1555 34.6065C41.4338 35.1629 41.5729 35.8585 41.5729 36.6931H36.8656L37.0826 36.4594C37.0826 36.7432 37.141 36.9935 37.2579 37.2105C37.3747 37.4275 37.5361 37.5917 37.7419 37.703C37.9534 37.8143 38.1871 37.8699 38.443 37.8699C38.7546 37.8699 39.0161 37.8003 39.2276 37.6612C39.439 37.5277 39.5865 37.3552 39.6699 37.1438L41.3976 37.7364C41.2307 38.1258 40.997 38.4514 40.6965 38.7129C40.3905 38.9688 40.0399 39.1608 39.6449 39.2888C39.2554 39.4112 38.8381 39.4724 38.3929 39.4724ZM37.1327 35.6415L36.9323 35.3911H39.7367L39.5614 35.6415C39.5614 35.3354 39.4974 35.0906 39.3694 34.907C39.247 34.7234 39.094 34.5898 38.9104 34.5064C38.7268 34.4285 38.5432 34.3895 38.3596 34.3895C38.1759 34.3895 37.9895 34.4285 37.8004 34.5064C37.6112 34.5898 37.4526 34.7234 37.3246 34.907C37.1966 35.0906 37.1327 35.3354 37.1327 35.6415ZM42.3991 39.3221V33.0625H44.2437L44.3521 34.2142V39.3221H42.3991ZM46.4304 39.3221V36.1172H48.3834V39.3221H46.4304ZM46.4304 36.1172C46.4304 35.7833 46.3942 35.519 46.3219 35.3243C46.244 35.1295 46.1382 34.9849 46.0047 34.8903C45.8656 34.8013 45.6959 34.7512 45.4956 34.7401C45.1172 34.7289 44.8335 34.8319 44.6443 35.0489C44.4495 35.2603 44.3521 35.583 44.3521 36.017H43.7679C43.7679 35.3605 43.8681 34.7985 44.0684 34.3311C44.2687 33.8693 44.5413 33.5159 44.8863 33.2711C45.2313 33.0319 45.6347 32.9122 46.0965 32.9122C46.5973 32.9122 47.0174 33.0152 47.3568 33.221C47.7018 33.4269 47.9605 33.7385 48.133 34.1558C48.2999 34.5731 48.3834 35.1073 48.3834 35.7583V36.1172H46.4304ZM52.2644 39.4724C51.5243 39.4724 50.9735 39.2943 50.6118 38.9382C50.2446 38.5877 50.061 38.0813 50.061 37.4192V31.1094H52.014V36.9351C52.014 37.1855 52.0613 37.3691 52.1559 37.486C52.2449 37.6028 52.3868 37.6612 52.5815 37.6612C52.6539 37.6612 52.7401 37.6418 52.8403 37.6028C52.9404 37.5639 53.0322 37.5166 53.1157 37.4609L53.7917 38.8881C53.5914 39.0551 53.3522 39.1942 53.074 39.3054C52.7958 39.4167 52.5259 39.4724 52.2644 39.4724ZM49.0845 34.7067V33.0625H53.4412V34.6983L49.0845 34.7067ZM58.8162 39.3221L58.6993 38.1704V33.0625H60.6524V39.3221H58.8162ZM54.6681 36.2674V33.0625H56.6211V36.2674H54.6681ZM56.6211 36.2674C56.6211 36.5957 56.6601 36.86 56.738 37.0603C56.8103 37.2606 56.9188 37.4053 57.0635 37.4943C57.2026 37.5889 57.3695 37.639 57.5642 37.6446C57.937 37.6446 58.2208 37.5388 58.4156 37.3274C58.6047 37.116 58.6993 36.796 58.6993 36.3676H59.2919C59.2919 37.0297 59.1918 37.5917 58.9915 38.0535C58.7911 38.5153 58.5185 38.8687 58.1735 39.1135C57.823 39.3527 57.4196 39.4724 56.9633 39.4724C56.4625 39.4724 56.0397 39.3694 55.6947 39.1636C55.3553 38.9633 55.0993 38.6544 54.9268 38.2371C54.7543 37.8198 54.6681 37.2857 54.6681 36.6347V36.2674H56.6211ZM61.9293 39.3221V33.0625H63.7738L63.849 33.8554C64.0493 33.5438 64.2969 33.3073 64.5918 33.1459C64.8867 32.9901 65.215 32.9122 65.5766 32.9122C66.0941 32.9122 66.5225 33.018 66.862 33.2294C67.1958 33.4464 67.4434 33.7719 67.6048 34.2059C67.794 33.7886 68.0555 33.4686 68.3893 33.2461C68.7232 33.0235 69.0987 32.9122 69.5161 32.9122C70.2672 32.9122 70.8348 33.1404 71.2187 33.5966C71.5971 34.0584 71.7807 34.7734 71.7695 35.7416V39.3221H69.8165V36.1172C69.8165 35.7833 69.7831 35.519 69.7164 35.3243C69.644 35.1295 69.5411 34.9849 69.4076 34.8903C69.274 34.8013 69.1154 34.7512 68.9318 34.7401C68.5701 34.7289 68.2975 34.8319 68.1139 35.0489C67.9247 35.2603 67.8301 35.583 67.8301 36.017V39.3221H65.8771V36.1172C65.8771 35.7833 65.8409 35.519 65.7686 35.3243C65.6963 35.1295 65.5933 34.9849 65.4598 34.8903C65.3262 34.8013 65.1677 34.7512 64.9841 34.7401C64.6279 34.7289 64.3553 34.8319 64.1661 35.0489C63.9769 35.2603 63.8823 35.583 63.8823 36.017V39.3221H61.9293ZM19.7808 51.8415V43.0779H21.7923V49.9886H25.523V51.8415H19.7808ZM29.3957 51.9917C28.7447 51.9917 28.1688 51.8526 27.668 51.5744C27.1673 51.2962 26.775 50.9095 26.4912 50.4143C26.2074 49.9246 26.0655 49.3571 26.0655 48.7117C26.0655 48.0607 26.2074 47.4903 26.4912 47.0007C26.7805 46.5055 27.1756 46.1215 27.6764 45.8489C28.1771 45.5707 28.7586 45.4316 29.4207 45.4316C30.0105 45.4316 30.5447 45.5735 31.0232 45.8572C31.4962 46.141 31.8717 46.5639 32.15 47.1259C32.4337 47.6823 32.5756 48.3778 32.5756 49.2124H27.8683L28.077 48.9787C28.077 49.2625 28.1354 49.5129 28.2523 49.7299C28.3691 49.9469 28.5333 50.111 28.7447 50.2223C28.9506 50.3336 29.1843 50.3893 29.4458 50.3893C29.7518 50.3893 30.0105 50.3197 30.222 50.1806C30.439 50.0471 30.5892 49.8746 30.6727 49.6631L32.4003 50.2557C32.2334 50.6452 31.9969 50.9707 31.6909 51.2322C31.3849 51.4882 31.0371 51.6801 30.6476 51.8081C30.2526 51.9305 29.8353 51.9917 29.3957 51.9917ZM28.1271 48.1608L27.9268 47.9104H30.7311L30.5558 48.1608C30.5558 47.8548 30.4946 47.61 30.3722 47.4263C30.2442 47.2427 30.0884 47.1092 29.9048 47.0257C29.7212 46.9478 29.5376 46.9089 29.354 46.9089C29.1703 46.9089 28.9839 46.9478 28.7948 47.0257C28.6111 47.1092 28.4554 47.2427 28.3274 47.4263C28.1938 47.61 28.1271 47.8548 28.1271 48.1608ZM37.116 51.8415L37.0659 50.4894V48.7284C37.0659 48.3945 37.0381 48.1024 36.9824 47.852C36.9212 47.6016 36.8155 47.4041 36.6653 47.2594C36.515 47.1203 36.2897 47.0508 35.9892 47.0508C35.7555 47.0508 35.5524 47.1036 35.3799 47.2093C35.2019 47.3206 35.0517 47.4709 34.9293 47.66L33.2266 47.1008C33.3657 46.7892 33.5577 46.5083 33.8025 46.2579C34.0529 46.0075 34.3561 45.8072 34.7122 45.6569C35.0739 45.5067 35.4912 45.4316 35.9642 45.4316C36.6152 45.4316 37.166 45.554 37.6167 45.7988C38.0674 46.0381 38.4069 46.3747 38.635 46.8087C38.8575 47.2427 38.9688 47.7574 38.9688 48.3528L38.9438 51.8415H37.116ZM35.4133 51.9917C34.6733 51.9917 34.0974 51.8248 33.6857 51.491C33.2795 51.1571 33.0764 50.6869 33.0764 50.0804C33.0764 49.4183 33.2878 48.9259 33.7107 48.6032C34.1391 48.2749 34.7373 48.1107 35.5051 48.1107H37.2161V49.3627H36.2396C35.8223 49.3627 35.5218 49.4211 35.3382 49.5379C35.1546 49.6548 35.0628 49.8189 35.0628 50.0304C35.0628 50.1806 35.1323 50.2974 35.2714 50.3809C35.4106 50.4699 35.5997 50.5144 35.839 50.5144C36.0838 50.5144 36.298 50.4616 36.4816 50.3559C36.6653 50.2557 36.8072 50.1166 36.9073 49.9386C37.013 49.7661 37.0659 49.5741 37.0659 49.3627H37.5583C37.5583 50.1973 37.383 50.8455 37.0325 51.3073C36.682 51.7636 36.1422 51.9917 35.4133 51.9917ZM44.5274 51.8415L44.444 50.6814V43.0779H46.397V51.8415H44.5274ZM42.6662 51.9917C42.082 51.9917 41.5784 51.861 41.1555 51.5995C40.7327 51.3379 40.4072 50.9596 40.179 50.4644C39.9509 49.9747 39.8368 49.3905 39.8368 48.7117C39.8368 48.0273 39.9509 47.4402 40.179 46.9506C40.4072 46.4665 40.7327 46.0909 41.1555 45.8239C41.5784 45.5623 42.082 45.4316 42.6662 45.4316C43.1837 45.4316 43.6177 45.5623 43.9682 45.8239C44.3243 46.0909 44.5914 46.4665 44.7695 46.9506C44.942 47.4402 45.0282 48.0273 45.0282 48.7117C45.0282 49.3905 44.942 49.9747 44.7695 50.4644C44.5914 50.9596 44.3271 51.3379 43.9766 51.5995C43.6205 51.861 43.1837 51.9917 42.6662 51.9917ZM43.1753 50.1889C43.4202 50.1889 43.6372 50.1277 43.8263 50.0053C44.0211 49.8773 44.1713 49.7021 44.277 49.4795C44.3883 49.2625 44.444 49.0066 44.444 48.7117C44.444 48.4223 44.3883 48.1664 44.277 47.9438C44.1713 47.7212 44.0211 47.5487 43.8263 47.4263C43.6372 47.2984 43.4174 47.2344 43.167 47.2344C42.9166 47.2344 42.694 47.2984 42.4993 47.4263C42.3101 47.5487 42.1599 47.7212 42.0486 47.9438C41.9317 48.1664 41.8705 48.4223 41.865 48.7117C41.8705 49.0066 41.9317 49.2625 42.0486 49.4795C42.1599 49.7021 42.3129 49.8773 42.5076 50.0053C42.7024 50.1277 42.9249 50.1889 43.1753 50.1889ZM50.6786 51.9917C50.0276 51.9917 49.4517 51.8526 48.9509 51.5744C48.4502 51.2962 48.0579 50.9095 47.7741 50.4143C47.4903 49.9246 47.3484 49.3571 47.3484 48.7117C47.3484 48.0607 47.4903 47.4903 47.7741 47.0007C48.0634 46.5055 48.4585 46.1215 48.9593 45.8489C49.46 45.5707 50.0415 45.4316 50.7036 45.4316C51.2934 45.4316 51.8276 45.5735 52.3061 45.8572C52.7791 46.141 53.1574 46.5639 53.4412 47.1259C53.7194 47.6823 53.8585 48.3778 53.8585 49.2124H49.1512L49.3599 48.9787C49.3599 49.2625 49.4183 49.5129 49.5352 49.7299C49.652 49.9469 49.8162 50.111 50.0276 50.2223C50.2335 50.3336 50.4672 50.3893 50.7287 50.3893C51.0347 50.3893 51.2934 50.3197 51.5049 50.1806C51.7219 50.0471 51.8721 49.8746 51.9556 49.6631L53.6832 50.2557C53.5163 50.6452 53.2798 50.9707 52.9738 51.2322C52.6678 51.4882 52.32 51.6801 51.9305 51.8081C51.5355 51.9305 51.1182 51.9917 50.6786 51.9917ZM49.41 48.1608L49.2097 47.9104H52.014L51.8387 48.1608C51.8387 47.8548 51.7775 47.61 51.6551 47.4263C51.5271 47.2427 51.3713 47.1092 51.1877 47.0257C51.0041 46.9478 50.8205 46.9089 50.6369 46.9089C50.4533 46.9089 50.2669 46.9478 50.0777 47.0257C49.8941 47.1092 49.7383 47.2427 49.6103 47.4263C49.4767 47.61 49.41 47.8548 49.41 48.1608ZM56.1203 48.6032C56.1203 47.9243 56.2567 47.3596 56.5293 46.9089C56.802 46.4582 57.1442 46.1215 57.5559 45.899C57.9676 45.6708 58.3989 45.5568 58.8496 45.5568V47.4597C58.4656 47.4597 58.1067 47.5015 57.7729 47.5849C57.4335 47.6684 57.1581 47.7964 56.9466 47.9688C56.7407 48.1413 56.6378 48.3611 56.6378 48.6282L56.1203 48.6032ZM54.6848 51.8415V45.5818H56.6378V51.8415H54.6848Z" fill="black"/>
<path d="M59.4547 1.17383H76.9818V18.7009H59.4547V1.17383Z" fill="#FF492C"/>
<mask id="mask0_971_6348" style="mask-type:luminance" maskUnits="userSpaceOnUse" x="59" y="1" width="18" height="18">
<path d="M59.4547 1.17383H76.9818V18.7009H59.4547V1.17383Z" fill="white"/>
</mask>
<g mask="url(#mask0_971_6348)">
<path fill-rule="evenodd" clip-rule="evenodd" d="M72.0166 7.88579H70.5193C70.5602 7.65126 70.7045 7.52022 70.9983 7.37166L71.2746 7.23144C71.7679 6.97855 72.0308 6.69395 72.0308 6.2299C72.0358 6.09558 72.0074 5.96211 71.9481 5.84149C71.8888 5.72086 71.8005 5.61686 71.6911 5.53883C71.4691 5.3719 71.1978 5.29011 70.8857 5.29011C70.6438 5.28754 70.4064 5.35509 70.2021 5.48458C70.006 5.60049 69.8486 5.77183 69.7497 5.977L70.1837 6.41017C70.3515 6.07132 70.596 5.90439 70.9174 5.90439C71.1886 5.90439 71.3564 6.04461 71.3564 6.23824C71.3564 6.40099 71.2746 6.5362 70.9624 6.69395L70.7863 6.77991C70.4016 6.97438 70.1345 7.19556 69.9809 7.44761C69.8265 7.69633 69.7497 8.01682 69.7497 8.40075V8.50425H72.0166V7.88662V7.88579ZM71.8121 9.22119H69.3366L68.0988 11.3662H70.5743L71.8121 13.5112L73.0507 11.3662L71.8121 9.22119Z" fill="white"/>
<path fill-rule="evenodd" clip-rule="evenodd" d="M68.3092 12.7995C67.5504 12.7988 66.8229 12.4972 66.2862 11.9608C65.7495 11.4245 65.4475 10.6971 65.4464 9.93837C65.4477 9.17976 65.7499 8.45263 66.2865 7.91645C66.8232 7.38026 67.5506 7.07878 68.3092 7.07812L69.289 5.02828C68.5626 4.88308 67.813 4.90087 67.0942 5.08035C66.3755 5.25984 65.7055 5.59655 65.1326 6.06622C64.5597 6.53589 64.0982 7.12682 63.7812 7.79641C63.4643 8.46599 63.2998 9.19756 63.2998 9.93837C63.2999 10.5961 63.4295 11.2473 63.6813 11.8549C63.9332 12.4625 64.3022 13.0145 64.7674 13.4794C65.2326 13.9444 65.7848 14.3131 66.3925 14.5646C67.0002 14.8162 67.6515 14.9455 68.3092 14.9453C69.3696 14.947 70.4031 14.6108 71.2596 13.9855L70.1746 12.1059C69.6562 12.5536 68.9941 12.7998 68.3092 12.7995Z" fill="white"/>
<path d="M59.8628 1.73047V18.3128" stroke="black" stroke-width="0.905567"/>
</g>
<path d="M0.196381 70.8821V65.457L38.5891 84.6884L76.9818 65.457V70.8821L38.5891 89.6444L0.196381 70.8821Z" fill="#FF492C"/>
<path d="M0.196381 65.9128V60.4878L38.5891 79.7192L76.9818 60.4878V65.9128L38.5891 84.6752L0.196381 65.9128Z" fill="#FFC800"/>
<path d="M0.196381 60.9587V55.5337L38.5891 74.7659L76.9818 55.5337V60.9587L38.5891 79.7211L0.196381 60.9587Z" fill="white"/>
<path d="M76.627 18.3127H0.718029M76.5286 70.6128L38.5891 89.1389L0.190063 70.5L0.64959 1.62695H76.5286V70.6128Z" stroke="black" stroke-width="0.905567"/>
</g>
<defs>
<clipPath id="clip0_971_6348">
<rect width="77.62" height="89.3047" fill="white" transform="translate(0.167175 0.720703)"/>
</clipPath>
</defs>
</svg>
