<svg width="172" height="47" viewBox="0 0 172 47" fill="none" xmlns="http://www.w3.org/2000/svg">
<g clip-path="url(#clip0_1_1811)">
<path d="M68.2383 23.7379C68.2383 22.6514 69.0984 21.791 70.187 21.791H75.6635C78.9312 21.791 81.5413 24.4239 81.5413 27.6278C81.5413 30.8317 78.9312 33.4944 75.6635 33.4944H72.1357V37.4715C72.1357 38.5302 71.2179 39.3887 70.185 39.3887C69.0964 39.3887 68.2363 38.5322 68.2363 37.4715V23.7359L68.2383 23.7379ZM72.1376 25.6848V29.6045H75.6655C76.7541 29.6045 77.6142 28.7182 77.6142 27.6298C77.6142 26.5413 76.7541 25.6848 75.6655 25.6848H72.1376Z" fill="white"/>
<path d="M86.6382 22.9647C86.9838 22.1359 87.7863 21.791 88.6167 21.791C89.447 21.791 90.2237 22.134 90.5375 22.9647L96.4154 36.6725C96.8742 37.6737 96.4154 38.8197 95.4122 39.2182C95.154 39.3629 94.9235 39.3907 94.6395 39.3907C93.8946 39.3907 93.1755 38.9624 92.8617 38.217L92.0591 36.3573H85.1484L84.3459 38.217C84.032 38.9605 83.3149 39.3907 82.568 39.3907C82.3118 39.3907 82.0237 39.3629 81.7655 39.2182C80.7624 38.8177 80.3035 37.6737 80.7624 36.6725L86.6402 22.9647H86.6382ZM88.6167 28.3178L86.811 32.4396H90.3369L88.6167 28.3178Z" fill="white"/>
<path d="M107.159 22.6514C107.531 22.0784 108.133 21.7929 108.764 21.7929C109.136 21.7929 109.509 21.8782 109.883 22.1082C110.743 22.7089 111.001 23.9401 110.427 24.8263L104.692 33.2406V37.4755C104.692 38.5342 103.86 39.3907 102.771 39.3907C101.683 39.3907 100.821 38.5342 100.821 37.4755V33.2406L95.1136 24.8263C94.5117 23.9381 94.77 22.7089 95.6579 22.1082C96.0015 21.8782 96.375 21.7929 96.7484 21.7929C97.3781 21.7929 98.0098 22.0784 98.3813 22.6514L102.767 29.1484L107.155 22.6534L107.159 22.6514Z" fill="white"/>
<path d="M112.172 23.7399C112.172 22.6534 113.06 21.793 114.093 21.793H120.028C123.268 21.793 125.878 24.3961 125.878 27.6298C125.878 29.6322 124.875 31.4067 123.326 32.4674L125.648 36.4743C126.194 37.418 125.848 38.5639 124.933 39.1647C124.617 39.3352 124.301 39.3927 123.957 39.3927C123.27 39.3927 122.581 39.0497 122.237 38.4212L119.398 33.4983H116.073V37.4477C116.073 38.5064 115.213 39.3927 114.095 39.3927C113.064 39.3927 112.174 38.5064 112.174 37.4477V23.7399H112.172ZM116.071 25.6551V29.6045H120.028C121.089 29.6045 122.007 28.6885 122.007 27.6298C122.007 26.5711 121.089 25.6551 120.028 25.6551H116.071Z" fill="white"/>
<path d="M136.163 21.791C141.066 21.791 145.05 25.7126 145.052 30.6057C145.052 35.4711 141.066 39.3907 136.163 39.3907C131.261 39.3907 127.361 35.4711 127.361 30.6057C127.361 25.7403 131.318 21.791 136.163 21.791ZM136.163 25.6848C133.495 25.6848 131.316 27.8895 131.316 30.6057C131.316 33.3219 133.495 35.4711 136.163 35.4711C138.831 35.4711 141.093 33.2961 141.093 30.6057C141.093 27.9153 138.887 25.6848 136.163 25.6848Z" fill="white"/>
<path d="M146.988 37.4755V23.7399C146.988 22.6534 147.848 21.7929 148.909 21.7929C150.028 21.7929 150.915 22.6514 150.915 23.7399V35.473H156.821C157.882 35.473 158.8 36.3612 158.8 37.4755C158.8 38.5342 157.882 39.3926 156.821 39.3926H148.907C147.846 39.3926 146.986 38.5362 146.986 37.4755H146.988Z" fill="white"/>
<path d="M160.188 37.4755V23.7399C160.188 22.6534 161.048 21.793 162.108 21.793C163.227 21.793 164.115 22.6514 164.115 23.7399V35.473H170.02C171.081 35.473 171.999 36.3613 171.999 37.4755C171.999 38.5342 171.081 39.3927 170.02 39.3927H162.106C161.046 39.3927 160.186 38.5362 160.186 37.4755H160.188Z" fill="white"/>
<path d="M68.2383 8.85101C68.2383 8.58732 68.4509 8.37518 68.6892 8.37518H71.3848C72.8587 8.37518 74.0526 9.58062 74.0526 11.0378C74.0526 12.4951 72.8567 13.6747 71.3848 13.6747H69.1541V16.0856C69.1541 16.3235 68.9415 16.5356 68.6892 16.5356C68.437 16.5356 68.2383 16.3235 68.2383 16.0856V8.85101ZM69.1541 9.30107V12.7726H71.3848C72.3542 12.7726 73.1229 11.9776 73.1229 11.0378C73.1229 10.0981 72.3522 9.30305 71.3848 9.30305H69.1541V9.30107Z" fill="white"/>
<path d="M80.3939 8.3726C80.6323 8.3726 80.8448 8.58474 80.8448 8.84843C80.8448 9.08635 80.6323 9.29849 80.3939 9.29849H76.1052V12.0008H79.8615C80.1138 12.0008 80.3125 12.2129 80.3125 12.4509C80.3125 12.7026 80.1138 12.9009 79.8615 12.9009H76.1052V15.6032H80.3939C80.6323 15.6032 80.8448 15.8292 80.8448 16.081C80.8448 16.3189 80.6323 16.5311 80.3939 16.5311H75.6543C75.402 16.5311 75.1895 16.3189 75.1895 16.081V8.84645C75.1895 8.56888 75.402 8.37062 75.6543 8.37062H80.3939V8.3726Z" fill="white"/>
<path d="M84.7712 9.30047V16.085C84.7712 16.3229 84.5587 16.5351 84.3064 16.5351C84.0681 16.5351 83.8555 16.3229 83.8555 16.085V9.30047H81.73C81.4917 9.30047 81.2791 9.08833 81.2791 8.85042C81.2791 8.58673 81.4917 8.37459 81.73 8.37459H86.8947C87.1331 8.37459 87.3337 8.58673 87.3337 8.85042C87.3337 9.08833 87.1351 9.30047 86.8947 9.30047H84.7712Z" fill="white"/>
<path d="M88.2325 8.85042C88.2325 8.58673 88.445 8.37459 88.6834 8.37459H91.3789C92.8529 8.37459 94.0467 9.58002 94.0467 11.0372C94.0467 12.4945 92.8509 13.6741 91.3789 13.6741H89.1482V16.085C89.1482 16.3229 88.9356 16.5351 88.6834 16.5351C88.4311 16.5351 88.2325 16.3229 88.2325 16.085V8.85042ZM89.1482 9.30047V12.772H91.3789C92.3483 12.772 93.1171 11.977 93.1171 11.0372C93.1171 10.0975 92.3463 9.30245 91.3789 9.30245H89.1482V9.30047Z" fill="white"/>
<path d="M114.009 8.37257C114.275 8.37257 114.488 8.58471 114.488 8.8484V13.5254C114.488 15.1809 113.147 16.5192 111.488 16.533C111.236 16.533 111.023 16.3348 111.023 16.083C111.023 15.8312 111.222 15.6052 111.488 15.6052C112.63 15.6052 113.572 14.6773 113.572 13.5254V8.8484C113.572 8.58471 113.771 8.37257 114.009 8.37257Z" fill="white"/>
<path d="M118.236 8.65215C118.301 8.46777 118.502 8.37459 118.687 8.37459C118.871 8.37459 119.046 8.46777 119.137 8.65215L122.191 15.9006C122.298 16.1385 122.191 16.3903 121.952 16.4974C121.899 16.5232 121.847 16.537 121.779 16.537C121.607 16.537 121.448 16.432 121.368 16.2595L120.691 14.6694H116.668L116.005 16.2595C115.939 16.432 115.753 16.537 115.58 16.537C115.526 16.537 115.461 16.5232 115.407 16.4974C115.169 16.3923 115.061 16.1405 115.169 15.9006L118.236 8.65215ZM118.687 9.91112L117.054 13.7673H120.294L118.687 9.91112Z" fill="white"/>
<path d="M100.547 16.5469C97.8359 16.5469 95.631 14.3462 95.631 11.64C95.631 8.93368 97.8359 6.73297 100.547 6.73297C103.259 6.73297 105.464 8.93368 105.464 11.64C105.464 11.8898 105.261 12.09 105.013 12.09C104.765 12.09 104.562 11.8878 104.562 11.64C104.562 9.43132 102.762 7.63506 100.549 7.63506C98.3365 7.63506 96.5368 9.43132 96.5368 11.64C96.5368 13.8486 98.3365 15.6449 100.549 15.6449C100.8 15.6449 101 15.8471 101 16.0949C101 16.3427 100.798 16.545 100.549 16.545L100.547 16.5469Z" fill="white"/>
<path d="M105.958 16.5469C103.676 16.5469 101.821 14.6952 101.821 12.4171C101.821 12.1673 102.023 11.9671 102.272 11.9671C102.52 11.9671 102.723 12.1693 102.723 12.4171C102.723 14.1975 104.173 15.6448 105.956 15.6448C107.74 15.6448 109.19 14.1975 109.19 12.4171C109.19 10.6367 107.74 9.18943 105.956 9.18943C105.706 9.18943 105.505 8.9872 105.505 8.73938C105.505 8.49155 105.708 8.28932 105.956 8.28932C108.239 8.28932 110.094 10.1411 110.094 12.4191C110.094 14.6971 108.239 16.5489 105.956 16.5489L105.958 16.5469Z" fill="white"/>
<path d="M10.7803 25.552C16.7341 25.552 21.5606 20.7347 21.5606 14.7923C21.5606 8.84993 16.7341 4.03265 10.7803 4.03265C4.8265 4.03265 0 8.84993 0 14.7923C0 20.7347 4.8265 25.552 10.7803 25.552Z" fill="#D1E8F7"/>
<path d="M13.3487 25.552C19.3025 25.552 24.129 20.7347 24.129 14.7923C24.129 8.84993 19.3025 4.03265 13.3487 4.03265C7.39494 4.03265 2.56844 8.84993 2.56844 14.7923C2.56844 20.7347 7.39494 25.552 13.3487 25.552Z" fill="#D2E8F7"/>
<path d="M15.9172 25.552C21.871 25.552 26.6975 20.7347 26.6975 14.7923C26.6975 8.84993 21.871 4.03265 15.9172 4.03265C9.96338 4.03265 5.13688 8.84993 5.13688 14.7923C5.13688 20.7347 9.96338 25.552 15.9172 25.552Z" fill="#D3E9F7"/>
<path d="M18.4856 25.552C24.4394 25.552 29.2659 20.7347 29.2659 14.7923C29.2659 8.84993 24.4394 4.03265 18.4856 4.03265C12.5318 4.03265 7.70531 8.84993 7.70531 14.7923C7.70531 20.7347 12.5318 25.552 18.4856 25.552Z" fill="#D4E9F8"/>
<path d="M21.0518 25.552C27.0056 25.552 31.8321 20.7347 31.8321 14.7923C31.8321 8.84993 27.0056 4.03265 21.0518 4.03265C15.098 4.03265 10.2715 8.84993 10.2715 14.7923C10.2715 20.7347 15.098 25.552 21.0518 25.552Z" fill="#D5EAF8"/>
<path d="M23.6201 25.552C29.5739 25.552 34.4004 20.7347 34.4004 14.7923C34.4004 8.84993 29.5739 4.03265 23.6201 4.03265C17.6663 4.03265 12.8398 8.84993 12.8398 14.7923C12.8398 20.7347 17.6663 25.552 23.6201 25.552Z" fill="#D6EAF8"/>
<path d="M26.1885 25.552C32.1423 25.552 36.9688 20.7347 36.9688 14.7923C36.9688 8.84993 32.1423 4.03265 26.1885 4.03265C20.2347 4.03265 15.4082 8.84993 15.4082 14.7923C15.4082 20.7347 20.2347 25.552 26.1885 25.552Z" fill="#D7EBF8"/>
<path d="M28.7569 25.552C34.7106 25.552 39.5371 20.7347 39.5371 14.7923C39.5371 8.84993 34.7106 4.03265 28.7569 4.03265C22.8031 4.03265 17.9766 8.84993 17.9766 14.7923C17.9766 20.7347 22.8031 25.552 28.7569 25.552Z" fill="#D8EBF8"/>
<path d="M31.3252 25.552C37.279 25.552 42.1055 20.7347 42.1055 14.7923C42.1055 8.84993 37.279 4.03265 31.3252 4.03265C25.3714 4.03265 20.5449 8.84993 20.5449 14.7923C20.5449 20.7347 25.3714 25.552 31.3252 25.552Z" fill="#D9ECF8"/>
<path d="M33.8916 25.552C39.8454 25.552 44.6719 20.7347 44.6719 14.7923C44.6719 8.84993 39.8454 4.03265 33.8916 4.03265C27.9378 4.03265 23.1113 8.84993 23.1113 14.7923C23.1113 20.7347 27.9378 25.552 33.8916 25.552Z" fill="#DAECF9"/>
<path d="M36.46 25.552C42.4138 25.552 47.2403 20.7347 47.2403 14.7923C47.2403 8.84993 42.4138 4.03265 36.46 4.03265C30.5062 4.03265 25.6797 8.84993 25.6797 14.7923C25.6797 20.7347 30.5062 25.552 36.46 25.552Z" fill="#DBEDF9"/>
<path d="M39.0283 25.552C44.9821 25.552 49.8086 20.7347 49.8086 14.7923C49.8086 8.84993 44.9821 4.03265 39.0283 4.03265C33.0745 4.03265 28.248 8.84993 28.248 14.7923C28.248 20.7347 33.0745 25.552 39.0283 25.552Z" fill="#DCEDF9"/>
<path d="M41.5967 25.552C47.5505 25.552 52.377 20.7347 52.377 14.7923C52.377 8.84993 47.5505 4.03265 41.5967 4.03265C35.6429 4.03265 30.8164 8.84993 30.8164 14.7923C30.8164 20.7347 35.6429 25.552 41.5967 25.552Z" fill="#DDEEF9"/>
<path d="M44.1631 25.552C50.1169 25.552 54.9434 20.7347 54.9434 14.7923C54.9434 8.84993 50.1169 4.03265 44.1631 4.03265C38.2093 4.03265 33.3828 8.84993 33.3828 14.7923C33.3828 20.7347 38.2093 25.552 44.1631 25.552Z" fill="#DEEEF9"/>
<path d="M46.7334 25.552C52.6872 25.552 57.5137 20.7347 57.5137 14.7923C57.5137 8.84993 52.6872 4.03265 46.7334 4.03265C40.7796 4.03265 35.9531 8.84993 35.9531 14.7923C35.9531 20.7347 40.7796 25.552 46.7334 25.552Z" fill="#DFEFF9"/>
<path d="M49.3018 25.552C55.2556 25.552 60.0821 20.7347 60.0821 14.7923C60.0821 8.84993 55.2556 4.03265 49.3018 4.03265C43.348 4.03265 38.5215 8.84993 38.5215 14.7923C38.5215 20.7347 43.348 25.552 49.3018 25.552Z" fill="#E0EFFA"/>
<path d="M49.6377 27.7765C55.5915 27.7765 60.418 22.9592 60.418 17.0168C60.418 11.0744 55.5915 6.25714 49.6377 6.25714C43.6839 6.25714 38.8574 11.0744 38.8574 17.0168C38.8574 22.9592 43.6839 27.7765 49.6377 27.7765Z" fill="#E1F0FA"/>
<path d="M49.6377 30.34C55.5915 30.34 60.418 25.5228 60.418 19.5804C60.418 13.638 55.5915 8.82068 49.6377 8.82068C43.6839 8.82068 38.8574 13.638 38.8574 19.5804C38.8574 25.5228 43.6839 30.34 49.6377 30.34Z" fill="#E2F0FA"/>
<path d="M49.6377 32.9036C55.5915 32.9036 60.418 28.0863 60.418 22.1439C60.418 16.2015 55.5915 11.3842 49.6377 11.3842C43.6839 11.3842 38.8574 16.2015 38.8574 22.1439C38.8574 28.0863 43.6839 32.9036 49.6377 32.9036Z" fill="#E3F1FA"/>
<path d="M49.6377 35.4671C55.5915 35.4671 60.418 30.6498 60.418 24.7074C60.418 18.765 55.5915 13.9478 49.6377 13.9478C43.6839 13.9478 38.8574 18.765 38.8574 24.7074C38.8574 30.6498 43.6839 35.4671 49.6377 35.4671Z" fill="#E4F1FA"/>
<path d="M49.6377 38.0286C55.5915 38.0286 60.418 33.2114 60.418 27.269C60.418 21.3265 55.5915 16.5093 49.6377 16.5093C43.6839 16.5093 38.8574 21.3265 38.8574 27.269C38.8574 33.2114 43.6839 38.0286 49.6377 38.0286Z" fill="#E5F2FA"/>
<path d="M49.6377 40.5922C55.5915 40.5922 60.418 35.7749 60.418 29.8325C60.418 23.8901 55.5915 19.0728 49.6377 19.0728C43.6839 19.0728 38.8574 23.8901 38.8574 29.8325C38.8574 35.7749 43.6839 40.5922 49.6377 40.5922Z" fill="#E6F2FB"/>
<path d="M49.6377 43.1557C55.5915 43.1557 60.418 38.3384 60.418 32.396C60.418 26.4536 55.5915 21.6364 49.6377 21.6364C43.6839 21.6364 38.8574 26.4536 38.8574 32.396C38.8574 38.3384 43.6839 43.1557 49.6377 43.1557Z" fill="#E7F3FB"/>
<path d="M49.6377 45.7193C55.5915 45.7193 60.418 40.902 60.418 34.9596C60.418 29.0172 55.5915 24.1999 49.6377 24.1999C43.6839 24.1999 38.8574 29.0172 38.8574 34.9596C38.8574 40.902 43.6839 45.7193 49.6377 45.7193Z" fill="#E8F3FB"/>
<path d="M48.3545 47C54.3083 47 59.1348 42.1827 59.1348 36.2403C59.1348 30.2979 54.3083 25.4807 48.3545 25.4807C42.4007 25.4807 37.5742 30.2979 37.5742 36.2403C37.5742 42.1827 42.4007 47 48.3545 47Z" fill="#E8F4FB"/>
<path d="M45.7862 47C51.7399 47 56.5664 42.1827 56.5664 36.2403C56.5664 30.2979 51.7399 25.4807 45.7862 25.4807C39.8324 25.4807 35.0059 30.2979 35.0059 36.2403C35.0059 42.1827 39.8324 47 45.7862 47Z" fill="#E9F4FB"/>
<path d="M43.2178 47C49.1716 47 53.9981 42.1827 53.9981 36.2403C53.9981 30.2979 49.1716 25.4807 43.2178 25.4807C37.264 25.4807 32.4375 30.2979 32.4375 36.2403C32.4375 42.1827 37.264 47 43.2178 47Z" fill="#EAF5FB"/>
<path d="M40.6494 47C46.6032 47 51.4297 42.1827 51.4297 36.2403C51.4297 30.2979 46.6032 25.4807 40.6494 25.4807C34.6956 25.4807 29.8691 30.2979 29.8691 36.2403C29.8691 42.1827 34.6956 47 40.6494 47Z" fill="#EBF5FC"/>
<path d="M38.0811 47C44.0349 47 48.8614 42.1827 48.8614 36.2403C48.8614 30.2979 44.0349 25.4807 38.0811 25.4807C32.1273 25.4807 27.3008 30.2979 27.3008 36.2403C27.3008 42.1827 32.1273 47 38.0811 47Z" fill="#ECF6FC"/>
<path d="M35.5147 47C41.4685 47 46.295 42.1827 46.295 36.2403C46.295 30.2979 41.4685 25.4807 35.5147 25.4807C29.5609 25.4807 24.7344 30.2979 24.7344 36.2403C24.7344 42.1827 29.5609 47 35.5147 47Z" fill="#EDF6FC"/>
<path d="M32.9463 47C38.9001 47 43.7266 42.1827 43.7266 36.2403C43.7266 30.2979 38.9001 25.4807 32.9463 25.4807C26.9925 25.4807 22.166 30.2979 22.166 36.2403C22.166 42.1827 26.9925 47 32.9463 47Z" fill="#EEF7FC"/>
<path d="M30.3779 47C36.3317 47 41.1582 42.1827 41.1582 36.2403C41.1582 30.2979 36.3317 25.4807 30.3779 25.4807C24.4242 25.4807 19.5977 30.2979 19.5977 36.2403C19.5977 42.1827 24.4242 47 30.3779 47Z" fill="#EFF7FC"/>
<path d="M27.8096 47C33.7634 47 38.5899 42.1827 38.5899 36.2403C38.5899 30.2979 33.7634 25.4807 27.8096 25.4807C21.8558 25.4807 17.0293 30.2979 17.0293 36.2403C17.0293 42.1827 21.8558 47 27.8096 47Z" fill="#F0F8FC"/>
<path d="M25.2434 47C31.1972 47 36.0237 42.1827 36.0237 36.2403C36.0237 30.2979 31.1972 25.4806 25.2434 25.4806C19.2896 25.4806 14.4631 30.2979 14.4631 36.2403C14.4631 42.1827 19.2896 47 25.2434 47Z" fill="#F1F8FD"/>
<path d="M22.675 47C28.6288 47 33.4553 42.1827 33.4553 36.2403C33.4553 30.2979 28.6288 25.4806 22.675 25.4806C16.7212 25.4806 11.8947 30.2979 11.8947 36.2403C11.8947 42.1827 16.7212 47 22.675 47Z" fill="#F2F9FD"/>
<path d="M20.1065 47C26.0603 47 30.8868 42.1827 30.8868 36.2403C30.8868 30.2979 26.0603 25.4806 20.1065 25.4806C14.1527 25.4806 9.32623 30.2979 9.32623 36.2403C9.32623 42.1827 14.1527 47 20.1065 47Z" fill="#F3F9FD"/>
<path d="M17.5381 47C23.4919 47 28.3184 42.1827 28.3184 36.2403C28.3184 30.2979 23.4919 25.4806 17.5381 25.4806C11.5843 25.4806 6.7578 30.2979 6.7578 36.2403C6.7578 42.1827 11.5843 47 17.5381 47Z" fill="#F4FAFD"/>
<path d="M14.9716 47C20.9254 47 25.7519 42.1827 25.7519 36.2403C25.7519 30.2979 20.9254 25.4806 14.9716 25.4806C9.01785 25.4806 4.19135 30.2979 4.19135 36.2403C4.19135 42.1827 9.01785 47 14.9716 47Z" fill="#F5FAFD"/>
<path d="M14.8213 44.5872C20.7751 44.5872 25.6016 39.7699 25.6016 33.8275C25.6016 27.8851 20.7751 23.0678 14.8213 23.0678C8.86752 23.0678 4.04102 27.8851 4.04102 33.8275C4.04102 39.7699 8.86752 44.5872 14.8213 44.5872Z" fill="#F6FBFD"/>
<path d="M14.8213 42.0256C20.7751 42.0256 25.6016 37.2083 25.6016 31.2659C25.6016 25.3235 20.7751 20.5062 14.8213 20.5062C8.86752 20.5062 4.04102 25.3235 4.04102 31.2659C4.04102 37.2083 8.86752 42.0256 14.8213 42.0256Z" fill="#F7FBFE"/>
<path d="M14.8213 39.462C20.7751 39.462 25.6016 34.6448 25.6016 28.7024C25.6016 22.76 20.7751 17.9427 14.8213 17.9427C8.86752 17.9427 4.04102 22.76 4.04102 28.7024C4.04102 34.6448 8.86752 39.462 14.8213 39.462Z" fill="#F8FCFE"/>
<path d="M14.8213 36.8986C20.7751 36.8986 25.6016 32.0813 25.6016 26.1389C25.6016 20.1965 20.7751 15.3792 14.8213 15.3792C8.86752 15.3792 4.04102 20.1965 4.04102 26.1389C4.04102 32.0813 8.86752 36.8986 14.8213 36.8986Z" fill="#F9FCFE"/>
<path d="M14.8213 34.335C20.7751 34.335 25.6016 29.5178 25.6016 23.5754C25.6016 17.6329 20.7751 12.8157 14.8213 12.8157C8.86752 12.8157 4.04102 17.6329 4.04102 23.5754C4.04102 29.5178 8.86752 34.335 14.8213 34.335Z" fill="#FAFDFE"/>
<path d="M14.8213 31.7715C20.7751 31.7715 25.6016 26.9542 25.6016 21.0118C25.6016 15.0694 20.7751 10.2521 14.8213 10.2521C8.86752 10.2521 4.04102 15.0694 4.04102 21.0118C4.04102 26.9542 8.86752 31.7715 14.8213 31.7715Z" fill="#FBFDFE"/>
<path d="M14.8213 29.21C20.7751 29.21 25.6016 24.3927 25.6016 18.4503C25.6016 12.5079 20.7751 7.69061 14.8213 7.69061C8.86752 7.69061 4.04102 12.5079 4.04102 18.4503C4.04102 24.3927 8.86752 29.21 14.8213 29.21Z" fill="#FCFEFE"/>
<path d="M14.8213 26.6464C20.7751 26.6464 25.6016 21.8292 25.6016 15.8868C25.6016 9.94435 20.7751 5.12708 14.8213 5.12708C8.86752 5.12708 4.04102 9.94435 4.04102 15.8868C4.04102 21.8292 8.86752 26.6464 14.8213 26.6464Z" fill="#FDFEFF"/>
<path d="M14.8213 24.0829C20.7751 24.0829 25.6016 19.2656 25.6016 13.3232C25.6016 7.38081 20.7751 2.56354 14.8213 2.56354C8.86752 2.56354 4.04102 7.38081 4.04102 13.3232C4.04102 19.2656 8.86752 24.0829 14.8213 24.0829Z" fill="#FEFFFF"/>
<path d="M14.8213 21.5194C20.7751 21.5194 25.6016 16.7021 25.6016 10.7597C25.6016 4.81727 20.7751 0 14.8213 0C8.86752 0 4.04102 4.81727 4.04102 10.7597C4.04102 16.7021 8.86752 21.5194 14.8213 21.5194Z" fill="white"/>
<path d="M23.639 26.2182C31.5509 25.9743 31.5509 14.5108 23.639 14.267C15.7251 14.5128 15.7291 25.9684 23.639 26.2182ZM23.639 16.0454V16.0414C29.1891 16.1822 29.1891 24.303 23.639 24.4418C18.089 24.299 18.0929 16.1881 23.639 16.0454Z" fill="#0B85C9"/>
<path d="M28.8971 27.2056C27.9078 26.6266 27.002 28.1017 27.9654 28.7183C29.9141 29.7096 31.253 33.6273 28.3091 34.1427C28.2396 34.1507 19.1616 34.1546 19.1616 34.1546C15.9754 33.8969 17.2706 29.7493 19.3007 28.7183C20.2681 28.1037 19.3543 26.6227 18.3691 27.2056C14.728 29.2219 14.0526 35.6376 19.1656 35.935H28.1085C33.2215 35.6376 32.5461 29.2159 28.8971 27.2056Z" fill="#0B85C9"/>
<path d="M39.8694 20.2089H43.8244C45.2248 20.2029 45.2268 18.0756 43.8244 18.0696H39.8694C38.469 18.0756 38.467 20.2029 39.8694 20.2089Z" fill="#0B85C9"/>
<path d="M47.7793 24.4319H39.8694C38.471 24.4378 38.465 26.5652 39.8694 26.5711H47.7793C49.1778 26.5652 49.1837 24.4378 47.7793 24.4319Z" fill="#0B85C9"/>
<path d="M47.7793 30.7941H39.8694C38.471 30.8 38.465 32.9274 39.8694 32.9333H47.7793C49.1778 32.9274 49.1837 30.8 47.7793 30.7941Z" fill="#0B85C9"/>
</g>
<defs>
<clipPath id="clip0_1_1811">
<rect width="172" height="47" fill="white"/>
</clipPath>
</defs>
</svg>
