<svg width="92" height="92" viewBox="0 0 92 92" fill="none" xmlns="http://www.w3.org/2000/svg">
<circle cx="46" cy="46" r="46" fill="#D9EDFA"/>
<g clip-path="url(#clip0_670_7184)">
<path d="M82.5516 45.5561C83.6724 53.7007 79.899 62.331 73.1741 67.0384C66.6734 71.559 58.342 72.3436 50.4216 72.4931C44.9669 72.6051 39.4749 72.4931 34.0577 72.1942C35.0664 75.6687 35.5147 79.3674 35.4774 82.954C28.5283 76.8269 21.9155 70.3635 15.6016 63.6013C23.6714 59.4916 32.0028 54.8589 37.0091 47.2747C36.2619 51.347 35.5521 55.4193 34.8049 59.4916C36.2619 59.1927 37.719 59.7158 39.1387 60.052C42.1649 60.7619 45.3032 60.6871 48.4041 60.6124C53.2983 60.5003 58.1925 60.3509 63.012 59.4916C67.8316 58.6323 72.5763 56.9884 76.4992 54.0743C79.3759 51.9448 81.8417 49.0307 82.4769 45.5188C82.4395 45.7056 82.5142 45.332 82.5516 45.5188V45.5561Z" fill="white"/>
<path d="M68.9154 62.9663C52.402 74.0623 33.4976 68.3088 30.6956 67.4122C30.9944 68.6077 31.2933 69.8032 31.6296 71.0735C32.19 73.091 32.7878 74.959 33.4229 76.7523C32.8625 75.7809 31.779 75.2579 30.7703 74.7722C28.566 73.7634 26.3244 72.7547 24.1201 71.746C27.5199 76.2292 31.6296 80.1894 36.2623 83.4025C35.0667 79.7411 34.2822 75.9677 33.8338 72.1569C36.1502 73.0536 38.7281 73.091 41.2312 73.1283C50.1978 73.203 59.3511 73.2404 67.9066 70.5504C69.9615 69.878 72.0163 69.056 73.7349 67.711C75.2293 66.5529 76.4248 65.0584 77.5083 63.5267C79.3016 60.9862 81.2817 58.3709 82.141 54.4107C82.4772 52.9163 82.8135 50.5252 82.4025 47.5737C80.385 51.5339 76.3127 57.96 68.9154 62.9289V62.9663Z" fill="#BCCEDA"/>
<path d="M10.0354 45.4438C8.91456 37.2992 12.688 28.6689 19.4129 23.9615C25.9136 19.4409 34.245 18.6563 42.1654 18.5068C47.62 18.3948 53.112 18.5068 58.5293 18.8057C57.5206 15.3312 57.0722 11.6325 57.1096 8.0459C64.0587 14.173 70.6715 20.6364 76.9854 27.3986C68.9155 31.5083 60.5841 36.141 55.5778 43.7252C56.325 39.6529 57.0349 35.5806 57.7821 31.5083C56.325 31.8072 54.868 31.2841 53.4483 30.9479C50.4221 30.238 47.2838 30.3128 44.1829 30.3875C39.2886 30.4996 34.3944 30.649 29.5749 31.5083C24.7554 32.3676 20.0106 34.0114 16.0878 36.9256C13.211 39.0551 10.7452 41.9692 10.1101 45.4811C10.1475 45.2943 10.0727 45.6679 10.0354 45.4811V45.4438Z" fill="white"/>
<path d="M12.9487 34.2357C17.9177 28.0339 29.9851 25.6428 29.9851 25.6428C41.4548 23.4012 52.0652 24.4473 60.0603 26.1659C59.9482 26.8757 59.8362 27.5856 59.7241 28.2954C59.4252 30.0513 59.0889 31.7699 58.7901 33.4138C63.3854 31.359 68.2049 29.8272 73.1365 28.8932C66.5984 32.8534 60.6954 37.8223 55.6518 43.6132C56.1748 39.5783 56.6979 35.5807 57.1836 31.5458C50.5707 30.3129 43.7711 30.5744 37.0462 31.0974C30.0598 31.6578 22.8119 32.5919 16.9089 36.3279C14.9662 37.5608 13.1729 39.0926 12.0521 41.0727C10.8565 43.2022 10.8192 45.2571 11.2675 47.5361C10.2588 46.9383 10.2588 44.5472 10.184 43.4638C10.0346 41.0727 10.4082 39.242 10.5576 38.7563C10.5576 38.7563 11.2301 36.3653 12.9861 34.1984L12.9487 34.2357Z" fill="#BCCEDA"/>
<path d="M15.8258 58.1838C15.6016 57.5113 15.4895 57.063 15.0412 56.4652C14.5929 55.8674 14.2193 55.3444 13.8457 54.784C13.1358 53.7005 12.5007 52.5797 11.9776 51.3842C10.9316 49.0305 10.2964 46.4899 10.1096 43.9121C9.77338 38.8684 11.3052 33.9742 14.2566 29.9019C17.3576 25.6801 21.7287 22.7287 26.735 21.1969C30.8821 19.964 35.4027 19.5904 39.7365 19.3289C45.9757 18.9179 52.2896 19.1047 58.5288 19.7025C58.8651 19.7025 58.9398 17.9465 58.4915 17.9092C52.6259 17.3487 46.7229 17.1619 40.8573 17.4235C36.2993 17.6476 31.5172 17.9465 27.1086 19.1794C22.065 20.5991 17.6191 23.4012 14.3687 27.5482C11.1184 31.6952 9.36241 36.6268 9.25033 41.8199C9.10089 47.6108 11.0063 54.1488 15.1533 58.3706C15.228 58.4453 15.3027 58.4827 15.4148 58.4453C15.5269 58.4079 15.6763 58.3706 15.8258 58.3706C15.8631 58.3706 15.8631 58.2585 15.8258 58.2211V58.1838Z" fill="#231F20"/>
<path d="M56.3994 7.56038C56.3994 8.45704 56.5862 9.42841 56.773 10.3251C56.9598 11.2964 57.1093 12.3052 57.2961 13.2765C57.6697 15.1819 58.0433 17.1247 58.3795 19.0301C58.4169 19.2916 58.6037 19.8893 58.9773 19.6278C59.3135 19.3663 59.2388 18.6565 59.1641 18.3202C58.7158 16.3775 58.3048 14.4347 57.8938 12.4546C57.707 11.558 57.4829 10.6239 57.2587 9.72729C57.0719 8.98008 56.9598 8.04607 56.5862 7.37358C56.5115 7.22414 56.4368 7.52302 56.4368 7.56038H56.3994Z" fill="#231F20"/>
<path d="M10.8571 48.9186C10.9318 48.0967 10.745 47.3495 10.7076 46.5276C10.6329 45.332 10.8571 44.1365 11.268 43.0157C11.8658 41.4839 12.8746 40.1763 14.0327 39.0555C16.0128 37.1875 18.3665 35.8425 20.9071 34.9085C24.3442 33.6382 27.9682 33.0031 31.5922 32.5548C35.2161 32.1064 39.0643 31.8823 42.8377 31.8075C47.7693 31.6955 52.7382 31.8823 57.6698 32.2932C58.006 32.2932 58.0808 30.612 57.6324 30.5746C48.8901 29.7901 39.9983 29.8274 31.2933 30.9482C24.9046 31.7702 17.8435 33.2272 13.2482 38.0841C11.8658 39.5412 10.8197 41.2971 10.334 43.2772C10.0352 44.5101 9.99779 45.7804 10.1099 47.0133C10.1846 47.611 10.222 48.6945 10.7824 49.0307C10.8197 49.0307 10.8571 48.956 10.8571 48.9186Z" fill="#231F20"/>
<path d="M57.5205 31.247C57.0722 31.9194 56.8854 32.8161 56.7359 33.6007C56.5118 34.6841 56.3997 35.7676 56.1755 36.8884C55.7646 38.9432 55.2041 41.0354 54.9426 43.1276C54.9053 43.4638 54.9426 44.1737 55.2415 44.3979C55.5404 44.622 55.7272 44.211 55.8019 43.9495C56.2876 41.8947 56.5118 39.8025 56.8854 37.7103C57.259 35.6555 57.8194 33.6754 57.7447 31.5458C57.7447 31.4711 57.6699 31.0602 57.5205 31.247Z" fill="#231F20"/>
<path d="M55.2034 44.323C55.4275 44.2109 55.4275 44.323 55.6143 44.2856C55.8011 44.2109 56.0253 44.0241 56.1747 43.8746C56.4736 43.6131 56.6978 43.3142 56.9593 43.0527C57.6318 42.3055 58.379 41.5956 59.0889 40.8858C60.5086 39.5035 61.9283 38.1958 63.4227 36.9629C66.4115 34.4971 69.6245 32.3302 73.0243 30.4996C73.8463 30.0513 74.6682 29.6403 75.5275 29.2293C76.1626 28.9304 77.4329 28.5942 77.6197 27.8843C77.657 27.6975 77.6944 27.436 77.6197 27.2866C77.3955 26.502 76.9098 26.8382 76.4989 27.025C75.6022 27.3987 74.7429 27.847 73.8463 28.2953C70.3717 30.0886 67.084 32.2182 64.0205 34.6466C62.3392 35.9542 60.7327 37.3739 59.2383 38.8683C58.5285 39.5782 57.8186 40.3628 57.1088 41.11C56.7352 41.5209 56.3989 41.8945 56.0627 42.3429C55.6143 42.9406 55.4649 43.4637 55.166 44.0988C55.166 44.1362 55.166 44.5098 55.2407 44.435L55.2034 44.323Z" fill="#231F20"/>
<path d="M56.5484 8.23292C58.1549 10.0262 60.135 11.5206 61.891 13.1272C63.6469 14.7337 65.5149 16.4522 67.2709 18.1708C70.596 21.4585 73.8837 24.821 76.9846 28.2955C77.5824 28.968 77.8439 26.9132 77.4329 26.4275C74.2946 22.9156 71.0069 19.4784 67.5698 16.2654C65.8138 14.5842 64.0205 12.9403 62.1525 11.3338C61.2932 10.5866 60.3965 9.87679 59.5372 9.16694C58.678 8.45709 57.7439 7.5978 56.7352 7.03739C56.3242 6.81323 56.3616 8.04612 56.5484 8.23292Z" fill="#231F20"/>
<path d="M14.4439 38.1959C11.1936 41.521 10.3716 45.3318 10.1475 46.7515C10.409 48.1338 10.8199 49.7403 11.4924 51.4589C12.688 54.5598 14.2571 56.9136 15.5647 58.5574L27.1465 51.3842C26.2125 50.4875 22.9248 47.1251 22.4764 41.7078C22.1402 37.785 23.4478 34.7961 24.1203 33.5259C22.8127 33.6753 18.2547 34.3478 14.4813 38.1959H14.4439Z" fill="#231F20"/>
<path d="M76.761 32.8162C76.9851 33.4887 77.0972 33.937 77.5456 34.5348C77.9939 35.1326 78.3675 35.6556 78.7411 36.216C79.4509 37.2995 80.0861 38.4203 80.6091 39.6158C81.6552 41.9695 82.2903 44.5101 82.4771 47.0879C82.8134 52.1316 81.2816 57.0258 78.3301 61.0981C75.3786 65.1704 70.858 68.2713 65.8517 69.8031C61.7047 71.036 57.1841 71.4096 52.8503 71.6711C46.6111 72.0821 40.2971 71.8953 34.0579 71.2975C33.7217 71.2975 33.647 73.0535 34.0953 73.0908C39.9609 73.6512 45.8638 73.8381 51.7294 73.5765C56.2874 73.3524 61.0696 73.0535 65.4781 71.8206C70.5218 70.4009 74.9677 67.5989 78.218 63.4518C81.4684 59.3048 83.2243 54.3732 83.3364 49.1801C83.4859 43.3892 81.5805 36.8512 77.4335 32.6294C77.3587 32.5547 77.284 32.5173 77.1719 32.5547C77.0599 32.5921 76.9104 32.6294 76.761 32.6294C76.7236 32.6294 76.7236 32.7415 76.761 32.7789V32.8162Z" fill="#231F20"/>
<path d="M36.1871 83.5145C36.2992 82.5804 36.075 81.5344 35.963 80.6003C35.8135 79.5916 35.7014 78.5829 35.5146 77.5741C35.1784 75.594 34.7301 73.6139 34.2444 71.6712C34.1696 71.3349 33.8334 70.924 33.5345 71.2976C33.2356 71.6712 33.273 72.4184 33.3851 72.8294C33.9455 74.66 34.3938 76.5654 34.8048 78.4334C34.9916 79.3674 35.1784 80.3015 35.3652 81.2728C35.4399 81.7585 35.552 82.2068 35.7014 82.6925C35.7762 83.0288 35.8509 83.4024 36.0377 83.7013C36.1124 83.8507 36.1871 83.5892 36.1871 83.5518V83.5145Z" fill="#231F20"/>
<path d="M81.73 42.0813C81.6553 42.9033 81.8421 43.6505 81.8795 44.4724C81.9542 45.6679 81.73 46.8635 81.319 47.9843C80.7213 49.5161 79.7125 50.8237 78.5544 51.9445C76.5743 53.8125 74.2206 55.1575 71.68 56.0915C68.2429 57.3618 64.6189 57.9969 60.9949 58.4452C57.371 58.8935 53.5228 59.1177 49.7494 59.1924C44.8178 59.3045 39.8489 59.1177 34.9173 58.7067C34.5811 58.7067 34.5063 60.388 34.9547 60.4253C43.697 61.2099 52.5888 61.1725 61.2938 60.0517C67.6825 59.2298 74.7436 57.7727 79.3389 52.9159C80.7213 51.4588 81.7674 49.7029 82.2531 47.7228C82.5519 46.4899 82.5893 45.2196 82.4772 43.9867C82.4025 43.3889 82.3651 42.3055 81.8047 41.9692C81.7674 41.9692 81.73 42.044 81.73 42.0813Z" fill="#231F20"/>
<path d="M34.9541 59.7157C35.3651 59.7904 35.7761 57.5862 35.8134 57.3246C36.0376 56.2412 36.1497 55.1577 36.3738 54.0743C36.7848 52.0194 37.3078 49.9646 37.6067 47.8724C37.6441 47.5735 37.6067 46.9384 37.3452 46.7143C37.0837 46.4901 36.8969 46.8637 36.8595 47.1252C36.2991 49.4789 36.1123 51.9074 35.5892 54.2611C35.3277 55.4192 35.1036 56.6148 34.9541 57.8103C34.9541 58.0345 34.73 59.6783 34.9541 59.7531V59.7157Z" fill="#231F20"/>
<path d="M37.3452 46.6771C37.121 46.7892 37.121 46.6771 36.9342 46.7145C36.7474 46.7892 36.5233 46.976 36.3738 47.1254C36.0749 47.387 35.8508 47.6858 35.5892 47.9474C34.9167 48.6946 34.1695 49.4044 33.4597 50.1143C32.04 51.4966 30.6203 52.8042 29.1259 54.0371C26.137 56.5029 22.924 58.6698 19.5242 60.5005C18.7023 60.9488 17.8804 61.3598 17.0211 61.7708C16.3859 62.0696 15.1157 62.4059 14.9289 63.1157C14.8915 63.3025 14.8542 63.5641 14.9289 63.7135C15.153 64.4981 15.6387 64.1618 16.0497 63.975C16.9463 63.6014 17.8056 63.1531 18.7023 62.7048C22.1768 60.9115 25.4645 58.7819 28.5281 56.3535C30.2093 55.0459 31.8158 53.6262 33.3102 52.1317C34.0201 51.4219 34.7299 50.6373 35.4398 49.8901C35.8134 49.4791 36.1496 49.1055 36.4859 48.6572C36.9342 48.0594 37.0837 47.5364 37.3825 46.9013C37.3825 46.8639 37.3825 46.4903 37.3078 46.565L37.3452 46.6771Z" fill="#231F20"/>
<path d="M36.0379 82.7673C34.4314 80.974 32.4513 79.4795 30.6953 77.873C28.9394 76.2665 27.1834 74.66 25.4649 72.9788C22.065 69.6537 18.74 66.2539 15.6017 62.7047C15.0039 62.0322 14.7424 64.087 15.1534 64.5727C18.3664 68.122 21.6541 71.5965 25.166 74.8842C26.8472 76.4533 28.5284 78.0598 30.2844 79.5543C31.181 80.3015 32.0777 81.0487 32.9743 81.7959C33.871 82.5431 34.805 83.4024 35.8511 83.9628C36.262 84.187 36.2247 82.9541 36.0379 82.7673Z" fill="#231F20"/>
<path d="M78.143 52.8039C81.3934 49.4788 82.2153 45.668 82.4395 44.2483C82.1779 42.866 81.767 41.2595 81.0945 39.5409C79.8989 36.44 78.3298 34.0862 77.0222 32.4424L65.4404 39.6156C66.3744 40.5123 69.6622 43.8747 70.1105 49.292C70.4467 53.2148 69.1391 56.2037 68.4666 57.4739C69.7742 57.3245 74.3322 56.652 78.1056 52.8039H78.143Z" fill="#231F20"/>
<path d="M6.6352 15.4808C26.4363 31.1349 46.2 46.7889 66.001 62.443C85.8021 78.097 77.2466 71.3348 82.888 75.7807C84.756 77.2751 87.4086 74.6225 85.5406 73.1281C65.7395 57.474 45.9758 41.82 26.1747 26.1659C20.5333 21.72 14.9292 17.2741 9.2878 12.8282C7.41977 11.3338 4.76718 13.9864 6.6352 15.4808Z" fill="#0089DE"/>
</g>
<defs>
<clipPath id="clip0_670_7184">
<rect width="80.1756" height="77" fill="white" transform="translate(6 7)"/>
</clipPath>
</defs>
</svg>
