<svg width="587" height="314" viewBox="0 0 587 314" fill="none" xmlns="http://www.w3.org/2000/svg">
<g clip-path="url(#clip0_491_3048)">
<path opacity="0.5" d="M84.3161 6.24902H502.737C506.771 6.24902 510.053 9.52464 510.053 13.5513V314.731H77V13.5513C77 9.52464 80.2818 6.24902 84.3161 6.24902Z" fill="#CAE4F5"/>
<g filter="url(#filter0_d_491_3048)">
<path d="M278.463 40.8723H570.45C579.25 40.8723 586.389 48.0077 586.389 56.781V249.729C586.389 252.097 584.466 254.006 582.104 254.006H266.809C264.437 254.006 262.524 252.087 262.524 249.729V56.781C262.524 47.9973 269.673 40.8723 278.463 40.8723Z" fill="white"/>
<path d="M266.809 40.8723H582.104C584.476 40.8723 586.389 42.7918 586.389 45.1494V90.935H262.513V45.1494C262.513 42.7814 264.437 40.8723 266.799 40.8723H266.809Z" fill="#FFE6EC"/>
<path d="M290.297 169.938V176.357H289.01V172.182L287.29 176.357H286.315L284.586 172.182V176.357H283.299V169.938H284.761L286.803 174.711L288.844 169.938H290.297ZM293.832 176.44C293.342 176.44 292.901 176.333 292.508 176.118C292.116 175.898 291.806 175.588 291.579 175.189C291.359 174.791 291.248 174.331 291.248 173.81C291.248 173.289 291.362 172.829 291.589 172.431C291.822 172.032 292.137 171.725 292.536 171.511C292.934 171.29 293.379 171.18 293.869 171.18C294.36 171.18 294.804 171.29 295.203 171.511C295.601 171.725 295.914 172.032 296.141 172.431C296.374 172.829 296.49 173.289 296.49 173.81C296.49 174.331 296.371 174.791 296.132 175.189C295.899 175.588 295.58 175.898 295.175 176.118C294.777 176.333 294.329 176.44 293.832 176.44ZM293.832 175.318C294.065 175.318 294.283 175.263 294.485 175.153C294.694 175.036 294.859 174.865 294.982 174.638C295.105 174.411 295.166 174.135 295.166 173.81C295.166 173.326 295.037 172.955 294.78 172.697C294.528 172.434 294.219 172.302 293.851 172.302C293.483 172.302 293.173 172.434 292.922 172.697C292.677 172.955 292.554 173.326 292.554 173.81C292.554 174.294 292.674 174.668 292.913 174.932C293.158 175.189 293.465 175.318 293.832 175.318ZM300.258 171.189C300.865 171.189 301.355 171.382 301.729 171.768C302.103 172.149 302.29 172.682 302.29 173.369V176.357H301.003V173.543C301.003 173.139 300.902 172.829 300.699 172.614C300.497 172.394 300.221 172.283 299.872 172.283C299.516 172.283 299.234 172.394 299.026 172.614C298.823 172.829 298.722 173.139 298.722 173.543V176.357H297.435V171.263H298.722V171.897C298.894 171.676 299.111 171.505 299.375 171.382C299.645 171.253 299.939 171.189 300.258 171.189ZM303.184 173.792C303.184 173.277 303.285 172.82 303.487 172.421C303.696 172.023 303.978 171.716 304.333 171.502C304.689 171.287 305.084 171.18 305.52 171.18C305.851 171.18 306.166 171.253 306.467 171.401C306.767 171.542 307.006 171.732 307.184 171.971V169.552H308.49V176.357H307.184V175.603C307.025 175.855 306.801 176.057 306.513 176.21C306.225 176.364 305.89 176.44 305.51 176.44C305.081 176.44 304.689 176.33 304.333 176.109C303.978 175.888 303.696 175.579 303.487 175.18C303.285 174.776 303.184 174.313 303.184 173.792ZM307.193 173.81C307.193 173.497 307.132 173.231 307.009 173.01C306.887 172.783 306.721 172.611 306.513 172.495C306.304 172.372 306.081 172.311 305.841 172.311C305.602 172.311 305.382 172.369 305.179 172.486C304.977 172.602 304.811 172.774 304.683 173.001C304.56 173.221 304.499 173.485 304.499 173.792C304.499 174.098 304.56 174.368 304.683 174.601C304.811 174.828 304.977 175.002 305.179 175.125C305.388 175.248 305.608 175.309 305.841 175.309C306.081 175.309 306.304 175.251 306.513 175.134C306.721 175.012 306.887 174.84 307.009 174.619C307.132 174.392 307.193 174.123 307.193 173.81ZM309.416 173.792C309.416 173.277 309.518 172.82 309.72 172.421C309.928 172.023 310.207 171.716 310.557 171.502C310.912 171.287 311.308 171.18 311.743 171.18C312.123 171.18 312.454 171.256 312.736 171.41C313.024 171.563 313.254 171.756 313.426 171.989V171.263H314.723V176.357H313.426V175.613C313.261 175.852 313.031 176.051 312.736 176.21C312.448 176.364 312.114 176.44 311.734 176.44C311.305 176.44 310.912 176.33 310.557 176.109C310.207 175.888 309.928 175.579 309.72 175.18C309.518 174.776 309.416 174.313 309.416 173.792ZM313.426 173.81C313.426 173.497 313.365 173.231 313.242 173.01C313.12 172.783 312.954 172.611 312.746 172.495C312.537 172.372 312.313 172.311 312.074 172.311C311.835 172.311 311.614 172.369 311.412 172.486C311.21 172.602 311.044 172.774 310.915 173.001C310.793 173.221 310.732 173.485 310.732 173.792C310.732 174.098 310.793 174.368 310.915 174.601C311.044 174.828 311.21 175.002 311.412 175.125C311.62 175.248 311.841 175.309 312.074 175.309C312.313 175.309 312.537 175.251 312.746 175.134C312.954 175.012 313.12 174.84 313.242 174.619C313.365 174.392 313.426 174.123 313.426 173.81ZM320.854 171.263L317.7 178.767H316.33L317.433 176.229L315.392 171.263H316.835L318.151 174.822L319.484 171.263H320.854Z" fill="#202A37"/>
<path d="M285.515 121.487C285.068 121.487 284.663 121.411 284.301 121.258C283.946 121.104 283.664 120.884 283.455 120.595C283.247 120.307 283.139 119.967 283.133 119.575H284.513C284.531 119.838 284.623 120.047 284.789 120.2C284.96 120.353 285.193 120.43 285.487 120.43C285.788 120.43 286.024 120.359 286.196 120.218C286.367 120.071 286.453 119.881 286.453 119.648C286.453 119.458 286.395 119.302 286.278 119.179C286.162 119.057 286.015 118.962 285.837 118.894C285.665 118.821 285.426 118.741 285.12 118.655C284.703 118.532 284.362 118.413 284.099 118.296C283.841 118.174 283.618 117.993 283.427 117.754C283.244 117.508 283.152 117.184 283.152 116.779C283.152 116.399 283.247 116.068 283.437 115.786C283.627 115.504 283.893 115.289 284.237 115.142C284.58 114.989 284.972 114.912 285.414 114.912C286.076 114.912 286.613 115.074 287.023 115.399C287.44 115.718 287.67 116.166 287.713 116.742H286.297C286.285 116.521 286.189 116.341 286.012 116.2C285.84 116.052 285.61 115.979 285.322 115.979C285.071 115.979 284.868 116.043 284.715 116.172C284.568 116.301 284.494 116.488 284.494 116.733C284.494 116.905 284.549 117.049 284.66 117.165C284.776 117.276 284.917 117.367 285.083 117.441C285.255 117.508 285.494 117.588 285.8 117.68C286.217 117.803 286.557 117.925 286.821 118.048C287.085 118.171 287.311 118.355 287.502 118.6C287.692 118.845 287.787 119.167 287.787 119.565C287.787 119.909 287.698 120.228 287.52 120.522C287.342 120.816 287.082 121.052 286.738 121.23C286.395 121.402 285.987 121.487 285.515 121.487ZM293.713 116.328V121.423H292.416V120.779C292.25 121 292.033 121.175 291.763 121.304C291.499 121.426 291.211 121.487 290.898 121.487C290.5 121.487 290.147 121.405 289.841 121.239C289.534 121.067 289.292 120.819 289.114 120.494C288.943 120.163 288.857 119.771 288.857 119.317V116.328H290.144V119.133C290.144 119.538 290.246 119.851 290.448 120.071C290.65 120.286 290.926 120.393 291.276 120.393C291.631 120.393 291.91 120.286 292.112 120.071C292.315 119.851 292.416 119.538 292.416 119.133V116.328H293.713ZM297.806 116.255C298.413 116.255 298.904 116.448 299.278 116.834C299.652 117.214 299.839 117.748 299.839 118.434V121.423H298.551V118.609C298.551 118.204 298.45 117.895 298.248 117.68C298.045 117.459 297.769 117.349 297.42 117.349C297.064 117.349 296.782 117.459 296.574 117.68C296.372 117.895 296.27 118.204 296.27 118.609V121.423H294.983V116.328H296.27V116.963C296.442 116.742 296.66 116.57 296.923 116.448C297.193 116.319 297.487 116.255 297.806 116.255ZM300.732 118.857C300.732 118.342 300.833 117.886 301.035 117.487C301.244 117.089 301.526 116.782 301.881 116.567C302.237 116.353 302.632 116.245 303.068 116.245C303.399 116.245 303.715 116.319 304.015 116.466C304.315 116.607 304.555 116.797 304.732 117.036V114.618H306.038V121.423H304.732V120.669C304.573 120.92 304.349 121.123 304.061 121.276C303.773 121.429 303.439 121.506 303.059 121.506C302.629 121.506 302.237 121.396 301.881 121.175C301.526 120.954 301.244 120.644 301.035 120.246C300.833 119.841 300.732 119.378 300.732 118.857ZM304.742 118.876C304.742 118.563 304.68 118.296 304.558 118.076C304.435 117.849 304.269 117.677 304.061 117.561C303.853 117.438 303.629 117.377 303.39 117.377C303.151 117.377 302.93 117.435 302.728 117.551C302.525 117.668 302.36 117.84 302.231 118.066C302.108 118.287 302.047 118.551 302.047 118.857C302.047 119.164 302.108 119.434 302.231 119.667C302.36 119.893 302.525 120.068 302.728 120.191C302.936 120.313 303.157 120.375 303.39 120.375C303.629 120.375 303.853 120.316 304.061 120.2C304.269 120.077 304.435 119.906 304.558 119.685C304.68 119.458 304.742 119.188 304.742 118.876ZM306.965 118.857C306.965 118.342 307.066 117.886 307.268 117.487C307.477 117.089 307.756 116.782 308.105 116.567C308.461 116.353 308.856 116.245 309.291 116.245C309.671 116.245 310.003 116.322 310.285 116.475C310.573 116.629 310.803 116.822 310.974 117.055V116.328H312.271V121.423H310.974V120.678C310.809 120.917 310.579 121.117 310.285 121.276C309.996 121.429 309.662 121.506 309.282 121.506C308.853 121.506 308.461 121.396 308.105 121.175C307.756 120.954 307.477 120.644 307.268 120.246C307.066 119.841 306.965 119.378 306.965 118.857ZM310.974 118.876C310.974 118.563 310.913 118.296 310.79 118.076C310.668 117.849 310.502 117.677 310.294 117.561C310.085 117.438 309.862 117.377 309.622 117.377C309.383 117.377 309.163 117.435 308.96 117.551C308.758 117.668 308.592 117.84 308.464 118.066C308.341 118.287 308.28 118.551 308.28 118.857C308.28 119.164 308.341 119.434 308.464 119.667C308.592 119.893 308.758 120.068 308.96 120.191C309.169 120.313 309.389 120.375 309.622 120.375C309.862 120.375 310.085 120.316 310.294 120.2C310.502 120.077 310.668 119.906 310.79 119.685C310.913 119.458 310.974 119.188 310.974 118.876ZM318.403 116.328L315.248 123.833H313.878L314.981 121.294L312.94 116.328H314.384L315.699 119.887L317.032 116.328H318.403Z" fill="#202A37"/>
<path d="M404.295 69.9521L402.878 67.4507H402.272V69.9521H400.984V63.533H403.393C403.89 63.533 404.313 63.6219 404.663 63.7997C405.012 63.9714 405.273 64.2074 405.444 64.5079C405.622 64.8021 405.711 65.1332 405.711 65.5011C405.711 65.9241 405.588 66.3073 405.343 66.6506C405.098 66.9878 404.733 67.2208 404.249 67.3496L405.785 69.9521H404.295ZM402.272 66.4851H403.347C403.697 66.4851 403.958 66.4023 404.129 66.2368C404.301 66.0651 404.387 65.8291 404.387 65.5287C404.387 65.2344 404.301 65.0075 404.129 64.8481C403.958 64.6826 403.697 64.5998 403.347 64.5998H402.272V66.4851ZM406.544 67.3863C406.544 66.8713 406.646 66.4146 406.848 66.0161C407.056 65.6176 407.335 65.311 407.685 65.0964C408.04 64.8818 408.436 64.7746 408.871 64.7746C409.251 64.7746 409.582 64.8512 409.864 65.0045C410.152 65.1577 410.382 65.3509 410.554 65.5838V64.8573H411.851V69.9521H410.554V69.2072C410.389 69.4463 410.159 69.6456 409.864 69.805C409.576 69.9583 409.242 70.0349 408.862 70.0349C408.433 70.0349 408.04 69.9246 407.685 69.7038C407.335 69.4831 407.056 69.1735 406.848 68.775C406.646 68.3704 406.544 67.9075 406.544 67.3863ZM410.554 67.4047C410.554 67.0921 410.493 66.8254 410.37 66.6046C410.248 66.3778 410.082 66.2061 409.874 66.0896C409.665 65.967 409.441 65.9057 409.202 65.9057C408.963 65.9057 408.742 65.964 408.54 66.0804C408.338 66.1969 408.172 66.3686 408.043 66.5954C407.921 66.8162 407.86 67.0798 407.86 67.3863C407.86 67.6929 407.921 67.9627 408.043 68.1956C408.172 68.4225 408.338 68.5972 408.54 68.7198C408.748 68.8424 408.969 68.9038 409.202 68.9038C409.441 68.9038 409.665 68.8455 409.874 68.729C410.082 68.6064 410.248 68.4347 410.37 68.214C410.493 67.9872 410.554 67.7174 410.554 67.4047ZM415.978 64.7837C416.364 64.7837 416.707 64.8696 417.008 65.0412C417.308 65.2068 417.541 65.4551 417.706 65.7862C417.878 66.1111 417.964 66.5035 417.964 66.9633V69.9521H416.676V67.138C416.676 66.7334 416.575 66.4238 416.373 66.2092C416.171 65.9885 415.895 65.8781 415.545 65.8781C415.19 65.8781 414.908 65.9885 414.699 66.2092C414.497 66.4238 414.396 66.7334 414.396 67.138V69.9521H413.108V63.1468H414.396V65.4919C414.561 65.2712 414.782 65.0995 415.058 64.9769C415.334 64.8481 415.64 64.7837 415.978 64.7837ZM423.998 64.8573V69.9521H422.701V69.3084C422.536 69.5291 422.318 69.7038 422.048 69.8326C421.785 69.9552 421.497 70.0165 421.184 70.0165C420.785 70.0165 420.433 69.9338 420.126 69.7682C419.82 69.5966 419.578 69.3482 419.4 69.0233C419.228 68.6922 419.142 68.2999 419.142 67.8462V64.8573H420.43V67.6622C420.43 68.0669 420.531 68.3796 420.733 68.6003C420.936 68.8149 421.212 68.9221 421.561 68.9221C421.917 68.9221 422.196 68.8149 422.398 68.6003C422.6 68.3796 422.701 68.0669 422.701 67.6622V64.8573H423.998ZM426.556 63.1468V69.9521H425.268V63.1468H426.556Z" fill="#374151"/>
<path d="M284.402 63.583V65.459H286.609V66.3143H284.402V68.2731H286.885V69.1284H283.354V62.7277H286.885V63.583H284.402ZM294.311 63.9784C294.709 63.9784 295.065 64.0612 295.377 64.2267C295.696 64.3923 295.945 64.6375 296.122 64.9624C296.306 65.2874 296.398 65.6798 296.398 66.1396V69.1284H295.359V66.2959C295.359 65.8422 295.246 65.4958 295.019 65.2567C294.792 65.0115 294.482 64.8889 294.09 64.8889C293.698 64.8889 293.385 65.0115 293.152 65.2567C292.925 65.4958 292.812 65.8422 292.812 66.2959V69.1284H291.772V66.2959C291.772 65.8422 291.659 65.4958 291.432 65.2567C291.205 65.0115 290.896 64.8889 290.503 64.8889C290.111 64.8889 289.798 65.0115 289.565 65.2567C289.338 65.4958 289.225 65.8422 289.225 66.2959V69.1284H288.177V64.0612H289.225V64.6406C289.397 64.4321 289.614 64.2696 289.878 64.1531C290.142 64.0367 290.424 63.9784 290.724 63.9784C291.129 63.9784 291.49 64.0642 291.809 64.2359C292.128 64.4076 292.373 64.6559 292.545 64.9808C292.698 64.6743 292.937 64.4321 293.262 64.2543C293.587 64.0704 293.937 63.9784 294.311 63.9784ZM298.781 64.8061C298.959 64.5731 299.201 64.3769 299.507 64.2175C299.814 64.0581 300.16 63.9784 300.546 63.9784C300.988 63.9784 301.389 64.0888 301.751 64.3095C302.119 64.5241 302.407 64.8275 302.616 65.2199C302.824 65.6123 302.928 66.0629 302.928 66.5718C302.928 67.0807 302.824 67.5374 302.616 67.9421C302.407 68.3406 302.119 68.6533 301.751 68.8801C301.389 69.1008 300.988 69.2112 300.546 69.2112C300.16 69.2112 299.817 69.1345 299.516 68.9813C299.216 68.8219 298.971 68.6257 298.781 68.3927V71.5379H297.732V64.0612H298.781V64.8061ZM301.862 66.5718C301.862 66.2223 301.788 65.9219 301.641 65.6706C301.5 65.4131 301.31 65.2199 301.071 65.0912C300.838 64.9563 300.586 64.8889 300.317 64.8889C300.053 64.8889 299.802 64.9563 299.562 65.0912C299.329 65.2261 299.139 65.4223 298.992 65.6798C298.851 65.9373 298.781 66.2407 298.781 66.5902C298.781 66.9397 298.851 67.2462 298.992 67.5098C299.139 67.7673 299.329 67.9635 299.562 68.0984C299.802 68.2333 300.053 68.3007 300.317 68.3007C300.586 68.3007 300.838 68.2333 301.071 68.0984C301.31 67.9574 301.5 67.7551 301.641 67.4915C301.788 67.2278 301.862 66.9213 301.862 66.5718ZM305.013 62.3231V69.1284H303.965V62.3231H305.013ZM308.588 69.2112C308.11 69.2112 307.677 69.1039 307.291 68.8893C306.905 68.6686 306.601 68.362 306.381 67.9697C306.16 67.5712 306.05 67.1113 306.05 66.5902C306.05 66.0752 306.163 65.6184 306.39 65.2199C306.617 64.8214 306.926 64.5149 307.319 64.3003C307.711 64.0857 308.15 63.9784 308.634 63.9784C309.118 63.9784 309.557 64.0857 309.949 64.3003C310.341 64.5149 310.651 64.8214 310.878 65.2199C311.105 65.6184 311.218 66.0752 311.218 66.5902C311.218 67.1052 311.102 67.562 310.869 67.9605C310.636 68.359 310.317 68.6686 309.912 68.8893C309.514 69.1039 309.072 69.2112 308.588 69.2112ZM308.588 68.3007C308.858 68.3007 309.109 68.2364 309.342 68.1076C309.581 67.9789 309.774 67.7857 309.921 67.5282C310.069 67.2707 310.142 66.9581 310.142 66.5902C310.142 66.2223 310.072 65.9127 309.931 65.6614C309.79 65.4039 309.603 65.2107 309.37 65.082C309.137 64.9532 308.885 64.8889 308.615 64.8889C308.346 64.8889 308.094 64.9532 307.861 65.082C307.635 65.2107 307.454 65.4039 307.319 65.6614C307.184 65.9127 307.116 66.2223 307.116 66.5902C307.116 67.1359 307.254 67.5589 307.53 67.8593C307.812 68.1536 308.165 68.3007 308.588 68.3007ZM316.816 64.0612L313.707 71.5103H312.622L313.652 69.0456L311.657 64.0612H312.825L314.25 67.9237L315.731 64.0612H316.816ZM322.251 66.4706C322.251 66.6607 322.239 66.8324 322.214 66.9856H318.343C318.373 67.3903 318.524 67.7152 318.793 67.9605C319.063 68.2057 319.394 68.3283 319.787 68.3283C320.351 68.3283 320.749 68.0923 320.982 67.6202H322.113C321.96 68.0862 321.681 68.4693 321.276 68.7698C320.878 69.064 320.381 69.2112 319.787 69.2112C319.302 69.2112 318.867 69.1039 318.481 68.8893C318.101 68.6686 317.8 68.362 317.579 67.9697C317.365 67.5712 317.258 67.1113 317.258 66.5902C317.258 66.0691 317.362 65.6123 317.57 65.2199C317.785 64.8214 318.082 64.5149 318.462 64.3003C318.849 64.0857 319.29 63.9784 319.787 63.9784C320.265 63.9784 320.691 64.0826 321.065 64.2911C321.439 64.4995 321.73 64.7938 321.939 65.1739C322.147 65.5479 322.251 65.9802 322.251 66.4706ZM321.157 66.1396C321.151 65.7533 321.013 65.4437 320.743 65.2107C320.473 64.9778 320.139 64.8613 319.741 64.8613C319.379 64.8613 319.069 64.9778 318.812 65.2107C318.554 65.4376 318.401 65.7472 318.352 66.1396H321.157ZM327.927 66.4706C327.927 66.6607 327.915 66.8324 327.89 66.9856H324.019C324.049 67.3903 324.2 67.7152 324.469 67.9605C324.739 68.2057 325.07 68.3283 325.463 68.3283C326.027 68.3283 326.425 68.0923 326.658 67.6202H327.789C327.636 68.0862 327.357 68.4693 326.952 68.7698C326.554 69.064 326.057 69.2112 325.463 69.2112C324.978 69.2112 324.543 69.1039 324.157 68.8893C323.777 68.6686 323.476 68.362 323.255 67.9697C323.041 67.5712 322.934 67.1113 322.934 66.5902C322.934 66.0691 323.038 65.6123 323.246 65.2199C323.461 64.8214 323.758 64.5149 324.138 64.3003C324.525 64.0857 324.966 63.9784 325.463 63.9784C325.941 63.9784 326.367 64.0826 326.741 64.2911C327.115 64.4995 327.406 64.7938 327.615 65.1739C327.823 65.5479 327.927 65.9802 327.927 66.4706ZM326.833 66.1396C326.827 65.7533 326.689 65.4437 326.419 65.2107C326.149 64.9778 325.815 64.8613 325.417 64.8613C325.055 64.8613 324.745 64.9778 324.488 65.2107C324.23 65.4376 324.077 65.7472 324.028 66.1396H326.833Z" fill="#374151"/>
<path d="M501.007 70.0165C500.559 70.0165 500.155 69.9399 499.793 69.7866C499.437 69.6333 499.155 69.4126 498.947 69.1245C498.738 68.8363 498.631 68.496 498.625 68.1037H500.004C500.023 68.3673 500.115 68.5757 500.28 68.729C500.452 68.8823 500.685 68.9589 500.979 68.9589C501.28 68.9589 501.516 68.8884 501.687 68.7474C501.859 68.6003 501.945 68.4102 501.945 68.1772C501.945 67.9872 501.887 67.8308 501.77 67.7082C501.654 67.5856 501.506 67.4906 501.329 67.4231C501.157 67.3496 500.918 67.2699 500.611 67.184C500.194 67.0614 499.854 66.9418 499.591 66.8254C499.333 66.7027 499.109 66.5219 498.919 66.2828C498.735 66.0375 498.643 65.7126 498.643 65.3079C498.643 64.9278 498.738 64.5968 498.928 64.3147C499.118 64.0327 499.385 63.8181 499.729 63.671C500.072 63.5177 500.464 63.4411 500.906 63.4411C501.568 63.4411 502.104 63.6035 502.515 63.9285C502.932 64.2473 503.162 64.6948 503.205 65.2712H501.789C501.776 65.0504 501.681 64.8696 501.503 64.7286C501.332 64.5814 501.102 64.5079 500.814 64.5079C500.562 64.5079 500.36 64.5722 500.207 64.701C500.06 64.8297 499.986 65.0167 499.986 65.262C499.986 65.4336 500.041 65.5777 500.152 65.6942C500.268 65.8046 500.409 65.8965 500.575 65.9701C500.746 66.0375 500.985 66.1172 501.292 66.2092C501.709 66.3318 502.049 66.4544 502.313 66.5771C502.576 66.6997 502.803 66.8836 502.993 67.1288C503.183 67.3741 503.278 67.696 503.278 68.0945C503.278 68.4378 503.189 68.7566 503.012 69.0509C502.834 69.3452 502.573 69.5812 502.23 69.759C501.887 69.9307 501.479 70.0165 501.007 70.0165ZM504.063 67.3863C504.063 66.8713 504.165 66.4146 504.367 66.0161C504.575 65.6176 504.854 65.311 505.204 65.0964C505.559 64.8818 505.955 64.7746 506.39 64.7746C506.77 64.7746 507.101 64.8512 507.383 65.0045C507.672 65.1577 507.901 65.3509 508.073 65.5838V64.8573H509.37V69.9521H508.073V69.2072C507.908 69.4463 507.678 69.6456 507.383 69.805C507.095 69.9583 506.761 70.0349 506.381 70.0349C505.952 70.0349 505.559 69.9246 505.204 69.7038C504.854 69.4831 504.575 69.1735 504.367 68.775C504.165 68.3704 504.063 67.9075 504.063 67.3863ZM508.073 67.4047C508.073 67.0921 508.012 66.8254 507.889 66.6046C507.767 66.3778 507.601 66.2061 507.393 66.0896C507.184 65.967 506.96 65.9057 506.721 65.9057C506.482 65.9057 506.261 65.964 506.059 66.0804C505.857 66.1969 505.691 66.3686 505.562 66.5954C505.44 66.8162 505.379 67.0798 505.379 67.3863C505.379 67.6929 505.44 67.9627 505.562 68.1956C505.691 68.4225 505.857 68.5972 506.059 68.7198C506.268 68.8424 506.488 68.9038 506.721 68.9038C506.96 68.9038 507.184 68.8455 507.393 68.729C507.601 68.6064 507.767 68.4347 507.889 68.214C508.012 67.9872 508.073 67.7174 508.073 67.4047ZM516.954 64.7837C517.58 64.7837 518.083 64.9769 518.463 65.3631C518.849 65.7432 519.042 66.2766 519.042 66.9633V69.9521H517.755V67.138C517.755 66.7395 517.653 66.436 517.451 66.2276C517.249 66.013 516.973 65.9057 516.623 65.9057C516.274 65.9057 515.995 66.013 515.786 66.2276C515.584 66.436 515.483 66.7395 515.483 67.138V69.9521H514.196V67.138C514.196 66.7395 514.094 66.436 513.892 66.2276C513.69 66.013 513.414 65.9057 513.064 65.9057C512.709 65.9057 512.427 66.013 512.218 66.2276C512.016 66.436 511.915 66.7395 511.915 67.138V69.9521H510.627V64.8573H511.915V65.4735C512.08 65.2589 512.292 65.0903 512.549 64.9677C512.813 64.8451 513.101 64.7837 513.414 64.7837C513.812 64.7837 514.168 64.8696 514.481 65.0412C514.793 65.2068 515.035 65.4459 515.207 65.7586C515.373 65.4643 515.612 65.2282 515.924 65.0504C516.243 64.8726 516.587 64.7837 516.954 64.7837ZM525 67.2944C525 67.4783 524.988 67.6438 524.963 67.791H521.239C521.269 68.1588 521.398 68.447 521.625 68.6555C521.852 68.8639 522.131 68.9681 522.462 68.9681C522.94 68.9681 523.28 68.7627 523.483 68.352H524.871C524.724 68.8424 524.442 69.2471 524.025 69.5659C523.608 69.8786 523.096 70.0349 522.489 70.0349C521.999 70.0349 521.557 69.9276 521.165 69.713C520.779 69.4923 520.475 69.1827 520.255 68.7842C520.04 68.3857 519.933 67.9259 519.933 67.4047C519.933 66.8775 520.04 66.4146 520.255 66.0161C520.469 65.6176 520.77 65.311 521.156 65.0964C521.542 64.8818 521.987 64.7746 522.489 64.7746C522.974 64.7746 523.406 64.8788 523.786 65.0872C524.172 65.2957 524.47 65.593 524.678 65.9793C524.893 66.3594 525 66.7978 525 67.2944ZM523.666 66.9265C523.66 66.5954 523.541 66.3318 523.308 66.1356C523.075 65.9333 522.79 65.8321 522.453 65.8321C522.134 65.8321 521.864 65.9302 521.643 66.1264C521.429 66.3165 521.297 66.5832 521.248 66.9265H523.666ZM530.676 67.2944C530.676 67.4783 530.664 67.6438 530.639 67.791H526.915C526.945 68.1588 527.074 68.447 527.301 68.6555C527.528 68.8639 527.807 68.9681 528.138 68.9681C528.616 68.9681 528.956 68.7627 529.158 68.352H530.547C530.4 68.8424 530.118 69.2471 529.701 69.5659C529.284 69.8786 528.772 70.0349 528.165 70.0349C527.675 70.0349 527.233 69.9276 526.841 69.713C526.455 69.4923 526.151 69.1827 525.931 68.7842C525.716 68.3857 525.609 67.9259 525.609 67.4047C525.609 66.8775 525.716 66.4146 525.931 66.0161C526.145 65.6176 526.446 65.311 526.832 65.0964C527.218 64.8818 527.663 64.7746 528.165 64.7746C528.65 64.7746 529.082 64.8788 529.462 65.0872C529.848 65.2957 530.146 65.593 530.354 65.9793C530.569 66.3594 530.676 66.7978 530.676 67.2944ZM529.342 66.9265C529.336 66.5954 529.217 66.3318 528.984 66.1356C528.751 65.9333 528.466 65.8321 528.128 65.8321C527.81 65.8321 527.54 65.9302 527.319 66.1264C527.105 66.3165 526.973 66.5832 526.924 66.9265H529.342ZM532.903 65.6482C533.069 65.3785 533.283 65.1669 533.547 65.0137C533.817 64.8604 534.123 64.7837 534.467 64.7837V66.1356H534.126C533.722 66.1356 533.415 66.2307 533.207 66.4207C533.004 66.6108 532.903 66.9418 532.903 67.4139V69.9521H531.616V64.8573H532.903V65.6482Z" fill="#374151"/>
<path d="M287.667 223.788V224.827H285.957V230.207H284.669V224.827H282.958V223.788H287.667ZM293.416 225.112V230.207H292.119V229.564C291.954 229.784 291.736 229.959 291.467 230.088C291.203 230.21 290.915 230.272 290.602 230.272C290.204 230.272 289.851 230.189 289.544 230.023C289.238 229.852 288.996 229.603 288.818 229.278C288.646 228.947 288.56 228.555 288.56 228.101V225.112H289.848V227.917C289.848 228.322 289.949 228.635 290.151 228.855C290.354 229.07 290.63 229.177 290.979 229.177C291.335 229.177 291.614 229.07 291.816 228.855C292.018 228.635 292.119 228.322 292.119 227.917V225.112H293.416ZM299.423 227.55C299.423 227.733 299.41 227.899 299.386 228.046H295.661C295.692 228.414 295.821 228.702 296.048 228.911C296.274 229.119 296.553 229.223 296.884 229.223C297.363 229.223 297.703 229.018 297.905 228.607H299.294C299.147 229.098 298.865 229.502 298.448 229.821C298.031 230.134 297.519 230.29 296.912 230.29C296.422 230.29 295.98 230.183 295.588 229.968C295.202 229.747 294.898 229.438 294.677 229.039C294.463 228.641 294.355 228.181 294.355 227.66C294.355 227.133 294.463 226.67 294.677 226.271C294.892 225.873 295.192 225.566 295.579 225.352C295.965 225.137 296.409 225.03 296.912 225.03C297.396 225.03 297.829 225.134 298.209 225.342C298.595 225.551 298.892 225.848 299.101 226.234C299.315 226.615 299.423 227.053 299.423 227.55ZM298.089 227.182C298.083 226.851 297.964 226.587 297.731 226.391C297.498 226.188 297.212 226.087 296.875 226.087C296.556 226.087 296.287 226.185 296.066 226.382C295.851 226.572 295.72 226.838 295.671 227.182H298.089ZM302.312 230.29C301.895 230.29 301.521 230.216 301.19 230.069C300.859 229.916 300.595 229.711 300.399 229.453C300.209 229.196 300.105 228.911 300.087 228.598H301.383C301.408 228.794 301.503 228.957 301.668 229.085C301.84 229.214 302.052 229.278 302.303 229.278C302.548 229.278 302.738 229.229 302.873 229.131C303.014 229.033 303.085 228.908 303.085 228.754C303.085 228.589 302.999 228.466 302.827 228.386C302.662 228.301 302.395 228.209 302.027 228.11C301.647 228.019 301.334 227.923 301.089 227.825C300.85 227.727 300.641 227.577 300.464 227.375C300.292 227.172 300.206 226.9 300.206 226.556C300.206 226.274 300.286 226.017 300.445 225.784C300.611 225.551 300.844 225.367 301.144 225.232C301.451 225.097 301.809 225.03 302.22 225.03C302.827 225.03 303.311 225.183 303.673 225.49C304.035 225.79 304.234 226.198 304.271 226.713H303.039C303.02 226.51 302.934 226.351 302.781 226.234C302.634 226.112 302.435 226.05 302.183 226.05C301.95 226.05 301.77 226.093 301.641 226.179C301.518 226.265 301.457 226.385 301.457 226.538C301.457 226.71 301.543 226.841 301.714 226.933C301.886 227.019 302.153 227.108 302.514 227.2C302.882 227.292 303.186 227.387 303.425 227.485C303.664 227.583 303.869 227.736 304.041 227.945C304.219 228.147 304.311 228.417 304.317 228.754C304.317 229.049 304.234 229.312 304.069 229.545C303.909 229.778 303.676 229.962 303.37 230.097C303.069 230.226 302.717 230.29 302.312 230.29ZM305.043 227.641C305.043 227.126 305.144 226.67 305.346 226.271C305.555 225.873 305.837 225.566 306.192 225.352C306.548 225.137 306.943 225.03 307.379 225.03C307.71 225.03 308.025 225.103 308.326 225.25C308.626 225.391 308.865 225.581 309.043 225.821V223.402H310.349V230.207H309.043V229.453C308.884 229.705 308.66 229.907 308.372 230.06C308.084 230.213 307.75 230.29 307.369 230.29C306.94 230.29 306.548 230.18 306.192 229.959C305.837 229.738 305.555 229.429 305.346 229.03C305.144 228.625 305.043 228.163 305.043 227.641ZM309.052 227.66C309.052 227.347 308.991 227.08 308.868 226.86C308.746 226.633 308.58 226.461 308.372 226.345C308.163 226.222 307.94 226.161 307.7 226.161C307.461 226.161 307.241 226.219 307.038 226.336C306.836 226.452 306.67 226.624 306.542 226.851C306.419 227.071 306.358 227.335 306.358 227.641C306.358 227.948 306.419 228.218 306.542 228.451C306.67 228.678 306.836 228.852 307.038 228.975C307.247 229.098 307.468 229.159 307.7 229.159C307.94 229.159 308.163 229.101 308.372 228.984C308.58 228.862 308.746 228.69 308.868 228.469C308.991 228.242 309.052 227.973 309.052 227.66ZM311.275 227.641C311.275 227.126 311.377 226.67 311.579 226.271C311.787 225.873 312.066 225.566 312.416 225.352C312.771 225.137 313.167 225.03 313.602 225.03C313.982 225.03 314.313 225.106 314.595 225.26C314.884 225.413 315.113 225.606 315.285 225.839V225.112H316.582V230.207H315.285V229.462C315.12 229.701 314.89 229.901 314.595 230.06C314.307 230.213 313.973 230.29 313.593 230.29C313.164 230.29 312.771 230.18 312.416 229.959C312.066 229.738 311.787 229.429 311.579 229.03C311.377 228.625 311.275 228.163 311.275 227.641ZM315.285 227.66C315.285 227.347 315.224 227.08 315.101 226.86C314.979 226.633 314.813 226.461 314.605 226.345C314.396 226.222 314.172 226.161 313.933 226.161C313.694 226.161 313.473 226.219 313.271 226.336C313.069 226.452 312.903 226.624 312.774 226.851C312.652 227.071 312.591 227.335 312.591 227.641C312.591 227.948 312.652 228.218 312.774 228.451C312.903 228.678 313.069 228.852 313.271 228.975C313.48 229.098 313.7 229.159 313.933 229.159C314.172 229.159 314.396 229.101 314.605 228.984C314.813 228.862 314.979 228.69 315.101 228.469C315.224 228.242 315.285 227.973 315.285 227.66ZM322.713 225.112L319.559 232.617H318.189L319.292 230.079L317.251 225.112H318.695L320.01 228.671L321.343 225.112H322.713Z" fill="#202A37"/>
<path d="M262.513 147.445H584.121" stroke="#BCBCBC" stroke-width="0.345502" stroke-miterlimit="10"/>
<path d="M262.513 91.4148H584.121" stroke="#BCBCBC" stroke-width="0.345502" stroke-miterlimit="10"/>
<path d="M466.216 40.9871V254.017" stroke="#BCBCBC" stroke-width="0.33534" stroke-miterlimit="10"/>
<path d="M363.089 40.9871V254.017" stroke="#BCBCBC" stroke-width="0.33534" stroke-miterlimit="10"/>
<path d="M262.513 203.485H584.121" stroke="#BCBCBC" stroke-width="0.345502" stroke-miterlimit="10"/>
<path d="M406.171 173.962L412.39 179.7L422.131 169.425" stroke="#8AD336" stroke-width="2.29657"/>
<path d="M508.963 119.018L515.182 124.755L524.923 114.48" stroke="#8AD336" stroke-width="2.29657"/>
<path d="M406.171 227.791L412.39 233.529L422.131 223.253" stroke="#8AD336" stroke-width="2.29657"/>
<path d="M410.438 112.794V113.327H408.654V119.222H408.01V113.327H406.217V112.794H410.438ZM415.179 117.696H412.255L411.694 119.222H411.013L413.358 112.877H414.085L416.421 119.222H415.74L415.179 117.696ZM414.986 117.162L413.717 113.686L412.448 117.162H414.986ZM421.565 114.642C421.565 115.194 421.384 115.639 421.022 115.976C420.66 116.313 420.118 116.482 419.394 116.482H418.098V119.222H417.454V112.794H419.394C420.112 112.794 420.651 112.962 421.013 113.3C421.381 113.637 421.565 114.084 421.565 114.642ZM419.394 115.93C420.4 115.93 420.903 115.501 420.903 114.642C420.903 114.213 420.783 113.888 420.544 113.668C420.305 113.447 419.922 113.336 419.394 113.336H418.098V115.93H419.394Z" fill="#9AA1AD"/>
<path d="M513.23 168.636V169.169H511.446V175.064H510.802V169.169H509.009V168.636H513.23ZM517.971 173.537H515.047L514.486 175.064H513.805L516.15 168.718H516.877L519.213 175.064H518.532L517.971 173.537ZM517.778 173.004L516.509 169.528L515.24 173.004H517.778ZM524.357 170.484C524.357 171.036 524.176 171.48 523.814 171.818C523.452 172.155 522.91 172.323 522.186 172.323H520.889V175.064H520.246V168.636H522.186C522.903 168.636 523.443 168.804 523.805 169.141C524.173 169.479 524.357 169.926 524.357 170.484ZM522.186 171.772C523.192 171.772 523.694 171.342 523.694 170.484C523.694 170.055 523.575 169.73 523.336 169.509C523.097 169.289 522.713 169.178 522.186 169.178H520.889V171.772H522.186Z" fill="#9AA1AD"/>
<path d="M513.23 223.685V224.218H511.446V230.113H510.802V224.218H509.009V223.685H513.23ZM517.971 228.586H515.047L514.486 230.113H513.805L516.15 223.767H516.877L519.213 230.113H518.532L517.971 228.586ZM517.778 228.053L516.509 224.577L515.24 228.053H517.778ZM524.357 225.533C524.357 226.085 524.176 226.529 523.814 226.867C523.452 227.204 522.91 227.372 522.186 227.372H520.889V230.113H520.246V223.685H522.186C522.903 223.685 523.443 223.853 523.805 224.191C524.173 224.528 524.357 224.975 524.357 225.533ZM522.186 226.821C523.192 226.821 523.694 226.392 523.694 225.533C523.694 225.104 523.575 224.779 523.336 224.558C523.097 224.338 522.713 224.227 522.186 224.227H520.889V226.821H522.186Z" fill="#9AA1AD"/>
</g>
<g filter="url(#filter1_d_491_3048)">
<path d="M246.01 147.267H11.5699C8.3836 147.267 5.8006 149.845 5.8006 153.025V218.402C5.8006 221.582 8.3836 224.161 11.5699 224.161H246.01C249.197 224.161 251.78 221.582 251.78 218.402V153.025C251.78 149.845 249.197 147.267 246.01 147.267Z" fill="white"/>
<path d="M74.4196 165.987V169.59H78.6583V171.232H74.4196V174.994H79.1882V176.636H72.4063V164.344H79.1882V165.987H74.4196ZM85.4299 174.835L88.185 166.905H90.3221L86.6132 176.636H84.2113L80.5201 166.905H82.6747L85.4299 174.835ZM100.763 171.532C100.763 171.897 100.739 172.227 100.692 172.521H93.2569C93.3157 173.299 93.6042 173.923 94.1223 174.393C94.6403 174.864 95.2761 175.1 96.0297 175.1C97.1129 175.1 97.8782 174.647 98.3256 173.74H100.498C100.204 174.635 99.6679 175.371 98.8908 175.948C98.1255 176.513 97.1718 176.795 96.0297 176.795C95.0995 176.795 94.2635 176.589 93.5218 176.177C92.7918 175.753 92.2148 175.165 91.791 174.411C91.3789 173.646 91.1728 172.763 91.1728 171.762C91.1728 170.761 91.373 169.884 91.7733 169.13C92.1854 168.365 92.7565 167.776 93.4864 167.364C94.2282 166.952 95.076 166.746 96.0297 166.746C96.9481 166.746 97.7664 166.946 98.4846 167.347C99.2028 167.747 99.7621 168.312 100.162 169.042C100.563 169.76 100.763 170.59 100.763 171.532ZM98.6612 170.897C98.6494 170.155 98.3845 169.56 97.8664 169.113C97.3484 168.665 96.7067 168.442 95.9414 168.442C95.2467 168.442 94.6521 168.665 94.1576 169.113C93.6631 169.548 93.3687 170.143 93.2745 170.897H98.6612ZM107.654 166.746C108.419 166.746 109.102 166.905 109.703 167.223C110.315 167.541 110.792 168.012 111.133 168.636C111.475 169.26 111.646 170.014 111.646 170.897V176.636H109.65V171.197C109.65 170.326 109.432 169.66 108.996 169.201C108.561 168.73 107.966 168.495 107.213 168.495C106.459 168.495 105.859 168.73 105.411 169.201C104.975 169.66 104.758 170.326 104.758 171.197V176.636H102.744V166.905H104.758V168.018C105.087 167.617 105.505 167.305 106.012 167.082C106.53 166.858 107.077 166.746 107.654 166.746ZM115.238 165.616C114.873 165.616 114.567 165.492 114.32 165.245C114.072 164.998 113.949 164.692 113.949 164.327C113.949 163.962 114.072 163.655 114.32 163.408C114.567 163.161 114.873 163.037 115.238 163.037C115.591 163.037 115.892 163.161 116.139 163.408C116.386 163.655 116.51 163.962 116.51 164.327C116.51 164.692 116.386 164.998 116.139 165.245C115.892 165.492 115.591 165.616 115.238 165.616ZM116.227 166.905V176.636H114.214V166.905H116.227ZM123.78 166.746C124.546 166.746 125.229 166.905 125.829 167.223C126.441 167.541 126.918 168.012 127.26 168.636C127.601 169.26 127.772 170.014 127.772 170.897V176.636H125.776V171.197C125.776 170.326 125.558 169.66 125.123 169.201C124.687 168.73 124.092 168.495 123.339 168.495C122.585 168.495 121.985 168.73 121.537 169.201C121.102 169.66 120.884 170.326 120.884 171.197V176.636H118.87V166.905H120.884V168.018C121.214 167.617 121.632 167.305 122.138 167.082C122.656 166.858 123.203 166.746 123.78 166.746ZM134.261 166.746C135.014 166.746 135.679 166.899 136.256 167.205C136.845 167.5 137.304 167.871 137.634 168.318V166.905H139.665V176.795C139.665 177.69 139.477 178.485 139.1 179.18C138.723 179.886 138.176 180.44 137.457 180.84C136.751 181.24 135.903 181.44 134.914 181.44C133.595 181.44 132.5 181.128 131.629 180.504C130.758 179.892 130.263 179.056 130.146 177.996H132.141C132.294 178.503 132.618 178.909 133.113 179.215C133.619 179.533 134.219 179.692 134.914 179.692C135.727 179.692 136.38 179.445 136.875 178.95C137.381 178.456 137.634 177.737 137.634 176.795V175.171C137.293 175.63 136.827 176.018 136.239 176.336C135.662 176.642 135.002 176.795 134.261 176.795C133.413 176.795 132.636 176.583 131.929 176.16C131.235 175.724 130.681 175.123 130.269 174.358C129.869 173.581 129.669 172.704 129.669 171.727C129.669 170.749 129.869 169.884 130.269 169.13C130.681 168.377 131.235 167.794 131.929 167.382C132.636 166.958 133.413 166.746 134.261 166.746ZM137.634 171.762C137.634 171.091 137.493 170.508 137.21 170.014C136.939 169.519 136.58 169.142 136.133 168.883C135.685 168.624 135.203 168.495 134.685 168.495C134.167 168.495 133.684 168.624 133.236 168.883C132.789 169.13 132.424 169.501 132.141 169.996C131.871 170.479 131.735 171.056 131.735 171.727C131.735 172.398 131.871 172.986 132.141 173.493C132.424 173.999 132.789 174.388 133.236 174.658C133.696 174.917 134.178 175.047 134.685 175.047C135.203 175.047 135.685 174.917 136.133 174.658C136.58 174.399 136.939 174.023 137.21 173.528C137.493 173.022 137.634 172.433 137.634 171.762ZM150.942 176.76C150.118 176.76 149.376 176.619 148.716 176.336C148.057 176.042 147.539 175.63 147.162 175.1C146.785 174.57 146.597 173.952 146.597 173.246H148.752C148.799 173.775 149.005 174.211 149.37 174.552C149.747 174.894 150.271 175.065 150.942 175.065C151.636 175.065 152.178 174.9 152.567 174.57C152.955 174.229 153.149 173.793 153.149 173.263C153.149 172.851 153.026 172.516 152.779 172.256C152.543 171.997 152.243 171.797 151.878 171.656C151.525 171.515 151.03 171.362 150.394 171.197C149.594 170.985 148.94 170.773 148.434 170.561C147.939 170.337 147.515 169.996 147.162 169.537C146.809 169.077 146.632 168.465 146.632 167.7C146.632 166.993 146.809 166.375 147.162 165.845C147.515 165.316 148.01 164.909 148.646 164.627C149.282 164.344 150.017 164.203 150.853 164.203C152.043 164.203 153.014 164.503 153.768 165.104C154.533 165.692 154.957 166.505 155.039 167.541H152.814C152.779 167.094 152.567 166.711 152.178 166.393C151.789 166.075 151.277 165.916 150.641 165.916C150.065 165.916 149.594 166.063 149.229 166.358C148.864 166.652 148.681 167.076 148.681 167.629C148.681 168.006 148.793 168.318 149.017 168.565C149.252 168.801 149.546 168.989 149.9 169.13C150.253 169.272 150.736 169.425 151.348 169.59C152.16 169.813 152.82 170.037 153.326 170.261C153.844 170.484 154.28 170.832 154.633 171.303C154.998 171.762 155.18 172.38 155.18 173.157C155.18 173.781 155.01 174.37 154.668 174.923C154.339 175.477 153.85 175.924 153.202 176.266C152.567 176.595 151.813 176.76 150.942 176.76ZM162.59 166.746C163.331 166.746 163.991 166.905 164.568 167.223C165.156 167.541 165.616 168.012 165.945 168.636C166.287 169.26 166.457 170.014 166.457 170.897V176.636H164.462V171.197C164.462 170.326 164.244 169.66 163.808 169.201C163.373 168.73 162.778 168.495 162.024 168.495C161.271 168.495 160.67 168.73 160.223 169.201C159.787 169.66 159.57 170.326 159.57 171.197V176.636H157.556V163.567H159.57V168.035C159.911 167.623 160.341 167.305 160.859 167.082C161.389 166.858 161.966 166.746 162.59 166.746ZM170.05 165.616C169.685 165.616 169.379 165.492 169.132 165.245C168.884 164.998 168.761 164.692 168.761 164.327C168.761 163.962 168.884 163.655 169.132 163.408C169.379 163.161 169.685 163.037 170.05 163.037C170.403 163.037 170.703 163.161 170.951 163.408C171.198 163.655 171.322 163.962 171.322 164.327C171.322 164.692 171.198 164.998 170.951 165.245C170.703 165.492 170.403 165.616 170.05 165.616ZM171.039 166.905V176.636H169.026V166.905H171.039ZM177.762 168.548H175.961V176.636H173.93V168.548H172.782V166.905H173.93V166.216C173.93 165.098 174.224 164.285 174.813 163.779C175.413 163.261 176.349 163.002 177.621 163.002V164.68C177.009 164.68 176.579 164.798 176.332 165.033C176.084 165.257 175.961 165.651 175.961 166.216V166.905H177.762V168.548ZM181.895 168.548V173.934C181.895 174.299 181.978 174.564 182.143 174.729C182.319 174.882 182.614 174.959 183.026 174.959H184.262V176.636H182.672C181.766 176.636 181.071 176.425 180.588 176.001C180.106 175.577 179.864 174.888 179.864 173.934V168.548H178.716V166.905H179.864V164.486H181.895V166.905H184.262V168.548H181.895Z" fill="#202A37"/>
<path d="M71.6181 201.503V200.263H74.0974V208.953H72.7266V201.503H71.6181ZM76.7151 207.105C77.4779 206.446 78.0779 205.905 78.515 205.484C78.96 205.055 79.3295 204.61 79.6235 204.149C79.9175 203.688 80.0645 203.227 80.0645 202.767C80.0645 202.29 79.9493 201.916 79.7189 201.646C79.4964 201.376 79.1427 201.241 78.658 201.241C78.1892 201.241 77.8236 201.392 77.5614 201.694C77.3071 201.988 77.172 202.385 77.1561 202.886H75.8449C75.8688 201.98 76.139 201.288 76.6555 200.812C77.1799 200.327 77.8435 200.085 78.6461 200.085C79.5123 200.085 80.1877 200.323 80.6725 200.8C81.1651 201.277 81.4115 201.912 81.4115 202.707C81.4115 203.279 81.2645 203.831 80.9704 204.364C80.6844 204.888 80.3387 205.361 79.9334 205.782C79.5361 206.195 79.0275 206.676 78.4077 207.225L77.8713 207.701H81.6499V208.834H75.8569V207.844L76.7151 207.105ZM83.5707 209.036C83.3244 209.036 83.1178 208.953 82.9509 208.786C82.784 208.619 82.7006 208.413 82.7006 208.166C82.7006 207.92 82.784 207.713 82.9509 207.546C83.1178 207.379 83.3244 207.296 83.5707 207.296C83.8091 207.296 84.0118 207.379 84.1786 207.546C84.3455 207.713 84.429 207.92 84.429 208.166C84.429 208.413 84.3455 208.619 84.1786 208.786C84.0118 208.953 83.8091 209.036 83.5707 209.036ZM83.5707 204.03C83.3244 204.03 83.1178 203.947 82.9509 203.78C82.784 203.613 82.7006 203.406 82.7006 203.16C82.7006 202.914 82.784 202.707 82.9509 202.54C83.1178 202.373 83.3244 202.29 83.5707 202.29C83.8091 202.29 84.0118 202.373 84.1786 202.54C84.3455 202.707 84.429 202.914 84.429 203.16C84.429 203.406 84.3455 203.613 84.1786 203.78C84.0118 203.947 83.8091 204.03 83.5707 204.03ZM85.7415 202.409C85.7892 201.67 86.0713 201.094 86.5878 200.681C87.1123 200.267 87.7798 200.061 88.5904 200.061C89.1466 200.061 89.6274 200.16 90.0327 200.359C90.4379 200.557 90.7439 200.828 90.9505 201.169C91.1571 201.511 91.2604 201.896 91.2604 202.325C91.2604 202.818 91.1293 203.239 90.8671 203.589C90.6048 203.939 90.2909 204.173 89.9254 204.292V204.34C90.3942 204.483 90.7598 204.745 91.022 205.127C91.2842 205.5 91.4154 205.981 91.4154 206.569C91.4154 207.038 91.3081 207.455 91.0935 207.82C90.879 208.186 90.5611 208.476 90.1399 208.691C89.7188 208.897 89.2142 209.001 88.6261 209.001C87.7679 209.001 87.0607 208.782 86.5044 208.345C85.9561 207.9 85.6621 207.264 85.6223 206.438H86.9335C86.9653 206.859 87.1282 207.205 87.4222 207.475C87.7163 207.737 88.1136 207.868 88.6142 207.868C89.0989 207.868 89.4724 207.737 89.7347 207.475C89.9969 207.205 90.128 206.859 90.128 206.438C90.128 205.882 89.9492 205.488 89.5916 205.258C89.242 205.019 88.7016 204.9 87.9705 204.9H87.6606V203.78H87.9825C88.6261 203.772 89.1148 203.664 89.4486 203.458C89.7903 203.251 89.9611 202.925 89.9611 202.48C89.9611 202.099 89.838 201.797 89.5916 201.575C89.3453 201.344 88.9956 201.229 88.5427 201.229C88.0977 201.229 87.752 201.344 87.5057 201.575C87.2593 201.797 87.1123 202.075 87.0646 202.409H85.7415ZM92.8428 204.495C92.8428 203.12 93.0732 202.047 93.5341 201.277C94.003 200.498 94.8056 200.108 95.9419 200.108C97.0783 200.108 97.8769 200.498 98.3378 201.277C98.8066 202.047 99.0411 203.12 99.0411 204.495C99.0411 205.886 98.8066 206.974 98.3378 207.761C97.8769 208.54 97.0783 208.929 95.9419 208.929C94.8056 208.929 94.003 208.54 93.5341 207.761C93.0732 206.974 92.8428 205.886 92.8428 204.495ZM97.706 204.495C97.706 203.851 97.6623 203.307 97.5749 202.862C97.4955 202.417 97.3286 202.055 97.0743 201.777C96.82 201.491 96.4425 201.348 95.9419 201.348C95.4413 201.348 95.0638 201.491 94.8095 201.777C94.5552 202.055 94.3844 202.417 94.297 202.862C94.2175 203.307 94.1778 203.851 94.1778 204.495C94.1778 205.162 94.2175 205.723 94.297 206.176C94.3764 206.629 94.5433 206.994 94.7976 207.272C95.0598 207.55 95.4413 207.689 95.9419 207.689C96.4425 207.689 96.82 207.55 97.0743 207.272C97.3365 206.994 97.5074 206.629 97.5868 206.176C97.6663 205.723 97.706 205.162 97.706 204.495ZM105.339 203.494V207.129C105.339 207.375 105.395 207.554 105.506 207.666C105.625 207.769 105.824 207.82 106.102 207.82H106.937V208.953H105.864C105.252 208.953 104.783 208.81 104.457 208.524C104.131 208.238 103.969 207.773 103.969 207.129V203.494H103.194V202.385H103.969V200.752H105.339V202.385H106.937V203.494H105.339ZM111.038 209.06C110.418 209.06 109.858 208.921 109.357 208.643C108.857 208.357 108.463 207.96 108.177 207.451C107.891 206.934 107.748 206.338 107.748 205.663C107.748 204.996 107.895 204.403 108.189 203.887C108.483 203.37 108.884 202.973 109.393 202.695C109.902 202.417 110.47 202.278 111.097 202.278C111.725 202.278 112.293 202.417 112.802 202.695C113.311 202.973 113.712 203.37 114.006 203.887C114.3 204.403 114.447 204.996 114.447 205.663C114.447 206.331 114.296 206.923 113.994 207.439C113.692 207.956 113.279 208.357 112.754 208.643C112.238 208.921 111.666 209.06 111.038 209.06ZM111.038 207.88C111.388 207.88 111.713 207.797 112.015 207.63C112.325 207.463 112.576 207.213 112.766 206.879C112.957 206.545 113.052 206.14 113.052 205.663C113.052 205.186 112.961 204.785 112.778 204.459C112.595 204.125 112.353 203.875 112.051 203.708C111.749 203.541 111.423 203.458 111.074 203.458C110.724 203.458 110.398 203.541 110.096 203.708C109.802 203.875 109.568 204.125 109.393 204.459C109.218 204.785 109.131 205.186 109.131 205.663C109.131 206.37 109.31 206.919 109.667 207.308C110.033 207.689 110.49 207.88 111.038 207.88ZM118.708 204.495C118.708 203.12 118.938 202.047 119.399 201.277C119.868 200.498 120.671 200.108 121.807 200.108C122.943 200.108 123.742 200.498 124.203 201.277C124.672 202.047 124.906 203.12 124.906 204.495C124.906 205.886 124.672 206.974 124.203 207.761C123.742 208.54 122.943 208.929 121.807 208.929C120.671 208.929 119.868 208.54 119.399 207.761C118.938 206.974 118.708 205.886 118.708 204.495ZM123.571 204.495C123.571 203.851 123.527 203.307 123.44 202.862C123.361 202.417 123.194 202.055 122.939 201.777C122.685 201.491 122.308 201.348 121.807 201.348C121.306 201.348 120.929 201.491 120.675 201.777C120.42 202.055 120.249 202.417 120.162 202.862C120.083 203.307 120.043 203.851 120.043 204.495C120.043 205.162 120.083 205.723 120.162 206.176C120.241 206.629 120.408 206.994 120.663 207.272C120.925 207.55 121.306 207.689 121.807 207.689C122.308 207.689 122.685 207.55 122.939 207.272C123.202 206.994 123.372 206.629 123.452 206.176C123.531 205.723 123.571 205.162 123.571 204.495ZM131.016 202.278C130.929 201.912 130.77 201.638 130.54 201.455C130.309 201.273 129.987 201.181 129.574 201.181C128.946 201.181 128.478 201.424 128.168 201.908C127.858 202.385 127.695 203.18 127.679 204.292C127.886 203.943 128.188 203.672 128.585 203.482C128.982 203.291 129.411 203.196 129.872 203.196C130.397 203.196 130.858 203.311 131.255 203.541C131.66 203.764 131.974 204.09 132.197 204.519C132.427 204.948 132.542 205.46 132.542 206.056C132.542 206.613 132.431 207.109 132.208 207.546C131.994 207.983 131.672 208.329 131.243 208.583C130.814 208.83 130.297 208.953 129.693 208.953C128.875 208.953 128.231 208.774 127.762 208.416C127.301 208.051 126.976 207.538 126.785 206.879C126.602 206.219 126.511 205.397 126.511 204.411C126.511 201.503 127.536 200.049 129.586 200.049C130.381 200.049 131.005 200.263 131.458 200.692C131.918 201.122 132.189 201.65 132.268 202.278H131.016ZM129.574 204.34C129.089 204.34 128.676 204.487 128.335 204.781C128.001 205.067 127.834 205.484 127.834 206.033C127.834 206.581 127.989 207.018 128.299 207.344C128.617 207.662 129.058 207.82 129.622 207.82C130.123 207.82 130.516 207.666 130.802 207.356C131.096 207.046 131.243 206.632 131.243 206.116C131.243 205.576 131.1 205.146 130.814 204.829C130.536 204.503 130.123 204.34 129.574 204.34ZM134.719 209.036C134.472 209.036 134.266 208.953 134.099 208.786C133.932 208.619 133.849 208.413 133.849 208.166C133.849 207.92 133.932 207.713 134.099 207.546C134.266 207.379 134.472 207.296 134.719 207.296C134.957 207.296 135.16 207.379 135.327 207.546C135.494 207.713 135.577 207.92 135.577 208.166C135.577 208.413 135.494 208.619 135.327 208.786C135.16 208.953 134.957 209.036 134.719 209.036ZM134.719 204.03C134.472 204.03 134.266 203.947 134.099 203.78C133.932 203.613 133.849 203.406 133.849 203.16C133.849 202.914 133.932 202.707 134.099 202.54C134.266 202.373 134.472 202.29 134.719 202.29C134.957 202.29 135.16 202.373 135.327 202.54C135.494 202.707 135.577 202.914 135.577 203.16C135.577 203.406 135.494 203.613 135.327 203.78C135.16 203.947 134.957 204.03 134.719 204.03ZM136.89 202.409C136.937 201.67 137.219 201.094 137.736 200.681C138.26 200.267 138.928 200.061 139.738 200.061C140.295 200.061 140.775 200.16 141.181 200.359C141.586 200.557 141.892 200.828 142.099 201.169C142.305 201.511 142.408 201.896 142.408 202.325C142.408 202.818 142.277 203.239 142.015 203.589C141.753 203.939 141.439 204.173 141.073 204.292V204.34C141.542 204.483 141.908 204.745 142.17 205.127C142.432 205.5 142.563 205.981 142.563 206.569C142.563 207.038 142.456 207.455 142.242 207.82C142.027 208.186 141.709 208.476 141.288 208.691C140.867 208.897 140.362 209.001 139.774 209.001C138.916 209.001 138.209 208.782 137.652 208.345C137.104 207.9 136.81 207.264 136.77 206.438H138.082C138.113 206.859 138.276 207.205 138.57 207.475C138.864 207.737 139.262 207.868 139.762 207.868C140.247 207.868 140.621 207.737 140.883 207.475C141.145 207.205 141.276 206.859 141.276 206.438C141.276 205.882 141.097 205.488 140.74 205.258C140.39 205.019 139.85 204.9 139.119 204.9H138.809V203.78H139.131C139.774 203.772 140.263 203.664 140.597 203.458C140.938 203.251 141.109 202.925 141.109 202.48C141.109 202.099 140.986 201.797 140.74 201.575C140.493 201.344 140.144 201.229 139.691 201.229C139.246 201.229 138.9 201.344 138.654 201.575C138.407 201.797 138.26 202.075 138.213 202.409H136.89ZM143.991 204.495C143.991 203.12 144.221 202.047 144.682 201.277C145.151 200.498 145.954 200.108 147.09 200.108C148.226 200.108 149.025 200.498 149.486 201.277C149.955 202.047 150.189 203.12 150.189 204.495C150.189 205.886 149.955 206.974 149.486 207.761C149.025 208.54 148.226 208.929 147.09 208.929C145.954 208.929 145.151 208.54 144.682 207.761C144.221 206.974 143.991 205.886 143.991 204.495ZM148.854 204.495C148.854 203.851 148.81 203.307 148.723 202.862C148.644 202.417 148.477 202.055 148.222 201.777C147.968 201.491 147.591 201.348 147.09 201.348C146.589 201.348 146.212 201.491 145.958 201.777C145.703 202.055 145.532 202.417 145.445 202.862C145.366 203.307 145.326 203.851 145.326 204.495C145.326 205.162 145.366 205.723 145.445 206.176C145.525 206.629 145.691 206.994 145.946 207.272C146.208 207.55 146.589 207.689 147.09 207.689C147.591 207.689 147.968 207.55 148.222 207.272C148.485 206.994 148.655 206.629 148.735 206.176C148.814 205.723 148.854 205.162 148.854 204.495Z" fill="#202A37"/>
<path d="M76.8644 185.397V186.423H74.8228V193.066H73.5647V186.423H71.5121V185.397H76.8644ZM78.7786 186.18C78.5505 186.18 78.3592 186.103 78.2047 185.948C78.0502 185.794 77.973 185.603 77.973 185.375C77.973 185.146 78.0502 184.955 78.2047 184.801C78.3592 184.646 78.5505 184.569 78.7786 184.569C78.9993 184.569 79.1869 184.646 79.3414 184.801C79.4959 184.955 79.5731 185.146 79.5731 185.375C79.5731 185.603 79.4959 185.794 79.3414 185.948C79.1869 186.103 78.9993 186.18 78.7786 186.18ZM79.3966 186.986V193.066H78.1385V186.986H79.3966ZM88.4091 186.886C88.8874 186.886 89.3141 186.986 89.6893 187.184C90.0719 187.383 90.3698 187.677 90.5832 188.067C90.8039 188.457 90.9142 188.928 90.9142 189.48V193.066H89.6672V189.667C89.6672 189.123 89.5311 188.707 89.2589 188.42C88.9867 188.126 88.6151 187.979 88.1443 187.979C87.6734 187.979 87.2982 188.126 87.0186 188.42C86.7464 188.707 86.6103 189.123 86.6103 189.667V193.066H85.3633V189.667C85.3633 189.123 85.2272 188.707 84.955 188.42C84.6827 188.126 84.3112 187.979 83.8403 187.979C83.3695 187.979 82.9943 188.126 82.7147 188.42C82.4425 188.707 82.3064 189.123 82.3064 189.667V193.066H81.0483V186.986H82.3064V187.681C82.5124 187.431 82.7736 187.236 83.0899 187.096C83.4063 186.956 83.7447 186.886 84.1052 186.886C84.5908 186.886 85.0248 186.989 85.4074 187.195C85.79 187.401 86.0843 187.699 86.2903 188.089C86.4742 187.721 86.7611 187.431 87.1511 187.217C87.541 186.997 87.9604 186.886 88.4091 186.886ZM98.0882 189.877C98.0882 190.105 98.0734 190.311 98.044 190.495H93.398C93.4348 190.981 93.615 191.371 93.9387 191.665C94.2624 191.959 94.6597 192.106 95.1306 192.106C95.8074 192.106 96.2857 191.823 96.5652 191.257H97.9226C97.7387 191.816 97.4039 192.276 96.9184 192.636C96.4402 192.989 95.8442 193.166 95.1306 193.166C94.5494 193.166 94.027 193.037 93.5635 192.779C93.1074 192.515 92.7469 192.147 92.482 191.676C92.2245 191.198 92.0958 190.646 92.0958 190.021C92.0958 189.395 92.2208 188.847 92.471 188.376C92.7285 187.898 93.0853 187.53 93.5414 187.273C94.0049 187.015 94.5347 186.886 95.1306 186.886C95.7044 186.886 96.2158 187.011 96.6646 187.262C97.1133 187.512 97.4628 187.865 97.7129 188.321C97.9631 188.77 98.0882 189.289 98.0882 189.877ZM96.7749 189.48C96.7676 189.016 96.602 188.645 96.2783 188.365C95.9546 188.086 95.5536 187.946 95.0754 187.946C94.6413 187.946 94.2698 188.086 93.9608 188.365C93.6518 188.637 93.4679 189.009 93.409 189.48H96.7749Z" fill="#9AA1AD"/>
<path d="M40.2388 207.449C52.5395 207.449 62.5112 197.496 62.5112 185.219C62.5112 172.941 52.5395 162.988 40.2388 162.988C27.9381 162.988 17.9664 172.941 17.9664 185.219C17.9664 197.496 27.9381 207.449 40.2388 207.449Z" fill="#FFE6EC"/>
<mask id="mask0_491_3048" style="mask-type:luminance" maskUnits="userSpaceOnUse" x="30" y="175" width="22" height="20">
<path d="M51.2863 175.767H30.3935V194.451H51.2863V175.767Z" fill="white"/>
</mask>
<g mask="url(#mask0_491_3048)">
<path d="M51.2863 194.023C51.2863 194.023 51.2236 194.086 51.2027 194.127C51.0982 194.336 50.8683 194.472 50.6279 194.461C49.2064 194.461 47.785 194.461 46.3636 194.461C46.05 194.482 45.7783 194.253 45.7469 193.94C45.7469 193.908 45.7469 193.887 45.7469 193.856V190.351C45.7469 189.683 46.0082 189.047 46.4786 188.578C46.8966 188.119 47.4715 187.827 48.0881 187.743C48.7466 187.639 49.4259 187.785 49.9799 188.15C50.6174 188.536 51.0564 189.172 51.1923 189.903C51.2132 189.965 51.2341 190.017 51.2759 190.069V194.023M50.053 193.22V191.78C50.053 191.311 50.053 190.82 50.0112 190.341C49.959 189.506 49.2378 188.87 48.4017 188.922C47.5969 188.974 46.9698 189.652 46.9802 190.466C47.0011 191.311 46.9802 192.166 46.9802 193.011V193.22H50.053Z" fill="black"/>
<path d="M33.1109 188.317H30.9684C30.6548 188.317 30.3935 188.077 30.3831 187.753V187.733C30.3831 186.512 30.3726 185.292 30.3831 184.071C30.4144 183.549 30.6025 183.059 30.937 182.652C31.2715 182.183 31.7731 181.839 32.3375 181.693C33.1423 181.453 34.0202 181.588 34.71 182.079C35.3476 182.485 35.7657 183.153 35.8493 183.904C35.8806 184.144 35.9015 184.384 35.912 184.624C35.912 185.605 35.912 186.596 35.912 187.576C35.9538 187.952 35.6716 188.286 35.2953 188.327C35.2535 188.327 35.2013 188.327 35.1595 188.327C34.4697 188.306 33.7903 188.327 33.1005 188.327M31.6268 187.055L31.6582 187.086H34.6369L34.6787 187.055C34.6787 186.137 34.6787 185.208 34.6787 184.29C34.6787 184.144 34.6473 183.998 34.6055 183.862C34.3442 183.059 33.4767 182.621 32.672 182.882C32.6302 182.892 32.5988 182.903 32.5675 182.924C32.0344 183.101 31.6686 183.591 31.6373 184.154C31.5955 185.125 31.6373 186.095 31.6373 187.065" fill="black"/>
<path d="M38.0022 190.153H43.7924C44.1269 190.101 44.4509 190.32 44.5032 190.654C44.5554 190.987 44.3359 191.311 44.0015 191.363C43.991 191.363 43.9806 191.363 43.9701 191.363H38.044C38.0963 191.426 38.1381 191.478 38.1695 191.519C38.5771 191.926 38.9847 192.333 39.3923 192.74C39.6431 192.98 39.664 193.376 39.4237 193.627C39.3819 193.668 39.34 193.71 39.2878 193.731C39.0474 193.856 38.7548 193.825 38.5457 193.648C37.7305 192.834 36.9048 192.02 36.1 191.196C35.8597 190.977 35.8387 190.601 36.0582 190.361C36.0791 190.341 36.1 190.32 36.1209 190.299C36.9362 189.496 37.7409 188.692 38.5457 187.879C38.7757 187.639 39.1624 187.639 39.4028 187.879C39.6431 188.108 39.6431 188.494 39.4028 188.734L39.3819 188.755C38.9742 189.151 38.5771 189.558 38.1799 189.944C38.1381 189.986 38.0859 190.038 38.0022 190.132" fill="black"/>
<path d="M43.0295 180.336C42.5382 179.846 42.0888 179.398 41.6289 178.949C41.3885 178.699 41.3885 178.302 41.6289 178.052C41.8589 177.875 42.1829 177.864 42.4337 178.031C43.2907 178.876 44.1373 179.721 44.9839 180.576C45.1825 180.795 45.1825 181.14 44.9735 181.348C44.1478 182.183 43.3116 183.017 42.4755 183.842C42.2456 184.082 41.8693 184.092 41.6289 183.862C41.3885 183.623 41.3781 183.237 41.6289 182.997C42.047 182.59 42.4546 182.173 42.8727 181.755C42.9145 181.714 42.9667 181.661 43.0399 181.578H37.2497C36.9989 181.609 36.748 181.494 36.6121 181.286C36.4345 180.994 36.5285 180.618 36.8212 180.441C36.9152 180.389 37.0198 180.357 37.1243 180.347H43.0295" fill="black"/>
<path d="M46.0605 184.321C46.0605 182.976 47.1579 181.88 48.5062 181.87C49.8022 181.87 50.8787 182.871 50.9518 184.165C51.0564 185.511 50.0426 186.689 48.6943 186.783C47.346 186.888 46.165 185.876 46.0709 184.53C46.0709 184.457 46.0709 184.394 46.0709 184.321M48.4957 185.542C49.1646 185.563 49.7186 185.041 49.7395 184.384C49.7395 184.363 49.7395 184.332 49.7395 184.311C49.7604 183.664 49.2482 183.132 48.6002 183.122C48.5584 183.122 48.5166 183.122 48.4853 183.122C47.8477 183.122 47.3147 183.622 47.2938 184.259C47.252 184.926 47.7746 185.511 48.4435 185.542C48.4644 185.542 48.4853 185.542 48.4957 185.542Z" fill="black"/>
<path d="M33.1213 175.767C34.4591 175.726 35.567 176.779 35.6088 178.104C35.6088 178.135 35.6088 178.167 35.6088 178.198C35.5984 179.554 34.4801 180.639 33.1213 180.629C31.7626 180.618 30.6757 179.502 30.6861 178.146C30.707 176.821 31.794 175.746 33.1213 175.767ZM33.1109 176.998C32.4524 176.998 31.9194 177.52 31.9194 178.177C31.9194 178.177 31.9194 178.188 31.9194 178.198C31.9194 178.866 32.442 179.418 33.1109 179.439C33.7484 179.471 34.3024 178.991 34.3546 178.354C34.4591 177.718 34.0202 177.123 33.3826 177.019C33.2886 177.009 33.1945 176.998 33.1109 177.009" fill="black"/>
</g>
</g>
<g filter="url(#filter2_d_491_3048)">
<path d="M245.99 61.3601H11.6118C8.43129 61.3601 5.85297 63.9335 5.85297 67.1081V132.474C5.85297 135.649 8.43129 138.222 11.6118 138.222H245.99C249.17 138.222 251.749 135.649 251.749 132.474V67.1081C251.749 63.9335 249.17 61.3601 245.99 61.3601Z" fill="white"/>
<path d="M85.347 79.1922V91.4597H83.3348V83.0578L79.5928 91.4597H78.1983L74.4387 83.0578V91.4597H72.4264V79.1922H74.5975L78.9044 88.8121L83.1936 79.1922H85.347ZM92.2104 91.6186C91.2925 91.6186 90.4629 91.4126 89.7216 91.0008C88.9802 90.5772 88.3978 89.9888 87.9741 89.2357C87.5505 88.4708 87.3387 87.5882 87.3387 86.588C87.3387 85.5996 87.5564 84.7229 87.9918 83.958C88.4272 83.1931 89.0214 82.6048 89.7745 82.1929C90.5276 81.781 91.369 81.5751 92.2986 81.5751C93.2283 81.5751 94.0696 81.781 94.8227 82.1929C95.5759 82.6048 96.1701 83.1931 96.6055 83.958C97.0409 84.7229 97.2586 85.5996 97.2586 86.588C97.2586 87.5765 97.035 88.4532 96.5878 89.218C96.1407 89.9829 95.5288 90.5772 94.7521 91.0008C93.9873 91.4126 93.14 91.6186 92.2104 91.6186ZM92.2104 89.8711C92.7281 89.8711 93.2106 89.7476 93.6578 89.5004C94.1167 89.2533 94.4874 88.8827 94.7698 88.3884C95.0522 87.8942 95.1934 87.2941 95.1934 86.588C95.1934 85.882 95.0581 85.2877 94.7874 84.8053C94.5168 84.311 94.1579 83.9404 93.7107 83.6932C93.2636 83.4461 92.7811 83.3226 92.2633 83.3226C91.7456 83.3226 91.2631 83.4461 90.8159 83.6932C90.3806 83.9404 90.0334 84.311 89.7745 84.8053C89.5157 85.2877 89.3862 85.882 89.3862 86.588C89.3862 87.6353 89.651 88.4473 90.1805 89.0239C90.7218 89.5887 91.3984 89.8711 92.2104 89.8711ZM101.26 83.1461C101.554 82.6518 101.943 82.2694 102.425 81.9987C102.919 81.7163 103.502 81.5751 104.172 81.5751V83.6579H103.661C102.872 83.6579 102.272 83.858 101.86 84.2581C101.46 84.6582 101.26 85.3524 101.26 86.3409V91.4597H99.2478V81.734H101.26V83.1461ZM110.929 81.5751C111.694 81.5751 112.376 81.734 112.977 82.0517C113.588 82.3694 114.065 82.8401 114.406 83.4638C114.748 84.0875 114.918 84.8406 114.918 85.7231V91.4597H112.924V86.0232C112.924 85.1524 112.706 84.4875 112.271 84.0286C111.835 83.5579 111.241 83.3226 110.488 83.3226C109.735 83.3226 109.135 83.5579 108.687 84.0286C108.252 84.4875 108.034 85.1524 108.034 86.0232V91.4597H106.022V81.734H108.034V82.846C108.364 82.4459 108.782 82.1341 109.288 81.9105C109.805 81.6869 110.352 81.5751 110.929 81.5751ZM118.509 80.4454C118.144 80.4454 117.838 80.3219 117.591 80.0748C117.344 79.8277 117.22 79.5217 117.22 79.1569C117.22 78.7921 117.344 78.4862 117.591 78.2391C117.838 77.992 118.144 77.8684 118.509 77.8684C118.862 77.8684 119.162 77.992 119.409 78.2391C119.656 78.4862 119.78 78.7921 119.78 79.1569C119.78 79.5217 119.656 79.8277 119.409 80.0748C119.162 80.3219 118.862 80.4454 118.509 80.4454ZM119.497 81.734V91.4597H117.485V81.734H119.497ZM127.046 81.5751C127.811 81.5751 128.493 81.734 129.094 82.0517C129.705 82.3694 130.182 82.8401 130.523 83.4638C130.865 84.0875 131.035 84.8406 131.035 85.7231V91.4597H129.041V86.0232C129.041 85.1524 128.823 84.4875 128.387 84.0286C127.952 83.5579 127.358 83.3226 126.605 83.3226C125.852 83.3226 125.251 83.5579 124.804 84.0286C124.369 84.4875 124.151 85.1524 124.151 86.0232V91.4597H122.139V81.734H124.151V82.846C124.481 82.4459 124.898 82.1341 125.404 81.9105C125.922 81.6869 126.469 81.5751 127.046 81.5751ZM137.52 81.5751C138.274 81.5751 138.938 81.7281 139.515 82.034C140.103 82.3282 140.562 82.6989 140.892 83.1461V81.734H142.922V91.6186C142.922 92.5129 142.733 93.3072 142.357 94.0015C141.98 94.7075 141.433 95.2606 140.715 95.6607C140.009 96.0608 139.162 96.2608 138.173 96.2608C136.856 96.2608 135.761 95.949 134.89 95.3253C134.02 94.7134 133.525 93.8779 133.408 92.8188H135.402C135.555 93.3248 135.879 93.7308 136.373 94.0368C136.879 94.3545 137.479 94.5134 138.173 94.5134C138.985 94.5134 139.639 94.2662 140.133 93.772C140.639 93.2778 140.892 92.56 140.892 91.6186V89.9947C140.551 90.4536 140.086 90.8419 139.497 91.1596C138.921 91.4656 138.262 91.6186 137.52 91.6186C136.673 91.6186 135.897 91.4068 135.19 90.9831C134.496 90.5477 133.943 89.9476 133.531 89.1827C133.131 88.4061 132.931 87.5294 132.931 86.5527C132.931 85.576 133.131 84.7111 133.531 83.958C133.943 83.2049 134.496 82.6224 135.19 82.2106C135.897 81.7869 136.673 81.5751 137.52 81.5751ZM140.892 86.588C140.892 85.9173 140.751 85.3348 140.468 84.8406C140.197 84.3463 139.839 83.9698 139.391 83.7109C138.944 83.452 138.462 83.3226 137.944 83.3226C137.426 83.3226 136.944 83.452 136.497 83.7109C136.049 83.958 135.685 84.3287 135.402 84.8229C135.132 85.3054 134.996 85.882 134.996 86.5527C134.996 87.2235 135.132 87.8118 135.402 88.3178C135.685 88.8238 136.049 89.2121 136.497 89.4828C136.956 89.7417 137.438 89.8711 137.944 89.8711C138.462 89.8711 138.944 89.7417 139.391 89.4828C139.839 89.2239 140.197 88.8474 140.468 88.3531C140.751 87.8471 140.892 87.2588 140.892 86.588ZM154.192 91.5833C153.368 91.5833 152.627 91.4421 151.968 91.1596C151.309 90.8655 150.791 90.4536 150.415 89.9241C150.038 89.3945 149.85 88.7768 149.85 88.0707H152.003C152.05 88.6002 152.256 89.0356 152.621 89.3769C152.997 89.7181 153.521 89.8888 154.192 89.8888C154.886 89.8888 155.427 89.724 155.816 89.3945C156.204 89.0533 156.398 88.6179 156.398 88.0884C156.398 87.6765 156.275 87.3411 156.028 87.0823C155.792 86.8234 155.492 86.6233 155.127 86.4821C154.774 86.3409 154.28 86.1879 153.645 86.0232C152.844 85.8114 152.191 85.5996 151.685 85.3877C151.191 85.1642 150.768 84.8229 150.415 84.364C150.061 83.9051 149.885 83.2932 149.885 82.5283C149.885 81.8222 150.061 81.2044 150.415 80.6749C150.768 80.1454 151.262 79.7394 151.897 79.457C152.533 79.1746 153.268 79.0334 154.104 79.0334C155.292 79.0334 156.263 79.3334 157.016 79.9336C157.781 80.5219 158.205 81.3339 158.287 82.3694H156.063C156.028 81.9223 155.816 81.5398 155.427 81.2221C155.039 80.9044 154.527 80.7455 153.892 80.7455C153.315 80.7455 152.844 80.8926 152.48 81.1868C152.115 81.481 151.933 81.9046 151.933 82.4577C151.933 82.8342 152.044 83.1461 152.268 83.3932C152.503 83.6285 152.797 83.8168 153.15 83.958C153.503 84.0992 153.986 84.2522 154.598 84.4169C155.41 84.6405 156.069 84.8641 156.575 85.0877C157.092 85.3113 157.528 85.6584 157.881 86.1291C158.246 86.588 158.428 87.2058 158.428 87.9825C158.428 88.6061 158.257 89.1945 157.916 89.7476C157.587 90.3006 157.098 90.7478 156.451 91.089C155.816 91.4185 155.063 91.5833 154.192 91.5833ZM165.833 81.5751C166.574 81.5751 167.233 81.734 167.81 82.0517C168.398 82.3694 168.857 82.8401 169.187 83.4638C169.528 84.0875 169.699 84.8406 169.699 85.7231V91.4597H167.704V86.0232C167.704 85.1524 167.486 84.4875 167.051 84.0286C166.616 83.5579 166.021 83.3226 165.268 83.3226C164.515 83.3226 163.915 83.5579 163.468 84.0286C163.032 84.4875 162.815 85.1524 162.815 86.0232V91.4597H160.802V78.3979H162.815V82.8636C163.156 82.4518 163.585 82.1341 164.103 81.9105C164.633 81.6869 165.209 81.5751 165.833 81.5751ZM173.289 80.4454C172.924 80.4454 172.618 80.3219 172.371 80.0748C172.124 79.8277 172.001 79.5217 172.001 79.1569C172.001 78.7921 172.124 78.4862 172.371 78.2391C172.618 77.992 172.924 77.8684 173.289 77.8684C173.642 77.8684 173.942 77.992 174.189 78.2391C174.436 78.4862 174.56 78.7921 174.56 79.1569C174.56 79.5217 174.436 79.8277 174.189 80.0748C173.942 80.3219 173.642 80.4454 173.289 80.4454ZM174.278 81.734V91.4597H172.265V81.734H174.278ZM180.997 83.3755H179.196V91.4597H177.166V83.3755H176.019V81.734H177.166V81.0456C177.166 79.9277 177.461 79.1157 178.049 78.6097C178.649 78.092 179.585 77.8331 180.856 77.8331V79.5099C180.244 79.5099 179.814 79.6276 179.567 79.863C179.32 80.0865 179.196 80.4808 179.196 81.0456V81.734H180.997V83.3755ZM185.128 83.3755V88.7591C185.128 89.1239 185.21 89.3887 185.375 89.5534C185.551 89.7064 185.845 89.7829 186.257 89.7829H187.493V91.4597H185.904C184.998 91.4597 184.304 91.2479 183.822 90.8243C183.339 90.4007 183.098 89.7123 183.098 88.7591V83.3755H181.95V81.734H183.098V79.3158H185.128V81.734H187.493V83.3755H185.128Z" fill="#202A37"/>
<path d="M76.8853 100.199V101.225H74.8437V107.869H73.5856V101.225H71.533V100.199H76.8853ZM78.7995 100.983C78.5714 100.983 78.3801 100.905 78.2256 100.751C78.0711 100.596 77.9939 100.405 77.9939 100.177C77.9939 99.9489 78.0711 99.7576 78.2256 99.6031C78.3801 99.4486 78.5714 99.3714 78.7995 99.3714C79.0202 99.3714 79.2078 99.4486 79.3623 99.6031C79.5168 99.7576 79.5941 99.9489 79.5941 100.177C79.5941 100.405 79.5168 100.596 79.3623 100.751C79.2078 100.905 79.0202 100.983 78.7995 100.983ZM79.4175 101.788V107.869H78.1594V101.788H79.4175ZM88.4301 101.689C88.9083 101.689 89.335 101.788 89.7102 101.987C90.0928 102.185 90.3908 102.48 90.6041 102.87C90.8248 103.26 90.9352 103.73 90.9352 104.282V107.869H89.6881V104.47C89.6881 103.925 89.552 103.51 89.2798 103.223C89.0076 102.929 88.6361 102.781 88.1652 102.781C87.6944 102.781 87.3191 102.929 87.0396 103.223C86.7674 103.51 86.6312 103.925 86.6312 104.47V107.869H85.3842V104.47C85.3842 103.925 85.2481 103.51 84.9759 103.223C84.7037 102.929 84.3321 102.781 83.8613 102.781C83.3904 102.781 83.0152 102.929 82.7356 103.223C82.4634 103.51 82.3273 103.925 82.3273 104.47V107.869H81.0692V101.788H82.3273V102.483C82.5333 102.233 82.7945 102.038 83.1109 101.899C83.4272 101.759 83.7656 101.689 84.1261 101.689C84.6117 101.689 85.0458 101.792 85.4284 101.998C85.8109 102.204 86.1052 102.502 86.3112 102.892C86.4951 102.524 86.7821 102.233 87.172 102.02C87.5619 101.799 87.9813 101.689 88.4301 101.689ZM98.1091 104.68C98.1091 104.908 98.0944 105.114 98.065 105.298H93.4189C93.4557 105.783 93.6359 106.173 93.9597 106.467C94.2834 106.762 94.6807 106.909 95.1515 106.909C95.8284 106.909 96.3066 106.626 96.5862 106.059H97.9436C97.7596 106.618 97.4249 107.078 96.9393 107.439C96.4611 107.792 95.8652 107.968 95.1515 107.968C94.5703 107.968 94.0479 107.839 93.5844 107.582C93.1283 107.317 92.7678 106.949 92.5029 106.478C92.2454 106 92.1167 105.448 92.1167 104.823C92.1167 104.198 92.2418 103.65 92.4919 103.179C92.7494 102.7 93.1062 102.333 93.5624 102.075C94.0259 101.818 94.5556 101.689 95.1515 101.689C95.7254 101.689 96.2367 101.814 96.6855 102.064C97.1343 102.314 97.4837 102.667 97.7339 103.124C97.984 103.572 98.1091 104.091 98.1091 104.68ZM96.7958 104.282C96.7885 103.819 96.6229 103.447 96.2992 103.168C95.9755 102.888 95.5746 102.748 95.0963 102.748C94.6623 102.748 94.2907 102.888 93.9817 103.168C93.6727 103.44 93.4888 103.811 93.4299 104.282H96.7958Z" fill="#9AA1AD"/>
<path d="M71.8178 119.297C71.8178 117.922 72.0482 116.85 72.5091 116.079C72.978 115.3 73.7806 114.911 74.9169 114.911C76.0533 114.911 76.8519 115.3 77.3128 116.079C77.7817 116.85 78.0161 117.922 78.0161 119.297C78.0161 120.688 77.7817 121.776 77.3128 122.563C76.8519 123.342 76.0533 123.731 74.9169 123.731C73.7806 123.731 72.978 123.342 72.5091 122.563C72.0482 121.776 71.8178 120.688 71.8178 119.297ZM76.6811 119.297C76.6811 118.653 76.6374 118.109 76.55 117.664C76.4705 117.219 76.3036 116.858 76.0493 116.579C75.795 116.293 75.4176 116.15 74.9169 116.15C74.4163 116.15 74.0388 116.293 73.7846 116.579C73.5303 116.858 73.3594 117.219 73.272 117.664C73.1925 118.109 73.1528 118.653 73.1528 119.297C73.1528 119.965 73.1925 120.525 73.272 120.978C73.3515 121.431 73.5183 121.796 73.7726 122.074C74.0349 122.353 74.4163 122.492 74.9169 122.492C75.4176 122.492 75.795 122.353 76.0493 122.074C76.3116 121.796 76.4824 121.431 76.5619 120.978C76.6413 120.525 76.6811 119.965 76.6811 119.297ZM84.9609 116.115L81.6472 123.755H80.2764L83.6258 116.258H79.2155V115.101H84.9609V116.115ZM86.851 123.839C86.6046 123.839 86.398 123.755 86.2312 123.588C86.0643 123.421 85.9808 123.215 85.9808 122.968C85.9808 122.722 86.0643 122.515 86.2312 122.349C86.398 122.182 86.6046 122.098 86.851 122.098C87.0894 122.098 87.292 122.182 87.4589 122.349C87.6258 122.515 87.7092 122.722 87.7092 122.968C87.7092 123.215 87.6258 123.421 87.4589 123.588C87.292 123.755 87.0894 123.839 86.851 123.839ZM86.851 118.832C86.6046 118.832 86.398 118.749 86.2312 118.582C86.0643 118.415 85.9808 118.208 85.9808 117.962C85.9808 117.716 86.0643 117.509 86.2312 117.342C86.398 117.175 86.6046 117.092 86.851 117.092C87.0894 117.092 87.292 117.175 87.4589 117.342C87.6258 117.509 87.7092 117.716 87.7092 117.962C87.7092 118.208 87.6258 118.415 87.4589 118.582C87.292 118.749 87.0894 118.832 86.851 118.832ZM89.0218 117.211C89.0695 116.472 89.3516 115.896 89.8681 115.483C90.3926 115.07 91.0601 114.863 91.8706 114.863C92.4269 114.863 92.9076 114.962 93.3129 115.161C93.7182 115.36 94.0241 115.63 94.2307 115.971C94.4374 116.313 94.5407 116.699 94.5407 117.128C94.5407 117.62 94.4095 118.042 94.1473 118.391C93.8851 118.741 93.5712 118.975 93.2056 119.094V119.142C93.6745 119.285 94.04 119.547 94.3023 119.929C94.5645 120.302 94.6956 120.783 94.6956 121.371C94.6956 121.84 94.5883 122.257 94.3738 122.623C94.1592 122.988 93.8414 123.278 93.4202 123.493C92.999 123.7 92.4944 123.803 91.9064 123.803C91.0482 123.803 90.3409 123.584 89.7847 123.147C89.2363 122.702 88.9423 122.066 88.9026 121.24H90.2138C90.2456 121.661 90.4085 122.007 90.7025 122.277C90.9965 122.539 91.3938 122.67 91.8945 122.67C92.3792 122.67 92.7527 122.539 93.0149 122.277C93.2772 122.007 93.4083 121.661 93.4083 121.24C93.4083 120.684 93.2295 120.29 92.8719 120.06C92.5222 119.822 91.9819 119.702 91.2508 119.702H90.9409V118.582H91.2627C91.9064 118.574 92.3951 118.467 92.7289 118.26C93.0706 118.053 93.2414 117.728 93.2414 117.283C93.2414 116.901 93.1182 116.599 92.8719 116.377C92.6255 116.146 92.2759 116.031 91.8229 116.031C91.3779 116.031 91.0323 116.146 90.7859 116.377C90.5396 116.599 90.3926 116.877 90.3449 117.211H89.0218ZM96.123 119.297C96.123 117.922 96.3535 116.85 96.8144 116.079C97.2832 115.3 98.0858 114.911 99.2222 114.911C100.359 114.911 101.157 115.3 101.618 116.079C102.087 116.85 102.321 117.922 102.321 119.297C102.321 120.688 102.087 121.776 101.618 122.563C101.157 123.342 100.359 123.731 99.2222 123.731C98.0858 123.731 97.2832 123.342 96.8144 122.563C96.3535 121.776 96.123 120.688 96.123 119.297ZM100.986 119.297C100.986 118.653 100.943 118.109 100.855 117.664C100.776 117.219 100.609 116.858 100.355 116.579C100.1 116.293 99.7228 116.15 99.2222 116.15C98.7215 116.15 98.3441 116.293 98.0898 116.579C97.8355 116.858 97.6646 117.219 97.5772 117.664C97.4978 118.109 97.458 118.653 97.458 119.297C97.458 119.965 97.4978 120.525 97.5772 120.978C97.6567 121.431 97.8236 121.796 98.0779 122.074C98.3401 122.353 98.7215 122.492 99.2222 122.492C99.7228 122.492 100.1 122.353 100.355 122.074C100.617 121.796 100.788 121.431 100.867 120.978C100.947 120.525 100.986 119.965 100.986 119.297ZM108.62 118.296V121.931C108.62 122.178 108.675 122.357 108.787 122.468C108.906 122.571 109.104 122.623 109.382 122.623H110.217V123.755H109.144C108.532 123.755 108.063 123.612 107.738 123.326C107.412 123.04 107.249 122.575 107.249 121.931V118.296H106.474V117.187H107.249V115.554H108.62V117.187H110.217V118.296H108.62ZM114.318 123.862C113.698 123.862 113.138 123.723 112.637 123.445C112.137 123.159 111.743 122.762 111.457 122.253C111.171 121.737 111.028 121.141 111.028 120.465C111.028 119.798 111.175 119.206 111.469 118.689C111.763 118.173 112.165 117.775 112.673 117.497C113.182 117.219 113.75 117.08 114.378 117.08C115.006 117.08 115.574 117.219 116.082 117.497C116.591 117.775 116.992 118.173 117.286 118.689C117.58 119.206 117.727 119.798 117.727 120.465C117.727 121.133 117.576 121.725 117.274 122.241C116.972 122.758 116.559 123.159 116.035 123.445C115.518 123.723 114.946 123.862 114.318 123.862ZM114.318 122.682C114.668 122.682 114.994 122.599 115.296 122.432C115.605 122.265 115.856 122.015 116.047 121.681C116.237 121.347 116.333 120.942 116.333 120.465C116.333 119.988 116.241 119.587 116.058 119.261C115.876 118.928 115.633 118.677 115.331 118.51C115.029 118.344 114.704 118.26 114.354 118.26C114.004 118.26 113.678 118.344 113.376 118.51C113.082 118.677 112.848 118.928 112.673 119.261C112.498 119.587 112.411 119.988 112.411 120.465C112.411 121.173 112.59 121.721 112.947 122.11C113.313 122.492 113.77 122.682 114.318 122.682ZM121.809 116.305V115.066H124.289V123.755H122.918V116.305H121.809ZM126.906 121.908C127.669 121.248 128.269 120.708 128.706 120.286C129.151 119.857 129.521 119.412 129.815 118.951C130.109 118.491 130.256 118.03 130.256 117.569C130.256 117.092 130.141 116.718 129.91 116.448C129.688 116.178 129.334 116.043 128.849 116.043C128.38 116.043 128.015 116.194 127.753 116.496C127.498 116.79 127.363 117.187 127.347 117.688H126.036C126.06 116.782 126.33 116.091 126.847 115.614C127.371 115.129 128.035 114.887 128.837 114.887C129.703 114.887 130.379 115.125 130.864 115.602C131.356 116.079 131.603 116.714 131.603 117.509C131.603 118.081 131.456 118.634 131.162 119.166C130.876 119.69 130.53 120.163 130.125 120.584C129.727 120.998 129.219 121.478 128.599 122.027L128.063 122.504H131.841V123.636H126.048V122.647L126.906 121.908ZM133.762 123.839C133.516 123.839 133.309 123.755 133.142 123.588C132.975 123.421 132.892 123.215 132.892 122.968C132.892 122.722 132.975 122.515 133.142 122.349C133.309 122.182 133.516 122.098 133.762 122.098C134 122.098 134.203 122.182 134.37 122.349C134.537 122.515 134.62 122.722 134.62 122.968C134.62 123.215 134.537 123.421 134.37 123.588C134.203 123.755 134 123.839 133.762 123.839ZM133.762 118.832C133.516 118.832 133.309 118.749 133.142 118.582C132.975 118.415 132.892 118.208 132.892 117.962C132.892 117.716 132.975 117.509 133.142 117.342C133.309 117.175 133.516 117.092 133.762 117.092C134 117.092 134.203 117.175 134.37 117.342C134.537 117.509 134.62 117.716 134.62 117.962C134.62 118.208 134.537 118.415 134.37 118.582C134.203 118.749 134 118.832 133.762 118.832ZM135.933 117.211C135.98 116.472 136.263 115.896 136.779 115.483C137.304 115.07 137.971 114.863 138.782 114.863C139.338 114.863 139.819 114.962 140.224 115.161C140.629 115.36 140.935 115.63 141.142 115.971C141.348 116.313 141.452 116.699 141.452 117.128C141.452 117.62 141.32 118.042 141.058 118.391C140.796 118.741 140.482 118.975 140.117 119.094V119.142C140.585 119.285 140.951 119.547 141.213 119.929C141.475 120.302 141.607 120.783 141.607 121.371C141.607 121.84 141.499 122.257 141.285 122.623C141.07 122.988 140.752 123.278 140.331 123.493C139.91 123.7 139.405 123.803 138.817 123.803C137.959 123.803 137.252 123.584 136.696 123.147C136.147 122.702 135.853 122.066 135.814 121.24H137.125C137.157 121.661 137.319 122.007 137.613 122.277C137.907 122.539 138.305 122.67 138.805 122.67C139.29 122.67 139.664 122.539 139.926 122.277C140.188 122.007 140.319 121.661 140.319 121.24C140.319 120.684 140.14 120.29 139.783 120.06C139.433 119.822 138.893 119.702 138.162 119.702H137.852V118.582H138.174C138.817 118.574 139.306 118.467 139.64 118.26C139.982 118.053 140.152 117.728 140.152 117.283C140.152 116.901 140.029 116.599 139.783 116.377C139.536 116.146 139.187 116.031 138.734 116.031C138.289 116.031 137.943 116.146 137.697 116.377C137.451 116.599 137.304 116.877 137.256 117.211H135.933ZM143.034 119.297C143.034 117.922 143.264 116.85 143.725 116.079C144.194 115.3 144.997 114.911 146.133 114.911C147.269 114.911 148.068 115.3 148.529 116.079C148.998 116.85 149.232 117.922 149.232 119.297C149.232 120.688 148.998 121.776 148.529 122.563C148.068 123.342 147.269 123.731 146.133 123.731C144.997 123.731 144.194 123.342 143.725 122.563C143.264 121.776 143.034 120.688 143.034 119.297ZM147.897 119.297C147.897 118.653 147.854 118.109 147.766 117.664C147.687 117.219 147.52 116.858 147.265 116.579C147.011 116.293 146.634 116.15 146.133 116.15C145.632 116.15 145.255 116.293 145.001 116.579C144.746 116.858 144.576 117.219 144.488 117.664C144.409 118.109 144.369 118.653 144.369 119.297C144.369 119.965 144.409 120.525 144.488 120.978C144.568 121.431 144.735 121.796 144.989 122.074C145.251 122.353 145.632 122.492 146.133 122.492C146.634 122.492 147.011 122.353 147.265 122.074C147.528 121.796 147.699 121.431 147.778 120.978C147.858 120.525 147.897 119.965 147.897 119.297Z" fill="#202A37"/>
<path d="M40.772 122.251C53.1997 122.251 63.2743 112.195 63.2743 99.7912C63.2743 87.3869 53.1997 77.3313 40.772 77.3313C28.3442 77.3313 18.2696 87.3869 18.2696 99.7912C18.2696 112.195 28.3442 122.251 40.772 122.251Z" fill="#DFF0E7"/>
<mask id="mask1_491_3048" style="mask-type:luminance" maskUnits="userSpaceOnUse" x="29" y="89" width="23" height="21">
<path d="M51.7357 89.3279H29.526V109.19H51.7357V89.3279Z" fill="white"/>
</mask>
<g mask="url(#mask1_491_3048)">
<path d="M51.7358 108.71C51.7358 108.71 51.6731 108.783 51.6522 108.815C51.5372 109.034 51.3073 109.18 51.046 109.169H46.5205C46.186 109.19 45.8934 108.94 45.862 108.606C45.862 108.585 45.862 108.554 45.862 108.522C45.862 107.281 45.862 106.04 45.862 104.798C45.862 104.089 46.1442 103.421 46.6354 102.91C47.0848 102.42 47.691 102.107 48.3495 102.023C49.0498 101.909 49.7709 102.065 50.3667 102.451C51.046 102.858 51.5163 103.536 51.6522 104.308C51.6731 104.371 51.7045 104.433 51.7358 104.485V108.689M50.4398 107.865C50.4398 107.344 50.4398 106.832 50.4398 106.332C50.4398 105.831 50.4398 105.309 50.398 104.809C50.3249 103.922 49.541 103.265 48.6526 103.338C47.8165 103.411 47.1789 104.099 47.1789 104.944C47.1998 105.841 47.1789 106.749 47.1789 107.646V107.865H50.4503H50.4398Z" fill="black"/>
<path d="M32.4212 102.66H30.1428C29.8083 102.66 29.5261 102.388 29.5261 102.055C29.5261 102.055 29.5261 102.055 29.5261 102.044C29.5261 100.751 29.5157 99.4467 29.5261 98.1531C29.5575 97.6002 29.7665 97.0786 30.1114 96.6509C30.4668 96.1502 30.9998 95.7851 31.5956 95.6286C32.4526 95.3678 33.3828 95.5243 34.1144 96.0355C34.7833 96.4736 35.2327 97.183 35.3268 97.9758C35.3581 98.2262 35.379 98.4869 35.3895 98.7373C35.3895 99.7805 35.3895 100.834 35.3895 101.877C35.4313 102.284 35.1282 102.639 34.731 102.67C34.6892 102.67 34.637 102.67 34.5952 102.67C33.8636 102.649 33.1319 102.67 32.4003 102.67M30.843 101.314L30.8744 101.345H34.0412L34.083 101.314C34.083 100.333 34.083 99.3528 34.083 98.3722C34.083 98.2157 34.0517 98.0697 33.9994 97.9236C33.7172 97.0682 32.8079 96.5988 31.9509 96.8804C31.9091 96.8909 31.8673 96.9117 31.8359 96.9222C31.2716 97.1099 30.8744 97.6315 30.843 98.2262C30.8012 99.2589 30.843 100.281 30.843 101.314Z" fill="black"/>
<path d="M37.6261 104.61H43.7821C44.1374 104.558 44.4719 104.809 44.5241 105.163C44.5764 105.518 44.3255 105.852 43.9702 105.904H37.6679C37.7306 105.977 37.7619 106.019 37.8037 106.061C38.2322 106.499 38.6817 106.926 39.1102 107.365C39.3819 107.615 39.3924 108.032 39.1415 108.303C39.0997 108.345 39.0475 108.387 38.9952 108.418C38.7339 108.554 38.4204 108.522 38.2009 108.324C37.323 107.458 36.4555 106.593 35.5984 105.716C35.3371 105.487 35.3162 105.09 35.5566 104.83C35.5775 104.809 35.5984 104.788 35.6193 104.767C36.4868 103.922 37.3439 103.056 38.2009 102.201C38.4622 101.95 38.8698 101.961 39.1102 102.222C39.361 102.482 39.3506 102.889 39.0893 103.129C38.6608 103.546 38.2427 103.974 37.8142 104.402C37.7619 104.454 37.7201 104.496 37.6261 104.6" fill="black"/>
<path d="M42.9669 94.1786C42.4443 93.657 41.9635 93.1771 41.4828 92.6972C41.2215 92.4364 41.2215 92.0088 41.4828 91.748C41.7336 91.5602 42.068 91.5497 42.3293 91.7271C43.2386 92.6242 44.1375 93.5318 45.0468 94.4394C45.2662 94.6793 45.2558 95.034 45.0363 95.2635C44.1584 96.1502 43.27 97.0265 42.3816 97.9132C42.1412 98.1635 41.7336 98.174 41.4828 97.9341C41.2215 97.6837 41.2215 97.2664 41.4828 97.0056C41.9217 96.5675 42.3607 96.1293 42.7997 95.6912C42.8519 95.6391 42.8937 95.5973 42.9773 95.5034H36.8318C36.5705 95.5451 36.2987 95.42 36.1629 95.1905C35.9747 94.8879 36.0688 94.4811 36.3824 94.2933C36.4764 94.2307 36.5914 94.1994 36.7064 94.1994C36.79 94.1994 36.8631 94.1994 36.9467 94.1994H42.9878" fill="black"/>
<path d="M46.186 98.4139C46.186 96.9743 47.3461 95.8164 48.7884 95.8164C50.168 95.8164 51.3073 96.8805 51.3909 98.2575C51.4954 99.6866 50.4189 100.928 48.9766 101.032C47.5447 101.137 46.3009 100.062 46.1964 98.6226C46.1964 98.5496 46.1964 98.4765 46.1964 98.4139M48.7675 99.7179C49.4782 99.7388 50.0635 99.1859 50.0844 98.4765C50.0844 98.4452 50.0844 98.4244 50.0844 98.3931C50.0949 97.7046 49.5514 97.1412 48.872 97.1308C48.8302 97.1308 48.7884 97.1308 48.7466 97.1308C48.0673 97.1308 47.5029 97.6628 47.482 98.3513C47.4402 99.0607 47.9941 99.6762 48.7048 99.7179C48.7257 99.7179 48.7466 99.7179 48.7675 99.7179Z" fill="black"/>
<path d="M32.4314 89.3278C33.8528 89.2861 35.0338 90.4023 35.0756 91.8106C35.0756 91.8419 35.0756 91.8732 35.0756 91.9045C35.0756 93.3441 33.9155 94.5229 32.4732 94.5333C31.0308 94.5333 29.8498 93.3754 29.8394 91.9358C29.8394 91.9045 29.8394 91.8836 29.8394 91.8523C29.8603 90.444 31.0099 89.3069 32.4314 89.3278ZM32.4105 90.6213C31.7102 90.6213 31.1458 91.1847 31.1354 91.8732C31.1354 91.8732 31.1354 91.8732 31.1354 91.8836C31.1354 92.593 31.6893 93.1772 32.4 93.2085C33.0794 93.2398 33.6647 92.7286 33.7274 92.0505C33.8319 91.3724 33.372 90.7361 32.6927 90.6318C32.5986 90.6213 32.4941 90.6109 32.4 90.6213" fill="black"/>
</g>
</g>
</g>
<defs>
<filter id="filter0_d_491_3048" x="255.908" y="39.348" width="335.053" height="224.323" filterUnits="userSpaceOnUse" color-interpolation-filters="sRGB">
<feFlood flood-opacity="0" result="BackgroundImageFix"/>
<feColorMatrix in="SourceAlpha" type="matrix" values="0 0 0 0 0 0 0 0 0 0 0 0 0 0 0 0 0 0 127 0" result="hardAlpha"/>
<feOffset dx="-1.01618" dy="4.06472"/>
<feGaussianBlur stdDeviation="2.7945"/>
<feComposite in2="hardAlpha" operator="out"/>
<feColorMatrix type="matrix" values="0 0 0 0 0.620551 0 0 0 0 0.659798 0 0 0 0 0.699045 0 0 0 0.1 0"/>
<feBlend mode="normal" in2="BackgroundImageFix" result="effect1_dropShadow_491_3048"/>
<feBlend mode="normal" in="SourceGraphic" in2="effect1_dropShadow_491_3048" result="shape"/>
</filter>
<filter id="filter1_d_491_3048" x="-0.80458" y="145.743" width="257.157" height="88.0715" filterUnits="userSpaceOnUse" color-interpolation-filters="sRGB">
<feFlood flood-opacity="0" result="BackgroundImageFix"/>
<feColorMatrix in="SourceAlpha" type="matrix" values="0 0 0 0 0 0 0 0 0 0 0 0 0 0 0 0 0 0 127 0" result="hardAlpha"/>
<feOffset dx="-1.01618" dy="4.06472"/>
<feGaussianBlur stdDeviation="2.7945"/>
<feComposite in2="hardAlpha" operator="out"/>
<feColorMatrix type="matrix" values="0 0 0 0 0.620551 0 0 0 0 0.659798 0 0 0 0 0.699045 0 0 0 0.1 0"/>
<feBlend mode="normal" in2="BackgroundImageFix" result="effect1_dropShadow_491_3048"/>
<feBlend mode="normal" in="SourceGraphic" in2="effect1_dropShadow_491_3048" result="shape"/>
</filter>
<filter id="filter2_d_491_3048" x="-0.752212" y="59.8358" width="257.074" height="88.0403" filterUnits="userSpaceOnUse" color-interpolation-filters="sRGB">
<feFlood flood-opacity="0" result="BackgroundImageFix"/>
<feColorMatrix in="SourceAlpha" type="matrix" values="0 0 0 0 0 0 0 0 0 0 0 0 0 0 0 0 0 0 127 0" result="hardAlpha"/>
<feOffset dx="-1.01618" dy="4.06472"/>
<feGaussianBlur stdDeviation="2.7945"/>
<feComposite in2="hardAlpha" operator="out"/>
<feColorMatrix type="matrix" values="0 0 0 0 0.620551 0 0 0 0 0.659798 0 0 0 0 0.699045 0 0 0 0.1 0"/>
<feBlend mode="normal" in2="BackgroundImageFix" result="effect1_dropShadow_491_3048"/>
<feBlend mode="normal" in="SourceGraphic" in2="effect1_dropShadow_491_3048" result="shape"/>
</filter>
<clipPath id="clip0_491_3048">
<rect width="586.337" height="314" fill="white"/>
</clipPath>
</defs>
</svg>
