<svg xmlns="http://www.w3.org/2000/svg" width="74" height="74" fill="none" viewBox="0 0 74 74"><circle cx="37" cy="37" r="37" fill="#FAECBC"/><g clip-path="url(#a)"><path fill="#D8AF11" d="M20.675 57.57a.373.373 0 0 1-.311-.58l.454-.684-1.583.913a.373.373 0 0 1-.435-.603l.305-.27a.374.374 0 0 1-.303-.651l.26-.225a.43.43 0 0 1-.306-.142.374.374 0 0 1 .02-.487l1.226-1.31-.767.444a.373.373 0 0 1-.462-.577l1.3-1.415-.835.482a.374.374 0 0 1-.471-.567l.64-.747-.169.096a.374.374 0 0 1-.542-.438l.166-.515a.37.37 0 0 1-.171-.42.37.37 0 0 1 .173-.227l.379-.218a.373.373 0 0 1 .543.438l-.08.247 1.21-.698a.374.374 0 0 1 .47.566l-.64.749 1.066-.616a.374.374 0 0 1 .462.576l-1.299 1.412.84-.484a.374.374 0 0 1 .46.58l-1.23 1.308.771-.445a.373.373 0 0 1 .433.605l-.257.224a.375.375 0 0 1 .262.654l-.303.27a.377.377 0 0 1 .43.338.37.37 0 0 1-.06.238l-.458.689a.373.373 0 0 1 .337.666l-1.338.774a.37.37 0 0 1-.187.05M26.685 57.577a.374.374 0 0 1-.3-.598l.983-1.327-1.403.81a.374.374 0 0 1-.438-.598l.384-.349a.374.374 0 0 1-.385-.626l.398-.36a.38.38 0 0 1-.438-.112.374.374 0 0 1 .02-.489l1.237-1.326-.778.449a.374.374 0 0 1-.448-.592l.795-.774-.348.2a.374.374 0 0 1-.553-.4l.242-1.162a.373.373 0 0 1-.064-.676l.38-.219a.373.373 0 0 1 .552.4l-.207.992 2.223-1.283a.374.374 0 0 1 .449.591l-.795.774.352-.202a.374.374 0 0 1 .46.578l-1.24 1.327.783-.45a.374.374 0 0 1 .44.6l-.397.36a.374.374 0 0 1 .398.62l-.382.348a.374.374 0 0 1 .435.571l-.983 1.326.5-.287a.374.374 0 0 1 .543.437l-.166.523q.087.05.136.137a.374.374 0 0 1-.136.51l-.379.219a.375.375 0 0 1-.543-.438l.082-.255-1.222.706a.37.37 0 0 1-.187.045M53.972 57.567a.373.373 0 0 1-.337-.538l.406-.829-1.9 1.097a.374.374 0 0 1-.47-.568l1.496-1.73-1.03.6a.374.374 0 0 1-.445-.594l.723-.695-.278.16a.374.374 0 0 1-.463-.576l1.31-1.43-.847.489a.373.373 0 0 1-.46-.579l1.002-1.074-.535.308a.374.374 0 0 1-.55-.413l.218-.883a.373.373 0 0 1-.042-.668l.379-.219a.38.38 0 0 1 .412.026.37.37 0 0 1 .138.388l-.169.683 1.93-1.114a.374.374 0 0 1 .46.579l-.995 1.07.795-.458a.375.375 0 0 1 .463.576l-1.31 1.43.85-.491a.373.373 0 0 1 .45.592l-.726.697.284-.164a.374.374 0 0 1 .47.569l-1.496 1.728 1.034-.598a.374.374 0 0 1 .523.487l-.418.854a.374.374 0 0 1 .274.688l-.95.548a.4.4 0 0 1-.197.051M46.585 57.571a.375.375 0 0 1-.311-.581l.708-1.06-1.57.908a.373.373 0 0 1-.444-.599l.676-.643-.232.133a.374.374 0 0 1-.449-.593l.752-.724-.306.176a.374.374 0 0 1-.453-.586l1.007-1.021-.554.32a.374.374 0 0 1-.474-.565l1.365-1.623-.89.513a.373.373 0 0 1-.55-.412l.22-.898a.373.373 0 0 1-.044-.673l.38-.218a.374.374 0 0 1 .55.413l-.172.703 1.964-1.134a.374.374 0 0 1 .474.564l-1.364 1.628 1.122-.646a.374.374 0 0 1 .452.586l-1.007 1.02.558-.322a.374.374 0 0 1 .448.594l-.752.724.31-.178a.374.374 0 1 1 .448.599l-.673.642.234-.135a.374.374 0 0 1 .498.531l-.709 1.06.216-.123a.374.374 0 0 1 .374.647l-1.616.923a.37.37 0 0 1-.186.05"/><path fill="#3D3B33" d="M35.578 57.578a.373.373 0 0 1-.248-.655l.828-.729-1.215.701a.374.374 0 0 1-.443-.598l2.117-1.993-1.674.968a.374.374 0 0 1-.43-.607l1.38-1.182-.95.548a.374.374 0 0 1-.44-.598l1.956-1.795-1.516.875a.374.374 0 0 1-.442-.598l2.043-1.903-1.6.922a.374.374 0 0 1-.422-.615l.687-.553-.266.15a.374.374 0 0 1-.43-.608l1.376-1.178-.946.546a.374.374 0 0 1-.449-.592l2.244-2.17-1.8 1.04a.374.374 0 0 1-.473-.565l1.047-1.238-.575.331a.373.373 0 0 1-.547-.42l.2-.742a.374.374 0 0 1-.027-.662l.374-.217a.375.375 0 0 1 .548.42l-.14.524 1.645-.952a.374.374 0 0 1 .473.566l-1.047 1.238L39 43.742a.374.374 0 0 1 .449.592l-2.248 2.169 1.814-1.036a.374.374 0 0 1 .43.607l-1.376 1.179.948-.548a.374.374 0 0 1 .422.615l-.688.554.267-.154a.374.374 0 0 1 .442.598l-2.04 1.902 1.601-.925a.374.374 0 0 1 .44.599l-1.954 1.794 1.517-.875a.374.374 0 0 1 .43.608l-1.382 1.183.954-.551a.374.374 0 0 1 .443.598l-2.118 1.99 1.677-.968a.374.374 0 0 1 .434.605l-.827.729.395-.225a.374.374 0 0 1 .511.507l-.507.897a.373.373 0 0 1 .37.65l-1.182.681a.374.374 0 0 1-.513-.508l.506-.897-2.452 1.416a.37.37 0 0 1-.185.05M23.067 23.18a.374.374 0 0 1-.225-.673l4.13-3.141-3.999 2.307a.374.374 0 0 1-.412-.621l2.133-1.611-1.72.993a.374.374 0 0 1-.449-.588l2.002-2-1.55.898a.374.374 0 0 1-.505-.524l.66-1.047a.374.374 0 0 1-.315-.673l1.238-.724a.37.37 0 0 1 .456.065.374.374 0 0 1 .048.459l-.654 1.04 2.708-1.564a.374.374 0 0 1 .449.588l-1.998 1.998 4.482-2.586a.374.374 0 0 1 .412.622l-2.132 1.61 3.87-2.232a.374.374 0 0 1 .413.62l-4.13 3.142 6.52-3.762a.374.374 0 0 1 .395.634l-.677.454 1.884-1.088a.374.374 0 0 1 .412.622l-4.018 3.027 6.325-3.649a.374.374 0 0 1 .396.633l-1.202.812 2.506-1.445a.374.374 0 0 1 .412.622l-3.974 2.984 6.25-3.606a.374.374 0 0 1 .399.63l-2.042 1.408 3.533-2.038a.374.374 0 0 1 .405.628l-3.125 2.236 4.96-2.864a.374.374 0 0 1 .398.632l-1.576 1.073 2.957-1.705a.374.374 0 0 1 .406.628l-3.258 2.343 4.32-2.492a.374.374 0 0 1 .41.624l-3.142 2.328 3.122-1.802a.374.374 0 0 1 .426.612l-2.715 2.258 2.294-1.325c.08-.048.174-.066.265-.048a.374.374 0 0 1 .184.642l-1.428 1.363.985-.569a.374.374 0 0 1 .48.557l-.463.583a.374.374 0 0 1 .362.654l-1.694.973a.374.374 0 0 1-.479-.556l.464-.582-1.976 1.14c-.08.048-.174.066-.265.048a.374.374 0 0 1-.184-.642l1.426-1.363-3.393 1.96a.374.374 0 0 1-.426-.612l2.718-2.256-4.974 2.872a.374.374 0 0 1-.41-.623l3.142-2.331-5.125 2.956a.373.373 0 0 1-.405-.628l3.254-2.343-5.148 2.973a.374.374 0 0 1-.398-.633l1.578-1.075-2.962 1.71a.374.374 0 0 1-.404-.628l3.125-2.237-4.964 2.866a.374.374 0 0 1-.4-.631l2.044-1.41-3.538 2.043a.374.374 0 0 1-.412-.623l3.977-2.984-6.253 3.609a.374.374 0 0 1-.396-.634l1.2-.812-2.507 1.447a.374.374 0 0 1-.411-.622l4.017-3.028-6.328 3.653a.374.374 0 0 1-.396-.635l.68-.454-1.89 1.09a.37.37 0 0 1-.185.05"/><path fill="#3D3B33" d="M18.99 59.803a.375.375 0 0 1-.25-.653l.594-.53-1.962 1.13a.374.374 0 0 1-.48-.555l1.122-1.412-2.266 1.307a.374.374 0 0 1-.518-.498l.599-1.138-.118.067a.374.374 0 0 1-.374-.647l1.238-.713a.374.374 0 0 1 .518.498l-.599 1.137 2.832-1.635a.374.374 0 0 1 .48.555l-1.114 1.41 3.41-1.967a.374.374 0 0 1 .436.598l-.593.53 1.961-1.126a.375.375 0 0 1 .464.575l-1.064 1.168 3.021-1.743a.374.374 0 0 1 .483.551l-1.118 1.445 3.46-1.996a.374.374 0 0 1 .464.573l-1.071 1.187 3.051-1.76a.374.374 0 0 1 .449.593l-.843.802 2.421-1.395a.374.374 0 0 1 .486.548l-1.114 1.48 3.515-2.028a.374.374 0 0 1 .44.598l-.734.68 2.213-1.278a.374.374 0 0 1 .461.577l-1.047 1.128 2.956-1.705a.374.374 0 0 1 .448.591l-.881.858 2.512-1.45a.374.374 0 0 1 .463.577l-1.056 1.153 2.992-1.73a.374.374 0 0 1 .452.588l-.946.952 2.67-1.54a.374.374 0 0 1 .477.56l-1.115 1.364 3.336-1.923a.374.374 0 0 1 .474.563l-1.11 1.333 3.285-1.896a.375.375 0 0 1 .46.578l-1.037 1.109 2.926-1.687a.374.374 0 0 1 .485.548l-1.115 1.478 3.182-1.836a.374.374 0 0 1 .441.598l-.528.49.707-.409a.374.374 0 0 1 .503.524l-.51.802a.374.374 0 0 1 .299.68l-1.238.714a.375.375 0 0 1-.502-.523l.5-.788-2.274 1.311a.374.374 0 0 1-.44-.598l.527-.489-1.883 1.087a.374.374 0 0 1-.485-.548l1.113-1.48-3.515 2.028a.374.374 0 0 1-.46-.578l1.038-1.109-2.924 1.687a.374.374 0 0 1-.474-.563l1.111-1.333-3.287 1.896a.374.374 0 0 1-.476-.56l1.115-1.365-3.335 1.925a.373.373 0 0 1-.448-.587l.949-.953-2.675 1.54a.374.374 0 0 1-.462-.575l1.058-1.155-2.999 1.73a.374.374 0 0 1-.448-.591l.88-.859-2.51 1.45a.374.374 0 0 1-.461-.577l1.047-1.128L33.7 59.75a.374.374 0 0 1-.44-.598l.734-.68-2.215 1.278a.374.374 0 0 1-.487-.548l1.115-1.48-3.515 2.028a.374.374 0 0 1-.449-.593l.84-.804-2.417 1.397a.374.374 0 0 1-.465-.573l1.072-1.187-3.051 1.76a.374.374 0 0 1-.483-.551l1.117-1.445-3.459 1.996a.374.374 0 0 1-.464-.575l1.064-1.168-3.02 1.743a.37.37 0 0 1-.187.053"/><path fill="#D8AF11" d="M19.53 50.83a.374.374 0 0 1-.244-.657l.405-.349-1.374.794a.374.374 0 0 1-.489-.55l.994-1.315-1.598.925c-.08.049-.174.066-.265.049a.374.374 0 0 1-.184-.643l.266-.253-.099.056a.374.374 0 0 1-.439-.598l.198-.182a.374.374 0 0 1-.312-.641l.355-.336-.026.014a.374.374 0 0 1-.439-.598l.194-.176a.373.373 0 0 1-.304-.64l.407-.392-.08.047a.374.374 0 0 1-.475-.563l1.239-1.486-.95.55a.374.374 0 0 1-.45-.592l.493-.48-.168.097a.374.374 0 0 1-.449-.593l.47-.455-.144.084a.374.374 0 0 1-.439-.599l.192-.173a.39.39 0 0 1-.333-.135.374.374 0 0 1 .008-.484l1.111-1.271-.816.471a.374.374 0 0 1-.454-.585l.707-.72-.39.224a.375.375 0 0 1-.454-.584l.44-.45-.109.063a.374.374 0 0 1-.481-.553l.398-.513a.375.375 0 0 1-.117-.69l1.253-.726a.374.374 0 0 1 .483.553l-.25.323.8-.463a.374.374 0 0 1 .455.586l-.44.449.415-.239a.374.374 0 0 1 .453.586l-.705.72.394-.225a.374.374 0 0 1 .469.57l-1.111 1.271.815-.471a.374.374 0 0 1 .438.598l-.19.174a.374.374 0 0 1 .303.64l-.47.456.145-.084a.374.374 0 0 1 .449.592l-.494.48.17-.097a.374.374 0 0 1 .473.563l-1.236 1.48.95-.548a.374.374 0 0 1 .45.594l-.407.388.079-.045a.374.374 0 0 1 .438.598l-.193.177a.36.36 0 0 1 .345.15.374.374 0 0 1-.042.494l-.356.338.028-.016a.374.374 0 0 1 .439.598l-.194.177a.374.374 0 0 1 .32.638l-.263.252.516-.299a.374.374 0 0 1 .485.55l-.998 1.317 3.223-1.858a.373.373 0 0 1 .431.606l-.406.35 1.658-.957a.374.374 0 0 1 .443.599l-.777.727 2.296-1.324a.374.374 0 0 1 .481.554l-1.118 1.426 3.256-1.88a.374.374 0 0 1 .473.566l-1.022 1.202 1.477-.852a.374.374 0 0 1 .47.567l-.32.374a.45.45 0 0 1 .33.187.373.373 0 0 1-.136.51l-1.617.934a.374.374 0 0 1-.471-.566l.232-.271-1.453.837c-.076.044-.165.06-.252.044a.374.374 0 0 1-.22-.61l1.021-1.203-3.066 1.77a.374.374 0 0 1-.481-.555l1.118-1.426-3.433 1.98a.374.374 0 0 1-.443-.598l.778-.728-2.296 1.326a.37.37 0 0 1-.187.053M51.57 50.83a.373.373 0 0 1-.228-.673l1.587-1.227-3.2 1.848a.374.374 0 0 1-.43-.607l.369-.316-1.6.923a.374.374 0 0 1-.462-.576l1.057-1.152-2.992 1.728a.374.374 0 0 1-.467-.574l1.061-1.162-2.029 1.171a.374.374 0 0 1-.523-.49l.626-1.271-.219.126a.373.373 0 0 1-.49-.553.4.4 0 0 1 .116-.094l1.287-.744a.374.374 0 0 1 .523.49l-.626 1.272 3.056-1.76a.374.374 0 0 1 .463.574l-1.061 1.16 3.01-1.735a.374.374 0 0 1 .462.576l-1.057 1.152 2.996-1.728a.374.374 0 0 1 .43.607l-.369.316 4.495-2.594a.374.374 0 0 1 .416.619l-1.586 1.226 1.01-.582a.374.374 0 0 1 .47.567l-1.45 1.694.69-.399a.37.37 0 0 1 .524.128.374.374 0 0 1-.15.519l-2.585 1.496a.374.374 0 0 1-.47-.566l1.45-1.701-3.916 2.26a.37.37 0 0 1-.187.052"/><path fill="#D8AF11" d="M54.409 47.336a.373.373 0 0 1-.264-.64l1.347-1.33-.688.397a.374.374 0 0 1-.456-.584l1.56-1.612-.891.515a.374.374 0 0 1-.457-.582l1.602-1.672-.928.536a.374.374 0 0 1-.444-.598l1.024-.962-.414.239a.374.374 0 0 1-.442-.598l1.006-.945-.398.23a.374.374 0 0 1-.45-.586l1.118-1.13-.482.278a.375.375 0 0 1-.56-.29.37.37 0 0 1 .06-.238l.747-1.148a.38.38 0 0 1-.41-.177.373.373 0 0 1 .135-.51l1.24-.716a.374.374 0 0 1 .501.528l-.733 1.122 1.536-.886a.374.374 0 0 1 .453.586l-1.116 1.128.793-.457a.374.374 0 0 1 .442.598l-1.007.946.4-.23a.374.374 0 0 1 .443.598l-1.025.964.415-.24a.374.374 0 0 1 .457.582l-1.603 1.671.929-.536a.374.374 0 0 1 .456.584l-1.56 1.611.892-.515a.374.374 0 0 1 .449.59l-1.346 1.328.703-.406a.375.375 0 0 1 .56.42.37.37 0 0 1-.186.227l-3.223 1.861a.4.4 0 0 1-.185.049"/><path fill="#3D3B33" d="M38.277 44.847a.375.375 0 0 1-.255-.648l1.54-1.421-3.502 2.019a.374.374 0 0 1-.462-.577l1.742-1.893-4.27 2.468a.374.374 0 0 1-.456-.584l1.716-1.77-4.076 2.354a.374.374 0 0 1-.452-.587l1.691-1.7-2.836 1.637a.374.374 0 0 1-.458-.581l1.108-1.163-1.09.63a.374.374 0 0 1-.467-.572l.46-.518a.373.373 0 0 1-.054-.673l1.39-.803a.374.374 0 0 1 .467.572l-.17.193 1.345-.775a.374.374 0 0 1 .458.58l-1.11 1.164 3.02-1.742a.374.374 0 0 1 .448.587l-1.69 1.7 3.963-2.287a.374.374 0 0 1 .456.583l-1.716 1.77 4.078-2.353a.373.373 0 0 1 .461.577l-1.742 1.89 4.272-2.467a.374.374 0 0 1 .44.598l-1.54 1.421 3.385-1.953a.374.374 0 0 1 .44.598l-1.465 1.355 2.08-1.196a.375.375 0 0 1 .46.578l-.984 1.052.823-.475a.373.373 0 0 1 .572.27.37.37 0 0 1-.198.377l-2.966 1.713a.374.374 0 0 1-.46-.578l.978-1.055-2.829 1.633a.374.374 0 0 1-.44-.599l1.465-1.355-3.383 1.954a.37.37 0 0 1-.187.052M18.975 32.132a.374.374 0 0 1-.202-.69l.735-.467-1.918 1.105a.374.374 0 0 1-.396-.633l5.697-3.862-6.987 4.035a.374.374 0 0 1-.39-.637l1.813-1.174-1.81 1.047a.374.374 0 0 1-.402-.63l5.216-3.674-4.835 2.79a.374.374 0 0 1-.403-.628l3.145-2.222-2.742 1.582a.374.374 0 0 1-.407-.627l1.945-1.406-1.105.637a.374.374 0 0 1-.374-.647l7.404-4.273a.374.374 0 0 1 .406.626l-1.94 1.403 3.515-2.03a.374.374 0 0 1 .402.629l-3.15 2.225 4.948-2.852a.374.374 0 0 1 .402.629l-5.214 3.671 7.452-4.3a.374.374 0 0 1 .39.637l-1.814 1.174 3.141-1.812a.374.374 0 0 1 .396.633l-5.7 3.864 7.79-4.496a.374.374 0 0 1 .388.639l-.74.47 1.922-1.109a.374.374 0 0 1 .393.636l-4.103 2.703 5.784-3.339a.374.374 0 0 1 .39.637l-2.434 1.57 3.83-2.207a.374.374 0 0 1 .388.638l-1.654 1.061 2.944-1.699a.374.374 0 0 1 .399.631l-6.171 4.23 8.428-4.866a.374.374 0 0 1 .397.633l-5.662 3.834 7.738-4.466a.374.374 0 0 1 .39.637l-2.007 1.292 3.343-1.93a.374.374 0 0 1 .392.636l-3.984 2.618 5.64-3.253a.374.374 0 0 1 .401.63l-6.563 4.556 8.052-4.649a.374.374 0 0 1 .39.637l-2.081 1.352 2.55-1.475a.374.374 0 0 1 .405.627l-5.839 4.182 6.854-3.956a.375.375 0 0 1 .407.625l-4.895 3.55 5.833-3.366a.374.374 0 0 1 .405.628l-3.479 2.487 4.212-2.432a.374.374 0 0 1 .4.63l-1.504 1.04 1.982-1.143a.374.374 0 0 1 .404.628l-1.683 1.197 2.008-1.16a.374.374 0 0 1 .413.622l-1.975 1.5 1.761-1.017a.374.374 0 0 1 .453.586l-1.984 2.005 1.532-.884a.374.374 0 0 1 .453.585l-.358.365a.37.37 0 0 1 .4.178.374.374 0 0 1-.136.511l-2.228 1.286a.373.373 0 0 1-.454-.586l.308-.313-1.557.898a.374.374 0 0 1-.452-.586l1.985-2.005-4.487 2.59a.374.374 0 0 1-.414-.62l1.975-1.5-3.676 2.122a.374.374 0 0 1-.404-.628l1.682-1.196-3.162 1.824a.374.374 0 0 1-.4-.63l1.502-1.039-2.89 1.669a.374.374 0 0 1-.405-.628l3.48-2.489-5.398 3.117a.373.373 0 0 1-.406-.626l4.893-3.549-7.231 4.175a.373.373 0 0 1-.405-.628l5.838-4.18-8.329 4.808a.374.374 0 0 1-.39-.637l2.078-1.346-3.44 1.986a.374.374 0 0 1-.4-.63l6.566-4.562-8.99 5.189a.374.374 0 0 1-.391-.636l3.98-2.618-5.637 3.254a.374.374 0 0 1-.39-.638l2.008-1.292-3.343 1.93a.374.374 0 0 1-.397-.633l5.66-3.833-7.736 4.466a.374.374 0 0 1-.4-.632l6.175-4.23-8.43 4.862a.374.374 0 0 1-.39-.638l1.646-1.058-2.935 1.696a.374.374 0 0 1-.39-.638l2.43-1.57-3.824 2.208a.374.374 0 0 1-.393-.636l4.114-2.71-5.796 3.346a.4.4 0 0 1-.187.052"/><path fill="#3D3B33" d="M52.53 26.902a.373.373 0 0 1-.3-.598l.798-1.085-2.55 1.476a.374.374 0 0 1-.441-.599l.728-.673-.99.572a.374.374 0 0 1-.463-.575l1.06-1.168-1.483.856a.374.374 0 0 1-.501-.524l.904-1.403-1.479.854a.373.373 0 0 1-.502-.524l.214-.336-.362.21a.373.373 0 0 1-.506-.128l-.413-.673a.374.374 0 0 1-.291-.683l.237-.137a.374.374 0 0 1 .506.12l.408.664 1.374-.79a.373.373 0 0 1 .502.524l-.215.336 1.492-.86a.374.374 0 0 1 .502.523l-.905 1.402 2.215-1.278a.374.374 0 0 1 .463.574l-1.06 1.17 1.784-1.03a.375.375 0 0 1 .442.598l-.726.673 1.226-.708a.374.374 0 0 1 .488.544l-.798 1.085 1.543-.89a.374.374 0 0 1 .538.454l-.299.81.951-.548a.375.375 0 0 1 .548.421l-.05.192.266-.155a.375.375 0 0 1 .374.649l-1.047.604a.377.377 0 0 1-.542-.204.37.37 0 0 1-.007-.217l.052-.19-1.063.612a.375.375 0 0 1-.538-.453l.299-.81-2.193 1.265a.37.37 0 0 1-.19.051M17.568 26.897a.374.374 0 0 1-.233-.667l1.656-1.32-3.06 1.767a.374.374 0 0 1-.374-.646l7.404-4.274a.374.374 0 0 1 .42.616l-1.662 1.32 3.357-1.934a.374.374 0 0 1 .416.618l-1.426 1.11 2.992-1.728a.374.374 0 0 1 .439.598l-2.454 2.236a.374.374 0 0 1 .21.696l-2.695 1.555a.374.374 0 0 1-.44-.598l2.32-2.111-4.698 2.71a.374.374 0 0 1-.417-.62l1.428-1.109-2.996 1.728a.37.37 0 0 1-.187.053"/><path fill="#fff" d="M24.706 32.154a.374.374 0 0 1-.22-.673l2.504-1.831-3.266 1.885a.374.374 0 0 1-.41-.624l5.24-3.885-4.832 2.79a.374.374 0 0 1-.394-.635l1.299-.864-.907.523a.374.374 0 0 1-.406-.627l2.963-2.14-2.558 1.477a.374.374 0 0 1-.4-.63l.68-.473a.375.375 0 0 1-.225-.65l3.374-3.084a.375.375 0 0 1 .168-.442l.883-.512a.374.374 0 0 1 .44.598l-1.833 1.671 3.938-2.27a.373.373 0 0 1 .4.63l-.062.044 1.169-.673a.374.374 0 0 1 .406.627l-2.96 2.137 4.786-2.767a.374.374 0 0 1 .394.634l-1.297.864.255-.15a.374.374 0 0 1 .41.624l-5.24 3.89 3.623-2.095a.373.373 0 0 1 .407.625l-2.504 1.835 1.753-1.013a.374.374 0 0 1 .419.617L31.046 28.9l1.243-.717a.374.374 0 0 1 .433.605l-.854.748.425-.246a.374.374 0 0 1 .498.53l-.543.823.051-.03a.37.37 0 0 1 .425.017.37.37 0 0 1 .135.403.37.37 0 0 1-.186.227l-1.432.824a.374.374 0 0 1-.498-.53l.544-.819-2.349 1.355a.374.374 0 0 1-.433-.605l.854-.748-2.352 1.359a.374.374 0 0 1-.42-.617l1.659-1.314-3.353 1.936a.37.37 0 0 1-.187.053M44.056 32.148a.374.374 0 0 1-.24-.662l2.952-2.453-5.098 2.943a.374.374 0 0 1-.412-.622l3.185-2.41-2.773 1.602a.375.375 0 0 1-.418-.619l2.917-2.284-2.496 1.44a.374.374 0 0 1-.426-.611l2.692-2.235-2.268 1.31a.374.374 0 0 1-.44-.6l2.516-2.318-2.48 1.43a.374.374 0 0 1-.438-.598l1.465-1.337-1.547.893a.374.374 0 0 1-.445-.595l.472-.448-.427.246a.374.374 0 0 1-.495-.534l.315-.464-.248.142a.374.374 0 0 1-.558-.283l-.05-.458a.374.374 0 0 1-.161-.698l.292-.166a.374.374 0 0 1 .558.284l.043.388 1.167-.673a.373.373 0 0 1 .495.534l-.315.463 1.732-.999a.374.374 0 0 1 .444.598l-.472.45 1.807-1.052a.374.374 0 0 1 .44.598l-1.465 1.336 2.412-1.392a.373.373 0 0 1 .44.598l-2.515 2.319 3.165-1.828a.374.374 0 0 1 .426.611L45.11 26.23l3.245-1.87a.374.374 0 0 1 .417.618l-2.917 2.286 3.425-1.977a.374.374 0 0 1 .413.622l-3.187 2.41 3.682-2.126a.374.374 0 0 1 .426.612l-2.949 2.451 2.56-1.477a.374.374 0 0 1 .45.588l-1.655 1.646 1.21-.699c.077-.044.166-.06.253-.044a.374.374 0 0 1 .218.612l-.405.47a.374.374 0 0 1 .313.673l-1.833 1.06c-.077.043-.166.059-.253.043a.374.374 0 0 1-.218-.611l.393-.457-1.782 1.029a.374.374 0 0 1-.448-.589l1.654-1.645-3.885 2.243a.37.37 0 0 1-.182.05"/><path fill="#fff" d="M41.546 26.91a.374.374 0 0 1-.231-.668l.862-.679-.898.518a.373.373 0 0 1-.416-.62l.4-.309-.348.2a.373.373 0 0 1-.463-.575l1.067-1.169-1.146.662a.374.374 0 0 1-.49-.543l.325-.45-.258.15a.373.373 0 0 1-.557-.274l-.07-.528a.373.373 0 0 1-.173-.698l.292-.167a.374.374 0 0 1 .558.275l.061.467 1.288-.742a.373.373 0 0 1 .49.542l-.325.449 1.72-.994a.374.374 0 0 1 .463.575L42.629 23.5l3.026-1.747a.374.374 0 0 1 .417.62l-.401.31.635-.366a.374.374 0 0 1 .419.617l-.862.679 1.102-.637a.374.374 0 0 1 .44.599l-1.008.922 1.33-.767a.374.374 0 0 1 .44.598l-.217.202.364-.211a.374.374 0 0 1 .55.41l-.248 1.04.728-.421a.374.374 0 0 1 .514.141l.299.534a.374.374 0 0 1 .276.687l-.237.137a.374.374 0 0 1-.514-.141l-.291-.524-1.151.665a.374.374 0 0 1-.551-.411l.248-1.038-2.517 1.452a.374.374 0 0 1-.44-.598l.215-.199-1.385.8a.374.374 0 0 1-.44-.599l1.008-.923-2.648 1.527a.37.37 0 0 1-.184.05"/><path fill="#3D3B33" d="M34.508 26.898a.374.374 0 0 1-.237-.663l1.401-1.152-2.92 1.688a.374.374 0 0 1-.436-.604l2.175-1.933-.662.382a.374.374 0 0 1-.498-.532l.977-1.458a.373.373 0 0 1 .1-.567l.527-.304a.374.374 0 0 1 .498.532l-.587.875 2.449-1.414a.374.374 0 0 1 .435.604l-2.175 1.936 3.67-2.119a.374.374 0 0 1 .424.613l-1.401 1.147 1.44-.831a.374.374 0 0 1 .476.56l-1.24 1.508 1.396-.805a.374.374 0 0 1 .514.505l-.364.658.335-.193a.374.374 0 0 1 .56.3l.024.353a.374.374 0 0 1 .139.695l-.289.167a.374.374 0 0 1-.56-.3l-.017-.267-.982.565a.374.374 0 0 1-.514-.504l.364-.658-2.014 1.164a.374.374 0 0 1-.476-.561l1.24-1.507-3.584 2.068a.37.37 0 0 1-.188.052"/><path fill="#fff" d="M27.22 26.896a.374.374 0 0 1-.224-.673l.736-.545-2.023 1.166a.374.374 0 0 1-.419-.618l1.487-1.163-2.938 1.697a.374.374 0 0 1-.44-.599l3.745-3.449a.374.374 0 0 1 .166-.449l.886-.505a.374.374 0 0 1 .44.599l-2.248 2.07 4.623-2.668a.374.374 0 0 1 .418.617l-1.485 1.162 3.085-1.78a.374.374 0 0 1 .409.624l-.736.545 1.716-.99a.374.374 0 0 1 .422.614l-1.575 1.276.3-.172a.374.374 0 0 1 .494.537l-1.135 1.633a.376.376 0 0 1-.048.615l-.707.408a.374.374 0 0 1-.493-.537l.814-1.173-2.96 1.706a.374.374 0 0 1-.423-.614l1.576-1.276-3.275 1.89a.37.37 0 0 1-.187.052"/><path fill="#262626" d="M18.486 56.059c-1.907-.383-5.02.951-3.255 3.193 1.44 1.146 3.53.388 5.24.598h33.572c1.582 0 4.808.54 5.151-1.691.24-2.155-2.183-2.201-3.72-2.094V50.7a2.795 2.795 0 0 0 2.31-2.393c.474-3.625.917-7.254 1.374-10.882.505-2.725-3.546-2.923-4.017-.516-.488 3.34-.898 7.104-1.265 10.272-1.698.012-3.428-.007-5.137 0-1.645 0-5.205-.593-5.568 1.737a1.66 1.66 0 0 0 1.484 1.782v5.365h-4.893V44.7c1.36-.005 2.722.01 4.08-.007 2.01.128 3.72-2.393 1.82-3.783-3.87-.939-8.553-.083-12.618-.363-2.074-.16-6.77-.084-5.31 3.196 1.4 1.778 4.442.657 6.45.957v11.363h-4.892v-5.318a1.846 1.846 0 0 0 1.49-2.041c-.329-2.115-3.146-1.638-4.677-1.638-1.898-.018-3.821.029-5.704 0-.418-.116-.385-.84-.43-1.204l-.362-2.868c-.638-2.122.133-6.92-2.12-7.803-3.93-.68-2.437 4.16-2.192 6.423.8 2.672-.338 8.78 3.19 9.23zm1.083-5.16q.955.006 1.909.004v5.16h-1.909zm5.648 4.962v.2h-2.656V50.9q1.327 0 2.656-.005zm27.259.2v-5.28h1.9v5.28zm-3.74-5.281h2.657v5.28h-2.657zm-2.788-2.992c12.207.086 8.068 1.232 10.246-10.811.055-1.795 1.934-1.15 1.913.294-.34 3.247-.858 6.485-1.228 9.732-.15 1.18-.158 2.91-1.604 3.127a.77.77 0 0 0-.659.05q-4.518.03-9.039-.038c-1.949-.129-1.7-2.732.374-2.352zm-.197 3.385v-.359c.693.014 1.33-.04 1.902-.034v5.28h-1.902zm11.086 5.684c1.342-.08 1.841 2.03.332 2.197H44.592c-9.224-.008-18.462.011-27.678 0-.894-.114-1.587-1.439-.653-2.058 13.455-.481 27.073.137 40.576-.14m-26.61-12.57a1.82 1.82 0 0 1-1.566-2.44c.43-1.122 1.356-.886 2.3-.886 4.449.124 8.974-.25 13.387.144a1.81 1.81 0 0 1 1.047 1.43c.187 2.93-3.895 1.395-5.692 1.752-1.457-.016-2.996.011-4.467 0-.15-.238-.646-.195-.898 0-1.37-.003-2.742.005-4.11 0m5.053 1.639V44.7h3.399v11.363h-3.4zm-7.071 9.935v.2H26.3v-5.148q.954.055 1.909.006zm-11.014-8.088q-.674-5.357-1.353-10.714c-.018-1.054 1.186-1.545 1.74-.549.654 3.164.823 6.501 1.316 9.723-.056 1.518.995 1.823 2.305 1.668h6.451c.873 0 1.825-.075 2.03 1.039-.091 1.903-2.99.858-4.254 1.115h-5.707a2.14 2.14 0 0 1-2.528-2.282M57.014 25.058c-1.735-1.07-3.554-2.09-5.262-3.157-.493-1.816 1.278-6.172-2.01-6.07q-11.98-.008-23.959 0c-4.838-.452-3.382 3.01-3.555 6.278-2.198 1.404-4.562 2.613-6.739 4.056-.887.73-.744 1.747-.744 2.817 0 1.03-.211 2.309.909 2.854 2.369.496 4.95.036 7.38.186 2.944.021 6.01-.016 8.986 0a.72.72 0 0 0 .81 0h8.156a.696.696 0 0 0 .86 0h8.142c1.802.016 3.672-.012 5.489 0 1.911.23 3.986-.316 3.725-2.634.236-2.265.065-3.396-2.188-4.33m-4.772-1.87c1.703 1.047 3.452 2.026 5.138 3.095h-6.495c-1.288-1.31-2.617-2.6-3.912-3.911h3.815q.687.477 1.454.816m-2.347 6.263v2.085H42.01c0-1.57.007-3.158 0-4.732h7.885c-.044.879 0 1.77 0 2.648m-15.855-7.08c-.645 1.304-1.313 2.605-1.949 3.912H24.28l3.91-3.911zm-.882 3.908 1.953-3.907h3.653l1.95 3.911h-7.56zm12.4-3.906 3.911 3.91h-7.545c-.599-1.321-1.3-2.604-1.933-3.91zm-22.251-4.725c.05-2.273 3.075-1.122 4.526-1.332h19.55c.952 0 2.548-.315 3.093.71.492 1.452.05 3.2.15 4.712H39.64a.61.61 0 0 0-.647 0q-7.838-.005-15.684 0c.043-1.337-.071-2.737-.003-4.09m-2.258 5.727c.539-.323 1.205-.623 1.741-1.002h4.388c-1.33 1.321-2.585 2.617-3.956 3.91h-6.926c1.507-1.061 3.187-1.918 4.753-2.908m-3.3 8.162c-1.401.263-2.055-.844-1.92-2.07a8 8 0 0 1 .123-2.662h7.017c-.075 1.57.04 3.158 0 4.732zm6.306 0v-4.732h7.898c-.032 1.575 0 3.157-.012 4.732zm8.98 0v-4.732h7.88v4.732zm24.356 0c-2.129.008-4.277-.005-6.413 0v-4.732h6.892c.24.575.326 1.201.252 1.82 0 .765.302 2.665-.73 2.912"/></g><defs><clipPath id="a"><path fill="#fff" d="M14.537 15.327h44.872V60.2H14.537z"/></clipPath></defs></svg>