<svg xmlns="http://www.w3.org/2000/svg" width="257" height="252" fill="none" viewBox="0 0 257 252"><g clip-path="url(#a)"><path fill="#F7EBCA" d="M-4.348 110.386C9.268 75.67 36.75 57.826 51.482 48.263c48.063-31.214 96.905-29.012 114.757-27.957 30.64 1.816 63.195 3.745 75.189 24.887 18.768 33.085-27.143 87.934-35.562 97.985-36.349 43.428-105.171 87.136-165.067 67.303-8.04-2.663-37.114-12.29-48.834-39.264-10.601-24.396-.946-49.012 3.69-60.825l-.006-.006z"/><path fill="#fff" d="M194.632 165.569a165.4 165.4 0 0 0-.386 25.305c-15.858.386-30.383 8.349-45.404 13.483a130.7 130.7 0 0 1-31.045 6.534c-6.67.57-13.585.593-19.823-1.86l.984-1.011c-3.424-.246-6.883-1.202-10.053-2.529-6.088-2.543-11.267-6.937-15.572-11.948s-7.8-10.65-11.279-16.269c-1.953-3.151-3.946-6.408-4.533-10.074-3.923-24.469-13.564-47.479-14.784-72.23-1.787-.075-3.582-.233-5.368-.31a163 163 0 0 1-4.63-.239 67 67 0 0 1-1.558-.126c-4.27-.38-8.596-1.12-12.42-3.066-.984-.5-1.938-1.088-2.753-1.84-.934-.864-1.66-1.923-2.3-3.028-.601-1.032-1.144-2.143-1.25-3.333-.177-2.06.973-3.99 2.21-5.642.5-.663 1.086-1.36 1.9-1.517 6.764-1.31 13.162-3.137 19.952-4.312 6.587-1.137 12.75-3.964 19.16-5.865 6.41-1.903 13.5-2.826 19.646-.201 2.45 1.043 4.636 2.61 6.784 4.192.782.576 1.611 1.175 2.572 1.272.96.096 2.072-.526 2.122-1.494.233-4.236 2.355-8.051 1.672-12.238-.233-1.409-.607-2.794-.934-4.186-.289-1.22-.531-2.453-.776-3.68-.254-1.29-.517-2.582-.77-3.871-.386-1.941-.777-3.909-.684-5.888-.715-.456-1.03-1.48-1.13-2.327-.466-3.859.12-7.905 2.026-11.29 1.906-3.386 5.199-6.055 9-6.838 1.526-.316 3.108-.33 4.602-.778 4.516-1.36 7.371-6.382 12.018-7.192 3.695-.64 7.206 1.605 10.292 3.745 1.217.842 2.425 1.684 3.643 2.535 1.112.778 2.297 1.637 2.735 2.92.277.804.221 1.684.163 2.535a884 884 0 0 1-.625 8.338c-.467 5.832-1.004 11.708-2.72 17.304-1.716 5.592-4.729 10.942-9.352 14.514-1.363 1.056-2.905 1.962-4.615 2.22-1.711.254-3.599-.252-4.673-1.6-.108-.134-.336.02-.391.184a22.6 22.6 0 0 0-1.005 9.829c.027.228.059.462.184.646.146.222.397.354.637.474.776.391 1.553.783 2.323 1.175.777.391 1.553.783 2.382 1.038.987.298 2.026.397 3.05.494 2.919.29 5.867.646 8.602 1.707s5.272 2.903 6.618 5.514c3.599 6.975 9.863 12.404 14.188 18.943 1.358 2.05 2.665 4.155 4.358 5.941.788-1.5 1.682-2.871 2.47-4.371.487-.924.972-1.853 1.503-2.757 3.555-6.089 8.906-11.144 11.419-17.733a17 17 0 0 0 .94-8.405c-.208-1.447-.602-2.86-.87-4.294a24 24 0 0 1-.391-3.453c-.027-.632-.021-1.278.201-1.865.19-.5.525-.93.864-1.348.636-.792 1.264-1.587 1.9-2.385.196-.246.391-.495.505-.784.132-.336.14-.707.146-1.064q.033-1.583.064-3.157c.132-6.172-.353-12.188.108-18.348l7.085-.058c3.625-.027 7.262-.059 10.861.38.292 6.697.251 13.41-.12 20.107-.259 4.698.511 9.311.494 14.02l-4.282.097c-.141 3.272-1.612 6.47-3.999 8.71-.683.64-1.439 1.207-2.149 1.82a19.5 19.5 0 0 0-5.166 7.128c-1.477 3.505-2.216 7.007-3.462 10.6-.569 1.643-1.15 3.283-1.597 4.964-.321 1.219-.569 2.456-.916 3.663-.543 1.886-1.32 3.696-2.23 5.432a36.4 36.4 0 0 1-10.444 12.176c-.251.184-.517.374-.82.442-.327.07-.663 0-.984-.088a13.5 13.5 0 0 1-5.508-2.959c-1.681-1.493-3.751-2.528-5.499-3.946-.902-.734-1.693-1.593-2.476-2.453a458 458 0 0 1-11.48-13.085 534 534 0 0 0 7.826 19.821q.001-.133-.006-.261c1.792 4.669 3.106 9.692 4.343 14.542.284 1.102.669 1.935 1.016 3.017 2.476-1.676 4.962-3.359 7.61-4.739 7.621-3.973 16.293-5.338 24.37-8.279 1.845-.676 3.713-.316 5.671-.483 4.344-.374 8.69.48 12.908 1.588 1.629.429 3.263.897 4.737 1.707 1.477.81 2.799 1.985 3.506 3.517.554 1.195.7 2.534.808 3.844a77.3 77.3 0 0 1-.505 17.129c-.113.789-.233 1.575-.472 2.332-.222.722-.543 1.412-.721 2.152-.26 1.076-.152 1.947-.251 3.043l-.006.021z"/><path fill="#D5D5D5" d="m172.62 60.62 8.643-2.894v2.783l-10.041 4.502zM172.754 57.48l8.275-3.417.126.877-8.191 3.406zM188.785 238.318c0 2.146.233 4.535 1.836 5.958.7.626 1.597.988 2.475 1.322a56 56 0 0 0 17.397 3.49 64.1 64.1 0 0 1-25.223-.669c-.869-.202-1.78-.445-2.387-1.099-.523-.562-.733-1.336-.885-2.088a22.3 22.3 0 0 1-.423-5.654c.026-.555.094-1.137.412-1.587.75-1.038 2.335-.789 3.561-.424l-.864-8.399c-.032-.316-.056-.675.157-.912.146-.17.368-.24.587-.292.788-.214 2.963-.837 3.69-.31.869.631.364 1.757.239 2.68a58 58 0 0 0-.563 7.987h-.006zM223.511 193.21c2.557.462 6.203-1.512 13.489-5.452a127 127 0 0 0 5.379-3.082c-9.057 8.873-15.902 15.263-17.905 16.526-.945.594-2.04 1.17-3.126.918-.537-.125-1.004-.435-1.445-.76a20.4 20.4 0 0 1-5.601-6.294c-.455-.792-.864-1.663-.835-2.575.032-.913.637-1.871 1.541-2.006a115 115 0 0 0-5.659-8.685c.77-.556 1.547-1.108 2.329-1.664.896-.637 1.786-1.26 2.671-1.88.227 1.208 2.708 13.787 9.174 14.954l-.006.006zM128.868 97.906a164 164 0 0 0 16.977 19.373c1.485 1.447 3 2.871 4.655 4.12a76 76 0 0 0 9.77-17.468c2.796-7.04 4.591-14.597 8.873-20.841.917-1.336 1.95-2.62 2.595-4.11.645-1.489.853-3.272.094-4.707 2.741-.027 5.487-.059 8.228-.088-.607 3.195-1.378 6.674-3.929 8.691-.934.74-2.063 1.228-2.91 2.07-.87.866-1.369 2.017-1.839 3.149-2.297 5.502-4.597 11.018-6.328 16.722-2.306 7.595-3.468 11.404-3.789 12.05-2.936 5.958-7.294 9.802-10.482 12.1-.081.135-.443.702-1.167.892-.683.175-1.427-.059-1.944-.602a87.7 87.7 0 0 1-14.417-11.083c-4.212-4.011-7.011-6.73-8.987-11.252-1.188-2.719-2.084-6.104-2.647-8.242-1.107-4.186-.602-2.496-1.331-6.636-.252-1.423-1.416-4.648.922-3.028 3.132 2.163 5.4 5.893 7.636 8.893l.017-.006zM124.434 29.334c-.651.777-1.106 1.695-1.515 2.62-.291.669-.563 1.347-.758 2.054-.713 2.614-.289 5.388-.33 8.101a23 23 0 0 1-.826 5.818c-.374 1.37-.908 2.763-1.95 3.724s-2.709 1.374-3.909.614c-.239 1.365.733 2.833 2.079 3.149 1.004.234 2.078-.126 2.898-.755.82-.631 1.416-1.5 1.932-2.397.292-.511.57-1.038.803-1.575 1.454-3.36 1.331-7.16 1.679-10.808.125-1.316.321-2.643.826-3.865s1.331-2.348 2.486-2.99c.088-.021.505-5.257.304-5.605-.555-.947-3.284 1.392-3.724 1.918h.005zM15.252 81.558c.879 2.12 2.887 3.605 5.041 4.382 2.154.778 4.478.936 6.763 1.088 7.628.511 15.252 1.023 22.885 1.532 1.78.12 3.56.24 5.31.599a19.95 19.95 0 0 1 11.453 7.001c1.206 1.5 2.183 3.164 3.109 4.85.907 1.643 1.78 3.31 2.425 5.073 1.673 4.554 1.775 9.507 1.857 14.357-3.12-3.631-1.18-9.917-4.452-13.41-1.567-1.675-4.11-2.397-5.178-4.426-.543-1.023-.607-2.228-1.03-3.31-.864-2.224-3.132-3.636-5.456-4.16-2.323-.523-4.737-.292-7.11-.146-4.402.272-8.821.278-13.229.012-5.19-.316-10.4-1.012-15.3-2.745-2.464-.871-4.881-2.032-6.77-3.844-1.888-1.81-3.19-4.35-3.067-6.964.113-2.315 1.526-4.625 3.69-5.546-1.347 1.53-1.75 3.745-.955 5.669l.011-.012zM93.167 54.52c.493 2.902.444 5.864.359 8.81-.088 2.953-.17 6.11 1.395 8.616 1.953 3.137 5.867 4.326 9.455 5.198-2.805 2.233-6.807 2.283-10.275 1.38-3.777-.986-7.516-3.24-8.923-6.888 2.525-1.935 3.68-5.262 3.724-8.443s-.87-6.294-1.8-9.343c-.152-.494-.31-1.006-.278-1.523.038-.722.43-1.38.803-2 .481-.79 1.068-2.409 1.8-2.967.88-.664 1.314.511 1.787 1.353 1.004 1.798 1.603 3.789 1.953 5.806M88.97 33.924c.429-.132.896-.17 1.313-.021.24.082.461.222.663.38.802.626 1.357 1.538 1.666 2.505.31.968.397 2 .38 3.023-.132-.196-.391-.245-.625-.283-1.138-.179-2.26-.55-3.225-1.175-.75-.48-1.965-1.448-2.149-2.38-.169-.874 1.27-1.833 1.97-2.05z"/><path fill="#D5D5D5" d="M21.505 77.635c3.5-2.91 8.272-3.853 12.82-3.734 4.547.12 9.01 1.181 13.508 1.84 3.544.517 7.131.789 10.605 1.645 13.38 3.307 23.322 14.983 28.74 27.67 1.92 4.497 3.385 9.171 5.198 13.706a96.8 96.8 0 0 0 18.156 29.044 52.8 52.8 0 0 0-17.283 17.71c.05.266-.088.216-.36.202a177 177 0 0 1-4.541-10.139c-4.577-11.112-8.039-22.689-13.205-33.54.373.517 1.217-.021 1.4-.638.184-.614.184-1.365.713-1.733-.537.266-.397 1.181.152 1.424.548.242 1.205-.065 1.567-.538s.51-1.076.669-1.652c.157-.576.353-1.175.788-1.582q.653 1.833 1.302 3.675c.79-.094 1.237-.947 1.497-1.701 1.401-4.125 1.287-8.759-.315-12.808q-.132.304-.26.608c-.146-4.338-3.22-7.773-6.177-10.948-.972-1.044-1.95-2.088-3.067-2.973-1.124-.892-2.373-1.605-3.614-2.316-2.893-1.651-5.791-3.306-8.868-4.572-4.098-1.684-8.48-2.669-12.44-4.648-2.715-1.36-5.205-3.17-8.05-4.23-3.226-1.202-6.726-1.374-10.161-1.512-3.208-.131-6.492-.517-8.772 1.751l-.005-.011z"/><path fill="#000" d="M221.92 186.743c4.615-2.19 9.169-4.61 14.008-6.285 2.47-.854 5.021-1.576 7.616-1.936.461-.064.948-.108 1.407.006.207.056.499.158.639.342.283.369.02.755-.134 1.108-.532 1.152-1.276 2.207-2.102 3.169-1.629 1.892-3.535 3.535-5.368 5.219a1770 1770 0 0 0-6.226 5.741c-1.877 1.74-3.783 3.447-5.803 5.023-1.024.798-2.084 1.567-3.213 2.207-.581.327-1.226.625-1.901.424-.618-.179-1.123-.696-1.579-1.126-1.932-1.821-3.473-3.99-4.618-6.382-.259-.543-.788-1.333-.607-1.929s.791-1.175 1.276-1.561c1.249-.988 2.609-1.833 3.838-2.848.027-.02.027-.175-.02-.157-.712.327-1.346.733-2.02 1.131-.619.365-1.281.646-1.906 1.006-.998.575-1.725 1.146-1.807 2.379-.087 1.342.549 2.707 1.13 3.888a21.3 21.3 0 0 0 2.078 3.365 20.4 20.4 0 0 0 2.653 2.892c.441.403.896.821 1.471 1.005.701.228 1.401.006 2.035-.31 2.563-1.283 4.869-3.251 7.002-5.13 2.33-2.055 4.592-4.198 6.872-6.306 2.16-2 4.471-3.926 6.415-6.136 1.527-1.74 3.436-4.236 3.159-6.698-.132-1.169-.873-1.772-2.041-1.713-1.389.07-2.822.482-4.156.842-3.17.853-6.226 2.105-9.201 3.485a126 126 0 0 0-4.466 2.201c-1.643.848-3.164 1.637-4.439 2.999-.012.018-.018.103.011.094v-.012z"/><path fill="#000" d="M208.747 179.964c.19.979.788 1.847 1.255 2.718a187 187 0 0 0 1.547 2.827c1.022 1.798 2.003 3.658 3.138 5.388.164.246.348-.044.403-.196.096-.272.088-.678-.049-.941-.949-1.804-2.064-3.543-3.121-5.283a116 116 0 0 0-1.547-2.467c-.254-.398-.511-.792-.759-1.19-.213-.327-.429-.827-.832-.947-.043-.012-.043.07-.038.093h.006zM217.583 172.836c.026 1.176.581 2.453.96 3.549.406 1.176.826 2.348 1.25 3.517.423 1.17.84 2.266 1.269 3.397.38 1.006.727 2.339 1.509 3.111.222.222.254-.342.246-.445-.152-1.295-.64-2.528-1.107-3.739a223 223 0 0 0-1.325-3.397c-.449-1.125-.89-2.213-1.363-3.309a44 44 0 0 0-.715-1.57c-.158-.327-.365-.95-.712-1.114v.012l-.012-.006z"/><path fill="#000" d="M211.815 184.948c.239-.216.359-.441.517-.734.207-.386.467-.739.75-1.075a11.3 11.3 0 0 1 1.9-1.828c.707-.532 1.41-.912 2.148-1.309a5.2 5.2 0 0 1 1.256-.518c.449-.114.84-.316 1.281-.38.026 0 .026-.093 0-.093-.254 0-.493-.059-.744-.076-.208-.012-.406.038-.607.076-.43.093-.873.175-1.296.292-.87.246-1.644.74-2.356 1.289a10.3 10.3 0 0 0-1.915 1.915c-.543.716-1.004 1.494-.922 2.429l-.006.012zM213.345 187.515c.119-.322.405-.64.613-.918.216-.292.435-.593.668-.88a10.2 10.2 0 0 1 1.705-1.643 11.3 11.3 0 0 1 1.964-1.213 5.5 5.5 0 0 1 1.363-.474c.216-.038.435-.064.657-.058.271 0 .327.049.473-.179.017-.026.017-.076 0-.108-.108-.207-.114-.234-.359-.266s-.488 0-.721.032c-.45.065-.89.214-1.314.386-.788.322-1.526.755-2.203 1.26a9 9 0 0 0-1.725 1.675c-.254.328-.479.67-.663 1.044-.207.424-.292.874-.473 1.304-.006.017.006.064.018.038zM194.678 225.122c-.207.74-.195 1.576-.283 2.342-.096.88-.19 1.765-.266 2.651-.075.886-.151 1.789-.216 2.687-.064.897-.254 2.005.018 2.914.026.097.125.29.233.135.43-.602.365-1.69.424-2.386.081-.999.146-1.999.213-3.005s.102-1.956.146-2.941c.032-.751.169-1.69-.12-2.403-.038-.093-.114-.102-.146 0v.006z"/><path fill="#F0D267" d="M121.34 203.877c12.239-.207 22.613-2.897 30.232-4.87a171 171 0 0 0 20.012-6.519 64.4 64.4 0 0 1 1.78-26.817c-1.95 3.397-5.823 5.125-9.483 6.519a184 184 0 0 1-27.969 8.171c-8.06 1.675-12.181 2.023-17.342 1.114-6.67-1.175-11.468-4.028-13.906-5.502a45.9 45.9 0 0 1-12.466-11.124 892 892 0 0 1-5.216-12.334 955 955 0 0 1-12.409-31.479c-1.53-2.225-2.285-4.192-2.685-5.578-1.124-3.838-.36-5.899-2.192-8.221-1.054-1.327-1.716-1.175-3.334-2.566-1.754-1.512-3.31-3.707-4.314-6.952a19.5 19.5 0 0 0-4.422-1.974c-4.11-1.25-7.712-.842-9.758-.441-.058 8.089.435 20.081 3.334 34.216 4.489 21.879 11.296 56.127 36.79 68.738 12.061 5.97 25.537 5.742 33.348 5.605l.006.011z"/><path fill="#000" d="M112.84 37.221s-.493.822-1.03 2.006a.6.6 0 0 0-.038.298c.018.096.096.196.196.202.07 0 .131-.033.189-.065.783-.488 1.194-1.38 1.574-2.219.134-.304.271-.631.201-.956-.012-.055-.032-.108-.082-.134-.064-.038-.146 0-.178.006-.405.163-.832.86-.832.86v.005zM87.005 35.438c.096-.135.234-.234.353-.354.135-.14.272-.272.435-.392.31-.222.677-.368 1.054-.441.765-.14 1.579.108 2.21.555 1.482 1.044 1.439 3.1 1.981 4.649.027.081.082.02.094-.032.213-1.044-.076-2.17-.406-3.158-.292-.886-.715-1.795-1.515-2.327-.732-.488-1.643-.55-2.463-.254-.392.14-.739.368-1.042.646-.354.321-.526.658-.695 1.1v.011zM184.313 225.365c-.184.979-.064 2.028-.012 3.017.056 1.037.146 2.075.246 3.113.096 1.038.195 2.067.329 3.099.135 1.032.374 1.935.721 2.903.038.102.108.058.114-.038.05-1.064.064-2.076-.044-3.149-.108-1.07-.233-2.067-.347-3.104-.114-1.038-.216-2.05-.341-3.073-.114-.93-.14-1.956-.479-2.839-.058-.157-.158-.043-.178.059l-.012.006z"/><path fill="#000" d="M184.85 230.861c1.644-.234 3.31-.407 4.977-.424.808-.012 1.611-.044 2.42-.038.435 0 .87.032 1.302.02.364-.006.808.044 1.123-.14.056-.032.038-.216-.006-.254-.297-.223-.764-.252-1.135-.299-.429-.055-.873-.055-1.302-.058-.803-.012-1.617 0-2.42.096-1.681.208-3.342.532-4.962 1.038-.017 0-.011.056 0 .056v.006zM185.133 233.562c.619.283 1.407-.021 2.052-.114a45 45 0 0 1 2.324-.246 37 37 0 0 1 2.247-.131c.374-.012.75-.012 1.124-.012.175 0 .347.021.523.006.289-.021.411-.094.688-.202.038-.011.038-.134 0-.152-.402-.184-.613-.254-1.053-.266-.403-.012-.809-.012-1.212-.012-.75.006-1.503.038-2.247.097a28 28 0 0 0-2.236.289c-.744.12-1.643.147-2.21.676-.011.011-.011.049 0 .055zM196.57 237.009c1.15.523 2.259 1.125 3.429 1.608 1.171.482 2.414.985 3.614 1.488 2.42 1.023 4.81 2.113 7.198 3.195 1.138.517 2.28 1.032 3.415 1.567.94.435 2.128.827 2.843 1.614.213.233.266.277.146.532-.096.207-.321.386-.493.523-.444.36-.993.576-1.541.722-1.025.272-2.105.289-3.159.36-5.21.359-10.444.479-15.66.234a103 103 0 0 1-11.632-1.208c-1.112-.184-2.279-.278-2.519-1.576-.265-1.45-.347-2.952-.265-4.426.038-.707.096-1.409.213-2.105.125-.765.321-1.189 1.15-1.271 1.389-.135 2.828-.038 4.229-.114 1.527-.082 3.062-.132 4.554-.468.076-.018.07-.365-.012-.38-1.503-.348-3.044-.418-4.577-.523-1.406-.094-2.924-.299-4.331-.12-1.25.158-1.378 1.26-1.53 2.315-.213 1.494-.321 3-.283 4.511.032 1.298.059 2.751.467 4.002.365 1.12 1.206 1.494 2.291 1.696 2.931.544 5.9.897 8.868 1.125 5.949.462 11.936.407 17.89.032 2.052-.131 5.362.044 6.55-2.069.441-.778.441-1.962-.032-2.728-.598-.962-1.9-1.348-2.872-1.789-2.878-1.298-5.747-2.605-8.672-3.806a109 109 0 0 0-4.554-1.76c-1.529-.556-3.12-.892-4.737-1.222 0 0-.006.032 0 .032l.012.006z"/><path fill="#D5D5D5" d="M108.427 31.073c.292.404.908.31 1.401.228a7.03 7.03 0 0 1 4.484.746c.417.228.82.494 1.263.652.444.157.972.184 1.378-.065.444-.272.645-.81.733-1.327a4.7 4.7 0 0 0-.482-2.979c-.184-.348-.441-.69-.814-.827a1.8 1.8 0 0 0-.593-.076 16.4 16.4 0 0 0-3.961.435c-.87.202-1.754.524-2.393 1.17-.45.456-1.541 1.321-1.016 2.043"/><path fill="#000" d="M109.095 29.945c.803-.48 2.855-1.69 5.217-1.468.65.059 1.369.24 1.836-.196.315-.29.499-.827.309-1.195-.277-.527-.972-.646-1.565-.658-.569-.012-3.496-.374-5.715 1.614-.473.423-.797.847-1.024 1.14-.716.93-1.445 2.207-1.244 2.37.175.14.797-.789 2.192-1.613zM124.971 39.268s-.402.657-.834 1.62a.4.4 0 0 0-.027.239c.018.082.076.158.158.164q.084-.001.152-.056c.63-.398.966-1.114 1.27-1.795.108-.245.221-.511.163-.772-.012-.044-.026-.087-.064-.108-.056-.032-.12 0-.14.006-.33.131-.675.696-.675.696v.006z"/><path fill="#E6B401" d="M58.21 118.101a73.4 73.4 0 0 1 9.743 6.022 74.5 74.5 0 0 1 13.217 12.398c-1.66-4.806-3.43-8.361-4.766-10.764-1.156-2.075-2.225-3.701-3.153-6.557-.674-2.076-.554-2.581-1.471-5.85-.954-3.403-1.346-5.168-2.33-6.361-1.444-1.739-3.75-2.657-4.982-4.555-1.08-1.652-1.188-3.844-2.437-5.37-1.407-1.72-3.567-1.918-6.448-2.353-1.83-.272-4.656-.489-8.153.102a262 262 0 0 0 2.937 30.579c5.266 33.716 14.524 49.371 18.097 54.887 2.992 4.617 6.247 8.698 10.905 12.422 7.598 6.072 15.199 8.197 19.685 9.405 9.478 2.549 17.853 2.377 23.737 1.681-5.134-.152-13.205-1.038-21.825-5.125-18.03-8.551-25.917-25.147-31.865-37.657-4.05-8.525-9.7-23.18-10.894-42.913l.006.006z"/><path fill="#000" d="M106.299 45.582c-.207.468-.441.874-.581 1.371a8 8 0 0 0-.26 1.55c-.081 1.14.021 2.315.33 3.414.266.942.701 1.848 1.422 2.523.814.766 1.704.708 2.741.804.102.012.076-.29.011-.327-.791-.468-1.509-1.07-2.215-1.658a4.5 4.5 0 0 1-1.372-2.011c-.274-.79-.379-1.605-.397-2.415-.02-1.05.05-2.207.336-3.219 0-.011 0-.064-.018-.038v.006zM86.214 48.263c-.044.86.228 1.734.391 2.573.19.988.374 1.985.537 2.985.321 1.94.645 3.888.853 5.838s.145 3.73-.14 5.61a11.7 11.7 0 0 1-.657 2.534c-.365.924-.765 1.968-1.346 2.772-.038.05 0 .315.056.254.598-.593 1.161-1.026 1.585-1.783a13 13 0 0 0 1.036-2.398c.639-2.031.639-4.268.473-6.375a43 43 0 0 0-1.06-6.666 60 60 0 0 0-.832-3.148q-.21-.71-.45-1.41c-.102-.289-.169-.64-.423-.833-.02-.017-.026.032-.026.044h.006zM106.223 64.22c-.846 2.186-1.269 4.662-1.465 6.989-.184 2.175-.292 4.616.916 6.52.059.096.088-.135.088-.164-.196-2.143-.368-4.339-.169-6.485s.689-4.306.91-6.475c.012-.132-.131-.772-.283-.392v.006z"/><path fill="#000" d="M97.93 61.299c-.26 2.575.494 6.37 3.506 8.159 1.649.98 3.354.985 4.206.918.17-1.973.517-3.935 1.025-5.85.012-.05.026-.102.012-.152-.021-.082-.097-.12-.108-.126-.19-.12-3.524-3.262-5.173-6.452a13 13 0 0 1-.852-2.081c-.739.792-2.33 2.727-2.616 5.59zM86.348 73.27c.424.854.783 1.69 1.416 2.415.636.722 1.334 1.298 2.078 1.841a15.4 15.4 0 0 0 4.927 2.386c1.617.45 3.328.702 5.003.494.739-.088 1.472-.26 2.14-.588.82-.397 1.281-1.026 1.763-1.777.026-.044.026-.33-.05-.29-.303.17-.613.234-.934.343-.359.125-.7.321-1.059.45a9 9 0 0 1-2.102.5c-1.567.17-3.17-.038-4.69-.436a16.9 16.9 0 0 1-4.744-2.023 14 14 0 0 1-1.964-1.473c-.607-.55-1.39-1.14-1.793-1.86v.012zM60.323 83.89c2.23-.505 4.376-1.359 6.606-1.885a66 66 0 0 1 6.827-1.207c2.294-.29 4.63-.468 6.953-.576s4.673.012 6.973-.202c.19-.017.175-.924-.02-.941-2.291-.213-4.685-.026-6.98.082-2.294.108-4.728.292-7.072.593a59 59 0 0 0-6.821 1.26c-2.248.562-4.533 1.14-6.51 2.278-.12.07-.102.631.044.599M49.602 74.416c.575.17 1.156-.094 1.71-.26.555-.17 1.06-.316 1.591-.474q1.659-.495 3.334-.93a86 86 0 0 1 6.518-1.44 83 83 0 0 1 9.944-1.155c1.18-.065 2.432-.038 3.594-.234.183-.032.163-.798-.02-.828-1.157-.17-2.432-.07-3.6-.005A81.492 81.492 0 0 0 62.6 70.253c-2.23.403-4.457.88-6.644 1.48a68 68 0 0 0-3.207.947c-1.06.341-2.42.62-3.176 1.423-.056.059-.076.278.02.31h.012zM74.211 90.936c.853.027 1.673-.222 2.493-.444s1.661-.444 2.496-.652q2.377-.603 4.775-1.131a148 148 0 0 1 9.907-1.833 157 157 0 0 1 20.082-1.69 154 154 0 0 1 5.689.006c.908.017 1.807.044 2.715.082.978.038 1.996.175 2.968.05.254-.033.222-1.103-.026-1.164-.841-.208-1.719-.19-2.583-.228s-1.719-.064-2.583-.088c-1.641-.038-3.273-.05-4.913-.038q-5.106.05-10.205.45c-6.751.532-13.456 1.588-20.061 3.076a127 127 0 0 0-5.406 1.333c-1.792.482-3.827.804-5.374 1.81-.087.058-.102.45.038.456zM83.184 102.493c1.118.026 2.242-.562 3.278-.936s2.128-.754 3.202-1.102a96 96 0 0 1 6.77-1.924 89 89 0 0 1 13.654-2.175c2.639-.213 5.274-.207 7.919-.342.216-.011.207-1.06-.026-1.075-2.338-.185-4.706-.056-7.047.096a79 79 0 0 0-6.877.745c-4.64.714-9.25 1.784-13.704 3.272-1.18.391-2.344.815-3.5 1.26-1.27.488-2.676.935-3.69 1.865-.049.044-.075.316.021.316M85.04 117.803c.494-.076.865-.392 1.276-.664.526-.348 1.06-.678 1.603-1a105 105 0 0 1 3.22-1.839 75 75 0 0 1 6.584-3.174 75.3 75.3 0 0 1 18.258-5.116c1.41-.208 2.905-.234 4.288-.562.292-.07.272-1.207-.032-1.222-1.217-.07-2.496.196-3.701.36a69 69 0 0 0-3.669.602 72.775 72.775 0 0 0-20.94 7.426 59 59 0 0 0-3.65 2.107c-1.181.752-2.609 1.468-3.283 2.702-.026.055-.076.391.05.368v.006zM81.67 133.084c.592-.103 1.03-.55 1.502-.91.581-.441 1.162-.874 1.758-1.289 1.275-.88 2.545-1.76 3.844-2.605a117 117 0 0 1 7.823-4.654c5.505-2.99 11.22-5.288 17.373-6.507 3.392-.67 6.784-.892 10.225-1.132.289-.02.26-1.298-.032-1.309-3.071-.065-6.22.336-9.238.865a55 55 0 0 0-8.967 2.365c-5.792 2.07-11.247 5.142-16.408 8.457-1.485.956-2.968 1.936-4.396 2.974-1.301.95-2.872 2.023-3.517 3.549-.011.026-.026.19.038.178l-.006.012zM90.143 153.974c1.074-.885 1.988-1.923 2.986-2.897a55 55 0 0 1 3.228-2.92 54 54 0 0 1 6.974-4.915c5.4-3.195 11.334-5.408 17.455-6.735 3.605-.784 7.274-1.26 10.957-1.485.354-.021.304-1.38-.032-1.36-12.496.728-25.07 4.66-34.828 12.706-2.525 2.081-5.123 4.429-6.813 7.256-.032.055-.032.429.07.347zM122.213 90.784c1.086 2.137 1.238 4.839 1.258 7.192a27 27 0 0 1-.184 3.523c-.14 1.175-.581 2.423-.385 3.566.026.176.114.544.365.445.441-.176.537-1.062.619-1.468.146-.702.251-1.418.326-2.131.152-1.436.208-2.891.097-4.333a22.7 22.7 0 0 0-.613-3.882c-.292-1.163-.721-2.029-1.471-2.947-.018-.017-.018.032-.012.044v-.012z"/><path fill="#000" d="M12.5 81.374c1.345-4.099 5.4-6.692 9.402-7.677 2.539-.626 5.16-.772 7.767-.91 2.606-.137 5.271-.327 7.88-.789 5.173-.918 10.156-2.587 15.156-4.18 2.513-.798 5.02-1.605 7.572-2.272 2.55-.666 5.114-1.169 7.711-1.064 2.843.108 5.748 1.044 8.316 2.228 1.41.652 2.767 1.333 4.087 2.157 1.167.728 2.317 1.506 3.55 2.12.031.017.037-.164.01-.19-2.007-1.72-4.337-3.087-6.578-4.479-2.096-1.298-4.42-2.365-6.813-2.947a18.1 18.1 0 0 0-7.832-.178c-2.62.512-5.394 1.374-8.038 2.213-5.178 1.646-10.286 3.555-15.593 4.774-2.703.62-5.432.985-8.196 1.19-2.765.204-5.488.342-8.17.947-4.63 1.038-9.505 3.947-10.243 9.03 0 0 0 .027.012.018v.012zM74.206 104.928c.081.272.026.614.055.903s.076.6.12.898c.093.614.19 1.233.277 1.847.184 1.374.359 2.757.43 4.143a34 34 0 0 1-.071 4.56c-.064.784-.17 1.567-.26 2.342-.064.55-.17 1.12.044 1.646.012.02.026.044.055.05.678.076.865-3.289.902-3.745.152-1.658.196-3.333.108-4.996-.076-1.456-.216-2.915-.516-4.345a19 19 0 0 0-.473-1.903c-.082-.254-.163-.517-.266-.766-.087-.207-.33-.467-.38-.669-.005-.032-.025.012-.02.026v.006z"/><path fill="#000" d="M19.137 77.863c3.953-.594 7.86-1.333 11.877-1.295 2.531.02 5.076.272 7.54.847 3.144.734 5.829 2.55 8.646 4.05 3.114 1.657 6.354 3.072 9.623 4.396 3.267 1.328 6.904 2.593 10.179 4.327s6.398 3.865 9.139 6.361a24.1 24.1 0 0 1 6.535 9.987c.966 2.815 1.454 5.838 1.168 8.817-.088.903-.234 1.815-.525 2.675-.082.24-.196.523-.316.716-.163.26-.72 1.099-1.086 1.099-.46 0-.928-1.727-1.042-2.037s-.163.391-.131.517c.26.886.336 1.962.739 2.795.358.745.94.412 1.371-.094.5-.581.777-1.233.984-1.973.7-2.529.721-5.3.461-7.893-.373-3.731-1.52-7.399-3.453-10.618a25.6 25.6 0 0 0-4.13-5.242c-1.44-1.386-3.05-2.599-4.667-3.771-3.057-2.219-6.399-3.8-9.884-5.213-3.929-1.587-7.864-3.218-11.708-5.01-2.198-1.026-4.381-2.07-6.512-3.23-1.281-.697-2.568-1.366-3.967-1.805-2.034-.64-4.2-.935-6.322-1.064-3.783-.24-7.668.208-11.279 1.354-1.106.354-2.186.728-3.24 1.222-.017.006-.011.076.006.076v.006z"/><path fill="#000" d="M41.473 70.431c.58.202 1.138.646 1.635 1.006.496.36 1.024.751 1.52 1.146 1.004.804 1.874 1.777 2.654 2.8a19.5 19.5 0 0 1 2.04 3.333c.277.57.563 1.126.814 1.708.213.488.386 1.037.727 1.455.032.038.044-.043.044-.058-.05-1.327-.56-2.707-1.098-3.909a17 17 0 0 0-2.148-3.534c-.765-.956-1.667-1.772-2.653-2.485-.526-.38-1.074-.728-1.682-.968s-1.255-.321-1.844-.555c-.018-.006-.02.05 0 .055l-.006.006zM73.952 120.884c1.205 3.502 2.962 6.812 4.445 10.197 1.465 3.338 2.761 6.756 4.049 10.165 2.571 6.817 4.679 13.763 6.818 20.721 1.976 6.42 4.338 12.851 8.439 18.242 1.85 2.435 4.043 4.707 6.67 6.306s5.779 2.865 8.911 3.54c3.847.828 7.799 1 11.719.755a53 53 0 0 0 3.182-.293c1.06-.128 2.105-.418 3.17-.62 2.11-.403 4.206-.897 6.317-1.321.02 0 .02-.082 0-.076-3.702.424-7.397.526-11.11.708-3.497.169-7.078.131-10.534-.5-3.456-.632-6.556-1.646-9.46-3.354-2.66-1.567-5.071-3.718-7.067-6.06-4.238-4.97-6.775-11.074-8.815-17.21-2.248-6.756-4.212-13.579-6.778-20.227-1.41-3.655-2.963-7.242-4.597-10.797-.832-1.815-1.661-3.625-2.525-5.425-.809-1.681-1.65-3.409-2.779-4.894-.05-.065-.064.108-.055.131z"/><path fill="#000" d="M172.182 170.694a55 55 0 0 0-2.35 11.638c-.402 4.388-.367 9.922 2.741 24.065a275 275 0 0 0 6.007 22.663q4.623-.268 9.271-.561 5.04-.31 10.058-.638a936.283 936.283 0 0 1-3.631-55.475 69160 69160 0 0 0-8.126-23.25 208 208 0 0 1-23.372 16.585c-9.288 5.668-17.461 10.574-29.385 13.863a90 90 0 0 1-12.277 2.485 80.2 80.2 0 0 0 28.866-1.962 80.2 80.2 0 0 0 22.198-9.416z"/><path fill="#000" d="M42.932 98.008c-.058 1.757-.076 3.497.064 5.251a294.017 294.017 0 0 0 1.722 15.962c.961 7.071 2.286 14.09 3.845 21.054s3.342 13.813 5.461 20.599c2.035 6.528 4.434 12.959 7.56 19.052 5.59 10.904 13.69 20.852 24.665 26.632s24.029 7.142 36.268 5.908c6.833-.69 13.584-2.359 20.143-4.353a163 163 0 0 0 9.819-3.327c3.234-1.213 6.67-2.473 9.878-3.972 1.611-.755 3.17-1.588 4.723-2.453.093-.056.087-.456-.038-.436-3.304.69-6.471 1.681-9.668 2.739a414 414 0 0 1-9.869 3.137c-6.567 2-13.248 3.675-20.05 4.631-12.224 1.719-24.767 1.298-36.328-3.397-11.186-4.546-19.93-13.199-26.049-23.496-6.856-11.536-10.736-24.685-14.014-37.613a286.5 286.5 0 0 1-7.294-40.939c-.175-1.681-.467-3.327-.776-4.985-.012-.055-.056-.058-.056 0z"/><path fill="#000" d="M113.334 211.133v24.583l-19.989 16.059h52.92l-23.815-16.059v-24.583h-9.116M123.912 29.787c-.321.652-.832 1.17-1.136 1.848a18 18 0 0 0-.939 2.674c-.462 1.772-.602 3.593-.494 5.415.094 1.613.272 3.195.108 4.817-.175 1.702-.505 3.573-1.255 5.122-.391.804-.972 1.5-1.792 1.886-1.054.5-2.172.526-3.304.608-.065 0-.044.164-.006.19 1.526 1.158 3.424 1.17 4.731-.298 1.08-1.208 1.486-2.924 1.781-4.473.353-1.86.543-3.701.397-5.593-.131-1.701-.391-3.359-.216-5.072a17.4 17.4 0 0 1 .864-3.864c.175-.5.374-.989.569-1.48.222-.564.365-1.228.701-1.733.011-.012 0-.059-.012-.05v.006zM169.05 43.299c.511.102 1.03.096 1.553.114s1.03.026 1.547.038l3.03.038c2.04.02 4.086.044 6.127.044.119 0 .113-.532-.012-.532-2.04-.044-4.087-.07-6.127-.094q-1.515-.015-3.03-.032c-.493 0-.986-.006-1.483 0-.537.006-1.085-.017-1.611.082-.081.017-.07.327.012.342zM181.277 43.805v.05s0 .02.012.032c0 0 .012.012.018.012 0 0 .012 0 .012-.012a.1.1 0 0 0 .011-.038v-.088s0-.02-.011-.032c0-.012-.012-.02-.021-.02s-.018.017-.021.02a.1.1 0 0 0-.005.07l.011.006z"/><path fill="#000" d="M181.155 43.176c.119.912.076 1.822.044 2.734s-.065 1.833-.088 2.75c-.038 1.799-.07 3.605-.082 5.403s-.02 3.695-.017 5.54c.006 1.842-.018 3.61.076 5.402.108 2.03.049 4.067.277 6.09 0 .032.032.032.032 0 .114-1.804.026-3.616.032-5.42s.018-3.74.012-5.61c-.012-3.695.02-7.388.076-11.083.017-1.038.026-2.07.038-3.11.011-.968.058-1.974-.216-2.915-.094-.304-.208.058-.19.207zM166.044 39.662c.548.272 1.249.217 1.844.234.637.018 1.264.032 1.901.044q1.932.047 3.864.076c2.601.044 5.199.076 7.8.114 1.471.02 2.942.07 4.407.044.126 0 .12-.608-.017-.614-2.572-.12-5.158-.096-7.736-.14a690 690 0 0 0-7.799-.097c-.721 0-1.448-.006-2.172-.012-.668 0-1.491-.114-2.104.179-.038.017-.032.158 0 .175h.012z"/><path fill="#000" d="M183.671 39.572h2.317c.272 0 .488.216.488.488v34.084a.64.64 0 0 1-.636.637h-2.172v-35.21zM126.057 26.568c-.902.506-1.681 1.251-2.148 2.175-.222.442-.374.947-.245 1.418.026.097.076.202.175.216.055.012.108-.011.158-.032.732-.33 1.217-1.037 1.83-1.56a4.21 4.21 0 0 1 3.143-.948c-.064-.006-.07-1.251-.076-1.374 0-.392.132-.784-.353-.74-.846.076-1.748.424-2.481.836v.006zM97.373 36.835c1.331-.283 2.253-1.529 2.691-2.815.441-1.29.523-2.67.885-3.979.119-.441.289-.891.624-1.195.292-.26.683-.386 1.042-.544 1.737-.766 2.905-2.491 3.448-4.312.548-1.822.56-3.751.563-5.648a55 55 0 0 0 14.084 3.935c1.453.201 2.963.342 4.375-.07 1.168-.343 2.198-1.044 3.138-1.822 2.805-2.321 5.009-5.476 5.803-9.033.788-3.561.055-7.52-2.297-10.302-.444-.533-1.168-1.056-1.769-.717-.283.158-.444.456-.575.752-.858 1.909-1.106 4.23-2.691 5.592-1.65 1.418-4.099 1.246-6.247.912-2.647-.406-5.309-.947-7.741-2.07-1.445-.669-2.796-1.537-4.276-2.113-5.237-2.03-11.79.368-14.498 5.294.245-.327-.135-.76-.505-.941-1.527-.76-3.386-.483-4.927.234-2.525 1.169-4.484 3.484-5.222 6.165-1.08 3.92-5.847 5.903-6.702 9.879-.523 2.403.082 4.206 1.182 7.747 1.915 6.148 4.308 7.855 6.959 14.395a48 48 0 0 1 2.133 6.61c.87-.74 1.927-2.152 3.132-3.953 1.098-1.637 1.982-3.707 1.226-5.528-.896-2.152-3.61-2.883-5.052-4.713-1.521-1.923-1.27-4.926.341-6.773.739-.842 1.731-1.474 2.834-1.67 1.1-.196 2.298.082 3.132.828 1.005.897 1.364 2.283 1.939 3.502.58 1.213 1.643 2.625 2.957 2.347l.017.012zM85.528 143.71c1.32-.637 2.414-1.76 3.544-2.675a68 68 0 0 1 3.523-2.663c2.487-1.757 5.052-3.365 7.744-4.789 5.426-2.87 11.229-4.964 17.207-6.349 3.321-.772 6.731-1.196 10.128-1.436.278-.02.24-1.239-.032-1.228-12.256.424-24.3 4.625-34.352 11.618a56 56 0 0 0-4.075 3.137c-1.378 1.152-2.8 2.347-3.8 3.865-.06.087-.094.631.113.532zM126.127 106.027c.24-.38.689-.696 1.037-.968.493-.385.986-.765 1.497-1.125a24 24 0 0 1 3.164-1.865 25 25 0 0 1 3.447-1.398c.602-.19 1.217-.359 1.83-.5.549-.125.923-.064 1.054-.663.038-.164.07-.602-.093-.716-.164-.114-.251 0-.278.195-.011.059-.02.33-.02.267l.19-.532c-.222-.044-.569.108-.791.157-.327.076-.645.158-.972.252-.607.17-1.217.365-1.807.587a22.7 22.7 0 0 0-3.424 1.582 24 24 0 0 0-3.158 2.152c-.826.663-1.749 1.403-1.693 2.555 0 0 0 .026.011.017l.012.006zM125.412 93.942c.152.19.132.175.353.158.126-.012.24-.027.365-.05.315-.056.619-.126.928-.196.631-.14 1.256-.31 1.889-.436a37 37 0 0 1 3.859-.564c.435-.038.365-1.55-.038-1.523a22.4 22.4 0 0 0-4.738.903c-.744.228-1.509.48-2.177.886-.207.132-.668.544-.444.822h.006zM119.863 87.876c0 .765-.157 1.537-.163 2.315-.006.91.064 1.821.163 2.727.184 1.696.494 3.371.864 5.035.788 3.528 1.895 6.975 3.045 10.398s2.376 6.75 3.713 10.074c1.334 3.321 2.822 6.514 4.153 9.803a57 57 0 0 1 1.927 5.692c.265.947.548 1.885.814 2.832.266.948.645 1.839.928 2.772.076.245.19-.044.17-.17-.152-.897-.196-1.798-.374-2.695a101 101 0 0 0-.543-2.549 44 44 0 0 0-1.477-5.061c-1.162-3.271-2.671-6.414-4.005-9.615-2.708-6.475-5.122-13.1-7.084-19.841-.531-1.822-.992-3.658-1.331-5.529a42 42 0 0 1-.417-2.756 84 84 0 0 1-.164-1.488c-.064-.62-.216-1.316-.184-1.924 0-.032-.02-.05-.02-.006l-.012-.012z"/><path fill="#000" d="M122.444 104.188c.543 1.146 1.074 2.245 1.763 3.321a80 80 0 0 0 2.066 3.082 84 84 0 0 0 4.565 5.855c3.007 3.497 6.367 6.788 10.141 9.463 1.004.714 2.04 1.404 3.143 1.962.581.298 1.136.664 1.737.918s1.217.374 1.825.523c.049.012.055-.088.02-.108-.864-.702-1.693-1.392-2.633-1.985s-1.921-1.359-2.855-2.055c-1.97-1.474-3.89-3.017-5.697-4.692-3.392-3.137-6.442-6.642-9.259-10.308-.797-1.038-1.579-2.093-2.367-3.143-.386-.512-.765-1.026-1.162-1.532s-.847-.892-1.276-1.348c-.017-.017-.017.033-.011.038v.009"/><path fill="#000" d="M132.327 116.692c-.336-.69-.158-1.684-.076-2.418a12 12 0 0 1 .461-2.277 12.6 12.6 0 0 1 2.268-4.23 12.3 12.3 0 0 1 3.366-2.839 12.7 12.7 0 0 1 1.932-.903c.669-.246 1.448-.305 1.938-.828.082-.087.076-.368-.038-.435-.662-.386-1.693.134-2.343.397-.791.316-1.559.708-2.274 1.175a12.9 12.9 0 0 0-3.772 3.739c-.972 1.494-1.622 3.219-1.92 4.985a11.8 11.8 0 0 0-.164 2.643c.027.429.012 1.207.57 1.266.096.011.064-.234.043-.278h.012z"/><path fill="#000" d="M106.778 75.34c.554.523 1.068 1.081 1.742 1.447.733.392 1.504.678 2.298.924 1.497.456 3.038.728 4.576 1.017 3.197.6 6.562 1.05 9.391 2.777 3.006 1.84 5.09 4.818 7.128 7.616 2.381 3.283 4.775 6.56 7.174 9.84 2.753 3.763 5.532 7.508 8.316 11.247.213.283.406-.097.462-.29.087-.327.055-.766-.146-1.049a2244 2244 0 0 0-14.645-20.201c-2.046-2.79-4.042-5.724-6.85-7.812-2.601-1.935-5.797-2.69-8.961-3.093-1.807-.228-3.62-.424-5.4-.827a22 22 0 0 1-2.686-.81c-.788-.29-1.629-.488-2.387-.833-.018-.006-.012.032-.006.038v.006z"/><path fill="#000" d="M145.993 119.507c.184-1.789.289-3.572.701-5.332s1.036-3.424 1.786-5.046c1.521-3.289 3.576-6.312 5.678-9.247s4.276-5.826 6.164-8.91c1.889-3.082 3.637-6.324 3.996-9.917.38-3.844-.645-7.615-1.144-11.393-.114-.885-.245-1.794.14-2.636.386-.842 1.037-1.512 1.617-2.196 1.156-1.36 2.193-2.827 3.17-4.315.482-.734.949-1.48 1.384-2.245.33-.588.782-2.006 1.529-2.163.657-.14 1.13.695 1.326 1.207.245.637.245 1.327.175 1.99-.207 1.995-1.308 3.889-2.184 5.675-.455.93-1.068 1.854-1.383 2.845-.336 1.05-.222 2.295.254 3.277.309.64.782 1.184 1.199 1.757.444.608.797 1.26 1.156 1.923.832 1.55.955 3.251 1.075 4.985.02.31.265.523.321.088.367-3.017-.479-6.362-2.298-8.791-.353-.474-.834-.962-1.021-1.538-.056-.17-.05-.316-.07-.482.017.102-.038.096.038-.103-.056.135.096-.222.125-.289.082-.178.17-.354.254-.526.283-.556.569-1.108.841-1.664.986-2.023 2.084-4.224 2.297-6.501.126-1.342.032-2.877-.657-4.061-.251-.43-.668-.974-1.194-1.038-.645-.082-1.059.564-1.319 1.061-.879 1.652-1.807 3.263-2.925 4.763-1.015 1.365-2.209 2.534-3.301 3.826-1.232 1.456-1.503 3.044-1.34 4.903.178 2.05.587 4.067.879 6.098.292 2.032.487 4.081.108 6.093-.38 2.011-1.217 3.756-2.116 5.49-1.781 3.435-4.055 6.584-6.285 9.726-2.469 3.485-4.874 7.008-6.632 10.916-.858 1.909-1.567 3.891-2.028 5.938-.429 1.891-.733 3.914-.391 5.838.017.093.081.093.093 0h-.018zM149.636 129.879c1.795-.912 3.424-2.289 4.901-3.654a43 43 0 0 0 4.13-4.435c2.648-3.268 4.42-7.115 5.689-11.1s2.172-8.23 3.372-12.32c1.199-4.086 2.703-8.41 5.493-11.687 1.617-1.898 3.935-3.044 5.286-5.187 1.25-1.979 1.793-4.358 2.236-6.627.044-.216-.114-1.342-.391-.74l-.303.664c-.056.12.032.968.195.784.126-.135.245-.278.368-.413l-.292-.903c-.473 2.032-.902 4.116-1.997 5.926-1.097 1.81-3.018 2.789-4.576 4.239-2.995 2.8-4.732 6.975-6.025 10.79-2.715 7.987-3.663 16.602-8.284 23.844a37.5 37.5 0 0 1-4.364 5.598c-1.731 1.827-3.657 3.421-5.444 5.186-.005.006-.011.05.006.044v-.012z"/><path fill="#000" d="M169.033 42.913c-.216.342-.158.88-.176 1.266a72 72 0 0 0-.038 1.733c-.017 1.337-.011 2.681-.011 4.017v4.017c0 1.336.07 2.67.169 4.011.012.114.108.202.126.032.093-1.271.169-2.511.169-3.794v-4.017c0-1.336 0-2.681-.006-4.017q0-.938-.038-1.877c-.017-.441.026-.985-.178-1.386-.006-.011-.017-.011-.02 0l.005.012zM170.028 71.273c.19.044.347.126.543.152.195.027.406.006.607 0 .385-.011.765-.011 1.15-.026.765-.026 1.53-.055 2.3-.07 1.53-.032 3.068-.059 4.597-.213.021 0 .018-.097 0-.103-1.526-.196-3.067-.213-4.603-.178q-1.114.024-2.23.07c-.385.017-.765.044-1.15.076-.201.018-.406.018-.607.058-.228.05-.385.153-.601.228zM171.753 74.612c1.2.184 2.437.14 3.652.158 1.214.017 2.343.02 3.517.026q1.758.009 3.517 0h1.757c.298 0 .602 0 .902-.006.126 0 .266.012.386 0 .207-.026.178-.064.289-.26.058-.108.055-.36-.012-.468-.114-.19-.094-.234-.298-.254-.125-.018-.26 0-.385 0h-.835q-.912.002-1.824.012-1.76.01-3.512.026c-1.167.009-2.344.026-3.511.05-1.168.023-2.449-.012-3.649.184-.134.02-.125.517.012.532zM166.163 39.352c-.184.214-.169.532-.184.799-.032.461-.049.93-.058 1.397-.026.947-.038 1.891-.05 2.844-.02 1.941-.038 3.877-.049 5.818-.027 3.877-.038 7.753.058 11.627 0 .195.082.874.423.783.342-.094.316-.79.272-1.017l-.032-.176c-.082-.412-.467-.79-.593-.158l-.032.158c-.05.24-.114 1.061.245 1.181.391.132.429-.561.435-.789.097-3.876.088-7.756.059-11.632a983 983 0 0 0-.05-5.68c-.012-.989-.018-1.986-.05-2.974-.017-.614.12-1.657-.259-2.18-.044-.065-.094-.05-.135 0M92.2 164.849c8.784-15.263 26.461-24.933 44.03-24.077a146.8 146.8 0 0 0-29.07 19.71 874 874 0 0 1 37.739-22.353s14.764-8.253 43.909-15.117c.955-.222 3.056-.652 5.167.272 1.844.81 2.916 2.251 3.304 2.953a382 382 0 0 1 8.386 15.889c6.162 12.383 6.827 13.377 11.393 27.138a186 186 0 0 1 1.949 6.241q-7.274 5.342-14.545 10.683a129 129 0 0 1-5.324-8.888c-5.695-10.442-9.27-20.461-11.562-29.164l4.679-4.277c.33-.304-9.547 6.712-19.796 13.471-28.196 18.591-43.605 21.505-47.534 22.175-12.496 2.119-18.226.096-21.743-1.909-6.372-3.625-9.548-9.475-10.987-12.747l.006.006zM128.395 18.74c-.108 1.315-.096 2.642-.134 3.963-.044 1.784-.152 3.561-.251 5.339-.251 4.502-.651 9-1.503 13.433-.853 4.429-2.178 9.203-4.446 13.328-.986 1.795-2.192 3.446-3.441 5.06-1.433 1.848-3.1 3.625-5.286 4.572a5.7 5.7 0 0 1-4.098.196c-1.472-.468-2.715-1.412-3.877-2.403a17.3 17.3 0 0 1-3.187-3.581c-.587-.886-1.194-1.865-1.623-2.839-.12-.272-.228.223-.184.342.365 1.018.706 1.968 1.243 2.91a17.8 17.8 0 0 0 2.368 3.25c.998 1.087 2.183 2.076 3.403 2.903 1.144.772 2.373 1.348 3.777 1.327 2.414-.044 4.527-1.614 6.188-3.23 1.521-1.474 2.905-3.093 4.075-4.856 2.703-4.081 4.32-8.84 5.423-13.58 1.101-4.738 1.699-9.658 1.982-14.546.132-2.295.114-4.593.065-6.888-.033-1.567-.059-3.149-.292-4.7-.032-.217-.178-.217-.202 0"/><path fill="#D5D5D5" d="M75.677 113.306c-.032 2.67-.444 5.318-.984 7.932.669-.407.978-1.208 1.232-1.953.33-.974.64-1.962.84-2.967.564-2.865.202-5.894-.983-8.557-.234-.518-.689-1.839-1.206-2.076-.076.456.36 1.295.479 1.778q.237.955.374 1.923c.19 1.298.265 2.611.25 3.92h-.005z"/><path fill="#D5D5D5" d="M79.03 111.088c.082.827.17 1.663.056 2.484-.096.728-.347 1.424-.598 2.114l-.733 2c-.43 1.169-.864 2.333-1.293 3.502.365-.208.657-.523.922-.848a13.93 13.93 0 0 0 3.007-6.627c.087-.55.14-1.108.108-1.664-.032-.456-.126-.912-.216-1.359-.097-.48-.196-.95-.292-1.43a11 11 0 0 0-.266-1.108c-.289-.923-.902-2.075-1.742-2.604-.175.266.157.777.25 1.049.164.48.29.968.392 1.462.207 1 .31 2.017.411 3.029zM81.675 111.19c.056.494.102.985.088 1.479-.018.436-.088.871-.158 1.298-.14.848-.283 1.696-.555 2.511-.087.261-.19.518-.227.79-.094.652.195 1.295.479 1.891.53-.777.863-1.669 1.161-2.567.213-.637.418-1.277.473-1.947a8.5 8.5 0 0 0-.02-1.277c-.027-.444-.059-.892-.088-1.342-.076-1.108-.158-2.225-.45-3.295a7.3 7.3 0 0 0-.6-1.523c-.17-.31-.576-1.119-.95-1.157.342 1.713.663 3.382.853 5.124v.012z"/><path fill="#000" d="M77.414 104.788c.63 1.341.998 2.984 1.188 4.452s.157 2.853-.103 4.239-.636 2.751-1.06 4.081c-.422 1.33-.907 2.853-1.578 4.154-.027.05 0 .386.087.304.479-.462.902-.891 1.226-1.479.368-.658.645-1.342.873-2.061.51-1.593.946-3.245 1.173-4.908a14.4 14.4 0 0 0-.14-4.655c-.14-.701-.31-1.403-.569-2.069a13 13 0 0 0-.435-.988c-.195-.404-.444-.708-.662-1.088v.018000000000000002M80.33 105.173c.309.679.417 1.506.575 2.234.125.593.221 1.181.291 1.777a15.4 15.4 0 0 1-.011 3.772c-.164 1.257-.5 2.485-.908 3.686-.201.599-.435 1.184-.651 1.778-.254.695-.444 1.417-.712 2.104-.018.038 0 .29.07.196.184-.234.435-.403.607-.64.19-.266.353-.576.505-.865.336-.632.607-1.298.835-1.979.46-1.38.782-2.816.928-4.263s.134-2.8-.096-4.163a12 12 0 0 0-.511-1.979c-.228-.637-.63-1.102-.908-1.696-.012-.026-.02.027-.017.038h-.006zM12.217 82.555c.89 8.709 10.68 11.708 17.992 12.632 2.957.374 5.93.354 8.911.336 4.195-.026 8.398.018 12.587.304 2.758.19 5.764.366 8.348 1.447.727.304 1.421.708 1.976 1.266.79.804 1.06 1.915 1.447 2.941.657 1.722 1.775 3.339 3.328 4.365 1.34.891 2.551 1.707 3.342 3.163.657 1.207.835 2.581 1.037 3.92.27 1.81.618 3.611 1.225 5.338.184.524 1.422 4.383 2.388 3.649.397-.298.461-1.07.523-1.511.145-1.062.183-2.132.207-3.196a52.7 52.7 0 0 0-.482-8.165 51 51 0 0 0-.543-3.181c-.064-.33-.14.097-.125.223.359 2.756.759 5.49.782 8.279.012.988-.012 1.979-.055 2.967-.027.754.093 1.827-.33 2.5-.353.561-.791-.261-.972-.6-.637-1.184-1.086-2.505-1.448-3.8-.77-2.763-.575-5.985-2.134-8.481a6.3 6.3 0 0 0-1.47-1.669c-.5-.392-1.063-.641-1.606-.962-1.521-.909-2.645-2.418-3.34-4.029-.443-1.037-.65-2.105-1.389-2.996-.455-.556-1.03-.985-1.667-1.316-1.97-1.026-4.314-1.315-6.491-1.543-4.034-.43-8.12-.512-12.175-.512-3.024 0-6.051.158-9.07.018-3.51-.164-7.11-.696-10.452-1.795-3.8-1.252-7.236-3.447-9.25-6.99-.479-.836-.814-1.757-1.042-2.69-.026-.12-.058.032-.055.082zM241.705 70.01c-8.36 0-15.138-6.787-15.138-15.16s6.778-15.162 15.138-15.162 15.137 6.788 15.137 15.161c0 8.374-6.777 15.161-15.137 15.161"/><path fill="#fff" d="M250.846 58.643c2.091-5.057-.307-10.854-5.355-12.949-5.049-2.095-10.838.307-12.929 5.364s.306 10.854 5.355 12.948 10.837-.307 12.929-5.363"/><path fill="#000" d="M235.941 56.15a5.77 5.77 0 0 0 5.765 5.774 5.773 5.773 0 0 0 5.765-5.774zM238.942 53.294c.428 0 .776-.764.776-1.707s-.348-1.707-.776-1.707-.777.764-.777 1.707.348 1.707.777 1.707M244.473 53.294c.429 0 .776-.764.776-1.707s-.347-1.707-.776-1.707-.777.764-.777 1.707.348 1.707.777 1.707M212.562 38.13c7.074 0 12.809-5.743 12.809-12.828s-5.735-12.828-12.809-12.828-12.808 5.744-12.808 12.828c0 7.085 5.735 12.828 12.808 12.828"/><path fill="#fff" d="M206.17 22.654c-.292.33-.292.87-.289 1.064l-.342 6.066c-.017.175-.049.734.24 1.093.213.26.493.278 1.054.304.601.027.907.044 1.15-.233.271-.31.289-.793.289-.989.093-2.093.178-4.192.271-6.285.026-.19.07-.593-.114-.886-.178-.283-.487-.304-1.1-.336-.625-.032-.934-.05-1.156.202zM211.911 16.816c.482-.176 1.136.57 1.212.657.922 1.056.89 2.886-.012 4.701.669.038 1.641.056 2.817-.064 1.681-.17 2.539-.5 3.03 0 .403.406.297 1.137.146 1.538-.327.88-1.369 1.456-2.589 1.353.291.544.89.804 1.415.652.625-.178.815-.848.82-.88.216.62.549 1.827.304 3.3-.134.805-.309 1.843-1.1 2.582-1.118 1.05-2.759.912-4.717.746a15.4 15.4 0 0 1-4.282-1.012 8.6 8.6 0 0 0 .939-4.01 8.6 8.6 0 0 0-.732-3.34c.481-.33 1.106-.859 1.567-1.663 1.18-2.043.412-4.294 1.18-4.572l.005.012z"/><path fill="#000" d="M190.484 59.156c2.767-2.772 6.769-3.643 10.35-4.844.021-.006.018-.082 0-.082-2.058.26-4.022.707-5.911 1.605-1.71.81-3.208 1.87-4.445 3.3v.02zM190.951 63.576c2.799-.941 5.814-1.418 8.745-1.734a39 39 0 0 1 4.369-.222c1.46.006 3.083-.076 4.604 0 .02 0 .02-.082 0-.088-1.521-.33-2.931-.64-4.496-.663a34 34 0 0 0-4.617.245c-3.007.36-5.815 1.298-8.602 2.447v.018zM192.927 67.207c5.041.096 10.041 1.412 14.714 3.262.018.006.018-.058 0-.064a24 24 0 0 0-7.049-2.74c-2.522-.552-5.085-.683-7.668-.549-.021 0-.021.094 0 .094h.006zM228.287 126.95c-11.868 0-21.489-9.636-21.489-21.522 0-11.887 9.621-21.522 21.489-21.522s21.489 9.635 21.489 21.522-9.621 21.522-21.489 21.522"/><path fill="#000" d="M219.96 101.472c.861.758 1.921 1.266 2.735 2.07.815.804 1.358 2.082.829 3.099-.321.62-.957.997-1.529 1.397-3.013 2.105-4.91 5.724-4.924 9.402 1.106-.213 2.238-.21 3.362-.187 2.484.05 4.968.196 7.44.436 2.196.21 4.42.5 6.594.143-.026-1.944-.277-3.958-1.296-5.616-.797-1.301-2.005-2.289-3.19-3.242-.969-.781-2.011-1.675-2.195-2.906-.193-1.278.613-2.494 1.553-3.382.937-.886 2.055-1.608 2.787-2.669 1.238-1.78 1.168-4.131 1.045-6.298-4.369-.68-8.786-1.321-13.199-1.031-.823.055-1.699.143-2.434.55-.66.367-.654.742-.537 1.42.277 1.602.572 3.201 1.319 4.66.414.81.954 1.555 1.64 2.157z"/><path fill="#fff" d="M233.186 93.445c-.102 1.479-.088 2.95-.473 4.396-.338 1.275-.966 2.462-1.953 3.351-.986.888-2.133 1.558-2.781 2.739-.648 1.178-.47 2.564.3 3.64.426.596 1.007 1.061 1.6 1.482.546.386 1.153.722 1.5 1.309.085.147.114-.125.102-.178-.131-.561-.543-1.014-.983-1.365-.517-.409-1.069-.766-1.539-1.237-.47-.47-.849-.988-1.007-1.619-.154-.632.041-1.19.368-1.696.721-1.111 1.924-1.757 2.843-2.678.899-.9 1.468-2.075 1.801-3.291.42-1.535.505-3.216.391-4.798-.011-.166-.154-.295-.172-.05z"/><path fill="#000" d="M228.959 109.576a6.8 6.8 0 0 1-1.52-2.084c-.33-.708-1.016-2.172-.491-3.76a4.4 4.4 0 0 1 1.039-1.666 6.485 6.485 0 0 0 3.672-6.291h-12.373c-.166 2.517 1.136 4.738 3.047 5.931.164.202 1.212.637 1.86 1.588.908 1.327.727 3.227.105 4.543a5.1 5.1 0 0 1-1.34 1.719 6.49 6.49 0 0 0-3.187 6.034h12.376a6.49 6.49 0 0 0-3.188-6.014"/><path fill="#fff" d="m235.918 119.399-19.697.219a.38.38 0 0 1-.376-.322c-.068-.415-.088-1.148.391-1.815a2.4 2.4 0 0 1 1.34-.903l16.526-.03c.287.071.862.255 1.372.763.561.556.759 1.214.829 1.652a.385.385 0 0 1-.379.439z"/><path fill="#fff" d="M232.596 111.935c.283.383.596.752.835 1.164.24.412.409.833.54 1.277.295 1.024.321 2.091.359 3.149l.28-.263-.02-.044c-.035-.079-.099-.117-.172-.064-.082.058-.091.225-.088.31v.061c.003.096.035.36.178.357s.161-.275.158-.366c-.026-1.175-.094-2.385-.447-3.514a5.7 5.7 0 0 0-.601-1.327c-.26-.415-.537-.786-.978-.965-.093-.038-.064.187-.038.225zM217.485 117.309c-.064-.986 0-1.95.257-2.906a9.2 9.2 0 0 1 1.203-2.652 11.7 11.7 0 0 1 1.78-2.114c.669-.631 1.398-1.108 2.087-1.68.68-.568 1.159-1.266 1.174-2.178.017-.913-.389-1.719-.967-2.36-.621-.684-1.442-1.146-2.195-1.66a7.4 7.4 0 0 1-1.941-1.895c-1.29-1.859-1.649-4.148-1.807-6.361-.005-.088-.02-.345-.154-.345-.135 0-.143.272-.14.35.096 2.024.397 4.094 1.319 5.918.406.801.925 1.549 1.573 2.166.648.62 1.48 1.099 2.236 1.634s1.428 1.158 1.679 2.038-.307 1.526-.937 2.035c-.71.573-1.454 1.081-2.117 1.713a12 12 0 0 0-1.78 2.114c-1.174 1.792-1.897 4.098-1.501 6.247.047.254.24.152.225-.067zM225.804 106.939c.006.027.012.056.032.073.038.038.111.021.146-.02s.041-.102.038-.158c0-.234-.082-.465-.07-.699.02-.304-.234-.269-.239.021-.003.26.035.529.09.78z"/><path fill="#fff" d="M225.956 102.65c3.138-.233 4.688-2.905 4.804-3.116-.388-.336-.98-.737-1.681-.699-1.173.065-1.392 1.278-2.644 1.512-1.177.219-1.653-.749-3.001-.643-.993.076-1.751.681-2.21 1.137.254.257 2.032 2.011 4.729 1.809z"/><path fill="#fff" d="M223.717 102.358c.123.027.301.073.499.17.677.321 1.007.888 1.168 1.163.321.553.414 1.085.446 1.43.021.02.053.047.082.041.169-.038-.09-1 .178-1.707.14-.372.488-.825 1.387-1.184-.605.073-1.27.122-1.991.134a19 19 0 0 1-1.769-.05zM220.176 115.25c-.35-.593.891-1.906 3.383-4.507 1.177-1.228 1.687-1.684 2.338-1.626.713.064 1.127.696 1.714 1.459 2.478 3.216 4.55 4.259 4.206 4.87-.108.187-.452.36-1.626.147h-9.154c-.557-.021-.773-.185-.864-.34zM233.56 112.827a5.27 5.27 0 0 0 5.268-5.277 5.273 5.273 0 0 0-5.268-5.277 5.273 5.273 0 0 0-5.269 5.277 5.273 5.273 0 0 0 5.269 5.277M215.351 91.457l19.697-.22a.38.38 0 0 1 .377.322c.067.415.087 1.149-.391 1.816a2.4 2.4 0 0 1-1.34.903l-16.527.029a2.94 2.94 0 0 1-1.372-.763 2.98 2.98 0 0 1-.829-1.652.384.384 0 0 1 .38-.438z"/><path fill="#000" d="M232.421 109.871a.74.74 0 0 1-.522-.216l-1.582-1.581a.74.74 0 0 1 1.045-1.047l1.056 1.058 2.919-2.923a.74.74 0 0 1 1.045 1.046l-3.441 3.447a.73.73 0 0 1-.523.216zM171.044 46.506q.196-.338.686-.339c.327 0 .551.114.683.34.131.224.195.54.195.94 0 .401-.064.728-.195.954q-.197.34-.683.339-.488 0-.686-.34-.197-.34-.196-.952c0-.41.064-.717.196-.942m1.208.424a.67.67 0 0 0-.163-.342q-.123-.13-.359-.129-.239 0-.362.13a.67.67 0 0 0-.164.341 3 3 0 0 0-.041.518c0 .204.015.386.041.529a.67.67 0 0 0 .164.345q.123.13.362.128.236-.001.359-.128a.67.67 0 0 0 .163-.345q.04-.214.041-.53c0-.21-.015-.377-.041-.517M172.97 48.178v-.242l1.229-1.705h.382v1.67h.351v.277h-.351v.564h-.315v-.564zm1.311-1.613-.943 1.336h.943zM175.25 47.199a.21.21 0 0 1-.064-.155q-.001-.09.064-.155a.2.2 0 0 1 .155-.064q.09-.001.148.064.062.061.062.155a.217.217 0 0 1-.21.22.21.21 0 0 1-.155-.065m0 1.5a.21.21 0 0 1-.064-.155c0-.062.02-.111.064-.155a.2.2 0 0 1 .155-.065q.09-.001.148.065.062.061.062.155a.217.217 0 0 1-.21.219.21.21 0 0 1-.155-.064M176.654 47.898a2.8 2.8 0 0 0 .426-.48.85.85 0 0 0 .172-.494.55.55 0 0 0-.111-.36q-.11-.13-.356-.131a.46.46 0 0 0-.371.149.63.63 0 0 0-.143.398h-.309q.013-.394.239-.608a.8.8 0 0 1 .578-.214c.237 0 .432.067.572.199q.213.2.214.55-.001.29-.173.567a2.6 2.6 0 0 1-.394.485q-.22.21-.563.485h1.205v.266h-1.684v-.228q.446-.36.698-.587zM178.207 46.506q.196-.339.686-.34c.327 0 .551.115.683.34q.196.339.195.941c0 .4-.064.728-.195.953q-.198.341-.683.34-.488 0-.686-.34c-.132-.228-.196-.543-.196-.953s.064-.716.196-.941m1.208.424a.67.67 0 0 0-.163-.342q-.123-.13-.359-.129-.239 0-.362.129a.67.67 0 0 0-.164.342 3 3 0 0 0-.041.517c0 .205.015.386.041.53a.67.67 0 0 0 .164.344q.123.131.362.13.236-.001.359-.13a.67.67 0 0 0 .163-.344q.04-.215.041-.53c0-.21-.015-.377-.041-.517M178.04 50.43q-.121.117-.37.116h-.275v.597h-.187v-1.427h.459q.24 0 .367.117a.4.4 0 0 1 .126.301.39.39 0 0 1-.123.295zm-.143-.106q.074-.066.073-.193 0-.263-.303-.263h-.275v.523h.275c.102 0 .181-.023.227-.067zM179.835 49.725v1.415h-.186v-1.056l-.47 1.056h-.132l-.472-1.059v1.059h-.187v-1.415h.201l.523 1.17.522-1.17h.201"/></g><defs><clipPath id="a"><path fill="#fff" d="M0 0h257v252H0z"/></clipPath></defs></svg>