<svg width="132" height="132" viewBox="0 0 132 132" fill="none" xmlns="http://www.w3.org/2000/svg">
<circle cx="66" cy="66" r="66" fill="white"/>
<g clip-path="url(#clip0_932_63674)">
<path d="M51.775 28.6304C47.5858 28.7783 43.401 28.9239 39.2117 29.0649C37.3243 28.8329 34.13 28.7556 31.7849 30.7051C28.9275 33.0756 28.8159 37.2204 28.7886 39.3315C28.6839 47.1366 28.6907 65.6792 29.1529 90.4435C29.1119 91.3125 29.0186 95.3391 32.0513 98.7901C35.5757 102.801 40.4822 102.801 41.1903 102.787C62.3393 102.682 83.4884 102.585 104.635 102.478C105.723 102.359 108.369 101.902 110.742 99.8206C114.503 96.5106 114.512 91.7971 114.496 91.06L114.166 38.4056C114.257 37.9779 115.015 34.1903 112.313 31.0282C109.583 27.8297 105.667 28.0117 105.236 28.0412C87.4158 28.2369 69.5932 28.428 51.7728 28.6236V28.6304H51.775Z" fill="white"/>
<path d="M51.7614 27.4248C50.1813 27.2701 48.624 27.1223 47.0371 27.0608C45.4501 26.9971 43.8928 27.0335 42.3196 27.054C41.015 27.0677 39.7081 27.1245 38.4103 26.9971C37.3653 26.8993 36.2975 26.8993 35.2592 27.0745C32.9642 27.4521 30.9629 28.6806 29.7699 30.7007C28.718 32.4819 28.2604 34.5657 28.0919 36.6131C27.8733 39.327 27.9371 42.091 27.9234 44.8117C27.9098 48.4379 27.9098 52.0572 27.9234 55.6811C27.9644 66.1024 28.1329 76.5168 28.3242 86.9312C28.3583 88.8808 28.2467 90.6688 28.5427 92.632C28.8865 94.9115 29.7358 97.1135 31.1109 98.9721C33.3718 102.009 37.0761 103.818 40.8465 103.902C46.5111 104.036 52.2031 103.838 57.8746 103.831C64.1289 103.818 70.3764 103.804 76.6284 103.79C82.8828 103.777 89.1371 103.847 95.3823 103.811C96.9624 103.804 98.5334 103.79 100.113 103.784C101.694 103.777 103.21 103.874 104.733 103.749C106.671 103.595 108.692 102.753 110.25 101.618C113.633 99.1427 115.19 94.9979 115.275 90.9168C115.386 85.3137 115.197 79.6811 115.149 74.0781C115.099 67.8017 115.024 61.5253 114.995 55.2466C114.981 52.1687 114.954 49.0885 114.924 46.0038C114.91 44.4318 114.897 42.869 114.883 41.2971C114.883 40.5395 114.869 39.7888 114.863 39.0313C114.863 38.8425 114.933 37.8188 114.822 38.4148C114.724 38.9335 114.808 38.5626 114.828 38.4353C115.536 34.1653 114.225 29.2265 110.245 26.9767C108.863 26.1987 107.226 25.771 105.635 25.7642C103.212 25.7642 100.792 25.8347 98.3695 25.862C85.8471 26.0098 73.3248 26.1782 60.8093 26.3738C57.7835 26.4239 54.7508 26.4648 51.7272 26.5422C50.8438 26.5626 50.8917 29.5587 51.8046 29.5587C63.7441 29.586 75.6836 29.454 87.623 29.3266C93.5131 29.2629 99.4008 29.2356 105.284 29.1515C108.667 29.1014 112.199 30.869 113.328 34.2495C113.453 34.6362 113.537 35.0275 113.588 35.4347C113.615 35.6872 113.608 35.5462 113.615 35.785V36.0648C113.615 36.3742 113.628 35.8328 113.615 36.1149C113.608 36.2627 113.594 36.4083 113.581 36.5562C113.56 36.8861 113.581 36.5698 113.581 36.5971C113.524 36.9338 113.462 37.2705 113.446 37.614C113.305 40.5805 113.467 43.597 113.48 46.5702C113.508 52.4963 113.531 58.4292 113.558 64.3553C113.585 70.2813 113.615 76.3257 113.642 82.3154C113.656 85.0794 113.669 87.848 113.683 90.6119V90.8303C113.697 91.117 113.724 90.389 113.683 90.7325C113.649 91.0487 113.633 91.3626 113.592 91.672C113.551 91.9814 113.619 91.5674 113.558 91.8813C113.524 92.0633 113.487 92.2385 113.446 92.4205C113.362 92.7913 113.257 93.1575 113.123 93.5147C112.351 95.6326 110.892 97.3934 108.961 98.5649C107.128 99.6728 105.261 100.053 103.155 100.06C97.1969 100.087 91.2363 100.185 85.278 100.228C73.3043 100.319 61.3284 100.424 49.3548 100.48C46.5749 100.494 43.8017 100.537 41.0241 100.521C39.872 100.521 38.7154 100.36 37.6134 100.03C33.563 98.8174 30.4393 95.4916 29.9202 91.2489C29.8792 90.919 29.9202 91.3467 29.8997 91.0464C29.8929 90.9054 29.886 90.7666 29.8792 90.6256C29.8792 90.3458 29.8792 89.8612 29.8724 90.3458C29.9065 88.858 29.845 87.3725 29.8154 85.8847C29.7654 83.0866 29.7107 80.2885 29.6902 77.4904C29.6561 72.5175 29.5992 67.5378 29.565 62.5672C29.5149 55.5333 29.5309 48.4925 29.5309 41.4563C29.5309 38.6718 29.2075 36.0011 30.5691 33.4328C31.6642 31.3717 33.7702 30.2275 36.0379 29.9272C36.9646 29.8021 37.9049 29.8021 38.8383 29.8703C40.2135 29.975 41.6593 29.7657 43.0436 29.6815C44.4256 29.5973 45.8304 29.5132 47.226 29.3653C48.7492 29.2038 50.2382 28.9513 51.7454 28.6919C52.1325 28.6282 52.1097 27.4726 51.7181 27.4294L51.7682 27.4225L51.7614 27.4248Z" fill="#101A5B"/>
<path d="M38.0529 26.6604H104.756C109.949 26.6604 114.168 30.8758 114.168 36.0648V44.3271H28.6475V36.0648C28.6475 30.8758 32.8663 26.6604 38.0597 26.6604H38.0529Z" fill="#101A5B"/>
<path d="M49.9081 19.6744C49.8671 25.3343 49.8238 30.9942 49.7897 36.661C51.8115 36.6337 53.8401 36.6041 55.8619 36.5836C55.5682 30.8896 55.279 25.1933 54.9853 19.4924C53.2937 19.5561 51.602 19.6175 49.9104 19.6744H49.9081Z" fill="white"/>
<path d="M49.6827 19.3877C49.3457 20.7003 49.373 22.0812 49.3525 23.4279C49.3321 24.8997 49.3116 26.3739 49.2888 27.8457C49.2546 30.7917 49.2182 33.7377 49.1841 36.6745C49.1841 37.018 49.3093 37.978 49.8147 37.978C51.8502 37.9712 53.8583 38.0281 55.8869 37.9212C56.406 37.8939 56.4903 36.8975 56.4629 36.5676C56.2671 33.7263 56.2102 30.8668 56.0622 28.0254C55.9142 25.1841 55.7458 22.3314 55.5909 19.4832C55.5704 19.1466 55.4794 18.0728 54.9375 18.0956C53.2459 18.1661 51.5542 18.2434 49.8625 18.314C49.0133 18.3481 49.0839 21.0779 49.9331 21.0552C51.6248 21.0051 53.3164 20.9574 55.0081 20.9005L54.3546 19.5128C54.4958 22.361 54.621 25.2068 54.7622 28.055C54.9033 30.9032 55.1401 33.749 55.2403 36.5972L55.8163 35.2436C53.7809 35.1868 51.7728 35.3005 49.7442 35.3414L50.3748 36.645C50.3817 33.699 50.3885 30.7598 50.3953 27.8161V23.3983C50.3953 22.0516 50.409 20.698 50.1084 19.3809C50.0242 19.0101 49.7578 19.0647 49.6736 19.3945L49.6804 19.3877H49.6827Z" fill="#101A5B"/>
<path d="M69.6387 19.6744C69.5977 25.3343 69.5545 30.9942 69.5203 36.661C71.5421 36.6337 73.5707 36.6041 75.5925 36.5836C75.2988 30.8896 75.0096 25.1933 74.7159 19.4924C73.0243 19.5561 71.3326 19.6175 69.641 19.6744H69.6387Z" fill="white"/>
<path d="M69.4133 19.3877C69.0763 20.7003 69.1037 22.0812 69.0832 23.4279C69.0627 24.8997 69.0422 26.3739 69.0194 27.8457C68.9853 30.7917 68.9488 33.7377 68.9147 36.6745C68.9147 37.018 69.0399 37.978 69.5454 37.978C71.5808 37.9712 73.5889 38.0281 75.6175 37.9212C76.1366 37.8939 76.2209 36.8975 76.1936 36.5676C75.9978 33.7263 75.9408 30.8668 75.7929 28.0254C75.6449 25.1841 75.4764 22.3314 75.3216 19.4832C75.3011 19.1466 75.21 18.0728 74.6681 18.0956C72.9765 18.1661 71.2848 18.2434 69.5932 18.314C68.7439 18.3481 68.8145 21.0779 69.6637 21.0552C71.3554 21.0051 73.0471 20.9574 74.7387 20.9005L74.0853 19.5128C74.2264 22.361 74.3517 25.2068 74.4928 28.055C74.634 30.9032 74.8708 33.749 74.9709 36.5972L75.547 35.2436C73.5115 35.1868 71.5034 35.3005 69.4748 35.3414L70.1054 36.645C70.1123 33.699 70.1191 30.7598 70.1259 27.8161V23.3983C70.1259 22.0516 70.1396 20.698 69.8391 19.3809C69.7548 19.0101 69.4884 19.0647 69.4042 19.3945L69.411 19.3877H69.4133Z" fill="#101A5B"/>
<path d="M88.24 19.6744C88.1991 25.3343 88.1558 30.9942 88.1217 36.661C90.1434 36.6337 92.1721 36.6041 94.1938 36.5836C93.9001 30.8896 93.611 25.1933 93.3173 19.4924C91.6256 19.5561 89.934 19.6175 88.2423 19.6744H88.24Z" fill="white"/>
<path d="M88.0146 19.3877C87.6777 20.7003 87.705 22.0812 87.6845 23.4279C87.664 24.8997 87.6435 26.3739 87.6208 27.8457C87.5866 30.7917 87.5502 33.7377 87.516 36.6745C87.516 37.018 87.6413 37.978 88.1467 37.978C90.1821 37.9712 92.1903 38.0281 94.2189 37.9212C94.738 37.8939 94.8222 36.8975 94.7949 36.5676C94.5991 33.7263 94.5422 30.8668 94.3942 28.0254C94.2462 25.1841 94.0777 22.3314 93.9229 19.4832C93.9024 19.1466 93.8113 18.0728 93.2695 18.0956C91.5778 18.1661 89.8862 18.2434 88.1945 18.314C87.3453 18.3481 87.4159 21.0779 88.2651 21.0552C89.9567 21.0051 91.6484 20.9574 93.3401 20.9005L92.6866 19.5128C92.8278 22.361 92.953 25.2068 93.0942 28.055C93.2353 30.9032 93.4721 33.749 93.5723 36.5972L94.1483 35.2436C92.1129 35.1868 90.1047 35.3005 88.0761 35.3414L88.7068 36.645C88.7136 33.699 88.7205 30.7598 88.7273 27.8161V23.3983C88.7273 22.0516 88.7409 20.698 88.4404 19.3809C88.3562 19.0101 88.0898 19.0647 88.0055 19.3945L88.0124 19.3877H88.0146Z" fill="#101A5B"/>
<path d="M44.6646 51.3337H35.6372C35.4322 51.3337 35.2661 51.4998 35.2661 51.7045V60.7245C35.2661 60.9292 35.4322 61.0953 35.6372 61.0953H44.6646C44.8696 61.0953 45.0358 60.9292 45.0358 60.7245V51.7045C45.0358 51.4998 44.8696 51.3337 44.6646 51.3337Z" fill="#B7BFF6"/>
<path d="M60.1354 51.3337H51.1079C50.903 51.3337 50.7368 51.4998 50.7368 51.7045V60.7245C50.7368 60.9292 50.903 61.0953 51.1079 61.0953H60.1354C60.3404 61.0953 60.5065 60.9292 60.5065 60.7245V51.7045C60.5065 51.4998 60.3404 51.3337 60.1354 51.3337Z" fill="#B7BFF6"/>
<path d="M44.6646 65.5063H35.6372C35.4322 65.5063 35.2661 65.6724 35.2661 65.8772V74.8971C35.2661 75.1018 35.4322 75.2679 35.6372 75.2679H44.6646C44.8696 75.2679 45.0358 75.1018 45.0358 74.8971V65.8772C45.0358 65.6724 44.8696 65.5063 44.6646 65.5063Z" fill="#B7BFF6"/>
<path d="M60.1354 65.5063H51.1079C50.903 65.5063 50.7368 65.6724 50.7368 65.8772V74.8971C50.7368 75.1018 50.903 75.2679 51.1079 75.2679H60.1354C60.3404 75.2679 60.5065 75.1018 60.5065 74.8971V65.8772C60.5065 65.6724 60.3404 65.5063 60.1354 65.5063Z" fill="#B7BFF6"/>
<path d="M75.5971 65.5063H66.5696C66.3646 65.5063 66.1985 65.6724 66.1985 65.8772V74.8971C66.1985 75.1018 66.3646 75.2679 66.5696 75.2679H75.5971C75.802 75.2679 75.9682 75.1018 75.9682 74.8971V65.8772C75.9682 65.6724 75.802 65.5063 75.5971 65.5063Z" fill="#B7BFF6"/>
<path d="M91.0678 65.5063H82.0404C81.8354 65.5063 81.6692 65.6724 81.6692 65.8772V74.8971C81.6692 75.1018 81.8354 75.2679 82.0404 75.2679H91.0678C91.2728 75.2679 91.4389 75.1018 91.4389 74.8971V65.8772C91.4389 65.6724 91.2728 65.5063 91.0678 65.5063Z" fill="#B7BFF6"/>
<path d="M91.0678 79.365H82.0404C81.8354 79.365 81.6692 79.531 81.6692 79.7358V88.7557C81.6692 88.9605 81.8354 89.1265 82.0404 89.1265H91.0678C91.2728 89.1265 91.4389 88.9605 91.4389 88.7557V79.7358C91.4389 79.531 91.2728 79.365 91.0678 79.365Z" fill="#B7BFF6"/>
<path d="M106.539 79.365H97.5111C97.3061 79.365 97.14 79.531 97.14 79.7358V88.7557C97.14 88.9605 97.3061 89.1265 97.5111 89.1265H106.539C106.744 89.1265 106.91 88.9605 106.91 88.7557V79.7358C106.91 79.531 106.744 79.365 106.539 79.365Z" fill="#B7BFF6"/>
<path d="M60.1354 79.365H51.1079C50.903 79.365 50.7368 79.531 50.7368 79.7358V88.7557C50.7368 88.9605 50.903 89.1265 51.1079 89.1265H60.1354C60.3404 89.1265 60.5065 88.9605 60.5065 88.7557V79.7358C60.5065 79.531 60.3404 79.365 60.1354 79.365Z" fill="#B7BFF6"/>
<path d="M75.5971 79.365H66.5696C66.3646 79.365 66.1985 79.531 66.1985 79.7358V88.7557C66.1985 88.9605 66.3646 89.1265 66.5696 89.1265H75.5971C75.802 89.1265 75.9682 88.9605 75.9682 88.7557V79.7358C75.9682 79.531 75.802 79.365 75.5971 79.365Z" fill="#B7BFF6"/>
<path d="M35.4277 51.3884C35.2661 52.9103 35.3367 54.4731 35.3298 55.995C35.323 57.5169 35.3093 59.1503 35.2957 60.7222C35.2957 60.8405 35.3298 61.1567 35.5051 61.1636C37.0921 61.2045 38.6858 61.2546 40.2704 61.275C41.8551 61.2955 43.4511 61.2341 45.0358 61.3092C45.1837 61.3092 45.1906 60.993 45.1906 60.9156C45.1906 58.9592 45.2179 56.9459 44.9515 55.01C44.931 54.869 44.8468 54.869 44.8331 55.01C44.651 56.9596 44.7694 58.9729 44.8536 60.9224L45.0084 60.5289C43.4215 60.5289 41.8278 60.3947 40.2363 60.3605C38.6425 60.3264 37.0556 60.2968 35.471 60.2695L35.6804 60.7109C35.6804 59.1321 35.6668 57.5624 35.66 55.9837C35.6531 54.4049 35.7237 52.8989 35.5689 51.377C35.5484 51.195 35.4346 51.2087 35.4141 51.377L35.4277 51.3839V51.3884Z" fill="#101A5B"/>
<path d="M35.4277 65.7385C35.2661 67.2604 35.3367 68.8232 35.3298 70.3451C35.323 71.867 35.3093 73.5004 35.2957 75.0723C35.2957 75.1906 35.3298 75.5068 35.5051 75.5137C37.0921 75.5546 38.6858 75.6047 40.2704 75.6251C41.8551 75.6456 43.4511 75.5842 45.0358 75.6593C45.1837 75.6593 45.1906 75.3431 45.1906 75.2657C45.1906 73.3093 45.2179 71.296 44.9515 69.3601C44.931 69.2191 44.8468 69.2191 44.8331 69.3601C44.651 71.3097 44.7694 73.323 44.8536 75.2725L45.0084 74.879C43.4215 74.879 41.8278 74.7448 40.2363 74.7106C38.6425 74.6765 37.0556 74.6469 35.471 74.6196L35.6804 75.061C35.6804 73.4822 35.6668 71.9125 35.66 70.3338C35.6531 68.755 35.7237 67.249 35.5689 65.7271C35.5484 65.5451 35.4346 65.5588 35.4141 65.7271L35.4277 65.734V65.7385Z" fill="#101A5B"/>
<path d="M50.7938 65.5974C50.6321 67.1193 50.7027 68.6821 50.6958 70.204C50.689 71.7259 50.6754 73.3593 50.6617 74.9312C50.6617 75.0495 50.6958 75.3657 50.8712 75.3726C52.4581 75.4135 54.0518 75.4636 55.6365 75.484C57.2234 75.5045 58.8171 75.4431 60.4018 75.5181C60.5498 75.5181 60.5566 75.2019 60.5566 75.1246C60.5566 73.1682 60.5839 71.1549 60.3175 69.219C60.2971 69.078 60.2128 69.078 60.1992 69.219C60.017 71.1686 60.1354 73.1818 60.2196 75.1314L60.3745 74.7379C58.7875 74.7379 57.1938 74.6037 55.6023 74.5695C54.0108 74.5354 52.4217 74.5058 50.837 74.4785L51.0465 74.9199C51.0465 73.3411 51.0328 71.7714 51.026 70.1926C51.0192 68.6139 51.0897 67.1079 50.9349 65.586C50.9144 65.404 50.8006 65.4177 50.7801 65.586L50.7938 65.5928V65.5974Z" fill="#101A5B"/>
<path d="M66.2554 79.4492C66.0937 80.9711 66.1643 82.5339 66.1575 84.0558C66.1507 85.5777 66.137 87.2111 66.1233 88.783C66.1233 88.9013 66.1575 89.2175 66.3328 89.2244C67.9197 89.2653 69.5135 89.3154 71.0981 89.3358C72.6828 89.3563 74.2788 89.2949 75.8634 89.37C76.0114 89.37 76.0183 89.0537 76.0183 88.9764C76.0183 87.02 76.0456 85.0067 75.7792 83.0708C75.7587 82.9298 75.6745 82.9298 75.6608 83.0708C75.4787 85.0204 75.597 87.0336 75.6813 88.9832L75.8361 88.5897C74.2492 88.5897 72.6554 88.4554 71.064 88.4213C69.4702 88.3872 67.8833 88.3576 66.2987 88.3303L66.5081 88.7717C66.5081 87.1929 66.4945 85.6232 66.4876 84.0445C66.4808 82.4657 66.5514 80.9597 66.3966 79.4378C66.3761 79.2558 66.2622 79.2695 66.2417 79.4378L66.2554 79.4446V79.4492Z" fill="#101A5B"/>
<path d="M81.7262 79.4492C81.5645 80.9711 81.6351 82.5339 81.6283 84.0558C81.6214 85.5777 81.6078 87.2111 81.5941 88.783C81.5941 88.9013 81.6283 89.2175 81.8036 89.2244C83.3905 89.2653 84.9842 89.3154 86.5689 89.3358C88.1535 89.3563 89.7496 89.2949 91.3342 89.37C91.4822 89.37 91.489 89.0537 91.489 88.9764C91.489 87.02 91.5163 85.0067 91.25 83.0708C91.2295 82.9298 91.1452 82.9298 91.1316 83.0708C90.9494 85.0204 91.0678 87.0336 91.1521 88.9832L91.3069 88.5897C89.72 88.5897 88.1262 88.4554 86.5347 88.4213C84.941 88.3872 83.3541 88.3576 81.7694 88.3303L81.9789 88.7717C81.9789 87.1929 81.9652 85.6232 81.9584 84.0445C81.9516 82.4657 82.0221 80.9597 81.8673 79.4378C81.8468 79.2558 81.733 79.2695 81.7125 79.4378L81.7262 79.4446V79.4492Z" fill="#101A5B"/>
<path d="M97.0762 79.4492C96.9146 80.9711 96.9852 82.5339 96.9783 84.0558C96.9715 85.5777 96.9579 87.2111 96.9442 88.783C96.9442 88.9013 96.9784 89.2175 97.1537 89.2244C98.7406 89.2653 100.334 89.3154 101.919 89.3358C103.504 89.3563 105.1 89.2949 106.684 89.37C106.832 89.37 106.839 89.0537 106.839 88.9764C106.839 87.02 106.866 85.0067 106.6 83.0708C106.58 82.9298 106.495 82.9298 106.482 83.0708C106.3 85.0204 106.418 87.0336 106.502 88.9832L106.657 88.5897C105.07 88.5897 103.476 88.4554 101.885 88.4213C100.291 88.3872 98.7042 88.3576 97.1195 88.3303L97.329 88.7717C97.329 87.1929 97.3153 85.6232 97.3085 84.0445C97.3017 82.4657 97.3722 80.9597 97.2174 79.4378C97.1969 79.2558 97.0831 79.2695 97.0626 79.4378L97.0762 79.4446V79.4492Z" fill="#101A5B"/>
<path d="M81.7262 65.3584C81.5645 66.8803 81.6351 68.4431 81.6283 69.965C81.6214 71.4869 81.6078 73.1203 81.5941 74.6922C81.5941 74.8105 81.6283 75.1267 81.8036 75.1335C83.3905 75.1745 84.9842 75.2245 86.5689 75.245C88.1558 75.2655 89.7496 75.2041 91.3342 75.2791C91.4822 75.2791 91.489 74.9629 91.489 74.8856C91.489 72.9292 91.5163 70.9159 91.25 68.98C91.2295 68.8389 91.1452 68.8389 91.1316 68.98C90.9494 70.9296 91.0678 72.9428 91.1521 74.8924L91.3069 74.4988C89.72 74.4988 88.1262 74.3646 86.5347 74.3305C84.9433 74.2964 83.3541 74.2668 81.7694 74.2395L81.9789 74.6808C81.9789 73.1021 81.9652 71.5324 81.9584 69.9536C81.9516 68.3749 82.0221 66.8689 81.8673 65.347C81.8468 65.165 81.733 65.1787 81.7125 65.347L81.7262 65.3538V65.3584Z" fill="#101A5B"/>
<path d="M66.2554 65.3584C66.0937 66.8803 66.1643 68.4431 66.1575 69.965C66.1507 71.4869 66.137 73.1203 66.1233 74.6922C66.1233 74.8105 66.1575 75.1267 66.3328 75.1335C67.9197 75.1745 69.5135 75.2245 71.0981 75.245C72.685 75.2655 74.2788 75.2041 75.8634 75.2791C76.0114 75.2791 76.0183 74.9629 76.0183 74.8856C76.0183 72.9292 76.0456 70.9159 75.7792 68.98C75.7587 68.8389 75.6745 68.8389 75.6608 68.98C75.4787 70.9296 75.597 72.9428 75.6813 74.8924L75.8361 74.4988C74.2492 74.4988 72.6554 74.3646 71.064 74.3305C69.4725 74.2964 67.8833 74.2668 66.2987 74.2395L66.5081 74.6808C66.5081 73.1021 66.4945 71.5324 66.4876 69.9536C66.4808 68.3749 66.5514 66.8689 66.3966 65.347C66.3761 65.165 66.2622 65.1787 66.2417 65.347L66.2554 65.3538V65.3584Z" fill="#101A5B"/>
<path d="M75.5971 51.3337H66.5696C66.3646 51.3337 66.1985 51.4998 66.1985 51.7045V60.7245C66.1985 60.9292 66.3646 61.0953 66.5696 61.0953H75.5971C75.802 61.0953 75.9682 60.9292 75.9682 60.7245V51.7045C75.9682 51.4998 75.802 51.3337 75.5971 51.3337Z" fill="#B7BFF6"/>
<path d="M66.2554 51.5566C66.0937 53.0785 66.1643 54.6414 66.1575 56.1632C66.1507 57.6851 66.137 59.3185 66.1233 60.8905C66.1233 61.0087 66.1575 61.325 66.3328 61.3318C67.9197 61.3727 69.5135 61.4228 71.0981 61.4433C72.685 61.4637 74.2788 61.4023 75.8634 61.4774C76.0114 61.4774 76.0183 61.1612 76.0183 61.0838C76.0183 59.1274 76.0456 57.1141 75.7792 55.1782C75.7587 55.0372 75.6745 55.0372 75.6608 55.1782C75.4787 57.1278 75.597 59.1411 75.6813 61.0906L75.8361 60.6971C74.2492 60.6971 72.6554 60.5629 71.064 60.5287C69.4702 60.4946 67.8833 60.4651 66.2987 60.4378L66.5081 60.8791C66.5081 59.3003 66.4945 57.7306 66.4876 56.1519C66.4808 54.5731 66.5514 53.0671 66.3966 51.5452C66.3761 51.3633 66.2622 51.3769 66.2417 51.5452L66.2554 51.5521V51.5566Z" fill="#101A5B"/>
<path d="M50.7938 79.3149C50.6321 80.8368 50.7027 82.3997 50.6958 83.9216C50.689 85.4434 50.6754 87.0768 50.6617 88.6488C50.6617 88.767 50.6958 89.0833 50.8712 89.0901C52.4581 89.131 54.0518 89.1811 55.6365 89.2015C57.2234 89.222 58.8171 89.1606 60.4018 89.2357C60.5498 89.2357 60.5566 88.9195 60.5566 88.8421C60.5566 86.8857 60.5839 84.8725 60.3175 82.9365C60.2971 82.7955 60.2128 82.7955 60.1992 82.9365C60.017 84.8861 60.1354 86.8994 60.2196 88.8489L60.3745 88.4554C58.7875 88.4554 57.1938 88.3212 55.6023 88.287C54.0086 88.2529 52.4217 88.2234 50.837 88.1961L51.0465 88.6374C51.0465 87.0586 51.0328 85.4889 51.026 83.9102C51.0192 82.3314 51.0897 80.8254 50.9349 79.3035C50.9144 79.1216 50.8006 79.1352 50.7801 79.3035L50.7938 79.3104V79.3149Z" fill="#101A5B"/>
<path d="M50.7938 51.5569C50.6321 53.0788 50.7027 54.6416 50.6958 56.1635C50.689 57.6854 50.6754 59.3188 50.6617 60.8907C50.6617 61.009 50.6958 61.3252 50.8712 61.332C52.4581 61.373 54.0518 61.423 55.6365 61.4435C57.2234 61.464 58.8171 61.4025 60.4018 61.4776C60.5498 61.4776 60.5566 61.1614 60.5566 61.0841C60.5566 59.1277 60.5839 57.1144 60.3175 55.1785C60.2971 55.0374 60.2128 55.0374 60.1992 55.1785C60.017 57.128 60.1354 59.1413 60.2196 61.0909L60.3745 60.6973C58.7875 60.6973 57.1938 60.5631 55.6023 60.529C54.0086 60.4949 52.4217 60.4653 50.837 60.438L51.0465 60.8793C51.0465 59.3006 51.0328 57.7309 51.026 56.1521C51.0192 54.5734 51.0897 53.0674 50.9349 51.5455C50.9144 51.3635 50.8006 51.3771 50.7801 51.5455L50.7938 51.5523V51.5569Z" fill="#101A5B"/>
<path d="M91.0815 51.377H82.054C81.8491 51.377 81.6829 51.543 81.6829 51.7478V60.7677C81.6829 60.9725 81.8491 61.1385 82.054 61.1385H91.0815C91.2864 61.1385 91.4526 60.9725 91.4526 60.7677V51.7478C91.4526 51.543 91.2864 51.377 91.0815 51.377Z" fill="#B7BFF6"/>
<path d="M81.7398 51.5998C81.5782 53.1217 81.6488 54.6846 81.6419 56.2065C81.6351 57.7284 81.6214 59.3617 81.6078 60.9337C81.6078 61.052 81.6419 61.3682 81.8172 61.375C83.4042 61.4159 84.9979 61.466 86.5825 61.4865C88.1672 61.5069 89.7632 61.4455 91.3479 61.5206C91.4959 61.5206 91.5027 61.2044 91.5027 61.127C91.5027 59.1706 91.53 57.1574 91.2636 55.2214C91.2431 55.0804 91.1589 55.0804 91.1452 55.2214C90.9631 57.171 91.0815 59.1843 91.1657 61.1339L91.3205 60.7403C89.7336 60.7403 88.1399 60.6061 86.5484 60.572C84.9569 60.5378 83.3677 60.5083 81.7831 60.481L81.9925 60.9223C81.9925 59.3435 81.9789 57.7739 81.9721 56.1951C81.9652 54.6163 82.0358 53.1104 81.881 51.5885C81.8605 51.4065 81.7467 51.4201 81.7262 51.5885L81.7398 51.5953V51.5998Z" fill="#101A5B"/>
<path d="M106.552 51.2087H97.5248C97.3198 51.2087 97.1537 51.3748 97.1537 51.5795V60.5995C97.1537 60.8042 97.3198 60.9703 97.5248 60.9703H106.552C106.757 60.9703 106.923 60.8042 106.923 60.5995V51.5795C106.923 51.3748 106.757 51.2087 106.552 51.2087Z" fill="#B7BFF6"/>
<path d="M97.2083 51.4316C97.0467 52.9535 97.1172 54.5164 97.1104 56.0383C97.1036 57.5601 97.0899 59.1935 97.0762 60.7655C97.0762 60.8838 97.1104 61.2 97.2857 61.2068C98.8726 61.2477 100.466 61.2978 102.051 61.3183C103.638 61.3387 105.232 61.2773 106.816 61.3524C106.964 61.3524 106.971 61.0362 106.971 60.9588C106.971 59.0024 106.998 56.9892 106.732 55.0532C106.712 54.9122 106.627 54.9122 106.614 55.0532C106.432 57.0028 106.55 59.0161 106.634 60.9656L106.789 60.5721C105.202 60.5721 103.608 60.4379 102.017 60.4037C100.423 60.3696 98.8362 60.3401 97.2516 60.3128L97.461 60.7541C97.461 59.1753 97.4474 57.6056 97.4405 56.0269C97.4337 54.4481 97.5043 52.9421 97.3495 51.4202C97.329 51.2383 97.2151 51.2519 97.1946 51.4202L97.2083 51.4271V51.4316Z" fill="#101A5B"/>
<path d="M106.639 65.4109H97.5931C97.3931 65.4109 97.2311 65.5728 97.2311 65.7726V74.2784C97.2311 74.4781 97.3931 74.6401 97.5931 74.6401H106.639C106.839 74.6401 107.001 74.4781 107.001 74.2784V65.7726C107.001 65.5728 106.839 65.4109 106.639 65.4109Z" fill="#B7BFF6"/>
<path d="M97.2857 65.6225C97.1241 67.0602 97.1946 68.5389 97.1878 69.9789C97.181 71.4189 97.1673 72.9635 97.1537 74.4467C97.1537 74.5605 97.1878 74.8585 97.3631 74.8653C98.95 74.904 100.544 74.9518 102.128 74.9722C103.713 74.9927 105.309 74.9336 106.894 75.0064C107.042 75.0064 107.049 74.7084 107.049 74.6356C107.049 72.7861 107.076 70.882 106.81 69.053C106.789 68.9211 106.705 68.9211 106.691 69.053C106.509 70.8957 106.627 72.7997 106.712 74.6424L106.866 74.2716C105.28 74.2716 103.686 74.1465 102.094 74.1123C100.503 74.0782 98.9136 74.0532 97.329 74.0259L97.5384 74.4445C97.5384 72.9521 97.5248 71.4667 97.5179 69.9766C97.5111 68.4866 97.5817 67.0602 97.4269 65.6202C97.4064 65.4473 97.2925 65.461 97.2721 65.6202L97.2857 65.627V65.6225Z" fill="#101A5B"/>
<path d="M31.4365 113.902C41.2382 113.902 49.1841 105.872 49.1841 95.9669C49.1841 86.0616 41.2382 78.0317 31.4365 78.0317C21.6348 78.0317 13.689 86.0616 13.689 95.9669C13.689 105.872 21.6348 113.902 31.4365 113.902Z" fill="#101A5B"/>
<path d="M39.3984 89.5268C38.9294 89.0581 38.1644 89.0581 37.6908 89.5268L28.4107 98.7992L24.695 95.0866C24.2259 94.6179 23.4609 94.6179 22.9874 95.0866C22.5138 95.5552 22.5183 96.3196 22.9874 96.7927L27.5022 101.304C27.739 101.54 28.0532 101.656 28.3651 101.656C28.7044 101.684 29.0482 101.572 29.3077 101.313L39.3939 91.2352C39.8629 90.7666 39.8629 90.0022 39.3939 89.529L39.3984 89.5245V89.5268Z" fill="white"/>
<path d="M36.2155 108.618C38.1872 108.724 39.5601 108.201 40.3319 107.81C43.7334 106.081 45.6391 101.709 45.1997 96.7585C45.1906 97.7549 45.038 102.177 41.5568 105.594C39.5851 107.528 37.3994 108.301 36.2155 108.618Z" fill="white"/>
</g>
<defs>
<clipPath id="clip0_932_63674">
<rect width="102" height="96" fill="white" transform="translate(13.5 18)"/>
</clipPath>
</defs>
</svg>
