<svg width="74" height="74" viewBox="0 0 74 74" fill="none" xmlns="http://www.w3.org/2000/svg">
<circle cx="37" cy="37" r="37" fill="url(#paint0_linear_670_6411)"/>
<g clip-path="url(#clip0_670_6411)">
<path d="M20.6747 57.5699C20.6072 57.5698 20.5409 57.5514 20.483 57.5167C20.4251 57.4819 20.3777 57.4322 20.3458 57.3727C20.3139 57.3132 20.2987 57.2461 20.3018 57.1787C20.305 57.1112 20.3263 57.0459 20.3636 56.9896L20.8175 56.306L19.235 57.2192C19.1548 57.2656 19.0602 57.2806 18.9695 57.2612C18.8789 57.2418 18.7987 57.1894 18.7445 57.1142C18.6903 57.0391 18.6659 56.9464 18.6761 56.8543C18.6863 56.7622 18.7304 56.6771 18.7998 56.6156L19.1049 56.3449C19.025 56.357 18.9433 56.343 18.8721 56.3048C18.8008 56.2666 18.7439 56.2063 18.7098 56.133C18.6757 56.0597 18.6662 55.9774 18.6828 55.8983C18.6995 55.8192 18.7413 55.7476 18.802 55.6943L19.0615 55.4699C19.0035 55.4683 18.9465 55.4549 18.8939 55.4304C18.8413 55.406 18.7943 55.3711 18.7556 55.3278C18.7 55.2577 18.6713 55.1699 18.6749 55.0804C18.6784 54.9909 18.714 54.9057 18.7751 54.8402L20.0016 53.5314L19.235 53.9742C19.1577 54.0186 19.067 54.0339 18.9793 54.0173C18.8917 54.0007 18.8128 53.9534 18.757 53.8838C18.7012 53.8142 18.6721 53.7269 18.6751 53.6377C18.678 53.5486 18.7126 53.4634 18.7728 53.3975L20.0726 51.9826L19.238 52.4642C19.1617 52.5079 19.0724 52.5233 18.9859 52.5077C18.8994 52.4921 18.8211 52.4465 18.7648 52.3789C18.7086 52.3113 18.678 52.226 18.6783 52.1381C18.6787 52.0502 18.71 51.9652 18.7669 51.8981L19.4078 51.1502L19.238 51.2467C19.1726 51.2842 19.0974 51.301 19.0223 51.295C18.9471 51.2891 18.8756 51.2605 18.8169 51.2131C18.7583 51.1657 18.7154 51.1017 18.6937 51.0295C18.6721 50.9573 18.6729 50.8802 18.6958 50.8084L18.8618 50.2931C18.8062 50.2601 18.7601 50.2132 18.728 50.157C18.6786 50.0713 18.6651 49.9695 18.6907 49.8739C18.7162 49.7783 18.7785 49.6967 18.8641 49.647L19.2425 49.4286C19.3079 49.3908 19.3832 49.3738 19.4585 49.3796C19.5338 49.3855 19.6056 49.414 19.6643 49.4615C19.7231 49.5089 19.7661 49.573 19.7877 49.6454C19.8094 49.7177 19.8086 49.7949 19.7855 49.8668L19.7054 50.1136L20.9155 49.4151C20.9918 49.3714 21.0811 49.3561 21.1676 49.3717C21.2542 49.3873 21.3324 49.4329 21.3887 49.5005C21.4449 49.568 21.4756 49.6533 21.4752 49.7412C21.4748 49.8292 21.4435 49.9141 21.3867 49.9813L20.7457 50.7306L21.8122 50.1151C21.8895 50.0712 21.9799 50.0562 22.0672 50.0729C22.1545 50.0896 22.233 50.1368 22.2886 50.2061C22.3443 50.2755 22.3734 50.3623 22.3708 50.4512C22.3682 50.54 22.334 50.6251 22.2744 50.691L20.9753 52.103L21.8144 51.6184C21.8921 51.5734 21.9834 51.5578 22.0715 51.5746C22.1597 51.5913 22.2389 51.6392 22.2947 51.7095C22.3505 51.7798 22.3792 51.8678 22.3754 51.9575C22.3717 52.0472 22.3358 52.1325 22.2744 52.198L21.0449 53.5067L21.8159 53.0618C21.8963 53.0158 21.9909 53.0012 22.0814 53.021C22.1719 53.0408 22.2518 53.0934 22.3057 53.1687C22.3596 53.244 22.3836 53.3366 22.3731 53.4287C22.3627 53.5207 22.3184 53.6055 22.249 53.6668L21.9917 53.8911C22.0688 53.8881 22.1449 53.909 22.2096 53.951C22.2744 53.9929 22.3246 54.0538 22.3533 54.1254C22.3821 54.197 22.388 54.2757 22.3702 54.3508C22.3525 54.4259 22.312 54.4936 22.2542 54.5448L21.9506 54.8148C22.0107 54.8057 22.0722 54.8113 22.1298 54.8311C22.1873 54.8508 22.2392 54.8843 22.2811 54.9284C22.3387 54.9899 22.3738 55.0689 22.3809 55.1528C22.3879 55.2367 22.3665 55.3205 22.32 55.3906L21.863 56.0794C21.9505 56.0417 22.0491 56.0387 22.1387 56.0712C22.2283 56.1037 22.3021 56.1691 22.345 56.2542C22.388 56.3392 22.3968 56.4374 22.3698 56.5288C22.3428 56.6202 22.2819 56.6978 22.1996 56.7458L20.8616 57.5198C20.805 57.553 20.7404 57.5703 20.6747 57.5699Z" fill="white"/>
<path d="M26.6845 57.5771C26.6151 57.5771 26.547 57.5578 26.4879 57.5212C26.4288 57.4847 26.3811 57.4325 26.35 57.3704C26.319 57.3083 26.3058 57.2387 26.3121 57.1696C26.3183 57.1004 26.3437 57.0344 26.3854 56.9788L27.3681 55.6521L25.9651 56.462C25.8855 56.5058 25.7927 56.5191 25.704 56.4995C25.6153 56.4799 25.5368 56.4286 25.4831 56.3554C25.4295 56.2821 25.4043 56.1918 25.4123 56.1013C25.4204 56.0108 25.4611 55.9264 25.5268 55.8637L25.9112 55.5152C25.8298 55.5464 25.74 55.5481 25.6575 55.5201C25.5749 55.4921 25.5047 55.4362 25.4591 55.3619C25.4134 55.2877 25.3951 55.1998 25.4073 55.1135C25.4195 55.0272 25.4615 54.9479 25.5261 54.8892L25.9239 54.528C25.8486 54.5592 25.7653 54.5652 25.6863 54.5451C25.6073 54.5251 25.5369 54.48 25.4857 54.4166C25.4298 54.3464 25.401 54.2584 25.4046 54.1688C25.4081 54.0791 25.4438 53.9938 25.5051 53.9282L26.7428 52.6022L25.9651 53.051C25.886 53.0978 25.7925 53.114 25.7024 53.0963C25.6122 53.0786 25.5317 53.0284 25.4763 52.9551C25.4208 52.8819 25.3942 52.7908 25.4016 52.6993C25.409 52.6077 25.4498 52.522 25.5163 52.4587L26.3113 51.6846L25.9636 51.8858C25.9011 51.9218 25.8295 51.9389 25.7575 51.9351C25.6855 51.9314 25.6161 51.9069 25.5577 51.8646C25.4993 51.8223 25.4544 51.7641 25.4283 51.6968C25.4023 51.6296 25.3962 51.5563 25.4109 51.4857L25.6532 50.3227C25.5683 50.2941 25.4972 50.2349 25.4535 50.1567C25.4041 50.071 25.3907 49.9692 25.4162 49.8736C25.4417 49.778 25.5041 49.6964 25.5896 49.6467L25.968 49.4283C26.0305 49.3923 26.1021 49.3752 26.1741 49.3789C26.2461 49.3827 26.3155 49.4072 26.3739 49.4495C26.4323 49.4917 26.4772 49.55 26.5033 49.6172C26.5293 49.6845 26.5354 49.7578 26.5207 49.8284L26.3136 50.8201L28.537 49.5367C28.6159 49.4906 28.709 49.475 28.7987 49.4928C28.8883 49.5106 28.9684 49.5607 29.0236 49.6336C29.0789 49.7064 29.1055 49.797 29.0985 49.8881C29.0916 49.9793 29.0514 50.0647 28.9857 50.1283L28.1907 50.9016L28.5422 50.6997C28.6197 50.6557 28.7104 50.6409 28.7978 50.6579C28.8853 50.6748 28.9638 50.7224 29.0192 50.7922C29.0747 50.8619 29.1035 50.9491 29.1003 51.0381C29.0972 51.1271 29.0624 51.2121 29.0022 51.2778L27.7637 52.6045L28.546 52.1558C28.6256 52.1114 28.7186 52.0976 28.8077 52.117C28.8967 52.1365 28.9756 52.1877 29.0295 52.2612C29.0834 52.3347 29.1086 52.4253 29.1004 52.516C29.0922 52.6068 29.0512 52.6914 28.985 52.7541L28.5886 53.1145C28.6699 53.0796 28.761 53.0746 28.8457 53.1006C28.9303 53.1265 29.003 53.1816 29.0508 53.2561C29.0987 53.3305 29.1185 53.4196 29.1069 53.5073C29.0952 53.5951 29.0528 53.6759 28.9872 53.7353L28.6043 54.083C28.6799 54.0538 28.7629 54.05 28.8408 54.072C28.9188 54.094 28.9874 54.1408 29.0365 54.2052C29.0856 54.2697 29.1125 54.3483 29.113 54.4293C29.1135 54.5103 29.0878 54.5893 29.0396 54.6544L28.0569 55.9804L28.5564 55.6925C28.6218 55.6546 28.6971 55.6373 28.7724 55.6431C28.8477 55.6488 28.9196 55.6773 28.9784 55.7246C29.0373 55.772 29.0804 55.8361 29.1021 55.9084C29.1239 55.9808 29.1232 56.058 29.1001 56.13L28.9334 56.6535C28.9905 56.6859 29.0378 56.7332 29.0702 56.7903C29.1196 56.8761 29.1329 56.978 29.1072 57.0736C29.0816 57.1693 29.019 57.2508 28.9334 57.3004L28.5549 57.5188C28.4896 57.5564 28.4144 57.5734 28.3392 57.5675C28.264 57.5617 28.1924 57.5332 28.1337 57.4859C28.0749 57.4386 28.0319 57.3746 28.0102 57.3024C27.9885 57.2302 27.9891 57.1531 28.012 57.0813L28.0935 56.8262L26.8715 57.5322C26.8143 57.5636 26.7497 57.5791 26.6845 57.5771Z" fill="white"/>
<path d="M53.9715 57.5664C53.908 57.5664 53.8456 57.5503 53.7901 57.5196C53.7346 57.4889 53.6878 57.4446 53.6541 57.3908C53.6205 57.337 53.6011 57.2756 53.5977 57.2122C53.5943 57.1488 53.6072 57.0857 53.6349 57.0286L54.041 56.2L52.1407 57.2971C52.0642 57.3412 51.9745 57.3567 51.8876 57.341C51.8007 57.3253 51.7221 57.2793 51.6659 57.2113C51.6096 57.1432 51.5793 57.0574 51.5802 56.969C51.5811 56.8807 51.6133 56.7956 51.671 56.7287L53.1668 54.9997L52.137 55.598C52.0579 55.6424 51.9654 55.6567 51.8766 55.638C51.7879 55.6193 51.7089 55.569 51.6545 55.4965C51.6001 55.4239 51.5739 55.3341 51.5808 55.2436C51.5876 55.1532 51.6272 55.0684 51.692 55.0049L52.4152 54.3094L52.137 54.4702C52.0596 54.5151 51.9687 54.5308 51.8807 54.5144C51.7927 54.4981 51.7136 54.4507 51.6575 54.3809C51.6015 54.3112 51.5724 54.2236 51.5754 54.1342C51.5784 54.0448 51.6134 53.9594 51.674 53.8936L52.9843 52.4629L52.137 52.9527C52.0594 52.9977 51.9682 53.0133 51.8801 52.9966C51.792 52.98 51.7127 52.9322 51.6569 52.862C51.6011 52.7919 51.5723 52.704 51.5758 52.6144C51.5794 52.5247 51.615 52.4394 51.6763 52.3739L52.6792 51.2999L52.1437 51.6081C52.0802 51.6446 52.0073 51.6617 51.9342 51.6573C51.861 51.6528 51.7908 51.6269 51.7322 51.5828C51.6737 51.5388 51.6294 51.4785 51.6048 51.4094C51.5802 51.3404 51.5765 51.2656 51.594 51.1945L51.8116 50.312C51.7474 50.285 51.6921 50.2406 51.6518 50.1838C51.6114 50.1271 51.5878 50.0602 51.5834 49.9907C51.579 49.9212 51.5942 49.8518 51.6271 49.7905C51.66 49.7291 51.7094 49.6782 51.7698 49.6434L52.1489 49.425C52.2127 49.3889 52.2856 49.3721 52.3587 49.3766C52.4319 49.3811 52.5022 49.4068 52.561 49.4504C52.6194 49.4946 52.6636 49.5549 52.6881 49.6239C52.7125 49.6929 52.7162 49.7675 52.6986 49.8386L52.5303 50.5221L54.4599 49.4078C54.5374 49.3629 54.6286 49.3473 54.7167 49.3639C54.8049 49.3806 54.8841 49.4283 54.9399 49.4985C54.9958 49.5687 55.0245 49.6566 55.021 49.7462C55.0174 49.8358 54.9818 49.9211 54.9205 49.9867L53.9251 51.0569L54.7201 50.5984C54.7975 50.5535 54.8884 50.5378 54.9764 50.5541C55.0643 50.5705 55.1435 50.6179 55.1995 50.6877C55.2555 50.7574 55.2847 50.845 55.2817 50.9344C55.2786 51.0238 55.2436 51.1092 55.183 51.175L53.8728 52.605L54.7239 52.1136C54.8029 52.0668 54.8964 52.0506 54.9865 52.0683C55.0767 52.086 55.1572 52.1362 55.2126 52.2095C55.2681 52.2827 55.2947 52.3738 55.2873 52.4653C55.2799 52.5569 55.2391 52.6425 55.1726 52.7059L54.4471 53.4029L54.7306 53.2392C54.8071 53.1951 54.8968 53.1795 54.9837 53.1953C55.0706 53.211 55.1492 53.2569 55.2054 53.325C55.2617 53.3931 55.292 53.4789 55.2911 53.5672C55.2901 53.6556 55.258 53.7407 55.2002 53.8075L53.7045 55.5359L54.7388 54.9376C54.8082 54.8974 54.8886 54.8806 54.9682 54.8895C55.0479 54.8985 55.1225 54.9329 55.1812 54.9875C55.2398 55.0421 55.2794 55.1141 55.294 55.1929C55.3086 55.2718 55.2975 55.3532 55.2623 55.4252L54.8443 56.2793C54.9315 56.2587 55.0233 56.2701 55.1029 56.3115C55.1824 56.3529 55.2444 56.4215 55.2776 56.5048C55.3108 56.5881 55.3129 56.6806 55.2836 56.7654C55.2543 56.8501 55.1955 56.9215 55.118 56.9666L54.1682 57.5147C54.1086 57.5498 54.0406 57.5677 53.9715 57.5664Z" fill="white"/>
<path d="M46.5849 57.5711C46.5171 57.5712 46.4506 57.5528 46.3925 57.518C46.3343 57.4832 46.2868 57.4333 46.2548 57.3735C46.2229 57.3137 46.2077 57.2464 46.2111 57.1788C46.2144 57.1111 46.2361 57.0456 46.2738 56.9893L46.982 55.9295L45.4115 56.8375C45.3318 56.8867 45.2365 56.9043 45.1445 56.8867C45.0524 56.8691 44.9704 56.8176 44.9145 56.7424C44.8587 56.6671 44.8331 56.5737 44.8429 56.4805C44.8526 56.3873 44.897 56.3012 44.9672 56.2392L45.6441 55.596L45.4115 55.7291C45.3324 55.7767 45.2384 55.7934 45.1478 55.7759C45.0571 55.7584 44.9761 55.708 44.9204 55.6344C44.8647 55.5607 44.8382 55.4691 44.846 55.3771C44.8538 55.2851 44.8954 55.1992 44.9627 55.136L45.7144 54.4121L45.4085 54.5879C45.3301 54.6325 45.2383 54.6473 45.1499 54.6296C45.0615 54.6118 44.9824 54.5628 44.9273 54.4914C44.8723 54.42 44.8448 54.3311 44.8501 54.2411C44.8554 54.1511 44.893 54.066 44.956 54.0015L45.9626 52.9807L45.4085 53.3C45.3324 53.3443 45.2431 53.3602 45.1564 53.3451C45.0696 53.33 44.991 53.2847 44.9344 53.2174C44.8777 53.15 44.8467 53.0648 44.8466 52.9768C44.8466 52.8887 44.8777 52.8035 44.9343 52.7361L46.2999 51.1125L45.41 51.6255C45.3466 51.6619 45.2739 51.6789 45.201 51.6745C45.128 51.67 45.058 51.6443 44.9995 51.6004C44.941 51.5566 44.8966 51.4966 44.8719 51.4278C44.8472 51.359 44.8431 51.2845 44.8603 51.2135L45.0802 50.316C45.0147 50.2898 44.958 50.2456 44.9166 50.1885C44.8751 50.1314 44.8507 50.0637 44.8461 49.9934C44.8415 49.923 44.8569 49.8527 44.8905 49.7907C44.9241 49.7287 44.9745 49.6775 45.036 49.6429L45.4152 49.4245C45.4786 49.3881 45.5514 49.371 45.6245 49.3755C45.6975 49.3799 45.7677 49.4057 45.8262 49.4497C45.8847 49.4936 45.929 49.5538 45.9537 49.6227C45.9784 49.6916 45.9822 49.7663 45.9649 49.8374L45.7936 50.5404L47.7575 49.4066C47.8336 49.3624 47.9229 49.3464 48.0097 49.3615C48.0964 49.3766 48.175 49.4219 48.2316 49.4892C48.2883 49.5566 48.3194 49.6418 48.3194 49.7299C48.3194 49.8179 48.2883 49.9031 48.2317 49.9705L46.8676 51.5986L47.9894 50.9524C48.0677 50.9078 48.1596 50.893 48.248 50.9107C48.3364 50.9285 48.4154 50.9775 48.4705 51.0489C48.5256 51.1203 48.553 51.2092 48.5478 51.2992C48.5425 51.3892 48.5049 51.4743 48.4418 51.5388L47.4345 52.5596L47.9924 52.2373C48.0715 52.1897 48.1654 52.173 48.2561 52.1905C48.3467 52.208 48.4277 52.2584 48.4834 52.332C48.5392 52.4057 48.5657 52.4973 48.5578 52.5893C48.55 52.6813 48.5084 52.7672 48.4411 52.8304L47.6887 53.555L47.9984 53.377C48.0777 53.3175 48.1774 53.292 48.2756 53.306C48.3738 53.32 48.4624 53.3725 48.5219 53.4518C48.5814 53.5312 48.6069 53.6309 48.5929 53.7291C48.5789 53.8273 48.5264 53.9158 48.4471 53.9753L47.774 54.6178L48.0081 54.4831C48.0811 54.4408 48.1663 54.4244 48.2498 54.4367C48.3333 54.4489 48.4102 54.489 48.468 54.5505C48.5258 54.6121 48.5611 54.6914 48.568 54.7756C48.5749 54.8598 48.5531 54.9439 48.5062 55.0141L47.7972 56.0746L48.0126 55.9505C48.0984 55.9017 48.2001 55.8888 48.2954 55.9147C48.3907 55.9405 48.4718 56.0031 48.5212 56.0886C48.5706 56.1741 48.5841 56.2757 48.5589 56.3711C48.5337 56.4666 48.4717 56.5482 48.3865 56.5981L46.7711 57.521C46.7146 57.554 46.6503 57.5713 46.5849 57.5711Z" fill="white"/>
<path d="M35.5782 57.5777C35.5022 57.5777 35.428 57.5546 35.3655 57.5115C35.303 57.4683 35.2551 57.4071 35.2282 57.3361C35.2013 57.265 35.1967 57.1874 35.215 57.1137C35.2333 57.04 35.2736 56.9736 35.3306 56.9233L36.1585 56.1941L34.9432 56.8949C34.8635 56.9433 34.7686 56.9603 34.6771 56.9424C34.5856 56.9244 34.5041 56.873 34.4485 56.7981C34.393 56.7231 34.3675 56.6302 34.3769 56.5374C34.3864 56.4446 34.4302 56.3587 34.4997 56.2966L36.617 54.3043L34.9432 55.272C34.8626 55.3177 34.7679 55.3319 34.6774 55.3117C34.5869 55.2915 34.5072 55.2385 34.4536 55.1628C34.4 55.0872 34.3765 54.9943 34.3875 54.9023C34.3985 54.8103 34.4433 54.7256 34.5132 54.6647L35.8938 53.4831L34.9432 54.0313C34.8636 54.0763 34.7703 54.0905 34.6809 54.0713C34.5915 54.0521 34.5122 54.0008 34.458 53.9271C34.4039 53.8535 34.3786 53.7625 34.387 53.6714C34.3953 53.5804 34.4368 53.4955 34.5035 53.433L36.4592 51.6381L34.9432 52.5131C34.8636 52.5601 34.7693 52.5758 34.6787 52.5574C34.5881 52.5389 34.5076 52.4875 34.4526 52.4131C34.3977 52.3388 34.3722 52.2467 34.3812 52.1546C34.3902 52.0626 34.4329 51.9772 34.5012 51.9148L36.5444 50.0122L34.9432 50.9336C34.8617 50.9797 34.7659 50.9935 34.6747 50.9724C34.5835 50.9512 34.5035 50.8967 34.4506 50.8194C34.3977 50.7422 34.3757 50.6479 34.389 50.5552C34.4022 50.4625 34.4498 50.3782 34.5222 50.3188L35.2087 49.7662L34.9432 49.9157C34.8625 49.9624 34.7672 49.9772 34.6762 49.9572C34.5851 49.9372 34.5047 49.884 34.4509 49.8079C34.3971 49.7317 34.3736 49.6382 34.3851 49.5457C34.3967 49.4532 34.4423 49.3683 34.5132 49.3077L35.8893 48.1298L34.9432 48.6758C34.8642 48.7226 34.7707 48.7388 34.6806 48.7211C34.5904 48.7034 34.5099 48.6532 34.4544 48.5799C34.399 48.5067 34.3724 48.4156 34.3798 48.324C34.3872 48.2325 34.428 48.1468 34.4945 48.0835L36.7381 45.9146L34.938 46.9542C34.8617 46.9983 34.7723 47.0142 34.6856 46.9988C34.5988 46.9835 34.5202 46.938 34.4637 46.8704C34.4071 46.8028 34.3763 46.7174 34.3766 46.6293C34.3769 46.5412 34.4083 46.456 34.4653 46.3888L35.5124 45.151L34.9372 45.4824C34.8732 45.5192 34.7996 45.5362 34.7259 45.5312C34.6522 45.5262 34.5816 45.4996 34.523 45.4545C34.4644 45.4095 34.4205 45.3481 34.3968 45.2781C34.3731 45.2081 34.3707 45.1327 34.3898 45.0613L34.5895 44.3194C34.528 44.2901 34.4758 44.2445 34.4383 44.1877C34.4009 44.1308 34.3796 44.0648 34.3769 43.9967C34.3742 43.9287 34.3902 43.8612 34.423 43.8016C34.4559 43.7419 34.5044 43.6924 34.5633 43.6583L34.9372 43.4407C35.0013 43.4036 35.075 43.3864 35.1488 43.3913C35.2227 43.3961 35.2935 43.4228 35.3522 43.4678C35.4109 43.5129 35.4549 43.5744 35.4786 43.6445C35.5023 43.7147 35.5047 43.7902 35.4854 43.8617L35.3448 44.3852L36.9902 43.4332C37.0664 43.389 37.1558 43.3732 37.2426 43.3885C37.3294 43.4038 37.408 43.4493 37.4645 43.5169C37.521 43.5845 37.5518 43.6699 37.5515 43.758C37.5512 43.8462 37.5198 43.9314 37.4628 43.9986L36.4158 45.2371L39.0004 43.7413C39.0795 43.6944 39.173 43.6783 39.2631 43.696C39.3533 43.7137 39.4337 43.7639 39.4892 43.8371C39.5447 43.9104 39.5713 44.0015 39.5639 44.093C39.5565 44.1846 39.5157 44.2702 39.4492 44.3336L37.2011 46.5025L39.0154 45.4666C39.096 45.4209 39.1908 45.4068 39.2812 45.427C39.3717 45.4471 39.4514 45.5002 39.505 45.5758C39.5586 45.6515 39.5821 45.7443 39.5711 45.8363C39.5601 45.9284 39.5153 46.013 39.4454 46.0739L38.0693 47.2526L39.0176 46.7051C39.0991 46.659 39.195 46.6452 39.2862 46.6663C39.3774 46.6875 39.4573 46.7421 39.5102 46.8193C39.5631 46.8966 39.5851 46.9908 39.5719 47.0835C39.5586 47.1762 39.5111 47.2605 39.4387 47.3199L38.7514 47.874L39.0184 47.72C39.0981 47.673 39.1923 47.6573 39.2829 47.6757C39.3735 47.6942 39.4541 47.7456 39.509 47.8199C39.564 47.8943 39.5894 47.9864 39.5804 48.0785C39.5714 48.1705 39.5287 48.2559 39.4604 48.3183L37.4194 50.2201L39.0214 49.295C39.101 49.25 39.1943 49.2358 39.2837 49.255C39.3731 49.2742 39.4524 49.3255 39.5066 49.3991C39.5607 49.4728 39.586 49.5638 39.5776 49.6548C39.5693 49.7459 39.5278 49.8307 39.4611 49.8933L37.5069 51.6882L39.0236 50.8124C39.1044 50.765 39.2 50.7496 39.2916 50.7693C39.3831 50.7889 39.464 50.8423 39.5181 50.9187C39.5723 50.9951 39.5958 51.0891 39.584 51.182C39.5722 51.2749 39.5259 51.36 39.4544 51.4205L38.0723 52.6036L39.0259 52.0524C39.1055 52.004 39.2005 51.987 39.292 52.0049C39.3835 52.0228 39.465 52.0743 39.5206 52.1492C39.5761 52.2242 39.6016 52.3171 39.5922 52.4099C39.5827 52.5027 39.5389 52.5886 39.4694 52.6507L37.3514 54.6408L39.0281 53.673C39.1084 53.6265 39.2032 53.6115 39.294 53.6309C39.3848 53.6504 39.4651 53.7029 39.5193 53.7782C39.5735 53.8536 39.5977 53.9465 39.5872 54.0387C39.5767 54.131 39.5323 54.216 39.4626 54.2773L38.6355 55.0065L39.0296 54.7821C39.1004 54.7414 39.1826 54.725 39.2637 54.7354C39.3447 54.7458 39.4201 54.7824 39.4783 54.8397C39.5365 54.8973 39.5741 54.9724 39.5854 55.0535C39.5968 55.1346 39.5812 55.2171 39.5411 55.2885L39.0341 56.1859C39.1198 56.1414 39.2195 56.1318 39.3122 56.1591C39.4049 56.1864 39.4834 56.2486 39.5312 56.3325C39.5791 56.4165 39.5926 56.5157 39.5689 56.6094C39.5453 56.703 39.4863 56.7839 39.4043 56.8351L38.2219 57.5171C38.1509 57.5584 38.0682 57.5751 37.9867 57.5646C37.9053 57.5542 37.8295 57.5173 37.7711 57.4595C37.7127 57.4017 37.675 57.3263 37.6637 57.2449C37.6525 57.1636 37.6684 57.0808 37.7089 57.0093L38.2152 56.1119L35.7629 57.5283C35.7068 57.5609 35.643 57.5779 35.5782 57.5777Z" fill="#2381D9"/>
<path d="M23.0669 23.1798C22.9885 23.1798 22.912 23.1551 22.8483 23.1092C22.7846 23.0634 22.737 22.9986 22.7122 22.9241C22.6874 22.8497 22.6866 22.7693 22.71 22.6944C22.7334 22.6195 22.7798 22.5538 22.8426 22.5067L26.9723 19.3657L22.9735 21.6729C22.8912 21.7188 22.7946 21.7319 22.703 21.7097C22.6114 21.6875 22.5316 21.6315 22.4796 21.553C22.4275 21.4744 22.407 21.3791 22.4222 21.2861C22.4373 21.1931 22.4871 21.1093 22.5614 21.0514L24.6943 19.4405L22.9742 20.4336C22.8957 20.4767 22.8044 20.4903 22.7168 20.4718C22.6293 20.4533 22.5512 20.404 22.4969 20.3328C22.4426 20.2617 22.4156 20.1734 22.4208 20.084C22.4261 19.9946 22.4632 19.9101 22.5255 19.8458L24.5268 17.846L22.9764 18.7434C22.904 18.7857 22.8196 18.8024 22.7365 18.7908C22.6535 18.7793 22.5768 18.7402 22.5186 18.6798C22.4605 18.6194 22.4243 18.5413 22.4159 18.4579C22.4076 18.3745 22.4274 18.2907 22.4724 18.2199L23.1328 17.1729C23.0456 17.2027 22.9505 17.1992 22.8657 17.1632C22.7809 17.1272 22.7124 17.0612 22.6733 16.9778C22.6342 16.8944 22.6273 16.7995 22.6538 16.7113C22.6804 16.6231 22.7385 16.5478 22.8171 16.4998L24.0549 15.7759C24.127 15.7333 24.2114 15.7165 24.2942 15.7282C24.3771 15.7399 24.4536 15.7794 24.5111 15.8402C24.5693 15.9003 24.6057 15.9783 24.6143 16.0615C24.623 16.1448 24.6035 16.2285 24.5589 16.2994L23.9053 17.3389L26.6133 15.7759C26.6918 15.7328 26.7831 15.7192 26.8707 15.7378C26.9583 15.7563 27.0363 15.8056 27.0907 15.8767C27.145 15.9479 27.172 16.0362 27.1667 16.1255C27.1615 16.2149 27.1243 16.2994 27.0621 16.3637L25.0638 18.362L29.5458 15.7759C29.6281 15.729 29.7251 15.7152 29.8173 15.7371C29.9094 15.759 29.9898 15.8151 30.0422 15.894C30.0946 15.9729 30.1151 16.0687 30.0996 16.1622C30.0841 16.2556 30.0337 16.3397 29.9586 16.3974L27.8264 18.0083L31.6959 15.7759C31.7781 15.7294 31.8749 15.7157 31.9668 15.7376C32.0587 15.7595 32.1389 15.8154 32.1912 15.894C32.2436 15.9726 32.2643 16.0681 32.2491 16.1614C32.234 16.2546 32.1841 16.3387 32.1095 16.3966L27.979 19.5377L34.4989 15.7759C34.5827 15.7295 34.6811 15.717 34.7738 15.741C34.8665 15.765 34.9465 15.8237 34.9973 15.9049C35.048 15.9862 35.0656 16.0838 35.0465 16.1776C35.0274 16.2715 34.973 16.3544 34.8945 16.4093L34.217 16.8633L36.1016 15.7759C36.184 15.7287 36.2813 15.7146 36.3738 15.7365C36.4662 15.7584 36.5468 15.8147 36.5993 15.8939C36.6517 15.9731 36.6721 16.0693 36.6562 16.1629C36.6403 16.2566 36.5893 16.3407 36.5137 16.3981L32.4954 19.4248L38.8201 15.7759C38.9038 15.73 39.0018 15.7179 39.0941 15.7419C39.1865 15.766 39.2661 15.8244 39.3168 15.9053C39.3674 15.9861 39.3852 16.0833 39.3666 16.1768C39.348 16.2704 39.2943 16.3533 39.2165 16.4086L38.0139 17.2208L40.52 15.7759C40.6025 15.7287 40.6998 15.7146 40.7922 15.7365C40.8846 15.7584 40.9652 15.8147 41.0177 15.8939C41.0701 15.9731 41.0905 16.0693 41.0746 16.1629C41.0587 16.2566 41.0078 16.3407 40.9321 16.3981L36.9579 19.3821L43.2079 15.7759C43.2912 15.7304 43.3888 15.7183 43.4808 15.7421C43.5727 15.7658 43.6522 15.8237 43.703 15.904C43.7538 15.9842 43.7722 16.0808 43.7544 16.1741C43.7367 16.2674 43.684 16.3504 43.6073 16.4063L41.5656 17.8138L45.0985 15.7759C45.1816 15.729 45.2794 15.7155 45.372 15.7384C45.4647 15.7612 45.5451 15.8186 45.5968 15.8988C45.6485 15.979 45.6676 16.0759 45.6501 16.1697C45.6327 16.2635 45.5801 16.3471 45.5031 16.4034L42.3785 18.6395L47.3384 15.7759C47.422 15.7294 47.5202 15.7167 47.6129 15.7404C47.7056 15.7642 47.7856 15.8225 47.8366 15.9035C47.8875 15.9844 47.9055 16.0818 47.8869 16.1756C47.8682 16.2695 47.8143 16.3526 47.7363 16.4078L46.1605 17.481L49.1176 15.7759C49.2007 15.7277 49.2991 15.7134 49.3925 15.7358C49.4859 15.7583 49.5671 15.8158 49.6192 15.8965C49.6714 15.9772 49.6904 16.0748 49.6725 16.1692C49.6546 16.2636 49.601 16.3474 49.5229 16.4034L46.2652 18.7464L50.5849 16.2545C50.6675 16.2076 50.7649 16.1938 50.8572 16.2161C50.9496 16.2383 51.03 16.2949 51.0822 16.3743C51.1344 16.4537 51.1544 16.5499 51.1381 16.6436C51.1219 16.7372 51.0706 16.8211 50.9947 16.8783L47.8537 19.2071L50.9753 17.4048C51.0565 17.3579 51.1523 17.3433 51.2437 17.3637C51.3352 17.3842 51.4156 17.4382 51.4691 17.5151C51.5227 17.592 51.5453 17.6863 51.5327 17.7791C51.52 17.872 51.473 17.9567 51.4008 18.0165L48.6861 20.2743L50.9805 18.9499C51.0597 18.9014 51.1541 18.8841 51.2453 18.9014C51.3365 18.9187 51.4181 18.9693 51.474 19.0434C51.53 19.1174 51.5564 19.2097 51.5482 19.3022C51.5399 19.3946 51.4975 19.4807 51.4292 19.5437L50.0008 20.9063L50.9865 20.3379C51.0619 20.2942 51.1502 20.2782 51.2362 20.2926C51.3221 20.3071 51.4003 20.3511 51.4572 20.4171C51.5142 20.4831 51.5463 20.5669 51.548 20.654C51.5497 20.7411 51.5209 20.8262 51.4666 20.8943L51.003 21.4777C51.0894 21.4331 51.1897 21.4239 51.2828 21.452C51.3759 21.4802 51.4543 21.5435 51.5015 21.6285C51.5487 21.7135 51.5609 21.8136 51.5355 21.9074C51.5102 22.0013 51.4492 22.0816 51.3657 22.1313L49.6717 23.105C49.5964 23.1483 49.5082 23.164 49.4226 23.1494C49.3369 23.1348 49.2589 23.0907 49.2022 23.0249C49.1455 22.959 49.1134 22.8754 49.1116 22.7885C49.1098 22.7016 49.1384 22.6168 49.1924 22.5486L49.656 21.9668L47.6802 23.1065C47.601 23.155 47.5066 23.1723 47.4154 23.155C47.3241 23.1377 47.2426 23.0871 47.1866 23.013C47.1307 22.939 47.1042 22.8467 47.1125 22.7542C47.1208 22.6618 47.1632 22.5757 47.2314 22.5127L48.6576 21.1494L45.2638 23.1088C45.1827 23.1546 45.0875 23.1686 44.9967 23.1479C44.9059 23.1272 44.8261 23.0734 44.7729 22.997C44.7197 22.9206 44.6969 22.8271 44.709 22.7347C44.721 22.6424 44.7671 22.5579 44.8382 22.4978L47.556 20.2414L42.5827 23.114C42.5001 23.161 42.4027 23.1747 42.3103 23.1525C42.218 23.1302 42.1375 23.0737 42.0853 22.9943C42.0332 22.9149 42.0132 22.8186 42.0294 22.725C42.0457 22.6314 42.097 22.5475 42.1728 22.4903L45.3139 20.1592L40.1895 23.1155C40.1064 23.1637 40.0079 23.178 39.9145 23.1556C39.8211 23.1331 39.7399 23.0756 39.6878 22.9949C39.6357 22.9142 39.6166 22.8166 39.6346 22.7222C39.6525 22.6278 39.706 22.544 39.7841 22.488L43.0381 20.145L37.8898 23.1178C37.806 23.1648 37.7074 23.1779 37.6143 23.1542C37.5212 23.1306 37.4408 23.072 37.3898 22.9906C37.3387 22.9093 37.3209 22.8114 37.34 22.7172C37.3592 22.6231 37.4138 22.54 37.4926 22.4851L39.0699 21.4096L36.1083 23.1192C36.0253 23.1662 35.9274 23.1796 35.8348 23.1568C35.7422 23.1339 35.6618 23.0765 35.6101 22.9963C35.5584 22.9162 35.5393 22.8193 35.5567 22.7255C35.5741 22.6317 35.6267 22.5481 35.7037 22.4918L38.8291 20.2549L33.8655 23.1207C33.7819 23.1694 33.6827 23.1838 33.5887 23.1608C33.4948 23.1379 33.4133 23.0794 33.3616 22.9977C33.3098 22.9161 33.2917 22.8175 33.311 22.7227C33.3304 22.628 33.3857 22.5444 33.4654 22.4895L35.5093 21.0798L31.9711 23.1222C31.8887 23.1685 31.7919 23.1818 31.7001 23.1596C31.6083 23.1373 31.5283 23.0812 31.4762 23.0024C31.4241 22.9235 31.4037 22.8279 31.4192 22.7348C31.4347 22.6416 31.485 22.5577 31.5598 22.5L35.5362 19.5153L29.2833 23.1245C29.1994 23.1723 29.1003 23.1858 29.0067 23.1622C28.9131 23.1386 28.8323 23.0798 28.7811 22.998C28.7299 22.9161 28.7123 22.8177 28.732 22.7232C28.7518 22.6287 28.8072 22.5456 28.8869 22.491L30.088 21.6788L27.5803 23.126C27.498 23.1722 27.4011 23.1856 27.3093 23.1633C27.2175 23.1411 27.1375 23.0849 27.0854 23.0061C27.0333 22.9273 27.013 22.8317 27.0285 22.7385C27.044 22.6453 27.0942 22.5614 27.169 22.5038L31.1858 19.4756L24.8581 23.1282C24.7741 23.1769 24.6745 23.191 24.5803 23.1676C24.4861 23.1441 24.4047 23.085 24.3533 23.0026C24.3019 22.9203 24.2846 22.8211 24.305 22.7262C24.3253 22.6313 24.3818 22.5481 24.4625 22.494L25.1423 22.0393L23.2524 23.1297C23.1961 23.1626 23.1321 23.1799 23.0669 23.1798Z" fill="#2381D9"/>
<path d="M18.99 59.8026C18.9142 59.8026 18.8403 59.7796 18.7779 59.7366C18.7155 59.6936 18.6676 59.6327 18.6406 59.5619C18.6136 59.4911 18.6087 59.4138 18.6267 59.3402C18.6446 59.2666 18.6844 59.2002 18.741 59.1497L19.334 58.6202L17.3724 59.7502C17.297 59.7936 17.209 59.8094 17.1233 59.7948C17.0376 59.7803 16.9597 59.7364 16.9029 59.6706C16.8461 59.6049 16.8139 59.5214 16.812 59.4345C16.81 59.3476 16.8384 59.2628 16.8922 59.1946L18.014 57.7826L15.748 59.0899C15.6778 59.1303 15.5963 59.1468 15.5159 59.1369C15.4355 59.1271 15.3605 59.0914 15.3021 59.0352C15.2438 58.979 15.2052 58.9054 15.1923 58.8255C15.1794 58.7455 15.1928 58.6635 15.2304 58.5918L15.8287 57.4535L15.7113 57.5208C15.6259 57.5655 15.5264 57.5755 15.4338 57.5486C15.3412 57.5217 15.2625 57.4601 15.2143 57.3766C15.166 57.2931 15.1519 57.1942 15.1748 57.1005C15.1977 57.0069 15.256 56.9257 15.3374 56.8739L16.5751 56.1605C16.6453 56.12 16.7268 56.1035 16.8072 56.1134C16.8876 56.1232 16.9626 56.1589 17.021 56.2151C17.0793 56.2713 17.1179 56.3449 17.1308 56.4249C17.1437 56.5048 17.1303 56.5868 17.0926 56.6585L16.4944 57.796L19.3258 56.1605C19.401 56.1169 19.489 56.101 19.5747 56.1153C19.6605 56.1296 19.7385 56.1734 19.7955 56.239C19.8526 56.3047 19.885 56.3884 19.8871 56.4755C19.8891 56.5626 19.8607 56.6477 19.8067 56.7161L18.6916 58.1266L22.1019 56.159C22.1814 56.1168 22.2734 56.1047 22.3611 56.125C22.4488 56.1452 22.5263 56.1964 22.5792 56.2691C22.6322 56.3418 22.6572 56.4312 22.6496 56.5209C22.6421 56.6106 22.6024 56.6945 22.5379 56.7573L21.9448 57.2867L23.9065 56.1605C23.9837 56.116 24.0743 56.1006 24.1618 56.117C24.2494 56.1334 24.3282 56.1805 24.3841 56.2498C24.4401 56.3192 24.4694 56.4062 24.4668 56.4953C24.4643 56.5843 24.43 56.6695 24.3702 56.7356L23.306 57.9037L26.3274 56.1605C26.4023 56.1177 26.4898 56.1021 26.5749 56.1165C26.66 56.1308 26.7375 56.1742 26.7943 56.2391C26.8511 56.3041 26.8836 56.3867 26.8865 56.473C26.8893 56.5593 26.8622 56.6438 26.8098 56.7124L25.6924 58.1565L29.1513 56.1605C29.2284 56.1165 29.3186 56.1014 29.4057 56.1178C29.4929 56.1342 29.5714 56.181 29.6273 56.25C29.6831 56.3189 29.7126 56.4054 29.7105 56.4941C29.7084 56.5828 29.6748 56.6679 29.6158 56.7341L28.5448 57.9209L31.5961 56.1605C31.6753 56.112 31.7697 56.0947 31.8609 56.112C31.9522 56.1293 32.0337 56.1799 32.0897 56.254C32.1456 56.328 32.1721 56.4203 32.1638 56.5128C32.1555 56.6052 32.1131 56.6913 32.0449 56.7543L31.202 57.556L33.6236 56.1605C33.6982 56.1178 33.7853 56.1021 33.8701 56.1161C33.9549 56.1301 34.0323 56.1728 34.0892 56.2372C34.1462 56.3015 34.1793 56.3835 34.1829 56.4694C34.1865 56.5553 34.1604 56.6398 34.109 56.7086L32.9947 58.1887L36.5097 56.1605C36.5893 56.1142 36.6832 56.099 36.7734 56.1177C36.8636 56.1364 36.9437 56.1877 36.9984 56.2619C37.0531 56.336 37.0785 56.4277 37.0697 56.5194C37.0609 56.6111 37.0186 56.6963 36.9509 56.7588L36.2165 57.4386L38.4287 56.1605C38.5061 56.116 38.5969 56.1008 38.6846 56.1174C38.7723 56.1341 38.8512 56.1816 38.9069 56.2513C38.9626 56.3211 38.9916 56.4085 38.9885 56.4977C38.9854 56.5869 38.9505 56.6721 38.8901 56.7378L37.8431 57.8656L40.7987 56.1605C40.8776 56.1143 40.9707 56.0987 41.0604 56.1165C41.1501 56.1344 41.2301 56.1845 41.2853 56.2573C41.3406 56.3301 41.3672 56.4207 41.3603 56.5119C41.3533 56.603 41.3131 56.6884 41.2474 56.752L40.3657 57.6098L42.8785 56.1605C42.9558 56.1165 43.0462 56.1015 43.1335 56.1182C43.2208 56.1349 43.2993 56.1821 43.355 56.2515C43.4106 56.3208 43.4398 56.4077 43.4371 56.4965C43.4345 56.5854 43.4003 56.6704 43.3407 56.7363L42.2855 57.8895L45.277 56.1605C45.3554 56.1152 45.4476 56.1 45.5364 56.1176C45.6252 56.1352 45.7047 56.1844 45.7599 56.2561C45.8152 56.3279 45.8426 56.4172 45.837 56.5076C45.8314 56.5979 45.7931 56.6832 45.7294 56.7475L44.7834 57.6996L47.454 56.159C47.5298 56.1159 47.6181 56.1006 47.7039 56.1158C47.7897 56.1309 47.8675 56.1755 47.9239 56.242C47.9803 56.3084 48.0118 56.3924 48.0128 56.4795C48.0139 56.5666 47.9845 56.6514 47.9297 56.7191L46.8146 58.084L50.1509 56.1605C50.2269 56.1166 50.3159 56.101 50.4023 56.1162C50.4887 56.1314 50.5671 56.1765 50.6236 56.2436C50.6801 56.3107 50.7112 56.3956 50.7115 56.4833C50.7117 56.5711 50.6811 56.6561 50.625 56.7236L49.5144 58.0571L52.8006 56.1605C52.8782 56.116 52.9691 56.1008 53.0569 56.1177C53.1447 56.1345 53.2236 56.1823 53.2792 56.2523C53.3348 56.3223 53.3635 56.4099 53.3601 56.4993C53.3567 56.5886 53.3213 56.6738 53.2605 56.7393L52.2232 57.8477L55.1489 56.1605C55.2235 56.1178 55.3105 56.1021 55.3953 56.1161C55.4801 56.1301 55.5575 56.1728 55.6145 56.2372C55.6715 56.3015 55.7045 56.3835 55.7081 56.4694C55.7117 56.5553 55.6856 56.6398 55.6343 56.7086L54.5192 58.1872L57.7014 56.3504C57.781 56.3042 57.875 56.2889 57.9651 56.3076C58.0553 56.3264 58.1354 56.3777 58.1901 56.4518C58.2448 56.526 58.2702 56.6177 58.2614 56.7094C58.2526 56.801 58.2103 56.8863 58.1426 56.9487L57.6139 57.4386L58.3214 57.0302C58.3937 56.9887 58.4779 56.9726 58.5605 56.9844C58.6431 56.9963 58.7194 57.0354 58.7772 57.0956C58.835 57.1558 58.871 57.2336 58.8795 57.3166C58.8879 57.3996 58.8684 57.4831 58.8239 57.5537L58.3139 58.3555C58.4015 58.3286 58.4958 58.3349 58.5791 58.373C58.6624 58.4112 58.7287 58.4786 58.7656 58.5624C58.8025 58.6462 58.8074 58.7407 58.7792 58.8278C58.7511 58.915 58.692 58.9888 58.613 59.0353L57.3753 59.7502C57.3029 59.7918 57.2187 59.8079 57.1361 59.796C57.0535 59.7842 56.9773 59.7451 56.9195 59.6849C56.8617 59.6247 56.8257 59.5469 56.8172 59.4638C56.8087 59.3808 56.8283 59.2974 56.8727 59.2267L57.3731 58.4392L55.0988 59.7502C55.0191 59.7958 54.9255 59.8106 54.8357 59.7916C54.7459 59.7727 54.6663 59.7213 54.6118 59.6474C54.5574 59.5735 54.5321 59.4822 54.5407 59.3908C54.5492 59.2995 54.5911 59.2144 54.6583 59.1519L55.1863 58.6628L53.3031 59.7502C53.2285 59.7929 53.1415 59.8086 53.0567 59.7946C52.9719 59.7806 52.8945 59.7379 52.8375 59.6735C52.7806 59.6092 52.7475 59.5272 52.7439 59.4413C52.7403 59.3554 52.7664 59.2709 52.8178 59.202L53.9314 57.722L50.4163 59.7502C50.3388 59.7952 50.2476 59.8108 50.1595 59.7941C50.0713 59.7775 49.9921 59.7297 49.9363 59.6596C49.8804 59.5894 49.8517 59.5015 49.8552 59.4119C49.8588 59.3223 49.8944 59.2369 49.9557 59.1714L50.9937 58.063L48.0703 59.7502C47.9942 59.794 47.9052 59.8097 47.8188 59.7945C47.7324 59.7793 47.6541 59.7342 47.5975 59.6671C47.541 59.6 47.5099 59.5151 47.5097 59.4273C47.5094 59.3396 47.54 59.2545 47.5961 59.1871L48.7075 57.8536L45.4206 59.7502C45.3448 59.7938 45.2562 59.8094 45.1702 59.7944C45.0841 59.7794 45.006 59.7348 44.9494 59.6683C44.8928 59.6017 44.8613 59.5175 44.8604 59.4301C44.8594 59.3428 44.8891 59.2579 44.9442 59.1901L46.0592 57.8252L42.7245 59.7502C42.6461 59.7928 42.5551 59.806 42.4679 59.7874C42.3807 59.7688 42.303 59.7196 42.2488 59.6488C42.1947 59.5779 42.1676 59.49 42.1726 59.401C42.1775 59.3119 42.2141 59.2276 42.2758 59.1632L43.2248 58.2096L40.5504 59.7502C40.4731 59.7942 40.3827 59.8091 40.2954 59.7925C40.2081 59.7758 40.1296 59.7286 40.074 59.6592C40.0183 59.5899 39.9892 59.503 39.9918 59.4142C39.9944 59.3253 40.0286 59.2403 40.0882 59.1744L41.1465 58.0197L38.1475 59.7502C38.0686 59.7964 37.9755 59.812 37.8858 59.7942C37.7961 59.7763 37.7161 59.7262 37.6609 59.6534C37.6056 59.5806 37.579 59.49 37.5859 59.3988C37.5929 59.3077 37.6331 59.2222 37.6988 59.1587L38.5798 58.3001L36.0684 59.7502C35.991 59.7942 35.9004 59.809 35.813 59.7922C35.7256 59.7753 35.6471 59.7278 35.5916 59.6582C35.5361 59.5887 35.5072 59.5016 35.5101 59.4126C35.5131 59.3236 35.5477 59.2386 35.6077 59.1729L36.6547 58.0451L33.7007 59.7502C33.621 59.7965 33.5271 59.8117 33.4369 59.793C33.3467 59.7743 33.2666 59.723 33.2119 59.6488C33.1572 59.5747 33.1319 59.483 33.1406 59.3913C33.1494 59.2996 33.1917 59.2144 33.2594 59.1519L33.9946 58.4714L31.7786 59.7502C31.704 59.7933 31.6168 59.8093 31.5318 59.7955C31.4467 59.7817 31.369 59.739 31.3119 59.6745C31.2547 59.61 31.2216 59.5278 31.218 59.4417C31.2145 59.3556 31.2408 59.271 31.2925 59.202L32.4068 57.722L28.8918 59.7502C28.8126 59.7987 28.7183 59.816 28.627 59.7987C28.5358 59.7814 28.4543 59.7308 28.3983 59.6567C28.3423 59.5827 28.3159 59.4904 28.3242 59.3979C28.3325 59.3055 28.3749 59.2194 28.4431 59.1564L29.2822 58.3532L26.8658 59.7502C26.7888 59.7942 26.6986 59.8093 26.6114 59.7929C26.5243 59.7765 26.4458 59.7297 26.3899 59.6607C26.3341 59.5918 26.3046 59.5053 26.3067 59.4166C26.3088 59.3279 26.3424 59.2428 26.4014 59.1766L27.4731 57.9897L24.4218 59.7502C24.3468 59.7934 24.2592 59.8093 24.1739 59.7951C24.0885 59.781 24.0107 59.7376 23.9537 59.6725C23.8968 59.6074 23.8641 59.5246 23.8614 59.4381C23.8586 59.3516 23.8859 59.2669 23.9387 59.1983L25.056 57.7534L21.5971 59.7502C21.5199 59.7947 21.4293 59.8101 21.3418 59.7937C21.2542 59.7773 21.1754 59.7302 21.1195 59.6608C21.0635 59.5915 21.0342 59.5045 21.0368 59.4154C21.0393 59.3264 21.0736 59.2412 21.1334 59.1751L22.1969 58.007L19.1762 59.7502C19.12 59.7841 19.0556 59.8021 18.99 59.8026Z" fill="#2381D9"/>
<path d="M19.5299 50.8307C19.4535 50.8307 19.379 50.8073 19.3164 50.7637C19.2537 50.7201 19.2059 50.6584 19.1794 50.5868C19.1528 50.5152 19.1488 50.4373 19.1679 50.3633C19.187 50.2894 19.2282 50.2231 19.2861 50.1733L19.6914 49.8241L18.3168 50.6176C18.2421 50.6627 18.1539 50.6802 18.0675 50.667C17.9812 50.6539 17.9022 50.611 17.8442 50.5457C17.7862 50.4804 17.7528 50.3969 17.75 50.3096C17.7471 50.2224 17.7749 50.1368 17.8285 50.0679L18.8224 48.7531L17.2242 49.6782C17.145 49.7267 17.0506 49.744 16.9594 49.7267C16.8682 49.7094 16.7866 49.6588 16.7307 49.5847C16.6747 49.5107 16.6483 49.4184 16.6566 49.3259C16.6648 49.2335 16.7072 49.1474 16.7755 49.0844L17.041 48.8309L16.9422 48.887C16.8626 48.9314 16.7696 48.9451 16.6805 48.9257C16.5915 48.9063 16.5126 48.855 16.4587 48.7816C16.4048 48.7081 16.3796 48.6175 16.3878 48.5267C16.396 48.4359 16.437 48.3513 16.5032 48.2887L16.7014 48.107C16.6228 48.1186 16.5425 48.105 16.4722 48.068C16.4019 48.0309 16.3452 47.9725 16.3103 47.901C16.2755 47.8296 16.2643 47.7489 16.2784 47.6707C16.2925 47.5925 16.3312 47.5208 16.3888 47.466L16.7441 47.1302L16.7179 47.1444C16.6383 47.1882 16.5455 47.2015 16.4568 47.1819C16.3681 47.1623 16.2896 47.1111 16.236 47.0378C16.1823 46.9645 16.1571 46.8742 16.1652 46.7837C16.1732 46.6933 16.2139 46.6088 16.2796 46.5461L16.4733 46.3704C16.3954 46.3799 16.3165 46.3647 16.2477 46.3269C16.1789 46.2891 16.1238 46.2306 16.0901 46.1596C16.0564 46.0887 16.0459 46.009 16.0601 45.9318C16.0742 45.8546 16.1123 45.7838 16.1689 45.7295L16.5765 45.3383L16.4958 45.3854C16.4197 45.4293 16.3307 45.4449 16.2443 45.4297C16.1579 45.4145 16.0795 45.3694 16.023 45.3023C15.9665 45.2352 15.9354 45.1503 15.9351 45.0626C15.9349 44.9748 15.9655 44.8898 16.0216 44.8223L17.2601 43.3363L16.3095 43.8852C16.2306 43.9314 16.1375 43.947 16.0479 43.9291C15.9582 43.9113 15.8782 43.8612 15.8229 43.7884C15.7677 43.7155 15.741 43.625 15.748 43.5338C15.755 43.4427 15.7951 43.3572 15.8608 43.2936L16.3537 42.8135L16.1854 42.9107C16.1064 42.9576 16.0129 42.9737 15.9227 42.956C15.8326 42.9384 15.7521 42.8881 15.6966 42.8149C15.6411 42.7417 15.6146 42.6506 15.6219 42.559C15.6293 42.4675 15.6702 42.3818 15.7367 42.3184L16.2071 41.863L16.062 41.9467C15.9824 41.9905 15.8896 42.0038 15.8009 41.9842C15.7123 41.9646 15.6338 41.9134 15.5801 41.8401C15.5264 41.7668 15.5012 41.6765 15.5093 41.586C15.5173 41.4956 15.558 41.4111 15.6237 41.3484L15.8152 41.1749C15.7529 41.1814 15.6901 41.1725 15.632 41.149C15.574 41.1256 15.5226 41.0882 15.4824 41.0403C15.4261 40.9719 15.3959 40.8856 15.3973 40.797C15.3987 40.7084 15.4315 40.6231 15.4899 40.5564L16.6012 39.2851L15.7853 39.7562C15.707 39.8014 15.615 39.8166 15.5263 39.7992C15.4377 39.7818 15.3583 39.7328 15.3029 39.6614C15.2476 39.59 15.2199 39.5009 15.2251 39.4107C15.2304 39.3205 15.2681 39.2352 15.3313 39.1706L16.0381 38.4512L15.6484 38.6755C15.5702 38.7201 15.4786 38.735 15.3903 38.7174C15.302 38.6999 15.223 38.6511 15.1679 38.58C15.1127 38.5089 15.085 38.4202 15.0899 38.3304C15.0948 38.2405 15.1319 38.1554 15.1945 38.0907L15.6342 37.642L15.5258 37.7041C15.4508 37.7468 15.3633 37.7622 15.2781 37.7478C15.193 37.7333 15.1155 37.6899 15.0588 37.6248C15.0021 37.5597 14.9697 37.477 14.967 37.3907C14.9643 37.3044 14.9916 37.2198 15.0441 37.1514L15.442 36.6383C15.3671 36.624 15.2984 36.5871 15.2451 36.5326C15.1918 36.478 15.1564 36.4085 15.1437 36.3333C15.131 36.2581 15.1416 36.1809 15.1741 36.1119C15.2065 36.0429 15.2593 35.9854 15.3253 35.9473L16.5788 35.2226C16.6538 35.1795 16.7415 35.1637 16.8268 35.178C16.9122 35.1923 16.99 35.2357 17.0469 35.3009C17.1038 35.3661 17.1363 35.449 17.1389 35.5355C17.1415 35.622 17.114 35.7068 17.0612 35.7753L16.8106 36.0984L17.6116 35.6354C17.6899 35.5897 17.7821 35.574 17.8711 35.5912C17.9602 35.6084 18.0399 35.6574 18.0955 35.729C18.1511 35.8006 18.1788 35.89 18.1734 35.9805C18.1681 36.071 18.13 36.1565 18.0663 36.221L17.6265 36.6697L18.0409 36.4312C18.1192 36.386 18.2113 36.3707 18.3001 36.3883C18.3888 36.4058 18.4682 36.4549 18.5235 36.5264C18.5788 36.598 18.6063 36.6872 18.6009 36.7775C18.5955 36.8678 18.5576 36.9531 18.4941 37.0175L17.7896 37.7362L18.1837 37.5118C18.2604 37.4678 18.3502 37.4524 18.4372 37.4683C18.5242 37.4842 18.6027 37.5304 18.6588 37.5988C18.715 37.6671 18.7451 37.7531 18.7438 37.8415C18.7425 37.9299 18.71 38.015 18.6519 38.0817L17.5413 39.3531L18.3565 38.8819C18.436 38.8382 18.5288 38.8248 18.6175 38.8445C18.7062 38.8641 18.7847 38.9153 18.8384 38.9886C18.8921 39.0619 18.9172 39.1522 18.9092 39.2427C18.9012 39.3331 18.8605 39.4176 18.7947 39.4802L18.604 39.6538C18.6819 39.6444 18.7607 39.6598 18.8293 39.6977C18.898 39.7356 18.953 39.7941 18.9865 39.8649C19.0201 39.9358 19.0305 40.0154 19.0164 40.0925C19.0022 40.1696 18.9642 40.2404 18.9077 40.2947L18.4372 40.7501L18.5823 40.6664C18.6613 40.6202 18.7544 40.6046 18.844 40.6225C18.9337 40.6403 19.0137 40.6904 19.069 40.7632C19.1242 40.8361 19.1509 40.9266 19.1439 41.0178C19.1369 41.1089 19.0968 41.1944 19.0311 41.2579L18.5375 41.7388L18.7065 41.6409C18.7825 41.597 18.8715 41.5814 18.9579 41.5966C19.0444 41.6118 19.1227 41.6569 19.1792 41.724C19.2357 41.7911 19.2668 41.876 19.2671 41.9637C19.2674 42.0515 19.2367 42.1365 19.1806 42.204L17.9444 43.684L18.8949 43.1358C18.9741 43.0874 19.0685 43.0701 19.1597 43.0874C19.251 43.1047 19.3325 43.1553 19.3885 43.2294C19.4444 43.3034 19.4709 43.3957 19.4626 43.4882C19.4543 43.5806 19.4119 43.6667 19.3437 43.7297L18.9368 44.1178L19.0161 44.0729C19.0957 44.0291 19.1885 44.0158 19.2772 44.0355C19.3658 44.0551 19.4443 44.1063 19.498 44.1796C19.5517 44.2529 19.5769 44.3432 19.5688 44.4336C19.5608 44.5241 19.5201 44.6086 19.4543 44.6712L19.2614 44.8477C19.327 44.839 19.3938 44.8484 19.4545 44.8747C19.5152 44.9011 19.5677 44.9434 19.6062 44.9973C19.661 45.0706 19.6871 45.1616 19.6793 45.2528C19.6716 45.3441 19.6307 45.4293 19.5643 45.4924L19.2083 45.8297L19.236 45.814C19.3156 45.7696 19.4086 45.7558 19.4977 45.7753C19.5867 45.7947 19.6656 45.8459 19.7195 45.9194C19.7734 45.9929 19.7986 46.0835 19.7904 46.1743C19.7822 46.265 19.7412 46.3497 19.675 46.4123L19.4813 46.5888C19.56 46.5759 19.6407 46.5886 19.7118 46.6249C19.7828 46.6612 19.8403 46.7193 19.876 46.7906C19.9117 46.8619 19.9236 46.9428 19.91 47.0214C19.8965 47.1 19.8581 47.1722 19.8006 47.2275L19.5381 47.4795L20.0541 47.1803C20.1288 47.1373 20.2161 47.1214 20.3011 47.1353C20.3862 47.1493 20.4638 47.1921 20.5209 47.2567C20.578 47.3212 20.611 47.4035 20.6144 47.4897C20.6178 47.5758 20.5913 47.6604 20.5395 47.7293L19.5411 49.047L22.7644 47.1886C22.845 47.143 22.9395 47.1289 23.0299 47.149C23.1202 47.1691 23.1999 47.222 23.2534 47.2975C23.307 47.3729 23.3307 47.4656 23.32 47.5575C23.3092 47.6494 23.2648 47.7341 23.1952 47.7951L22.7891 48.1451L24.4471 47.1886C24.5268 47.1409 24.6214 47.1246 24.7124 47.1428C24.8035 47.1609 24.8845 47.2124 24.9397 47.287C24.995 47.3616 25.0205 47.4542 25.0113 47.5466C25.002 47.6389 24.9588 47.7246 24.8899 47.7869L24.1128 48.5145L26.4088 47.1901C26.484 47.1466 26.5719 47.1307 26.6576 47.145C26.7432 47.1593 26.8212 47.203 26.8782 47.2685C26.9351 47.3341 26.9675 47.4174 26.9698 47.5042C26.972 47.591 26.944 47.6759 26.8904 47.7442L25.7724 49.1704L29.0286 47.2903C29.1049 47.2461 29.1943 47.2303 29.2811 47.2456C29.3678 47.2609 29.4464 47.3064 29.5029 47.374C29.5595 47.4416 29.5903 47.527 29.59 47.6151C29.5897 47.7033 29.5583 47.7885 29.5013 47.8557L28.4797 49.0582L29.956 48.2064C30.0324 48.1623 30.1219 48.1466 30.2088 48.1621C30.2956 48.1777 30.3742 48.2234 30.4306 48.2912C30.4869 48.3591 30.5175 48.4447 30.5169 48.5329C30.5163 48.6211 30.4845 48.7063 30.4271 48.7733L30.1055 49.1472C30.1711 49.1522 30.2347 49.1716 30.292 49.2039C30.3492 49.2362 30.3987 49.2807 30.4369 49.3342C30.4862 49.42 30.4995 49.5219 30.4739 49.6175C30.4482 49.7131 30.3857 49.7947 30.3 49.8443L28.6831 50.7784C28.6068 50.822 28.5175 50.8374 28.431 50.8218C28.3444 50.8062 28.2662 50.7606 28.2099 50.693C28.1537 50.6254 28.123 50.5402 28.1234 50.4523C28.1238 50.3643 28.1551 50.2793 28.2119 50.2122L28.4438 49.9407L26.9914 50.7784C26.9152 50.8221 26.826 50.8375 26.7395 50.822C26.6529 50.8065 26.5747 50.761 26.5183 50.6936C26.462 50.6261 26.4313 50.5409 26.4315 50.4531C26.4317 50.3652 26.4629 50.2802 26.5195 50.213L27.5403 49.0089L24.4741 50.7784C24.3989 50.8214 24.3111 50.837 24.2257 50.8225C24.1403 50.808 24.0626 50.7643 24.0059 50.6989C23.9491 50.6335 23.9168 50.5504 23.9145 50.4638C23.9122 50.3772 23.94 50.2925 23.9932 50.2242L25.1113 48.798L21.6785 50.7784C21.5988 50.826 21.5043 50.8424 21.4132 50.8242C21.3222 50.806 21.2412 50.7546 21.1859 50.6799C21.1307 50.6053 21.1052 50.5128 21.1144 50.4204C21.1236 50.328 21.1669 50.2423 21.2358 50.1801L22.0128 49.4524L19.7169 50.7784C19.6603 50.8122 19.5958 50.8303 19.5299 50.8307Z" fill="white"/>
<path d="M51.5707 50.8301C51.4919 50.831 51.4147 50.807 51.3503 50.7615C51.2859 50.716 51.2376 50.6512 51.2122 50.5766C51.1868 50.5019 51.1857 50.4211 51.209 50.3457C51.2323 50.2704 51.2788 50.2043 51.3419 50.157L52.9289 48.9297L49.7295 50.7777C49.6489 50.8235 49.5541 50.8376 49.4636 50.8174C49.3732 50.7973 49.2934 50.7442 49.2399 50.6686C49.1863 50.5929 49.1627 50.5001 49.1737 50.408C49.1848 50.316 49.2296 50.2313 49.2995 50.1705L49.6682 49.8549L48.0685 50.7777C47.9912 50.8217 47.9008 50.8366 47.8135 50.82C47.7262 50.8033 47.6477 50.756 47.592 50.6867C47.5364 50.6174 47.5073 50.5305 47.5099 50.4417C47.5125 50.3528 47.5467 50.2678 47.6063 50.2019L48.663 49.0494L45.6715 50.7777C45.5944 50.8237 45.5034 50.8405 45.415 50.8249C45.3266 50.8093 45.2467 50.7624 45.19 50.6928C45.1333 50.6233 45.1035 50.5356 45.1061 50.4459C45.1087 50.3561 45.1435 50.2703 45.2041 50.2041L46.2653 49.0419L44.2364 50.2131C44.1668 50.2538 44.086 50.271 44.0059 50.2621C43.9258 50.2532 43.8507 50.2186 43.7918 50.1635C43.733 50.1084 43.6935 50.0358 43.6792 49.9565C43.665 49.8771 43.6768 49.7953 43.7129 49.7232L44.3388 48.4519L44.1204 48.5775C44.0779 48.6046 44.0303 48.6227 43.9805 48.6309C43.9308 48.6391 43.8799 48.6371 43.8309 48.6251C43.7819 48.6131 43.7358 48.5913 43.6955 48.5611C43.6551 48.5308 43.6213 48.4927 43.5961 48.4491C43.5709 48.4054 43.5547 48.3571 43.5486 48.307C43.5425 48.257 43.5467 48.2062 43.5607 48.1577C43.5748 48.1093 43.5985 48.0642 43.6304 48.0252C43.6623 47.9861 43.7018 47.954 43.7465 47.9306L45.0328 47.1872C45.1023 47.147 45.1829 47.1303 45.2626 47.1395C45.3423 47.1486 45.417 47.1832 45.4756 47.2381C45.5343 47.2929 45.5738 47.3652 45.5883 47.4443C45.6027 47.5234 45.5912 47.605 45.5556 47.6771L44.9296 48.9484L47.9862 47.1879C48.0634 47.144 48.1537 47.129 48.241 47.1456C48.3282 47.1622 48.4068 47.2093 48.4625 47.2785C48.5182 47.3477 48.5474 47.4344 48.545 47.5232C48.5425 47.612 48.5085 47.697 48.4491 47.7631L47.3879 48.9238L50.3981 47.1879C50.4754 47.144 50.5658 47.129 50.6531 47.1457C50.7404 47.1624 50.8189 47.2096 50.8745 47.279C50.9302 47.3483 50.9593 47.4352 50.9567 47.524C50.9541 47.6129 50.9199 47.6979 50.8603 47.7638L49.8035 48.9155L52.7988 47.1879C52.8794 47.1422 52.9741 47.1281 53.0646 47.1483C53.1551 47.1684 53.2348 47.2215 53.2884 47.2971C53.3419 47.3728 53.3655 47.4656 53.3545 47.5577C53.3435 47.6497 53.2987 47.7343 53.2288 47.7952L52.8601 48.1108L57.3548 45.5165C57.4368 45.4696 57.5336 45.4556 57.6255 45.4772C57.7175 45.4987 57.7979 45.5543 57.8506 45.6328C57.9032 45.7112 57.9243 45.8066 57.9094 45.8999C57.8946 45.9932 57.845 46.0775 57.7706 46.1357L56.1851 47.3622L57.1947 46.7796C57.2711 46.7355 57.3607 46.7198 57.4475 46.7353C57.5344 46.7508 57.6129 46.7966 57.6693 46.8644C57.7257 46.9323 57.7563 47.0179 57.7557 47.1061C57.755 47.1943 57.7232 47.2795 57.6659 47.3465L56.2143 49.0412L56.9053 48.6418C56.9479 48.6148 56.9955 48.5966 57.0452 48.5884C57.095 48.5802 57.1459 48.5822 57.1949 48.5942C57.2439 48.6062 57.2899 48.628 57.3303 48.6582C57.3706 48.6885 57.4044 48.7266 57.4297 48.7703C57.4549 48.8139 57.4711 48.8622 57.4771 48.9123C57.4832 48.9624 57.4791 49.0131 57.4651 49.0616C57.451 49.11 57.4273 49.1551 57.3954 49.1941C57.3634 49.2332 57.3239 49.2653 57.2793 49.2887L54.6939 50.7845C54.6176 50.8277 54.5285 50.8427 54.4422 50.8269C54.356 50.8111 54.278 50.7655 54.2219 50.6981C54.1659 50.6306 54.1353 50.5456 54.1356 50.4579C54.1359 50.3702 54.167 50.2854 54.2234 50.2183L55.6743 48.5177L51.7577 50.7777C51.7012 50.8116 51.6366 50.8297 51.5707 50.8301Z" fill="white"/>
<path d="M54.4088 47.3355C54.3346 47.3356 54.262 47.3137 54.2003 47.2724C54.1385 47.2311 54.0905 47.1724 54.0623 47.1038C54.034 47.0351 54.0269 46.9596 54.0417 46.8869C54.0565 46.8141 54.0927 46.7474 54.1455 46.6953L55.4917 45.3663L54.8044 45.7627C54.7264 45.8078 54.6347 45.8231 54.5462 45.806C54.4577 45.7888 54.3784 45.7402 54.3229 45.6692C54.2674 45.5982 54.2394 45.5096 54.244 45.4196C54.2487 45.3296 54.2857 45.2443 54.3482 45.1794L55.909 43.567L55.0168 44.0815C54.9389 44.1255 54.8479 44.1401 54.7602 44.1227C54.6725 44.1053 54.5939 44.057 54.5387 43.9866C54.4835 43.9162 54.4554 43.8284 54.4594 43.7391C54.4634 43.6497 54.4993 43.5648 54.5606 43.4997L56.1626 41.8282L55.2337 42.3644C55.154 42.4128 55.0591 42.4298 54.9676 42.4119C54.8761 42.3939 54.7945 42.3425 54.739 42.2676C54.6835 42.1926 54.6579 42.0997 54.6674 42.0069C54.6769 41.9141 54.7207 41.8282 54.7902 41.7661L55.814 40.8036L55.4005 41.0429C55.3208 41.0906 55.2262 41.1069 55.1352 41.0887C55.0441 41.0705 54.9631 41.0191 54.9079 40.9445C54.8526 40.8698 54.8272 40.7773 54.8364 40.6849C54.8456 40.5925 54.8888 40.5069 54.9577 40.4446L55.9644 39.5L55.5658 39.7296C55.4875 39.7717 55.3968 39.7845 55.3099 39.7658C55.2231 39.7471 55.1457 39.6981 55.0917 39.6275C55.0377 39.557 55.0106 39.4695 55.0152 39.3808C55.0199 39.292 55.056 39.2078 55.117 39.1433L56.2344 38.014L55.752 38.2922C55.6792 38.3343 55.5944 38.3506 55.5112 38.3385C55.428 38.3264 55.3513 38.2867 55.2935 38.2257C55.2356 38.1646 55.2001 38.0859 55.1925 38.0022C55.1849 37.9185 55.2057 37.8346 55.2517 37.7642L55.9995 36.6162C55.921 36.634 55.8389 36.6264 55.765 36.5945C55.6911 36.5627 55.6292 36.5082 55.5882 36.439C55.5388 36.3533 55.5254 36.2514 55.5509 36.1558C55.5764 36.0602 55.6388 35.9787 55.7243 35.9289L56.965 35.2132C57.0378 35.1712 57.1226 35.1549 57.2058 35.167C57.289 35.179 57.3657 35.2188 57.4235 35.2798C57.4813 35.3408 57.5169 35.4195 57.5245 35.5032C57.5321 35.587 57.5113 35.6708 57.4654 35.7412L56.7324 36.863L58.2686 35.9768C58.3469 35.9322 58.4388 35.9174 58.5272 35.9351C58.6156 35.9528 58.6946 36.0019 58.7497 36.0733C58.8048 36.1447 58.8322 36.2335 58.827 36.3236C58.8217 36.4136 58.7841 36.4987 58.721 36.5631L57.6052 37.6909L58.398 37.234C58.4776 37.187 58.5719 37.1713 58.6625 37.1897C58.7531 37.2082 58.8336 37.2596 58.8886 37.3339C58.9435 37.4083 58.969 37.5004 58.96 37.5925C58.951 37.6845 58.9082 37.7699 58.8399 37.8323L57.8333 38.7776L58.2327 38.5472C58.3124 38.4988 58.4073 38.4819 58.4988 38.4998C58.5903 38.5177 58.6718 38.5691 58.7274 38.6441C58.7829 38.719 58.8084 38.812 58.799 38.9047C58.7895 38.9975 58.7457 39.0834 58.6762 39.1455L57.6508 40.1095L58.0659 39.8695C58.1439 39.8244 58.2355 39.8091 58.3239 39.8261C58.4123 39.8432 58.4916 39.8917 58.5472 39.9625C58.6027 40.0334 58.6309 40.1219 58.6264 40.2118C58.6219 40.3018 58.5852 40.3871 58.5228 40.4521L56.9202 42.1228L57.849 41.5866C57.9272 41.5409 58.0192 41.5252 58.1081 41.5422C58.197 41.5593 58.2766 41.608 58.3323 41.6793C58.388 41.7506 58.416 41.8397 58.411 41.9301C58.406 42.0204 58.3684 42.1059 58.3052 42.1707L56.7444 43.7823L57.6374 43.2671C57.716 43.2228 57.808 43.2085 57.8964 43.2268C57.9847 43.2451 58.0635 43.2947 58.1182 43.3665C58.1728 43.4383 58.1997 43.5274 58.1938 43.6174C58.1879 43.7075 58.1496 43.7923 58.0861 43.8564L56.7399 45.1854L57.4429 44.7793C57.4855 44.7522 57.5331 44.734 57.5828 44.7259C57.6326 44.7177 57.6835 44.7196 57.7325 44.7316C57.7815 44.7436 57.8275 44.7654 57.8679 44.7957C57.9082 44.8259 57.942 44.864 57.9673 44.9077C57.9925 44.9514 58.0087 44.9997 58.0147 45.0497C58.0208 45.0998 58.0167 45.1506 58.0027 45.199C57.9886 45.2475 57.9649 45.2925 57.933 45.3316C57.901 45.3706 57.8615 45.4028 57.8169 45.4262L54.5943 47.2869C54.5377 47.3189 54.4738 47.3357 54.4088 47.3355Z" fill="white"/>
<path d="M38.2767 44.8468C38.2015 44.8469 38.128 44.8243 38.0659 44.7819C38.0037 44.7395 37.9558 44.6794 37.9283 44.6094C37.9008 44.5394 37.8951 44.4627 37.9119 44.3894C37.9287 44.316 37.9673 44.2495 38.0225 44.1984L39.5623 42.7774L36.0601 44.7967C35.9827 44.8406 35.8922 44.8556 35.8049 44.8388C35.7175 44.822 35.639 44.7746 35.5834 44.7052C35.5278 44.6357 35.4988 44.5488 35.5016 44.4598C35.5044 44.3709 35.5388 44.2859 35.5986 44.2201L37.3404 42.3265L33.0693 44.7945C32.9913 44.839 32.8998 44.8539 32.8117 44.8365C32.7235 44.8192 32.6446 44.7706 32.5893 44.6998C32.534 44.629 32.506 44.5406 32.5105 44.4509C32.5151 44.3611 32.5517 44.276 32.6139 44.2111L34.3302 42.4417L30.2543 44.7945C30.1759 44.8397 30.0837 44.8549 29.9949 44.8373C29.9061 44.8197 29.8266 44.7705 29.7714 44.6988C29.7161 44.6271 29.6887 44.5377 29.6943 44.4474C29.6999 44.357 29.7381 44.2717 29.8019 44.2074L31.4935 42.5075L28.6569 44.1446C28.5791 44.189 28.4879 44.2041 28.3999 44.187C28.3119 44.1698 28.233 44.1217 28.1776 44.0513C28.1221 43.9809 28.0938 43.8929 28.0977 43.8034C28.1017 43.7138 28.1377 43.6287 28.1992 43.5635L29.3075 42.4013L28.2164 43.031C28.1394 43.0754 28.0492 43.0911 27.9618 43.0751C27.8744 43.0591 27.7956 43.0124 27.7394 42.9436C27.6833 42.8748 27.6535 42.7882 27.6554 42.6993C27.6572 42.6105 27.6907 42.5253 27.7497 42.4589L28.2104 41.9406C28.1299 41.9098 28.0626 41.8522 28.0197 41.7775C27.9703 41.6917 27.957 41.5898 27.9827 41.4942C28.0083 41.3986 28.0709 41.3171 28.1565 41.2675L29.5461 40.465C29.623 40.4206 29.7132 40.4049 29.8006 40.4209C29.888 40.437 29.9668 40.4836 30.023 40.5524C30.0792 40.6212 30.109 40.7078 30.1071 40.7967C30.1052 40.8855 30.0718 40.9707 30.0128 41.0371L29.8422 41.2294L31.1884 40.4546C31.2662 40.4101 31.3574 40.395 31.4454 40.4122C31.5334 40.4293 31.6123 40.4774 31.6677 40.5478C31.7232 40.6182 31.7515 40.7062 31.7475 40.7958C31.7436 40.8853 31.7076 40.9704 31.6461 41.0357L30.5355 42.1986L33.5554 40.4568C33.6338 40.4142 33.7248 40.401 33.812 40.4196C33.8992 40.4383 33.9769 40.4874 34.0311 40.5583C34.0852 40.6291 34.1123 40.717 34.1073 40.8061C34.1024 40.8951 34.0658 40.9794 34.0041 41.0439L32.3132 42.7438L36.2769 40.4568C36.355 40.4117 36.4467 40.3964 36.5352 40.4136C36.6236 40.4307 36.7029 40.4793 36.7585 40.5503C36.814 40.6213 36.842 40.7099 36.8373 40.7999C36.8327 40.89 36.7957 40.9753 36.7331 41.0401L35.0168 42.8096L39.0949 40.4568C39.1723 40.4129 39.2627 40.398 39.3501 40.4147C39.4375 40.4315 39.516 40.4789 39.5716 40.5483C39.6271 40.6178 39.6561 40.7048 39.6533 40.7937C39.6506 40.8826 39.6162 40.9676 39.5564 41.0334L37.8146 42.9248L42.0857 40.4568C42.1653 40.4105 42.2592 40.3953 42.3494 40.414C42.4396 40.4327 42.5197 40.4841 42.5744 40.5582C42.6291 40.6323 42.6545 40.724 42.6457 40.8157C42.6369 40.9074 42.5946 40.9927 42.5269 41.0551L40.987 42.4761L44.3712 40.5226C44.4508 40.477 44.5444 40.4623 44.6342 40.4812C44.724 40.5002 44.8037 40.5515 44.8581 40.6254C44.9125 40.6993 44.9378 40.7906 44.9293 40.882C44.9207 40.9734 44.8788 41.0584 44.8117 41.1209L43.3466 42.4761L45.4257 41.2795C45.5032 41.235 45.594 41.2198 45.6818 41.2366C45.7695 41.2533 45.8484 41.301 45.9041 41.3708C45.9598 41.4407 45.9886 41.5282 45.9853 41.6175C45.9821 41.7068 45.947 41.7919 45.8863 41.8576L44.9021 42.9098L45.7248 42.4349C45.7674 42.4079 45.815 42.3897 45.8647 42.3815C45.9145 42.3733 45.9654 42.3753 46.0144 42.3873C46.0634 42.3993 46.1094 42.4211 46.1498 42.4513C46.1901 42.4816 46.2239 42.5197 46.2492 42.5634C46.2744 42.607 46.2905 42.6553 46.2966 42.7054C46.3027 42.7555 46.2986 42.8062 46.2845 42.8547C46.2705 42.9031 46.2468 42.9482 46.2149 42.9872C46.1829 43.0263 46.1434 43.0585 46.0987 43.0818L43.1334 44.7945C43.056 44.8384 42.9655 44.8533 42.878 44.8364C42.7906 44.8195 42.7121 44.772 42.6566 44.7025C42.6011 44.6329 42.5722 44.5458 42.5752 44.4568C42.5781 44.3678 42.6127 44.2828 42.6727 44.2171L43.651 43.1619L40.8225 44.7945C40.7428 44.8407 40.6489 44.856 40.5587 44.8372C40.4685 44.8185 40.3884 44.7672 40.3338 44.693C40.2791 44.6189 40.2537 44.5272 40.2625 44.4355C40.2712 44.3438 40.3135 44.2586 40.3813 44.1962L41.8471 42.841L38.4637 44.7945C38.4072 44.8284 38.3426 44.8465 38.2767 44.8468Z" fill="#2381D9"/>
<path d="M18.9747 32.1318C18.8937 32.132 18.8148 32.1058 18.75 32.0572C18.6851 32.0087 18.6378 31.9404 18.6151 31.8626C18.5924 31.7849 18.5956 31.7018 18.6242 31.626C18.6528 31.5502 18.7052 31.4857 18.7735 31.4423L19.5079 30.9749L17.5904 32.0795C17.5067 32.1253 17.4087 32.1375 17.3164 32.1134C17.2241 32.0894 17.1444 32.031 17.0938 31.9501C17.0431 31.8693 17.0253 31.7721 17.0439 31.6785C17.0626 31.585 17.1163 31.5021 17.194 31.4468L22.8913 27.5848L15.904 31.6195C15.8197 31.6653 15.7212 31.6769 15.6286 31.652C15.536 31.6272 15.4565 31.5677 15.4065 31.486C15.3566 31.4042 15.3399 31.3064 15.3599 31.2127C15.38 31.1189 15.4352 31.0365 15.5143 30.9824L17.3272 29.8089L15.5173 30.856C15.4339 30.9047 15.3349 30.9192 15.241 30.8966C15.1471 30.8739 15.0656 30.8158 15.0136 30.7344C14.9616 30.653 14.9431 30.5547 14.962 30.4599C14.9809 30.3652 15.0357 30.2815 15.1149 30.2263L20.3306 26.552L15.4956 29.3415C15.4127 29.3856 15.3162 29.3969 15.2254 29.3731C15.1346 29.3493 15.056 29.2922 15.0053 29.2132C14.9546 29.1341 14.9355 29.0389 14.9518 28.9464C14.9681 28.854 15.0186 28.771 15.0933 28.7141L18.2381 26.4921L15.4956 28.0739C15.4126 28.1215 15.3145 28.1355 15.2215 28.113C15.1285 28.0905 15.0477 28.0332 14.9957 27.9529C14.9436 27.8726 14.9244 27.7754 14.9418 27.6813C14.9593 27.5873 15.0121 27.5034 15.0895 27.4472L17.034 26.0404L15.9294 26.6776C15.8439 26.7223 15.7445 26.7323 15.6519 26.7054C15.5592 26.6785 15.4806 26.6169 15.4323 26.5334C15.384 26.4499 15.3699 26.351 15.3928 26.2573C15.4158 26.1636 15.474 26.0824 15.5554 26.0307L22.9594 21.7573C23.0424 21.7097 23.1405 21.6957 23.2335 21.7182C23.3265 21.7407 23.4073 21.798 23.4593 21.8783C23.5114 21.9586 23.5306 22.0558 23.5132 22.1499C23.4957 22.244 23.4429 22.3278 23.3655 22.3841L21.4247 23.7871L24.9397 21.7566C25.023 21.7098 25.1209 21.6967 25.2136 21.7198C25.3062 21.743 25.3864 21.8007 25.4379 21.8811C25.4893 21.9615 25.5081 22.0586 25.4903 22.1524C25.4725 22.2462 25.4194 22.3296 25.3421 22.3856L22.1921 24.6112L27.14 21.7588C27.2232 21.7121 27.3212 21.6989 27.4138 21.7221C27.5064 21.7452 27.5867 21.8029 27.6381 21.8833C27.6896 21.9638 27.7083 22.0608 27.6905 22.1546C27.6727 22.2484 27.6197 22.3318 27.5423 22.3878L22.3282 26.0591L29.78 21.7588C29.8642 21.7131 29.9628 21.7015 30.0553 21.7263C30.1479 21.7512 30.2274 21.8106 30.2774 21.8924C30.3274 21.9742 30.3441 22.072 30.324 22.1657C30.304 22.2594 30.2487 22.3419 30.1696 22.396L28.356 23.5702L31.4971 21.7581C31.5808 21.7122 31.6788 21.7001 31.7711 21.7241C31.8634 21.7482 31.9431 21.8066 31.9937 21.8875C32.0444 21.9683 32.0622 22.0655 32.0436 22.159C32.0249 22.2526 31.9712 22.3355 31.8935 22.3908L26.1924 26.2551L33.983 21.7588C34.0675 21.7116 34.1671 21.699 34.2607 21.7236C34.3543 21.7483 34.4347 21.8083 34.485 21.891C34.5353 21.9738 34.5515 22.0728 34.5303 22.1673C34.5091 22.2617 34.452 22.3443 34.3712 22.3975L33.6308 22.8687L35.5536 21.7588C35.6377 21.7118 35.7367 21.699 35.83 21.7232C35.9233 21.7474 36.0036 21.8067 36.0542 21.8887C36.1049 21.9707 36.1219 22.0691 36.1018 22.1633C36.0816 22.2576 36.0259 22.3404 35.9462 22.3945L31.8426 25.0981L37.6274 21.7588C37.7117 21.7117 37.811 21.6991 37.9044 21.7235C37.9978 21.7479 38.0782 21.8076 38.1286 21.8899C38.1791 21.9723 38.1957 22.0709 38.1751 22.1653C38.1544 22.2596 38.098 22.3423 38.0178 22.396L35.5827 23.9666L39.4126 21.7588C39.4969 21.7137 39.5952 21.7026 39.6875 21.7278C39.7797 21.7529 39.8588 21.8125 39.9085 21.8941C39.9582 21.9758 39.9747 22.0734 39.9547 22.1669C39.9346 22.2604 39.8795 22.3427 39.8007 22.3968L38.1472 23.458L41.0915 21.7588C41.175 21.7129 41.2729 21.7005 41.3652 21.7243C41.4575 21.748 41.5372 21.8061 41.5881 21.8867C41.639 21.9673 41.6572 22.0643 41.639 22.1578C41.6208 22.2514 41.5676 22.3344 41.4902 22.39L35.3187 26.62L43.7472 21.7544C43.8309 21.7085 43.9289 21.6963 44.0213 21.7204C44.1136 21.7444 44.1932 21.8029 44.2439 21.8837C44.2945 21.9646 44.3124 22.0617 44.2937 22.1553C44.2751 22.2489 44.2214 22.3318 44.1436 22.3871L38.4822 26.2214L46.2205 21.7544C46.3049 21.7063 46.4048 21.693 46.4989 21.7173C46.593 21.7415 46.6739 21.8015 46.7246 21.8844C46.7752 21.9673 46.7916 22.0667 46.7702 22.1615C46.7489 22.2563 46.6914 22.3391 46.6101 22.3923L44.6028 23.6839L47.9458 21.7544C48.0298 21.7086 48.1282 21.6968 48.2207 21.7214C48.3131 21.746 48.3926 21.8051 48.4428 21.8866C48.493 21.968 48.5101 22.0656 48.4906 22.1593C48.471 22.2529 48.4163 22.3355 48.3377 22.39L44.3538 25.0076L49.995 21.7544C50.0786 21.7057 50.1777 21.6913 50.2717 21.7143C50.3657 21.7372 50.4471 21.7957 50.4989 21.8774C50.5507 21.959 50.5688 22.0576 50.5494 22.1524C50.5301 22.2471 50.4747 22.3307 50.3951 22.3856L43.8317 26.9408L51.8841 22.2921C51.9684 22.245 52.0677 22.2323 52.1611 22.2567C52.2545 22.2812 52.3349 22.3408 52.3853 22.4232C52.4358 22.5055 52.4524 22.6042 52.4318 22.6985C52.4111 22.7929 52.3547 22.8755 52.2745 22.9293L50.1931 24.2807L52.7434 22.8059C52.8265 22.7589 52.9243 22.7455 53.0169 22.7684C53.1096 22.7912 53.1899 22.8486 53.2416 22.9288C53.2933 23.0089 53.3124 23.1058 53.295 23.1996C53.2776 23.2934 53.225 23.377 53.148 23.4333L47.3094 27.6147L54.1629 23.6584C54.2456 23.6127 54.3426 23.6 54.4343 23.6229C54.526 23.6458 54.6056 23.7025 54.6572 23.7818C54.7087 23.861 54.7284 23.9568 54.7121 24.0499C54.6959 24.143 54.645 24.2265 54.5697 24.2837L49.6749 27.8338L55.5083 24.4684C55.5913 24.4214 55.6892 24.408 55.7818 24.4309C55.8744 24.4537 55.9548 24.5111 56.0065 24.5913C56.0582 24.6715 56.0773 24.7684 56.0599 24.8622C56.0425 24.956 55.9899 25.0396 55.9129 25.0958L52.4345 27.5825L56.6465 25.1512C56.7299 25.1057 56.8275 25.0936 56.9194 25.1174C57.0114 25.1411 57.0908 25.199 57.1417 25.2793C57.1925 25.3595 57.2109 25.4561 57.1931 25.5494C57.1753 25.6427 57.1227 25.7257 57.0459 25.7816L55.5419 26.8212L57.5238 25.6777C57.6069 25.6297 57.7053 25.6156 57.7985 25.6381C57.8918 25.6607 57.9728 25.7182 58.0249 25.7988C58.077 25.8797 58.0959 25.9774 58.0778 26.0718C58.0597 26.1663 58.0059 26.2501 57.9276 26.3059L56.2449 27.5025L58.253 26.3433C58.3353 26.2954 58.4329 26.2807 58.5257 26.3023C58.6185 26.3239 58.6995 26.38 58.7523 26.4594C58.8051 26.5387 58.8256 26.6351 58.8097 26.7291C58.7937 26.823 58.7425 26.9073 58.6665 26.9648L56.6914 28.4643L58.4527 27.4479C58.531 27.4033 58.6228 27.3885 58.7113 27.4062C58.7997 27.4239 58.8787 27.473 58.9338 27.5444C58.9889 27.6158 59.0163 27.7047 59.011 27.7947C59.0058 27.8847 58.9682 27.9698 58.9051 28.0342L56.921 30.0393L58.4527 29.1546C58.5309 29.11 58.6227 29.0951 58.711 29.1128C58.7994 29.1304 58.8784 29.1793 58.9335 29.2506C58.9886 29.3218 59.0162 29.4106 59.0111 29.5005C59.006 29.5905 58.9687 29.6755 58.9059 29.7401L58.5484 30.1044C58.6254 30.0873 58.7059 30.0955 58.778 30.1277C58.85 30.1598 58.9098 30.2143 58.9485 30.2831C58.9981 30.369 59.0115 30.471 58.9858 30.5668C58.9602 30.6626 58.8975 30.7443 58.8116 30.7939L56.5845 32.0795C56.5062 32.1246 56.4142 32.1399 56.3255 32.1225C56.2368 32.105 56.1575 32.0561 56.1021 31.9847C56.0467 31.9132 56.0191 31.8242 56.0243 31.734C56.0296 31.6437 56.0673 31.5585 56.1305 31.4939L56.4386 31.1813L54.8816 32.0787C54.8032 32.1234 54.7114 32.1382 54.623 32.1205C54.5346 32.1027 54.4555 32.0536 54.4004 31.9823C54.3454 31.9109 54.3179 31.822 54.3232 31.732C54.3284 31.642 54.3661 31.5569 54.4291 31.4924L56.414 29.4881L51.9267 32.0787C51.8444 32.1266 51.7468 32.1413 51.654 32.1197C51.5612 32.0982 51.4802 32.042 51.4274 31.9627C51.3746 31.8834 51.3541 31.7869 51.37 31.693C51.386 31.599 51.4372 31.5147 51.5131 31.4573L53.4883 29.9578L49.8125 32.0795C49.7295 32.1254 49.6321 32.138 49.5402 32.1148C49.4482 32.0916 49.3685 32.0343 49.3172 31.9546C49.2658 31.8748 49.2467 31.7786 49.2637 31.6852C49.2807 31.5919 49.3325 31.5086 49.4086 31.452L51.0899 30.2554L47.9278 32.0795C47.8445 32.125 47.7469 32.1371 47.655 32.1133C47.563 32.0895 47.4836 32.0316 47.4327 31.9514C47.3819 31.8712 47.3635 31.7746 47.3813 31.6813C47.3991 31.588 47.4517 31.5049 47.5285 31.449L49.0302 30.411L46.1397 32.0795C46.0566 32.1264 45.9588 32.1398 45.8661 32.117C45.7735 32.0941 45.6931 32.0368 45.6414 31.9566C45.5897 31.8764 45.5706 31.7795 45.588 31.6857C45.6055 31.5919 45.6581 31.5083 45.7351 31.452L49.2157 28.9631L43.8175 32.0795C43.7347 32.1266 43.6369 32.1403 43.5443 32.1178C43.4516 32.0953 43.3711 32.0382 43.3191 31.9582C43.2672 31.8783 43.2477 31.7815 43.2647 31.6877C43.2817 31.5939 43.334 31.5101 43.4107 31.4535L48.304 27.9049L41.0728 32.0795C40.9898 32.1264 40.8919 32.1398 40.7993 32.117C40.7067 32.0941 40.6263 32.0368 40.5746 31.9566C40.5229 31.8764 40.5038 31.7795 40.5212 31.6857C40.5386 31.5919 40.5912 31.5083 40.6682 31.452L46.5061 27.2714L38.1771 32.0795C38.093 32.1246 37.9948 32.1359 37.9027 32.111C37.8105 32.0861 37.7314 32.0269 37.6815 31.9455C37.6316 31.8642 37.6147 31.7668 37.6342 31.6734C37.6538 31.58 37.7083 31.4975 37.7867 31.443L39.865 30.0969L36.4248 32.0832C36.3414 32.1298 36.2433 32.1427 36.1507 32.1193C36.058 32.0959 35.9779 32.0378 35.9267 31.9572C35.8755 31.8765 35.8571 31.7793 35.8753 31.6855C35.8936 31.5917 35.947 31.5084 36.0247 31.4528L42.591 26.8907L33.6016 32.0795C33.5176 32.1252 33.4192 32.137 33.3267 32.1124C33.2343 32.0878 33.1548 32.0287 33.1046 31.9473C33.0544 31.8658 33.0373 31.7682 33.0568 31.6746C33.0764 31.5809 33.1311 31.4983 33.2097 31.4438L37.1899 28.8262L31.5532 32.0795C31.4687 32.1276 31.3689 32.1409 31.2748 32.1166C31.1807 32.0923 31.0997 32.0324 31.0491 31.9494C30.9984 31.8665 30.982 31.7671 31.0034 31.6723C31.0248 31.5775 31.0822 31.4947 31.1635 31.4415L33.1708 30.15L29.8278 32.0795C29.7442 32.1253 29.6461 32.1375 29.5538 32.1134C29.4615 32.0894 29.3819 32.031 29.3312 31.9501C29.2805 31.8693 29.2627 31.7721 29.2814 31.6785C29.3 31.585 29.3537 31.5021 29.4315 31.4468L35.0906 27.6139L27.3554 32.0795C27.2718 32.1266 27.1734 32.1399 27.0803 32.1165C26.9873 32.0931 26.9068 32.0349 26.8555 31.9538C26.8042 31.8727 26.7861 31.7751 26.8048 31.681C26.8235 31.5869 26.8776 31.5036 26.956 31.4483L33.1304 27.2183L24.6997 32.0795C24.6153 32.1259 24.5163 32.1379 24.4233 32.1132C24.3302 32.0884 24.2503 32.0287 24.2002 31.9465C24.1501 31.8643 24.1336 31.7659 24.1542 31.6718C24.1748 31.5778 24.2309 31.4953 24.3108 31.4415L25.9561 30.3841L23.0215 32.0795C22.9371 32.1266 22.8379 32.1392 22.7444 32.1148C22.651 32.0904 22.5707 32.0307 22.5202 31.9484C22.4698 31.866 22.4531 31.7674 22.4738 31.673C22.4944 31.5787 22.5508 31.496 22.6311 31.4423L25.0616 29.8718L21.237 32.0795C21.1529 32.1265 21.0539 32.1393 20.9606 32.1151C20.8673 32.0909 20.787 32.0316 20.7363 31.9496C20.6857 31.8676 20.6687 31.7693 20.6888 31.675C20.7089 31.5808 20.7647 31.4979 20.8444 31.4438L24.9577 28.7342L19.1617 32.0795C19.1051 32.1131 19.0406 32.1311 18.9747 32.1318Z" fill="#2381D9"/>
<path d="M52.5296 26.9019C52.4601 26.9019 52.3921 26.8825 52.333 26.846C52.2739 26.8095 52.2262 26.7573 52.1951 26.6952C52.1641 26.633 52.1509 26.5635 52.1572 26.4943C52.1634 26.4252 52.1888 26.3591 52.2304 26.3036L53.0277 25.2192L50.4789 26.6947C50.3992 26.7417 50.305 26.7574 50.2144 26.739C50.1238 26.7205 50.0432 26.6691 49.9883 26.5947C49.9333 26.5204 49.9079 26.4283 49.9169 26.3362C49.9259 26.2442 49.9686 26.1588 50.0369 26.0964L50.7653 25.4233L49.7759 25.9947C49.6987 26.0391 49.6082 26.0545 49.5206 26.0382C49.433 26.0218 49.3542 25.9747 49.2983 25.9053C49.2424 25.836 49.2131 25.7489 49.2156 25.6599C49.2182 25.5708 49.2524 25.4856 49.3122 25.4196L50.372 24.2522L48.8889 25.1077C48.8166 25.1486 48.7327 25.1641 48.6505 25.152C48.5683 25.1398 48.4925 25.1006 48.435 25.0406C48.3776 24.9806 48.3418 24.9031 48.3332 24.8205C48.3247 24.7379 48.3439 24.6547 48.3879 24.5842L49.292 23.1812L47.8135 24.0345C47.7411 24.0761 47.6569 24.0922 47.5743 24.0803C47.4917 24.0685 47.4154 24.0293 47.3577 23.9691C47.2999 23.9089 47.2639 23.8311 47.2554 23.7481C47.2469 23.6651 47.2665 23.5816 47.3109 23.511L47.5248 23.1752L47.1628 23.3846C47.0785 23.4333 46.9785 23.4472 46.8841 23.4234C46.7897 23.3995 46.7083 23.3397 46.6573 23.2567L46.2437 22.5837C46.156 22.6088 46.0622 22.6011 45.9798 22.5619C45.8975 22.5227 45.8323 22.4547 45.7965 22.3708C45.7608 22.2869 45.7569 22.1928 45.7857 22.1062C45.8145 22.0197 45.8739 21.9466 45.9528 21.9008L46.1899 21.764C46.2734 21.7144 46.3729 21.6992 46.4674 21.7217C46.5619 21.7441 46.6439 21.8025 46.6962 21.8844L47.1045 22.5478L48.4776 21.7587C48.55 21.7172 48.6342 21.7011 48.7168 21.7129C48.7994 21.7248 48.8757 21.7639 48.9334 21.8241C48.9912 21.8843 49.0272 21.9621 49.0357 22.0451C49.0442 22.1282 49.0246 22.2116 48.9802 22.2823L48.7655 22.6181L50.2575 21.7573C50.3299 21.7164 50.4138 21.7009 50.496 21.713C50.5782 21.7252 50.654 21.7643 50.7114 21.8244C50.7689 21.8844 50.8047 21.9618 50.8133 22.0445C50.8218 22.1271 50.8026 22.2103 50.7586 22.2808L49.8544 23.683L52.0689 22.4049C52.146 22.361 52.2363 22.3459 52.3235 22.3624C52.4107 22.3789 52.4892 22.4258 52.545 22.4949C52.6007 22.564 52.6301 22.6506 52.6278 22.7394C52.6256 22.8281 52.5918 22.9132 52.5326 22.9793L51.4721 24.1482L53.2565 23.1184C53.3362 23.0714 53.4304 23.0557 53.521 23.0741C53.6116 23.0926 53.6922 23.144 53.7471 23.2183C53.8021 23.2927 53.8275 23.3848 53.8185 23.4769C53.8096 23.5689 53.7668 23.6543 53.6985 23.7167L52.9723 24.3898L54.1981 23.6815C54.2723 23.6389 54.359 23.6231 54.4435 23.6367C54.528 23.6503 54.6053 23.6925 54.6625 23.7562C54.7197 23.8199 54.7532 23.9014 54.7576 23.9869C54.7619 24.0724 54.7368 24.1568 54.6864 24.226L53.8885 25.3111L55.4313 24.4212C55.4979 24.3828 55.5747 24.3658 55.6512 24.3726C55.7278 24.3794 55.8004 24.4096 55.8592 24.4592C55.9179 24.5087 55.96 24.5751 55.9797 24.6494C55.9993 24.7237 55.9956 24.8023 55.969 24.8744L55.6706 25.6858L56.6212 25.1369C56.6853 25.0998 56.7589 25.0827 56.8328 25.0875C56.9066 25.0923 56.9774 25.119 57.0361 25.1641C57.0948 25.2092 57.1388 25.2707 57.1625 25.3408C57.1863 25.4109 57.1886 25.4865 57.1694 25.5579L57.1185 25.7494L57.3848 25.5946C57.4708 25.545 57.5731 25.5316 57.669 25.5574C57.765 25.5833 57.8467 25.6461 57.8963 25.7322C57.9459 25.8183 57.9593 25.9205 57.9335 26.0165C57.9076 26.1124 57.8448 26.1942 57.7587 26.2437L56.7117 26.848C56.6474 26.8845 56.5738 26.9014 56.5 26.8965C56.4262 26.8916 56.3555 26.8651 56.2966 26.8203C56.238 26.7753 56.1941 26.7139 56.1704 26.6438C56.1467 26.5738 56.1443 26.4984 56.1635 26.427L56.2151 26.2363L55.1524 26.8488C55.0858 26.8873 55.0091 26.9044 54.9325 26.8977C54.8559 26.8911 54.7832 26.861 54.7244 26.8115C54.6655 26.762 54.6233 26.6956 54.6035 26.6213C54.5838 26.5471 54.5874 26.4685 54.6139 26.3963L54.913 25.5856L52.7203 26.851C52.6626 26.8851 52.5966 26.9027 52.5296 26.9019Z" fill="#2381D9"/>
<path d="M17.5681 26.8965C17.4904 26.8967 17.4145 26.8728 17.351 26.8279C17.2875 26.783 17.2396 26.7194 17.214 26.646C17.1883 26.5726 17.1861 26.4931 17.2078 26.4184C17.2295 26.3437 17.2739 26.2777 17.3348 26.2294L18.9913 24.9101L15.9311 26.6774C15.8456 26.7221 15.7462 26.732 15.6535 26.7052C15.5609 26.6783 15.4823 26.6167 15.434 26.5332C15.3857 26.4497 15.3716 26.3507 15.3945 26.2571C15.4175 26.1634 15.4757 26.0822 15.5571 26.0305L22.9611 21.7571C23.0427 21.7105 23.139 21.6964 23.2306 21.7176C23.3222 21.7388 23.4025 21.7938 23.4554 21.8715C23.5083 21.9492 23.53 22.044 23.5161 22.1371C23.5023 22.2301 23.4539 22.3144 23.3806 22.3734L21.7188 23.6934L25.076 21.7586C25.158 21.7121 25.2545 21.6982 25.3462 21.7198C25.438 21.7413 25.5182 21.7967 25.5708 21.8749C25.6234 21.9531 25.6446 22.0482 25.6301 22.1413C25.6156 22.2344 25.5665 22.3186 25.4926 22.3771L24.0664 23.4862L27.0579 21.7586C27.1375 21.7142 27.2306 21.7005 27.3196 21.7199C27.4086 21.7393 27.4875 21.7906 27.5414 21.864C27.5953 21.9375 27.6206 22.0281 27.6124 22.1189C27.6042 22.2096 27.5631 22.2943 27.4969 22.3569L25.0431 24.5923C25.1269 24.5876 25.2099 24.6113 25.2786 24.6595C25.3474 24.7077 25.3979 24.7776 25.4221 24.858C25.4462 24.9383 25.4427 25.0245 25.4119 25.1026C25.3812 25.1807 25.325 25.2462 25.2525 25.2886L22.558 26.8441C22.4784 26.8885 22.3853 26.9023 22.2963 26.8829C22.2072 26.8635 22.1283 26.8122 22.0744 26.7387C22.0205 26.6653 21.9953 26.5746 22.0035 26.4839C22.0117 26.3931 22.0527 26.3085 22.119 26.2458L24.4374 24.1346L19.74 26.8441C19.658 26.8907 19.5615 26.9045 19.4698 26.883C19.3781 26.8614 19.2978 26.806 19.2452 26.7278C19.1926 26.6497 19.1714 26.5545 19.1859 26.4614C19.2004 26.3683 19.2495 26.2841 19.3234 26.2257L20.7511 25.1158L17.7551 26.8441C17.6986 26.878 17.634 26.8961 17.5681 26.8965Z" fill="#2381D9"/>
<path d="M24.7059 32.1538C24.6278 32.153 24.5518 32.1277 24.4887 32.0816C24.4257 32.0354 24.3786 31.9706 24.3543 31.8963C24.3299 31.822 24.3295 31.742 24.353 31.6674C24.3765 31.5929 24.4228 31.5276 24.4853 31.4807L26.9899 29.6499L23.724 31.5345C23.6414 31.5815 23.544 31.5952 23.4516 31.573C23.3593 31.5508 23.2788 31.4942 23.2266 31.4148C23.1745 31.3354 23.1545 31.2391 23.1707 31.1455C23.187 31.0519 23.2382 30.968 23.3141 30.9108L28.5537 27.0264L23.7217 29.8152C23.6379 29.8609 23.5397 29.8729 23.4473 29.8486C23.3549 29.8242 23.2753 29.7655 23.2249 29.6843C23.1745 29.6032 23.157 29.5058 23.1761 29.4122C23.1952 29.3186 23.2494 29.2359 23.3276 29.181L24.6266 28.3164L23.7202 28.8399C23.6372 28.8876 23.5391 28.9016 23.4461 28.8791C23.3531 28.8566 23.2723 28.7993 23.2203 28.719C23.1682 28.6387 23.149 28.5415 23.1664 28.4474C23.1839 28.3533 23.2367 28.2695 23.3141 28.2132L26.2764 26.0736L23.7187 27.5499C23.6353 27.5965 23.5372 27.6094 23.4446 27.5859C23.3519 27.5625 23.2718 27.5045 23.2206 27.4238C23.1694 27.3431 23.151 27.2459 23.1693 27.1521C23.1875 27.0583 23.2409 26.975 23.3186 26.9194L23.9984 26.4468C23.9256 26.4413 23.8559 26.4147 23.798 26.3702C23.7401 26.3256 23.6965 26.265 23.6727 26.196C23.6488 26.1269 23.6457 26.0524 23.6637 25.9816C23.6817 25.9108 23.7201 25.8468 23.7741 25.7976L27.1477 22.7126C27.1207 22.6309 27.1227 22.5425 27.1534 22.4621C27.184 22.3817 27.2415 22.3144 27.316 22.2714L28.1992 21.7583C28.2788 21.714 28.3719 21.7002 28.4609 21.7196C28.55 21.739 28.6289 21.7903 28.6828 21.8638C28.7367 21.9372 28.7619 22.0279 28.7537 22.1186C28.7455 22.2094 28.7044 22.294 28.6382 22.3566L26.8059 24.0281L30.7442 21.7583C30.8275 21.7132 30.9247 21.7014 31.0164 21.7252C31.108 21.749 31.1872 21.8066 31.238 21.8866C31.2888 21.9665 31.3074 22.0627 31.29 22.1558C31.2726 22.2488 31.2206 22.3318 31.1444 22.388L31.0815 22.4322L32.2505 21.7591C32.3334 21.7115 32.4315 21.6975 32.5245 21.72C32.6175 21.7425 32.6984 21.7998 32.7504 21.8801C32.8024 21.9604 32.8217 22.0576 32.8042 22.1516C32.7868 22.2457 32.7339 22.3295 32.6565 22.3858L29.6965 24.5232L34.4829 21.7561C34.5667 21.7103 34.6649 21.6984 34.7573 21.7227C34.8497 21.747 34.9292 21.8058 34.9796 21.8869C35.0301 21.9681 35.0475 22.0654 35.0284 22.159C35.0093 22.2526 34.9552 22.3354 34.877 22.3903L33.5802 23.2541L33.8352 23.1045C33.9178 23.0576 34.0152 23.0438 34.1075 23.066C34.1999 23.0883 34.2803 23.1448 34.3325 23.2242C34.3847 23.3036 34.4047 23.3999 34.3884 23.4935C34.3722 23.5871 34.3209 23.6711 34.245 23.7282L29.0054 27.6172L32.6281 25.5231C32.7109 25.4774 32.8078 25.4647 32.8995 25.4876C32.9912 25.5105 33.0709 25.5672 33.1224 25.6465C33.174 25.7257 33.1936 25.8215 33.1774 25.9146C33.1612 26.0077 33.1103 26.0912 33.035 26.1484L30.5303 27.9829L32.2841 26.9703C32.3659 26.9234 32.4624 26.9092 32.5542 26.9304C32.646 26.9516 32.7265 27.0067 32.7794 27.0847C32.8323 27.1627 32.8539 27.2578 32.8397 27.351C32.8255 27.4442 32.7767 27.5285 32.7029 27.5873L31.0456 28.8998L32.2886 28.1826C32.369 28.1358 32.4639 28.1208 32.5549 28.1403C32.6458 28.1598 32.7262 28.2124 32.7804 28.288C32.8345 28.3636 32.8586 28.4566 32.8479 28.549C32.8372 28.6414 32.7924 28.7264 32.7224 28.7876L31.8683 29.5355L32.2931 29.2902C32.3661 29.2484 32.451 29.2324 32.5342 29.2448C32.6173 29.2572 32.6939 29.2973 32.7515 29.3586C32.8091 29.4199 32.8443 29.4988 32.8515 29.5826C32.8587 29.6664 32.8374 29.7502 32.7912 29.8204L32.2475 30.6431L32.2991 30.6131C32.3416 30.5861 32.3892 30.5679 32.439 30.5597C32.4887 30.5516 32.5397 30.5535 32.5886 30.5655C32.6376 30.5775 32.6837 30.5993 32.724 30.6296C32.7644 30.6598 32.7982 30.6979 32.8234 30.7416C32.8487 30.7852 32.8648 30.8336 32.8709 30.8836C32.877 30.9337 32.8729 30.9845 32.8588 31.0329C32.8448 31.0813 32.821 31.1264 32.7891 31.1655C32.7572 31.2045 32.7177 31.2367 32.673 31.2601L31.2408 32.0842C31.1679 32.126 31.0829 32.142 30.9997 32.1296C30.9166 32.1171 30.84 32.077 30.7824 32.0157C30.7249 31.9545 30.6896 31.8755 30.6824 31.7917C30.6752 31.708 30.6965 31.6242 30.7427 31.554L31.2872 30.7351L28.9381 32.0902C28.8577 32.1362 28.7631 32.1507 28.6727 32.1309C28.5822 32.1112 28.5023 32.0586 28.4484 31.9832C28.3945 31.9079 28.3704 31.8153 28.3809 31.7233C28.3914 31.6313 28.4357 31.5464 28.5051 31.4852L29.3584 30.7373L27.0071 32.0954C26.9254 32.142 26.8292 32.1561 26.7376 32.1349C26.646 32.1137 26.5657 32.0588 26.5128 31.981C26.4599 31.9033 26.4382 31.8085 26.452 31.7155C26.4659 31.6225 26.5143 31.5381 26.5876 31.4792L28.2456 30.1652L24.8929 32.1007C24.8365 32.1348 24.7719 32.1532 24.7059 32.1538Z" fill="white"/>
<path d="M44.0563 32.1478C43.9793 32.148 43.9041 32.1243 43.841 32.0802C43.778 32.036 43.7301 31.9734 43.7039 31.901C43.6777 31.8286 43.6745 31.7499 43.6947 31.6756C43.715 31.6013 43.7577 31.5351 43.8169 31.4859L46.768 29.0329L41.6705 31.9758C41.5883 32.0217 41.4917 32.0349 41.4001 32.0126C41.3085 31.9904 41.2287 31.9344 41.1767 31.8559C41.1246 31.7774 41.1041 31.6821 41.1193 31.5891C41.1344 31.4961 41.1841 31.4122 41.2585 31.3543L44.4429 28.9447L41.6698 30.5459C41.5878 30.5933 41.4909 30.6079 41.3986 30.5867C41.3062 30.5654 41.2254 30.5099 41.1724 30.4314C41.1194 30.3529 41.0982 30.2572 41.1131 30.1636C41.128 30.0701 41.1778 29.9856 41.2525 29.9274L44.1692 27.6426L41.6728 29.0838C41.5916 29.1306 41.4958 29.1453 41.4044 29.1248C41.3129 29.1044 41.2325 29.0503 41.1789 28.9734C41.1254 28.8965 41.1028 28.8023 41.1154 28.7094C41.1281 28.6165 41.1751 28.5318 41.2473 28.472L43.9396 26.2366L41.6713 27.5461C41.5917 27.5917 41.498 27.6065 41.4082 27.5875C41.3185 27.5686 41.2388 27.5172 41.1844 27.4433C41.13 27.3694 41.1046 27.2781 41.1132 27.1867C41.1217 27.0954 41.1636 27.0103 41.2308 26.9478L43.7474 24.6294L41.2682 26.0594C41.1886 26.1037 41.0955 26.1175 41.0065 26.0981C40.9175 26.0787 40.8386 26.0274 40.7847 25.954C40.7307 25.8805 40.7055 25.7899 40.7137 25.6991C40.7219 25.6083 40.763 25.5237 40.8292 25.4611L42.2943 24.1239L40.7469 25.0168C40.6677 25.0626 40.5744 25.0778 40.4847 25.0594C40.3951 25.0411 40.3153 24.9904 40.2604 24.9172C40.2056 24.8439 40.1795 24.753 40.1872 24.6618C40.1948 24.5706 40.2357 24.4854 40.3019 24.4223L40.7746 23.9736L40.3476 24.2196C40.2743 24.2617 40.1888 24.2777 40.1052 24.2651C40.0216 24.2524 39.9448 24.2118 39.8873 24.1498C39.8298 24.0879 39.7949 24.0082 39.7885 23.9239C39.782 23.8396 39.8043 23.7556 39.8517 23.6856L40.1673 23.2219L39.9198 23.364C39.8659 23.3951 39.8051 23.4123 39.7429 23.414C39.6808 23.4157 39.6191 23.4018 39.5637 23.3736C39.5082 23.3455 39.4606 23.304 39.4253 23.2528C39.3899 23.2016 39.3678 23.1424 39.3611 23.0806L39.3118 22.6229C39.2315 22.6177 39.1551 22.5868 39.0938 22.5348C39.0326 22.4828 38.9897 22.4124 38.9715 22.3341C38.9534 22.2558 38.961 22.1737 38.9932 22.1C39.0254 22.0264 39.0804 21.965 39.1502 21.9251L39.4419 21.7591C39.4958 21.728 39.5567 21.7108 39.6189 21.7092C39.6811 21.7076 39.7428 21.7215 39.7983 21.7497C39.8538 21.778 39.9013 21.8196 39.9367 21.8709C39.972 21.9221 39.9939 21.9814 40.0006 22.0433L40.0432 22.4314L41.2099 21.7584C41.2832 21.7162 41.3686 21.7002 41.4522 21.7129C41.5358 21.7256 41.6126 21.7662 41.6701 21.8282C41.7277 21.8901 41.7625 21.9697 41.769 22.054C41.7754 22.1383 41.7531 22.2223 41.7057 22.2923L41.3901 22.7553L43.1222 21.7561C43.2019 21.7068 43.2971 21.6893 43.3892 21.7069C43.4812 21.7245 43.5632 21.776 43.6191 21.8512C43.675 21.9264 43.7005 22.0199 43.6908 22.1131C43.681 22.2063 43.6366 22.2924 43.5664 22.3544L43.0945 22.8031L44.9014 21.7516C44.981 21.7073 45.074 21.6935 45.1631 21.7129C45.2521 21.7323 45.331 21.7836 45.3849 21.857C45.4388 21.9305 45.464 22.0211 45.4558 22.1119C45.4476 22.2027 45.4066 22.2873 45.3404 22.3499L43.876 23.6864L46.2879 22.2938C46.3675 22.2482 46.4612 22.2335 46.551 22.2525C46.6408 22.2714 46.7204 22.3227 46.7748 22.3966C46.8293 22.4705 46.8546 22.5619 46.846 22.6532C46.8375 22.7446 46.7956 22.8296 46.7284 22.8921L44.2133 25.2105L47.3783 23.3827C47.4595 23.3359 47.5553 23.3213 47.6467 23.3417C47.7382 23.3621 47.8186 23.4162 47.8722 23.4931C47.9257 23.57 47.9483 23.6643 47.9357 23.7571C47.923 23.85 47.876 23.9347 47.8038 23.9945L45.1115 26.2299L48.3558 24.3602C48.4376 24.314 48.5339 24.3002 48.6254 24.3218C48.7169 24.3433 48.797 24.3985 48.8496 24.4764C48.9022 24.5544 48.9236 24.6492 48.9094 24.7422C48.8952 24.8351 48.8465 24.9193 48.7731 24.978L45.8564 27.2642L49.2809 25.2868C49.3634 25.2385 49.4612 25.2235 49.5543 25.2451C49.6474 25.2666 49.7288 25.323 49.7816 25.4027C49.8345 25.4823 49.8548 25.5792 49.8385 25.6734C49.8221 25.7675 49.7703 25.8519 49.6937 25.9091L46.507 28.3187L50.1896 26.1932C50.2707 26.1464 50.3665 26.1318 50.458 26.1522C50.5494 26.1726 50.6299 26.2267 50.6834 26.3036C50.7369 26.3805 50.7596 26.4748 50.747 26.5676C50.7343 26.6605 50.6872 26.7452 50.6151 26.805L47.6662 29.2565L50.227 27.7787C50.3055 27.7351 50.3972 27.7212 50.4851 27.7396C50.5731 27.758 50.6515 27.8074 50.706 27.8789C50.7605 27.9503 50.7874 28.039 50.7818 28.1287C50.7763 28.2184 50.7386 28.3031 50.6757 28.3673L49.0214 30.0126L50.2314 29.3141C50.3079 29.27 50.3975 29.2544 50.4844 29.27C50.5713 29.2856 50.6498 29.3315 50.7062 29.3995C50.7625 29.4674 50.7929 29.5531 50.7922 29.6414C50.7914 29.7297 50.7594 29.8148 50.7019 29.8818L50.2973 30.3522C50.3841 30.3238 50.4784 30.3283 50.5622 30.3647C50.646 30.4011 50.7136 30.467 50.7522 30.5498C50.7908 30.6327 50.7977 30.7268 50.7716 30.8144C50.7455 30.902 50.6882 30.977 50.6106 31.0252L48.7768 32.0842C48.7004 32.1283 48.6108 32.1439 48.5239 32.1283C48.437 32.1127 48.3584 32.0669 48.3021 31.9989C48.2458 31.9309 48.2153 31.8452 48.2161 31.757C48.2169 31.6687 48.2489 31.5836 48.3064 31.5166L48.6991 31.0596L46.9176 32.0887C46.8391 32.1324 46.7474 32.1463 46.6595 32.1279C46.5715 32.1095 46.4931 32.0601 46.4386 31.9886C46.3841 31.9171 46.3572 31.8284 46.3628 31.7387C46.3683 31.649 46.406 31.5643 46.4689 31.5001L48.1232 29.8548L44.238 32.0984C44.1827 32.1304 44.1201 32.1474 44.0563 32.1478Z" fill="white"/>
<path d="M41.5459 26.9095C41.4684 26.9093 41.3928 26.885 41.3297 26.8399C41.2666 26.7949 41.219 26.7313 41.1936 26.658C41.1682 26.5847 41.1663 26.5054 41.188 26.4309C41.2097 26.3564 41.254 26.2906 41.3148 26.2424L42.1771 25.5634L41.2797 26.0809C41.1976 26.1287 41.1004 26.1435 41.0078 26.1223C40.9152 26.101 40.8342 26.0453 40.7812 25.9665C40.7281 25.8877 40.7071 25.7917 40.7223 25.6979C40.7376 25.6041 40.7879 25.5197 40.8631 25.4617L41.2632 25.152L40.9155 25.3525C40.8383 25.3969 40.7477 25.4123 40.6602 25.3959C40.5726 25.3795 40.4938 25.3324 40.4378 25.2631C40.3819 25.1937 40.3526 25.1067 40.3552 25.0176C40.3577 24.9286 40.392 24.8434 40.4518 24.7774L41.519 23.6084L40.3733 24.2696C40.2991 24.3123 40.2126 24.3283 40.1281 24.3149C40.0436 24.3016 39.9662 24.2596 39.9089 24.1961C39.8516 24.1325 39.8178 24.0513 39.8131 23.9658C39.8085 23.8804 39.8333 23.796 39.8834 23.7266L40.208 23.2779L39.9507 23.4274C39.8975 23.4582 39.8375 23.4754 39.7761 23.4775C39.7146 23.4796 39.6536 23.4664 39.5984 23.4393C39.5433 23.4122 39.4956 23.3718 39.4598 23.3219C39.4239 23.2719 39.4009 23.2139 39.3928 23.153L39.324 22.625C39.2426 22.6224 39.1642 22.5933 39.1009 22.5421C39.0375 22.4909 38.9926 22.4204 38.9729 22.3414C38.9533 22.2623 38.96 22.179 38.9921 22.1041C39.0241 22.0292 39.0797 21.9668 39.1505 21.9265L39.4422 21.7597C39.4954 21.7289 39.5555 21.7117 39.617 21.7097C39.6785 21.7077 39.7395 21.7209 39.7947 21.7481C39.8499 21.7753 39.8975 21.8157 39.9334 21.8658C39.9692 21.9158 39.9921 21.9739 40.0001 22.0349L40.0614 22.5016L41.3492 21.7597C41.4233 21.7173 41.5096 21.7015 41.5939 21.7149C41.6782 21.7283 41.7553 21.7702 41.8125 21.8335C41.8698 21.8968 41.9036 21.9778 41.9084 22.063C41.9132 22.1482 41.8888 22.2325 41.8391 22.3019L41.5138 22.7506L43.2339 21.7567C43.3111 21.7128 43.4014 21.6977 43.4887 21.7143C43.5759 21.7309 43.6544 21.778 43.7101 21.8472C43.7658 21.9164 43.7951 22.0032 43.7926 22.092C43.7902 22.1808 43.7562 22.2658 43.6968 22.3318L42.6296 23.5007L45.6555 21.7545C45.7376 21.7066 45.8348 21.6918 45.9274 21.7131C46.0199 21.7343 46.101 21.79 46.154 21.8688C46.207 21.9477 46.2281 22.0437 46.2128 22.1375C46.1976 22.2312 46.1473 22.3157 46.0721 22.3737L45.6712 22.6841L46.3061 22.3176C46.3879 22.2707 46.4844 22.2565 46.5762 22.2777C46.6681 22.2989 46.7485 22.3541 46.8014 22.4321C46.8544 22.51 46.8759 22.6051 46.8617 22.6983C46.8475 22.7915 46.7987 22.8759 46.7249 22.9346L45.8634 23.6137L46.9658 22.9772C47.0454 22.9323 47.1387 22.918 47.2281 22.9372C47.3175 22.9564 47.3968 23.0077 47.451 23.0814C47.5051 23.155 47.5304 23.246 47.522 23.3371C47.5136 23.4281 47.4722 23.513 47.4055 23.5755L46.3974 24.4984L47.7263 23.7311C47.806 23.6855 47.8996 23.6708 47.9894 23.6897C48.0792 23.7087 48.1589 23.76 48.2133 23.8339C48.2677 23.9078 48.293 23.9991 48.2845 24.0905C48.2759 24.1818 48.234 24.2669 48.1668 24.3294L47.95 24.5306L48.3142 24.3197C48.3775 24.2832 48.45 24.2661 48.5229 24.2704C48.5958 24.2747 48.6659 24.3003 48.7244 24.3439C48.7829 24.3876 48.8274 24.4475 48.8523 24.5161C48.8772 24.5848 48.8815 24.6592 48.8646 24.7302L48.6163 25.769L49.344 25.3487C49.3869 25.3239 49.4343 25.3078 49.4835 25.3015C49.5327 25.2952 49.5827 25.2987 49.6305 25.3118C49.6783 25.325 49.723 25.3475 49.762 25.3781C49.8011 25.4087 49.8336 25.4468 49.8578 25.4901L50.1569 26.0241C50.2446 26.002 50.3372 26.0125 50.4177 26.0535C50.4982 26.0945 50.5612 26.1633 50.5949 26.2471C50.6287 26.3309 50.6309 26.4241 50.6013 26.5094C50.5716 26.5948 50.5121 26.6665 50.4336 26.7114L50.1958 26.8482C50.1529 26.8731 50.1055 26.8891 50.0563 26.8954C50.0071 26.9018 49.9571 26.8983 49.9093 26.8851C49.8615 26.872 49.8168 26.8494 49.7778 26.8188C49.7388 26.7882 49.7062 26.7502 49.682 26.7069L49.3911 26.1834L48.2401 26.8475C48.1768 26.8842 48.1042 26.9015 48.0311 26.8973C47.9581 26.8931 47.8879 26.8675 47.8292 26.8238C47.7706 26.7801 47.726 26.7202 47.7011 26.6514C47.6761 26.5826 47.6719 26.508 47.689 26.4369L47.9372 25.3988L45.4207 26.8512C45.341 26.8968 45.2474 26.9115 45.1576 26.8926C45.0678 26.8736 44.9881 26.8223 44.9337 26.7484C44.8793 26.6745 44.854 26.5832 44.8625 26.4918C44.8711 26.4004 44.913 26.3154 44.9802 26.2529L45.1955 26.054L43.8105 26.8535C43.7309 26.8984 43.6375 26.9127 43.5481 26.8935C43.4587 26.8743 43.3794 26.823 43.3253 26.7493C43.2711 26.6756 43.2458 26.5847 43.2542 26.4936C43.2626 26.4026 43.3041 26.3177 43.3707 26.2552L44.3781 25.3315L41.7307 26.8594C41.6746 26.8922 41.6109 26.9095 41.5459 26.9095Z" fill="white"/>
<path d="M34.5084 26.8979C34.4314 26.8977 34.3563 26.8739 34.2934 26.8295C34.2305 26.7851 34.1828 26.7224 34.1569 26.6499C34.131 26.5774 34.128 26.4987 34.1485 26.4245C34.169 26.3503 34.2119 26.2842 34.2713 26.2353L35.6721 25.0828L32.7516 26.7707C32.6714 26.8172 32.5768 26.8321 32.4861 26.8127C32.3955 26.7933 32.3153 26.741 32.2611 26.6658C32.2069 26.5906 32.1825 26.498 32.1927 26.4058C32.2029 26.3137 32.247 26.2287 32.3164 26.1672L34.4912 24.2339L33.8286 24.6161C33.7555 24.6581 33.6703 24.6742 33.5869 24.6617C33.5035 24.6492 33.4268 24.6089 33.3692 24.5473C33.3116 24.4857 33.2765 24.4065 33.2696 24.3224C33.2627 24.2384 33.2844 24.1545 33.3312 24.0844L34.3079 22.626C34.294 22.6099 34.2817 22.5923 34.2713 22.5737C34.2461 22.531 34.2297 22.4838 34.2229 22.4348C34.2161 22.3857 34.2192 22.3358 34.2318 22.288C34.2445 22.2401 34.2665 22.1952 34.2967 22.1559C34.3268 22.1167 34.3645 22.0838 34.4074 22.0591L34.9354 21.7548C35.0085 21.7128 35.0937 21.6967 35.1771 21.7092C35.2604 21.7217 35.3372 21.762 35.3948 21.8236C35.4523 21.8852 35.4874 21.9644 35.4943 22.0484C35.5012 22.1325 35.4795 22.2163 35.4328 22.2865L34.8464 23.1615L37.295 21.748C37.3752 21.7016 37.4698 21.6866 37.5604 21.706C37.6511 21.7254 37.7313 21.7778 37.7855 21.853C37.8397 21.9281 37.8641 22.0208 37.8539 22.1129C37.8437 22.205 37.7996 22.2901 37.7302 22.3516L35.5554 24.2878L39.2252 22.1691C39.3064 22.1228 39.4021 22.1087 39.4932 22.1295C39.5843 22.1502 39.6644 22.2044 39.7176 22.2812C39.7708 22.3581 39.7933 22.4521 39.7807 22.5447C39.768 22.6373 39.7211 22.7218 39.6493 22.7816L38.2477 23.9288L39.6881 23.0979C39.764 23.0545 39.8526 23.0389 39.9387 23.054C40.0248 23.0691 40.1028 23.1138 40.1594 23.1805C40.2159 23.2471 40.2473 23.3315 40.2481 23.4189C40.2489 23.5062 40.2191 23.5911 40.1638 23.6588L38.9231 25.1665L40.3201 24.3611C40.3909 24.3204 40.473 24.304 40.554 24.3144C40.635 24.3247 40.7103 24.3613 40.7685 24.4185C40.8268 24.4758 40.8647 24.5504 40.8765 24.6312C40.8883 24.712 40.8733 24.7944 40.8339 24.8659L40.4697 25.524L40.8047 25.3311C40.8597 25.2993 40.922 25.2821 40.9855 25.281C41.0491 25.2799 41.1118 25.2951 41.1679 25.325C41.224 25.355 41.2715 25.3987 41.3059 25.4521C41.3404 25.5055 41.3607 25.5668 41.3649 25.6302L41.3888 25.984C41.4666 25.9938 41.5394 26.0278 41.5968 26.0812C41.6542 26.1346 41.6934 26.2047 41.7088 26.2816C41.7242 26.3586 41.715 26.4383 41.6825 26.5097C41.6501 26.5811 41.596 26.6405 41.5279 26.6795L41.2392 26.8455C41.1842 26.8771 41.1221 26.8942 41.0586 26.8952C40.9952 26.8962 40.9325 26.881 40.8766 26.8511C40.8206 26.8211 40.7732 26.7775 40.7388 26.7242C40.7044 26.6709 40.6841 26.6097 40.6798 26.5464L40.6619 26.2786L39.6799 26.844C39.6092 26.8845 39.5272 26.9008 39.4464 26.8904C39.3656 26.88 39.2904 26.8435 39.2323 26.7864C39.1741 26.7294 39.1362 26.6549 39.1242 26.5743C39.1123 26.4937 39.127 26.4114 39.1661 26.34L39.5303 25.6818L37.5156 26.8455C37.4398 26.889 37.3511 26.9045 37.265 26.8895C37.179 26.8744 37.1009 26.8296 37.0444 26.763C36.9878 26.6963 36.9565 26.612 36.9556 26.5246C36.9548 26.4372 36.9847 26.3523 37.0399 26.2846L38.2792 24.7777L34.6961 26.8455C34.6394 26.8795 34.5745 26.8976 34.5084 26.8979Z" fill="#2381D9"/>
<path d="M27.2209 26.8963C27.1424 26.8963 27.0659 26.8716 27.0023 26.8257C26.9386 26.7798 26.891 26.715 26.8662 26.6406C26.8414 26.5661 26.8406 26.4858 26.864 26.4108C26.8874 26.3359 26.9338 26.2703 26.9966 26.2232L27.7325 25.678L25.7087 26.8439C25.6268 26.8911 25.5301 26.9055 25.4381 26.8842C25.346 26.863 25.2654 26.8077 25.2124 26.7295C25.1595 26.6512 25.1381 26.5558 25.1526 26.4624C25.1671 26.3691 25.2165 26.2847 25.2907 26.2262L26.7774 25.0632L23.839 26.7594C23.7594 26.805 23.6658 26.8197 23.576 26.8008C23.4862 26.7818 23.4065 26.7305 23.3521 26.6566C23.2977 26.5827 23.2724 26.4914 23.2809 26.4C23.2895 26.3086 23.3314 26.2236 23.3985 26.1611L27.1439 22.7119C27.1148 22.6294 27.1156 22.5394 27.1461 22.4574C27.1765 22.3754 27.2348 22.3067 27.3107 22.2632L28.1961 21.7584C28.2758 21.7128 28.3694 21.6981 28.4592 21.717C28.549 21.736 28.6287 21.7873 28.6831 21.8612C28.7375 21.9351 28.7628 22.0264 28.7543 22.1178C28.7457 22.2092 28.7038 22.2942 28.6366 22.3567L26.3878 24.4275L31.0111 21.7584C31.093 21.7112 31.1897 21.6968 31.2818 21.7181C31.3739 21.7393 31.4545 21.7946 31.5074 21.8729C31.5604 21.9511 31.5818 22.0465 31.5672 22.1399C31.5527 22.2332 31.5034 22.3176 31.4292 22.3761L29.9439 23.5383L33.0289 21.7584C33.1115 21.7124 33.2084 21.6994 33.3001 21.722C33.3919 21.7445 33.4717 21.801 33.5235 21.88C33.5753 21.959 33.5953 22.0547 33.5794 22.1479C33.5636 22.241 33.513 22.3247 33.438 22.3821L32.7021 22.9273L34.4184 21.9371C34.4998 21.8913 34.5955 21.8775 34.6865 21.8986C34.7775 21.9197 34.8573 21.9742 34.9102 22.0512C34.9631 22.1282 34.9853 22.2222 34.9723 22.3147C34.9594 22.4073 34.9123 22.4916 34.8402 22.5511L33.2652 23.827L33.5644 23.655C33.638 23.6124 33.7239 23.5962 33.8079 23.609C33.8919 23.6218 33.9691 23.6629 34.0267 23.7254C34.0842 23.788 34.1188 23.8683 34.1246 23.9531C34.1304 24.0379 34.1072 24.1221 34.0587 24.192L32.9242 25.8246C32.9716 25.8627 33.009 25.9118 33.0331 25.9676C33.0572 26.0234 33.0674 26.0843 33.0627 26.1449C33.0579 26.2056 33.0385 26.2642 33.006 26.3156C32.9736 26.367 32.929 26.4097 32.8763 26.4401L32.1696 26.8477C32.096 26.8898 32.0103 26.9057 31.9265 26.8928C31.8427 26.8798 31.7658 26.8387 31.7084 26.7763C31.651 26.7138 31.6165 26.6338 31.6106 26.5492C31.6047 26.4646 31.6278 26.3805 31.676 26.3107L32.4904 25.138L29.5296 26.8439C29.4482 26.8906 29.3522 26.905 29.2606 26.8841C29.1691 26.8633 29.0888 26.8088 29.0356 26.7315C28.9824 26.6542 28.9602 26.5597 28.9734 26.4668C28.9867 26.3738 29.0344 26.2893 29.1071 26.2299L30.6828 24.954L27.4079 26.8439C27.3514 26.8778 27.2868 26.8958 27.2209 26.8963Z" fill="white"/>
<path d="M18.4861 56.0586C16.5791 55.6756 13.4664 57.0098 15.2306 59.252C16.671 60.3977 18.7606 59.6394 20.4702 59.8503H54.043C55.6247 59.8503 58.8511 60.3902 59.1943 58.1586C59.4336 56.0032 57.0105 55.9576 55.4744 56.0645V50.7008C56.0649 50.6018 56.608 50.3158 57.0237 49.885C57.4395 49.4542 57.7059 48.9012 57.7838 48.3076C58.258 44.6827 58.7007 41.0532 59.1577 37.4253C59.6625 34.7008 55.612 34.5026 55.1409 36.9093C54.6532 40.2493 54.2434 44.0141 53.8755 47.1813C52.1778 47.1933 50.448 47.1746 48.7391 47.1813C47.0937 47.1813 43.5339 46.589 43.1712 48.9186C43.1366 49.3506 43.2726 49.779 43.5499 50.1121C43.8272 50.4451 44.2238 50.6564 44.6549 50.7008V56.0653H39.7616V44.6999C41.122 44.6946 42.4839 44.7103 43.842 44.6931C45.8523 44.8203 47.5612 42.2999 45.6616 40.9097C41.7913 39.9711 37.1089 40.8266 33.0442 40.5469C30.9696 40.3869 26.273 40.4624 27.7343 43.7426C29.1343 45.521 32.1759 44.4 34.1832 44.6999V56.0623H29.2914V50.7449C29.753 50.6581 30.1641 50.3986 30.441 50.0193C30.7179 49.6399 30.8399 49.1693 30.7819 48.7032C30.4528 46.5882 27.6356 47.0661 26.1047 47.0661C24.2074 47.0474 22.2838 47.0946 20.4007 47.0661C19.9834 46.9502 20.0163 46.2248 19.9707 45.8613C19.85 44.9055 19.7293 43.9498 19.6087 42.994C18.9708 40.8715 19.7418 36.0732 17.4892 35.1907C13.5591 34.5116 15.0519 39.3511 15.2972 41.6141C16.0959 44.2855 14.9584 50.3942 18.4861 50.8429V56.0586ZM19.5691 50.8982C20.2057 50.9022 20.8419 50.9037 21.4776 50.9027V56.063H19.5691V50.8982ZM25.217 55.8611V56.06H22.5605V50.8997C23.446 50.8997 24.3315 50.898 25.217 50.8945V55.8611ZM52.4754 56.06V50.7816H54.3765V56.0608L52.4754 56.06ZM48.7361 50.7793H51.3925V56.06H48.7361V50.7793ZM45.948 47.7878C58.1548 47.8738 54.0161 49.0196 56.1939 36.9766C56.2485 35.1817 58.1279 35.8264 58.1069 37.2705C57.7674 40.5178 57.2484 43.7553 56.8789 47.0026C56.7293 48.1827 56.7204 49.9118 55.2747 50.1302C55.1681 50.0891 55.0537 50.0722 54.9397 50.0807C54.8258 50.0892 54.7151 50.123 54.6158 50.1795C51.6039 50.2005 48.591 50.1878 45.5771 50.1414C43.6281 50.0128 43.8764 47.4102 45.951 47.7901L45.948 47.7878ZM45.7513 51.1727V50.8137C46.4438 50.8272 47.0818 50.7733 47.6532 50.7793V56.06H45.7513V51.1727ZM56.837 56.8565C58.1787 56.7773 58.6783 58.887 57.1691 59.0538C52.981 59.0538 48.7884 59.0538 44.5914 59.0538C35.3679 59.0456 26.1294 59.065 16.9134 59.0538C16.0196 58.9401 15.3271 57.6149 16.2605 56.9956C29.7154 56.5148 43.3334 57.1325 56.837 56.8565ZM30.227 44.287C29.9471 44.2648 29.6762 44.1781 29.4354 44.0338C29.1946 43.8895 28.9904 43.6915 28.8388 43.4553C28.6872 43.219 28.5922 42.9509 28.5614 42.6718C28.5305 42.3928 28.5646 42.1104 28.6609 41.8467C29.091 40.7249 30.0168 40.9605 30.9606 40.9605C35.4097 41.0847 39.9351 40.7115 44.3476 41.1048C44.6299 41.2334 44.8746 41.4323 45.0579 41.6826C45.2413 41.9328 45.3572 42.226 45.3946 42.534C45.5823 45.4649 41.5004 43.9296 39.7025 44.287C38.2457 44.2706 36.7073 44.2983 35.2355 44.287C35.0859 44.0485 34.5901 44.0918 34.338 44.287C32.9679 44.2841 31.5963 44.2915 30.227 44.287ZM35.2796 45.9256V44.6999H38.6787V56.0623H35.2796V45.9256ZM28.2085 55.8611V56.06H26.2999V50.9124C26.9355 50.9492 27.5726 50.9515 28.2085 50.9192V55.8611ZM17.1946 47.7729C16.7458 44.2015 16.2951 40.6302 15.8424 37.0589C15.8237 36.0044 17.0278 35.5138 17.5827 36.5099C18.2356 39.6742 18.4054 43.0112 18.8975 46.2323C18.8421 47.7504 19.8929 48.0556 21.2024 47.9008H27.6543C28.5271 47.9008 29.4791 47.826 29.6848 48.9396C29.5928 50.8429 26.6933 49.7974 25.4294 50.0546H19.7224C19.3985 50.1153 19.0649 50.1003 18.7478 50.011C18.4306 49.9216 18.1383 49.7602 17.8937 49.5394C17.6491 49.3186 17.4587 49.0444 17.3375 48.7379C17.2162 48.4315 17.1673 48.1013 17.1946 47.7729Z" fill="#262626"/>
<path d="M57.0137 25.0573C55.2793 23.9879 53.4605 22.967 51.7524 21.9005C51.2595 20.0847 53.0305 15.7284 49.7413 15.8316C41.7556 15.8256 33.7695 15.8256 25.7833 15.8316C20.9453 15.3791 22.4014 18.841 22.2286 22.1092C20.0299 23.513 17.6666 24.7215 15.4895 26.1649C14.6018 26.8956 14.7454 27.9119 14.7454 28.9821C14.7454 30.0112 14.5338 31.2908 15.6541 31.836C18.0226 32.3319 20.6042 31.8719 23.0333 32.0215C25.9777 32.0432 29.0432 32.0058 32.0198 32.0215C32.1392 32.1031 32.2805 32.1467 32.4251 32.1467C32.5697 32.1467 32.711 32.1031 32.8305 32.0215H40.986C41.1087 32.1178 41.2601 32.1702 41.416 32.1702C41.572 32.1702 41.7234 32.1178 41.8461 32.0215H49.9881C51.7905 32.038 53.6602 32.0095 55.4768 32.0215C57.3883 32.2518 59.4629 31.7059 59.2019 29.3882C59.4383 27.1229 59.267 25.9914 57.0137 25.0573ZM52.2422 23.1876C53.9451 24.2347 55.6937 25.2136 57.3801 26.2823H50.8856C49.597 24.9736 48.268 23.682 46.9735 22.3717H50.7876C51.2454 22.6896 51.7325 22.9624 52.2422 23.1876ZM49.8954 29.4511V31.5361H42.0106C42.0106 29.9656 42.0173 28.3779 42.0106 26.8043H49.8954C49.8513 27.6823 49.8954 28.5738 49.8954 29.4518V29.4511ZM34.0405 22.3717C33.3951 23.6745 32.7273 24.9758 32.0916 26.2823H24.28L28.1907 22.3717H34.0405ZM33.158 26.2786L35.1115 22.3717H38.7641L40.7145 26.2831H33.1535L33.158 26.2786ZM45.5585 22.3725L49.4691 26.2831H41.9238C41.3255 24.9616 40.6248 23.679 39.9913 22.3725H45.5585ZM23.3071 17.6481C23.3579 15.3746 26.3823 16.5263 27.8332 16.3154H47.3841C48.3353 16.3154 49.9313 16.0006 50.4758 17.0267C50.9686 18.4775 50.5259 20.2261 50.6253 21.7383H39.6413C39.5443 21.6778 39.4322 21.6458 39.3179 21.6458C39.2035 21.6458 39.0915 21.6778 38.9944 21.7383C33.7688 21.7353 28.5407 21.7353 23.31 21.7383C23.3527 20.4003 23.239 19.001 23.3071 17.6481ZM21.0492 23.3746C21.5877 23.0515 22.254 22.7516 22.7903 22.3725H27.178C25.8476 23.6939 24.5926 24.99 23.2218 26.2831H16.2957C17.8027 25.2218 19.4832 24.3648 21.0492 23.3746ZM17.7496 31.5369C16.3481 31.8001 15.6945 30.6925 15.8291 29.466C15.7212 28.5784 15.7627 27.679 15.9517 26.8051H22.969C22.8942 28.3756 23.0094 29.9626 22.969 31.5369H17.7496ZM24.0549 31.5369V26.8051H31.9532C31.921 28.3794 31.9532 29.9619 31.9412 31.5369H24.0549ZM33.0346 31.5369V26.8051H40.9142C40.9142 28.3821 40.9142 29.9594 40.9142 31.5369H33.0346ZM57.3913 31.5369C55.2621 31.5444 53.1143 31.5316 50.9783 31.5369V26.8051H57.87C58.1093 27.3795 58.1961 28.0061 58.122 28.6239C58.122 29.3897 58.4241 31.2901 57.3913 31.5369Z" fill="#262626"/>
</g>
<defs>
<linearGradient id="paint0_linear_670_6411" x1="-3.34263e-07" y1="-10.6277" x2="90.5319" y2="94.4681" gradientUnits="userSpaceOnUse">
<stop stop-color="#E3F1FF"/>
<stop offset="1" stop-color="#77B2EA"/>
</linearGradient>
<clipPath id="clip0_670_6411">
<rect width="44.8723" height="44.8723" fill="white" transform="translate(14.5371 15.3271)"/>
</clipPath>
</defs>
</svg>
