<svg width="74" height="74" viewBox="0 0 74 74" fill="none" xmlns="http://www.w3.org/2000/svg">
<g clip-path="url(#clip0_405_2561)">
<path d="M26.2653 29.9121C26.114 29.8742 25.9823 29.766 25.921 29.6115C25.8263 29.3723 25.9282 29.101 26.1567 28.9829L26.648 28.7297L25.9797 28.9201C25.7364 28.9901 25.4842 28.8692 25.3839 28.64C25.2833 28.4117 25.3681 28.1432 25.5811 28.0131L28.4592 26.2555L26.5073 26.8131C26.2654 26.8855 26.0111 26.761 25.911 26.5308C25.8109 26.3006 25.8978 26.0317 26.1135 25.9032L27.6762 24.9729L26.9136 25.1902C26.7234 25.2457 26.5188 25.1821 26.392 25.0297C26.2652 24.8773 26.241 24.6651 26.3289 24.4871L26.9806 23.1772C26.8882 23.1138 26.8159 23.0195 26.7825 22.9018C26.7067 22.6365 26.8606 22.3595 27.1259 22.2837L27.6867 22.1231C27.8779 22.0679 28.0818 22.1303 28.2084 22.2836C28.3352 22.436 28.3593 22.6482 28.2715 22.8262L27.7285 23.916L31.0948 22.9548C31.3371 22.8846 31.592 23.0071 31.6911 23.2371C31.7911 23.4673 31.7042 23.7362 31.4886 23.8647L29.927 24.7943L31.7234 24.2812C31.9641 24.2095 32.2192 24.3311 32.3192 24.5613C32.4198 24.7896 32.3351 25.058 32.1221 25.1882L29.2428 26.9465L31.2068 26.3858C31.4549 26.3129 31.7149 26.4439 31.8089 26.6819C31.9036 26.9211 31.8017 27.1924 31.5732 27.3104L31.0203 27.5957C31.2056 27.5885 31.3839 27.6836 31.4769 27.8513C31.5904 28.0529 31.5495 28.3065 31.3792 28.4639L30.7484 29.044C30.9432 29.065 31.1105 29.2037 31.1669 29.4024C31.2427 29.6678 31.0888 29.9447 30.8235 30.0205L29.0581 30.5248C28.8345 30.5905 28.5985 30.4912 28.4844 30.2884C28.3709 30.0868 28.4118 29.8331 28.5821 29.6758L29.1471 29.1565L26.5236 29.9057C26.4358 29.9311 26.3473 29.9306 26.2648 29.91L26.2653 29.9121Z" fill="#ECD9A4"/>
<path d="M46.0069 34.8593C45.8575 34.8219 45.7266 34.7149 45.6648 34.5623C45.5695 34.3251 45.6671 34.0547 45.8922 33.9337L47.5171 33.0643L46.5199 33.3497C46.2773 33.4209 46.0179 33.2961 45.9212 33.0606C45.8245 32.8251 45.918 32.5547 46.1414 32.4323L48.2228 31.2793L46.9481 31.6436C46.7097 31.7148 46.4546 31.5932 46.3523 31.3635C46.252 31.1343 46.3367 30.8658 46.5507 30.7359L47.8303 29.9605L47.3341 30.1022C47.1407 30.1579 46.9351 30.094 46.8093 29.9378C46.683 29.7835 46.6607 29.5676 46.7527 29.3896L47.3386 28.2684C47.2523 28.2055 47.1863 28.1148 47.1553 28.0039C47.0783 27.7393 47.2324 27.4614 47.4988 27.3858L48.0596 27.2253C48.2517 27.1703 48.4595 27.2336 48.5843 27.3896C48.7106 27.5439 48.7329 27.7598 48.6409 27.9378L48.1793 28.8222L51.138 27.9775C51.3779 27.9087 51.6323 28.0291 51.7338 28.2576C51.8342 28.4868 51.7494 28.7553 51.5355 28.8852L50.258 29.6601L52.1631 29.1166C52.4056 29.0454 52.6648 29.1711 52.7627 29.4059C52.8585 29.6412 52.765 29.9116 52.5416 30.034L50.4614 31.1862L51.7438 30.8198C51.9883 30.749 52.2476 30.8748 52.3447 31.1125C52.44 31.3497 52.3424 31.6201 52.1172 31.741L50.4912 32.6112L51.3649 32.3619C51.5769 32.3016 51.8073 32.3861 51.9258 32.5755C52.0439 32.7628 52.0241 33.0063 51.8783 33.1729L50.9408 34.237C51.1899 34.185 51.4488 34.3364 51.5196 34.5892C51.5964 34.8548 51.4425 35.1317 51.1762 35.2073L49.575 35.6651C49.3623 35.7242 49.1326 35.6409 49.0141 35.4514C48.8961 35.2642 48.9158 35.0207 49.0616 34.8541L49.9975 33.7926L46.2671 34.8574C46.1803 34.8831 46.0918 34.8826 46.0083 34.8617L46.0069 34.8593Z" fill="#ECD9A4"/>
<path d="M18.1276 62.8984C17.9617 62.8569 17.8218 62.7322 17.7698 62.5573C17.691 62.2953 17.8376 62.0186 18.0986 61.9355L25.0027 59.7685L16.0816 62.317C15.8184 62.3924 15.5444 62.2433 15.4649 61.9802C15.3859 61.7192 15.5325 61.4425 15.7935 61.3594L27.7444 57.5841L13.4682 61.6627C13.2051 61.738 12.9293 61.5875 12.8518 61.3248C12.7733 61.0619 12.9219 60.7857 13.1836 60.7038L18.7429 58.9836L11.282 61.1142C11.0188 61.1896 10.7448 61.0406 10.6653 60.7774C10.5864 60.5164 10.7329 60.2397 10.993 60.1564L26.2485 55.3282L8.46517 60.4079C8.20103 60.483 7.92532 60.3325 7.84877 60.0701C7.77029 59.8072 7.91882 59.531 8.18054 59.4491L12.569 58.0944L6.33809 59.8743C6.07491 59.9496 5.8009 59.8006 5.72217 59.5387C5.64344 59.2767 5.78882 59.0007 6.04885 58.9174L23.323 53.4133L4.2085 58.8772C3.94508 58.9535 3.66986 58.8011 3.5921 58.5394C3.51337 58.2774 3.66093 58.001 3.92169 57.9188L13.5709 54.9042L4.38459 57.5275C4.12141 57.6029 3.84667 57.4526 3.76819 57.1897C3.68946 56.9277 3.83702 56.6513 4.09875 56.5694L10.8777 54.4536L4.71346 56.2141C4.45004 56.2904 4.17724 56.1406 4.09827 55.8797C4.01808 55.6194 4.16249 55.3432 4.42082 55.2584L21.7186 49.6024L5.18636 54.3254C4.92391 54.4019 4.64917 54.2517 4.57044 53.9897C4.49172 53.7278 4.6371 53.4518 4.89712 53.3685L14.6091 50.2552L5.55944 52.8395C5.29602 52.9158 5.02225 52.7658 4.94352 52.5039C4.86333 52.2436 5.00896 51.9667 5.26801 51.8831L13.8366 49.1164L5.92596 51.3757C5.66375 51.4513 5.38974 51.3023 5.31076 51.0413C5.23034 50.782 5.37402 50.5046 5.63332 50.42L14.4311 47.5365L6.30608 49.8576C6.0429 49.9329 5.76913 49.7829 5.69016 49.5219C5.60997 49.2616 5.7556 48.9847 6.01465 48.9011L8.9589 47.9498L6.61503 48.6195C6.35161 48.6958 6.07881 48.5461 5.99984 48.2851C5.91965 48.0248 6.06406 47.7486 6.32361 47.6631L9.15336 46.7408L6.92738 47.3762C6.66906 47.4527 6.3982 47.3076 6.31486 47.0517C6.23152 46.7958 6.36428 46.5208 6.6168 46.4263L18.7132 41.9503L7.48263 45.1586C7.22236 45.2347 6.95077 45.0883 6.86913 44.8298C6.787 44.5731 6.92414 44.2972 7.17883 44.2063L12.9439 42.1706L7.8676 43.6211C7.61073 43.6959 7.3423 43.5535 7.25677 43.3022C7.17052 43.0497 7.29795 42.7754 7.5444 42.6763L15.5114 39.5044L8.38908 41.5384C8.13464 41.6118 7.86838 41.473 7.77995 41.225C7.69176 40.9762 7.81191 40.7022 8.05448 40.598L13.9257 38.0889L8.89186 39.5262C8.6396 39.5992 8.3748 39.4628 8.28442 39.2185C8.19453 38.9723 8.30959 38.698 8.54902 38.5899L11.9807 37.0421L9.32396 37.8005C9.07606 37.8725 8.81684 37.7426 8.72185 37.5044C8.62711 37.2652 8.72907 36.9939 8.95758 36.8758L10.9708 35.8346L9.7274 36.1893C9.49042 36.2588 9.2404 36.1415 9.1362 35.9196C9.03223 35.6967 9.10703 35.4309 9.31129 35.2944L10.1987 34.6981L10.0932 34.7284C9.8955 34.785 9.68355 34.7134 9.55895 34.5523C9.43386 34.3891 9.42157 34.1664 9.52762 33.9899L9.94091 33.3027C9.87739 33.2435 9.82866 33.1663 9.80299 33.0754C9.72717 32.81 9.88104 32.5331 10.1464 32.4573L10.7016 32.2984C10.8981 32.2424 11.1115 32.3123 11.2359 32.4744C11.361 32.6377 11.3732 32.8603 11.2672 33.0369L11.0379 33.4176L12.9708 32.8655C13.2078 32.796 13.4581 32.9123 13.562 33.1352C13.666 33.3581 13.5912 33.6239 13.3869 33.7604L12.4973 34.3572L15.5058 33.4992C15.7549 33.4265 16.0129 33.5571 16.1079 33.7953C16.2027 34.0345 16.1007 34.3059 15.8722 34.4239L13.8614 35.4636L18.2981 34.1963C18.5509 34.1215 18.8145 34.2586 18.9056 34.5041C18.9967 34.7495 18.8804 35.0245 18.641 35.1326L15.2102 36.6807L21.2912 34.9437C21.5459 34.8693 21.8119 35.0091 21.9004 35.257C21.9888 35.5049 21.8684 35.7799 21.6258 35.8841L15.7534 38.3939L24.782 35.8156C25.0391 35.7398 25.3063 35.883 25.3928 36.1346C25.4793 36.3861 25.3516 36.6613 25.1052 36.7604L17.1382 39.9323L28.392 36.7175C28.6513 36.6412 28.9239 36.7878 29.0055 37.0464C29.0876 37.303 28.9505 37.5789 28.6958 37.6698L22.9332 39.704L31.0582 37.383C31.318 37.3089 31.5881 37.4528 31.6707 37.7075C31.7541 37.9634 31.6213 38.2384 31.3688 38.3329L19.2712 42.8096L34.904 38.3439C35.1657 38.2661 35.4397 38.4151 35.5192 38.6783C35.5994 38.9386 35.455 39.2148 35.1954 39.3003L32.3511 40.2272L37.0585 38.8833C37.3202 38.8056 37.5959 38.956 37.6744 39.219C37.7536 39.479 37.608 39.7559 37.3489 39.8395L34.3969 40.7931L39.2033 39.4204C39.4662 39.346 39.7388 39.4926 39.8185 39.7548C39.8989 40.0141 39.7552 40.2915 39.4969 40.3763L30.7105 43.2554L41.8353 40.0783C42.098 40.0008 42.3705 40.1515 42.4514 40.413C42.5314 40.6743 42.3858 40.9512 42.1267 41.0348L33.5492 43.8043L44.372 40.7135C44.6354 40.6372 44.9072 40.7867 44.9879 41.0491C45.0678 41.3104 44.9222 41.5873 44.6622 41.6706L34.9657 44.7796L46.9477 41.3574C47.2109 41.2821 47.4832 41.4296 47.5629 41.6918C47.6441 41.9523 47.4996 42.2285 47.2413 42.3133L29.9394 47.9693L50.2231 42.1754C50.4868 42.0982 50.7613 42.2494 50.8395 42.5133C50.9182 42.7752 50.7707 43.0517 50.5099 43.1338L43.7368 45.247L52.4991 42.7443C52.7618 42.6668 53.0372 42.8182 53.1155 43.0821C53.1942 43.3441 53.0467 43.6205 52.7859 43.7027L43.1501 46.7134L54.9235 43.3503C55.1862 43.2728 55.4609 43.423 55.5394 43.6859C55.6194 43.9472 55.4728 44.2239 55.2127 44.3072L37.9209 49.8162L57.9278 44.1025C58.1924 44.0255 58.4657 44.1774 58.5451 44.4406C58.6236 44.7035 58.4741 44.9795 58.2124 45.0614L53.853 46.4068L60.0585 44.634C60.3212 44.5564 60.5949 44.7064 60.6751 44.9708C60.7541 45.2318 60.6075 45.5085 60.3465 45.5916L45.0888 50.4203L62.5046 45.4454C62.7685 45.3672 63.0426 45.5203 63.122 45.7835C63.2005 46.0464 63.052 46.3226 62.7902 46.4045L57.2144 48.1288L62.1884 46.7084C62.4511 46.6309 62.7249 46.7809 62.805 47.0453C62.884 47.3063 62.7374 47.583 62.4764 47.6661L50.5159 51.4431L61.8105 48.2178C62.0732 48.1403 62.3469 48.2903 62.4271 48.5547C62.5058 48.8167 62.3583 49.0931 62.0973 49.1762L55.2211 51.3347L61.4775 49.5478C61.7402 49.4703 62.0139 49.6202 62.0941 49.8846C62.1728 50.1466 62.0253 50.423 61.7655 50.5054L56.3874 52.1978L61.1549 50.836C61.4176 50.7585 61.6914 50.9085 61.7716 51.1729C61.8505 51.4339 61.7039 51.7105 61.4439 51.7939L56.1812 53.4616L60.8309 52.1342C61.095 52.0591 61.3664 52.2064 61.4463 52.4676C61.5263 52.7289 61.3831 53.0044 61.1255 53.0904L49.5013 56.9196L60.4131 53.8027C60.6751 53.7281 60.9467 53.8744 61.0274 54.1327C61.1092 54.3903 60.9702 54.6658 60.7157 54.7557L46.202 59.7995L59.8916 55.8895C60.1539 55.8139 60.4245 55.96 60.5066 56.2208C60.5885 56.4784 60.447 56.7553 60.1908 56.8437L50.7427 60.0767L59.4673 57.5842C59.7269 57.5069 59.9994 57.6535 60.0808 57.913C60.1639 58.1699 60.0258 58.4456 59.7721 58.5367L50.7508 61.724L59.0224 59.3613C59.2848 59.2848 59.554 59.4326 59.6368 59.6904C59.7187 59.948 59.5804 60.2247 59.3249 60.3144L54.1626 62.1206L58.6536 60.838C58.9115 60.7634 59.1809 60.9061 59.2657 61.1603C59.3505 61.4145 59.2197 61.69 58.9688 61.7859L52.0694 64.4118L58.197 62.6617C58.4498 62.5868 58.7177 62.7271 58.8069 62.9762C58.8946 63.2271 58.7723 63.5016 58.5273 63.6031L52.4091 66.1637L57.6993 64.6535C57.9572 64.5788 58.2266 64.7216 58.3114 64.9758C58.3962 65.23 58.2656 65.5045 58.0145 65.6014L57.3875 65.8413L57.403 65.8369C57.6475 65.7662 57.907 65.8909 58.0032 66.1284C58.0987 66.3647 58.003 66.6356 57.7789 66.7568L54.2907 68.6492L56.8844 67.908C57.129 67.8373 57.3879 67.964 57.4853 68.2007C57.5808 68.437 57.483 68.7083 57.2579 68.8293L56.6017 69.1814C56.8052 69.1386 57.0135 69.2289 57.1247 69.4062C57.2425 69.5945 57.2216 69.8387 57.0738 70.0048L56.394 70.7644C56.5523 70.8113 56.684 70.936 56.7329 71.107C56.8097 71.3726 56.6558 71.6495 56.3895 71.7251L55.1015 72.0933C54.8885 72.1533 54.6577 72.0667 54.5399 71.8784C54.4221 71.6902 54.443 71.4459 54.5908 71.2799L55.1736 70.6279L52.4048 71.418C52.1619 71.4902 51.901 71.363 51.8039 71.1253C51.7084 70.8891 51.8062 70.6177 52.0313 70.4967L52.679 70.1497L50.1843 70.8621C49.9415 70.9342 49.6813 70.8083 49.5841 70.5706C49.4887 70.3343 49.5843 70.0634 49.8085 69.9422L53.2987 68.0493L46.5963 69.9626C46.3385 70.0373 46.0691 69.8945 45.9843 69.6403C45.8995 69.3861 46.0301 69.1116 46.2811 69.0147L46.9057 68.7763L44.5476 69.4497C44.2938 69.5243 44.0261 69.383 43.9377 69.1351C43.85 68.8843 43.9723 68.6098 44.2173 68.5083L50.3357 65.9466L41.098 68.586C40.8402 68.6606 40.5708 68.5179 40.486 68.2636C40.4012 68.0094 40.532 67.734 40.7828 67.638L47.681 65.0129L37.9408 67.7944C37.6802 67.8714 37.4091 67.7231 37.3263 67.4653C37.2444 67.2077 37.3828 66.931 37.6382 66.8414L42.8027 65.0346L35.383 67.1529C35.1222 67.2268 34.8499 67.0834 34.7695 66.8241C34.6864 66.5672 34.8245 66.2915 35.0782 66.2004L44.0937 63.0158L32.306 66.3825C32.0435 66.459 31.7731 66.312 31.691 66.0512C31.6094 65.7926 31.7506 65.5167 32.0068 65.4282L41.4525 62.1967L29.3728 65.647C29.1122 65.724 28.8402 65.5755 28.7585 65.3169C28.6769 65.0584 28.8148 64.7836 29.0711 64.6942L43.5873 59.6489L25.7583 64.742C25.4961 64.8176 25.2228 64.6698 25.1429 64.4085C25.0627 64.1483 25.2062 63.8718 25.4647 63.7861L37.0867 59.9573L22.8685 64.0185C22.6044 64.0935 22.3304 63.9445 22.2529 63.6818C22.1739 63.4208 22.3195 63.1439 22.5805 63.0608L27.8543 61.3897L20.6219 63.4559C20.3587 63.5313 20.0828 63.3818 20.0052 63.1191C19.9265 62.8571 20.0731 62.5804 20.3339 62.4983L25.6952 60.811L18.3908 62.8973C18.303 62.9227 18.2144 62.9222 18.132 62.9016L18.1276 62.8984Z" fill="white"/>
<path d="M26.9907 39.3458C26.8277 39.305 26.6893 39.1827 26.635 39.0125C26.5531 38.7549 26.6915 38.4782 26.9469 38.3885L27.7704 38.1009L25.2136 38.8308C24.9577 38.9059 24.6912 38.7639 24.604 38.5152C24.5175 38.2637 24.6408 37.9894 24.8867 37.8882L32.1549 34.8928L21.5662 37.9175C21.3103 37.9926 21.0409 37.8499 20.9553 37.5986C20.8691 37.3461 20.9965 37.0718 21.2442 36.972L27.7997 34.3652L18.2593 37.0895C17.9997 37.1668 17.7293 37.0197 17.6455 36.7616C17.5634 36.505 17.6993 36.2298 17.9533 36.1377L20.3195 35.2921L16.0041 36.5238C15.7441 36.5989 15.4742 36.454 15.3911 36.1971C15.3078 35.9412 15.4427 35.6658 15.6957 35.5735L19.0597 34.3499L13.5771 35.9161C13.3197 35.9929 13.0508 35.8483 12.966 35.594C12.8809 35.3408 13.0106 35.0661 13.2606 34.9689L18.9152 32.7942L10.5961 35.1697C10.3402 35.2448 10.0717 35.1023 9.98524 34.8508C9.89923 34.5973 10.0267 34.3231 10.2741 34.2242L16.7517 31.6566L8.31688 34.0661C8.05977 34.1419 7.79158 33.9985 7.70557 33.745C7.62077 33.4908 7.75039 33.216 7.99951 33.1186L12.9259 31.2172L8.60269 32.4511C8.34533 32.5279 8.07641 32.3833 7.99138 32.13C7.90658 31.8758 8.03619 31.6011 8.28531 31.5037L10.5424 30.6328L8.94468 31.0894C8.6895 31.1657 8.42373 31.025 8.33578 30.7751C8.24783 30.5253 8.37017 30.2508 8.61444 30.148L10.7484 29.2504L9.30294 29.6627C9.06256 29.7334 8.80794 29.6099 8.70713 29.3826C8.6068 29.1534 8.69154 28.8849 8.90648 28.7552L11.6346 27.0983L9.81616 27.6171C9.60974 27.6757 9.38712 27.5973 9.26519 27.4173C9.14398 27.2385 9.15038 27.003 9.28189 26.8318L10.2428 25.5797C10.0284 25.5796 9.82956 25.435 9.76755 25.2174C9.69173 24.9521 9.8456 24.6752 10.1112 24.5984L11.4011 24.2307C11.6078 24.1752 11.8299 24.2515 11.9519 24.4315C12.0731 24.6103 12.0657 24.8455 11.9352 25.0169L10.9968 26.2407L14.9329 25.116C15.1742 25.0455 15.4288 25.1691 15.5287 25.3961C15.629 25.6253 15.5443 25.8938 15.3293 26.0235L12.6012 27.6805L18.4755 26.003C18.7321 25.9292 18.9972 26.0687 19.0844 26.3173C19.1716 26.566 19.05 26.8417 18.8057 26.9444L16.6706 27.8427L20.9462 26.6217C21.205 26.5473 21.4725 26.6895 21.5576 26.9428C21.6423 27.197 21.5127 27.4717 21.2636 27.5691L19.0055 28.4397L23.3042 27.2131C23.563 27.1387 23.8305 27.281 23.9155 27.5342C24.0003 27.7884 23.8707 28.0632 23.6216 28.1606L18.7008 30.0603L26.162 27.9286C26.4176 27.8545 26.6863 27.996 26.7728 28.2476C26.8588 28.501 26.7314 28.7753 26.484 28.8742L20.003 31.4429L29.4378 28.7489C29.6967 28.6745 29.9651 28.817 30.0489 29.0709C30.134 29.3242 30.0043 29.5989 29.7543 29.6961L24.0985 31.8715L32.4198 29.4955C32.6784 29.418 32.9487 29.5651 33.0328 29.8222C33.1161 30.0781 32.9812 30.3536 32.7282 30.4459L29.3643 31.6695L34.8469 30.1032C35.1079 30.0284 35.3785 30.1745 35.4606 30.4311C35.5427 30.6877 35.4068 30.963 35.1528 31.055L32.7898 31.9004L37.102 30.6689C37.3586 30.595 37.6263 30.7363 37.7128 30.9878C37.7991 31.2403 37.6717 31.5146 37.424 31.6144L30.8673 34.222L40.4089 31.4969C40.6636 31.4226 40.9303 31.5636 41.0185 31.8124C41.106 32.0642 40.9827 32.3385 40.7367 32.4398L33.4698 35.4344L44.0573 32.4104C44.3185 32.3346 44.5889 32.4817 44.6718 32.7395C44.7536 32.9971 44.6153 33.2738 44.3599 33.3635L43.5364 33.651L46.0942 32.9215C46.3489 32.8471 46.6156 32.9881 46.7038 33.237C46.792 33.4858 46.6682 33.762 46.4242 33.8638L38.9658 36.9724L49.8551 33.8631C50.1148 33.789 50.3843 33.9317 50.4676 34.1876C50.5521 34.4428 50.4194 34.7178 50.1669 34.8123L45.6279 36.5045L52.5314 34.5333C52.7893 34.4587 53.0587 34.6014 53.1435 34.8556C53.2283 35.1098 53.0977 35.3843 52.8479 35.4805L47.3721 37.5752L55.4571 35.2658C55.7184 35.19 55.9887 35.3371 56.0716 35.5949C56.1535 35.8525 56.0151 36.1292 55.7597 36.2188L55.1894 36.4173L57.4632 35.7681C57.7237 35.6911 57.9953 35.8374 58.0767 36.097C58.1598 36.3538 58.0217 36.6295 57.768 36.7207L56.1687 37.2861L59.6039 36.3051C59.8556 36.23 60.1248 36.3696 60.2128 36.6194C60.3007 36.8693 60.1791 37.145 59.9351 37.2468L52.3913 40.4081L63.4172 37.2599C63.6769 37.1858 63.9473 37.3288 64.0304 37.5856C64.1135 37.8425 63.9788 38.117 63.7265 38.2105L60.0213 39.5662L65.7892 37.9188C66.0497 37.8418 66.3213 37.9881 66.4026 38.2476C66.4857 38.5045 66.3476 38.7802 66.0939 38.8713L64.5786 39.4063L66.195 38.9451C66.4502 38.8688 66.7184 39.0122 66.8051 39.2628C66.8926 39.5146 66.7659 39.7901 66.5194 39.8892L61.1431 42.0603L65.7452 40.7458C65.9946 40.6721 66.2581 40.8051 66.35 41.0477C66.442 41.2893 66.3335 41.5621 66.1009 41.676L61.2903 44.0084L65.2072 42.8903C65.4551 42.8184 65.7189 42.9504 65.8112 43.191C65.9033 43.4326 65.797 43.705 65.5651 43.8201L63.7382 44.7183L64.8261 44.4082C65.0612 44.3382 65.3114 44.4545 65.4176 44.6769C65.5206 44.8996 65.447 45.1647 65.2434 45.3023L64.1166 46.0645L64.4341 45.9739C64.698 45.8956 64.9769 46.05 65.0522 46.3173C65.129 46.5829 64.9751 46.8598 64.7088 46.9354L61.3745 47.8881C61.1388 47.9569 60.8895 47.8408 60.7831 47.6194C60.6801 47.3967 60.7537 47.1316 60.9572 46.9939L62.0843 46.2308L58.6613 47.2087C58.4139 47.2828 58.1505 47.1489 58.0572 46.908C57.9652 46.6664 58.0715 46.3941 58.3034 46.2789L60.1315 45.38L56.0324 46.5505C55.7833 46.6231 55.5195 46.4911 55.4277 46.2485C55.3356 46.0069 55.4441 45.7341 55.6767 45.6202L60.4863 43.2876L52.3191 45.6207C52.0646 45.6941 51.7947 45.5533 51.709 45.303C51.6215 45.0512 51.7482 44.7757 51.9947 44.6766L57.371 42.5055L49.1994 44.8396C48.9384 44.9144 48.6673 44.7703 48.5859 44.5107C48.5028 44.2538 48.6409 43.9781 48.8946 43.887L50.409 43.3518L47.0694 44.3052C46.8101 44.3815 46.5402 44.2366 46.4561 43.9795C46.373 43.7226 46.5077 43.4481 46.76 43.3546L50.4652 41.999L44.5763 43.681C44.3229 43.7546 44.0554 43.6165 43.9675 43.3667C43.8795 43.1168 44.0011 42.8411 44.2451 42.7394L51.7889 39.578L40.7631 42.7262C40.5011 42.8008 40.23 42.6566 40.1496 42.3973C40.0665 42.1405 40.2046 41.8648 40.4583 41.7737L42.0575 41.2082L38.6224 42.1892C38.3602 42.2648 38.0908 42.1179 38.0079 41.8601C37.926 41.6025 38.0644 41.3258 38.3198 41.2361L38.8935 41.0365L36.6163 41.6869C36.3599 41.7639 36.0891 41.6188 36.0043 41.3646C35.9195 41.1104 36.0501 40.8359 36.2999 40.7397L41.7757 38.6449L33.6897 40.9541C33.4313 41.0306 33.1615 40.8857 33.0771 40.6296C32.9936 40.3747 33.1254 40.0994 33.3779 40.0049L37.9168 38.3127L31.0143 40.2842C30.7591 40.3605 30.4926 40.2185 30.4056 39.9689C30.3177 39.7191 30.4402 39.4436 30.6852 39.3421L38.1426 36.2333L27.2553 39.343C27.1675 39.3684 27.079 39.3679 26.9965 39.3473L26.9907 39.3458Z" fill="#7FC3CF"/>
<path d="M9.74222 60.8287C9.5841 60.7891 9.45002 60.6741 9.39211 60.5101C9.30392 60.2613 9.42408 59.9872 9.66665 59.883L13.5767 58.2117L10.1539 59.1886C9.90165 59.2615 9.63855 59.1266 9.5472 58.882C9.45682 58.6378 9.5697 58.364 9.80646 58.2542L15.5245 55.616L10.7026 56.9931C10.4479 57.0675 10.1819 56.9277 10.0935 56.6798C10.0055 56.4299 10.1269 56.1552 10.3702 56.0522L14.3396 54.37L11.1298 55.2868C10.8727 55.3626 10.6026 55.2187 10.5188 54.9647C10.434 54.7105 10.5636 54.4358 10.8134 54.3396L11.6336 54.0243L11.4327 54.0813C11.1792 54.1549 10.9147 54.0175 10.8248 53.7713C10.7349 53.5251 10.8521 53.2504 11.0921 53.1445L16.092 50.9244L11.9253 52.114C11.6699 52.1871 11.4046 52.0486 11.3169 51.8019C11.2287 51.553 11.3479 51.2787 11.5895 51.1743L15.9624 49.2889L12.3763 50.3126C12.126 50.386 11.8644 50.2535 11.7716 50.0107C11.6785 49.7688 11.787 49.496 12.0206 49.3823L16.9295 47.0034L12.9182 48.1484C12.6711 48.2216 12.4138 48.0922 12.3173 47.8557C12.2219 47.6194 12.3187 47.3478 12.5438 47.2269L14.9583 45.9295L13.3595 46.3858C13.1158 46.4578 12.8602 46.334 12.7618 46.1011C12.6634 45.8682 12.7533 45.6 12.9716 45.4733L13.4999 45.1664C13.3372 45.1535 13.1813 45.0639 13.0964 44.9128C12.9828 44.7122 13.0214 44.459 13.1908 44.3014L13.5928 43.9268C13.4994 43.8632 13.4272 43.7689 13.3938 43.6512C13.318 43.3859 13.4718 43.109 13.7374 43.0322L15.0274 42.6645C15.2493 42.6015 15.4857 42.6988 15.6001 42.9007C15.7138 43.1013 15.6752 43.3545 15.5058 43.5121L15.3945 43.6151L16.9954 43.1583C17.2408 43.0878 17.4942 43.212 17.5931 43.443C17.6915 43.6758 17.6017 43.944 17.3833 44.0708L16.9564 44.3185L19.1392 43.695C19.3871 43.6231 19.6444 43.7525 19.7401 43.9878C19.8356 44.224 19.7387 44.4956 19.5136 44.6166L17.1003 45.9133L22.1917 44.4604C22.4437 44.3884 22.7044 44.5207 22.7965 44.7623C22.8895 45.0042 22.781 45.277 22.5474 45.3906L17.6408 47.7691L23.1387 46.1995C23.3926 46.1239 23.6586 46.2637 23.7471 46.5116C23.8355 46.7595 23.7161 47.0347 23.4745 47.1392L19.1016 49.0245L22.691 47.9996C22.9435 47.9258 23.209 48.0634 23.2989 48.3096C23.3888 48.5558 23.2716 48.8305 23.0317 48.9364L18.0351 51.1553L22.2021 49.9647C22.4599 49.8901 22.7293 50.0328 22.8131 50.2868C22.8979 50.541 22.7683 50.8157 22.5185 50.9119L21.6857 51.2323L21.9021 51.171C22.1568 51.0966 22.4238 51.2367 22.5112 51.4843C22.5992 51.7342 22.4778 52.0089 22.2345 52.1119L18.2663 53.7934L21.4783 52.8761C21.7298 52.802 21.9926 52.9379 22.085 53.1826C22.1753 53.4269 22.0625 53.7007 21.8257 53.8105L16.1099 56.4482L20.9342 55.0696C21.1889 54.9953 21.4549 55.1351 21.5433 55.383C21.6315 55.6318 21.5114 55.9059 21.2688 56.0101L17.3575 57.6821L20.5096 56.7818C20.7624 56.7069 21.0259 56.8441 21.1168 57.0905C21.2067 57.3367 21.0919 57.61 20.8525 57.7181L18.8924 58.6005L20.1458 58.2432C20.3987 58.1715 20.6601 58.305 20.752 58.5475C20.8433 58.792 20.7317 59.0651 20.4966 59.1763L20.0471 59.3865C20.1955 59.403 20.3413 59.4879 20.4232 59.626C20.5398 59.8191 20.513 60.066 20.3565 60.2299L19.3385 61.2945L19.3906 61.2797C19.6545 61.2014 19.9322 61.3565 20.0087 61.6231C20.0845 61.8885 19.9307 62.1654 19.6653 62.2412L17.8403 62.7615C17.6224 62.8245 17.3909 62.7325 17.2743 62.5394C17.1577 62.3463 17.1844 62.0994 17.3409 61.9355L18.3578 60.8716L14.5695 61.9539C14.3179 62.028 14.0561 61.8923 13.9633 61.6495C13.8719 61.405 13.9836 61.132 14.2186 61.0207L14.4627 60.9066L12.5464 61.4535C12.2932 61.5262 12.0291 61.391 11.9392 61.1448C11.8493 60.8986 11.9642 60.6253 12.2036 60.5172L14.1648 59.6341L9.9981 60.8237C9.91029 60.8491 9.82176 60.8486 9.73931 60.828L9.74222 60.8287Z" fill="#7FC3CF"/>
<path d="M29.1867 56.3896C29.0286 56.35 28.8945 56.235 28.8366 56.071C28.7487 55.8212 28.8698 55.5474 29.1131 55.4444L31.9442 54.241L27.0199 55.6481C26.7616 55.7247 26.4917 55.5798 26.4076 55.3227C26.3243 55.0667 26.4571 54.7918 26.7103 54.6985L27.1758 54.5274L26.7562 54.6471C26.5017 54.7205 26.2381 54.5833 26.148 54.3381C26.0593 54.0912 26.1744 53.8169 26.4145 53.71L31.6568 51.3744L27.2614 52.6294C27.0094 52.7013 26.7446 52.5649 26.6547 52.3228C26.5648 52.0766 26.6776 51.8028 26.9161 51.6945L29.3739 50.5698L27.6539 51.0618C27.4222 51.1305 27.1766 51.0206 27.0687 50.8049C26.9619 50.5895 27.0221 50.3283 27.2142 50.1826L29.3904 48.5359L28.2014 48.8752C27.9811 48.9397 27.7461 48.8448 27.6312 48.6449C27.5171 48.4462 27.5511 48.1949 27.7166 48.0364L28.1754 47.5915C28.0684 47.5286 27.9846 47.4272 27.9477 47.2984C27.8719 47.0331 28.0258 46.7562 28.2914 46.6794L29.5813 46.3117C29.8021 46.2494 30.0378 46.3455 30.1512 46.543C30.2654 46.7417 30.2313 46.9929 30.0659 47.1515L29.8439 47.367L31.6881 46.8402C31.9207 46.7716 32.1649 46.8833 32.2732 47.097C32.3801 47.3124 32.3198 47.5736 32.1277 47.7193L29.9516 49.366L35.4751 47.7884C35.7269 47.7133 35.9905 47.8505 36.0819 48.095C36.1718 48.3412 36.0589 48.615 35.8204 48.7233L33.3607 49.8475L38.1903 48.4683C38.4431 48.3934 38.7081 48.533 38.7975 48.777C38.8872 49.0242 38.7711 49.2982 38.532 49.4053L33.2906 51.7412L39.7382 49.8991C39.9979 49.8249 40.2664 49.9674 40.3514 50.2248C40.4348 50.4807 40.301 50.7554 40.0478 50.8487L39.5209 51.0425C39.7472 51.0157 39.9773 51.1465 40.057 51.3716C40.145 51.6215 40.0239 51.8952 39.7815 51.9985L36.9449 53.2036L39.0622 52.5987C39.3128 52.5244 39.5776 52.6608 39.6689 52.9053C39.759 53.1505 39.6459 53.4253 39.4075 53.5336L37.9287 54.2107L38.7137 53.9866C38.9591 53.9161 39.222 54.0438 39.3155 54.2837C39.4103 54.5229 39.3071 54.795 39.0788 54.912L38.5289 55.1939C38.7011 55.1896 38.8679 55.2726 38.9642 55.4235C39.0839 55.6081 39.0676 55.8504 38.9247 56.0177L38.1608 56.915C38.3143 56.9483 38.4879 57.0825 38.5415 57.2681C38.6183 57.5337 38.4644 57.8106 38.1981 57.8862L36.9101 58.2544C36.6983 58.3137 36.4708 58.2299 36.3523 58.0446C36.2326 57.86 36.2489 57.6177 36.3918 57.4504L37.0911 56.6297L33.9757 57.5196C33.7307 57.5923 33.4683 57.4627 33.3738 57.2225C33.279 56.9834 33.3822 56.7113 33.6105 56.5942L34.0908 56.3475L31.8503 56.9875C31.5973 57.0592 31.3354 56.9235 31.2436 56.6809C31.1534 56.4357 31.2665 56.1609 31.505 56.0526L32.9849 55.3748L29.4455 56.3853C29.3577 56.4108 29.2692 56.4103 29.1867 56.3896Z" fill="#7FC3CF"/>
<path d="M45.8794 60.5692C45.7223 60.5299 45.5882 60.4149 45.5293 60.2507C45.4411 60.0018 45.5615 59.7268 45.8048 59.6238L47.3306 58.9729L43.8045 59.9796C43.5534 60.0518 43.2862 59.9168 43.198 59.6721C43.1081 59.4259 43.2222 59.1514 43.4614 59.0443L48.996 56.5416L42.2967 58.4547C42.0454 58.5279 41.7804 58.3924 41.6902 58.1472C41.6001 57.902 41.713 57.6282 41.9524 57.5201L47.3109 55.0744L42.8233 56.3558C42.5718 56.4299 42.3031 56.2925 42.2156 56.0449C42.1269 55.7979 42.2442 55.5232 42.485 55.4175L44.1792 54.6748L43.1723 54.9618C42.9295 55.034 42.6693 54.908 42.5731 54.6705C42.4764 54.435 42.5718 54.1651 42.7953 54.0427L44.3206 53.2082L43.5568 53.4262C43.347 53.486 43.1229 53.4052 43.0024 53.2235C42.882 53.0418 42.8932 52.8034 43.0296 52.6334L43.9038 51.5421C43.7067 51.5226 43.5277 51.385 43.4693 51.1817C43.3926 50.9161 43.5464 50.6392 43.8128 50.5636L45.1017 50.1957C45.3103 50.1366 45.5354 50.2177 45.6558 50.3994C45.7766 50.5801 45.7653 50.8185 45.6289 50.9885L44.7911 52.0333L48.365 51.0128C48.6095 50.942 48.8687 51.0678 48.9644 51.3031C49.0609 51.5396 48.9655 51.8095 48.742 51.9319L47.2155 52.7671L51.0246 51.6797C51.2764 51.6046 51.5439 51.7427 51.6323 51.9906C51.721 52.2376 51.6037 52.5123 51.3629 52.618L49.6687 53.3607L53.4391 52.2843C53.6899 52.209 53.9547 52.3454 54.0456 52.5918C54.1357 52.837 54.0228 53.1108 53.7834 53.2189L48.4273 55.6632L55.2755 53.7069C55.5251 53.6323 55.7928 53.7695 55.882 54.0145C55.9719 54.2607 55.8578 54.5352 55.6186 54.6423L50.0816 57.1464L54.7514 55.8127C55.0044 55.7369 55.2714 55.8769 55.3605 56.126C55.4487 56.3749 55.3283 56.6499 55.085 56.7529L53.5592 57.4038L54.415 57.1603C54.6653 57.0869 54.9296 57.2212 55.021 57.4657C55.1113 57.7099 54.9997 57.983 54.7627 58.0937L54.0997 58.403L54.1041 58.402C54.3314 58.3342 54.5773 58.439 54.6861 58.6549C54.7947 58.8677 54.739 59.1269 54.5525 59.2751L53.4006 60.1866L53.6781 60.1076C53.9429 60.0296 54.2206 60.1847 54.2962 60.451C54.3729 60.7166 54.2191 60.9935 53.9527 61.0691L51.247 61.8421C51.018 61.9084 50.774 61.8041 50.665 61.5891C50.5564 61.3764 50.612 61.1171 50.7986 60.969L51.9517 60.0568L48.2915 61.101C48.0411 61.1744 47.7771 61.0392 47.6855 60.7957C47.5951 60.5514 47.7068 60.2784 47.9438 60.1676L48.6067 59.8584L46.1399 60.5623C46.053 60.588 45.9636 60.5872 45.8811 60.5666L45.8794 60.5692Z" fill="#7FC3CF"/>
<path d="M28.5144 24.2643C28.3495 24.223 28.2096 24.0983 28.1573 23.9244C28.0774 23.6631 28.2227 23.3872 28.483 23.3029L29.7744 22.8881L26.748 23.7519C26.4858 23.8275 26.2127 23.6787 26.1325 23.4184C26.0521 23.1591 26.1948 22.8815 26.4534 22.7957L35.046 19.9578L24.6717 22.9207C24.4092 22.9973 24.1357 22.8463 24.0555 22.586C23.9763 22.326 24.12 22.0486 24.3803 21.9643L29.232 20.3896L24.6988 21.6843C24.4366 21.7598 24.1619 21.6096 24.0829 21.3486C24.0027 21.0884 24.1483 20.8114 24.4076 20.7269L25.7432 20.2964L24.9915 20.5112C24.7308 20.5892 24.458 20.4395 24.3768 20.179C24.2961 19.9207 24.4376 19.6437 24.6955 19.5568L30.8787 17.4773L25.3563 19.0542C25.097 19.1305 24.825 18.982 24.7428 18.7254C24.6609 18.4678 24.7981 18.1918 25.0537 18.1012L32.5925 15.4581L25.7687 17.4071C25.5094 17.4834 25.2379 17.337 25.155 17.0792C25.0729 16.8225 25.2088 16.5473 25.4628 16.4552L31.3887 14.3371L26.1627 15.8295C25.9071 15.9036 25.6403 15.7626 25.5531 15.514C25.4666 15.2625 25.5899 14.9882 25.8349 14.8867L33.8313 11.5891L26.7158 13.6207C26.4599 13.6958 26.1931 13.5548 26.1064 13.3042C26.0197 13.0536 26.1432 12.7784 26.3889 12.6781L30.7865 10.8711L27.145 11.9107C26.8927 11.9836 26.6286 11.8485 26.5385 11.6032C26.4483 11.358 26.5612 11.0842 26.7997 10.9759L30.0225 9.50461L27.5724 10.2034C27.3323 10.2732 27.0799 10.1533 26.9786 9.92794C26.8765 9.70138 26.9569 9.43389 27.1665 9.30082L29.6046 7.75263L28.0757 8.18936C27.8649 8.24895 27.6394 8.16568 27.5194 7.98204C27.3992 7.79936 27.4133 7.55756 27.5533 7.38953L28.3616 6.41774C28.1736 6.38615 28.0138 6.25439 27.9581 6.06107C27.8823 5.79571 28.0362 5.51879 28.3018 5.442L29.5917 5.0743C29.8025 5.01471 30.0278 5.09896 30.1478 5.2826C30.2678 5.46624 30.2529 5.70683 30.1129 5.87486L29.358 6.78167L32.6522 5.84061C32.8916 5.76964 33.1441 5.88954 33.2461 6.11611C33.3481 6.34267 33.2677 6.61016 33.0581 6.74324L30.6191 8.29118L36.1425 6.71452C36.395 6.64064 36.6588 6.7768 36.749 7.02204C36.8391 7.26727 36.7262 7.54106 36.4878 7.64938L33.2649 9.12065L39.0992 7.45485C39.3539 7.38048 39.6219 7.52076 39.7086 7.77133C39.7953 8.02191 39.6718 8.29714 39.426 8.39746L35.0306 10.204L42.0608 8.19638C42.3164 8.12226 42.5832 8.26327 42.6704 8.5119C42.7569 8.76344 42.6336 9.03771 42.3886 9.13924L34.3934 12.436L45.8884 9.15991C46.1489 9.08288 46.4195 9.22899 46.5021 9.4878C46.5852 9.74468 46.4483 10.0197 46.1944 10.1117L40.2629 12.2315L48.622 9.84437C48.8825 9.76734 49.1529 9.91442 49.2365 10.1735C49.3183 10.4311 49.1802 10.7068 48.9255 10.7976L41.389 13.4402L51.473 10.5582C51.7362 10.4829 52.0073 10.6312 52.0877 10.8905C52.1693 11.149 52.0269 11.4257 51.77 11.5129L45.5889 13.5919L53.9949 11.1907C54.2576 11.1132 54.5313 11.2632 54.6108 11.5264C54.691 11.7866 54.5454 12.0635 54.2861 12.1481L52.9541 12.5764L56.0262 11.6993C56.2894 11.624 56.5621 11.7737 56.6423 12.034C56.7225 12.2943 56.5769 12.5712 56.3186 12.656L51.4602 14.2321L58.3182 12.2742C58.5813 12.1989 58.8537 12.3465 58.9336 12.6077C59.014 12.867 58.8703 13.1444 58.6127 13.2304L50.0211 16.0686L59.1688 13.4552C59.4325 13.3779 59.7043 13.5274 59.7847 13.7908C59.8647 14.0521 59.7193 14.328 59.459 14.4123L58.1756 14.8239L58.8793 14.6239C59.1398 14.5468 59.4092 14.6937 59.4932 14.9508C59.5763 15.2077 59.4392 15.4836 59.1862 15.5759L46.6668 20.0656L58.3524 16.7279C58.6137 16.6521 58.8853 16.7984 58.9674 17.0592C59.0493 17.3168 58.909 17.593 58.6528 17.6814L53.0736 19.5967L57.9867 18.1929C58.2462 18.1198 58.5137 18.262 58.5994 18.5165C58.684 18.7716 58.5512 19.0466 58.2997 19.1414L49.8605 22.3136L57.5014 20.1311C57.7626 20.0553 58.033 20.2024 58.1158 20.4602C58.1977 20.7178 58.0594 20.9945 57.8039 21.0841L56.8618 21.4132L57.206 21.3148C57.4585 21.2409 57.7253 21.3778 57.8147 21.626C57.9031 21.8739 57.7849 22.1484 57.543 22.2538L51.084 25.0641L56.6663 23.4703C56.9166 23.3969 57.1797 23.5318 57.2716 23.7744C57.3634 24.017 57.2525 24.2912 57.0174 24.4025L53.0173 26.2935L56.1859 25.389C56.4362 25.3157 56.6993 25.4506 56.7914 25.6922C56.8827 25.9367 56.7723 26.209 56.537 26.3212L55.3333 26.892L55.8463 26.7452C56.0804 26.6749 56.3331 26.7897 56.4383 27.0161C56.5412 27.2388 56.4662 27.5055 56.261 27.6417L55.2147 28.3374L55.4655 28.2662C55.7303 28.1882 56.008 28.3433 56.0836 28.6096C56.1604 28.8752 56.0065 29.1522 55.7402 29.2277L52.4028 30.1807C52.1672 30.2485 51.9143 30.1346 51.8108 29.9098C51.7078 29.6871 51.7829 29.4203 51.9881 29.2841L53.0344 28.5884L49.7681 29.521C49.5187 29.5946 49.2544 29.4604 49.1628 29.2169C49.0712 28.9733 49.1817 28.701 49.417 28.5888L50.6195 28.0188L47.4186 28.9327C47.1693 29.0063 46.905 28.8721 46.8134 28.6286C46.7218 28.385 46.8325 28.1118 47.0675 28.0005L51.0686 26.1097L44.0962 28.1008C43.8437 28.1747 43.5769 28.0378 43.4875 27.7897C43.3991 27.5418 43.5173 27.2672 43.7592 27.1618L50.2182 24.3515L40.3634 27.1662C40.1032 27.2422 39.8308 27.0947 39.749 26.8371C39.6671 26.5795 39.8054 26.3028 40.0608 26.2131L40.9938 25.888L38.3147 26.6532C38.0563 26.7297 37.7867 26.5839 37.7029 26.3299C37.6183 26.0747 37.7501 25.7995 38.0017 25.7048L46.4421 22.5318L34.9583 25.8128C34.6983 25.8879 34.4247 25.7411 34.3441 25.4827C34.2624 25.2242 34.4027 24.948 34.6589 24.8595L40.2471 22.9414L32.4218 25.1767C32.1623 25.254 31.8909 25.1066 31.8088 24.85C31.7257 24.5931 31.8619 24.3169 32.1159 24.2249L44.6311 19.7352L28.7785 24.2634C28.6907 24.2889 28.6022 24.2883 28.5198 24.2677L28.5144 24.2643Z" fill="#FFCE48"/>
<path d="M7.65838 32.0889C7.17549 33.4164 7.48409 34.4977 9.0554 34.719L3.67446 56.2096C3.42404 57.2097 2.81575 58.5645 3.9251 59.2722C16.5784 62.6878 29.4424 65.6613 42.1661 68.9317C63.4789 74.8867 54.9148 73.3248 62.8614 48.1665C66.0639 48.6457 65.5006 44.3616 66.3745 42.3455C66.6748 40.9115 68.0901 38.4001 65.8464 37.9496C61.2202 36.6593 56.5047 35.6642 51.8572 34.4469L52.9235 30.1884C54.0349 30.513 55.6899 30.7913 56.2021 29.4455C57.3454 24.9248 58.4624 20.3852 59.6038 15.8599C61.8159 11.2161 54.7559 11.9472 52.0135 10.808C27.4363 6.30875 28.7204 -2.0311 24.5029 18.3375C23.7666 20.9117 22.5472 23.2207 26.2962 23.5223L25.23 27.7808C20.3646 27.3183 13.9389 23.2229 9.49283 24.9971C8.61525 27.2422 8.37494 29.7747 7.65838 32.0889ZM8.90514 33.0753C8.9841 32.0436 9.45356 30.9385 9.69137 29.9352L64.5489 43.6708C64.2119 44.6049 64.0516 46.7646 63.4269 47.6535L62.9177 47.526C62.7645 47.2361 62.2317 47.1409 61.8593 47.261C44.7524 42.9859 27.6533 38.6798 10.5435 34.4205C10.3988 34.1214 9.85141 34.0225 9.47422 34.1456C9.1066 33.9752 8.85957 33.6814 8.90514 33.0753ZM10.4158 59.983C11.8876 54.492 13.0856 48.7727 14.6648 43.3798C15.7549 43.6043 16.8971 43.9707 18.0105 44.2175C19.4204 44.6262 20.9202 44.8533 22.3039 45.2925C22.6663 50.5479 19.5408 56.5876 18.7108 62.0599L10.4158 59.983ZM55.5495 71.2838C43.7866 68.3592 31.9166 65.352 20.1164 62.4119C20.1299 59.2824 26.8489 43.8606 22.3619 44.5298C19.5301 44.4475 14.9601 40.99 12.9649 43.8366C11.6448 49.1006 10.3303 54.367 9.01021 59.631C7.76381 58.9973 4.56774 59.4846 4.85756 57.5037C6.5995 50.0156 8.66084 42.594 10.4629 35.1168C27.4867 39.234 44.4449 43.5965 61.4437 47.8177C59.423 55.6 57.6146 63.5673 55.5495 71.2838ZM50.4786 33.9955L50.4531 34.0974L47.0084 33.2349L48.0747 28.9764L51.5193 29.8389L50.4786 33.9955ZM32.5538 25.0901L46.6691 28.6244L45.6028 32.8829L31.4875 29.3487L32.5538 25.0901ZM25.2301 21.4029C26.4277 16.1917 28.0512 10.7697 29.1236 5.67562C30.7478 6.02764 32.4298 6.53952 34.0806 6.91678C62.7328 15.7145 60.6156 6.00551 54.468 29.9813C45.5821 27.7533 36.6857 25.5299 27.7925 23.3021C26.8941 22.8432 24.7815 23.1286 25.2311 21.4031L25.2301 21.4029ZM27.6705 24.0076L27.7035 23.8757L31.1482 24.7382L30.0819 28.9967L26.6373 28.1342L27.6705 24.0076ZM11.0715 24.8966C28.2687 29.1984 45.5688 33.5373 62.8113 37.8515C66.6991 38.0641 65.4977 39.8199 64.812 42.6161L9.95442 28.8805C10.3807 27.6801 10.4527 25.9065 11.0706 24.8963L11.0715 24.8966Z" fill="#1E1E1E"/>
<path d="M39.5617 48.8786C36.2722 48.8993 27.8541 43.5267 27.2129 48.6813C27.0224 50.817 25.2779 53.3048 26.1593 55.3017C29.46 56.6446 33.1825 57.0932 36.6261 58.1163C38.5679 58.6323 39.2045 56.8764 39.4214 55.2937C39.4524 53.3582 42.0384 49.906 39.5617 48.8786ZM28.1117 55.2896C26.205 54.9049 28.8292 48.4222 29.3107 47.0181C38.7236 50.1429 41.1915 46.2683 37.1652 57.5564L28.1117 55.2896Z" fill="#1E1E1E"/>
<path d="M55.2342 52.8471C45.5503 51.175 42.3518 45.8341 41.5738 59.0613C43.7384 59.729 53.7542 63.5997 54.5077 60.9194C54.5266 58.5057 57.5612 54.4638 55.2342 52.8471ZM43.7851 59.2583C41.4674 58.6213 44.4955 53.2097 44.5413 51.3141C44.577 51.2086 44.2715 51.6753 44.6455 51.0711C44.7323 50.93 44.8546 50.8905 44.8711 50.8616C54.0754 53.8806 56.7822 50.271 52.664 61.4814L43.7861 59.2585L43.7851 59.2583Z" fill="#1E1E1E"/>
<path d="M35.5195 13.1221C36.972 11.1869 40.3394 12.6795 39.7377 15.0823C39.216 17.2815 36.3761 17.3467 34.6567 18.0542C28.5846 21.4439 35.4514 21.8344 38.5213 22.732C41.7806 21.7863 34.687 20.7617 33.7954 20.4075C34.8409 18.3931 37.6426 18.6617 39.3914 17.5728C42.7403 15.895 41.1738 11.0844 37.5995 11.143C35.9745 10.5393 32.0087 14.0141 35.5195 13.1221Z" fill="#1C345E"/>
<path d="M43.1299 20.7943L46.3602 21.6031C46.3798 22.476 45.0626 24.2616 46.2801 24.5747C47.6678 24.7922 47.3631 22.8346 47.7736 21.957C50.1974 22.8989 50.7197 21.1422 48.0427 20.8822C49.1782 18.3935 46.8451 18.0031 46.6293 20.5283L44.3109 19.9478C44.6676 18.7248 49.8437 12.3759 46.3102 13.7045C45.8325 15.4518 41.671 19.6672 43.1309 20.7946L43.1299 20.7943Z" fill="#1C345E"/>
</g>
<defs>
<clipPath id="clip0_405_2561">
<rect width="60" height="60" fill="white" transform="translate(15.1937 0.857925) rotate(14.0571)"/>
</clipPath>
</defs>
</svg>
