<svg xmlns="http://www.w3.org/2000/svg" width="74" height="74" fill="none" viewBox="0 0 74 74"><circle cx="37" cy="37" r="37" fill="#BCDABF"/><g clip-path="url(#a)"><path fill="#63BF70" d="M27.399 33.458a.394.394 0 0 1-.26-.69l.326-.287-.474.274a.393.393 0 0 1-.478-.616l1.862-1.893-1.384.799a.393.393 0 0 1-.475-.62l1.016-1.009-.54.312a.392.392 0 0 1-.582-.425l.247-1.125a.394.394 0 0 1-.06-.71l.398-.23a.394.394 0 0 1 .58.425l-.205.936 2.386-1.377a.392.392 0 0 1 .475.62l-1.015 1.008 1.274-.736a.393.393 0 0 1 .478.616l-1.863 1.894 1.393-.804a.393.393 0 0 1 .457.636l-.368.324a.393.393 0 0 1 .44.594l-.37.564a.394.394 0 0 1 .244.731l-1.252.723a.394.394 0 0 1-.526-.557l.332-.505-1.86 1.073a.4.4 0 0 1-.197.053zM43.419 33.46a.394.394 0 0 1-.265-.684l1.075-.975-.707.41a.393.393 0 0 1-.465-.628l1.37-1.28-.904.522a.393.393 0 0 1-.478-.617l.83-.836-.352.203a.395.395 0 0 1-.58-.433l.232-.968a.392.392 0 0 1-.046-.704l.398-.23a.395.395 0 0 1 .58.433l-.184.763 2.098-1.211a.393.393 0 0 1 .477.617l-.827.836 1.35-.78a.393.393 0 0 1 .465.629l-1.368 1.277.909-.525a.393.393 0 0 1 .461.633l-1.075.975.62-.358a.394.394 0 0 1 .547.522l-.513.991a.393.393 0 0 1 .365.696l-1.135.656a.395.395 0 0 1-.547-.521l.512-.99-2.645 1.527a.4.4 0 0 1-.197.052z"/><path fill="#fff" d="M27.49 60.202a.395.395 0 0 1-.206-.73l4.858-2.975-6.325 3.652a.393.393 0 0 1-.403-.676l8.404-5.168-10.122 5.844a.393.393 0 0 1-.4-.678l3.916-2.376-5.29 3.053a.393.393 0 0 1-.404-.676l10.726-6.604-12.608 7.28a.393.393 0 0 1-.4-.679l3.091-1.873-4.417 2.55a.393.393 0 0 1-.404-.675l12.138-7.506-13.55 7.827a.393.393 0 0 1-.403-.677l6.792-4.147-6.514 3.76a.393.393 0 0 1-.401-.677l4.772-2.912-4.37 2.523a.393.393 0 0 1-.406-.674l12.126-7.626-11.72 6.768a.394.394 0 0 1-.404-.675l6.82-4.235-6.416 3.704a.393.393 0 0 1-.405-.675l6.014-3.75-5.609 3.237a.393.393 0 0 1-.406-.674l6.167-3.884-5.76 3.326a.393.393 0 0 1-.406-.675l2.066-1.29-1.662.96a.394.394 0 0 1-.405-.675l1.985-1.245-1.579.911a.394.394 0 0 1-.419-.666l8.381-5.73-7.962 4.597a.394.394 0 0 1-.414-.67l4.013-2.656-3.599 2.078a.393.393 0 0 1-.427-.66l5.477-3.945-5.05 2.915a.394.394 0 0 1-.435-.654l4.003-3.038-3.568 2.06a.394.394 0 0 1-.441-.65l2.324-1.838-1.884 1.087a.393.393 0 0 1-.456-.636l1.338-1.18-.881.509a.393.393 0 0 1-.49-.604l.564-.625-.075.043a.394.394 0 0 1-.573-.456l.185-.603a.394.394 0 0 1-.005-.685l.394-.228a.394.394 0 0 1 .573.456l-.103.335 1.37-.791a.392.392 0 0 1 .49.603l-.566.626 2.133-1.23a.393.393 0 0 1 .457.636l-1.337 1.178 3.146-1.816a.394.394 0 0 1 .44.65L20.25 40.74l4.311-2.49a.393.393 0 0 1 .436.655l-4.005 3.039 6.402-3.695a.394.394 0 0 1 .427.66l-5.477 3.945 7.979-4.606a.394.394 0 0 1 .414.67l-4.012 2.654 5.76-3.326a.393.393 0 0 1 .42.666l-8.382 5.731 11.083-6.399a.394.394 0 0 1 .405.675l-1.994 1.252 3.337-1.927a.394.394 0 0 1 .405.675l-2.072 1.292 3.408-1.967a.393.393 0 0 1 .407.674l-6.159 3.879 7.887-4.553a.394.394 0 0 1 .405.675l-6.02 3.754 7.674-4.43a.393.393 0 0 1 .405.675l-6.81 4.229 8.495-4.904a.39.39 0 0 1 .534.137.393.393 0 0 1-.127.537l-12.13 7.626 14.38-8.302a.394.394 0 0 1 .402.677l-4.767 2.909 6.212-3.587a.394.394 0 0 1 .402.677l-6.782 4.142 8.347-4.82a.393.393 0 0 1 .404.675l-12.15 7.514 14.184-8.188a.393.393 0 0 1 .4.677l-3.07 1.861 4.399-2.54a.394.394 0 0 1 .403.676L45.692 45.52 58.04 38.39a.394.394 0 0 1 .401.678l-3.928 2.383 3.527-2.036a.394.394 0 0 1 .403.676l-8.411 5.17 8.008-4.621a.39.39 0 0 1 .535.139c.11.185.05.424-.133.538l-4.838 2.963 4.436-2.561a.394.394 0 0 1 .403.676l-3.784 2.32 3.38-1.95a.394.394 0 0 1 .404.676l-3.7 2.28 3.297-1.903a.395.395 0 0 1 .408.674l-8.144 5.146 7.736-4.467a.394.394 0 0 1 .413.67l-10.118 6.627 9.706-5.603a.395.395 0 0 1 .41.671l-6.595 4.275 6.185-3.571a.394.394 0 0 1 .415.67l-6.28 4.157 5.865-3.385a.394.394 0 0 1 .413.67l-3.596 2.366 3.184-1.838a.393.393 0 0 1 .422.663l-4.766 3.325 4.344-2.508a.394.394 0 0 1 .432.656l-4.182 3.125 3.75-2.165a.393.393 0 0 1 .423.663l-.433.303.01-.006a.394.394 0 0 1 .463.63l-2.301 2.113 1.839-1.062a.394.394 0 0 1 .461.632l-.434.394a.395.395 0 0 1 .518.538l-.374.71a.394.394 0 0 1 .18.735l-.913.528a.395.395 0 0 1-.545-.523l.32-.61-1.963 1.133a.393.393 0 0 1-.461-.633l.428-.388-1.769 1.02a.394.394 0 0 1-.463-.63l2.304-2.113-4.752 2.743a.393.393 0 0 1-.422-.664l.431-.301-1.672.965a.393.393 0 0 1-.432-.656l4.182-3.126-6.55 3.782a.393.393 0 0 1-.421-.664l4.766-3.323-6.906 3.986a.394.394 0 0 1-.413-.67l3.598-2.367-5.261 3.036a.394.394 0 0 1-.415-.67l6.275-4.154-8.357 4.824a.394.394 0 0 1-.41-.672l6.594-4.273-8.564 4.944a.39.39 0 0 1-.532-.134.393.393 0 0 1 .12-.535l10.119-6.628-12.64 7.297a.394.394 0 0 1-.407-.674l8.142-5.145-10.08 5.82a.394.394 0 0 1-.403-.676l3.707-2.285-5.127 2.96a.393.393 0 0 1-.403-.676l3.77-2.313-5.178 2.99a.4.4 0 0 1-.197.052z"/><path fill="#425C46" d="M29.756 40.523a.394.394 0 0 1-.216-.723l.573-.377-1.812 1.046a.393.393 0 0 1-.43-.657l4.977-3.677-7.507 4.334a.393.393 0 0 1-.427-.66l4.507-3.244-6.764 3.904a.395.395 0 0 1-.416-.668l1.646-1.098-3.06 1.765a.393.393 0 0 1-.417-.667l2.335-1.577-3.887 2.244a.394.394 0 0 1-.423-.663l3.902-2.741-5.898 3.404a.393.393 0 0 1-.427-.66l4.455-3.2-5.98 3.453a.39.39 0 0 1-.528-.128.395.395 0 0 1 .105-.535l3.398-2.393-3.065 1.768a.39.39 0 0 1-.528-.128.395.395 0 0 1 .104-.534l1.557-1.097-1.132.654a.394.394 0 0 1-.432-.656l1.457-1.093-1.025.591a.394.394 0 0 1-.476-.617l1.766-1.787-1.289.744a.393.393 0 0 1-.558-.497l.494-1.14a.395.395 0 0 1-.288-.724l.915-.528a.395.395 0 0 1 .558.498l-.482 1.114 2.79-1.61a.394.394 0 0 1 .476.616l-1.766 1.787 4.165-2.404a.39.39 0 0 1 .525.124.395.395 0 0 1-.093.532l-1.459 1.094 3.032-1.75a.39.39 0 0 1 .528.128.395.395 0 0 1-.105.535l-1.558 1.096 3.048-1.758a.39.39 0 0 1 .529.128.395.395 0 0 1-.105.535l-3.395 2.391 5.29-3.054a.394.394 0 0 1 .427.66l-4.458 3.2 6.69-3.86a.394.394 0 0 1 .423.663l-3.903 2.742 5.9-3.405a.393.393 0 0 1 .417.667L30.1 34.207l3.887-2.244a.393.393 0 0 1 .415.668l-1.642 1.097 3.057-1.764a.393.393 0 0 1 .427.66l-4.508 3.245 6.764-3.905a.394.394 0 0 1 .431.657l-4.977 3.676 7.507-4.333a.393.393 0 0 1 .413.67l-.574.377 1.814-1.047a.394.394 0 0 1 .432.657l-5.1 3.8 7.72-4.457a.393.393 0 0 1 .42.665l-3.143 2.16 4.895-2.825a.393.393 0 0 1 .422.663l-3.78 2.647 5.732-3.31a.393.393 0 0 1 .413.67l-.398.26 1.613-.93a.394.394 0 0 1 .415.67l-1.114.737 2.436-1.406a.393.393 0 0 1 .433.656l-5.156 3.856 7.817-4.512a.395.395 0 0 1 .418.667l-2.57 1.744 4.09-2.361a.394.394 0 0 1 .415.67l-1.056.697 1.147-.661a.393.393 0 0 1 .428.659l-3.69 2.686 3.262-1.884a.39.39 0 0 1 .52.115.395.395 0 0 1-.07.527l-3.228 2.701 2.778-1.603a.394.394 0 0 1 .45.642l-1.223 1.035.772-.445a.394.394 0 0 1 .49.603l-.715.798.225-.13a.39.39 0 0 1 .537.144c.11.188.045.429-.144.537l-2.364 1.365a.395.395 0 0 1-.502-.092.395.395 0 0 1 .013-.51l.715-.799-2.427 1.401a.39.39 0 0 1-.519-.114.396.396 0 0 1 .068-.527l1.224-1.036-2.906 1.677a.392.392 0 0 1-.45-.642l3.227-2.7-5.79 3.342a.394.394 0 0 1-.429-.658l3.69-2.686-5.793 3.344a.394.394 0 0 1-.415-.67l1.054-.697-2.368 1.367a.395.395 0 0 1-.418-.667l2.57-1.744-4.175 2.41a.393.393 0 0 1-.433-.655l5.156-3.856-7.817 4.511a.394.394 0 0 1-.415-.67l1.113-.736-2.435 1.406a.394.394 0 0 1-.413-.67l.4-.262-1.615.932a.393.393 0 0 1-.423-.663l3.78-2.647-5.732 3.31a.394.394 0 0 1-.42-.665l3.143-2.16-4.894 2.825a.39.39 0 0 1-.525-.125.393.393 0 0 1 .093-.532l5.1-3.8-7.719 4.457a.4.4 0 0 1-.196.053zM20.692 60.224a.394.394 0 0 1-.239-.708l2.667-2.023-2.427 1.4a.393.393 0 0 1-.444-.647l3.862-3.108-3.419 1.974a.393.393 0 0 1-.434-.655l2.71-2.044-2.276 1.314a.393.393 0 0 1-.423-.663l.566-.397-.142.082a.393.393 0 0 1-.44-.65l3.394-2.652-2.954 1.705a.393.393 0 0 1-.436-.653l2.978-2.276-2.542 1.468a.393.393 0 0 1-.45-.642l3.294-2.756-2.844 1.641a.394.394 0 0 1-.462-.632l1.595-1.452-1.133.654a.393.393 0 0 1-.47-.623l.344-.335a.393.393 0 0 1-.401-.601l.235-.363a.395.395 0 0 1-.06-.71l.914-.528a.394.394 0 0 1 .527.555l-.065.1 1.135-.655a.393.393 0 0 1 .47.623l-.278.27 1.548-.893a.394.394 0 0 1 .462.632l-1.595 1.452 3.61-2.083a.393.393 0 0 1 .45.642l-3.293 2.755 3.899-2.25a.394.394 0 0 1 .436.653l-2.98 2.276 2.546-1.469a.393.393 0 0 1 .44.65l-3.392 2.65 2.954-1.706a.393.393 0 0 1 .423.663l-.575.404.154-.088a.393.393 0 0 1 .433.655l-2.708 2.042 2.277-1.314a.393.393 0 0 1 .444.647l-3.86 3.107 3.42-1.975a.393.393 0 0 1 .435.654l-2.666 2.024 2.234-1.29a.393.393 0 0 1 .44.65l-1.327 1.048.889-.512a.394.394 0 0 1 .446.645l-.303.247a.393.393 0 0 1 .398.585l-.574 1.007.037-.021a.394.394 0 0 1 .394.682l-1.295.746a.393.393 0 0 1-.539-.535l.573-1.007-2.686 1.55a.393.393 0 0 1-.446-.645l.164-.134-1.358.784a.393.393 0 0 1-.441-.65l1.329-1.049-2.954 1.705a.4.4 0 0 1-.197.053zM34.692 53.117a.393.393 0 0 1-.237-.708l1.932-1.46-3.491 2.016a.393.393 0 0 1-.418-.666l.322-.22-.297.172a.394.394 0 0 1-.44-.65l3.556-2.786-3.116 1.799a.394.394 0 0 1-.442-.648l1.661-1.329-1.22.705a.394.394 0 0 1-.504-.587l1.348-1.674-.843.486a.392.392 0 0 1-.53-.548l.264-.427a.395.395 0 0 1-.086-.719l.915-.527a.395.395 0 0 1 .531.549l-.128.207 1.307-.755a.393.393 0 0 1 .504.587l-1.347 1.674 3.916-2.261a.394.394 0 0 1 .442.648l-1.663 1.328 3.425-1.976a.393.393 0 0 1 .44.65l-3.556 2.786 4.571-2.64a.393.393 0 0 1 .418.666l-.365.25a.394.394 0 0 1 .382.68L40.007 49.2l1.501-.867a.393.393 0 0 1 .442.648l-1 .8.557-.321a.393.393 0 0 1 .456.636l-.366.32a.393.393 0 0 1 .46.554l-.412.832a.42.42 0 0 1 .358.196.39.39 0 0 1-.144.538l-.913.527a.395.395 0 0 1-.55-.514l.378-.76-2.21 1.274a.393.393 0 0 1-.456-.637l.32-.28-1.588.917a.394.394 0 0 1-.442-.648l1-.8-2.51 1.448a.4.4 0 0 1-.196.053M48.236 53.117a.394.394 0 0 1-.237-.708l1.04-.789-2.5 1.443a.393.393 0 0 1-.44-.648l3.747-2.97-4.75 2.742a.393.393 0 0 1-.441-.648l3.624-2.892-3.182 1.837a.394.394 0 0 1-.438-.652l1.152-.891-.714.412a.393.393 0 0 1-.464-.63l1.005-.929-.541.313a.393.393 0 0 1-.554-.505l.459-1a.392.392 0 0 1-.257-.73l.914-.528a.393.393 0 0 1 .554.505l-.44.958 2.534-1.463a.392.392 0 0 1 .464.63l-1.006.93 2.7-1.559a.394.394 0 0 1 .438.652l-1.151.891 2.673-1.543a.39.39 0 0 1 .522.119c.115.17.081.4-.08.529l-3.623 2.89 4.855-2.803a.393.393 0 0 1 .44.649l-3.748 2.97 3.31-1.91a.393.393 0 0 1 .434.654l-1.04.788.607-.35a.392.392 0 0 1 .444.647l-.447.363.003-.002a.394.394 0 0 1 .51.581l-.706.917.197-.114a.39.39 0 0 1 .538.144.39.39 0 0 1-.145.538l-1.918 1.108a.394.394 0 0 1-.51-.58l.707-.919-2.595 1.498a.393.393 0 0 1-.444-.646l.447-.363-1.75 1.009a.4.4 0 0 1-.196.053z"/><path fill="#00AF1A" d="M28.036 28.715a.393.393 0 0 1-.208-.728l.907-.564-2.146 1.238a.393.393 0 0 1-.407-.673l6.018-3.81-7.355 4.246a.393.393 0 0 1-.405-.675l3.403-2.13-3.214 1.855a.393.393 0 0 1-.405-.675l.937-.584-.533.308a.394.394 0 0 1-.409-.672l4.325-2.77-3.916 2.26a.394.394 0 0 1-.413-.67l5.252-3.46-4.838 2.793a.395.395 0 0 1-.416-.668l4.12-2.75-3.705 2.138a.393.393 0 0 1-.43-.657l5.475-4.047-5.045 2.911a.393.393 0 0 1-.43-.657l3.012-2.22-2.582 1.49a.393.393 0 0 1-.442-.648l2.18-1.74-1.738 1.002a.393.393 0 0 1-.482-.611l1.566-1.649-1.084.626a.394.394 0 0 1-.552-.51l.431-.897a.395.395 0 0 1-.232-.734l.915-.527a.395.395 0 0 1 .55.511l-.402.837 2.335-1.348a.394.394 0 0 1 .482.612l-1.566 1.648 3.917-2.26a.393.393 0 0 1 .442.648l-2.18 1.74 4.137-2.388a.393.393 0 0 1 .43.657l-3.011 2.22 4.984-2.877a.393.393 0 0 1 .43.657l-5.474 4.046 8.151-4.7a.394.394 0 0 1 .416.668l-4.124 2.753 5.926-3.42a.39.39 0 0 1 .532.133.395.395 0 0 1-.118.536l-5.25 3.46 7.15-4.13a.394.394 0 0 1 .41.672l-4.323 2.77 5.96-3.44a.394.394 0 0 1 .405.675l-.935.581 2.178-1.257a.394.394 0 0 1 .406.675l-3.409 2.132 4.863-2.806a.39.39 0 0 1 .533.137.395.395 0 0 1-.125.537l-6.018 3.81 6.485-3.745a.393.393 0 0 1 .405.675l-.902.56.5-.287a.39.39 0 0 1 .53.132c.113.18.061.417-.114.536l-8.702 5.822 8.285-4.783a.393.393 0 0 1 .412.67l-3.894 2.53 3.483-2.011a.393.393 0 0 1 .42.664l-5.837 4.036 5.417-3.127a.393.393 0 0 1 .413.67l-.656.431.244-.14a.393.393 0 0 1 .437.652l-4.395 3.38 3.958-2.284a.393.393 0 0 1 .446.645l-2.693 2.209 2.247-1.297a.393.393 0 0 1 .446.645l-.81.666.364-.21a.394.394 0 0 1 .488.605l-.666.731.178-.102a.39.39 0 0 1 .538.144.39.39 0 0 1-.144.538l-2.367 1.365a.394.394 0 0 1-.488-.605l.666-.731-2.316 1.336a.394.394 0 0 1-.446-.645l.81-.665-2.27 1.31a.394.394 0 0 1-.446-.645l2.693-2.208-4.943 2.853a.393.393 0 0 1-.437-.652l4.395-3.381-6.987 4.033a.394.394 0 0 1-.413-.67l.65-.426-1.9 1.096a.393.393 0 0 1-.42-.664l5.838-4.037-8.141 4.701a.393.393 0 0 1-.411-.67l3.9-2.533-5.548 3.203a.395.395 0 0 1-.416-.668l8.699-5.822-11.24 6.489a.4.4 0 0 1-.196.052z"/><path fill="#0C160D" d="M13.606 38.677c-.115 1.106.328 1.873 1.57 1.741v17.439c0 .812-.206 1.962.777 2.29 10.315.19 20.706 0 31.047.065 17.413.473 10.575.917 11.833-19.813 2.537-.246 1.288-3.41 1.57-5.116-.045-1.153.555-3.341-1.244-3.256-3.78-.1-7.57.04-11.352 0v-3.456c.91.036 2.228-.068 2.361-1.194.01-3.67-.006-7.35 0-11.024.802-3.969-4.45-2.06-6.761-2.407-19.627 1.264-20.241-5.35-19.568 11.01-.07 2.106-.56 4.103 2.361 3.616v3.456c-3.804.577-9.493-1.322-12.549.883-.24 1.882.06 3.862-.045 5.766m1.14.515c-.136-.803.011-1.737 0-2.548h44.516c-.079.777.212 2.457-.096 3.255h-.413c-.172-.192-.597-.163-.858 0-13.88.007-27.76-.012-41.64.007-.168-.201-.605-.172-.87-.006-.312-.06-.557-.237-.638-.708m6.299 20.258c.074-4.475-.105-9.071.07-13.491.875-.037 1.818.024 2.715 0 1.155.042 2.343-.07 3.484 0 1.281 3.944.05 9.153.462 13.49zm36.624 0c-9.54.015-19.18-.012-28.752 0-.589-2.393 1.593-15.453-1.705-14.085-2.178.48-6.328-1.287-7.308 1.268-.001 4.272.002 8.545 0 12.816-1.073-.245-3.42.738-3.577-.83-.102-6.05.053-12.112 0-18.166 13.786-.111 27.57-.022 41.357-.049-.056 6.329.087 12.758-.015 19.045M46.668 31.946v.082h-2.795v-3.455h2.795zm-15.39-3.373h11.454v3.456H31.278zm-6.297-1.416c-.082-4.208.12-8.658-.034-12.753 1.307-.042 2.69.027 4.022 0 23.56 1.24 20.088-5.77 19.978 13.714q-10.82-.001-21.647 0c-.773-.179-2.332.443-2.318-.96zm2.361 1.523v-.107h2.795v3.456h-2.795zm-12.505 3.852c13.954-.003 27.994.003 41.985 0 3.01-.58 2.428.99 2.439 3.256H14.746c.096-.998-.188-2.366.09-3.256z"/><path fill="#1E1E1E" d="M41.177 45.398c-2.508.645-9.963-1.848-9.467 2.21.263 1.667-.593 3.9.461 5.257 2.778.394 5.706.025 8.53.148 1.582.023 1.733-1.44 1.596-2.69-.347-1.484.968-4.614-1.12-4.925m-7.517 7.084c-1.53.071-.765-5.38-.666-6.545 7.785.587 8.929-2.844 8.013 6.545zM53.903 45.432c-7.715.574-11.178-2.892-9.243 7.356 1.78.097 10.168 1.137 10.231-1.053-.447-1.847 1.098-5.514-.988-6.303m-7.517 7.084c-1.892-.043-.614-4.754-.942-6.21.008-.088-.136.327.034-.206.039-.124.125-.178.132-.203 7.605.545 8.982-2.728 7.98 6.62z"/><path fill="#fff" d="M31.254 18.867c.74-1.755 3.596-1.26 3.596.69.022 1.78-2.134 2.372-3.312 3.241-3.988 3.75 1.33 2.735 3.845 2.833 2.308-1.345-3.304-.771-4.053-.871.414-1.738 2.604-2.069 3.732-3.235 2.236-1.921.12-5.295-2.598-4.567-1.356-.15-3.72 3.261-1.21 1.909M38.533 23.27h2.621c.182.663-.482 2.279.507 2.285 1.101-.1.495-1.536.64-2.284 2.031.256 2.094-1.186 0-.873.391-2.117-1.465-1.969-1.147 0h-1.881c.038-1.001 2.777-6.84.333-5.15-.03 1.426-2.403 5.441-1.072 6.023z"/></g><defs><clipPath id="a"><path fill="#fff" d="M13.389 13.389h47.23v47.23h-47.23z"/></clipPath></defs></svg>