<svg width="74" height="74" viewBox="0 0 74 74" fill="none" xmlns="http://www.w3.org/2000/svg">
<g clip-path="url(#clip0_405_2690)">
<path d="M45.8486 64.785C45.7513 64.7607 45.6636 64.7077 45.5968 64.6328C45.53 64.558 45.4872 64.4648 45.4741 64.3653C45.461 64.2659 45.4781 64.1648 45.5232 64.0752C45.5683 63.9855 45.6393 63.9116 45.727 63.8629L46.9841 63.1653L45.3754 63.6243C45.2711 63.656 45.1592 63.6527 45.0569 63.615C44.9546 63.5772 44.8675 63.5071 44.8087 63.4152C44.75 63.3233 44.7229 63.2147 44.7316 63.106C44.7403 62.9973 44.7843 62.8945 44.8569 62.8131L45.9682 61.545L44.9696 61.8279C44.8908 61.8514 44.8074 61.8546 44.7271 61.8374C44.6467 61.8202 44.572 61.783 44.5097 61.7293C44.4469 61.6764 44.398 61.6087 44.3675 61.5324C44.337 61.4561 44.3257 61.3734 44.3348 61.2917L44.4163 60.5833C44.3118 60.5531 44.22 60.4897 44.1547 60.4027C44.0895 60.3156 44.0545 60.2097 44.0549 60.1009C44.0553 59.9922 44.0912 59.8865 44.1571 59.8C44.223 59.7134 44.3153 59.6507 44.42 59.6214L44.8564 59.5008C44.9354 59.4783 45.0186 59.4757 45.0988 59.493C45.1791 59.5104 45.2538 59.5472 45.3164 59.6003C45.379 59.6534 45.4276 59.721 45.4579 59.7973C45.4881 59.8736 45.4992 59.9562 45.49 60.0377L45.4189 60.6632L47.324 60.1197C47.4282 60.0882 47.5398 60.0916 47.6419 60.1293C47.7439 60.1671 47.8309 60.2371 47.8896 60.3287C47.9483 60.4204 47.9754 60.5287 47.967 60.6372C47.9585 60.7457 47.9149 60.8485 47.8427 60.9299L46.7324 62.1982L50.8911 61.0118C51.0097 60.9768 51.1371 60.9869 51.2486 61.0403C51.3601 61.0937 51.4479 61.1865 51.495 61.3008C51.5422 61.4151 51.5452 61.5428 51.5037 61.6593C51.4622 61.7757 51.3789 61.8727 51.2701 61.9314L50.013 62.6289L53.438 61.6515C53.5508 61.6193 53.6713 61.6278 53.7784 61.6755C53.8856 61.7231 53.9726 61.8069 54.0242 61.9122C54.0758 62.0175 54.0888 62.1376 54.0609 62.2515C54.0329 62.3654 53.9658 62.4658 53.8713 62.5353L51.9839 63.9182L56.4902 62.6323C56.6091 62.5996 56.736 62.6121 56.8463 62.6673C56.9566 62.7225 57.0426 62.8165 57.0878 62.9313C57.133 63.0461 57.1341 63.1735 57.0911 63.2891C57.048 63.4046 56.9637 63.5002 56.8544 63.5574L56.3983 63.7896L56.5992 63.7368C56.7142 63.7044 56.8371 63.7142 56.9456 63.7646C57.054 63.815 57.1408 63.9025 57.1902 64.0114C57.2396 64.1202 57.2484 64.2432 57.2149 64.358C57.1814 64.4728 57.1079 64.5718 57.0078 64.637L56.5507 64.9349C56.6362 64.957 56.7147 65.0006 56.7784 65.0617C56.8422 65.1228 56.8892 65.1993 56.9149 65.2838C56.9511 65.4111 56.9355 65.5475 56.8713 65.6632C56.8072 65.7789 56.6998 65.8645 56.5727 65.9012L53.7779 66.6879C53.6628 66.7204 53.54 66.7105 53.4315 66.6601C53.3231 66.6098 53.2363 66.5222 53.1869 66.4133C53.1375 66.3045 53.1287 66.1815 53.1622 66.0667C53.1957 65.952 53.2691 65.853 53.3693 65.7877L53.634 65.6159L51.6833 66.1727C51.5644 66.2054 51.4375 66.1929 51.3272 66.1377C51.2169 66.0825 51.1309 65.9885 51.0857 65.8737C51.0405 65.7589 51.0394 65.6315 51.0825 65.5159C51.1255 65.4004 51.2098 65.3048 51.3191 65.2476L51.7776 65.0139L49.564 65.6452C49.4514 65.6768 49.3312 65.6679 49.2245 65.6202C49.1177 65.5724 49.0311 65.4886 48.9797 65.3836C48.9283 65.2785 48.9153 65.1588 48.9431 65.0452C48.9709 64.9315 49.0376 64.8312 49.1316 64.7617L51.019 63.3787L46.1113 64.7817C46.0257 64.8068 45.9349 64.8079 45.8486 64.785Z" fill="#7FC3CF"/>
<path d="M42.2419 63.868C42.154 63.8461 42.0738 63.8008 42.0096 63.7369C41.9455 63.673 41.8999 63.5929 41.8778 63.5051C41.8556 63.4173 41.8577 63.3252 41.8838 63.2385C41.91 63.1518 41.9591 63.0739 42.0261 63.0129L43.3348 61.817L40.7939 62.5446C40.6766 62.5788 40.5507 62.5689 40.4402 62.5166C40.3297 62.4643 40.2422 62.3734 40.1942 62.261C40.1462 62.1486 40.141 62.0224 40.1797 61.9065C40.2183 61.7905 40.2981 61.6927 40.404 61.6316L41.4416 61.0285L40.63 61.2604C40.5168 61.2929 40.3957 61.2845 40.2882 61.2366C40.1806 61.1887 40.0934 61.1044 40.0419 60.9984C39.9904 60.8925 39.978 60.7718 40.0068 60.6576C40.0356 60.5434 40.1037 60.4431 40.1993 60.3742L42.4445 58.752L40.5176 59.3004C40.4028 59.3322 40.2803 59.3219 40.1723 59.2713C40.0644 59.2208 39.978 59.1334 39.9288 59.0248C39.8796 58.9162 39.8709 58.7936 39.9041 58.6791C39.9373 58.5647 40.0104 58.4658 40.11 58.4004L41.8402 57.2873L40.4246 57.6916C40.3074 57.7218 40.1832 57.7085 40.075 57.6541C39.9669 57.5997 39.8822 57.5079 39.8366 57.3957C39.791 57.2836 39.7876 57.1587 39.8272 57.0442C39.8667 56.9298 39.9464 56.8336 40.0514 56.7735L40.4619 56.5546L40.3598 56.5837C40.2421 56.6154 40.1169 56.603 40.0077 56.5489C39.8986 56.4948 39.8129 56.4027 39.7668 56.2899C39.7208 56.1771 39.7175 56.0514 39.7576 55.9363C39.7977 55.8212 39.8784 55.7248 39.9847 55.6651L40.5086 55.3839L40.2932 55.4454C40.1756 55.489 40.0459 55.4868 39.9298 55.4392C39.8137 55.3916 39.7198 55.3022 39.6666 55.1885C39.6134 55.0749 39.6049 54.9454 39.6427 54.8258C39.6806 54.7062 39.762 54.6052 39.8708 54.5428L41.913 53.1347L40.186 53.63C40.067 53.664 39.9396 53.6527 39.8285 53.5982C39.7174 53.5437 39.6304 53.45 39.5844 53.3351C39.5384 53.2202 39.5367 53.0924 39.5795 52.9763C39.6223 52.8602 39.7066 52.7641 39.8162 52.7065L40.1228 52.5442C40.0051 52.5793 39.8786 52.5698 39.7674 52.5176C39.6562 52.4654 39.5681 52.3741 39.52 52.2611C39.4718 52.1481 39.4669 52.0213 39.5062 51.905C39.5455 51.7886 39.6263 51.6908 39.7332 51.6301L40.8408 50.9859L40.0457 51.2136C39.9272 51.2507 39.7992 51.2425 39.6865 51.1904C39.5738 51.1384 39.4845 51.0463 39.4359 50.932C39.3874 50.8178 39.3831 50.6895 39.4238 50.5723C39.4646 50.455 39.5476 50.3571 39.6565 50.2976L40.6087 49.7557L39.9681 49.9385C39.8545 49.9708 39.7331 49.9619 39.6255 49.9133C39.5179 49.8647 39.4309 49.7795 39.38 49.673C39.3292 49.5664 39.3177 49.4452 39.3476 49.331C39.3775 49.2167 39.4469 49.1168 39.5435 49.0488L40.7281 48.2166L40.021 48.4179C39.9254 48.4451 39.8238 48.4433 39.7292 48.4125C39.6346 48.3818 39.5514 48.3235 39.4901 48.2452C39.4288 48.1669 39.3923 48.0721 39.3852 47.9729C39.378 47.8737 39.4006 47.7746 39.4501 47.6884L40.3335 46.1571C40.2927 46.1054 40.2623 46.0464 40.244 45.9831C40.2075 45.8557 40.2231 45.719 40.2873 45.6031C40.3515 45.4871 40.4591 45.4014 40.5865 45.3648L41.0241 45.2393C41.1197 45.2122 41.2213 45.2143 41.3157 45.2452C41.4102 45.2761 41.4933 45.3345 41.5545 45.4129C41.6156 45.4912 41.652 45.5861 41.659 45.6852C41.666 45.7844 41.6433 45.8834 41.5938 45.9696L40.931 47.1221L43.3003 46.4453C43.4137 46.4135 43.5346 46.4228 43.6418 46.4714C43.749 46.52 43.8356 46.6049 43.8863 46.7111C43.9371 46.8173 43.9488 46.938 43.9193 47.052C43.8898 47.1659 43.8211 47.2658 43.7252 47.3341L42.5393 48.1712L44.3367 47.6584C44.4537 47.6263 44.5783 47.6379 44.6874 47.691C44.7964 47.744 44.8825 47.8349 44.9295 47.9467C44.9766 48.0584 44.9814 48.1835 44.9431 48.2986C44.9048 48.4136 44.8259 48.5109 44.7213 48.5721L43.7716 49.1126L44.4131 48.93C44.5305 48.8958 44.6563 48.9058 44.7668 48.958C44.8774 49.0103 44.9649 49.1012 45.0129 49.2137C45.0609 49.3261 45.0661 49.4522 45.0274 49.5682C44.9887 49.6841 44.9089 49.7819 44.803 49.843L43.6954 50.4873L44.4946 50.2596C44.6136 50.2256 44.741 50.2369 44.8521 50.2914C44.9632 50.3459 45.0502 50.4396 45.0962 50.5545C45.1422 50.6694 45.144 50.7972 45.1011 50.9133C45.0583 51.0295 44.974 51.1256 44.8644 51.1831L44.5571 51.3443C44.6709 51.3121 44.7925 51.3214 44.9002 51.3704C45.0078 51.4194 45.0946 51.505 45.1451 51.612C45.1956 51.719 45.2065 51.8405 45.1759 51.9547C45.1453 52.069 45.0752 52.1688 44.978 52.2362L42.9344 53.6461L44.6653 53.1517C44.783 53.12 44.9081 53.1323 45.0173 53.1864C45.1265 53.2405 45.2122 53.3326 45.2582 53.4454C45.3043 53.5582 45.3076 53.684 45.2675 53.7991C45.2274 53.9141 45.1466 54.0106 45.0404 54.0703L44.5174 54.3517L44.7391 54.2897C44.8563 54.2594 44.9805 54.2728 45.0887 54.3272C45.1968 54.3816 45.2815 54.4734 45.3271 54.5856C45.3727 54.6977 45.3761 54.8226 45.3365 54.937C45.297 55.0515 45.2173 55.1477 45.1123 55.2078L44.6982 55.4288L44.809 55.3978C44.9239 55.366 45.0464 55.3763 45.1543 55.4269C45.2623 55.4774 45.3487 55.5649 45.3978 55.6734C45.447 55.782 45.4558 55.9046 45.4226 56.0191C45.3894 56.1336 45.3163 56.2324 45.2167 56.2978L43.4865 57.4109L44.9052 57.0064C45.0184 56.9738 45.1394 56.9822 45.247 57.0301C45.3546 57.078 45.4418 57.1624 45.4933 57.2683C45.5448 57.3742 45.5572 57.4949 45.5284 57.6091C45.4996 57.7233 45.4314 57.8237 45.3359 57.8925L43.0904 59.5157L45.0224 58.9634C45.1397 58.9292 45.2656 58.9392 45.3761 58.9915C45.4866 59.0437 45.5741 59.1347 45.6221 59.2471C45.6701 59.3595 45.6753 59.4856 45.6366 59.6016C45.598 59.7176 45.5182 59.8154 45.4123 59.8765L44.3716 60.4798L45.1029 60.2722C45.2113 60.2412 45.3269 60.2477 45.4311 60.2907C45.5353 60.3337 45.6219 60.4106 45.6769 60.509C45.7318 60.6074 45.752 60.7215 45.734 60.8327C45.716 60.944 45.6609 61.0459 45.5777 61.122L44.2678 62.3186L45.2092 62.0503C45.3103 62.0214 45.4178 62.0252 45.5166 62.0609C45.6154 62.0967 45.7004 62.1627 45.7595 62.2495C45.8187 62.3363 45.849 62.4396 45.8462 62.5446C45.8433 62.6496 45.8075 62.7511 45.7437 62.8346L45.5537 63.0829C45.6572 63.1141 45.7478 63.1781 45.8119 63.2652C45.8759 63.3522 45.9101 63.4577 45.9091 63.5658C45.9082 63.6739 45.8722 63.7788 45.8066 63.8648C45.7411 63.9507 45.6494 64.0131 45.5454 64.0426L44.4575 64.3526C44.3563 64.3816 44.2486 64.378 44.1496 64.3422C44.0507 64.3064 43.9655 64.2402 43.9063 64.1532C43.8471 64.0662 43.8169 63.9627 43.8199 63.8575C43.823 63.7523 43.8591 63.6508 43.9232 63.5673L44.031 63.4252L42.5009 63.8668C42.4162 63.8904 42.3267 63.8908 42.2419 63.868Z" fill="#7FC3CF"/>
<path d="M24.3773 50.135C24.284 50.1117 24.1994 50.062 24.1336 49.9919C24.0679 49.9217 24.0237 49.834 24.0065 49.7394C23.9893 49.6448 23.9997 49.5472 24.0365 49.4584C24.0734 49.3696 24.1351 49.2932 24.2142 49.2385L25.2455 48.5247L23.7678 48.9464C23.6522 48.9788 23.5288 48.9685 23.4202 48.9175C23.3115 48.8664 23.2249 48.778 23.176 48.6684C23.1272 48.5587 23.1195 48.4351 23.1542 48.3202C23.1889 48.2053 23.2639 48.1068 23.3653 48.0425L25.1791 46.9081L24.2086 47.1857C24.0909 47.2208 23.9644 47.2114 23.8532 47.1592C23.742 47.107 23.6539 47.0157 23.6057 46.9027C23.5576 46.7897 23.5527 46.6629 23.592 46.5465C23.6313 46.4302 23.7121 46.3323 23.819 46.2717L24.399 45.9355C24.3111 45.9377 24.2242 45.9167 24.147 45.8745C24.0698 45.8324 24.0051 45.7707 23.9594 45.6956C23.9137 45.6204 23.8886 45.5346 23.8867 45.4467C23.8848 45.3588 23.906 45.272 23.9484 45.1949L24.4636 44.2611C24.3925 44.2035 24.3386 44.1276 24.3077 44.0416C24.2767 43.9555 24.27 43.8626 24.2882 43.773C24.3064 43.6834 24.3488 43.6004 24.4108 43.5332C24.4729 43.4661 24.5521 43.4172 24.64 43.3919L25.2018 43.2315C25.2967 43.2043 25.3976 43.2058 25.4916 43.2358C25.5857 43.2658 25.6688 43.323 25.7304 43.4002C25.792 43.4774 25.8294 43.5711 25.8378 43.6695C25.8463 43.7678 25.8254 43.8665 25.7778 43.9531L25.4036 44.6243L27.9563 43.8985C28.074 43.8634 28.2005 43.8729 28.3117 43.9251C28.4229 43.9773 28.511 44.0686 28.5591 44.1816C28.6073 44.2946 28.6122 44.4214 28.5729 44.5377C28.5336 44.6541 28.4528 44.7519 28.3459 44.8126L27.8241 45.1138L28.3158 44.9741C28.4317 44.941 28.5556 44.9508 28.6648 45.0019C28.774 45.0529 28.8611 45.1416 28.91 45.2517C28.959 45.3618 28.9665 45.4859 28.9312 45.6012C28.896 45.7164 28.8203 45.815 28.7181 45.8789L26.9045 47.0123L27.8849 46.7321C27.9989 46.6993 28.1209 46.7081 28.229 46.757C28.3371 46.8059 28.4243 46.8916 28.475 46.9988C28.5258 47.1061 28.5367 47.2279 28.5059 47.3425C28.4751 47.457 28.4045 47.5569 28.3068 47.6243L27.2743 48.3389L27.5074 48.2725C27.6086 48.2437 27.7163 48.2475 27.8152 48.2835C27.9141 48.3194 27.9991 48.3857 28.0582 48.4728C28.1173 48.5598 28.1473 48.6633 28.1442 48.7685C28.141 48.8737 28.1047 48.9752 28.0405 49.0585L27.6726 49.5355C27.7436 49.5931 27.7975 49.6691 27.8283 49.7551C27.8592 49.8412 27.8658 49.9341 27.8475 50.0237C27.8292 50.1133 27.7867 50.1962 27.7246 50.2633C27.6625 50.3304 27.5832 50.3792 27.4953 50.4044L26.7014 50.6314C26.6002 50.6602 26.4925 50.6563 26.3936 50.6204C26.2947 50.5844 26.2097 50.5182 26.1506 50.4311C26.0915 50.344 26.0615 50.2405 26.0646 50.1354C26.0678 50.0302 26.1041 49.9287 26.1683 49.8454L26.3197 49.6524L24.639 50.1315C24.5537 50.1564 24.4633 50.1576 24.3773 50.135Z" fill="white"/>
<path d="M19.4603 41.7075C19.3585 41.682 19.2673 41.6252 19.1996 41.545C19.1319 41.4648 19.0912 41.3653 19.0832 41.2607C19.0752 41.156 19.1003 41.0515 19.155 40.962C19.2097 40.8724 19.2912 40.8023 19.3879 40.7616L26.8242 37.6754L20.5554 39.4664C20.4331 39.5005 20.3023 39.4867 20.1897 39.4279C20.0771 39.369 19.9911 39.2695 19.9493 39.1496C19.9074 39.0297 19.9127 38.8983 19.9642 38.7821C20.0157 38.666 20.1094 38.5738 20.2264 38.5243L23.7158 37.0754L21.4799 37.7135C21.3658 37.7462 21.2437 37.7373 21.1356 37.6883C21.0275 37.6392 20.9403 37.5534 20.8897 37.446C20.8391 37.3386 20.8284 37.2167 20.8594 37.1021C20.8905 36.9875 20.9613 36.8877 21.0592 36.8205L23.4478 35.1734L23.1713 35.2526C23.0441 35.288 22.908 35.2717 22.7928 35.2072C22.6776 35.1427 22.5926 35.0352 22.5563 34.9083C22.5201 34.7813 22.5355 34.6452 22.5992 34.5295C22.663 34.4139 22.7699 34.3282 22.8966 34.2911L26.1166 33.3706C26.2304 33.3385 26.352 33.3477 26.4597 33.3967C26.5673 33.4458 26.6541 33.5314 26.7046 33.6384C26.7551 33.7454 26.7661 33.8668 26.7355 33.9811C26.7049 34.0954 26.6347 34.1951 26.5375 34.2626L24.1521 35.9012L31.7707 33.7256C31.8931 33.6915 32.0238 33.7053 32.1364 33.7641C32.249 33.8229 32.335 33.9224 32.3769 34.0424C32.4187 34.1623 32.4134 34.2937 32.3619 34.4098C32.3104 34.526 32.2167 34.6182 32.0997 34.6677L28.6125 36.1161L34.8718 34.334C34.9941 34.2999 35.1249 34.3137 35.2375 34.3725C35.3501 34.4314 35.4361 34.5309 35.4779 34.6508C35.5198 34.7707 35.5145 34.9021 35.463 35.0183C35.4115 35.1344 35.3178 35.2266 35.2008 35.2761L27.7611 38.3677L38.525 35.2899C38.6475 35.2562 38.7783 35.2704 38.8907 35.3297C39.0031 35.3889 39.0888 35.4888 39.1302 35.6089C39.1717 35.729 39.1659 35.8604 39.1139 35.9764C39.062 36.0924 38.9678 36.1842 38.8506 36.2333L31.8556 39.0805L41.5439 36.3128C41.6701 36.272 41.8073 36.2829 41.9254 36.3432C42.0435 36.4035 42.1328 36.5083 42.1737 36.6344C42.2145 36.7606 42.2036 36.8978 42.1433 37.0159C42.083 37.134 41.9782 37.2233 41.8521 37.2642L39.3032 38.1846L43.2756 37.0505C43.3996 37.0177 43.5314 37.0337 43.6439 37.0953C43.7564 37.157 43.8409 37.2595 43.88 37.3816C43.919 37.5038 43.9096 37.6363 43.8537 37.7518C43.7978 37.8672 43.6997 37.9567 43.5796 38.0019L42.6394 38.3355L44.6721 37.7558C44.7956 37.7216 44.9275 37.736 45.0406 37.7962C45.1538 37.8564 45.2395 37.9577 45.2801 38.0792C45.3207 38.2008 45.313 38.3332 45.2588 38.4493C45.2045 38.5654 45.1078 38.6562 44.9885 38.7031L40.9771 40.2398L46.2424 38.7387C46.3643 38.7055 46.4942 38.7196 46.6061 38.7783C46.718 38.837 46.8035 38.9358 46.8455 39.0549C46.8874 39.1741 46.8828 39.3047 46.8324 39.4205C46.782 39.5364 46.6896 39.6288 46.5739 39.6794L41.2766 41.9054L47.6161 40.0908C47.7384 40.0564 47.8692 40.0697 47.9819 40.1281C48.0947 40.1866 48.181 40.2857 48.2233 40.4055C48.2656 40.5253 48.2608 40.6566 48.2097 40.773C48.1587 40.8893 48.0653 40.9818 47.9485 41.0318L43.9689 42.7341L48.227 41.5169C48.3483 41.4827 48.4781 41.4956 48.5903 41.5529C48.7025 41.6103 48.789 41.7079 48.8323 41.8262C48.8756 41.9446 48.8727 42.0749 48.824 42.1912C48.7754 42.3074 48.6846 42.401 48.5699 42.4532L45.7124 43.7376L48.3272 42.9904C48.4474 42.9557 48.5763 42.9673 48.6883 43.023C48.8004 43.0787 48.8875 43.1744 48.9325 43.2911C48.9774 43.4079 48.9769 43.5373 48.9311 43.6538C48.8853 43.7702 48.7975 43.8653 48.685 43.9201L47.0396 44.7277L48.0276 44.4462C48.1415 44.4141 48.2632 44.4235 48.3709 44.4726C48.4786 44.5218 48.5653 44.6076 48.6157 44.7147C48.6661 44.8218 48.6768 44.9434 48.646 45.0577C48.6151 45.172 48.5447 45.2716 48.4473 45.3389L47.344 46.0935L47.6103 46.0179C47.6743 45.9967 47.742 45.9885 47.8092 45.9941C47.8764 45.9996 47.9418 46.0187 48.0014 46.0502C48.061 46.0817 48.1137 46.1249 48.1562 46.1772C48.1987 46.2296 48.2302 46.29 48.2487 46.3548C48.2673 46.4196 48.2726 46.4876 48.2642 46.5545C48.2558 46.6214 48.234 46.6859 48.2 46.7442C48.1661 46.8024 48.1207 46.8532 48.0666 46.8935C48.0125 46.9337 47.9508 46.9627 47.8853 46.9785L44.6437 47.9028C44.5297 47.9349 44.4081 47.9256 44.3004 47.8764C44.1927 47.8272 44.106 47.7414 44.0556 47.6343C44.0052 47.5272 43.9945 47.4056 44.0253 47.2913C44.0561 47.177 44.1265 47.0774 44.2239 47.0101L45.3282 46.2558L41.9312 47.2247C41.8114 47.2581 41.6834 47.2458 41.5723 47.19C41.4611 47.1342 41.3748 47.039 41.33 46.923C41.2853 46.807 41.2854 46.6784 41.3303 46.5625C41.3753 46.4465 41.4618 46.3515 41.573 46.2959L43.2189 45.4864L39.368 46.5839C39.2467 46.6181 39.117 46.6053 39.0048 46.5479C38.8925 46.4906 38.8061 46.393 38.7628 46.2746C38.7194 46.1563 38.7224 46.0259 38.7711 45.9097C38.8197 45.7934 38.9105 45.6998 39.0252 45.6476L41.8847 44.3596L36.5549 45.8837C36.4329 45.9177 36.3025 45.9042 36.1901 45.8458C36.0777 45.7875 35.9916 45.6886 35.9493 45.5693C35.9069 45.4499 35.9114 45.3189 35.9619 45.2028C36.0124 45.0866 36.1051 44.9939 36.2213 44.9435L40.1958 43.2491L33.5657 45.1496C33.4441 45.1817 33.315 45.1668 33.2039 45.108C33.0928 45.0491 33.008 44.9505 32.9664 44.832C32.9247 44.7134 32.9292 44.5834 32.979 44.468C33.0288 44.3526 33.1203 44.2602 33.2352 44.2092L38.5247 41.9813L30.2876 44.334C30.1641 44.3683 30.0322 44.3538 29.9191 44.2937C29.806 44.2335 29.7202 44.1322 29.6796 44.0106C29.639 43.8891 29.6467 43.7566 29.7009 43.6405C29.7552 43.5244 29.8519 43.4336 29.9712 43.3868L33.993 41.8455L27.6144 43.6678C27.4898 43.7025 27.3567 43.6876 27.2429 43.6263C27.1291 43.5649 27.0434 43.4619 27.004 43.3387C26.9645 43.2156 26.9743 43.082 27.0312 42.9659C27.0882 42.8498 27.1878 42.7603 27.3094 42.7162L28.2522 42.3801L25.5503 43.154C25.4879 43.1743 25.422 43.182 25.3566 43.1768C25.2911 43.1716 25.2273 43.1535 25.1689 43.1237C25.0508 43.0634 24.9614 42.9586 24.9206 42.8325C24.8797 42.7063 24.8906 42.5691 24.951 42.451C25.0113 42.3329 25.116 42.2436 25.2422 42.2027L27.7765 41.291L23.2465 42.5854C23.1239 42.6191 22.9932 42.6049 22.8807 42.5457C22.7683 42.4864 22.6827 42.3866 22.6412 42.2665C22.5997 42.1464 22.6056 42.015 22.6575 41.899C22.7094 41.783 22.8036 41.6912 22.9208 41.6421L29.9168 38.7951L19.7205 41.7057C19.6355 41.7296 19.5456 41.7302 19.4603 41.7075Z" fill="#FFCE48"/>
<path d="M36.4633 30.4921C36.367 30.4678 36.2801 30.4153 36.2137 30.3414C36.1473 30.2675 36.1045 30.1755 36.0906 30.0771C36.0768 29.9787 36.0925 29.8785 36.1359 29.7891C36.1792 29.6997 36.2482 29.6253 36.3341 29.5753L37.7889 28.7303L35.7572 29.3102C35.6529 29.3401 35.5416 29.3352 35.4403 29.2962C35.339 29.2573 35.2531 29.1865 35.1956 29.0944C35.1381 29.0024 35.1121 28.8941 35.1215 28.786C35.131 28.6779 35.1753 28.5758 35.2479 28.4951L36.8316 26.7402C36.799 26.6949 36.7748 26.6441 36.7599 26.5903C36.7237 26.463 36.7396 26.3265 36.8039 26.2108C36.8682 26.0951 36.9758 26.0097 37.103 25.9732L37.8079 25.7724C37.9121 25.7429 38.0231 25.7481 38.1241 25.7872C38.2252 25.8262 38.3108 25.897 38.3681 25.9889C38.4254 26.0808 38.4513 26.1888 38.442 26.2967C38.4326 26.4046 38.3885 26.5066 38.3162 26.5872L37.1579 27.8703L41.3767 26.6659C41.4941 26.6317 41.6199 26.6417 41.7304 26.694C41.8409 26.7462 41.9285 26.8372 41.9765 26.9496C42.0245 27.062 42.0297 27.1881 41.991 27.3041C41.9523 27.4201 41.8725 27.5179 41.7666 27.579L40.3119 28.4239L44.0871 27.3446C44.2009 27.3124 44.3225 27.3217 44.4302 27.3707C44.5378 27.4197 44.6246 27.5054 44.6751 27.6123C44.7256 27.7193 44.7366 27.8408 44.706 27.9551C44.6754 28.0693 44.6052 28.1691 44.508 28.2365L42.6781 29.4968L45.4935 28.6936C45.6059 28.6617 45.7259 28.6702 45.8326 28.7176C45.9394 28.765 46.0262 28.8482 46.078 28.9529C46.1298 29.0576 46.1433 29.1771 46.1162 29.2907C46.0891 29.4043 46.023 29.5049 45.9295 29.5749L45.0414 30.2401L45.3739 30.1471C45.4379 30.1258 45.5055 30.1177 45.5727 30.1232C45.64 30.1288 45.7053 30.1479 45.765 30.1793C45.8246 30.2108 45.8773 30.254 45.9198 30.3064C45.9623 30.3587 45.9938 30.4191 46.0123 30.4839C46.0309 30.5488 46.0361 30.6167 46.0278 30.6836C46.0194 30.7505 45.9976 30.815 45.9636 30.8733C45.9297 30.9316 45.8843 30.9824 45.8302 31.0226C45.7761 31.0629 45.7144 31.0918 45.6488 31.1076L42.6818 31.9522C42.5695 31.9841 42.4495 31.9756 42.3427 31.9282C42.236 31.8808 42.1492 31.7976 42.0974 31.6929C42.0456 31.5882 42.0321 31.4687 42.0592 31.3551C42.0863 31.2415 42.1523 31.141 42.2458 31.071L43.134 30.4058L40.013 31.2974C39.8989 31.3301 39.7768 31.3212 39.6687 31.2722C39.5606 31.2232 39.4734 31.1373 39.4228 31.0299C39.3722 30.9225 39.3615 30.8006 39.3925 30.686C39.4235 30.5714 39.4944 30.4716 39.5923 30.4045L41.4253 29.1481L36.7233 30.4912C36.6382 30.5144 36.5485 30.5147 36.4633 30.4921Z" fill="#7FC3CF"/>
<path d="M27.3263 29.3191C27.2195 29.2923 27.1245 29.2311 27.0561 29.1449C26.9877 29.0587 26.9496 28.9523 26.9478 28.8423C26.946 28.7322 26.9805 28.6246 27.0461 28.5362C27.1116 28.4478 27.2045 28.3835 27.3104 28.3533L37.0812 25.5609C37.2002 25.5269 37.3276 25.5382 37.4387 25.5927C37.5498 25.6471 37.6368 25.7409 37.6828 25.8558C37.7288 25.9706 37.7305 26.0985 37.6877 26.2146C37.6449 26.3307 37.5605 26.4268 37.451 26.4843L35.1416 27.6957L36.8783 27.2028C36.9921 27.1706 37.1136 27.1797 37.2213 27.2286C37.3289 27.2775 37.4158 27.363 37.4664 27.4698C37.517 27.5767 37.5281 27.698 37.4977 27.8123C37.4674 27.9265 37.3975 28.0264 37.3005 28.094L36.1479 28.893L36.4805 28.8C36.6058 28.7697 36.738 28.7891 36.8495 28.854C36.9609 28.919 37.0429 29.0245 37.0784 29.1484C37.1139 29.2724 37.1001 29.4053 37.0399 29.5194C36.9797 29.6334 36.8778 29.7198 36.7554 29.7605L33.5148 30.681C33.4013 30.7126 33.2802 30.7031 33.173 30.6542C33.0658 30.6053 32.9793 30.5201 32.9288 30.4137C32.8783 30.3072 32.867 30.1863 32.8969 30.0723C32.9268 29.9583 32.9961 29.8586 33.0924 29.7907L34.2464 28.99L30.7521 29.9892C30.6353 30.0181 30.512 30.0038 30.4048 29.9491C30.2976 29.8944 30.2138 29.8028 30.1687 29.6913C30.1236 29.5798 30.1202 29.4557 30.1591 29.3419C30.1981 29.228 30.2768 29.132 30.3808 29.0716L32.6885 27.8588L27.5814 29.317C27.498 29.34 27.41 29.3407 27.3263 29.3191Z" fill="white"/>
<path d="M28.3181 45.9463C28.2191 45.9215 28.1301 45.8669 28.063 45.79C27.9958 45.7131 27.9539 45.6175 27.9427 45.5161C27.9315 45.4146 27.9516 45.3122 28.0004 45.2225C28.0491 45.1328 28.1242 45.0602 28.2154 45.0144L28.8485 44.6967L26.3989 45.3936C26.2864 45.426 26.166 45.4179 26.0589 45.3707C25.9517 45.3234 25.8645 45.2401 25.8125 45.1352C25.7605 45.0303 25.747 44.9104 25.7743 44.7965C25.8016 44.6827 25.868 44.582 25.9619 44.512L27.8532 43.1012L22.8951 44.5163C22.7825 44.548 22.6624 44.5392 22.5557 44.4916C22.4489 44.4439 22.3623 44.3604 22.3107 44.2554C22.2592 44.1505 22.246 44.0308 22.2736 43.9172C22.3011 43.8036 22.3676 43.7032 22.4615 43.6335L24.3722 42.2234L19.4048 43.6424C19.2904 43.6743 19.1684 43.6644 19.0606 43.6146C18.9527 43.5647 18.8662 43.4781 18.8164 43.3703C18.7667 43.2624 18.7569 43.1404 18.7889 43.026C18.8209 42.9116 18.8926 42.8124 18.9911 42.746L21.6123 41.0097L16.7572 42.396C16.6356 42.4301 16.5056 42.4169 16.3933 42.359C16.281 42.3011 16.1948 42.2029 16.1519 42.0841C16.1091 41.9653 16.1128 41.8346 16.1624 41.7184C16.2119 41.6022 16.3036 41.5091 16.419 41.4577L16.7824 41.2992L15.9067 41.548C15.7853 41.5817 15.6557 41.5684 15.5437 41.5106C15.4317 41.4529 15.3456 41.355 15.3028 41.2365C15.2599 41.118 15.2633 40.9877 15.3123 40.8716C15.3614 40.7556 15.4524 40.6623 15.5673 40.6105L16.343 40.2666L15.2573 40.5762C15.1355 40.6107 15.0051 40.5976 14.8924 40.5397C14.7798 40.4817 14.6934 40.3832 14.6506 40.264C14.6078 40.1448 14.6119 40.0138 14.6619 39.8974C14.712 39.7811 14.8043 39.6881 14.9203 39.6372L15.6592 39.313L14.8255 39.5506C14.7065 39.5846 14.5792 39.5732 14.468 39.5188C14.3569 39.4643 14.27 39.3706 14.224 39.2557C14.178 39.1408 14.1762 39.0129 14.219 38.8968C14.2618 38.7807 14.3462 38.6846 14.4557 38.6271L17.7076 36.9167L14.5584 37.8178C14.4396 37.8509 14.3129 37.839 14.2024 37.7843C14.0919 37.7297 14.0055 37.6361 13.9598 37.5217C13.914 37.4072 13.9122 37.2799 13.9546 37.1641C13.997 37.0484 14.0807 36.9524 14.1896 36.8946L17.699 35.0569L14.7369 35.9028C14.6176 35.93 14.4925 35.9124 14.3853 35.8536C14.2781 35.7947 14.1961 35.6986 14.155 35.5834C14.1139 35.4682 14.1164 35.3419 14.1621 35.2285C14.2078 35.115 14.2935 35.0222 14.403 34.9677L15.5618 34.4569L14.8894 34.6473C14.7673 34.6809 14.6369 34.6669 14.5247 34.6081C14.4125 34.5494 14.3268 34.4502 14.2848 34.3307C14.2429 34.2112 14.2479 34.0802 14.2988 33.9642C14.3497 33.8482 14.4428 33.7559 14.5591 33.7059L15.65 33.2481L15.0395 33.422C14.9159 33.4552 14.7844 33.4397 14.6719 33.3788C14.5594 33.318 14.4745 33.2163 14.4347 33.0947C14.3949 32.9732 14.4032 32.841 14.4579 32.7254C14.5125 32.6097 14.6094 32.5195 14.7286 32.4731L22.6269 29.5427L15.2567 31.6487C15.1335 31.6812 15.0025 31.6655 14.8905 31.6047C14.7785 31.5439 14.694 31.4426 14.6541 31.3215C14.6143 31.2005 14.6222 31.0688 14.6762 30.9534C14.7302 30.8379 14.8262 30.7475 14.9447 30.7005L20.1043 28.7771L15.4418 30.1065C15.3189 30.1416 15.1871 30.1283 15.0737 30.0693C14.9602 30.0103 14.8737 29.9101 14.8319 29.7893C14.79 29.6684 14.7961 29.5362 14.8488 29.4196C14.9015 29.3031 14.9969 29.2112 15.1152 29.1629L20.4504 26.9793L15.661 28.3501C15.5407 28.3842 15.412 28.372 15.3002 28.3159C15.1884 28.2598 15.1017 28.1639 15.0572 28.047C15.0127 27.9301 15.0136 27.8008 15.0598 27.6846C15.1059 27.5684 15.194 27.4736 15.3065 27.4191L19.9351 25.1834L15.9057 26.3393C15.7869 26.3753 15.6589 26.3658 15.5467 26.3126C15.4345 26.2594 15.3461 26.1664 15.2987 26.0517C15.2513 25.9369 15.2483 25.8086 15.2903 25.6918C15.3322 25.5749 15.4162 25.4779 15.5258 25.4195L18.7582 23.6259L16.1492 24.3705C16.028 24.4039 15.8987 24.3904 15.787 24.3328C15.6753 24.2751 15.5894 24.1775 15.5465 24.0594C15.5035 23.9412 15.5066 23.8112 15.5552 23.6953C15.6037 23.5793 15.6942 23.486 15.8085 23.4337L16.2192 23.251C16.1034 23.2669 15.9857 23.2418 15.8865 23.18C15.7872 23.1181 15.7128 23.0235 15.6762 22.9125C15.6395 22.8015 15.6429 22.6811 15.6858 22.5723C15.7286 22.4636 15.8083 22.3733 15.9108 22.3171L18.8458 20.715L16.5151 21.3736C16.3949 21.407 16.2665 21.3942 16.1553 21.3378C16.044 21.2814 15.9579 21.1854 15.9137 21.0687C15.8696 20.952 15.8707 20.8231 15.9168 20.7071C15.9628 20.5912 16.0506 20.4967 16.1628 20.4422L17.4426 19.8348L16.6761 20.0553C16.556 20.0892 16.4275 20.0769 16.316 20.0209C16.2044 19.9649 16.1179 19.8692 16.0733 19.7526C16.0287 19.636 16.0293 19.507 16.0751 19.3909C16.1208 19.2747 16.2083 19.1799 16.3204 19.125L17.8673 18.3732L16.8459 18.6649C16.7244 18.6994 16.5943 18.6867 16.4818 18.6293C16.3692 18.5718 16.2826 18.4739 16.2393 18.3552C16.1961 18.2365 16.1993 18.1058 16.2485 17.9894C16.2976 17.8731 16.389 17.7796 16.5043 17.7278L16.8303 17.5827C16.7184 17.5799 16.6106 17.5397 16.5243 17.4685C16.4379 17.3973 16.378 17.2991 16.3541 17.1898C16.3301 17.0804 16.3436 16.9662 16.3922 16.8654C16.4409 16.7646 16.522 16.683 16.6225 16.6338L18.1809 15.8694L17.1529 16.1625C17.0333 16.1972 16.905 16.1859 16.7932 16.131C16.6814 16.0761 16.5942 15.9814 16.5485 15.8655C16.5029 15.7496 16.5021 15.6209 16.5464 15.5045C16.5907 15.388 16.6768 15.2924 16.788 15.2361L18.6636 14.2831L17.3319 14.661C17.2143 14.6927 17.0891 14.6804 16.9799 14.6263C16.8707 14.5722 16.7851 14.4801 16.739 14.3672C16.6929 14.2544 16.6896 14.1287 16.7298 14.0136C16.7699 13.8986 16.8506 13.8021 16.9568 13.7424L18.4541 12.9338L17.5105 13.2027C17.4003 13.2337 17.2827 13.226 17.1775 13.1808C17.0723 13.1355 16.9859 13.0556 16.9325 12.9542C16.8792 12.8529 16.8623 12.7363 16.8846 12.624C16.9069 12.5117 16.9671 12.4105 17.0551 12.3372L17.8669 11.6642C17.7605 11.6369 17.6661 11.5753 17.5982 11.489C17.5303 11.4027 17.4927 11.2964 17.4913 11.1866C17.4898 11.0768 17.5245 10.9696 17.59 10.8815C17.6556 10.7934 17.7483 10.7293 17.8539 10.6991L19.7602 10.1549C19.8706 10.1234 19.9885 10.131 20.094 10.1762C20.1995 10.2214 20.2863 10.3016 20.3397 10.4032C20.3931 10.5049 20.4098 10.6218 20.3872 10.7344C20.3646 10.8469 20.3039 10.9483 20.2153 11.0214L19.5377 11.5785L22.5962 10.7062C22.7138 10.6745 22.839 10.6869 22.9482 10.741C23.0574 10.7951 23.143 10.8872 23.1891 11C23.2352 11.1128 23.2385 11.2385 23.1983 11.3536C23.1582 11.4687 23.0775 11.5651 22.9713 11.6248L21.4745 12.4356L23.3299 11.9053C23.4495 11.8707 23.5778 11.8819 23.6896 11.9368C23.8014 11.9917 23.8886 12.0864 23.9343 12.2023C23.9799 12.3182 23.9807 12.4469 23.9364 12.5634C23.8921 12.6798 23.8059 12.7755 23.6948 12.8317L21.8192 13.7888L23.2888 13.3702C23.4086 13.3367 23.5366 13.3491 23.6477 13.4049C23.7589 13.4606 23.8453 13.5558 23.89 13.6719C23.9347 13.7879 23.9346 13.9165 23.8897 14.0324C23.8448 14.1484 23.7582 14.2434 23.647 14.299L22.0899 15.0627L23.1821 14.7517C23.3036 14.7171 23.4337 14.7298 23.5463 14.7873C23.6588 14.8447 23.7454 14.9426 23.7887 15.0613C23.8319 15.18 23.8287 15.3107 23.7795 15.4271C23.7304 15.5435 23.639 15.637 23.5238 15.6887L23.2307 15.8215C23.3445 15.8201 23.4554 15.8576 23.545 15.9278C23.6347 15.9979 23.6977 16.0966 23.7236 16.2074C23.7496 16.3182 23.737 16.4346 23.6879 16.5372C23.6388 16.6399 23.5561 16.7228 23.4535 16.7721L21.9042 17.5253L22.992 17.2153C23.1122 17.1819 23.2406 17.1947 23.3518 17.2511C23.4631 17.3075 23.5492 17.4035 23.5934 17.5202C23.6375 17.6369 23.6364 17.7658 23.5904 17.8818C23.5443 17.9977 23.4565 18.0922 23.3444 18.1467L22.0665 18.7546L22.8912 18.5198C23.0093 18.4866 23.1355 18.4979 23.2458 18.5516C23.3561 18.6054 23.4428 18.6978 23.4894 18.8113C23.5359 18.9249 23.5391 19.0515 23.4984 19.1673C23.4576 19.283 23.3757 19.3797 23.2682 19.4389L20.3344 21.0362L22.7513 20.3466C22.8722 20.3142 23.0008 20.3284 23.1117 20.3863C23.2226 20.4441 23.3079 20.5415 23.3505 20.6591C23.3932 20.7767 23.3902 20.9061 23.3421 21.0216C23.2941 21.1371 23.2045 21.2304 23.091 21.2831L22.7021 21.4569C22.8196 21.4321 22.942 21.4504 23.047 21.5084C23.1521 21.5664 23.2328 21.6603 23.2744 21.7728C23.316 21.8854 23.3157 22.0092 23.2735 22.1216C23.2314 22.2339 23.1503 22.3274 23.045 22.3849L19.813 24.1766L25.2527 22.6254C25.3725 22.5924 25.5003 22.6053 25.6112 22.6615C25.7221 22.7177 25.808 22.8132 25.8523 22.9293C25.8966 23.0454 25.8961 23.1739 25.8508 23.2896C25.8055 23.4054 25.7188 23.5001 25.6074 23.5554L20.9761 25.7894L28.8957 23.5272C29.0187 23.4921 29.1504 23.5054 29.2639 23.5644C29.3773 23.6234 29.4639 23.7236 29.5057 23.8444C29.5475 23.9653 29.5415 24.0975 29.4888 24.214C29.4361 24.3306 29.3407 24.4224 29.2223 24.4708L23.8853 26.6539L32.0734 24.3157C32.1981 24.2785 32.3324 24.2914 32.4477 24.3517C32.5631 24.4119 32.6504 24.5148 32.6911 24.6384C32.7318 24.762 32.7227 24.8966 32.6658 25.0136C32.6089 25.1306 32.5085 25.2208 32.3862 25.2651L27.2313 27.1855L34.8589 25.0069C34.9824 24.9738 35.114 24.9892 35.2265 25.0501C35.339 25.111 35.4239 25.2126 35.4637 25.3342C35.5035 25.4557 35.4952 25.5879 35.4405 25.7036C35.3859 25.8192 35.2889 25.9095 35.1697 25.9558L23.9121 30.1326C23.967 30.1916 24.0067 30.263 24.028 30.3407C24.0493 30.4184 24.0515 30.5001 24.0344 30.5789C24.0173 30.6576 23.9815 30.731 23.9299 30.7929C23.8783 30.8548 23.8126 30.9033 23.7382 30.9343L22.5785 31.4202C22.6971 31.4089 22.8159 31.4403 22.9134 31.5089C23.011 31.5774 23.0808 31.6785 23.1103 31.794C23.1399 31.9095 23.1272 32.0317 23.0746 32.1387C23.0219 32.2456 22.9328 32.3303 22.8233 32.3773L21.6657 32.8833L22.1252 32.753C22.2418 32.7248 22.3646 32.7395 22.4713 32.7944C22.578 32.8492 22.6614 32.9406 22.7063 33.0519C22.7512 33.1631 22.7546 33.2868 22.7159 33.4004C22.6772 33.5139 22.5989 33.6098 22.4954 33.6704L18.9848 35.5088L22.0823 34.6246C22.1991 34.5958 22.3224 34.61 22.4295 34.6648C22.5367 34.7195 22.6205 34.811 22.6657 34.9225C22.7108 35.0341 22.7142 35.1582 22.6752 35.272C22.6362 35.3858 22.5575 35.4818 22.4535 35.5423L19.2 37.2554L22.484 36.3179C22.6057 36.2838 22.7357 36.297 22.848 36.3549C22.9603 36.4128 23.0465 36.511 23.0893 36.6298C23.1322 36.7486 23.1284 36.8793 23.0789 36.9955C23.0294 37.1117 22.9377 37.2048 22.8223 37.2562L22.0868 37.5792L22.9617 37.3292C23.0831 37.2955 23.2128 37.3089 23.3247 37.3666C23.4367 37.4244 23.5228 37.5223 23.5657 37.6408C23.6086 37.7592 23.6052 37.8895 23.5561 38.0056C23.5071 38.1217 23.416 38.2149 23.3011 38.2668L22.5276 38.6102L23.6256 38.2965C23.7469 38.2635 23.8762 38.2775 23.9877 38.3356C24.0991 38.3936 24.1847 38.4915 24.2272 38.6098C24.2697 38.7281 24.2661 38.858 24.2172 38.9738C24.1682 39.0896 24.0774 39.1826 23.9629 39.2345L23.6012 39.3944L24.4519 39.1507C24.5668 39.1175 24.6897 39.1266 24.7984 39.1763C24.9072 39.226 24.9945 39.3129 25.0447 39.4215C25.0948 39.53 25.1043 39.6529 25.0716 39.7679C25.0389 39.8829 24.9661 39.9824 24.8663 40.0483L22.2451 41.7846L26.764 40.4935C26.8767 40.4613 26.9971 40.4696 27.1043 40.5171C27.2114 40.5646 27.2985 40.6483 27.3503 40.7534C27.402 40.8586 27.4152 40.9786 27.3874 41.0925C27.3597 41.2064 27.2928 41.3069 27.1985 41.3765L25.2856 42.7871L30.1975 41.3965C30.3097 41.3644 30.4297 41.3727 30.5365 41.4197C30.6433 41.4668 30.7303 41.5498 30.7824 41.6543C30.8345 41.7592 30.8482 41.8791 30.821 41.9931C30.7938 42.107 30.7274 42.2078 30.6335 42.2778L28.7431 43.6889L33.6994 42.2733C33.8186 42.2404 33.9459 42.2528 34.0565 42.3083C34.1671 42.3637 34.2533 42.4582 34.2983 42.5734C34.3433 42.6887 34.344 42.8166 34.3002 42.9323C34.2563 43.048 34.1712 43.1434 34.0611 43.2L33.428 43.5177L35.8781 42.8189C35.996 42.7864 36.1217 42.7982 36.2314 42.8522C36.3412 42.9061 36.4273 42.9984 36.4736 43.1115C36.52 43.2247 36.5232 43.3509 36.4828 43.4663C36.4423 43.5817 36.361 43.6782 36.2542 43.7377L35.1313 44.3483L38.3333 43.4336C38.4433 43.4022 38.5607 43.4093 38.666 43.454C38.7714 43.4986 38.8582 43.578 38.912 43.679C38.9659 43.7799 38.9835 43.8962 38.9619 44.0085C38.9404 44.1209 38.881 44.2224 38.7936 44.2962L36.8629 45.922L41.146 44.6997C41.2511 44.6699 41.3631 44.6753 41.4648 44.7151C41.5665 44.7549 41.6524 44.8269 41.7094 44.9201C41.7661 45.0137 41.7905 45.1234 41.7789 45.2322C41.7673 45.341 41.7203 45.443 41.6451 45.5226L40.2214 47.0217L41.178 46.7458C41.3034 46.7155 41.4356 46.7349 41.547 46.7998C41.6584 46.8648 41.7405 46.9703 41.7759 47.0942C41.8114 47.2182 41.7976 47.3511 41.7375 47.4652C41.6773 47.5792 41.5753 47.6656 41.453 47.7063L38.7399 48.4836C38.6347 48.5133 38.5226 48.5077 38.4208 48.4677C38.319 48.4276 38.2332 48.3552 38.1765 48.2617C38.1198 48.1682 38.0953 48.0587 38.1068 47.9499C38.1183 47.8411 38.1651 47.7391 38.2401 47.6595L39.6629 46.1602L34.8946 47.5208C34.7847 47.5523 34.6672 47.5451 34.5619 47.5004C34.4566 47.4558 34.3698 47.3764 34.3159 47.2755C34.2621 47.1745 34.2445 47.0582 34.266 46.9459C34.2876 46.8335 34.347 46.732 34.4344 46.6582L36.3651 45.0324L31.0358 46.5546C30.9179 46.5871 30.7922 46.5752 30.6824 46.5213C30.5727 46.4674 30.4865 46.3751 30.4402 46.2619C30.3939 46.1488 30.3907 46.0226 30.4311 45.9072C30.4715 45.7918 30.5528 45.6952 30.6597 45.6357L31.7836 45.0254L28.5776 45.9391C28.4933 45.9646 28.4037 45.9671 28.3181 45.9463Z" fill="white"/>
<path d="M18.7685 10.5519C18.6718 10.5275 18.5846 10.4748 18.5181 10.4005C18.4517 10.3261 18.4089 10.2336 18.3954 10.1348C18.3819 10.036 18.3983 9.93544 18.4424 9.84601C18.4865 9.75657 18.5563 9.68237 18.6429 9.63293L19.7382 9.00928L18.1164 9.47121C17.9968 9.50394 17.8692 9.49101 17.7585 9.43493C17.6479 9.37885 17.562 9.28363 17.5176 9.16777C17.4732 9.05191 17.4735 8.92369 17.5184 8.80802C17.5633 8.69236 17.6496 8.59752 17.7605 8.54193L18.3 8.28115L17.8171 8.41898C17.7013 8.45139 17.5777 8.44099 17.4689 8.38968C17.3602 8.33837 17.2736 8.24958 17.225 8.1396C17.1764 8.02962 17.169 7.90581 17.2043 7.79085C17.2395 7.6759 17.315 7.5775 17.417 7.51369L19.7106 6.09327L17.9111 6.60655C17.7998 6.63813 17.6809 6.63012 17.5748 6.58388C17.4688 6.53763 17.382 6.45603 17.3294 6.35297C17.2767 6.24991 17.2614 6.13178 17.2862 6.01873C17.3109 5.90568 17.3741 5.8047 17.4649 5.73301L18.831 4.65762C18.7211 4.65903 18.6139 4.62422 18.5258 4.55856C18.4377 4.4929 18.3737 4.40005 18.3436 4.29437C18.3074 4.16712 18.3231 4.0307 18.3872 3.91499C18.4513 3.79927 18.5587 3.71369 18.6858 3.677L20.972 3.02371C21.0835 2.99158 21.2026 2.99921 21.3091 3.04531C21.4156 3.09141 21.5027 3.17309 21.5555 3.27637C21.6084 3.37965 21.6237 3.49809 21.5988 3.61141C21.5739 3.72472 21.5104 3.82586 21.4191 3.89748L20.0877 4.94136L22.8988 4.1391C23.0149 4.10598 23.139 4.11598 23.2483 4.16726C23.3576 4.21853 23.4447 4.30762 23.4934 4.41808C23.5421 4.52853 23.5493 4.65289 23.5135 4.76819C23.4777 4.88349 23.4013 4.98194 23.2986 5.04536L20.9991 6.46845L23.5062 5.75607C23.6263 5.72216 23.7548 5.73441 23.8663 5.79041C23.9779 5.84641 24.0645 5.94211 24.109 6.05869C24.1536 6.17527 24.153 6.30432 24.1073 6.42045C24.0615 6.53659 23.974 6.63143 23.8619 6.68632L23.3265 6.94709L23.4563 6.91052C23.5748 6.87338 23.7028 6.88163 23.8155 6.93368C23.9282 6.98572 24.0175 7.07783 24.0661 7.19209C24.1146 7.30635 24.1189 7.43458 24.0782 7.55183C24.0374 7.66909 23.9545 7.76699 23.8455 7.82647L22.7512 8.45036L23.2053 8.32077C23.2693 8.2995 23.3369 8.29139 23.4041 8.29694C23.4713 8.30248 23.5367 8.32157 23.5963 8.35304C23.656 8.38451 23.7086 8.42772 23.7511 8.48007C23.7936 8.53242 23.8251 8.59283 23.8437 8.65766C23.8622 8.72249 23.8675 8.7904 23.8591 8.85732C23.8507 8.92423 23.8289 8.98876 23.795 9.04702C23.761 9.10528 23.7156 9.15607 23.6615 9.19633C23.6074 9.2366 23.5457 9.2655 23.4802 9.28131L19.0273 10.5477C18.9429 10.5723 18.8536 10.5738 18.7685 10.5519Z" fill="#FFCE48"/>
<path d="M18.728 60.0707C18.6295 60.0459 18.5408 59.9916 18.4738 59.9152C18.4069 59.8387 18.3648 59.7436 18.3533 59.6427C18.3417 59.5417 18.3612 59.4396 18.4092 59.3499C18.4571 59.2603 18.5312 59.1874 18.6216 59.141L22.7936 57.0043L19.5736 57.9248C19.4533 57.9595 19.3245 57.9479 19.2124 57.8922C19.1003 57.8365 19.0132 57.7408 18.9683 57.624C18.9233 57.5072 18.9238 57.3779 18.9696 57.2614C19.0154 57.1449 19.1032 57.0499 19.2157 56.995L22.5674 55.355L20.2361 56.0197C20.1154 56.0538 19.9862 56.0412 19.8742 55.9845C19.7623 55.9278 19.6757 55.831 19.6318 55.7134C19.5879 55.5959 19.5898 55.4661 19.6372 55.3498C19.6846 55.2336 19.7739 55.1394 19.8875 55.086L22.1636 54.0241L20.7989 54.4143C20.6796 54.4486 20.5518 54.4373 20.4404 54.3826C20.3289 54.3279 20.2418 54.2337 20.196 54.1183C20.1502 54.003 20.1489 53.8747 20.1925 53.7584C20.236 53.6422 20.3212 53.5463 20.4316 53.4894L23.5279 51.8937L21.4748 52.4806C21.3588 52.513 21.235 52.5025 21.1261 52.4509C21.0173 52.3993 20.9307 52.3102 20.8823 52.1999C20.8339 52.0895 20.827 51.9655 20.8628 51.8505C20.8986 51.7354 20.9747 51.6372 21.0772 51.5738L22.7353 50.5592L22.0803 50.7457C21.9736 50.7763 21.8597 50.7705 21.7567 50.7293C21.6536 50.688 21.5672 50.6136 21.511 50.5178C21.4549 50.422 21.4323 50.3102 21.4467 50.2001C21.4612 50.09 21.5118 49.9879 21.5907 49.9097L22.2279 49.2796C22.1408 49.2321 22.0698 49.1597 22.024 49.0717C21.9782 48.9837 21.9596 48.884 21.9705 48.7854C21.9815 48.6868 22.0216 48.5937 22.0857 48.5179C22.1497 48.4422 22.2349 48.3872 22.3303 48.36L23.6132 47.9957C23.7198 47.9653 23.8334 47.9713 23.9362 48.0125C24.039 48.0538 24.1252 48.128 24.1813 48.2236C24.2374 48.3191 24.2601 48.4306 24.2459 48.5405C24.2318 48.6503 24.1815 48.7524 24.1031 48.8306L23.6777 49.253L25.9927 48.5956C26.109 48.5624 26.2332 48.5725 26.3426 48.6239C26.4519 48.6753 26.539 48.7646 26.5876 48.8752C26.6362 48.9858 26.6431 49.1103 26.6071 49.2257C26.571 49.341 26.4944 49.4394 26.3914 49.5026L24.7369 50.5068L28.0966 49.5471C28.2153 49.5147 28.3417 49.5272 28.4517 49.5821C28.5618 49.6371 28.6477 49.7307 28.693 49.845C28.7384 49.9593 28.7401 50.0863 28.6977 50.2018C28.6553 50.3172 28.5718 50.413 28.4633 50.4708L25.366 52.0663L27.9485 51.3285C28.0693 51.2943 28.1985 51.3069 28.3105 51.3636C28.4224 51.4204 28.5089 51.5171 28.5528 51.6347C28.5967 51.7523 28.5948 51.8821 28.5475 51.9983C28.5001 52.1145 28.4108 52.2087 28.2972 52.2621L26.0211 53.3241L27.713 52.8416C27.8325 52.809 27.9598 52.822 28.0703 52.8779C28.1808 52.9339 28.2666 53.0289 28.311 53.1445C28.3555 53.2601 28.3555 53.3881 28.311 53.5036C28.2665 53.6192 28.1806 53.7142 28.0701 53.7701L24.7235 55.4062L27.4349 54.6316C27.5541 54.5981 27.6815 54.6099 27.7924 54.665C27.9033 54.72 27.9899 54.8142 28.0354 54.9294C28.0808 55.0446 28.0819 55.1725 28.0384 55.2885C27.995 55.4044 27.91 55.5001 27.8 55.557L23.6247 57.6949L27.1152 56.7071C27.2309 56.6767 27.3538 56.6888 27.4614 56.7412C27.569 56.7937 27.6542 56.883 27.7015 56.9929C27.7489 57.1028 27.7552 57.2261 27.7194 57.3403C27.6836 57.4545 27.6079 57.5521 27.5063 57.6153L25.4814 58.8268L26.8414 58.4385C26.9426 58.4095 27.0503 58.4131 27.1493 58.4489C27.2483 58.4847 27.3334 58.5508 27.3926 58.6379C27.4518 58.7249 27.4821 58.8283 27.479 58.9335C27.476 59.0387 27.4398 59.1403 27.3757 59.2238L26.5713 60.2707C26.6993 60.2398 26.8344 60.2607 26.9471 60.3288C27.0599 60.3968 27.1412 60.5066 27.1734 60.6343C27.2057 60.762 27.1863 60.8973 27.1194 61.0107C27.0525 61.1242 26.9435 61.2066 26.8162 61.2402L25.3906 61.6472C25.2893 61.6764 25.1814 61.6728 25.0822 61.637C24.9831 61.6011 24.8978 61.5349 24.8386 61.4476C24.7794 61.3604 24.7492 61.2567 24.7524 61.1514C24.7557 61.046 24.7921 60.9443 24.8566 60.8609L25.6605 59.8159L22.098 60.832C21.9823 60.8625 21.8594 60.8504 21.7518 60.7979C21.6442 60.7455 21.559 60.6562 21.5117 60.5462C21.4643 60.4363 21.458 60.313 21.4938 60.1988C21.5296 60.0846 21.6053 59.987 21.7069 59.9238L23.7294 58.7138L18.9907 60.0674C18.9051 60.0924 18.8142 60.0936 18.728 60.0707Z" fill="#7FC3CF"/>
<path d="M16.1726 62.4901C16.0725 62.4651 15.9826 62.4097 15.9151 62.3316C15.8477 62.2535 15.8061 62.1565 15.796 62.0538C15.7859 61.9511 15.8079 61.8478 15.8588 61.7581C15.9097 61.6684 15.9872 61.5966 16.0805 61.5526L16.197 61.4993L14.467 61.9939C14.35 62.0235 14.2262 62.0097 14.1186 61.9551C14.011 61.9005 13.9267 61.8089 13.8813 61.697C13.836 61.5852 13.8326 61.4607 13.8718 61.3466C13.9111 61.2324 13.9903 61.1364 14.0948 61.076L15.069 60.5613L12.1525 61.3938C12.0325 61.4262 11.9049 61.4128 11.7943 61.3561C11.6837 61.2995 11.5982 61.2038 11.5543 61.0876C11.5105 60.9713 11.5114 60.843 11.5571 60.7274C11.6027 60.6119 11.6897 60.5175 11.8011 60.4626L11.9178 60.4083L11.6323 60.4904C11.5196 60.5226 11.3991 60.5141 11.2919 60.4665C11.1847 60.4188 11.0977 60.335 11.0461 60.2297C10.9945 60.1245 10.9815 60.0044 11.0094 59.8905C11.0374 59.7766 11.1045 59.6761 11.199 59.6067L12.3945 58.7308C12.2882 58.7038 12.1936 58.6425 12.1255 58.5565C12.0574 58.4704 12.0196 58.3643 12.0177 58.2546C12.0159 58.1449 12.0502 58.0376 12.1154 57.9493C12.1806 57.861 12.273 57.7966 12.3784 57.766L14.6546 57.1154C14.7673 57.0832 14.8878 57.0917 14.995 57.1393C15.1021 57.187 15.1891 57.2708 15.2408 57.376C15.2924 57.4813 15.3054 57.6014 15.2774 57.7153C15.2495 57.8292 15.1824 57.9297 15.0879 57.9991L14.0464 58.762L17.4389 57.7868C17.5591 57.7534 17.6874 57.7662 17.7987 57.8226C17.9099 57.879 17.9961 57.975 18.0402 58.0917C18.0843 58.2084 18.0833 58.3373 18.0372 58.4533C17.9911 58.5692 17.9034 58.6637 17.7912 58.7182L17.6813 58.7701L19.4054 58.274C19.5224 58.2445 19.6462 58.2583 19.7538 58.3129C19.8615 58.3674 19.9458 58.4591 19.9911 58.5709C20.0365 58.6828 20.0398 58.8072 20.0006 58.9214C19.9614 59.0355 19.8822 59.1316 19.7776 59.1919L18.801 59.7082L21.7663 58.8703C21.8867 58.8367 22.0153 58.8494 22.1268 58.906C22.2382 58.9625 22.3245 59.0587 22.3686 59.1757C22.4126 59.2926 22.4113 59.4219 22.3648 59.5379C22.3183 59.6539 22.23 59.7483 22.1174 59.8025L22.001 59.8558L23.7309 59.3612C23.847 59.3301 23.9704 59.3418 24.0785 59.3942C24.1866 59.4466 24.2722 59.5362 24.3197 59.6466C24.3672 59.757 24.3733 59.8808 24.3369 59.9954C24.3006 60.1099 24.2242 60.2075 24.1218 60.2703L22.6236 61.1611L26.5069 60.0573C26.623 60.0249 26.7468 60.0354 26.8556 60.087C26.9645 60.1386 27.0511 60.2277 27.0995 60.338C27.1478 60.4483 27.1548 60.5724 27.119 60.6874C27.0832 60.8024 27.0071 60.9007 26.9046 60.964L25.3227 61.9297L29.3705 60.7784C29.484 60.7467 29.605 60.7561 29.7122 60.8048C29.8194 60.8536 29.9059 60.9387 29.9566 61.045C30.0072 61.1513 30.0187 61.2721 29.989 61.3861C29.9593 61.5 29.8903 61.5999 29.7942 61.668L27.9669 62.9423L31.8637 61.8305C31.9816 61.798 32.1072 61.8099 32.217 61.8638C32.3267 61.9177 32.4129 62.01 32.4592 62.1231C32.5055 62.2363 32.5088 62.3625 32.4683 62.4779C32.4279 62.5933 32.3466 62.6898 32.2398 62.7493L31.6437 63.0712L32.5208 62.8207C32.6221 62.7935 32.7294 62.7989 32.8275 62.836C32.9256 62.8731 33.0095 62.9402 33.0674 63.0276C33.1253 63.1151 33.1543 63.2185 33.1501 63.3233C33.146 63.4281 33.109 63.529 33.0444 63.6116L32.1544 64.7289L32.664 64.5833C32.7894 64.5531 32.9216 64.5725 33.033 64.6374C33.1444 64.7023 33.2264 64.8078 33.2619 64.9318C33.2974 65.0558 33.2836 65.1887 33.2234 65.3027C33.1632 65.4168 33.0613 65.5032 32.9389 65.5438L30.9412 66.1158C30.8401 66.1428 30.733 66.1374 30.6351 66.1003C30.5371 66.0632 30.4533 65.9963 30.3955 65.909C30.3376 65.8218 30.3086 65.7185 30.3125 65.6139C30.3164 65.5093 30.3531 65.4085 30.4174 65.3259L31.3074 64.2086L27.5654 65.2705C27.4475 65.303 27.3219 65.2911 27.2121 65.2372C27.1024 65.1833 27.0162 65.091 26.9699 64.9778C26.9236 64.8647 26.9203 64.7385 26.9608 64.6231C27.0012 64.5077 27.0825 64.4111 27.1893 64.3516L27.7851 64.0307L25.3634 64.7191C25.25 64.7508 25.129 64.7415 25.0218 64.6927C24.9146 64.644 24.828 64.5589 24.7774 64.4526C24.7268 64.3462 24.7153 64.2255 24.745 64.1115C24.7747 63.9975 24.8437 63.8977 24.9398 63.8296L26.7682 62.5545L22.072 63.895C21.9558 63.9282 21.8315 63.9181 21.7222 63.8667C21.6128 63.8153 21.5258 63.726 21.4771 63.6154C21.4285 63.5048 21.4216 63.3803 21.4577 63.2649C21.4937 63.1496 21.5704 63.0512 21.6734 62.988L23.2553 62.0224L19.2084 63.1739C19.0923 63.205 18.9689 63.1933 18.8608 63.1409C18.7527 63.0884 18.6671 62.9988 18.6196 62.8884C18.5721 62.778 18.566 62.6542 18.6024 62.5397C18.6387 62.4252 18.7151 62.3276 18.8175 62.2647L20.3157 61.374L16.4321 62.4829C16.3478 62.5084 16.2582 62.5109 16.1726 62.4901Z" fill="#7FC3CF"/>
<path d="M24.3222 8.09874C25.6372 -1.09725 11.9666 4.39582 18.4656 10.3435C14.5052 13.1753 15.282 30.5596 13.7158 36.3166C12.8172 42.3469 19.1789 43.8697 23.7824 44.7481L22.9719 47.9852C19.9567 49.7919 20.1253 54.9854 18.4435 58.0383C12.0003 55.1777 6.22722 61.2679 15.9283 62.3567C21.037 63.6174 26.1349 64.9422 31.2444 66.1917C32.5065 66.4376 33.6095 65.8942 33.6694 64.531C33.7499 61.2245 29.9614 60.9738 27.5513 60.3188C27.4463 56.9504 30.2431 51.8861 28.3024 49.192L29.0828 46.0752C32.3996 46.8552 35.6723 47.8283 39.012 48.4964C39.8989 53.2461 38.2883 59.2425 40.8203 63.3257C43.8479 63.8776 55.6347 68.502 57.0549 66.033C59.9896 60.6321 49.1586 61.4993 45.9418 59.8053L45.2751 48.2348C47.3152 48.6096 48.6514 47.102 48.8854 45.2287C52.1049 35.5571 29.1702 31.5629 22.9822 34.1514C23.6563 24.6908 32.5605 32.7417 36.9665 30.4605C39.8639 30.7293 44.8226 33.9935 46.4485 30.2132C47.5172 25.9449 27.4037 24.0519 23.5446 22.1929C23.0366 18.6639 26.3485 12.4193 22.4473 10.5188C22.9389 10.3068 23.3687 9.97359 23.6966 9.55037C24.0245 9.12715 24.2397 8.62772 24.3222 8.09874ZM19.0726 4.65864C21.9139 1.44244 24.1627 7.18359 22.292 9.40163C19.4558 12.5315 17.1177 6.93292 19.0726 4.65864ZM32.0073 65.3106C31.9661 65.3756 31.9319 65.4448 31.9051 65.517C25.5112 63.9583 19.0466 62.3035 12.6527 60.7119C11.5571 60.118 12.7543 58.5725 13.4569 58.1794C17.616 57.794 21.9495 60.1543 26.1408 60.7893C28.3988 61.4588 33.2804 61.7533 32.0073 65.3106ZM26.1117 59.9584L19.8394 58.3878C21.0981 55.263 21.7852 51.8229 23.3072 48.8444C24.7224 49.1505 26.119 49.5374 27.49 50.003C27.4818 53.2678 26.4578 56.6576 26.1117 59.9584ZM26.9145 48.7074L24.4544 48.0915L25.2025 45.1037L27.6626 45.7197L26.9145 48.7074ZM54.9286 62.808C56.9568 62.8921 55.7378 65.1754 55.4218 66.322C52.3497 65.4992 49.259 64.7789 46.1779 63.9879C46.1116 62.8476 46.0458 61.7075 45.9808 60.5676L54.9286 62.808ZM44.5721 62.0931L44.6552 63.5272C42.7301 63.2575 40.8356 62.5977 41.1908 60.3022L40.5102 48.4458C40.8213 48.3911 41.1176 48.2718 41.3799 48.0956C41.6422 47.9195 41.8647 47.6904 42.0332 47.4231C42.5708 47.5856 43.1582 47.7759 43.7596 47.9389C44.0297 52.6571 44.3005 57.3752 44.5721 62.0931ZM32.5539 34.8389C37.9789 36.2281 50.0438 37.5924 47.2704 45.6429C46.9035 48.3147 44.0334 46.6024 42.3632 46.3439C39.1969 39.7051 24.647 44.6914 23.0933 35.5276C25.371 33.4383 29.8624 34.3567 32.5539 34.8389ZM35.1611 30.2559C29.6587 28.2699 20.4135 26.8262 21.5794 35.6001C23.2459 44.8117 36.3651 40.7753 40.8743 46.0897C41.007 50.0887 31.5635 45.1594 29.0903 45.2298C27.9006 44.7937 26.4709 44.6615 25.2101 44.2582C10.6486 42.7822 16.1043 33.6117 16.8144 23.2375C23.6369 21.9892 30.0521 24.9284 36.6512 26.322C36.1721 27.2391 36.2166 30.4171 35.1611 30.2559ZM40.822 27.3024C42.0445 27.7394 43.5373 27.6648 44.5513 28.5269C45.4367 29.3795 44.9356 31.4384 43.646 31.4134L37.2689 29.8167L38.0704 26.6155L40.822 27.3024ZM22.783 12.9491C22.5622 16.005 22.2827 19.0647 22.0521 22.1223L16.908 22.5177C18.0031 19.7086 16.377 10.7596 20.3031 11.0169C21.6064 11.1227 22.7756 11.336 22.783 12.9491Z" fill="#262626"/>
</g>
<defs>
<clipPath id="clip0_405_2690">
<rect width="60" height="60" fill="white" transform="translate(14.8997 0.866943) rotate(14.0571)"/>
</clipPath>
</defs>
</svg>
