<svg width="74" height="74" viewBox="0 0 74 74" fill="none" xmlns="http://www.w3.org/2000/svg">
<circle cx="37" cy="37" r="37" fill="url(#paint0_linear_858_614)"/>
<g clip-path="url(#clip0_858_614)">
<path d="M48.2343 54.9204C48.1593 54.9204 48.086 54.8979 48.024 54.8557C47.9619 54.8136 47.914 54.7537 47.8864 54.6839C47.8588 54.6142 47.8528 54.5377 47.8693 54.4645C47.8857 54.3913 47.9238 54.3247 47.9786 54.2735L48.7638 53.5391L47.6802 54.1643C47.6102 54.2062 47.5285 54.2242 47.4474 54.2154C47.3663 54.2066 47.2904 54.1715 47.2311 54.1155C47.1718 54.0595 47.1324 53.9857 47.119 53.9052C47.1055 53.8248 47.1188 53.7422 47.1567 53.6699L47.7325 52.5481L47.0594 52.9348C47.0065 52.9661 46.9466 52.9836 46.8852 52.9857C46.8238 52.9878 46.7628 52.9744 46.7079 52.9467C46.6527 52.9198 46.605 52.8796 46.569 52.8297C46.5329 52.7799 46.5098 52.722 46.5015 52.6611L46.432 52.1323C46.3507 52.1294 46.2725 52.1001 46.2094 52.0488C46.1463 51.9975 46.1016 51.927 46.0821 51.848C46.0627 51.769 46.0695 51.6859 46.1016 51.6111C46.1337 51.5364 46.1893 51.4741 46.26 51.4338L46.5546 51.267C46.6078 51.2364 46.6677 51.2193 46.7291 51.2174C46.7904 51.2154 46.8513 51.2285 46.9064 51.2557C46.9615 51.2828 47.009 51.3231 47.0448 51.3729C47.0806 51.4228 47.1036 51.4807 47.1118 51.5415L47.1739 52.0082L48.4572 51.2678C48.5271 51.226 48.6087 51.2082 48.6896 51.2171C48.7705 51.2259 48.8463 51.2609 48.9055 51.3167C48.9647 51.3725 49.0041 51.4462 49.0177 51.5264C49.0313 51.6067 49.0183 51.6892 48.9807 51.7614L48.4056 52.8832L51.2071 51.267C51.2868 51.2201 51.381 51.2043 51.4716 51.2228C51.5623 51.2412 51.6428 51.2926 51.6978 51.367C51.7527 51.4414 51.7781 51.5335 51.7692 51.6255C51.7602 51.7175 51.7174 51.803 51.6491 51.8653L50.8639 52.5997L53.171 51.2685C53.247 51.2247 53.336 51.2089 53.4224 51.224C53.5087 51.2391 53.5871 51.2841 53.6437 51.3511C53.7003 51.4181 53.7315 51.5029 53.7319 51.5906C53.7323 51.6783 53.7019 51.7634 53.6459 51.8309L52.5279 53.1771L55.5635 51.4256C55.6439 51.3803 55.7381 51.3663 55.8282 51.3863C55.9182 51.4063 55.9977 51.4589 56.0513 51.534C56.105 51.609 56.129 51.7012 56.1187 51.7929C56.1084 51.8846 56.0647 51.9693 55.9958 52.0306L55.7071 52.2819L55.8432 52.2071C55.9208 52.1627 56.0117 52.1475 56.0995 52.1643C56.1873 52.1812 56.2662 52.2289 56.3218 52.2989C56.3774 52.3689 56.4061 52.4566 56.4027 52.5459C56.3993 52.6353 56.364 52.7204 56.3031 52.786L56.0257 53.0851C56.0917 53.0856 56.1565 53.103 56.2139 53.1357C56.2713 53.1685 56.3193 53.2154 56.3532 53.2721C56.4026 53.3578 56.4161 53.4596 56.3906 53.5552C56.365 53.6508 56.3027 53.7324 56.2171 53.7821L54.3325 54.8605C54.2549 54.905 54.164 54.9202 54.0762 54.9033C53.9883 54.8865 53.9095 54.8387 53.8539 54.7687C53.7982 54.6987 53.7695 54.6111 53.773 54.5217C53.7764 54.4324 53.8117 54.3472 53.8725 54.2817L54.0333 54.1089L52.7193 54.8673C52.639 54.9126 52.5447 54.9266 52.4546 54.9066C52.3646 54.8866 52.2851 54.834 52.2315 54.7589C52.1778 54.6838 52.1538 54.5916 52.1641 54.4999C52.1744 54.4082 52.2182 54.3236 52.2871 54.2623L52.5772 54.0095L51.086 54.8695C51.01 54.9129 50.9213 54.9283 50.8351 54.913C50.749 54.8977 50.671 54.8528 50.6146 54.7859C50.5582 54.719 50.527 54.6345 50.5265 54.547C50.526 54.4595 50.5562 54.3746 50.6118 54.3071L51.7299 52.961L48.4243 54.8703C48.3667 54.904 48.301 54.9213 48.2343 54.9204Z" fill="#2381D9"/>
<path d="M45.4511 54.91C45.3834 54.9101 45.3169 54.8918 45.2588 54.8571C45.2007 54.8224 45.1531 54.7725 45.1211 54.7129C45.0891 54.6532 45.0738 54.586 45.077 54.5184C45.0802 54.4507 45.1017 54.3852 45.1392 54.3289L45.8714 53.2235L44.1603 54.213C44.0813 54.2591 43.9883 54.2747 43.8986 54.2569C43.8089 54.239 43.7289 54.189 43.6736 54.1161C43.6184 54.0433 43.5917 53.9527 43.5987 53.8616C43.6057 53.7704 43.6458 53.685 43.7116 53.6214L44.3547 52.9954L43.808 53.311C43.7318 53.3552 43.6425 53.3711 43.5558 53.3559C43.469 53.3407 43.3904 53.2953 43.3338 53.2278C43.2772 53.1603 43.2463 53.075 43.2464 52.987C43.2466 52.8989 43.2778 52.8137 43.3346 52.7464L44.6688 51.1616L43.3705 51.9095C43.293 51.9534 43.2022 51.9682 43.1147 51.9512C43.0272 51.9341 42.9487 51.8864 42.8933 51.8165C42.8379 51.7467 42.8093 51.6594 42.8126 51.5703C42.8159 51.4812 42.8509 51.3962 42.9113 51.3307L43.9643 50.2089L43.0108 50.7593C42.9312 50.8025 42.8387 50.8154 42.7504 50.7956C42.662 50.7757 42.5839 50.7245 42.5304 50.6514C42.477 50.5784 42.4519 50.4884 42.4598 50.3982C42.4677 50.308 42.508 50.2237 42.5733 50.161L42.8313 49.9277L42.7625 49.9673C42.6829 50.0117 42.5898 50.0254 42.5008 50.006C42.4118 49.9866 42.3329 49.9353 42.279 49.8619C42.2251 49.7884 42.1998 49.6978 42.208 49.607C42.2162 49.5163 42.2573 49.4316 42.3235 49.369L42.6526 49.0698L42.5075 49.1536C42.4301 49.2066 42.3355 49.2286 42.2427 49.2151C42.1498 49.2017 42.0654 49.1538 42.0062 49.0811C41.947 49.0083 41.9173 48.9159 41.923 48.8223C41.9287 48.7286 41.9694 48.6405 42.0371 48.5755L43.2628 47.183L42.0999 47.856C42.0197 47.9023 41.9253 47.9172 41.8348 47.8979C41.7443 47.8786 41.6642 47.8264 41.6099 47.7514C41.5557 47.6764 41.5312 47.584 41.5411 47.4919C41.5511 47.3999 41.5948 47.3149 41.6639 47.2533L41.8568 47.0798C41.7778 47.1266 41.6843 47.1427 41.5942 47.1251C41.504 47.1074 41.4235 47.0571 41.368 46.9839C41.3126 46.9107 41.286 46.8196 41.2934 46.728C41.3008 46.6365 41.3416 46.5508 41.4081 46.4874L42.0947 45.8188L41.5592 46.1285C41.48 46.1769 41.3856 46.1942 41.2944 46.1769C41.2032 46.1596 41.1216 46.109 41.0657 46.035C41.0097 45.9609 40.9833 45.8686 40.9915 45.7762C40.9998 45.6837 41.0422 45.5976 41.1105 45.5346L41.7028 44.9685L41.2712 45.2176C41.1947 45.2616 41.105 45.2772 41.0181 45.2615C40.9312 45.2457 40.8527 45.1998 40.7964 45.1317C40.7401 45.0636 40.7098 44.9778 40.7108 44.8895C40.7117 44.8012 40.7439 44.716 40.8016 44.6492L41.5098 43.8302L41.0334 44.1047C40.969 44.1419 40.895 44.159 40.8208 44.1538C40.7466 44.1487 40.6756 44.1216 40.6169 44.0759C40.5582 44.0302 40.5145 43.9681 40.4913 43.8974C40.4681 43.8267 40.4665 43.7508 40.4867 43.6792L40.8494 42.4078C40.8105 42.3777 40.7777 42.3404 40.753 42.2979C40.7033 42.2121 40.6898 42.1101 40.7153 42.0143C40.7408 41.9185 40.8033 41.8368 40.8891 41.7871L41.1837 41.6165C41.2482 41.5795 41.3223 41.5626 41.3964 41.5678C41.4706 41.5731 41.5415 41.6003 41.6001 41.6461C41.6587 41.6919 41.7023 41.754 41.7254 41.8247C41.7485 41.8954 41.75 41.9713 41.7297 42.0428L41.4582 42.9994L43.0542 42.078C43.1306 42.0344 43.22 42.0191 43.3066 42.0349C43.3932 42.0507 43.4715 42.0966 43.5276 42.1644C43.5837 42.2322 43.6141 42.3177 43.6134 42.4057C43.6127 42.4937 43.581 42.5787 43.5238 42.6456L42.8156 43.4683L44.0264 42.7698C44.1055 42.7253 44.198 42.7111 44.2867 42.7297C44.3755 42.7484 44.4544 42.7987 44.5089 42.8712C44.5633 42.9438 44.5895 43.0336 44.5826 43.1241C44.5757 43.2145 44.5362 43.2994 44.4714 43.3628L43.8806 43.9275L44.3128 43.6784C44.3918 43.6323 44.4849 43.6167 44.5745 43.6345C44.6642 43.6524 44.7442 43.7024 44.7995 43.7753C44.8547 43.8481 44.8814 43.9387 44.8744 44.0298C44.8674 44.121 44.8273 44.2064 44.7616 44.27L44.075 44.9386L44.6135 44.6282C44.6936 44.5819 44.7881 44.567 44.8786 44.5864C44.9691 44.6057 45.0492 44.6579 45.1035 44.7329C45.1577 44.8079 45.1822 44.9003 45.1722 44.9923C45.1623 45.0843 45.1185 45.1694 45.0495 45.231L44.8558 45.4038C44.9326 45.3598 45.0224 45.3444 45.1095 45.3604C45.1965 45.3764 45.275 45.4228 45.3311 45.4912C45.3871 45.5597 45.4171 45.6458 45.4157 45.7342C45.4142 45.8227 45.3815 45.9078 45.3232 45.9744L44.0967 47.3684L45.2626 46.6953C45.3422 46.651 45.4353 46.6372 45.5243 46.6566C45.6134 46.676 45.6923 46.7273 45.7462 46.8008C45.8001 46.8742 45.8253 46.9649 45.8171 47.0556C45.8089 47.1464 45.7679 47.231 45.7016 47.2936L45.3733 47.5928L45.5229 47.5075C45.6025 47.4643 45.695 47.4514 45.7833 47.4713C45.8717 47.4911 45.9498 47.5423 46.0033 47.6154C46.0567 47.6885 46.0818 47.7785 46.0739 47.8687C46.0661 47.9589 46.0257 48.0431 45.9604 48.1058L45.7001 48.3414L45.7749 48.2988C45.8525 48.2549 45.9432 48.2401 46.0307 48.2571C46.1182 48.2742 46.1968 48.3219 46.2522 48.3918C46.3076 48.4616 46.3362 48.5489 46.3329 48.638C46.3296 48.7271 46.2946 48.8121 46.2341 48.8776L45.1811 49.9994L46.1369 49.4483C46.2131 49.4041 46.3024 49.3882 46.3892 49.4034C46.4759 49.4186 46.5545 49.464 46.6111 49.5315C46.6677 49.599 46.6987 49.6843 46.6985 49.7723C46.6984 49.8604 46.6671 49.9456 46.6103 50.0129L45.2761 51.5984L46.5774 50.8468C46.6563 50.8006 46.7494 50.785 46.8391 50.8029C46.9288 50.8207 47.0088 50.8708 47.064 50.9436C47.1193 51.0165 47.1459 51.107 47.139 51.1982C47.132 51.2893 47.0918 51.3748 47.0261 51.4384L46.3807 52.0651L46.8736 51.7816C46.9465 51.7395 47.0316 51.7232 47.115 51.7355C47.1984 51.7477 47.2752 51.7878 47.333 51.8492C47.3907 51.9106 47.426 51.9897 47.4332 52.0737C47.4404 52.1577 47.4189 52.2416 47.3724 52.3119L46.6395 53.418L47.2737 53.0523C47.3417 53.013 47.4204 52.9962 47.4986 53.0042C47.5768 53.0122 47.6504 53.0446 47.7091 53.0968C47.7678 53.1491 47.8086 53.2185 47.8256 53.2952C47.8426 53.3719 47.835 53.452 47.8039 53.5242L47.7112 53.7388C47.7919 53.7427 47.8693 53.7726 47.9316 53.8242C47.9939 53.8757 48.0378 53.9461 48.0567 54.0247C48.0757 54.1032 48.0687 54.1859 48.0367 54.2601C48.0047 54.3344 47.9496 54.3963 47.8795 54.4366L47.1465 54.8591C47.0784 54.8985 46.9996 54.9155 46.9213 54.9075C46.843 54.8995 46.7692 54.867 46.7104 54.8146C46.6517 54.7622 46.611 54.6926 46.5941 54.6158C46.5772 54.5389 46.5849 54.4587 46.6163 54.3865L46.6686 54.2638L45.6388 54.8621C45.5817 54.8946 45.5168 54.9112 45.4511 54.91Z" fill="#2381D9"/>
<path d="M29.9962 48.1922C29.9243 48.1922 29.8539 48.1715 29.7934 48.1326C29.733 48.0936 29.685 48.038 29.6553 47.9725C29.6257 47.907 29.6155 47.8343 29.6261 47.7632C29.6367 47.692 29.6676 47.6255 29.715 47.5714L30.3335 46.8662L29.3381 47.4405C29.2601 47.485 29.1688 47.5 29.0807 47.4827C28.9926 47.4654 28.9137 47.417 28.8583 47.3463C28.803 47.2757 28.7749 47.1874 28.7792 47.0978C28.7836 47.0081 28.82 46.923 28.8819 46.858L29.9917 45.7055L29.3381 46.0832C29.2591 46.13 29.1656 46.1461 29.0754 46.1285C28.9853 46.1108 28.9048 46.0605 28.8493 45.9873C28.7938 45.9141 28.7673 45.823 28.7746 45.7314C28.782 45.6399 28.8229 45.5542 28.8894 45.4908L29.2491 45.1416C29.1857 45.1591 29.1189 45.1597 29.0552 45.1431C28.9916 45.1266 28.9334 45.0935 28.8866 45.0473C28.8398 45.0012 28.806 44.9434 28.7887 44.88C28.7713 44.8166 28.7709 44.7497 28.7877 44.6861L28.9918 43.9151C28.9298 43.8862 28.8769 43.841 28.8388 43.7841C28.8007 43.7273 28.779 43.6612 28.7759 43.5928C28.7728 43.5245 28.7885 43.4567 28.8213 43.3966C28.8541 43.3366 28.9027 43.2868 28.9619 43.2525L29.3403 43.0341C29.4043 42.9971 29.4777 42.9798 29.5514 42.9845C29.6251 42.9892 29.6958 43.0156 29.7545 43.0604C29.8132 43.1052 29.8573 43.1664 29.8813 43.2362C29.9053 43.3061 29.9081 43.3815 29.8893 43.4529L29.7397 44.0078L31.4598 43.0176C31.5388 42.9708 31.6323 42.9546 31.7225 42.9723C31.8126 42.99 31.8931 43.0402 31.9486 43.1135C32.0041 43.1867 32.0307 43.2778 32.0233 43.3693C32.0159 43.4609 31.975 43.5466 31.9085 43.6099L31.5847 43.9233L31.916 43.7326C31.9941 43.6875 32.0858 43.6722 32.1742 43.6893C32.2627 43.7065 32.342 43.7551 32.3975 43.8261C32.4531 43.8971 32.4811 43.9857 32.4764 44.0757C32.4718 44.1657 32.4348 44.251 32.3722 44.3159L31.2624 45.4677L31.9227 45.0862C31.9995 45.0418 32.0896 45.026 32.1769 45.0418C32.2642 45.0576 32.3431 45.104 32.3993 45.1726C32.4556 45.2412 32.4857 45.3276 32.4841 45.4163C32.4826 45.505 32.4495 45.5903 32.3909 45.6569L31.7717 46.3629L31.9287 46.2724C31.9969 46.2331 32.0757 46.2163 32.154 46.2244C32.2323 46.2325 32.306 46.2651 32.3647 46.3176C32.4233 46.37 32.464 46.4397 32.4808 46.5165C32.4975 46.5934 32.4897 46.6736 32.4582 46.7458L32.278 47.1586C32.34 47.1875 32.3928 47.2328 32.4308 47.2897C32.4688 47.3465 32.4905 47.4127 32.4935 47.4811C32.4965 47.5494 32.4808 47.6172 32.4479 47.6772C32.415 47.7372 32.3664 47.787 32.3072 47.8212L31.7724 48.1301C31.7042 48.1694 31.6254 48.1862 31.5471 48.178C31.4689 48.1699 31.3951 48.1373 31.3365 48.0849C31.2778 48.0324 31.2372 47.9628 31.2204 47.8859C31.2036 47.809 31.2115 47.7288 31.2429 47.6567L31.3177 47.4892L30.1854 48.142C30.1281 48.1756 30.0627 48.193 29.9962 48.1922Z" fill="white"/>
<path d="M24.8984 42.9716C24.8199 42.9716 24.7434 42.9469 24.6797 42.901C24.616 42.8551 24.5684 42.7904 24.5436 42.7159C24.5188 42.6415 24.518 42.5611 24.5414 42.4862C24.5648 42.4113 24.6112 42.3456 24.674 42.2985L29.5082 38.7087L25.2857 41.1468C25.2032 41.1938 25.1058 41.2075 25.0134 41.1853C24.921 41.163 24.8406 41.1065 24.7884 41.0271C24.7363 40.9477 24.7163 40.8514 24.7325 40.7578C24.7488 40.6642 24.8 40.5802 24.8759 40.5231L27.1442 38.8381L25.638 39.7071C25.5612 39.7516 25.471 39.7673 25.3836 39.7514C25.2963 39.7355 25.2175 39.689 25.1612 39.6203C25.105 39.5516 25.0751 39.4651 25.0768 39.3763C25.0785 39.2875 25.1118 39.2023 25.1706 39.1358L26.6042 37.5069L26.418 37.6146C26.3322 37.6634 26.2305 37.6763 26.1352 37.6504C26.0399 37.6245 25.9587 37.562 25.9094 37.4765C25.86 37.391 25.8465 37.2894 25.8717 37.1939C25.8969 37.0985 25.9589 37.0169 26.0441 36.9669L28.2129 35.7143C28.2897 35.6702 28.3796 35.6549 28.4666 35.6709C28.5536 35.6869 28.6321 35.7332 28.6882 35.8017C28.7443 35.8701 28.7742 35.9563 28.7728 36.0447C28.7714 36.1332 28.7386 36.2183 28.6803 36.2849L27.2474 37.907L32.3793 34.9447C32.4619 34.8977 32.5593 34.884 32.6517 34.9062C32.744 34.9285 32.8245 34.985 32.8766 35.0644C32.9288 35.1438 32.9488 35.2401 32.9326 35.3337C32.9163 35.4273 32.865 35.5112 32.7892 35.5684L30.5224 37.2526L34.7396 34.8228C34.8222 34.7758 34.9196 34.7621 35.0119 34.7843C35.1043 34.8066 35.1847 34.8631 35.2369 34.9425C35.2891 35.0219 35.3091 35.1182 35.2928 35.2118C35.2766 35.3054 35.2253 35.3893 35.1494 35.4465L30.3137 39.0408L37.5636 34.8527C37.6463 34.806 37.7438 34.7925 37.8361 34.8151C37.9284 34.8377 38.0087 34.8945 38.0606 34.9741C38.1125 35.0538 38.1321 35.1502 38.1155 35.2437C38.0989 35.3373 38.0473 35.421 37.9712 35.4779L33.4136 38.8142L39.9396 35.0464C40.0237 34.9938 40.1252 34.9768 40.2218 34.9991C40.3185 35.0214 40.4023 35.0812 40.4548 35.1653C40.5074 35.2494 40.5244 35.3509 40.5021 35.4476C40.4798 35.5442 40.42 35.628 40.3359 35.6806L38.654 36.8114L41.3299 35.267C41.4138 35.2207 41.5124 35.2083 41.6052 35.2326C41.698 35.2569 41.7779 35.3159 41.8285 35.3974C41.879 35.479 41.8962 35.5768 41.8766 35.6707C41.8571 35.7646 41.8021 35.8474 41.7232 35.902L41.1018 36.3148L42.4711 35.525C42.5545 35.4778 42.6528 35.4643 42.7458 35.4874C42.8388 35.5105 42.9194 35.5684 42.9709 35.6492C43.0224 35.73 43.041 35.8275 43.0227 35.9216C43.0044 36.0156 42.9507 36.0991 42.8727 36.1547L40.2417 37.9983L43.7889 35.9528C43.8712 35.9066 43.9681 35.8932 44.0599 35.9155C44.1517 35.9377 44.2317 35.9939 44.2838 36.0727C44.3359 36.1515 44.3562 36.2471 44.3407 36.3403C44.3252 36.4335 44.275 36.5174 44.2002 36.5751L40.7615 39.1522L45.0311 36.6842C45.1135 36.637 45.2108 36.6229 45.3032 36.6448C45.3957 36.6668 45.4763 36.723 45.5287 36.8022C45.5812 36.8814 45.6015 36.9776 45.5856 37.0713C45.5697 37.1649 45.5188 37.249 45.4432 37.3065L42.8652 39.2644L45.7333 37.6079C45.8151 37.561 45.9116 37.5468 46.0034 37.568C46.0952 37.5892 46.1757 37.6443 46.2286 37.7223C46.2815 37.8003 46.3031 37.8954 46.2889 37.9886C46.2747 38.0818 46.2259 38.1661 46.1521 38.2249L44.3124 39.6757L46.0736 38.6586C46.1545 38.6116 46.2501 38.5966 46.3416 38.6167C46.433 38.6367 46.5135 38.6903 46.5674 38.7669C46.6212 38.8434 46.6444 38.9374 46.6323 39.0302C46.6202 39.123 46.5738 39.2079 46.5021 39.2681L45.4551 40.1529L46.1207 39.7692C46.1976 39.7252 46.2875 39.7099 46.3746 39.726C46.4616 39.7421 46.5401 39.7886 46.5961 39.8572C46.6522 39.9257 46.682 40.012 46.6804 40.1005C46.6788 40.189 46.6458 40.2741 46.5874 40.3406L45.924 41.0885L46.1035 40.9853C46.1461 40.9582 46.1937 40.94 46.2434 40.9318C46.2932 40.9237 46.3441 40.9256 46.3931 40.9376C46.4421 40.9496 46.4881 40.9714 46.5285 41.0017C46.5688 41.0319 46.6026 41.07 46.6279 41.1137C46.6531 41.1574 46.6693 41.2057 46.6753 41.2557C46.6814 41.3058 46.6773 41.3566 46.6633 41.405C46.6492 41.4534 46.6255 41.4985 46.5936 41.5376C46.5616 41.5766 46.5221 41.6088 46.4775 41.6322L44.2937 42.8916C44.2168 42.9356 44.1269 42.9509 44.0398 42.9348C43.9528 42.9187 43.8743 42.8722 43.8182 42.8036C43.7622 42.7351 43.7324 42.6488 43.734 42.5603C43.7356 42.4718 43.7685 42.3867 43.827 42.3202L44.4911 41.5723L42.2026 42.8923C42.1218 42.9384 42.0267 42.9527 41.936 42.9324C41.8452 42.9121 41.7652 42.8587 41.7117 42.7827C41.6582 42.7066 41.6349 42.6134 41.6464 42.5211C41.658 42.4288 41.7035 42.3441 41.7741 42.2836L42.8211 41.3973L40.2267 42.8931C40.145 42.9399 40.0485 42.9542 39.9567 42.933C39.8648 42.9117 39.7844 42.8566 39.7315 42.7786C39.6785 42.7006 39.657 42.6055 39.6712 42.5124C39.6853 42.4192 39.7342 42.3348 39.8079 42.2761L41.6484 40.8222L38.0587 42.8961C37.9763 42.9429 37.8793 42.9568 37.7872 42.9349C37.695 42.913 37.6146 42.8569 37.5622 42.778C37.5098 42.6991 37.4893 42.6032 37.5048 42.5098C37.5203 42.4164 37.5707 42.3323 37.6458 42.2746L40.2215 40.3234L35.7567 42.9065C35.6744 42.9519 35.578 42.9646 35.4867 42.942C35.3954 42.9195 35.316 42.8634 35.2642 42.7849C35.2125 42.7065 35.1921 42.6114 35.2073 42.5186C35.2225 42.4258 35.272 42.3422 35.3461 42.2843L38.7789 39.7071L33.2304 42.9103C33.147 42.9576 33.0487 42.9711 32.9557 42.9479C32.8627 42.9248 32.7821 42.8669 32.7306 42.7861C32.6791 42.7053 32.6605 42.6078 32.6788 42.5137C32.6971 42.4197 32.7508 42.3362 32.8288 42.2806L35.4665 40.4318L31.17 42.9125C31.086 42.9603 30.9867 42.9737 30.893 42.9499C30.7992 42.9261 30.7184 42.8669 30.6674 42.7847C30.6164 42.7025 30.5992 42.6038 30.6195 42.5093C30.6397 42.4147 30.6957 42.3317 30.7759 42.2776L31.3989 41.8625L29.5793 42.9148C29.5376 42.9408 29.4913 42.9584 29.4428 42.9665C29.3944 42.9746 29.3449 42.9731 29.297 42.962C29.2004 42.9397 29.1166 42.88 29.064 42.7959C29.0114 42.7118 28.9944 42.6102 29.0167 42.5136C29.039 42.417 29.0988 42.3331 29.1829 42.2806L30.8559 41.1588L27.8046 42.9207C27.7218 42.9675 27.6244 42.9809 27.532 42.9583C27.4397 42.9358 27.3594 42.8789 27.3075 42.7993C27.2556 42.7197 27.236 42.6233 27.2526 42.5297C27.2692 42.4361 27.3209 42.3524 27.397 42.2955L31.9553 38.9593L25.0868 42.923C25.0295 42.9558 24.9644 42.9726 24.8984 42.9716Z" fill="#2381D9"/>
<path d="M35.1962 31.7463C35.1219 31.7461 35.0493 31.7238 34.9877 31.6823C34.9262 31.6407 34.8784 31.5817 34.8504 31.5129C34.8225 31.444 34.8157 31.3684 34.831 31.2957C34.8462 31.223 34.8827 31.1565 34.9359 31.1046L35.8379 30.2274L34.4692 31.0171C34.399 31.0577 34.3174 31.0744 34.2368 31.0645C34.1563 31.0547 34.0811 31.0189 34.0226 30.9626C33.9642 30.9063 33.9257 30.8324 33.9129 30.7523C33.9001 30.6721 33.9137 30.59 33.9517 30.5183L34.7819 28.9575C34.75 28.9305 34.7232 28.8981 34.7026 28.8617C34.6532 28.7759 34.6399 28.674 34.6656 28.5784C34.6912 28.4828 34.7538 28.4013 34.8394 28.3517L35.3143 28.078C35.3846 28.0377 35.4661 28.0213 35.5464 28.0313C35.6268 28.0412 35.7018 28.077 35.7601 28.1333C35.8184 28.1896 35.8568 28.2632 35.8696 28.3432C35.8824 28.4232 35.8689 28.5052 35.8311 28.5768L35.2238 29.7181L38.0658 28.078C38.1447 28.0318 38.2378 28.0162 38.3275 28.034C38.4171 28.0519 38.4971 28.102 38.5524 28.1748C38.6077 28.2476 38.6343 28.3382 38.6273 28.4294C38.6203 28.5205 38.5802 28.606 38.5145 28.6695L37.6126 29.5468L40.1553 28.078C40.2321 28.034 40.322 28.0186 40.409 28.0346C40.496 28.0506 40.5745 28.097 40.6306 28.1654C40.6867 28.2339 40.7166 28.32 40.7152 28.4084C40.7138 28.4969 40.681 28.582 40.6227 28.6486L39.5241 29.8953L41.4207 28.8012C41.4965 28.7576 41.585 28.742 41.6711 28.757C41.7572 28.772 41.8353 28.8166 41.8918 28.8831C41.9484 28.9497 41.9799 29.0339 41.9809 29.1213C41.9819 29.2086 41.9522 29.2935 41.8971 29.3613L41.3736 30.0052L41.598 29.8773C41.6405 29.8503 41.6881 29.8321 41.7379 29.8239C41.7876 29.8158 41.8386 29.8177 41.8875 29.8297C41.9365 29.8417 41.9826 29.8635 42.0229 29.8938C42.0633 29.924 42.0971 29.9621 42.1223 30.0058C42.1476 30.0494 42.1637 30.0978 42.1698 30.1478C42.1759 30.1979 42.1718 30.2487 42.1577 30.2971C42.1437 30.3455 42.1199 30.3906 42.088 30.4297C42.0561 30.4687 42.0166 30.5009 41.9719 30.5243L39.9728 31.676C39.8971 31.7195 39.8085 31.7351 39.7225 31.7201C39.6364 31.7052 39.5583 31.6605 39.5017 31.594C39.4451 31.5275 39.4136 31.4432 39.4127 31.3559C39.4117 31.2685 39.4413 31.1836 39.4964 31.1158L40.02 30.4719L37.9177 31.6857C37.8408 31.7302 37.7507 31.7459 37.6633 31.73C37.576 31.714 37.4971 31.6676 37.4409 31.5988C37.3847 31.5301 37.3548 31.4436 37.3565 31.3549C37.3582 31.2661 37.3914 31.1808 37.4503 31.1143L38.5519 29.8699L35.3846 31.6984C35.3271 31.7307 35.2621 31.7472 35.1962 31.7463Z" fill="#2381D9"/>
<path d="M28.3544 32.5549C28.2721 32.5549 28.1921 32.5277 28.1268 32.4776C28.0615 32.4275 28.0145 32.3573 27.9932 32.2778C27.9719 32.1983 27.9774 32.1139 28.0089 32.0379C28.0404 31.9618 28.0961 31.8983 28.1674 31.8572L34.7487 28.0565C34.8288 28.0102 34.9233 27.9953 35.0138 28.0146C35.1043 28.0339 35.1844 28.0861 35.2387 28.1611C35.2929 28.2361 35.3174 28.3286 35.3075 28.4206C35.2975 28.5126 35.2538 28.5976 35.1847 28.6592L33.7293 29.9576L34.8998 29.2845C34.9765 29.2404 35.0663 29.225 35.1532 29.2409C35.2402 29.2568 35.3188 29.3031 35.3749 29.3714C35.431 29.4397 35.4611 29.5257 35.4599 29.6141C35.4586 29.7026 35.426 29.7877 35.3679 29.8543L34.6769 30.6434L34.9013 30.5155C34.9867 30.4708 35.0862 30.4608 35.1788 30.4877C35.2714 30.5145 35.3501 30.5762 35.3983 30.6597C35.4466 30.7432 35.4607 30.8421 35.4378 30.9358C35.4148 31.0294 35.3566 31.1106 35.2752 31.1624L33.0914 32.4188C33.0148 32.4624 32.9253 32.4775 32.8386 32.4615C32.7519 32.4455 32.6737 32.3994 32.6177 32.3313C32.5617 32.2633 32.5316 32.1776 32.5326 32.0895C32.5336 32.0014 32.5657 31.9164 32.6232 31.8497L33.315 31.0592L30.9615 32.4188C30.882 32.461 30.7899 32.473 30.7022 32.4528C30.6146 32.4326 30.5371 32.3814 30.4841 32.3087C30.4311 32.2359 30.4061 32.1465 30.4137 32.0569C30.4213 31.9672 30.461 31.8833 30.5255 31.8205L31.9793 30.5215L28.5391 32.5071C28.4828 32.5389 28.4191 32.5554 28.3544 32.5549Z" fill="white"/>
<path d="M32.0943 44.4376C32.0179 44.4375 31.9434 44.4142 31.8808 44.3705C31.8181 44.3269 31.7703 44.2652 31.7438 44.1936C31.7172 44.1221 31.7132 44.0441 31.7323 43.9702C31.7514 43.8963 31.7926 43.83 31.8505 43.7802L32.2521 43.4347L30.6015 44.3852C30.5258 44.4292 30.437 44.4451 30.3507 44.4303C30.2643 44.4155 30.1859 44.3709 30.1292 44.3043C30.0724 44.2376 30.0408 44.1531 30.0399 44.0655C30.039 43.9779 30.0689 43.8928 30.1244 43.825L31.2402 42.4579L27.9002 44.3852C27.8243 44.4286 27.7356 44.4441 27.6495 44.4289C27.5634 44.4137 27.4853 44.3689 27.4289 44.3021C27.3724 44.2353 27.3412 44.1509 27.3405 44.0635C27.3399 43.976 27.3698 43.8912 27.4253 43.8235L28.5553 42.4534L25.2093 44.3852C25.1321 44.4291 25.0418 44.4442 24.9546 44.4276C24.8673 44.411 24.7888 44.3639 24.7331 44.2947C24.6774 44.2255 24.6481 44.1387 24.6506 44.0499C24.653 43.9611 24.687 43.8761 24.7464 43.8101L26.3326 42.0743L23.0622 43.9619C22.9802 44.0087 22.8834 44.0228 22.7915 44.0012C22.6995 43.9796 22.6191 43.924 22.5664 43.8456C22.5137 43.7672 22.4927 43.6717 22.5076 43.5784C22.5224 43.4851 22.572 43.4009 22.6464 43.3427L22.8812 43.1617L22.2911 43.5012C22.2092 43.5477 22.1127 43.5616 22.021 43.54C21.9292 43.5185 21.849 43.4631 21.7964 43.3849C21.7437 43.3068 21.7225 43.2116 21.737 43.1185C21.7515 43.0254 21.8007 42.9412 21.8746 42.8827L22.3749 42.4923L21.6435 42.9141C21.5613 42.9613 21.4644 42.9755 21.3721 42.9539C21.2799 42.9323 21.1993 42.8766 21.1466 42.7979C21.0939 42.7191 21.073 42.6234 21.0882 42.5299C21.1034 42.4364 21.1535 42.3521 21.2284 42.2941L21.7056 41.9247L21.1439 42.2485C21.0638 42.2948 20.9693 42.3097 20.8788 42.2904C20.7883 42.2711 20.7082 42.2188 20.6539 42.1439C20.5997 42.0689 20.5752 41.9764 20.5852 41.8844C20.5951 41.7924 20.6389 41.7074 20.7079 41.6457L22.7563 39.8142L20.6354 41.04C20.5552 41.0856 20.4611 41.0999 20.371 41.0804C20.2809 41.0608 20.2012 41.0086 20.1473 40.9339C20.0933 40.8591 20.0688 40.7671 20.0786 40.6754C20.0883 40.5837 20.1316 40.4989 20.2001 40.4372L22.4123 38.4665L20.417 39.6183C20.3354 39.6596 20.2415 39.6696 20.153 39.6464C20.0645 39.6232 19.9876 39.5683 19.9368 39.4922C19.8861 39.4161 19.865 39.3241 19.8775 39.2335C19.89 39.1428 19.9354 39.06 20.0049 39.0005L20.7528 38.4194L20.2996 38.6797C20.2171 38.7263 20.12 38.7398 20.0279 38.7176C19.9358 38.6953 19.8556 38.6389 19.8035 38.5598C19.7513 38.4807 19.7312 38.3848 19.747 38.2914C19.7629 38.198 19.8136 38.1141 19.889 38.0567L20.5972 37.5265L20.1859 37.7635C20.1023 37.81 20.004 37.8227 19.9114 37.799C19.8187 37.7753 19.7387 37.7169 19.6877 37.636C19.6367 37.555 19.6187 37.4576 19.6374 37.3638C19.656 37.27 19.71 37.1869 19.788 37.1316L24.9857 33.571L20.0214 36.4376C19.9379 36.4835 19.84 36.4959 19.7477 36.4721C19.6554 36.4484 19.5757 36.3903 19.5248 36.3097C19.4739 36.2291 19.4557 36.1321 19.4739 36.0386C19.4921 35.945 19.5453 35.862 19.6227 35.8064L23.0166 33.4737L19.8755 35.2851C19.7927 35.3329 19.6947 35.3472 19.6017 35.325C19.5087 35.3028 19.4277 35.2458 19.3754 35.1658C19.3231 35.0857 19.3035 34.9886 19.3205 34.8945C19.3376 34.8004 19.3901 34.7165 19.4672 34.6599L22.941 32.1066L19.7155 33.9711C19.6344 34.0177 19.5388 34.0322 19.4475 34.0118C19.3562 33.9914 19.2759 33.9376 19.2224 33.8609C19.1689 33.7842 19.1461 33.6902 19.1584 33.5975C19.1708 33.5048 19.2174 33.4201 19.2892 33.3601L22.241 30.8973L19.5278 32.4679C19.4481 32.5155 19.3535 32.5319 19.2625 32.5137C19.1714 32.4955 19.0904 32.4441 19.0352 32.3694C18.9799 32.2948 18.9544 32.2023 18.9637 32.1099C18.9729 32.0175 19.0161 31.9318 19.085 31.8696L21.1043 29.9812L19.3468 30.9953C19.2649 31.0415 19.1687 31.0553 19.0771 31.0337C18.9856 31.0122 18.9056 30.957 18.853 30.8791C18.8003 30.8012 18.779 30.7063 18.7932 30.6133C18.8073 30.5204 18.856 30.4362 18.9295 30.3776L19.1942 30.1704C19.1131 30.203 19.0231 30.2062 18.9399 30.1793C18.8567 30.1525 18.7855 30.0973 18.7387 30.0234C18.692 29.9496 18.6726 29.8616 18.6839 29.7749C18.6953 29.6883 18.7366 29.6083 18.8008 29.5489L20.6391 27.8535L19.0678 28.7547C18.9867 28.8007 18.8912 28.8147 18.8003 28.794C18.7093 28.7733 18.6294 28.7193 18.5762 28.6427C18.523 28.5661 18.5003 28.4723 18.5127 28.3798C18.5251 28.2874 18.5715 28.2029 18.643 28.1429L19.4612 27.4698L18.9452 27.769C18.8642 27.8154 18.7688 27.8298 18.6777 27.8095C18.5866 27.7891 18.5064 27.7354 18.4529 27.6589C18.3993 27.5824 18.3764 27.4887 18.3884 27.3962C18.4005 27.3036 18.4468 27.2189 18.5181 27.1587L19.5038 26.3323L18.8158 26.7294C18.7339 26.7766 18.6372 26.791 18.5451 26.7698C18.4531 26.7485 18.3724 26.6932 18.3195 26.615C18.2665 26.5367 18.2452 26.4413 18.2597 26.3479C18.2742 26.2546 18.3235 26.1702 18.3977 26.1117L18.6079 25.9472C18.5262 25.9655 18.4407 25.9559 18.3651 25.9199C18.2896 25.8839 18.2282 25.8236 18.191 25.7486C18.1538 25.6736 18.1428 25.5883 18.1598 25.5064C18.1768 25.4244 18.2208 25.3505 18.2848 25.2965L19.2765 24.4589L18.5839 24.8583C18.5035 24.9051 18.4084 24.9203 18.3173 24.9007C18.2262 24.8812 18.1457 24.8284 18.0915 24.7526C18.0374 24.6768 18.0134 24.5835 18.0244 24.491C18.0354 24.3985 18.0805 24.3135 18.1509 24.2525L19.3385 23.2204L18.4411 23.7364C18.3615 23.7808 18.2684 23.7946 18.1794 23.7752C18.0904 23.7558 18.0115 23.7045 17.9576 23.631C17.9037 23.5576 17.8784 23.4669 17.8866 23.3762C17.8948 23.2854 17.9359 23.2008 18.0021 23.1381L18.9414 22.2796L18.3057 22.646C18.2314 22.6886 18.1447 22.7043 18.0602 22.6906C17.9757 22.6769 17.8984 22.6346 17.8413 22.5708C17.7842 22.5069 17.7508 22.4254 17.7465 22.3399C17.7423 22.2544 17.7676 22.17 17.8181 22.1008L18.2848 21.4652C18.2027 21.4647 18.123 21.4371 18.0581 21.3869C17.9931 21.3366 17.9466 21.2663 17.9256 21.1869C17.9045 21.1075 17.9102 21.0234 17.9418 20.9476C17.9733 20.8718 18.0289 20.8085 18.1001 20.7674L19.3842 20.0263C19.4586 19.9834 19.5455 19.9674 19.6302 19.9811C19.715 19.9947 19.7925 20.0371 19.8497 20.1012C19.9069 20.1652 19.9403 20.247 19.9443 20.3328C19.9484 20.4185 19.9227 20.5031 19.8718 20.5722L19.4814 21.0994L21.5418 19.9111C21.6214 19.8667 21.7144 19.8529 21.8035 19.8724C21.8925 19.8918 21.9714 19.943 22.0253 20.0165C22.0792 20.09 22.1044 20.1806 22.0962 20.2714C22.088 20.3621 22.047 20.4468 21.9808 20.5094L21.0422 21.3694L22.2919 20.6477C22.3724 20.6008 22.4675 20.5857 22.5586 20.6052C22.6496 20.6248 22.7301 20.6776 22.7843 20.7534C22.8385 20.8292 22.8624 20.9225 22.8514 21.015C22.8404 21.1075 22.7953 21.1925 22.7249 21.2535L21.538 22.2886L22.5282 21.7179C22.609 21.6719 22.7041 21.6576 22.7949 21.6779C22.8856 21.6982 22.9656 21.7515 23.0191 21.8276C23.0727 21.9036 23.0959 21.9969 23.0844 22.0892C23.0729 22.1815 23.0274 22.2662 22.9568 22.3267L21.9658 23.1636L22.7017 22.7395C22.7836 22.6924 22.8803 22.678 22.9724 22.6992C23.0644 22.7204 23.1451 22.7757 23.198 22.854C23.251 22.9322 23.2723 23.0276 23.2578 23.121C23.2433 23.2144 23.194 23.2988 23.1198 23.3573L22.9313 23.5068C23.0136 23.4852 23.1009 23.4922 23.1787 23.5268C23.2564 23.5615 23.3201 23.6216 23.359 23.6972C23.398 23.7729 23.41 23.8596 23.393 23.943C23.376 24.0265 23.3311 24.1016 23.2656 24.156L22.2784 24.9839L23.0113 24.5613C23.0925 24.5153 23.1879 24.5013 23.2789 24.522C23.3698 24.5427 23.4498 24.5967 23.503 24.6733C23.5562 24.75 23.5788 24.8437 23.5665 24.9362C23.5541 25.0286 23.5076 25.1132 23.4361 25.1731L22.6195 25.8462L23.1751 25.5261C23.2548 25.4805 23.3484 25.4658 23.4382 25.4847C23.528 25.5037 23.6077 25.555 23.6621 25.6289C23.7165 25.7028 23.7418 25.7941 23.7332 25.8855C23.7247 25.9769 23.6828 26.0619 23.6156 26.1244L21.7774 27.8161L23.4055 26.8768C23.4873 26.8313 23.5832 26.8183 23.6742 26.8401C23.7652 26.8619 23.8447 26.9171 23.897 26.9946C23.9493 27.0722 23.9706 27.1666 23.9568 27.2592C23.9429 27.3517 23.8948 27.4357 23.822 27.4945L23.5715 27.6912C23.6522 27.6519 23.7443 27.6429 23.8311 27.6659C23.9178 27.6889 23.9934 27.7424 24.044 27.8165C24.0947 27.8906 24.1169 27.9804 24.1068 28.0696C24.0967 28.1588 24.0548 28.2413 23.9888 28.3022L21.9696 30.1891L25.6341 28.0756C25.7151 28.0299 25.8102 28.0161 25.9008 28.0367C25.9914 28.0573 26.0711 28.111 26.1244 28.1872C26.1776 28.2634 26.2005 28.3567 26.1887 28.4489C26.1769 28.5411 26.1312 28.6256 26.0604 28.6859L23.1063 31.1479L28.4409 28.0681C28.5237 28.0203 28.6217 28.006 28.7147 28.0282C28.8078 28.0504 28.8887 28.1074 28.941 28.1874C28.9933 28.2675 29.013 28.3646 28.9959 28.4587C28.9788 28.5528 28.9263 28.6367 28.8492 28.6933L25.3739 31.2466L30.8894 28.0629C30.9732 28.0133 31.0729 27.9983 31.1675 28.021C31.2622 28.0438 31.3442 28.1025 31.3962 28.1848C31.4482 28.2671 31.466 28.3664 31.446 28.4616C31.4259 28.5568 31.3695 28.6405 31.2888 28.6948L27.8979 31.0245L33.0358 28.0584C33.1194 28.0119 33.2177 27.9992 33.3103 28.0229C33.403 28.0467 33.4831 28.105 33.534 28.186C33.585 28.2669 33.603 28.3643 33.5843 28.4581C33.5657 28.552 33.5118 28.6351 33.4337 28.6904L26.0253 33.7654C26.0758 33.7983 26.1176 33.8429 26.1471 33.8954C26.1767 33.9479 26.1931 34.0067 26.195 34.067C26.197 34.1272 26.1843 34.187 26.1581 34.2413C26.1319 34.2955 26.093 34.3427 26.0447 34.3787L25.2916 34.9418C25.3756 34.9121 25.4675 34.9133 25.5507 34.9453C25.6339 34.9773 25.703 35.038 25.7454 35.1164C25.7878 35.1948 25.8008 35.2858 25.782 35.3729C25.7633 35.4601 25.714 35.5377 25.6431 35.5917L24.8952 36.1691L25.2049 35.9911C25.2843 35.9494 25.3761 35.9378 25.4635 35.9582C25.5509 35.9786 25.628 36.0298 25.6808 36.1023C25.7335 36.1749 25.7585 36.264 25.751 36.3534C25.7436 36.4428 25.7042 36.5266 25.6401 36.5894L23.4272 38.5608L25.5137 37.3567C25.5932 37.3145 25.6853 37.3025 25.773 37.3227C25.8606 37.3429 25.9381 37.3941 25.9911 37.4668C26.0441 37.5396 26.0691 37.629 26.0615 37.7186C26.0539 37.8083 26.0142 37.8922 25.9497 37.955L23.9006 39.7888L26.1128 38.5122C26.1948 38.4653 26.2916 38.4513 26.3835 38.4729C26.4755 38.4944 26.5559 38.55 26.6086 38.6285C26.6612 38.7069 26.6823 38.8024 26.6674 38.8957C26.6526 38.9889 26.603 39.0732 26.5286 39.1314L26.0537 39.4994L26.643 39.1591C26.725 39.1125 26.8215 39.0987 26.9132 39.1202C27.0049 39.1418 27.0851 39.1972 27.1378 39.2754C27.1904 39.3535 27.2116 39.4487 27.1971 39.5418C27.1826 39.6349 27.1335 39.7191 27.0596 39.7776L26.5608 40.1672L27.3004 39.7402C27.3824 39.6942 27.4787 39.6809 27.5701 39.7028C27.6616 39.7246 27.7414 39.7801 27.7937 39.8582C27.846 39.9363 27.8671 40.0312 27.8526 40.1241C27.8381 40.217 27.7891 40.301 27.7155 40.3594L27.4821 40.5411L28.055 40.2098C28.1323 40.1649 28.2231 40.1491 28.311 40.1654C28.399 40.1817 28.4781 40.2289 28.5342 40.2986C28.5903 40.3682 28.6196 40.4556 28.6167 40.545C28.6139 40.6344 28.5791 40.7198 28.5187 40.7857L26.9324 42.5215L29.9763 40.764C30.0522 40.7201 30.1411 40.7043 30.2274 40.7193C30.3138 40.7343 30.3922 40.7792 30.4488 40.8461C30.5055 40.913 30.5368 40.9976 30.5374 41.0853C30.538 41.173 30.5077 41.258 30.4519 41.3257L29.3204 42.6965L32.6312 40.7954C32.7068 40.7518 32.7953 40.7359 32.8814 40.7507C32.9675 40.7654 33.0456 40.8098 33.1024 40.8762C33.1593 40.9428 33.191 41.0273 33.1919 41.1149C33.1929 41.2025 33.1631 41.2877 33.1076 41.3556L31.9925 42.7227L35.331 40.7954C35.4116 40.7498 35.5062 40.7358 35.5965 40.7559C35.6868 40.776 35.7665 40.8289 35.8201 40.9043C35.8736 40.9798 35.8974 41.0724 35.8866 41.1643C35.8758 41.2562 35.8314 41.3409 35.7618 41.4019L35.3602 41.7475L37.0108 40.7954C37.0904 40.7504 37.1837 40.7362 37.2731 40.7554C37.3625 40.7746 37.4418 40.8259 37.496 40.8995C37.5501 40.9732 37.5754 41.0642 37.567 41.1553C37.5587 41.2463 37.5172 41.3311 37.4505 41.3937L36.7468 42.0406L38.9036 40.7954C38.9777 40.7526 39.0642 40.7365 39.1487 40.7498C39.2332 40.763 39.3106 40.8048 39.368 40.8683C39.4254 40.9317 39.4593 41.0129 39.4641 41.0983C39.4689 41.1837 39.4442 41.2682 39.3942 41.3376L38.2889 42.8678L41.1742 41.203C41.245 41.1623 41.3272 41.1458 41.4082 41.1562C41.4893 41.1666 41.5647 41.2033 41.6229 41.2606C41.681 41.3182 41.7187 41.3933 41.73 41.4744C41.7414 41.5554 41.7258 41.638 41.6857 41.7093L40.9251 43.0555L41.5691 42.6815C41.6545 42.6368 41.7539 42.6269 41.8466 42.6538C41.9392 42.6806 42.0179 42.7423 42.0661 42.8258C42.1144 42.9093 42.1285 43.0082 42.1056 43.1019C42.0826 43.1955 42.0244 43.2767 41.943 43.3285L40.1159 44.3852C40.045 44.4259 39.9626 44.4422 39.8815 44.4316C39.8004 44.421 39.725 44.3841 39.6669 44.3266C39.6087 44.269 39.5711 44.194 39.5597 44.113C39.5482 44.032 39.5637 43.9495 39.6036 43.8781L40.3635 42.532L37.1514 44.3852C37.0773 44.428 36.9908 44.4441 36.9063 44.4309C36.8218 44.4176 36.7444 44.3758 36.687 44.3123C36.6296 44.2489 36.5957 44.1677 36.5909 44.0823C36.5861 43.9969 36.6108 43.9124 36.6608 43.843L37.7661 42.3128L34.1763 44.3852C34.0967 44.4302 34.0034 44.4444 33.914 44.4252C33.8246 44.406 33.7453 44.3547 33.6911 44.2811C33.637 44.2074 33.6117 44.1164 33.6201 44.0254C33.6284 43.9343 33.6699 43.8495 33.7366 43.7869L34.4411 43.14L32.2812 44.3852C32.2247 44.419 32.1601 44.4371 32.0943 44.4376Z" fill="white"/>
<path d="M18.7369 20.4944C18.6623 20.4943 18.5895 20.4718 18.5278 20.43C18.466 20.3881 18.4182 20.3288 18.3905 20.2595C18.3628 20.1903 18.3564 20.1144 18.3721 20.0415C18.3878 19.9686 18.425 19.9021 18.4789 19.8505L19.1602 19.1991L18.0675 19.8288C17.9867 19.8743 17.8918 19.8881 17.8013 19.8675C17.7108 19.8469 17.6312 19.7934 17.578 19.7174C17.5248 19.6414 17.5017 19.5484 17.5132 19.4563C17.5248 19.3642 17.5701 19.2798 17.6405 19.2193L17.9845 18.9321L17.6592 19.1198C17.5811 19.1644 17.4895 19.1793 17.4013 19.1618C17.3131 19.1443 17.2342 19.0956 17.1789 19.0247C17.1237 18.9537 17.0959 18.8652 17.1006 18.7754C17.1053 18.6856 17.1422 18.6005 17.2045 18.5357L18.6105 17.0886L17.3982 17.7878C17.3232 17.831 17.2355 17.8468 17.1501 17.8325C17.0648 17.8182 16.987 17.7748 16.9301 17.7096C16.8732 17.6443 16.8407 17.5614 16.8381 17.4749C16.8355 17.3884 16.8629 17.3037 16.9158 17.2352L17.7116 16.2068C17.6321 16.2278 17.548 16.222 17.4721 16.1904C17.3963 16.1588 17.333 16.1031 17.292 16.0318C17.2426 15.9461 17.2292 15.8443 17.2547 15.7487C17.2802 15.6531 17.3426 15.5715 17.4281 15.5218L18.968 14.6326C19.043 14.589 19.1309 14.5729 19.2165 14.587C19.3021 14.6011 19.3801 14.6445 19.4373 14.7099C19.4944 14.7752 19.527 14.8583 19.5295 14.9451C19.532 15.0318 19.5043 15.1167 19.4511 15.1852L18.6748 16.1844L20.5684 15.0918C20.6466 15.0466 20.7385 15.0313 20.8271 15.0487C20.9157 15.066 20.9951 15.1149 21.0505 15.1861C21.1059 15.2574 21.1337 15.3463 21.1287 15.4365C21.1236 15.5266 21.0861 15.6119 21.0231 15.6766L19.6134 17.1267L21.3028 16.1545C21.3838 16.1081 21.4793 16.0936 21.5704 16.114C21.6615 16.1344 21.7416 16.1881 21.7952 16.2645C21.8487 16.341 21.8717 16.4347 21.8596 16.5273C21.8475 16.6199 21.8012 16.7046 21.7299 16.7648L21.3889 17.0512L21.4764 17.0011C21.5555 16.9526 21.6499 16.9354 21.7412 16.9526C21.8324 16.9699 21.9139 17.0205 21.9699 17.0946C22.0258 17.1687 22.0523 17.2609 22.044 17.3534C22.0357 17.4459 21.9933 17.5319 21.9251 17.5949L21.2445 18.2463L21.5504 18.0698C21.593 18.0427 21.6405 18.0246 21.6903 18.0164C21.7401 18.0082 21.791 18.0102 21.84 18.0222C21.8889 18.0342 21.935 18.0559 21.9753 18.0862C22.0157 18.1165 22.0495 18.1546 22.0747 18.1982C22.1 18.2419 22.1161 18.2902 22.1222 18.3403C22.1283 18.3903 22.1242 18.4411 22.1101 18.4895C22.0961 18.538 22.0724 18.5831 22.0404 18.6221C22.0085 18.6612 21.969 18.6933 21.9243 18.7167L18.9239 20.4443C18.8672 20.4775 18.8026 20.4948 18.7369 20.4944Z" fill="#2381D9"/>
<path d="M27.7026 56.4265C27.6266 56.4264 27.5524 56.4031 27.4899 56.3598C27.4275 56.3165 27.3797 56.2552 27.353 56.184C27.3263 56.1128 27.3218 56.0352 27.3404 55.9615C27.3589 55.8878 27.3994 55.8214 27.4566 55.7713L30.095 53.4634L27.9262 54.7161C27.8453 54.7631 27.7497 54.7781 27.6583 54.758C27.5669 54.738 27.4863 54.6844 27.4324 54.6078C27.3786 54.5313 27.3555 54.4373 27.3675 54.3445C27.3796 54.2517 27.4261 54.1668 27.4977 54.1066L29.6314 52.3079L28.0608 53.2136C27.9794 53.2603 27.8834 53.2746 27.7919 53.2538C27.7004 53.233 27.62 53.1785 27.5668 53.1012C27.5136 53.0239 27.4914 52.9294 27.5046 52.8364C27.5179 52.7435 27.5656 52.659 27.6383 52.5996L29.0966 51.4157L28.1775 51.9467C28.0972 51.9933 28.0024 52.0083 27.9116 51.9888C27.8209 51.9694 27.7406 51.9169 27.6864 51.8415C27.6322 51.7661 27.6079 51.6733 27.6184 51.581C27.6289 51.4888 27.6733 51.4037 27.743 51.3424L29.6994 49.6223L28.3166 50.421C28.2383 50.4656 28.1466 50.4805 28.0582 50.4628C27.9699 50.4452 27.8909 50.3963 27.8358 50.325C27.7806 50.2538 27.7531 50.165 27.7581 50.0751C27.7632 49.9851 27.8006 49.9 27.8634 49.8355L28.882 48.7982L28.4408 49.0524C28.3689 49.094 28.2852 49.1105 28.2029 49.0993C28.1207 49.0881 28.0445 49.0498 27.9863 48.9905C27.9282 48.9312 27.8915 48.8542 27.882 48.7717C27.8724 48.6892 27.8906 48.6059 27.9337 48.5349L28.2815 47.962C28.2096 47.9434 28.145 47.9037 28.0958 47.8482C28.0466 47.7927 28.015 47.7238 28.005 47.6502C27.9951 47.5767 28.0072 47.5019 28.0399 47.4353C28.0727 47.3687 28.1244 47.3133 28.1887 47.2762L29.0533 46.7789C29.1251 46.7375 29.2086 46.7212 29.2906 46.7325C29.3727 46.7437 29.4488 46.7819 29.5068 46.841C29.5648 46.9002 29.6016 46.9769 29.6113 47.0592C29.6209 47.1415 29.603 47.2247 29.5603 47.2957L29.3285 47.6793L30.8885 46.7819C30.9668 46.7367 31.0588 46.7215 31.1475 46.7389C31.2362 46.7563 31.3155 46.8053 31.3709 46.8767C31.4263 46.9481 31.4539 47.0372 31.4487 47.1274C31.4435 47.2176 31.4057 47.3029 31.3425 47.3675L30.3246 48.3965L32.5877 47.09C32.6679 47.045 32.7619 47.0311 32.8517 47.0509C32.9415 47.0708 33.0208 47.1231 33.0745 47.1978C33.1282 47.2725 33.1524 47.3643 33.1427 47.4558C33.1329 47.5473 33.0897 47.6319 33.0215 47.6936L31.0643 49.4137L32.8038 48.4093C32.8853 48.3626 32.9813 48.3482 33.0728 48.369C33.1643 48.3899 33.2447 48.4444 33.2979 48.5217C33.3511 48.599 33.3733 48.6935 33.36 48.7864C33.3468 48.8793 33.2991 48.9639 33.2264 49.0233L31.768 50.2071L32.9078 49.5498C32.9886 49.5044 33.0833 49.4907 33.1736 49.5113C33.264 49.5318 33.3435 49.5851 33.3967 49.6609C33.45 49.7367 33.4732 49.8295 33.4619 49.9215C33.4506 50.0134 33.4056 50.0979 33.3356 50.1585L31.2049 51.9534L33.0312 50.8989C33.1116 50.8529 33.2062 50.8384 33.2967 50.8582C33.3871 50.8779 33.4671 50.9306 33.521 51.0059C33.5749 51.0812 33.5989 51.1738 33.5884 51.2658C33.5779 51.3579 33.5337 51.4427 33.4642 51.504L30.8235 53.8134L33.1763 52.4627C33.2547 52.4196 33.3461 52.4061 33.4336 52.4246C33.5212 52.4431 33.5993 52.4924 33.6536 52.5636C33.7079 52.6347 33.7349 52.723 33.7296 52.8124C33.7244 52.9017 33.6873 52.9862 33.625 53.0506L32.3761 54.2973L33.2922 53.7685C33.3603 53.7291 33.4392 53.7122 33.5175 53.7202C33.5958 53.7282 33.6695 53.7607 33.7283 53.813C33.787 53.8654 33.8278 53.935 33.8447 54.0119C33.8616 54.0887 33.8538 54.169 33.8224 54.2412L33.4291 55.1468C33.5163 55.1012 33.6181 55.0918 33.7122 55.1207C33.8064 55.1496 33.8853 55.2145 33.9319 55.3013C33.9785 55.388 33.989 55.4897 33.9611 55.5841C33.9332 55.6786 33.8691 55.7582 33.7828 55.8057L32.8225 56.3599C32.7543 56.3995 32.6754 56.4165 32.597 56.4085C32.5185 56.4005 32.4446 56.3679 32.3858 56.3154C32.327 56.2629 32.2863 56.1932 32.2695 56.1161C32.2527 56.0391 32.2607 55.9587 32.2923 55.8865L32.6857 54.9823L30.2858 56.3666C30.2073 56.4097 30.116 56.4233 30.0284 56.4048C29.9408 56.3863 29.8628 56.337 29.8085 56.2658C29.7541 56.1946 29.7271 56.1064 29.7324 56.017C29.7376 55.9276 29.7748 55.8431 29.837 55.7788L31.0845 54.5336L27.8926 56.3763C27.835 56.4101 27.7693 56.4274 27.7026 56.4265Z" fill="#2381D9"/>
<path d="M26.2883 58.6458C26.2111 58.6458 26.1358 58.622 26.0727 58.5776C26.0096 58.5332 25.9618 58.4703 25.9358 58.3977C25.9099 58.325 25.907 58.2461 25.9277 58.1718C25.9483 58.0974 25.9915 58.0313 26.0512 57.9824L26.126 57.9226L24.9608 58.5957C24.8813 58.6383 24.789 58.6508 24.701 58.6308C24.613 58.6107 24.5352 58.5595 24.482 58.4866C24.4287 58.4137 24.4037 58.3241 24.4114 58.2341C24.4192 58.1442 24.4592 58.0601 24.524 57.9974L25.1373 57.4469L23.1726 58.5807C23.0915 58.626 22.9964 58.6394 22.9059 58.6185C22.8154 58.5975 22.736 58.5436 22.6831 58.4672C22.6301 58.3909 22.6075 58.2975 22.6196 58.2054C22.6318 58.1133 22.6777 58.029 22.7486 57.9689L22.8234 57.9084L22.6312 58.0198C22.5552 58.0636 22.4663 58.0794 22.3799 58.0643C22.2935 58.0492 22.2151 58.0042 22.1585 57.9372C22.102 57.8702 22.0707 57.7854 22.0703 57.6977C22.0699 57.61 22.1003 57.5249 22.1563 57.4574L22.8645 56.6048C22.7824 56.6045 22.7027 56.5773 22.6377 56.5272C22.5727 56.4771 22.5259 56.407 22.5046 56.3278C22.4834 56.2485 22.4888 56.1644 22.52 56.0885C22.5513 56.0126 22.6066 55.9491 22.6775 55.9078L24.2107 55.0223C24.2866 54.9785 24.3756 54.9627 24.462 54.9778C24.5484 54.9929 24.6267 55.0379 24.6833 55.1049C24.7399 55.172 24.7711 55.2567 24.7715 55.3444C24.772 55.4321 24.7415 55.5172 24.6856 55.5847L24.0686 56.3274L26.3526 55.0036C26.4337 54.9576 26.5292 54.9436 26.6201 54.9643C26.7111 54.985 26.791 55.039 26.8442 55.1156C26.8974 55.1922 26.9201 55.286 26.9077 55.3785C26.8953 55.4709 26.8489 55.5554 26.7774 55.6154L26.7071 55.673L27.8678 54.9999C27.9473 54.9572 28.0396 54.9447 28.1276 54.9648C28.2156 54.9848 28.2934 55.036 28.3466 55.1089C28.3998 55.1818 28.4249 55.2715 28.4171 55.3614C28.4094 55.4514 28.3694 55.5354 28.3045 55.5982L27.6898 56.1501L29.6888 55.0036C29.7701 54.9574 29.8657 54.9433 29.9568 54.964C30.048 54.9848 30.128 55.0389 30.1813 55.1158C30.2345 55.1926 30.257 55.2866 30.2443 55.3792C30.2316 55.4719 30.1848 55.5564 30.1129 55.6161L30.0381 55.676L31.2033 55.0029C31.2818 54.9592 31.3735 54.9453 31.4615 54.9637C31.5494 54.9821 31.6278 55.0316 31.6823 55.103C31.7368 55.1745 31.7637 55.2632 31.7582 55.3529C31.7526 55.4426 31.7149 55.5273 31.652 55.5915L30.7269 56.5098L33.3437 55.0036C33.422 54.959 33.5137 54.9442 33.6021 54.9618C33.6904 54.9795 33.7694 55.0284 33.8245 55.0997C33.8797 55.1709 33.9072 55.2597 33.9022 55.3496C33.8971 55.4395 33.8597 55.5246 33.7969 55.5892L32.8247 56.5772L35.5522 55.0066C35.6287 54.963 35.7182 54.9478 35.8048 54.9637C35.8914 54.9796 35.9697 55.0256 36.0257 55.0936C36.0818 55.1615 36.112 55.2471 36.1112 55.3351C36.1103 55.4232 36.0784 55.5082 36.0211 55.575L34.9269 56.8314L37.552 55.317C37.6316 55.272 37.7249 55.2578 37.8143 55.277C37.9038 55.2962 37.983 55.3474 38.0372 55.4211C38.0913 55.4948 38.1166 55.5858 38.1082 55.6768C38.0999 55.7679 38.0584 55.8527 37.9917 55.9153L37.6178 56.2571L38.2086 55.916C38.2772 55.8779 38.356 55.8623 38.4339 55.8714C38.5118 55.8805 38.5848 55.9139 38.6427 55.9668C38.7006 56.0198 38.7404 56.0895 38.7564 56.1663C38.7725 56.2431 38.764 56.323 38.7321 56.3947L38.2894 57.3669L38.6327 57.1687C38.7181 57.124 38.8175 57.1141 38.9102 57.1409C39.0028 57.1678 39.0815 57.2294 39.1297 57.3129C39.178 57.3964 39.1921 57.4954 39.1692 57.589C39.1462 57.6827 39.088 57.7639 39.0066 57.8156L37.6612 58.5934C37.5927 58.6314 37.514 58.6469 37.4362 58.6378C37.3585 58.6287 37.2855 58.5954 37.2277 58.5426C37.1699 58.4898 37.1301 58.4202 37.1139 58.3436C37.0978 58.2669 37.1061 58.1872 37.1377 58.1155L37.5804 57.1433L35.0586 58.5934C34.979 58.6384 34.8856 58.6526 34.7962 58.6334C34.7068 58.6143 34.6275 58.563 34.5734 58.4893C34.5192 58.4156 34.4939 58.3246 34.5023 58.2336C34.5107 58.1425 34.5521 58.0577 34.6188 57.9951L34.9928 57.6541L33.3609 58.5934C33.2844 58.637 33.1949 58.6522 33.1083 58.6363C33.0216 58.6204 32.9434 58.5744 32.8873 58.5065C32.8313 58.4385 32.801 58.353 32.8019 58.2649C32.8027 58.1768 32.8346 58.0919 32.892 58.025L33.9869 56.7679L30.8234 58.5934C30.7451 58.6386 30.6531 58.6538 30.5644 58.6364C30.4757 58.619 30.3964 58.57 30.341 58.4986C30.2856 58.4272 30.258 58.3381 30.2632 58.2479C30.2685 58.1577 30.3062 58.0724 30.3694 58.0078L31.3416 57.0199L28.6149 58.5904C28.5364 58.6341 28.4447 58.648 28.3567 58.6296C28.2688 58.6112 28.1904 58.5618 28.1359 58.4903C28.0814 58.4188 28.0545 58.3301 28.06 58.2404C28.0656 58.1507 28.1033 58.066 28.1662 58.0019L29.0913 57.0835L26.4752 58.5934C26.4187 58.6273 26.3542 58.6453 26.2883 58.6458Z" fill="#2381D9"/>
<path d="M22.3202 17.7058C21.6037 10.7954 12.6838 17.2638 18.4791 20.3981C16.1203 23.172 19.8417 35.6427 19.7512 40.1038C20.1947 44.6419 25.0865 44.591 28.5858 44.3921V46.8877C26.7266 48.7462 27.7923 52.4833 27.1267 55.0036C21.9328 54.0987 18.8508 59.5657 26.0864 58.5934C30.0217 58.58 33.9608 58.6151 37.8946 58.5934C38.8549 58.5426 39.5564 57.948 39.3522 56.9481C38.81 54.5347 36.0159 55.041 34.1485 55.0036C33.4605 52.579 34.5696 48.3969 32.6722 46.795V44.3921C35.2202 44.3554 37.7712 44.4669 40.3155 44.345C41.8217 47.6296 41.7424 52.2724 44.3211 54.7748C46.6178 54.6252 56.0088 55.839 56.5907 53.7898C57.7386 49.3385 50.0386 51.9351 47.3971 51.2905L44.8117 43.0175C46.3598 42.9188 47.0553 41.5823 46.8848 40.1808C47.4636 32.5794 30.0995 33.8478 26.0805 36.8498C24.851 29.8639 32.7732 34.0872 35.5553 31.6319C37.7061 31.3006 41.8965 32.7679 42.3893 29.73C42.3893 26.4394 27.4536 28.7197 24.3162 28.072C23.3066 25.604 24.575 20.4721 21.3995 19.802C21.7177 19.5589 21.969 19.2391 22.13 18.8725C22.291 18.5059 22.3564 18.1045 22.3202 17.7058ZM17.8868 16.1636C19.3638 13.3142 22.0382 17.0708 21.0839 19.0198C19.5949 21.8056 16.8816 18.1687 17.8868 16.1636ZM38.288 57.8156C38.2699 57.8703 38.2576 57.9267 38.2513 57.9839C33.3296 58.0146 28.339 57.9884 23.4113 57.9951C22.5086 57.7633 23.0965 56.4246 23.5347 56.0118C26.4821 54.9767 30.0547 55.9018 33.2107 55.6012C34.9704 55.6767 38.5654 55.0036 38.288 57.8156ZM33.0387 55.0036H28.2029C28.5484 52.508 28.422 49.8875 28.9852 47.4501C30.0675 47.4152 31.151 47.4421 32.2302 47.5309C32.8173 49.9009 32.6902 52.5461 33.0387 55.0036ZM31.5773 46.6955H29.6807V44.3921H31.5773V46.6955ZM54.4622 51.8364C55.949 51.529 55.4793 53.4069 55.4584 54.2962C53.0801 54.2573 50.7072 54.2962 48.3282 54.2819C48.0729 53.4668 47.8181 52.6516 47.5638 51.8364H54.4622ZM46.819 53.199L47.1398 54.2244C45.6942 54.3784 44.1999 54.2438 44.0406 52.514L41.3931 44.0361C41.6089 43.9398 41.8022 43.7995 41.9605 43.6241C42.1188 43.4486 42.2386 43.242 42.3123 43.0175C42.7318 43.0377 43.1925 43.0691 43.6585 43.0781C44.7115 46.452 45.765 49.8256 46.819 53.199ZM33.1494 35.6098C37.3374 35.6323 46.3381 34.4304 45.7884 40.7746C46.0075 42.7797 43.6143 42.0587 42.3557 42.1746C38.8526 37.9335 29.2028 44.1939 26.411 37.828C27.6839 35.8985 31.1092 35.7489 33.1494 35.6098ZM34.2083 31.8114C29.8557 31.3701 22.8863 32.0021 25.3259 38.1556C28.2082 44.5357 36.9927 39.2243 41.2294 42.2606C42.052 45.1377 34.3056 43.277 32.5241 43.7773C31.5818 43.6771 30.5206 43.8409 29.5326 43.7773C18.7005 45.3516 20.9927 37.7076 19.6233 30.0524C24.3461 27.9075 29.5341 28.8745 34.5748 28.6868C34.3938 29.4391 35.0033 31.7366 34.2083 31.8114ZM37.7787 28.6404C38.7449 28.7354 39.8144 28.4101 40.7066 28.8513C41.5038 29.309 41.5143 30.8937 40.5742 31.1099H35.6577V28.6419L37.7787 28.6404ZM22.0846 21.5042C22.4795 23.7613 22.8325 26.0318 23.2206 28.2919L19.5605 29.5132C19.8447 27.2763 17.0394 21.0794 19.9344 20.5529C20.8992 20.3929 21.7862 20.3353 22.0846 21.5042Z" fill="#262626"/>
</g>
<defs>
<linearGradient id="paint0_linear_858_614" x1="-3.34263e-07" y1="-10.6277" x2="90.5319" y2="94.4681" gradientUnits="userSpaceOnUse">
<stop stop-color="#E3F1FF"/>
<stop offset="1" stop-color="#77B2EA"/>
</linearGradient>
<clipPath id="clip0_858_614">
<rect width="44.8723" height="44.8723" fill="white" transform="translate(14.1709 14.1709)"/>
</clipPath>
</defs>
</svg>
