<svg xmlns="http://www.w3.org/2000/svg" width="380" height="253" fill="none" viewBox="0 0 380 253"><g clip-path="url(#a)"><path fill="#D3D3D3" d="m145.93 228.409-.876 21.207c-1.034-4.496-3.78-8.594-7.52-11.34-3.74-2.745-8.475-4.058-13.091-3.7.398-2.348.518-4.735.319-7.122 6.963-.04 13.966-.12 20.929-.16a10.95 10.95 0 0 1-1.074 5.014l1.273-3.899z"/><path fill="#fff" d="M3.843 75.657C23.18 17.523 120.904-10.806 222.805 11.873c.795.159 1.551.318 2.347.517a343 343 0 0 1 17.826 4.616 322 322 0 0 1 19.855 6.525c12.573 4.576 24.391 9.828 35.333 15.598 59.326 31.513 92.153 79.022 77.789 122.154-4.895 14.722-14.802 27.494-28.53 38.038-.397.319-.795.637-1.193.916-.438.318-.836.636-1.273.954-2.189 1.552-4.457 3.104-6.805 4.536-.596.398-1.233.796-1.87 1.154-15.159 9.152-33.662 16.075-54.392 20.452-3.143.677-6.326 1.313-9.589 1.831a244 244 0 0 1-15.797 2.148c-.358.08-.716.08-1.074.12-.119.039-.278.039-.438.039-24.43 2.427-51.01 1.671-78.226-2.666a287 287 0 0 1-11.459-2.029h-.199c-3.502-.676-6.963-1.432-10.465-2.228a347 347 0 0 1-18.223-4.735c-1.751-.517-3.462-1.035-5.173-1.552a294 294 0 0 1-23.834-8.515 7.4 7.4 0 0 1-1.194-.477 202 202 0 0 1-7.838-3.343c-1.91-.835-3.78-1.671-5.61-2.546a249 249 0 0 1-12.614-6.366C21.788 165.501-10.362 118.47 3.843 75.696zm110.416 121.318h42.694l-4.337-19.497h-43.172z"/><path fill="#fff" d="M300.235 173.777s-.199.159-.358.279c0 .119.119.239.199.358.119-.159.199-.279.239-.398.159-.159.199-.278.159-.318s-.119 0-.239.079M300.074 174.454v-.04l-.04.04zM62.254 48.36h1.114c18.025.12 36.01.24 54.034.24q11.639.06 23.277 0c.04.119.08.238.08.357.119.319.199.597.238.916 3.382 12.016 5.133 24.35 7.043 36.725 0 .16.04.279.08.438a440 440 0 0 0 1.989 12.295 305 305 0 0 0 5.969 26.738c0 .08.039.16.039.239.04.08.04.199.08.279a237 237 0 0 0 2.029 7.043c.08.358.199.676.319 1.034.079.279.159.597.238.875l8.356-3.103c1.313-.478 2.746-.995 4.138-.756.876.159 1.671.636 2.467 1.074 26.619 15.12 54.432 28.052 82.762 39.591-.039-.08-.039-.159-.039-.199 0-.239.039-.438.039-.677.04-.199.04-.398.04-.596.239-3.104.478-6.247.677-9.351.119 0 .238-.04.358 0 .278-.04.517-.04.795-.04 1.035.04 2.07.239 3.104.517h.04c1.83.557 3.621 1.473 5.292 2.348.199.119.398.199.597.358.159.12.318.239.437.438.08.159.08.358.08.557.04.159.04.318.04.477-.12 2.985-.199 6.009-.319 8.993-.039.04-.079.04 0 .079v.279c4.616-5.809 9.271-11.579 14.046-17.269l.318-.358s.12-.159.199-.199c.199-.159.398-.278.637-.318.159 0 .318 0 .438.04.318.039.636.159.875.318a35 35 0 0 1 4.138 2.706h.04a35 35 0 0 1 6.008 5.61c.398.398.756.836 1.114 1.273.597.677 1.114 1.393 1.632 2.109a28 28 0 0 1 1.472 2.268c.159.199.318.398.398.637.239.398.437.796.636 1.233.08.08.12.199.16.319.079.039.079.119.119.159-.04 0-.08.039-.119.079-.08.04-.12.12-.239.199-.12.08-.279.239-.438.358h-.04c-.278.279-.596.557-.915.876h-.04c-4.098 3.7-13.409 12.812-27.972 27.375l-.278.278-.199.199h-.04s-.199-.159-.278-.238c-.796-.557-1.552-1.154-2.348-1.711-18.263-13.449-36.885-26.62-56.382-38.119-1.751 1.035-3.859-.398-5.809-1.034-1.711-.557-3.502-.478-5.292-.319-2.586.319-5.212.836-7.679.16-2.746-.717-4.895-2.865-6.725-5.093 0 .079-.04.119-.079.238-.04.08-.08.199-.16.358-.159.398-.437.916-.795 1.473a7.9 7.9 0 0 1-1.791 1.87c-.079.079-.159.119-.239.199-.318.199-.636.398-.994.557a7.8 7.8 0 0 1-2.706.636.25.25 0 0 1-.239 0c-.079.04-.119.04-.159.04h-.199s-1.114.875-2.427.677c-.677-.08-1.273-.438-1.711-.955-.358-.319-.597-.756-.756-1.194l-.08.04h-.119s-.08.039-.159.039c-.398.12-.955.12-1.512-.039-.876-.319-1.552-1.035-2.029-1.99-.995-1.87-1.393-4.655-1.711-6.923a28 28 0 0 1-.319-3.621c0-.08-.039-.159 0-.239a41 41 0 0 1 .04-3.78c.04-.915.119-1.83.239-2.825-.239.04-.438.08-.677.12-.397.079-.795.159-1.193.159-1.632.278-3.343.437-4.974.557.04.119.04.278.08.398.199.955.398 1.91.557 2.865 5.371 27.017 10.663 53.994 16.035 80.971h-.358c-3.86.04-7.68.04-11.539.04h-1.313c-18.9 0-37.8-.159-56.661-.597-1.432-.04-2.825-.04-4.257-.119-.398 0-.796 0-1.194-.08-.597-.079-1.193-.119-1.79-.199-.637-.04-1.273-.159-1.83-.557-.518-.358-.836-.995-1.075-1.591-1.71-3.86-2.308-8.078-2.944-12.216-.398-2.705-.836-5.371-1.274-8.037-2.785-17.11-5.968-33.583-9.867-50.613L70.132 96.864c-3.7-16.115-7.6-32.548-8.276-49.02.16.158.279.318.398.517m47.19 129.118 4.815 19.496h42.694l-4.337-19.496z"/><path stroke="#231F20" stroke-linecap="round" stroke-miterlimit="10" stroke-width="1.472" d="m115.174 99.729 2.984 15.239"/><path fill="#231F20" d="m120.188 113.934-1.433 4.138-2.905-3.302z"/><path stroke="#231F20" stroke-linecap="round" stroke-miterlimit="10" stroke-width="1.472" d="m125.399 148.83 2.945 15.239"/><path fill="#231F20" d="m130.412 163.034-1.472 4.178-2.865-3.342z"/><path fill="#D3D3D3" d="M270.829 191.842c-.677.517-1.433 1.074-2.308 1.074-.676 0-1.313-.358-1.91-.716a49731 49731 0 0 1-46.713-26.978c-4.178-2.427-8.475-4.854-13.25-5.689-3.7-.637-7.56-.239-11.22-1.234-4.417-1.194-8.157-4.536-9.908-8.754-.079 1.353-1.353 2.507-2.666 2.467.358.637.756 1.274 1.154 1.91a3.06 3.06 0 0 1-.875-1.353h-2.626a25.1 25.1 0 0 0 .597 9.431 12.5 12.5 0 0 0 3.899-4.735c2.228 2.825 5.013 5.451 8.515 6.207 2.706.557 5.531-.04 8.316.159 2.865.239 5.491 1.233 9.311 3.342 10.265 5.69 24.47 17.627 32.906 23.516 4.695 3.263 11.936 7.719 21.924 11.539.676.477 2.069 1.233 3.859 1.154a5.8 5.8 0 0 0 2.427-.637c4.218-1.989 6.804-4.974 6.804-4.974 2.905-3.342 10.545-11.22 21.009-22.003a23 23 0 0 0-2.268-4.576c-1.193-1.87-2.427-3.342-3.501-4.417a202 202 0 0 0-7.918 9.47s-4.178 6.924-15.518 15.757zM178.24 162.915c-3.581-3.183-5.093-7.998-3.939-12.375 1.353-5.093 5.69-7.321 6.406-7.679a14.2 14.2 0 0 0-1.87 2.427c-4.218 6.844-1.512 15.16-.637 17.667z"/><path fill="#D3D3D3" d="M172.908 161.482c-3.86-3.7-5.531-9.31-4.258-14.403 1.472-5.889 6.207-8.555 6.963-8.953a17 17 0 0 0-2.029 2.825c-4.576 7.958-1.671 17.627-.676 20.531M166.901 140.832a31.6 31.6 0 0 1-8.396 1.472s-4.138.159-10.863-1.711c-.835-.239-2.148-.637-3.103-1.87-.517-.677-.716-1.353-.836-1.791a33.6 33.6 0 0 0 8.714 2.109c7.719.756 13.926-1.432 17.149-2.865-.915 1.512-1.79 3.064-2.705 4.576z"/><path fill="#000" d="M108.926 219.296c-1.074-2.268-1.552-4.854-2.109-7.281-.596-2.666-1.233-5.332-1.83-7.998-1.194-5.252-2.347-10.504-3.501-15.756-2.308-10.505-4.735-21.009-7.043-31.514a16367 16367 0 0 1-13.966-63.663c-2.626-11.977-5.173-23.953-7.799-35.93-.08-.438-.12-1.233.239-1.592.358-.358.636.08.716.438 4.695 21.129 9.47 42.257 14.125 63.425 4.695 21.208 9.271 42.455 13.927 63.703a2813 2813 0 0 1 3.899 17.786c.637 3.064 1.273 6.088 1.91 9.112.636 3.024 1.392 6.087 1.512 9.231 0 0 0 .159-.04.079z"/><path fill="#000" d="M135.704 57.035c-.557.438-.676.477-1.353.517h-4.615c-2.03 0-4.059 0-6.128-.04-4.058 0-8.157-.08-12.215-.119-8.197-.08-16.394-.16-24.59-.199-4.616 0-9.231-.12-13.847-.199-.358 0-.318-1.552 0-1.552 16.393 0 32.787.16 49.18.319 2.308 0 4.616 0 6.923.04h4.934c.796 0 1.035.04 1.671.556.12.12.12.518 0 .637z"/><path fill="#000" d="M150.666 132.953c-.876-2.188-1.194-4.615-1.671-6.883l-1.552-7.401c-1.035-4.894-2.069-9.749-3.064-14.643-2.029-9.788-4.058-19.576-6.088-29.404-1.154-5.53-2.268-11.062-3.461-16.592-.12-.478-.16-1.274.238-1.672s.677.08.716.438c1.871 9.947 3.979 19.855 5.969 29.763 1.95 9.868 3.979 19.735 5.929 29.643.557 2.785 1.114 5.531 1.671 8.316s1.273 5.57 1.432 8.356c0 0 0 .159-.079.079zM158.066 133.59c-.597-.955-.756-2.109-.995-3.223a126 126 0 0 1-.915-4.098c-.597-2.706-1.154-5.412-1.711-8.117a1083 1083 0 0 1-3.342-16.394c-2.188-10.942-4.377-21.844-6.565-32.786-1.234-6.207-2.507-12.375-3.701-18.622-.119-.716-.199-1.83.358-2.387s.955.12 1.075.636c2.268 10.982 4.377 22.004 6.565 32.986s4.377 21.964 6.446 32.946a646 646 0 0 1 1.751 9.35c.278 1.592.557 3.144.835 4.735.279 1.592.637 3.104.557 4.656 0 .079-.119.517-.278.318z"/><path fill="#000" d="M141.713 49.634c-2.388.915-5.173.517-7.68.517s-5.053-.04-7.599-.08c-5.054-.039-10.107-.118-15.2-.158l-30.718-.358c-2.865 0-5.73-.08-8.594-.08-1.472 0-2.984 0-4.457-.04s-2.984 0-4.456-.239c-.597-.119-.517-2.188.04-2.267 1.313-.2 2.666-.12 3.979-.12h3.979c2.546 0 5.053.04 7.6.08 5.053.04 10.106.12 15.2.159l30.717.358c2.864 0 5.729.04 8.594.08 1.472 0 2.984.04 4.457.08 1.472.039 2.825.079 4.177.636.319.12.279 1.353 0 1.472z"/><path fill="#000" d="M103.037 226.698 63.247 47.844a.674.674 0 0 0-.915-.478l-14.841 6.008a.63.63 0 0 0-.398.756l40.028 172.846a.67.67 0 0 0 .637.517h14.603a.65.65 0 0 0 .636-.835zM180.786 142.94c-.557.756-.915 1.672-1.313 2.507-.358.716-.716 1.433-.994 2.189-.597 1.551-.955 3.223-1.115 4.854-.358 3.581.637 7.003 1.075 10.544 0 0 0 .239-.08.159-1.233-1.392-1.591-3.183-1.87-4.973-.318-2.069-.398-4.178-.159-6.247a17.5 17.5 0 0 1 1.393-5.133c.358-.796.756-1.632 1.233-2.348s1.194-1.193 1.791-1.79c.079-.08.079.159.039.199zM171.355 134.864a32 32 0 0 1-1.432 2.546c-.557.915-1.154 1.83-1.631 2.785-.995 1.95-1.552 4.019-1.552 6.207 0 2.189.398 4.417.915 6.526.517 2.268 1.154 4.496 2.069 6.645 0 .079 0 .438-.119.318-1.592-1.671-2.388-3.74-2.905-5.929-.557-2.466-.955-5.053-.955-7.599 0-2.388.557-4.735 1.592-6.884.477-.995 1.074-2.029 1.75-2.905.677-.875 1.274-1.352 2.229-1.83v.08zM185.403 148.591c.398 1.353-.16 2.705-1.234 3.581-.477.398-1.154.716-1.79.796-.677.079-1.313-.319-1.751-.836v-.199c.517.08.995-.079 1.512-.199a5.6 5.6 0 0 0 1.552-.557c.835-.477 1.83-1.353 1.631-2.427 0 0 0-.239.08-.119z"/><path fill="#000" d="M184.287 158.22c-.119.477-.278.955-.438 1.393a5.3 5.3 0 0 1-1.313 1.909c-.676.677-1.551 1.274-2.427 1.552a6.5 6.5 0 0 1-1.949.319c-.398 0-.398-1.512 0-1.512 1.472 0 3.024-.438 4.138-1.393.517-.398.915-.915 1.352-1.393.239-.278.438-.557.597-.915zM152.893 145.408c.756 2.188 1.193 4.496 1.671 6.764.477 2.268.955 4.695 1.432 7.043.955 4.734 1.91 9.469 2.825 14.165 1.87 9.589 3.78 19.218 5.611 28.807 1.034 5.451 1.989 10.903 3.024 16.354.079.358.119 1.074-.199 1.353-.319.278-.518 0-.597-.359a3197 3197 0 0 1-11.062-57.655c-.477-2.745-.994-5.451-1.472-8.196-.477-2.746-1.034-5.451-1.194-8.197 0 0 0-.119.04-.079z"/><path fill="#000" d="M167.177 219.933c-.915.08-1.87 0-2.825 0-.994.04-1.989 0-2.984 0h-5.61c-3.78 0-7.6 0-11.38-.04-3.78-.079-7.56-.278-11.38-.238h-17.666c-2.109 0-4.417 0-6.605-.279-.358-.04-.319-1.194 0-1.233 1.91-.239 3.859-.16 5.769-.16s3.74 0 5.61.04c3.78.04 7.6.08 11.38.159 1.87.04 3.74.12 5.611.12s3.859-.12 5.769-.159c3.78-.04 7.6.039 11.38.119 2.109 0 4.178.08 6.287.08 1.114 0 2.188 0 3.302.039 1.114.04 2.228 0 3.303.12.358 0 .358 1.313 0 1.353zM177.404 228.727c-.557-.995-.796-2.03-1.035-3.183a708 708 0 0 1-.835-4.019l-1.671-8.237c-1.075-5.371-2.189-10.783-3.263-16.154a9344 9344 0 0 1-6.526-32.508 782 782 0 0 1-1.83-9.271 92 92 0 0 1-.835-4.576c-.12-.796-.08-1.592-.199-2.387-.08-.836-.199-1.711-.279-2.547 0-.04.08-.278.119-.159.836 2.387 1.552 4.735 2.03 7.202l1.671 8.236c1.114 5.412 2.148 10.783 3.223 16.195 2.148 10.862 4.337 21.725 6.485 32.587.597 3.064 1.234 6.168 1.831 9.231.597 3.064 1.472 6.128 1.392 9.232 0 .079-.119.596-.278.358"/><path fill="#000" d="M177.404 228.687c-1.194.239-2.427.159-3.621.159-1.313 0-2.626 0-3.979-.04-2.427 0-4.854-.079-7.281-.079-4.895-.04-9.789-.16-14.683-.239-9.868-.199-19.696-.358-29.563-.557l-8.078-.119c-1.392 0-2.745-.04-4.138-.12s-2.904 0-4.297-.358c-.398-.119-.358-1.393 0-1.472 1.194-.279 2.427-.199 3.621-.199h3.979c2.427.04 4.854.079 7.281.159 4.894.119 9.788.199 14.683.318 9.867.199 19.695.319 29.563.597 2.706.08 5.412.12 8.077.199 1.393 0 2.746.08 4.139.119 1.392.04 2.904 0 4.297.319.398.079.358 1.313 0 1.392z"/><path fill="#000" d="M145.811 227.056c.279.796.239 1.751.279 2.626v9.271c-.08 4.058-.438 8.037-.836 12.056 0 .119-.119.119-.119 0-.159-3.979-.358-7.918-.279-11.937 0-1.989.08-3.939.16-5.928 0-1.035.079-2.069.119-3.144 0-.915 0-1.91.318-2.785.08-.199.279-.477.398-.119zM124.285 251.924c-2.825 0-5.69.04-8.515.08l.119-24.232c2.984.08 5.969.159 8.953.278-.159 7.958-.358 15.916-.557 23.874"/><path fill="#D3D3D3" d="m86.764 75.1 4.855 19.497h42.256L129.538 75.1zM108.09 171.668l5.054 20.85h42.694l-4.576-20.85z"/><path fill="#000" d="M176.092 137.569c-.319.557-.478 1.154-.756 1.711-.239.517-.517.994-.796 1.512-.517.955-1.035 1.91-1.472 2.904-.876 1.99-1.234 4.099-1.353 6.287-.279 4.258.239 8.555 1.989 12.494 0 0 0 .159-.039.119-2.786-3.501-3.263-8.316-2.945-12.653.199-2.387.557-4.774 1.472-7.003a18.6 18.6 0 0 1 1.632-3.024c.318-.437.597-.915.955-1.313.398-.437.915-.716 1.273-1.154.04-.039.04.08 0 .12z"/><path fill="#00AF1A" d="m98.104 121.812 4.815 20.89h42.495l-.358-1.592a5.8 5.8 0 0 1-1.91-1.352c-.637-.597-2.069-1.99-1.95-3.86 0-.279.12-2.109 1.393-2.586q.358-.12.716-.12l-2.228-11.38zM346.509 249.576a211 211 0 0 0 1.234-19.099c.318-16.791-1.353-30.12-4.457-54.074-1.154-8.992-1.87-13.448-2.268-16.274-2.228-16.075-5.013-33.303-16.274-45.041-7.281-7.56-17.228-11.858-26.858-15.916.876 4.894-.756 10.186-4.257 13.727s-8.793 5.213-13.688 4.377c.358-2.188.08-4.496-.795-6.525-9.51 2.666-15.28 12.533-17.428 22.162-2.189 9.629-1.791 19.736-4.258 29.325 1.473-.04 3.661 0 6.207.876a17.3 17.3 0 0 1 4.218 2.069c0 1.114 0 2.268-.079 3.422-.08 2.626-.279 5.132-.518 7.52l14.882-18.423c7.599 2.984 14.006 8.873 17.626 16.155-5.69 6.724-9.947 11.817-13.488 16.194-3.542 4.337-8.396 7.441-12.176 11.579-.398.438-1.552 1.751-3.263 1.91-1.591.159-2.825-.796-4.098-1.552-1.631-1.034-4.058-2.268-7.441-3.143-.756 5.411-1.512 9.669-1.87 12.414a357 357 0 0 0-2.626 29.365c0 .437 0 .915.12 1.313.199.517.636.835 1.074 1.193 4.974 3.741 10.624 6.765 16.791 7.64 3.104.438 6.287.358 9.43.239l9.072-.319c3.462-.119 5.173-.278 6.605-.477 6.088-.756 8.555-2.825 13.648-4.536 6.327-2.109 11.698-2.069 14.285-2.029 4.058.039 11.698.795 20.65 5.849z"/><path fill="#000" d="M270.871 203.779c-2.069-.637-4.138-1.114-6.207-1.91s-3.94-1.631-5.889-2.507c-3.502-1.631-6.924-3.342-10.306-5.252a129.5 129.5 0 0 1-14.961-9.868c-5.729-4.377-11.141-9.231-17.109-13.289-2.945-2.03-6.008-3.86-9.311-5.253-2.865-1.193-5.929-2.069-9.072-1.83-1.552.119-3.064.358-4.616.159-2.188-.239-4.257-1.114-5.849-2.626-2.745-2.507-3.819-5.968-4.536-9.47 0-.119.12-.676.199-.358.398 1.432 1.035 2.865 1.711 4.178.756 1.472 1.671 2.825 2.865 3.899 2.706 2.467 6.128 2.825 9.589 2.427 6.287-.756 12.455 2.467 17.587 5.77 6.088 3.899 11.579 8.634 17.189 13.17a126 126 0 0 0 14.484 10.107c3.501 2.109 7.122 4.058 10.823 5.889a187 187 0 0 0 6.406 2.984c2.347 1.034 4.615 2.308 6.963 3.342.119.04.079.478 0 .438zM272.341 136.455c-1.273 6.525-1.949 13.17-2.705 19.775a253 253 0 0 0-.876 9.59c-.238 3.223-.398 6.366-1.114 9.47-.04.238-.199.079-.199-.08-.517-3.223-.318-6.486-.079-9.748.238-3.263.596-6.685 1.034-10.027.438-3.343.955-6.566 1.592-9.789.636-3.223 1.472-6.207 2.188-9.35.04-.239.199 0 .159.159M344.4 247.746c-2.467-.597-4.814-1.671-7.281-2.308-3.223-.835-6.605-1.233-9.947-1.353-5.253-.159-10.306.955-15.28 2.547-4.695 1.512-9.271 3.342-14.085 4.536-6.048 1.512-12.375 2.029-18.622 1.512-3.979-.318-7.918-1.114-11.658-2.467-3.501-1.273-6.486-3.263-9.311-5.65-.04 0 0-.279 0-.239 2.666 1.313 5.491 2.308 8.237 3.382 3.461 1.313 7.042 2.228 10.703 2.666 6.287.796 12.812.438 18.98-.915 4.973-1.074 9.669-2.905 14.483-4.456 4.815-1.552 9.629-2.428 14.722-2.348 3.701.04 7.321.637 10.903 1.671 2.745.796 5.769 1.671 8.156 3.303v.119M258.934 201.71c-.319 2.864-.438 5.769-.677 8.674s-.517 5.69-.756 8.554c-.517 5.69-.915 11.38-1.353 17.07-.238 3.144-.636 6.247-1.313 9.311 0 .119-.119.159-.159 0-.239-2.785-.318-5.571-.119-8.396s.477-5.809.716-8.753c.557-5.73 1.114-11.42 1.91-17.11.438-3.183 1.074-6.326 1.512-9.51.04-.358.239-.079.199.16z"/><path fill="#000" d="M268.243 165.86c-.676-.438-1.432-.756-2.149-1.115-.716-.358-1.472-.756-2.268-1.034-.795-.279-1.591-.557-2.387-.875-.796-.319-1.592-.637-2.427-.836v-.08c.835 0 1.671 0 2.467.08s1.631.358 2.387.676 1.552.677 2.268 1.115c.796.477 1.433 1.074 2.149 1.671.079.079.04.517-.04.437zM321.681 135.102c-1.193 5.372-2.944 10.505-5.371 15.478-2.427 4.974-5.213 9.55-8.197 14.086-6.247 9.43-12.852 18.741-20.81 26.818-2.109 2.149-4.297 4.257-6.684 6.128-2.388 1.87-4.815 3.302-7.322 4.814-.119.08-.119-.239-.04-.278 2.109-1.95 4.059-4.019 6.088-6.009 1.95-1.87 3.9-3.74 5.849-5.69a137 137 0 0 0 10.863-12.135c3.382-4.258 6.804-9.112 10.027-13.768 3.024-4.376 5.928-8.873 8.475-13.568 2.825-5.133 5.372-10.584 6.844-16.274.119-.517.358.159.278.398"/><path fill="#000" d="M324.107 142.821c-.358 1.671-.676 3.303-1.432 4.894a19.5 19.5 0 0 1-2.586 4.138c-2.03 2.547-4.695 4.496-7.68 5.77-.676.278-.795-1.791-.199-2.069 2.825-1.194 5.292-3.024 7.361-5.253a23 23 0 0 0 2.627-3.581c.756-1.273 1.512-2.586 1.87-3.979 0-.079.039 0 .039.08M300.393 174.891c-1.194-1.154-1.95-2.904-2.984-4.297a37.4 37.4 0 0 0-3.82-4.496c-2.785-2.746-5.929-5.412-9.35-7.282v-.159c1.79.716 3.66 1.433 5.292 2.507s3.143 2.228 4.536 3.621 2.626 2.825 3.7 4.416 2.228 3.383 2.706 5.332c0 0 0 .398-.12.319zM167.138 141.349c-5.252 1.87-10.902 2.109-16.314.875-2.148-.477-4.376-1.154-6.127-2.586-1.234-1.034-2.626-3.422-1.433-4.974.597-.795 1.711-.477 2.507-.278 1.234.318 2.507.557 3.82.676 2.586.279 5.173.199 7.719-.199a27.4 27.4 0 0 0 7.68-2.427c2.188-1.074 4.496-2.546 7.042-2.188 1.274.199 2.388.835 3.462 1.472 1.194.716 2.427 1.432 3.621 2.109a276 276 0 0 0 7.44 4.178 664 664 0 0 0 14.762 7.918 619 619 0 0 0 30.559 14.921c10.265 4.655 20.69 9.112 31.195 13.21 1.353.517 2.745 1.074 4.098 1.592.557.199.318 2.069-.04 1.949-10.146-3.82-20.213-7.838-30.12-12.215-9.908-4.337-19.656-8.993-29.325-13.847a576 576 0 0 1-28.41-15.398c-1.154-.677-2.348-1.353-3.502-2.03s-2.307-1.432-3.66-1.671c-2.507-.438-4.974.876-7.162 1.91a29 29 0 0 1-14.285 2.626 23.6 23.6 0 0 1-3.7-.517c-.995-.199-2.069-.677-3.104-.478-.318.08-.358.08-.318.319 0 .238.239.517.358.716.279.477.637.875 1.035 1.233.875.796 1.989 1.313 3.103 1.711 4.815 1.751 10.226 1.99 15.279 1.313a42 42 0 0 0 3.82-.676c.12 0 .159.597 0 .637z"/><path fill="#fff" d="M319.732 135.898c-.955-3.502-3.382-6.645-6.327-8.714a16.2 16.2 0 0 0-5.332-2.427 24 24 0 0 0-2.864-.518c-.955-.119-2.03-.398-3.024-.398v-.119c.994-.239 1.87-.557 2.904-.557 1.035 0 2.109.159 3.144.438a16.1 16.1 0 0 1 5.53 2.626c3.144 2.387 5.093 5.809 6.008 9.629v.04zM313.684 151.137c-.16-1.91-1.552-3.74-2.746-5.173a28 28 0 0 0-3.939-3.859 22.4 22.4 0 0 0-4.496-2.825 20 20 0 0 0-2.587-.916c-.795-.198-1.909-.119-2.586-.557-.199-.119-.199-.875 0-.994.796-.358 2.029.079 2.825.278.836.239 1.671.517 2.467.876 1.87.835 3.581 1.949 5.133 3.262s2.905 2.706 4.019 4.337c1.193 1.711 1.83 3.382 1.91 5.452 0 .039 0 .119-.04 0zM306.243 162.04c-.795-1.353-1.909-2.547-2.984-3.701a33 33 0 0 0-3.66-3.382c-1.313-1.034-2.706-1.87-4.139-2.586a22 22 0 0 0-2.228-.955c-.796-.279-1.751-.438-2.427-.995-.119-.079-.159-.636 0-.676.756-.239 1.552.119 2.268.398.716.278 1.512.557 2.228.915a23.2 23.2 0 0 1 4.377 2.626c1.353 1.034 2.706 2.228 3.78 3.581s1.99 3.024 2.825 4.616c0 .039 0 .278-.04.199zM285.831 73.826c.08-.716.159-1.432.557-2.03.478-.715 1.273-1.073 2.029-1.511 4.139-2.427 6.486-7.56 5.611-12.295-.876-4.695-4.855-8.714-9.589-9.51-1.353-.238-2.786-.238-3.979-.955-1.035-.597-1.751-1.67-2.428-2.705-2.268-3.502-4.496-6.964-6.764-10.465-2.546-3.94-5.133-7.958-8.674-11.062-5.491-4.854-13.13-7.162-20.372-6.246-1.472.198-3.024.556-4.019 1.67-.676.757-.995 1.791-1.313 2.746-6.287 21.367-5.372 45.28 5.053 64.976 2.069 3.9 4.656 7.8 8.595 9.749 5.531 2.785 12.494.995 17.348-2.785.557-.438 1.194-.916 1.91-.796.438.08.796.358 1.154.676 6.525 5.73 10.703 14.046 11.539 22.68.119 1.234 8.913-2.984 9.549-3.461 2.825-2.109 5.093-5.133 6.128-8.515 1.194-3.979-2.109-5.054-4.536-7.68-2.626-2.825-4.695-6.207-6.048-9.788-1.512-4.059-2.189-8.435-1.751-12.772z"/><path fill="#000" d="M256.147 62.964c.079.238.199.477.199.716s-.12.517-.358.597c-.359.159-.717-.16-.995-.438a4 4 0 0 1-.358-.438c-.398-.437-2.587-3.66-1.194-3.74 1.035-.04 2.387 2.547 2.706 3.263zM262.713 73.19c.796 3.182 1.194 6.684-.318 9.708-1.273 2.507-4.257 4.854-7.162 3.302-.08 0-.08-.278 0-.318.676-.12 1.313-.16 1.95-.398a9.4 9.4 0 0 0 1.79-.875c1.114-.677 2.069-1.592 2.746-2.746 1.512-2.626 1.512-5.77.915-8.674 0-.04 0-.199.079-.08zM280.261 59.104c0-1.035 0-2.149.318-3.104.518-1.631 1.711-3.223 3.223-4.058 1.711-.955 3.86-1.313 5.73-.677 1.592.557 2.626 1.751 3.462 3.184 1.551 2.745 1.87 6.167 1.193 9.23-.597 2.706-1.989 5.531-4.297 7.163-1.79 1.273-4.098 1.671-6.247 1.154-1.552-.358-2.785-1.234-3.621-2.587-.079-.119-.159-.716.12-.676.835.12 1.711.278 2.506.557 1.751.557 3.462.796 5.253.199 2.148-.716 4.058-2.188 5.132-4.178 1.433-2.666 1.433-6.167.199-8.913-1.313-2.944-4.496-4.058-7.52-2.984a8.08 8.08 0 0 0-4.138 3.382c-.438.756-1.034 1.472-1.154 2.348 0 .12-.079.04-.079 0z"/><path fill="#000" d="M225.43 4.831c2.705-3.58 19.099-7.68 36.248-1.353 4.496 1.632 11.977 5.093 19.576 12.534a16.27 16.27 0 0 0-4.297-7.958c3.263 1.313 5.969 3.86 7.64 6.963.437.796 1.034 1.95 1.313 3.024a4.7 4.7 0 0 1 1.552-.517c2.785-.477 5.809 1.194 7.639 4.297-.318-.318-1.711-1.591-3.74-1.552-.875 0-1.592.279-2.069.518 2.347.398 3.74 1.273 4.576 1.87 6.645 5.053 5.411 18.74.716 27.614-.876 1.631-1.791 2.904-2.427 3.78-3.741-3.183-6.088-2.626-6.685-2.427-2.029.636-3.541 3.103-5.093 5.61-1.313 2.109-1.512 3.143-2.785 3.7-1.393.597-3.382.358-4.536-.716-.478-.437-.876-1.074-1.274-7.003-.079-.955-.159-3.58-.994-6.565-.199-.756-.478-1.552-.995-2.149-.875-.994-2.308-1.233-3.462-1.83-2.188-1.074-3.581-3.382-4.098-5.77s-.398-4.854-.199-7.32a98 98 0 0 1-23.277-3.542c-3.263-.915-6.565-2.03-9.43-3.9s-5.292-4.575-6.207-7.838c-1.393-4.775 2.069-9.072 2.308-9.43z"/><path fill="#D3D3D3" d="M245.683 81.306c-1.99-.398-3.661-1.87-4.695-3.62s-1.512-3.74-1.831-5.77a47 47 0 0 1-.596-6.724c0-1.711.039-3.422-.12-5.133-.398-3.94-2.188-7.72-4.973-10.544-.16-.16-.319-.319-.398-.558a1.6 1.6 0 0 1-.04-.756c.239-2.984.557-5.968.915-8.912 3.223 2.427 6.565 5.053 8.077 8.793.478 1.194.756 2.467 1.035 3.7.318 1.552.597 3.104.716 4.656.119 1.99-.04 3.979-.199 5.929-.239 2.586-.438 5.132-.676 7.719-.08.994-.159 1.99-.04 2.944a7.2 7.2 0 0 0 2.745 4.775 6.9 6.9 0 0 0 2.428 1.194c.517.159 2.188 0 2.307.557.398 1.551-3.74 1.87-4.536 1.71z"/><path fill="#000" d="M239.992 62.208c.08.239.199.477.199.716s-.119.517-.358.597c-.358.159-.716-.16-.994-.438-.12-.12-.239-.278-.359-.437-.397-.438-2.586-3.661-1.193-3.74 1.034-.04 2.387 2.546 2.705 3.262z"/><path fill="#000" d="M275.166 83.416c-2.109 6.008-6.406 11.021-12.215 13.767-3.144 1.472-6.685 2.387-10.067 1.233-2.507-.835-4.616-2.507-6.406-4.377-2.228-2.347-3.939-5.212-5.451-8.077-1.711-3.342-3.104-6.844-4.258-10.425-2.507-7.56-4.019-15.518-4.417-23.476-.278-5.45 0-10.902.756-16.313.359-2.388.796-4.735 1.393-7.043.438-1.75.836-3.62 1.711-5.173.279-.517.438.796.398.915-.239 1.711-.716 3.383-1.074 5.054-.358 1.67-.756 3.501-1.035 5.292-.676 4.337-1.074 8.714-1.034 13.09.039 7.8 1.392 15.598 3.461 23.078 1.87 6.645 4.417 13.41 8.555 18.98 1.631 2.149 3.462 4.257 5.849 5.61 2.706 1.552 5.809 1.592 8.754.716 3.382-.994 6.804-2.944 9.39-5.331 1.393-1.274 2.746-2.706 3.701-4.298.636-1.074 1.273-2.228 1.75-3.382.04-.119.12.08.08.16z"/><path fill="#000" d="M251.213 78.88c-.557.119-1.074.397-1.671.397s-1.234-.08-1.791-.239a6.6 6.6 0 0 1-2.705-1.551c-1.791-1.672-2.547-4.178-2.786-6.566-.318-3.103.239-6.167.557-9.27.319-3.104.557-6.248.04-9.311-.239-1.552-.597-3.064-1.233-4.497-.319-.795-.717-1.551-1.154-2.307-.438-.756-.796-1.552-1.313-2.268v-.08c.358.318.795.597 1.114.955.398.477.716.995 1.034 1.552.597 1.034 1.075 2.188 1.473 3.302.875 2.547 1.193 5.173 1.313 7.839.159 3.143-.239 6.287-.597 9.39-.319 2.785-.597 5.61.557 8.237.636 1.432 1.552 2.666 2.904 3.501a6.5 6.5 0 0 0 1.95.796c.716.159 1.592.278 2.268 0v.08z"/><path fill="#000" d="M237.048 39.886c1.074 1.114 3.342 3.66 2.904 4.257-.318.398-1.87-.238-2.785-.835-.398-.279-.716-.517-1.79-1.552-.796-.756-1.473-1.472-1.99-1.99l.199-2.745a22.5 22.5 0 0 1 3.462 2.905z"/><path fill="#D3D3D3" d="M258.973 46.73s-.358.158-.517.198c-.836.08-1.631-.08-2.467-.08-.676 0-1.353.2-1.989.518-.995.517-1.831 1.392-2.905 1.79-1.273.438-2.905 0-3.581-1.193-.597-.955-.478-2.189-.438-3.303.04-.915.08-1.83.279-2.745.199-.916.517-1.79 1.154-2.467s1.551-1.114 2.467-1.035c.596.04 1.153.318 1.631.637 1.432.835 2.666 1.95 3.899 3.024.398.358.836.716 1.194 1.193.318.398.517.836.836 1.234.437.517 1.153 1.71.437 2.268z"/><path fill="#000" d="M255.551 39.25c1.671 1.113 2.547 2.108 3.541 3.182 1.512 1.671 1.672 2.388 1.552 2.905-.079.318-.318.716-.676.796-.597.159-1.234-.557-1.87-1.194 0 0-1.91-1.91-4.496-3.78-1.234-.915-2.109-1.313-2.268-2.308 0-.12-.16-.875.238-1.233.716-.597 2.746.716 4.019 1.591z"/><path fill="#D3D3D3" d="M288.177 58.786c-.795-.16-1.631 0-2.347.477-.716.478-1.194 1.114-1.592 1.83-.835 1.552-1.034 3.343-1.074 5.054 1.353.477 2.944.517 4.138-.239.995-.636 1.592-1.671 2.069-2.745.438-.955.796-1.91 1.074-2.905-.079-.08-.119.04-.119.08 0-.319-.637-.756-.875-.916-.398-.278-.836-.517-1.274-.636"/><path fill="#000" d="M289.332 59.581a3.86 3.86 0 0 0-3.979 1.273c-.557.637-.955 1.433-1.194 2.229-.159.517-.278 1.034-.437 1.551-.08.24-.159.478-.239.677-.08.159-.119.398-.239.477h-.079c0-.08-.04-.119-.08-.199a6 6 0 0 1-.08-.795c0-.557.08-1.154.199-1.711.199-.876.518-1.751.955-2.507.637-1.154 1.592-2.308 2.945-2.547.915-.159 1.711.557 2.308 1.114.039.04.119.478 0 .438z"/><path fill="#D3D3D3" d="M293.669 101.917c-1.472.717-3.223.637-4.735.04s-2.864-1.552-4.138-2.586c-3.103-2.547-5.928-5.372-8.435-8.515.477 2.348-.239 4.934-1.87 6.724 3.223 5.69 5.133 12.096 5.65 18.622 0 .239 0 .477.199.637.159.159.398.159.637.198 2.427.12 4.933.239 7.281-.437 2.149-.597 4.098-1.87 5.77-3.382 2.387-2.109 4.337-4.815 4.854-7.958.239-1.433.159-2.865.079-4.337 0-.279 0-.557-.159-.836-.437-.915-2.029-1.79-2.825-1.114-.995.836-.955 2.188-2.347 2.865z"/><path fill="#000" d="M298.523 101.321c.358 2.228.278 4.496-.517 6.645-.836 2.307-2.268 4.297-4.099 5.928-1.87 1.632-4.098 2.865-6.446 3.502a11.1 11.1 0 0 1-3.62.358c-1.313-.04-2.467-.438-3.661-.995-.04 0-.04-.199 0-.199 2.188.199 4.616-.159 6.685-.796 2.069-.636 4.058-1.512 5.809-2.825 3.541-2.626 6.326-7.082 5.809-11.618zM279.981 115.764c-.199-1.432-.518-2.865-.796-4.297-.398-2.029-.836-4.019-1.512-5.968-1.631-4.656-4.297-8.913-7.878-12.335-.358-.358-.398-.955-.319-1.433 0-.159.319-1.114.677-.795 3.78 3.66 6.645 8.156 8.316 13.13.676 2.069 1.233 4.218 1.552 6.406.238 1.751.159 3.462.079 5.252 0 .08-.079.12-.079 0z"/><path fill="#000" d="M286.547 70.762c-.079.716 0 1.433-.119 2.149a19 19 0 0 0-.239 2.109c-.079 1.273 0 2.546.12 3.82.278 2.705 1.034 5.292 2.188 7.758 2.467 5.332 6.525 9.272 11.618 12.097 5.094 2.825 11.142 4.814 16.394 7.878s9.35 7.242 12.812 11.977c7.918 10.862 10.703 24.391 12.852 37.362 2.427 14.523 3.979 29.245 5.292 43.928.637 7.44 1.154 14.841 1.273 22.321.04 3.701-.079 7.441-.199 11.142-.119 3.7-.278 7.281-.557 10.942a61 61 0 0 1-.597 5.411c-.039.279-.199.915-.596.836-.398-.08-.438-.876-.438-1.154.079-3.701.398-7.401.477-11.102.08-3.7.08-7.281-.079-10.902-.398-7.321-.836-14.642-1.433-21.924-1.193-14.642-2.745-29.325-4.695-43.888-1.79-13.329-4.098-27.136-11.419-38.675-3.184-5.053-7.361-9.43-12.494-12.534s-11.141-5.053-16.513-7.958c-5.372-2.904-9.39-6.684-12.056-11.937a28.93 28.93 0 0 1-2.945-16.632c.16-1.313.438-2.387.995-3.541.279-.557.398.398.358.597zM276.521 111.706c-.836.438-1.552 1.114-2.308 1.711-.836.637-1.592 1.273-2.308 2.029-1.313 1.353-2.546 2.746-3.66 4.258-2.308 3.223-3.78 6.923-4.855 10.703-1.193 4.218-1.83 8.555-2.507 12.852-.676 4.297-1.313 9.032-1.909 13.529a513 513 0 0 1-1.035 7.639l-.477 3.82c-.08.557-.16 1.114-.279 1.631-.08.478-.318.836-.398 1.313-.04.279-.199.16-.199-.079 0-.478-.159-.915-.199-1.393 0-.517-.04-1.034 0-1.552 0-1.233.159-2.506.199-3.74.12-2.467.319-4.894.557-7.321.478-4.815 1.194-9.589 1.95-14.364 1.353-8.396 2.865-17.189 7.918-24.192a20.8 20.8 0 0 1 4.178-4.377c.756-.597 1.592-1.074 2.427-1.512.955-.517 1.91-.637 2.945-1.035z"/><path fill="#000" d="M303.498 118.47c-1.592 4.496-3.342 8.913-5.372 13.21s-4.178 8.475-6.525 12.573a191 191 0 0 1-15.717 23.277c-3.143 3.979-6.486 7.879-10.504 11.062-.12.079-.12-.159-.08-.199 5.451-7.679 11.658-14.762 16.99-22.521 5.292-7.64 10.027-15.637 14.285-23.874a342 342 0 0 0 6.764-13.807c.079-.199.199.159.159.279M277.992 95.87c-.398.835-1.233 2.148-2.785 3.381a20.4 20.4 0 0 0-2.984-3.899 23 23 0 0 0-3.183-2.745c.875-.876 1.83-1.91 2.745-3.223 1.632-2.308 2.626-4.496 3.223-6.247.318.159.756.437 1.234.835 2.984 2.626 3.7 7.958 1.75 11.897"/><path fill="#fff" d="M295.34 131.959c-2.467.119-4.974 0-7.401-.159-2.427-.16-4.934-.279-7.401-.438s-4.814-.279-7.242-.478c-2.546-.199-5.013-.756-7.56-1.034v-.119c2.467.079 4.934-.08 7.401.039 2.467.12 4.934.358 7.401.557s4.815.398 7.242.637 5.093.438 7.56.915v.08M288.258 144.85c-1.114.518-2.547.478-3.78.518-1.353.039-2.706 0-4.059-.08-2.745-.159-5.411-.676-8.077-1.512v-.119c2.706 0 5.411.04 8.077.238 1.353.08 2.706.16 4.059.279 1.193.08 2.626.08 3.74.557v.119zM269.396 143.856s-.358.119-.557.119h-1.472l-1.91-.119c-.636-.04-1.313-.12-1.91-.279-.636-.159-1.313-.318-1.989-.398v-.079c.676 0 1.353-.12 2.029-.239.637-.08 1.313-.04 1.95 0s1.273.119 1.91.199c.318 0 .597.079.915.159.159 0 .318.08.438.119.199.08.398.239.596.319v.199M266.93 155.912c-1.313.278-2.626.239-3.939.159-.637 0-1.273-.08-1.91-.199-.676-.119-1.313-.398-1.99-.557-.039 0 0-.159 0-.199.677-.08 1.314-.279 2.03-.358.636-.04 1.273 0 1.91 0 1.313.079 2.626.199 3.899.597.119 0 .119.437 0 .477zM278.469 159.692c-.716.08-1.472.199-2.189.199-.716 0-1.392 0-2.109-.04-.716-.04-1.392 0-2.108-.079-.756-.04-1.433-.199-2.189-.358v-.12c.756-.079 1.433-.199 2.189-.199.716 0 1.392.04 2.108.08s1.393.04 2.109.079c.717.04 1.473.239 2.189.358zM319.771 113.695c-3.421.756-7.122.279-10.584.16s-7.042-.478-10.544-.637c-.239 0-.199-.995 0-.995 3.502.159 7.043.12 10.544.318 3.462.16 7.202.04 10.545 1.115v.079zM278.787 115.247s-.477.159-.716.199a6 6 0 0 1-.836.079c-.517.04-1.074.04-1.591.04-.518 0-1.075 0-1.592-.119-.597-.119-1.194-.279-1.79-.438v-.079c.557-.16 1.114-.358 1.671-.478.557-.119 1.074-.159 1.671-.119s1.114.079 1.671.199c.239.04.517.119.756.199.279.079.557.119.756.318v.199M334.176 134.704c-.398 0-.517.318-.915.438-.199.039-.398.079-.597.079h-4.297000000000001c-.916 0-1.91 0-2.826-.079-.994-.08-1.949-.358-2.944-.518v-.119c.995-.199 1.95-.517 2.984-.597s1.95-.079 2.945-.079 1.949 0 2.944.079c.438 0 .915 0 1.353.08.159 0 .358.04.477.119.319.159.478.478.836.478v.079zM337.518 152.291c-1.393.319-2.865.319-4.258.398s-2.825.12-4.257.12h-6.208c-.756 0-1.591.119-2.268-.12-.238-.079-.199-.955 0-1.034.717-.199 1.552-.08 2.308-.08h1.95l4.257.08c1.433 0 2.825.039 4.258.159 1.432.119 2.865.119 4.218.437zM338.193 169.679c-1.313.08-2.626.359-3.939.478s-2.507.119-3.78.159c-2.586.04-5.133.04-7.719.04h-11.498999999999999c-1.273 0-2.706.119-3.939-.159-.199-.04-.159-.796 0-.836 1.233-.278 2.666-.159 3.939-.199h3.78c2.586-.079 5.133-.119 7.719-.159s5.053-.08 7.56 0c1.313 0 2.626 0 3.939.119 1.313.12 2.626.358 3.939.438zM339.945 187.226c-2.944.796-6.207.677-9.231.796l-9.032.358c-6.128.279-12.255.597-18.423.995-3.422.199-6.923.318-10.345.636-.199 0-.239-1.074 0-1.074 3.064-.159 6.128-.477 9.191-.716s6.009-.358 9.033-.557a939 939 0 0 1 18.422-.876 110 110 0 0 1 5.093-.119c1.711 0 3.542-.079 5.253.318.039 0 .039.239 0 .279zM341.496 206.206a22 22 0 0 1-3.94.597c-1.353.079-2.626.159-3.939.239l-7.878.477c-5.173.279-10.306.637-15.478.875-10.425.438-20.85.756-31.275.916-5.809.079-11.618.159-17.428.119-.358 0-.358-1.791.04-1.791 10.425-.159 20.85-.278 31.275-.477 5.172-.08 10.305-.239 15.478-.398 5.252-.199 10.504-.239 15.796-.438l8.555-.358c2.865-.119 5.889-.398 8.873-.079.08 0 .08.318 0 .318zM339.188 226.936c-5.173.398-10.306 1.035-15.518 1.273-5.213.239-10.107.398-15.16.557-10.226.279-20.452.398-30.678.438-2.865 0-5.73 0-8.595-.119-2.864-.12-5.689-.319-8.554-.319-.239 0-.239-1.233 0-1.233 5.172.119 10.345-.239 15.518-.239 5.172 0 10.106 0 15.159-.04 10.226-.079 20.452-.358 30.678-.557 2.865-.04 5.73-.079 8.555-.079s5.69.119 8.555.079c.04 0 .04.199 0 .199z"/></g><defs><clipPath id="a"><path fill="#fff" d="M379.5.117H.5v252.766h379z"/></clipPath></defs></svg>