<svg xmlns="http://www.w3.org/2000/svg" width="73" height="74" fill="none" viewBox="0 0 73 74"><g clip-path="url(#a)"><path fill="#fff" d="M27.042 65.03a.5.5 0 0 1-.033-.96l5.009-1.633-7.033 2.006a.5.5 0 0 1-.296-.955l12.145-4.04-14.856 4.242a.5.5 0 0 1-.29-.956l7.6-2.433-9.736 2.782a.5.5 0 0 1-.292-.956l15.204-4.956-17.988 5.142a.5.5 0 0 1-.293-.955l21.004-6.9-24.328 6.949a.5.5 0 0 1-.29-.956l18.588-5.937-20.761 5.928a.5.5 0 0 1-.285-.958l7.165-2.217-7.872 2.248a.5.5 0 0 1-.29-.956l19.013-6.093-19.542 5.581a.5.5 0 0 1-.292-.957l19.919-6.478-19.91 5.684a.5.5 0 0 1-.292-.956l18.305-5.997-17.912 5.114a.5.5 0 0 1-.289-.956l5.062-1.595-4.702 1.343a.5.5 0 0 1-.298-.954l18.033-6.148L8.6 51.176a.501.501 0 0 1-.593-.71.5.5 0 0 1 .293-.245l14.868-5.092-14.453 4.13a.5.5 0 0 1-.29-.957l.272-.087a.505.505 0 0 1-.534-.34.5.5 0 0 1 .308-.624l12.586-4.477-12.161 3.47a.5.5 0 0 1-.303-.95l8.521-2.995-8.121 2.32a.5.5 0 0 1-.295-.955l.525-.178-.164.046a.5.5 0 0 1-.317-.946L17 39.406l-7.828 2.236a.5.5 0 0 1-.316-.947l5.228-2.011-4.815 1.371a.5.5 0 0 1-.318-.945l2.843-1.1-2.443.698a.5.5 0 0 1-.338-.938l3.337-1.46-2.91.84a.5.5 0 0 1-.358-.929l2.238-1.096-1.79.51a.5.5 0 0 1-.374-.918l.834-.45-.387.108a.5.5 0 0 1-.597-.677l.662-1.542a.5.5 0 0 1-.234-.299.5.5 0 0 1 .342-.618l.556-.16a.5.5 0 0 1 .597.678l-.585 1.362 3.801-1.086a.5.5 0 0 1 .375.92l-.835.45 2.776-.793a.5.5 0 0 1 .357.93l-2.232 1.09 4.657-1.33a.5.5 0 0 1 .338.939l-3.34 1.46 5.884-1.679a.5.5 0 0 1 .318.948L19.6 36.066l4.997-1.429a.5.5 0 0 1 .317.949l-5.227 2.01 7.817-2.233a.5.5 0 0 1 .317.949l-8.267 3.185 11.414-3.261a.5.5 0 0 1 .295.955l-.532.176 2.222-.637a.5.5 0 0 1 .302.953l-8.506 2.996 11.198-3.199a.5.5 0 0 1 .305.952l-12.587 4.477 15.866-4.532a.5.5 0 0 1 .289.956l-.072.024 1.729-.495a.5.5 0 1 1 .3.954l-14.87 5.089 18.083-5.162a.5.5 0 0 1 .298.954l-18.033 6.148 21.54-6.153a.5.5 0 0 1 .287.957l-5.081 1.601 7.017-2.004a.5.5 0 0 1 .292.955l-18.306 6.004 21.39-6.116a.5.5 0 1 1 .292.957l-19.914 6.48 23.045-6.582a.5.5 0 0 1 .29.957L39.11 49.992l21.891-6.253a.5.5 0 1 1 .286.96l-7.174 2.218 7.905-2.257a.5.5 0 0 1 .29.956L43.722 51.55l17.73-5.064a.5.5 0 0 1 .294.955l-21.006 6.904 19.686-5.625a.5.5 0 0 1 .292.955l-15.202 4.956 14.037-4.01a.5.5 0 0 1 .29.956l-7.609 2.431 6.63-1.893a.5.5 0 0 1 .294.954l-12.133 4.04 10.99-3.136a.5.5 0 0 1 .293.955l-5.013 1.631 4.066-1.16a.5.5 0 0 1 .306.95L45.19 60.825l11.137-3.18a.5.5 0 0 1 .297.955l-3.728 1.261 2.775-.792a.5.5 0 0 1 .318.947l-8.614 3.307 7.302-2.09a.5.5 0 0 1 .324.945l-6.158 2.492 4.897-1.399a.5.5 0 0 1 .333.941l-3.631 1.542 2.484-.705a.5.5 0 0 1 .39.908l-3.215 1.925 1.47-.42a.502.502 0 0 1 .653.538.5.5 0 0 1-.379.424l-5.127 1.462a.5.5 0 0 1-.391-.908l3.22-1.927-6.617 1.886a.5.5 0 0 1-.334-.94l3.635-1.541-6.175 1.762a.5.5 0 0 1-.324-.944l6.156-2.489-9.13 2.607a.5.5 0 0 1-.316-.946l8.614-3.307-11.811 3.373a.5.5 0 0 1-.297-.953l3.73-1.263-5.741 1.638a.5.5 0 0 1-.306-.95l12.47-4.473-15.8 4.513a.5.5 0 0 1-.26.007"/><path fill="#FFCE48" d="M13.446 34.823a.5.5 0 0 1-.05-.954l3.7-1.355-5.882 1.678a.5.5 0 0 1-.329-.943l7.318-3.023-9.718 2.777a.5.5 0 0 1-.304-.952l1.041-.37-1.09.312a.5.5 0 0 1-.309-.95l1.583-.582-1.06.303a.5.5 0 0 1-.312-.95l.506-.189a.5.5 0 0 1-.26-.947l3.422-1.666-2.602.742a.5.5 0 0 1-.397-.908l1.888-1.15-1.05.3a.5.5 0 0 1-.437-.88l.663-.497a.5.5 0 0 1 .126-.906l1.841-.524a.5.5 0 0 1 .436.881l-.292.22 1.99-.567a.5.5 0 0 1 .397.908l-1.888 1.147 4.534-1.293a.5.5 0 0 1 .357.93l-3.422 1.665 6.276-1.79a.5.5 0 0 1 .313.948l-.39.146 2.08-.593a.5.5 0 0 1 .309.95l-1.59.582 3.459-.99a.5.5 0 0 1 .304.951l-1.045.372 2.814-.8a.5.5 0 0 1 .329.942l-7.321 3.02 10.668-3.042a.5.5 0 0 1 .31.95l-3.7 1.354 5.885-1.68a.5.5 0 0 1 .313.949l-4.762 1.785 7.177-2.05a.5.5 0 0 1 .319.946l-5.937 2.303 8.69-2.48a.5.5 0 0 1 .312.949l-4.548 1.696 6.915-1.975a.5.5 0 0 1 .322.946l-6.565 2.609 9.55-2.73a.5.5 0 0 1 .316.947l-5.505 2.108 8.126-2.316a.5.5 0 0 1 .324.945l-6.78 2.724 9.86-2.817a.5.5 0 0 1 .32.945l-6.416 2.536 9.347-2.67a.5.5 0 0 1 .313.949l-4.778 1.793 7.206-2.059a.5.5 0 0 1 .314.949l-5.01 1.89 7.485-2.134a.5.5 0 0 1 .329.942l-7.362 3.051 10.735-3.066a.5.5 0 0 1 .326.943l-7.152 2.929 9.084-2.596a.5.5 0 0 1 .328.944l-6.202 2.557 5.919-1.69a.5.5 0 0 1 .336.938L61.416 42l3.587-1.025a.5.5 0 0 1 .334.94l-1.264.542.602-.172a.5.5 0 0 1 .383.915l-1.734.978.945-.27a.5.5 0 0 1 .452.87l-.816.663a.5.5 0 0 1-.038.948l-1.842.526a.499.499 0 0 1-.452-.868l.622-.507-2.646.755a.5.5 0 0 1-.383-.92l1.736-.983-4.173 1.197a.5.5 0 0 1-.334-.94l1.261-.54-3.193.912a.5.5 0 0 1-.337-.939l4.38-1.91-7.203 2.058a.5.5 0 0 1-.328-.943l6.207-2.556-9.279 2.648a.5.5 0 0 1-.326-.944l7.154-2.925-10.413 2.971a.5.5 0 0 1-.33-.942l7.362-3.051-10.738 3.065a.5.5 0 0 1-.314-.947l5.01-1.891-7.487 2.14a.5.5 0 0 1-.314-.948l4.779-1.793-7.203 2.055a.5.5 0 0 1-.321-.945l6.418-2.539-9.346 2.67a.5.5 0 0 1-.324-.945l6.78-2.723-9.859 2.816a.5.5 0 0 1-.317-.946l5.506-2.108-8.124 2.32a.5.5 0 0 1-.322-.945l6.565-2.612-9.558 2.726a.5.5 0 0 1-.312-.948l4.548-1.696-6.91 1.975a.5.5 0 0 1-.318-.946l5.937-2.303-8.69 2.48a.5.5 0 0 1-.314-.948l4.762-1.786-7.178 2.05a.5.5 0 0 1-.26.007"/><path fill="#7FC3CF" d="M30.235 61.704a.5.5 0 0 1-.194-.873l.627-.51-1.443.412a.5.5 0 0 1-.436-.882l2.13-1.587-1.748.499a.5.5 0 0 1-.405-.903l1.89-1.196-1.034.295a.5.5 0 0 1-.39-.914l1.258-.728-.495.14a.5.5 0 0 1-.391-.906l1.557-.94-.753.215a.5.5 0 0 1-.4-.908l1.653-1.01-.835.239a.5.5 0 0 1-.42-.893l2.366-1.625-1.42.405a.5.5 0 0 1-.375-.919l.595-.318a.5.5 0 0 1-.313-.92l1.717-1.09-.87.247a.5.5 0 0 1-.493-.827l1.368-1.397-.025.006a.5.5 0 0 1-.274-.96l1.84-.525a.5.5 0 0 1 .494.83l-1.367 1.396 2.353-.673a.5.5 0 0 1 .406.902l-1.712 1.09 1.073-.307a.5.5 0 0 1 .374.918l-.595.318a.5.5 0 0 1 .328.907l-2.366 1.625 1.421-.405a.5.5 0 0 1 .398.907l-1.654 1.011.835-.238a.5.5 0 0 1 .392.908l-1.558.938.754-.215a.5.5 0 0 1 .39.914l-1.258.728.495-.14a.5.5 0 0 1 .405.902l-1.89 1.197 1.034-.296a.5.5 0 0 1 .435.88l-2.131 1.59 1.16-.328a.5.5 0 0 1 .452.869l-.817.665a.5.5 0 0 1-.032.95l-1.839.525a.5.5 0 0 1-.267.005M22.263 59.7a.5.5 0 0 1-.17-.89l.331-.239-.936.268a.5.5 0 0 1-.403-.904l.977-.608-.825.236a.5.5 0 0 1-.434-.884l2.374-1.738-1.542.439a.5.5 0 0 1-.382-.92l.774-.435-.15.041a.5.5 0 0 1-.428-.886l2.294-1.648-1.475.42a.5.5 0 0 1-.403-.904l1.549-.97-.844.24a.5.5 0 0 1-.416-.896l1.929-1.286-1.174.334a.5.5 0 0 1-.39-.909l1.196-.71-.532.151a.5.5 0 0 1-.432-.884l2.238-1.645-1.412.404a.5.5 0 0 1-.5-.826l1.324-1.386-.061.017a.5.5 0 0 1-.638-.337.5.5 0 0 1 .363-.624l1.83-.523a.5.5 0 0 1 .5.826l-1.324 1.387 2.32-.662a.5.5 0 0 1 .434.883l-2.24 1.644 1.56-.444a.5.5 0 0 1 .394.91l-1.194.708.528-.15a.5.5 0 0 1 .417.896l-1.934 1.293 1.175-.334a.5.5 0 0 1 .403.904l-1.552.969.843-.24a.5.5 0 0 1 .43.886l-2.294 1.648 1.473-.421a.5.5 0 0 1 .382.92l-.775.436.15-.043a.5.5 0 0 1 .434.884l-2.373 1.736 1.537-.44a.5.5 0 0 1 .402.905l-.977.608.305-.087a.5.5 0 0 1 .43.885l-.583.418a.5.5 0 0 1-.046.946l-2.203.63a.5.5 0 0 1-.254.002M14.496 57.75a.505.505 0 0 1-.374-.555.5.5 0 0 1 .149-.29l1.27-1.22-2.063.59a.5.5 0 0 1-.442-.877l2.158-1.668-1.588.453a.5.5 0 0 1-.441-.876l2.225-1.711-1.561.446a.5.5 0 0 1-.383-.92l.572-.325-.061.017a.5.5 0 0 1-.435-.883l2.065-1.522-1.424.407a.5.5 0 0 1-.423-.892l1.81-1.255-1.203.343a.5.5 0 0 1-.376-.919l.317-.17a.5.5 0 0 1-.248-.91l1.798-1.25-1.19.34a.5.5 0 0 1-.398-.907l1.008-.617-.465.133a.5.5 0 0 1-.502-.825l1.262-1.333-.091.024a.5.5 0 0 1-.275-.96l1.842-.526a.5.5 0 0 1 .5.825l-1.261 1.333 2.24-.64a.5.5 0 0 1 .398.908l-1.007.616.56-.16a.5.5 0 0 1 .423.89l-1.797 1.252 1.19-.34a.5.5 0 0 1 .376.918l-.318.173a.5.5 0 0 1 .25.91l-1.81 1.261 1.198-.343a.5.5 0 0 1 .435.883L16.342 49.1l1.423-.406a.5.5 0 0 1 .383.92l-.571.324.06-.017a.5.5 0 0 1 .442.877l-2.226 1.71 1.562-.444a.5.5 0 0 1 .443.876l-2.153 1.654 1.494-.427a.5.5 0 0 1 .484.843l-1.27 1.22.262-.074a.498.498 0 0 1 .653.537.5.5 0 0 1-.378.424l-2.196.628a.5.5 0 0 1-.258.006M37.591 63.5a.501.501 0 0 1-.21-.86l1.659-1.47-2.298.655a.5.5 0 0 1-.406-.902l2.14-1.37-1.26.36a.5.5 0 0 1-.373-.918l.794-.42a.5.5 0 0 1-.377-.919l1.339-.752-.468.133a.501.501 0 0 1-.39-.91l1.713-1.009-.783.223a.5.5 0 0 1-.376-.92l.977-.527-.155.045a.5.5 0 0 1-.4-.907l2.094-1.297-1.092.312a.5.5 0 0 1-.378-.919l1.126-.62-.285.082a.5.5 0 0 1-.392-.908l1.38-.827-.477.137a.5.5 0 0 1-.478-.847l1.21-1.122a.5.5 0 0 1-.137-.98l1.832-.523a.5.5 0 0 1 .479.842l-1.174 1.092 2.134-.61a.5.5 0 0 1 .392.909l-1.38.825.89-.255a.5.5 0 0 1 .377.919l-1.125.62.283-.081a.5.5 0 0 1 .401.905L42.3 51.981l1.095-.312a.5.5 0 0 1 .376.919l-.98.529.158-.044a.5.5 0 0 1 .39.91l-1.71 1.009.777-.223a.5.5 0 0 1 .382.92l-1.338.753.467-.133a.5.5 0 0 1 .374.918l-.794.42a.5.5 0 0 1 .4.903l-2.143 1.369 1.117-.319a.5.5 0 0 1 .47.855l-1.66 1.471.415-.119a.502.502 0 0 1 .654.537.5.5 0 0 1-.379.424l-2.528.722a.5.5 0 0 1-.252.01M45.115 65.305a.5.5 0 0 1-.142-.91l.408-.253-.746.213a.5.5 0 0 1-.39-.916l1.232-.704-.842.24a.5.5 0 0 1-.392-.907l2.41-1.45-1.196.341a.5.5 0 0 1-.406-.903l2.886-1.844-1.537.44a.5.5 0 0 1-.36-.928l.656-.326a.48.48 0 0 1-.381-.301.5.5 0 0 1 .225-.628l1.398-.754-.385.11a.5.5 0 0 1-.38-.92l1.798-1.007-.712.203a.5.5 0 0 1-.397-.907l2.299-1.395-1.09.312a.5.5 0 0 1-.367-.924l.523-.272a.5.5 0 0 1-.12-.852l.95-.763a.5.5 0 0 1 .056-.941l1.835-.524a.5.5 0 0 1 .627.582.5.5 0 0 1-.176.286l-.73.585 1.583-.453a.5.5 0 0 1 .368.924l-.074.04a.5.5 0 0 1 .327.922l-2.3 1.394 1.24-.354a.5.5 0 0 1 .381.92l-1.798 1.007.712-.203a.5.5 0 0 1 .375.918l-1.396.752.384-.11a.5.5 0 0 1 .359.928l-.657.326a.5.5 0 0 1 .184.913l-2.887 1.845 1.538-.44a.5.5 0 0 1 .391.908l-2.411 1.45 1.191-.34a.5.5 0 0 1 .39.916l-1.231.703.21-.06a.5.5 0 0 1 .402.905l-.658.409a.5.5 0 0 1-.01.958l-2.906.83a.5.5 0 0 1-.26.01"/><path fill="#ECD9A4" d="M36.504 36.472a.5.5 0 0 1-.105-.93l.063-.033-1.068.306a.5.5 0 0 1-.351-.932l.92-.437-1.483.424a.5.5 0 0 1-.372-.918l3.616-1.916-3.91 1.114a.5.5 0 0 1-.347-.936l3.012-1.386-2.555.733a.5.5 0 0 1-.353-.932l3.96-1.895-3.126.887a.5.5 0 0 1-.36-.928l4.515-2.253-3.618 1.033a.5.5 0 0 1-.356-.93l4.227-2.063-3.361.96a.5.5 0 0 1-.355-.93l4.083-1.974-3.233.923a.5.5 0 0 1-.344-.935l3.086-1.4-2.323.663a.5.5 0 0 1-.36-.928l4.553-2.279-3.651 1.045a.5.5 0 0 1-.328-.944l.934-.385-.295.085a.5.5 0 0 1-.338-.938l2.543-1.124-1.819.52a.5.5 0 0 1-.36-.929l4.493-2.237L38.14 14.7a.5.5 0 0 1-.351-.932l3.055-1.453-2.27.65a.5.5 0 0 1-.414-.897l2.618-1.749-1.66.474a.5.5 0 0 1-.443-.876l.713-.55a.5.5 0 0 1 .097-.924l1.839-.524a.5.5 0 0 1 .442.877l-.415.32 2.221-.636a.5.5 0 0 1 .415.897l-2.615 1.75 4.997-1.43a.5.5 0 0 1 .351.933l-3.055 1.451 3.011-.863a.5.5 0 0 1 .36.928l-4.492 2.242 3.601-1.029a.5.5 0 0 1 .339.937l-2.55 1.123 1.822-.52a.5.5 0 0 1 .327.943l-.934.385.295-.084a.5.5 0 0 1 .36.927l-4.552 2.279 3.65-1.045a.5.5 0 0 1 .345.936l-3.086 1.4 2.323-.663a.5.5 0 0 1 .355.93l-4.083 1.974 3.232-.923a.5.5 0 0 1 .357.93l-4.228 2.062 3.361-.96a.5.5 0 0 1 .36.928l-4.516 2.254 3.618-1.034a.5.5 0 0 1 .353.932l-3.96 1.895 3.127-.886a.5.5 0 0 1 .346.935l-3.01 1.387 2.244-.641a.5.5 0 0 1 .372.918l-3.617 1.916 2.73-.78a.5.5 0 0 1 .351.933l-.922.439.199-.053a.5.5 0 0 1 .364.926l-.799.407a.5.5 0 0 1-.12.91l-3.84 1.1a.5.5 0 0 1-.255-.004"/><path fill="#1E1E1E" d="M8.71 33.57C6.394 69.736 3.67 57.267 39.743 68.216c3.79.621 8.054 3.221 11.662.837 5.033-6.379 7.12-14.94 11.01-22.12 1.7.07 2.65-1.412 2.868-2.92.23-2.241 2.16-4.9.59-6.932-7.295-2.905-15.483-3.939-23.081-6.18l4.623-18.462c.859-2.047-.861-3.52-2.78-3.723-2.062-.517-5.381-1.808-6.301 1.076-1.624 6.251-3.105 12.553-4.71 18.814L14.98 23.937c-2.235-.825-5.835-1.596-6.372 1.632-.212 2.503-2.993 6.453.103 8.002m44.563 29.88c-1.205 2.62-2.407 6.407-6.126 5.64-9.271-2.284-18.523-4.662-27.797-6.96-3.486-1.312-8.98-.741-10.32-4.997-.184-7.656.89-15.423 1.148-23.114q25.398 6.32 50.783 12.694-3.84 8.37-7.688 16.737M39.774 10.012c.417-1.339 1.256-1.31 2.357-1.033 1.719.367 4.675.648 3.873 3.113-1.557 6.422-3.232 12.816-4.816 19.233-.549 2.191-1.357 4.844-4.245 4.324-2.523-.677-2.781-3.223-2.25-5.341q2.545-10.147 5.081-20.296m-28.188 14.03c7.256 1.802 14.542 3.65 21.811 5.46-3.205 7.398 8.233 9.994 9.17 2.297l17.395 4.355c2.013.577 6.025.57 4.869 3.661-.841 1.646-.457 6.896-3.148 6.125L10.03 33.007c-1.475-.393-1.4-1.794-1.033-2.992.805-1.686.394-5.654 2.589-5.974"/><path fill="#1E1E1E" d="M35.496 43.48a2.84 2.84 0 0 0-3.989 1.767c-1.169 4.67-2.431 9.345-3.45 14.04a2.6 2.6 0 0 0 2.074 2.472c3.514.674 3.663-3.438 4.342-5.835.154-3.383 4.451-10.289 1.023-12.445m-4.983 17.247c-2.158-1.11.065-4.21.14-6.016 1.145-3.309 1.182-7.352 2.993-10.28 3.97-1.032-.243 7.832-.25 9.74-.824 1.657-.567 6.706-2.883 6.556M28.196 44.566c1.127-3.488-4.615-4.558-5.34-1.234-.884 4.306-1.565 8.658-2.402 12.975a2.394 2.394 0 0 0 1.854 3.264c5.227 1.387 4.452-11.457 5.888-15.005m-5.232 14.487c-2.31-1.005-.441-4.186-.405-6.037.811-3.473.994-7.209 2.147-10.554 4.13-2.66.627 7.869.62 9.536-.708 1.773-.24 6.687-2.362 7.055M18.433 51.571c-.334-3.329 2.972-10.844-.795-12.363a2.78 2.78 0 0 0-3.678 2.214c-.505 4.745-1.054 9.514-1.425 14.264a2.574 2.574 0 0 0 2.539 2.136c3.506.172 3.012-3.853 3.359-6.25m-3.262 5.407c-2.23-.876-.55-4.166-.706-5.983.64-3.495.196-7.448 1.476-10.714 3.77-2.046.933 7.94 1.16 9.709-.602 1.884.41 6.525-1.93 6.988M44.557 45.974c-5.718-3.607-6.738 11.353-8.674 14.78-.6 3.282 4.596 4.05 5.398.99.456-3.547 6.05-13.617 3.276-15.77m-.725 2.952c-1.207 2.195-3.348 14.426-5.492 13.814-2.292-1.28.147-4.259.374-6.146 1.358-3.231 1.631-7.293 3.645-10.091 1.407-.64 2.007 1.444 1.468 2.422zM53.615 48.548c-5.622-4.032-7.556 10.478-9.848 13.804-1.131 3.254 4.155 4.433 5.228 1.516.738-3.443 6.972-12.98 4.62-15.32m-.854 2.354c-1.39 2.18-4.676 14.355-6.65 13.876-3-1.35 3.384-11.145 3.886-13.986.545-2.76 3.124-2.98 2.764.11M37.325 31.411c.963.458 1.64-.494 1.452-1.347-.355-.276-1.23-.307-1.432.15-.01.38-.492.997-.02 1.197"/></g><defs><clipPath id="a"><path fill="#fff" d="m14.579.604 58.203 14.573L58.21 73.38.006 58.807z"/></clipPath></defs></svg>