<svg width="132" height="132" viewBox="0 0 132 132" fill="none" xmlns="http://www.w3.org/2000/svg">
<circle cx="66" cy="66" r="66" fill="white"/>
<g clip-path="url(#clip0_932_63634)">
<path d="M34.9833 47.5149C27.3445 61.0775 29.6384 77.9169 38.5361 88.9159C40.0673 90.8059 48.154 100.378 61.7699 101.455C74.9152 102.495 87.8109 95.1856 94.1368 83.3709C101.532 69.564 96.6405 55.757 95.6027 53.04C95.115 51.761 86.844 31.0961 66.6271 29.5472C52.7361 28.4785 40.8782 37.0333 34.9719 47.5121H34.9833V47.5149Z" fill="white"/>
<path d="M30.2962 75.3705C44.346 84.9313 62.5497 84.5363 75.0229 74.7566C90.8278 62.3764 88.7749 41.7399 88.6388 40.603C89.5405 41.5466 102.252 55.1603 97.9136 73.7619C97.5592 75.3023 93.4081 91.7638 76.8886 98.5507C75.2809 99.2072 59.5894 105.338 44.9641 95.9161C34.1922 88.97 31.0108 78.1074 30.2934 75.3705H30.2962Z" fill="#B7BFF6"/>
<path d="M33.9937 46.8925C29.267 54.1996 28.164 63.6581 29.5562 72.1248C30.7244 79.3011 33.8349 86.2244 38.8112 91.5704C43.4131 96.4987 49.3109 100.156 55.7361 102.14C64.0383 104.695 73.4691 102.987 80.9434 98.8235C89.0244 94.3216 95.1802 86.6053 97.6981 77.6782C99.8871 69.9534 99.4845 61.4868 97.0885 53.85C94.4657 45.4857 88.5623 37.6699 81.2723 32.8895C74.3849 28.3791 66.3946 26.9694 58.3248 28.4757C50.2551 29.982 42.5086 34.8562 37.2176 41.4755C35.9076 43.1182 34.8557 44.94 33.9285 46.8187C33.7924 47.1 33.9994 48.2909 34.0532 48.1999C38.5134 41.791 44.2949 36.3995 51.5679 33.4011C58.8409 30.4027 67.2679 30.306 74.7592 33.1055C84.0822 36.5899 91.5565 44.7922 95.5574 53.8131C97.3834 57.9455 98.2992 62.6264 98.2851 67.1227C98.2567 76.2941 93.9865 84.9313 87.1559 90.9509C75.0257 101.643 56.3712 102.822 43.4103 92.9148C31.7622 84.0076 26.7689 68.2197 31.4134 54.2422C32.1195 52.1107 33.0211 50.0501 34.0391 48.0379C34.1638 47.7793 33.9994 46.884 33.988 46.8925H33.9937Z" fill="#101A5B"/>
<path d="M38.2469 55.9049C36.316 61.1003 35.9615 66.9891 37.0929 72.409C38.5531 79.4063 42.7468 85.6418 48.5623 89.7629C53.927 93.5486 60.684 95.6915 67.2537 95.018C72.8481 94.441 78.0569 91.903 82.242 88.1827C84.1645 86.4803 85.8232 84.5761 87.1729 82.3962C89.9204 77.9625 91.7096 72.8922 92.237 67.7053C92.9544 60.5915 91.1 53.4209 87.0198 47.5576C83.2486 42.1321 77.6797 37.9798 71.3084 36.1779C68.0703 35.2599 64.6309 34.9557 61.2993 35.419C58.1462 35.8567 55.0641 36.9538 52.2938 38.497C46.9121 41.4841 42.6079 46.2787 39.8433 51.7583C39.1798 53.077 38.7148 54.4554 38.2299 55.8424C38.1817 55.9873 38.142 56.209 38.1902 56.3596C38.1987 56.3909 38.2639 56.6581 38.3235 56.4904C39.2365 53.8813 40.7081 51.3149 42.2931 49.0583C43.9802 46.6595 45.9934 44.5052 48.2816 42.6579C53.2068 38.6789 59.2294 36.6298 65.561 36.9594C78.8026 37.6529 90.5386 48.9417 91.8627 62.1575C92.4327 67.873 90.9242 73.6226 88.2787 78.6616C87.1729 80.7676 85.8856 82.7173 84.2552 84.451C81.1163 87.799 77.2119 90.4933 72.8793 92.0082C66.9191 94.0829 60.2331 93.9095 54.3807 91.5534C48.5283 89.2002 43.1778 84.559 40.0503 78.8521C36.7158 72.787 35.987 65.7443 37.5862 59.0568C37.7989 58.1758 38.0342 57.2862 38.3121 56.4193C38.349 56.3056 38.2923 55.8054 38.2582 55.9106H38.2469V55.9049Z" fill="#101A5B"/>
<path d="M66.7093 70.286C66.9815 70.1069 67.2991 70.0131 67.5628 69.8113C67.8265 69.6096 68.0448 69.3651 68.2348 69.1065C68.6232 68.5921 68.8699 67.9782 69.0089 67.3472C69.3037 66.0143 69.2329 64.5534 68.7026 63.283C67.5911 60.6171 64.6025 59.2728 61.9854 60.6626C59.3654 62.0524 58.5942 65.3862 59.4278 68.1288C60.1849 70.6327 62.6432 72.8552 65.3851 71.8719C67.7386 71.0334 68.955 68.7825 69.006 66.3838C69.0117 66.2672 68.938 65.9802 68.8954 66.253C68.6686 67.7252 67.5826 69.1008 66.3577 69.8994C64.4636 71.1386 62.1272 70.6355 60.718 68.9189C60.0119 68.0663 59.4448 66.8897 59.4902 65.75C59.5356 64.6103 60.2303 63.5047 61.0951 62.7544C62.9296 61.1543 65.646 61.0889 67.4153 62.8311C68.2887 63.6894 69.0004 64.9968 68.8784 66.253C68.8075 66.9806 68.5155 67.6883 68.1752 68.3221C67.8123 68.9957 67.3161 69.7914 66.7178 70.2547V70.2746V70.286H66.7093Z" fill="#101A5B"/>
<path d="M61.2709 70.3086C61.1546 70.0614 61.027 70.0756 60.8427 70.2177C60.6896 70.3285 60.5677 70.4934 60.4372 70.6241C60.1395 70.951 59.8616 71.2778 59.5753 71.6075C58.9997 72.2725 58.4468 72.9603 57.8825 73.6254C57.3182 74.2904 56.7653 74.947 56.2011 75.6035C55.6028 76.2998 54.8939 76.9506 54.3665 77.701C54.1425 78.0193 54.1453 78.4967 54.1737 78.8691C54.1794 78.9856 54.2474 79.7189 54.4743 79.537C54.8344 79.2641 54.8599 78.8122 54.8769 78.4001C54.8826 78.2637 54.8939 77.9454 54.7947 77.826C54.6529 77.6612 54.6983 77.8544 54.616 77.8203C54.6529 77.7152 54.633 77.6725 54.5678 77.701C54.514 77.7209 54.4743 77.6981 54.4317 77.664L54.4743 79.5398C54.8769 79.2158 55.2115 78.7525 55.5546 78.366C55.8977 77.9766 56.2294 77.5873 56.5697 77.1979C57.2644 76.3993 57.942 75.5893 58.6055 74.7594C59.269 73.9295 59.9269 73.0854 60.5195 72.21C60.8115 71.778 61.1773 71.2835 61.2709 70.7577C61.2964 70.6099 61.3162 70.411 61.268 70.2916V70.3115L61.2709 70.3086Z" fill="#101A5B"/>
<path d="M63.8427 42.0014C63.4485 43.2036 63.4854 44.6843 63.4173 45.9406C63.3294 47.4071 63.3039 48.8764 63.3096 50.3487C63.3124 53.2703 63.3464 56.2006 63.4996 59.1279L63.613 56.9963C63.4627 57.849 63.4202 58.6931 63.4712 59.5514C63.4967 59.955 63.6243 61.8848 64.4097 61.4698L64.475 61.4414C65.0024 61.1657 65.0279 59.6651 65.0562 59.253C65.0988 58.4401 65.13 57.3516 64.7245 56.607L64.6649 56.499L65.0165 58.8608C64.9258 61.1941 65.0704 58.5339 65.0477 58.0565C65.0336 57.6017 64.9967 57.1555 64.974 56.6979C64.9372 56.0414 64.8861 55.3934 64.8492 54.7369C64.7585 53.2732 64.699 51.801 64.6508 50.3288C64.6167 49.047 64.5969 47.6487 64.5657 46.2731C64.5345 44.8975 64.6054 43.3542 64.2963 42.0099C64.1886 41.5182 63.9759 41.5438 63.8228 42.0014H63.8427Z" fill="#101A5B"/>
<path fill-rule="evenodd" clip-rule="evenodd" d="M38.6779 29.5529C54.84 17.8775 77.0474 18.4346 92.6623 30.7807C94.5905 32.3097 96.3825 33.9866 98.044 35.8141C98.166 35.9732 98.132 36.2006 97.9505 36.2944L91.8939 39.4804L111.853 52.0965L112.769 28.4217L106.531 31.7015C106.4 31.7726 106.25 31.7413 106.151 31.6362C103.766 28.7372 101.044 26.1026 98.1036 23.7692C79.398 8.9789 52.7872 8.38206 33.4578 22.3567C23.5819 29.5017 16.9979 39.0995 13.343 50.6726L21.8551 53.1225C24.9769 43.4678 30.404 35.5128 38.6807 29.5557L38.6779 29.5529Z" fill="#101A5B"/>
<path fill-rule="evenodd" clip-rule="evenodd" d="M109.505 68.0066C108.731 80.1253 104.126 90.5899 95.2001 98.869C80.1721 112.81 57.46 114.759 40.3253 103.527C33.8434 99.2697 28.5468 93.3724 24.9939 86.4689C24.9004 86.287 25.0081 86.0852 25.1896 86.0426L31.7905 84.5391L15.7588 67.1738L8.77505 89.7714L15.841 88.1571C15.9942 88.1116 16.17 88.2196 16.2153 88.3759C17.8259 95.4329 29.0033 106.662 35.5107 110.948C56.1217 124.485 83.1522 122.163 101.242 105.409C111.938 95.4869 117.521 82.8395 118.411 68.3533L109.514 68.0066H109.505Z" fill="#101A5B"/>
</g>
<defs>
<clipPath id="clip0_932_63634">
<rect width="114" height="108" fill="white" transform="translate(8.5 12)"/>
</clipPath>
</defs>
</svg>
