<svg xmlns="http://www.w3.org/2000/svg" width="376" height="308" fill="none" viewBox="0 0 376 308"><g clip-path="url(#a)"><path fill="#fff" d="M213.491 299.623c-99.479 22.045-191.536-11.568-205.614-75.076C-6.202 161.038 63.03 91.683 162.509 69.638s191.537 11.568 205.615 75.077-55.153 132.863-154.633 154.908"/><path fill="#000" d="M246.334 13.216s-.085.256-.17.34c-.043.086-.128.129-.213.214-.17.128-.34.255-.51.34-.383.213-.765.383-1.148.554-.383.17-.765.34-1.191.51-.425.17-.807.256-1.233.341v-.085c.341-.298.766-.51 1.148-.809.383-.255.766-.426 1.191-.638s.765-.34 1.148-.511c.17-.085.298-.128.468-.213.085 0 .17-.085.255-.085h.212v.042zM246.633 30.116c-.34-.043-.638-.17-.936-.298l-1.02-.384-1.021-.383c-.382-.127-.722-.34-1.105-.468v-.085h1.105a9 9 0 0 1 1.021.213c.34.085.638.213.978.34.383.17.723.341 1.02.554.085.085.128.51 0 .468z"/><path fill="#00AF1A" d="M282.901 65.574c0-22.688-18.369-41.077-41.032-41.077s-41.031 18.389-41.031 41.077c0 22.689 17.39 40.056 39.203 41.035a95.4 95.4 0 0 1-2.339 22.986 97 97 0 0 1-5.315 16.517 64 64 0 0 0 9.695-15.75c3.912-9.152 5.017-17.666 5.145-24.051 20.154-2.597 35.716-19.836 35.716-40.737z"/><path fill="#fff" d="M240.849 34.585c-7.538 0-13.649-6.117-13.649-13.664s6.111-13.664 13.649-13.664 13.649 6.118 13.649 13.664c0 7.547-6.111 13.664-13.649 13.664"/><path fill="#fff" d="M239.871 28.03c-4.634 2.086-9.694-.298-10.757-.852.213.426 3.912 7.492 10.97 8.003 7.271.51 14.032-6.215 14.202-13.664.127-5.491-3.317-10.727-8.759-13.324 3.231 8.77 0 17.24-5.656 19.837"/><path fill="#000" d="M254.328 22.198c.042 2.895-1.106 5.79-2.722 8.13-1.616 2.342-3.997 4.257-6.76 5.194-2.764.936-5.911.851-8.717-.256-2.764-1.149-4.89-3.107-6.42-5.49-3.274-5.194-3.147-11.962.17-17.07 3.316-5.151 9.141-7.833 14.882-6.002 5.74 1.83 9.396 7.62 9.694 13.494 0 .723 0 1.447-.127 2.128-.043.213-.171.128-.171-.043-.042-1.362-.17-2.724-.51-4.044s-.85-2.511-1.531-3.66a13.65 13.65 0 0 0-5.74-5.236c-2.381-1.15-5.272-1.49-7.951-.852-2.636.639-4.975 2.171-6.761 4.172-1.785 2-2.976 4.342-3.359 6.939a12 12 0 0 0 0 3.49c.213 1.277.638 2.512 1.191 3.66 2.424 4.939 7.654 8.174 13.181 7.45 5.528-.724 9.652-5.023 10.97-10.088.17-.596.298-1.235.425-1.873.043-.213.17-.128.17.042z"/><path fill="#000" d="M234.805 20.112c.255 1.448.893 2.767 1.573 4.044a73 73 0 0 0 2.041 3.618c.425.681.85.724 1.275 0 1.276-2.511 2.594-4.937 4.125-7.321.765-1.15 1.531-2.299 2.381-3.448.978-1.32 2.211-2.852 1.913-4.555v.851c.085-.34.128-.638.213-.936 0-.17.042-.426-.085-.51-.298-.214-.595-.512-.978-.427-.255.086-.51.341-.68.511-.511.469-.978 1.022-1.403 1.575a55 55 0 0 0-2.552 3.619c-1.615 2.511-3.061 5.108-4.209 7.832l1.063-.34c-.723-1.022-1.446-2.044-2.126-3.065-.34-.469-.638-.937-.978-1.405-.298-.426-.553-.894-1.063-1.107-.468-.17-.468.851-.425 1.107zM225.244 28.583l-.51.384c-.17.127-.383.255-.595.383-.383.212-.766.425-1.106.638s-.723.383-1.105.596c-.383.213-.766.34-1.106.51-.042 0-.042-.127 0-.127.34-.298.638-.596 1.021-.851.382-.256.722-.511 1.105-.724s.765-.383 1.148-.553c.17-.085.34-.17.553-.213.212-.043.383-.17.595-.085v.085zM231.112 1.34c.213.256.34.553.468.809.128.255.255.596.425.894.298.638.596 1.32.681 2.043v.043a2.2 2.2 0 0 1-.511-.596c-.17-.256-.297-.596-.425-.894-.298-.639-.638-1.277-.808-1.958 0-.085 0-.511.17-.34M233.621 37.14c-.255.723-.51 1.404-.85 2.085-.17.34-.298.639-.468.98-.17.255-.34.51-.468.765v-.085c.085-.383.213-.766.34-1.107s.298-.68.426-1.021c.297-.596.595-1.15 1.02-1.66zM249.566.106s-.085.383-.17.596c-.042.17-.127.34-.212.553-.128.34-.255.681-.383 1.064-.213.681-.468 1.32-.723 2 0 .086-.042 0-.042-.042.127-.809.255-1.575.51-2.298.128-.341.255-.724.383-1.065.085-.17.127-.34.212-.468 0-.085.085-.17.128-.213 0-.042.085-.085.127-.17.085-.085.085.085.085.128zM224.053 17.048h-.552c-.17 0-.341 0-.511-.043-.382-.043-.722-.128-1.105-.213-.723-.17-1.361-.468-2.084-.681v-.085c.723.085 1.404.085 2.126.213.341.085.723.17 1.063.255.17.043.298.085.426.128.212.085.382.213.637.298.043 0 0 .17 0 .127M249.949 36.841c.34.596.637 1.235.935 1.873.298.639.553 1.363.68 2.044v.042c-.212-.213-.34-.51-.467-.766a8 8 0 0 1-.425-.851c-.298-.639-.596-1.235-.851-1.873-.042-.128-.042-.298 0-.383 0-.086.128-.17.17-.086zM260.791 12.365s-.085.255-.17.34c-.043.085-.128.128-.213.213-.17.128-.34.256-.51.34-.383.214-.765.384-1.148.554s-.765.34-1.19.51c-.426.171-.808.256-1.234.342v-.086c.341-.298.766-.51 1.148-.808.383-.256.766-.426 1.191-.639s.765-.34 1.148-.51c.17-.086.298-.129.468-.214.085 0 .17-.085.255-.085h.213v.043zM261.09 29.264c-.34-.043-.638-.17-.936-.298l-1.02-.383-1.021-.383c-.382-.128-.722-.34-1.105-.468v-.085h1.105c.341.042.681.127 1.021.212s.638.213.978.34c.383.171.723.341 1.02.554.085.085.128.511 0 .468z"/><mask id="b" width="364" height="245" x="6" y="62" maskUnits="userSpaceOnUse" style="mask-type:luminance"><path fill="#fff" d="M214.973 299.285c-99.187 23.326-191.67-9.096-206.566-72.417C-6.49 163.546 61.841 93.304 161.028 69.977c99.186-23.327 191.669 9.095 206.566 72.417 14.897 63.321-53.434 133.564-152.621 156.891"/></mask><g mask="url(#b)"><path fill="#fff" d="m99.811 215.921 1.871-6.427 2.296-5.321 4.337-6.173 9.1-5.448 8.716-3.406 7.228-3.66 2.254-2.555 2.169-6.725 1.105-8.641-1.19-8.812-4.125-6.172-4.124-4.512-1.403-8.343 6.122-17.708 29.382-9.45 15.732-8.216 2.296 11.408.68 4.853.51 8.471.256 12.217-1.404 10.173-.467 1.533-3.7 11.195-1.445 4.044-4.38 4.895-4.804 1.915-7.526-1.532-4.082 10.855-.893 2.171 2.849.127 13.521 5.492 8.461 6.598 3.912 5.789 1.701 4.299 4.592-2.043 8.972-8.471 1.7-2.597 3.189-9.194 2.254-3.448 5.357-6.045 2.807-5.874 1.871-1.064 11.948-2.256 3.826-4.257.298 1.617-.468 4.768-1.615 6.087.255 1.149-.808 5.321-1.616 3.576.17 2.171-.297 2.384-1.786 4.214-3.104 3.192-1.914 1.448-.722 4.384-1.361 7.918-1.616 11.365-2.168 13.494-3.444 11.451-3.402 6.172-2.594 4.001-1.701.767-4.251-1.788-8.632-6.045-7.271-6.768-3.231-3.278-.681 2.043.681 12.217 1.998 41.418-57.061 8.471-22.281-.255-2.296-24.136-.893-15.707-1.063-27.626 1.318-21.838m110.722-10.982-.298-.468-4.762 2.554-4.805 4.299-8.716 7.918.467 1.021 1.659 3.831-1.106 1.363 1.573 2.852 3.529 6.087.808.255 2.084-6.683 3.614-8.811 4.635-9.919 1.318-4.341z"/><path fill="#CDCDCC" d="M164.696 128.402s2.806 4.725 2.636 6.896S156.15 135 156.15 135l5.57-5.661 2.934-.937zM176.816 128.275l6.207 3.363-.255 6.257-.255 4.597s-2.636 20.348-10.63 14.473l1.659-.894 1.403-2.468.255-2.938-.766-4.256-1.275-3.363-.893-3.874-.17-2.469.298-2.384 1.318-2.979 1.743-2.469 1.403-.554zM141.65 153.56s-1.658 30.393 2.764 35.884c6.081 7.492 9.355 4.853 9.355 4.853l.467 1.405-1.786 1.021-3.954 2.171-6.038-1.277-4.677-3.022-3.742-5.108-1.53-3.108.85-1.149 2.254-2.384 2.168-6.598 1.233-5.959-.297-6.641-1.233-10.514 4.166.469zM107.126 200.256s-1.446 22.433 6.378 29.414 9.397 8.003 9.397 8.003l1.275-3.107 13.181 13.025s5.315 6.258 16.413-1.575c11.055-7.832 33.208-24.817 36.099-28.094 2.892-3.278 15.988-13.92 19.049-15.197s13.947-4.81 15.18-6.044l-3.487 3.192-5.017 2.043-7.569 3.363-3.699 2.682-8.121 7.024-6.506 6.129-11.225 10.6-10.502 10.003-10.8 8.258-6.761 4.427-4.89 2.852h-1.998l-3.912-2.426-10.417-6.683-8.419-3.065-6.293-6.556s-2.679 12.898 4.804 17.41c0 0-8.461 3.363-3.274 16.134 5.188 12.77 38.608 15.92 47.155 13.536 8.546-2.384 17.263-10.301 17.263-10.301l2.594 33.67-30.062-1.277-51.576-.468-.425-18.687-1.234-17.027-1.998-27.584 2.466-30.818 3.954-9.876 2.934-2.98zM231.283 163.691l-1.275 2.171-.936 2.086s.128 6.214-1.615 11.791l1.615-2.639s-1.785 10.216-3.614 12.174l1.829-2.469a25.4 25.4 0 0 1-1.829 7.279h.638l1.446-4.129v-1.107l-.213-2.554 1.318-2.384 1.148-4.81-.127-2.341-.298-.681 1.276-4.129.85-4.086v-3.236l-.298-.894zM214.657 170.842s.978.511.936 1.49c-.043.979-1.871 6.172-2.211 7.364s-.723 5.789.595 5.023 1.148-3.022 1.148-3.022l2.594-8.003-1.106-3.363-1.998.511z"/><path fill="#CDCDCC" d="m188.593 223.03.851 2.383-1.744.852s4.04 15.367 6.591 18.772 10.035 8.641 13.904-1.745c3.869-10.387 9.524-40.865 10.885-42.781s1.191-.681 1.191-.681v1.405l-1.786 10.301-1.488 10.217-1.149 8.768-.935 4.981-1.616 6.938-2.508 6.811-3.615 6.258-3.911 3.958-5.485-2.639-9.44-7.023-8.886-8.982-.383-9.152 9.439-8.599z"/><path fill="#00AF1A" d="m132.51 185.996 1.063 2.341 3.146 4.598 3.785 3.277 2.891 1.448 5.698.766 3.486-1.362 1.318-1.405.17-2.554s4.337-.298 3.742 4.044-2.509 5.619-2.509 5.619l-4.677 1.575-4.039-.298-4.039-1.235-3.445-2.171-1.998-1.745-3.019-3.278-2.466-3.448-2.466-4.299z"/><path fill="#000" d="M133.786 101.968s3.189-6.513 9.737-9.535 11.948-1.916 20.452 0 14.414 1.447 20.111.298 8.164 4.001 8.207 9.833c.042 5.832-6.038 12.813-11.948 13.834-5.911 1.022-7.144 2.554-15.137 1.448-7.994-1.107-13.309 1.106-15.307 1.149l.807 10.046s-8.291 1.064-5.527 16.048c0 0-2.339.17-3.189 1.149 0 0-2.636-7.705-9.227-5.108-6.59 2.597-.298 11.451 4.167 11.493h4.805l-.085.894h-3.402s2.169 10.472.51 13.494c0 0-2.168-9.407-6.718-15.239s-6.845-12.472-9.014-17.07c-2.168-4.597-8.461-16.473 2.849-24.689 0 0 1.318-2.852 3.869-4.086 0 0-2.338-.213-4.89 2.171 0 0 1.106-3.15 7.229-3.916 0 0-.893-2.044-5.74-.384 0 0 2.636-3.49 6.463-1.404 0 0 .382-6.854 6.037-10.344 0 0-4.124 3.959-5.017 9.833"/><path fill="#000" d="M181.705 114.312c2.679 15.623 2.934 38.056-4.422 52.401-2.466 4.725-6.931 9.918-12.798 9.365a14.6 14.6 0 0 1-4.04-1.107 18.9 18.9 0 0 1-6.293-4.001c-1.148-1.107-2.126-2.384-2.848-3.831-.085-.128 0-.298.127-.341.128-.085.298 0 .34.128.468.723.978 1.404 1.574 2.043a18.7 18.7 0 0 0 8.163 4.895l.638.17c3.189 1.022 6.633.128 9.142-2 8.929-7.875 10.885-25.158 11.225-36.523.17-7.024-.297-14.09-1.403-21.028 0-.171.085-.341.255-.383.17-.043.34.085.383.255M132.381 145.685c.298-1.745 2.467-2.341 3.955-1.703 1.828.639 3.571 2.512 3.146 4.555-.765-1.277-1.871-2.256-3.231-2.895-1.318-.681-2.551-.936-3.912.043"/><path fill="#000" d="M159.085 154.411c.34 2.341.808 4.853 2.211 6.811.851 1.149 1.488 2.001 2.892 2.767v.17a3.45 3.45 0 0 1-3.189-.766c-.893-.724-1.234-1.831-1.574-2.852-.297-.979-.467-2.001-.552-3.065-.086-1.022-.043-2.043.042-3.022h.17zM182.768 130.02s-2.467-2.043-4.593-2.427c-2.04-.34-3.061.767-1.233 1.873 1.829 1.107 5.188 1.873 5.826 3.065v-2.554zM162.273 128.147s1.955-.638 2.466.298c.51.937-.255 1.575-1.744 2.256s-4.039 1.958-5.91 4.172-1.105-4.087 5.188-6.726M164.143 143.854c-.382 1.107-1.105 2.044-1.658 2.044s-.723-.894-.34-2.044 1.105-2.043 1.658-2.043.723.894.34 2.043M179.111 143.514c-.34 1.064-1.02 1.915-1.573 1.915s-.68-.851-.34-1.915 1.02-1.916 1.573-1.916.68.851.34 1.916"/><path fill="#000" d="M176.475 127.934c-1.531 2.086-3.529 4.087-3.912 6.726a12.3 12.3 0 0 0 .383 5.832c.085.34.34 1.106.425 1.404 1.233 3.235 2.721 6.726 2.339 10.344-.17 2.171-1.616 4.172-3.742 4.725-.128 0-.298-.042-.34-.17 0-.128 0-.255.17-.298 4.124-1.618 3.231-6.641 2.296-10.088-.68-2.555-1.871-5.066-2.169-7.748-.255-2.724.213-5.576 1.786-7.832.766-1.107 1.574-2.256 2.722-2.98h.085v.043M138.547 155.646c1.361 8.598 1.531 19.07-2.594 26.945a21.3 21.3 0 0 1-2.253 3.277c-.128.171-.383.171-.553 0a.32.32 0 0 1 0-.51c4.847-6.088 5.4-14.388 5.187-21.88a78 78 0 0 0-.765-7.662c-.042-.298.128-.554.425-.596.298-.043.553.128.596.426M159.466 174.332a50.1 50.1 0 0 0-4.677 15.793c-.255 1.83-.383 3.703-.511 5.576 0 .085-.085.171-.212.171-.085 0-.17-.086-.17-.171 0-.468-.085-.936-.085-1.404-.298-5.236.467-10.429 2.296-15.325a26.2 26.2 0 0 1 2.509-5.15c.17-.256.467-.298.722-.128.213.17.298.468.17.681"/><path fill="#000" d="M151.558 167.054s-5.825 8.811 4.592 12.387l2.551-5.364zM133.488 188.039c3.146 5.023 8.078 10.089 14.456 9.833 2.041-.085 3.997-.851 5.826-1.788a10.4 10.4 0 0 1-2.637 1.831c-5.612 2.894-10.715-.128-14.371-4.512a26 26 0 0 1-3.444-5.321v-.085h.085"/><path fill="#000" d="M130.978 190.892c4.125 6.342 10.375 12.94 18.496 12.6 2.211-.043 4.593-.384 6.251-2.001 1.658-1.66 2.041-4.172 1.743-6.428 1.063 3.235.128 7.024-3.104 8.641-2.253 1.192-4.89 1.192-7.313.852-7.059-.937-13.096-7.62-16.073-13.622"/><path fill="#000" d="M100.407 281.092c-.978-10.77-2.593-30.181-2.806-40.993-.17-11.365.425-23.752 3.912-34.054 1.956-4.98 6.037-9.152 10.587-11.833a37 37 0 0 1 3.147-1.618c.935-.426 2.296-.894 3.274-1.277a57 57 0 0 0 6.378-2.299c2.593-1.021 5.102-2.213 7.568-3.533a7 7 0 0 0 1.361-.936c.17-.128.382-.128.51 0 .127.17.127.383 0 .511-.468.383-.936.723-1.446 1.021-3.444 2.001-7.016 3.661-10.63 5.321a37 37 0 0 0-4.592 2.086c-.85.426-2.083 1.149-2.891 1.66l-1.403.894-1.361.937-1.318 1.021a23.8 23.8 0 0 0-5.91 6.641c-.681 1.149-1.148 2.383-1.488 3.66-3.827 12.813-3.785 26.477-3.445 39.758.298 8.046 3.274 50.358 4.167 58.318.043.34-.212.638-.552.681-.341 0-.638-.17-.681-.511"/><path fill="#000" d="M122.815 209.067a73 73 0 0 0 10.035 11.409c4.932 4.341 9.695 8.939 13.861 14.047a.48.48 0 0 1-.085.681c-.212.17-.467.128-.68-.043-4.464-4.767-9.184-9.322-13.989-13.792-3.657-3.618-6.973-7.619-9.397-12.174 0-.085 0-.17.043-.17s.127 0 .17.042"/><path fill="#000" d="M141.439 246.442c-.043-.979 0-1.916.255-2.852a15.5 15.5 0 0 1 1.488-4.044c2.424-4.725 6.378-8.471 10.545-11.706.468-.341 2.509-1.788 2.934-2.086 1.105-.724 2.551-1.575 3.657-2.299 3.061-1.745 6.335-3.49 9.397-5.108a171 171 0 0 0 21.302-13.877c1.871-1.447 3.657-2.979 5.315-4.682 1.275-1.362 2.551-2.767 3.359-4.47.765-1.702 1.488-3.49 2.211-5.193a47 47 0 0 0 1.956-5.321h.042c-.085.937-.212 1.916-.467 2.852-.34 1.405-.681 2.81-1.148 4.172a26 26 0 0 1-2.424 4.852c-3.657 4.598-8.079 8.471-12.713 12.09a145.4 145.4 0 0 1-17.986 11.578c-2.722 1.447-5.443 2.895-8.122 4.427-.85.511-2.125 1.32-3.018 1.83-.851.511-2.637 1.831-3.487 2.384-.935.681-1.871 1.447-2.806 2.129l-.298.212-.255.213c-.51.468-1.573 1.405-2.084 1.873-.467.511-1.488 1.533-1.955 2.001l-.893 1.064a36 36 0 0 0-1.914 2.511l-.17.298-.34.596c-.85 1.405-1.531 2.895-1.956 4.513-.17.681-.298 1.404-.298 2.085v.043M102.745 219.113s2.934 8.471 8.759 14.303 9.993 9.535 9.993 9.535l1.233-1.064 8.249 6.853-2.637 3.448s-9.439-6.513-13.138-10.557c-7.866-8.683-12.544-18.687-12.459-22.475"/><path fill="#000" d="M121.496 243.079c.553-2.213.978-4.384 1.786-6.513 2.253-5.917 6.123-9.577 12.628-10.088a31 31 0 0 1 3.444-.043c.341 0 .638.298.638.681 0 .341-.297.639-.68.639h-.17c-1.021-.256-2.084-.341-3.104-.171a11.64 11.64 0 0 0-5.698 2.342c-3.316 2.511-7.611 9.067-7.526 13.323 0 .383-.255.681-.595.724-.383 0-.68-.255-.723-.596v-.213M107.422 235.928c1.701 3.916 4.762 8.556 9.524 8.641q.957 0 1.914-.256a.843.843 0 0 1 1.02.469v.085c.085.425-.17.851-.595.936h-.043c-4.719.979-8.461-2.213-10.502-6.13-.638-1.191-1.191-2.426-1.573-3.66 0-.085 0-.171.085-.213.085 0 .17 0 .212.085M201.859 192.211c1.191-1.915 1.191-5.108 2.509-7.109 3.189-3.277 6.463-6.47 8.547-10.599.595-1.022 1.063-2.299 1.87-3.193 1.021-1.106 1.701.894 1.829 1.661.297 1.873-.638 3.064-1.488 4.597-.978 1.873-1.574 3.916-1.829 6.002 0 .17-.085 1.49.425 1.234 7.654-4.214 14.457-11.408 16.626-19.921-3.529 6.725-9.1 14.345-16.753 18.048l.425 1.235c.043-3.618 2.849-6.3 3.274-9.748.085-1.405-.085-3.831-1.361-4.725-1.828-.979-3.146 3.874-4.166 4.98-1.063 1.831-2.339 3.576-3.742 5.194-1.616 1.745-3.784 3.15-4.72 5.406-.808 2.511-.808 4.682-1.956 6.172-.68.894-.297 2.001.425.809M231.283 163.691c.765 7.79-3.444 14.558-6.506 21.369 3.529-3.661 6.08-10.387 6.888-15.836.255-.468.17-6.64-.382-5.533"/><path fill="#000" d="M229.709 175.61c-.042 5.746-1.786 9.663-4.762 14.345 3.657-2.426 5.995-10.642 4.762-14.345"/><path fill="#000" d="M227.455 186.677c.341 10.344-9.992 13.877-17.9 17.07-2.297 1.064-4.89 2.384-6.208 4.64.127.638 2.381-1.277 2.891-1.49 3.232-2.043 6.931-3.065 10.375-4.555 6.208-2.256 12.883-8.726 10.842-15.665M216.486 161.094c-.085-2.085.851-5.023 3.444-5.448 3.062-.979 6.166-1.831 9.27-2.725 1.658-.808 1.743 1.916 1.573 2.895-.298 8.216-.085 10.046-4.337 16.729 0 0-5.613 9.237-11.906 11.323-2.721.936 1.658-5.789 1.999-7.449 1.105-1.958.722-4.981-.978-6.215.595-4.002.85-6.939.978-9.152"/><path fill="#fff" d="M224.863 164.585c.766 0 .553 2.894-.212 2.767-.766 0-.553-2.895.212-2.767M225.116 161.222c.553 0 .383 2.043-.127 1.958-.553 0-.383-2.043.127-1.958M218.315 159.689c-.383 3.193-.723 6.811-.553 9.791.213-3.193.595-6.811.595-9.791zM221.121 157.093c2.721-1.064 5.612-1.831 8.291-2.852-2.806.511-5.953 1.49-8.291 2.852"/><path fill="#000" d="M125.196 244.611c4.465 2.937 9.014 6.002 13.521 8.812 1.659 1.021 3.444 2.171 5.145 3.15.383.255.723.213 1.191.042.935-.34 1.871-.766 2.721-1.319 6.803-4.342 13.266-9.195 19.602-14.175 3.316-2.682 6.463-5.619 9.567-8.556 7.398-7.024 16.115-15.495 23.683-22.263 1.701-1.447 3.317-3.022 5.23-4.172l.425.852-.34.213c-3.316 2.554-6.25 5.533-9.312 8.385-6.25 6.002-12.415 12.089-18.666 18.091a262 262 0 0 1-7.143 6.641c-4.125 3.533-8.547 6.683-13.011 9.748-2.679 1.83-5.358 3.661-8.122 5.406-1.615.979-3.231 2.128-5.144 2.469-.851.085-1.616-.553-2.296-.894l-1.404-.809a88 88 0 0 1-10.715-7.321c-1.7-1.32-3.401-2.64-5.102-4.002l.213-.255zM220.61 199.873c-1.615 10.429-3.104 20.816-4.294 31.33-1.148 7.832-3.359 15.58-7.314 22.475-1.36 2.214-3.019 4.555-5.23 5.875-.17.085-.382.127-.552.127-1.148-.085-2.169-.638-3.189-1.106-7.781-4.3-14.414-10.472-20.41-16.985a.72.72 0 0 1 .043-.979.72.72 0 0 1 .978.043 78 78 0 0 0 5.187 5.449c3.529 3.533 7.441 6.683 11.608 9.492 1.828 1.107 3.614 2.384 5.698 2.809h.17c-.128 0-.213.086-.298.171 2.084-1.235 3.657-3.448 4.932-5.534 4.465-7.832 6.719-16.942 7.739-25.881.85-6.513 1.956-13.111 3.146-19.538.213-1.107.936-4.725 1.148-5.832l.426-1.916s.085-.127.17-.127.127.085.127.17"/><path fill="#000" d="M197.99 245.675c-1.531-2.937-.595-7.832.085-10.982 1.063-4.512 2.636-8.854 4.635-13.026 1.913-4.171 4.209-8.173 6.08-12.387a22 22 0 0 0 1.658-5.236h.298c-.042.511-.085.979-.17 1.448a34 34 0 0 1-1.148 4.044c-1.871 4.98-4.762 10.216-6.761 15.111a71.4 71.4 0 0 0-3.444 10.301c-.723 2.81-1.36 5.704-1.275 8.599 0 .638.127 1.32.34 1.916l-.255.212z"/><path fill="#000" d="m192.675 224.349 5.612 10.046-.255.128-6.123-9.748.808-.426zM191.995 219.071c.468.809.893 1.66 1.276 2.511.382.852.595 1.788 1.02 2.597l-.255.128c-.51-.809-.808-1.703-1.318-2.512a21.5 21.5 0 0 0-1.531-2.298l.808-.469zM155.81 186.507c8.845 1.788 20.325 5.746 25.215 13.877 1.36 2.469 3.231 6.172 4.549 8.684l-.85.468a212 212 0 0 1-4.337-7.45c-2.764-5.108-8.164-8.343-13.394-10.684-3.699-1.575-7.441-2.937-11.225-4.597v-.298zM179.749 231.33c1.02 15.452 1.828 34.225 2.296 49.677.127 5.15 1.828 18.814 1.743 24.008 0 .085-1.786-11.664-1.871-11.664.17 3.703 0 1.533 0 1.447-.595-5.15-1.276-11.918-1.658-17.027-.723-8.896-1.106-18.091-1.361-27.03-.17-6.428-.255-12.898-.085-19.325 0-.256.213-.469.468-.511.255 0 .468.17.468.425M172.69 210.217a90 90 0 0 1 2.849 5.278l-.85.383a128 128 0 0 0-2.041-5.661h.085zM175.029 208.982a97 97 0 0 1 1.233 5.875l-.638.085c-.17-2.001-.383-4.001-.638-5.96h.085z"/><path fill="#000" d="M180.174 230.607c2.892-2.128 10.248-7.662 13.777-6.683.212.085.34.34.255.553v.085l-1.318 2.044s-.298.042-.298-.128l-.34-2.81 1.02 2.257c-2.083-.767-7.526 2-9.609 3.064a127 127 0 0 0-3.317 1.831c-.17.127-.34-.128-.17-.256"/></g><path fill="#000" d="M241.19 90.476c-15.734 0-28.489-7.376-28.489-16.474S225.456 57.53 241.19 57.53s28.488 7.375 28.488 16.473c0 9.099-12.755 16.474-28.488 16.474"/><path fill="#000" d="M232.005 69.746c.213 3.746 3.445 6.598 7.186 6.385.511 0 1.021-.085 1.531-.128a68 68 0 0 0 5.315-.596c3.359-.468 5.825-3.49 5.74-6.895v-.81c0-.382-.042-.808-.042-1.191-.128-3.49-2.892-6.3-6.378-6.513-.383 0-.808-.042-1.191-.042 0 0-2.636-.17-6.038.085h-.085c-3.614.255-6.335 3.448-6.165 7.108 0 .511.042 1.065.085 1.618v1.022z"/><path fill="#000" d="M232.941 60.083c.256 2.427.851 4.81 1.914 6.981.51 1.065 1.148 2.044 1.828 3.023.681.894 1.488 1.83 2.509 2.213 2.211.852 4.507-1.234 5.868-2.767a13 13 0 0 0 2.338-3.83v-.171a15.04 15.04 0 0 0 1.829-6.896c0-.809 0-1.618-.043-2.426h-.468a229 229 0 0 0-7.653 0c-2.509.042-4.933.17-7.314.34-.297 0-.637 0-.935.043a24 24 0 0 0 0 3.49z"/><path fill="#fff" d="M247.399 64.808c-.383.681-1.999 3.831-5.188 5.491-.723.383-1.488.681-2.296.639-1.276-.085-2.254-1.022-3.019-1.958-3.912-4.853-4.975-11.579-2.849-17.368.596-1.532 1.446-3.107 2.892-4.001.425-.256.85-.468 1.318-.639.85-.34 1.786-.553 2.721-.553 2.296 0 4.89 1.916 6.293 3.916 1.658 2.341 1.786 4.64 1.871 6.343.042.979.17 4.384-1.829 8.173z"/><path fill="#fff" d="M241.997 87.369c5.57-.213 10.034-1.49 13.011-2.64a30.2 30.2 0 0 0-3.869-11.833 29.2 29.2 0 0 0-4.295-5.704c.213 5.49-3.742 9.11-6.633 8.854-2.679-.256-5.74-4.044-5.187-8.982-1.149 1.447-2.467 2.597-4.635 5.917-1.361 2.043-2.636 4.597-4.295 9.833 0 0 3.997 4.725 15.86 4.555z"/><path fill="#fff" d="M244.081 63.957c-2.976.127-4.889-3.023-5.655-4.3-2.849-4.725-1.19-10.13-.723-11.493-2.211 1.958-3.189 3.959-3.699 5.108-2.508 6.13.553 11.834 2.169 14.771.425.766 1.105 1.745 2.296 2.554.935.639 2.126.98 3.231.681.425-.128.978-.255 1.871-.936 1.488-1.107 2.424-2.47 3.147-3.789.765-1.362 1.743-3.533 2.296-6.47-.085.213-1.829 3.703-4.89 3.874z"/><path fill="#000" d="M232.898 56.593c.085-1.235.298-2.427.638-3.661.637-2.299 1.573-4.64 3.656-5.832s4.635-1.447 6.804-.128a10.86 10.86 0 0 1 4.549 5.662c.383 1.15.638 2.34.723 3.533.043.809.085 1.617.043 2.426a15.74 15.74 0 0 1-1.829 6.896v.213a13 13 0 0 1-2.338 3.831c-1.361 1.532-3.657 3.618-5.868 2.767-1.063-.383-1.871-1.32-2.509-2.214-.723-.936-1.318-1.958-1.828-3.022a20.1 20.1 0 0 1-1.914-6.981 16 16 0 0 1 0-3.49zm2.168 8.258c.766 1.787 1.871 3.873 3.444 5.065 2.041 1.575 4.593-.128 6.166-1.617 1.02-.98 1.828-2.044 2.551-3.193 0-.043.043-.085.085-.043 1.233-2.724 1.871-5.874 1.488-8.896a16 16 0 0 0-.212-1.405c-.511-2.213-1.871-4.086-3.7-5.406-.807-.596-1.7-1.064-2.636-1.277-1.063-.255-2.211-.043-3.274.298-2.211.724-3.486 2.341-4.252 4.512a15.8 15.8 0 0 0-.85 3.66c-.085.767-.085 1.533-.085 2.3.042 2.043.51 4.129 1.318 6.002z"/><path fill="#fff" d="M240.085 81.708c-3.062-.341-4.72-3.917-5.145-4.896-2.041-4.384-.383-8.683 0-9.663 0 .852 0 2.214.553 3.746.297.852 1.701 4.725 4.634 5.066 3.189.383 5.485-3.704 5.698-4.13.978-1.83 1.063-3.617 1.021-4.597.425.98 1.785 4.215.595 7.876-1.021 3.107-3.997 6.938-7.399 6.555z"/></g><defs><clipPath id="a"><path fill="#fff" d="M376 0H0v308h376z"/></clipPath></defs></svg>