<svg xmlns="http://www.w3.org/2000/svg" width="64" height="64" fill="none" viewBox="0 0 64 64"><g clip-path="url(#a)"><path fill="#1C3531" d="M31.037 57.224a.517.517 0 0 1-.29-.946l10.962-7.387-14.142 8.163a.517.517 0 0 1-.543-.877l13.694-9.034-16.31 9.417a.517.517 0 0 1-.532-.885l7.301-4.57-8.624 4.978a.517.517 0 0 1-.535-.884l13.242-8.4-14.827 8.56a.516.516 0 1 1-.528-.89l2.433-1.488-3.185 1.839a.517.517 0 0 1-.53-.886l10.967-6.818-12.017 6.934a.517.517 0 0 1-.527-.887l4.923-3.01-5.59 3.227a.517.517 0 0 1-.53-.887l11.663-7.216-12.503 7.22a.516.516 0 0 1-.532-.886l13.312-8.244-14.112 8.146a.517.517 0 0 1-.532-.884l16.908-10.54L12.28 50.35a.517.517 0 0 1-.534-.884L32.723 36.25l-21.94 12.664a.518.518 0 0 1-.527-.89l4.634-2.812-4.905 2.831a.517.517 0 1 1-.53-.887l15.06-9.3-15.529 8.97a.517.517 0 0 1-.534-.884l22.46-14.146L7.778 45.152a.517.517 0 1 1-.53-.888l15.156-9.342L6.96 43.837a.517.517 0 0 1-.532-.886l19.087-11.883L6.117 42.272a.517.517 0 0 1-.53-.886l18.63-11.59L5.383 40.673a.517.517 0 1 1-.529-.888l15.423-9.524L4.82 39.184a.517.517 0 0 1-.531-.886l16.07-9.948-16.035 9.254a.517.517 0 0 1-.53-.887l13.194-8.13-13.037 7.528a.517.517 0 1 1-.53-.888l11.834-7.282-11.587 6.689a.516.516 0 0 1-.527-.888l6.246-3.814-5.89 3.404a.517.517 0 0 1-.53-.885l15.19-9.468-14.804 8.542a.517.517 0 0 1-.534-.884l16.208-10.189-15.684 9.054a.516.516 0 0 1-.535-.883l15.788-9.98-15.105 8.721a.517.517 0 1 1-.534-.884l14.045-8.893-13.18 7.608a.517.517 0 0 1-.533-.884l8.832-5.533-7.861 4.54a.517.517 0 1 1-.542-.88l13.873-9.04-12.425 7.174a.517.517 0 1 1-.534-.884l5.086-3.214-3.694 2.132a.516.516 0 0 1-.545-.878l8.853-5.873-6.649 3.84a.516.516 0 0 1-.54-.88l2.567-1.68-.264.152a.516.516 0 0 1-.564-.864l4.373-3.203a.517.517 0 0 1-.089-.93l6.423-3.709a.517.517 0 0 1 .564.864L17.1 7.673l8.118-4.686a.517.517 0 0 1 .54.88l-2.566 1.68 5.005-2.894a.516.516 0 0 1 .544.878l-8.853 5.878L31.524 2.69a.517.517 0 0 1 .536.884l-5.103 3.225 6.717-3.878a.517.517 0 0 1 .541.88l-13.859 9.03 16.151-9.324a.517.517 0 0 1 .532.884l-8.85 5.544 10.16-5.868a.517.517 0 0 1 .534.883l-14.046 8.9 15.559-8.984a.517.517 0 1 1 .535.884l-15.775 9.97 17.175-9.915a.517.517 0 0 1 .533.883L26.65 16.88 44.064 6.828a.517.517 0 0 1 .532.884l-15.179 9.464 16.147-9.323a.517.517 0 0 1 .528.888l-6.267 3.823 6.773-3.91a.517.517 0 0 1 .529.887l-11.82 7.276 12.432-7.176a.517.517 0 0 1 .53.886l-13.202 8.138 13.777-7.957a.517.517 0 0 1 .531.886L33.31 21.54l16.647-9.61a.517.517 0 1 1 .53.887L35.05 22.357l15.913-9.188a.517.517 0 0 1 .53.886L32.87 25.635l19.116-11.04a.517.517 0 1 1 .533.887L33.452 27.35 52.92 16.11a.517.517 0 1 1 .53.887L38.27 26.352l15.38-8.879a.516.516 0 0 1 .534.884L31.732 32.5l22.774-13.148a.517.517 0 0 1 .529.886l-15.066 9.3 15.087-8.707a.517.517 0 0 1 .527.888l-4.603 2.79 4.43-2.555a.517.517 0 0 1 .533.883L34.95 36.065l20.966-12.104a.516.516 0 0 1 .531.884L39.548 35.377l16.67-9.62a.516.516 0 0 1 .53.886l-13.33 8.254 12.973-7.488a.517.517 0 0 1 .529.885L45.26 35.51l11.207-6.47a.517.517 0 0 1 .528.888l-4.896 2.997 4.358-2.514a.516.516 0 1 1 .53.886L46.02 38.111l10.318-5.956a.516.516 0 0 1 .528.887L54.42 34.54l1.744-1.006a.517.517 0 0 1 .535.883l-13.235 8.4 12.268-7.082a.517.517 0 0 1 .534.886l-7.3 4.568 6.259-3.616a.517.517 0 0 1 .543.877l-13.696 9.039 11.996-6.924a.517.517 0 0 1 .546.876l-10.96 7.384 8.635-4.985a.517.517 0 0 1 .543.878l-3.881 2.562 1.472-.846a.516.516 0 0 1 .565.863l-4.46 3.287a.517.517 0 0 1 .104.942l-6.423 3.708a.516.516 0 0 1-.565-.862l3.276-2.415-8.46 4.883a.516.516 0 0 1-.542-.877l3.874-2.557-6.503 3.755a.5.5 0 0 1-.253.064"/><path fill="#EAF2F2" d="M30.978 53.087a.516.516 0 0 1-.294-.942l9.44-6.539L27.51 52.89a.517.517 0 0 1-.543-.878l10.23-6.765-12.4 7.159a.517.517 0 0 1-.543-.879l12.88-8.471-14.865 8.583a.516.516 0 0 1-.536-.882l11.176-7.143-12.515 7.227a.517.517 0 0 1-.54-.88l16.058-10.437-17.622 10.17a.516.516 0 0 1-.53-.887l3.772-2.325-4.33 2.501a.516.516 0 1 1-.535-.884l12.55-7.9-13.405 7.737a.517.517 0 0 1-.53-.886l4.377-2.684-4.787 2.763a.517.517 0 0 1-.53-.886l4.754-2.922-5.109 2.949a.516.516 0 1 1-.531-.887l10.54-6.55-11.005 6.354a.517.517 0 0 1-.531-.886l11.257-7-11.663 6.731a.517.517 0 0 1-.527-.888l4.696-2.877-4.856 2.804a.516.516 0 0 1-.529-.886l5.87-3.603-5.993 3.462a.517.517 0 1 1-.536-.884l17.008-10.774L9.81 40.42a.517.517 0 0 1-.53-.887l9.49-5.87-9.536 5.505a.517.517 0 1 1-.53-.887l8.125-5.012-8.074 4.66a.517.517 0 0 1-.536-.882L26.406 25.41 8.159 35.943a.517.517 0 1 1-.528-.89l1.913-1.17-1.64.947a.52.52 0 0 1-.71-.175.517.517 0 0 1 .176-.71l14.371-9.093-14.13 8.157a.517.517 0 0 1-.528-.889l1.169-.715-.744.429a.516.516 0 0 1-.531-.886l5.534-3.425-5.053 2.916a.517.517 0 0 1-.533-.884l9.879-6.221-9.28 5.355a.517.517 0 0 1-.542-.879l14.602-9.547-13.743 7.935a.517.517 0 0 1-.542-.88l12.26-8.043L8.45 23.688a.516.516 0 0 1-.547-.874l11.517-7.786-9.805 5.661a.517.517 0 0 1-.552-.873l8.196-5.65-5.836 3.369a.517.517 0 0 1-.58-.85l5.072-4.041a.516.516 0 0 1-.441-.93l5.875-3.39a.517.517 0 0 1 .58.85l-5.03 4.008 11.013-6.359a.517.517 0 0 1 .552.873l-8.19 5.647 11.271-6.51a.517.517 0 0 1 .548.874l-11.52 7.79 14.15-8.17a.517.517 0 0 1 .541.88L23 16.253 37.213 8.05a.517.517 0 0 1 .542.88l-14.601 9.543 16.38-9.456a.517.517 0 0 1 .534.884l-9.874 6.219L41.07 9.841a.517.517 0 0 1 .53.885l-5.54 3.432 6.192-3.576a.517.517 0 0 1 .528.888l-1.162.712 1.595-.92a.517.517 0 0 1 .534.883l-14.364 9.094 15.27-8.815a.517.517 0 0 1 .528.888l-1.907 1.165 2.214-1.277a.517.517 0 0 1 .538.881L27.834 25.72l19.065-11.01a.517.517 0 0 1 .53.886l-8.125 5.02 8.432-4.868a.517.517 0 0 1 .53.886L38.783 22.5l9.752-5.63a.516.516 0 0 1 .535.884L32.05 28.529l17.454-10.076a.517.517 0 0 1 .528.887l-5.854 3.593 5.89-3.399a.517.517 0 0 1 .527.888l-4.717 2.893 4.68-2.702a.517.517 0 0 1 .532.886L39.82 28.5 51.084 22a.517.517 0 0 1 .53.885l-10.53 6.546 10.436-6.026a.517.517 0 0 1 .529.887l-4.769 2.928 4.535-2.617a.517.517 0 0 1 .53.886l-4.353 2.676 4.057-2.34a.517.517 0 0 1 .533.883l-12.546 7.9 12.22-7.055a.517.517 0 0 1 .53.886l-3.796 2.34 3.334-1.927a.516.516 0 0 1 .54.88L36.807 40.168l15.46-8.925a.517.517 0 0 1 .537.881l-11.171 7.143 10.385-5.994a.517.517 0 0 1 .542.879l-12.884 8.473 11.752-6.785a.517.517 0 0 1 .542.878l-10.222 6.76 8.75-5.053a.517.517 0 0 1 .554.872l-9.446 6.542 7.141-4.123a.517.517 0 0 1 .567.861l-5.701 4.237 1.79-1.033a.516.516 0 1 1 .517.894l-9.53 5.503a.517.517 0 0 1-.567-.862l5.706-4.236-10.293 5.941a.5.5 0 0 1-.258.066"/><path fill="#1C3531" d="M29.12 33.384a.517.517 0 0 1-.388-.858l1.55-1.771-2.552 1.473a.517.517 0 0 1-.628-.807l1.632-1.676-1.625.938a.516.516 0 0 1-.662-.768l1.058-1.326a.516.516 0 0 1-.332-.958l2.118-1.224a.517.517 0 0 1 .663.77l-.994 1.24 2.494-1.44a.517.517 0 0 1 .628.808L30.45 29.46l2.033-1.166a.517.517 0 0 1 .647.789l-1.55 1.771 1.034-.593a.516.516 0 1 1 .516.894l-3.747 2.155a.5.5 0 0 1-.262.074"/><path fill="#17D87A" d="M49.025 63.435a.517.517 0 0 1-.301-.936l4.34-3.108-6.592 3.805a.516.516 0 0 1-.547-.875l4.34-2.94-5.795 3.348a.516.516 0 0 1-.553-.872L52.3 56.05l-10.038 5.794a.516.516 0 0 1-.539-.88l3.867-2.503-4.592 2.652a.516.516 0 0 1-.543-.878l7.516-4.96-8.358 4.829a.517.517 0 0 1-.547-.876l10.364-6.964-11.252 6.493a.517.517 0 0 1-.549-.875l11.6-7.846L36.89 57.16a.517.517 0 0 1-.54-.882l7.293-4.721-7.527 4.34a.517.517 0 0 1-.54-.88L43.296 50l-7.852 4.536a.516.516 0 0 1-.547-.875L46.3 45.948 34.79 52.592a.517.517 0 0 1-.548-.874l10.874-7.393-10.704 6.178a.517.517 0 0 1-.534-.883l.343-.216a.517.517 0 0 1-.435-.924l8.602-5.858-7.957 4.594a.516.516 0 0 1-.544-.878l3.874-2.556-3.022 1.746a.517.517 0 0 1-.551-.874l4.828-3.306-3.596 2.076a.516.516 0 1 1-.548-.877l1.227-.826a.5.5 0 0 1-.487-.22.517.517 0 0 1 .097-.692l3.326-2.732a.517.517 0 0 1-.206-.962l4.688-2.707a.517.517 0 0 1 .586.847l-2.88 2.365 6.926-4a.516.516 0 0 1 .547.876l-.723.486 2.15-1.24a.517.517 0 0 1 .55.874l-4.823 3.306 6.442-3.72a.517.517 0 0 1 .543.879l-3.867 2.55 4.942-2.853a.517.517 0 0 1 .55.873l-8.604 5.859 9.95-5.743a.516.516 0 0 1 .535.883l-.04.027.464-.267a.517.517 0 0 1 .549.875l-10.873 7.392 11.938-6.892a.517.517 0 0 1 .548.875l-11.404 7.709 12.208-7.05a.517.517 0 0 1 .54.88l-7.733 5.027 8.049-4.65a.517.517 0 0 1 .539.881l-7.285 4.718 7.44-4.297a.517.517 0 0 1 .548.874l-11.594 7.851 11.794-6.81a.517.517 0 0 1 .547.877l-10.364 6.965L62.48 45.71a.517.517 0 0 1 .543.878l-7.508 4.95 7.14-4.122a.517.517 0 0 1 .54.882l-3.875 2.508 3.33-1.922a.517.517 0 0 1 .553.872l-8.38 5.805 7.495-4.326a.517.517 0 0 1 .548.874l-4.34 2.94L61.73 53.2a.517.517 0 0 1 .56.867l-4.34 3.108 2.529-1.46a.516.516 0 0 1 .58.85l-2.98 2.377a.52.52 0 0 1 .346.628.52.52 0 0 1-.241.314l-4.688 2.707a.517.517 0 0 1-.58-.85l2.113-1.687-5.737 3.312a.5.5 0 0 1-.266.07"/><path fill="#262626" d="M35.597 56.533C49.4 75.683 76.695 50.023 56.8 35.969 64.033 2.781 16.425-10.737 4.074 20.34c-8.146 19.565 11.13 41.284 31.523 36.192M51.522 33.96c-10.216-2.049-20.55 7.726-17.828 18.037C7.972 56.105-2.34 18.514 21.89 8.942c15.545-6.425 32.965 8.782 29.632 25.018M62.22 48.7c.413 13.19-17.348 19.083-24.725 8.033-8.873-11.402 5.241-28.537 17.81-20.336a14.72 14.72 0 0 1 6.914 12.304M4.538 23.452C13.202-9.626 61.547 2.104 55.483 35.224c-.82-.407-1.68-.728-2.566-.957C58.382 6.83 18.424-3.916 8.115 21.42.934 37.71 16.6 56.263 33.835 52.575a14.2 14.2 0 0 0 1.335 3.262C16.896 59.91-.377 41.433 4.538 23.451"/><path fill="#262626" d="M29.327 12.78c1.22.683 1.732-1.151 1.147-1.925-1.22-.684-1.732 1.15-1.147 1.924M20.368 14.889c1.109.555 1.924-.55.887-1.386-1.115-.253-1.742.5-.887 1.386M15.269 20.704c-.6-.34-1.288-.924-1.963-.413-1.235 1.107 2.876 2.005 1.963.413M12.822 29.608c-.723.045-1.802-.178-2.273.493.338.316 3.187-.034 2.273-.493M14.943 38.126a2.86 2.86 0 0 0-1.869.98c-.277 1.719 3.703-.456 1.869-.98M21.737 44.822c-.811-.227-2.04.807-1.746 1.479.806.227 2.034-.807 1.746-1.479M30.36 47.07c-1.1-.247-1.507.952-1.107 1.757 1.117.611 1.99-1.196 1.108-1.757M46.776 30.21c.576.31 2.639.414 2.415-.62-.576-.303-2.639-.406-2.415.62M44.647 20.891c-1.007 1.287 1.895.31 2.11-.384-.34-.885-1.564.118-2.11.384M39.731 13.424c-.784-.35-2.178 1.107-1.58 1.632.785.35 2.18-1.107 1.58-1.632"/><path fill="#262626" d="m33.517 31.512-.199-.131a3.41 3.41 0 0 0-2.661-4.994c.715-14.165-2.22-13.729-1.513.077-6.34 1.54-1.405 10.101 3.324 5.956 4.045 3.37 6.54 2.1 1.049-.908m-2.81.942a.3.3 0 0 1-.08.023c.027-.006-.237.056-.141.038-3.058.509-4.113-4.627-1.064-5.244 2.822-.264 3.951 4.108 1.285 5.183M51.219 39.277c-7.185-3.07-12.478 8.567-8.17 5.924a6.1 6.1 0 0 1 2.016-4.497c4.525-3.89 10.872 2.464 8.352 7.372a5.17 5.17 0 0 1-4.431 3.221c-.268 0-1.234.11-1.234.504v2.067c1.407.558 1.673-.88 1.496-2.074 6.723-.44 8.598-10.288 1.97-12.517M49.084 57.26c-.557-.376-1.83.325-1.168.948.557.377 1.83-.325 1.168-.948"/></g><defs><clipPath id="a"><path fill="#fff" d="M2 2h62v62H2z"/></clipPath></defs></svg>