<svg xmlns="http://www.w3.org/2000/svg" width="384" height="242" fill="none" viewBox="0 0 384 242"><g clip-path="url(#a)"><path fill="#F7EBCA" d="M382.102 160.778c-7.42 20.906-37.263 23.883-191.652 40.229-120.404 12.746-141.015 15.242-158.993-2.072C-6.06 162.792-.032 80.092 38.842 37.71 102.277-31.444 243.3 5.205 319.557 65.29c8.206 6.468 75.351 59.38 62.537 95.496h.008z"/><path fill="#000" d="M297.702 141.008c-26.484.249-52.959.502-79.446.746q-.399-11.061-.786-22.122c26.511-.979 53.017-1.963 79.528-2.95.237 8.105.474 16.217.704 24.322v.008z"/><path fill="#000" d="M267.858 103.917h-21.097v16.042h21.097z"/><path fill="#000" d="M297.974 104.558a747 747 0 0 1-40.647 2.729 751 751 0 0 1-40.864.509 327 327 0 0 1-3.251-25.527 329 329 0 0 1-1.241-31.712 398 398 0 0 1 43.377-3.471 398 398 0 0 1 39.659.987 2558.235 2558.235 0 0 0 2.975 56.485z"/><path fill="#fff" d="M291.514 99.466a682 682 0 0 1-34.988 2.211 681 681 0 0 1-35.179.412 249 249 0 0 1-2.796-20.745 252 252 0 0 1-1.066-25.769 361 361 0 0 1 37.334-2.818c12.328-.291 23.757.07 34.14.809q.472 10.676 1.066 21.539c.451 8.201.953 16.322 1.497 24.357l-.008.007zM222.961 133.311a1.383 1.383 0 1 0 0-2.767 1.383 1.383 0 1 0 0 2.767M222.315 127.671c2.353.257 4.749.214 7.113.194s4.795-.054 7.191-.097c4.733-.077 9.473-.132 14.206-.249 2.687-.069 5.367-.256 8.046-.423.027 0 .019-.09 0-.09-2.372-.062-4.741-.147-7.105-.151-2.368-.008-4.795.054-7.191.097-4.732.082-9.473.14-14.206.257-2.679.069-5.394.081-8.046.458v.016l-.008-.008zM248.896 107.815c.751.016 1.505.148 2.256.167.696.02 1.384.051 2.08.051 1.474 0 2.944-.043 4.414-.082s2.89-.097 4.321-.194c1.435-.097 2.936-.299 4.406-.509.015 0 .015-.062 0-.062-1.447-.035-2.882-.078-4.329-.043s-2.944.105-4.414.151c-1.47.051-2.889.09-4.328.148-.723.027-1.439.078-2.166.117s-1.497.186-2.248.21c-.007 0-.007.035 0 .035l.008.015zM248.324 118.633c1.505.051 2.995.152 4.496.16s2.994-.016 4.496-.027c3.006-.035 5.985-.168 8.979-.389.016 0 .016-.043 0-.043-2.998-.14-5.985-.186-8.991-.148-1.497.02-2.995.043-4.488.09-1.497.05-2.994.194-4.488.284-.019 0-.019.07 0 .07z"/><path fill="#FAF0CC" d="M253.294 92.088c8.607 0 15.583-6.572 15.583-14.678s-6.976-14.678-15.583-14.678-15.582 6.571-15.582 14.678c0 8.106 6.976 14.678 15.582 14.678"/><path fill="#fff" d="M249.841 71.676c1.26-1.24 1.991-2.927 2.368-4.653.424-1.92.557-4.12 2.046-5.4.28-.236.618-.438.988-.458.777-.043 1.373.723 1.614 1.47.847 2.616-.747 5.399-.654 8.147a63 63 0 0 1 8.758-.175c.327.016.669.043.933.222.615.412.522 1.329.292 2.033a10.6 10.6 0 0 1-1.711 3.199c.21-.125.502.007.618.23.117.22.098.477.055.722-.132.8-.494 1.551-.91 2.247-2.373 3.883-6.961 6.142-11.511 6.239-1.665.035-3.321-.187-4.963-.412-1.011-.14-2.026-.28-3.033-.412-.132-.02-.264-.035-.369-.117-.168-.124-.203-.354-.222-.556-.245-2.3-.062-4.626.264-6.915.082-.571.175-1.143.265-1.703.081-.486.062-1.294.307-1.718.327-.583 1.517-.291 2.135-.439a5.9 5.9 0 0 0 2.734-1.532v-.019zM331.166 129.895h.042l-.081-.626c-.02.062-.051.124-.07.186.015.055.035.105.042.16.02.097.043.186.078.283l-.008-.007zM353.849 200.914c0-.117.016-.237.02-.362h-.008c0 .117-.008.245-.015.362z"/><path fill="#fff" d="M350.587 172.246c-.098-.214-.195-.44-.292-.654.844.113 1.629-.548 1.956-1.337s.3-1.663.265-2.511c-.082-2.079-.16-4.167-.245-6.247-.043-1.065-.082-2.141-.417-3.16-.334-1.014-.987-1.971-1.956-2.414-.221-.105-.459-.182-.669-.307-.229-.148-.416-.354-.598-.556l-1.735-1.955c-.307-.346-.618-.704-.988-.987-.245-.187-.68-.327-.82-.599-.152-.307.027-.98.035-1.314.015-.501.019-.995.015-1.496-.027-2.045-.245-4.078-.459-6.107-.07-.669-.14-1.33-.283-1.983-.125-.563-.619-2.476-2.443-4.917-1.279-1.71-3.597-4.816-7.711-5.885a11.8 11.8 0 0 0-3.201-.369c-.105-.183-.264-.459-.416-.821-.696-1.586-.626-3.012-.459-5.788.035-.556.09-1.286.537-2.037.221-.369.451-.606.606-.758a23 23 0 0 1 3.905-3.199 17.5 17.5 0 0 0-4.678 1.12 17 17 0 0 0-3.613 1.92c.319-.917.723-1.893 1.24-2.9 1.937-3.786 4.566-6.352 6.611-7.972-.668-.098-1.337.124-1.963.377a19.5 19.5 0 0 0-5.519 3.393 20.97 20.97 0 0 0-.766-10.519c.148 1.446 0 2.927-.447 4.319-.486 1.516-.704 3.04-1.455 4.482-.404.766-.898 1.543-.847 2.406a11.8 11.8 0 0 0-3.236-6.033c.548 1.948.731 3.988.906 6.006.14 1.601.113 3.102-.354 4.641-.027.097-.077.202-.147.214-.343.051-.774-1.94-1.509-3.786a18.5 18.5 0 0 0-2.061-3.778c.346 1.671.641 3.619.773 5.78a43 43 0 0 1 0 4.89 43 43 0 0 1-3.208-3.261 42 42 0 0 1-3.014-3.857c.37 1.128.988 2.764 1.984 4.615 1.613 2.993 3.465 5.127 3.146 5.418-.175.16-.794-.451-2.201-.995a9.8 9.8 0 0 0-2.478-.598 16 16 0 0 1 2.999 2.316c.466.451 1.551 1.524 1.314 1.905-.159.264-.758-.117-1.878.062-1.023.167-1.307.614-1.824.451-.3-.097-.712-.412-.988-1.496a33.2 33.2 0 0 1-.579-6.274c0-1.108.062-2.142.159-3.11a35 35 0 0 0-1.252 3.374 33 33 0 0 0-.813 3.18q-.605-2.568-1.17-5.24a307 307 0 0 1-1.101-5.477 40 40 0 0 0-.793 5.154 38 38 0 0 0-.125 4.676 45 45 0 0 0-3.71-3.716c-2.073-1.858-4.468-3.658-4.663-3.452-.151.168 1.233 1.412 2.863 3.771a29 29 0 0 1 2.38 4.124c-1.393.28-5.888 1.349-8.832 5.442-1.042 1.446-1.606 2.896-1.937 4.035a15.84 15.84 0 0 1-.723-7.611 8.6 8.6 0 0 0-1.672 2.344c-.848 1.746-.704 3.021-1.112 3.075-.619.078-1.474-2.546-2.143-4.583-.996-3.063-1.295-4.844-1.579-4.809-.272.028-.37 1.676-.307 2.951.097 1.87.536 2.83.291 2.95-.346.175-1.606-1.648-2.741-3.312-1.739-2.538-2.236-3.611-2.47-3.521-.346.132.125 2.802 1.217 5.399 1.288 3.047 2.898 4.738 2.653 4.952-.308.264-2.882-2.235-3.119-2.468a31 31 0 0 1-2.672-2.951c.21 1.427.731 3.596 2.291 5.594 1.843 2.36 4.468 3.623 4.239 4.078-.148.284-1.206-.237-2.839-.051a6.8 6.8 0 0 0-2.625.89c2.255.133 3.924.751 4.907 1.205 1.342.618 3.333 1.544 3.384 2.962.019.634-.346 1.163-.669 1.516-4.107.055-8.213.105-12.32.16a47.3 47.3 0 0 0-5.888-5.065c-1.307-.945-2.928-1.936-5.067-3.172-3.022-1.745-5.114-2.566-7.432-2.395-2.368.175-3.453 1.462-7.933 5.023a157 157 0 0 1-8.171 6.06c-7.956-.097-15.909-.187-23.866-.284l-2.201.844c0-.07-.035.081-.05.019-.063-.315-.572-2.608-2.847-3.825-2.213-1.182-4.352-.404-4.663-.284-.486-2.659-2.598-4.948-5.207-5.663-2.61-.712-5.588.186-7.366 2.235-1.287-1.614-3.356-2.574-5.421-2.511a6.79 6.79 0 0 0-5.261 2.829c-.751 1.066-1.183 2.387-1.058 3.682.124 1.294.848 2.553 1.983 3.199-1.867-.183-3.807-.222-5.553.466-1.641.645-3.621 1.893-3.932 3.596.02-.016.043-.035.07-.043.148-.035.3.132.257.272a6 6 0 0 0-.327-.214c-.015.098-.035.203-.035.3-.078-.082-.054-.23.027-.307-7.851-5.31-16.002-9.726-24.554-13.823a159 159 0 0 0-16.734-6.869c-1.991-.68-4.009-1.337-5.826-2.387-1.532-.882-2.951-2.06-4.678-2.449-.28-.062-.572-.112-.774-.314-.14-.14-.214-.342-.28-.529-.96-2.923-1.077-6.045-1.19-9.119-.116-3.242.377-6.088.257-9.33a.714.714 0 0 1-.828-.318c3.826 1.01 8.038 1.982 11.604.256 1.789-.863 3.208-2.336 4.441-3.895a31.4 31.4 0 0 0 5.791-11.778c1.135-4.544 1.24-9.275 1.108-13.955-.327-11.432-2.547-22.585-5.017-33.749q-.519-2.369-1.05-4.738c-.062-.284-.124-.583-.042-.863.132-.447.583-.696.995-.906 1.719-.882-12.059-.976-3.352-10.64 1.571-1.744-.428.32-1.847-1.954-.21-.335 3.558 2.783 1.116 2.818-8.291.14-.739-10.262-5.849-8.05-4.725-6.247-9.267 4.78-16.792 2.616-3.543-1.023-3.461-.778-7.14-.805-3.924-.027-5.83 2.025-9.684 2.818-3.18.66-6.517-3.565-9.104-1.61-5.086 3.85-9.049 16.685-11.577 22.527-3.465 8-7.09-5.909-5.557 2.67 1.509 8.455 5.18 16.4 10.134 23.417-.015 0-.035-.008-.05 0-.183.05-.28.245-.354.416-1.085 2.468-2.143 5.244-1.252 7.798.28.8.739 1.523 1.225 2.204 1.509 2.103 3.535 4 6.055 4.614.397.097.809.16 1.163.37.346.201.606.528.855.846a115 115 0 0 1 7.253 10.45c.766 1.243 1.509 2.518 2.061 3.875.661 1.64 1.011 3.39 1.295 5.135.537 3.296 1.12 6.596.926 11.071a44 44 0 0 1-.537 5.197c-11.764 4.758-20.463 10.483-26.219 14.853-8.194 6.219-18.367 13.943-24.722 27.327-2.5 5.267-3.632 11.556-5.646 24.17-2.734 17.158-5.375 34.305-.794 51.066a55.6 55.6 0 0 0 5.278 12.789c.513.91 1.147 1.878 2.158 2.165.614.175 1.26.063 1.878-.07 7.016-1.539 13.036-6.254 17.333-12.007.424-.572.863-1.17 1.497-1.481.607-.292 1.307-.284 1.984-.264 14.622.38 29.275.855 43.8 2.596 6.425.774 12.849 1.769 18.647 4.641-.466.821.09 1.921.918 2.372s1.824.439 2.769.412c2.151-.063 4.363-.14 6.347-.98 2.135-.906 3.815-2.608 5.798-3.805 3.691-2.22 8.159-2.554 12.355-3.526 6.106-1.419 11.772-4.272 17.368-7.098 7.155-3.611 8.625-3.911 9.201-4.634.105-.132.152-.245.167-.272 1.447-2.379 11.729-6.97 39.834-15.584 3.138-6.13 6.273-12.264 9.411-18.394-5.577 2.826-8.229 4.599-7.968 5.314.245.661 2.986.416 8.233-.731l-.475 1.182c5.779 1.232 11.764.474 17.671.381 2.038-.035 4.08.015 6.117.062l12.375.292c1.905.05 3.815.089 5.701.353 3.426.479 6.697 1.684 9.94 2.873.898.327 1.769 1.038 2.598 1.524-.14-.082-.284.159-.195.299.09.132.28.159.44.175 21.14 1.613 42.424-5.753 63.365-2.449.292-9.594.607-19.541-3.27-28.31h.027zm-150.804 24.955c-4.141 4.062-5.514 6.469-10.811 12.587-2.201 2.538-3.298 3.806-5.016 5.497-4.364 4.287-6.841 6.658-10.644 7.284-.731.117-3.815.626-6.981-.785-2.839-1.26-3.648-3.125-6.382-3.743-2.045-.459-3.896.07-5.051.52.326-6.546.249-11.898.113-15.591-.354-9.574-1.33-14.589-1.338-24.983 0-3.922.132-7.145.249-9.24a64.91 64.91 0 0 1 20.778 8.579 22 22 0 0 0 2.003-2.332 23 23 0 0 0 2.053-3.258 35 35 0 0 1 5.386 3.207c1.735 1.252 2.785 2.317 3.947 3.328 2.952 2.565 5.756 4.66 9.042 7.86a95 95 0 0 1 6.778 7.346c-.89.739-2.38 2.018-4.122 3.724h-.008z"/><path fill="#D5D5D5" d="M155.03 228.097c-.572-6.616-.813-9.979-.972-14.138a250 250 0 0 1-.156-6.052c-6.3.451-15.17.299-25.227-2.492a73.6 73.6 0 0 1-13.16-5.057c4.791-4.63 9.578-9.26 14.37-13.889-7.665 1.088-23.808 2.293-41.837-5.092-12.204-4.999-20.654-12.039-25.651-16.949.066 2.103.24 3.849.4 5.108.28 2.231.463 3.363.938 4.731.493 1.415 1.263 2.698 2.17 3.887.91 1.197 2.014 2.247 2.904 3.452.335.455.553.937.693 1.442-.26.035-.494.218-.486.556.035 2.398.31 4.898-.315 7.23-.311 1.162-.296 2.255-.218 3.448.066.98.128 1.955.194 2.935a.43.43 0 0 0-.062.268c.187 1.399.443 2.814.486 4.229.02.669-.05 1.306-.17 1.963-.098.517-.172 1.015-.16 1.524a.6.6 0 0 0 .023.436q.005.017.016.034v.043a.43.43 0 0 0 .093.21c1.015 2.48 1.252 5.197 1.373 7.848.136 2.978.23 5.959.342 8.941.054 1.458.113 2.915.085 4.373-.03 1.504-.175 3.001-.202 4.505-.023 1.419.132 2.815.338 4.214.222 1.508.37 2.993.382 4.521.011 1.675 0 3.351 0 5.026 0 .812.011 1.625 0 2.437-.012.785-.063 1.586-.409 2.305-.237.494.241.945.642.879a.6.6 0 0 0 .23.066c10.706.925 21.458 1.162 32.199 1.287 10.745.124 21.494.14 32.232.629q2.9.136 5.794.323a.5.5 0 0 0 .128.043c3.979.54 7.953 1.076 11.931 1.617.249.101.564.043.724-.175.097-.136.097-.292.097-.338-.171-8.778.996-17.59.241-26.34z"/><path fill="#fff" d="m65.115 209.71 5.818 21.131 12.91-17.702 10.726-13.772 12.309-13.135 3.776-5.664-5.363-6.037-9.158-.528h-6.685l.715 3.471-1.26 8.054-4.48 8.253-4.935 5.232z"/><path fill="#000" d="M69.766 181.318a133 133 0 0 0-.93 15.833c.005 2.884.106 5.765.269 8.641.031.649.074 1.298.117 1.948q-.555.365-1.109.738-.004-.05-.007-.101c-.04-.614-.078-1.224-.11-1.839-.47-8.376-.353-16.757.639-25.103.05-.435 1.193-.622 1.131-.117M71.217 250.817c-.02.432-1.155.634-1.136.117.245-5.671.222-11.351-.047-17.018L70 233.22q-.05-1.085-.12-2.169.531-.693 1.05-1.392c.047.731.085 1.462.124 2.193.33 6.313.432 12.633.164 18.965"/><path fill="#fff" d="M174.514 145.98s-.008 0-.016.008c0 0 .008 0 .016.008z"/><path fill="#D5D5D5" d="M279.194 148.153a24 24 0 0 0-1.022-1.804 26 26 0 0 0-1.603-2.309c.479.043.988.062 1.509.062 2.96 0 5.48-.711 7.412-1.508a33.7 33.7 0 0 0-1.516 6.589c-.214 1.733-.175 2.511-.148 2.837.245 3.207 1.871 5.143 1.699 5.252-.307.187-4.81-6.192-6.335-9.115v-.008zM306.786 119.007c.14-.879.245-1.754.342-2.632a15.7 15.7 0 0 0 2.026 6.736c-.731-.377-1.524-.606-2.317-.808-.413-.105-.424-.183-.416-.599.007-.416.062-.855.124-1.279.07-.474.159-.94.237-1.411l.008-.007zM309.959 121.63c.09-.264.183-.521.273-.785.124-.369.256-.738.381-1.108.05 1.905.105 3.868.828 5.637-.478-.451-.96-.898-1.439-1.349a7 7 0 0 0-.544-.459c-.125-.097-.078-.043-.062-.132.015-.105.077-.229.112-.342.148-.486.3-.976.459-1.454zM302.088 120.223c-.583-1.003-1.17-2.002-1.761-3.012.501.548 1.17.917 1.781 1.337 1.4.96 2.547 2.239 3.675 3.514-.634-.016-1.276-.027-1.894.089-.195.035-.564.237-.751.183-.202-.054-.221-.424-.284-.599-.194-.528-.478-1.022-.766-1.508zM314.109 117.817a16.6 16.6 0 0 0 3.788 3.611c.097.07-.195 1.205-.222 1.357-.089.431-.175.882-.319 1.302-.043-.459-.478-.968-.704-1.364-.299-.537-.583-1.073-.871-1.606-.572-1.092-1.12-2.192-1.672-3.292zM326.273 108.593c.098-.451.168-.906.273-1.357.116-.486.283-.979.237-1.481.284 1.804.183 3.631.078 5.454q-.03.584-.07 1.162a.8.8 0 0 1-.063.334.8.8 0 0 1-.245.257c-.836.661-1.703 1.341-2.212 2.274 0-.439-.417-.945-.315-1.384.035-.148.182-.28.256-.404.132-.21.245-.432.362-.653.467-.848.898-1.726 1.233-2.636.186-.513.346-1.041.466-1.578v.016zM326.258 125.417c.871-1.373 1.956-2.597 3.084-3.756a15.3 15.3 0 0 0-.389 8.195 10 10 0 0 0-2.652 2.616c-.078.027-.148.054-.222.081l-1.085-1.939c-.362-.646-.478-.89-.292-1.656.307-1.275.891-2.414 1.552-3.534l.008-.007zM322.334 111.862c.537 1.737.945 3.514 1.303 5.294.272 1.365.501 2.733.704 4.105a.7.7 0 0 1 0 .292.6.6 0 0 1-.152.213c-.591.619-1.276 1.198-1.595 1.991 0-.37-.245-.855-.342-1.209q-.171-.608-.342-1.209c-.117-.424-.245-.855-.362-1.279-.112-.389-.194-.564-.035-.917.646-1.411.945-3.048 1.004-4.591a13 13 0 0 0-.183-2.694v.008zM319.172 122.431c.28-1.753.249-3.557-.089-5.294.264.579.529 1.162.777 1.745 1.241 2.943 2.069 6.08 2.256 9.267a19.8 19.8 0 0 0-4.523-1.648c.354.082.883-1.469 1.004-1.788.272-.739.451-1.508.579-2.282zM301.696 139.788c1.011-2.465 2.212-4.863 3.822-6.994s3.625-3.972 6.028-5.127c-1.143-1.135-3.049-2.616-5.623-2.95-4.819-.626-10.119 2.985-12.701 9.154.424.785.844 2.107 1.524 2.694.486.424 1.342.416 1.941.591.91.264 1.804.618 2.644 1.057.23.117 2.466 1.365 2.372 1.571h-.007zM280.692 128.942a13.1 13.1 0 0 0 5.413 2.818 184 184 0 0 1-.194-6.553c.486 1.788 1.015 3.638 2.255 5.014.14.152.284.299.389.474.397.634.222 1.446.202 2.2-.027.961.23 1.901.479 2.826a5.57 5.57 0 0 0-2.54-1.24c-.933-.182-1.279-.042-2.01-.75a30 30 0 0 1-2.135-2.317c-.615-.738-1.148-1.85-1.859-2.468z"/><path fill="#D5D5D5" d="M281.431 123.593c1.092 1.349 2.177 2.706 3.27 4.055.187.229.377.466.513.731.487.932.327 2.052.774 2.997-.466-.335-1.038-.51-1.4-.968-.486-.615-.836-1.411-1.19-2.103a33 33 0 0 1-1.092-2.344c-.273-.653-.448-1.839-.879-2.372zM282.722 135.247c1.217-.431 2.539-.486 3.822-.307.716.105 1.439.28 2.069.634s1.175.909 1.408 1.601c-1.038-2.962-.447-6.239.478-9.232.043 3.425 1.579 6.799 4.134 9.081-1.112-.183-2.236.214-3.297.598-.467.167-.926.342-1.393.51-.272.097-.98.509-1.267.431-.238-.07-.572-.571-.767-.739a10.793 10.793 0 0 0-2.994-1.912c-.377-.159-1.824-.863-2.205-.661h.016z"/><path fill="#fff" d="M289.049 161.396c-1.77-3.91-3.228-8.174-2.637-12.427.599-4.253 3.823-8.396 8.101-8.738 3.189-.257 6.249 1.613 8.24 4.112 1.999 2.5 3.119 5.567 4.196 8.572.677-.078 1.358-.152 2.034-.23-1.275-4-3.278-7.77-5.895-11.055a23.8 23.8 0 0 1 5.841-7.833c1.163-1.03 2.458-1.955 3.932-2.433 1.287-.416 2.663-.486 4.017-.486 1.738 0 3.578.14 5.016 1.12 2.089 1.418 2.742 4.229 2.602 6.748-.249 4.528-2.477 8.688-4.651 12.668.961.537 2.228.159 3.033-.591.809-.75 1.253-1.803 1.665-2.826 1.579-3.868 3.068-7.988 2.5-12.128-.089-.645-.221-1.341.055-1.936.202-.416.579-.723.968-.968.996-.633 5.2-1.912 9.221.327 3.71 2.068 4.919 5.858 5.534 7.771 1.295 4.05.696 7.568.291 9.224a98.5 98.5 0 0 0-12.93-.3c-6.674.284-11.624 1.174-19.309 2.562-4.76.855-7.19 1.295-9.298 2.033-4.725 1.664-8.867 4.626-12.931 7.561q.107 1.335.203 2.67c-.078-.536.412-.96.855-1.267a46.9 46.9 0 0 1 13.413-6.344c2.742-.793 5.553-1.337 8.361-1.877l11.309-2.185c.821-.159 1.637-.315 2.469-.381.642-.05 1.28-.043 1.929-.043 1.21.016 2.423.02 3.633.035 4.717.043 9.5.09 14.073 1.268-6.801.855-13.607 1.702-20.408 2.561-3.057.381-6.118.766-9.097 1.543-4.487 1.17-8.769 3.223-13.377 3.787 3.076.213 6.179.248 9.244-.14 3.745-.479 7.385-1.579 11.095-2.29 5.86-1.119 11.853-1.259 17.818-1.399 2.073-.051 4.15-.098 6.215-.148.509-.016 1.065-.016 1.482.28.571.396.688 1.174.75 1.866q.317 3.517.284 7.047c0 .447-.019.91-.245 1.295-.245.412-.681.66-1.112.855a11.9 11.9 0 0 1-6.432.987c1.726.75 3.834.688 5.246 1.936 1.349 1.182 1.606 3.16 1.769 4.948l1.878 20.315c-2.142-.976-4.592-.918-6.933-1.19-2.31-.264-4.582-.855-6.899-1.022-2.478-.183-4.97.124-7.432.431-11.305 1.408-20.242 3.701-29.046 4.716a134 134 0 0 1-9.925.773c-.528-8.015-1.065-16.034-1.594-24.05.579-.015 2.213-.116 2.827-1.189.335-.591.187-1.225.14-1.664a37.4 37.4 0 0 0-1.971-8.711c-.16-.459-.677-1.314-.607-2.469.043-.75.292-1.341.474-1.691h.016"/><path fill="#D5D5D5" d="M288.174 161.96c-2.283-5.893-2.151-10.604-1.851-13.178.474-4.097 1.699-5.523 2.185-6.068 1.914-2.134 5.075-2.899 7.887-2.316 2.804.583 5.262 2.379 7.093 4.583s3.096 4.828 4.196 7.471a4.7 4.7 0 0 1 1.607-.315 42.2 42.2 0 0 0-4.901-9.648c-.248-.369-.521-.766-.544-1.209-.015-.28.078-.556.175-.82.716-1.905 2.018-3.534 3.391-5.05 1.684-1.869 3.558-3.665 5.853-4.688 2.298-1.022 5.122-1.181 7.261.148 1.858 1.155 2.963 3.285 3.297 5.446s-.035 4.377-.579 6.5c-.766 2.969-1.902 5.858-3.551 8.446a13.2 13.2 0 0 1 3.562-.412 10.2 10.2 0 0 1 1.894-4.007 20.14 20.14 0 0 0 1.851-8.844c-.015-.653-.054-1.337.175-1.947.187-.494.545-.91.945-1.26 2.458-2.103 6.301-1.407 9.077.249 2.501 1.489 4.62 3.689 5.791 6.36 1.17 2.67 1.338 5.803.237 8.501a63.5 63.5 0 0 0-8.804-.572c-6.689.035-8.758 1.12-20.518 3.165-8.116 1.411-11.103 1.586-14.039 2.565-1.171.389-2.186.883-2.625 1.093-3.675 1.702-7.101 4.027-6.911 4.404.125.248 1.797-.475 4.846-1.567 1.762-.633 7.956-2.845 13.253-3.945 5.347-1.108 4.153.089 11.546-1.093 1.762-.28 6.646-1.111 12.744-1.939 1.4-.187 2.695-.202 4.449-.21 2.68 0 5.623.431 7.428 2.414-3.621.077-7.21.661-10.788 1.24-5.304.863-10.609 1.718-15.905 2.581-1.929.315-3.858.626-5.744 1.135-4.029 1.092-7.802 3.063-11.897 3.903 4.352.361 8.735.73 13.071.21 4.258-.51 8.365-1.866 12.542-2.861 4.546-1.085 9.174-1.738 13.79-2.465 3.021-.474 6.238-.952 9.049.257.3.132.615.291.778.571.148.245.175.544.187.828.159 2.608.186 5.224.07 7.833-.016.353-.043.731-.257 1.01-.264.346-.731.459-1.163.521-3.298.509-6.654-.089-9.975-.439s-6.821-.416-9.819 1.042a218 218 0 0 1 19.335 2.239c.389 1.92.778 3.848 1.163 5.768.027.125.035.284-.078.354-.112.062-.229-.175-.105-.175.167 6.748.607 13.143 1.622 19.813-1.703-1.049-3.718-1.504-5.701-1.803-18.189-2.768-36.583 5.461-54.868 3.444-.432-7.639-.872-15.335-2.777-22.744a9.9 9.9 0 0 0 1.804-4.731 9.9 9.9 0 0 0-.968-5.384M181.07 144.518c2.236-.882 4.978.035 6.409 2.298 0-.459-.043-1.894-1.058-3.25a5.3 5.3 0 0 0-2.337-1.746c-1.011-2.802.968-6.273 3.897-6.845 2.928-.564 6.055 1.92 6.167 4.898.07-.75.148-1.504.214-2.262.132-.168 2.229-2.714 5.577-2.36 3.111.334 4.628 2.888 4.775 3.145a22 22 0 0 0-.443 4.801 4.68 4.68 0 0 1 4.196-3.654 4.66 4.66 0 0 1 4.651 2.888c-.315.14-.82.416-1.295.933a4.1 4.1 0 0 0-.906 1.613c1.579-1.217 3.683-1.462 5.414-.618 2.263 1.108 2.73 3.498 2.768 3.743.117-.07 1.509-.847 2.929-.159 1.17.563 1.866 1.87 1.711 3.257.229-.062 2.018-.501 3.34.572 1.393 1.127 1.735 3.486.487 5.453a34.3 34.3 0 0 0-5.799-.314c-5.604.182-10.126 1.733-13.156 3.102 3.103-.51 10.216-1.516 15.847-.809 1.315.167 2.995.447 3.73 1.671.175.284.148.378.451 3.091.214 1.901.307 2.53-.125 3.028-.381.431-.976.521-1.365.544a108 108 0 0 1 1.509 5.279c2.699 10.324 3.71 20.031 3.792 28.684a28.3 28.3 0 0 0-13.424.381c1.703-1.878 3.223-3.981 4.071-6.372.844-2.394.961-5.111-.07-7.428-1.155-2.597-3.029-4.148-3.788-4.715-11.896-9.018-22.738-19.343-34.385-28.676a415 415 0 0 1-6.996-5.734c.194-2.009 1.427-3.743 3.189-4.439l.007.008z"/><path fill="#fff" d="M170.547 205.415c3.165-1.267 6.653-.746 10.021-.688 4.822.078 9.614-.844 14.366-1.753 1.94-.377 3.885-.75 5.825-1.12.354-.07.716-.14 1.043-.307.439-.221.785-.606 1.12-.979.793-.883 1.586-1.761 2.38-2.644.147-.167.299-.342.346-.563.089-.424-.222-.813-.514-1.112-3.492-3.603-6.98-7.207-10.476-10.818-4.679-4.836-9.404-9.706-14.887-13.391-.152-.105-.319-.21-.494-.203-.292.008-.502.3-.669.564q-1.806 2.856-3.613 5.71c-.097.152-.213.327-.388.342-.098.008-.187-.035-.28-.077-.767-.362-4.9-2.671-5.18-2.08-.082.183.112.812.116 1.03.02.599-.043 1.217-.054 1.808a167.768 167.768 0 0 0 .486 18.332c.054.715 1.003 7.891.844 7.953z"/><path fill="#D5D5D5" d="M159.957 222.713c4.636 1.586 7.949 6.701 12.849 6.67 2.166-.015 4.169-1.076 5.985-2.254 3.473-2.239 6.599-4.968 9.843-7.53 10.76-8.489 23.143-15.506 30.924-26.786.98-1.427 1.921-3.028 1.859-4.758-.05-1.252-.614-2.422-1.287-3.479 3.278 2.915 3.613 8.12 1.972 12.182s-4.85 7.265-7.977 10.344a1923 1923 0 0 1-4.538 4.466c-1.902 1.87-3.799 3.736-5.806 5.489-6.953 6.08-15.062 10.674-23.108 15.215-8.143 4.598-16.648 9.317-25.981 9.947q-.168-9.835-.343-19.669.217-.051.44-.097c1.878-.374 3.648-.179 5.172.237v.015zM153.284 150.151a35.06 35.06 0 0 0 11.842 9.115 35 35 0 0 0 12.592 3.246c-3.71 3.911-5.515 9.551-4.76 14.888-.969-.987-2.431-1.252-3.702-1.788-1.509-.634-2.804-1.676-4.177-2.581-3.216-2.123-6.872-3.464-10.488-4.785-.094.303-.249.82-.401 1.473-.478 2.083-.451 3.576-.494 3.576-.066 0-.187-4.031-.416-23.144z"/><path fill="#DBDBDB" d="M212.796 188.719c-1.218.626-2.45 1.275-3.683 1.936q-2.695 1.44-5.262 2.881c-3.465 3.556-6.938 7.102-10.407 10.658a41.5 41.5 0 0 0-9.306-.863c-3.55.07-6.591.58-8.964 1.147a162 162 0 0 1-2.247-16.384c-.397-4.723-.564-9.17-.564-13.302a24.8 24.8 0 0 1 2.15-7.211 24.7 24.7 0 0 1 3.209-5.069 239.596 239.596 0 0 0 35.074 26.207M89.46 164.133c.112 1.497.598 2.935 1.092 4.35.342.979.712 1.99 1.427 2.748a16.4 16.4 0 0 0 1.906-2.546c-1.365-1.524-1.56-3.716-2.034-5.706-.272-1.143-.614-2.492-1.268-3.464-.583 1.567-1.252 2.865-1.12 4.618h-.007z"/><path fill="#D5D5D5" d="M47.592 241.648c5.401.94 10.03-5.03 28.87-27.421 9.696-11.521 11.765-14.102 13.662-15.961 7.358-7.195 15.696-13.484 21.864-21.713-5.067 11.206-14.393 19.801-22.202 29.305-9.613 11.701-17.142 25.115-27.813 35.86-2.108 2.122-4.344 4.139-6.856 5.753-1.63 1.049-3.419 1.935-5.34 2.184s-4.01-.214-5.401-1.566c-1.288-1.252-1.747-2.686-2.132-4.097-.793-2.943-1.746-6.438-2.862-10.543 3.05 6.306 6.133 7.849 8.214 8.21l-.008-.015z"/><path fill="#DBDBDB" d="M96.572 168.327c1.51-.688 2.831-1.726 4.107-2.783 2.679-2.239 5.277-4.731 6.743-7.891 1.427-3.063 1.7-6.554 1.439-9.92-.513 1.306-1.038 2.616-1.552 3.93-.388.979-.773 1.955-1.252 2.896-.459.898-1.003 1.753-1.54 2.608-.925 1.47-1.859 2.943-2.889 4.342a36 36 0 0 1-4.01 4.583 37 37 0 0 1-2.275 2.033c-.264.214-.87.537-.284.731.343.117 1.21-.381 1.51-.521v-.008zM108.947 160.327c.933-2.332 1.474-4.8 1.975-7.265.237 1.691.479 3.409.265 5.108-.44 3.417-3.049 7.098-6.363 8.291a17.4 17.4 0 0 0 4.123-6.137zM106.742 171.056a25.96 25.96 0 0 0 5.012-11.102c.448 1.33.906 2.721.716 4.113a6.5 6.5 0 0 1-.412 1.508 12.2 12.2 0 0 1-2.423 3.93 10.5 10.5 0 0 1-1.738 1.508c-.44.3-1.47 1.1-1.999.968.291-.299.583-.591.844-.925"/><path fill="#D5D5D5" d="M60.386 170.621c.89-2.729 1.575-4.956 1.98-6.294a66.5 66.5 0 0 0 1.71 9.275c.448 1.73.946 3.355 1.467 4.867.91.968 1.816 1.94 2.726 2.908-4.713 10.227-3.488 13.232-6.312 19.852.304-.708-1.314-.953-2.018-.642q-1.017 6.196-2.034 12.404c-.21 1.275-.424 2.574-1.015 3.724-.583 1.127-1.497 2.037-2.345 2.985-1.435 1.586-2.555 3.332-3.827 5.046-1.112 1.504-1.225 2.157-2.325.369-3.41-5.543-.934-12.905-.934-12.905 3.924-14.911 10.497-34.13 12.927-41.589M125.093 38.977c-1.481 4.07-2.979 8.509-1.676 12.641 1.287 4.078 4.978 6.838 7.463 10.309 3.461 4.828 4.523 11.292 2.792 16.975 1.789-2.352 3.228-5.08 3.43-8.027.272-3.922-1.641-7.626-3.465-11.11-1.824-3.482-3.667-7.241-3.243-11.152s4.176-7.693 7.964-6.635c-.521-3.425-1.05-6.853-1.571-10.278-.113-.715-.373-9.282-.817-9.854-.501-.641-3.706.746-4.48.502-11.771-3.701-22.823 2.93-22.823 2.93-8.964 1.703-9.7 7.623-13.736 10.6 2.186-1.142 8.493-4.053 16.699-2.864 6.864.995 11.507 4.35 13.475 5.963zM104.661 102.708a115 115 0 0 0 15.486 22.032c-.872.618-6.6 4.536-13.942 2.768-5.903-1.419-9.077-5.609-9.89-6.748-.112-4.125-.563-19.355-1.481-26.702-.132-1.072-.284-2.068-.284-2.068a85 85 0 0 0-2.54-11.556 708 708 0 0 0 2.52-3.452c1.824 7.013 4.873 16 10.127 25.729l.008-.007zM231.135 159.896c3.236-4.828 7.35-8.995 11.477-13.092a704 704 0 0 1 5.506-5.411c3.022-2.943 6.592-6.072 10.804-5.823 1.225.078 2.415.439 3.55.917 2.664 1.127 5.032 2.873 7.105 4.883a32.8 32.8 0 0 1 6.347 8.516c1.038 1.998 1.878 4.121 3.2 5.94 1.704 2.336 4.161 4.124 5.449 6.713 1.275 2.574 1.182 5.777-.245 8.264-1.428 2.488-4.142 4.202-7.004 4.405-.152.015-.354-.016-.397-.16s.292-.167.21-.035c2.47.898 4.678 1.586 7.261 2.088.389 6.833.653 13.679.793 20.516-6.074-2.309-12.736-2.336-19.238-2.336h-21.486c-2.804 0-5.612 0-8.408.175a73.7 73.7 0 0 0-5.013-25.422c-.132-.335-.264-.677-.28-1.038-.008-.346.097-.688.194-1.023a16 16 0 0 0 .222-8.015c-.035-.14-.05-.315.07-.389.121-.073.008.327-.132.319l.008.008z"/><path fill="#000" d="M128.302 32.789c-1.015 1.162-1.972 2.239-2.699 3.61a27 27 0 0 0-1.859 4.37c-1.011 3.16-1.482 6.57-.712 9.823.813 3.436 2.652 6.476 4.391 9.512s4.017 6.282 5.18 9.76c.548 1.637.777 3.332.556 5.05-.245 1.843-1.101 3.46-2.186 4.933-.054.07-.078.45.09.377 2.45-1.127 3.227-4.396 3.262-6.86.051-3.383-1.376-6.636-3.056-9.497-1.809-3.075-3.862-6.006-5.616-9.116-.863-1.531-1.637-3.137-2.061-4.847-.486-1.99-.404-4.027-.015-6.033a25.8 25.8 0 0 1 1.703-5.504c.828-1.886 1.839-3.868 3.022-5.551v-.02l-.008-.007zM135.473 38.856c-.591.292-1.217.953-1.147 1.594.081.739 1.038 1.108 2.527 1.761 4.461 1.955 5.095 2.643 5.414 2.31.591-.619-.976-3.597-3.438-5.047-.634-.369-2.104-1.24-3.356-.625zM116.615 59.606c-.466 1.155-.579 2.663-.175 2.819.413.159 1.358-1.077 1.805-2.267.404-1.065.556-2.503.167-2.662-.397-.16-1.338.98-1.797 2.114zM133.501 57.861c-.467 1.155-.579 2.663-.175 2.818.412.16 1.357-1.077 1.805-2.266.404-1.065.556-2.503.167-2.663-.397-.16-1.338.98-1.797 2.115zM114.096 73.523c-.14 5.683 2.741 11.576 8.372 13.581 1.739.618 3.489.739 5.219.05.082-.034.082-.298-.008-.326-3.293-1.057-6.731-1.671-9.298-4.186a12.7 12.7 0 0 1-2.59-3.654c-.521-1.1-.82-2.266-1.135-3.436-.183-.677-.327-1.338-.354-2.033-.008-.25-.203-.245-.203 0l-.007.007z"/><path fill="#000" d="M136.013 30.95c1.902 8.87 3.695 17.803 4.943 26.79.879 6.305 1.525 12.704 1.28 19.071-.105 2.632-.382 5.182-1.058 7.638-1.622 5.866-3.737 13.656-10.259 15.751-3.605 1.163-7.58.175-10.885-1.426a31 31 0 0 1-5.596-3.464 36 36 0 0 1-2.827-2.484c-.945-.917-1.999-1.71-2.874-2.697-.082-.09-.098.167-.063.229.747 1.073 1.42 2.177 2.229 3.199s1.703 1.912 2.617 2.775c1.594 1.497 3.313 2.88 5.192 4.016 2.998 1.807 6.634 2.997 10.161 2.635 7.934-.812 10.948-9.107 12.896-15.696 2.512-8.517 1.87-17.574.844-26.285-1.217-10.305-3.251-26.698-6.11-36.668-.182-.642-.571.07-.494.44v6.16l.008.016zM79.796 71.276c.244-.148.439-.634.618-.863a4.1 4.1 0 0 1 1.108-.945c.906-.536 1.991-.676 3.03-.529 1.12.16 2.17.661 3.048 1.365.452.361.829.793 1.253 1.181.354.327.785.556 1.112.906.062.07.07-.124.054-.151-.291-.653-.513-1.341-.933-1.936-.37-.513-.844-.953-1.338-1.341-.995-.785-2.205-1.337-3.48-1.42-1.163-.077-2.353.285-3.224 1.074-.661.598-1.47 1.675-1.28 2.635 0 .008.016.043.028.028z"/><path fill="#000" d="M107.729 100.892c.257.801.584 1.578 1.039 2.29 1.12 1.768 2.936 3.02 4.915 3.716 1.976.696 4.099.871 6.188.812.14-2.421.431-4.828.871-7.206-.766-.28-1.498-.654-2.221-1.038-.976-.513-1.94-1.058-2.812-1.726-.82-.634-1.543-1.376-2.267-2.123-1.17-1.197-2.337-2.398-3.305-3.763-.28-.388-1.05-1.842-1.641-1.41-.502.369-.774 1.858-.934 2.44a14.1 14.1 0 0 0-.416 5.182c.097.96.292 1.905.591 2.826z"/><path fill="#000" d="M120.749 99.874c-.606.466-.614 1.893-.723 2.589a37 37 0 0 0-.381 3.619 55 55 0 0 0 .117 8.209 54 54 0 0 0 1.12 7.172c.412 1.823.828 3.654 1.936 5.197.097.14.148-.182.14-.221-.202-1.948-.68-3.786-1.108-5.691a54 54 0 0 1-1.058-6.799 53 53 0 0 1-.132-7.494c.062-1.174.159-2.352.264-3.522.082-.906.346-1.963.098-2.853-.028-.082-.148-.307-.273-.21zM91.672 79.734c.836 3.39 1.762 6.737 2.435 10.165.653 3.34 1.21 6.706 1.602 10.088.389 3.381.607 6.74.661 10.122.027 1.675.008 3.347-.016 5.022-.027 1.866.106 3.728-.116 5.586-.008.062.082.299.14.148.424-1.147.863-2.302 1.065-3.522.238-1.427.347-2.826.37-4.264.05-2.896-.055-5.796-.257-8.688-.404-5.734-1.233-11.41-2.602-16.995a81 81 0 0 0-1.244-4.552c-.397-1.252-.82-2.589-1.867-3.452-.175-.148-.182.257-.16.342h-.011"/><path fill="#000" d="M96.152 100.702c-.676-4.062-1.341-8.124-2.018-12.19-.521-3.153-1.058-6.344-2.372-9.252-.945.933-2.303 1.357-3.633 1.419-1.971.105-4.725-.645-2.83 2.107a187.481 187.481 0 0 1 10.858 17.916zM93.446 168.906s.015-.035 0-.035c-.016 0-.016.035 0 .035M104.723 166.294c2.874-2.262 4.519-5.558 5.612-9.002s1.851-7.514.704-10.939c-.016-.043-.043-.02-.051.015-.389 3.382-.486 6.694-1.481 9.983-1.058 3.487-2.909 6.767-4.803 9.866-.008.015-.008.097.015.077h.008z"/><path fill="#000" d="M105.684 171.919c2.636-1.947 4.433-4.925 5.413-8.015.572-1.796.898-3.647.961-5.532.035-.941.007-1.87-.078-2.803-.082-.932-.105-2.052-.58-2.826-.361-.59-.583.238-.591.564-.019.82.23 1.641.315 2.457.098.898.133 1.815.09 2.721a18.9 18.9 0 0 1-.879 4.933c-.996 3.075-2.707 5.761-4.717 8.264-.035.043-.02.299.054.237h.012"/><path fill="#000" d="M106.928 176.44c2.505-1.851 4.453-4.187 5.41-7.199.509-1.606.739-3.312.696-4.995-.043-1.579-.23-3.569-1.085-4.933-.354-.564-.556.785-.521.968.284 1.454.746 2.767.746 4.28 0 1.512-.291 2.927-.774 4.326-.933 2.748-2.531 5.345-4.487 7.487-.016.015 0 .089.015.077l.008-.007zM56.703 217.792c.245-.704.521-1.287.68-2.025q.209-.97.405-1.94c.292-1.419.545-2.846.81-4.272.528-2.838 1.1-5.675 1.543-8.529.05-.334 0-1.003-.327-1.205-.326-.202-.556.117-.626.44-.59 2.826-1.05 5.683-1.56 8.52-.256 1.439-.52 2.873-.75 4.319-.105.669-.214 1.341-.319 2.01-.132.835-.097 1.628-.132 2.468-.008.183.148.571.272.222l.008-.016zM62.37 164.327c-.51 3.549-.078 6.966.995 10.375.848 2.698 2.131 6.371 4.954 7.592.716.307.802-1.672.222-1.975-2.52-1.337-3.624-4.132-4.46-6.713-.953-2.943-1.436-6.173-1.622-9.251 0-.078-.07-.125-.09-.02zM94.134 124.519c.898 2.367 2.158 4.625 3.99 6.402a16.25 16.25 0 0 0 6.14 3.735c4.795 1.613 10.885 1.12 14.623-2.546.019-.019.015-.113-.02-.097-2.36.882-4.76 1.843-7.272 2.15s-4.989.081-7.334-.716c-4.239-1.446-8.276-4.862-10.092-9.002-.02-.051-.035.05-.027.07v.007z"/><path fill="#000" d="M98.003 121.798c.906 1.71 1.781 3.234 3.321 4.466a13.6 13.6 0 0 0 5.025 2.562c1.964.536 4.044.59 6.047.209 2.186-.415 3.827-1.411 5.472-2.896.015-.015.015-.097-.016-.081-1.606.847-3.562 1.419-5.351 1.772-1.87.377-3.815.354-5.678-.062-1.754-.388-3.418-1.17-4.872-2.212-1.455-1.041-3.014-2.316-3.94-3.778 0 0-.008.016 0 .016l-.008.007zM175.342 146.92c.019-1.702 1.33-3.222 2.714-4.069 1.384-.848 3.154-1.268 4.811-.976 3.111.544 5.708 3.805 4.254 6.923-.187.412-.848 1.135-.583 1.636.342.661.879-.555.995-.8.615-1.341.704-2.908.335-4.327-.739-2.845-3.551-4.723-6.444-4.598a7.4 7.4 0 0 0-4.725 2.002c-1.128 1.065-1.972 2.693-1.4 4.252.019.062.054 0 .054-.035l-.008-.008z"/><path fill="#000" d="M187.277 144.806c.035-.14.28-.245.381-.315.167-.105.342-.202.521-.28.404-.183.855-.28 1.295-.28s.836.097 1.209.28.654.447.969.696a.08.08 0 0 0 .081 0c.035-.035.078-.051.117-.035.043.015.035-.105.027-.124-.043-.16-.035-.327-.113-.467a1.5 1.5 0 0 0-.245-.342 3 3 0 0 0-.579-.451 2.85 2.85 0 0 0-2.96-.004 1.64 1.64 0 0 0-.579.572c-.14.245-.152.451-.187.715 0 .027.028.097.043.035h.02M183.361 141.055c-.424-.704-.953-1.182-1.066-2.045-.105-.812.062-1.664.369-2.414.592-1.469 1.727-2.729 3.154-3.417 3.069-1.473 7.031.082 8.039 3.382.334 1.092.326 2.255.105 3.366-.21 1.038-.809 2.026-.821 3.083 0 .078.027.284.148.284.389-.016.537-.591.645-.883.222-.598.417-1.216.549-1.85a10 10 0 0 0 .113-3.506c-.319-2.045-1.385-3.965-3.252-4.968-1.718-.925-3.842-1.03-5.615-.21s-3.103 2.503-3.675 4.385c-.307 1.01-.447 2.114-.245 3.16.117.626.607 2.282 1.497 2.072.148-.035.132-.327.07-.432z"/><path fill="#000" d="M193.499 134.89c.292.346 1.182-.766 1.408-.926.548-.412 1.143-.777 1.781-1.022 1.606-.606 3.488-.618 5.083.035 1.357.556 2.477 1.629 3.235 2.865.272.447.502.917.688 1.399.07.183.187.863.459.821.113-.02.148-.14.175-.238.21-.711-.342-1.698-.653-2.309-.544-1.049-1.268-2.009-2.213-2.728-2.185-1.676-5.351-1.893-7.766-.564a6.4 6.4 0 0 0-1.886 1.567c-.187.229-.556.808-.307 1.107v-.007zM189.128 158.99c2.477 1.011 5.569.459 8.089-.175 2.714-.68 5.374-1.57 8.046-2.398 4.822-1.504 10.251-3.18 15.345-2.274 1.408.249 2.785.738 3.994 1.508 1.112.715 2.046 1.656 3.403 1.866.062.008.035-.183 0-.202-1.894-1.753-3.613-3.464-6.16-4.21-2.368-.688-4.892-.653-7.315-.319-5.413.747-10.551 2.888-15.785 4.385a56 56 0 0 1-4.678 1.143c-1.579.307-3.279.299-4.943.439-.082 0-.07.229-.008.257l.008-.016zM153.284 150.151c-.257 1.578-.125 10.888-.14 12.481-.016 1.773 0 3.542 0 5.314s-.008 3.429-.027 5.143q-.01 1.28-.043 2.573c-.02.863-.132 1.726.124 2.554.125.397.549.715.774.183.327-.766.249-1.602.272-2.422.02-.909.035-1.831.051-2.74.019-1.773 0-3.542-.043-5.314a106 106 0 0 0-.249-5.31c-.116-1.594-.132-10.962-.591-12.501-.043-.14-.124-.055-.14.043v7.63l.016-7.63z"/><path fill="#000" d="M156.904 156.673c-.307.941-.318 1.963-.439 2.943a25 25 0 0 1-.607 3.129 32 32 0 0 1-.933 3.063c-.369 1.003-.891 2.026-1.279 3.063-.125.335-.16.739 0 1.073.081.183.334.486.521.195.645-.988 1.057-2.185 1.439-3.297.381-1.111.723-2.254.96-3.417s.412-2.301.529-3.463c.105-1.077.214-2.239-.082-3.293-.019-.081-.081-.069-.105 0l-.007.008zM178.659 171.62c-.494.186-.731.944-.976 1.376a14.5 14.5 0 0 1-1.35 1.963c-.669.828-1.481 1.71-2.415 2.254-.933.545-.879-.474-.879-1.146 0-1.209.203-2.43.432-3.619.688-3.592 2.151-6.601 4.476-9.442 2.326-2.838 5.11-4.828 8.116-6.609.362-.213.187-1.593-.194-1.372-4.92 2.888-9.703 6.881-11.904 12.288-.758 1.858-1.174 3.84-1.435 5.83-.117.883-.848 5.672.996 5.54.556-.043 1.112-.618 1.508-.96.452-.389.883-.813 1.28-1.268 1.073-1.224 2.395-2.977 2.442-4.66 0-.055-.027-.203-.117-.168l.016-.007z"/><path fill="#000" d="M154.256 168.452c1.198 1.076 2.979 1.558 4.441 2.211a99 99 0 0 1 4.962 2.399 138 138 0 0 1 9.552 5.407c.474.291.633-1.065.182-1.349-3.111-1.928-6.292-3.724-9.59-5.31a146 146 0 0 0-4.83-2.204c-.793-.346-1.594-.696-2.399-1.014s-1.427-.646-2.263-.58c-.152.016-.133.362-.051.44zM173.794 168.899c.844 1.259 2.399 2.068 3.613 2.934q1.92 1.39 3.799 2.83c2.617 2.01 5.215 4.07 7.747 6.177a161 161 0 0 1 7.245 6.402 159 159 0 0 1 3.368 3.25c1.17 1.162 2.263 2.43 3.5 3.514.591.513.641-1.057.369-1.399-1.031-1.306-2.291-2.457-3.473-3.623a154 154 0 0 0-3.368-3.25 162 162 0 0 0-7.365-6.503 117 117 0 0 0-7.49-5.753 158 158 0 0 0-3.947-2.694q-1.032-.676-2.069-1.341c-.549-.354-1.21-.828-1.886-.801-.09 0-.078.202-.043.249l-.008.008zM112.361 176.906c-1.007 4.611-3.667 8.459-6.79 12.086-3.127 3.622-6.58 6.95-9.773 10.503-6.584 7.319-12.425 15.168-18.083 23.21-2.17 3.083-4.371 6.15-6.662 9.147a199 199 0 0 1-2.034 2.616c-2.726 3.452-5.615 6.826-8.963 9.698-3.166 2.714-6.892 5.093-11.037 5.928-2.123.432-4.044-.07-5.293-1.885-1.244-1.815-2.01-4.05-2.776-6.095-6.717-17.912-5.095-37.846-1.727-56.29.86-4.696 1.831-9.373 2.827-14.033.758-3.549 1.552-7.102 2.598-10.581 1.789-5.948 4.538-11.265 8.575-16.023 5.227-6.165 11.958-10.791 18.57-15.335 3.923-2.69 7.905-5.279 12.04-7.646 1.769-1.007 3.542-1.87 5.4-2.698.794-.346 1.572-.731 2.38-1.042.732-.28 1.545-.455 2.249-.789.19-.089.264.607.09.688-.7.334-1.335.844-2.039 1.275-.703.432-1.435.828-2.15 1.244-1.65.956-3.26 1.971-4.916 2.908a144 144 0 0 0-5.662 3.362c-3.928 2.457-7.727 5.112-11.507 7.794-6.14 4.354-12.063 9.1-16.427 15.304-3.325 4.731-5.27 9.99-6.681 15.572-.945 3.747-1.727 7.545-2.493 11.339-.968 4.777-1.932 9.566-2.69 14.386-1.416 8.968-2.326 18.06-1.918 27.149.412 9.08 2.123 18.483 6.183 26.693.494.995 1.105 2.01 2.17 2.476.95.42 2.01.358 3.006.175 2.054-.373 4.06-1.244 5.884-2.247 3.68-2.025 6.786-4.913 9.59-8.007 1.968-2.173 3.807-4.428 5.577-6.737q.531-.693 1.05-1.392c3.43-4.583 6.627-9.356 10.049-14.133 5.514-7.697 11.515-15.036 18.04-21.897 3.17-3.331 6.538-6.659 9.104-10.363 2.571-3.709 4.729-7.946 4.659-12.552v-.016c-.008-.283.202-.283.214 0 .105 2.103-.187 4.156-.634 6.208"/><path fill="#000" d="M154.12 219.428c1.171-.968 2.901-1.189 4.352-.87 1.691.369 3.091 1.364 4.468 2.344 2.256 1.613 4.927 3.381 7.719 3.867 1.455.257 2.96-.439 4.189-1.127 4.188-2.325 7.684-6.017 10.912-9.481 2.275-2.441 4.461-4.96 6.502-7.603 1.217-1.578 2.38-3.188 3.71-4.677 4.776-5.356 10.815-9.294 16.824-13.107.019-.016.019-.125-.008-.117-6.063 2.033-11.305 5.998-15.742 10.527-3.322 3.389-5.958 7.382-9.085 10.942-3.694 4.218-7.657 8.634-12.433 11.662-1.349.855-3.049 1.842-4.725 1.636-.855-.105-1.684-.466-2.477-.785-1.867-.75-3.605-1.761-5.269-2.888-2.555-1.734-6.689-3.883-9.007-.618-.035.054-.019.361.062.284l.008.015zM172.989 176.747c.027.222.07.459.222.626.248.284.723.299 1.077.132s.599-.474.828-.766a39 39 0 0 0 3.201-4.758c-.09.152-2.598-1.473-2.796-1.628-.405-.308-.786-.813-1.225-1.042-.514-.28-.487.089-.669.626a14.94 14.94 0 0 0-.646 6.81zM231.684 161.983c3.348-1.904 7.101-2.631 10.92-2.589 4.406.051 8.758.918 13.168.871 8.415-.089 16.768-2.88 25.196-1.531 1.676.272 3.348.688 4.81 1.593.669.412 1.28.926 1.719 1.579.704 1.041.669 2.204.572 3.409-.07.87-.14 1.737-.051 2.608.105 1.003.424 1.971.696 2.927.257.898.556 1.858.28 2.791-.334 1.12-1.341 1.629-2.399 1.901-2.018.513-4.161.245-6.195-.035a293 293 0 0 0-6.417-.828c-4.176-.474-8.38-.777-12.584-.89-9.341-.245-18.745.571-27.662 3.49-.439.148-.327 1.602.23 1.419 8.547-2.74 17.546-3.7 26.499-3.541 4.53.082 9.049.459 13.552.945 2.143.237 4.282.513 6.417.793s4.585.556 6.794-.07c1.726-.486 2.528-1.773 2.625-3.514.113-2.045-.98-3.736-1.206-5.707-.221-1.971.467-3.953-.334-5.893-.599-1.461-1.859-2.511-3.263-3.172-3.551-1.691-7.922-1.698-11.756-1.461-4.531.283-9.007 1.108-13.526 1.578-2.5.264-5.005.361-7.517.237s-5.137-.389-7.711-.501c-4.426-.187-9.326.132-12.962 2.95-.148.113-.113.731.089.618l.016.016z"/><path fill="#000" d="M244.63 168.794c3.029.147 6.141.214 9.154-.152 3.014-.369 5.791-.952 8.727-1.174s5.888.07 8.812.195c1.49.062 2.979.124 4.476.159 1.614.035 3.197-.249 4.803-.354.035 0 .027-.105 0-.113-1.614-.237-3.196-.633-4.83-.738-1.489-.09-2.986-.14-4.476-.194-2.924-.105-5.888-.346-8.804-.051-2.917.299-5.81 1.127-8.715 1.613-3.049.509-6.044.863-9.139.766-.016 0-.016.043 0 .043zM288.244 162.419c1.629-1.26 3.251-2.484 5.051-3.499 1.805-1.014 3.535-1.803 5.375-2.561 2.073-.856 4.204-1.684 6.37-2.298 2.166-.61 4.336-.746 6.576-.785 2.24-.043 4.538-.237 6.794-.704s4.422-1.01 6.646-1.446a50.7 50.7 0 0 1 13.627-.82c2.422.187 4.67.785 6.704 2.15a24 24 0 0 1 2.423 1.912c.766.681 1.474 1.516 2.458 1.975.089.043.077-.202.054-.237-.96-1.656-2.407-3.028-3.912-4.218s-3.306-2.122-5.242-2.546c-2.221-.486-4.566-.513-6.829-.493-2.264.019-4.698.237-7.016.59-4.585.716-9.057 2.15-13.72 2.379-2.407.117-4.822-.035-7.198.459-2.213.467-4.328 1.341-6.409 2.2-4.219 1.738-8.777 3.658-11.951 7.055-.159.175-.062 1.073.203.871l-.008.016z"/><path fill="#000" d="M301.077 162.609c4.017-.583 7.899-1.698 11.791-2.845 1.964-.579 3.955-1.077 5.985-1.341 2.159-.284 4.329-.342 6.487-.572 8.019-.855 16.835-4.933 24.722-1.279.995.459 1.407 1.066 1.508 2.15.117 1.205.183 2.414.245 3.619.117 2.192.175 4.389.214 6.581.016.641.07 1.19-.618 1.497-.447.202-1.05.283-1.532.346-1.128.151-2.283.097-3.411-.02-2.088-.214-4.134-.676-6.206-.987-8.548-1.295-17.026-.544-25.379 1.543-8.894 2.227-17.819 5.446-27.125 4.404-.424-.05-.447 1.275.035 1.33 8.723.905 17.239-1.796 25.577-3.958 4.352-1.127 8.742-2.071 13.23-2.441a61.3 61.3 0 0 1 13.697.412c2.185.315 4.336.844 6.537 1.065 1.085.113 2.166.125 3.251.051.883-.062 1.886-.089 2.368-.952.381-.688.342-1.54.327-2.302a76 76 0 0 0-.14-3.638 198 198 0 0 0-.529-6.931c-.07-.723-.167-1.516-.599-2.13-.529-.746-1.482-1.085-2.302-1.384-1.867-.68-3.834-1.003-5.818-1.065-4.46-.14-8.804.987-13.14 1.878-2.52.513-5.048.87-7.615 1.1-2.566.229-5.059.536-7.544 1.205-4.76 1.278-9.194 3.657-14.031 4.649-.008 0 0 .019 0 .019l.015.008z"/><path fill="#000" d="M287.081 176.432c.113 2.352.548 4.704.848 7.032s.529 4.641.75 6.966c.222 2.324.424 4.661.537 7.001.054 1.135.105 2.266.167 3.401s.307 2.262.432 3.409c0 .043.043.043.05 0 .105-1.154.315-2.262.308-3.428a98 98 0 0 0-.082-3.409c-.105-2.434-.21-4.879-.397-7.312-.186-2.434-.439-4.715-.723-7.063-.284-2.344-.509-4.758-1.174-7.013-.238-.793-.732-.078-.712.412v.008zM349.778 171.421c-.117 1.225.334 2.539.571 3.736.257 1.322.502 2.643.724 3.965.431 2.589.82 5.182 1.112 7.794s.502 5.244.626 7.875.054 5.19.564 7.736c.019.105.124.186.159.043.634-2.539.479-5.205.37-7.806-.113-2.6-.319-5.442-.615-8.147-.295-2.706-.661-5.435-1.155-8.121a109 109 0 0 0-.801-3.922 83 83 0 0 0-.439-1.858c-.148-.579-.222-1.267-.634-1.718-.28-.307-.475.221-.494.423h.012M207.728 160.09a112 112 0 0 1 5.826-1.446c1.948-.431 3.834-.641 5.806-.793a51 51 0 0 1 6.028-.124c1.629.062 3.807.027 4.865 1.504.564.785.669 1.808.793 2.733.14 1.03.272 2.06.265 3.102 0 .855.124 2.729-.829 3.082-.953.354-2.228-.054-3.126-.361-1.762-.591-3.543-1.022-5.394-1.225-2.026-.229-3.959-.478-6.009-.307-4.386.377-8.921 1.217-12.93 3.083-.257.117-.21 1.143.089 1.077 4.391-.968 8.707-2.165 13.211-2.531 2.248-.183 4.546-.478 6.794-.186 2.247.291 4.184 1.146 6.319 1.578.615.124 1.497.291 1.929-.28.521-.688.502-1.948.556-2.768.132-1.99-.113-4.12-.564-6.06-.381-1.621-1.209-2.896-2.897-3.327-1.941-.51-4.219-.346-6.203-.214-2.531.175-4.97.723-7.439 1.244s-4.776 1.244-7.101 2.149c-.016 0-.016.07 0 .063l.007.007zM287.101 160.036c-1.428-3.258-2.867-6.554-2.812-10.177.05-3.327 1.268-6.861 3.562-9.31 2.088-2.235 5.316-3.012 8.268-2.476 2.952.537 5.709 2.492 7.677 4.836 2.457 2.923 3.826 6.534 5.005 10.111.097.299.283.478.556.279.272-.198.202-.855.116-1.111-2.053-6.406-5.596-13.874-12.868-15.425-3.216-.688-6.708.082-9.026 2.484-2.477 2.562-3.757 6.344-3.947 9.85-.105 1.983.14 3.938.704 5.843.318 1.084.731 2.149 1.162 3.199.346.855.696 1.804 1.42 2.414.249.21.229-.404.183-.513z"/><path fill="#000" d="M301.836 140.297c1.26-2.492 2.368-4.988 4.223-7.11 2.018-2.301 4.818-4.634 7.828-5.442 3.356-.898 7.455.019 9.905 2.565 1.976 2.061 2.625 5.066 2.575 7.833-.035 1.928-.397 3.86-.945 5.707-.689 2.316-1.859 4.384-2.758 6.608-.097.245 0 1.601.448 1.084 1.4-1.613 2.212-3.883 2.889-5.885s1.101-3.957 1.233-5.99c.21-3.188-.195-6.589-2.011-9.294-1.956-2.9-5.709-4.467-9.146-4.342-3.438.124-6.53 2.254-9.05 4.606-2.652 2.468-4.81 5.804-5.409 9.419-.02.116.105.501.229.248l-.015-.015zM290.235 137.813c-.3-1.147-.778-2.235-1.015-3.401-.237-1.167-.381-2.43-.237-3.631s.583-2.255 1.073-3.304c.486-1.05 1.015-1.998 1.804-2.803l-.256-.389a16.1 16.1 0 0 0 .307 6.97c.607 2.274 1.629 4.474 3.243 6.115.175.175.203-.342.117-.451-1.322-1.796-2.415-3.666-3.022-5.823a14.6 14.6 0 0 1-.334-6.554c.019-.105-.016-.704-.237-.474-.856.87-1.435 1.947-1.941 3.055-.509 1.108-.98 2.371-1.108 3.646-.125 1.275 0 2.636.28 3.918.229 1.093.513 2.43 1.252 3.297.07.081.082-.132.078-.167z"/><path fill="#000" d="M286.684 133.074c-.556-2.087-1.232-4.112-1.508-6.27a25.3 25.3 0 0 1 0-6.406l-.292.082a81 81 0 0 0 1.839 5.205c.319.812.654 1.628 1.015 2.429.175.397.362.793.545 1.19.167.361.334.808.641 1.073.09.081.117-.117.105-.175-.159-.828-.618-1.606-.952-2.379a75 75 0 0 1-1.085-2.581 74 74 0 0 1-1.84-5.093c-.081-.256-.264-.116-.291.082a26.1 26.1 0 0 0 .015 6.659q.208 1.61.626 3.179c.28 1.042.591 2.107 1.147 3.056.028.043.035-.035.035-.055l.008.008z"/><path fill="#000" d="M284.534 134.279c-.696-.696-1.532-1.224-2.236-1.92a13.7 13.7 0 0 1-1.941-2.406c-1.163-1.831-1.929-3.887-2.512-5.971l-.23.369c2.104 3.075 4.908 5.672 8.303 7.242.245.113.28-.478.078-.583-3.224-1.699-6.125-4.062-8.186-7.09-.195-.292-.265.237-.23.369.607 2.204 1.373 4.377 2.633 6.305a12.3 12.3 0 0 0 1.914 2.29c.668.618 1.454 1.314 2.387 1.438.02 0 .016-.043 0-.05zM326.063 133.234c.397-.307.556-.828.883-1.205a5.3 5.3 0 0 1 1.385-1.128c1.135-.653 2.457-.925 3.756-.828 2.971.222 5.88 2.142 7.906 4.237s3.43 5.12 4.169 8.051c.389 1.551.591 3.152.615 4.75a22 22 0 0 1-.098 2.239c-.07.742-.272 1.446-.14 2.169.028.175.187.548.405.315.319-.354.342-.871.404-1.322q.147-1.096.187-2.192a24 24 0 0 0-.187-4.035 22.3 22.3 0 0 0-2.477-7.701c-1.295-2.386-2.998-4.194-5.207-5.663-2.069-1.372-4.62-2.484-7.156-2.045-1.956.342-4.573 1.92-4.557 4.175 0 .035.042.237.116.175l-.008.008zM324.908 146.586c-.116.362-.019.809.078 1.17.097.362.214.688.362 1.015a6.2 6.2 0 0 0 1.128 1.683c.194.202.377-.043.423-.237.063-.264.063-.645-.132-.871-.404-.451-.731-.89-.995-1.434a8 8 0 0 1-.183-.381l-.043-.097c-.035-.078.02.05-.015-.028l-.082-.221a8 8 0 0 0-.148-.377c-.062-.14-.097-.272-.229-.354-.082-.05-.14.082-.16.14l-.008-.008zM316.765 126.676c.793-.96 1.101-2.457 1.342-3.654.28-1.392.412-2.81.439-4.221a26.6 26.6 0 0 0-.315-4.44 29 29 0 0 0-.412-2.122c-.167-.704-.459-1.349-.619-2.052l-.307.388c3.166 5.314 5.2 11.432 5.674 17.609.062.848.778.848.712-.019-.521-6.546-2.555-12.719-6.168-18.216-.183-.279-.292.424-.245.545.467 1.174.642 2.596.844 3.84.222 1.376.334 2.768.327 4.159a23 23 0 0 1-.452 4.292c-.248 1.252-.688 2.468-.909 3.728-.008.043.027.229.097.147zM323.699 113.401c.474-.89.801-1.87 1.143-2.826s.669-1.947.926-2.942c.513-1.956.785-3.965.618-5.983l-.299.187c1.092 3.242 1.435 6.748 1.108 10.141-.016.148-.008.529.183.58.19.05.264-.195.28-.342.369-3.658-.113-7.277-1.295-10.749-.117-.345-.315-.042-.3.187.152 1.983-.147 3.953-.669 5.866a35 35 0 0 1-.898 2.795c-.334.917-.731 1.838-1.003 2.783-.035.117.07.548.202.299h.008zM292.529 132.88c.335-.98.549-1.948 1.074-2.853.564-.98 1.33-1.839 2.166-2.601 1.594-1.438 3.488-2.729 5.483-3.533 3.788-1.532 9.695-.945 10.998 3.689.214.765.614-.222.474-.642-1.606-4.773-6.828-5.998-11.211-4.334-2.415.917-4.558 2.519-6.312 4.396-1.4 1.505-2.987 3.631-2.804 5.804.008.097.09.229.14.078zM277.853 135.671c.925-.089 1.913.035 2.827.21.988.186 1.956.494 2.866.917.786.37 1.532.836 2.221 1.365q.553.425 1.065.917c.245.229.51.645.836.731.14.035.09-.362.07-.416-.175-.404-.548-.711-.863-1.003a14 14 0 0 0-.976-.828 12 12 0 0 0-2.345-1.419 9.3 9.3 0 0 0-2.645-.758c-1.057-.124-2.018.02-3.048.272v.016h-.008z"/><path fill="#000" d="M277.845 135.69c.451.028.941-.159 1.373-.283q.697-.2 1.407-.346a15.4 15.4 0 0 1 2.96-.319c.995-.008 1.929.089 2.862.307s1.983.529 2.742 1.174c.027.015.05.015.078 0l.081-.062c.062-.051.055-.175.035-.245-.116-.447-.536-.645-.933-.844a8.6 8.6 0 0 0-1.47-.536 12 12 0 0 0-3.033-.424 13.2 13.2 0 0 0-3.112.315c-1.015.229-2.24.474-2.998 1.174-.015.016-.019.082.008.082l.008.007zM312.868 129.521c.479 1.699.91 3.402 1.435 5.093a415 415 0 0 0 1.532 4.878c1.039 3.226 2.034 6.468 3.306 9.613.019.043.035-.015.027-.035-.879-3.355-1.991-6.631-3.049-9.928-.513-1.613-1.042-3.222-1.567-4.828-.521-1.605-1.12-3.195-1.676-4.793 0-.007-.008 0 0 .008zM317.469 129.374c.451 1.543.828 3.117 1.26 4.668.412 1.47.82 2.935 1.209 4.412.778 2.97 1.49 5.955 2.264 8.917.015.043.035 0 .027-.027-.51-3.082-1.21-6.122-1.999-9.15a136 136 0 0 0-1.233-4.494c-.439-1.489-.968-2.943-1.462-4.42-.035-.112-.089.028-.07.09zM308.781 132.748c.451 1.508.821 3.04 1.295 4.552.475 1.508.941 2.997 1.4 4.501.906 2.943 1.735 5.909 2.796 8.793.016.035.035 0 .027-.027-.676-3.091-1.606-6.103-2.531-9.12-.451-1.473-.91-2.95-1.373-4.419-.459-1.47-1.038-2.896-1.552-4.35-.035-.097-.077.027-.062.078z"/><path fill="#000" d="M306.055 136.72a71 71 0 0 1 6.872-3.49c2.352-1.038 4.818-1.839 7.237-2.741.008 0 0-.042 0-.035-2.477.556-4.873 1.532-7.191 2.554a57.6 57.6 0 0 0-6.926 3.639c-.019.015-.015.081.016.077h-.008zM306.012 141.23c3.022-1.147 5.993-2.407 9.007-3.577a227 227 0 0 1 4.523-1.683c1.508-.548 3.083-1.189 4.62-1.807.015 0 .007-.051 0-.043-1.56.381-3.092.801-4.609 1.329-1.516.529-3.029 1.1-4.523 1.691-3.056 1.198-6.125 2.492-9.022 4.051-.015 0-.008.054.008.05l-.008-.007zM309.046 144.973c5.102-1.85 10.239-3.611 15.228-5.745.008 0 0-.035 0-.035-5.207 1.559-10.231 3.646-15.228 5.768v.016zM311.527 149.082c.478-.28 1.073-.412 1.594-.599.459-.167.91-.346 1.365-.521.988-.381 1.972-.777 2.952-1.17 1.975-.785 3.939-1.586 5.876-2.468v-.02c-1.956.716-3.885 1.497-5.818 2.282-.953.389-1.913.774-2.866 1.155-.478.194-.961.388-1.435.591-.537.229-1.101.571-1.672.688-.028 0-.016.077 0 .07l.007-.008zM333.378 133.339c-1.143 2.301-2.15 4.625-2.889 7.098a39.4 39.4 0 0 0-1.49 7.688c0 .028.02.063.035.016a64 64 0 0 1 1.7-7.428c.719-2.434 1.586-4.968 2.679-7.312.016-.02-.008-.105-.027-.062l-.008.007zM337.263 134.73c-.98 2.255-1.703 4.618-2.325 6.993-.642 2.457-1.147 4.914-1.439 7.429 0 .019.027.077.035.027.521-2.398 1.03-4.809 1.641-7.188.614-2.378 1.377-4.847 2.088-7.265z"/><path fill="#000" d="M328.043 143.352c1.314 1.182 2.687 2.255 4.184 3.195q1.108.701 2.256 1.314c.766.408 1.516.879 2.36 1.015.016 0 .016-.027 0-.035-.669-.502-1.454-.809-2.193-1.19a37 37 0 0 1-2.263-1.279 46 46 0 0 1-4.344-3.032c-.008-.007-.016.02 0 .02zM328.222 138.392c.836.696 1.804 1.252 2.695 1.87a44 44 0 0 1 2.796 2.079c1.664 1.365 3.348 2.749 5.18 3.868.015.008.015-.027.008-.035-.382-.424-.747-.871-1.175-1.252-.428-.38-.871-.73-1.314-1.084-.864-.696-1.746-1.372-2.68-1.971-.933-.598-1.769-1.174-2.652-1.761s-1.843-1.302-2.854-1.733v.015zM328.404 133.848c.627.346 1.19.746 1.782 1.147.591.404 1.182.738 1.761 1.107a44 44 0 0 1 3.535 2.531 41 41 0 0 1 3.111 2.705c.988.961 1.976 1.87 2.866 2.873.016.016.02-.019.016-.027-.813-1.182-1.641-2.297-2.679-3.296a34 34 0 0 0-3.162-2.694c-1.108-.836-2.326-1.641-3.516-2.395-.579-.369-1.162-.746-1.769-1.065-.642-.342-1.303-.618-1.941-.968-.019-.015-.027.062-.007.078zM289.099 156.234c.697-2.729 1.482-5.442 2.478-8.077.995-2.636 2.282-5.17 3.488-7.728 0-.016 0-.078-.019-.051-1.56 2.337-2.688 5.015-3.675 7.639-.988 2.624-1.805 5.383-2.299 8.194 0 .019.02.054.027.019zM294.283 158.275c.413-1.279.556-2.659.864-3.965a61 61 0 0 1 1.077-4.008c.848-2.705 1.921-5.364 3.033-7.972.008-.02 0-.082-.027-.051-1.419 2.434-2.45 5.022-3.286 7.716a51 51 0 0 0-1.109 4.175c-.283 1.33-.614 2.713-.614 4.078 0 .043.035.089.055.027zM300.708 154.975c.299-.599.416-1.302.591-1.948.186-.68.389-1.364.614-2.037a64 64 0 0 1 1.637-4.334c0-.015 0-.054-.019-.035a21 21 0 0 0-1.851 4.008c-.478 1.407-1.011 2.88-.988 4.326 0 0 0 .02.016.008l.007.016z"/><path fill="#000" d="M288.87 143.029c1.303.688 2.563 1.427 3.889 2.061a494 494 0 0 1 3.897 1.877c2.566 1.252 5.11 2.531 7.754 3.619.019.008.019-.035 0-.05-2.477-1.559-5.067-2.861-7.692-4.14a194 194 0 0 0-3.823-1.816c-1.279-.591-2.672-1.084-4.029-1.605-.019-.008-.019.043 0 .054zM288.139 149.09c.925.513 1.781 1.135 2.695 1.671.91.536 1.867 1.03 2.819 1.497.953.466 1.851.882 2.793 1.306.451.202.906.412 1.372.571.514.183 1.043.272 1.56.439.035.016.035-.062.015-.077-.486-.257-.941-.58-1.427-.844-.447-.245-.906-.451-1.365-.661a105 105 0 0 1-2.866-1.349 81 81 0 0 0-2.769-1.306c-.933-.416-1.913-.773-2.827-1.259l.008.015zM298.58 124.429a20.8 20.8 0 0 0-.353 5.178c.097 1.734.431 3.428.96 5.112.016.035.027-.016.027-.028-.793-3.331-.976-6.837-.614-10.242 0-.016-.016-.035-.016-.016l-.007-.008zM302.151 122.785c-.168.944-.117 1.955-.105 2.907.015 1.023.07 2.045.147 3.064.152 1.998.475 3.953.891 5.912 0 .019.019 0 .015-.008a96 96 0 0 1-.641-6.079c-.07-.96-.117-1.928-.16-2.896s0-1.948-.116-2.9c0-.043-.035-.035-.043 0h.015z"/><path fill="#000" d="M295.376 131.698c.688-.606 1.439-1.127 2.178-1.656a55 55 0 0 1 2.388-1.628c1.629-1.031 3.332-2.002 5.082-2.811.008 0 0-.035 0-.035-1.851.618-3.562 1.372-5.207 2.43a22 22 0 0 0-2.31 1.671c-.731.614-1.435 1.337-2.131 2.025v.008zM296.749 134.995c3.049-2.9 6.813-5.128 10.609-6.923v-.028a21.9 21.9 0 0 0-5.709 2.659c-1.781 1.162-3.418 2.608-4.935 4.167-.027.027-.008.167.035.117z"/><path fill="#000" d="M305.581 124.686c.019 2.414.007 4.882.598 7.234 0 .027.02 0 .02-.016-.148-2.414-.556-4.8-.618-7.222zM311.663 113.739c.291 1.042.731 2.061 1.128 3.067a34 34 0 0 0 1.287 2.916 34 34 0 0 0 1.567 2.767c.272.432.548.856.836 1.275.148.214.292.424.44.634.14.202.264.467.501.548.14.051.132-.229.113-.299-.14-.439-.478-.793-.739-1.162a39 39 0 0 1-.988-1.489 51 51 0 0 1-1.594-2.706 39 39 0 0 1-1.377-2.662c-.416-.902-.766-1.928-1.163-2.889h-.011"/><path fill="#000" d="M311.624 113.541c.599 1.629 1.781 3.125 2.862 4.466a28 28 0 0 0 2.746 2.978c.256.245.521.583.882.645.117.02.082-.248.055-.299-.202-.381-.545-.641-.848-.933a36.861 36.861 0 0 1-2.664-2.838 32 32 0 0 1-1.54-1.99c-.486-.68-.918-1.438-1.489-2.037v.008zM213.608 141.424c2.166.346 4.406.315 6.6.342s4.511.019 6.766.062 4.391.051 6.592.035 4.519.051 6.759-.148c.167-.015.152-.68-.016-.695-2.185-.187-4.398-.125-6.591-.132s-4.511.007-6.767.054-4.391.043-6.592.078-4.538 0-6.751.361c-.008 0-.008.027 0 .035zM297.515 114.653c1.738.987 3.321 2.247 4.803 3.584s2.811 2.95 4.052 4.598c.148.195.194-.458.113-.59-1.058-1.664-2.458-3.153-3.948-4.44-1.489-1.286-3.223-2.297-5.016-3.164v.016z"/><path fill="#000" d="M297.569 114.715c.572.591 1.012 1.364 1.482 2.037.471.672.926 1.364 1.377 2.045s.89 1.364 1.295 2.068c.214.377.431.746.645 1.119.133.245.315.801.58.898.124.051.097-.256.081-.315-.147-.731-.676-1.469-1.073-2.095a92 92 0 0 0-1.377-2.122 35 35 0 0 0-1.392-1.975c-.486-.641-1.073-1.147-1.606-1.734-.019-.019-.027.051-.015.062v.008zM309.45 123.578c.319-1.147.451-2.344.809-3.491.354-1.147.778-2.336 1.295-3.428 0-.008 0-.051-.016-.035-.653.987-1.17 1.974-1.524 3.109-.381 1.225-.712 2.539-.607 3.825 0 .028.027.07.043.02"/><path fill="#000" d="M312.005 125.77c.015-.68-.117-1.364-.202-2.037a36 36 0 0 1-.238-2.573c-.07-1.504-.054-3.028-.015-4.521 0-.015-.016-.019-.016 0-.284 1.567-.342 3.11-.256 4.704.042.828.112 1.663.229 2.484.097.645.183 1.372.478 1.963 0 .007.008 0 .008-.008l.008-.008zM327.646 127.939c.28-1.24.739-2.484 1.209-3.665a21.6 21.6 0 0 1 1.789-3.526l-.21-.396c-.844 2.826-.661 6.005.078 8.835.105.389.335-.05.3-.264-.238-1.372-.502-2.713-.564-4.113-.063-1.399.062-2.81.451-4.167.027-.082-.07-.618-.21-.396-.731 1.174-1.377 2.394-1.879 3.689-.501 1.294-.785 2.596-1.015 3.964 0 .043.043.117.055.043h-.008zM312.332 122.8c.466.307.941.583 1.365.945.424.361.809.688 1.205 1.042.397.353.739.703 1.074 1.076.175.195.342.389.501.591.16.202.3.459.502.618.222.183.21-.326.167-.423-.113-.245-.299-.451-.467-.661a13 13 0 0 0-.528-.618c-.354-.381-.739-.75-1.148-1.085a8 8 0 0 0-1.244-.843c-.436-.237-.926-.513-1.42-.696-.015 0-.015.027 0 .035v.016zM154.334 241.628c.739.09 1.474.272 2.213.237a19 19 0 0 0 2.185-.237 32 32 0 0 0 4.294-1.022c2.796-.863 5.498-1.998 8.162-3.172a172 172 0 0 0 14.84-7.409c9.551-5.38 18.527-11.911 26.235-19.732a77 77 0 0 0 6.012-6.825c1.983-2.547 3.43-5.295 4.503-8.342.008-.028-.007-.14-.027-.082-.945 2.527-2.617 4.715-4.254 6.838-1.739 2.254-3.71 4.342-5.686 6.386-3.725 3.856-7.766 7.398-12.028 10.639-8.567 6.527-17.998 11.899-27.763 16.404-2.862 1.322-5.748 2.617-8.734 3.654a41 41 0 0 1-4.963 1.408 42 42 0 0 1-2.492.439c-.837.124-1.665.377-2.513.501-.105.016-.097.3.008.315l.008.008z"/><path fill="#fff" d="M140.567 189.478c.58 1.127 2.089 2.001 3.5 1.539 1.26-.416 1.894-1.718 1.937-2.764.082-1.87-1.657-3.693-3.208-3.526-1.762.187-3.182 2.908-2.229 4.751"/><path fill="#000" d="M242.787 148.227c-.292.412.07 1.119.521 1.244.175.05.354.042.529-.008.081-.02.167-.051.245-.082.089-.05.175-.116.264-.175.16-.105.315-.229.467-.354a1 1 0 0 0 .291-.353c0-.016 0-.07-.019-.051-.159.237-.404.28-.653.369-.14.051-.273.07-.413.105a1.7 1.7 0 0 1-.451.082c-.21.016-.451-.019-.626-.152-.183-.139-.272-.342-.132-.548.016-.019 0-.116-.019-.081v.008zM246.384 140.701c-.16.202-.354.396-.467.634a1.3 1.3 0 0 0-.089.808c.05.245.159.478.369.618a.54.54 0 0 0 .342.105c.133 0 .238-.054.354-.113.14-.07.257-.175.362-.279.117-.117.264-.214.362-.354 0 0 0-.051-.008-.043-.125.062-.222.175-.362.229a2 2 0 0 1-.381.105.94.94 0 0 1-.404-.019.6.6 0 0 1-.315-.167.6.6 0 0 1-.14-.272.7.7 0 0 1-.008-.265c.054-.342.21-.645.397-.933.007-.015 0-.077-.016-.054zM255.76 149.404c-.019.098 0 .203.008.292.019.14.054.28.116.404.105.21.265.459.502.537.249.081.467-.09.615-.272a1.6 1.6 0 0 0 .334-.681c.051-.272.062-.528.019-.8 0-.035-.027-.02-.027.007 0 .117-.015.245-.05.362-.035.105-.082.194-.133.291a1.6 1.6 0 0 1-.423.529c-.09.07-.203.105-.315.054-.113-.05-.195-.147-.28-.237-.086-.089-.14-.182-.214-.272-.055-.07-.082-.167-.148-.221h-.008v.007zM258.035 134.598c-.082.774.319 1.469.778 2.06.097.125.214.265.369.319.148.051.284 0 .381-.117.23-.28.187-.715.148-1.041-.051-.447-.214-.863-.377-1.287-.02-.051-.035.015-.027.043.105.451.112.909.147 1.372 0 .097.016.186.016.284v.05c0 .02-.008.035-.016.055-.027.081-.147.147-.264.097-.152-.07-.257-.249-.362-.377a7 7 0 0 1-.319-.424c-.21-.292-.381-.626-.377-.995 0-.082-.078-.132-.089-.02l-.008-.015zM265.533 142.466c.097.105.21.186.319.272.097.078.21.14.334.167.284.05.416-.214.439-.451.028-.319-.097-.634-.202-.925a4.1 4.1 0 0 0-.431-.863c-.02-.027-.028.043-.028.05.051.308.113.615.203.906.07.222.186.478.221.688 0 .02 0 .051.008.07v.11299999999999999c-.027.097-.132.186-.229.221-.238.082-.475-.097-.642-.248v.015l.008-.008zM263.93 147.853c-.042.308.105.646.238.926.116.256.28.501.451.715.14.175.381.369.618.307.272-.07.342-.397.292-.634-.02-.116-.078-.221-.132-.326s-.125-.23-.117-.346c0-.027-.027-.062-.027-.016-.027.202.027.381.077.579.008.043.016.082.02.125v.054-.027c0 .016-.019.043 0 .016-.016.019 0 .007 0 0 0 0-.008.015-.016.019a.4.4 0 0 1-.089.054c-.183.051-.381-.139-.486-.272a3.2 3.2 0 0 1-.381-.591 4 4 0 0 1-.152-.334c-.05-.116-.082-.28-.194-.354-.055-.042-.082.082-.09.113l-.008-.008zM271.596 148.604c.015.089 0 .175.015.264q.025.156.078.299c.054.175.132.335.222.486.175.292.396.583.645.813.125.112.28.209.447.159.125-.035.203-.132.245-.249.117-.319.051-.688-.081-.987-.09-.195-.175-.397-.284-.583-.097-.167-.222-.319-.327-.478-.043-.063-.054.089-.05.112.097.354.186.704.326 1.042.027.078.062.148.097.222.02.042.035.081.055.124 0 0 .015.035 0 .016-.016-.02 0 .019.008.019a.4.4 0 0 1 .019.07c.004.027 0-.008 0-.016v.098c-.008.027 0-.043 0-.016v.035-.019c0 .031.02-.02 0 0-.027.027-.027.035-.07.05-.132.043-.257-.07-.342-.151a3.4 3.4 0 0 1-.521-.626c-.082-.132-.16-.28-.249-.412-.035-.055-.062-.113-.105-.16-.043-.046-.097-.07-.132-.124 0-.008-.008 0-.008.015h.015zM247.749 152.401c-.043-.027-.07-.042-.113 0-.027.028-.054.055-.078.09a.7.7 0 0 0-.097.256c-.043.214-.019.44.07.642.07.151.195.28.37.326.077.02.167.008.237-.007a.8.8 0 0 0 .229-.09.85.85 0 0 0 .37-.381s0-.035-.008-.019c-.125.264-.459.334-.712.221a1 1 0 0 1-.183-.097.5.5 0 0 1-.14-.14s-.027-.043-.015-.019c-.008-.016-.016-.027-.02-.043s-.015-.027-.019-.051c0 .008.015.028 0 0 0-.015-.008-.019-.016-.035v-.019c.008.035 0 .016 0 .008s-.015-.043-.007-.051v.016-.055.02-.051s.007-.042 0-.015v-.008q-.002-.014.007-.027v-.02c-.007.035 0 0 0-.007 0-.02.016-.035.02-.055.019-.043.027-.062.05-.089a.5.5 0 0 0 .063-.167c.007-.035.007-.098-.028-.125l.016-.008zM252.579 135.037c-.097-.015-.183.043-.23.117a.37.37 0 0 0-.019.319c.097.237.416.264.614.151.148-.081.257-.237.362-.369 0-.008 0-.043-.008-.035-.186.175-.466.381-.739.299-.089-.027-.21-.105-.186-.213.023-.109.089-.21.21-.203.019 0 .019-.07 0-.077v.007zM234.18 153.564c-.182.186-.388.381-.521.614a2.5 2.5 0 0 0-.291.836c-.035.194-.055.404.042.583.035.062.09.124.168.132.05 0 .105-.02.147-.051a.9.9 0 0 0 .257-.291c.07-.125.167-.265.315-.292.016 0 .016-.035 0-.035a.36.36 0 0 0-.249.062c-.07.051-.148.117-.229.14-.09.02-.16-.019-.237-.05.035.015-.02-.016-.02-.016q.013.2.02.097v-.027c.007-.042.019-.097.035-.151.054-.237.132-.467.221-.688.105-.257.21-.494.381-.712.028-.035.008-.194-.042-.147l.007-.008zM239.714 153.82c-.05.035-.112.055-.159.09-.019.015-.043.027-.062.042-.035.02-.055.051-.078.078a1.6 1.6 0 0 0-.202.37c-.113.326-.125.66-.078 1.002.016.07.051.214.148.175a1.24 1.24 0 0 0 .509-.346c.035-.035.07-.077.105-.112.043-.043.062-.09.09-.14.054-.09.124-.175.175-.272 0 0 0-.051-.016-.043-.062.043-.132.105-.202.132-.043.016-.078.016-.117.035s-.078.043-.116.054c-.168.063-.335.133-.51.195l.148.175c-.008-.035-.016-.07-.02-.113v-.043c0 .02 0 .027 0 0v-.132q-.002-.038.008-.089s.008-.051 0-.02 0-.019 0-.019c0-.027.016-.055.02-.082q.002-.02.015-.043s.016-.05.008-.019c.043-.117.082-.229.14-.342.07-.125.113-.264.202-.377.02-.027.016-.175-.027-.148l.027-.008zM253.559 141.187a7 7 0 0 0-.618 1.174c-.16.408-.343.898-.273 1.349.063.396.397.75.801.509.105-.062.187-.159.28-.237a3 3 0 0 0 .257-.249c.167-.194.342-.389.513-.571.008-.008 0-.055-.007-.043a2.2 2.2 0 0 1-.44.291c-.078.043-.159.063-.237.105-.082.035-.152.09-.237.132-.14.07-.315.168-.475.14a.306.306 0 0 1-.249-.291c0-.183.055-.377.098-.556.042-.194.089-.381.151-.571.117-.397.257-.774.448-1.147 0-.008 0-.043-.016-.027v-.008zM256.234 140.868c-.054.21-.105.439-.112.653 0 .237.035.494.112.715.063.187.203.413.432.378a.6.6 0 0 0 .257-.113c.05-.035.081-.078.116-.117a.4.4 0 0 0 .09-.159l-.027.054c.132-.182.213-.404.412-.528.015-.016.015-.09-.008-.078-.089.027-.167.081-.249.132-.078.051-.132.132-.21.175-.148.082-.327.194-.502.148-.097-.028-.132-.113-.175-.195a1.826 1.826 0 0 1-.132-1.049c0-.016-.008-.043-.015-.02l.007.008zM261.364 143.714c-.07.256-.035.544.05.793.051.14.113.264.195.381.07.104.167.237.28.299.043.027.078-.02.097-.055.222-.423.28-.987 0-1.399 0-.008-.008.016-.008.019.09.187.125.397.098.607a1.2 1.2 0 0 1-.07.249.6.6 0 0 1-.152.202h.105c-.07-.09-.16-.167-.23-.257a1.6 1.6 0 0 1-.159-.272 2 2 0 0 1-.183-.571c0-.016-.015-.02-.019 0zM263.087 138.544c-.035.272.027.548.167.777a1 1 0 0 0 .292.299c.112.07.245.125.377.125.054 0 .081-.105.081-.148a2.8 2.8 0 0 0-.05-.746 1.4 1.4 0 0 0-.28-.583c-.02-.02-.02.035-.02.042.078.202.117.412.16.626.035.195.043.377.008.564l.081-.148c-.105-.027-.21-.05-.307-.105a1.3 1.3 0 0 1-.257-.186.7.7 0 0 1-.175-.21.57.57 0 0 1-.081-.319c0-.008-.008-.016-.008 0l.008.008zM266.33 156.374q.001.334.124.645c.082.206.195.405.347.556.116.113.299.23.466.167.237-.089.195-.439.167-.633a1.1 1.1 0 0 0-.116-.362c-.027-.043-.063-.081-.09-.124-.035-.051-.07-.09-.105-.14-.015-.016-.015.019-.015.027.042.09.089.194.105.292q.024.145.054.291c.016.09.027.167.027.249v.019s-.007.016-.015.028a.2.2 0 0 1-.062.042c-.125.035-.273-.05-.354-.132-.125-.116-.214-.272-.3-.416a2.1 2.1 0 0 1-.21-.521c0-.027-.019 0-.019.016l-.008-.008zM258.801 154.407q.012.322.105.626c.062.202.148.404.257.583.081.14.202.327.389.334.186.008.334-.186.416-.326.112-.187.186-.404.229-.626 0 0-.008-.027-.015-.015-.07.194-.183.346-.327.493-.07.07-.14.16-.237.187-.098.019-.175-.027-.238-.097-.07-.078-.112-.175-.159-.265a4 4 0 0 1-.152-.307c-.046-.105-.081-.21-.116-.315s-.07-.202-.098-.307c-.015-.054-.05 0-.05.027h-.008zM306.627 122.07c-.249-.758-.16-1.691-.148-2.484.015-.828.081-1.656.186-2.484s.222-1.629.343-2.441c.132-.863.214-1.718.315-2.581 0-.043-.035-.117-.055-.051-.256.882-.513 1.745-.688 2.651a31 31 0 0 0-.412 2.768c-.09.933-.148 1.815-.125 2.729.02.715-.027 1.636.416 2.246.14.187.195-.291.168-.361z"/><path fill="#000" d="M309.547 123.154c.055-.377-.062-.758-.151-1.119-.113-.44-.23-.871-.343-1.306a75 75 0 0 1-.715-3.083c-.377-1.85-.724-3.724-1.031-5.578-.008-.051-.043-.027-.043.015.105 1.983.343 3.911.739 5.851.203.979.416 1.963.677 2.934.124.479.249.961.397 1.439.081.256.182.746.439.882.016 0 .02-.015.02-.019l.015-.016zM283.884 130.139c-.291-.746-.731-1.407-1.112-2.106-.501-.898-.976-1.808-1.365-2.756-.774-1.866-1.26-3.814-1.516-5.808l-.238.381c.918 1.197 1.789 2.422 2.688 3.631.447.598.89 1.197 1.349 1.788.21.272.412.536.634.793.222.256.404.544.677.723.081.054.089-.152.077-.187-.284-.676-.801-1.286-1.225-1.885q-.69-.96-1.392-1.905c-.879-1.182-1.781-2.344-2.644-3.541-.175-.237-.245.315-.238.381a22.2 22.2 0 0 0 1.56 6.052c.381.918.813 1.831 1.33 2.686.381.626.793 1.349 1.427 1.753h-.012M168.956 175.277c-.467 2.469-.148 5.182-.089 7.682.062 2.693.14 5.391.237 8.085s.245 5.275.397 7.903c.14 2.491.326 4.987.945 7.409.015.054.05.019.054-.016.292-2.519.202-5.049.089-7.592-.112-2.542-.194-5.154-.291-7.735a571 571 0 0 1-.315-11.522c-.02-1.321.027-2.721-.237-4.019-.105-.502-.642-.98-.786-.195h-.008zM230.284 168.452c.159 1.434.778 2.791 1.24 4.147.44 1.279.813 2.574 1.163 3.884.731 2.763 1.175 5.566 1.544 8.396s.618 5.656.793 8.493c.082 1.365.148 2.721.214 4.086.035.731.055 1.469.132 2.192.055.537.238.906.432 1.392.051.124.14.027.16-.051.159-.528.307-.952.307-1.523 0-.731-.035-1.47-.07-2.201-.07-1.516-.148-3.039-.249-4.555-.187-2.908-.424-5.823-.844-8.712a75 75 0 0 0-1.727-8.423 50 50 0 0 0-1.295-4.132c-.361-.988-.774-2.597-1.703-3.207-.089-.055-.097.175-.089.202l-.008.015z"/><path fill="#fff" d="M213.721 145.766c2.131.097 4.107 1.621 5.172 3.786-.513-.284-3.391-1.788-6.864-.704-2.979.933-4.468 3.161-4.845 3.763.245-4.112 3.438-6.993 6.537-6.845"/><path fill="#000" d="M207.176 153.96c.09-1.803.183-3.549 1.252-5.084.926-1.322 2.334-2.235 3.94-2.449 3.181-.432 5.845 1.566 7.579 4.035.02.035.027-.055.027-.07-.715-2.83-3.068-4.848-5.973-5.205s-5.448 1.337-6.584 3.953c-.618 1.434-1.015 3.382-.307 4.847.019.051.054 0 .054-.035l.008.008z"/><path fill="#fff" d="M204.053 144.526c1.295-1.073 3.251-1.287 4.749-.509-1.066.221-2.108.556-3.069 1.077s-1.816 1.232-2.43 2.13c-.346.513-.704 1.189-.724 1.823.125-.245-.081-.844-.081-1.147 0-.431.07-.855.186-1.267a4.4 4.4 0 0 1 1.365-2.103l.008-.008z"/><path fill="#000" d="M202.506 148.596c-.113-1.446.645-2.993 1.878-3.751.334-.21.677-.389 1.058-.502s.746-.147 1.12-.202a3.5 3.5 0 0 1 1.174.008c.183.027.377.043.564.054.214.016.397.062.607.125.027.007.019-.055 0-.063-.335-.307-.747-.676-1.19-.8-.444-.125-.934-.249-1.377-.249-.836 0-1.781.389-2.388.952-1.24 1.155-1.859 2.764-1.446 4.432v-.008z"/><path fill="#fff" d="M191.963 143.978c.459-.334.98-.571 1.509-.774 1.038-.388 2.135-.618 3.243-.618.424 0 .898.055 1.17.377a6.3 6.3 0 0 0-.307 1.47c-.299-.214-.704-.195-1.065-.14a8.96 8.96 0 0 0-5.542 3.137c-.486.583-.813 1.209-.961 1.955-.653-1.788.479-4.354 1.941-5.407h.012M199.146 141.502a5.89 5.89 0 0 1 4.036-1.94c.362-.019.759 0 1.023.249-.035.447-.054.89-.051 1.341a15 15 0 0 0-4.273 1.971c-.522.346-1.031.73-1.435 1.209-.245.283-.389.618-.592.925-.451-.21.051-1.524.168-1.866a5.9 5.9 0 0 1 1.12-1.885v-.008z"/><path fill="#000" d="M197.64 146.104c.148-.334.07-.731.148-1.077.082-.377.21-.773.354-1.127.315-.777.786-1.496 1.427-2.052a5.5 5.5 0 0 1 2.229-1.17 5.8 5.8 0 0 1 1.19-.168c.424-.015.882.113 1.302.035.343-.062.284-.917.035-1.057-.412-.229-.96-.21-1.419-.183a5.9 5.9 0 0 0-1.439.265c-.89.28-1.699.746-2.368 1.407a6.1 6.1 0 0 0-1.474 2.414c-.16.501-.222.979-.249 1.504-.019.381-.097.925.14 1.26.051.062.105.015.132-.043v-.008z"/><path fill="#000" d="M190.333 149.785c-.019-.486-.175-.952-.167-1.438a4.7 4.7 0 0 1 .257-1.407 5.56 5.56 0 0 1 1.621-2.367c1.587-1.365 3.858-1.516 5.783-.918.389.125.416-.987.113-1.127.175.451.229.544.159.264a.6.6 0 0 0-.097-.21c-.105-.112-.292-.159-.439-.21a4 4 0 0 0-.848-.213 5.5 5.5 0 0 0-1.851 0c-1.206.21-2.302.793-3.197 1.628a6.37 6.37 0 0 0-1.762 2.861 5.7 5.7 0 0 0-.229 1.843c.019.424.07 1.322.502 1.551.124.07.151-.202.151-.257zM204.644 144.083c-.062-.677-.299-1.322-.334-1.998a4.6 4.6 0 0 1 .342-1.963c.253-.622.618-1.198 1.171-1.567.548-.369 1.232-.521 1.894-.563a5.62 5.62 0 0 1 3.772 1.092c.501.377.941.855 1.279 1.384q.264.407.451.855c.125.299.175.598.327.871.194.353.389-.133.377-.335-.054-1.111-.793-2.282-1.544-3.067-.847-.89-1.964-1.481-3.173-1.726s-2.598-.167-3.597.529-1.517 1.92-1.704 3.055a6 6 0 0 0 .016 2.068c.082.475.187 1.24.712 1.411.027.008.027-.042.027-.054l-.008.008z"/><path fill="#fff" d="M197.049 150.349c.669-.502 1.509-.688 2.334-.847.346-.07.704-.133 1.057-.098.315.028.615.132.907.245 1.197.459 2.36 1.112 3.161 2.115-.871-.548-1.905-.813-2.936-.828s-2.053.214-3.014.599c-1.003.396-1.975.975-2.687 1.795-.113.133-.237.475-.389.3-.117-.14 0-.467.035-.614.117-.486.28-.968.51-1.419.249-.486.579-.925 1.015-1.26l.015.016zM185.134 150.92c.614-.439 1.357-.645 2.088-.8a20 20 0 0 1 2.053-.335c.23-.027.459-.05.689-.027.478.043.933.257 1.357.494a12.5 12.5 0 0 1 3.096 2.468c-.21-.159-.487-.21-.747-.256-.813-.14-1.641-.284-2.47-.292-1.073-.008-2.135.21-3.173.486-1.03.28-2.088.641-2.796 1.434-.097.105-.214.23-.346.195-.055-.016-.097-.051-.148-.09a13 13 0 0 1-.883-.812c-.319-.319-.354-.424-.116-.809.377-.618.809-1.232 1.4-1.656z"/><path fill="#000" d="M183.24 153.474c.214-.353.618-.668.91-.968a10 10 0 0 1 1.209-1.03c.91-.645 1.999-1.135 3.104-1.294 1.182-.167 2.345.264 3.368.82.466.257.898.564 1.357.828.486.28.96.509 1.376.89.043.043.043-.089.028-.113-.747-1.127-1.435-2.095-2.653-2.74-1.092-.591-2.352-1.03-3.605-.82-1.12.186-2.228.68-3.146 1.349a6 6 0 0 0-1.24 1.216c-.389.529-.556 1.1-.786 1.703-.015.035.016.237.062.159l.008-.007zM195.692 152.339c.249-.785.829-1.516 1.505-1.99.677-.474 1.49-.634 2.31-.661a5.9 5.9 0 0 1 2.602.537c.424.194.793.458 1.205.676.354.187.751.272 1.093.486.027.015.02-.062.016-.07-.335-.486-.615-1.011-1.066-1.4-.381-.326-.863-.571-1.33-.765-.918-.381-1.913-.548-2.897-.346-.836.175-1.711.746-2.326 1.337-.614.591-1.003 1.306-1.112 2.177 0 .008.008.027.016.015l-.016.008z"/><path fill="#000" d="M121.092 120.258c7.28 4.105 15.228 6.873 22.948 10.006 7.719 3.129 15.264 6.503 22.217 11.172 6.953 4.668 13.526 10.235 20.102 15.591 7.085 5.769 14.12 11.611 21.179 17.407 3.702 3.04 7.447 6.068 10.974 9.31 1.622 1.489 3.376 3.187 4.255 5.244a7.61 7.61 0 0 1-.21 6.402c-.035.07 0 .346.112.237 2.583-2.449 1.42-6.729-.221-9.372-1.05-1.683-2.513-3.102-3.932-4.482-1.622-1.578-3.286-3.137-5.013-4.614-7.163-6.115-14.513-12.023-21.801-17.998-6.875-5.644-13.642-11.444-20.817-16.711-7.004-5.135-14.478-9.329-22.532-12.587-4.519-1.823-9.147-3.393-13.72-5.072-4.574-1.676-9.042-3.491-13.44-5.594-.37-.175-.424.879-.117 1.05l.016.007z"/><path fill="#DBDBDB" d="M219.115 143.962s.183 0 .432-.07c1.011-.291 2.131.07 2.936.747.809.676 1.341 1.621 1.738 2.596.051.117.105.245.214.315.089.055.21.051.315.051 1.276 0 2.466.73 3.321 1.675.856.945 1.427 2.107 1.983 3.258.413-.945 1.198-1.672 2.027-2.29.82-.618 1.711-1.162 2.434-1.893 1.719-1.726 2.434-4.377 4.453-5.734-1.602.634-3.99 1.341-6.899 1.314-2.372-.019-2.742-.645-5.515-.766-3.958-.167-7.447.809-7.447.801z"/><path fill="#000" d="M210.843 145.642c.07-.467.413-.961.696-1.322.308-.397.661-.75 1.078-1.03.898-.583 1.998-.75 3.041-.564 2.142.377 3.71 2.193 4.503 4.121.016.035.027-.02.019-.035-.167-1.252-.653-2.597-1.532-3.534-.879-.941-1.991-1.539-3.251-1.691-1.26-.151-2.45.187-3.368 1.011-.917.82-1.232 1.839-1.24 3.032 0 .043.035.07.043.015h.007z"/><path fill="#000" d="M218.885 144.615c1.4-.653 3.189.315 4.134 1.341a5.1 5.1 0 0 1 1.155 2.068c.113.381.168.778.195 1.174.027.451.089.906.116 1.357 0 .054.063.214.117.097.397-.917.292-1.905.078-2.865a6.1 6.1 0 0 0-1.268-2.6c-.572-.68-1.303-1.252-2.135-1.578-.836-.327-1.824-.494-2.52.147-.159.148-.187 1.011.125.856v.007zM230.008 153.486c.68-2.546 3.298-3.479 4.943-5.259.878-.953 1.365-2.142 2.115-3.18.813-1.127 1.878-2.033 2.928-2.927 2.283-1.94 4.617-3.833 6.903-5.769 2.038-1.726 4.126-3.506 6.514-4.738 1.206-.626 2.477-1.03 3.85-.941s2.707.583 3.955 1.147c2.337 1.057 4.406 2.596 6.417 4.159 2.01 1.563 4.149 3.195 5.977 5.057a22 22 0 0 1 2.415 2.9c.821 1.205 1.439 2.527 2.143 3.798 1.182 2.142 2.804 3.887 4.254 5.831 1.447 1.939 2.765 4.314 3.632 6.693.238.653.592-.182.448-.555-.899-2.309-1.937-4.537-3.349-6.574-1.225-1.768-2.699-3.347-3.896-5.135-1.568-2.344-2.625-4.913-4.504-7.047-1.734-1.971-3.787-3.631-5.841-5.244-3.753-2.95-8.987-7.498-14.155-5.776-2.637.878-4.893 2.915-7.004 4.653-2.396 1.97-4.714 4.027-7.101 6.009-1.241 1.03-2.548 2.033-3.578 3.285-.976 1.182-1.49 2.694-2.582 3.778-1.754 1.753-4.784 2.811-4.706 5.734 0 .14.148.326.202.105l.016-.008z"/><path fill="#000" d="M224.334 147.756c.222.346.766.249 1.147.327.521.105 1.023.353 1.47.645.871.564 1.509 1.419 1.956 2.336.447.918.724 1.955.829 2.986.112 1.1-.098 2.122-.28 3.195l.248-.412c-.05-.008-.081-.02-.132.008-.202.124-.175.509-.116.695l.035.133c.062.209.315.412.423.105.459-1.252.459-2.721.315-4.028a9.3 9.3 0 0 0-1.162-3.611c-.58-1.01-1.393-1.955-2.47-2.433-.501-.222-1.135-.404-1.684-.354-.112.008-.774.105-.571.412h-.008z"/><path fill="#D5D5D5" d="M110.533 46.437c1.109-2.465 3.43-5.435 5.005-4.976.308.09.537.3 1.47 2.08 1.54 2.95 2.31 4.423 2.054 5.259-.37 1.19-1.789 1.76-4.636 2.896-2.469.987-3.702 1.48-4.441.925-1.33-1.003-.214-4.501.544-6.192l.008.008z"/><path fill="#000" d="M108.733 46.277s-2.31 4.404-1.999 7.584c.015.148.07.478.292.634.377.264.871-.082 1.182-.416 2.263-2.45 3.889-5.4 5.491-8.327.68-1.24 1.373-2.526 1.497-3.93.035-.369.02-.75-.14-1.076-.14-.292-.502-.564-.879-.556-.28 0-.494.167-.583.248-3.216 2.706-4.865 5.85-4.865 5.85v-.007zM312.402 122.731c.245.112.466.229.723.307.245.077.494.14.739.21.474.132.968.248 1.427.423.416.16.809.397 1.174.645.187.133.37.28.549.424.14.113.237.175.416.148.019 0 .027-.035.019-.055-.182-.905-1.279-1.243-2.045-1.488a13 13 0 0 0-1.392-.381 34 34 0 0 0-.786-.152c-.28-.05-.548-.07-.828-.097v.023z"/><path fill="#D5D5D5" d="M330.664 119.314a15 15 0 0 0-3.543 3.56 15.14 15.14 0 0 0-2.582 6.422c-.432-.292-.793-.529-1.058-.731-.124-.097-.245-.202-.315-.342a1.2 1.2 0 0 1-.082-.381l-.21-2.457c-.035-.381-.062-.765-.105-1.142-.027-.23-.035-.405.098-.599.634-.941 1.474-1.473 1.474-1.473.773-.475 3.083-1.606 6.319-2.861zM324.473 118.925c-.035-1.022-.063-2.045-.098-3.067 0-.062 0-.124.02-.187.027-.07.082-.124.14-.182a28.8 28.8 0 0 1 6.417-4.467c-.486.548-.98 1.1-1.4 1.703-1.342 1.936-1.886 4.299-2.318 6.616a.53.53 0 0 1-.09.249c-.035.042-.077.07-.116.105 0 .07-.502.353-.572.404-.187.132-.381.272-.572.404-.381.272-.758.591-1.17.828-.245.148-.249 0-.245-.245s.027-.474.027-.703q0-.731-.027-1.462z"/><path fill="#000" d="M321.159 118.863c.257-.976.265-2.037.319-3.048.055-1.01.09-2.103.055-3.152-.07-2.061-.389-4.097-1.147-6.025l-.195.59c1.738 1.761 2.769 4.097 3.36 6.469s.809 5.045.681 7.591c-.008.14-.016.502.175.556.19.055.264-.182.272-.326.257-5.19-.548-11.063-4.321-14.939-.249-.256-.229.486-.194.591.715 1.85 1.003 3.833 1.042 5.808q.029 1.452-.054 2.899c-.055.964-.195 1.94-.125 2.908 0 .082.097.222.132.07z"/><path fill="#000" d="M324.068 115.702c.448-.256.751-.653 1.109-1.014a19.623 19.623 0 0 1 3.982-3.164c1.972-1.205 4.099-2.002 6.347-2.484l-.063-.715c-4.122 2.414-6.801 6.553-8.582 10.888-.063.147-.082.388.015.528.082.113.195.152.265 0 1.781-4.194 4.246-8.493 8.407-10.705.16-.082.148-.75-.062-.715-2.267.404-4.476 1.294-6.44 2.491a19.6 19.6 0 0 0-2.769 2.061c-.863.765-1.773 1.601-2.267 2.651-.016.035-.019.245.054.202l.008-.016z"/><path fill="#000" d="M322.423 124.266c3.014-3.988 7.992-6.597 12.904-7.32l-.051-.579c-.646.319-1.233.809-1.808 1.24-.58.432-1.101.855-1.638 1.295a29 29 0 0 0-3.048 2.899c-1.922 2.107-3.559 4.502-4.531 7.196l.416.342q-.01-.168-.027-.335c-.02-.229-.237-.59-.346-.186a5 5 0 0 0-.078.28c-.051.182-.051.486.078.641.105.125.245.14.315-.05.96-2.651 2.45-5.065 4.328-7.161a34 34 0 0 1 3.057-2.977 32 32 0 0 1 1.637-1.314c.56-.424 1.198-.828 1.738-1.306.09-.078.148-.614-.05-.579-2.625.458-5.13 1.306-7.447 2.635a21.5 21.5 0 0 0-3.259 2.297c-.945.809-1.894 1.672-2.213 2.916 0 .015 0 .097.027.062l-.008.008z"/><path fill="#DBDBDB" d="M107.492 143.819c.175 1.173.354 2.351.529 3.521.07.459.14.918.078 1.376-.055.397-.202.774-.346 1.147-2.839 7.028-7.016 13.796-13.3 18.033-.168-1.613-.941-4.14-.486-5.707.396-1.391 2.205-2.861 3.11-3.988 2.38-2.97 4.671-6.017 6.857-9.135q.928-1.323 1.839-2.659c.292-.423 1.805-2.13 1.735-2.6l-.008.008z"/><path fill="#000" d="M92.979 168.98c.73.926 2.026-.318 2.68-.847a35 35 0 0 0 2.776-2.5c1.824-1.803 3.488-3.786 4.989-5.858 1.505-2.071 2.847-4.244 3.959-6.538 1.182-2.429 1.879-4.785 1.754-7.498 0-.055-.05-.14-.078-.043-.319 1.19-.836 2.398-1.287 3.557a33 33 0 0 1-1.559 3.389 49 49 0 0 1-4.255 6.609c-1.586 2.087-3.235 3.895-5.04 5.675-.94.933-1.901 1.85-2.986 2.616-.273.187-1.342.976-.969 1.446l.008-.008z"/><path fill="#DBDBDB" d="M102.662 136.798c.14-.214.284-.431.494-.571.214-.148.475-.187.723-.23a33 33 0 0 1 2.52-.318c-2.679 3.708-5.366 7.416-8.046 11.125-2.135 2.95-4.274 5.908-6.132 9.053.248-.424-.522-1.804-.432-2.371.105-.688.785-1.376 1.147-1.936 1.077-1.629 2.15-3.261 3.228-4.89l6.506-9.858h-.016z"/><path fill="#000" d="M100.158 149.572c.952-.148 1.411-1.209 1.439-1.275.431-1.05.105-2.636-1.136-3.095-1.206-.447-2.563.447-2.839 1.516-.377 1.439 1.24 3.048 2.532 2.846v.008zM92.294 158.971c-2.706 1.376-3.95 4.521-3.772 7.436.23 3.771 1.832 7.32 2.018 11.117.3 6.142-2.17 12.195-5.872 17.011-3.931 5.108-9.19 8.995-14.49 12.563l-.956.642q-.555.365-1.109.738c-2.065 1.388-4.11 2.799-6.047 4.373a59 59 0 0 0-6.63 6.313c-3.963 4.416-7.448 9.516-9.851 14.95v.008c-.012.043-.035-.035-.027-.058 2.512-6.581 6.008-12.556 10.76-17.78a53.3 53.3 0 0 1 6.573-6.096c1.648-1.29 3.371-2.476 5.106-3.65l1.108-.746c.727-.494 1.454-.987 2.178-1.489 5.401-3.743 10.69-7.933 14.303-13.504 1.746-2.686 3.057-5.691 3.663-8.843.673-3.506.11-6.741-.72-10.157-.703-2.908-1.278-5.901-.637-8.871.521-2.406 1.746-4.711 4.173-5.574.552-.195.65 1.407.23 1.617"/><path fill="#000" d="M93.313 168.444c-.237-1.983-1.057-3.93-1.614-5.843a150 150 0 0 1-1.559-5.815 154 154 0 0 1-2.47-12.128c-.151-.96-.416-1.975-.447-2.95-.027-1.05.607-1.551 1.505-1.94 1.754-.758 3.792-1.073 5.64-1.543a216 216 0 0 1 5.91-1.435c.934-.209 1.867-.415 2.804-.606.871-.183 2.104-.509 2.804.245.704.75.793 2.359.968 3.296.203 1.085.362 2.177.494 3.277.133 1.1.238 2.2.343 3.297s.124 2.204.486 3.226c.054.159.159.078.182-.055.354-2.079-.097-4.45-.353-6.534-.257-2.083-.545-4.466-1.233-6.554-.222-.688-.591-1.376-1.303-1.663-.871-.346-1.878-.051-2.757.132-2.318.486-4.616 1.03-6.91 1.601-2.144.537-4.321 1.023-6.44 1.672-1.374.416-2.599 1.146-2.793 2.686-.117.96.113 1.955.249 2.9.183 1.209.377 2.421.591 3.63a151 151 0 0 0 1.384 6.888 151 151 0 0 0 1.832 7.297c.354 1.286.731 2.573 1.128 3.848.354 1.127.626 2.398 1.287 3.394.187.283.28-.183.265-.327h.007z"/><path fill="#000" d="M92.29 154.683a153 153 0 0 0 3.843 12.727c-.284.377-.67.82-1.175 1.259a8 8 0 0 1-1.87 1.205c-3.594-14.289-6.012-24.851-6.207-27.187-.043-.474-.027-1.216.381-1.936 1.004-1.753 3.683-1.99 5.04-2.017-.214.035-1.672.272-2.38 1.539-.28.494-.342.98-.354 1.303a150 150 0 0 0 2.734 13.115h-.008zM243.891 73.736c.389.265.809.214 1.268.214q.796-.001 1.579-.043c.785-.042 1.606-.151 2.302-.548 1.419-.8 2.104-2.705 2.582-4.167.529-1.64.871-3.339 1.505-4.948.307-.774.731-1.606 1.307-2.212.785-.812 1.964-.327 2.185.73.222 1.058.008 2.415-.124 3.515-.159 1.321-.509 2.608-.856 3.887-.07.249.187 1.364.413.758.793-2.165 1.057-4.517 1.112-6.803.027-.933 0-1.955-.412-2.81-.346-.715-1.148-1.337-1.964-.96-.751.342-1.252 1.321-1.602 2.017-.459.91-.809 1.858-1.093 2.83-.549 1.858-.941 3.84-1.964 5.516-.642 1.05-1.497 1.621-2.715 1.796-.556.078-1.12.09-1.683.113-.599.02-1.377-.043-1.867.334-.183.14-.167.645.019.773v.008z"/><path fill="#D5D5D5" d="M264.875 73.76c-.256.75-.871 1.306-1.473 1.815a47 47 0 0 1-2.909 2.254c1.174-.089 2.29-.536 3.383-.975 1.571-.642 3.181-1.33 4.379-2.53.369-.378.704-.802.863-1.303.16-.502.113-1.085-.21-1.504-.459-.591-1.303-.677-2.045-.704-.926-.035-2.334-.291-3.181.082.968.641 1.613 1.663 1.205 2.86h-.008z"/><path fill="#D5D5D5" d="M252.758 84.5c2.617.02 5.444-.02 7.533-1.602.777-.59 1.407-1.372 1.956-2.184a20 20 0 0 0 1.462-2.554c.222-.466.431-.953.774-1.341.342-.389.848-.677 1.365-.607a73 73 0 0 1-1.781 5.742c-.424 1.174-.879 2.36-1.544 3.417-.319.513-.696 1.01-1.175 1.376-.883.688-2.037.91-3.154.968-3.527.186-6.972-1.05-10.503-1.19-.988-.043-1.992 0-2.937-.28.105-.536.09-1.578.572-1.936s1.489-.034 2.018.008c1.805.148 3.621.16 5.429.175l-.008.008z"/><path fill="#000" d="M244.471 86.852c1.295.653 3.056.486 4.483.618 1.428.132 2.723.284 4.08.431 2.267.245 4.686.739 6.875-.132 2.062-.812 3.314-2.503 4.099-4.494a35 35 0 0 0 1.175-3.451c.389-1.338.82-2.74.844-4.132 0-.016-.035-.284-.07-.222-.308.466-.389 1.108-.529 1.648a64 64 0 0 1-.521 1.913c-.378 1.267-.759 2.588-1.373 3.755-1.011 1.912-2.617 3.47-4.795 3.922-2.038.416-4.204-.082-6.25-.222-1.287-.09-2.574-.116-3.861-.183-1.287-.062-2.936-.404-4.169.078-.113.043-.082.416.015.467z"/><path fill="#F0D267" d="M244.887 71.342h-4.531a.6.6 0 0 0-.599.598v15.996c0 .33.268.599.599.599h4.531a.6.6 0 0 0 .599-.599V71.94a.6.6 0 0 0-.599-.598"/><path fill="#000" d="M255.725 71.136c.844.21 1.824.035 2.687 0 .941-.035 1.878-.05 2.82-.05 1.839 0 3.675.054 5.506.201.712.063 1.762.132 2.178.82.397.646-.801 1.408-1.252 1.746-1.427 1.084-2.812 2.235-4.309 3.222-.027.02-.027.148.019.132 1.871-.715 3.827-1.57 5.278-3.004.917-.91 1.162-2.636 0-3.48-.766-.555-1.852-.536-2.75-.59a75 75 0 0 0-3.488-.148c-1.163-.02-2.334 0-3.492.055-1.039.05-2.283-.016-3.252.396-.175.078-.124.645.055.696zM240.002 88.52c.537.547 1.074.388 1.797.45.793.07 1.579.082 2.372.097.459.008.953.09 1.28-.299.283-.342.315-.906.315-1.33-.055-3.743-.035-7.498-.008-11.249.008-1.473.28-3.11-.284-4.517-.618-1.543-2.158-1.084-3.535-1.01-.521.027-1.56-.133-1.972.256-.447.416-.346 1.419-.361 1.947-.051 1.866-.016 3.736 0 5.602 0 2.157-.008 4.307 0 6.464 0 .51.042 1.05-.055 1.544-.054.299-.148.563-.14.878.016.486.14.96.618 1.147.09.035.078-.187.055-.23-.3-.52-.027-1.1.019-1.655.063-.786 0-1.594.016-2.38.019-1.418.019-2.837.019-4.252v-6.464c0-.343-.089-.863.043-1.19.195-.494.681-.396 1.128-.424.669-.035 1.33-.077 1.999-.112s1.384-.16 1.754.555c.307.6.202 1.303.202 1.948 0 .746 0 1.489-.016 2.235-.015 2.923-.077 5.843-.077 8.774 0 .668.062 1.34.07 2.01 0 .722-.634.613-1.183.625-.653.02-1.302.043-1.956.105-.688.062-1.384.342-2.061.16-.089-.028-.07.272-.027.306h-.016z"/><path fill="#F0D267" d="M227.904 78.405c.381.221.82.21 1.244.21s.891 0 1.33-.02c.899-.035 1.774-.202 2.653-.388.035-.008.027-.105 0-.113-.891-.148-1.77-.272-2.664-.257-.448 0-.891.02-1.33.043-.44.02-.871.027-1.241.272-.062.043-.054.222 0 .257h.008zM269.145 59.96c-.062.043-.167.043-.237.082-.078.05-.151.105-.229.151-.152.117-.292.272-.432.412-.284.292-.564.599-.82.918-.273.334-.51.695-.739 1.065-.249.404-.494.828-.716 1.244-.008.015 0 .105.016.09.116-.117.214-.257.334-.378.125-.132.265-.249.389-.377.284-.28.564-.571.821-.87.256-.3.544-.634.812-.953.14-.167.284-.327.416-.502.07-.089.141-.186.203-.283.081-.117.132-.265.21-.381.019-.035.027-.257-.043-.214l.015-.008zM239.668 59.307c.264.87.688 1.699 1.182 2.464.214.335.467.661.751.945.14.14.283.272.447.381.163.109.307.256.466.37.035.019.028-.098.016-.117a27 27 0 0 1-.766-1.205c-.245-.412-.478-.778-.723-1.17-.44-.704-.794-1.439-1.198-2.166-.055-.105-.14 0-.168.063-.05.124-.05.299-.015.431h.008zM238.521 97.328a.4.4 0 0 0 .229-.097c.078-.063.148-.117.222-.183.147-.125.284-.264.424-.397q.448-.45.843-.94a7.5 7.5 0 0 0 1.039-1.668c.097-.214.221-.44.28-.66 0-.02 0-.106-.027-.09-.07.027-.105.09-.152.147-.062.078-.132.133-.21.195-.125.113-.245.249-.362.377-.28.3-.529.626-.778.945-.248.318-.521.66-.777.987-.28.346-.599.68-.786 1.077-.019.05-.043.342.062.318v-.015zM266.999 90.56c.062.45.292.879.509 1.267.214.389.451.747.712 1.093.237.326.486.645.801.897.3.245.642.39.968.584.028.015.02-.07.016-.082-.299-.354-.529-.766-.809-1.143-.257-.346-.521-.68-.785-1.03-.245-.326-.459-.66-.681-1.003-.105-.16-.194-.319-.299-.478-.09-.14-.16-.342-.319-.412-.125-.055-.125.245-.117.3l.016.007zM273.326 77.674c.747.16 1.532.062 2.291.113.369.02.746.062 1.112.062.089 0 .152-.02.245-.035a1 1 0 0 1 .319 0c.186.02.369.035.556.07.035 0 .035-.124 0-.148-.183-.09-.362-.194-.548-.28-.113-.05-.222-.081-.315-.159a1.1 1.1 0 0 0-.238-.14c-.361-.148-.774-.222-1.155-.257a6 6 0 0 0-1.17.016 3.3 3.3 0 0 0-.58.117c-.21.054-.369.147-.548.256-.089.055-.082.362.027.381z"/><path fill="#000" d="M153.027 178.582c.144 5.694.3 11.389.451 17.084.125 4.61.249 9.224.362 13.834.105 4.241.198 8.486.276 12.727.082 4.525.14 9.053.187 13.578.054 5.524.081 11.047.097 16.571 0 .797.004 1.59.004 2.387 0 .33 1.128.124 1.128-.303-.012-5.699-.035-11.394-.086-17.092a1637 1637 0 0 0-.439-26.565c-.109-4.525-.23-9.05-.354-13.574-.148-5.524-.3-11.044-.44-16.568-.019-.793-.042-1.59-.062-2.383-.008-.338-1.139-.12-1.128.304zM68.098 181.684c-1.622 3.102-3.13 6.27-4.36 9.55-1.057 2.819-1.92 5.75-1.87 8.766a72 72 0 0 0-11.612-3.829 60 60 0 0 0-6.34-1.162 39 39 0 0 0-3.363-.28c-1.042-.043-2.178-.202-3.05.474-.034.027-.038.117 0 .144v.008c.748.641 1.673.711 2.614.843 1.07.144 2.135.327 3.209.486 2.185.319 4.355.731 6.506 1.225a70 70 0 0 1 12.565 4.202c.268.116.459-.222.505-.439.05-.238.101-.471.152-.708.004-.031.008-.058.004-.089-.33-3.398.684-6.745 1.878-9.882q.426-1.112.887-2.208h.004c1.007-2.382 2.146-4.707 3.344-7 .284-.541-.855-.513-1.073-.101M94.636 77.18c-1.221 2.138-3.314 3.304-5.608 3.763.614 2.542 1.233 5.077 1.85 7.615a409 409 0 0 1-7.065-7.607 11.2 11.2 0 0 1-2.66-.844c-1.824-.843-3.325-2.2-4.356-4.136a11.5 11.5 0 0 1-.75-1.745 12.3 12.3 0 0 1-.6-2.818c-.128-1.407-.007-2.838.432-4.14q.03-.088.063-.175a5.357 5.357 0 0 1 .26-.641c.39-.805.96-1.49 1.65-2.064q.408-.345.862-.63c1.467-.94 3.255-1.481 4.87-1.652.466-.05.94-.07 1.411-.059a10.6 10.6 0 0 1 3.329.607c1.33.478 2.318 1.267 3.115 2.375.101.132.194.272.288.416h-.008c.035.062-.008.303-.07.214-.494-.708-1.198-.945-1.968-1.233-.731-.264-1.427-.563-2.185-.73a11.5 11.5 0 0 0-4.547-.074c-1.878.342-4.036 1.294-5.362 2.834-.553.64-.96 1.38-1.148 2.223a7.6 7.6 0 0 0-.159 1.182 8.7 8.7 0 0 0 .37 2.958 9.6 9.6 0 0 0 1.886 3.471c.886 1.03 1.99 1.816 3.216 2.367 1.485.677 3.146 1.011 4.81 1.042a11 11 0 0 0 2.124-.16c2.142-.368 4.052-1.356 5.802-2.825.16-.14.194.38.148.466"/><path fill="#000" d="M97.058 57.608c-.396 1.68-1.205 5.093-3.745 6.158-2.582 1.084-4.694-1.217-8.575-1.03-3.25.155-5.806 1.962-7.408 3.405q-.208-.404-.416-.809l-.171-.334q-2.69-5.235-5.375-10.465A115.5 115.5 0 0 1 83.79 43.082a116.5 116.5 0 0 1 12.449-8.634 30.3 30.3 0 0 0-.747 7.304c.14 7.343 2.886 10.259 1.567 15.856"/><path fill="#000" d="M155.407 30.872a66.5 66.5 0 0 0-17.41-5.12 64 64 0 0 0-5.725-.602 62 62 0 0 0-3.815-.128c-3.5-.02-6.568.24-9.088.58 1.458.349 3.344.96 5.386 2.055a22.8 22.8 0 0 1 5.087 3.693 67 67 0 0 0-14.265-1.531 67.2 67.2 0 0 0-15.376 1.8c1.085 7.51 1.831 13.235 2.286 16.244.121.809.366 2.383-.373 3.988-.642 1.411-1.439 1.52-2.096 2.62-.642 1.07-.77 2.434.556 7.266.393 1.41.91 3.136 1.594 5.096l-5.65 2.13c-.965-1.917-2.598-4.377-5.29-6.294q-.594-.431-1.26-.816v.02c-.707-.416-2.838-1.645-5.183-2.185-1.847-.428-3.83-.424-5.351.754a4.7 4.7 0 0 0-.93.956c-.462.626-.8 1.372-1.01 2.189-.047.167-.082.338-.117.509a5.3 5.3 0 0 0-.634.902l.17.334a5.9 5.9 0 0 0-1.034 1.936c-.439 1.302-.56 2.733-.431 4.14-7.708-9.069-9.365-11.977-10.543-14.492-2.547-5.414-6.724-14.297-2.866-22.639 2.913-6.305 8.971-9.166 11.48-10.18-1.299-2.332-2.318-5.244-1.715-8.268C73.912 5.306 94.317.482 106.656.649c27.094.358 45.193 25.15 48.751 30.223"/></g><defs><clipPath id="a"><path fill="#fff" d="M0 0h384v242H0z"/></clipPath></defs></svg>