<svg xmlns="http://www.w3.org/2000/svg" width="74" height="74" fill="none" viewBox="0 0 74 74"><circle cx="37" cy="37" r="37" fill="#FAECBC"/><g clip-path="url(#a)"><path fill="#fff" fill-rule="evenodd" d="M41.07 45.628a.37.37 0 0 1-.312-.18.366.366 0 0 1 .111-.506l2.679-1.731-3.94 2.275a.366.366 0 0 1-.5-.127.373.373 0 0 1 .105-.507l7.46-5.006-7.102 4.103a.374.374 0 1 1-.395-.634l7.378-4.96-6.983 4.028a.373.373 0 0 1-.387-.634l3.73-2.403-3.313 1.91a.365.365 0 0 1-.5-.126.37.37 0 0 1 .105-.508l4.722-3.126-4.32 2.537a.373.373 0 0 1-.395-.627l5.565-3.849-5.17 2.984a.366.366 0 0 1-.5-.12.373.373 0 0 1 .105-.507l5.431-3.73-5.035 2.91a.373.373 0 1 1-.396-.634l2.984-1.992-2.573 1.492a.38.38 0 0 1-.508-.127.373.373 0 0 1 .12-.507l1.007-.672-.62.358a.373.373 0 0 1-.395-.626l2.843-1.962-2.447 1.41a.373.373 0 0 1-.5-.112.38.38 0 0 1 .09-.508l3.416-2.603-2.984 1.738a.38.38 0 0 1-.492-.112.366.366 0 0 1 .074-.5l2.044-1.656-1.626.94a.373.373 0 0 1-.455-.59l1.343-1.364-.925.522a.358.358 0 0 1-.552-.373l.246-1.246a.373.373 0 0 1-.067-.671l.373-.217a.373.373 0 0 1 .552.396l-.217 1.074 2.56-1.492a.373.373 0 0 1 .447.582L41.638 29l3.38-1.948a.373.373 0 0 1 .5.113.38.38 0 0 1-.075.5L43.39 29.32l3.932-2.238a.373.373 0 0 1 .5.112.38.38 0 0 1-.09.508l-3.417 2.603 5.483-3.163a.373.373 0 0 1 .403.627l-2.842 1.954 3.595-2.074a.373.373 0 0 1 .55.404.36.36 0 0 1-.162.23l-1.014.672 1.245-.746a.38.38 0 0 1 .508.127.373.373 0 0 1-.112.507l-2.984 1.984 3.297-1.895a.365.365 0 0 1 .5.12.373.373 0 0 1-.105.507l-5.445 3.76 5.968-3.446a.373.373 0 1 1 .395.633l-5.565 3.783 6.08-3.507a.357.357 0 0 1 .5.127.373.373 0 0 1-.112.508l-4.722 3.125 5.132-2.984a.373.373 0 0 1 .388.634l-3.73 2.403 4.029-2.328a.373.373 0 0 1 .395.634l-7.378 4.969 7.616-4.402a.374.374 0 0 1 .396.634l-7.468 5.013 7.192-4.155a.373.373 0 0 1 .388.634l-2.678 1.73 2.297-1.327a.373.373 0 0 1 .396.634l-6.035 4.275 5.64-3.26a.373.373 0 0 1 .5.126.365.365 0 0 1-.098.5l-3.976 2.85 3.573-2.059a.373.373 0 0 1 .425.612l-3.438 2.73 3.02-1.745a.373.373 0 0 1 .433.604l-1.954 1.693 1.492-.88a.373.373 0 0 1 .432.604l-.432.38a.365.365 0 0 1 .462.083.36.36 0 0 1 0 .47l-.328.432a.38.38 0 0 1 .398.469.37.37 0 0 1-.174.225l-1.417.82a.38.38 0 0 1-.47-.081.38.38 0 0 1 0-.47l.283-.366-1.514.918a.373.373 0 0 1-.492-.105.38.38 0 0 1 .06-.5l.432-.38-1.716.985a.366.366 0 0 1-.485-.105.373.373 0 0 1 .06-.5l1.954-1.693-3.99 2.305a.373.373 0 0 1-.419-.619l3.44-2.73-5.804 3.35a.373.373 0 0 1-.403-.627l3.976-2.85-6.028 3.476a.366.366 0 0 1-.5-.12.39.39 0 0 1 .098-.506l6.042-4.275-8.504 4.909a.33.33 0 0 1-.224.052" clip-rule="evenodd"/><path fill="#3D3B33" fill-rule="evenodd" d="M41.465 44.533a.35.35 0 0 1-.223-.075.37.37 0 0 1-.142-.388l.134-.53-1.492.88a.38.38 0 0 1-.477-.089.37.37 0 0 1 0-.477l.798-.903-2.424 1.402a.373.373 0 0 1-.493-.111.38.38 0 0 1 .06-.5l1.067-.888-2.484 1.432a.365.365 0 0 1-.5-.111.373.373 0 0 1 .09-.508l1.029-.746-2.305 1.335a.373.373 0 0 1-.5-.126.36.36 0 0 1 .097-.5l1.066-.746-2.312 1.313a.373.373 0 0 1-.5-.127.365.365 0 0 1 .097-.507l2.007-1.388-3.387 1.947a.375.375 0 1 1-.403-.634l4.357-3.021-6.237 3.573a.373.373 0 0 1-.388-.634l2.238-1.492-3.573 2.06a.36.36 0 0 1-.5-.135.373.373 0 0 1 .12-.507l.596-.374-1.678.963a.373.373 0 0 1-.388-.634l1.358-.858-2.485 1.455a.367.367 0 0 1-.507-.127.373.373 0 0 1 .12-.508l7.057-4.617-8.952 5.177a.373.373 0 0 1-.38-.634l3.05-1.917-4.334 2.499a.366.366 0 0 1-.507-.134.373.373 0 0 1 .119-.508l4.745-2.984-5.715 3.32a.365.365 0 0 1-.507-.134.373.373 0 0 1 .12-.508l4.714-2.932-5.17 2.984a.365.365 0 0 1-.5-.156.38.38 0 0 1 .113-.507l12.025-7.759-12.391 7.154a.36.36 0 0 1-.5-.134.373.373 0 0 1 .12-.507l9.145-5.767-8.892 5.133a.366.366 0 0 1-.507-.135.373.373 0 0 1 .12-.507l9.436-5.968-9.05 5.267a.375.375 0 1 1-.387-.642l11.19-7.139-10.802 6.207a.373.373 0 0 1-.507-.127.373.373 0 0 1 .12-.537l11.018-7.028-10.631 6.17a.373.373 0 0 1-.388-.634l12.496-8.072-12.108 6.99a.373.373 0 0 1-.38-.641l6.191-3.865-5.811 3.35a.38.38 0 0 1-.507-.127.373.373 0 0 1 .12-.507l10.682-6.893-10.295 5.968a.38.38 0 0 1-.507-.127.373.373 0 0 1 .12-.552l10.025-6.557-9.638 5.564a.372.372 0 0 1-.388-.634l6.572-4.267-6.184 3.574a.384.384 0 0 1-.388-.664l4.924-3.208-4.536 2.648a.376.376 0 0 1-.403-.634l6.416-4.476-6.013 3.492a.365.365 0 0 1-.5-.12.366.366 0 0 1 .097-.507l4.23-2.984-3.827 2.238a.374.374 0 1 1-.41-.627l3.379-2.462-2.984 1.716a.373.373 0 0 1-.403-.626l1.052-.746-.649.372a.373.373 0 0 1-.492-.104.366.366 0 0 1 .06-.492l1.94-1.686-1.456.82a.373.373 0 0 1-.462-.574l.918-.992a.37.37 0 0 1-.299-.187.367.367 0 0 1 .134-.507l1.701-1.014a.38.38 0 0 1 .478.089.366.366 0 0 1 0 .485l-.746.858 2.626-1.492a.373.373 0 0 1 .492.104c.105.159.08.37-.06.5l-1.947 1.663 3.976-2.29a.365.365 0 0 1 .5.12.373.373 0 0 1-.097.507l-1.052.746 2.395-1.372a.373.373 0 0 1 .5.119.365.365 0 0 1-.097.5l-3.372 2.469 5.356-3.088a.373.373 0 0 1 .5.119.373.373 0 0 1-.105.507l-4.222 2.984 6.2-3.58a.373.373 0 0 1 .5.119.373.373 0 0 1-.105.507l-6.408 4.476 8.803-5.132a.373.373 0 0 1 .395.634l-4.931 3.207 6.662-3.841a.373.373 0 0 1 .388.634l-6.573 4.267 8.49-4.901a.373.373 0 0 1 .388.634l-10.027 6.58 12.115-6.998a.375.375 0 1 1 .388.641l-10.682 6.9 11.51-6.661a.38.38 0 0 1 .508.134.373.373 0 0 1-.127.508l-6.207 3.871 6.319-3.648a.372.372 0 0 1 .388.634L29.313 27.71l12.294-7.094a.373.373 0 0 1 .388.634l-11.018 7.027 10.63-6.14a.373.373 0 0 1 .388.635l-11.19 7.139L41.6 23.674a.38.38 0 0 1 .507.135.373.373 0 0 1-.12.507l-9.429 5.968 9.05-5.222a.366.366 0 0 1 .499.134.373.373 0 0 1-.12.507l-9.123 5.76 8.766-5.066a.38.38 0 0 1 .507.134.373.373 0 0 1-.12.508l-12.032 7.773 11.63-6.714a.375.375 0 0 1 .388.642l-4.715 2.94 4.327-2.508a.38.38 0 0 1 .507.135.373.373 0 0 1-.12.507l-4.751 2.984 4.364-2.522a.375.375 0 0 1 .388.642l-3.037 1.902 2.649-1.536a.38.38 0 0 1 .395.641l-7.064 4.618 6.714-3.857a.366.366 0 0 1 .5.134.373.373 0 0 1-.12.508l-1.35.857.97-.559a.373.373 0 0 1 .507.127.373.373 0 0 1-.12.507l-.619.396.232-.135a.373.373 0 0 1 .387.634l-2.238 1.492 1.873-1.082a.373.373 0 0 1 .5.128.357.357 0 0 1-.097.5l-4.357 3.058 3.954-2.29a.38.38 0 0 1 .507.127.373.373 0 0 1-.104.507l-2.067 1.38 1.604-.933a.376.376 0 0 1 .403.634l-1.06.746.665-.387a.373.373 0 0 1 .402.626l-1.029.746.627-.365a.373.373 0 0 1 .425.611l-1.067.888.642-.365a.36.36 0 0 1 .47.081c.12.14.12.346 0 .486l-.791.902.328-.194a.37.37 0 0 1 .41 0c.12.09.174.243.135.388l-.187.746c.063.03.116.08.15.142a.38.38 0 0 1-.135.515l-.35.2a.4.4 0 0 1-.195.09" clip-rule="evenodd"/><path fill="#878067" fill-rule="evenodd" d="M56.863 52.76a.36.36 0 0 1-.276-.126.37.37 0 0 1 0-.477l.895-1.171-2.812 1.626a.373.373 0 0 1-.425-.605l1.492-1.283-1.642.933a.373.373 0 0 1-.432-.604l2.238-1.97-3.253 1.873a.366.366 0 0 1-.5-.12.38.38 0 0 1 .097-.507l.247-.172-.978.56a.365.365 0 0 1-.492-.12.373.373 0 0 1 .082-.507l2.648-1.94-4.177 2.395a.38.38 0 0 1-.5-.12.38.38 0 0 1 .09-.506l3.73-2.76-6.573 3.789a.365.365 0 0 1-.507-.134.38.38 0 0 1 .134-.515l12.28-7.094a.373.373 0 0 1 .402.626l-3.73 2.768 3.842-2.238a.38.38 0 0 1 .5.12.373.373 0 0 1-.09.499l-2.596 1.947 2.208-1.238a.366.366 0 0 1 .5.119.374.374 0 0 1-.097.508l-.32.23a.373.373 0 0 1 .35.635l-2.238 1.977 1.805-1.045a.373.373 0 0 1 .492.105.38.38 0 0 1-.059.5L57.706 50l1.06-.582a.366.366 0 0 1 .47.074.395.395 0 0 1 0 .478l-.918 1.164.432-.247a.374.374 0 0 1 .593.314.37.37 0 0 1-.22.328l-2.088 1.209q-.084.033-.172.022" clip-rule="evenodd"/><path fill="#878067" fill-rule="evenodd" d="M30.895 52.768a.373.373 0 0 1-.216-.678l6.191-4.41-6.714 3.895a.38.38 0 0 1-.507-.127.373.373 0 0 1 .082-.537l.955-.634-1.41.82a.38.38 0 0 1-.5-.12.38.38 0 0 1 .09-.506l4.558-3.29-6.095 3.52a.38.38 0 0 1-.5-.118.38.38 0 0 1 .097-.508l2.984-2.118-4.506 2.588a.373.373 0 0 1-.507-.12.38.38 0 0 1 .104-.506l3.119-2.238-5.633 3.252a.365.365 0 0 1-.507-.134.38.38 0 0 1 .135-.515l12.368-7.132a.366.366 0 0 1 .5.12.38.38 0 0 1-.097.507l-3.118 2.238 4.93-2.842a.373.373 0 0 1 .403.626l-2.983 2.12 4.714-2.769a.365.365 0 0 1 .5.12.373.373 0 0 1-.09.5l-4.565 3.357 6.9-3.977a.373.373 0 0 1 .388.634l-.895.627 2.186-1.26a.365.365 0 0 1 .5.119.373.373 0 0 1-.097.507l-6.184 4.409 8.728-5.036a.373.373 0 0 1 .395.627l-4.715 3.178 6.595-3.805a.365.365 0 0 1 .5.12.366.366 0 0 1-.097.507l-5.647 3.939 7.915-4.566a.373.373 0 0 1 .5.12.373.373 0 0 1-.105.507l-4.64 3.148 6.542-3.775a.38.38 0 0 1 .508.12.373.373 0 0 1-.112.507l-4.073 2.738 5.833-3.365a.373.373 0 0 1 .5.12.373.373 0 0 1-.104.507l-11.011 7.594a.38.38 0 0 1-.187.328l-1.745 1a.365.365 0 0 1-.5-.12.373.373 0 0 1 .104-.506l5.267-3.634-7.393 4.268a.373.373 0 0 1-.395-.634l4.073-2.73-5.826 3.364a.38.38 0 0 1-.508-.12.373.373 0 0 1 .112-.507l4.633-3.148-6.55 3.782a.373.373 0 0 1-.5-.127.38.38 0 0 1 .105-.507l5.64-3.939-7.916 4.573a.374.374 0 0 1-.395-.634l4.67-3.17-6.595 3.804a.34.34 0 0 1-.186.052" clip-rule="evenodd"/><path fill="#878067" fill-rule="evenodd" d="M18.25 52.753a.37.37 0 0 1-.306-.179.38.38 0 0 1 .112-.507l3.342-2.238-4.886 2.843a.374.374 0 0 1-.395-.635l4.677-3.185-4.879 2.805a.366.366 0 0 1-.5-.127.373.373 0 0 1 .105-.507l3.267-2.238-2.872 1.686a.373.373 0 0 1-.403-.627l2.984-2.119-2.573 1.492a.38.38 0 0 1-.5-.12.38.38 0 0 1 .09-.506l2.08-1.545-1.67.97a.38.38 0 0 1-.5-.09.365.365 0 0 1 .06-.491l1.924-1.68-1.492.866a.373.373 0 0 1-.447-.59l.79-.79-.343.202a.373.373 0 0 1-.515-.5l.306-.62a.36.36 0 0 1-.26-.178.373.373 0 0 1 .14-.508l.866-.485a.373.373 0 0 1 .515.5l-.246.44 1.626-.94a.373.373 0 0 1 .455.582l-.798.798 2.395-1.38a.365.365 0 0 1 .484.105.38.38 0 0 1-.052.5l-1.932 1.67 3.946-2.237a.366.366 0 0 1 .5.119.373.373 0 0 1-.09.5l-2.08 1.507 3.73-2.164a.373.373 0 0 1 .402.627l-2.984 2.111 4.745-2.738a.38.38 0 0 1 .507.12.373.373 0 0 1-.112.507l-3.26 2.238 4.946-2.85a.373.373 0 0 1 .5.12.373.373 0 0 1-.104.507l-4.685 3.185 6.61-3.812a.373.373 0 0 1 .507.127.38.38 0 0 1-.113.507l-3.341 2.238 4.93-2.842a.373.373 0 0 1 .389.634l-13.287 8.512a.5.5 0 0 1-.111.104l-.448.254a.373.373 0 0 1-.388-.634l.619-.41-1.79 1.044a.35.35 0 0 1-.187.052" clip-rule="evenodd"/><path fill="#3D3B33" fill-rule="evenodd" d="M46.039 36.341a.37.37 0 0 1-.306-.156.38.38 0 0 1 .06-.5l2.357-2-3.14 1.813a.373.373 0 0 1-.425-.612l2.513-2.118-2.089 1.209a.39.39 0 0 1-.5-.112.39.39 0 0 1 .082-.508l.612-.462-.194.112a.38.38 0 0 1-.477-.09.37.37 0 0 1 0-.485l1.492-1.656-1.008.582a.38.38 0 0 1-.447-.052.365.365 0 0 1-.067-.44l.365-.709a.37.37 0 0 1-.298-.186.366.366 0 0 1 .134-.508l.843-.485a.38.38 0 0 1 .448.053c.12.114.15.293.074.44l-.313.596 1.895-1.089a.366.366 0 0 1 .477.083c.12.14.12.345 0 .484l-1.492 1.656 3.126-1.805a.373.373 0 0 1 .492.12.366.366 0 0 1-.082.5l-.611.47.82-.47a.365.365 0 0 1 .485.111.373.373 0 0 1-.06.5l-2.514 2.111 3.052-1.76a.373.373 0 0 1 .425.612l-2.358 1.999 2.85-1.664a.373.373 0 1 1 .418.62l-.85.686 1.096-.634a.373.373 0 0 1 .492.104.36.36 0 0 1-.06.492l-.626.553.746-.419a.38.38 0 0 1 .448.053.39.39 0 0 1 .074.447l-.611 1.186.156-.089a.365.365 0 0 1 .507.134.38.38 0 0 1-.134.515l-1.253.746a.36.36 0 0 1-.44-.052.37.37 0 0 1-.075-.44l.612-1.186-2.917 1.648a.373.373 0 0 1-.492-.104.38.38 0 0 1 .06-.5l.626-.544-2 1.148a.373.373 0 0 1-.417-.611l.85-.687-2.237 1.298a.35.35 0 0 1-.194.052" clip-rule="evenodd"/><path fill="#D8AF11" fill-rule="evenodd" d="M33.924 27.986a.4.4 0 0 1-.276-.119.37.37 0 0 1 0-.47l.186-.261-.515.29a.36.36 0 0 1-.47-.081.366.366 0 0 1 0-.478l.627-.746-1.179.686a.373.373 0 0 1-.455-.581l1.224-1.291-1.992 1.127a.39.39 0 0 1-.485-.105.373.373 0 0 1 .045-.492l1.925-1.835-2.798 1.619a.373.373 0 0 1-.492-.12.366.366 0 0 1 .082-.5l1.208-.94-7.057 4.096a.373.373 0 0 1-.5-.127.38.38 0 0 1 .104-.507l4.768-3.335-4.477 2.596a.38.38 0 0 1-.53-.12.373.373 0 0 1 .12-.506l.329-.24a.373.373 0 0 1-.336-.663l2.558-1.716-2.163 1.246a.373.373 0 0 1-.5-.112.38.38 0 0 1 .09-.507l4.207-3.208-3.797 2.193a.374.374 0 1 1-.41-.627l1.417-1.036-1.007.582a.373.373 0 0 1-.44-.597l1.873-1.716-1.433.82a.373.373 0 0 1-.455-.589l.56-.567-.105.06a.36.36 0 0 1-.41 0 .37.37 0 0 1-.135-.388l.202-.746a.35.35 0 0 1-.164-.15.366.366 0 0 1 .134-.506l.373-.217a.36.36 0 0 1 .41 0 .35.35 0 0 1 .135.395l-.142.552 1.694-.977a.38.38 0 0 1 .484.097.366.366 0 0 1 0 .485l-.552.537 2.007-1.156a.373.373 0 0 1 .485.097.38.38 0 0 1-.045.5l-1.872 1.715 4.02-2.32a.373.373 0 0 1 .404.627l-1.418 1.037 2.887-1.671a.373.373 0 0 1 .492.12.373.373 0 0 1-.081.507l-4.208 3.208 6.647-3.835a.365.365 0 0 1 .5.127.38.38 0 0 1-.105.507l-2.596 1.708 2.372-1.365a.373.373 0 0 1 .389.634l-.329.202a.37.37 0 0 1 .44.149.365.365 0 0 1-.097.507l-4.767 3.342 4.364-2.506a.373.373 0 0 1 .5.112.38.38 0 0 1-.082.507l-1.216.94.798-.462a.373.373 0 0 1 .485.096.39.39 0 0 1-.037.5l-1.925 1.828 1.492-.85a.373.373 0 0 1 .455.574l-1.223 1.29.746-.44a.365.365 0 0 1 .47.082.37.37 0 0 1 0 .478l-.634.746.156-.09a.365.365 0 0 1 .463.075.36.36 0 0 1 0 .462l-.276.388c.122.011.23.08.29.187a.38.38 0 0 1-.133.515l-1.157.664a.35.35 0 0 1-.141.06" clip-rule="evenodd"/><path fill="#3D3B33" fill-rule="evenodd" d="M24.897 57.908a.39.39 0 0 1-.313-.164.373.373 0 0 1 .082-.507l1.492-1.164-2.492 1.44a.373.373 0 0 1-.403-.627l1.254-.91-1.806 1.037a.36.36 0 0 1-.5-.134.366.366 0 0 1 .09-.508l2.73-2.036-3.252 1.895a.366.366 0 0 1-.5-.097.373.373 0 0 1 .104-.507l.933-.642-1.052.604a.366.366 0 0 1-.5-.127.373.373 0 0 1 .104-.507l.635-.433-.575.329a.373.373 0 0 1-.5-.112.38.38 0 0 1 .09-.508l3.223-2.439-3.23 1.843a.373.373 0 0 1-.5-.12.38.38 0 0 1 .097-.507l1.85-1.35-1.544.895a.366.366 0 0 1-.493-.112.366.366 0 0 1 .075-.5l2.238-1.798-1.522.888a.373.373 0 1 1-.448-.597l1.41-1.32a.36.36 0 0 1-.283-.179.38.38 0 0 1 .134-.515l2.387-1.358a.373.373 0 0 1 .485.097.38.38 0 0 1-.045.5l-1.186 1.104 2.984-1.753a.365.365 0 0 1 .492.112c.113.16.08.38-.074.5l-2.238 1.798 3.312-1.91a.373.373 0 0 1 .403.627l-1.85 1.35 2.342-1.35a.36.36 0 0 1 .493.112.373.373 0 0 1-.082.507l-3.23 2.44 3.677-2.127a.376.376 0 0 1 .403.634l-.634.433.656-.38a.373.373 0 0 1 .396.626l-.925.649.858-.5a.38.38 0 0 1 .5.12.38.38 0 0 1-.09.507l-2.738 2.037 2.537-1.493a.373.373 0 0 1 .5.12.38.38 0 0 1-.098.507l-1.253.903.799-.455a.36.36 0 0 1 .492.112c.113.16.08.38-.075.5l-1.492 1.17.671-.387a.373.373 0 0 1 .433.604l-1.074.925a.4.4 0 0 1 .142.15.373.373 0 0 1-.134.506l-2.373 1.388a.373.373 0 0 1-.492-.104.38.38 0 0 1 .06-.5l.358-.306-1.768 1.022a.35.35 0 0 1-.157.052" clip-rule="evenodd"/><path fill="#fff" fill-rule="evenodd" d="M24.822 54.872a.39.39 0 0 1-.283-.127.37.37 0 0 1 0-.477l1.26-1.56-2.051 1.187a.38.38 0 0 1-.492-.112.37.37 0 0 1 .067-.5l.179-.157h-.045a.365.365 0 0 1-.462-.074.38.38 0 0 1 0-.47l.842-1.179a.37.37 0 0 1-.462-.156.38.38 0 0 1 .134-.515l1.447-.836a.37.37 0 0 1 .463.075.38.38 0 0 1 0 .47l-.835 1.216 2.081-1.209a.373.373 0 0 1 .433.605l-.187.156.239-.134a.365.365 0 0 1 .47.082.365.365 0 0 1 0 .47l-1.254 1.522.956-.552a.365.365 0 0 1 .507.134.38.38 0 0 1-.135.515l-2.685 1.551a.4.4 0 0 1-.187.075" clip-rule="evenodd"/><path fill="#3D3B33" fill-rule="evenodd" d="M48.88 57.923a.39.39 0 0 1-.305-.157.373.373 0 0 1 .067-.5l2.238-1.85-3.506 2.022a.38.38 0 0 1-.492-.111.39.39 0 0 1 .074-.508l3.521-2.865-4.476 2.596a.373.373 0 0 1-.5-.126.36.36 0 0 1 .097-.5l2.171-1.567-2.447 1.41a.36.36 0 0 1-.492-.112.373.373 0 0 1 .082-.507l3.73-2.91-4.013 2.32a.373.373 0 0 1-.5-.126.38.38 0 0 1 .097-.508l1.432-1-1.276.747a.373.373 0 0 1-.417-.612l3.073-2.424-2.693 1.559a.373.373 0 0 1-.425-.612l1.79-1.417-1 .582a.374.374 0 1 1-.44-.605l1.187-1.051a.373.373 0 0 1-.052-.672l2.38-1.358a.373.373 0 0 1 .491.105c.116.153.09.37-.06.492l-.67.605 2.238-1.291c.167-.1.384-.05.492.112a.373.373 0 0 1-.075.5l-1.79 1.41 2.82-1.62a.365.365 0 0 1 .492.113.373.373 0 0 1-.074.5l-3.119 2.409 3.887-2.238a.373.373 0 0 1 .403.627l-1.425 1.007 1.67-.97a.374.374 0 0 1 .419.62l-3.775 2.909L53.782 50a.373.373 0 0 1 .5.119c.11.166.07.39-.09.507l-2.178 1.567 2.104-1.216a.373.373 0 0 1 .425.612l-3.529 2.864 3.178-1.835a.373.373 0 0 1 .5.112.39.39 0 0 1-.067.5l-2.238 1.85 1.313-.746a.366.366 0 0 1 .492.104.373.373 0 0 1-.067.5l-.992.836a.38.38 0 0 1 0 .634l-2.365 1.335a.373.373 0 0 1-.492-.104.373.373 0 0 1 .067-.5l.067-.06-1.372.79a.34.34 0 0 1-.157.053" clip-rule="evenodd"/><path fill="#fff" fill-rule="evenodd" d="M48.821 54.902a.373.373 0 0 1-.26-.642l.506-.5-1.059.612a.373.373 0 0 1-.44-.596l.746-.747-.933.53a.373.373 0 0 1-.485-.097.39.39 0 0 1 .045-.5l.605-.552-.314.18a.37.37 0 0 1-.477-.09.37.37 0 0 1 0-.485l.574-.62a.35.35 0 0 1-.164-.148.38.38 0 0 1 .134-.515l1.447-.836a.373.373 0 0 1 .456.582l-.202.217 1.082-.53a.373.373 0 0 1 .44.597l-.597.552.895-.515a.373.373 0 0 1 .44.597l-.746.746.746-.426a.365.365 0 0 1 .478.098.365.365 0 0 1 0 .492l-.515.5a.38.38 0 0 1 .515.134.39.39 0 0 1-.142.515l-2.536 1.492a.33.33 0 0 1-.239-.045" clip-rule="evenodd"/><path fill="#262626" d="M25.68 49.896A2.984 2.984 0 0 0 22.696 52a2.416 2.416 0 0 0 2.283 2.887h.097a.3.3 0 0 0 .12 0h.051q.123.015.247 0a2.834 2.834 0 0 0 2.678-2.305 2.446 2.446 0 0 0-2.492-2.686m0 4.476a2.06 2.06 0 0 1-1.828-1.402 1.835 1.835 0 0 1 1.09-2.417c2.282-.627 3.051 3.648.709 3.812zM49.388 49.754a2.85 2.85 0 0 0-2.887 2.44 2.65 2.65 0 0 0 2.596 2.857h.134a2.865 2.865 0 0 0 2.835-2.648 2.657 2.657 0 0 0-2.678-2.649m0 4.476a1.89 1.89 0 0 1-1.738-1.491 1.732 1.732 0 0 1 1.537-2.149c2.156-.045 2.394 3.454.178 3.625z"/><path fill="#262626" d="M59.452 43.95c-.336-.633-1.18-.895-2.171-.977v-9.877a.1.1 0 0 0 0-.052c-.328-1.663-1.627-2.596-2.79-3.73-.963-.955-2.097-2.58-3.41-3.118-2.387-.977-6.094-.276-8.72-.217v-4.214c0-2.671-.746-4.476-3.73-4.655-3.327-.165-6.714-.067-10.049 0h-3.29c-2.238-.09-4.886-.44-6.915.253-2.835.962-2.462 3.73-2.462 6.14v13.54c0 2.238-.32 4.841 1.447 6.028-.977.059-1.85.38-2.193 1.32s0 2.663 0 3.678c0 1.014-.38 2.797 0 3.685.642 1.492 2.984 1.03 4.476.955.134 6.937 10.653 6.378 11.466 0h12.414c.186 6.982 10.712 6.624 11.473.037 1.492.112 3.67.388 4.409-.888.977-1.7.104-5.833.104-7.796a.12.12 0 0 0-.06-.111m-9.885-17.314c1.641.32 2.805 1.984 3.916 3.096 1.112 1.111 2.388 2 2.709 3.588v7.893a7.7 7.7 0 0 0 0 1.708c-.873 0-1.753.112-2.432.164h-9.534c-.097 0-.306 0-.56.045h-1.313c.18-.276 0-1.306 0-1.701V27.785c0-.396.038-.82 0-1.216a24.5 24.5 0 0 1 7.214.067m-15.002-8.474a19 19 0 0 0 0 3.237c0 .358 0 5.968-.164 6.028-1.373-.873-3.059-2.432-4.633-2.798-1.574-.365-3.304 1.395-4.43 2.09-.896.558-1.418 1.327-1.635 0a21 21 0 0 1 0-3.045v-6.08h10.653a1 1 0 0 1 .12 0h.074q.039.283.015.567M16.99 39.639c-.156-3.484 0-7.005 0-10.49 0-2.685-.619-6.213 0-8.832.657-2.76 3.193-2.976 5.648-2.872v6.468c0 1.127-.62 3.984 1.074 4.05 1.842.075 3.305-2.237 4.96-2.737q.204-.035.381-.142s0 .075.246.157q.71.37 1.328.88l2.798 1.738a.1.1 0 0 0 .052 0c2.238.448 2.119-1.313 2.119-2.984v-7.303h1.193c1.686 0 3.566 0 4.29 1.955.201.893.254 1.812.156 2.723v20.888H20.511c-1.888-.18-3.402-.881-3.522-3.5m6.767 17.344a5.22 5.22 0 0 1-3.03-4.677c.307-3.2 4.626-6.528 7.856-3.372.082.074.15.164.224.246a5.46 5.46 0 0 1 1.149 2.425c0 .119.045.238.06.358.015.119.059.388.074.581-.172 3.178-3.021 5.931-6.333 4.44m24.722.202a4.976 4.976 0 0 1-3.85-4.887v-.246c.5-3.118 4.663-6.184 7.811-3.118.72.753 1.204 1.7 1.395 2.723 0 .104 0 .216.053.328.052.112.052.358.067.544-.202 2.76-2.44 5.32-5.476 4.655m9.803-5.08c-.224.2-2.612.149-3.253 0a5.56 5.56 0 0 0-.888-2.686 1 1 0 0 0-.112-.209 5.4 5.4 0 0 0-2.514-1.962 6.13 6.13 0 0 0-4.819.283 5.22 5.22 0 0 0-3.185 4.76c-1.283.201-4.193-.186-4.857-.186-2.051 0-4.618.425-6.617 0a3.6 3.6 0 0 0-.597 0 5 5 0 0 0-.373-.814l-.074-.149a5.1 5.1 0 0 0-1.045-2.149 4.1 4.1 0 0 0-1.417-1.342c-2.618-1.574-7.945-.597-8.58 2.984a5.6 5.6 0 0 0-.297 1.492H18.51c-.97 0-1.723.239-2.283-.687-.641-1.089 0-4.781 0-6.057 0-1.492-.238-1.283.821-1.612a5.2 5.2 0 0 1 1.641-.163l.38.074c2.75.25 5.514.273 8.267.067h14.106a.5.5 0 0 0 .172.045h14.92c.203-.005.403-.059.582-.157.67.127 1.164.343 1.32.701v5.528c0 .38.216 1.895-.156 2.239"/><path fill="#262626" d="M44.263 35.387c.47 1.767 4.52.992 5.826.992 1.947 0 4.267.552 4.208-2.052a2.32 2.32 0 0 0-.903-1.924c-.97-.963-1.902-1.985-2.91-2.902a2.16 2.16 0 0 0-1.67-.612 16.4 16.4 0 0 0-3.365 0c-1.23.253-1.193 1.223-1.193 2.238v4.125a.2.2 0 0 0 .007.135m1.574-5.722a8.8 8.8 0 0 1 3.297 0c.798.313 1.671 1.619 2.238 2.2.568.582 1.649 1.32 1.813 2.238.194 1.157 0 1.492-1.067 1.492h-3.827c-.745 0-2.685.403-2.984-.492v-3.044c.038-.828-.283-2.103.53-2.394"/><path fill="#D8AF11" fill-rule="evenodd" d="M29.485 39.49h-8.952c-.239 0-1.231.454-.701.454h8.952c.238 0 1.23-.454.7-.454M20.667 34.44l.47-.463v2.902c0 .134 1.074 0 1.074-.291v-2.335l.448.447c.254.246 1.268-.149 1.014-.41-.5-.5-1-.992-1.491-1.492-.224-.216-1.038.067-1.052.313l-1.433 1.433c-.201.201.79.074.97-.105M26.598 34.633l.5-.5v2.649c0 .537 1.089.35 1.089-.097v-2.402l.455.454a.64.64 0 0 0 .746.09c.164-.082.447-.373.246-.574-.492-.5-.992-.992-1.492-1.492a.3.3 0 0 0-.09-.06.63.63 0 0 0-.619 0 .75.75 0 0 0-.268.254l-1.462 1.402c-.47.47.582.59.895.276" clip-rule="evenodd"/></g><defs><clipPath id="a"><path fill="#fff" d="M15 15h44.87v44.87H15z"/></clipPath></defs></svg>