<svg xmlns="http://www.w3.org/2000/svg" width="366" height="242" fill="none" viewBox="0 0 366 242"><path fill="#F0DEA9" d="M354.356 149.811c-8.872 59.634-126.854 101.154-219.531 83.492C92.103 225.153 8.092 195.538.857 137.311-6.575 77.487 70.712 17.029 140.051 6.095 246.786-10.74 363.976 85.143 354.356 149.807z"/><path fill="#fff" d="M89.135 168.852c-2.413-1.93-3.204-5.364-2.754-8.421s1.94-5.854 3.402-8.577l5.19-9.657c.392-.726.986-1.561 1.796-1.452.637.089 1.032.722 1.296 1.309 1.61 3.538 1.792 7.702.504 11.373 3.969-2.882 9.889-2.657 13.628.517a31.34 31.34 0 0 1 7.55-16.198c2.405 5.248-.606 11.719 1.509 17.095 1.229 3.123 4.007 5.368 5.698 8.262 1.781 3.042 2.363 6.775 4.671 9.436 2.18 2.513 5.516 3.632 8.697 4.599a372 372 0 0 0 45.885 10.826q6.274-17.257 12.542-34.513c2.308-6.344 5.012-12.384 7.386-18.708.939-2.501 1.916-5.065 3.697-7.066 1.548-1.732 3.604-2.921 5.648-4.039 2.813-1.543 5.672-3.011 8.527-4.479 5.714-2.937 11.432-5.881 17.146-8.818.78-.4 1.572-.816 2.169-1.445.71-.753 1.086-1.756 1.494-2.707 1.415-3.294 3.724-6.538 7.168-7.532-.965-1.946-1.939-3.896-2.905-5.838a17.2 17.2 0 0 1-10.595 6.316c-6.73-1.783-12.064-7.385-15.517-13.44-3.448-6.056-5.19-12.912-6.781-19.702a564 564 0 0 1-3.286-15.014c-1.52-7.415-2.894-14.908-2.894-22.479 0-1.511.066-3.069.683-4.451.57-1.286 1.587-2.327 2.677-3.225 4-3.29 9.109-4.875 14.148-6.055 3.545-.832 7.157-1.504 10.796-1.372 6.599.241 12.829 3.116 18.434 6.604 7.511 4.677 14.424 10.752 18.478 18.622 4.053 7.874 4.891 17.748.647 25.52-1.105 2.024-2.521 3.873-3.526 5.948-3.29 6.782-1.746 14.916.927 21.962 3.026-.78 6.428-.039 8.934 1.834 2.506 1.876 4.209 4.704 5.012 7.73a177 177 0 0 0 34.813 13.397c2.045.552 4.116 1.061 6.029 1.973 1.912.913 3.681 2.261 4.709 4.11 2.111 3.807 3.666 7.478 4.985 11.626 4.818 15.188 10.676 30.023 16.526 44.846 1.408 3.558 3.286 7.019 4.496 10.647-1.714.334-3.429.664-5.144 1.002-.95.187-2.036.478-2.417 1.372-.194.462-.143.99-.089 1.491.609 5.493 1.214 10.981 1.823 16.474.066.622.132 1.278-.128 1.837-.221.474-.632.82-1.043 1.139-6.451 5.049-14.454 7.726-22.488 9.33-8.035 1.608-16.232 2.23-24.285 3.686-10.804 1.954-21.27 5.392-31.698 8.814-.306.097-.671.26-.725.579-.055.318.543.528.566.202-3.313.054-6.37 1.682-9.555 2.591a23.24 23.24 0 0 1-15.016-.824c-.555-.225-1.11-.478-1.703-.559-.513-.07-1.032-.012-1.544.043-6.44.73-12.872 1.464-19.312 2.202-.465-7.951-.927-15.899-1.396-23.85-.248-4.227-.504-8.507-1.874-12.512a4.77 4.77 0 0 1-1.226 2.191 105 105 0 0 0-11.995-7.726 57.1 57.1 0 0 1-7.13 13.49c-.558.789-1.183 1.589-2.056 2.005-.962.458-2.075.372-3.13.26a70 70 0 0 1-13.787-2.937c-13.671-4.389-25.778-12.721-39.247-17.705-3.209-1.189-6.463-2.3-9.815-2.987-8.034-1.643-16.351-.804-24.533-1.402-2.215-.164-4.461-.447-6.478-1.383-2.018-.936-3.779-2.626-4.318-4.782-2.002.94-4.702-.4-5.163-2.564-1.967-.229-3.786-1.491-4.694-3.251s-1.02-3.873-.062-5.605l.011.023z"/><path fill="#D1D1D1" d="M225.943 235.688a305 305 0 0 1-1.331-28.026c1.152 4.071 4.104 7.33 6.416 10.864.672 1.03 1.304 2.102 2.192 2.945.342.326.722.617 1.021.979.523.633.756 1.441 1.059 2.202a13.26 13.26 0 0 0 6.331 6.895c.523.26 1.059.486 1.544.808.36.249.69.544 1.028.823a17.66 17.66 0 0 0 8.076 3.834c-4.763.995-9.531 1.997-14.373 2.498a70.4 70.4 0 0 1-11.734.241q.22-.117.446-.229M216.225 66.882c1.04.183 1.792 1.084 2.32 1.993 1.016 1.74 1.559 3.702 2.3 5.578s1.738 3.737 3.379 4.902c2.518 1.783 6.087 1.484 8.752-.07-1.032-.567-2.227-.777-3.313-1.227-3.449-1.43-5.501-5.116-6.219-8.787-.717-3.67-.36-7.454-.446-11.195-.108-4.731-.977-9.544-3.351-13.638-.528-.91-1.125-1.775-1.897-2.494-1.347-1.25-3.581-2.303-5.455-2.296-1.237.004-1.191.241-1.004 1.445.186 1.204.465 2.432.698 3.644q1.365 7.148 2.731 14.295c.155.804 1.051 7.769 1.501 7.85z"/><path fill="#D1D1D1" d="M249.839 236.364a96.4 96.4 0 0 0 14.621-2.692c9.318-2.475 14.086-5.256 21.659-8.449 5.159-2.179 13.364-4.494 29.769-9.121a984 984 0 0 1 29.77-7.893 26.2 26.2 0 0 0 .889-10.006 26.2 26.2 0 0 0-2.336-8.352q3.427-.615 6.859-1.231c.267 3.815.566 7.66.884 11.537.295 3.647.609 7.256.939 10.837a94 94 0 0 1-11.285 5.909c-16.724 7.361-21.972 3.818-44.22 9.816-18.058 4.867-27.089 7.298-30.813 8.841-.908.372-3.942 1.666-8.104 1.899-3.616.202-6.622-.474-8.62-1.088h-.012z"/><path fill="#CFB773" d="M85.508 123.435c-5.214-2.726-12.41-5.698-21.325-7.147a68 68 0 0 0-6.568-.738c-2.82 12.714-14.147 22.219-27.694 22.219-15.668 0-28.365-12.718-28.365-28.407S14.253 80.959 29.92 80.959c15.669 0 28.21 12.563 28.366 28.112a51 51 0 0 1 8.515 2.338c9.027 3.345 15.195 8.527 18.706 12.026M186.478 48.94c0 16.12-13.053 29.191-29.153 29.191a29 29 0 0 1-15.559-4.502c-15.436 17.523-24.138 34.315-29.084 46.194 4.268-13.662 11.468-31.207 24.071-50.198-5.299-5.287-8.581-12.602-8.581-20.685 0-16.124 13.054-29.192 29.153-29.192 16.1 0 29.153 13.068 29.153 29.192"/><path fill="#000" d="M235.451 53.092c-.396-.345-.598-.528-.753-.462-.721.319.466 5.827 1.878 5.916.279.016.504-.175.516-.186.485-.435.174-1.453-.144-2.514-.566-1.88-1.292-2.563-1.501-2.75zM218.13 55.68c-.318-.288-.489-.436-.609-.381-.59.26.38 4.746 1.532 4.82a.63.63 0 0 0 .423-.155c.396-.353.143-1.189-.117-2.047-.461-1.535-1.051-2.09-1.225-2.245h-.004zM212.943 40.43c.698.213 1.389.434 2.06.722.656.28 1.28.621 1.889.99.202.128.419.253.656.28.236.027.512-.09.582-.319a.8.8 0 0 0 .015-.28c-.066-.559-.357-1.08-.741-1.495s-.853-.742-1.33-1.045c-1.599-1.014-3.368-1.814-5.253-1.985-.07-.004-.015 2.098.155 2.35.342.513 1.424.618 1.967.789zM234.291 180.241c.279.859.57 1.694.977 2.502s.869 1.569 1.382 2.3a20 20 0 0 0 3.627 3.946.07.07 0 0 0 .066 0c3.375-3.096 6.528-6.421 9.38-10.014.105-.132.011-.691-.148-.501a105 105 0 0 1-6.587 7.311 93 93 0 0 1-1.738 1.709c-.263.26-.527.598-.834.808-.182.128-.182.077-.302-.028-.07-.062-.144-.12-.214-.182a19.628 19.628 0 0 1-3.266-3.671 21 21 0 0 1-1.269-2.113c-.384-.726-.737-1.402-1.031-2.136-.024-.055-.043.042-.039.066h.004z"/><path fill="#000" d="M239.99 184.782a251 251 0 0 0-.578-8.126c.015.187-1.583 1.255-1.793 1.437a29 29 0 0 0-1.738 1.624c-.36.361-.275.435.012.835.213.303.438.606.675.898a20 20 0 0 0 1.494 1.666 21 21 0 0 0 1.924 1.674zM243.648 183.147a44.4 44.4 0 0 0 4.356-4.774c-1.21-.862-2.576-1.585-4.007-2.008-.353-.105-.512-.183-.605.186s.004.897.011 1.278c.016.835.039 1.674.078 2.502.023.485.043.967.078 1.445.011.194.209 1.251.089 1.359z"/><path fill="#000" d="M239.931 183.45c-.089.412-.011.855.016 1.27 0 .066.027.303.136.288 1.315-.183 2.51-.909 3.514-1.744a14 14 0 0 0 1.475-1.445c.516-.579.919-1.243 1.284-1.927 0-.004 0-.054-.012-.043-1.016.855-1.823 1.915-2.847 2.762a9.5 9.5 0 0 1-3.43 1.814l.132.21c-.066-.385-.07-.843-.264-1.193h-.004v.012zM221.229 120.153c-.054.28.093.556.237.789.159.252.357.489.582.687.213.187.465.361.729.466s.539.121.823.105c.011 0 .011-.039 0-.042-.249-.109-.478-.253-.714-.385-.237-.132-.458-.253-.671-.412a3.3 3.3 0 0 1-.555-.516c-.163-.195-.396-.428-.427-.688 0-.004-.004-.012-.011 0h.003zM326.816 124.989c-.407-.334-.935-.505-1.4-.753a11 11 0 0 1-1.315-.804 10.5 10.5 0 0 1-2.281-2.23 11 11 0 0 1-.858-1.348c-.12-.225-.228-.458-.333-.687-.078-.164-.136-.241-.051-.424.093-.198.031-.128.183-.136.089-.004.198.027.287.051a8.5 8.5 0 0 1 3.243 1.503c1.148.855 2.126 1.938 3.076 2.999.109.128.12-.264.089-.327a3.12 3.12 0 0 1-.248-2.315c.202-.726.71-1.608 1.451-1.891.054-.024.054-.214 0-.222-.912-.066-1.478 1.282-1.641 1.997a4 4 0 0 0 .334 2.723l.089-.327c-1.746-2.019-3.775-4.331-6.626-4.533-1.133-.077.062 1.954.279 2.327a10.4 10.4 0 0 0 2.246 2.696c.516.447 1.083.843 1.676 1.177.501.28 1.211.711 1.804.625.039 0 .023-.093 0-.108zM221.924 191.689c.097.12.163.369.236.516q.098.215.214.412c.135.241.302.486.473.703q.528.696 1.121 1.333c.729.788 1.622 1.417 2.537 1.957.031.016.031-.077.016-.093a22 22 0 0 1-1.249-1.27c-.4-.447-.788-.847-1.184-1.266a22 22 0 0 1-1.078-1.228 8 8 0 0 0-.528-.606c-.089-.089-.17-.171-.263-.252-.094-.082-.225-.144-.288-.261-.015-.027-.027.028-.015.043z"/><path fill="#D1D1D1" d="M273.022 52.576c1.082 1.666 1.144 3.783.155 5.415-1.164 1.915-3.588 2.824-5.869 2.136-.024-.194-.45-4.35 2.529-6.475 1.199-.855 2.463-1.034 3.193-1.072h-.004z"/><path fill="#000" d="M267.098 60.962c.221-.447.237-.951.315-1.44.089-.572.17-1.135.325-1.69.291-1.046.788-2.052 1.482-2.89a6.3 6.3 0 0 1 2.386-1.76c.458-.195.927-.354 1.416-.412.318-.039.803-.148 1.086.062.039.031.039-.105.031-.116-.26-1.174-1.369-1.504-2.424-1.189-1.121.33-2.095 1.084-2.84 1.97-.857 1.005-1.4 2.21-1.73 3.484-.175.699-.318 1.43-.353 2.144-.027.617-.066 1.266.186 1.837.031.07.089.062.12 0"/><path fill="#000" d="M203.594 17.328c-1.152.65-.512 2.498.539 3.306s2.467 1.398 2.824 2.673c.194.687.016 1.437.237 2.113.473 1.452 2.456 1.76 3.906 1.293 1.451-.466 2.747-1.437 4.26-1.627 1.226-.156 2.483.213 3.697-.004 1.831-.334 3.208-1.942 5.016-2.362 1.284-.295 2.626.031 3.941-.054 3.115-.21 6.048-2.739 9.043-1.861 1.109.33 2.161 1.123 3.301.936.854-.136 1.56-.816 2.425-.901 1.858-.186 2.773 2.202 2.917 4.06.361 4.835-.144 10.134 2.681 14.069 1.257 1.755 3.103 3.08 4.108 4.991 1.583 2.999.768 6.755 2.002 9.92.356.925 1.388 2.289 3.076 2.844 2.071.684 4.092-.392 4.74-.777 3.119-1.876 2.266-4.746 5.164-6.856 1.652-1.2 4.341-2.02 6.346-1.04 3.084 1.503 3.779 6.886 2.161 10.608-1.924 4.413-6.715 5.59-7.367 5.745q1.846 9.639 3.697 19.278c3.018-5.71 4.062-8.798 4.419-10.585.089-.439.392-1.938 1.187-3.783.427-.987 1.051-1.876 1.594-2.8 1.672-2.871 2.537-6.13 3.383-9.347 1.23-4.68 2.467-9.365 3.697-14.046.644-2.443 1.292-5.007.737-7.47-.566-2.51-2.32-4.622-2.863-7.135-.279-1.282-.237-2.657-.803-3.842-.756-1.589-2.417-2.494-3.829-3.543-.516-.38-1.032-.831-1.202-1.445-.307-1.087.566-2.156.659-3.29.155-1.892-1.773-3.189-2.797-4.793-.756-1.193-1.04-2.669-1.889-3.795-2.056-2.72-6.18-2.261-9.38-3.426-2.153-.789-4.209-2.428-6.467-2.005-.819.156-1.583.579-2.413.649-1.369.12-2.615-.7-3.786-1.426-1.82-1.134-4.074-2.124-6.04-1.27-1.125.49-1.983 1.523-3.17 1.841-1.745.467-3.712-.765-5.361-.011-.593.268-1.098.788-1.746.835-.795.062-1.439-.583-2.098-1.03-2.491-1.678-6.44-.186-7.204 2.72-1.595-1.958-4.636-2.549-6.847-1.321-1.164.645-2.149 1.74-3.472 1.919-.675.09-1.35-.078-2.029-.148-3.065-.33-6.246 1.496-7.518 4.308-.264.59-.462 1.22-.896 1.701-.38.42-.9.672-1.35 1.006-1.556 1.154-2.188 3.407-1.455 5.198q.965-.02 1.924-.039M240.374 82.113c.853 1.266 2.905-.252 3.654-.936a10.2 10.2 0 0 0 2.362-3.248c1.098-2.35 1.703-5.632.396-8.017-.07-.132-.108.09-.105.144.253 2.389.121 4.793-.962 6.968a10.4 10.4 0 0 1-2.11 2.86 7.7 7.7 0 0 1-1.567 1.165c-.532.306-1.308.427-1.676.936-.023.03-.023.093 0 .128h.008M217.179 41.148c.702 1.371 1.637 2.602 2.347 3.977.664 1.298 1.152 2.67 1.568 4.068.9 3.037 1.291 6.187 1.384 9.345.183 5.804-.88 12.741 3.209 17.535.911 1.068 2.191 1.915 3.46 2.497.594.276 1.226.502 1.874.599.737.108 1.582.015 2.323-.028.078 0 .07-.229-.003-.237-1.335-.128-2.681-.699-3.891-1.278-1.296-.621-2.332-1.495-3.224-2.614-1.835-2.272-2.572-5.216-2.747-8.087-.198-3.236.055-6.48-.132-9.715-.17-3.014-.589-6.056-1.582-8.923a23 23 0 0 0-1.874-4.004c-.663-1.135-1.466-2.58-2.692-3.174-.016-.004-.012.031-.012.039h-.008"/><path fill="#D1D1D1" d="M230.916 45.81c.372.492.962.87 1.575.842.919-.039 1.571-.882 2.39-1.294 1.45-.73 3.169-.062 4.787.07.353.028.748.016 1.012-.221.427-.385.264-1.084.062-1.624-.279-.742-.566-1.495-1.039-2.128-.532-.723-1.277-1.259-2.006-1.783-1.726-1.243-4.993-3.088-7.026-1.36-1.78 1.519-.973 5.893.241 7.497z"/><path fill="#000" d="M229.934 38.518c.326.948 2.282.198 4.962 1.27 2.021.808 4.318 2.599 5.633 4.296.287.37 1.191 1.6 1.478 1.445.07-.038.081-.155.089-.198.051-.567-.881-4.812-5.625-7.57-1.389-.808-3.72-2.164-5.38-1.19-.714.42-1.37 1.318-1.153 1.94zM228.74 197.609c.531.598 1.051 1.2 1.676 1.705.624.505 1.264.921 1.939 1.297.675.381 1.381.711 2.103.987.353.136.714.26 1.07.361s.78.276 1.16.264c.342-.011.637-.198.889-.419.318-.276.624-.571.935-.859a72.796 72.796 0 0 1 5.842-4.863c1.583-1.188 3.169-2.389 4.779-3.531.031-.023.023-.155-.023-.132-1.439.738-2.848 1.519-4.166 2.455a62 62 0 0 0-3.957 3.069 56 56 0 0 0-3.581 3.317c-.33.33-.621.474-1.094.381-.419-.082-.822-.21-1.226-.342a16 16 0 0 1-2.149-.874 17 17 0 0 1-2.134-1.27c-.675-.474-1.443-.987-2.075-1.57-.012-.011-.016.024-.004.031l.012-.011zM224.119 206.71c-.26 2.179.051 4.483.144 6.677s.198 4.561.318 6.841c.248 4.603.435 9.214.753 13.809.089 1.258.163 2.533.291 3.791s.356 2.494.504 3.741c.012.077.062.039.062-.024.023-2.287.097-4.556.012-6.844s-.225-4.56-.346-6.84c-.248-4.603-.488-9.21-.787-13.81-.082-1.277-.171-2.552-.252-3.83-.082-1.278-.105-2.431-.384-3.62-.082-.342-.291-.132-.318.105h.003zM248.179 223.219s.011-.027 0-.027c-.012 0-.012.027 0 .027M221.846 203.952c.066.031.144-.105.171-.155.062-.109.108-.214.155-.334.093-.288.171-.571.24-.863.148-.617.198-1.251.241-1.876 0-.023-.016-.105-.043-.054a7.7 7.7 0 0 0-.616 1.662c-.078.326-.16.664-.183 1.002a2.4 2.4 0 0 0-.004.463c0 .038 0 .136.043.163h-.004zM221.978 152.658c.213-.023.427-.012.644-.027.217-.016.434-.062.656-.066.422-.012.853.031 1.264.132.896.21 1.727.676 2.359 1.348.12.128.143-.28.077-.361a3.97 3.97 0 0 1-.5-3.912c.132-.307.303-.633.609-.796.493-.268.632.287.722.664.201.862.314 1.787.259 2.672 0 .039.039.307.117.195.419-.626.884-1.22 1.451-1.717.566-.497 1.187-.847 1.839-1.193l-.105-.136c.248 1.465-.683 3.022-2.076 3.492l.024.303c1.043-.645 2.61-1.282 3.526-.062.489.649.081 1.333-.555 1.663s-1.389.268-2.075.221c-.132-.012-.093.342-.039.396 1.175 1.135 1.912 2.696 1.971 4.335l.097-.237c-2.06.175-3.247-1.942-3.918-3.566-.051-.12-.094.082-.09.121a10 10 0 0 1-.24 3.445 9.6 9.6 0 0 1-.881 2.269c-.081.148-.159.353-.368.342-.148-.004-.318-.175-.412-.268-1.691-1.667-.682-4.203.109-6.037.023-.042.016-.408-.089-.326-1.397 1.084-3.317 1.033-4.682-.07-.09-.07-.144.319-.039.4 1.319 1.072 3.421 1.08 4.767.051l-.089-.327c-.764 1.748-1.544 3.741-.752 5.629.186.439 1.055 1.907 1.559 1.095.504-.815.869-1.88 1.079-2.855.24-1.134.267-2.257.135-3.406l-.089.12c.4.963.764 2.032 1.501 2.801.656.683 1.544 1.15 2.506 1.06.09-.011.097-.182.097-.237-.097-1.775-.818-3.453-2.098-4.7l-.039.396c.83.062 1.769.109 2.452-.458a1.57 1.57 0 0 0 .504-1.709c-.202-.626-.807-1.119-1.466-1.212-.873-.121-1.758.326-2.441.835-.066.05-.054.342.043.295a3.86 3.86 0 0 0 2.215-3.911c-.004-.055-.031-.164-.105-.136-1.384.516-2.637 1.709-3.316 3.002l.116.148c.016-1.119-.043-2.222-.357-3.306-.089-.314-.26-.645-.644-.567s-.624.439-.791.754c-.78 1.519-.567 3.472.473 4.809l.078-.362a4.74 4.74 0 0 0-2.297-1.324 4.7 4.7 0 0 0-1.412-.132c-.5.027-.861.143-1.296.396-.011.004-.011.05 0 .05z"/><path fill="#D1D1D1" d="M216.419 146.396c1.044-.485 2.215-1.254 3.084-2.501 1.106-1.597 1.106-3.104 1.303-3.096.474.015-.031 8.48.559 16.963.687 9.762 1.373 19.516 2.068 29.273.027.396.054.804-.093 1.173-.26.657-.978.987-1.443 1.508-.889 1.006-.675 2.691-.516 3.899.291 2.191.485 5.007.578 8.884l-17.709-15.036c2.89-3.201 7.103-8.686 9.907-16.521 3.802-10.624 2.995-19.912 2.27-24.542z"/><path fill="#000" d="M217.35 141.56c-1.183 3.555-1.137 7.198-.287 10.826.411 1.768 1.055 3.531 1.943 5.112.396.699.831 1.465 1.44 1.997.248.221.5.361.814.462.187.062.38.128.567.175.132.031.36.004.465.042.062.024.051-.128.027-.147-.593-.591-.962-1.465-1.435-2.152-.423-.618-.881-1.193-1.249-1.841-.792-1.387-1.335-2.898-1.754-4.436-.869-3.197-.977-6.751-.523-10.026 0 0 0-.016-.004-.012h-.012zM208.808 169.369c-.016-1.278.108-2.568.438-3.803.159-.598.361-1.189.617-1.76.237-.532.489-1.145.869-1.588.186-.226.516-.49.815-.28.248.171.225.567.221.835-.012.688-.148 1.371-.315 2.039a45 45 0 0 1-1.183 4.04c-.027.07.031.513.132.346.559-.967 1.494-1.655 2.479-2.152.466-.237.954-.427 1.455-.598.411-.136 1.489-.633 1.753-.062.248.528-.353 1.285-.655 1.674a7 7 0 0 1-1.153 1.134c-.896.703-1.889 1.204-2.886 1.744-.093.051-.077.396.055.354 1.144-.396 2.405-.439 3.522.077.504.237 1.02.672 1.098 1.259.07.559-.462 1.053-.889 1.321-1.862 1.165-3.995-.136-5.07-1.733l-.093.4a9.6 9.6 0 0 1 1.544 2.945c.171.544.307 1.111.38 1.678.07.567-.097 1.402-.853 1.309-.505-.062-.924-.583-1.218-.952a6 6 0 0 1-.776-1.27 5.7 5.7 0 0 1-.419-3.038c.004-.054-.066-.396-.155-.248a16 16 0 0 1-1.502 2.097c-.229.28-1.466 1.946-1.838 1.383-.175-.268.069-.885.155-1.185.108-.396.26-.78.434-1.149a8.1 8.1 0 0 1 1.346-1.985c.078-.09.066-.319-.011-.408-.551-.61-.896-1.402-1.191-2.156a36 36 0 0 1-.912-2.564c-.527-1.728-.78-3.597 0-5.286l-.07.077c.532.039.757.855.939 1.259.252.567.489 1.134.71 1.717.438 1.161.803 2.35 1.098 3.55.023.082.07.132.143.078.074-.055.043-.241.028-.315a30.3 30.3 0 0 0-2.033-5.799c-.186-.4-.396-.956-.908-.995-.039 0-.062.055-.07.078-.814 1.74-.648 3.737-.143 5.539.267.963.62 1.9.973 2.832.334.882.722 1.69 1.335 2.408l-.012-.408a7.6 7.6 0 0 0-1.559 2.475 8.3 8.3 0 0 0-.4 1.332c-.07.354-.198.804-.066 1.154.345.924 1.408-.393 1.68-.692.737-.831 1.358-1.72 1.982-2.633l-.143-.296a6.23 6.23 0 0 0 1.548 5.244c.291.307.659.684 1.109.704.419.023.757-.307.912-.672.186-.447.147-.952.077-1.418a9 9 0 0 0-.368-1.55 11 11 0 0 0-1.664-3.213c-.117-.155-.163.296-.094.401 1.001 1.518 2.743 2.73 4.617 2.105.795-.264 1.571-.913 1.649-1.806.077-.89-.493-1.585-1.265-1.908-.501-.209-1.067-.279-1.606-.291-.675-.012-1.331.031-1.983.202l.032.357c1.745-.87 3.658-1.957 4.581-3.756.279-.54.528-1.74-.361-1.876-.458-.07-1.028.198-1.451.342-.492.171-.985.361-1.451.598-1.02.517-1.873 1.239-2.471 2.218l.132.346c.446-1.216.83-2.459 1.145-3.718.155-.606.295-1.216.368-1.837.062-.489.117-1.041-.004-1.523-.089-.353-.333-.711-.748-.617-.45.097-.71.61-.912.975-.555.99-.966 2.058-1.238 3.162a11.2 11.2 0 0 0-.275 3.791c.004.077.062.039.062-.016l-.015-.015zM223.316 121.823c-.872.21-1.675.61-2.331 1.228-.691.645-1.253 1.418-1.719 2.245-.465.824-.962 1.76-.938 2.708.011.4.225.341.527.194.485-.241.857-.606 1.253-.967.512-.467 1.028-.925 1.521-1.403.493-.477 1.012-1.006 1.575-1.437l-.062-.295c-.501.796-.71 1.888-.764 2.816s.038 1.958.446 2.828c.306.66 1.051 1.624 1.757.816.279-.319.38-.766.438-1.173.082-.54.136-1.096.163-1.64a19.4 19.4 0 0 0-.186-3.818l-.116.12c.663 1.915 2.432 3.357 4.418 3.702.873.156 2.169.237 2.468-.823.275-.991-.291-1.849-1.083-2.393-1.121-.781-2.467-1.309-3.809-1.55l.011.447c2.599-.117 5.249-1.243 7.006-3.197.637-.711 1.133-2.106.156-2.785-.462-.319-1.094-.303-1.622-.198-.702.136-1.373.411-2.021.714-1.494.692-2.801 1.624-4.007 2.739l.05.384a9.1 9.1 0 0 0 2.362-3.966c.024-.077.051-.229-.003-.303-.039-.05-.09-.097-.117 0a8.83 8.83 0 0 1-2.292 3.881c-.082.082-.016.451.05.385a15.2 15.2 0 0 1 2.956-2.125c1.051-.583 2.308-1.228 3.538-1.294.528-.027 1.183.093 1.408.637.279.676-.38 1.372-.818 1.807a10.1 10.1 0 0 1-6.657 2.87c-.132 0-.105.408.011.447 1.005.291 1.99.66 2.906 1.165.663.361 2.037 1.057 1.773 2.02s-1.765.73-2.479.591a5.8 5.8 0 0 1-2.32-1.057 5.6 5.6 0 0 1-1.792-2.284c-.066-.159-.109.136-.097.194.264 1.2.221 2.428.105 3.644-.055.555-.082 1.122-.183 1.674-.081.451-.395 1.177-.985 1.006-.446-.128-.757-.73-.923-1.126-.21-.505-.303-1.069-.33-1.613a6.7 6.7 0 0 1 .132-1.701c.12-.555.333-1.053.539-1.577.023-.05.012-.357-.089-.252-.477.524-1.02.986-1.556 1.456-.5.447-.985.909-1.474 1.371-.4.381-.807.82-1.292 1.088a.8.8 0 0 1-.287.109.39.39 0 0 1-.062-.396c.031-.183.078-.369.132-.544.081-.264.194-.529.306-.781.862-1.9 2.363-3.834 4.396-4.537.011 0 .004-.031 0-.031h-.012zM210.274 192.52a34.2 34.2 0 0 1 10.699 9.338c.396.529.757 1.317.287 1.772-.314.303-.814.24-1.241.159a30.8 30.8 0 0 1-6.781-2.203c-1.164-.532-2.301-1.138-3.511-1.561-.419-.144-1.478-.214-1.715-.657-.259-.474.4-1.627.571-2.097.147-.42 1.804-4.693 1.699-4.755h-.004z"/><path fill="#000" d="M220.861 137.105c-.051 1.655-.21 3.302-.225 4.956s.062 3.209.108 4.809c.097 3.252.264 6.503.408 9.754.287 6.503.566 13.005.853 19.508q.122 2.749.353 5.492.105 1.29.221 2.58c.078.858.186 1.833.373 2.699.05.226.201.229.229-.004.186-1.561.135-3.173.135-4.746s-.015-3.302-.077-4.953c-.12-3.251-.28-6.503-.423-9.754-.279-6.502-.559-13.005-.857-19.507-.082-1.842-.156-3.698-.326-5.536-.171-1.837-.485-3.55-.699-5.329-.011-.093-.066-.043-.066.023l-.011.012zM220.857 190.679l.143.159c.062.066.117.082.194.051 1.451-.618 2.786-1.76 4.074-2.669a220 220 0 0 0 3.883-2.816 208 208 0 0 0 7.681-5.963 82 82 0 0 0 1.796-1.507c.213-.186.446-.33.543-.598.051-.136.128-.552.027-.692-.438-.644-1.284.331-1.676.638l-1.912 1.549a259 259 0 0 1-7.817 6.048 206 206 0 0 1-4.325 3.12c-.741.524-1.56 1.029-2.231 1.639-.202.186-.648.742-.384 1.041z"/><path fill="#000" d="M221.136 189.991c-.221.929-.155 1.908-.12 2.855.039 1.069.12 2.137.229 3.197.213 2.04.558 4.071 1.016 6.075.896 3.916 2.301 7.808 4.461 11.211.578.913 1.184 1.81 1.831 2.672.598.797 1.16 1.477 2.126 1.745.109.031.082-.202.062-.253-.391-.936-.818-1.775-1.388-2.618-.54-.789-1.087-1.569-1.568-2.401a46 46 0 0 1-2.564-5.271c-1.439-3.465-2.397-7.159-2.929-10.872a68 68 0 0 1-.368-3.22c-.105-1.076-.082-2.125-.357-3.143-.089-.33-.353-.315-.427.012z"/><path fill="#D1D1D1" d="M283.768 204.554c3.285-2.731 4.74-6.86 5.295-8.441 1.35-3.83 1.4-7.213 1.268-9.287 3.581-2.634 10.917-8.779 15.642-19.427 5.38-12.119 4.248-23.034 3.561-27.396 6.056 8.363 13.116 20.113 18.287 35.212a132.6 132.6 0 0 1 5.439 21.753 128 128 0 0 0-13.213 4.545c-13.104 5.337-17.884 9.835-29.913 14.084a92 92 0 0 1-12.29 3.411 28 28 0 0 0-1.35-1.429c-4.054-4.005-6.956-4.266-9.237-7.307-.648-.862-1.493-2.257-2.009-4.358.57.229 11.494 4.478 18.516-1.36z"/><path fill="#000" d="M243.407 176.221c.307.21.524.486.842.684.276.171.567.291.861.411a8.8 8.8 0 0 1 1.494.793c1.016.664 2.087 1.243 3.119 1.88a77 77 0 0 1 5.85 3.989 63 63 0 0 1 5.462 4.615c.834.792 1.652 1.608 2.397 2.494.625.749 1.226 1.542 1.917 2.229.038.039.05-.062.042-.081-.325-2.416-1.982-4.16-3.658-5.776a61 61 0 0 0-5.621-4.794 52 52 0 0 0-6.153-3.989c-1.055-.583-2.125-1.177-3.262-1.589-.609-.225-1.144-.501-1.719-.796-.263-.132-.578-.291-.872-.33-.249-.031-.458.023-.699-.031-.093-.024-.066.252-.011.291zM328.442 168.872a8.7 8.7 0 0 0-4.752 3.907c-.291.505-1.059 1.756-.458 2.3.384.354 1.005-.163 1.342-.369q.775-.477 1.509-1.029a19 19 0 0 0 2.983-2.813l-.108-.252c-.439 1.946-.066 4.044 1.136 5.656.253.341.594.819 1.005.986.392.156.795-.062 1.032-.38.287-.393.314-.921.279-1.387-.042-.556-.143-1.119-.24-1.667-.214-1.161-.559-2.323-1.304-3.263-.108-.136-.135.265-.097.335.869 1.557 2.483 2.998 4.306 3.208.823.097 1.626-.252 1.738-1.154.109-.901-.372-1.654-.962-2.237a5.12 5.12 0 0 0-2.917-1.43l.012.463a11.8 11.8 0 0 0 2.983-.742c.88-.354 1.924-.797 2.51-1.573.395-.517.485-1.364-.121-1.772-.682-.462-1.757-.194-2.471.031a6.1 6.1 0 0 0-2.669 1.717c-.077.082-.023.466.055.396 1.028-1.006 2.001-2.097 2.808-3.29.648-.955 1.296-2.206 1.137-3.406s-1.455-1.002-2.203-.486c-1.04.715-1.707 1.865-2.367 2.91-.807 1.281-1.54 2.629-1.691 4.164l.174.116a14.27 14.27 0 0 0-1.249-7.252c-.159-.353-.411-.858-.853-.886-.442-.027-.625.439-.73.781a9.7 9.7 0 0 0-.345 3.422c.097 1.348.45 2.657 1.055 3.869.117.229.171-.241.128-.345-.267-.638-.841-.987-1.493-1.146a5 5 0 0 0-1.187-.136c-.314-.004-.768-.066-1.013.171-.194.186-.198.512-.128.753.117.385.458.606.776.808.869.544 1.773.956 2.782 1.185.077.015.089-.315.011-.342a18 18 0 0 1-2.102-.928c-.33-.175-.683-.362-.978-.595-.105-.081-.357-.287-.295-.411.062-.125.353-.136.474-.144 1.031-.055 2.56.043 3.045 1.138l.128-.346a9.5 9.5 0 0 1-.889-6.048c.078-.412.144-1.146.59-1.336.555-.241.888.532 1.059.924.435.995.729 2.063.912 3.135q.301 1.8.155 3.624c-.016.195.147.424.174.117.109-1.231.664-2.35 1.292-3.395.567-.952 1.145-1.958 1.913-2.766.531-.559 1.652-1.491 2.471-.909.559.4.209 1.418 0 1.946a8 8 0 0 1-.846 1.535c-.795 1.149-1.742 2.206-2.742 3.181l.054.396a6.04 6.04 0 0 1 2.576-1.678c.69-.225 2.188-.621 2.696.144.345.517-.396 1.134-.78 1.398-.458.307-.954.56-1.462.777a10.4 10.4 0 0 1-3.329.835c-.132.012-.116.439.012.463a5.4 5.4 0 0 1 2.746 1.336c.384.357.757.804.889 1.324.155.618-.26 1.084-.846 1.193-.923.171-1.955-.303-2.731-.769a5.76 5.76 0 0 1-2.114-2.234l-.097.334c.71.936 1.005 2.063 1.202 3.209.093.555.241 1.161.21 1.728-.031.568-.632 1.201-1.218.805-.411-.28-.757-.777-1.028-1.189a6.1 6.1 0 0 1-.687-1.437c-.341-1.034-.423-2.172-.171-3.24.012-.05-.003-.369-.108-.252a19.7 19.7 0 0 1-4.814 3.973c-.222.129-.567.369-.823.202s-.077-.485.012-.687a9 9 0 0 1 2.459-3.391 9.3 9.3 0 0 1 2.638-1.616c.039-.016.023-.171-.011-.16h-.028zM326.781 125.055a58 58 0 0 0-5.322 3.795c-1.691 1.372-3.251 2.793-4.523 4.522-.45.618-1.152 1.391-1.067 2.222.109 1.06 1.362.202 1.87-.043 1.97-.952 3.836-2.167 5.547-3.527a33 33 0 0 0 2.801-2.474c.885-.886 1.726-1.853 2.584-2.789l-.043-.175c-1.358 2.964-2.545 6.355-1.746 9.645.155.621.346 1.453.889 1.853.609.45 1.028-.187 1.249-.692.659-1.534 1.059-3.181 1.241-4.84a17.8 17.8 0 0 0-.291-5.613l-.116.175c.57 2.039 1.125 4.203 2.587 5.815.291.319.66.73 1.133.715.4-.016.702-.354.834-.703.353-.936-.174-2.113-.555-2.96a10.8 10.8 0 0 0-2.087-3.077l-.062.424c1.055.749 2.53 1.655 3.748.711.066-.055.042-.362-.043-.315-1.265.754-2.63-.105-3.666-.847-.109-.078-.128.358-.062.424a10.4 10.4 0 0 1 2.037 3.026c.248.555.512 1.173.578 1.782.077.688-.54 1.271-1.191.886-.466-.28-.846-.808-1.149-1.251a10.3 10.3 0 0 1-.841-1.491c-.493-1.061-.834-2.191-1.149-3.318-.062-.221-.135.078-.116.175a16.36 16.36 0 0 1-.605 8.962c-.117.326-.241.648-.38.967-.128.295-.295.691-.675.691-.71 0-.966-1.146-1.098-1.654-.373-1.453-.287-2.976.015-4.437.346-1.678.951-3.317 1.583-4.906.012-.031 0-.236-.054-.163-1.277 1.589-2.84 2.96-4.407 4.254a39.4 39.4 0 0 1-4.919 3.476q-.651.391-1.307.769c-.439.253-.924.599-1.413.731-.275.07-.589-.031-.578-.362.004-.221.132-.438.241-.621.264-.435.566-.847.873-1.251 1.214-1.589 2.642-3.014 4.197-4.265 1.758-1.41 3.655-2.618 5.505-3.908.078-.054.039-.396-.043-.342h-.011zM309.134 138.301c.268 1.096.385 2.207.61 3.306a81 81 0 0 0 .725 3.173c.5 2.04 1.055 4.067 1.598 6.095 1.067 3.993 2.114 7.99 3.15 11.987a3223 3223 0 0 1 6.083 23.929c.555 2.221 1.106 4.443 1.676 6.669.287 1.111.551 2.234.896 3.329.326 1.022.764 2.008 1.117 3.026.039.117.089-.015.078-.078-.303-2.128-.543-4.226-1.013-6.327a393 393 0 0 0-1.412-6.134 870 870 0 0 0-2.987-12.143 1124 1124 0 0 0-6.323-23.8 389 389 0 0 0-1.917-6.727 81 81 0 0 0-1.059-3.248c-.372-1.08-.869-2.008-1.202-3.057 0-.011-.004 0-.004.012v-.012z"/><path fill="#000" d="M323.441 194.187c1.649-.09 3.309-.49 4.927-.777 1.622-.288 3.282-.61 4.927-.898a930 930 0 0 0 9.845-1.755c3.197-.583 6.401-1.162 9.633-1.519q1.192-.134 2.397-.21c.749-.043 1.544-.148 2.285-.015.559.097 1.203.306 1.571.776-.081-.097.109-.225-.054.028-.116.182-.225.361-.361.528-.853 1.045-2.075 1.88-3.181 2.63-.663.45-1.342.881-2.021 1.297-.776.474-1.528.862-2.11 1.569-.051.062-.066.369.05.373.741.031 1.358-.4 1.994-.753a53 53 0 0 0 2.246-1.321c1.086-.684 2.188-1.391 3.061-2.342.605-.657 1.02-1.426.908-2.343-.144-1.126-1.187-1.608-2.219-1.689-3.527-.296-7.204.303-10.672.889-3.639.618-7.255 1.383-10.862 2.125-2.037.419-4.081.831-6.122 1.231-2.036.4-4.248.699-6.253 1.36-.221.07-.225.823.023.808h-.012zM255.154 190.745c.888.287 1.73.66 2.595 1.029.861.369 1.746.699 2.611 1.072.411.175.822.358 1.237.54.326.144.687.385 1.044.435.318.051.434-.163.566-.419.264-.501.532-.995.803-1.496.004-.015 0-.089-.015-.062q-.355.495-.722.995c-.12.171-.236.392-.465.411-.202.024-.408-.143-.571-.237a19 19 0 0 0-2.308-1.177c-1.548-.648-3.111-.92-4.76-1.153-.015 0-.015.062 0 .062h-.015"/><path fill="#000" d="M350.081 188.41c-.136.886.12 1.873.228 2.758.121.991.26 1.974.396 2.96.264 1.915.501 3.834.726 5.749s.419 3.819.632 5.726.33 3.647.787 5.426c.016.066.062.028.066-.023.229-1.888.093-3.779-.031-5.671-.132-2.02-.333-4.028-.566-6.037a150 150 0 0 0-.788-5.857 73 73 0 0 0-.5-2.894c-.147-.75-.171-1.81-.644-2.436-.175-.237-.291.194-.306.295z"/><path fill="#D1D1D1" d="M259.801 112.505c2.103-.028 4.035-1.372 5.199-3.12s1.664-3.861 1.916-5.95c1.059-8.923-1.106-17.018-.966-23.311.07-3.162.59-7.955 2.96-13.86a197 197 0 0 0 2.32 14.466 193 193 0 0 0 3.817 15.7c1.967-.73 4.174.53 5.439 2.207 2.254 2.991 2.44 7.163 1.33 10.745s-3.348 6.689-5.644 9.649c-8.088 10.425-17.566 20.202-22.194 32.563a80.6 80.6 0 0 0-1.916-19.741c-1.001-4.467-2.39-8.895-2.529-13.467-.148-5.023 1.249-10.053 3.801-14.377.854 3.236 2.258 8.554 6.456 8.5h.003z"/><path fill="#000" d="M306.128 144.163c-.12 1.053-.264 2.09-.202 3.158.109 1.899.532 3.717 1.331 5.454a15.2 15.2 0 0 0 3.774 5.104c.625.555 1.296 1.134 2.084 1.445.62.248 1.117.116 1.745.031.136-.016.097-.326.039-.392-.462-.525-.842-1.111-1.362-1.578-.57-.505-1.21-.928-1.807-1.41a14 14 0 0 1-3.658-4.443 17.4 17.4 0 0 1-1.541-4.401c-.201-.968-.395-1.966-.372-2.956 0-.024-.023-.039-.027-.004v-.012z"/><path fill="#D1D1D1" d="M223.929 202.783c.869 3.849 4 6.623 7.534 6.848 3.972.26 6.575-2.828 6.847-3.158 1.02 1.053 3.375 3.143 6.676 3.387 4.345.327 7.743-2.731 9.163-4.016 4.578-4.122 5.823-9.424 8.593-9.49.236-.004.993 0 1.641.478.834.617.907 1.81.9 2.851-.012 2.078-.016 4.152-.027 6.235-.737-1.655-1.467-3.318-2.204-4.973-.171-.384-.396-.819-.803-.924-.531-.136-1.012.369-1.292.843-1.357 2.311-1.416 5.197-.807 7.811.609 2.615 1.824 5.035 2.902 7.49.539 1.227.947 2.905-.136 3.702-.698.512-1.66.345-2.506.155-4.643-1.053-9.314-2.113-13.725-3.912-2.676-1.095-5.341-2.482-8.232-2.513.334 1.22 1.176 2.234 2.045 3.154a33.3 33.3 0 0 0 8.472 6.491c-5.221-1.286-10.594-2.645-14.885-5.893-.582-.439-1.16-.924-1.846-1.173-1.474-.54-1.792.424-2.828-.94a28.7 28.7 0 0 1-2.479-3.88 29.4 29.4 0 0 1-3.01-8.565h.003z"/><path fill="#000" d="M264.767 192.038c.004 2.502.264 5 .248 7.509-.004 1.15-.066 2.3-.163 3.446-.097 1.145-.368 2.303-.372 3.449 0 .384.489 1.55.807.691.407-1.095.438-2.427.55-3.581a38 38 0 0 0 .163-4.028c-.023-2.51-.143-5.217-1.198-7.517-.016-.038-.031.016-.031.031zM276.63 218.604c2.067 1.344 4.686.42 6.862-.194a87 87 0 0 0 6.405-2.078c4.186-1.531 8.263-3.341 12.29-5.244 8.232-3.885 16.301-8.165 24.851-11.339 2.401-.89 4.775-1.798 7.242-2.502s5.028-1.215 7.472-2.058c.023-.004.023-.097 0-.105-2.246-.109-4.438.318-6.615.835-2.176.517-4.29 1.138-6.416 1.783-4.224 1.282-8.305 3.154-12.301 5.019-8.182 3.806-16.126 8.114-24.471 11.552-2.463 1.014-4.95 1.958-7.483 2.777s-5.09 1.542-7.817 1.399c-.05 0-.031.143 0 .163l-.015-.012zM242.674 232.308a27 27 0 0 0 2.2 1.842c.861.644 1.811 1.134 2.785 1.584a24.4 24.4 0 0 0 6.703 2.024c3.275.478 6.502 0 9.675-.843 5.315-1.402 10.49-3.305 15.782-4.809 8.883-2.525 17.79-4.941 26.879-6.607 7.348-1.348 14.796-2.105 22.093-3.69 7.665-1.663 14.978-4.533 21.693-8.6a91 91 0 0 0 2.339-1.469c.307-.198.136-1.55-.163-1.375-6.765 4.032-14.019 7.318-21.673 9.206-7.018 1.729-14.237 2.525-21.34 3.807-9.369 1.69-18.551 4.207-27.703 6.802-5.093 1.441-10.105 3.107-15.16 4.669-3.247 1.006-6.575 1.942-10.001 1.919a22.6 22.6 0 0 1-5.745-.797c-2.161-.594-4.089-1.608-6.098-2.548a33 33 0 0 1-2.258-1.146c-.012-.004-.012.027 0 .031zM307.071 195.911c-.291-2.393-.276-4.793.357-7.132.155-.578.353-1.138.566-1.701.097-.264.194-.618.411-.808.318-.276.516.066.633.346.473 1.173.318 2.486.069 3.69-.291 1.414-.702 2.801-1.144 4.176-.031.105-.05.252 0 .357.023.043.093.171.147.066.924-1.798 2.351-3.255 4.101-4.257.163-.093.446-.315.648-.288.426.051.097.645-.016.87-.268.494-.656.921-1.005 1.36a53 53 0 0 1-2.463 2.906c-.016.015-.012.116.012.097 1.253-.925 2.719-1.55 4.298-1.348.198.027.411.039.465.252.066.249-.252.428-.438.567a7 7 0 0 1-1.055.645c-.768.381-1.653.637-2.518.571-.062 0-.042.183-.004.202.664.424 1.319.964 1.82 1.573.434.529 1.389 1.772.434 2.234-.814.396-1.575-.295-2.098-.843a16.7 16.7 0 0 1-1.634-1.993c-.031-.05-.081-.011-.093.031-.295.913-.655 1.838-1.148 2.665-.462.769-1.125 1.733-2.029 2.008-.202.063-.458.094-.648-.031-.314-.202-.229-.664-.194-.986.07-.556.221-1.1.427-1.612a6.5 6.5 0 0 1 1.792-2.448c.051-.042.055-.295-.039-.26-.702.268-1.454.466-2.215.517-.287.015-.597.011-.861-.105-.411-.171-.566-.606-.287-.979.411-.544 1.133-.73 1.781-.777a4.24 4.24 0 0 1 2.199.435c.093.043.121-.318.027-.369-.857-.427-1.819-.571-2.758-.361-.671.148-1.443.571-1.548 1.325-.093.656.396 1.068 1.005 1.126.896.082 1.874-.229 2.692-.555l-.038-.261c-1.323 1.154-2.247 2.945-2.285 4.716-.004.264.023.559.24.738.276.221.675.132.974 0 .756-.342 1.389-1.057 1.812-1.756.523-.862.845-1.814 1.21-2.758l-.093.031c.57.937 1.253 1.838 2.095 2.549.589.501 1.679.897 2.203.066.485-.77-.039-1.756-.493-2.393-.578-.804-1.303-1.402-2.234-1.733v.202c.989-.171 1.971-.334 2.902-.765.411-.194 1.016-.439 1.241-.862.12-.226.132-.556-.062-.75-.241-.241-.722-.229-1.032-.241a5.3 5.3 0 0 0-1.494.183 5.7 5.7 0 0 0-1.218.489c-.446.249-.787.56-1.109.956l.015.093a50 50 0 0 0 2.375-2.362c.655-.703 1.408-1.503 1.559-2.486.043-.276.054-.699-.198-.885-.318-.241-.803.108-1.082.268a9.8 9.8 0 0 0-2.27 1.786 10.6 10.6 0 0 0-1.803 2.576l.17.381c.45-1.445.854-2.922 1.133-4.413.241-1.267.345-2.599-.039-3.846-.105-.334-.318-1.107-.814-.819-.202.116-.319.345-.412.543-.163.346-.302.711-.426 1.073a16.5 16.5 0 0 0-.873 4c-.144 1.543-.093 3.089.287 4.596.031.136.093-.027.089-.09l-.012-.011zM278.841 208.167c-.788.874-1.369 1.833-1.742 2.96a8.4 8.4 0 0 0-.372 1.635c-.062.478-.159 1.072-.031 1.55.116.446.492.485.818.198.408-.357.644-.979.885-1.453.62-1.22 1.07-2.482 1.443-3.795l-.148-.136a4.14 4.14 0 0 0 .384 2.447c.373.754 1.005 1.496 1.793 1.799.966.373.69-1.232.597-1.717a4.85 4.85 0 0 0-1.334-2.486l-.043.291c.927.633 3.693 1.81 3.802-.175.031-.559-.202-1.146-.66-1.491-.741-.56-1.68-.529-2.56-.49l.027.315c1.106-.4 1.874-1.309 2.44-2.304.291-.505.539-1.033.768-1.569.268-.621.551-1.255.636-1.93.132-.995-.252-2.312-1.396-2.486-1.284-.199-2.301 1.165-2.851 2.14-.738 1.305-1.029 2.735-1.013 4.226h.147c-.097-2.024-1.388-3.861-3.297-4.572-.05-.015-.078.016-.093.062-.314.929-.221 1.931.136 2.84.411 1.045 1.152 1.864 1.87 2.707l.089-.396c-.532-.621-1.331-.843-2.134-.796a7 7 0 0 0-1.265.198c-.341.078-.791.144-1.039.419-.202.23-.225.591-.132.874.128.385.446.591.815.715.484.171 1 .26 1.501.381.597.147 1.202.264 1.808.384.104.024.128-.4-.012-.435a66 66 0 0 0-2.576-.528c-.396-.07-.846-.12-1.16-.396-.221-.194-.333-.525-.05-.723.155-.105.353-.143.531-.182 1.148-.249 2.743-.501 3.627.478.121.132.175-.296.09-.397-1.133-1.266-2.584-2.998-1.952-4.82l-.093.062c1.726.672 2.995 2.311 3.193 4.16.023.194.155.105.143-.05-.069-1.177.222-2.389.737-3.438.489-.995 1.257-2.129 2.39-2.436.516-.136 1.067-.011 1.428.4.423.486.473 1.146.341 1.756s-.392 1.146-.624 1.69c-.214.489-.435.975-.703 1.437-.55.963-1.284 1.822-2.347 2.218-.077.027-.066.319.028.315 1.132-.062 3.285-.023 3.111 1.655-.175 1.678-2.914.411-3.678-.121-.081-.054-.093.241-.043.291a4.9 4.9 0 0 1 1.172 1.97c.116.381.186.769.198 1.165 0 .202.012.253-.132.408s-.202.155-.4.078a3 3 0 0 1-.426-.241c-1.164-.777-1.835-2.218-1.622-3.605.016-.109-.081-.357-.147-.136a21 21 0 0 1-1.133 2.976 22 22 0 0 1-.78 1.522c-.116.202-.225.412-.419.556-.077.054-.182.128-.279.12-.241-.015-.237-.279-.229-.466.027-1.996.776-4.028 1.99-5.605l-.015-.012zM229.104 231.753a6.15 6.15 0 0 0-1.342 2.327 6.2 6.2 0 0 0-.264 1.243c-.039.334-.128.815.016 1.138.357.831 1.152-.82 1.276-1.068.458-.909.791-1.842 1.067-2.817l-.109-.104a3.14 3.14 0 0 0 .307 1.876c.267.528.818 1.227 1.435 1.352.617.124.419-.941.361-1.251a3.7 3.7 0 0 0-1.02-1.946l-.031.221c.686.462 2.746 1.363 2.862-.105a1.35 1.35 0 0 0-.399-1.08c-.551-.505-1.331-.478-2.021-.446l.023.237c.846-.315 1.428-1.007 1.858-1.772.225-.4.419-.816.598-1.239.201-.466.407-.948.45-1.457.066-.722-.229-1.627-1.04-1.771-.966-.171-1.746.859-2.161 1.585-.558.99-.787 2.074-.776 3.208h.109a3.91 3.91 0 0 0-2.483-3.445c-.039-.012-.062.016-.07.051-.543 1.635.512 3.002 1.509 4.175l.066-.295c-.407-.466-1-.637-1.609-.598a5.4 5.4 0 0 0-.994.159c-.263.062-.62.117-.787.361-.279.435.054.94.465 1.107.373.148.792.214 1.176.315.465.117.935.21 1.4.303.082.016.097-.303-.004-.33a43 43 0 0 0-1.869-.385c-.291-.054-.625-.081-.873-.252-.221-.148-.28-.505-.012-.649.116-.062.279-.081.411-.109.846-.171 1.971-.326 2.623.385.093.097.132-.225.066-.295-.858-.956-1.94-2.249-1.467-3.632l-.07.05a3.86 3.86 0 0 1 2.406 3.131c.015.144.116.078.108-.039-.066-1.165.318-2.365.986-3.317.5-.715 1.753-1.771 2.509-.726.419.578.222 1.285-.015 1.891-.182.459-.38.913-.597 1.352-.439.859-1.028 1.674-1.956 2.02-.054.023-.05.241.024.237.516-.027 1.109-.051 1.606.144.492.194.873.683.714 1.243-.319 1.111-2.177.159-2.743-.23-.062-.042-.07.183-.031.222a3.6 3.6 0 0 1 1.016 2.129c.023.221.043.664-.291.625-.12-.016-.236-.093-.333-.155-.928-.571-1.463-1.69-1.308-2.766.012-.082-.066-.268-.108-.105a15 15 0 0 1-.815 2.152c-.182.4-.384.804-.597 1.189-.159.279-.656.928-.73.221-.039-.357.051-.769.109-1.123.066-.372.163-.742.295-1.099a7.7 7.7 0 0 1 1.086-2.02v-.015zM351.601 196.206c2.312-1.876 5.005-3.294 7.061-5.453.197-.21.395-.435.512-.699.116-.265.132-.591-.024-.836-.116-.186-.306-.306-.504-.407-1.109-.556-2.413-.525-3.654-.447-.83.05-1.653.12-2.483.194-.4.039-1.94-.043-2.134.33-.097.198.094.699.128.898.078.419.148.835.222 1.25.143.808.279 1.616.419 2.428.081.474.159.94.236 1.414.027.148.307 1.259.221 1.336h.004zM209.518 25.633c-.346 3.94-.004 7.99.419 11.906.422 3.916 1.043 7.89 1.78 11.801s1.575 7.823 2.452 11.712c.873 3.888 1.715 7.543 2.781 11.26 1.963 6.822 4.656 13.534 8.973 19.225 1.967 2.59 4.302 5.065 6.983 6.926 1.342.928 2.824 1.689 4.457 1.93s3.313-.155 4.795-.855c1.738-.815 3.282-1.957 4.76-3.161a45 45 0 0 0 4.197-3.861 56 56 0 0 0 3.841-4.503c.57-.75 1.109-1.518 1.571-2.342.539-.967.947-1.997 1.463-2.975.054-.097-.028-.571-.156-.397-.446.618-.962 1.072-1.466 1.624a33 33 0 0 0-1.571 1.876 45 45 0 0 1-3.274 3.764c-2.27 2.335-4.752 4.596-7.48 6.382-1.346.882-2.862 1.624-4.5 1.717-1.637.094-3.258-.54-4.674-1.414-2.704-1.674-5.07-3.915-7.099-6.358-4.267-5.14-6.995-11.327-8.938-17.67-2.153-7.028-3.678-14.295-5.098-21.501-.818-4.16-1.544-8.34-2.098-12.539-.555-4.199-.807-8.382-1.331-12.566-.097-.789-.714-.758-.78.015z"/><path fill="#000" d="M248.959 93.055c.263 1.892 1.253 3.702 1.924 5.485a102 102 0 0 1 2.095 6.134c1.163 3.83 1.97 7.773 2.529 11.735.248 1.759.566 3.511.803 5.263.004.054.05.054.054 0 .159-1.666.291-3.286.194-4.964a60 60 0 0 0-.644-5.924 53.5 53.5 0 0 0-3.751-12.986c-.45-1.04-.966-2.039-1.494-3.049-.368-.7-.756-1.775-1.54-2.09-.174-.07-.174.295-.163.385z"/><path fill="#000" d="M254.025 109.374c-1.032 2.486-1.466 5.127-1.691 7.796-.249 2.859-.276 5.749-.163 8.619.221 5.819.966 11.607 1.451 17.407.135 1.643.252 3.294.325 4.944.031.777.028 1.562.082 2.339s.26 1.596.353 2.4c.027.253.209.226.24-.003.093-.634.237-1.259.315-1.9.089-.726.023-1.48 0-2.206-.043-1.43-.121-2.859-.222-4.293-.193-2.839-.461-5.671-.737-8.506-.543-5.602-1.082-11.246-.834-16.878.144-3.213.543-6.433.974-9.618 0-.039-.039-.21-.081-.105h-.004zM251.228 98.665c-2.153.835-3.619 2.606-4.966 4.401-1.439 1.918-2.494 4.047-3.553 6.199-2.417 4.914-4.539 9.964-6.994 14.862a96 96 0 0 1-2.398 4.471c-.38.672-.741 1.352-1.125 2.024-.419.738-.725 1.639-1.307 2.26-.186.199-.198 1.034.159 1.073 1.21.143 2.463 0 3.678-.117a44 44 0 0 0 3.642-.528c2.429-.439 4.814-1.041 7.169-1.748l-.333-1.57c-1.191 3.625-2.456 7.233-3.538 10.892-.082.276-.097 1.111.263 1.259 4.947 2.059 8.543 7.388 9.513 12.539.143.753.527.182.484-.307-.279-3.026-1.346-5.819-3.115-8.297-1.769-2.475-4.081-4.188-6.715-5.602l.21 1.438c1.268-3.512 2.362-7.085 3.522-10.636.07-.213.21-1.721-.333-1.569a86 86 0 0 1-7.177 1.709c-1.211.237-2.429.439-3.643.66s-2.471.354-3.658.711l.209.987c.315-.598.834-1.057 1.23-1.597.423-.571.823-1.165 1.203-1.767.686-1.084 1.307-2.218 1.924-3.345 1.265-2.311 2.424-4.676 3.546-7.058 2.273-4.836 4.329-9.769 6.773-14.523 1.264-2.459 3.053-4.405 5.474-5.765.259-.144.197-1.204-.148-1.072l.016.012zM268.51 63.957c1.242 11.44 3.488 22.751 6.114 33.946.729 3.123 1.463 6.254 2.335 9.342.082.295.291.633.606.412.314-.222.314-.936.248-1.239-1.218-5.602-2.564-11.168-3.79-16.77a786 786 0 0 1-3.484-16.66c-.597-3.03-1.323-6.04-2.002-9.054-.003-.031-.023.004-.023.023zM258.017 96.167c3.988-6.685.24-14.31-.093-14.975a53 53 0 0 1-3.81 6.029 53 53 0 0 1-5.082 5.97c1.284 2.626 2.572 5.248 3.856 7.874 1.409-.788 3.565-2.284 5.125-4.898z"/><path fill="#000" d="M243.477 109.766c.648-.427 1.183-1.068 1.676-1.666a20 20 0 0 0 1.482-2.04l-.089-.198c-.606 2.09-.648 4.285-.028 6.383.109.369.214.924.513 1.2.345.318.682-.07.861-.369.5-.82.551-1.822.539-2.758a16.6 16.6 0 0 0-.528-3.908l-.143.26a5.8 5.8 0 0 0 1.691 2.335c.551.447 1.886 1.363 2.44.458.427-.711-.12-1.837-.5-2.459-.524-.854-1.296-1.569-2.231-1.93l-.015.501c1.16 0 3.72-.089 3.406-1.88-.295-1.682-2.867-.855-3.763-.241l.043.307c.384-.42.787-.831 1.152-1.266.291-.342.531-.727.578-1.185.031-.358-.031-.765-.287-1.033-.287-.303-.702-.315-.99-.004-.05.05-.05.369.039.314.225-.136.555-.097.776.031.493.303.287.913.023 1.306-.384.559-.896 1.044-1.346 1.549-.042.051-.042.331.055.292.578-.226 1.152-.428 1.772-.505.532-.066 1.292-.128 1.641.38.489.7-.675 1.177-1.163 1.294-.644.155-1.292.163-1.952.136-.155-.004-.128.451-.015.501.702.334 1.334.792 1.819 1.402.334.424 1.323 1.9.567 2.261-.427.202-.924-.066-1.304-.268a5 5 0 0 1-.935-.649 4.9 4.9 0 0 1-1.373-1.946c-.082-.213-.163.183-.144.26a15.7 15.7 0 0 1 .478 3.632c.011.568 0 1.146-.144 1.694-.089.33-.594 1.624-1.044.975-.287-.419-.395-1.08-.512-1.569a10.7 10.7 0 0 1-.26-1.876c-.054-1.154.066-2.362.392-3.477.012-.039-.027-.303-.089-.198a20 20 0 0 1-1.443 2.012c-.524.645-1.133 1.251-1.653 1.907 0 .004 0 .043.004.039h-.004zM281.459 124.445c-1.509 1.041-2.61 2.685-3.25 4.39-.144.384-.474 1.379.228 1.445.412.039.9-.358 1.219-.571.411-.28.814-.583 1.19-.909.846-.73 1.548-1.573 2.243-2.447l-.117-.253a7.68 7.68 0 0 0 .369 5.038c.155.354.423.863.88.835.458-.027.644-.594.769-.951a9.6 9.6 0 0 0 .422-1.678 10.6 10.6 0 0 0-.062-3.687l-.097.105c.264.979.703 1.904 1.346 2.696.26.319 1.475 1.729 1.808.909.024-.051 0-.33-.081-.225-.38.458-1.641-1.03-1.851-1.271a5.6 5.6 0 0 1-1.125-2.237c-.038-.159-.116.027-.097.105a9.8 9.8 0 0 1 .055 3.01c-.07.517-.187 1.022-.334 1.519-.109.358-.24 1.057-.644 1.204-.465.175-.749-.439-.884-.777a6.6 6.6 0 0 1-.419-1.437 7.3 7.3 0 0 1 .097-2.964c.011-.042-.028-.384-.117-.252-.597.886-1.357 1.643-2.164 2.342q-.571.492-1.187.925a25 25 0 0 1-.675.466 2.4 2.4 0 0 1-.295.186.5.5 0 0 1-.303.07c-.147-.004-.221-.089-.213-.241-.155-.474.264-1.165.465-1.596.221-.458.477-.901.764-1.321.59-.862 1.316-1.635 2.076-2.342.015-.016.012-.093-.012-.078v-.011z"/><path fill="#000" d="M281.502 124.418c-1.005-.901-1.971-1.822-2.77-2.917a12.7 12.7 0 0 1-1.873-3.675l-.024.21c.225-.225.637.225.792.354.248.202.5.411.741.621.411.361.807.738 1.202 1.119.819.792 1.556 1.662 2.099 2.665.128.229.198-.195.163-.292a9.4 9.4 0 0 1-.45-3.729c.105-1.266.477-2.428.993-3.585l-.097.062c.551.33.559 1.088.636 1.663.089.664.159 1.336.225 2.008.144 1.402.214 2.812.314 4.218.004.097.109.28.156.09.213-.956.659-1.927 1.109-2.793.477-.913 1.071-1.76 1.719-2.56.135-.171.294-.354.539-.326.407.042.473.493.396.819-.117.513-.295 1.018-.466 1.519-.345 1.002-.729 2.024-1.249 2.956-.016.027-.012.221.05.175.873-.626 1.905-1.045 2.983-1.099.163-.012.144-.513-.011-.494-1.164.097-2.204.556-3.01 1.41l.062.163c.589-1.145 1.163-2.268 1.571-3.499.17-.517.407-1.1.318-1.655-.055-.369-.326-.82-.753-.789s-.791.692-1.028 1.014a15 15 0 0 0-1.067 1.639q-.42.759-.752 1.57c-.237.582-.38 1.188-.567 1.786l.156.09c0-1.585-.132-3.182-.307-4.755-.081-.742-.159-1.495-.295-2.229-.093-.517-.267-1.006-.69-1.344-.043-.039-.082.031-.097.062-1.284 2.338-1.37 5.38-.567 7.877l.163-.291c-.616-1.119-1.462-2.098-2.405-2.948-.446-.4-.923-.769-1.389-1.146-.26-.21-.911-.948-1.264-.579-.043.043-.039.155-.024.21.842 2.567 2.398 5.228 4.714 6.724.093.062.108-.237.05-.292v-.015z"/><path fill="#D1D1D1" d="M241.142 174.772c2.009-1.146 2.075-3.842 2.083-4.059.194 3.954.38 7.912.57 11.871q-1.798 1.023-3.592 2.047c-.225-3.131-.446-6.262-.671-9.385a3.7 3.7 0 0 0 1.61-.466z"/><path fill="#000" d="M240.098 183.838c-.174-4.529-.605-9.054-.873-13.58-.267-4.525-.461-9.062-.636-13.595l-.287.672a21.4 21.4 0 0 0 3.949-.486l-.318-.648c.636 8.693 1.005 17.39 1.532 26.088.039.664.532.672.524-.012-.155-8.705-.78-17.414-1.451-26.096-.011-.128-.066-.703-.318-.648a18.6 18.6 0 0 1-3.949.466c-.26 0-.291.512-.287.672.132 4.576.361 9.159.636 13.731.276 4.572.505 9.066 1.11 13.545.066.466.392.26.372-.12h-.004zM186.676 188.006c.939-1.266 1.389-2.824 1.955-4.28.621-1.608 1.226-3.22 1.831-4.833 1.215-3.227 2.429-6.459 3.643-9.687 2.425-6.445 4.795-12.9 7.188-19.356 1.188-3.209 2.379-6.414 3.562-9.622 1.109-3.011 2.044-6.188 3.627-8.989.768-1.363 1.586-2.598 2.731-3.682 1.043-.991 2.199-1.849 3.418-2.607 2.661-1.65 5.504-3.026 8.251-4.521 3.379-1.837 6.692-3.822 10.121-5.566a246 246 0 0 1 5.094-2.537c1.831-.882 3.677-1.775 5.291-3.003.097-.077.105-.633-.043-.59-1.61.462-3.072 1.27-4.542 2.047-1.575.831-3.127 1.709-4.71 2.54-3.037 1.589-6.153 2.991-9.237 4.495-3.084 1.503-5.927 2.839-8.813 4.405-2.506 1.363-4.853 2.921-6.781 5.046-2.06 2.26-3.104 5.181-4.155 8.017-1.238 3.345-2.479 6.685-3.709 10.03-2.417 6.557-4.841 13.117-7.258 19.678-1.369 3.702-2.696 7.416-4.05 11.125-.675 1.853-1.362 3.71-2.021 5.574-.66 1.865-1.412 3.78-1.742 5.784-.023.136.109.847.341.54h.012zM276.614 171.727a18.9 18.9 0 0 0-8.488 3.651c-.314.241-.609.501-.907.765-.26.237-.551.474-.741.769-.229.358-.361 1.03.135 1.24.326.136.73 0 1.056-.078.45-.117.896-.276 1.342-.42a50 50 0 0 0 2.432-.87c1.897-.726 3.732-1.585 5.54-2.497l-.097-.381a17.7 17.7 0 0 0-1.191 3.861c-.225 1.22-.384 2.509-.132 3.737.097.474.26 1.111.617 1.464.399.4.822-.109 1.059-.435.686-.963.896-2.245 1.117-3.379.287-1.492.435-3.026.144-4.529l-.128.186c.752 2.086 2.083 4.133 4.329 4.77a4.3 4.3 0 0 0 1.687.144c.501-.066.807-.183.889-.715.174-1.088-.346-2.152-1.125-2.878-1.028-.956-2.417-1.589-3.67-2.183l-.016.524c1.153.175 2.367-.287 3.441-.688.889-.33 1.785-.792 2.324-1.608.539-.815.609-1.86-.12-2.532-.889-.808-2.165-.447-3.15-.043a12 12 0 0 0-3.511 2.202l.078.428a9.5 9.5 0 0 0 1.307-3.966c.116-1.177.081-2.576-.617-3.586-.609-.881-1.951-1.41-2.836-.606-.834.758-.818 2.145-.756 3.174a11 11 0 0 0 1.237 4.51c.082.155.128-.28.117-.334-.186-.676-.594-1.216-1.079-1.717-.531-.56-1.117-1.111-1.804-1.48-1.078-.591-2.61-.598-3.324.551-.066.105-.062.342.011.439.532.731 1.347 1.111 2.138 1.504.989.489 1.963.979 2.995 1.371.07.027.07-.222.015-.26-.927-.571-1.885-1.053-2.855-1.535-.803-.396-1.672-.777-2.215-1.519l.012.439c.663-1.072 2.137-1.041 3.138-.512.594.314 1.098.765 1.575 1.231.504.501 1.04 1.033 1.241 1.74l.117-.334a10.3 10.3 0 0 1-1.117-3.531c-.128-1.018-.249-2.435.473-3.278.721-.843 1.905-.583 2.595.093.857.847.908 2.234.815 3.356a9 9 0 0 1-1.269 3.846c-.042.066-.015.512.078.427a11.7 11.7 0 0 1 2.49-1.709c.9-.462 2.045-1.014 3.104-.862.434.062.869.279 1.144.633.392.512.128 1.118-.225 1.573-.539.699-1.385 1.099-2.192 1.398-1.051.385-2.234.824-3.363.645-.136-.023-.128.474-.016.524.951.463 1.897.952 2.782 1.535.884.582 1.796 1.398 1.835 2.494.012.334-.066.512-.4.594a3.6 3.6 0 0 1-.71.089 4.4 4.4 0 0 1-1.481-.221c-.924-.295-1.731-.882-2.367-1.608-.721-.824-1.226-1.775-1.61-2.801-.07-.194-.132.171-.12.237.248 1.216.12 2.455-.116 3.663-.194 1.006-.361 2.086-.78 3.026-.144.33-.528 1.134-.954 1.134-.474 0-.687-1.029-.753-1.383-.21-1.087-.043-2.245.159-3.321a18 18 0 0 1 1.125-3.671c.027-.062.039-.45-.097-.38-2.84 1.48-5.85 2.692-8.895 3.663-.33.105-.664.264-1.005.33-.155.027-.341.039-.473-.07-.295-.249.116-.676.267-.831.501-.505 1.067-.956 1.626-1.399 1.105-.862 2.3-1.6 3.565-2.194a18.5 18.5 0 0 1 4.609-1.465c.042-.011.031-.163 0-.159h-.039zM292.213 104.313c1.594 1.11 3.15 2.334 4.857 3.255 1.707.924 3.375 1.6 5.109 2.276 3.402 1.325 6.866 2.455 10.342 3.558 3.472 1.107 6.979 2.171 10.412 3.418 3.433 1.243 6.905 2.343 9.186 5.182 1.11 1.379 1.886 2.991 2.596 4.603.779 1.768 1.454 3.57 2.094 5.388 1.319 3.764 2.53 7.571 3.814 11.343a531 531 0 0 0 8.224 22.494 579 579 0 0 0 5.07 12.489c.854 2.031 1.703 4.059 2.596 6.079.45 1.029.896 2.07 1.408 3.069.477.924 1.125 1.705 1.613 2.618.082.147.132-.129.105-.195-.357-1.006-.555-2.047-.896-3.053s-.752-2.02-1.152-3.014c-.776-1.915-1.56-3.818-2.335-5.733a585 585 0 0 1-4.497-11.487 723 723 0 0 1-8.243-22.887c-1.307-3.842-2.537-7.707-3.837-11.552-1.214-3.605-2.494-7.357-4.5-10.608-.896-1.453-1.967-2.774-3.348-3.796s-3.06-1.716-4.697-2.311c-3.484-1.27-7.045-2.327-10.606-3.368-3.95-1.149-7.914-2.237-11.809-3.566-1.967-.664-3.907-1.402-5.842-2.163-1.936-.758-3.829-1.232-5.664-2.078-.004 0-.004.015 0 .015v.024"/><path fill="#D1D1D1" d="M252.097 171.637a36.8 36.8 0 0 1 6.575-14.823 36.6 36.6 0 0 1 12.329-10.519 47 47 0 0 1-1.125-9.074c3.514 4.444 7.89 8.13 12.231 11.778 1.502 1.266 3.007 2.525 4.504 3.791-3.449-.097-8.127.21-13.306 1.931-12.309 4.098-18.939 13.382-21.208 16.912z"/><path fill="#000" d="M277.561 91.743c7.735 3.247 10.33 12.391 11.098 20.024.889 8.817-1.889 17.367-2.874 26.049-.559 4.945-.644 10.06.636 14.908l.594-1.841c-3.282-2.257-6.397-4.766-9.489-7.272a71 71 0 0 1-4.423-3.888c-1.307-1.259-2.595-2.626-3.049-4.436-.054-.214-.213-.513-.473-.396s-.291.645-.279.87c.198 3.597.675 7.167 1.361 10.705l.303-1.305a30.5 30.5 0 0 0-8.872 6.25c-1.265 1.286-2.518 2.723-3.433 4.285a47.5 47.5 0 0 0-2.623 5.15c-.042.098.027.478.136.28a22 22 0 0 1 2.952-4.141c1.145-1.278 2.258-2.629 3.534-3.834 2.557-2.408 5.447-4.451 8.616-5.958.369-.175.361-1.002.303-1.305-.683-3.434-1.148-6.899-1.482-10.384l-.725.704c.539 1.783 1.633 3.274 2.874 4.634 1.435 1.573 2.972 3.049 4.551 4.471 3.165 2.859 6.653 5.302 9.973 7.978.594.478.71-1.336.66-1.546-1.928-8.891.597-17.771 2.005-26.538.741-4.611 1.094-9.253.621-13.914-.427-4.207-1.428-8.484-3.46-12.22-.962-1.768-2.122-3.411-3.744-4.615-1.621-1.204-3.247-2.362-5.28-2.921-.077-.024-.081.186-.023.213l.016-.011z"/><path fill="#D1D1D1" d="M94.694 165.702c4.698-5.656 15.641-8.064 17.406-8.441-2.506.925-7.467 3.143-11.839 8.111a29.4 29.4 0 0 0-6.172 11.307c-.62-.936-2.072-3.387-1.633-6.409.325-2.222 1.52-3.702 2.242-4.568z"/><path fill="#E6B401" d="M88.98 123.471c-.016-.136-.252-2.619 1.676-4.099 1.439-1.107 3.076-.885 3.382-.835 5.493 1.873 10.983 3.737 16.48 5.606a7.1 7.1 0 0 1 2.583 2.221 7.1 7.1 0 0 1 1.284 3.726c.862 19.799 1.49 32.656 1.68 33.433.016.07.155.528-.023 1.014-.148.396-.45.637-.559.722-1.412 1.107-1.691 2.673-8.22 7.14a84 84 0 0 1-6.917 4.246 26.8 26.8 0 0 1 2.82-5.722c.823-1.259 1.886-2.906 3.705-4.537 2.952-2.653 4.803-2.525 7.072-5.446.621-.797 1.614-2.106 1.144-2.964-.395-.73-1.637-.765-2.036-.758-.175-.625-.66-1.984-1.847-2.497-.853-.361-1.664-.097-3.39.458-1.649.532-3.298 1.061-4.896 1.729a32 32 0 0 0-11.203 7.823c.966-5.034 3.076-9.766 4.45-14.699.775-2.785 1.306-5.803.325-8.522-.136-.385-.477-.843-.857-.684-.17.07-.268.253-.353.424-.555 1.107-1.567 3.274-2.968 5.931a14.8 14.8 0 0 1-1.528 2.327c-.606-8.678-1.203-17.352-1.808-26.022h.004z"/><path fill="#D1D1D1" d="M88.832 161.837c.132-1.457.598-2.867 1.125-4.238 2.021-5.259 4.939-10.294 5.614-15.887.147.011.36.05.566.182 2.219 1.399-1.07 10.488-1.226 10.904-1.237 3.356-2.176 4.444-2.653 7.598a20 20 0 0 0-.198 4.02 6.1 6.1 0 0 0-1.257 1.002 6.4 6.4 0 0 0-.99 1.333c-.515-.268-.748-1.768-.853-2.311a9.4 9.4 0 0 1-.135-2.603h.007"/><path fill="#000" d="M88.002 167.691c-.636-2.183-1.505-4.281-1.377-6.608.078-1.503.644-2.824 1.307-4.148 1.079-2.144 2.188-4.265 3.185-6.448.846-1.842 1.626-3.718 2.429-5.586.419-.975.803-2.144 1.505-2.964s1.082.229 1.28.948c.248.889.318 1.798.252 2.816-.116 1.849-.59 3.675-1.171 5.427-1.56 4.661-4.318 9.015-4.372 14.077 0 .392.353.909.527.295.314-1.088.485-2.21.764-3.306a25 25 0 0 1 1.125-3.383c.955-2.288 2.022-4.506 2.774-6.883.978-3.081 1.746-6.658.726-9.832-.23-.711-.769-2.602-1.84-1.981-.814.474-1.252 1.74-1.62 2.537-.823 1.794-1.572 3.62-2.363 5.426-1.098 2.494-2.3 4.926-3.527 7.35-.872 1.728-1.56 3.418-1.633 5.376-.05 1.425.132 2.851.543 4.218.295.995.69 2.012 1.455 2.747.039.038.039-.067.031-.082h-.004z"/><path fill="#000" d="M90.217 175.467c-.807-.819-1.226-2.179-1.373-3.301-.136-1.034.043-2.075.446-3.03.9-2.152 2.588-3.881 4.287-5.427a34.7 34.7 0 0 1 11.781-7.069c1.408-.502 7.22-2.778 7.231.198 0 .081.051.466.221.373.858-.459.097-2.141-.368-2.626-1.005-1.034-2.595-.672-3.841-.396a34.6 34.6 0 0 0-7.929 2.789c-2.518 1.243-5.004 2.932-7.169 4.847s-4.089 3.974-4.927 6.674c-.41 1.324-.523 2.746-.252 4.109.117.595.295 1.216.648 1.729.326.474.819.792 1.253 1.15.004 0 .012-.023 0-.023z"/><path fill="#D1D1D1" d="M117.85 145.301c-1.482 5.496-1.001 11.393.624 16.851.764 2.575 1.916 5.247 4.198 6.669-.528.21-.598.929-.528 1.496a9.5 9.5 0 0 0 3.658 6.339c-5.384-1.608-11.393-.963-16.324 1.744 1.342-1.616 2.681-3.228 4.015-4.848 1.944-2.342 3.972-4.878 4.287-7.912.031-.307.015-.676-.241-.847-.24-.159-.558-.054-.83.054-.466.195-.939.381-1.408.571.143-4.715 0-9.447-.439-14.143-.131-1.39-.287-2.804-.038-4.187.267-1.484.993-2.816 1.443-4.246.248-.777.221-2.008.748-2.657.699-.854 1.622-.353 1.68.626.097 1.534-.473 3.029-.861 4.49h.016"/><path fill="#000" d="M108.171 179.266c2.731-1.705 5.66-3.103 8.899-3.433a18.3 18.3 0 0 1 4.977.147c1.641.284 3.197.808 4.818 1.057.023 0 .016-.078 0-.09-2.622-2.311-6.595-2.804-9.939-2.268s-6.505 2.039-8.763 4.56v.027h.008M115.32 147.111c.183-1.981.539-3.978 1.587-5.698.275-.459.597-.882.939-1.286.457-.54 1.171-1.445 1.939-1.503 1.133-.09.854 2.047.846 2.711-.012 1.27-.136 2.537-.268 3.803-.252 2.486-.527 4.999-.221 7.493.287 2.323 1.183 4.405 2.584 6.265 1.319 1.748 2.917 3.267 4.158 5.074 1.397 2.031 1.82 4.451 2.836 6.657.889 1.931 2.339 3.52 4.12 4.67 1.901 1.231 4.108 1.992 6.265 2.672 2.153.684 4.24 1.255 6.378 1.822 6.8 1.806 13.663 3.387 20.533 4.918 4.589 1.021 9.182 2.012 13.779 2.983 5.171 1.087 10.331 2.191 15.564 2.87.66.09 1.319.066 1.978.117.714.054 1.424.147 2.138.225.012 0 .012-.043 0-.043-1.412-.4-2.789-.928-4.209-1.309a198 198 0 0 0-3.961-1.017c-2.642-.649-5.314-1.166-7.98-1.721a1326 1326 0 0 1-14.477-3.096c-7.34-1.616-14.672-3.294-21.945-5.182-2.313-.598-4.628-1.22-6.913-1.927-1.983-.609-4-1.27-5.843-2.233-1.838-.963-3.654-2.455-4.682-4.405-1.144-2.179-1.521-4.665-2.824-6.774-1.16-1.881-2.747-3.427-4.132-5.14-1.571-1.946-2.583-4.067-2.742-6.591s.267-5.171.461-7.746c.094-1.278.148-2.564.055-3.846-.062-.819-.132-1.996-.908-2.501-1.199-.781-2.661 1.266-3.251 2.078-.9 1.231-1.505 2.669-1.839 4.152a13.5 13.5 0 0 0-.329 3.419c.011.33.302.54.341.093h.015zM101.545 134.561c-.031 1.021-.741 2.202-1.785 2.392-1.334.241-2.68-1.231-2.808-2.684-.093-1.099.485-2.431 1.466-2.707 1.342-.381 3.185 1.282 3.131 2.999z"/><path fill="#fff" d="M110.622 131.123c.082 3.002.435 6.009.66 9s.438 5.842.721 8.763c.004.07.055.031.055-.015.031-3.022-.109-6.017-.357-9.028-.248-3.01-.466-5.865-1.067-8.724h-.012zM94.306 122.053c.873.345 1.715.769 2.572 1.146.857.373 1.753.73 2.626 1.099 1.703.722 3.445 1.352 5.144 2.086.012 0 .012-.027 0-.031-1.687-.859-3.351-1.744-5.105-2.467a62 62 0 0 0-2.572-1.002c-.869-.315-1.784-.54-2.669-.835v.011h.004z"/><path fill="#D1D1D1" d="M98.969 171.839c.36-1.002 1.257-3.026 4.973-6.211 2.177-1.864 5.742-4.494 10.917-6.607-.928.979-2.367 2.459-4.194 4.187-3.6 3.407-4.899 4.176-6.533 6.068-1.385 1.6-3.119 4.14-4.306 8.06q-.613.734-1.23 1.468c-.314-1.441-.663-4.094.38-6.969h-.003z"/><path fill="#000" d="M93.759 178.012c1.45-3.663 2.847-7.28 5.315-10.403 2.257-2.866 5.182-5.244 8.274-7.163 1.478-.912 3.038-1.775 4.698-2.315.551-.182 2.366-.804 2.813-.089.275.447-.334 1.305-.578 1.643-.493.688-1.149 1.251-1.808 1.771-1.633 1.294-3.414 2.401-5.001 3.749-1.885 1.6-3.572 3.55-4.973 5.586-1.474 2.14-2.521 4.412-2.79 7.007 0 .051.063.303.117.148 1.556-4.533 4.632-8.55 8.38-11.506 1.718-1.352 3.627-2.486 5.241-3.966 1.28-1.173 2.164-2.579 2.075-4.37-.066-1.383-.749-2.012-2.087-1.853-1.54.187-3.045.921-4.395 1.636-3.593 1.891-6.913 4.471-9.516 7.594-2.94 3.527-5.16 7.901-5.82 12.457 0 .027.028.136.055.07z"/><path fill="#D1D1D1" d="M112.562 171.163a38.4 38.4 0 0 1 5.078-5.772 17.2 17.2 0 0 1-1.606 4.965c-1.428 2.816-3.39 4.676-5.423 6.607a39 39 0 0 1-2.44 2.136 38.8 38.8 0 0 1 4.391-7.932z"/><path fill="#000" d="M100.133 182.525c-.361-.78-.78-1.522-.986-2.369-.236-.991.175-1.732.951-2.338 1.016-.797 2.273-1.271 3.379-1.939 2.773-1.674 5.291-3.748 7.774-5.815 1.04-.862 2.068-1.744 3.13-2.575.699-.544 1.444-1.173 2.274-1.511.24-.097.465-.066.698-.121.027-.003.128.082.132.078.764-.493-.082-.214-.054-.237-.031.023-.09.342-.105.385-.439 1.363-1.249 2.633-1.982 3.857a79 79 0 0 1-3.395 5.1c-1.04 1.43-2.258 2.669-3.538 3.885-.023.015-.015.128.016.105 3.018-2.04 5.493-4.743 7.374-7.859.823-1.371 1.746-2.816 2.142-4.385.174-.699.384-2.467-.699-2.576-.741-.07-1.598.618-2.16 1.014-1.187.843-2.293 1.795-3.406 2.723-2.879 2.401-5.777 4.832-9.024 6.716-1.443.836-3.142 1.438-3.875 3.081-.73 1.643-.303 3.989 1.33 4.848.028.011.016-.063.016-.07z"/><path fill="#D1D1D1" d="M128.556 184.545c8.081.121 17.291 3.492 22.062 5.536 9.031 3.869 18.058 7.734 27.093 11.599 4.174 1.786 8.368 3.581 12.74 4.801 1.943.544 4.147.948 5.896-.07 1.218-.703 1.99-1.973 2.631-3.228a37.16 37.16 0 0 0 4.081-16.462 47 47 0 0 0 7.048 5.64 68.8 68.8 0 0 1-10.726 21.17 112 112 0 0 1-32.687-8.973c-8.899-3.978-17.259-9.105-26.193-13.013-4.248-1.861-8.403-3.577-13.636-4.533-3.282-.598-8.243-1.119-14.423-.249a54.3 54.3 0 0 1 9.345-1.891s3.394-.381 6.766-.331z"/><path fill="#000" d="M199.466 214.292c.551-.78 1.215-1.468 1.758-2.26a65 65 0 0 0 1.575-2.444 84 84 0 0 0 2.956-5.112c1.873-3.55 3.445-7.244 4.449-11.14.105-.4.109-1.088-.201-1.414-.311-.326-.555.078-.637.384-.985 3.796-2.463 7.443-4.201 10.951a118 118 0 0 1-2.781 5.232c-.478.847-.966 1.69-1.44 2.54-.551.991-.989 2.047-1.547 3.03-.032.055-.001.315.065.226h.004zM100.905 183.178c4.352 4.731 11.494 4.362 17.371 4.207 3.561-.093 7.045.05 10.482 1.053 3.317.967 6.599 2.171 9.834 3.398 6.568 2.486 12.852 5.575 19.11 8.744 6.214 3.147 12.429 6.34 18.939 8.826 3.514 1.344 7.114 2.486 10.796 3.278 1.838.396 3.735.793 5.621.913 1.885.12 3.891.237 5.807-.171.054-.012.051-.155 0-.163-1.676-.361-3.379-.489-5.078-.754-1.699-.264-3.352-.516-5.012-.858-3.383-.692-6.707-1.678-9.962-2.832-6.517-2.323-12.72-5.403-18.881-8.522-6.203-3.147-12.394-6.316-18.857-8.907-3.208-1.286-6.467-2.432-9.741-3.543s-6.482-1.837-9.939-1.907c-3.759-.078-7.522.315-11.281.05-3.208-.225-6.467-1.146-9.202-2.878-.027-.016-.023.062-.011.078h-.004z"/><path fill="#000" d="M186.971 184.658c.357-.082.683-.07 1.04-.12.318-.043.644-.183.954-.249a16.5 16.5 0 0 1 2.095-.295 16.5 16.5 0 0 1 4.306.213c1.877.346 3.666 1.03 5.369 1.877 3.115 1.546 5.83 3.927 8.472 6.156a527 527 0 0 1 6.902 5.932c1.439 1.251 2.894 2.502 4.197 3.896.314.334.756.835.939 1.146.042.07.077.148.116.221.07.129.012-.097.023.066-.015-.264-.062-.439.028-.699 0-.004 0-.023.003-.023-.023-.016.09-.027-.077.043-.148.066-.039.031-.194.062-.287.05-.578.039-.861.011-1.428-.136-2.836-.621-4.182-1.072a78 78 0 0 1-3.507-1.282c-1.567-.606-3.127-1.351-4.764-1.748-.396-.093-.314 1.135-.05 1.294 1.439.882 3.076 1.476 4.647 2.086 1.11.435 2.231.854 3.363 1.243 1.37.466 2.782.948 4.221 1.154.504.07 1.203.174 1.653-.144.768-.54.461-1.834.07-2.498-.73-1.239-1.913-2.245-2.956-3.208-1.963-1.811-4-3.543-6.041-5.264-2.362-1.996-4.721-4.016-7.196-5.877-1.249-.928-2.521-1.841-3.895-2.579a20.5 20.5 0 0 0-4.748-1.826c-1.637-.408-3.468-.621-5.198-.45-.78.077-1.54.229-2.281.477-.423.144-.873.292-1.269.501-.434.23-.803.595-1.187.902-.011.003-.011.062 0 .054zM253.191 180.121c-.07-2.731-.559-5.419-.636-8.153-.078-2.735.089-5.446.446-8.15.721-5.43 2.199-10.787 4.143-15.899 4.027-10.597 9.989-20.362 15.727-30.093 2.971-5.046 6.401-10.872 5.175-16.967-.07-.357-.291-.21-.268.093.361 5.606-2.809 10.582-5.578 15.196-2.77 4.615-5.878 9.618-8.601 14.551-5.423 9.843-10.043 20.289-11.518 31.53-.407 3.108-.581 6.262-.465 9.393.054 1.53.182 3.057.396 4.576.194 1.402.422 2.773 1.055 4.047.07.144.132-.062.132-.128h-.004z"/><path fill="#CFB773" d="M86.885 64.326c6.866 18.273 10.552 35.104 12.6 48.575h-.004a183.2 183.2 0 0 0-19.998-45.428 32.2 32.2 0 0 1-8.794 1.215c-17.818 0-32.26-14.461-32.26-32.303 0-17.84 14.442-32.306 32.26-32.306s32.264 14.461 32.264 32.306c0 11.93-6.46 22.351-16.068 27.941"/><path fill="#D1D1D1" d="M265.069 213.554c.687 1.352 1.467 2.684 1.785 4.164s.108 3.186-.974 4.246c-.621.61-1.462.952-2.3 1.173a8.5 8.5 0 0 1-2.281.295c-1.49-.023-2.933-.505-4.341-1.002a219 219 0 0 1-6.471-2.389c-3.802-1.468-7.681-3.115-10.505-6.056-.128-.132-.26-.314-.182-.477.089-.198.372-.175.581-.117 5.912 1.628 11.367 4.669 17.302 6.223 1.517.396 3.119.691 4.632.287.555-.147 1.133-.435 1.362-.963.108-.241.132-.517.128-.781-.024-1.429-.753-2.738-1.385-4.02a34.7 34.7 0 0 1-2.06-5.19c-.439-1.441-.792-2.932-.729-4.44.042-1.087.314-2.19.872-3.13.854-1.43.842.314.974 1.126a38 38 0 0 0 1.897 7.19 37 37 0 0 0 1.691 3.857h.004zM242.29 224.598c3.751 1.204 7.852 1.464 11.65.411-.757-.384-1.521-.769-2.281-1.153-.28-.144-.559-.288-.869-.358-.493-.12-1.017-.054-1.521.028-.885.143-1.781.341-2.665.198-.625-.097-1.21-.358-1.792-.618-3.911-1.744-7.856-3.504-11.363-5.986-.527-.373-1.548-1.503-2.254-1.068-.764.474-.295 1.402.144 1.888 1.35 1.491 3.169 2.719 4.861 3.779 1.9 1.201 3.945 2.191 6.086 2.879z"/><path fill="#000" d="M255.608 225.173c-.955-.331-1.804-.754-2.704-1.205-.9-.45-1.804-.726-2.692-1.087-1.746-.715-3.484-1.476-5.082-2.486-2.914-1.849-5.478-4.32-6.933-7.482l-.186 1.061c1.474-.051 2.855.447 4.198 1.002q1.898.791 3.813 1.542c2.595 1.022 5.214 1.985 7.89 2.777 1.265.373 2.549.692 3.841.964 1.191.252 2.432.544 3.658.579.873.023 1.87-.129 2.495-.804.725-.777.729-1.958.477-2.933-.33-1.255-.993-2.455-1.556-3.617-.621-1.297-1.257-2.598-1.765-3.946-.873-2.323-1.397-4.999-.427-7.385.202-.501.528-1.359 1.191-1.316.567.039.924.637 1.117 1.107.478 1.173.741 2.447 1.094 3.663.691 2.416 1.638 4.669 3.434 6.479 3.685 3.71 9.159 5.469 11.894 10.146.097.171.147-.132.132-.202-1.323-4.984-6.359-7.093-10.013-10.096-2.044-1.681-3.468-3.701-4.333-6.211-.427-1.231-.764-2.494-1.176-3.729-.302-.901-.659-2.249-1.613-2.692-.955-.443-1.707.591-2.076 1.348-.543 1.123-.807 2.381-.873 3.624-.135 2.568.559 5.038 1.548 7.385.532 1.258 1.148 2.486 1.738 3.725.423.897 1.703 2.734.578 3.488-.853.567-2.075.392-3.026.229a51 51 0 0 1-4.158-.885c-3.112-.804-6.161-1.814-9.171-2.949s-5.78-2.626-8.93-2.532c-.408.011-.287.846-.186 1.06 1.423 3.119 3.875 5.652 6.746 7.47a30 30 0 0 0 5.19 2.614c.912.357 1.87.703 2.828.913.411.089.834.089 1.253.144.605.081 1.191.229 1.781.369.054.011.062-.117.015-.132z"/><path fill="#D1D1D1" d="M249.944 229.729a40 40 0 0 1-6.37-1.861 40.7 40.7 0 0 1-8.709-4.626c.621 1.061 2.444 3.884 6.106 5.586 4.093 1.903 7.829 1.173 8.973.901"/><path fill="#000" d="M234.279 222.939c1.021 3.962 4.12 7.295 7.677 9.183 1.94 1.029 4.093 1.678 6.285 1.841a14.1 14.1 0 0 0 3.414-.136c1.133-.186 2.161-.633 3.22-1.138.015-.012.015-.082-.004-.082-1.067.156-2.165.156-3.243.202a22 22 0 0 1-3.302-.093c-2.141-.229-4.248-.819-6.16-1.822a17.3 17.3 0 0 1-4.609-3.519c-1.319-1.418-2.246-2.933-3.251-4.502-.015-.027-.027.051-.023.054v.012z"/><path fill="#000" d="M248.873 229.36c-2.921-.645-5.811-1.795-8.437-3.224-2.627-1.43-5.164-3.321-7.223-5.547-1.013-1.088-1.983-2.35-2.379-3.807-.069-.26-.174-.307.105-.423.097-.039.287.011.392.039.291.077.551.275.788.45.566.424 1.109.87 1.679 1.286a36.4 36.4 0 0 0 8.209 4.479 32 32 0 0 0 4.779 1.441c1.626.357 3.6.664 5.292.287.228-.05.267-.633.031-.699-1.587-.478-3.286-.633-4.908-.994a35.5 35.5 0 0 1-5.016-1.519c-3.204-1.251-6.199-2.972-8.984-4.98-.78-.559-2.518-2.101-3.076-.439-.45 1.336.558 3.143 1.276 4.215 1.753 2.614 4.446 4.785 7.142 6.355 1.586.924 3.297 1.759 5.058 2.299 1.762.54 3.499.816 5.268.979.066.004.066-.175.012-.186v-.012z"/><path fill="#fff" d="M52.32 6.32c.221-.423.466-.87.885-1.095.341-.187.748-.199 1.136-.21l29.39-.595c.345-.003.698-.011 1.02.105.411.148.73.486 1.017.82 3.262 3.818 4.356 8.97 6.214 13.634.741 1.865 1.633 3.718 1.793 5.722.116 1.457-.163 2.921-.354 4.374-.275 2.098-.356 4.215-.446 6.328-.267 6.697-.543 13.385-.814 20.082-7.084.82-14.226 1.045-21.356 1.146-8.178.117-16.351.07-24.529.027.066-15.926-.4-22.06-.873-24.604-.116-.625-.965-2.828-.194-5.48a96 96 0 0 0 1.184-4.34A70.5 70.5 0 0 1 52.316 6.32z"/><path fill="#EDDAD7" d="m69.16 43.564.28 6.207c-3.856.09-7.709.183-11.565.268 3.763-2.163 7.522-4.32 11.285-6.48z"/><path fill="#EDDAD7" d="M85.772 38.398c-.12-.626-.253-1.251-.392-1.861l-9.276.684c-.011 3.107.004 6.277.062 9.5.05 3.163.136 6.274.249 9.32-.834.194-1.676.392-2.51.582a326.886 326.886 0 0 1-.966-20.358c-.214.175-2.18 1.733-4.764 1.095-2.84-.699-3.802-3.41-3.864-3.593-.609 2.354-2.692 4.044-5.105 4.141-2.363.097-4.543-1.36-5.38-3.593-.082.26-.854 2.59-3.313 3.453-2.231.781-4.116-.252-4.396-.412-.066-1.08-.128-2.155-.194-3.235 1.397.979 3.422.598 4.73-.494 1.306-1.095 2.016-2.746 2.478-4.389.12.424.869 2.828 3.348 4.098.57.291 2.742 1.297 5.055.373 2.265-.901 3.778-3.306 3.81-6.056-.044.486-.144 2.312 1.116 3.966.307.408 1.37 1.799 3.205 2.032 1.97.248 3.483-.975 3.984-1.519 1.012-1.088 1.598-2.498 2.122-3.888.395 2.548 2.548 4.72 5.09 5.139 1.28.21 2.653-.004 3.712-.75 1.738-1.216 2.312-3.488 2.758-5.562.016.275.229 3.053 2.68 4.587 2.06 1.286 4.186.75 4.551.657.202 7.8.4 15.603.605 23.403q-4.606.363-9.21.727c.881-5.42 1.072-11.541-.162-18.055h-.016z"/><path fill="#EDDAD7" d="M61.499 20.863a29.3 29.3 0 0 1-3.022 6.608c.229.05 1.264.314 1.765 1.239.59 1.087.194 2.68-1.094 3.674.69-.054 2.048-.268 3.328-1.239 2.6-1.957 2.584-5.26 2.576-5.652.307-6.988.62-13.98.927-20.968-1.33.055-2.66.105-3.995.16.756 3.24 1.672 9.303-.49 16.174zM80.748 19.209a23 23 0 0 1-.978 7.112c.136.031 1.568.38 2.126 1.74.466 1.138.128 2.51-.861 3.387.648.016 1.567-.07 2.483-.57 1.811-.987 2.855-3.17 2.785-5.614-2.134-6.902-4.263-13.809-6.397-20.72-1.575-.042-3.15-.089-4.725-.131 1.653 2.07 5.412 7.365 5.567 14.788z"/><path fill="#000" d="M42.277 27.972c1.005-1.24 1.323-2.945 1.85-4.428q1.11-3.155 2.335-6.262c1.575-3.99 3.31-7.917 5.164-11.778.143-.303-.093-1.48-.392-.882-1.967 3.994-3.798 8.049-5.427 12.194-1.362 3.46-3.282 7.376-3.565 11.125 0 .011.004.066.027.039h.004zM86.528 4.436c1.171 3.597 3.037 7.081 4.713 10.469 1.785 3.616 3.604 7.244 5.7 10.701.527.87.775-.843.554-1.282-1.796-3.647-3.775-7.205-5.648-10.818-1.65-3.181-3.065-6.697-5.07-9.657-.203-.295-.288.474-.249.59zM79.902 4.552c.528 3.803 1.792 7.482 2.906 11.153 1.117 3.67 2.114 7.217 3.561 10.663.163.392.306-.32.268-.467-.986-3.841-2.312-7.598-3.472-11.389-1.02-3.321-1.77-6.817-3.251-9.967-.004-.012-.012.004-.012.011zM65.246 26.636c-.225 3.088 1.055 7.423 4.729 7.706 4.267.334 6.067-4.218 5.745-7.76-.07-.778-.539-.409-.516.193.117 3.17-1.935 6.69-5.543 6.145-3.142-.466-3.593-3.822-4.395-6.292 0-.016-.012-.004-.012 0l-.012.011z"/><path fill="#000" d="M75.767 26.084c-.69 1.227-.09 3.224.434 4.424.83 1.908 2.537 3.322 4.632 3.558 4.081.467 6.863-4.4 5.637-7.994-.09-.264-.194.063-.202.171-.21 1.85-.26 3.582-1.598 4.972-.95.99-2.188 1.542-3.577 1.476-1.144-.054-2.293-.543-3.154-1.297-1.625-1.418-1.68-3.356-2.126-5.275 0-.016-.027-.07-.05-.031h.004zM53.213 27.444c-.66 3.068 1.896 6.498 4.779 7.29 4.643 1.27 7.615-3.973 7.483-7.95-.023-.723-.473-.712-.485.01-.062 3.808-3.328 8.022-7.495 6.367-2.479-.986-3.48-3.266-4.023-5.721-.054-.241-.213-.222-.263.003z"/><path fill="#000" d="M54.667 27.987c1.443-.023 2.879-.174 4.33-.252 1.45-.078 2.89-.26 4.34-.466.016 0 .016-.062 0-.062-1.474-.187-2.878-.241-4.352-.082-1.474.16-2.902.353-4.314.765-.027.004-.023.097 0 .097zM76.717 26.632c1.467-.031 2.93-.024 4.395-.082.722-.027 1.44-.039 2.161-.066s1.521-.012 2.235-.21c.015 0 .015-.062 0-.066-.714-.24-1.501-.26-2.254-.28-.753-.023-1.44 0-2.16.024-1.479.054-2.934.287-4.384.579-.028 0-.024.105 0 .105h.003zM75.883 36.68c-.213 1.492-.198 3.038-.221 4.545-.027 1.643-.05 3.294-.043 4.945.004 3.29.043 6.596.237 9.882l.318-.738-.015-.042c-.043-.063-.09.023-.097.062l-.055.089c-.225.252-.236 1.022.031 1.255.38.326.5-.385.49-.637-.079-3.248-.21-6.499-.269-9.742-.027-1.6-.054-3.201-.062-4.802-.004-1.6.05-3.173-.097-4.743-.015-.163-.174-.314-.213-.066z"/><path fill="#000" d="M76.046 36.956c.407.241.935.183 1.397.187.531 0 1.07-.016 1.606-.023.993-.016 1.99-.031 2.983-.063.993-.03 1.99-.042 2.983-.07.531-.015 1.07-.03 1.606-.05.229-.004.462-.004.687-.023.353-.024.26 0 .473-.334.031-.055.031-.183-.004-.23-.229-.326-.136-.306-.489-.306-.228 0-.461.011-.686.015l-1.606.039c-.993.027-1.99.062-2.983.093q-1.492.047-2.984.105c-.531.023-1.07.027-1.606.066-.473.031-.989 0-1.385.264-.066.043-.062.28.004.319v.011zM45.916 33.888c-.23 1.853-.202 3.752-.222 5.617-.015 1.864-.011 3.74-.015 5.613-.004 1.872 0 3.74 0 5.613v2.738c0 .956-.05 1.993.108 2.937.07.435.54.831.656.163.155-.886.109-1.814.128-2.72.016-.955 0-1.914 0-2.877v-5.75c0-1.915 0-3.74-.015-5.613-.016-1.872 0-3.845-.225-5.745-.055-.462-.346-.427-.4.012h-.012z"/><path fill="#000" d="M45.92 56.961c6.423.291 12.883.132 19.31.078 6.429-.055 12.868-.171 19.308-.33 3.647-.09 7.309-.11 10.951-.292.26-.011.23-1.184-.027-1.177-6.436.11-12.868.42-19.303.54s-12.868.198-19.308.241c-3.646.027-7.3-.015-10.951.117-.21.004-.198.815.023.823z"/><path fill="#000" d="M94.457 31.666c-.263.924-.267 1.973-.325 2.933-.055.955-.09 1.938-.11 2.905a134 134 0 0 0-.015 6.355c.043 2.117.148 4.14.291 6.211q.106 1.545.252 3.088.076.812.16 1.612c.042.435.054.847.353 1.193.155.182.352.066.422-.128.315-.882.05-1.904-.038-2.816a210 210 0 0 1-.26-3.108 177 177 0 0 1-.326-6.075 159 159 0 0 1-.117-6.08c0-.99.016-1.98.024-2.97.004-.992.07-2.052-.07-3.05-.027-.194-.163-.315-.237-.066h-.004zM42.153 28.391c2.044-8.033 5.61-15.58 9.155-23.07.07-.155.155-.314.302-.396.12-.066.264-.07.408-.07 2.141-.023 4.286-.05 6.428-.07q-2.461 11.34-4.935 22.678a7.7 7.7 0 0 1-.345 2.482c-.221.71-.896 2.879-2.968 3.954a4.9 4.9 0 0 1-1.951.568c-1.653.108-3.286-.758-4.33-2.06-1.039-1.297-1.54-2.963-1.652-4.622"/><path fill="#000" d="M42.277 27.245c-1.032 3.186 2.036 7.167 5.05 7.874 4.477 1.053 7.034-4.35 6.044-8.056-.08-.319-.263-.144-.279.105-.136 2.09-.225 4.133-1.928 5.574-1.284 1.095-2.905 1.363-4.477.754-2.835-1.096-3.576-3.543-4.274-6.212-.024-.07-.094-.155-.132-.039z"/><path fill="#fff" d="M43.235 28.314c.671.21 1.509.081 2.203.077a66 66 0 0 0 2.122-.054 64 64 0 0 0 4.318-.315c.012 0 .012-.05 0-.05a29 29 0 0 0-4.419-.21c-.737.027-1.474.07-2.203.155-.648.07-1.435.078-2.029.362-.011 0-.004.03 0 .03h.004z"/><path fill="#000" d="M65.013 26.503c.04.882.225 2.42 1.145 4.017.473.816 2.056 3.566 4.484 3.539 1.862-.024 3.142-1.667 3.693-2.37 1.587-2.035 1.606-4.331 1.572-5.112a20316 20316 0 0 1-3.193-22.106q-3.478.098-6.956.202-.37 10.92-.74 21.834z"/><path fill="#fff" d="M65.952 27.23c1.37-.093 2.735-.249 4.108-.315.675-.03 1.35-.039 2.022-.09.67-.05 1.4-.143 2.102-.186.012 0 .012-.054 0-.054-.702-.07-1.4-.163-2.11-.186-.71-.024-1.35.03-2.021.093-1.378.12-2.755.28-4.1.61-.032.003-.028.132 0 .128"/><path fill="#000" d="M51.498 5.162c1.117.144 2.285.031 3.414.024 1.129-.008 2.273-.028 3.413-.04 2.274-.022 4.55-.077 6.824-.116q6.89-.12 13.78-.24c2.595-.043 5.186-.09 7.774-.133.186 0 .17-.881-.024-.881-9.143.17-18.279.326-27.423.485-1.276.024-2.544.062-3.817.09-1.272.027-2.669-.063-3.957.155-.174.027-.159.637.016.66z"/><path fill="#000" d="M86.722 27.028c.462 1.693.985 3.558 2.444 4.537.582.392 1.265.598 1.94.769 1.268.315 2.68.49 3.817-.148 1.214-.676 1.796-2.097 2.153-3.437.26-.964.446-1.966.295-2.949-.16-1.052-.687-2.004-1.203-2.925a376 376 0 0 1-9.458-18.21c-.07-.144-.143-.291-.263-.396-.225-.198-.56-.198-.862-.183-.993.043-1.994.082-2.987.129-.465.023-2.432-.16-2.68.202-.249.36.5 2.179.616 2.618.253.936.524 1.872.803 2.8 1.106 3.69 2.36 7.334 3.527 11.005.33 1.033.655 2.074.966 3.115.267.901.884 2.137.884 3.077h.004z"/><path fill="#000" d="M86.633 25.944c-.5 3.306 2.335 7.132 5.66 7.532 4.488.54 5.819-5.127 5.369-8.507-.136-1.053-.512-.183-.439.42.412 3.515-2.102 7.66-5.954 6.358-1.172-.396-2.169-1.173-2.93-2.14-.895-1.15-1.016-2.455-1.625-3.729-.039-.078-.077.043-.081.07h.004z"/><path fill="#fff" d="M87.447 26.173c1.521.128 3.038 0 4.563-.011 1.524-.012 3.087.147 4.554-.187.015 0 .011-.054 0-.062-1.443-.478-3.073-.38-4.57-.326-1.501.054-3.06.143-4.55.57v.012h.003z"/><path fill="#000" d="M87.47 36.304c-.12 1.523-.026 3.08.024 4.603.054 1.64.116 3.286.182 4.925q.19 4.858.38 9.715c.028.77.633.77.606-.015q-.192-4.858-.373-9.715c-.062-1.597-.12-3.19-.198-4.786-.077-1.596-.089-3.181-.333-4.731-.043-.28-.252-.287-.276.004h-.011M79.122 48.454a1.176 1.176 0 1 0-.001-2.352 1.176 1.176 0 0 0 .001 2.352"/><path fill="#EDDAD7" d="m52.875 46.353-.175-3.12 5.878-3.98c1.889-.032 3.786-.067 5.675-.106-3.79 2.4-7.588 4.801-11.378 7.202zM65.778 39.252c.081.027 1.753 0 1.753 0l-14.652 9.206v-1.014l12.895-8.192z"/><path fill="#000" d="M52.282 39.411c-.082 3.69.186 7.416.33 11.102.003.16.053.606.29.598 1.37-.027 2.735-.198 4.105-.248 1.369-.05 2.828-.097 4.247-.144s2.735-.105 4.108-.163c1.374-.062 2.836-.21 4.24-.198.198 0 .222-.428.214-.54-.16-3.66-.438-7.318-.714-10.97-.011-.12-.027-.579-.229-.567-5.489.221-10.982.501-16.479.645-.295.004-.276.975.023.963 5.493-.225 10.99-.315 16.483-.458l-.228-.567c.197 3.702.395 7.415.71 11.113l.201-.676c-1.358.12-2.746.09-4.108.144s-2.828.109-4.24.175-2.735.132-4.104.194-2.836 0-4.248.093l.29.598c-.182-3.713-.236-7.477-.643-11.175-.04-.342-.237-.163-.24.081h-.008M92.308 63.7c5.161 0 9.345-4.189 9.345-9.357s-4.184-9.357-9.345-9.357-9.345 4.19-9.345 9.357c0 5.168 4.184 9.358 9.345 9.358"/><path fill="#fff" d="M127.439 38.802a111 111 0 0 1 6.746-13.227c.54-.897 1.094-1.799 1.862-2.51 1.145-1.052 2.669-1.588 4.186-1.918 5.039-1.084 10.505-.012 14.765 2.894 2.82 1.926 5.105 4.587 8.026 6.347 5.738 3.46 12.988 2.936 19.548 1.577 1.164 3.344 2.335 6.697 3.499 10.041.303.862.605 1.744.609 2.665 0 .963-.33 1.892-.632 2.812a46.2 46.2 0 0 0-2.2 11.444c-.027.408-.05.831-.267 1.177-.198.314-.532.513-.858.687a19 19 0 0 1-9.83 2.296c-5.004-.21-9.873-2.405-14.858-1.892-2.96.303-5.741 1.55-8.356 2.976-2.292 1.25-4.643 2.361-6.626 4.047-1.256-2.777-3.27-5.139-4.88-7.726-.566-.913-1.086-1.853-1.606-2.793-.582-1.06-1.171-2.124-1.753-3.185-.093-.17-.194-.346-.214-.54-.031-.24.043-.49.121-.722.663-1.982 1.323-3.963 1.99-5.948l-7.22 3.186a62 62 0 0 0 2.518-5.916 6 6 0 0 1-3.375 1.305 50.5 50.5 0 0 1 4.287-8.421c-1.61.598-3.22 1.192-4.83 1.794-.163.062-.345.128-.516.078s-.198-.373-.132-.54l-.012.011z"/><path fill="#E7D4D1" d="m152.36 32.598 5.012 6.359q3.84-.875 7.685-1.744c-1.66-2.137-3.325-4.273-4.985-6.41-2.572.606-5.144 1.205-7.708 1.81M134.457 37.275c-.33.909-.722 1.876-1.183 2.89a39 39 0 0 1-1.397 2.785c2.979-1.445 7.22-2.843 12.204-2.498 5.955.42 10.7 3.182 12.29 4.126 2.599 1.546 3.309 2.513 6.071 3.768 3.224 1.456 6.199 1.93 8.271 2.097a30 30 0 0 1-5.78-.45c-8.884-1.558-11.956-6.215-18.718-7.528-2.692-.525-6.866-.684-12.507 1.639a7.4 7.4 0 0 1-.551 2.843c5.517-2.389 9.974-2.361 12.391-2.136 3.487.326 6.467 1.418 8.224 2.07 3.693 1.352 4.834 2.393 8.55 3.749a40.6 40.6 0 0 0 7.274 1.907 20 20 0 0 1-3.236.05c-3.355-.237-5.516-1.297-9.477-2.827-2.219-.859-4.628-1.783-6.463-2.296-2.94-.82-7.297-1.364-13.263.078-.051.66-.155 1.44-.357 2.295a14 14 0 0 1-.722 2.207c4.76-2.63 10.49-3.446 15.793-2.234a45.7 45.7 0 0 0-13.965 4.44 20.6 20.6 0 0 1 4.872 5.733 16.5 16.5 0 0 1 3.274-1.996c-.818 1.484-1.637 2.964-2.455 4.451a3.6 3.6 0 0 1 1.132 2.296c3.166-2.672 7.169-4.246 11.262-4.875 4.093-.63 8.286-.342 12.363.396 2.115.385 4.221.89 6.37 1.002 2.149.113 4.384-.194 6.215-1.324-.4-.183-.435-.727-.408-1.162a57.5 57.5 0 0 1 2.216-12.437c-10.754 2.416-17.872.753-22.5-1.387-5.369-2.482-9.598-6.623-17.791-7.703a29.7 29.7 0 0 0-7.995.05v-.011z"/><path fill="#000" d="M178.867 45.374c.155-.45.28-.858.633-1.204s.803-.532 1.295-.606c.136-.023.128-.276.117-.361a73 73 0 0 0-1.125-6.313c-.016-.062-.039.012-.039.04.209 2.155.489 4.303.919 6.424l.117-.361c-1.153 0-2.177 1.15-2.076 2.288.004.077.109.229.159.089h.004zM137.824 33.814c.116-.132.027-.423-.012-.567a3.4 3.4 0 0 0-.609-1.173 3.12 3.12 0 0 0-2.036-1.111l.105.462a114 114 0 0 0 2.094-5.87c.024-.065.051-.267.109-.306.027-.016.116 0 .147 0 .163-.031.334-.027.501-.062a3.7 3.7 0 0 0 1.218-.463c.57-.341 1.078-.835 1.276-1.483.004-.028 0-.203-.054-.16-.446.342-.749.808-1.23 1.111a3.63 3.63 0 0 1-1.936.54c-.038 0-.069.05-.077.078a301 301 0 0 1-2.235 6.238c-.039.105-.07.45.105.463.753.066 1.424.36 1.928.936.307.345.435.71.57 1.138 0 0 .09.287.144.225h-.004zM145.513 55.613c2.746-1.825 6.071-2.89 9.384-2.567 1.738.163 3.363.633 4.938 1.386 1.727.832 3.375 1.651 5.276 1.997 2.126.392 4.302.26 6.347-.462.023-.012.015-.109 0-.105-1.874.369-3.81.462-5.703.202a14.2 14.2 0 0 1-2.719-.649c-1.001-.353-1.94-.843-2.886-1.309-1.529-.753-3.112-1.305-4.815-1.48-1.703-.174-3.324-.015-4.899.385-1.851.466-3.499 1.305-4.923 2.58v.026z"/><path fill="#000" d="M149.617 57.808c1.467-.73 3.061-1.227 4.698-1.348 1.637-.12 3.204.148 4.752.524.016 0 .016-.07 0-.077-2.929-1.402-6.792-.882-9.45.901M135.159 23.78c.636-.066 1.121-.407 1.691-.675a16.5 16.5 0 0 1 2.472-.975 16.6 16.6 0 0 1 4.569-.692c3.251-.043 6.494.796 9.287 2.475 3.104 1.864 5.567 4.595 8.636 6.51 2.812 1.756 5.978 2.665 9.26 2.999 3.856.396 7.902 0 11.583-1.232.252-.081.21-.924-.023-.87-3.383.738-6.758 1.216-10.23.995-3.472-.222-6.862-1.193-9.861-2.906s-5.644-4.35-8.647-6.273a17.9 17.9 0 0 0-8.965-2.813 17.1 17.1 0 0 0-5.225.622c-1.599.45-3.581 1.119-4.59 2.501-.038.055-.066.346.051.334h-.008"/><path fill="#000" d="M182.479 31.635c.054 1.15.539 2.342.842 3.45.345 1.27.71 2.536 1.078 3.806s.702 2.408 1.051 3.616q.262.898.516 1.806c.171.606.287 1.26.582 1.815.136.26.33.341.543.132.249-.237.21-.766.183-1.069-.128-1.204-.633-2.447-.974-3.608a112 112 0 0 0-2.331-7.167c-.202-.552-.419-1.088-.625-1.635-.175-.463-.295-1.057-.648-1.418-.159-.16-.221.186-.213.287v-.011z"/><path fill="#000" d="M186.979 45.312c-.396.26-.528.882-.691 1.297q-.371.916-.69 1.86a47 47 0 0 0-1.137 3.912 44 44 0 0 0-.787 3.955 36 36 0 0 0-.26 2.031c-.066.676-.225 1.403.015 2.06.078.209.287.555.512.267.369-.462.307-1.138.361-1.701a68 68 0 0 1 .21-1.783 57 57 0 0 1 .659-3.99c.268-1.32.57-2.536.92-3.783a64 64 0 0 1 .55-1.888c.194-.625.458-1.25.493-1.907 0-.054-.015-.424-.159-.33zM127.195 39.582c.489-.159.807-1.099 1.028-1.51.353-.665.686-1.345 1.028-2.013.725-1.43 1.466-2.855 2.207-4.273s1.467-2.773 2.18-4.172c.765-1.495 1.583-2.99 2.138-4.583.015-.05.011-.342-.093-.237-.986 1.056-1.665 2.404-2.386 3.647-.803 1.38-1.544 2.793-2.293 4.203a242 242 0 0 0-2.149 4.16c-.361.715-.737 1.43-1.078 2.164-.342.73-.73 1.414-.803 2.206-.012.12.011.478.209.412h.004z"/><path fill="#000" d="M127.148 39.613c1.172-.198 2.258-.633 3.391-.978a34 34 0 0 1 3.208-.82 27.6 27.6 0 0 1 5.33-.571c3.185-.016 6.37.524 9.334 1.705 3.181 1.27 5.982 3.248 8.918 4.972 3.379 1.993 7.026 3.52 10.952 3.962 2.537.288 5.023.226 7.549-.066 1.819-.21 3.759-.38 5.473-1.045.028-.011.028-.128-.011-.12-1.661.186-3.286.621-4.958.788-2.122.214-4.318.063-6.428-.21-4.147-.528-8.131-1.906-11.758-3.977-2.952-1.682-5.714-3.71-8.841-5.065-2.89-1.255-6.04-1.954-9.194-1.993-1.967-.027-3.945.175-5.873.54-2.398.45-5.082 1.041-7.142 2.381-.105.066-.12.525.042.49v.011z"/><path fill="#000" d="M128.448 46.326c.38.198 1.082-1.624 1.199-1.865.353-.738.709-1.468 1.078-2.202.749-1.496 1.598-2.956 2.281-4.48a.84.84 0 0 0 0-.62c-.05-.105-.171-.28-.279-.117-1.04 1.55-1.824 3.305-2.65 4.98-.399.815-.803 1.627-1.164 2.455-.186.423-.391.847-.485 1.297-.015.082-.104.486.024.552z"/><path fill="#000" d="M128.541 46.337c.702-.039 1.342-.353 1.994-.594a95 95 0 0 1 2.215-.808c1.544-.54 3.1-1.053 4.694-1.441 2.987-.73 6.098-1.045 9.147-.505 5.843 1.033 10.599 4.93 16.138 6.817 2.918.995 6.358 1.616 9.33.49.004 0 .004-.028 0-.028-1.455.148-2.851.226-4.306.027a22 22 0 0 1-4.473-1.107c-2.758-.99-5.346-2.455-7.956-3.767-2.611-1.317-5.067-2.47-7.809-3.096-2.987-.688-6.083-.54-9.07.081-1.633.342-3.236.816-4.818 1.352-.869.295-1.73.625-2.588.963-.857.334-1.784.622-2.521 1.189-.082.066-.117.447.038.435h-.011zM143.325 68.463c2.265-1.57 4.488-3.154 6.998-4.308s5.334-2.012 8.158-2.245c2.825-.23 5.73.354 8.57.975 2.839.622 5.834 1.088 8.802.847s5.699-1.166 7.995-2.937c.26-.198.055-1.25-.132-1.095-4.527 3.651-10.664 3.38-16.044 2.237-2.852-.606-5.66-1.309-8.593-1.146-2.762.16-5.478.89-7.999 2.032-2.813 1.27-5.521 2.948-7.852 4.98-.144.12-.081.78.093.656z"/><path fill="#000" d="M136.42 47.813c-.268.094-.373.501-.466.754-.17.435-.302.897-.45 1.344-.302.924-.582 1.86-.88 2.789-.136.423-.396.92-.439 1.375-.038.396.171.676.369 1.002.551.91 1.133 1.795 1.699 2.692a946 946 0 0 1 3.391 5.396c.558.897 1.132 1.786 1.703 2.68.57.89 1.078 1.81 1.726 2.618.186.23.361-.023.434-.198.117-.276.09-.688-.05-.948-.621-1.177-1.428-2.268-2.149-3.383a202 202 0 0 0-2.254-3.4c-1.505-2.26-2.956-4.56-4.504-6.79l.109.727c.345-1.2.729-2.38 1.105-3.566.295-.951.792-2.039.698-3.049 0-.015-.011-.043-.031-.039h-.003z"/><path fill="#000" d="M134.445 54.176c.4-.09.753-.353 1.117-.54.435-.221.869-.435 1.296-.664a31 31 0 0 1 2.506-1.177 64 64 0 0 1 2.595-1.03c.994-.368 2.006-.62 3.026-.9.012 0 .012-.04 0-.04-1.862.203-3.778.711-5.52 1.403-.919.361-1.808.804-2.677 1.27-.795.435-1.745.963-2.347 1.655v.015h.004z"/><path fill="#000" d="M132.226 44.516c-.682.524-1.004 1.643-1.357 2.408-.466 1.018-.9 2.05-1.285 3.104-.05.136-.081 1.258.268 1.021 4.275-2.91 9.582-3.861 14.676-3.702 2.734.082 5.489.424 8.111 1.22 2.782.843 5.4 2.051 8.131 3.026 1.443.517 2.945.913 4.461 1.177.749.128 1.502.198 2.266.194.846 0 1.691-.225 2.51-.42.023 0 .023-.089 0-.08-1.408.104-2.89-.11-4.287-.327-1.52-.237-2.956-.7-4.399-1.22-2.719-.979-5.334-2.23-8.046-3.228-2.56-.948-5.372-1.297-8.088-1.441-2.549-.136-5.117 0-7.627.462a21.3 21.3 0 0 0-7.867 3.158l.268 1.022c.395-1.014.791-2.02 1.214-3.022s.939-1.946 1.175-2.991c.012-.05 0-.459-.12-.37h-.004z"/><path fill="#E7D4D1" d="m152.36 32.598 5.012 6.359q3.84-.875 7.685-1.744c-1.66-2.137-3.325-4.273-4.985-6.41-2.572.606-5.144 1.205-7.708 1.81"/><path fill="#000" d="M152.329 32.672c.69 1.165 1.587 2.218 2.424 3.286.838 1.068 1.7 2.183 2.545 3.279.024.027.043.038.078.038q3.842-.838 7.685-1.701c.248-.054.174-.532.07-.676-1.61-2.164-3.356-4.207-5.001-6.343-.015-.023-.039-.031-.07-.039-2.583.544-5.144 1.189-7.708 1.787-.209.05-.159.649.016.606 1.284-.303 2.572-.598 3.856-.901.644-.148 1.284-.303 1.928-.451.318-.078.644-.148.962-.225.248-.062.764-.315.993-.156.229.16.434.58.605.808.198.276.4.544.605.816.4.54.803 1.072 1.211 1.608a135 135 0 0 0 2.444 3.123l.069-.676-3.84.886c-.644.148-1.28.295-1.924.45-.318.078-.636.156-.962.23-.264.062-.737.287-.99.136-.116-.066-.225-.28-.306-.385l-.306-.384-.617-.766c-.412-.516-.819-1.033-1.23-1.55-.791-1.002-1.544-2.101-2.491-2.963-.069-.066-.077.128-.054.159h.004zM145.513 55.613c2.746-1.825 6.071-2.89 9.384-2.567 1.738.163 3.363.633 4.938 1.386 1.727.832 3.375 1.651 5.276 1.997 2.126.392 4.302.26 6.347-.462.023-.012.015-.109 0-.105-1.874.369-3.81.462-5.703.202a14.2 14.2 0 0 1-2.719-.649c-1.001-.353-1.94-.843-2.886-1.309-1.529-.753-3.112-1.305-4.815-1.48-1.703-.174-3.324-.015-4.899.385-1.851.466-3.499 1.305-4.923 2.58v.026z"/><path fill="#000" d="M149.617 57.808c1.467-.73 3.061-1.227 4.698-1.348 1.637-.12 3.204.148 4.752.524.016 0 .016-.07 0-.077-2.929-1.402-6.792-.882-9.45.901M135.159 23.82c.71.01 1.265-.42 1.897-.704.803-.361 1.622-.691 2.471-.936a17 17 0 0 1 4.582-.633c3.219 0 6.404.858 9.159 2.54 3.06 1.865 5.493 4.572 8.534 6.464 3.038 1.892 6.137 2.696 9.504 3.01 3.779.346 7.763-.05 11.359-1.293.303-.105.26-1.107-.027-1.045-3.391.7-6.758 1.185-10.23.963-3.472-.221-6.851-1.212-9.849-2.917s-5.649-4.335-8.647-6.25c-2.681-1.71-5.804-2.7-8.985-2.804a17 17 0 0 0-5.225.625c-1.606.458-3.655 1.126-4.593 2.58-.043.07-.09.4.062.4h-.012"/><path fill="#000" d="M182.479 31.635c.054 1.15.539 2.342.842 3.45.345 1.27.71 2.536 1.078 3.806s.702 2.408 1.051 3.616q.262.898.516 1.806c.171.606.287 1.26.582 1.815.136.26.33.341.543.132.249-.237.21-.766.183-1.069-.128-1.204-.633-2.447-.974-3.608a112 112 0 0 0-2.331-7.167c-.202-.552-.419-1.088-.625-1.635-.175-.463-.295-1.057-.648-1.418-.159-.16-.221.186-.213.287v-.011z"/><path fill="#000" d="M186.979 45.312c-.396.26-.528.882-.691 1.297q-.371.916-.69 1.86a47 47 0 0 0-1.137 3.912 44 44 0 0 0-.787 3.955 36 36 0 0 0-.26 2.031c-.066.676-.225 1.403.015 2.06.078.209.287.555.512.267.369-.462.307-1.138.361-1.701a68 68 0 0 1 .21-1.783 57 57 0 0 1 .659-3.99c.268-1.32.57-2.536.92-3.783a64 64 0 0 1 .55-1.888c.194-.625.458-1.25.493-1.907 0-.054-.015-.424-.159-.33zM127.148 39.664c.501 0 .792-.89.993-1.267.381-.699.73-1.413 1.094-2.124a653 653 0 0 1 2.27-4.397c.76-1.465 1.517-2.856 2.242-4.297s1.548-2.971 2.056-4.572c.023-.062-.004-.357-.12-.248-1.055 1.006-1.758 2.428-2.483 3.682-.803 1.387-1.548 2.8-2.297 4.215a290 290 0 0 0-2.207 4.28c-.361.723-.737 1.438-1.071 2.172s-.655 1.36-.671 2.144c0 .117.043.408.202.408h-.004z"/><path fill="#000" d="M127.148 39.668c1.183-.148 2.258-.583 3.395-.929a34 34 0 0 1 3.208-.82 27.3 27.3 0 0 1 5.33-.566c3.185-.012 6.362.528 9.326 1.709 3.181 1.27 5.982 3.247 8.918 4.972 3.379 1.985 7.034 3.53 10.963 3.946 2.549.268 5.016.183 7.549-.12 1.808-.214 3.779-.357 5.474-1.068.031-.016.031-.148-.011-.144-1.661.144-3.29.606-4.958.77-2.122.209-4.326.023-6.428-.261-4.136-.552-8.127-1.942-11.747-4.005-2.952-1.682-5.714-3.71-8.841-5.065-2.89-1.255-6.048-1.958-9.201-1.993-1.967-.023-3.946.187-5.874.552a34 34 0 0 0-3.383.823c-1.33.396-2.622.804-3.762 1.608-.117.082-.156.618.054.59h-.012"/><path fill="#000" d="M128.448 46.326c.38.198 1.082-1.624 1.199-1.865.353-.738.709-1.468 1.078-2.202.749-1.496 1.598-2.956 2.281-4.48a.84.84 0 0 0 0-.62c-.05-.105-.171-.28-.279-.117-1.04 1.55-1.824 3.305-2.65 4.98-.399.815-.803 1.627-1.164 2.455-.186.423-.391.847-.485 1.297-.015.082-.104.486.024.552z"/><path fill="#000" d="M128.541 46.337c.702-.039 1.342-.353 1.994-.594a95 95 0 0 1 2.215-.808c1.544-.54 3.1-1.053 4.694-1.441 2.987-.73 6.098-1.045 9.147-.505 5.843 1.033 10.599 4.93 16.138 6.817 2.918.995 6.358 1.616 9.33.49.004 0 .004-.028 0-.028-1.455.148-2.851.226-4.306.027a22 22 0 0 1-4.473-1.107c-2.758-.99-5.346-2.455-7.956-3.767-2.611-1.317-5.067-2.47-7.809-3.096-2.987-.688-6.083-.54-9.07.081-1.633.342-3.236.816-4.818 1.352-.869.295-1.73.625-2.588.963-.857.334-1.784.622-2.521 1.189-.082.066-.117.447.038.435h-.011zM143.325 68.463c2.265-1.57 4.488-3.154 6.998-4.308s5.334-2.012 8.158-2.245c2.825-.23 5.73.354 8.57.975 2.839.622 5.834 1.088 8.802.847s5.699-1.166 7.995-2.937c.26-.198.055-1.25-.132-1.095-4.527 3.651-10.664 3.38-16.044 2.237-2.852-.606-5.66-1.309-8.593-1.146-2.762.16-5.478.89-7.999 2.032-2.813 1.27-5.521 2.948-7.852 4.98-.144.12-.081.78.093.656z"/><path fill="#000" d="M136.42 47.813c-.268.094-.373.501-.466.754-.17.435-.302.897-.45 1.344-.302.924-.582 1.86-.88 2.789-.136.423-.396.92-.439 1.375-.038.396.171.676.369 1.002.551.91 1.133 1.795 1.699 2.692a946 946 0 0 1 3.391 5.396c.558.897 1.132 1.786 1.703 2.68.57.89 1.078 1.81 1.726 2.618.186.23.361-.023.434-.198.117-.276.09-.688-.05-.948-.621-1.177-1.428-2.268-2.149-3.383a202 202 0 0 0-2.254-3.4c-1.505-2.26-2.956-4.56-4.504-6.79l.109.727c.345-1.2.729-2.38 1.105-3.566.295-.951.792-2.039.698-3.049 0-.015-.011-.043-.031-.039h-.003z"/><path fill="#000" d="M134.445 54.176c.4-.09.753-.353 1.117-.54.435-.221.869-.435 1.296-.664a31 31 0 0 1 2.506-1.177 64 64 0 0 1 2.595-1.03c.994-.368 2.006-.62 3.026-.9.012 0 .012-.04 0-.04-1.862.203-3.778.711-5.52 1.403-.919.361-1.808.804-2.677 1.27-.795.435-1.745.963-2.347 1.655v.015h.004z"/><path fill="#000" d="M132.226 44.516c-.682.524-1.004 1.643-1.357 2.408-.466 1.018-.9 2.05-1.285 3.104-.05.136-.081 1.258.268 1.021 4.275-2.91 9.582-3.861 14.676-3.702 2.734.082 5.489.424 8.111 1.22 2.782.843 5.4 2.051 8.131 3.026 1.443.517 2.945.913 4.461 1.177.749.128 1.502.198 2.266.194.846 0 1.691-.225 2.51-.42.023 0 .023-.089 0-.08-1.408.104-2.89-.11-4.287-.327-1.52-.237-2.956-.7-4.399-1.22-2.719-.979-5.334-2.23-8.046-3.228-2.56-.948-5.372-1.297-8.088-1.441-2.549-.136-5.117 0-7.627.462a21.3 21.3 0 0 0-7.867 3.158l.268 1.022c.395-1.014.791-2.02 1.214-3.022s.939-1.946 1.175-2.991c.012-.05 0-.459-.12-.37h-.004zM152.329 32.672c.69 1.165 1.587 2.218 2.424 3.286.838 1.068 1.7 2.183 2.545 3.279.024.027.043.038.078.038q3.842-.838 7.685-1.701c.248-.054.174-.532.07-.676-1.61-2.164-3.356-4.207-5.001-6.343-.015-.023-.039-.031-.07-.039-2.583.544-5.144 1.189-7.708 1.787-.209.05-.159.649.016.606 1.284-.303 2.572-.598 3.856-.901.644-.148 1.284-.303 1.928-.451.318-.078.644-.148.962-.225.248-.062.764-.315.993-.156.229.16.434.58.605.808.198.276.4.544.605.816.4.54.803 1.072 1.211 1.608a135 135 0 0 0 2.444 3.123l.069-.676-3.84.886c-.644.148-1.28.295-1.924.45-.318.078-.636.156-.962.23-.264.062-.737.287-.99.136-.116-.066-.225-.28-.306-.385l-.306-.384-.617-.766c-.412-.516-.819-1.033-1.23-1.55-.791-1.002-1.544-2.101-2.491-2.963-.069-.066-.077.128-.054.159h.004z"/><path fill="#E7D4D1" d="M137.002 31.907a2.57 2.57 0 0 0-1.754-.703c.749-2.079 1.494-4.16 2.246-6.239.148.109.357.09.54.05a4.1 4.1 0 0 0 2.463-1.677c-.252 1.27-1.253 2.361-2.491 2.73a24 24 0 0 1-1.443 4.51c.229.024.419.202.559.393.59.769.776 1.74.617 2.684.213-.56-.353-1.375-.737-1.74z"/><path fill="#000" d="M137.824 33.814c.116-.132.027-.423-.012-.567a3.4 3.4 0 0 0-.609-1.173 3.12 3.12 0 0 0-2.036-1.111l.105.462a114 114 0 0 0 2.094-5.87c.024-.065.051-.267.109-.306.027-.016.116 0 .147 0 .163-.031.334-.027.501-.062a3.7 3.7 0 0 0 1.218-.463c.57-.341 1.078-.835 1.276-1.483.004-.028 0-.203-.054-.16-.446.342-.749.808-1.23 1.111a3.63 3.63 0 0 1-1.936.54c-.038 0-.069.05-.077.078a301 301 0 0 1-2.235 6.238c-.039.105-.07.45.105.463.753.066 1.424.36 1.928.936.307.345.435.71.57 1.138 0 0 .09.287.144.225h-.004z"/><path fill="#E7D4D1" d="M179.092 44.34c.159-.248.318-.493.532-.687.213-.194.504-.33.791-.307.082.004.163.028.241 0 .225-.07.201-.396.135-.625-.465-1.694-.399-3.52-1.016-5.17a123 123 0 0 0 .004 4.634c-.027-.148-.252-.117-.38-.031a2.33 2.33 0 0 0-.978 1.484c-.093.505-.031 1.146.276 1.573.17-.221.209-.61.38-.87h.015"/><path fill="#000" d="M178.867 45.374c.155-.45.28-.858.633-1.204s.803-.532 1.295-.606c.136-.023.128-.276.117-.361a73 73 0 0 0-1.125-6.313c-.016-.062-.039.012-.039.04.209 2.155.489 4.303.919 6.424l.117-.361c-1.153 0-2.177 1.15-2.076 2.288.004.077.109.229.159.089h.004zM90.815 150.273c.17-1.616 0-3.251-.082-4.867-.081-1.616-.194-3.372-.29-5.058q-.298-4.916-.598-9.843c-.105-1.682-.21-3.372-.307-5.057-.089-1.523-.294-3.197.38-4.623.606-1.27 1.781-2.051 3.205-1.996 1.621.062 3.243.831 4.76 1.351 3.13 1.08 6.257 2.179 9.384 3.267 1.936.676 4.248 1.387 5.609 3.03.524.633.885 1.41 1.044 2.21.108.567.089 1.123.05 1.69-.062.835.012 1.694.039 2.533q.157 5 .326 10.006l.361 11.241c.12 3.749.213 7.509.551 11.25.011.147.097.458.294.411.198-.046.21-.438.214-.582.089-3.566-.055-7.132-.171-10.694l-.345-10.69c-.117-3.566-.229-7.124-.345-10.69-.082-2.606.201-5.283-1.319-7.559-1.056-1.585-2.98-2.416-4.687-3.069-3.282-1.258-6.641-2.323-9.962-3.484-1.528-.532-3.045-1.173-4.616-1.569-1.408-.354-2.863-.265-3.945.792-2.235 2.179-1.672 5.753-1.49 8.55.252 3.962.485 7.928.737 11.89.128 2.004.248 4.013.392 6.013.128 1.865.136 3.791.57 5.617.062.26.229.105.252-.082h-.004z"/><path fill="#fff" d="M9.07 109.393c.008 2.684.058 5.71 2.01 7.556 1.249 1.18 3.033 1.592 4.748 1.72a18.6 18.6 0 0 0 12.091-3.395c.404-.287.796-.598 1.09-.994.272-.365.447-.792.71-1.161.59-.828 1.552-1.298 2.464-1.741 2.661-1.278 5.474-2.773 6.8-5.415.807-1.612.955-3.472.966-5.275a41 41 0 0 0-.473-6.487c5.256.028 10.175-4.292 10.87-9.509.694-5.216-2.902-10.659-7.96-12.088-5.055-1.43-10.948 1.305-13.152 6.083-3.522-.07-7.04-.144-10.563-.214l-5.206-.105c-1.094-.023-3.36-.532-4.275.202-.861.688-.656 2.619-.714 3.57a89 89 0 0 0-.155 5.198c-.008 3.453.155 6.906.33 10.352.198 3.896.411 7.799.427 11.707z"/><path fill="#ECD9D6" d="M22.86 112.971c7.061-2.012 12.19-9.265 12.077-17.78q2.326 1.183 4.651 2.359c.974 7.213.683 11.684.408 13.952-.09.735-.214 1.527-.637 2.448-.806 1.748-2.37 2.925-7.525 5.527-3.321 1.678-5.059 2.362-6.944 2.867-3.891 1.045-7.596 2.043-10.85.14-1.952-1.142-2.926-2.851-3.597-4.028-1.947-3.419-1.893-6.783-1.773-8.301.889.633 7.03 4.851 14.187 2.812h.008zM30.747 87.87a59 59 0 0 1 1.874-3.135 58 58 0 0 1 10.075-11.8 22 22 0 0 1 4.806 2.92c-5.016 4.84-10.074 9.735-13.864 15.58a5.5 5.5 0 0 1-1.65-1.235 5.46 5.46 0 0 1-1.244-2.33zM47.987 76.826c.365.583.73 1.173 1.094 1.756L37.365 93.164l-2.808-.124q6.716-8.105 13.426-16.218z"/><path fill="#000" d="M32.016 75.137c-.613.551-1.187 1.134-1.668 1.802a9.7 9.7 0 0 0-1.672 3.888c-.57 3.014.14 6.106 1.8 8.666s4.096 4.335 6.979 4.992c2.882.656 6.075 0 8.523-1.733 5.07-3.581 6.432-10.81 3.22-16.073-1.544-2.533-4.008-4.425-6.879-5.17-2.874-.746-6.06-.113-8.573 1.553-2.51 1.667-4.438 4.467-4.954 7.556a12.1 12.1 0 0 0 .256 5.092c.303 1.146.757 2.346 1.474 3.302.167.225.373.412.582.598.047.039.066.054.125.031h.011a1 1 0 0 0-.116-.031q.018.03.042.058c.152.206.253-.396.136-.547-.02-.028-.081-.098 0 .03.097.156 0-.046-.02-.085-.019-.047-.046-.09-.065-.136L31 88.445a29 29 0 0 0-.602-1.251c-.562-1.135-.962-2.346-1.12-3.605-.377-2.94.88-5.897 2.963-7.936 2.083-2.04 4.772-3.076 7.638-3.018 2.867.054 5.397 1.235 7.34 3.154 1.936 1.911 3.119 4.514 3.096 7.252-.024 2.739-1.25 5.198-3.088 7.078-1.835 1.88-4.555 3.119-7.282 3.189s-5.559-1.072-7.564-3.053c-1.797-1.775-3.092-4.2-3.298-6.736-.12-1.46.163-2.933.718-4.284.458-1.115.954-2.199 1.625-3.205.183-.276.384-.54.59-.8.012-.016 0-.101-.015-.082l.007-.008z"/><path fill="#000" d="M38.483 78.94q-.032.787-.062 1.58l-3.27.431c.05.47.03.948-.055 1.41l3.06-.318a5.4 5.4 0 0 1-.79 1.154 5.5 5.5 0 0 1-1.521 1.196c.427.548.997 1.173 1.742 1.767 1.683 1.34 3.421 1.857 4.48 2.083a82 82 0 0 1 1.56-1.527 10 10 0 0 1-3.771-1.076 10 10 0 0 1-1.676-1.103c.28-.35.594-.793.885-1.329.26-.481.446-.932.582-1.324.888-.105 1.78-.218 2.672-.323q.041-.77.19-1.534-1.314.188-2.63.377l.105-1.651q1.56-.214 3.119-.427l.291-1.574c-1.342.187-2.7.393-4.085.618q-2.07.333-4.065.695l-.105 1.36 3.34-.49z"/><path fill="#ECD9D6" d="M47.87 83.31c-.282.512-.461 1.064-.69 1.608a9.7 9.7 0 0 1-.873 1.635 8.8 8.8 0 0 1-2.618 2.532c-2.083 1.306-4.67 1.543-6.917.525-2.087-.944-3.76-2.774-4.632-4.883-.372-.897-.601-1.892-.512-2.867.105-1.134.532-2.252 1.117-3.22.543-.897 1.207-1.748 2.033-2.404 1.272-1.002 2.863-1.577 4.48-1.562.051 0 .047-.155 0-.163-1.474-.214-3.006-.027-4.31.734-.95.556-1.722 1.34-2.335 2.242-1.396 2.05-1.924 4.513-1.295 6.93.628 2.415 2.215 4.614 4.31 5.95 2.254 1.438 5.05 1.64 7.467.486 1.354-.641 2.506-1.678 3.36-2.906.907-1.305 1.645-2.944 1.513-4.564 0-.05-.047-.17-.093-.081z"/><path fill="#000" d="M39.976 94.116c-.22.703-.186 1.48-.205 2.214-.02.734-.043 1.398-.062 2.098-.043 1.476-.035 2.956-.047 4.432s-.027 2.905-.039 4.354c-.008.727 0 1.453.008 2.175.008.723-.043 1.663.326 2.316.09.159.306.337.446.108.4-.645.357-1.561.369-2.295.007-.735.011-1.504.007-2.257-.011-1.453-.027-2.902-.039-4.355-.011-1.452 0-2.901-.046-4.354-.023-.754-.047-1.503-.066-2.257s-.008-1.496-.221-2.203c-.105-.341-.33-.299-.427.008v.008z"/><path fill="#000" d="M29.72 78.046c-5.49-.24-10.99-.354-16.484-.45-1.583-.028-3.161-.059-4.744-.086-.353-.008-.376.753-.376.944-.012 3.593-.05 7.19-.086 10.783-.03 3.593 0 7.186.016 10.779.015 3.593.035 7.132.054 10.698.008 1.332-.02 2.641.233 3.954.233 1.205.574 2.382 1.082 3.496 1.187 2.599 3.34 4.662 6.064 5.567 1.202.4 2.424.563 3.685.547 1.761-.015 3.53-.038 5.291-.05 3.58-.023 7.165-.047 10.742-.066 1.792-.008 3.58-.019 5.373-.027.83 0 1.707.074 2.525-.066a12.3 12.3 0 0 0 1.979-.517c2.428-.847 4.442-2.54 5.64-4.828 1.335-2.556 1.385-5.71.443-8.402a11 11 0 0 0-.462-1.135c-.047-.101-.144-.256-.276-.256l-10.582.171c-3.554.058-7.107.019-10.665.074l-6.012.093c-.276 0-.35.517-.365.699-.035.365.02.738.21 1.057 1.283 2.156 1.741 4.754.713 7.104-.48 1.104-1.265 2.067-2.28 2.716-1.075.691-2.317.975-3.581 1.037-.773.039-1.711.101-2.472-.086-.372-.093-.45 1.267.035 1.387.749.187 1.58.435 2.429.439 1.404.008 2.843-.388 4.007-1.193 2.41-1.674 3.344-4.805 3.162-7.629-.124-1.934-.664-3.744-1.653-5.407l-.159 1.756c7.084-.093 14.16-.276 21.243-.365l6.013-.074-.275-.256c.904 1.915 1.125 4.11.217 6.129-.908 2.02-2.882 3.718-4.985 4.603q-.868.36-1.78.564c-.753.167-1.475.171-2.235.171-1.71 0-3.422.007-5.132.007H26.007c-1.71 0-3.422-.007-5.132-.011-1.304 0-2.623.058-3.91-.191-2.561-.501-4.947-2.086-6.254-4.366a9 9 0 0 1-.396-.753c-.066-.132-.124-.268-.182-.404q-.04-.098-.086-.202l-.038-.101q.027.07 0 .008a13 13 0 0 1-.466-1.515q-.02-.09-.043-.179c-.046-.163.04.202.008.039l-.062-.295a13 13 0 0 1-.112-.657 6 6 0 0 1-.066-.505c-.012-.167.015.039.015.051.008-.101 0-.218 0-.323v-.722q-.03-5.149-.054-10.298c-.039-6.837-.07-13.673-.252-20.51q-.036-1.289-.055-2.571l-.376.944c5.49-.04 10.979-.062 16.468-.171 1.579-.031 3.158-.082 4.736-.132.295-.008.28-1.014-.027-1.026v-.015z"/><path fill="#000" d="M13.562 89.92c.407-.353.846-.675 1.265-1.017.457-.377.938-.727 1.431-1.049.194-.124.505-.392.745-.392.295 0 .33.217.287.447-.105.57-.217 1.141-.299 1.716-.019.125.02.793.287.65 1.149-.607 2.316-1.19 3.399-1.904l-.167-.835c-.497.718-.023 1.658.791 1.817.252.047.509.055.765.067.349.011.496.143.79.302.346.183.703.082 1.037-.081.395-.194.78-.493 1.233-.524.582-.043 1.214.306 1.78.427 1.11.233 2.445.361 3.477-.19.023-.012.023-.105-.008-.11-.966-.1-1.932.067-2.906-.065a7.4 7.4 0 0 1-1.532-.365c-.372-.132-.725-.276-1.125-.171-.605.163-1.253.912-1.909.555-.356-.198-.62-.466-1.043-.536-.217-.035-.446-.02-.663-.085a.7.7 0 0 1-.272-.132l-.116-.11c-.05-.108-.082-.112-.086-.007.117-.144.128-.963-.166-.835-1.184.493-2.293 1.15-3.418 1.763l.287.65c.062-.428.609-3.186-.532-2.91-.29.07-.57.314-.81.477q-.471.322-.924.684c-.62.505-1.113 1.045-1.606 1.67-.015.02 0 .125.02.105zM13.465 98.26c.334-.225.694-.384 1.036-.613.36-.241.714-.494 1.086-.715.392-.233.8-.447 1.214-.637q.281-.129.567-.24c.097-.04.287-.164.4-.129.209.066.282.276.325.462.124.552.085 1.791.927 1.667.423-.062.85-.276 1.238-.447.465-.202.927-.431 1.392-.641l-.225-.816c-.415.913.338 1.978 1.343 1.663.55-.175 1-.517 1.575-.622.616-.112 1.21.156 1.835.09.624-.066 1.125-.529 1.76-.583.35-.027.71.082 1.052.14.341.058.698.112 1.051.151 1.343.144 2.615.04 3.818-.617.03-.016.03-.144-.012-.144-1.121.047-2.254.206-3.375.163-.55-.023-1.094-.124-1.645-.147a8 8 0 0 0-1.684.104c-.496.086-.954.202-1.458.129s-1.055-.303-1.563-.268c-.447.03-.815.314-1.207.5-.221.106-.462.203-.714.156a.8.8 0 0 1-.326-.136l-.1-.082c-.101-.147-.113-.085-.04.195.067-.144.094-.964-.224-.816-.466.214-.931.412-1.393.633-.21.101-.415.214-.62.319s-.52.388-.738.373c-.186-.012-.194-.062-.256-.237-.03-.097-.05-.202-.073-.3-.066-.256-.12-.508-.179-.765-.062-.287-.132-.66-.504-.644-.373.015-.772.275-1.086.423-.392.183-.78.388-1.152.61-.392.237-.788.485-1.137.78-.35.296-.617.653-.923 1.007-.008.007 0 .046.007.042zM14.532 106.34c.656-.439 1.47-.68 2.207-.955a12.7 12.7 0 0 1 2.704-.657l-.105-.101c-.023-.066-.054.132-.066.171a8 8 0 0 0-.066.303 2.4 2.4 0 0 0-.027.781c.082.54.42.87.974.889.687.024 1.428-.26 2.072-.462.322-.101.636-.21.958-.318.143-.047.283-.105.434-.125l.217-.008c.066-.066-.027-.271.035 0 .163.661.656.684 1.23.513.695-.206 1.4-.408 2.08-.664.294-.109.628-.315.938-.245.233.051.466.105.702.144.59.097 1.191.027 1.785-.016 1.684-.124 3.355-.159 5.04-.035.026 0 .026-.097 0-.104-1.39-.389-2.77-.564-4.21-.602-.62-.016-1.234.054-1.854.058a4.3 4.3 0 0 1-.776-.055c-.334-.058-.458-.272-.722-.427-.205-.124-.601.047-.841.089-.354.066-.699.16-1.048.245-.326.082-.648.163-.97.253-.147.038-.294.085-.45.105-.163.027-.314-.039-.461-.028.019 0 .073.284.027.051-.008-.062-.027-.117-.047-.175-.042-.132-.097-.264-.202-.357-.19-.167-.446-.16-.678-.094-.633.179-1.242.447-1.87.637-.357.109-.714.234-1.079.331-.178.046-.36.089-.543.073-.027 0-.38-.124-.36-.139.112-.066-.028.31.038.081.027-.085.027-.19.04-.276q.024-.204.015-.407a2.2 2.2 0 0 0-.136-.676c-.008-.031-.058-.105-.105-.101-.915.124-1.796.349-2.646.711-.85.361-1.547.951-2.253 1.58v.012h.019M21.592 109.238c.384.357 2.836 2.727 2.693 6.374-.12 3.022-1.979 5.773-4.807 7.155 8.057 0 16.11.008 24.168.008 3.988-.87 7.088-3.702 7.941-7.295.741-3.119-.481-5.729-.92-6.572-9.694.108-19.38.217-29.075.33"/><path fill="#000" d="M31.166 96.718c3.527 2.817 7.716 2.502 8.853 2.378q.094-2.894.182-5.788c-.617 0-5.578-.124-8.844-4.35-3.554-4.588-1.94-9.937-1.793-10.395-.826 1.15-2.203 3.41-2.58 6.525-.12.999-.799 7.649 4.182 11.627z"/><path fill="#fff" d="M91.187 50.781q-.032.788-.062 1.581l-3.27.431c.05.47.03.948-.055 1.41l3.061-.318a5.4 5.4 0 0 1-.791 1.154 5.5 5.5 0 0 1-1.52 1.196c.426.548.996 1.173 1.74 1.767 1.685 1.34 3.422 1.857 4.481 2.082a82 82 0 0 1 1.56-1.526 10 10 0 0 1-3.77-1.076 10 10 0 0 1-1.677-1.103c.28-.35.594-.793.885-1.329.26-.481.446-.932.582-1.324.888-.105 1.78-.218 2.673-.323q.04-.77.19-1.534-1.316.188-2.63.377l.104-1.651c1.04-.144 2.08-.284 3.12-.428l.29-1.573c-1.342.187-2.7.393-4.085.618q-2.07.332-4.065.695l-.105 1.36 3.34-.49z"/></svg>