<svg xmlns="http://www.w3.org/2000/svg" width="133" height="132" fill="none" viewBox="0 0 133 132"><circle cx="66.5" cy="66" r="66" fill="#D9E5DA"/><g clip-path="url(#a)"><path fill="#fff" d="M99.094 31.37h-72.29v44.424h72.29z"/><path fill="#D2EAD8" d="M65.98 29.719c5.316.316 10.654.656 15.97.972C68.785 45.054 55.62 59.395 42.457 73.758c0-2.873-.317-5.723-.905-8.55-.113-.565-.249-1.13-.61-1.583-.136-.159-.52-.566-1.38-.882-1.9-.656-4.366-.204-5.044-.068zM45.759 76.608c.113-.362 42.297-46.075 42.297-46.075h5.836L47.387 76.608H45.76"/><path fill="#0B130C" d="M72.54 97.396H56.345v-8.55a44.6 44.6 0 0 0 8.052.791c3.325 0 6.107-.384 8.143-.791z"/><path fill="#0B130C" d="M79.845 103.933H43.858c.25-.114.589-.295.905-.589.656-.633.837-1.379.905-1.696.045-1.515.068-3.031.113-4.546h30.92c-.09.542-.43 2.985 1.154 5.089a6.15 6.15 0 0 0 2.013 1.719zM45.216 81.314h.022v6.491h-.022v1.04h31.26V74.46h-31.26zM30.13 82.806c-2.104-1.765-1.787-4.66-1.765-4.818-.113-6.175-.203-12.35-.316-18.503h-3.755c.158 10.043.294 17.35.317 20.946 0 1.244.022 4.365 2.103 5.971 1.56 1.221 3.642 1.063 4.773.905l12.124-.136v-3.529c-3.325.068-6.65.136-9.975.227-.385.045-2.059.158-3.506-1.04zM97.986 33.18c1.018 1.22 1.04 2.691 1.063 4.274 0 3.687 0 6.74-.045 9.184h4.004c-.068-3.258-.159-6.515-.227-9.772-.09-3.687-.972-4.818-1.651-5.7-1.968-2.533-5.248-2.986-6.582-3.099l-61.773.566c-1.492.068-4.636.475-6.74 2.827-1.81 2.059-2.058 4.592-2.058 6.288.09 7.397.18 14.092.294 19.973h3.754l-.339-19.746c-.045-.272-.362-2.262 1.063-3.936 1.47-1.72 3.574-1.674 3.823-1.674l61.976-.905c.86.113 2.398.475 3.438 1.72M98.981 48.198c-.113 13.527-.226 23.208-.226 26.759 0 .972 0 3.347-1.538 5.27a6.85 6.85 0 0 1-3.46 2.307l-15.676.34v3.913c5.18-.046 10.36-.114 15.517-.159 1.65-.113 4.66-.565 6.831-2.827 2.081-2.172 2.375-5.044 2.51-6.628.385-4.976.475-15.267.113-28.997h-4.07z"/><path fill="#fff" d="M111.852 50.89h-32.3v49.672h32.3z"/><path fill="#D2EAD8" d="m80.162 81.336 24.972-30.762h6.514v2.85L80.162 91.221zM80.705 94.433l31.644-34.63v3.777L80.705 96.898z"/><path fill="#0B130C" d="M114.702 98.911c.181-4.433.271-6.65 0-45.532 0-.724 0-2.624-1.267-4.049-1.063-1.176-2.601-1.56-3.687-1.674-13.164.159-22.913.475-26.509.634-.905.045-2.76.158-4.049 1.47-1.13 1.153-1.334 2.76-1.357 3.732.136 14.612.294 29.246.43 43.858-.023.362-.204 2.85 1.81 4.75 1.47 1.38 3.256 1.629 3.822 1.674 8.663.023 17.303.068 25.967.091.769 0 2.488-.249 3.641-1.516 1.131-1.221 1.176-2.873 1.199-3.46zm-6.514 1.561H85.704c-.226.022-1.741.181-3.008-.86-.995-.837-1.221-2.126-1.29-2.963-.293-2.918-.723-19.317-1.04-41.777 0-.181-.158-1.9 1.154-3.031.837-.724 1.81-.792 2.126-.792 8.098-.09 16.173-.203 24.27-.294.091 0 1.855-.18 2.873 1.154.679.882.611 1.877.588 2.126l.475 43.926c-.045.271-.181 1.131-.973 1.81-1.108.972-2.533.746-2.714.723z"/><path fill="#fff" d="M42.095 60.662H20.223v40.986h21.872z"/><path fill="#D2EAD8" d="M21.308 86.628 38.95 61.702h2.08v3.642L21.308 93.052zM21.308 97.418 41.03 68.556v3.55L21.308 98.504z"/><path fill="#0B130C" d="M44.04 100.291c.226-2.353.203-17.508-.091-38.25-.045-.361-.18-1.334-.905-2.193-.972-1.154-2.239-1.267-2.51-1.267-6.311.136-12.622.249-18.933.385-.226 0-1.56.022-2.556 1.221-.927 1.108-.904 2.42-.904 2.67.18 11.92.362 23.862.52 35.782-.023.294-.158 2.308 1.267 3.823a4.3 4.3 0 0 0 2.669 1.357c6.016.023 12.01.045 18.027.091.226 0 1.538-.046 2.533-1.222.724-.859.86-1.945.905-2.375zm-3.416-.068a2.03 2.03 0 0 1-1.674.52H24.338c-.18 0-1.108.113-1.922-.611-.996-.904-.883-2.284-.883-2.397l-.678-32.843c-.204-.882.045-1.787.656-2.353a2.07 2.07 0 0 1 1.629-.543c1.764 0 3.505-.022 5.27-.045a2.92 2.92 0 0 0 2.691 1.561 2.88 2.88 0 0 0 2.534-1.719c2.013-.045 3.641-.068 5.112-.136.452 0 1.153-.068 1.65.385.68.633.634 1.81.611 2.194-.067 2.103.068 15.63.317 34.54 0 .18-.113.904-.724 1.469z"/><path fill="#fff" d="M30.4 61.409c0 .43.362.791.724.769.34 0 .656-.34.656-.747s-.317-.769-.678-.769-.702.317-.702.746M64.442 84.932a3.8 3.8 0 1 0 0-7.6 3.8 3.8 0 0 0 0 7.6"/></g><defs><clipPath id="a"><path fill="#fff" d="M18.096 28h96.809v76h-96.81z"/></clipPath></defs></svg>