<svg width="92" height="100" viewBox="0 0 92 100" fill="none" xmlns="http://www.w3.org/2000/svg">
<circle cx="46" cy="54" r="46" fill="#D9EDFA"/>
<path d="M68.4686 3.86966C67.1347 4.1352 66.5564 5.22031 65.845 6.25673C65.1337 7.29315 64.0317 8.81986 63.1069 10.1099C61.3493 12.6029 59.5652 15.0863 57.7979 17.606C57.1256 18.536 56.0996 19.608 56.3314 20.8692C56.5633 22.1304 57.9533 22.6997 59.1526 23.0485C62.1391 23.8707 65.1547 24.6132 68.1995 25.2759C71.2444 25.9385 71.4741 23.9114 70.3406 22.2295C69.2072 20.5477 70.4475 16.7492 70.8907 14.4685C71.3338 12.1878 70.9912 8.59377 70.4316 5.67437C69.9654 3.24154 66.165 3.9007 66.6481 6.36987C66.9421 7.95542 67.2893 9.56045 67.3316 11.1745C67.3739 12.7885 66.9465 14.5321 66.5483 16.1959C65.8253 19.1584 65.6155 22.0373 67.3927 24.6788C68.0943 23.669 68.8225 22.6689 69.5338 21.6325C67.7539 21.2219 65.974 20.8113 64.2038 20.3742C62.4336 19.937 62.6029 19.9689 61.8122 19.7396C61.0214 19.5104 60.9319 19.5077 60.4967 19.3785L59.9719 19.2466C59.3602 19.0226 59.2707 19.02 59.7202 19.2751L60.1453 20.6674C59.8389 21.3393 59.8921 21.3588 60.2783 20.7161C60.4847 20.3996 60.7079 20.1194 60.9143 19.8029C61.344 19.2062 61.7833 18.5829 62.213 17.9863C63.082 16.7663 63.9147 15.5632 64.7837 14.3433C65.6527 13.1233 66.4854 11.9202 67.3545 10.7003C68.2235 9.48031 68.2235 9.48031 68.6531 8.88364C69.0828 8.28696 70.1398 7.37715 69.1303 7.58052C71.5632 7.11424 70.8774 3.30411 68.4349 3.79699L68.4686 3.86966Z" fill="white"/>
<path d="M56.9322 23.2615C56.9355 24.9818 57.7621 26.4307 59.3331 27.2473C60.904 28.0639 63.0109 28.3227 64.4242 27.1815L61.3779 25.0404C61.5292 24.4624 62.4282 24.9726 61.5532 24.5617C60.6782 24.1508 61.1737 24.3624 61.1232 24.2534C60.1145 21.9839 56.6265 23.6019 57.6352 25.8715C58.6438 28.141 64.0548 30.002 64.9947 26.3649C65.9345 22.7279 63.5459 22.9087 61.9484 24.2238C62.372 24.1377 62.4544 24.0774 62.1495 24.0864C61.9705 24.0811 61.8277 24.059 61.6487 24.0538C61.4528 24.0122 61.2835 23.9803 61.1168 23.859C60.9501 23.7376 60.7906 23.6792 60.7666 23.5799C60.752 22.5491 60.1082 21.5894 58.9904 21.5119C57.8727 21.4343 56.9176 22.2306 56.9224 23.288L56.9322 23.2615Z" fill="white"/>
<path d="M71.2729 5.68196C72.2679 2.30637 68.7211 1.03763 68.5795 1.58899C68.4282 2.16695 64.6723 5.58705 63.3497 5.16301C61.6717 4.63896 62.4533 6.70472 61.1296 7.84862C60.3392 8.52432 59.959 8.65654 59.3957 9.53601C58.8323 10.4155 58.9525 11.8167 58.539 12.7813C57.2717 15.665 54.0234 18.2757 51.0954 19.4353C56.2809 22.5709 64.2336 26.0564 71.1137 26.7061C71.8467 26.7634 75.1444 27.9711 75.8152 27.704C74.8133 26.7339 72.3483 24.3231 71.6033 23.1455C70.8583 21.9678 71.0389 21.3101 71.2768 19.9193C71.4412 18.8937 71.5338 17.5704 71.9473 16.6059C73.0906 13.9783 73.2464 11.4114 72.6479 8.59837C72.4899 7.87695 70.9886 6.21122 70.2361 6.20708" fill="white"/>
<path d="M68.1891 25.3028C68.1183 25.5785 66.2773 25.417 63.4167 24.5805C61.9683 24.1707 60.2734 23.6103 58.4215 22.902C57.9428 22.7267 57.4641 22.5513 57.0049 22.3229C56.7656 22.2352 56.4996 22.1378 56.27 22.0236C56.137 21.9749 55.9775 21.9164 55.8445 21.8677C55.6052 21.7801 55.3755 21.6658 55.1193 21.5418C54.6601 21.3133 54.1743 21.0751 53.6885 20.8369C53.2293 20.6084 52.7532 20.3435 52.294 20.115C51.4119 19.6412 50.5032 19.1576 49.5848 18.7006C50.5624 18.6666 51.5232 18.5962 52.5008 18.5621C52.8952 18.5557 53.2994 18.5228 53.7035 18.4898C53.9916 18.4445 54.2433 18.416 54.5313 18.3707C54.5943 18.3636 54.6838 18.3662 54.7299 18.3228L54.8752 18.2554L55.1561 18.1471C55.3644 18.0726 55.5461 17.9883 55.6745 17.8846C55.8199 17.8171 55.9483 17.7134 56.0671 17.6362C56.9275 17.0163 57.5538 16.1298 58.04 15.1315C58.5262 14.1333 58.8723 13.0235 59.2619 11.9597C59.6515 10.896 60.0774 9.81533 60.6602 8.88267C61.2431 7.95001 61.9563 7.15556 62.7608 6.60571C63.5654 6.05587 64.4251 5.76747 65.1634 5.64575C65.9282 5.53377 66.5717 5.58847 67.0965 5.72033C68.1363 6.01064 68.5176 6.45189 68.4423 6.57512C68.3839 6.73468 67.8422 6.56649 66.9905 6.58633C66.5597 6.60954 66.02 6.68332 65.4678 6.87321C64.9157 7.06311 64.2883 7.37623 63.7452 7.87103C63.2021 8.36582 62.6997 8.99621 62.3083 9.818C61.8903 10.6301 61.576 11.5706 61.2493 12.6272C60.9227 13.6839 60.6103 14.8664 60.0462 16.0774C59.7592 16.6961 59.4457 17.3052 58.9895 17.8921C58.5598 18.4888 58.0335 19.0199 57.4106 19.4855C57.2095 19.623 57.0349 19.7702 56.8169 19.8713C56.7637 19.8518 56.7637 19.8518 56.7974 19.9245C56.9038 19.9634 57.0102 20.0024 57.1068 20.068C57.3462 20.1556 57.566 20.2965 57.7957 20.4107C58.2549 20.6392 58.7238 20.8411 59.1564 21.0599C60.933 21.8914 62.5429 22.6016 63.87 23.1781C66.541 24.3674 68.2235 25.044 68.143 25.3462L68.1891 25.3028Z" fill="#BCCEDA"/>
<path d="M62.3108 28.0959C62.3419 28.2581 62.2568 28.4079 62.0557 28.5454C61.8811 28.6926 61.5639 28.8177 61.1597 28.8506C60.7556 28.8836 60.2645 28.8244 59.7592 28.6393C59.2539 28.4543 58.7707 28.1265 58.37 27.7385L58.213 27.5905C58.1598 27.571 58.1261 27.4984 58.0658 27.416C57.9621 27.2875 57.8583 27.159 57.7811 27.0403C57.61 26.7664 57.492 26.5121 57.4103 26.2409C57.2373 25.7251 57.2433 25.2146 57.2999 24.8131C57.3564 24.4115 57.5265 24.1119 57.6745 23.9549C57.8322 23.7714 58.0041 23.7137 58.1468 23.7358C58.4491 23.8164 58.5981 24.2329 58.8438 24.715C58.9716 24.9427 59.0896 25.197 59.2705 25.4443C59.3476 25.563 59.4514 25.6915 59.5383 25.7836C59.5817 25.8297 59.6518 25.8855 59.6855 25.9582C59.7121 25.9679 59.7289 26.0042 59.7724 26.0503L59.8859 26.1522C60.1732 26.4384 60.4533 26.6616 60.69 26.8388C60.9534 27.0257 61.1732 27.1666 61.3931 27.3074C61.8426 27.5625 62.2583 27.7449 62.3205 28.0693L62.3108 28.0959Z" fill="#D9DADA"/>
<path d="M66.4155 4.2043C67.0957 3.00569 68.415 1.70934 69.9114 2.31767C71.4078 2.926 71.4519 4.78199 71.1803 6.10009C70.9087 7.41819 71.4474 6.77094 71.7691 6.79829C72.0909 6.82564 72.4037 6.5481 72.4674 6.20949C72.8734 4.2771 72.3416 1.9409 70.3497 1.12093C68.3577 0.30096 66.317 1.75537 65.3525 3.48323C64.3879 5.21109 65.1985 4.15071 65.5053 4.38369C65.8121 4.61668 66.2357 4.53054 66.4058 4.23089L66.4155 4.2043Z" fill="#231F20"/>
<path d="M64.7199 5.78491C65.7773 5.78007 66.8445 5.74863 67.8869 5.94942C68.9293 6.15021 68.2424 6.04943 68.4383 6.09102C68.6342 6.1326 68.9436 6.27606 69.2095 6.37346C69.6519 6.56562 70.0384 6.82782 70.4152 7.11662C71.8693 8.25235 72.6491 10.0761 72.4681 11.9703C72.2872 13.8645 71.0552 16.158 70.5614 18.3297C70.3243 19.389 70.2202 20.497 70.4572 21.5791C70.6943 22.6612 71.0554 23.4871 71.5955 24.3183C72.76 26.1623 74.5953 27.7393 76.8281 27.984L76.7521 26.2973C75.0186 26.7482 73.214 26.5699 71.4748 26.2949C69.7357 26.0199 67.697 25.5749 65.8593 24.9924C62.1212 23.8346 58.5388 22.2512 54.9928 20.6509C51.4468 19.0507 51.0887 19.0402 49.553 17.6333L48.9882 19.1758C50.4808 19.3002 51.9124 19.6736 53.4129 19.5295C54.9135 19.3853 56.5758 18.3051 57.4527 16.8165C59.2286 13.6968 59.4849 9.53798 62.2609 7.14642C65.0368 4.75486 64.89 5.48526 66.4403 5.78158C67.9907 6.0779 67.3292 5.4134 67.3592 5.00212C67.3891 4.59085 67.0344 4.15934 66.5797 4.08329C64.9762 3.76749 63.3659 4.29373 62.05 5.16907C60.7342 6.04441 59.6374 7.39208 58.8863 8.86636C58.1353 10.3406 57.4333 12.5869 56.725 14.4388C56.0166 16.2906 56.0608 16.0052 55.5124 16.679C54.9641 17.3529 54.3827 17.6226 53.7872 17.7664C53.1916 17.9102 52.4125 17.8963 51.6263 17.8195C50.8401 17.7427 49.9935 17.5835 49.171 17.5236C48.3484 17.4636 48.4301 17.7348 48.3035 18.0805C48.1769 18.4262 48.3357 18.8162 48.6061 19.066C50.0718 20.4171 51.9768 21.1449 53.7534 21.9765C55.5299 22.8081 57.3791 23.606 59.2018 24.3941C62.9463 25.9464 66.7953 27.2957 70.7983 27.9775C74.8013 28.6593 75.0725 28.5776 77.1136 28.0282C79.1546 27.4787 78.0197 26.4599 77.0376 26.3415C76.0554 26.2231 76.7255 26.2875 76.5562 26.2557C76.3869 26.2239 76.1573 26.1096 75.9446 26.0317C75.5723 25.8953 75.2823 25.6987 74.9055 25.4099C74.1954 24.8784 73.5702 24.197 73.117 23.458C72.6638 22.7189 72.3196 21.9293 72.2102 21.0749C72.1009 20.2206 72.1177 20.2569 72.1964 19.7126C72.2751 19.1684 72.3706 18.6605 72.5025 18.1357C73.1486 15.9595 74.2761 13.8691 74.3346 11.5681C74.371 9.40982 73.4005 7.3654 71.7753 5.95587C70.1501 4.54633 69.7894 4.62536 68.6769 4.36876C67.5644 4.11215 66.2385 4.10913 65.0118 4.08213C63.7851 4.05514 64.1158 4.38739 64.0929 4.86159C64.0701 5.33579 64.415 5.7939 64.8724 5.78042L64.7199 5.78491Z" fill="#231F20"/>
<path d="M56.471 23.1228C55.929 24.1911 55.9526 25.5268 56.4848 26.6265C57.017 27.7263 58.3336 28.6608 59.5349 29.2516C60.7361 29.8423 62.0763 29.9712 63.3382 29.4078C64.6002 28.8445 65.7636 27.9737 66.0423 26.7185C66.321 25.4633 66.0153 25.8038 65.5366 25.6285C65.058 25.4532 64.5493 25.6891 64.4466 26.1341C64.2608 26.9709 63.4297 27.511 62.6764 27.8384C61.9231 28.1657 60.9579 28.0837 60.1192 27.6559C59.2806 27.2281 58.4445 26.7108 58.0543 25.9647C57.664 25.2185 57.731 24.4589 58.0835 23.7435C58.436 23.0281 57.9768 22.7996 57.5779 22.6535C57.179 22.5074 56.6969 22.7531 56.4879 23.1591L56.471 23.1228Z" fill="#231F20"/>
<path d="M78.109 9.9947C77.9921 10.3138 77.885 10.6064 77.7681 10.9255C77.6512 11.2446 77.6415 11.2712 77.5564 11.421C77.4714 11.5709 77.5077 11.554 77.4785 11.6338C77.459 11.687 77.4396 11.7402 77.4298 11.7668C77.4785 11.6338 77.4883 11.6072 77.459 11.687C77.1189 12.2863 76.762 12.8493 76.3252 13.383C75.8884 13.9168 76.1023 14.5681 76.5686 14.8596C77.035 15.151 77.6908 15.0896 78.0452 14.6161C78.9479 13.4688 79.6769 12.1373 80.1301 10.7349C80.5834 9.33251 80.0578 9.53214 79.4896 9.35421C78.9214 9.17628 78.3135 9.43622 78.109 9.9947Z" fill="#0089DE"/>
<path d="M82.0688 14.5814C81.1541 14.6083 80.3069 14.7806 79.4738 15.0787C78.6408 15.3769 78.001 15.8061 77.3683 16.2983C76.7357 16.7904 76.8529 17.3763 77.2173 17.7812C77.5818 18.1861 78.259 18.3135 78.7003 17.9322C79.1415 17.5509 79.1584 17.5872 79.3958 17.4329L79.1584 17.5872C79.6236 17.3052 80.1323 17.0692 80.648 16.8962L80.3769 16.9778C80.9192 16.8145 81.4687 16.7141 82.0519 16.6864L81.7736 16.7052C81.8002 16.7149 81.8268 16.7246 81.8631 16.7078C82.1414 16.6891 82.3932 16.6606 82.6138 16.4699C82.8344 16.2793 82.9947 16.0062 83.0026 15.7377C83.0105 15.4691 82.9386 15.1713 82.7648 14.987C82.591 14.8027 82.3108 14.5795 82.0325 14.5982L82.0688 14.5814Z" fill="#0089DE"/>
<g clip-path="url(#clip0_670_7230)">
<path fill-rule="evenodd" clip-rule="evenodd" d="M63.1518 36.8248C58.7342 32.426 52.8588 30.0022 46.5987 30C33.6992 30 23.2009 40.4392 23.1964 53.2708C23.1941 57.3728 24.2725 61.3767 26.3203 64.9052L23 76.9657L35.4059 73.7296C38.8237 75.5843 42.6725 76.5606 46.5886 76.5618H46.5987C59.496 76.5618 69.9956 66.1214 70 53.2898C70.0022 47.071 67.5706 41.2248 63.1518 36.8259V36.8248ZM46.5987 72.6316H46.5909C43.1011 72.6306 39.6777 71.6976 36.6907 69.9356L35.9804 69.5161L28.6183 71.4365L30.5831 64.2981L30.1208 63.566C28.174 60.4862 27.145 56.9265 27.1473 53.272C27.1517 42.6074 35.8771 33.9302 46.6067 33.9302C51.8019 33.9324 56.6853 35.9466 60.3578 39.6034C64.0305 43.2591 66.0513 48.1199 66.0491 53.2876C66.0446 63.9533 57.3193 72.6306 46.5987 72.6306V72.6316ZM57.2676 58.1451C56.6829 57.8539 53.8082 56.4478 53.2718 56.2537C52.7355 56.0594 52.3461 55.9624 51.9567 56.5449C51.5674 57.1274 50.4464 58.4375 50.1053 58.8246C49.7642 59.213 49.423 59.261 48.8384 58.9697C48.2539 58.6784 46.3698 58.0647 44.1358 56.084C42.3977 54.5418 41.2239 52.6382 40.8828 52.0556C40.5417 51.4732 40.8469 51.1584 41.1386 50.8694C41.4012 50.6083 41.7232 50.1899 42.0161 49.8506C42.309 49.5114 42.4055 49.2682 42.6007 48.8809C42.796 48.4926 42.6984 48.1534 42.5525 47.8621C42.4066 47.5709 41.2374 44.7085 40.7493 43.5447C40.2746 42.411 39.7922 42.565 39.4342 42.546C39.0931 42.5293 38.7037 42.5259 38.3133 42.5259C37.9228 42.5259 37.2898 42.671 36.7535 43.2535C36.2172 43.8359 34.7068 45.2431 34.7068 48.1042C34.7068 50.9654 36.8018 53.7318 37.0946 54.1201C37.3875 54.5084 41.2182 60.3813 47.0835 62.901C48.4783 63.5002 49.5678 63.8584 50.4172 64.1263C51.8177 64.5693 53.0923 64.5068 54.0999 64.3573C55.2232 64.1899 57.5594 62.9501 58.0463 61.592C58.5333 60.234 58.5333 59.069 58.3875 58.8268C58.2416 58.5847 57.8512 58.4385 57.2665 58.1473L57.2676 58.1451Z" fill="#231F20"/>
</g>
<defs>
<clipPath id="clip0_670_7230">
<rect width="47" height="47" fill="white" transform="translate(23 30)"/>
</clipPath>
</defs>
</svg>
