<svg width="413" height="279" viewBox="0 0 413 279" fill="none" xmlns="http://www.w3.org/2000/svg">
<g filter="url(#filter0_d_264_3439)">
<circle cx="208.788" cy="206.788" r="179.788" fill="#182939"/>
<circle cx="208.788" cy="206.788" r="179.415" stroke="white" stroke-opacity="0.07" stroke-width="0.746009"/>
</g>
<g filter="url(#filter1_d_264_3439)">
<circle cx="208.788" cy="206.788" r="133.536" fill="#1A2A3A"/>
<circle cx="208.788" cy="206.788" r="133.163" stroke="white" stroke-opacity="0.07" stroke-width="0.746009"/>
</g>
<path d="M278.733 72.8683C281.094 72.6584 283.43 72.1736 285.716 71.5338C286.913 71.1989 288.096 70.8191 289.279 70.4392C291.011 69.8894 292.738 69.3296 294.475 68.7798C301.423 66.5506 308.416 64.3114 314.845 60.8477C311.945 54.5899 309.435 48.1523 307.338 41.5847C306.54 39.0806 305.791 36.5065 305.776 33.8774C300.081 37.3762 293.537 39.1755 287.053 40.7899C283.23 41.7396 279.396 42.6343 275.553 43.5289C274.435 43.7889 273.332 43.9988 272.199 44.1337C270.796 44.2987 271.086 44.4936 271.625 45.6982C272.553 47.7824 273.397 49.8966 274.156 52.0459C275.673 56.3393 276.856 60.7627 277.679 65.2461C278.144 67.7702 278.493 70.3193 278.733 72.8783V72.8683Z" fill="white"/>
<path d="M298.279 49.8919C299.696 50.8365 301.054 51.8462 302.422 52.8608C303.789 53.8804 305.242 54.8101 306.669 55.7548C308.057 56.6744 309.44 57.6041 310.832 58.5138C311.526 58.9686 312.22 59.4184 312.919 59.8783C313.483 60.2481 314.286 60.9629 314.985 60.9529C315.215 60.9529 315.185 60.4631 315.1 60.3381C314.646 59.6833 313.882 59.2885 313.228 58.8586C312.539 58.4138 311.835 57.974 311.137 57.5391C309.719 56.6394 308.292 55.7648 306.864 54.8751C305.441 53.9854 304.099 53.1307 302.676 52.336C301.254 51.5413 299.726 50.7216 298.289 49.8369C298.274 49.8269 298.269 49.8819 298.289 49.8919H298.279Z" fill="#0D1924"/>
<path d="M278.288 73.4532C279.536 73.3032 280.764 72.9084 281.972 72.5735C283.18 72.2386 284.428 71.9087 285.656 71.5688C288.046 70.9191 290.432 70.2643 292.803 69.5446C297.6 68.0851 302.332 66.4157 306.994 64.5664C309.639 63.5217 312.22 62.3422 314.75 61.0476C315.16 60.8377 314.995 59.3283 314.536 59.5582C310.053 61.8224 305.431 63.8316 300.705 65.526C295.958 67.2254 291.131 68.6949 286.309 70.1543C284.957 70.5642 283.599 70.9591 282.242 71.3389C280.879 71.7188 279.506 72.0337 278.218 72.5935C278.029 72.6784 278.049 73.4731 278.283 73.4432V73.4532H278.288Z" fill="#0D1924"/>
<path d="M271.295 44.1737C271.475 44.7685 271.645 45.3583 271.824 45.953C279.835 51.641 287.847 57.3339 295.858 63.0169C301.318 49.5917 306.889 35.6468 306.509 35.4968C306.265 35.5218 304.353 38.7656 294.979 57.6538C292.379 55.6645 289.439 53.6253 286.165 51.631C280.859 48.4022 275.807 45.988 271.305 44.1687L271.295 44.1737Z" fill="#E1E4E8"/>
<path d="M270.846 44.1137C270.981 44.8634 271.33 45.5582 271.64 46.2429C271.979 46.9927 272.309 47.7474 272.633 48.5071C273.357 50.2315 273.981 51.9958 274.56 53.7702C275.862 57.7588 276.836 61.8323 277.475 65.9808C277.809 68.175 277.994 70.3742 278.158 72.5834C278.183 72.8883 278.263 73.558 278.698 73.558C279.132 73.558 279.197 72.8283 279.187 72.5584C279.047 68.3599 278.358 64.1365 277.375 60.0629C276.416 56.0944 275.074 52.2408 273.372 48.5271C272.977 47.6674 272.583 46.8177 272.154 45.973C271.839 45.3483 271.5 44.3836 270.891 44.0037C270.841 43.9738 270.836 44.0887 270.841 44.1087L270.846 44.1137Z" fill="#0D1924"/>
<path d="M270.871 44.294C271.336 44.5089 271.755 44.4489 272.254 44.4139C272.753 44.379 273.302 44.349 273.821 44.289C274.929 44.164 276.037 44.0191 277.136 43.8591C279.611 43.4893 282.077 43.0195 284.523 42.4597C289.689 41.2701 294.775 39.6607 299.647 37.5764C301.963 36.5868 304.219 35.4822 306.45 34.3176C306.699 34.1876 306.565 33.083 306.325 33.213C297.51 37.9263 287.847 41.2051 277.979 42.7745C276.746 42.9695 275.513 43.1394 274.28 43.2844C273.701 43.3493 273.122 43.4243 272.538 43.4943C271.954 43.5643 271.365 43.5543 270.856 43.8891C270.767 43.9491 270.762 44.249 270.866 44.299L270.871 44.294Z" fill="#0D1924"/>
<path d="M278.757 73.1035C279.316 72.5987 279.636 71.874 279.995 71.2292C280.385 70.5245 280.774 69.8147 281.133 69.095C281.937 67.4956 282.681 65.8712 283.374 64.2168C284.068 62.5674 284.707 60.9079 285.291 59.2236C285.566 58.4388 285.835 57.6541 286.065 56.8594C286.309 56.0097 286.424 55.11 286.614 54.2504C286.614 54.2154 286.584 54.0904 286.554 54.1654C286.299 54.8601 285.975 55.5199 285.705 56.2096C285.406 56.9744 285.171 57.7641 284.902 58.5388C284.298 60.2382 283.644 61.9226 282.935 63.577C282.226 65.2314 281.508 66.7758 280.729 68.3453C280.365 69.08 280 69.8147 279.621 70.5445C279.242 71.2742 278.827 71.9889 278.583 72.7886C278.553 72.8736 278.593 73.2485 278.752 73.1035H278.757Z" fill="#0D1924"/>
<path d="M271.28 44.3387C272.044 44.6886 272.748 45.1284 273.482 45.5383C274.215 45.9481 275.009 46.338 275.783 46.7278C277.41 47.5425 279.047 48.3173 280.654 49.1719C283.988 50.9463 287.233 52.9206 290.342 55.0698C291.91 56.1544 293.402 57.344 294.875 58.5386C295.054 58.6835 295.244 58.4186 295.299 58.2936C296.871 55.0998 298.269 51.821 299.761 48.5872C301.009 45.8731 302.387 43.2241 303.769 40.5751C304.253 39.6454 304.728 38.7107 305.217 37.7811C305.481 37.2762 305.726 36.7714 305.955 36.2566C306.245 35.6168 306.405 34.9621 306.674 34.3173C306.694 34.2673 306.664 33.9974 306.589 34.1024C306.33 34.4523 305.995 34.7022 305.756 35.067C305.501 35.4469 305.242 35.8318 305.012 36.2266C304.538 37.0613 304.074 37.901 303.629 38.7507C302.891 40.1502 302.157 41.5547 301.463 42.9792C300.19 45.5782 298.908 48.1773 297.63 50.7714C296.607 52.8406 295.568 54.9049 294.645 57.0191L295.069 56.7742C289.234 52.6157 283.075 48.8771 276.581 45.8481C275.733 45.4483 274.844 45.0584 273.951 44.7835C273.057 44.5086 272.189 44.3087 271.32 44.0088C271.195 43.9638 271.185 44.2887 271.28 44.3337H271.29L271.28 44.3387Z" fill="#0D1924"/>
<path d="M306.475 33.3027C306.25 34.1224 306.4 35.0671 306.45 35.9068C306.51 36.8714 306.629 37.8411 306.779 38.7958C307.079 40.6551 307.468 42.4894 307.887 44.3238C308.736 48.0274 309.804 51.6861 311.286 55.1898C312.11 57.1391 313.073 59.0284 314.146 60.8528C314.341 61.1826 314.63 61.1726 314.81 60.8378C315 60.4779 314.99 59.8481 314.775 59.4983C314.76 59.4683 314.97 60.5129 314.92 60.0431C314.9 59.8881 314.875 59.7432 314.815 59.5982C314.74 59.4133 314.625 59.2434 314.521 59.0684C314.266 58.6336 314.022 58.1887 313.782 57.7489C313.358 56.9492 312.948 56.1345 312.564 55.3148C311.77 53.6004 311.087 51.836 310.498 50.0417C309.34 46.503 308.531 42.8643 307.772 39.2306C307.558 38.196 307.353 37.1563 307.173 36.1167C307.009 35.1921 306.999 34.1374 306.659 33.2628C306.599 33.1078 306.49 33.2278 306.47 33.3227V33.3077L306.475 33.3027Z" fill="#0D1924"/>
<g filter="url(#filter2_d_264_3439)">
<circle cx="208.788" cy="206.788" r="87.2831" fill="#1F2F3F"/>
<circle cx="208.788" cy="206.788" r="86.9101" stroke="#EAEDF9" stroke-opacity="0.09" stroke-width="0.746009"/>
</g>
<path d="M91.8857 81.0154C99.6168 81.0154 105.884 74.7481 105.884 67.017C105.884 59.2859 99.6168 53.0186 91.8857 53.0186C84.1546 53.0186 77.8873 59.2859 77.8873 67.017C77.8873 74.7481 84.1546 81.0154 91.8857 81.0154Z" fill="#FDF5F6"/>
<path d="M114.714 90.6878C115.327 89.8614 115.242 88.7111 114.514 87.9838L104.512 77.9816C106.965 75.093 108.447 71.3541 108.447 67.2649C108.447 58.1121 101.029 50.6941 91.8767 50.6941C82.7239 50.6941 75.3059 58.1121 75.3059 67.2649C75.3059 76.4177 82.7239 83.8356 91.8767 83.8356C95.3976 83.8356 98.6622 82.7332 101.346 80.8616L111.403 90.9194C112.178 91.6943 113.418 91.771 114.293 91.1117C114.453 90.9918 114.596 90.848 114.714 90.6878ZM78.9978 67.2649C78.9978 60.146 84.7706 54.3774 91.8852 54.3774C98.9998 54.3774 104.773 60.1503 104.773 67.2649C104.773 74.3794 98.9998 80.1523 91.8852 80.1523C84.7706 80.1523 78.9978 74.3794 78.9978 67.2649Z" fill="#0D1924"/>
<path d="M82.3354 69.4824C82.9421 69.3884 83.5446 69.3798 84.1471 69.273C84.7496 69.1662 85.3564 69.0124 85.9546 68.8884C86.0614 68.8628 86.0828 68.7004 86.0785 68.6107C85.9802 66.4955 85.9247 64.3761 85.7965 62.2567L85.5188 62.5302C86.9844 66.0212 88.4116 69.5208 90.0097 72.9564C90.2276 73.4264 90.4968 72.7683 90.4797 72.5376C90.155 67.5937 89.8772 62.6541 89.7448 57.7017L89.4798 57.9794C91.6933 63.0686 93.5648 68.2988 95.7911 73.3837C95.9876 73.828 96.2269 73.1999 96.2227 72.9991C96.1628 70.4054 96.1287 67.8116 96.0988 65.2136L95.915 65.6495C97.2696 65.2649 98.654 64.812 99.9445 64.2394C100.021 64.2095 100.013 63.9146 99.9146 63.9232C98.5686 64.0898 97.2012 64.4231 95.8894 64.7863C95.7184 64.8333 95.7014 65.0769 95.7056 65.2222C95.7185 67.8202 95.727 70.4139 95.7056 73.0076L96.1799 72.7299C94.1417 67.5766 91.7488 62.5729 89.6978 57.4282C89.5653 57.1035 89.4328 57.582 89.4328 57.7059C89.4328 62.6498 89.5696 67.6194 89.9328 72.5504L90.4028 72.1317C88.7833 68.7902 87.1596 65.423 85.758 61.9832C85.6256 61.6628 85.476 62.1285 85.4803 62.2567C85.57 64.3761 85.7239 66.4913 85.835 68.6064L85.9589 68.3287C85.3564 68.4697 84.7496 68.5936 84.1557 68.7517C83.5617 68.9098 82.9635 69.1705 82.3567 69.3499C82.3183 69.3627 82.3183 69.4867 82.3567 69.4824H82.3482H82.3354Z" fill="#E22738"/>
<path d="M90.3131 209.555C89.7828 209.421 89.2562 209.291 88.7259 209.157C84.9831 212.989 82.3848 215.698 82.0033 216.222C81.9613 216.279 81.8087 216.485 81.5416 216.588C81.2097 216.718 80.832 216.562 80.5229 216.378C80.0308 216.08 79.5615 215.649 79.4852 215.079C79.3821 214.311 80.0117 213.666 80.5763 213.135C82.3123 211.511 83.9224 209.75 85.3875 207.878C84.7274 207.625 84.075 207.377 83.415 207.125C84.4985 206.873 86.1734 206.346 87.9247 205.161C88.661 204.661 90.0613 203.698 91.2021 202.002C93.0411 199.27 93.0563 196.355 92.98 195.105C94.3192 196.939 95.6622 198.777 97.0014 200.607C96.8831 201.631 96.4558 204.179 94.4527 206.533C92.9533 208.294 91.2517 209.157 90.3055 209.555H90.3131Z" fill="white"/>
<path d="M84.6856 213.127C84.7504 212.978 84.5825 212.833 84.4299 212.772C83.7508 212.481 82.9687 212.508 82.2552 212.703C81.5417 212.894 80.8779 213.242 80.2292 213.585C82.0682 211.618 83.9034 209.65 85.7424 207.683C85.731 207.694 87.0015 208.443 87.1236 208.5C87.5967 208.729 88.085 208.901 88.5772 209.081C88.2376 209.104 87.9706 209.551 87.7531 209.776C87.4059 210.143 87.0625 210.514 86.7191 210.884C86.0362 211.625 85.3532 212.378 84.6894 213.131L84.6856 213.127Z" fill="#E1E4E8"/>
<path d="M94.6816 205.78C93.6934 205.78 92.793 205.123 92.2741 204.282C91.7552 203.442 91.5683 202.437 91.4844 201.455C90.8968 202.842 89.8247 203.988 88.5809 204.84C87.3371 205.688 85.9254 206.261 84.4908 206.716C85.8834 207.721 87.3829 208.573 88.9586 209.257C89.1799 209.352 89.4088 209.448 89.653 209.474C90.1185 209.528 90.5725 209.318 90.996 209.111C91.9002 208.672 92.8045 208.21 93.5981 207.599C94.4031 206.976 95.0364 206.208 95.4409 205.268C95.3874 205.642 95.0212 205.78 94.6816 205.78Z" fill="#E1E4E8"/>
<path d="M85.6164 182.299C85.6698 182.299 85.6622 183.827 85.3722 185.539C85.3722 185.539 85.2768 186.116 85.1471 186.673C84.9487 187.525 83.0411 194.41 75.6164 199.556C75.1891 199.854 70.1261 203.32 68.7679 202.059C68.4283 201.745 68.1307 200.962 68.0659 200.24C68.001 199.472 68.2032 198.872 68.3024 198.594C71.6866 189.302 76.2536 184.817 76.2536 184.817C76.2536 184.817 80.4047 180.744 83.476 180.786C83.8232 180.786 84.7084 180.805 85.2234 181.409C85.4371 181.657 85.624 182.043 85.5897 183.415C85.5515 185.019 85.2578 186.528 85.1738 186.517C85.0403 186.494 85.5248 182.291 85.6088 182.295L85.6164 182.299Z" fill="white"/>
<path d="M85.5287 184.958C86.2154 185.478 86.7229 186.284 87.2379 186.968C87.8255 187.751 88.4092 188.538 88.993 189.325C90.1643 190.899 91.3356 192.473 92.5069 194.051C93.6782 195.629 94.8114 197.161 95.9598 198.716C96.2345 199.086 96.5054 199.457 96.7801 199.828C96.9938 200.122 97.1845 200.317 97.1883 200.687C97.1883 201.092 97.1387 201.505 97.0777 201.906C96.6275 204.836 94.8839 207.476 92.3047 208.947C91.8392 209.215 91.3471 209.444 90.8434 209.627C90.6679 209.688 90.4962 209.749 90.3169 209.803C90.0041 209.898 89.882 209.818 89.5615 209.685C87.7454 208.92 85.9293 208.164 84.1132 207.404C80.0575 205.707 75.998 204.011 71.9423 202.319C71.6943 202.215 71.7744 201.321 72.072 201.444C76.5588 203.32 81.0418 205.195 85.5249 207.067C86.6618 207.541 87.795 208.015 88.9319 208.489C89.2982 208.642 89.8171 208.982 90.1948 208.928C90.4466 208.89 90.7213 208.756 90.9579 208.664C92.6023 208.011 94.0559 206.903 95.1052 205.47C96.1506 204.038 96.7381 202.349 96.8373 200.603L96.9174 200.943C94.9793 198.322 93.0487 195.694 91.1258 193.058C90.1796 191.762 89.2372 190.467 88.291 189.168C87.3448 187.873 86.1963 186.54 85.5058 185.061C85.4981 185.046 85.4981 184.924 85.5363 184.954V184.947L85.5287 184.958Z" fill="#0D1924"/>
<path d="M88.9128 208.81C88.7602 209.268 88.4092 209.608 88.1001 209.967C87.7911 210.326 87.4897 210.666 87.1844 211.014C86.5663 211.702 85.9521 212.397 85.3264 213.077C84.7006 213.757 84.0787 214.433 83.4568 215.11C83.1478 215.446 82.8349 215.782 82.5259 216.122C82.358 216.302 82.1978 216.481 82.0299 216.661C81.8773 216.825 81.7972 216.947 81.5721 216.94C81.4614 216.94 81.4767 216.726 81.4996 216.661C81.5835 216.397 81.6827 216.244 81.8735 216.046C82.0414 215.866 82.2054 215.69 82.3771 215.507C82.69 215.175 83.0028 214.838 83.3157 214.502C83.9414 213.83 84.5671 213.157 85.189 212.485C85.8109 211.812 86.4404 211.159 87.0623 210.498C87.3714 210.17 87.6842 209.845 87.9971 209.52C88.165 209.348 88.3252 209.176 88.4969 209.012C88.6266 208.89 88.7296 208.779 88.9166 208.783C88.9242 208.783 88.9242 208.802 88.9242 208.806H88.9166L88.9128 208.81Z" fill="#0D1924"/>
<path d="M85.5972 207.931C85.1775 208.573 84.6396 209.131 84.1245 209.7C83.6094 210.269 83.102 210.827 82.5945 211.385C81.5911 212.485 80.5915 213.593 79.5461 214.655C79.4507 214.751 79.3706 214.632 79.3439 214.54C79.3057 214.418 79.3172 214.231 79.4049 214.128C80.4045 212.997 81.4461 211.901 82.4839 210.804C82.9875 210.269 83.495 209.742 83.9986 209.211C84.2504 208.947 84.5022 208.68 84.7578 208.424C84.8952 208.282 85.0325 208.145 85.1737 208.011C85.2958 207.893 85.4179 207.82 85.5552 207.721C85.6277 207.667 85.6125 207.9 85.5934 207.927L85.5972 207.931Z" fill="#0D1924"/>
<path d="M81.8163 216.833C81.5911 217.1 81.1219 217.032 80.8204 216.955C80.4885 216.871 80.1909 216.711 79.9429 216.474C79.3973 215.954 79.1417 215.079 79.3515 214.346C79.3783 214.25 79.4698 214.098 79.5766 214.197C79.6911 214.296 79.6835 214.51 79.6682 214.648C79.6682 214.682 79.6568 214.716 79.653 214.751C79.653 214.774 79.6453 214.797 79.6453 214.816C79.6453 214.774 79.6453 214.77 79.6453 214.8V214.904C79.6453 214.934 79.6453 214.927 79.6453 214.888V214.942C79.653 215.053 79.6758 215.156 79.714 215.27C79.8094 215.526 79.9658 215.759 80.1757 215.935C80.3855 216.115 80.6602 216.252 80.9349 216.325C81.0761 216.363 81.2134 216.375 81.3546 216.386C81.4958 216.397 81.6751 216.386 81.7972 216.478C81.8887 216.543 81.8773 216.749 81.8124 216.829L81.8163 216.833Z" fill="#0D1924"/>
<path d="M92.7816 194.299C92.8731 194.635 93.0105 194.933 93.0715 195.281C93.1288 195.602 93.1517 195.923 93.1593 196.248C93.1784 196.977 93.1021 197.715 92.9571 198.429C92.6709 199.82 92.1139 201.142 91.3089 202.315C89.7179 204.634 87.2417 206.437 84.4336 206.857C84.4107 206.857 84.4145 206.796 84.4336 206.792C86.78 205.608 89.1646 204.244 90.79 202.124C91.6103 201.05 92.2207 199.816 92.5641 198.509C92.7396 197.845 92.835 197.157 92.8541 196.469C92.8731 195.782 92.8884 195.01 92.7549 194.337C92.7549 194.314 92.7701 194.261 92.7854 194.303L92.7816 194.299Z" fill="#0D1924"/>
<path d="M78.8631 192.362C76.8525 195.163 74.5518 196.874 73.0219 197.833C73.453 196.355 74.3648 193.936 76.3336 191.495C78.226 189.145 80.3015 187.766 81.6216 187.025C81.1218 188.469 80.2901 190.379 78.8593 192.366L78.8631 192.362Z" fill="#E1E4E8"/>
<path d="M82.8654 182.421C80.8051 183.483 77.0852 185.756 73.9528 190.039C71.3431 193.608 70.229 197.084 69.7178 199.232C70.7059 198.807 71.6941 198.376 72.6785 197.952C72.709 196.977 72.9341 192.931 76.1581 189.703C78.3099 187.548 80.7441 186.807 81.8772 186.54C82.2054 185.168 82.5335 183.8 82.8616 182.425L82.8654 182.421Z" fill="#E1E4E8"/>
<path d="M92.2666 200.244C91.1067 203.392 88.1002 205.543 84.9411 206.663C84.5863 206.789 84.2162 206.907 83.8385 206.907C83.3845 206.907 82.9419 206.739 82.5184 206.575C78.7565 205.104 74.9984 203.629 71.2365 202.162C72.5642 201.619 74.3345 200.76 76.2078 199.373C76.7534 198.968 78.9358 197.318 81.0953 194.444C83.6935 190.991 84.9678 187.491 85.6203 184.95C85.9217 185.386 86.2498 185.864 86.6046 186.376C86.8183 186.685 87.1922 187.22 87.65 187.873C88.333 188.844 89.0235 189.806 89.7179 190.765C90.4314 191.751 91.1525 192.733 91.8812 193.707C92.2055 194.143 92.7244 194.628 92.9457 195.125C93.1136 195.491 92.9762 195.969 92.9534 196.378C92.877 197.688 92.7282 199.014 92.2704 200.256L92.2666 200.244Z" fill="#0D1924"/>
<path d="M80.8434 186.914C80.6221 187.002 80.4199 187.117 80.1986 187.216C79.901 187.35 79.6072 187.48 79.3134 187.617C78.5084 187.999 77.7606 188.461 77.0624 189.015C75.2692 190.444 73.9338 192.423 73.331 194.643C73.2165 195.063 73.1364 195.491 73.041 195.915C73.0181 196.015 73.0029 196.114 72.9761 196.213C72.9761 196.221 72.9304 196.343 72.9494 196.275C72.9609 196.225 72.938 196.355 72.9342 196.366C72.9075 196.492 72.8731 196.618 72.8426 196.744C72.8273 196.806 72.7816 196.771 72.7777 196.725C72.7625 196.607 72.7549 196.485 72.7472 196.362C72.7472 196.324 72.7472 196.125 72.7587 196.236C72.7587 196.118 72.7358 196.011 72.7472 195.892C72.7777 195.461 72.8502 195.04 72.9494 194.62C73.2013 193.562 73.6095 192.523 74.1703 191.591C75.2997 189.703 76.9517 188.274 78.951 187.376C79.302 187.216 79.6682 187.075 80.046 186.983C80.3092 186.922 80.5763 186.903 80.8434 186.865C80.8586 186.865 80.8548 186.907 80.8434 186.91V186.914Z" fill="#0D1924"/>
<path d="M82.8311 182.769C82.751 183.793 82.5297 184.809 82.255 185.802C81.8544 187.262 81.3126 188.702 80.6106 190.043C79.7521 191.686 78.68 193.211 77.4172 194.563C76.3298 195.728 75.1051 196.733 73.7773 197.616C73.1859 198.009 72.545 198.28 71.9193 198.609C71.6522 198.75 71.3775 198.873 71.0951 198.98C70.8548 199.071 70.6182 199.117 70.374 199.174C70.3359 199.182 70.3397 199.113 70.3626 199.102C70.5534 198.98 70.7365 198.838 70.9311 198.72C71.1562 198.586 71.3889 198.456 71.614 198.322C71.862 198.177 72.1138 198.044 72.3542 197.891C72.6251 197.711 72.8769 197.509 73.144 197.329C74.4183 196.466 75.6087 195.51 76.6961 194.425C79.0387 192.103 80.8433 189.199 81.8735 186.062C82.2321 184.97 82.4687 183.854 82.7014 182.731C82.7319 182.582 82.8387 182.639 82.8273 182.773L82.8311 182.769Z" fill="#0D1924"/>
<path d="M85.6697 182.268C85.7613 183.648 85.6392 185.053 85.3683 186.406C85.2806 186.853 85.1661 187.296 85.0249 187.732C84.5366 189.26 83.8536 190.75 83.0257 192.148C81.7323 194.334 80.0803 196.309 78.1879 197.997C77.0394 199.021 75.7956 199.931 74.5022 200.764C73.3424 201.512 72.0948 202.273 70.748 202.636C69.8819 202.869 68.8746 202.911 68.3176 202.085C67.8979 201.459 67.8521 200.607 67.9093 199.877C67.9933 198.811 68.2794 197.772 68.619 196.76C69.0387 195.518 69.5614 194.314 70.1375 193.142C71.2287 190.918 72.5068 188.748 74.0215 186.784C74.9029 185.642 75.8987 184.584 76.9631 183.617C78.5427 182.177 80.4389 180.725 82.6022 180.389C83.5331 180.243 84.8265 180.263 85.4217 181.13C85.6697 181.493 85.746 181.947 85.7766 182.379C85.8262 183.055 85.7918 183.743 85.7155 184.415C85.6354 185.172 85.4828 185.917 85.2882 186.65C85.2653 186.731 85.2157 186.803 85.1318 186.754C85.0478 186.704 85.0555 186.521 85.0707 186.448C85.2233 185.711 85.3264 184.958 85.3721 184.209C85.4103 183.621 85.4446 183.017 85.3721 182.429C85.3492 182.249 85.3149 182.119 85.2539 181.982C85.2157 181.905 85.0974 181.749 84.9715 181.649C84.5633 181.328 84.0368 181.252 83.5293 181.248C81.469 181.225 79.5576 182.467 78.02 183.72C76.7266 184.775 75.5553 185.993 74.4984 187.289C73.3119 188.748 72.3046 190.368 71.3966 192.011C70.2443 194.093 69.1493 196.362 68.6381 198.674C68.5847 198.911 68.5389 199.147 68.5007 199.384C68.4855 199.484 68.4702 199.583 68.4588 199.686C68.4588 199.709 68.4397 199.847 68.4473 199.763C68.4473 199.824 68.4359 199.877 68.432 199.938C68.4168 200.126 68.413 200.32 68.4168 200.508C68.4168 200.592 68.4092 200.446 68.4168 200.557C68.4168 200.599 68.4244 200.641 68.4282 200.683C68.4359 200.764 68.4511 200.848 68.4664 200.924C68.4778 201 68.4473 200.863 68.474 200.962C68.4855 201 68.4931 201.035 68.5045 201.069C68.516 201.104 68.5274 201.138 68.5389 201.172C68.5694 201.256 68.516 201.138 68.5579 201.222C68.5847 201.279 68.6152 201.333 68.6457 201.39C68.6533 201.402 68.7067 201.478 68.6839 201.451C68.6648 201.425 68.7258 201.501 68.7373 201.512C68.9662 201.776 69.3134 201.887 69.672 201.902C70.2138 201.921 70.7518 201.761 71.2592 201.574C71.8926 201.337 72.4954 201.031 73.0829 200.695C74.3534 199.98 75.582 199.155 76.7342 198.257C78.7754 196.672 80.5763 194.773 82.0375 192.641C83.0104 191.22 83.8613 189.692 84.4946 188.087C84.9563 186.918 85.2729 185.6 85.4179 184.305C85.4942 183.64 85.5362 182.967 85.5629 182.299C85.5629 182.2 85.6621 182.131 85.6697 182.268Z" fill="#0D1924"/>
<path d="M330.382 164.525C330.382 164.657 330.389 164.813 330.49 164.902C330.576 164.979 330.707 164.983 330.824 164.979C335.24 164.902 339.659 164.824 344.075 164.747C343.955 168.27 342.678 171.747 340.486 174.513C339.997 175.13 339.465 175.709 338.837 176.178C338.274 176.601 337.638 176.927 337.009 177.249C335.81 177.866 334.603 178.483 333.311 178.863C330.824 179.593 328.096 179.383 325.702 178.405C323.308 177.424 321.235 175.701 319.738 173.586C316.711 169.322 316.113 163.447 318.224 158.662C319.641 155.457 322.229 152.822 325.341 151.239C326.125 150.839 326.944 150.51 327.782 150.25C328.271 150.098 329.753 149.493 330.18 149.885C330.471 150.149 330.319 150.905 330.323 151.251C330.323 151.841 330.323 152.43 330.331 153.02C330.331 154.2 330.339 155.383 330.347 156.563C330.358 159.217 330.366 161.875 330.374 164.529V164.537L330.382 164.525Z" fill="#FDF5F6"/>
<path d="M332.713 147.723C332.655 147.956 332.946 161.759 332.946 161.759H346.287C346.364 161.025 346.799 155.775 342.763 151.596C338.724 147.413 333.451 147.677 332.717 147.727L332.713 147.723Z" fill="#0D1924"/>
<path d="M330.393 149.501C328.177 149.606 325.903 150.579 324.049 151.751C322.194 152.923 320.638 154.429 319.419 156.206C316.971 159.78 316.14 164.242 317.18 168.449C318.216 172.643 321.08 176.543 324.968 178.503C328.856 180.462 333.672 180.175 337.417 177.824C341.161 175.472 343.59 171.394 344.126 167.024C344.199 166.442 344.234 165.856 344.238 165.271C344.238 165.131 344.207 164.754 344.021 164.712C343.835 164.669 343.78 165.007 343.776 165.127C343.617 169.337 341.712 173.326 338.348 175.918C334.987 178.514 330.661 179.383 326.687 178.021C322.749 176.667 319.648 173.392 318.143 169.551C316.653 165.74 316.986 161.534 319.004 157.975C321.022 154.417 324.689 151.592 328.767 150.482C329.314 150.335 329.865 150.207 330.412 150.063C330.575 150.021 330.572 149.497 330.397 149.501H330.393Z" fill="#0D1924"/>
<path d="M330.25 149.706C330.118 150.909 330.149 152.151 330.137 153.366C330.122 154.638 330.114 155.911 330.114 157.188V160.928C330.114 162.178 330.036 163.462 330.18 164.7C330.222 165.092 330.544 165.061 330.587 164.688C330.723 163.478 330.645 162.213 330.645 160.994V157.172C330.645 155.899 330.634 154.681 330.622 153.432C330.61 152.182 330.642 150.933 330.502 149.699C330.475 149.439 330.277 149.458 330.25 149.706Z" fill="#0D1924"/>
<path d="M330.28 164.999C330.664 165.162 331.161 165.123 331.572 165.131C332.026 165.142 332.476 165.158 332.93 165.158C333.834 165.17 334.735 165.185 335.639 165.193C337.443 165.22 339.251 165.224 341.06 165.239C342.084 165.247 343.109 165.22 344.133 165.232C344.284 165.232 344.28 164.642 344.117 164.638C343.213 164.63 342.313 164.588 341.409 164.576C340.505 164.564 339.605 164.553 338.7 164.545C336.896 164.522 335.088 164.51 333.28 164.498H331.747C331.506 164.498 331.266 164.498 331.025 164.51C330.784 164.522 330.517 164.51 330.284 164.607C330.191 164.646 330.202 164.956 330.296 164.991H330.288L330.28 164.999Z" fill="#0D1924"/>
<path d="M332.713 147.723C332.655 147.956 332.946 161.759 332.946 161.759H346.287C346.364 161.025 346.799 155.775 342.763 151.596C338.724 147.413 333.451 147.677 332.717 147.727L332.713 147.723Z" fill="#E22738"/>
<path d="M330.393 149.501C328.177 149.606 325.903 150.579 324.049 151.751C322.194 152.923 320.638 154.429 319.419 156.206C316.971 159.78 316.14 164.242 317.18 168.449C318.216 172.643 321.08 176.543 324.968 178.503C328.856 180.462 333.672 180.175 337.417 177.824C341.161 175.472 343.59 171.394 344.126 167.024C344.199 166.442 344.234 165.856 344.238 165.271C344.238 165.131 344.207 164.754 344.021 164.712C343.835 164.669 343.78 165.007 343.776 165.127C343.617 169.337 341.712 173.326 338.348 175.918C334.987 178.514 330.661 179.383 326.687 178.021C322.749 176.667 319.648 173.392 318.143 169.551C316.653 165.74 316.986 161.534 319.004 157.975C321.022 154.417 324.689 151.592 328.767 150.482C329.314 150.335 329.865 150.207 330.412 150.063C330.575 150.021 330.572 149.497 330.397 149.501H330.393Z" fill="#0D1924"/>
<path d="M330.25 149.706C330.118 150.909 330.149 152.151 330.137 153.366C330.122 154.638 330.114 155.911 330.114 157.188V160.928C330.114 162.178 330.036 163.462 330.18 164.7C330.222 165.092 330.544 165.061 330.587 164.688C330.723 163.478 330.645 162.213 330.645 160.994V157.172C330.645 155.899 330.634 154.681 330.622 153.432C330.61 152.182 330.642 150.933 330.502 149.699C330.475 149.439 330.277 149.458 330.25 149.706Z" fill="#0D1924"/>
<path d="M330.28 164.999C330.664 165.162 331.161 165.123 331.572 165.131C332.026 165.142 332.476 165.158 332.93 165.158C333.834 165.17 334.735 165.185 335.639 165.193C337.443 165.22 339.251 165.224 341.06 165.239C342.084 165.247 343.109 165.22 344.133 165.232C344.284 165.232 344.28 164.642 344.117 164.638C343.213 164.63 342.313 164.588 341.409 164.576C340.505 164.564 339.605 164.553 338.7 164.545C336.896 164.522 335.088 164.51 333.28 164.498H331.747C331.506 164.498 331.266 164.498 331.025 164.51C330.784 164.522 330.517 164.51 330.284 164.607C330.191 164.646 330.202 164.956 330.296 164.991H330.288L330.28 164.999Z" fill="#0D1924"/>
<path d="M305.056 236.174C303.447 233.984 301.257 232.196 298.754 231.079C300.721 231.437 303.224 231.481 304.073 229.649C304.743 228.218 303.715 226.475 302.33 225.715C300.944 224.956 299.29 224.866 297.726 224.643C296.162 224.419 294.508 224.017 293.48 222.81C292.497 221.648 292.318 219.95 291.29 218.788C290.441 217.849 289.144 217.447 287.938 217.044C285.166 216.195 281.993 216.329 280.026 214.229C267.869 201.49 257.812 186.741 250.304 170.829C248.069 166.091 246.102 161.264 244.001 156.437C243.242 154.738 242.482 152.995 241.096 151.744C240.068 150.805 238.772 150.224 237.476 149.688C231.844 147.363 225.989 145.576 220 144.458C219.642 145.173 219.508 145.486 219.597 146.291C219.285 143.43 217.05 140.838 214.234 140.123C214.413 135.34 216.916 131.005 218.435 126.446C219.061 124.569 219.553 122.691 219.866 120.725C221.609 121.797 223.978 121.306 225.542 120.01C227.106 118.713 227.956 116.702 228.403 114.735C228.85 112.769 228.76 110.311 227.017 109.283C225.229 108.21 222.86 109.417 221.475 111.026C222.413 108.478 222.95 105.707 221.922 103.249C220.179 99.0025 222.547 93.5942 220.044 89.7057C218.569 87.4262 215.709 86.3535 213.027 86.2194C210.301 86.0853 207.619 86.6664 204.937 87.0239C200.423 87.605 195.864 87.3815 191.394 88.052C190.456 88.186 189.428 88.4095 188.757 89.08C188.132 89.7057 187.908 90.5996 187.819 91.4488C187.55 94.7116 189.204 98.0638 188.355 101.237C187.953 102.846 186.88 104.187 186.433 105.752C186.12 106.824 186.433 108.21 185.494 109.014C185.137 109.327 184.735 109.461 184.332 109.685C181.248 111.249 179.773 115.451 181.204 118.579C182.634 121.753 186.746 123.362 189.964 122.066C191.841 125.284 193.719 128.502 195.596 131.765C196.266 132.927 196.937 134.089 197.16 135.385C197.473 137.083 197.071 139.005 198.188 140.301C195.998 140.704 194.21 142.715 194.121 144.95C189.696 146.335 185.271 147.945 180.98 149.732C178.969 150.582 176.913 151.475 175.393 153.04C173.516 154.917 172.622 157.509 171.683 160.012C167.437 171.589 162.476 184.372 154.61 193.937C151.436 197.78 149.067 201.58 145.581 205.155C142.81 207.971 140.039 210.832 137.223 213.648C136.016 214.854 134.809 216.106 133.245 216.732C131.323 217.536 128.999 217.357 127.3 218.475C125.244 219.86 124.574 222.676 122.563 224.062C120.909 225.224 118.674 225.09 116.752 225.626C114.786 226.162 112.819 228.04 113.534 229.962C114.294 231.839 116.931 231.839 118.942 231.526C116.037 232.509 113.489 234.431 111.701 236.934C111.299 237.515 110.942 238.141 111.076 238.811C111.21 239.482 112.104 239.973 112.595 239.482C112.461 240.018 112.685 240.644 113.132 240.957C116.931 237.962 121.669 236.13 126.496 235.817C123.725 237.739 121.579 240.599 120.641 243.817C125.244 240.599 129.848 237.426 134.452 234.208C135.39 233.537 136.687 232.911 137.58 233.582C138.206 234.029 138.296 234.878 138.43 235.638C139.458 241.136 144.24 245.069 148.799 248.421C153.313 251.728 158.23 255.394 159.705 260.802C159.884 261.427 160.018 262.098 159.884 262.768C159.616 263.975 158.453 264.869 158.051 266.031C157.47 267.774 158.766 269.607 160.107 270.858C163.996 274.479 169.136 276.535 174.32 277.518C179.55 278.501 184.869 278.501 190.188 278.501C191.305 278.501 192.467 278.501 193.54 278.144C195.64 277.429 197.518 275.373 197.384 273.138C199.037 270.054 201.898 267.64 205.25 266.523C207.127 265.897 209.228 265.674 210.971 266.612C211.686 266.97 212.267 267.551 213.027 267.774C213.966 268.042 214.949 267.774 215.888 267.64C221.475 266.791 227.285 271.305 227.911 276.892C235.018 277.16 242.169 276.311 249.141 274.97C253.924 274.032 258.796 272.78 262.684 269.875C263.489 269.294 264.249 268.579 264.606 267.64C265.366 265.495 263.578 263.305 261.835 261.785C259.69 259.863 257.455 258.075 255.131 256.377C254.103 255.662 253.075 254.902 251.868 254.589C251.6 254.5 251.332 254.455 251.063 254.41C258.84 251.863 266.439 248.689 273.769 244.979C277.121 243.281 280.518 241.359 282.753 238.32C283.066 237.873 283.379 237.426 283.87 237.247C284.407 237.068 284.943 237.247 285.435 237.47C289.368 239.124 293.078 241.27 296.43 243.817C295.536 240.42 293.435 237.381 290.575 235.37C294.597 235.504 298.575 236.8 301.883 239.08C302.911 239.795 304.296 240.599 305.28 239.839C306.308 239.035 305.727 237.381 304.967 236.308L305.056 236.174ZM183.707 228.71C181.785 228.71 179.818 228.665 177.896 228.576C174.097 228.442 170.253 228.174 166.454 227.906C164.219 227.771 145.626 227.771 145.536 227.28C145.268 225.537 152.732 221.782 153.939 220.978C165.471 213.066 174.41 201.446 179.014 188.26C178.79 198.987 180.131 209.714 183.081 219.994C183.483 221.425 183.93 222.9 184.824 224.106C186.031 225.76 187.997 226.833 189.16 228.531C188.891 228.174 184.377 228.665 183.751 228.665L183.707 228.71ZM263.936 222.766C261.478 223.347 259.019 223.972 256.516 224.33C255.891 224.419 255.265 224.509 254.639 224.732C253.924 225.045 253.253 225.537 252.494 225.715C251.868 225.85 251.242 225.715 250.616 225.715C249.588 225.715 248.56 225.939 247.532 226.162C244.001 226.878 240.381 227.19 236.761 227.056C237.252 225.224 238.906 223.928 239.577 222.184C239.889 221.335 240.023 220.441 240.068 219.503C240.515 213.156 239.711 206.809 238.861 200.507C238.593 198.406 238.325 196.261 238.012 194.16C237.789 192.506 237.744 190.584 237.431 188.886C237.208 188.528 236.984 188.171 236.761 187.769C236.895 187.769 237.029 187.724 237.118 187.679C237.252 188.037 237.342 188.439 237.431 188.841C241.141 194.92 244.94 200.954 249.231 206.63C250.214 207.926 251.242 209.223 252.449 210.34C253.119 210.966 253.879 211.547 254.46 212.262C255.175 213.066 255.667 214.05 256.472 214.765C257.008 215.257 257.634 215.614 258.215 215.972C260.941 217.625 263.489 219.592 265.813 221.782C265.321 222.274 264.606 222.497 263.891 222.676L263.936 222.766Z" fill="white"/>
<path d="M137.09 240.778C135.928 235.325 140.666 230.587 140.979 230.274C144.465 226.877 148.979 226.296 151.884 226.028C166.008 224.732 182.769 226.654 189.697 227.548C193.809 229.559 202.033 232.956 212.894 232.866C224.381 232.777 232.918 228.844 236.985 226.654C241.902 225.134 247.444 223.704 253.568 222.631C257.724 221.871 261.702 221.38 265.367 221.022C270.642 223.301 273.502 226.117 275.156 228.352C276.229 229.782 277.48 231.928 280.206 234.252C281.816 235.638 283.335 236.576 284.363 237.113C283.425 239.213 281.86 242.253 279.178 245.337C270.15 255.795 257.456 255.885 240.248 261.07C229.834 264.198 219.599 267.819 209.542 271.931C207.218 265.941 204.849 259.952 202.525 253.963C211.822 249.27 222.236 244.532 233.723 240.062C245.791 235.369 257.233 231.704 267.736 228.799C257.724 230.766 246.595 233.537 234.706 237.649C228.18 239.928 222.057 242.342 216.425 244.8C208.246 242.521 199.173 240.465 189.295 238.766C181.294 237.381 173.741 236.487 166.679 235.861C174.143 237.023 182.054 238.498 190.323 240.375C198.592 242.253 206.369 244.264 213.609 246.409C209.587 248.51 205.564 250.611 201.542 252.756C198.994 254.097 196.446 255.483 193.899 256.823C189.071 257.539 185.228 257.449 182.635 257.226C175.037 256.6 171.372 254.41 165.964 255.929C162.88 256.779 160.69 258.477 159.349 259.639C152.778 255.393 147.549 251.549 143.66 248.599C139.459 245.381 137.537 243.683 136.911 240.822L137.09 240.778Z" fill="#0D1924"/>
<path d="M294.061 239.973C292.184 237.828 289.726 236.353 287.178 235.057C284.675 233.761 282.083 232.554 279.803 230.855C277.792 229.336 276.094 227.458 274.172 225.849C274.395 226.386 274.351 226.967 274.574 227.458C274.708 227.771 274.976 228.039 275.2 228.308C276.675 229.917 278.15 231.57 279.625 233.18C280.25 233.85 280.876 234.565 281.636 235.146C282.441 235.727 283.379 236.129 284.273 236.532C285.837 237.202 287.446 237.873 288.966 238.722C289.905 239.258 290.799 239.839 291.693 240.42C292.363 240.867 293.078 241.314 293.749 241.761C294.24 242.074 295 242.834 295.581 242.879C295.715 241.895 294.643 240.599 294.017 239.884L294.061 239.973Z" fill="#E1E4E8"/>
<path d="M303.448 238.856C302.733 237.515 301.66 236.353 300.364 235.593C299.336 234.967 298.129 234.565 296.967 234.208C295.045 233.582 293.078 233.09 291.067 232.733C290.799 233.492 290.128 234.118 289.368 234.297C290.173 234.655 290.978 235.012 291.827 235.236C292.452 235.414 293.123 235.549 293.749 235.638C296.341 236.13 298.933 236.889 300.989 238.498C301.347 238.767 301.705 239.124 302.107 239.348C302.464 239.571 303.09 239.929 303.492 239.884C304.029 239.795 303.582 239.124 303.403 238.811L303.448 238.856Z" fill="#E1E4E8"/>
<path d="M304.163 236.04C303.537 235.146 302.598 234.476 301.615 233.939C298.844 232.375 295.804 231.302 292.81 230.229C292.944 230.632 292.72 231.123 292.363 231.347C294.598 232.107 296.788 232.911 298.888 233.939C300.095 234.52 301.257 235.146 302.241 236.04C303.269 236.934 303.894 237.962 304.386 239.213C305.146 238.454 304.654 236.755 304.118 235.995L304.163 236.04Z" fill="#E1E4E8"/>
<path d="M298.307 227.995C297.279 227.816 296.296 227.414 295.268 227.012C295.044 226.922 294.776 226.833 294.597 226.654C294.419 226.475 294.284 226.207 294.374 225.984C292.497 224.509 290.932 222.631 289.815 220.531C288.966 221.112 287.938 221.246 286.954 221.29C284.72 221.38 282.529 221.022 280.429 220.218C282.44 222.721 283.021 226.341 281.859 229.38C282.976 229.693 284.094 230.051 285.122 230.632C286.15 231.213 286.999 232.062 287.446 233.135C288.742 232.688 289.547 231.168 289.234 229.872C289.86 230.096 290.575 229.961 291.066 229.515C291.558 229.068 291.737 228.352 291.558 227.727C292.72 228.263 293.837 228.978 295.044 229.47C296.251 229.961 297.547 230.319 298.843 230.051C300.14 229.783 301.346 228.978 301.704 227.727C301.302 228.487 298.933 228.174 298.307 228.04V227.995Z" fill="#E1E4E8"/>
<path d="M123.055 240.688C124.932 238.543 127.39 237.068 129.938 235.772C132.441 234.476 135.033 233.269 137.313 231.57C139.324 230.051 141.023 228.174 142.944 226.564C142.721 227.101 142.766 227.682 142.542 228.174C142.408 228.486 142.14 228.755 141.916 229.023C140.441 230.632 138.967 232.286 137.492 233.895C136.866 234.565 136.24 235.28 135.48 235.861C134.676 236.442 133.737 236.845 132.843 237.247C131.279 237.917 129.67 238.588 128.15 239.437C127.211 239.973 126.318 240.554 125.424 241.135C124.753 241.582 124.038 242.029 123.368 242.476C122.876 242.789 122.116 243.549 121.535 243.594C121.401 242.61 122.474 241.314 123.099 240.599L123.055 240.688Z" fill="#E1E4E8"/>
<path d="M113.669 239.571C114.384 238.23 115.457 237.068 116.753 236.308C117.781 235.683 118.988 235.28 120.15 234.923C122.072 234.297 124.039 233.805 126.05 233.448C126.318 234.208 126.989 234.833 127.749 235.012C126.944 235.37 126.14 235.727 125.29 235.951C124.665 236.13 123.994 236.264 123.368 236.353C120.776 236.845 118.184 237.604 116.128 239.214C115.77 239.482 115.412 239.839 115.01 240.063C114.653 240.286 114.027 240.644 113.625 240.599C113.088 240.51 113.535 239.839 113.714 239.526L113.669 239.571Z" fill="#E1E4E8"/>
<path d="M112.953 236.755C113.579 235.861 114.518 235.191 115.501 234.654C118.272 233.09 121.311 232.017 124.306 230.945C124.172 231.347 124.395 231.838 124.753 232.062C122.518 232.822 120.328 233.626 118.227 234.654C117.021 235.235 115.858 235.861 114.875 236.755C113.847 237.649 113.221 238.677 112.73 239.928C111.97 239.169 112.462 237.47 112.998 236.71L112.953 236.755Z" fill="#E1E4E8"/>
<path d="M289.86 234.61C291.826 235.772 294.195 235.995 296.385 236.576C297.458 236.845 298.486 237.202 299.469 237.694C300.408 238.141 301.168 238.811 302.017 239.437C302.553 239.839 303.671 240.733 304.386 240.331C305.012 239.973 304.699 238.856 304.52 238.32C303.85 236.442 301.972 235.012 300.274 234.208C297.95 233.135 295.491 232.286 293.033 231.615C295 232.42 296.966 233.269 298.888 234.118C300.676 234.923 302.375 235.817 303.626 237.426C303.894 237.783 304.163 238.186 304.297 238.588C304.386 238.811 304.52 239.124 304.475 239.348C304.386 239.795 303.85 239.571 303.626 239.437C302.777 239.124 302.106 238.543 301.391 237.962C299.961 236.845 298.263 236.174 296.519 235.727C295.447 235.459 294.329 235.28 293.212 235.057C292.095 234.833 290.977 234.61 289.86 234.431V234.52V234.61Z" fill="#0D1924"/>
<path d="M306.039 238.364C306.173 235.325 303.893 233.179 301.346 231.883C299.826 231.123 298.217 230.498 296.653 229.872C295.848 229.559 295.044 229.291 294.239 228.933C293.524 228.576 292.809 228.174 292.094 227.771C292.094 227.771 292.094 227.861 292.094 227.905C293.211 229.023 294.82 229.38 296.161 230.14C297.502 230.9 298.977 231.57 300.407 232.241C302.865 233.403 305.905 235.325 305.994 238.364C305.994 238.409 306.039 238.454 306.039 238.364Z" fill="#0D1924"/>
<path d="M302.061 227.637C301.704 227.682 301.302 227.637 300.944 227.637C300.631 227.637 300.318 227.682 299.961 227.726C299.246 227.726 298.575 227.726 297.86 227.637C297.234 227.548 296.608 227.324 296.027 227.056C295.536 226.833 294.999 226.609 294.552 226.251V226.296C294.955 226.833 295.357 227.324 295.938 227.637C296.474 227.905 297.1 228.084 297.726 228.173C298.441 228.263 299.201 228.263 299.961 228.173C300.318 228.129 300.721 228.084 301.078 227.995C301.436 227.905 301.704 227.726 302.061 227.592V227.637Z" fill="#0D1924"/>
<path d="M298.307 230.855C298.933 231.258 299.604 231.302 300.364 231.302C301.034 231.302 301.749 231.258 302.375 231.034C302.956 230.855 303.492 230.543 303.85 230.051C304.207 229.559 304.207 228.933 304.163 228.352C304.073 227.28 303.805 225.894 302.822 225.268C302.285 224.956 301.66 224.866 301.034 224.821C300.274 224.732 299.47 224.687 298.71 224.598C297.861 224.509 297.056 224.419 296.207 224.151C295.492 223.928 294.821 223.615 294.151 223.212V223.302C295.179 224.419 296.698 224.956 298.129 225.179C298.933 225.313 299.738 225.358 300.542 225.447C301.302 225.492 302.151 225.537 302.822 225.984C303.492 226.431 303.671 227.235 303.805 227.995C303.939 228.889 303.805 229.649 303.001 230.14C302.285 230.543 301.436 230.677 300.632 230.677C299.827 230.677 299.112 230.498 298.352 230.766C298.352 230.766 298.352 230.811 298.352 230.855H298.307Z" fill="#0D1924"/>
<path d="M201.586 139.273C202.122 141.285 202.658 143.341 203.597 145.173C204.536 147.051 205.876 148.749 207.664 149.822C208.29 150.179 209.005 150.492 209.72 150.492C210.972 150.492 212.089 149.688 212.804 148.66C213.519 147.632 213.788 146.38 214.056 145.173C214.011 146.827 214.19 148.525 214.592 150.135C214.637 150.313 214.682 150.537 214.637 150.716C214.637 150.894 214.503 151.028 214.413 151.163C210.972 156.034 208.737 161.8 208.022 167.745C207.307 162.739 204.089 158.448 201.005 154.381C200.334 153.487 199.664 152.637 198.993 151.744C198.859 151.565 198.725 151.431 198.68 151.207C198.636 150.984 198.636 150.805 198.68 150.626C198.68 149.732 198.68 148.838 198.68 147.9C198.546 143.251 198.412 138.558 197.608 133.955C197.608 134.446 198.055 134.849 198.502 135.117C198.949 135.385 199.44 135.519 199.798 135.832C200.424 136.323 200.781 137.083 201.094 137.843C201.407 138.603 201.72 139.318 202.033 140.078C202.167 140.391 202.301 140.704 202.256 141.061" fill="#E1E4E8"/>
<path d="M210.211 113.305C210.077 113.528 210.032 113.797 210.077 114.02C210.122 114.244 210.167 114.512 210.256 114.735C210.39 115.138 210.569 115.584 210.882 115.897C210.882 115.897 210.926 115.942 210.971 115.942C211.016 115.942 211.105 115.942 211.15 115.897C211.329 115.763 211.373 115.495 211.418 115.272C211.463 115.048 211.418 114.825 211.329 114.601C211.239 114.333 211.15 114.065 211.016 113.841C210.882 113.573 210.703 113.26 210.39 113.171H210.301C210.301 113.171 210.256 113.216 210.256 113.26C210.256 113.394 210.211 113.528 210.167 113.663" fill="#0D1924"/>
<path d="M203.998 130.2C204.534 130.334 205.026 130.513 205.562 130.558C206.456 130.558 207.35 130.334 208.11 129.976C209.004 129.574 209.808 128.948 210.389 128.144C210.791 127.608 211.06 126.982 211.283 126.356C211.283 126.356 211.283 126.177 211.238 126.222C210.434 127.518 209.272 128.68 207.886 129.306C207.126 129.664 206.277 129.798 205.428 129.932C204.936 129.976 204.445 130.155 203.953 130.111C203.953 130.111 203.953 130.2 203.953 130.245L203.998 130.2Z" fill="#0D1924"/>
<path d="M187.372 108.97C188.803 106.869 190.233 104.768 191.663 102.667C191.171 101.55 190.635 100.209 190.233 98.6001C189.741 96.7228 189.562 95.0691 189.518 93.6835C191.171 93.2813 193.496 92.879 196.267 93.0131C199.53 93.1472 202.122 93.907 203.865 94.5774C205.295 93.6388 207.62 92.3873 210.659 91.6722C213.341 91.0465 215.665 91.0465 217.274 91.1805C217.229 93.9517 217.184 96.6781 217.14 99.4493C218.436 101.729 219.732 103.964 221.028 106.243C220.984 108.344 220.894 110.444 220.849 112.501C221.028 112.098 221.609 110.802 223.084 109.953C224.649 109.059 226.168 109.282 226.571 109.372C226.794 107.405 226.973 105.349 227.107 103.248C227.509 97.2592 227.465 91.6722 227.196 86.4875C223.799 84.1186 218.749 81.3027 212.223 79.4255C208.558 78.3975 205.251 77.9059 202.39 77.6824C198.725 78.6657 193.764 80.4088 188.534 83.6716C184.69 86.0852 181.651 88.6776 179.416 90.8677C179.238 93.8176 179.416 98.019 180.713 102.801C181.562 105.796 182.679 108.299 183.752 110.266C184.244 110.31 185.093 110.444 185.987 110.936C187.104 111.562 187.775 112.411 188.043 112.858C187.819 111.517 187.596 110.176 187.372 108.835V108.97Z" fill="#0D1924"/>
<path d="M187.283 108.791C187.193 110.623 187.461 112.456 187.774 114.244C188.087 115.897 188.445 117.506 188.892 119.116C189.651 121.797 190.635 124.39 191.976 126.848C192.914 128.546 193.987 130.155 195.149 131.675C196.803 133.865 198.501 136.1 200.647 137.888C202.747 139.631 205.429 141.061 208.245 140.525C210.793 140.033 212.714 138.067 214.368 136.145C216.245 133.955 217.318 131.139 218.167 128.457C220.134 122.244 221.028 115.629 221.43 109.148C221.475 108.165 221.52 107.182 221.52 106.243C221.52 105.93 221.251 105.751 221.207 106.154C220.626 112.724 219.955 119.384 218.167 125.775C217.318 128.815 216.245 132.077 214.324 134.58C213.251 135.966 211.91 137.396 210.435 138.29C207.843 139.854 204.937 139.407 202.479 137.843C200.155 136.368 198.278 134.178 196.624 132.033C195.462 130.513 194.389 128.859 193.361 127.206C192.154 125.149 191.082 122.959 190.232 120.725C189.07 117.685 188.311 114.601 187.864 111.383C187.729 110.489 187.551 109.64 187.372 108.746C187.372 108.701 187.327 108.701 187.327 108.746L187.283 108.791Z" fill="#0D1924"/>
<path d="M220.939 112.724C221.207 112.053 221.565 111.472 222.101 110.981C222.637 110.489 223.308 110.042 224.023 109.685C224.827 109.327 225.766 109.104 226.615 109.506C227.286 109.819 227.733 110.444 228.001 111.115C228.537 112.59 228.135 114.467 227.554 115.897C226.973 117.328 226.124 118.713 224.783 119.607C224.023 120.099 223.218 120.456 222.324 120.635C221.43 120.814 220.626 120.724 219.777 120.635C219.509 120.635 219.509 121.44 219.777 121.529C221.43 122.155 223.486 121.574 224.917 120.635C226.436 119.652 227.598 118.087 228.18 116.344C228.761 114.601 229.118 112.456 228.492 110.668C228.224 109.908 227.733 109.238 227.017 108.791C226.258 108.299 225.364 108.344 224.514 108.612C222.905 109.193 220.76 110.713 220.983 112.634C220.983 112.634 220.983 112.724 221.028 112.634L220.939 112.724Z" fill="#0D1924"/>
<path d="M187.686 112.366C187.596 111.517 187.06 110.891 186.345 110.4C185.585 109.908 184.78 109.506 183.842 109.595C181.875 109.819 180.713 111.562 180.311 113.305C179.506 116.881 180.981 121.216 184.423 122.87C185.317 123.317 186.345 123.54 187.328 123.54C188.311 123.54 189.474 123.317 190.233 122.691C190.367 122.557 190.457 121.797 190.144 121.842C189.384 121.976 188.669 122.244 187.909 122.244C187.149 122.244 186.389 122.155 185.674 121.931C184.155 121.44 182.859 120.546 182.009 119.205C180.445 116.791 179.819 112.188 183.037 110.802C184.691 110.087 186.568 111.16 187.507 112.545C187.596 112.679 187.686 112.411 187.686 112.366Z" fill="#0D1924"/>
<path d="M196.221 141.151C196.221 141.151 195.103 142.134 194.299 143.654C193.36 145.531 191.259 152.325 189.114 161.711C190.768 160.906 192.69 160.951 194.478 160.504C196.131 160.057 197.74 159.118 199.439 159.252C199.618 159.252 199.796 159.252 199.975 159.387C200.154 159.476 200.333 159.655 200.467 159.789C202.612 162.068 204.936 164.169 207.261 166.27C205.786 161.353 203.238 156.75 199.841 152.95C199.439 152.503 199.081 152.101 198.858 151.565C198.545 150.76 198.634 150.045 198.679 149.822C198.813 148.704 198.679 145.799 198.187 139.944C197.696 140.167 196.981 140.525 196.265 141.151H196.221Z" fill="#E22738"/>
<path d="M196.535 144.369C196.311 145.084 196.177 145.844 196.088 146.603C195.596 149.822 195.149 153.04 194.657 156.258C195.372 155.855 196.088 155.543 196.892 155.274C197.294 155.14 197.741 155.006 198.144 155.14C198.456 155.23 198.68 155.453 198.948 155.632C201.496 157.777 204.088 159.968 205.742 162.873C204.49 158.761 201.764 155.274 199.037 151.922C198.903 151.743 198.725 151.565 198.68 151.341C198.635 151.118 198.635 150.894 198.68 150.671C198.814 148.525 198.814 146.335 198.591 144.145C198.546 143.609 198.501 143.072 198.412 142.536C198.367 142.089 198.412 141.687 197.965 141.91C197.294 142.223 196.758 143.698 196.579 144.324L196.535 144.369Z" fill="#BC1D2B"/>
<path d="M216.334 139.408C216.334 139.408 217.541 140.436 218.658 141.732C219.463 142.67 223.128 150.269 227.016 161.175C221.34 157.063 218.345 157.867 217.273 158.314C216.2 158.761 215.664 159.476 212.267 163.186C210.524 165.108 209.049 166.627 208.11 167.655C208.289 164.795 208.87 162.56 209.362 161.085C210.3 158.225 211.641 155.766 213.652 152.191C214.144 151.341 214.546 150.626 214.814 150.179C214.636 146.246 214.412 142.313 214.233 138.38C214.77 138.558 215.574 138.827 216.379 139.408H216.334Z" fill="#E22738"/>
<path d="M216.423 142.76C216.781 143.475 216.96 144.235 217.183 144.994C218.077 148.257 218.971 151.52 219.91 154.783C219.105 154.47 218.301 154.202 217.496 154.023C217.049 153.934 216.602 153.844 216.2 154.023C215.887 154.157 215.664 154.381 215.44 154.649C213.071 157.196 210.658 159.789 209.317 163.007C210.077 158.582 212.49 154.649 214.859 150.85C214.993 150.626 215.127 150.447 215.172 150.179C215.172 149.956 215.172 149.732 215.127 149.509C214.68 147.319 214.412 145.039 214.367 142.804C214.367 142.223 214.367 141.687 214.367 141.106C214.367 140.614 214.233 140.257 214.725 140.391C215.485 140.614 216.2 142.089 216.513 142.715L216.423 142.76Z" fill="#BC1D2B"/>
<path d="M196.892 133.642C196.802 134.357 197.026 135.072 197.16 135.787C197.294 136.547 197.428 137.307 197.562 138.066C197.786 139.586 198.009 141.151 198.143 142.67C198.277 144.19 198.367 145.709 198.411 147.229C198.411 148.034 198.411 148.794 198.411 149.598C198.411 150.224 198.322 151.028 198.545 151.609C198.858 151.162 198.814 150.358 198.858 149.822C198.903 149.017 198.948 148.212 198.948 147.408C198.948 145.799 198.903 144.19 198.769 142.581C198.635 140.972 198.411 139.363 198.143 137.798C198.009 137.038 197.83 136.279 197.652 135.474C197.517 134.893 197.473 133.954 196.981 133.508C196.892 133.418 196.847 133.552 196.847 133.642H196.892Z" fill="#0D1924"/>
<path d="M207.484 145.128C210.255 144.637 212.758 141.195 212.982 136.86C212.445 137.53 210.657 139.497 207.752 139.944C204.4 140.48 200.869 138.692 198.813 135.429C198.902 141.866 203.953 145.754 207.484 145.128Z" fill="#0D1924"/>
<path d="M215.127 133.82C214.77 133.642 214.099 137.664 214.055 138.022C213.831 139.676 213.742 141.329 213.742 142.983C213.742 144.458 213.876 145.933 214.055 147.408C214.189 148.57 214.278 149.822 214.859 150.85C214.904 149.553 214.68 148.257 214.546 146.961C214.412 145.441 214.412 143.922 214.412 142.402C214.412 140.748 214.546 139.095 214.77 137.441C214.859 136.681 214.993 135.876 215.127 135.117C215.127 134.893 215.395 133.955 215.127 133.82Z" fill="#0D1924"/>
<path d="M207.619 168.773C207.842 168.594 208.066 168.46 208.289 168.281C208.602 168.013 208.87 167.655 209.138 167.342C209.63 166.761 210.166 166.136 210.658 165.554C211.731 164.303 212.803 163.096 213.965 161.934C214.502 161.353 215.083 160.817 215.619 160.28C216.156 159.744 216.781 158.895 217.63 158.895C218.435 158.895 219.24 159.118 219.999 159.297C220.759 159.476 221.608 159.655 222.368 159.878C224.156 160.414 225.855 161.085 227.508 161.934C228 162.158 227.866 160.951 227.776 160.772C226.346 157.733 224.782 154.783 223.486 151.699C222.279 148.794 221.608 145.709 220.089 142.938C219.731 142.268 219.329 141.553 218.793 140.972C218.346 140.48 217.72 140.033 217.139 139.676C217.094 139.676 217.094 139.81 217.139 139.854C218.39 141.285 219.418 142.983 220.223 144.726C221.072 146.559 221.564 148.525 222.234 150.447C222.905 152.369 223.709 154.157 224.558 155.99C225.497 157.956 226.436 159.878 227.374 161.845L227.642 160.683C224.603 159.342 221.385 158.314 218.122 157.867C217.273 157.733 216.781 158.09 216.2 158.627C215.619 159.163 215.038 159.744 214.457 160.325C213.25 161.532 212.088 162.783 210.971 164.035C210.345 164.75 209.764 165.465 209.183 166.225C208.87 166.627 208.602 166.985 208.334 167.387C208.021 167.789 207.842 168.281 207.619 168.728C207.619 168.728 207.619 168.907 207.619 168.862V168.773Z" fill="#0D1924"/>
<path d="M208.2 168.46C208.334 167.7 208.513 166.94 208.602 166.18C208.692 165.421 208.826 164.571 209.005 163.767C209.317 162.247 209.764 160.728 210.345 159.253C210.926 157.778 211.552 156.392 212.312 155.051C213.117 153.621 214.055 152.28 215.039 150.984C215.217 150.76 215.038 149.777 214.77 150.135C212.58 152.593 210.971 155.677 209.854 158.761C209.273 160.325 208.826 161.89 208.513 163.499C208.334 164.303 208.2 165.108 208.111 165.912C208.021 166.762 208.066 167.566 208.111 168.46C208.111 168.549 208.2 168.639 208.245 168.46H208.2Z" fill="#0D1924"/>
<path d="M208.603 102.623C207.038 103.785 207.038 106.779 207.977 107.316C208.603 107.673 209.095 106.556 210.659 106.601C211.732 106.601 212.089 107.137 213.385 107.048C214.1 107.048 214.682 107.003 214.86 106.645C215.441 105.662 212.938 102.131 210.167 102.131C209.944 102.131 209.229 102.131 208.558 102.623H208.603Z" fill="#E1E4E8"/>
<path d="M209.719 100.924C209.272 101.192 209.004 101.863 209.138 102.31C209.317 102.801 209.942 102.846 210.97 103.338C211.641 103.651 212.043 103.963 212.937 104.634C214.993 106.198 215.708 107.852 215.976 107.718C216.2 107.584 215.797 106.377 215.574 105.841C215.261 105.126 214.725 103.785 213.384 102.578C213.026 102.265 210.836 100.298 209.719 100.924Z" fill="#0D1924"/>
<path d="M196.445 107.986C197.428 108.031 198.412 108.523 198.948 109.327C199.35 109.953 199.484 110.668 199.529 111.383C199.663 113.126 199.44 114.87 199.305 116.568C199.171 118.266 199.127 120.099 199.663 121.753C200.199 123.406 201.361 124.926 203.015 125.507C203.864 125.82 204.803 125.82 205.742 125.686C203.105 124.122 201.54 120.903 201.942 117.864C202.077 116.836 202.434 115.853 202.658 114.87C203.06 113.26 203.283 111.607 203.328 109.953C203.328 109.104 203.328 108.255 203.105 107.405C202.613 105.349 201.183 103.517 199.305 102.578C199.171 102.533 199.037 102.444 198.903 102.489C198.769 102.489 198.68 102.623 198.546 102.712C197.16 104.098 195.774 105.528 194.523 107.048C194.076 107.584 193.584 108.21 193.584 108.88C194.344 108.21 195.372 107.897 196.356 107.942L196.445 107.986Z" fill="#E1E4E8"/>
<path d="M195.998 114.288C195.998 114.244 195.909 114.288 195.909 114.333C195.909 114.557 195.909 114.78 195.998 114.959C196.087 115.272 196.221 115.585 196.356 115.942C196.445 116.166 196.534 116.434 196.713 116.613C196.847 116.747 197.026 116.836 197.205 116.791C197.428 116.702 197.473 116.389 197.428 116.166C197.384 115.361 197.16 114.512 196.534 114.02C196.4 113.886 196.132 113.797 195.998 113.931C195.953 113.976 195.909 114.065 195.909 114.154C195.864 114.467 195.909 114.78 195.998 115.093" fill="#0D1924"/>
<path d="M196.668 102.489C196.043 102.98 195.462 103.472 194.746 104.366C193.003 106.645 192.959 108.657 193.137 109.104C193.137 109.193 193.271 109.417 193.406 109.417C193.495 109.417 193.584 109.327 193.629 109.282C194.076 108.746 195.73 106.243 196.713 105.26C197.965 104.008 199.35 104.008 199.708 102.846C199.752 102.667 199.886 102.22 199.663 101.908C199.44 101.55 198.903 101.55 198.724 101.55C198.233 101.55 197.696 101.684 196.668 102.489Z" fill="#0D1924"/>
<path d="M205.877 125.284C205.608 125.06 205.295 124.971 205.027 124.747C204.625 124.479 204.312 124.121 203.955 123.809C203.374 123.227 202.927 122.557 202.658 121.797C202.346 120.948 202.167 120.099 202.211 119.16C202.256 118.222 202.39 117.328 202.569 116.434C202.971 114.512 203.374 112.59 203.463 110.623C203.552 108.925 203.418 107.271 202.703 105.707C202.077 104.321 200.826 102.891 199.396 102.354C200.871 103.204 201.854 104.411 202.48 106.02C203.195 107.763 203.284 109.819 202.971 111.696C202.658 113.573 201.899 115.316 201.541 117.194C201.228 118.892 201.094 121.037 202.033 122.602C202.435 123.272 203.016 123.898 203.642 124.39C203.999 124.658 204.312 124.837 204.714 124.971C205.117 125.105 205.474 125.284 205.877 125.239V125.284Z" fill="#0D1924"/>
<path d="M187.193 118.624C187.104 118.668 185.763 119.473 184.333 118.758C183.349 118.266 182.724 117.283 182.679 116.166C183.484 115.227 184.824 115.003 185.942 115.584C187.015 116.166 187.596 117.462 187.238 118.668L187.193 118.624Z" fill="#E1E4E8"/>
<path d="M226.302 113.171C226.391 113.663 226.436 114.646 225.944 115.719C224.872 117.998 222.19 118.356 221.967 118.4C221.967 118.177 221.698 115.942 223.352 114.378C224.514 113.305 225.855 113.216 226.257 113.216L226.302 113.171Z" fill="#E1E4E8"/>
<path d="M222.055 117.641C222.189 116.344 222.859 115.138 223.887 114.378C224.379 114.02 224.915 113.752 225.452 113.573C225.675 113.529 225.854 113.394 226.033 113.305C226.167 113.216 226.256 113.171 226.39 113.082C226.435 113.082 226.39 112.903 226.39 112.903C226.122 112.813 225.899 112.724 225.63 112.769C225.183 112.769 224.736 113.037 224.379 113.216C223.262 113.841 222.457 114.869 222.055 116.076C221.876 116.568 221.831 117.06 221.787 117.596C221.787 117.819 222.01 117.953 222.055 117.641Z" fill="#0D1924"/>
<path d="M182.544 116.389C182.857 116.032 183.26 115.763 183.662 115.54C184.198 115.272 184.779 115.316 185.316 115.54C185.852 115.763 186.254 116.255 186.567 116.747C186.925 117.328 187.059 117.998 187.327 118.624H187.372C187.819 116.657 185.539 113.573 183.438 114.914C182.991 115.182 182.678 115.629 182.455 116.076C182.41 116.166 182.455 116.568 182.589 116.389H182.544Z" fill="#0D1924"/>
<path d="M204.669 163.32C204.445 171.723 204.222 178.516 204.043 182.986C203.73 192.372 203.596 195.054 203.685 199.3C203.82 207.211 204.535 213.558 205.071 217.67C200.959 215.927 195.059 212.709 190.679 206.541C188.042 202.831 187.059 199.702 184.287 190.718C183.125 186.875 180.846 179.544 177.583 169.13C178.611 178.338 179.103 185.802 179.326 190.763C179.863 202.429 180.622 207.211 182.187 215.346C183.215 220.575 186.254 225.581 190.902 228.352C193.674 230.006 196.847 230.9 199.976 231.615C206.323 233.045 212.982 233.939 219.329 232.509C221.653 231.973 223.888 231.168 226.078 230.319C228.849 229.246 231.62 228.174 234.258 226.877C236.537 225.76 238.951 224.24 239.666 221.782C239.889 220.933 239.934 220.039 239.934 219.145C240.068 212.843 240.157 206.541 239.353 200.328C238.816 208.284 234.392 215.838 227.732 220.173C226.525 220.933 225.586 221.469 224.648 221.782C219.374 223.57 212.446 222.318 210.166 218.43C209.183 216.776 209.451 215.301 209.585 212.709C210.032 204.842 208.468 205.87 208.066 193.937C207.842 186.74 208.423 186.472 208.2 177.891C208.066 173.153 207.798 169.264 207.574 166.672C206.591 165.555 205.607 164.437 204.579 163.32H204.669Z" fill="#E1E4E8"/>
<path d="M212.222 168.773C211.954 176.237 211.999 183.746 212.312 191.21C212.401 193.087 212.312 194.92 212.401 196.797C212.491 198.674 212.535 200.507 212.625 202.384C212.804 206.094 213.027 209.803 213.295 213.513C213.429 215.569 213.697 217.625 213.876 219.726C214.055 221.827 214.189 223.927 214.502 225.983C214.502 226.028 214.547 225.983 214.547 225.983C214.457 224.196 214.323 222.363 214.144 220.575C213.966 218.653 213.876 216.776 213.787 214.854C213.608 211.144 213.295 207.435 213.072 203.725C212.848 200.015 212.893 200.015 212.804 198.138C212.714 196.261 212.535 194.428 212.491 192.551C212.357 188.841 212.357 185.087 212.312 181.377C212.267 177.175 212.267 172.974 212.222 168.773C212.222 168.683 212.133 168.683 212.133 168.773H212.222Z" fill="#0D1924"/>
<path d="M198.68 151.386C200.021 153.487 201.63 155.364 203.016 157.42C204.401 159.476 205.563 161.577 206.413 163.856C207.307 166.225 207.843 168.728 207.977 171.276C208.111 173.823 207.977 176.639 207.753 179.276C207.575 182.003 207.396 184.774 207.396 187.5C207.396 190.316 207.575 193.087 207.798 195.858C208.245 201.356 208.916 206.854 209.363 212.396C209.631 215.48 209.81 218.564 209.944 221.693C210.078 224.777 210.078 227.905 210.435 230.989C210.435 231.034 210.48 231.034 210.48 230.989C210.748 228.263 210.659 225.447 210.525 222.676C210.391 219.905 210.256 217.044 210.078 214.184C209.72 208.507 209.094 202.876 208.603 197.244C208.156 191.612 208.022 186.025 208.379 180.394C208.737 175.075 209.094 169.577 207.396 164.437C206.547 161.889 205.295 159.521 203.82 157.33C203.105 156.213 202.301 155.14 201.451 154.112C200.602 153.084 199.798 152.012 198.725 151.118C198.636 151.028 198.591 151.297 198.636 151.341L198.68 151.386Z" fill="#0D1924"/>
<path d="M138.519 219.19C139.279 219.815 139.994 220.441 140.53 221.246C140.977 221.872 141.245 222.587 141.558 223.302C142.273 225 142.988 226.654 143.301 228.487C146.251 225.626 149.737 223.391 153.134 221.112C152.24 219.279 151.749 217.268 150.676 215.525C149.737 214.005 148.352 212.843 146.832 211.86C145.313 210.921 143.659 210.206 142.05 209.491C141.916 209.446 141.737 209.357 141.603 209.401C141.379 209.401 141.201 209.625 141.066 209.804C139.86 211.234 138.564 212.575 137.223 213.871C136.507 214.541 135.792 215.167 135.077 215.793C134.764 216.061 134.541 216.15 134.854 216.508C135.122 216.776 135.614 217 135.971 217.223C136.865 217.849 137.759 218.475 138.608 219.19H138.519Z" fill="#E22738"/>
<path d="M149.961 214.184C150.542 215.078 151.168 216.24 151.749 217.536C152.33 218.921 152.688 220.173 152.956 221.29C151.257 222.542 149.559 223.793 147.86 225.045C146.162 226.296 144.508 227.548 142.855 228.799C142.765 227.861 142.631 226.698 142.229 225.402C141.782 223.883 141.156 222.631 140.62 221.737C142.229 220.62 143.972 219.324 145.715 217.893C147.235 216.642 148.665 215.39 149.961 214.184Z" fill="#BC1D2B"/>
<path d="M134.14 216.418C134.274 216.508 134.408 216.642 134.542 216.776C134.721 216.91 134.9 216.999 135.079 217.134C135.481 217.357 135.928 217.581 136.285 217.849C137.403 218.564 138.341 219.413 139.191 220.396C140.8 222.274 141.828 224.508 142.588 226.833C142.498 224.24 141.291 221.782 139.593 219.905C138.744 218.966 137.626 218.117 136.598 217.446C136.151 217.178 135.704 216.91 135.213 216.687C134.989 216.597 134.81 216.508 134.587 216.463C134.408 216.463 134.229 216.463 134.051 216.463V216.508L134.14 216.418Z" fill="#0D1924"/>
<path d="M156.308 207.792C158.856 204.976 163.326 199.747 167.929 192.104C171.281 186.562 173.963 180.662 175.572 174.36C175.572 174.851 175.796 175.298 176.109 175.7C176.6 176.371 177.002 176.818 177.092 176.907C177.673 177.444 178.388 180.259 178.88 189.556C176.6 195.009 172.667 202.563 165.963 210.072C161.493 215.078 156.979 218.743 153.135 221.38C152.062 219.011 150.989 216.597 149.917 214.228C151.615 212.664 153.85 210.519 156.264 207.837L156.308 207.792Z" fill="#E1E4E8"/>
<path d="M140.62 210.206C140.933 210.385 141.335 210.251 141.692 210.206C142.05 210.161 142.408 210.206 142.765 210.251C143.57 210.385 144.374 210.653 145.089 211.01C146.386 211.681 147.592 212.575 148.665 213.603C149.738 214.631 150.542 215.748 151.302 217C152.062 218.251 152.509 219.503 153.045 220.799C152.643 218.519 151.526 216.329 150.14 214.497C148.754 212.664 146.788 210.966 144.598 210.072C143.927 209.804 143.212 209.625 142.497 209.58C141.871 209.58 140.977 209.58 140.62 210.116C140.62 210.116 140.62 210.161 140.62 210.206Z" fill="#0D1924"/>
<path d="M134.317 216.866C135.211 216.329 135.971 215.614 136.731 214.899C137.49 214.184 138.25 213.469 138.965 212.709C140.261 211.368 141.558 209.982 142.809 208.597C144.508 206.675 146.117 204.708 147.681 202.697C150.854 198.63 153.894 194.428 156.799 190.137C160.509 184.64 164.04 178.963 167.079 173.064C168.509 170.292 169.85 167.477 170.968 164.527C171.817 162.292 172.353 159.968 173.336 157.822C174.633 155.006 176.644 152.459 179.37 150.939C180.935 150.045 182.633 149.375 184.242 148.615C186.03 147.81 187.818 147.006 189.606 146.246C190.276 145.933 190.991 145.665 191.707 145.441V145.352C188.176 146.38 184.689 147.453 181.337 148.883C179.996 149.464 178.655 150.09 177.493 150.984C176.197 151.967 175.08 153.263 174.186 154.649C173.426 155.811 172.8 157.062 172.308 158.359C171.951 159.297 171.683 160.28 171.325 161.219C170.342 164.035 169.135 166.761 167.839 169.443C164.934 175.432 161.447 181.109 157.827 186.696C154.788 191.389 151.614 195.948 148.262 200.462C144.731 205.245 140.798 209.67 136.596 213.916C135.792 214.765 134.943 215.525 134.228 216.463C134.138 216.553 134.138 217.089 134.362 216.955L134.317 216.866Z" fill="#0D1924"/>
<path d="M174.857 165.823C174.679 167.164 174.41 168.46 174.41 169.801C174.41 171.142 174.544 172.393 174.902 173.6C175.17 174.673 175.617 175.701 176.243 176.639C176.556 177.131 177.718 178.919 178.433 178.338C178.433 178.338 178.433 178.248 178.433 178.204C178.165 177.22 177.226 176.595 176.69 175.745C176.154 174.896 175.707 173.957 175.438 172.974C175.126 171.857 174.991 170.739 174.947 169.622C174.857 168.37 174.813 167.074 174.947 165.778C174.947 165.733 174.902 165.644 174.902 165.778L174.857 165.823Z" fill="#0D1924"/>
<path d="M275.914 222.453C274.842 224.419 274.395 226.296 274.171 227.637C272.786 226.386 271.221 225.045 269.434 223.749C267.735 222.497 266.081 221.38 264.517 220.486C264.651 219.726 264.964 218.698 265.5 217.491C265.947 216.508 267.422 213.379 270.953 211.323C273.009 210.116 274.976 209.714 276.317 209.58C277.523 210.832 278.82 212.083 280.161 213.335C281.099 214.228 282.038 215.078 282.976 215.927C281.501 216.597 278.06 218.475 275.87 222.497L275.914 222.453Z" fill="#E22738"/>
<path d="M267.913 213.871C267.243 214.675 266.528 215.748 265.857 217.044C265.232 218.296 264.829 219.458 264.561 220.396C266.215 221.603 267.913 222.855 269.657 224.151C271.266 225.402 272.83 226.609 274.35 227.816C274.573 226.833 274.841 225.715 275.288 224.508C275.78 223.078 276.361 221.871 276.897 220.843C275.243 219.637 273.545 218.385 271.802 217C270.461 215.927 269.165 214.899 267.958 213.826L267.913 213.871Z" fill="#BC1D2B"/>
<path d="M282.797 215.972C283.378 216.553 284.317 216.732 285.077 216.955C285.926 217.179 286.775 217.313 287.624 217.402C288.429 217.491 289.278 217.626 289.948 218.072C290.708 218.564 291.11 219.369 291.513 220.128C292.362 221.693 293.301 223.078 294.507 224.375C294.776 224.687 295.044 224.956 295.312 225.269C295.446 225.447 295.58 225.626 295.714 225.76C295.938 226.073 295.669 226.207 295.401 226.297C294.597 226.52 293.658 226.297 292.898 225.984C291.334 225.358 290.172 224.151 289.367 222.721C289.323 222.631 289.278 222.81 289.278 222.855C289.725 224.419 290.887 225.76 292.317 226.52C293.301 227.012 296.563 228.04 296.295 225.939C296.206 225.045 295.312 224.285 294.731 223.659C294.06 222.9 293.435 222.185 292.898 221.335C292.317 220.441 291.826 219.458 291.245 218.564C290.753 217.804 290.127 217.179 289.233 216.866C288.25 216.553 287.222 216.553 286.239 216.419C285.658 216.329 285.077 216.195 284.54 216.061C284.004 215.927 283.378 215.569 282.797 215.614C282.663 215.614 282.708 215.972 282.797 216.016V215.972Z" fill="#0D1924"/>
<path d="M261.521 208.329C263.667 210.34 265.767 212.172 267.913 213.871C267.242 214.675 266.527 215.748 265.857 217.044C265.231 218.296 264.829 219.458 264.561 220.397C263.086 219.413 261.164 218.028 258.929 216.24C252.001 210.608 247.666 205.111 246.191 203.099C243.554 199.479 240.201 194.294 237.251 187.411C236.67 179.5 236.134 172.751 236.134 172.751C236.179 172.751 236.581 172.393 237.788 170.516C241.632 181.69 248.559 195.948 261.477 208.284L261.521 208.329Z" fill="#E1E4E8"/>
<path d="M289.279 234.252C290.083 234.923 290.932 235.459 291.737 236.174C292.318 236.711 292.899 237.247 293.435 237.783C294.15 238.543 294.821 239.392 295.402 240.286C295.625 240.689 295.894 241.091 296.117 241.493C296.251 241.717 296.385 241.985 296.475 242.208C296.564 242.387 296.609 242.655 296.698 242.834C296.832 243.013 296.698 242.521 296.743 242.61C296.743 242.61 296.653 242.61 296.609 242.61C296.475 242.521 296.296 242.521 296.162 242.432C295.625 242.163 295.178 241.806 294.687 241.493C292.094 239.705 289.547 238.007 286.641 236.889C284.407 235.995 282.261 234.878 280.473 233.269C279.669 232.554 278.954 231.705 278.239 230.9C277.121 229.693 275.959 228.531 274.752 227.459C272.339 225.313 269.657 223.525 267.02 221.693C262.148 218.296 257.5 214.631 253.298 210.429C250.751 207.882 248.337 205.289 246.192 202.384C244.359 199.881 242.661 197.244 241.186 194.518C240.739 193.668 240.292 192.819 239.89 191.97C239.89 191.97 239.89 191.97 239.89 192.015C240.649 193.937 241.499 195.814 242.437 197.646C243.197 199.166 244.136 200.596 245.03 202.027C246.907 204.976 249.097 207.792 251.51 210.295C255.801 214.81 260.718 218.519 265.768 222.095C268.45 224.017 271.221 225.76 273.769 227.905C275.155 229.068 276.495 230.319 277.702 231.66C278.462 232.509 279.222 233.358 280.026 234.163C281.859 235.906 284.094 237.158 286.463 238.051C287.714 238.543 288.921 239.035 290.083 239.705C291.737 240.644 293.256 241.717 294.821 242.789C295.223 243.057 296.564 244.22 297.056 243.549C297.637 242.745 296.832 241.359 296.43 240.644C295.223 238.588 293.659 236.755 291.737 235.414C290.977 234.878 290.217 234.386 289.323 234.029C289.279 234.029 289.323 234.163 289.323 234.163L289.279 234.252Z" fill="#0D1924"/>
<path d="M283.289 215.703C283.11 215.703 282.932 215.703 282.753 215.703C282.529 215.703 282.351 215.793 282.172 215.882C281.68 216.106 281.233 216.329 280.786 216.597C279.669 217.268 278.551 218.117 277.658 219.056C275.87 220.933 274.663 223.391 274.573 225.984C275.378 223.704 276.406 221.469 278.06 219.592C278.954 218.609 279.848 217.759 280.965 217.089C281.367 216.821 281.77 216.597 282.216 216.374C282.395 216.285 282.574 216.15 282.798 216.016C282.932 215.927 283.11 215.748 283.244 215.659C283.244 215.659 283.244 215.569 283.244 215.614L283.289 215.703Z" fill="#0D1924"/>
<path d="M289.503 222.899C289.234 222.587 288.832 222.81 288.43 222.899C287.983 222.989 287.581 223.078 287.134 223.123C286.24 223.212 285.346 223.212 284.452 223.078C283.558 222.944 282.664 222.676 281.86 222.318C281.055 221.961 280.251 221.648 279.535 221.112C279.535 221.112 279.535 221.112 279.535 221.156C280.161 221.871 280.876 222.542 281.726 222.944C282.575 223.346 283.424 223.615 284.318 223.749C285.212 223.883 286.15 223.927 287.089 223.793C287.581 223.749 288.028 223.659 288.519 223.48C289.011 223.302 289.324 223.257 289.503 222.81V222.899Z" fill="#0D1924"/>
<path d="M276.407 209.267C275.781 209.088 274.932 209.356 274.351 209.491C273.278 209.714 272.295 210.116 271.312 210.608C269.032 211.815 267.11 213.737 265.948 216.061C265.501 216.955 265.233 217.804 265.054 218.787C265.054 218.787 265.054 218.966 265.143 218.877C265.188 218.698 265.278 218.564 265.322 218.385C265.412 218.206 265.546 218.072 265.635 217.849C265.903 217.312 266.127 216.776 266.44 216.24C267.289 214.809 268.362 213.558 269.702 212.53C270.909 211.591 272.295 210.876 273.725 210.384C274.261 210.206 274.842 210.072 275.379 209.937C275.736 209.848 276.139 209.848 276.452 209.714C276.586 209.669 276.586 209.267 276.452 209.222L276.407 209.267Z" fill="#0D1924"/>
<path d="M283.468 215.927C282.306 214.541 280.92 213.335 279.624 212.083C278.328 210.832 277.166 209.625 275.959 208.329C273.545 205.781 271.266 203.099 269.076 200.328C264.74 194.741 260.852 188.841 257.276 182.763C253.7 176.684 250.527 170.337 247.622 163.856C246.996 162.426 246.281 161.04 245.7 159.565C245.7 159.476 245.7 159.655 245.7 159.521C245.7 159.431 245.655 159.387 245.61 159.297C245.566 159.118 245.476 158.94 245.432 158.761C245.298 158.314 245.119 157.912 244.94 157.465C244.046 155.051 242.705 152.772 240.828 151.028C240.023 150.313 239.13 149.598 238.146 149.151C236.939 148.615 235.643 148.213 234.392 147.81C231.442 146.827 228.447 146.067 225.408 145.397C224.469 145.173 223.531 144.994 222.547 144.771V144.86C225.989 145.844 229.296 147.14 232.649 148.302C234.794 149.017 237.118 149.688 239.04 150.939C241.409 152.503 243.018 154.917 244.136 157.509C244.493 158.359 244.761 159.163 245.029 160.057C245.387 161.219 245.923 162.337 246.415 163.454C249.186 169.89 252.315 176.192 255.801 182.316C259.243 188.394 263.087 194.249 267.377 199.747C271.624 205.2 276.272 210.429 281.457 215.033C282.082 215.569 282.619 216.061 283.334 216.463C283.513 216.597 283.513 216.016 283.423 215.927H283.468Z" fill="#0D1924"/>
<path d="M236.136 173.555C236.539 174.002 237.477 172.125 237.611 171.901C238.058 170.963 238.416 169.979 238.595 168.996C238.863 167.521 238.729 166.091 238.416 164.661C238.416 164.571 238.371 164.661 238.371 164.661C238.55 166.18 238.371 167.7 237.969 169.175C237.701 170.158 237.299 171.052 236.807 171.946C236.628 172.304 236.36 172.616 236.226 172.974C236.226 173.108 236.047 173.376 236.181 173.51L236.136 173.555Z" fill="#0D1924"/>
<path d="M177.181 161.085C177.002 167.521 177.449 174.002 177.851 180.438C178.254 186.875 178.835 193.266 179.595 199.613C179.997 202.786 180.444 205.96 180.891 209.133C181.338 212.307 181.74 215.346 182.41 218.43C182.723 219.905 183.126 221.38 183.885 222.721C184.556 223.927 185.45 224.955 186.433 225.894C188.444 227.771 190.858 229.291 193.316 230.453C195.775 231.615 198.501 232.509 201.227 233.135C203.954 233.716 206.993 233.939 209.898 233.939C216.111 233.939 222.413 232.956 228.447 231.392C231.129 230.721 233.766 229.783 236.001 228.084C238.057 226.52 239.621 224.419 240.336 221.961C241.186 218.966 240.873 215.703 240.649 212.619C240.426 209.446 240.113 206.317 239.711 203.144C238.951 196.842 237.967 190.54 237.386 184.193C237.074 181.019 236.716 177.801 236.493 174.628C236.269 171.454 236.09 168.147 235.956 164.929C235.867 163.364 235.733 161.845 235.643 160.28C235.643 159.878 235.33 159.878 235.33 160.28C235.33 163.454 235.42 166.627 235.554 169.801C235.688 172.974 235.733 176.013 235.911 179.097C236.269 185.355 237.074 191.568 237.923 197.825C238.772 203.948 239.577 210.072 239.845 216.284C239.889 217.759 239.934 219.279 239.621 220.709C239.353 221.916 238.817 223.078 238.057 224.062C236.537 226.118 234.347 227.503 231.978 228.486C229.207 229.604 226.212 230.23 223.263 230.811C220.313 231.392 217.229 231.883 214.189 232.062C208.513 232.42 202.658 231.749 197.249 229.917C194.657 229.023 192.154 227.861 189.875 226.341C187.729 224.911 185.629 223.212 184.422 220.888C183.796 219.637 183.483 218.251 183.215 216.866C182.947 215.346 182.679 213.781 182.455 212.262C181.963 209.222 181.517 206.138 181.114 203.054C179.46 190.674 178.209 178.248 177.628 165.733C177.539 164.169 177.404 162.649 177.27 161.085C177.27 160.861 177.092 160.861 177.092 161.085H177.181Z" fill="#0D1924"/>
<path d="M229.922 268.221C231.844 267.282 233.408 265.673 234.168 263.751C241.14 262.142 248.068 260.265 254.862 258.12C255.398 257.941 255.935 257.762 256.471 257.762C256.829 257.762 257.186 257.852 257.589 257.896C259.957 258.433 262.192 259.327 264.248 260.533C265.142 261.07 265.991 261.695 266.394 262.589C266.841 263.573 266.662 264.735 266.081 265.629C265.5 266.523 264.65 267.282 263.757 267.908C259.51 270.769 254.102 271.529 248.962 272.467C246.37 272.959 243.822 273.495 241.185 273.808C237.118 274.344 233.05 274.389 228.938 274.389C228.536 274.389 228.134 274.389 227.776 274.21C227.463 274.076 227.285 273.808 227.061 273.585C226.48 272.959 223.262 269.651 224.022 269.115C224.514 268.757 226.033 269.115 226.614 269.026C227.776 268.936 228.894 268.623 229.922 268.132V268.221Z" fill="#0D1924"/>
<path d="M227.732 274.434C227.821 275.104 227.91 275.73 228.089 276.401C228.179 276.847 228.357 277.205 228.804 277.339C229.072 277.429 229.43 277.384 229.698 277.384C230.145 277.384 230.592 277.384 231.039 277.384C231.888 277.384 232.738 277.384 233.587 277.384C237.028 277.339 240.425 277.16 243.867 276.713C247.13 276.266 250.392 275.596 253.566 274.657C256.471 273.808 259.6 272.87 262.147 271.126C263.399 270.277 264.472 269.204 265.187 267.864C265.902 266.523 266.438 265.048 266.17 263.573C266.17 263.394 266.036 263.394 265.991 263.573C265.857 264.958 265.589 266.21 264.829 267.372C264.069 268.534 263.131 269.517 261.969 270.277C259.555 271.931 256.65 272.825 253.923 273.629C247.889 275.417 241.721 276.222 235.464 276.401C233.676 276.445 231.888 276.445 230.1 276.49C229.564 276.49 228.625 276.713 228.357 276.043C228.134 275.462 228.089 274.836 227.821 274.255C227.776 274.121 227.732 274.345 227.732 274.389V274.434Z" fill="#0D1924"/>
<path d="M218.748 266.791C219.999 267.64 221.34 268.445 222.681 269.115C223.352 269.428 224.067 269.696 224.737 270.009C225.05 270.143 225.318 270.232 225.631 270.322C225.989 270.411 226.346 270.411 226.748 270.411C226.793 270.411 226.748 270.277 226.748 270.277C226.391 270.054 226.033 269.785 225.676 269.607C225.363 269.473 225.05 269.338 224.692 269.204C224.022 268.936 223.352 268.668 222.681 268.4C221.34 267.863 220.044 267.327 218.748 266.746V266.791Z" fill="#0D1924"/>
<path d="M158.231 265.361C158.454 264.288 158.991 262.411 160.6 260.667C163.282 257.718 166.991 257.092 168.287 256.868C170.746 256.466 170.88 257.092 178.97 258.12C182.724 258.611 185.853 258.746 187.507 258.835C190.144 258.969 192.334 259.058 193.943 259.103C193.675 259.282 193.407 259.416 193.138 259.595C192.87 260.176 192.289 261.74 192.96 263.439C193.719 265.361 195.597 266.299 196.938 266.836C198.636 267.506 200.513 267.729 202.39 267.819C201.094 269.875 199.53 271.752 197.742 273.495C197.429 273.763 197.161 274.076 196.759 274.255C196.401 274.434 195.999 274.523 195.597 274.613C190.546 275.641 185.272 274.747 180.132 274.344C170.075 273.585 170.746 273.897 167.841 272.78C162.969 270.903 159.974 267.595 158.32 265.405L158.231 265.361Z" fill="#0D1924"/>
<path d="M196.356 140.346C194.345 142.089 193.406 144.637 192.646 147.095C191.708 150.135 190.993 153.263 190.144 156.303C189.92 157.152 189.652 158.001 189.384 158.806C189.116 159.7 188.758 160.549 188.445 161.443C188.356 161.666 188.266 162.694 188.803 162.56C191.753 161.532 194.837 160.996 197.921 160.459C198.278 160.37 198.68 160.325 199.038 160.236C199.396 160.147 199.708 160.057 200.066 160.281C200.736 160.772 201.318 161.309 201.899 161.845C203.105 162.918 204.267 164.035 205.474 165.108C206.011 165.599 206.547 166.091 207.039 166.627C207.53 167.164 207.843 167.79 208.156 168.46C208.245 168.639 208.335 168.371 208.335 168.326C208.335 166.985 207.351 165.957 206.413 165.063C205.206 163.901 203.91 162.784 202.703 161.666C202.033 161.085 201.362 160.504 200.736 159.834C200.513 159.565 200.289 159.253 199.977 159.074C199.664 158.895 199.261 158.984 198.904 159.074C197.25 159.253 195.596 159.521 193.987 159.834C192.155 160.191 190.322 160.638 188.579 161.264L188.981 162.247C189.518 160.772 189.875 159.208 190.278 157.688C190.68 156.169 191.037 154.649 191.44 153.129C192.155 150.179 192.87 147.185 193.943 144.369C194.524 142.894 195.239 141.508 196.401 140.346V140.257L196.356 140.346Z" fill="#0D1924"/>
<path d="M118.808 228.71C119.836 228.531 120.819 228.129 121.847 227.727C122.07 227.637 122.339 227.548 122.517 227.369C122.696 227.19 122.83 226.922 122.741 226.699C124.618 225.224 126.182 223.346 127.3 221.246C128.149 221.827 129.177 221.961 130.16 222.006C132.395 222.095 134.585 221.737 136.686 220.933C134.675 223.436 134.094 227.056 135.256 230.096C134.138 230.408 133.021 230.766 131.993 231.347C130.965 231.928 130.116 232.777 129.669 233.85C128.373 233.403 127.568 231.883 127.881 230.587C127.255 230.811 126.54 230.677 126.048 230.23C125.557 229.783 125.378 229.068 125.557 228.442C124.395 228.978 123.277 229.693 122.07 230.185C120.864 230.677 119.567 231.034 118.271 230.766C116.975 230.498 115.768 229.693 115.411 228.442C115.813 229.202 118.182 228.889 118.808 228.755V228.71Z" fill="#E1E4E8"/>
<path d="M127.435 235.236C125.423 235.548 123.457 235.951 121.49 236.353C119.702 236.711 117.87 237.336 116.395 238.409C115.68 238.945 115.009 239.571 114.205 239.973C113.892 240.107 113.4 240.42 113.043 240.376C112.462 240.286 113.087 239.079 113.266 238.767C114.249 237.068 115.993 235.995 117.691 235.191C119.836 234.163 122.027 233.224 124.261 232.33C122.027 232.956 119.881 233.671 117.78 234.565C115.859 235.37 113.981 236.576 112.998 238.454C112.685 239.035 112.328 240.018 112.596 240.688C112.953 241.538 114.16 240.867 114.652 240.554C115.501 240.018 116.216 239.303 117.11 238.767C118.049 238.186 119.077 237.783 120.149 237.515C121.311 237.157 122.518 236.889 123.725 236.666C125.021 236.398 126.273 236.04 127.435 235.37V235.28V235.236Z" fill="#0D1924"/>
<path d="M111.343 239.124C111.432 236.085 114.516 234.163 116.93 233.001C118.36 232.33 119.835 231.705 121.176 230.9C122.517 230.096 124.081 229.738 125.199 228.665V228.531C124.483 228.934 123.768 229.336 123.008 229.693C122.249 230.096 121.399 230.319 120.595 230.632C119.031 231.213 117.466 231.839 115.991 232.599C113.444 233.895 111.119 236.04 111.253 239.079C111.253 239.169 111.298 239.169 111.298 239.079L111.343 239.124Z" fill="#0D1924"/>
<path d="M115.231 228.397C115.544 228.531 115.857 228.71 116.215 228.799C116.572 228.889 116.93 228.933 117.332 228.978C118.047 229.068 118.807 229.112 119.567 228.978C120.192 228.889 120.818 228.71 121.355 228.442C121.98 228.129 122.338 227.637 122.74 227.101C122.74 227.101 122.74 227.012 122.74 227.056C122.338 227.414 121.757 227.637 121.265 227.861C120.684 228.129 120.058 228.308 119.433 228.442C118.762 228.576 118.047 228.576 117.332 228.531C117.019 228.531 116.706 228.486 116.349 228.442C115.991 228.442 115.589 228.442 115.231 228.442V228.397Z" fill="#0D1924"/>
<path d="M118.987 231.526C118.227 231.257 117.512 231.436 116.707 231.436C115.903 231.436 115.054 231.302 114.339 230.9C113.489 230.408 113.4 229.559 113.579 228.665C113.713 227.95 113.936 227.19 114.562 226.743C115.188 226.296 116.082 226.296 116.841 226.207C117.646 226.162 118.451 226.117 119.255 225.939C120.685 225.67 122.205 225.134 123.188 224.061C123.188 224.061 123.188 223.927 123.188 223.972C121.937 224.687 120.685 225.089 119.255 225.268C118.495 225.358 117.691 225.447 116.931 225.492C116.305 225.536 115.635 225.581 115.009 225.805C113.847 226.207 113.489 227.458 113.311 228.576C113.132 229.782 113.311 230.989 114.473 231.57C115.143 231.928 115.948 232.062 116.707 232.062C117.557 232.062 118.361 232.062 119.032 231.615C119.032 231.615 119.032 231.57 119.032 231.526H118.987Z" fill="#0D1924"/>
<path d="M134.452 216.284C133.96 216.284 133.469 216.508 133.022 216.642C132.485 216.821 131.949 216.955 131.413 217.044C130.429 217.223 129.446 217.223 128.507 217.447C127.658 217.625 126.943 218.028 126.407 218.743C125.826 219.503 125.379 220.396 124.887 221.201C124.351 222.095 123.77 222.989 123.054 223.749C122.429 224.464 121.624 225.179 121.177 226.073C120.82 226.743 120.954 227.637 121.714 227.861C122.563 228.084 123.546 227.861 124.395 227.548C126.138 226.877 127.524 225.402 128.06 223.615C128.06 223.615 128.06 223.391 127.971 223.48C127.256 224.732 126.273 225.849 124.976 226.52C124.306 226.877 123.501 227.146 122.742 227.19C122.429 227.19 121.714 227.19 121.49 226.922C121.356 226.743 122.071 226.028 122.25 225.849C122.831 225.179 123.457 224.598 123.993 223.927C124.529 223.257 125.021 222.497 125.423 221.693C125.826 220.977 126.183 220.173 126.675 219.547C127.256 218.832 128.06 218.475 128.999 218.34C129.938 218.206 130.832 218.117 131.725 217.938C132.217 217.849 132.709 217.715 133.2 217.536C133.692 217.357 134.184 217.223 134.541 216.865C134.631 216.776 134.675 216.463 134.541 216.419L134.452 216.284Z" fill="#0D1924"/>
<path d="M127.791 223.704C128.104 224.464 129.4 224.553 130.115 224.642C131.054 224.777 131.993 224.732 132.931 224.598C133.825 224.464 134.674 224.196 135.479 223.793C136.373 223.391 137.088 222.676 137.714 221.961V221.916C136.999 222.408 136.194 222.721 135.434 223.078C134.585 223.48 133.691 223.749 132.753 223.883C131.903 224.017 131.009 224.017 130.115 223.927C129.669 223.883 129.222 223.793 128.775 223.659C128.417 223.57 128.015 223.302 127.747 223.659L127.791 223.704Z" fill="#0D1924"/>
<path d="M128.016 234.878C126.406 235.459 124.932 236.621 123.769 237.783C123.01 238.543 122.294 239.392 121.669 240.286C121.088 241.135 120.507 242.029 120.238 243.012C120.149 243.415 120.06 244.04 120.328 244.398C120.551 244.666 120.864 244.577 121.132 244.443C121.669 244.219 122.116 243.862 122.607 243.549C123.322 243.057 124.038 242.566 124.753 242.074C126.228 241.091 127.747 240.152 129.356 239.481C130.384 239.035 131.457 238.677 132.44 238.23C133.692 237.649 134.899 236.934 136.016 236.085C138.027 234.565 139.547 232.509 141.335 230.766C142.676 229.47 144.061 228.263 145.581 227.145C146.877 226.162 148.218 225.268 149.559 224.374C154.61 220.888 159.616 217.223 164.04 212.932C166.722 210.34 169.091 207.435 171.236 204.44C173.248 201.624 174.902 198.54 176.332 195.411C176.734 194.562 177.092 193.713 177.449 192.819C177.449 192.819 177.449 192.73 177.449 192.774C175.974 195.858 174.231 198.808 172.309 201.624C170.298 204.529 168.018 207.166 165.605 209.669C161.403 214.05 156.755 217.893 151.838 221.424C149.335 223.212 146.743 224.821 144.374 226.743C142.005 228.665 139.949 230.855 137.893 233.045C136.24 234.788 134.228 236.219 132.038 237.157C131.055 237.56 130.072 237.917 129.133 238.364C127.569 239.079 126.138 239.973 124.708 240.912C123.546 241.672 122.429 242.655 121.177 243.281C121.043 243.325 120.864 243.37 120.775 243.415H120.641C120.641 243.415 120.641 243.728 120.73 243.638C120.819 243.549 120.909 243.147 120.954 243.012C121.088 242.744 121.222 242.476 121.356 242.253C122.473 240.152 124.038 238.364 125.825 236.8C126.541 236.174 127.345 235.638 128.105 235.057V234.923L128.016 234.878Z" fill="#0D1924"/>
<path d="M158.588 264.511C157.425 265.003 157.56 266.746 157.917 267.729C158.453 269.115 159.571 270.367 160.599 271.35C162.968 273.629 166.096 275.015 169.18 276.132C172.443 277.294 175.751 277.92 179.237 278.054C182.902 278.188 186.522 278.367 190.188 278.412C191.886 278.412 193.763 278.322 195.149 277.294C196.311 276.445 197.16 275.194 197.115 273.719C197.115 273.272 196.758 273.272 196.758 273.719C196.758 275.015 195.819 276.088 194.747 276.713C193.45 277.473 191.931 277.563 190.5 277.563C187.238 277.563 183.93 277.339 180.667 277.25C179.058 277.205 177.449 277.16 175.885 276.937C174.321 276.713 172.801 276.401 171.326 275.954C169.851 275.507 168.421 275.015 167.035 274.389C165.649 273.763 164.219 273.138 162.923 272.244C161.627 271.35 160.509 270.322 159.526 269.16C158.99 268.534 158.453 267.819 158.185 267.014C157.917 266.21 158.185 265.361 158.677 264.69C158.677 264.69 158.677 264.422 158.632 264.467L158.588 264.511Z" fill="#0D1924"/>
<path d="M190.858 260.489C191.618 260.221 192.377 259.997 193.137 259.729C193.852 259.461 194.523 259.193 195.238 258.88C196.668 258.254 198.099 257.628 199.529 256.913C200.959 256.198 202.345 255.527 203.775 254.812C204.088 254.634 204.401 254.499 204.714 254.321C205.071 254.142 205.429 253.963 205.742 253.695C205.92 253.516 206.188 253.114 206.01 252.846C205.563 252.89 205.026 253.293 204.624 253.516C203.998 253.874 203.373 254.187 202.747 254.499C201.451 255.17 200.155 255.84 198.814 256.466C197.473 257.092 196.177 257.718 194.836 258.343C193.495 258.969 192.199 259.774 190.858 260.399V260.489Z" fill="#0D1924"/>
<path d="M198.769 269.785C199.886 269.338 200.959 268.936 202.076 268.4C203.194 267.863 204.266 267.372 205.384 266.88C206.501 266.389 207.574 265.942 208.647 265.45C209.228 265.226 209.764 265.003 210.345 264.735C210.613 264.601 210.881 264.511 211.15 264.377C211.507 264.198 211.686 264.02 211.909 263.751C211.909 263.751 211.954 263.573 211.909 263.528C211.641 263.439 211.507 263.394 211.194 263.528C210.881 263.662 210.613 263.707 210.345 263.841C209.809 264.064 209.272 264.288 208.736 264.511C207.574 265.003 206.456 265.539 205.339 266.12C204.222 266.701 203.149 267.238 202.032 267.774C200.87 268.4 199.842 269.07 198.769 269.83V269.785Z" fill="#0D1924"/>
<defs>
<filter id="filter0_d_264_3439" x="0.129441" y="0.367468" width="417.318" height="417.318" filterUnits="userSpaceOnUse" color-interpolation-filters="sRGB">
<feFlood flood-opacity="0" result="BackgroundImageFix"/>
<feColorMatrix in="SourceAlpha" type="matrix" values="0 0 0 0 0 0 0 0 0 0 0 0 0 0 0 0 0 0 127 0" result="hardAlpha"/>
<feMorphology radius="2.98404" operator="dilate" in="SourceAlpha" result="effect1_dropShadow_264_3439"/>
<feOffset dy="2.23803"/>
<feGaussianBlur stdDeviation="12.9433"/>
<feComposite in2="hardAlpha" operator="out"/>
<feColorMatrix type="matrix" values="0 0 0 0 0.0753443 0 0 0 0 0.109414 0 0 0 0 0.177553 0 0 0 0.04 0"/>
<feBlend mode="normal" in2="BackgroundImageFix" result="effect1_dropShadow_264_3439"/>
<feBlend mode="normal" in="SourceGraphic" in2="effect1_dropShadow_264_3439" result="shape"/>
</filter>
<filter id="filter1_d_264_3439" x="46.3821" y="46.6202" width="324.812" height="324.812" filterUnits="userSpaceOnUse" color-interpolation-filters="sRGB">
<feFlood flood-opacity="0" result="BackgroundImageFix"/>
<feColorMatrix in="SourceAlpha" type="matrix" values="0 0 0 0 0 0 0 0 0 0 0 0 0 0 0 0 0 0 127 0" result="hardAlpha"/>
<feMorphology radius="2.98404" operator="dilate" in="SourceAlpha" result="effect1_dropShadow_264_3439"/>
<feOffset dy="2.23803"/>
<feGaussianBlur stdDeviation="12.9433"/>
<feComposite in2="hardAlpha" operator="out"/>
<feColorMatrix type="matrix" values="0 0 0 0 0.0753443 0 0 0 0 0.109414 0 0 0 0 0.177553 0 0 0 0.04 0"/>
<feBlend mode="normal" in2="BackgroundImageFix" result="effect1_dropShadow_264_3439"/>
<feBlend mode="normal" in="SourceGraphic" in2="effect1_dropShadow_264_3439" result="shape"/>
</filter>
<filter id="filter2_d_264_3439" x="92.6346" y="92.8726" width="232.307" height="232.307" filterUnits="userSpaceOnUse" color-interpolation-filters="sRGB">
<feFlood flood-opacity="0" result="BackgroundImageFix"/>
<feColorMatrix in="SourceAlpha" type="matrix" values="0 0 0 0 0 0 0 0 0 0 0 0 0 0 0 0 0 0 127 0" result="hardAlpha"/>
<feMorphology radius="2.98404" operator="dilate" in="SourceAlpha" result="effect1_dropShadow_264_3439"/>
<feOffset dy="2.23803"/>
<feGaussianBlur stdDeviation="12.9433"/>
<feComposite in2="hardAlpha" operator="out"/>
<feColorMatrix type="matrix" values="0 0 0 0 0.0753443 0 0 0 0 0.109414 0 0 0 0 0.177553 0 0 0 0.04 0"/>
<feBlend mode="normal" in2="BackgroundImageFix" result="effect1_dropShadow_264_3439"/>
<feBlend mode="normal" in="SourceGraphic" in2="effect1_dropShadow_264_3439" result="shape"/>
</filter>
</defs>
</svg>
