<svg width="74" height="74" viewBox="0 0 74 74" fill="none" xmlns="http://www.w3.org/2000/svg">
<circle cx="37" cy="37" r="37" fill="url(#paint0_linear_858_386)"/>
<g clip-path="url(#clip0_858_386)">
<path d="M54.5868 53.7748C54.4776 53.7748 54.3684 53.727 54.2951 53.635C54.1799 53.4914 54.1859 53.285 54.3108 53.1489L55.8821 51.4243L54.7865 52.057C54.6309 52.1467 54.4335 52.1138 54.3168 51.9785C54.1994 51.8423 54.1949 51.6427 54.3056 51.5013L55.5814 49.8882L54.1096 50.7377C53.9556 50.8275 53.7604 50.7946 53.643 50.6615C53.5248 50.5283 53.5173 50.3309 53.6243 50.1888L54.7304 48.72L53.0088 49.7132C52.8502 49.8059 52.6445 49.7677 52.5286 49.6227C52.4127 49.4776 52.4217 49.2697 52.5481 49.135L53.2728 48.358L51.0546 49.6384C50.8751 49.7416 50.6462 49.6802 50.5438 49.5015C50.4398 49.3228 50.5011 49.0939 50.6806 48.9907L55.0677 46.4577C55.2262 46.3642 55.4319 46.4023 55.5478 46.5482C55.663 46.6932 55.6547 46.9012 55.5283 47.0358L54.8037 47.8128L55.9464 47.1532C56.099 47.0627 56.2949 47.0956 56.4131 47.2295C56.5312 47.3626 56.5387 47.56 56.4318 47.7021L55.3257 49.1709L56.8984 48.2638C57.0525 48.1725 57.2507 48.2062 57.3681 48.3423C57.4855 48.4784 57.49 48.6781 57.3793 48.8194L56.1035 50.4319L57.5925 49.5733C57.7495 49.4798 57.9537 49.518 58.0711 49.6623C58.1863 49.8059 58.1803 50.0123 58.0554 50.1484L56.4849 51.8723L57.9784 51.01C58.1564 50.9053 58.386 50.9673 58.4892 51.1468C58.5931 51.3256 58.5318 51.5544 58.3523 51.6576L54.773 53.7247C54.7147 53.7591 54.6511 53.7748 54.5868 53.7748Z" fill="white"/>
<path d="M51.1105 59.3931C50.9893 59.3931 50.8704 59.3341 50.7986 59.2249C50.6894 59.0596 50.7275 58.8382 50.8853 58.7201L52.933 57.1802L49.7104 59.0401C49.5369 59.1419 49.3156 59.0858 49.2071 58.9168C49.0994 58.747 49.1458 58.5234 49.3111 58.4089L50.4508 57.6207L48.7068 58.6273C48.54 58.726 48.3261 58.6782 48.2147 58.5189C48.1033 58.3611 48.1302 58.1442 48.2775 58.0186L48.5834 57.7583L47.9133 58.1449C47.751 58.2392 47.5438 58.1988 47.4294 58.0477C47.3157 57.8989 47.33 57.688 47.4638 57.5556L47.9492 57.0755L47.1617 57.5294C47.0054 57.6214 46.8035 57.5848 46.686 57.4442C46.5701 57.3036 46.5724 57.0994 46.692 56.9611L47.6306 55.8752L46.3525 56.6126C46.1954 56.7045 45.9943 56.6686 45.8776 56.528C45.7617 56.3874 45.7632 56.1833 45.8821 56.0449L46.8446 54.9254L45.725 55.5715C45.5627 55.6658 45.3556 55.6246 45.2411 55.475C45.1275 55.3255 45.1417 55.1153 45.2755 54.9822L46.2111 54.0556L45.3384 54.5589C45.1753 54.6554 44.9629 54.6113 44.8493 54.4549C44.7371 54.3009 44.7588 54.0862 44.9009 53.9576L45.7153 53.2225L45.1297 53.5597C44.9592 53.6592 44.7393 53.6076 44.6309 53.4423C44.5217 53.277 44.5598 53.0557 44.7184 52.9368L49.0546 49.6865L45.1065 51.966C44.9368 52.067 44.7161 52.0131 44.6062 51.8471C44.4978 51.6803 44.5381 51.4582 44.6982 51.3408L47.1452 49.5467L44.9981 50.7859C44.8261 50.8868 44.6032 50.8323 44.4963 50.664C44.3878 50.495 44.4319 50.2721 44.5957 50.1569L44.6526 50.1165L44.4469 50.2347C44.2764 50.3349 44.0573 50.2818 43.9481 50.1173C43.8389 49.9528 43.877 49.7314 44.0348 49.6125L44.6922 49.1181L43.8277 49.617C43.6601 49.7149 43.4455 49.6663 43.3341 49.507C43.2234 49.3477 43.2533 49.1293 43.4029 49.0059L45.3182 47.4205L42.9796 48.7704C42.8083 48.8698 42.5899 48.8175 42.4808 48.6537C42.3716 48.4884 42.4097 48.267 42.5675 48.1481L43.2623 47.6246L42.3559 48.1474C42.1883 48.2454 41.9729 48.1968 41.8623 48.0382C41.7516 47.8797 41.7807 47.6613 41.9296 47.5371L43.9256 45.8694L41.4846 47.2784C41.3186 47.3763 41.1047 47.3285 40.9917 47.1699C40.8811 47.0114 40.9087 46.7945 41.0553 46.6696L43.183 44.862L40.5737 46.3689C40.4106 46.4654 40.1982 46.4206 40.0853 46.2657C39.9724 46.1117 39.9941 45.8978 40.1347 45.7692L42.6864 43.441L39.49 45.2868C39.3262 45.384 39.1146 45.3384 39.0009 45.1828C38.8887 45.0288 38.9104 44.8141 39.0525 44.6855L41.5616 42.4164L38.4273 44.2255C38.2598 44.325 38.0429 44.2749 37.9322 44.1141C37.8223 43.9533 37.8537 43.7342 38.0055 43.6115L39.7032 42.2362L37.6323 43.4321C37.4678 43.5293 37.2539 43.4837 37.1417 43.3259C37.0295 43.1696 37.0549 42.9534 37.1993 42.827L39.5222 40.7943L36.6503 42.4523C36.4806 42.5526 36.2614 42.501 36.153 42.3372C36.0438 42.1734 36.079 41.9528 36.2345 41.8331L37.3204 40.9947L35.9698 41.774C35.806 41.8712 35.5936 41.8256 35.4807 41.6701C35.3685 41.5153 35.3909 41.2999 35.533 41.172L38.01 38.9456L34.9228 40.7277C34.759 40.825 34.5458 40.7786 34.4321 40.6223C34.3207 40.466 34.3447 40.2506 34.4882 40.1235L36.8605 38.0317L33.9214 39.7286C33.7508 39.8296 33.531 39.7757 33.421 39.6097C33.3126 39.4437 33.353 39.2208 33.513 39.1034L33.6783 38.9822L33.359 39.1662C33.1929 39.2642 32.979 39.2156 32.8676 39.0592C32.7562 38.9014 32.7823 38.6853 32.9274 38.5589L35.1673 36.6249L32.4092 38.2179C32.2446 38.3151 32.0307 38.2695 31.9186 38.1117C31.8064 37.9554 31.8311 37.74 31.9754 37.6129L34.3147 35.5622L31.422 37.2322C31.2582 37.3294 31.045 37.283 30.9314 37.1267C30.8199 36.9712 30.8439 36.7551 30.9875 36.6279L33.3724 34.5212L30.4161 36.2278C30.2463 36.3265 30.0294 36.2764 29.9195 36.1149C29.8103 35.9526 29.8432 35.7327 29.9973 35.6108L31.4182 34.4875L29.6787 35.4919C29.5097 35.5914 29.2905 35.5405 29.1813 35.3767C29.0721 35.2129 29.1073 34.9923 29.2636 34.8719L30.3106 34.0657L29.0048 34.8196C28.8358 34.9175 28.6204 34.8689 28.5097 34.7081C28.3998 34.5473 28.4312 34.329 28.5823 34.2063L30.3174 32.7958L28.2009 34.0178C28.0319 34.1166 27.815 34.0657 27.705 33.9057C27.5951 33.7441 27.6273 33.525 27.7806 33.4023L29.3541 32.1422L27.4336 33.2505C27.2698 33.3477 27.0574 33.3021 26.9445 33.1466C26.8323 32.9925 26.854 32.7779 26.9953 32.6492L29.5126 30.372L26.3686 32.187C26.2041 32.285 25.9902 32.2386 25.878 32.0808C25.7658 31.9245 25.7905 31.7092 25.9348 31.582L28.2884 29.5156L23.2612 32.4174C23.0899 32.5176 22.8685 32.4638 22.7609 32.2977C22.6517 32.131 22.6935 31.9081 22.8543 31.7914L25.0748 30.1768L21.6241 32.1691C21.4521 32.2716 21.2292 32.2155 21.1208 32.0457C21.0138 31.8759 21.0594 31.6523 21.2247 31.5379L23.5446 29.933L20.4058 31.7451C20.2293 31.846 20.0064 31.7907 19.901 31.6187C19.794 31.4474 19.8434 31.2215 20.0117 31.1094L21.1125 30.3787L19.539 31.2874C19.3678 31.3898 19.1434 31.3337 19.0357 31.164C18.928 30.9934 18.9744 30.7706 19.1397 30.6561L23.3307 27.7641L18.5107 30.547C18.3357 30.6479 18.1121 30.5911 18.0051 30.4198C17.8989 30.2478 17.949 30.0227 18.1173 29.9105L20.1889 28.5464L17.8428 29.9008C17.6828 29.995 17.4764 29.9546 17.3612 29.8073C17.246 29.6607 17.2565 29.4513 17.3866 29.3175L19.1905 27.4493L16.9289 28.7551C16.7689 28.8485 16.5647 28.8097 16.4488 28.6638C16.3336 28.5195 16.3419 28.3108 16.4683 28.1762L18.1824 26.3454L16.1848 27.4979C16.018 27.5951 15.8056 27.548 15.6942 27.3924C15.5828 27.2361 15.6067 27.0207 15.751 26.8936L16.4309 26.2946L15.8027 26.6565C15.6441 26.7485 15.4407 26.7119 15.3248 26.5683C15.2088 26.4254 15.2148 26.219 15.3382 26.0829L16.6552 24.6261L15.3771 25.3635C15.2216 25.454 15.0241 25.4203 14.9074 25.2849C14.79 25.1488 14.7855 24.9491 14.8962 24.8085L16.0083 23.3995L15.1557 23.8916C14.9987 23.9844 14.7975 23.9477 14.6808 23.8064C14.5642 23.6658 14.5664 23.4624 14.6853 23.324L15.3711 22.529C15.3173 22.4976 15.2694 22.452 15.2365 22.3937C15.1326 22.2149 15.1939 21.9861 15.3734 21.8829L16.5326 21.2135C16.6889 21.1215 16.8908 21.1567 17.0075 21.2988C17.1241 21.4394 17.1219 21.6428 17.003 21.7811L16.6941 22.1394L17.3253 21.7752C17.4786 21.6839 17.6776 21.7176 17.795 21.8537C17.9124 21.9898 17.9169 22.1895 17.8062 22.3301L16.6934 23.7391L18.3394 22.7885C18.4965 22.6958 18.6999 22.7332 18.8173 22.8768C18.9332 23.0196 18.9273 23.226 18.8039 23.3622L17.4861 24.8198L19.3154 23.7638C19.4807 23.6673 19.6946 23.7137 19.806 23.8692C19.9174 24.0255 19.8935 24.2409 19.7492 24.368L19.0671 24.9686L19.9877 24.4376C20.147 24.3434 20.352 24.383 20.4679 24.5288C20.5831 24.6732 20.5748 24.8818 20.4484 25.0164L18.7351 26.8465L21.1208 25.4689C21.2816 25.3754 21.4865 25.4151 21.6024 25.5624C21.7176 25.709 21.7071 25.9184 21.577 26.0522L19.7724 27.9212L30.7848 21.5635C30.9598 21.4611 31.1826 21.5179 31.2903 21.6907C31.3965 21.8627 31.3464 22.0878 31.1782 22.2L29.1058 23.5648L31.0017 22.4707C31.1767 22.3697 31.398 22.4258 31.505 22.5941C31.6127 22.7646 31.5663 22.9875 31.401 23.1019L27.2107 25.9939L31.1281 23.7323C31.3031 23.6291 31.5267 23.686 31.6329 23.8587C31.7398 24.03 31.6905 24.2559 31.5222 24.368L30.4198 25.0995L31.0907 24.7121C31.2649 24.6111 31.4855 24.6664 31.594 24.8355C31.7009 25.0052 31.6553 25.2288 31.49 25.3433L29.1739 26.946L30.8573 25.9745C31.0278 25.8728 31.25 25.9274 31.3576 26.0941C31.4668 26.2609 31.425 26.4838 31.2642 26.6004L29.04 28.2181L31.1931 26.9751C31.3584 26.8786 31.5723 26.9243 31.6837 27.0813C31.7959 27.2376 31.7712 27.453 31.6269 27.5802L29.2741 29.6465L32.1848 27.9661C32.3493 27.8703 32.561 27.9152 32.6739 28.07C32.7861 28.2241 32.7644 28.4387 32.623 28.5673L30.1057 30.8446L33.2483 29.0303C33.4165 28.9301 33.6334 28.9824 33.7441 29.1425C33.854 29.304 33.8219 29.5231 33.6686 29.6458L32.095 30.9052L34.0141 29.7976C34.1816 29.6989 34.3985 29.7482 34.5092 29.909C34.6191 30.0698 34.5877 30.2882 34.4366 30.4108L32.7008 31.8221L34.8173 30.6001C34.9871 30.4998 35.2055 30.5522 35.3146 30.7152C35.4238 30.8783 35.3887 31.0996 35.2324 31.22L34.1839 32.027L35.4904 31.2731C35.6594 31.1729 35.877 31.2245 35.987 31.3861C36.0962 31.5491 36.0633 31.7682 35.9092 31.8901L34.4897 33.0119L36.227 32.0091C36.3923 31.9126 36.6047 31.9582 36.7176 32.1145C36.8291 32.2701 36.8051 32.4862 36.6616 32.6133L34.2766 34.7201L37.2314 33.0142C37.3967 32.9185 37.6106 32.9633 37.722 33.1204C37.8342 33.2767 37.8095 33.4921 37.6652 33.6192L35.3259 35.6691L38.2171 34.0006C38.3817 33.9027 38.5963 33.9505 38.7085 34.1076C38.8199 34.2654 38.7945 34.4815 38.6487 34.6079L36.4065 36.5434L39.1662 34.9504C39.3374 34.8502 39.5573 34.9033 39.6665 35.0693C39.7749 35.2354 39.7346 35.4582 39.5745 35.5757L39.4137 35.6931L39.7286 35.5121C39.8939 35.4156 40.107 35.4612 40.2192 35.6175C40.3306 35.7738 40.3067 35.9892 40.1631 36.1164L37.7893 38.2097L40.73 36.512C40.8953 36.4155 41.1069 36.4611 41.2191 36.6159C41.3313 36.7708 41.3088 36.9861 41.1667 37.114L38.6898 39.3397L41.7778 37.5575C41.9468 37.458 42.1666 37.5097 42.2751 37.6727C42.3843 37.8365 42.3491 38.0571 42.1936 38.1768L41.1106 39.0129L42.4583 38.2351C42.6236 38.1394 42.8375 38.1842 42.9489 38.3413C43.0611 38.4976 43.0357 38.7137 42.8913 38.8401L40.5677 40.8736L43.441 39.2148C43.6093 39.1161 43.8254 39.1662 43.9361 39.3262C44.046 39.487 44.0146 39.7062 43.8628 39.8288L42.1644 41.2049L44.2368 40.0083C44.402 39.9118 44.6137 39.9574 44.7259 40.1122C44.838 40.2663 44.8164 40.4809 44.6743 40.6096L42.1651 42.8786L45.3002 41.0688C45.464 40.9731 45.6772 41.0172 45.7886 41.172C45.9015 41.326 45.8798 41.5399 45.7392 41.6686L43.1882 43.996L46.3846 42.1502C46.5522 42.053 46.7653 42.1008 46.8775 42.2586C46.9882 42.4172 46.9605 42.6341 46.8139 42.759L44.6855 44.5673L47.2963 43.0596C47.4631 42.9616 47.6792 43.0103 47.7899 43.1688C47.9006 43.3274 47.8714 43.5457 47.7226 43.6699L45.7273 45.3369L48.1683 43.9279C48.3381 43.8269 48.558 43.8808 48.6671 44.0446C48.7763 44.2098 48.7382 44.4312 48.5804 44.5501L47.8834 45.0751L48.7928 44.5509C48.9603 44.4529 49.1757 44.5008 49.2864 44.6608C49.3971 44.8201 49.3672 45.0385 49.2176 45.1619L47.303 46.7466L49.6416 45.3967C49.8106 45.2965 50.0313 45.3489 50.1405 45.5141C50.2496 45.6787 50.2115 45.9 50.0537 46.0189L49.3963 46.514L51.429 45.3406C51.6003 45.2389 51.8232 45.2943 51.9309 45.4625C52.0393 45.6315 51.9952 45.8544 51.8314 45.9696L51.7761 46.0092L52.7012 45.4752C52.8724 45.375 53.0923 45.4281 53.2015 45.5942C53.3099 45.7609 53.2696 45.983 53.1095 46.1005L50.6617 47.8946L54.09 45.9157C54.2597 45.8155 54.4796 45.8679 54.5888 46.0332C54.698 46.1984 54.6599 46.4198 54.5013 46.5387L48.7876 50.821C48.825 50.845 48.8579 50.8764 48.8855 50.9145C48.9977 51.0686 48.976 51.2832 48.8339 51.4119L48.0217 52.1455L48.3411 51.9615C48.5019 51.8666 48.7105 51.9077 48.825 52.058C48.9386 52.2076 48.9244 52.4177 48.7906 52.5509L47.8557 53.4775L48.3755 53.1776C48.5318 53.0856 48.7337 53.1215 48.8504 53.2621C48.9663 53.4027 48.9648 53.6061 48.8459 53.7452L47.8834 54.8648L49.1757 54.1191C49.3328 54.0272 49.5332 54.0631 49.6514 54.2044C49.7673 54.345 49.765 54.5492 49.6454 54.6875L48.7068 55.7742L50.0941 54.9732C50.2549 54.8775 50.4635 54.9194 50.578 55.0704C50.6916 55.2193 50.6774 55.4302 50.5436 55.5625L50.0589 56.0419L51.7581 55.0607C51.9256 54.9635 52.1388 55.0106 52.2502 55.1692C52.3616 55.327 52.3347 55.5438 52.1874 55.6695L51.8808 55.9312L58.0485 52.3706C58.2235 52.2697 58.4433 52.325 58.5518 52.494C58.6595 52.6638 58.6131 52.8874 58.4478 53.0018L57.3118 53.7871L57.9056 53.4446C58.0754 53.3436 58.2953 53.3967 58.4044 53.562C58.5136 53.7273 58.4755 53.9486 58.3177 54.0668L56.2693 55.6067L57.3769 54.968C57.5451 54.8693 57.7613 54.9186 57.872 55.0794C57.9819 55.2402 57.9505 55.4586 57.7994 55.5812L56.466 56.6649C56.5482 56.6926 56.6215 56.7502 56.6686 56.8317C56.7726 57.0104 56.7113 57.2393 56.5318 57.3425L53.4019 59.1486C53.2329 59.2473 53.0175 59.198 52.9068 59.0372C52.7969 58.8764 52.8283 58.658 52.9794 58.5353L53.6801 57.9662L51.2967 59.3415C51.2383 59.3759 51.1733 59.3917 51.1097 59.3917L51.1105 59.3931Z" fill="white"/>
<path d="M23.8337 25.5276C23.7148 25.5276 23.5981 25.4708 23.5256 25.3654C23.4156 25.2038 23.4471 24.9847 23.5989 24.8628L26.1663 22.7904L25.4289 23.216C25.2659 23.3102 25.0565 23.2676 24.9428 23.1165C24.8299 22.9647 24.8471 22.7523 24.9847 22.6214L26.808 20.8841L24.8792 21.9977C24.7154 22.0942 24.5023 22.0493 24.3901 21.8937C24.2779 21.7389 24.3004 21.5243 24.4417 21.3964L25.648 20.3097L24.0902 21.2087C23.9272 21.3044 23.717 21.2618 23.6034 21.1085C23.4904 20.9559 23.5091 20.7428 23.6475 20.6126L24.951 19.3846L23.2496 20.3666C23.0881 20.4608 22.8794 20.4197 22.7657 20.2701C22.6521 20.1205 22.6663 19.9104 22.7994 19.778L24.0521 18.5358L22.3828 19.499C22.2265 19.591 22.0246 19.5551 21.9079 19.4145C21.792 19.2739 21.7935 19.0705 21.9117 18.9322L23.0993 17.5471L21.4069 18.5238C21.2633 18.6083 21.0808 18.5851 20.9604 18.47C20.84 18.3548 20.8116 18.1738 20.8886 18.0257L21.5744 16.7274L21.5228 16.7573C21.344 16.8613 21.1152 16.7992 21.012 16.6205C20.908 16.4417 20.9694 16.2129 21.1488 16.1097L22.3245 15.4306C22.4681 15.3484 22.6513 15.3693 22.771 15.4845C22.8906 15.5996 22.9198 15.7806 22.8428 15.9287L22.1562 17.227L24.6205 15.8053C24.7775 15.7141 24.9787 15.7492 25.0954 15.8898C25.2113 16.0304 25.2098 16.2338 25.0916 16.3722L23.904 17.7573L26.1768 16.4455C26.3383 16.3498 26.5455 16.3916 26.6607 16.542C26.7743 16.6915 26.7601 16.9017 26.627 17.0341L25.3736 18.277L27.3592 17.1313C27.5222 17.0356 27.7324 17.0789 27.846 17.2315C27.959 17.3841 27.9403 17.5972 27.8019 17.7273L26.4991 18.9546L28.3531 17.8836C28.5176 17.7879 28.73 17.8328 28.8422 17.9876C28.9544 18.1424 28.932 18.357 28.7906 18.4849L27.585 19.5716L29.1481 18.6689C29.3089 18.5732 29.5198 18.6158 29.6342 18.7684C29.7471 18.9202 29.7299 19.1326 29.5923 19.2635L27.7675 21.0023L29.9506 19.7421C30.1188 19.6434 30.335 19.6935 30.4456 19.8535C30.5556 20.0151 30.5242 20.2342 30.3724 20.3561L27.8072 22.4262L30.5242 20.8579C30.7022 20.7532 30.9318 20.8146 31.035 20.9948C31.1389 21.1735 31.0776 21.4024 30.8981 21.5056L24.0214 25.476C23.9631 25.5104 23.898 25.5262 23.8345 25.5262L23.8337 25.5276Z" fill="white"/>
<path d="M34.3161 42.1763C34.2002 42.1763 34.0857 42.1225 34.0139 42.0223C33.9018 41.8675 33.9234 41.6536 34.0655 41.525L34.2076 41.3963L33.9272 41.5579C33.7574 41.6566 33.5405 41.6065 33.4306 41.4442C33.3214 41.2819 33.3543 41.062 33.5084 40.9409L36.0698 38.9216L33.032 40.6754C32.86 40.7748 32.6393 40.7217 32.5309 40.555C32.4225 40.3882 32.4643 40.1653 32.6259 40.0487L38.1459 36.058L33.3543 38.8244C33.1801 38.9268 32.9587 38.8708 32.851 38.7002C32.7433 38.5297 32.7904 38.3061 32.9564 38.1917L39.7643 33.5324L37.1206 35.0588C36.9448 35.1606 36.7212 35.1045 36.6158 34.9325C36.5088 34.7612 36.5582 34.5353 36.7265 34.4232L40.6244 31.837L39.9543 32.2237C39.7793 32.3254 39.5564 32.2693 39.4495 32.0973C39.3425 31.9253 39.3919 31.7009 39.5594 31.5887L46.4653 26.9871L43.4476 28.7289C43.2741 28.8313 43.0527 28.7752 42.9443 28.6047C42.8366 28.4342 42.8837 28.2106 43.0497 28.0962L49.1606 23.9141L47.0336 25.1421C46.8579 25.2445 46.635 25.1869 46.5281 25.0149C46.4219 24.8429 46.472 24.6171 46.641 24.5056L48.8098 23.0824C48.7351 23.0562 48.6692 23.0061 48.6221 22.9366C48.5129 22.7713 48.5511 22.5499 48.7089 22.431L52.6225 19.4837L52.2291 19.711C52.0623 19.8082 51.8477 19.7611 51.7363 19.6018C51.6248 19.4433 51.6532 19.2256 51.8013 19.1007L52.3667 18.6259C52.2538 18.6116 52.1483 18.5481 52.087 18.4411C51.9831 18.2624 52.0444 18.0335 52.2239 17.9303L55.3485 16.1265C55.516 16.0285 55.7299 16.0771 55.8413 16.2357C55.9528 16.3942 55.9243 16.6118 55.7763 16.7367L55.5362 16.9387L57.5592 15.7705C57.729 15.6695 57.9488 15.7226 58.058 15.8871C58.1672 16.0524 58.1291 16.2738 57.9713 16.3927L54.0532 19.3431L57.8598 17.1458C58.0356 17.0434 58.2585 17.1017 58.3654 17.2729C58.4716 17.445 58.4215 17.6708 58.2525 17.7823L57.4081 18.3364C57.5383 18.3192 57.6699 18.3918 57.7439 18.5099C57.8516 18.6804 57.8045 18.9041 57.6385 19.0185L51.5291 23.1991L56.1779 20.5157C56.3521 20.4133 56.5757 20.4694 56.6827 20.6421C56.7896 20.8134 56.7403 21.0385 56.5728 21.1507L49.6691 25.7508L50.6563 25.181C50.8313 25.0785 51.0542 25.1346 51.1611 25.3073C51.2681 25.4786 51.2187 25.7045 51.0505 25.8166L47.154 28.402L47.8398 28.0064C48.0148 27.9047 48.2362 27.9608 48.3432 28.1306C48.4509 28.3011 48.4037 28.5247 48.2377 28.6391L41.4261 33.3013L44.0967 31.7592C44.2673 31.6583 44.4886 31.7121 44.5978 31.8796C44.7063 32.0464 44.6644 32.2693 44.5028 32.386L38.9813 36.3773L40.1831 35.6833C40.3522 35.5831 40.569 35.634 40.6797 35.797C40.7889 35.9593 40.756 36.1792 40.6019 36.3003L37.2268 38.962C37.2866 38.9874 37.3412 39.0293 37.3823 39.0861C37.4945 39.2402 37.4728 39.4548 37.3307 39.5835L35.3339 41.3873C35.3496 41.5302 35.2823 41.6768 35.1492 41.7531L34.5038 42.1255C34.4455 42.1599 34.3804 42.1756 34.3168 42.1756L34.3161 42.1763Z" fill="white"/>
<path d="M35.4799 44.1084C35.3513 44.1084 35.2249 44.0411 35.1561 43.9215C35.0521 43.7427 35.1135 43.5139 35.2929 43.4107L37.8529 41.9321C38.0309 41.8267 38.2605 41.8895 38.3637 42.069C38.4677 42.2477 38.4063 42.4766 38.2268 42.5798L35.6669 44.0583C35.6078 44.0927 35.5435 44.1084 35.4799 44.1084Z" fill="#2381D9"/>
<path d="M19.2553 59.407C19.1319 59.407 19.0115 59.3457 18.9397 59.2343C18.832 59.0653 18.8769 58.8424 19.0407 58.7272L20.8498 57.4588L18.126 59.0316C17.9525 59.1326 17.7312 59.078 17.6235 58.9082C17.5158 58.7392 17.5606 58.5156 17.7259 58.4011L24.4426 53.7284L16.7544 58.1671C16.5787 58.2688 16.3566 58.2127 16.2496 58.0407C16.1427 57.8687 16.192 57.6443 16.3596 57.5321L24.1359 52.3539L15.8749 57.123C15.6984 57.2262 15.4741 57.1687 15.3679 56.9929C15.2624 56.8186 15.3163 56.592 15.4883 56.4829L17.8 55.023L15.4853 56.3587C15.3088 56.4612 15.0844 56.4043 14.979 56.2301C14.8728 56.0573 14.9251 55.8307 15.0949 55.7208L24.6078 49.5852L15.157 55.0417C14.9812 55.1449 14.7569 55.0866 14.6507 54.9131C14.5445 54.7396 14.5968 54.5137 14.7673 54.4038L23.6423 48.681L15.225 53.5407C15.047 53.6439 14.8219 53.5849 14.7172 53.4091C14.6118 53.2341 14.6671 53.0075 14.8406 52.8991L16.3364 51.9694L15.6199 52.383C15.4434 52.4855 15.2206 52.4286 15.1136 52.2551C15.0074 52.0824 15.059 51.8565 15.2288 51.7458L22.9723 46.7171L18.0744 49.5441C17.8987 49.6481 17.6743 49.589 17.5674 49.4147C17.4619 49.2412 17.515 49.0146 17.6863 48.9047L20.3839 47.1823C20.2328 47.2242 20.0593 47.1651 19.9695 47.0223C19.8619 46.8532 19.9067 46.6296 20.0713 46.5145L26.1791 42.2479L24.2601 43.3555C24.0956 43.4527 23.8809 43.4063 23.7687 43.2485C23.6573 43.0915 23.6827 42.8753 23.8286 42.7489L26.2135 40.6848C26.144 40.5143 26.209 40.3146 26.3728 40.2204L27.538 39.548C27.7033 39.4516 27.9179 39.4979 28.0294 39.655C28.1408 39.812 28.1154 40.0282 27.9695 40.1546L27.289 40.7439L33.3176 37.264C33.4911 37.1631 33.7124 37.2177 33.8201 37.3867C33.9278 37.5557 33.883 37.7793 33.7184 37.8945L27.6143 42.1581L34.3317 38.2796C34.5089 38.1779 34.7325 38.2355 34.8387 38.409C34.9442 38.5825 34.8911 38.8091 34.7198 38.9191L32.2391 40.5023L34.9749 38.9236C35.1506 38.8218 35.3742 38.8787 35.4812 39.0514C35.5874 39.2242 35.5358 39.4501 35.366 39.5607L27.6263 44.5864L35.8745 39.8247C36.051 39.7208 36.2769 39.7799 36.3824 39.9564C36.4878 40.1314 36.4325 40.358 36.259 40.4664L34.7677 41.393L36.4639 40.4141C36.6396 40.3116 36.864 40.3684 36.9702 40.5427C37.0764 40.7155 37.024 40.9421 36.8535 41.052L27.98 46.774L37.3897 41.3407C37.5655 41.239 37.7906 41.2951 37.896 41.4693C38.0022 41.6421 37.9499 41.8687 37.7801 41.9786L28.2605 48.1186L33.7199 44.9671C33.8964 44.8654 34.1215 44.923 34.227 45.0972C34.3324 45.2715 34.2786 45.4981 34.1066 45.6073L31.7979 47.0656L33.9039 45.8496C34.0782 45.7471 34.301 45.8032 34.4087 45.976C34.5157 46.1473 34.4663 46.3724 34.2988 46.4845L26.5194 51.6643L31.7568 48.6414C31.9303 48.5405 32.1516 48.595 32.2593 48.7648C32.367 48.9338 32.3222 49.1574 32.1569 49.2719L25.4425 53.9423L27.8469 52.555C28.0189 52.4541 28.2403 52.5087 28.3495 52.6777C28.4571 52.8467 28.4123 53.0696 28.2485 53.1847L25.5487 55.0776C25.6414 55.0963 25.7259 55.1516 25.782 55.2354C25.8912 55.3984 25.856 55.6191 25.7005 55.7395L23.7059 57.2823C23.7156 57.295 23.7239 57.3078 23.7321 57.322C23.836 57.5007 23.7747 57.7296 23.5952 57.8328L21.2035 59.2141C21.0338 59.3136 20.8154 59.2619 20.7062 59.0989C20.597 58.9359 20.6322 58.7153 20.7877 58.5948L20.8625 58.5373L19.4415 59.3577C19.3832 59.3921 19.3181 59.4078 19.2546 59.4078L19.2553 59.407Z" fill="#2381D9"/>
<path d="M30.0624 39.6367C29.9562 39.6367 29.8523 39.591 29.779 39.5065C29.6623 39.3704 29.6578 39.1707 29.7692 39.0294L30.8125 37.7199L30.2927 38.019C30.1357 38.1118 29.933 38.0751 29.8164 37.9323C29.7004 37.7917 29.7042 37.586 29.8253 37.4491L30.3062 36.9024C30.2598 36.8718 30.221 36.8299 30.1918 36.779C30.0878 36.6003 30.1492 36.3715 30.3286 36.2683L31.4699 35.6094C31.627 35.5166 31.8296 35.554 31.9463 35.6961C32.0622 35.8367 32.0585 36.0424 31.9373 36.1793L31.8887 36.2353L32.146 36.0873C32.3 35.996 32.4982 36.0304 32.6164 36.1665C32.7331 36.3027 32.7375 36.5023 32.6261 36.6437L31.5836 37.9525L33.1227 37.064C33.3014 36.9593 33.5303 37.0214 33.6335 37.2008C33.7374 37.3796 33.6761 37.6084 33.4966 37.7116L30.2509 39.5858C30.1925 39.6202 30.1282 39.6359 30.0639 39.6359L30.0624 39.6367Z" fill="#2381D9"/>
<path d="M50.2789 45.4093L40.8677 35.9981C45.4701 31.4031 50.0508 26.7768 54.6652 22.1998C57.0203 21.953 57.4092 19.5561 58.3963 17.8113C59.6842 16.1219 57.4503 14.8632 56.0286 15.9072C54.1552 16.8286 51.6827 17.5077 51.3514 19.8066C46.9277 24.2602 42.4382 28.6981 38.0019 33.1554C36.8 31.3082 30.7797 27.4746 31.7571 25.6565C33.9589 20.0467 23.1379 11.2629 20.1531 17.5181C20.7986 19.9218 25.6717 21.2179 24.3285 24.0755C23.5545 24.8465 22.6727 26.3371 21.4612 25.2833C10.3037 12.4513 13.251 35.7707 25.6388 32.0568L30.0198 36.4378C28.7335 37.2395 30.4327 38.7764 29.2174 39.5265C28.6026 39.8175 28.0724 39.3672 27.4614 39.4585C24.9418 40.8413 23.2187 43.5695 21.0147 45.4512C18.1444 48.6932 12.0634 52.2852 15.2867 57.2279C19.326 62.5086 24.7645 57.305 27.8039 53.7541C29.9062 51.1754 33.3628 49.1801 34.706 46.2118C33.8347 42.96 36.1763 45.0376 37.5412 43.9853C39.8476 46.3075 42.2154 48.6371 44.5009 50.945C44.5413 51.0729 44.3057 51.8298 44.2937 52.0713C43.9834 56.4987 48.2238 60.0594 52.5233 59.3683C62.111 57.8763 59.8771 43.7617 50.2782 45.41L50.2789 45.4093ZM54.7363 22.1093C54.7804 22.0704 54.838 22.048 54.7363 22.1093V22.1093ZM49.4757 22.6403C50.6992 21.2164 52.5809 20.2284 52.898 18.2578C53.9839 17.1659 55.7332 16.6977 57.0868 15.896C57.0367 15.9775 57.5086 16.5347 57.5011 16.525C58.16 17.0978 55.8409 21.4146 55.087 21.5985C49.2858 25.3536 44.889 31.6193 39.6973 36.2112C38.5643 37.339 37.3871 38.4421 36.2885 39.6051C35.6603 38.9739 35.0276 38.3479 34.4046 37.7114L49.4757 22.6403ZM25.9529 31.5131C15.7676 35.1582 11.1263 14.1968 20.3745 25.6041C22.4042 27.6137 26.884 24.1488 25.3696 21.7414C24.2829 20.3601 22.8006 19.2846 21.6302 17.9736C20.4067 13.7466 27.6595 17.3716 28.7477 19.0281C34.1892 27.4626 25.7368 23.8668 37.2944 33.8562C36.1643 34.9683 35.0066 36.0661 33.9185 37.2186C33.0951 36.3952 32.0002 34.9503 30.7827 35.7939C29.1433 34.5644 27.845 32.0037 25.9529 31.5131ZM36.1187 43.405C34.721 43.0774 33.134 44.2972 33.4025 45.784C33.4832 46.2447 33.6149 46.6066 33.3239 47.003C29.1777 50.1957 24.5641 58.1672 19.4711 58.6676C8.16625 54.7375 24.0234 44.7332 27.4045 40.2886C28.643 40.6932 30.2778 40.3746 30.7161 38.9552C30.9891 38.0929 30.3601 37.3293 31.0609 36.6278C32.3008 36.0145 34.5033 39.7733 35.753 40.5392C36.0911 40.8787 37.9151 42.2114 37.4103 42.9107C37.0409 43.3467 36.7215 43.6653 36.118 43.4042L36.1187 43.405ZM52.8105 58.61C48.3143 59.5216 44.4231 54.9394 45.5718 50.6459C43.2818 48.1001 40.6733 45.7511 38.2808 43.2696C39.3166 41.981 37.5404 40.9991 36.7769 40.0957C37.8979 38.9731 39.019 37.8505 40.14 36.728C42.7254 38.5438 48.4392 46.8751 51.0126 46.0046C58.5354 45.3577 60.2885 57.1913 52.8097 58.6107L52.8105 58.61Z" fill="#262626"/>
<path d="M52.5547 55.1036C52.5622 55.1036 52.5726 55.1021 52.5824 55.1014C52.5891 55.0916 52.5996 55.0842 52.6085 55.0752C52.5824 55.0782 52.5659 55.0909 52.5547 55.1036Z" fill="#262626"/>
<path d="M55.0967 51.2852C53.4305 46.7875 45.9376 49.8455 48.419 54.1398C50.5542 57.3213 56.0144 55.0971 55.0967 51.2852ZM54.0131 53.3067C53.9503 54.0815 53.064 54.5153 52.6078 55.0754C52.6347 55.0724 52.6692 55.0784 52.7133 55.1053C52.6886 55.0904 52.6288 55.0971 52.5817 55.1016C52.5405 55.1629 52.5278 55.136 52.554 55.1038C50.8331 55.3334 50.3021 54.7778 49.2319 53.5378C48.7518 51.9837 49.214 50.5343 50.5497 49.601C51.0695 49.5973 51.8061 49.589 52.2152 49.601C53.6115 50.4005 54.2935 51.7025 54.0131 53.3067Z" fill="#262626"/>
</g>
<defs>
<linearGradient id="paint0_linear_858_386" x1="-3.34263e-07" y1="-10.6277" x2="90.5319" y2="94.4681" gradientUnits="userSpaceOnUse">
<stop stop-color="#E3F1FF"/>
<stop offset="1" stop-color="#77B2EA"/>
</linearGradient>
<clipPath id="clip0_858_386">
<rect width="44.8723" height="44.8723" fill="white" transform="translate(14.1699 14.957)"/>
</clipPath>
</defs>
</svg>
