<?xml version="1.0" encoding="UTF-8"?>
<svg id="Layer_2" data-name="Layer 2" xmlns="http://www.w3.org/2000/svg" xmlns:xlink="http://www.w3.org/1999/xlink" viewBox="0 0 544.6505 93.36018">
  <defs>
    <style>
      .cls-1 {
        fill: #2ab24c;
      }

      .cls-2 {
        fill: url(#linear-gradient-2);
      }

      .cls-3 {
        fill: #fff;
      }

      .cls-4 {
        fill: url(#linear-gradient);
      }
    </style>
    <linearGradient id="linear-gradient" x1="226.79502" y1="35.2527" x2="310.98803" y2="21.05039" gradientUnits="userSpaceOnUse">
      <stop offset="0" stop-color="#ec722f"/>
      <stop offset=".24272" stop-color="#eb692d"/>
      <stop offset=".63618" stop-color="#e9512a"/>
      <stop offset="1" stop-color="#e83527"/>
    </linearGradient>
    <linearGradient id="linear-gradient-2" x1="240.74299" y1="71.94731" x2="325.27691" y2="57.6875" gradientUnits="userSpaceOnUse">
      <stop offset="0" stop-color="#e83527"/>
      <stop offset=".36382" stop-color="#e9512a"/>
      <stop offset=".75728" stop-color="#eb692d"/>
      <stop offset="1" stop-color="#ec722f"/>
    </linearGradient>
  </defs>
  <g id="Layer_1-2" data-name="Layer 1">
    <g>
      <g id="Layer_2-2" data-name="Layer 2">
        <path class="cls-3" d="M305.93932,50.46232c.24102-1.65932,1.78156-2.80907,3.44087-2.56804.2272.033.44993.09167.66391.17488.57049.21572,1.21501.04447,1.60319-.42597.85065-1.013,1.51889-2.16605,1.97494-3.40774.21544-.57995.0343-1.23269-.4492-1.61868-1.31743-1.03028-1.55021-2.93347-.51993-4.25091.15155-.19379.32615-.36839.51993-.51993.4835-.38599.66464-1.03872.4492-1.61868-.42104-1.1465-1.02238-2.21845-1.78132-3.1754-.39198-.49514-1.06075-.67725-1.64966-.4492-1.54398.63161-3.30765-.10802-3.93925-1.65201-.11303-.2763-.18447-.56783-.212-.86508-.06698-.62645-.53531-1.13564-1.15399-1.25467-.71385-.14421-1.4403-.21686-2.16856-.21686-.60969-.00106-1.21844.04816-1.82004.14715-.63939.10129-1.13144.61874-1.20045,1.26241-.15586,1.66088-1.62862,2.88094-3.2895,2.72507-.33841-.03176-.66902-.1204-.97792-.26221-.58679-.27101-1.28271-.1082-1.68838.39499-.8352,1.00692-1.4926,2.14887-1.94396,3.37676-.05439.15702-.08315.32177-.08519.48793.001.46231.22621.8954.6041,1.16173.81652.56043,1.30351,1.48801,1.30114,2.47836-.00121.95833-.45483,1.85982-1.22369,2.43189-.51873.3859-.71268,1.07265-.47244,1.67289.45187,1.12276,1.07641,2.16802,1.85102,3.09795.39625.47926,1.0564.64821,1.63417.41822,1.53671-.64911,3.30866.07044,3.95777,1.60714.11018.26083.18313.53586.21672.817.08553.61853.56178,1.11045,1.17722,1.21594.64599.12438,1.30166.19177,1.95945.20137.69383.00015,1.38614-.06468,2.06788-.19362.60155-.10725,1.06664-.58795,1.15399-1.19271h0ZM302.71746,44.10378c-2.13869,0-3.87244-1.73375-3.87244-3.87244s1.73375-3.87244,3.87244-3.87244,3.87244,1.73375,3.87244,3.87244-1.73375,3.87244-3.87244,3.87244Z"/>
      </g>
      <path class="cls-3" d="M391.14709,29.78161v45.9155h-9.18349v-29.86421l-12.26651,29.86421h-6.95344l-12.33209-29.86421v29.86421h-9.18349V29.78161h10.42991l14.56214,34.14032,14.56263-34.14032h10.36434Z"/>
      <path class="cls-3" d="M428.20259,66.94818h-18.23632l-3.01745,8.74893h-9.64252l16.46481-45.98108h10.69222l16.46481,45.98108h-9.7081l-3.01745-8.74893ZM425.70974,59.58123l-6.62556-19.2087-6.62507,19.2087h13.25064Z"/>
      <path class="cls-3" d="M478.25277,29.78161v7.43351h-12.20143v38.48199h-9.18349v-38.48199h-12.20094v-7.43351h33.58586Z"/>
      <path class="cls-3" d="M494.12691,29.78161v45.9155h-9.18349V29.78161h9.18349Z"/>
      <path class="cls-3" d="M503.92884,40.86649c1.98627-3.49067,4.69869-6.21074,8.13774-8.1602,3.43809-1.94946,7.29399-2.92467,11.56626-2.92467,4.99795,0,9.37635,1.28594,13.13616,3.8559,3.75838,2.56996,6.38571,6.12661,7.8815,10.66706h-10.31666c-1.0254-2.14164-2.46718-3.74786-4.32534-4.81964-1.85816-1.06986-4.00505-1.60623-6.43972-1.60623-2.60629,0-4.92433.60998-6.95267,1.83091-2.02929,1.22092-3.61019,2.94666-4.74171,5.17339-1.13249,2.22768-1.69801,4.84163-1.69801,7.83896,0,2.95622.56553,5.55869,1.69801,7.80741,1.13153,2.24967,2.71242,3.98497,4.74171,5.20589,2.02834,1.22092,4.34637,1.83091,6.95267,1.83091,2.43468,0,4.58157-.54593,6.43972-1.63873,1.85816-1.09185,3.29993-2.70859,4.32534-4.85119h10.31666c-1.4958,4.58444-4.11213,8.15064-7.84948,10.69861-3.73878,2.54988-8.12817,3.82339-13.16819,3.82339-4.27228,0-8.12817-.9733-11.56626-2.92371-3.43905-1.94851-6.15146-4.65901-8.13774-8.12865-1.98675-3.46964-2.97965-7.41063-2.97965-11.82393,0-4.41139.9929-8.36289,2.97965-11.85548Z"/>
      <path class="cls-3" d="M11.39838,72.64488c-3.50087-1.96924-6.27558-4.69809-8.3246-8.18749-2.0495-3.48941-3.07377-7.4384-3.07377-11.84888,0-4.36654,1.02427-8.29355,3.07377-11.78391,2.04902-3.48845,4.82373-6.21825,8.3246-8.18749,3.50039-1.96829,7.34237-2.95434,11.52689-2.95434,4.22656,0,8.07857.98605,11.5589,2.95434,3.4789,1.96924,6.23258,4.69904,8.26059,8.18749,2.02752,3.49036,3.04176,7.41738,3.04176,11.78391,0,4.41049-1.01424,8.35948-3.04176,11.84888-2.028,3.48941-4.79268,6.21825-8.2926,8.18749-3.50135,1.96924-7.34333,2.95338-11.52689,2.95338-4.18452,0-8.02649-.98414-11.52689-2.95338ZM30.03355,65.74155c2.04902-1.22015,3.64993-2.96389,4.80271-5.23411,1.15278-2.26831,1.72894-4.9016,1.72894-7.89894,0-2.99638-.57615-5.61917-1.72894-7.86645-1.15278-2.24728-2.75369-3.97001-4.80271-5.16914-2.0495-1.19817-4.41861-1.79821-7.10828-1.79821s-5.06977.60004-7.14029,1.79821c-2.071,1.19913-3.68194,2.92185-4.83472,5.16914-1.15278,2.24728-1.72894,4.87007-1.72894,7.86645,0,2.99734.57615,5.63063,1.72894,7.89894,1.15278,2.27022,2.76372,4.01396,4.83472,5.23411,2.07052,1.22015,4.45062,1.82974,7.14029,1.82974s5.05878-.6096,7.10828-1.82974Z"/>
      <path class="cls-3" d="M76.22378,75.59826l-10.10204-17.8923h-4.32944v17.8923h-9.18349V29.68276h17.18614c3.54254,0,6.55999.62541,9.05234,1.87526,2.49284,1.24985,4.36223,2.93817,5.60865,5.06497,1.24642,2.12777,1.86939,4.50611,1.86939,7.13695,0,3.02626-.87499,5.75595-2.62351,8.19007-1.74998,2.43412-4.35196,4.11168-7.80641,5.03267l10.95501,18.61558h-10.62664ZM61.7923,50.79902h7.67477c2.49284,0,4.35098-.6029,5.57587-1.80871,1.22391-1.2058,1.8366-2.88336,1.8366-5.03267,0-2.10526-.61269-3.7378-1.8366-4.90054-1.22489-1.16176-3.08302-1.74313-5.57587-1.74313h-7.67477v13.48504Z"/>
      <path class="cls-3" d="M122.35201,32.51131c3.65069,1.88603,6.47141,4.57168,8.46167,8.05892,1.98977,3.48626,2.98466,7.53138,2.98466,12.13634s-.99489,8.62855-2.98466,12.07077c-1.99026,3.4432-4.81098,6.10732-8.46167,7.99237-3.65216,1.88603-7.88275,2.82855-12.69275,2.82855h-16.00578V29.68276h16.00578c4.81,0,9.0406.9435,12.69275,2.82855ZM120.48263,63.82308c2.62351-2.63085,3.9355-6.33635,3.9355-11.1165,0-4.77917-1.312-8.51893-3.9355-11.21535-2.62399-2.6974-6.34173-4.0461-11.15173-4.0461h-6.49392v30.3252h6.49392c4.81,0,8.52774-1.31542,11.15173-3.94725Z"/>
      <path class="cls-3" d="M150.87256,37.11627v11.51191h16.41797v7.30138h-16.41797v12.16962h18.38621v7.49909h-27.5697V29.61718h27.5697v7.49909h-18.38621Z"/>
      <path class="cls-3" d="M200.75757,75.59826l-10.10204-17.8923h-4.32944v17.8923h-9.18349V29.68276h17.18614c3.54254,0,6.55999.62541,9.05234,1.87526,2.49284,1.24985,4.36223,2.93817,5.60865,5.06497,1.24642,2.12777,1.86939,4.50611,1.86939,7.13695,0,3.02626-.87499,5.75595-2.62351,8.19007-1.74998,2.43412-4.35196,4.11168-7.80641,5.03267l10.95501,18.61558h-10.62664ZM186.32609,50.79902h7.67477c2.49284,0,4.35098-.6029,5.57587-1.80871,1.22391-1.2058,1.8366-2.88336,1.8366-5.03267,0-2.10526-.61269-3.7378-1.8366-4.90054-1.22489-1.16176-3.08302-1.74313-5.57587-1.74313h-7.67477v13.48504Z"/>
      <path class="cls-4" d="M309.63474,17.8744l-5.06105,8.47886c-.60143-.0802-1.21266-.12026-1.83415-.12026-6.69505,0-12.30762,4.70045-13.70037,10.98437l-8.11814,1.49331-12.14711,2.15481-23.7427,4.20937c-.76146.14033-1.42308.59128-1.82437,1.25278l-8.93979,14.74272c-.67141,1.09245-2.32499.91206-2.716-.30066-1.5836-5.02117-2.34505-10.40312-2.12484-15.98553.94252-23.89306,20.24518-43.45655,44.12833-44.71936,13.90101-.72157,26.55902,4.63028,35.55899,13.66036,1.10255,1.10249,1.31298,2.81626.52118,4.14923Z"/>
      <path class="cls-2" d="M322.72388,48.29197c-.80208,23.92322-20.02448,43.62697-43.91741,44.98999-14.23182.8118-27.17073-4.75055-36.24069-14.09131-1.06242-1.09239-1.25278-2.76616-.46099-4.06904l9.90189-16.31622c.32054-.53121.86178-.90203,1.473-1.00223l39.90899-7.08575c2.47523,2.22491,5.75302,3.57796,9.35086,3.57796,7.7472,0,14.03118-6.28398,14.03118-14.03118,0-1.85416-.36115-3.61809-1.0125-5.23166l2.17524-3.68819c.56082-.93206,1.96433-.79174,2.31471.23049,1.79403,5.22162,2.67587,10.85414,2.47572,16.71714Z"/>
      <path class="cls-3" d="M288.70836,40.26418c0,3.05678.98216,5.88307,2.64553,8.18818l-39.78812,6.93539c-.37094.07016-.72182.26059-.92197.57128l-15.44447,24.91535c-4.17921-2.5857-5.27197-7.94765-2.68614-12.12692l12.71869-20.55569c.19036-.31069.50111-.52118.8515-.58131l42.63478-7.6169c-.00979.09017-.00979.18039-.00979.27062Z"/>
      <path class="cls-3" d="M326.35206,7.45122l-.10032,15.79511c0,1.37305-1.73383,1.95435-2.56576.87193l-2.62595-3.38753-6.76503,11.58574c-1.68392-2.45541-4.13908-4.34963-7.00531-5.33179l8.00754-13.73052-2.45516-3.17704c-.66163-.86196-.16051-2.12478.91169-2.29514l10.93445-1.76393c.88184-.14027,1.67364.54124,1.66385,1.43318Z"/>
      <circle class="cls-1" cx="302.712" cy="40.23134" r="6.01336"/>
    </g>
  </g>
</svg>