<?xml version="1.0" encoding="UTF-8"?>
<svg id="Layer_1" data-name="Layer 1" xmlns="http://www.w3.org/2000/svg" xmlns:xlink="http://www.w3.org/1999/xlink" viewBox="0 0 210.02211 36">
  <defs>
    <style>
      .cls-1 {
        fill: url(#linear-gradient-2);
      }

      .cls-2 {
        fill: #fff;
      }

      .cls-3 {
        fill: #00ba4b;
      }

      .cls-4 {
        fill: #070707;
      }

      .cls-5 {
        fill: url(#linear-gradient);
      }
    </style>
    <linearGradient id="linear-gradient" x1="87.45838" y1="13.61756" x2="119.99782" y2="8.12857" gradientUnits="userSpaceOnUse">
      <stop offset="0" stop-color="#ed722e"/>
      <stop offset=".23705" stop-color="#ec692c"/>
      <stop offset=".62125" stop-color="#eb5129"/>
      <stop offset="1" stop-color="#ea3326"/>
    </linearGradient>
    <linearGradient id="linear-gradient-2" x1="92.83351" y1="27.74873" x2="125.42941" y2="22.25021" gradientUnits="userSpaceOnUse">
      <stop offset="0" stop-color="#ea3326"/>
      <stop offset=".37875" stop-color="#eb5129"/>
      <stop offset=".76295" stop-color="#ec692c"/>
      <stop offset="1" stop-color="#ed722e"/>
    </linearGradient>
  </defs>
  <path d="M150.80189,11.48298v17.70543h-3.54124v-11.51591l-4.73008,11.51591h-2.68131l-4.75536-11.51591v11.51591h-3.54124V11.48298h4.02187l5.61529,13.16481,5.61548-13.16481h3.99658Z"/>
  <path d="M165.11875,25.81475h-7.03209l-1.16355,3.37367h-3.71824l6.34898-17.73072h4.12301l6.34898,17.73072h-3.74353l-1.16355-3.37367ZM164.15748,22.97398l-2.55488-7.40705-2.55469,7.40705h5.10956Z"/>
  <path d="M184.41854,11.48298v2.86643h-4.70498v14.839h-3.54124v-14.839h-4.70479v-2.86643h12.95101Z"/>
  <path d="M190.53976,11.48298v17.70543h-3.54124V11.48298h3.54124Z"/>
  <path d="M194.31947,15.75741c.76592-1.34604,1.81186-2.39492,3.13798-3.14665,1.32576-.75173,2.81263-1.12778,4.46005-1.12778,1.92725,0,3.6156.49587,5.06542,1.48687,1.44926.991,2.46239,2.36247,3.03918,4.11332h-3.9782c-.3954-.82583-.95137-1.44521-1.66789-1.85849-.71652-.41255-1.54438-.61938-2.48322-.61938-1.00501,0-1.89886.23522-2.68101.70601-.78251.4708-1.39212,1.13626-1.82845,1.9949-.4367.85901-.65477,1.86697-.65477,3.02277,0,1.13995.21807,2.14348.65477,3.01061.43633.86749,1.04593,1.53664,1.82845,2.00744.78215.4708,1.676.70601,2.68101.70601.93883,0,1.76669-.21051,2.48322-.63191.71652-.42103,1.27248-1.04446,1.66789-1.87066h3.9782c-.57679,1.7678-1.58567,3.14296-3.02683,4.12548-1.44171.98326-3.1343,1.47433-5.07777,1.47433-1.64743,0-3.1343-.37531-4.46005-1.12741-1.32613-.75136-2.37206-1.79656-3.13798-3.13448-.76611-1.33792-1.14898-2.85761-1.14898-4.55941,0-1.70107.38287-3.22481,1.14898-4.57158Z"/>
  <path d="M4.39532,28.01144c-1.34997-.75936-2.41992-1.81162-3.21004-3.15717-.79031-1.34555-1.18527-2.86831-1.18527-4.56904,0-1.68378.39497-3.19807,1.18527-4.54398.79012-1.34518,1.86007-2.39781,3.21004-3.15717,1.34978-.75899,2.83128-1.13922,4.44487-1.13922,1.6298,0,3.11517.38023,4.45721,1.13922,1.34149.75936,2.40334,1.81199,3.18536,3.15717.78183,1.34591,1.17293,2.86021,1.17293,4.54398,0,1.70072-.3911,3.22349-1.17293,4.56904-.78202,1.34555-1.8481,2.39781-3.1977,3.15717-1.35015.75936-2.83165,1.13885-4.44487,1.13885-1.61359,0-3.09509-.37949-4.44487-1.13885ZM11.5812,25.34946c.79012-.4705,1.40744-1.1429,1.85197-2.01832.44452-.87468.66669-1.8901.66669-3.0459,0-1.15543-.22217-2.1668-.66669-3.03337s-1.06185-1.53087-1.85197-1.99327c-.79031-.46202-1.70386-.69341-2.74102-.69341s-1.95495.23138-2.75336.69341c-.7986.46239-1.41979,1.12669-1.86431,1.99327s-.66669,1.87794-.66669,3.03337c0,1.1558.22217,2.17122.66669,3.0459.44452.87542,1.06572,1.54782,1.86431,2.01832.79841.4705,1.7162.70556,2.75336.70556s1.95071-.23507,2.74102-.70556Z"/>
  <path d="M29.39257,29.15029l-3.89544-6.89943h-1.66947v6.89943h-3.54124V11.44487h6.62713c1.36604,0,2.52959.24116,3.49066.72312.96126.48195,1.68212,1.13298,2.16275,1.9531.48063.82049.72085,1.7376.72085,2.75207,0,1.16695-.3374,2.21955-1.01165,3.15817-.67481.93862-1.67815,1.5855-3.01022,1.94064l4.22435,7.17834h-4.09773ZM23.82766,19.58748h2.95946c.96126,0,1.67778-.23248,2.1501-.69745.47195-.46497.70821-1.11185.70821-1.94064,0-.81181-.23626-1.44133-.70821-1.88969-.47233-.44799-1.18884-.67217-2.1501-.67217h-2.95946v5.19995Z"/>
  <path d="M47.18003,12.53558c1.40774.72727,2.49543,1.76288,3.2629,3.10759.76727,1.34433,1.15091,2.90417,1.15091,4.67988s-.38364,3.32725-1.15091,4.6546c-.76746,1.32773-1.85516,2.35504-3.2629,3.08193-1.4083.72727-3.03966,1.09071-4.89444,1.09071h-6.17197V11.44487h6.17197c1.85478,0,3.48613.36382,4.89444,1.09071ZM46.45918,24.60968c1.01165-1.01448,1.51757-2.44335,1.51757-4.28662,0-1.84289-.50592-3.28498-1.51757-4.32474-1.01184-1.04014-2.44543-1.56021-4.30021-1.56021h-2.50411v11.69367h2.50411c1.85478,0,3.28837-.50724,4.30021-1.52209Z"/>
  <path d="M58.17781,14.31129v4.43909h6.33092v2.81548h-6.33092v4.69271h7.08989v2.89171h-10.63112V11.41958h10.63112v2.89171h-7.08989Z"/>
  <path d="M77.41392,29.15029l-3.89544-6.89943h-1.66947v6.89943h-3.54124V11.44487h6.62713c1.36604,0,2.52959.24116,3.49066.72312.96126.48195,1.68212,1.13298,2.16275,1.9531.48063.82049.72085,1.7376.72085,2.75207,0,1.16695-.3374,2.21955-1.01165,3.15817-.67481.93862-1.67815,1.5855-3.01022,1.94064l4.22435,7.17834h-4.09773ZM71.84901,19.58748h2.95946c.96126,0,1.67778-.23248,2.1501-.69745.47195-.46497.70821-1.11185.70821-1.94064,0-.81181-.23626-1.44133-.70821-1.88969-.47233-.44799-1.18884-.67217-2.1501-.67217h-2.95946v5.19995Z"/>
  <path class="cls-5" d="M108.32745,14.92559l7.0668-1.25279,4.11876-6.97759c.23635-.4004.17015-.90758-.15395-1.24096C115.8267,1.8208,110.77592-.32591,105.23329.04047c-9.10665.60197-16.40521,8.11111-16.76348,17.23059-.08572,2.18188.21504,4.28403.84436,6.23978.14104.43831.73746.50281.97625.10913l3.39539-5.59774c.21539-.35509.57325-.60023.98217-.6728l8.97227-1.59223,4.68721-.83162Z"/>
  <path class="cls-1" d="M118.78187,18.55441l3.8075-6.45003c.21709-.36776.76942-.31419.90748.08994.68574,2.00736,1.02401,4.17394.94815,6.4272-.31055,9.22368-7.72001,16.82289-16.93395,17.34833-5.48922.31304-10.47977-1.8332-13.97728-5.43368-.40903-.42107-.47976-1.06746-.1752-1.56931l3.74592-6.17251c.17048-.28091.45364-.47482.77718-.53222l20.9002-3.70772Z"/>
  <circle class="cls-2" cx="116.74119" cy="15.52523" r="3.79081"/>
  <path class="cls-4" d="M126.06155,3.04569l-.03998,6.08997c0,.53003-.66998.75-.98999.34003l-1.02002-1.32001-.08002-.10999-5.87,9.48999-21.10999,4.02002c-.14001.01996-.26001.10999-.34003.22998l-5.83997,9.44c-1.60999-.98999-2.10999-3.10999-1.12-4.71997l4.84998-7.82001c.07001-.12.19-.20001.33002-.23004l21.22998-3.88,5.65002-9.39996-.85999-1.12c-.26001-.33002-.07001-.82001.34998-.88l4.21997-.67999c.33002-.06.64001.20001.64001.54999Z"/>
  <circle class="cls-2" cx="116.74119" cy="15.52523" r="5.33827"/>
  <path class="cls-4" d="M120.64863,16.54895c-.48075-.41211-.55572-1.12805-.17077-1.63081.05209-.06616.11158-.12615.17729-.1788.17368-.15074.23778-.3922.16172-.60923-.15142-.47944-.37992-.93102-.67653-1.33699-.13164-.18461-.37176-.25638-.58311-.17428-.56302.2191-1.19705-.05969-1.41615-.62271-.0039-.01002-.00765-.02009-.01125-.03022-.03025-.08512-.04965-.17371-.05776-.26368-.02143-.22574-.1933-.40816-.41737-.44299-.45734-.07669-.9236-.08431-1.3832-.0226-.23665.02653-.43169.19772-.48869.42892-.11602.59667-.71269,1.01254-1.34151.91008-.11212-.01761-.22108-.05145-.32345-.10045-.2152-.09984-.46986-.05449-.63736.11351-.34277.35049-.61085.76689-.78803,1.22399-.08516.22786-.01305.48464.1783.63485.49827.38619.60707,1.09484.24761,1.61273-.07202.102-.16105.19085-.26318.26268-.19543.14637-.27159.40367-.18734.63284.15249.47321.3797.91898.67302,1.32042.03706.04866.08185.09091.13259.12506.14172.09115.32022.10347.47312.03265.5485-.25192,1.19738-.0115,1.4493.53701.0551.11996.08801.24891.09713.3806.01427.23659.19481.42958.42993.45956.4564.06258.91948.05835,1.37466-.01256.2332-.03051.42286-.20275.47563-.43194.10849-.59718.70014-1.01957,1.32946-.92364.10662.01582.21056.04624.30888.0904.21559.09316.46639.04203.62832-.12807.16647-.1735.31552-.36292.44499-.56554.13301-.21561.2431-.44455.32847-.68306.07629-.21714.01077-.45884-.16474-.60772h0ZM117.9867,16.29782c-.42562.6901-1.3301.9045-2.0202.47888s-.9045-1.3301-.47888-2.0202,1.3301-.9045,2.0202-.47888c.00008.00005.00015.0001.00023.00014.68668.42852.9002,1.33008.47865,2.02106v-.001Z"/>
  <circle class="cls-3" cx="116.73635" cy="15.52699" r="2.24034"/>
</svg>